G75*
G70*
%OFA0B0*%
%FSLAX24Y24*%
%IPPOS*%
%LPD*%
%AMOC8*
5,1,8,0,0,1.08239X$1,22.5*
%
%ADD10C,0.0000*%
%ADD11C,0.1300*%
%ADD12C,0.0808*%
%ADD13C,0.0640*%
D10*
X000504Y001489D02*
X000504Y029619D01*
X001232Y029639D02*
X001234Y029689D01*
X001240Y029739D01*
X001250Y029788D01*
X001264Y029836D01*
X001281Y029883D01*
X001302Y029928D01*
X001327Y029972D01*
X001355Y030013D01*
X001387Y030052D01*
X001421Y030089D01*
X001458Y030123D01*
X001498Y030153D01*
X001540Y030180D01*
X001584Y030204D01*
X001630Y030225D01*
X001677Y030241D01*
X001725Y030254D01*
X001775Y030263D01*
X001824Y030268D01*
X001875Y030269D01*
X001925Y030266D01*
X001974Y030259D01*
X002023Y030248D01*
X002071Y030233D01*
X002117Y030215D01*
X002162Y030193D01*
X002205Y030167D01*
X002246Y030138D01*
X002285Y030106D01*
X002321Y030071D01*
X002353Y030033D01*
X002383Y029993D01*
X002410Y029950D01*
X002433Y029906D01*
X002452Y029860D01*
X002468Y029812D01*
X002480Y029763D01*
X002488Y029714D01*
X002492Y029664D01*
X002492Y029614D01*
X002488Y029564D01*
X002480Y029515D01*
X002468Y029466D01*
X002452Y029418D01*
X002433Y029372D01*
X002410Y029328D01*
X002383Y029285D01*
X002353Y029245D01*
X002321Y029207D01*
X002285Y029172D01*
X002246Y029140D01*
X002205Y029111D01*
X002162Y029085D01*
X002117Y029063D01*
X002071Y029045D01*
X002023Y029030D01*
X001974Y029019D01*
X001925Y029012D01*
X001875Y029009D01*
X001824Y029010D01*
X001775Y029015D01*
X001725Y029024D01*
X001677Y029037D01*
X001630Y029053D01*
X001584Y029074D01*
X001540Y029098D01*
X001498Y029125D01*
X001458Y029155D01*
X001421Y029189D01*
X001387Y029226D01*
X001355Y029265D01*
X001327Y029306D01*
X001302Y029350D01*
X001281Y029395D01*
X001264Y029442D01*
X001250Y029490D01*
X001240Y029539D01*
X001234Y029589D01*
X001232Y029639D01*
X000504Y029619D02*
X000508Y029691D01*
X000517Y029763D01*
X000529Y029835D01*
X000545Y029905D01*
X000565Y029975D01*
X000588Y030043D01*
X000615Y030110D01*
X000646Y030176D01*
X000680Y030240D01*
X000717Y030302D01*
X000757Y030362D01*
X000801Y030419D01*
X000848Y030475D01*
X000897Y030527D01*
X000950Y030577D01*
X001005Y030624D01*
X001062Y030669D01*
X001122Y030710D01*
X001183Y030747D01*
X001247Y030782D01*
X001312Y030813D01*
X001379Y030840D01*
X001448Y030864D01*
X001517Y030884D01*
X001587Y030901D01*
X001659Y030914D01*
X001731Y030923D01*
X001803Y030928D01*
X001875Y030929D01*
X001947Y030926D01*
X002019Y030920D01*
X002091Y030910D01*
X002162Y030895D01*
X002232Y030878D01*
X002301Y030856D01*
X002369Y030831D01*
X002435Y030802D01*
X002500Y030770D01*
X002563Y030734D01*
X002624Y030695D01*
X002683Y030653D01*
X002739Y030608D01*
X002793Y030560D01*
X002845Y030509D01*
X002893Y030455D01*
X002939Y030399D01*
X002982Y030340D01*
X003021Y030280D01*
X003057Y030217D01*
X003090Y030153D01*
X003119Y030086D01*
X003145Y030019D01*
X003167Y029950D01*
X003185Y029880D01*
X003200Y029809D01*
X003211Y029737D01*
X003218Y029665D01*
X003221Y029593D01*
X003220Y029521D01*
X003220Y026470D01*
X037157Y026489D01*
X037157Y029757D01*
X037158Y029757D02*
X037160Y029829D01*
X037166Y029901D01*
X037175Y029973D01*
X037189Y030044D01*
X037206Y030114D01*
X037227Y030184D01*
X037251Y030252D01*
X037279Y030318D01*
X037311Y030383D01*
X037346Y030446D01*
X037384Y030508D01*
X037426Y030567D01*
X037471Y030624D01*
X037518Y030678D01*
X037569Y030730D01*
X037622Y030779D01*
X037677Y030825D01*
X037735Y030868D01*
X037796Y030908D01*
X037858Y030945D01*
X037922Y030978D01*
X037988Y031008D01*
X038055Y031034D01*
X038124Y031057D01*
X038194Y031076D01*
X038264Y031091D01*
X038336Y031103D01*
X038408Y031111D01*
X038480Y031115D01*
X038552Y031115D01*
X038624Y031111D01*
X038696Y031103D01*
X038768Y031091D01*
X038838Y031076D01*
X038908Y031057D01*
X038977Y031034D01*
X039044Y031008D01*
X039110Y030978D01*
X039174Y030945D01*
X039236Y030908D01*
X039297Y030868D01*
X039355Y030825D01*
X039410Y030779D01*
X039463Y030730D01*
X039514Y030678D01*
X039561Y030624D01*
X039606Y030567D01*
X039648Y030508D01*
X039686Y030446D01*
X039721Y030383D01*
X039753Y030318D01*
X039781Y030252D01*
X039805Y030184D01*
X039826Y030114D01*
X039843Y030044D01*
X039857Y029973D01*
X039866Y029901D01*
X039872Y029829D01*
X039874Y029757D01*
X039874Y001489D01*
X039872Y001417D01*
X039866Y001345D01*
X039857Y001273D01*
X039843Y001202D01*
X039826Y001132D01*
X039805Y001062D01*
X039781Y000994D01*
X039753Y000928D01*
X039721Y000863D01*
X039686Y000800D01*
X039648Y000738D01*
X039606Y000679D01*
X039561Y000622D01*
X039514Y000568D01*
X039463Y000516D01*
X039410Y000467D01*
X039355Y000421D01*
X039297Y000378D01*
X039236Y000338D01*
X039174Y000301D01*
X039110Y000268D01*
X039044Y000238D01*
X038977Y000212D01*
X038908Y000189D01*
X038838Y000170D01*
X038768Y000155D01*
X038696Y000143D01*
X038624Y000135D01*
X038552Y000131D01*
X038480Y000131D01*
X038408Y000135D01*
X038336Y000143D01*
X038264Y000155D01*
X038194Y000170D01*
X038124Y000189D01*
X038055Y000212D01*
X037988Y000238D01*
X037922Y000268D01*
X037858Y000301D01*
X037796Y000338D01*
X037735Y000378D01*
X037677Y000421D01*
X037622Y000467D01*
X037569Y000516D01*
X037518Y000568D01*
X037471Y000622D01*
X037426Y000679D01*
X037384Y000738D01*
X037346Y000800D01*
X037311Y000863D01*
X037279Y000928D01*
X037251Y000994D01*
X037227Y001062D01*
X037206Y001132D01*
X037189Y001202D01*
X037175Y001273D01*
X037166Y001345D01*
X037160Y001417D01*
X037158Y001489D01*
X037157Y001489D02*
X037157Y004600D01*
X003220Y004619D01*
X003220Y001430D01*
X003221Y001430D02*
X003217Y001358D01*
X003210Y001286D01*
X003199Y001215D01*
X003184Y001144D01*
X003165Y001074D01*
X003143Y001005D01*
X003117Y000938D01*
X003087Y000872D01*
X003054Y000807D01*
X003018Y000745D01*
X002978Y000684D01*
X002935Y000626D01*
X002889Y000570D01*
X002840Y000517D01*
X002789Y000466D01*
X002734Y000418D01*
X002678Y000373D01*
X002619Y000331D01*
X002558Y000293D01*
X002495Y000257D01*
X002430Y000225D01*
X002363Y000197D01*
X002295Y000172D01*
X002226Y000151D01*
X002156Y000133D01*
X002085Y000119D01*
X002013Y000109D01*
X001941Y000103D01*
X001869Y000101D01*
X001796Y000103D01*
X001724Y000108D01*
X001652Y000117D01*
X001581Y000130D01*
X001511Y000147D01*
X001441Y000168D01*
X001373Y000192D01*
X001307Y000220D01*
X001241Y000251D01*
X001178Y000286D01*
X001116Y000324D01*
X001057Y000365D01*
X001000Y000410D01*
X000945Y000457D01*
X000893Y000507D01*
X000844Y000560D01*
X000797Y000616D01*
X000754Y000673D01*
X000713Y000734D01*
X000676Y000796D01*
X000643Y000860D01*
X000613Y000925D01*
X000586Y000993D01*
X000563Y001061D01*
X000543Y001131D01*
X000528Y001202D01*
X000516Y001273D01*
X000508Y001345D01*
X000504Y001417D01*
X000503Y001490D01*
X001232Y001489D02*
X001234Y001539D01*
X001240Y001589D01*
X001250Y001638D01*
X001264Y001686D01*
X001281Y001733D01*
X001302Y001778D01*
X001327Y001822D01*
X001355Y001863D01*
X001387Y001902D01*
X001421Y001939D01*
X001458Y001973D01*
X001498Y002003D01*
X001540Y002030D01*
X001584Y002054D01*
X001630Y002075D01*
X001677Y002091D01*
X001725Y002104D01*
X001775Y002113D01*
X001824Y002118D01*
X001875Y002119D01*
X001925Y002116D01*
X001974Y002109D01*
X002023Y002098D01*
X002071Y002083D01*
X002117Y002065D01*
X002162Y002043D01*
X002205Y002017D01*
X002246Y001988D01*
X002285Y001956D01*
X002321Y001921D01*
X002353Y001883D01*
X002383Y001843D01*
X002410Y001800D01*
X002433Y001756D01*
X002452Y001710D01*
X002468Y001662D01*
X002480Y001613D01*
X002488Y001564D01*
X002492Y001514D01*
X002492Y001464D01*
X002488Y001414D01*
X002480Y001365D01*
X002468Y001316D01*
X002452Y001268D01*
X002433Y001222D01*
X002410Y001178D01*
X002383Y001135D01*
X002353Y001095D01*
X002321Y001057D01*
X002285Y001022D01*
X002246Y000990D01*
X002205Y000961D01*
X002162Y000935D01*
X002117Y000913D01*
X002071Y000895D01*
X002023Y000880D01*
X001974Y000869D01*
X001925Y000862D01*
X001875Y000859D01*
X001824Y000860D01*
X001775Y000865D01*
X001725Y000874D01*
X001677Y000887D01*
X001630Y000903D01*
X001584Y000924D01*
X001540Y000948D01*
X001498Y000975D01*
X001458Y001005D01*
X001421Y001039D01*
X001387Y001076D01*
X001355Y001115D01*
X001327Y001156D01*
X001302Y001200D01*
X001281Y001245D01*
X001264Y001292D01*
X001250Y001340D01*
X001240Y001389D01*
X001234Y001439D01*
X001232Y001489D01*
X037886Y001489D02*
X037888Y001539D01*
X037894Y001589D01*
X037904Y001638D01*
X037918Y001686D01*
X037935Y001733D01*
X037956Y001778D01*
X037981Y001822D01*
X038009Y001863D01*
X038041Y001902D01*
X038075Y001939D01*
X038112Y001973D01*
X038152Y002003D01*
X038194Y002030D01*
X038238Y002054D01*
X038284Y002075D01*
X038331Y002091D01*
X038379Y002104D01*
X038429Y002113D01*
X038478Y002118D01*
X038529Y002119D01*
X038579Y002116D01*
X038628Y002109D01*
X038677Y002098D01*
X038725Y002083D01*
X038771Y002065D01*
X038816Y002043D01*
X038859Y002017D01*
X038900Y001988D01*
X038939Y001956D01*
X038975Y001921D01*
X039007Y001883D01*
X039037Y001843D01*
X039064Y001800D01*
X039087Y001756D01*
X039106Y001710D01*
X039122Y001662D01*
X039134Y001613D01*
X039142Y001564D01*
X039146Y001514D01*
X039146Y001464D01*
X039142Y001414D01*
X039134Y001365D01*
X039122Y001316D01*
X039106Y001268D01*
X039087Y001222D01*
X039064Y001178D01*
X039037Y001135D01*
X039007Y001095D01*
X038975Y001057D01*
X038939Y001022D01*
X038900Y000990D01*
X038859Y000961D01*
X038816Y000935D01*
X038771Y000913D01*
X038725Y000895D01*
X038677Y000880D01*
X038628Y000869D01*
X038579Y000862D01*
X038529Y000859D01*
X038478Y000860D01*
X038429Y000865D01*
X038379Y000874D01*
X038331Y000887D01*
X038284Y000903D01*
X038238Y000924D01*
X038194Y000948D01*
X038152Y000975D01*
X038112Y001005D01*
X038075Y001039D01*
X038041Y001076D01*
X038009Y001115D01*
X037981Y001156D01*
X037956Y001200D01*
X037935Y001245D01*
X037918Y001292D01*
X037904Y001340D01*
X037894Y001389D01*
X037888Y001439D01*
X037886Y001489D01*
X037886Y029619D02*
X037888Y029669D01*
X037894Y029719D01*
X037904Y029768D01*
X037918Y029816D01*
X037935Y029863D01*
X037956Y029908D01*
X037981Y029952D01*
X038009Y029993D01*
X038041Y030032D01*
X038075Y030069D01*
X038112Y030103D01*
X038152Y030133D01*
X038194Y030160D01*
X038238Y030184D01*
X038284Y030205D01*
X038331Y030221D01*
X038379Y030234D01*
X038429Y030243D01*
X038478Y030248D01*
X038529Y030249D01*
X038579Y030246D01*
X038628Y030239D01*
X038677Y030228D01*
X038725Y030213D01*
X038771Y030195D01*
X038816Y030173D01*
X038859Y030147D01*
X038900Y030118D01*
X038939Y030086D01*
X038975Y030051D01*
X039007Y030013D01*
X039037Y029973D01*
X039064Y029930D01*
X039087Y029886D01*
X039106Y029840D01*
X039122Y029792D01*
X039134Y029743D01*
X039142Y029694D01*
X039146Y029644D01*
X039146Y029594D01*
X039142Y029544D01*
X039134Y029495D01*
X039122Y029446D01*
X039106Y029398D01*
X039087Y029352D01*
X039064Y029308D01*
X039037Y029265D01*
X039007Y029225D01*
X038975Y029187D01*
X038939Y029152D01*
X038900Y029120D01*
X038859Y029091D01*
X038816Y029065D01*
X038771Y029043D01*
X038725Y029025D01*
X038677Y029010D01*
X038628Y028999D01*
X038579Y028992D01*
X038529Y028989D01*
X038478Y028990D01*
X038429Y028995D01*
X038379Y029004D01*
X038331Y029017D01*
X038284Y029033D01*
X038238Y029054D01*
X038194Y029078D01*
X038152Y029105D01*
X038112Y029135D01*
X038075Y029169D01*
X038041Y029206D01*
X038009Y029245D01*
X037981Y029286D01*
X037956Y029330D01*
X037935Y029375D01*
X037918Y029422D01*
X037904Y029470D01*
X037894Y029519D01*
X037888Y029569D01*
X037886Y029619D01*
D11*
X038516Y029619D03*
X001862Y029639D03*
X001862Y001489D03*
X038516Y001489D03*
D12*
X023457Y005603D03*
X023220Y007533D03*
X017512Y007533D03*
X017276Y005603D03*
D13*
X009764Y006071D02*
X009764Y006671D01*
X008764Y006671D02*
X008764Y006071D01*
M02*
