G75*
G70*
%OFA0B0*%
%FSLAX24Y24*%
%IPPOS*%
%LPD*%
%AMOC8*
5,1,8,0,0,1.08239X$1,22.5*
%
%ADD10C,0.0000*%
%ADD11C,0.0768*%
%ADD12C,0.0600*%
%ADD13C,0.0060*%
%ADD14C,0.0240*%
%ADD15C,0.0277*%
%ADD16C,0.0160*%
%ADD17C,0.0197*%
%ADD18C,0.0356*%
%ADD19C,0.0120*%
%ADD20C,0.0118*%
%ADD21C,0.0079*%
D10*
X000504Y001489D02*
X000504Y029619D01*
X001232Y029639D02*
X001234Y029689D01*
X001240Y029739D01*
X001250Y029788D01*
X001264Y029836D01*
X001281Y029883D01*
X001302Y029928D01*
X001327Y029972D01*
X001355Y030013D01*
X001387Y030052D01*
X001421Y030089D01*
X001458Y030123D01*
X001498Y030153D01*
X001540Y030180D01*
X001584Y030204D01*
X001630Y030225D01*
X001677Y030241D01*
X001725Y030254D01*
X001775Y030263D01*
X001824Y030268D01*
X001875Y030269D01*
X001925Y030266D01*
X001974Y030259D01*
X002023Y030248D01*
X002071Y030233D01*
X002117Y030215D01*
X002162Y030193D01*
X002205Y030167D01*
X002246Y030138D01*
X002285Y030106D01*
X002321Y030071D01*
X002353Y030033D01*
X002383Y029993D01*
X002410Y029950D01*
X002433Y029906D01*
X002452Y029860D01*
X002468Y029812D01*
X002480Y029763D01*
X002488Y029714D01*
X002492Y029664D01*
X002492Y029614D01*
X002488Y029564D01*
X002480Y029515D01*
X002468Y029466D01*
X002452Y029418D01*
X002433Y029372D01*
X002410Y029328D01*
X002383Y029285D01*
X002353Y029245D01*
X002321Y029207D01*
X002285Y029172D01*
X002246Y029140D01*
X002205Y029111D01*
X002162Y029085D01*
X002117Y029063D01*
X002071Y029045D01*
X002023Y029030D01*
X001974Y029019D01*
X001925Y029012D01*
X001875Y029009D01*
X001824Y029010D01*
X001775Y029015D01*
X001725Y029024D01*
X001677Y029037D01*
X001630Y029053D01*
X001584Y029074D01*
X001540Y029098D01*
X001498Y029125D01*
X001458Y029155D01*
X001421Y029189D01*
X001387Y029226D01*
X001355Y029265D01*
X001327Y029306D01*
X001302Y029350D01*
X001281Y029395D01*
X001264Y029442D01*
X001250Y029490D01*
X001240Y029539D01*
X001234Y029589D01*
X001232Y029639D01*
X000504Y029619D02*
X000508Y029691D01*
X000517Y029763D01*
X000529Y029835D01*
X000545Y029905D01*
X000565Y029975D01*
X000588Y030043D01*
X000615Y030110D01*
X000646Y030176D01*
X000680Y030240D01*
X000717Y030302D01*
X000757Y030362D01*
X000801Y030419D01*
X000848Y030475D01*
X000897Y030527D01*
X000950Y030577D01*
X001005Y030624D01*
X001062Y030669D01*
X001122Y030710D01*
X001183Y030747D01*
X001247Y030782D01*
X001312Y030813D01*
X001379Y030840D01*
X001448Y030864D01*
X001517Y030884D01*
X001587Y030901D01*
X001659Y030914D01*
X001731Y030923D01*
X001803Y030928D01*
X001875Y030929D01*
X001947Y030926D01*
X002019Y030920D01*
X002091Y030910D01*
X002162Y030895D01*
X002232Y030878D01*
X002301Y030856D01*
X002369Y030831D01*
X002435Y030802D01*
X002500Y030770D01*
X002563Y030734D01*
X002624Y030695D01*
X002683Y030653D01*
X002739Y030608D01*
X002793Y030560D01*
X002845Y030509D01*
X002893Y030455D01*
X002939Y030399D01*
X002982Y030340D01*
X003021Y030280D01*
X003057Y030217D01*
X003090Y030153D01*
X003119Y030086D01*
X003145Y030019D01*
X003167Y029950D01*
X003185Y029880D01*
X003200Y029809D01*
X003211Y029737D01*
X003218Y029665D01*
X003221Y029593D01*
X003220Y029521D01*
X003220Y026470D01*
X037157Y026489D01*
X037157Y029757D01*
X037158Y029757D02*
X037160Y029829D01*
X037166Y029901D01*
X037175Y029973D01*
X037189Y030044D01*
X037206Y030114D01*
X037227Y030184D01*
X037251Y030252D01*
X037279Y030318D01*
X037311Y030383D01*
X037346Y030446D01*
X037384Y030508D01*
X037426Y030567D01*
X037471Y030624D01*
X037518Y030678D01*
X037569Y030730D01*
X037622Y030779D01*
X037677Y030825D01*
X037735Y030868D01*
X037796Y030908D01*
X037858Y030945D01*
X037922Y030978D01*
X037988Y031008D01*
X038055Y031034D01*
X038124Y031057D01*
X038194Y031076D01*
X038264Y031091D01*
X038336Y031103D01*
X038408Y031111D01*
X038480Y031115D01*
X038552Y031115D01*
X038624Y031111D01*
X038696Y031103D01*
X038768Y031091D01*
X038838Y031076D01*
X038908Y031057D01*
X038977Y031034D01*
X039044Y031008D01*
X039110Y030978D01*
X039174Y030945D01*
X039236Y030908D01*
X039297Y030868D01*
X039355Y030825D01*
X039410Y030779D01*
X039463Y030730D01*
X039514Y030678D01*
X039561Y030624D01*
X039606Y030567D01*
X039648Y030508D01*
X039686Y030446D01*
X039721Y030383D01*
X039753Y030318D01*
X039781Y030252D01*
X039805Y030184D01*
X039826Y030114D01*
X039843Y030044D01*
X039857Y029973D01*
X039866Y029901D01*
X039872Y029829D01*
X039874Y029757D01*
X039874Y001489D01*
X039872Y001417D01*
X039866Y001345D01*
X039857Y001273D01*
X039843Y001202D01*
X039826Y001132D01*
X039805Y001062D01*
X039781Y000994D01*
X039753Y000928D01*
X039721Y000863D01*
X039686Y000800D01*
X039648Y000738D01*
X039606Y000679D01*
X039561Y000622D01*
X039514Y000568D01*
X039463Y000516D01*
X039410Y000467D01*
X039355Y000421D01*
X039297Y000378D01*
X039236Y000338D01*
X039174Y000301D01*
X039110Y000268D01*
X039044Y000238D01*
X038977Y000212D01*
X038908Y000189D01*
X038838Y000170D01*
X038768Y000155D01*
X038696Y000143D01*
X038624Y000135D01*
X038552Y000131D01*
X038480Y000131D01*
X038408Y000135D01*
X038336Y000143D01*
X038264Y000155D01*
X038194Y000170D01*
X038124Y000189D01*
X038055Y000212D01*
X037988Y000238D01*
X037922Y000268D01*
X037858Y000301D01*
X037796Y000338D01*
X037735Y000378D01*
X037677Y000421D01*
X037622Y000467D01*
X037569Y000516D01*
X037518Y000568D01*
X037471Y000622D01*
X037426Y000679D01*
X037384Y000738D01*
X037346Y000800D01*
X037311Y000863D01*
X037279Y000928D01*
X037251Y000994D01*
X037227Y001062D01*
X037206Y001132D01*
X037189Y001202D01*
X037175Y001273D01*
X037166Y001345D01*
X037160Y001417D01*
X037158Y001489D01*
X037157Y001489D02*
X037157Y004600D01*
X003220Y004619D01*
X003220Y001430D01*
X003221Y001430D02*
X003217Y001358D01*
X003210Y001286D01*
X003199Y001215D01*
X003184Y001144D01*
X003165Y001074D01*
X003143Y001005D01*
X003117Y000938D01*
X003087Y000872D01*
X003054Y000807D01*
X003018Y000745D01*
X002978Y000684D01*
X002935Y000626D01*
X002889Y000570D01*
X002840Y000517D01*
X002789Y000466D01*
X002734Y000418D01*
X002678Y000373D01*
X002619Y000331D01*
X002558Y000293D01*
X002495Y000257D01*
X002430Y000225D01*
X002363Y000197D01*
X002295Y000172D01*
X002226Y000151D01*
X002156Y000133D01*
X002085Y000119D01*
X002013Y000109D01*
X001941Y000103D01*
X001869Y000101D01*
X001796Y000103D01*
X001724Y000108D01*
X001652Y000117D01*
X001581Y000130D01*
X001511Y000147D01*
X001441Y000168D01*
X001373Y000192D01*
X001307Y000220D01*
X001241Y000251D01*
X001178Y000286D01*
X001116Y000324D01*
X001057Y000365D01*
X001000Y000410D01*
X000945Y000457D01*
X000893Y000507D01*
X000844Y000560D01*
X000797Y000616D01*
X000754Y000673D01*
X000713Y000734D01*
X000676Y000796D01*
X000643Y000860D01*
X000613Y000925D01*
X000586Y000993D01*
X000563Y001061D01*
X000543Y001131D01*
X000528Y001202D01*
X000516Y001273D01*
X000508Y001345D01*
X000504Y001417D01*
X000503Y001490D01*
X001232Y001489D02*
X001234Y001539D01*
X001240Y001589D01*
X001250Y001638D01*
X001264Y001686D01*
X001281Y001733D01*
X001302Y001778D01*
X001327Y001822D01*
X001355Y001863D01*
X001387Y001902D01*
X001421Y001939D01*
X001458Y001973D01*
X001498Y002003D01*
X001540Y002030D01*
X001584Y002054D01*
X001630Y002075D01*
X001677Y002091D01*
X001725Y002104D01*
X001775Y002113D01*
X001824Y002118D01*
X001875Y002119D01*
X001925Y002116D01*
X001974Y002109D01*
X002023Y002098D01*
X002071Y002083D01*
X002117Y002065D01*
X002162Y002043D01*
X002205Y002017D01*
X002246Y001988D01*
X002285Y001956D01*
X002321Y001921D01*
X002353Y001883D01*
X002383Y001843D01*
X002410Y001800D01*
X002433Y001756D01*
X002452Y001710D01*
X002468Y001662D01*
X002480Y001613D01*
X002488Y001564D01*
X002492Y001514D01*
X002492Y001464D01*
X002488Y001414D01*
X002480Y001365D01*
X002468Y001316D01*
X002452Y001268D01*
X002433Y001222D01*
X002410Y001178D01*
X002383Y001135D01*
X002353Y001095D01*
X002321Y001057D01*
X002285Y001022D01*
X002246Y000990D01*
X002205Y000961D01*
X002162Y000935D01*
X002117Y000913D01*
X002071Y000895D01*
X002023Y000880D01*
X001974Y000869D01*
X001925Y000862D01*
X001875Y000859D01*
X001824Y000860D01*
X001775Y000865D01*
X001725Y000874D01*
X001677Y000887D01*
X001630Y000903D01*
X001584Y000924D01*
X001540Y000948D01*
X001498Y000975D01*
X001458Y001005D01*
X001421Y001039D01*
X001387Y001076D01*
X001355Y001115D01*
X001327Y001156D01*
X001302Y001200D01*
X001281Y001245D01*
X001264Y001292D01*
X001250Y001340D01*
X001240Y001389D01*
X001234Y001439D01*
X001232Y001489D01*
X037886Y001489D02*
X037888Y001539D01*
X037894Y001589D01*
X037904Y001638D01*
X037918Y001686D01*
X037935Y001733D01*
X037956Y001778D01*
X037981Y001822D01*
X038009Y001863D01*
X038041Y001902D01*
X038075Y001939D01*
X038112Y001973D01*
X038152Y002003D01*
X038194Y002030D01*
X038238Y002054D01*
X038284Y002075D01*
X038331Y002091D01*
X038379Y002104D01*
X038429Y002113D01*
X038478Y002118D01*
X038529Y002119D01*
X038579Y002116D01*
X038628Y002109D01*
X038677Y002098D01*
X038725Y002083D01*
X038771Y002065D01*
X038816Y002043D01*
X038859Y002017D01*
X038900Y001988D01*
X038939Y001956D01*
X038975Y001921D01*
X039007Y001883D01*
X039037Y001843D01*
X039064Y001800D01*
X039087Y001756D01*
X039106Y001710D01*
X039122Y001662D01*
X039134Y001613D01*
X039142Y001564D01*
X039146Y001514D01*
X039146Y001464D01*
X039142Y001414D01*
X039134Y001365D01*
X039122Y001316D01*
X039106Y001268D01*
X039087Y001222D01*
X039064Y001178D01*
X039037Y001135D01*
X039007Y001095D01*
X038975Y001057D01*
X038939Y001022D01*
X038900Y000990D01*
X038859Y000961D01*
X038816Y000935D01*
X038771Y000913D01*
X038725Y000895D01*
X038677Y000880D01*
X038628Y000869D01*
X038579Y000862D01*
X038529Y000859D01*
X038478Y000860D01*
X038429Y000865D01*
X038379Y000874D01*
X038331Y000887D01*
X038284Y000903D01*
X038238Y000924D01*
X038194Y000948D01*
X038152Y000975D01*
X038112Y001005D01*
X038075Y001039D01*
X038041Y001076D01*
X038009Y001115D01*
X037981Y001156D01*
X037956Y001200D01*
X037935Y001245D01*
X037918Y001292D01*
X037904Y001340D01*
X037894Y001389D01*
X037888Y001439D01*
X037886Y001489D01*
X037886Y029619D02*
X037888Y029669D01*
X037894Y029719D01*
X037904Y029768D01*
X037918Y029816D01*
X037935Y029863D01*
X037956Y029908D01*
X037981Y029952D01*
X038009Y029993D01*
X038041Y030032D01*
X038075Y030069D01*
X038112Y030103D01*
X038152Y030133D01*
X038194Y030160D01*
X038238Y030184D01*
X038284Y030205D01*
X038331Y030221D01*
X038379Y030234D01*
X038429Y030243D01*
X038478Y030248D01*
X038529Y030249D01*
X038579Y030246D01*
X038628Y030239D01*
X038677Y030228D01*
X038725Y030213D01*
X038771Y030195D01*
X038816Y030173D01*
X038859Y030147D01*
X038900Y030118D01*
X038939Y030086D01*
X038975Y030051D01*
X039007Y030013D01*
X039037Y029973D01*
X039064Y029930D01*
X039087Y029886D01*
X039106Y029840D01*
X039122Y029792D01*
X039134Y029743D01*
X039142Y029694D01*
X039146Y029644D01*
X039146Y029594D01*
X039142Y029544D01*
X039134Y029495D01*
X039122Y029446D01*
X039106Y029398D01*
X039087Y029352D01*
X039064Y029308D01*
X039037Y029265D01*
X039007Y029225D01*
X038975Y029187D01*
X038939Y029152D01*
X038900Y029120D01*
X038859Y029091D01*
X038816Y029065D01*
X038771Y029043D01*
X038725Y029025D01*
X038677Y029010D01*
X038628Y028999D01*
X038579Y028992D01*
X038529Y028989D01*
X038478Y028990D01*
X038429Y028995D01*
X038379Y029004D01*
X038331Y029017D01*
X038284Y029033D01*
X038238Y029054D01*
X038194Y029078D01*
X038152Y029105D01*
X038112Y029135D01*
X038075Y029169D01*
X038041Y029206D01*
X038009Y029245D01*
X037981Y029286D01*
X037956Y029330D01*
X037935Y029375D01*
X037918Y029422D01*
X037904Y029470D01*
X037894Y029519D01*
X037888Y029569D01*
X037886Y029619D01*
D11*
X023220Y007533D03*
X023457Y005603D03*
X017276Y005603D03*
X017512Y007533D03*
D12*
X009764Y006671D02*
X009764Y006071D01*
X008764Y006071D02*
X008764Y006671D01*
D13*
X008734Y006688D02*
X008794Y006688D01*
X008794Y006746D02*
X008734Y006746D01*
X008734Y006805D02*
X008794Y006805D01*
X008794Y006864D02*
X008734Y006864D01*
X008734Y006922D02*
X008794Y006922D01*
X008794Y006981D02*
X008734Y006981D01*
X008734Y007039D02*
X008794Y007039D01*
X008794Y007098D02*
X008734Y007098D01*
X008734Y007101D02*
X008730Y007101D01*
X008663Y007091D01*
X008599Y007070D01*
X008538Y007039D01*
X008484Y006999D01*
X008436Y006951D01*
X008396Y006897D01*
X008365Y006836D01*
X008344Y006772D01*
X008334Y006705D01*
X008334Y006401D01*
X008734Y006401D01*
X008734Y007101D01*
X008708Y007098D02*
X000634Y007098D01*
X000634Y007156D02*
X016110Y007156D01*
X016126Y007172D02*
X016003Y007049D01*
X016003Y006875D01*
X016126Y006752D01*
X016300Y006752D01*
X016390Y006842D01*
X019303Y006842D01*
X019393Y006752D01*
X019567Y006752D01*
X019657Y006842D01*
X022483Y006842D01*
X022553Y006912D01*
X022589Y006948D01*
X022589Y006854D01*
X022344Y006609D01*
X019657Y006609D01*
X019567Y006699D01*
X019393Y006699D01*
X019270Y006576D01*
X019270Y006402D01*
X019393Y006279D01*
X019567Y006279D01*
X019657Y006369D01*
X022344Y006369D01*
X022443Y006369D01*
X022758Y006684D01*
X022829Y006755D01*
X022829Y007198D01*
X022886Y007141D01*
X022951Y007093D01*
X023023Y007056D01*
X023100Y007031D01*
X023180Y007019D01*
X023190Y007019D01*
X023190Y007502D01*
X023250Y007502D01*
X023250Y007019D01*
X023261Y007019D01*
X023341Y007031D01*
X023418Y007056D01*
X023490Y007093D01*
X023555Y007141D01*
X023612Y007198D01*
X023660Y007263D01*
X023697Y007335D01*
X023722Y007412D01*
X023734Y007492D01*
X023734Y007503D01*
X023251Y007503D01*
X023251Y007563D01*
X023734Y007563D01*
X023734Y007573D01*
X023722Y007653D01*
X023697Y007730D01*
X023660Y007802D01*
X023612Y007867D01*
X023555Y007925D01*
X023490Y007972D01*
X023418Y008009D01*
X023341Y008034D01*
X023261Y008046D01*
X023250Y008046D01*
X023250Y007563D01*
X023190Y007563D01*
X023190Y008046D01*
X023180Y008046D01*
X023100Y008034D01*
X023023Y008009D01*
X022951Y007972D01*
X022886Y007925D01*
X022829Y007867D01*
X022829Y008881D01*
X023585Y009637D01*
X030563Y009637D01*
X030653Y009547D01*
X030827Y009547D01*
X030950Y009670D01*
X030950Y009844D01*
X030827Y009967D01*
X030653Y009967D01*
X030563Y009877D01*
X023486Y009877D01*
X023419Y009810D01*
X023419Y009846D01*
X023419Y010062D01*
X023428Y010070D01*
X030248Y010070D01*
X030338Y009980D01*
X030512Y009980D01*
X030635Y010103D01*
X030635Y010277D01*
X030512Y010400D01*
X030338Y010400D01*
X030248Y010310D01*
X025409Y010310D01*
X025517Y010418D01*
X025517Y010592D01*
X025394Y010715D01*
X025220Y010715D01*
X025160Y010655D01*
X023564Y010655D01*
X023504Y010715D01*
X023330Y010715D01*
X023207Y010592D01*
X023207Y010418D01*
X023322Y010304D01*
X023249Y010231D01*
X023179Y010161D01*
X023179Y009957D01*
X023071Y010065D01*
X022944Y010065D01*
X022809Y010200D01*
X022809Y010200D01*
X022739Y010271D01*
X021606Y010271D01*
X021516Y010361D01*
X021342Y010361D01*
X021219Y010238D01*
X021219Y010087D01*
X021162Y010144D01*
X020988Y010144D01*
X020865Y010021D01*
X020865Y009847D01*
X020988Y009724D01*
X021162Y009724D01*
X021252Y009814D01*
X022065Y009814D01*
X021734Y009483D01*
X020281Y009483D01*
X020281Y009529D01*
X020158Y009652D01*
X019984Y009652D01*
X019861Y009529D01*
X019861Y009355D01*
X019870Y009345D01*
X019769Y009345D01*
X019769Y009391D01*
X019646Y009514D01*
X019472Y009514D01*
X019349Y009391D01*
X019349Y009217D01*
X019359Y009208D01*
X018890Y009208D01*
X018780Y009317D01*
X018606Y009317D01*
X018483Y009194D01*
X018483Y009020D01*
X018583Y008920D01*
X018562Y008899D01*
X018562Y008725D01*
X018685Y008602D01*
X018859Y008602D01*
X018896Y008640D01*
X018896Y008587D01*
X019019Y008464D01*
X019107Y008464D01*
X019145Y008410D01*
X019163Y008382D01*
X019163Y008369D01*
X019190Y008342D01*
X019211Y008311D01*
X019224Y008308D01*
X019234Y008298D01*
X019272Y008298D01*
X019309Y008291D01*
X019320Y008298D01*
X019824Y008298D01*
X019924Y008298D01*
X020002Y008377D01*
X020622Y008377D01*
X020712Y008287D01*
X020886Y008287D01*
X021009Y008410D01*
X021009Y008523D01*
X021083Y008523D01*
X021206Y008646D01*
X021206Y008820D01*
X021196Y008830D01*
X021731Y008830D01*
X021731Y008784D01*
X021854Y008661D01*
X022028Y008661D01*
X022151Y008784D01*
X022151Y008878D01*
X022323Y008878D01*
X022392Y008946D01*
X022392Y007090D01*
X022383Y007082D01*
X019657Y007082D01*
X019567Y007172D01*
X019393Y007172D01*
X019303Y007082D01*
X017759Y007082D01*
X017781Y007093D01*
X017847Y007141D01*
X017904Y007198D01*
X017951Y007263D01*
X017988Y007335D01*
X018013Y007412D01*
X018026Y007492D01*
X018026Y007503D01*
X017542Y007503D01*
X017542Y007563D01*
X017482Y007563D01*
X017482Y008046D01*
X017471Y008046D01*
X017391Y008034D01*
X017315Y008009D01*
X017242Y007972D01*
X017177Y007925D01*
X017120Y007867D01*
X017072Y007802D01*
X017036Y007730D01*
X017011Y007653D01*
X016998Y007573D01*
X016998Y007563D01*
X017482Y007563D01*
X017482Y007503D01*
X016998Y007503D01*
X016998Y007492D01*
X017011Y007412D01*
X017036Y007335D01*
X017072Y007263D01*
X017120Y007198D01*
X017177Y007141D01*
X017242Y007093D01*
X017265Y007082D01*
X016390Y007082D01*
X016300Y007172D01*
X016126Y007172D01*
X016052Y007098D02*
X008820Y007098D01*
X008798Y007101D02*
X008864Y007091D01*
X008929Y007070D01*
X008989Y007039D01*
X009044Y006999D01*
X009092Y006951D01*
X009131Y006897D01*
X009162Y006836D01*
X009183Y006772D01*
X009194Y006705D01*
X009194Y006401D01*
X008794Y006401D01*
X008794Y006341D01*
X009194Y006341D01*
X009194Y006037D01*
X009183Y005970D01*
X009162Y005906D01*
X009131Y005846D01*
X009092Y005791D01*
X009044Y005743D01*
X008989Y005703D01*
X008929Y005673D01*
X008864Y005652D01*
X008798Y005641D01*
X008794Y005641D01*
X008794Y006341D01*
X008734Y006341D01*
X008734Y005641D01*
X008730Y005641D01*
X008663Y005652D01*
X008599Y005673D01*
X008538Y005703D01*
X008484Y005743D01*
X008436Y005791D01*
X008396Y005846D01*
X008365Y005906D01*
X008344Y005970D01*
X008334Y006037D01*
X008334Y006341D01*
X008734Y006341D01*
X008734Y006401D01*
X008794Y006401D01*
X008794Y007101D01*
X008798Y007101D01*
X008989Y007039D02*
X009633Y007039D01*
X009686Y007061D02*
X009543Y007002D01*
X009433Y006892D01*
X009374Y006749D01*
X009374Y005994D01*
X009433Y005850D01*
X009543Y005741D01*
X009686Y005681D01*
X009841Y005681D01*
X009985Y005741D01*
X010094Y005850D01*
X010154Y005994D01*
X010154Y006749D01*
X010094Y006892D01*
X009985Y007002D01*
X009841Y007061D01*
X009686Y007061D01*
X009522Y006981D02*
X009062Y006981D01*
X009113Y006922D02*
X009463Y006922D01*
X009421Y006864D02*
X009148Y006864D01*
X009172Y006805D02*
X009397Y006805D01*
X009374Y006746D02*
X009187Y006746D01*
X009194Y006688D02*
X009374Y006688D01*
X009374Y006629D02*
X009194Y006629D01*
X009194Y006571D02*
X009374Y006571D01*
X009374Y006512D02*
X009194Y006512D01*
X009194Y006454D02*
X009374Y006454D01*
X009374Y006395D02*
X008794Y006395D01*
X008794Y006337D02*
X008734Y006337D01*
X008734Y006395D02*
X000634Y006395D01*
X000634Y006337D02*
X008334Y006337D01*
X008334Y006278D02*
X000634Y006278D01*
X000634Y006220D02*
X008334Y006220D01*
X008334Y006161D02*
X000634Y006161D01*
X000634Y006102D02*
X008334Y006102D01*
X008334Y006044D02*
X000634Y006044D01*
X000634Y005985D02*
X008342Y005985D01*
X008359Y005927D02*
X000634Y005927D01*
X000634Y005868D02*
X008385Y005868D01*
X008422Y005810D02*
X000634Y005810D01*
X000634Y005751D02*
X008476Y005751D01*
X008560Y005693D02*
X000634Y005693D01*
X000634Y005634D02*
X016762Y005634D01*
X016762Y005633D02*
X017245Y005633D01*
X017245Y005573D01*
X016762Y005573D01*
X016762Y005563D01*
X016774Y005483D01*
X016799Y005406D01*
X016836Y005334D01*
X016884Y005269D01*
X016941Y005211D01*
X017006Y005164D01*
X017078Y005127D01*
X017155Y005102D01*
X017235Y005090D01*
X017246Y005090D01*
X017246Y005573D01*
X017306Y005573D01*
X017306Y005633D01*
X017789Y005633D01*
X017789Y005644D01*
X017777Y005724D01*
X017752Y005801D01*
X017715Y005873D01*
X017668Y005938D01*
X017610Y005995D01*
X017545Y006043D01*
X017473Y006080D01*
X017396Y006105D01*
X017316Y006117D01*
X017306Y006117D01*
X017306Y005634D01*
X017246Y005634D01*
X017246Y006117D01*
X017235Y006117D01*
X017155Y006105D01*
X017078Y006080D01*
X017006Y006043D01*
X016941Y005995D01*
X016884Y005938D01*
X016836Y005873D01*
X016799Y005801D01*
X016774Y005724D01*
X016762Y005644D01*
X016762Y005633D01*
X016769Y005693D02*
X009869Y005693D01*
X009995Y005751D02*
X016783Y005751D01*
X016804Y005810D02*
X010054Y005810D01*
X010102Y005868D02*
X016834Y005868D01*
X016875Y005927D02*
X010126Y005927D01*
X010150Y005985D02*
X016931Y005985D01*
X017008Y006044D02*
X010154Y006044D01*
X010154Y006102D02*
X017148Y006102D01*
X017246Y006102D02*
X017306Y006102D01*
X017306Y006044D02*
X017246Y006044D01*
X017246Y005985D02*
X017306Y005985D01*
X017306Y005927D02*
X017246Y005927D01*
X017246Y005868D02*
X017306Y005868D01*
X017306Y005810D02*
X017246Y005810D01*
X017246Y005751D02*
X017306Y005751D01*
X017306Y005693D02*
X017246Y005693D01*
X017246Y005634D02*
X017306Y005634D01*
X017306Y005576D02*
X023426Y005576D01*
X023426Y005573D02*
X022943Y005573D01*
X022943Y005563D01*
X022955Y005483D01*
X022980Y005406D01*
X023017Y005334D01*
X023065Y005269D01*
X023122Y005211D01*
X023187Y005164D01*
X023259Y005127D01*
X023336Y005102D01*
X023416Y005090D01*
X023427Y005090D01*
X023427Y005573D01*
X023487Y005573D01*
X023487Y005633D01*
X023971Y005633D01*
X023971Y005644D01*
X023958Y005724D01*
X023933Y005801D01*
X023896Y005873D01*
X023849Y005938D01*
X023791Y005995D01*
X023726Y006043D01*
X023654Y006080D01*
X023577Y006105D01*
X023497Y006117D01*
X023487Y006117D01*
X023487Y005634D01*
X023427Y005634D01*
X023427Y006117D01*
X023416Y006117D01*
X023336Y006105D01*
X023259Y006080D01*
X023187Y006043D01*
X023122Y005995D01*
X023065Y005938D01*
X023017Y005873D01*
X022980Y005801D01*
X022955Y005724D01*
X022943Y005644D01*
X022943Y005633D01*
X023426Y005633D01*
X023426Y005573D01*
X023427Y005517D02*
X023487Y005517D01*
X023487Y005573D02*
X023487Y005090D01*
X023497Y005090D01*
X023577Y005102D01*
X023654Y005127D01*
X023726Y005164D01*
X023791Y005211D01*
X023849Y005269D01*
X023896Y005334D01*
X023933Y005406D01*
X023958Y005483D01*
X023971Y005563D01*
X023971Y005573D01*
X023487Y005573D01*
X023487Y005576D02*
X025215Y005576D01*
X025215Y005631D02*
X025215Y005457D01*
X025338Y005334D01*
X025351Y005334D01*
X025274Y005257D01*
X025274Y005083D01*
X025397Y004960D01*
X025536Y004960D01*
X025638Y004867D01*
X025749Y004755D01*
X025849Y004755D01*
X032925Y004755D01*
X032949Y004732D01*
X003274Y004749D01*
X003274Y004749D01*
X003241Y004749D01*
X003167Y004749D01*
X003167Y004749D01*
X003167Y004749D01*
X003134Y004716D01*
X003091Y004673D01*
X003090Y004673D01*
X003090Y004624D01*
X003090Y004600D01*
X000634Y004600D01*
X000634Y026489D01*
X003090Y026489D01*
X003090Y026466D01*
X003090Y026416D01*
X003091Y026416D01*
X003091Y026416D01*
X003132Y026374D01*
X003167Y026340D01*
X003239Y026340D01*
X003274Y026340D01*
X037149Y026359D01*
X037211Y026359D01*
X037211Y026359D01*
X037211Y026359D01*
X037254Y026402D01*
X037287Y026435D01*
X037287Y026435D01*
X037287Y026436D01*
X037287Y026489D01*
X039744Y026489D01*
X039744Y022271D01*
X039646Y022369D01*
X039472Y022369D01*
X039432Y022329D01*
X033623Y022329D01*
X033583Y022369D01*
X033409Y022369D01*
X033286Y022246D01*
X033286Y022072D01*
X033409Y021949D01*
X033583Y021949D01*
X033623Y021989D01*
X039432Y021989D01*
X039472Y021949D01*
X039646Y021949D01*
X039744Y022047D01*
X039744Y016080D01*
X039412Y016412D01*
X039312Y016412D01*
X038349Y016412D01*
X038234Y016528D01*
X038234Y016655D01*
X038111Y016778D01*
X037937Y016778D01*
X037814Y016655D01*
X037814Y016481D01*
X037937Y016358D01*
X038064Y016358D01*
X038249Y016172D01*
X038349Y016172D01*
X039312Y016172D01*
X039557Y015928D01*
X039557Y010397D01*
X039470Y010310D01*
X038637Y010310D01*
X038706Y010379D01*
X038706Y010553D01*
X038583Y010676D01*
X038497Y010676D01*
X037928Y011245D01*
X037804Y011245D01*
X037244Y011245D01*
X037210Y011282D01*
X037210Y011438D01*
X037141Y011507D01*
X038545Y011507D01*
X038660Y011392D01*
X038660Y011264D01*
X038783Y011141D01*
X038957Y011141D01*
X039080Y011264D01*
X039080Y011438D01*
X038957Y011561D01*
X038830Y011561D01*
X038714Y011677D01*
X038644Y011747D01*
X032649Y011747D01*
X032599Y011798D01*
X032425Y011798D01*
X032302Y011675D01*
X032302Y011501D01*
X032356Y011446D01*
X029835Y011449D01*
X029887Y011501D01*
X029887Y011675D01*
X029764Y011798D01*
X029590Y011798D01*
X029500Y011708D01*
X028578Y011708D01*
X028588Y011717D01*
X028588Y011891D01*
X028511Y011968D01*
X028681Y011968D01*
X028804Y012091D01*
X028804Y012265D01*
X028681Y012388D01*
X028613Y012388D01*
X028340Y012661D01*
X028270Y012731D01*
X028211Y012731D01*
X027832Y013110D01*
X027894Y013110D01*
X028017Y013233D01*
X028017Y013407D01*
X027894Y013530D01*
X027764Y013530D01*
X027490Y013799D01*
X027559Y013799D01*
X027682Y013922D01*
X027682Y014096D01*
X027559Y014219D01*
X027412Y014219D01*
X027104Y014527D01*
X027225Y014527D01*
X027348Y014650D01*
X027348Y014824D01*
X027258Y014914D01*
X027260Y014917D01*
X028781Y013397D01*
X028880Y013397D01*
X030928Y013397D01*
X030998Y013467D01*
X032384Y014854D01*
X034865Y014854D01*
X034935Y014924D01*
X035919Y015908D01*
X035919Y015947D01*
X036782Y016811D01*
X036869Y016811D01*
X036869Y016764D01*
X034942Y014838D01*
X033034Y014838D01*
X032935Y014838D01*
X031804Y013707D01*
X031677Y013707D01*
X031554Y013584D01*
X031554Y013410D01*
X031677Y013287D01*
X031851Y013287D01*
X031908Y013344D01*
X031908Y013292D01*
X032031Y013169D01*
X032205Y013169D01*
X032295Y013259D01*
X032718Y013259D01*
X032817Y013259D01*
X033790Y014232D01*
X033918Y014232D01*
X034041Y014355D01*
X034041Y014529D01*
X033972Y014598D01*
X034230Y014598D01*
X034045Y014413D01*
X034045Y014354D01*
X032856Y013164D01*
X032030Y013164D01*
X031991Y013204D01*
X031891Y013204D01*
X028929Y013204D01*
X028839Y013294D01*
X028665Y013294D01*
X028542Y013171D01*
X028542Y012997D01*
X028665Y012874D01*
X028839Y012874D01*
X028929Y012964D01*
X031891Y012964D01*
X031931Y012924D01*
X032856Y012924D01*
X032955Y012924D01*
X034215Y014184D01*
X034285Y014255D01*
X034285Y014261D01*
X034393Y014153D01*
X034564Y014153D01*
X034506Y014096D01*
X034506Y013969D01*
X032828Y012290D01*
X032700Y012290D01*
X032577Y012167D01*
X032577Y011993D01*
X032700Y011870D01*
X032874Y011870D01*
X032984Y011980D01*
X033094Y011870D01*
X033268Y011870D01*
X033391Y011993D01*
X033391Y012120D01*
X034743Y013472D01*
X034743Y013371D01*
X034866Y013248D01*
X035040Y013248D01*
X035163Y013371D01*
X035163Y013488D01*
X035472Y013771D01*
X035475Y013771D01*
X035508Y013804D01*
X035543Y013836D01*
X035543Y013839D01*
X035545Y013841D01*
X035545Y013888D01*
X035547Y013935D01*
X035545Y013938D01*
X035545Y014226D01*
X035635Y014316D01*
X035635Y014490D01*
X035512Y014613D01*
X035338Y014613D01*
X035215Y014490D01*
X035215Y014316D01*
X035305Y014226D01*
X035305Y013944D01*
X035004Y013668D01*
X034939Y013668D01*
X035112Y013841D01*
X035112Y013941D01*
X035112Y014098D01*
X035042Y014168D01*
X034750Y014460D01*
X034982Y014460D01*
X035081Y014460D01*
X035239Y014617D01*
X035316Y014617D01*
X035416Y014617D01*
X036153Y015354D01*
X036280Y015354D01*
X036403Y015477D01*
X036403Y015651D01*
X036280Y015774D01*
X036218Y015774D01*
X037038Y016594D01*
X037166Y016594D01*
X037289Y016717D01*
X037289Y016891D01*
X037166Y017014D01*
X037033Y017014D01*
X037033Y017108D01*
X036910Y017231D01*
X036857Y017231D01*
X036875Y017249D01*
X036875Y017423D01*
X036758Y017540D01*
X037306Y017540D01*
X037346Y017500D01*
X037520Y017500D01*
X037560Y017540D01*
X038526Y017540D01*
X038567Y017500D01*
X038741Y017500D01*
X038864Y017623D01*
X038864Y017797D01*
X038741Y017920D01*
X038567Y017920D01*
X038526Y017880D01*
X037560Y017880D01*
X037520Y017920D01*
X037346Y017920D01*
X037306Y017880D01*
X035985Y017880D01*
X035945Y017920D01*
X035771Y017920D01*
X035648Y017797D01*
X035648Y017623D01*
X035771Y017500D01*
X035945Y017500D01*
X035985Y017540D01*
X036100Y017540D01*
X035983Y017423D01*
X035983Y017249D01*
X036106Y017126D01*
X036280Y017126D01*
X036370Y017216D01*
X036488Y017216D01*
X036578Y017126D01*
X036631Y017126D01*
X036613Y017108D01*
X036613Y016980D01*
X035749Y016117D01*
X035679Y016047D01*
X035679Y016007D01*
X034765Y015094D01*
X032384Y015094D01*
X032285Y015094D01*
X030828Y013637D01*
X028880Y013637D01*
X028777Y013740D01*
X028839Y013740D01*
X028962Y013863D01*
X028962Y014037D01*
X028839Y014160D01*
X028712Y014160D01*
X026864Y016007D01*
X026864Y016007D01*
X026794Y016078D01*
X026409Y016078D01*
X026378Y016109D01*
X026204Y016109D01*
X026081Y015986D01*
X026081Y015971D01*
X025697Y016358D01*
X025788Y016358D01*
X025911Y016481D01*
X025911Y016514D01*
X025948Y016476D01*
X026122Y016476D01*
X026245Y016599D01*
X026245Y016773D01*
X026122Y016896D01*
X025995Y016896D01*
X024550Y018342D01*
X024450Y018342D01*
X024353Y018342D01*
X024313Y018381D01*
X024228Y018381D01*
X024257Y018410D01*
X024257Y018584D01*
X024208Y018633D01*
X024391Y018633D01*
X029132Y013892D01*
X029132Y013764D01*
X029256Y013641D01*
X029429Y013641D01*
X029553Y013764D01*
X029553Y013938D01*
X029429Y014061D01*
X029302Y014061D01*
X024491Y018873D01*
X024391Y018873D01*
X023565Y018873D01*
X023487Y018952D01*
X023387Y018952D01*
X022541Y018952D01*
X022471Y018881D01*
X022442Y018853D01*
X019215Y018853D01*
X018745Y019323D01*
X018745Y019450D01*
X019093Y019450D01*
X019093Y019276D01*
X019216Y019153D01*
X019302Y019153D01*
X019497Y018958D01*
X019621Y018958D01*
X021786Y018958D01*
X021873Y019046D01*
X022060Y019232D01*
X022146Y019232D01*
X022269Y019355D01*
X022269Y019529D01*
X022146Y019652D01*
X021972Y019652D01*
X021849Y019529D01*
X021849Y019443D01*
X021663Y019256D01*
X019621Y019256D01*
X019513Y019364D01*
X019513Y019450D01*
X021849Y019450D01*
X021849Y019509D02*
X019455Y019509D01*
X019513Y019450D02*
X019390Y019573D01*
X019216Y019573D01*
X019093Y019450D01*
X019093Y019392D02*
X018745Y019392D01*
X018745Y019450D02*
X018622Y019573D01*
X018448Y019573D01*
X018378Y019503D01*
X018307Y019573D01*
X018180Y019573D01*
X018034Y019719D01*
X017935Y019719D01*
X016823Y019719D01*
X016733Y019810D01*
X016559Y019810D01*
X016436Y019686D01*
X016436Y019513D01*
X016559Y019389D01*
X016733Y019389D01*
X016823Y019480D01*
X017935Y019480D01*
X018010Y019404D01*
X018010Y019276D01*
X018133Y019153D01*
X018307Y019153D01*
X018378Y019224D01*
X018448Y019153D01*
X018576Y019153D01*
X019045Y018684D01*
X019116Y018613D01*
X022442Y018613D01*
X022542Y018613D01*
X022640Y018712D01*
X023387Y018712D01*
X023396Y018703D01*
X023466Y018633D01*
X023886Y018633D01*
X023870Y018617D01*
X023122Y018617D01*
X023032Y018707D01*
X022858Y018707D01*
X022735Y018584D01*
X022735Y018410D01*
X022764Y018381D01*
X022680Y018381D01*
X022580Y018381D01*
X022403Y018204D01*
X021813Y018204D01*
X021746Y018271D01*
X021676Y018342D01*
X020987Y018342D01*
X020970Y018358D01*
X020970Y018486D01*
X020847Y018609D01*
X020673Y018609D01*
X020550Y018486D01*
X020550Y018312D01*
X020673Y018189D01*
X020800Y018189D01*
X020817Y018172D01*
X020887Y018102D01*
X021576Y018102D01*
X021581Y018097D01*
X021500Y018097D01*
X021377Y017974D01*
X021377Y017800D01*
X021500Y017677D01*
X021532Y017677D01*
X021514Y017659D01*
X021514Y017485D01*
X021637Y017362D01*
X021811Y017362D01*
X021901Y017452D01*
X022384Y017452D01*
X022455Y017522D01*
X022778Y017846D01*
X022875Y017846D01*
X023696Y017025D01*
X023643Y016973D01*
X021255Y016973D01*
X019964Y018264D01*
X019877Y018351D01*
X019700Y018351D01*
X019649Y018401D01*
X019562Y018489D01*
X019550Y018489D01*
X019429Y018609D01*
X019256Y018609D01*
X019195Y018548D01*
X018191Y018548D01*
X018170Y018569D01*
X017996Y018569D01*
X017974Y018548D01*
X016341Y018548D01*
X016319Y018569D01*
X016145Y018569D01*
X016022Y018446D01*
X016022Y018272D01*
X016145Y018149D01*
X016319Y018149D01*
X016420Y018250D01*
X017895Y018250D01*
X017910Y018235D01*
X017740Y018235D01*
X017617Y018112D01*
X017617Y017938D01*
X017740Y017815D01*
X017914Y017815D01*
X018004Y017905D01*
X018516Y017905D01*
X018606Y017815D01*
X018780Y017815D01*
X018903Y017938D01*
X018903Y018112D01*
X018780Y018235D01*
X018606Y018235D01*
X018516Y018145D01*
X018004Y018145D01*
X017999Y018149D01*
X018170Y018149D01*
X018270Y018250D01*
X019195Y018250D01*
X019256Y018189D01*
X019429Y018189D01*
X019431Y018191D01*
X019438Y018191D01*
X019576Y018053D01*
X019700Y018053D01*
X019753Y018053D01*
X021131Y016675D01*
X021255Y016675D01*
X023643Y016675D01*
X023681Y016637D01*
X023581Y016537D01*
X023581Y016363D01*
X023704Y016240D01*
X023837Y016240D01*
X023837Y016205D01*
X023960Y016082D01*
X024134Y016082D01*
X024190Y016138D01*
X024372Y015960D01*
X023968Y015960D01*
X023878Y016050D01*
X023704Y016050D01*
X023581Y015927D01*
X023581Y015753D01*
X023704Y015630D01*
X023878Y015630D01*
X023968Y015720D01*
X024410Y015720D01*
X025032Y015084D01*
X025002Y015113D01*
X024530Y015586D01*
X024431Y015586D01*
X024244Y015586D01*
X024154Y015676D01*
X023980Y015676D01*
X023857Y015553D01*
X023857Y015379D01*
X023980Y015256D01*
X024154Y015256D01*
X024244Y015346D01*
X024431Y015346D01*
X024833Y014944D01*
X024833Y014304D01*
X024743Y014214D01*
X024743Y014040D01*
X024772Y014011D01*
X024720Y014011D01*
X024730Y014020D01*
X024730Y014194D01*
X024607Y014317D01*
X024479Y014317D01*
X024143Y014654D01*
X024179Y014690D01*
X024179Y014864D01*
X024055Y014987D01*
X023881Y014987D01*
X023761Y014867D01*
X023656Y014867D01*
X023468Y015055D01*
X023468Y015409D01*
X023381Y015497D01*
X023105Y015772D01*
X022982Y015772D01*
X022751Y015772D01*
X022523Y016000D01*
X022436Y016087D01*
X019525Y016087D01*
X020367Y016929D01*
X020453Y016929D01*
X020576Y017052D01*
X020576Y017226D01*
X020453Y017349D01*
X020279Y017349D01*
X020156Y017226D01*
X020156Y017140D01*
X019143Y016126D01*
X016392Y016126D01*
X016269Y016126D01*
X016131Y015989D01*
X016124Y015989D01*
X016122Y015991D01*
X015948Y015991D01*
X015825Y015868D01*
X015825Y015694D01*
X015948Y015571D01*
X016122Y015571D01*
X016242Y015691D01*
X016255Y015691D01*
X016342Y015778D01*
X016392Y015828D01*
X019143Y015828D01*
X019182Y015789D01*
X019306Y015789D01*
X022312Y015789D01*
X022540Y015561D01*
X022627Y015474D01*
X022982Y015474D01*
X023170Y015286D01*
X023170Y015055D01*
X023170Y014931D01*
X023421Y014680D01*
X022929Y014680D01*
X023037Y014788D01*
X023037Y014962D01*
X022956Y015042D01*
X023037Y015123D01*
X023037Y015297D01*
X022914Y015420D01*
X022740Y015420D01*
X022650Y015330D01*
X021901Y015330D01*
X021811Y015420D01*
X021637Y015420D01*
X021514Y015297D01*
X021514Y015123D01*
X021637Y015000D01*
X021811Y015000D01*
X021901Y015090D01*
X022650Y015090D01*
X022697Y015042D01*
X022650Y014995D01*
X017404Y014995D01*
X017305Y014995D01*
X016793Y014483D01*
X015720Y014483D01*
X015630Y014573D01*
X015456Y014573D01*
X015333Y014450D01*
X015333Y014276D01*
X015456Y014153D01*
X015630Y014153D01*
X015720Y014243D01*
X016892Y014243D01*
X016962Y014314D01*
X017404Y014755D01*
X021878Y014755D01*
X021770Y014647D01*
X021770Y014473D01*
X021893Y014350D01*
X021965Y014350D01*
X021928Y014312D01*
X021928Y014139D01*
X022018Y014048D01*
X021947Y013978D01*
X021947Y013936D01*
X021943Y013941D01*
X021873Y014011D01*
X018942Y014011D01*
X018942Y014096D01*
X018819Y014219D01*
X018645Y014219D01*
X018522Y014096D01*
X018522Y013922D01*
X018645Y013799D01*
X018773Y013799D01*
X018801Y013771D01*
X018900Y013771D01*
X021773Y013771D01*
X022029Y013515D01*
X022128Y013515D01*
X022206Y013515D01*
X022243Y013515D01*
X022243Y013410D01*
X022366Y013287D01*
X022505Y013287D01*
X022803Y013016D01*
X022836Y012983D01*
X022839Y012983D01*
X022842Y012981D01*
X022889Y012983D01*
X023910Y012983D01*
X023921Y012972D01*
X024095Y012972D01*
X024132Y013010D01*
X024132Y012997D01*
X024162Y012968D01*
X019491Y012968D01*
X019198Y013260D01*
X019198Y013387D01*
X019075Y013510D01*
X018901Y013510D01*
X018778Y013387D01*
X018778Y013213D01*
X018901Y013090D01*
X019029Y013090D01*
X019289Y012830D01*
X019156Y012830D01*
X018686Y013299D01*
X018686Y013427D01*
X018563Y013550D01*
X018389Y013550D01*
X018266Y013427D01*
X018266Y013253D01*
X018389Y013130D01*
X018517Y013130D01*
X018986Y012660D01*
X019057Y012590D01*
X024352Y012590D01*
X024549Y012393D01*
X024648Y012393D01*
X024706Y012393D01*
X024726Y012373D01*
X024727Y012373D01*
X025491Y011625D01*
X025491Y011501D01*
X025538Y011453D01*
X017829Y011461D01*
X017783Y011461D01*
X017706Y011461D01*
X017662Y011417D01*
X017619Y011374D01*
X017511Y011266D01*
X017425Y011266D01*
X017302Y011143D01*
X017302Y010969D01*
X017425Y010846D01*
X017599Y010846D01*
X017722Y010969D01*
X017722Y011055D01*
X017829Y011163D01*
X035551Y011145D01*
X035491Y011084D01*
X035491Y010910D01*
X035614Y010787D01*
X035700Y010787D01*
X035718Y010769D01*
X035841Y010769D01*
X036478Y010769D01*
X036500Y010748D01*
X036674Y010748D01*
X036797Y010871D01*
X036797Y011045D01*
X036698Y011144D01*
X036911Y011143D01*
X036913Y011141D01*
X036935Y011141D01*
X037028Y011038D01*
X037028Y011034D01*
X037069Y010993D01*
X037108Y010950D01*
X037112Y010950D01*
X037115Y010947D01*
X037173Y010947D01*
X037231Y010944D01*
X037234Y010947D01*
X037804Y010947D01*
X038286Y010465D01*
X038286Y010379D01*
X038355Y010310D01*
X036026Y010310D01*
X035278Y011058D01*
X035179Y011058D01*
X023949Y011058D01*
X023859Y011148D01*
X023685Y011148D01*
X023562Y011025D01*
X023562Y010851D01*
X023685Y010728D01*
X023859Y010728D01*
X023949Y010818D01*
X035179Y010818D01*
X035856Y010140D01*
X035927Y010070D01*
X039470Y010070D01*
X039569Y010070D01*
X039727Y010228D01*
X039744Y010245D01*
X039744Y004600D01*
X037287Y004600D01*
X037287Y004653D01*
X037287Y004653D01*
X037287Y004653D01*
X037254Y004687D01*
X037211Y004729D01*
X037211Y004729D01*
X037211Y004729D01*
X037149Y004729D01*
X035892Y004730D01*
X035950Y004788D01*
X035950Y004915D01*
X035959Y004924D01*
X035959Y005869D01*
X035959Y005968D01*
X035447Y006480D01*
X035376Y006550D01*
X034943Y006550D01*
X034390Y007103D01*
X034353Y007141D01*
X034304Y007141D01*
X030623Y007158D01*
X030661Y007196D01*
X036665Y007196D01*
X036736Y007126D01*
X036910Y007126D01*
X037033Y007249D01*
X037033Y007423D01*
X037023Y007432D01*
X037571Y007432D01*
X037661Y007342D01*
X037835Y007342D01*
X037958Y007465D01*
X037958Y007639D01*
X037835Y007762D01*
X037661Y007762D01*
X037571Y007672D01*
X035987Y007672D01*
X035239Y008420D01*
X035139Y008420D01*
X033310Y008420D01*
X032962Y008768D01*
X032984Y008791D01*
X033094Y008681D01*
X033182Y008681D01*
X033249Y008613D01*
X035333Y008613D01*
X035333Y008489D01*
X035456Y008366D01*
X035630Y008366D01*
X035753Y008489D01*
X035753Y008663D01*
X035630Y008786D01*
X035503Y008786D01*
X035436Y008853D01*
X035336Y008853D01*
X033391Y008853D01*
X033391Y008978D01*
X033268Y009101D01*
X033094Y009101D01*
X032984Y008991D01*
X032874Y009101D01*
X032700Y009101D01*
X032577Y008978D01*
X032577Y008936D01*
X032227Y009286D01*
X032127Y009286D01*
X028555Y009286D01*
X028465Y009376D01*
X028291Y009376D01*
X028168Y009253D01*
X028168Y009079D01*
X028267Y008981D01*
X026235Y008981D01*
X026156Y009060D01*
X025514Y009060D01*
X025433Y009140D01*
X025259Y009140D01*
X025136Y009017D01*
X025136Y008843D01*
X025259Y008720D01*
X025433Y008720D01*
X025475Y008761D01*
X025885Y008761D01*
X025825Y008702D01*
X025825Y008528D01*
X025948Y008405D01*
X026119Y008405D01*
X026081Y008368D01*
X026081Y008194D01*
X026204Y008071D01*
X026257Y008071D01*
X026219Y008033D01*
X026219Y007859D01*
X026342Y007736D01*
X026516Y007736D01*
X026606Y007826D01*
X028742Y007826D01*
X028836Y007731D01*
X027059Y007731D01*
X026969Y007821D01*
X026795Y007821D01*
X026672Y007698D01*
X026672Y007524D01*
X026795Y007401D01*
X026969Y007401D01*
X027059Y007491D01*
X028860Y007491D01*
X029632Y006719D01*
X029590Y006719D01*
X029467Y006596D01*
X029467Y006495D01*
X028636Y007326D01*
X028636Y007326D01*
X028565Y007397D01*
X027394Y007397D01*
X027304Y007487D01*
X027130Y007487D01*
X027006Y007364D01*
X027006Y007190D01*
X027130Y007067D01*
X027304Y007067D01*
X027394Y007157D01*
X028466Y007157D01*
X028561Y007062D01*
X027728Y007062D01*
X027638Y007152D01*
X027464Y007152D01*
X027341Y007029D01*
X027341Y006855D01*
X027464Y006732D01*
X027638Y006732D01*
X027728Y006822D01*
X028624Y006822D01*
X028718Y006727D01*
X028063Y006727D01*
X027973Y006817D01*
X027799Y006817D01*
X027676Y006694D01*
X027676Y006590D01*
X027620Y006590D01*
X024264Y006590D01*
X024174Y006680D01*
X024000Y006680D01*
X023877Y006557D01*
X023877Y006383D01*
X024000Y006260D01*
X024174Y006260D01*
X024264Y006350D01*
X027620Y006350D01*
X028403Y005566D01*
X028352Y005566D01*
X028352Y005612D01*
X028229Y005735D01*
X028055Y005735D01*
X027932Y005612D01*
X027932Y005530D01*
X027277Y006185D01*
X027207Y006255D01*
X025366Y006255D01*
X025276Y006345D01*
X025102Y006345D01*
X024979Y006222D01*
X024979Y006048D01*
X025028Y005999D01*
X024913Y005999D01*
X024823Y006089D01*
X024649Y006089D01*
X024526Y005966D01*
X024526Y005792D01*
X024649Y005669D01*
X024823Y005669D01*
X024913Y005759D01*
X025415Y005759D01*
X025420Y005754D01*
X025338Y005754D01*
X025215Y005631D01*
X025218Y005634D02*
X023971Y005634D01*
X023963Y005693D02*
X024626Y005693D01*
X024567Y005751D02*
X023949Y005751D01*
X023928Y005810D02*
X024526Y005810D01*
X024526Y005868D02*
X023898Y005868D01*
X023857Y005927D02*
X024526Y005927D01*
X024546Y005985D02*
X023801Y005985D01*
X023724Y006044D02*
X024604Y006044D01*
X024736Y005879D02*
X025465Y005879D01*
X025661Y005682D01*
X025661Y005603D01*
X026114Y005151D01*
X032827Y005151D01*
X032984Y005308D01*
X033516Y005308D01*
X033516Y005249D01*
X033634Y005466D02*
X032965Y005466D01*
X032807Y005308D01*
X028004Y005308D01*
X027984Y005328D01*
X027965Y005328D01*
X027157Y006135D01*
X025189Y006135D01*
X025343Y006278D02*
X027691Y006278D01*
X027633Y006337D02*
X025284Y006337D01*
X025094Y006337D02*
X024251Y006337D01*
X024192Y006278D02*
X025035Y006278D01*
X024979Y006220D02*
X010154Y006220D01*
X010154Y006278D02*
X023981Y006278D01*
X023923Y006337D02*
X019625Y006337D01*
X019480Y006489D02*
X022394Y006489D01*
X022709Y006804D01*
X022709Y008930D01*
X023535Y009757D01*
X030740Y009757D01*
X030594Y009908D02*
X023419Y009908D01*
X023419Y009966D02*
X030652Y009966D01*
X030557Y010025D02*
X039744Y010025D01*
X039744Y010083D02*
X039583Y010083D01*
X039641Y010142D02*
X039744Y010142D01*
X039744Y010200D02*
X039700Y010200D01*
X039677Y010348D02*
X039520Y010190D01*
X035976Y010190D01*
X035228Y010938D01*
X023772Y010938D01*
X023916Y010786D02*
X035211Y010786D01*
X035269Y010727D02*
X022948Y010727D01*
X022902Y010773D02*
X022819Y010773D01*
X022799Y010793D01*
X022658Y010793D01*
X014852Y010793D01*
X014834Y010812D01*
X014678Y010812D01*
X014049Y010183D01*
X013994Y010183D01*
X013895Y010142D01*
X013820Y010066D01*
X013779Y009968D01*
X013779Y009861D01*
X013820Y009763D01*
X013895Y009687D01*
X013994Y009646D01*
X014101Y009646D01*
X014199Y009687D01*
X014274Y009763D01*
X014315Y009861D01*
X014315Y009916D01*
X014852Y010453D01*
X022578Y010453D01*
X022578Y010450D01*
X022712Y010316D01*
X022902Y010316D01*
X023036Y010450D01*
X023036Y010639D01*
X022902Y010773D01*
X022806Y010786D02*
X023627Y010786D01*
X023568Y010844D02*
X000634Y010844D01*
X000634Y010786D02*
X014652Y010786D01*
X014594Y010727D02*
X000634Y010727D01*
X000634Y010669D02*
X014535Y010669D01*
X014477Y010610D02*
X000634Y010610D01*
X000634Y010552D02*
X014418Y010552D01*
X014359Y010493D02*
X000634Y010493D01*
X000634Y010435D02*
X014301Y010435D01*
X014242Y010376D02*
X000634Y010376D01*
X000634Y010318D02*
X014184Y010318D01*
X014125Y010259D02*
X000634Y010259D01*
X000634Y010200D02*
X014067Y010200D01*
X013896Y010142D02*
X000634Y010142D01*
X000634Y010083D02*
X013837Y010083D01*
X013803Y010025D02*
X000634Y010025D01*
X000634Y009966D02*
X013779Y009966D01*
X013779Y009908D02*
X000634Y009908D01*
X000634Y009849D02*
X013784Y009849D01*
X013808Y009791D02*
X000634Y009791D01*
X000634Y009732D02*
X013850Y009732D01*
X013928Y009674D02*
X000634Y009674D01*
X000634Y009615D02*
X019947Y009615D01*
X019888Y009556D02*
X000634Y009556D01*
X000634Y009498D02*
X019456Y009498D01*
X019397Y009439D02*
X000634Y009439D01*
X000634Y009381D02*
X019349Y009381D01*
X019349Y009322D02*
X000634Y009322D01*
X000634Y009264D02*
X018552Y009264D01*
X018494Y009205D02*
X000634Y009205D01*
X000634Y009147D02*
X018483Y009147D01*
X018483Y009088D02*
X000634Y009088D01*
X000634Y009030D02*
X018483Y009030D01*
X018532Y008971D02*
X000634Y008971D01*
X000634Y008913D02*
X018575Y008913D01*
X018562Y008854D02*
X000634Y008854D01*
X000634Y008795D02*
X018562Y008795D01*
X018562Y008737D02*
X000634Y008737D01*
X000634Y008678D02*
X018608Y008678D01*
X018667Y008620D02*
X000634Y008620D01*
X000634Y008561D02*
X018922Y008561D01*
X018896Y008620D02*
X018876Y008620D01*
X018981Y008503D02*
X000634Y008503D01*
X000634Y008444D02*
X019121Y008444D01*
X019161Y008386D02*
X000634Y008386D01*
X000634Y008327D02*
X019200Y008327D01*
X019283Y008418D02*
X019874Y008418D01*
X019953Y008497D01*
X020799Y008497D01*
X021009Y008503D02*
X022392Y008503D01*
X022392Y008561D02*
X021121Y008561D01*
X021179Y008620D02*
X022392Y008620D01*
X022392Y008678D02*
X022045Y008678D01*
X022104Y008737D02*
X022392Y008737D01*
X022392Y008795D02*
X022151Y008795D01*
X022151Y008854D02*
X022392Y008854D01*
X022392Y008913D02*
X022358Y008913D01*
X022512Y009009D02*
X022512Y007040D01*
X022433Y006962D01*
X019480Y006962D01*
X016213Y006962D01*
X016374Y007098D02*
X017236Y007098D01*
X017161Y007156D02*
X016315Y007156D01*
X016003Y007039D02*
X009894Y007039D01*
X010006Y006981D02*
X016003Y006981D01*
X016003Y006922D02*
X010064Y006922D01*
X010106Y006864D02*
X016014Y006864D01*
X016072Y006805D02*
X010130Y006805D01*
X010154Y006746D02*
X022481Y006746D01*
X022423Y006688D02*
X019579Y006688D01*
X019637Y006629D02*
X022364Y006629D01*
X022528Y006454D02*
X023877Y006454D01*
X023877Y006512D02*
X022586Y006512D01*
X022645Y006571D02*
X023891Y006571D01*
X023949Y006629D02*
X022703Y006629D01*
X022762Y006688D02*
X027676Y006688D01*
X027676Y006629D02*
X024224Y006629D01*
X024087Y006470D02*
X027669Y006470D01*
X028555Y005584D01*
X032669Y005584D01*
X032827Y005741D01*
X033811Y005741D01*
X034244Y005308D01*
X034244Y004934D01*
X034126Y004836D01*
X034382Y004914D02*
X034382Y005367D01*
X033870Y005879D01*
X032748Y005879D01*
X032591Y005722D01*
X028791Y005722D01*
X028673Y005879D01*
X028394Y005576D02*
X028352Y005576D01*
X028335Y005634D02*
X028329Y005634D01*
X028277Y005693D02*
X028271Y005693D01*
X028218Y005751D02*
X027711Y005751D01*
X027769Y005693D02*
X028013Y005693D01*
X027954Y005634D02*
X027828Y005634D01*
X027886Y005576D02*
X027932Y005576D01*
X028142Y005525D02*
X028220Y005446D01*
X032748Y005446D01*
X032906Y005603D01*
X033752Y005603D01*
X034028Y005328D01*
X034028Y005151D01*
X033791Y005092D02*
X033791Y005308D01*
X033634Y005466D01*
X033791Y005092D02*
X033732Y005033D01*
X033732Y004855D01*
X033417Y004855D02*
X033417Y004993D01*
X033319Y005092D01*
X032984Y005092D01*
X032906Y005013D01*
X025976Y005013D01*
X025445Y005544D01*
X025425Y005544D01*
X025273Y005400D02*
X023930Y005400D01*
X023950Y005458D02*
X025215Y005458D01*
X025215Y005517D02*
X023963Y005517D01*
X023900Y005341D02*
X025331Y005341D01*
X025300Y005283D02*
X023859Y005283D01*
X023804Y005224D02*
X025274Y005224D01*
X025274Y005166D02*
X023728Y005166D01*
X023592Y005107D02*
X025274Y005107D01*
X025309Y005049D02*
X000634Y005049D01*
X000634Y005107D02*
X017140Y005107D01*
X017246Y005107D02*
X017306Y005107D01*
X017306Y005090D02*
X017316Y005090D01*
X017396Y005102D01*
X017473Y005127D01*
X017545Y005164D01*
X017610Y005211D01*
X017668Y005269D01*
X017715Y005334D01*
X017752Y005406D01*
X017777Y005483D01*
X017789Y005563D01*
X017789Y005573D01*
X017306Y005573D01*
X017306Y005090D01*
X017306Y005166D02*
X017246Y005166D01*
X017246Y005224D02*
X017306Y005224D01*
X017306Y005283D02*
X017246Y005283D01*
X017246Y005341D02*
X017306Y005341D01*
X017306Y005400D02*
X017246Y005400D01*
X017246Y005458D02*
X017306Y005458D01*
X017306Y005517D02*
X017246Y005517D01*
X017245Y005576D02*
X000634Y005576D01*
X000634Y005517D02*
X016769Y005517D01*
X016782Y005458D02*
X000634Y005458D01*
X000634Y005400D02*
X016803Y005400D01*
X016832Y005341D02*
X000634Y005341D01*
X000634Y005283D02*
X016873Y005283D01*
X016928Y005224D02*
X000634Y005224D01*
X000634Y005166D02*
X017004Y005166D01*
X017411Y005107D02*
X023321Y005107D01*
X023427Y005107D02*
X023487Y005107D01*
X023487Y005166D02*
X023427Y005166D01*
X023427Y005224D02*
X023487Y005224D01*
X023487Y005283D02*
X023427Y005283D01*
X023427Y005341D02*
X023487Y005341D01*
X023487Y005400D02*
X023427Y005400D01*
X023427Y005458D02*
X023487Y005458D01*
X023487Y005634D02*
X023427Y005634D01*
X023427Y005693D02*
X023487Y005693D01*
X023487Y005751D02*
X023427Y005751D01*
X023427Y005810D02*
X023487Y005810D01*
X023487Y005868D02*
X023427Y005868D01*
X023427Y005927D02*
X023487Y005927D01*
X023487Y005985D02*
X023427Y005985D01*
X023427Y006044D02*
X023487Y006044D01*
X023487Y006102D02*
X023427Y006102D01*
X023330Y006102D02*
X017403Y006102D01*
X017543Y006044D02*
X023189Y006044D01*
X023112Y005985D02*
X017620Y005985D01*
X017676Y005927D02*
X023056Y005927D01*
X023015Y005868D02*
X017717Y005868D01*
X017747Y005810D02*
X022985Y005810D01*
X022964Y005751D02*
X017768Y005751D01*
X017782Y005693D02*
X022951Y005693D01*
X022943Y005634D02*
X017789Y005634D01*
X017782Y005517D02*
X022950Y005517D01*
X022963Y005458D02*
X017769Y005458D01*
X017749Y005400D02*
X022984Y005400D01*
X023014Y005341D02*
X017719Y005341D01*
X017678Y005283D02*
X023054Y005283D01*
X023109Y005224D02*
X017623Y005224D01*
X017547Y005166D02*
X023185Y005166D01*
X023584Y006102D02*
X024979Y006102D01*
X024983Y006044D02*
X024868Y006044D01*
X024979Y006161D02*
X010154Y006161D01*
X010154Y006337D02*
X019336Y006337D01*
X019277Y006395D02*
X010154Y006395D01*
X010154Y006454D02*
X019270Y006454D01*
X019270Y006512D02*
X010154Y006512D01*
X010154Y006571D02*
X019270Y006571D01*
X019323Y006629D02*
X010154Y006629D01*
X010154Y006688D02*
X019382Y006688D01*
X019340Y006805D02*
X016353Y006805D01*
X017067Y007273D02*
X000634Y007273D01*
X000634Y007215D02*
X017108Y007215D01*
X017037Y007332D02*
X000634Y007332D01*
X000634Y007390D02*
X017018Y007390D01*
X017005Y007449D02*
X000634Y007449D01*
X000634Y007507D02*
X017482Y007507D01*
X017482Y007566D02*
X017542Y007566D01*
X017542Y007563D02*
X017542Y008046D01*
X017552Y008046D01*
X017632Y008034D01*
X017709Y008009D01*
X017781Y007972D01*
X017847Y007925D01*
X017904Y007867D01*
X017951Y007802D01*
X017988Y007730D01*
X018013Y007653D01*
X018026Y007573D01*
X018026Y007563D01*
X017542Y007563D01*
X017542Y007507D02*
X022392Y007507D01*
X022392Y007449D02*
X018019Y007449D01*
X018006Y007390D02*
X022392Y007390D01*
X022392Y007332D02*
X017986Y007332D01*
X017956Y007273D02*
X022392Y007273D01*
X022392Y007215D02*
X017916Y007215D01*
X017862Y007156D02*
X019378Y007156D01*
X019319Y007098D02*
X017787Y007098D01*
X018026Y007566D02*
X022392Y007566D01*
X022392Y007625D02*
X018017Y007625D01*
X018003Y007683D02*
X022392Y007683D01*
X022392Y007742D02*
X017982Y007742D01*
X017952Y007800D02*
X022392Y007800D01*
X022392Y007859D02*
X017910Y007859D01*
X017854Y007917D02*
X022392Y007917D01*
X022392Y007976D02*
X017774Y007976D01*
X017628Y008034D02*
X022392Y008034D01*
X022392Y008093D02*
X000634Y008093D01*
X000634Y008151D02*
X022392Y008151D01*
X022392Y008210D02*
X000634Y008210D01*
X000634Y008269D02*
X022392Y008269D01*
X022392Y008327D02*
X020926Y008327D01*
X020985Y008386D02*
X022392Y008386D01*
X022392Y008444D02*
X021009Y008444D01*
X020957Y008714D02*
X020996Y008733D01*
X020957Y008714D02*
X019461Y008714D01*
X019421Y008635D01*
X019244Y008477D02*
X019283Y008418D01*
X019244Y008477D02*
X019106Y008674D01*
X018909Y008950D02*
X018772Y008812D01*
X018909Y008950D02*
X021862Y008950D01*
X021941Y008871D01*
X021778Y008737D02*
X021206Y008737D01*
X021206Y008795D02*
X021731Y008795D01*
X021837Y008678D02*
X021206Y008678D01*
X020672Y008327D02*
X019952Y008327D01*
X019638Y009226D02*
X021902Y009226D01*
X022079Y009403D01*
X022236Y009403D01*
X022236Y009088D02*
X018693Y009088D01*
X018693Y009107D01*
X018834Y009264D02*
X019349Y009264D01*
X019559Y009304D02*
X019638Y009226D01*
X019769Y009381D02*
X019861Y009381D01*
X019861Y009439D02*
X019721Y009439D01*
X019662Y009498D02*
X019861Y009498D01*
X020071Y009442D02*
X020150Y009363D01*
X021783Y009363D01*
X022138Y009718D01*
X022295Y009718D01*
X022041Y009791D02*
X021228Y009791D01*
X021170Y009732D02*
X021983Y009732D01*
X021924Y009674D02*
X014166Y009674D01*
X014244Y009732D02*
X020980Y009732D01*
X020921Y009791D02*
X014286Y009791D01*
X014310Y009849D02*
X020865Y009849D01*
X020865Y009908D02*
X014315Y009908D01*
X014366Y009966D02*
X020865Y009966D01*
X020868Y010025D02*
X014424Y010025D01*
X014483Y010083D02*
X020927Y010083D01*
X020986Y010142D02*
X014541Y010142D01*
X014600Y010200D02*
X021219Y010200D01*
X021219Y010142D02*
X021164Y010142D01*
X021240Y010259D02*
X014658Y010259D01*
X014717Y010318D02*
X021299Y010318D01*
X021429Y010151D02*
X022689Y010151D01*
X022984Y009855D01*
X023112Y010025D02*
X023179Y010025D01*
X023179Y010083D02*
X022926Y010083D01*
X022867Y010142D02*
X023179Y010142D01*
X023219Y010200D02*
X022809Y010200D01*
X022750Y010259D02*
X023277Y010259D01*
X023308Y010318D02*
X022904Y010318D01*
X022962Y010376D02*
X023249Y010376D01*
X023207Y010435D02*
X023021Y010435D01*
X023036Y010493D02*
X023207Y010493D01*
X023207Y010552D02*
X023036Y010552D01*
X023036Y010610D02*
X023226Y010610D01*
X023284Y010669D02*
X023006Y010669D01*
X022710Y010318D02*
X021559Y010318D01*
X021075Y009934D02*
X022453Y009934D01*
X022787Y009600D01*
X023170Y009966D02*
X023179Y009966D01*
X023299Y010111D02*
X023299Y009796D01*
X022512Y009009D01*
X022829Y008854D02*
X025136Y008854D01*
X025136Y008913D02*
X022861Y008913D01*
X022919Y008971D02*
X025136Y008971D01*
X025149Y009030D02*
X022978Y009030D01*
X023036Y009088D02*
X025207Y009088D01*
X025346Y008930D02*
X025366Y008911D01*
X025450Y008737D02*
X025860Y008737D01*
X025825Y008678D02*
X022829Y008678D01*
X022829Y008620D02*
X025825Y008620D01*
X025825Y008561D02*
X022829Y008561D01*
X022829Y008503D02*
X025851Y008503D01*
X025909Y008444D02*
X022829Y008444D01*
X022829Y008386D02*
X026099Y008386D01*
X026081Y008327D02*
X022829Y008327D01*
X022829Y008269D02*
X026081Y008269D01*
X026081Y008210D02*
X022829Y008210D01*
X022829Y008151D02*
X026123Y008151D01*
X026182Y008093D02*
X022829Y008093D01*
X022829Y008034D02*
X023104Y008034D01*
X023190Y008034D02*
X023250Y008034D01*
X023250Y007976D02*
X023190Y007976D01*
X023190Y007917D02*
X023250Y007917D01*
X023250Y007859D02*
X023190Y007859D01*
X023190Y007800D02*
X023250Y007800D01*
X023250Y007742D02*
X023190Y007742D01*
X023190Y007683D02*
X023250Y007683D01*
X023250Y007625D02*
X023190Y007625D01*
X023190Y007566D02*
X023250Y007566D01*
X023251Y007507D02*
X026689Y007507D01*
X026672Y007566D02*
X023734Y007566D01*
X023726Y007625D02*
X026672Y007625D01*
X026672Y007683D02*
X023712Y007683D01*
X023691Y007742D02*
X026336Y007742D01*
X026278Y007800D02*
X023661Y007800D01*
X023619Y007859D02*
X026219Y007859D01*
X026219Y007917D02*
X023562Y007917D01*
X023482Y007976D02*
X026219Y007976D01*
X026221Y008034D02*
X023337Y008034D01*
X022959Y007976D02*
X022829Y007976D01*
X022829Y007917D02*
X022879Y007917D01*
X023190Y007449D02*
X023250Y007449D01*
X023250Y007390D02*
X023190Y007390D01*
X023190Y007332D02*
X023250Y007332D01*
X023250Y007273D02*
X023190Y007273D01*
X023190Y007215D02*
X023250Y007215D01*
X023250Y007156D02*
X023190Y007156D01*
X023190Y007098D02*
X023250Y007098D01*
X023250Y007039D02*
X023190Y007039D01*
X023076Y007039D02*
X022829Y007039D01*
X022829Y006981D02*
X027341Y006981D01*
X027341Y006922D02*
X022829Y006922D01*
X022829Y006864D02*
X027341Y006864D01*
X027391Y006805D02*
X022829Y006805D01*
X022821Y006746D02*
X027450Y006746D01*
X027653Y006746D02*
X027728Y006746D01*
X027711Y006805D02*
X027786Y006805D01*
X027985Y006805D02*
X028641Y006805D01*
X028699Y006746D02*
X028044Y006746D01*
X027886Y006607D02*
X028772Y006607D01*
X029362Y006017D01*
X033909Y006017D01*
X034579Y005367D01*
X034579Y005052D01*
X034795Y004836D01*
X034461Y004836D02*
X034382Y004914D01*
X034795Y005170D02*
X034795Y005367D01*
X033988Y006155D01*
X029461Y006155D01*
X028673Y006942D01*
X027551Y006942D01*
X027410Y007098D02*
X027334Y007098D01*
X027351Y007039D02*
X023365Y007039D01*
X023496Y007098D02*
X027099Y007098D01*
X027040Y007156D02*
X023571Y007156D01*
X023625Y007215D02*
X027006Y007215D01*
X027006Y007273D02*
X023665Y007273D01*
X023695Y007332D02*
X027006Y007332D01*
X027033Y007390D02*
X023715Y007390D01*
X023727Y007449D02*
X026747Y007449D01*
X026882Y007611D02*
X028909Y007611D01*
X029933Y006588D01*
X034185Y006588D01*
X034795Y005977D01*
X035031Y005977D01*
X035248Y005761D01*
X035248Y005289D01*
X035346Y005190D01*
X035346Y004875D01*
X035110Y005111D02*
X035110Y005170D01*
X034992Y005289D01*
X034992Y005387D01*
X035110Y005505D01*
X035110Y005702D01*
X034972Y005840D01*
X034717Y005840D01*
X034126Y006430D01*
X029756Y006430D01*
X029677Y006509D01*
X029467Y006512D02*
X029450Y006512D01*
X029467Y006571D02*
X029391Y006571D01*
X029333Y006629D02*
X029501Y006629D01*
X029559Y006688D02*
X029274Y006688D01*
X029216Y006746D02*
X029605Y006746D01*
X029546Y006805D02*
X029157Y006805D01*
X029099Y006864D02*
X029488Y006864D01*
X029429Y006922D02*
X029040Y006922D01*
X028981Y006981D02*
X029370Y006981D01*
X029312Y007039D02*
X028923Y007039D01*
X028864Y007098D02*
X029253Y007098D01*
X029195Y007156D02*
X028806Y007156D01*
X028747Y007215D02*
X029136Y007215D01*
X029078Y007273D02*
X028689Y007273D01*
X028630Y007332D02*
X029019Y007332D01*
X028961Y007390D02*
X028572Y007390D01*
X028516Y007277D02*
X029500Y006292D01*
X034087Y006292D01*
X034756Y005603D01*
X034894Y005603D01*
X035386Y005544D02*
X035386Y005682D01*
X035465Y005761D01*
X035465Y005918D01*
X035228Y006155D01*
X034815Y006155D01*
X034244Y006726D01*
X030012Y006726D01*
X028791Y007946D01*
X026429Y007946D01*
X026580Y007800D02*
X026774Y007800D01*
X026715Y007742D02*
X026522Y007742D01*
X026990Y007800D02*
X028767Y007800D01*
X028826Y007742D02*
X027049Y007742D01*
X027016Y007449D02*
X027092Y007449D01*
X027217Y007277D02*
X028516Y007277D01*
X028467Y007156D02*
X027393Y007156D01*
X027341Y007449D02*
X028902Y007449D01*
X028525Y007098D02*
X027693Y007098D01*
X027750Y006220D02*
X027243Y006220D01*
X027277Y006185D02*
X027277Y006185D01*
X027301Y006161D02*
X027808Y006161D01*
X027867Y006102D02*
X027360Y006102D01*
X027418Y006044D02*
X027925Y006044D01*
X027984Y005985D02*
X027477Y005985D01*
X027535Y005927D02*
X028042Y005927D01*
X028101Y005868D02*
X027594Y005868D01*
X027652Y005810D02*
X028159Y005810D01*
X030110Y006883D02*
X028713Y008281D01*
X026291Y008281D01*
X026035Y008615D02*
X028575Y008635D01*
X030169Y007040D01*
X034303Y007021D01*
X034894Y006430D01*
X035327Y006430D01*
X035839Y005918D01*
X035839Y004974D01*
X035740Y004875D01*
X035950Y004873D02*
X039744Y004873D01*
X039744Y004814D02*
X035950Y004814D01*
X035918Y004756D02*
X039744Y004756D01*
X039744Y004697D02*
X037243Y004697D01*
X037287Y004639D02*
X039744Y004639D01*
X039744Y004932D02*
X035959Y004932D01*
X035959Y004990D02*
X039744Y004990D01*
X039744Y005049D02*
X035959Y005049D01*
X035959Y005107D02*
X039744Y005107D01*
X039744Y005166D02*
X035959Y005166D01*
X035959Y005224D02*
X039744Y005224D01*
X039744Y005283D02*
X035959Y005283D01*
X035959Y005341D02*
X039744Y005341D01*
X039744Y005400D02*
X035959Y005400D01*
X035959Y005458D02*
X039744Y005458D01*
X039744Y005517D02*
X035959Y005517D01*
X035959Y005576D02*
X039744Y005576D01*
X039744Y005634D02*
X035959Y005634D01*
X035959Y005693D02*
X039744Y005693D01*
X039744Y005751D02*
X035959Y005751D01*
X035959Y005810D02*
X039744Y005810D01*
X039744Y005868D02*
X035959Y005868D01*
X035959Y005927D02*
X039744Y005927D01*
X039744Y005985D02*
X035941Y005985D01*
X035883Y006044D02*
X039744Y006044D01*
X039744Y006102D02*
X035824Y006102D01*
X035766Y006161D02*
X039744Y006161D01*
X039744Y006220D02*
X035707Y006220D01*
X035649Y006278D02*
X039744Y006278D01*
X039744Y006337D02*
X035590Y006337D01*
X035531Y006395D02*
X039744Y006395D01*
X039744Y006454D02*
X035473Y006454D01*
X035414Y006512D02*
X039744Y006512D01*
X039744Y006571D02*
X034923Y006571D01*
X034864Y006629D02*
X039744Y006629D01*
X039744Y006688D02*
X034806Y006688D01*
X034747Y006746D02*
X039744Y006746D01*
X039744Y006805D02*
X034689Y006805D01*
X034630Y006864D02*
X039744Y006864D01*
X039744Y006922D02*
X034572Y006922D01*
X034513Y006981D02*
X039744Y006981D01*
X039744Y007039D02*
X034454Y007039D01*
X034396Y007098D02*
X039744Y007098D01*
X039744Y007156D02*
X036940Y007156D01*
X036999Y007215D02*
X039744Y007215D01*
X039744Y007273D02*
X037033Y007273D01*
X037033Y007332D02*
X039744Y007332D01*
X039744Y007390D02*
X037883Y007390D01*
X037942Y007449D02*
X039744Y007449D01*
X039744Y007507D02*
X037958Y007507D01*
X037958Y007566D02*
X039744Y007566D01*
X039744Y007625D02*
X037958Y007625D01*
X037914Y007683D02*
X039744Y007683D01*
X039744Y007742D02*
X037856Y007742D01*
X037897Y007815D02*
X038071Y007815D01*
X038194Y007938D01*
X038194Y008112D01*
X038071Y008235D01*
X037897Y008235D01*
X037807Y008145D01*
X036577Y008145D01*
X036451Y008271D01*
X036451Y008753D01*
X036541Y008843D01*
X036541Y009017D01*
X036418Y009140D01*
X036244Y009140D01*
X036121Y009017D01*
X036121Y008843D01*
X036211Y008753D01*
X036211Y008172D01*
X036281Y008102D01*
X036478Y007905D01*
X036577Y007905D01*
X037807Y007905D01*
X037897Y007815D01*
X037853Y007859D02*
X035800Y007859D01*
X035742Y007917D02*
X036465Y007917D01*
X036407Y007976D02*
X035683Y007976D01*
X035625Y008034D02*
X036348Y008034D01*
X036290Y008093D02*
X035566Y008093D01*
X035507Y008151D02*
X036231Y008151D01*
X036211Y008210D02*
X035449Y008210D01*
X035390Y008269D02*
X036211Y008269D01*
X036211Y008327D02*
X035332Y008327D01*
X035273Y008386D02*
X035437Y008386D01*
X035378Y008444D02*
X033286Y008444D01*
X033227Y008503D02*
X035333Y008503D01*
X035333Y008561D02*
X033169Y008561D01*
X033110Y008620D02*
X033243Y008620D01*
X033185Y008678D02*
X033051Y008678D01*
X033038Y008737D02*
X032993Y008737D01*
X032787Y008773D02*
X033260Y008300D01*
X035189Y008300D01*
X035937Y007552D01*
X037748Y007552D01*
X037613Y007390D02*
X037033Y007390D01*
X036823Y007336D02*
X036803Y007316D01*
X030484Y007316D01*
X030302Y007682D02*
X030281Y007702D01*
X030281Y007816D01*
X030158Y007939D01*
X029984Y007939D01*
X029929Y007885D01*
X029468Y008346D01*
X029528Y008346D01*
X029598Y008417D01*
X029811Y008417D01*
X029802Y008407D01*
X029802Y008233D01*
X029925Y008110D01*
X030099Y008110D01*
X030222Y008233D01*
X030222Y008279D01*
X031593Y008279D01*
X031593Y008233D01*
X031716Y008110D01*
X031890Y008110D01*
X032013Y008233D01*
X032013Y008373D01*
X032057Y008329D01*
X032057Y008291D01*
X032057Y008192D01*
X032486Y007762D01*
X032464Y007762D01*
X032384Y007682D01*
X031380Y007682D01*
X031300Y007762D01*
X031126Y007762D01*
X031045Y007682D01*
X030302Y007682D01*
X030300Y007683D02*
X031046Y007683D01*
X031105Y007742D02*
X030281Y007742D01*
X030281Y007800D02*
X032449Y007800D01*
X032444Y007742D02*
X031320Y007742D01*
X031379Y007683D02*
X032385Y007683D01*
X032390Y007859D02*
X030239Y007859D01*
X030180Y007917D02*
X032331Y007917D01*
X032273Y007976D02*
X029838Y007976D01*
X029780Y008034D02*
X032214Y008034D01*
X032156Y008093D02*
X029721Y008093D01*
X029663Y008151D02*
X029883Y008151D01*
X029825Y008210D02*
X029604Y008210D01*
X029546Y008269D02*
X029802Y008269D01*
X029802Y008327D02*
X029487Y008327D01*
X029567Y008386D02*
X029802Y008386D01*
X030012Y008320D02*
X030091Y008399D01*
X031724Y008399D01*
X031803Y008320D01*
X032013Y008327D02*
X032057Y008327D01*
X032057Y008269D02*
X032013Y008269D01*
X031990Y008210D02*
X032057Y008210D01*
X032097Y008151D02*
X031932Y008151D01*
X031675Y008151D02*
X030140Y008151D01*
X030199Y008210D02*
X031616Y008210D01*
X031593Y008269D02*
X030222Y008269D01*
X029962Y007917D02*
X029897Y007917D01*
X029461Y008537D02*
X032020Y008537D01*
X032177Y008379D01*
X032177Y008241D01*
X032846Y007572D01*
X032886Y007572D01*
X032945Y007907D02*
X032689Y007907D01*
X032354Y008241D01*
X032354Y008438D01*
X032098Y008694D01*
X031252Y008694D01*
X031075Y008871D01*
X029106Y008871D01*
X029087Y008891D01*
X029441Y008556D02*
X029461Y008537D01*
X028519Y009322D02*
X039744Y009322D01*
X039744Y009264D02*
X032249Y009264D01*
X032308Y009205D02*
X039744Y009205D01*
X039744Y009147D02*
X032367Y009147D01*
X032425Y009088D02*
X032688Y009088D01*
X032629Y009030D02*
X032484Y009030D01*
X032542Y008971D02*
X032577Y008971D01*
X032787Y008891D02*
X032787Y008773D01*
X032946Y009030D02*
X033023Y009030D01*
X033081Y009088D02*
X032887Y009088D01*
X033181Y008891D02*
X033181Y008851D01*
X033299Y008733D01*
X035386Y008733D01*
X035543Y008576D01*
X035753Y008561D02*
X036211Y008561D01*
X036211Y008503D02*
X035753Y008503D01*
X035709Y008444D02*
X036211Y008444D01*
X036211Y008386D02*
X035650Y008386D01*
X035753Y008620D02*
X036211Y008620D01*
X036211Y008678D02*
X035738Y008678D01*
X035679Y008737D02*
X036211Y008737D01*
X036168Y008795D02*
X035493Y008795D01*
X036121Y008854D02*
X033391Y008854D01*
X033391Y008913D02*
X036121Y008913D01*
X036121Y008971D02*
X033391Y008971D01*
X033339Y009030D02*
X036133Y009030D01*
X036192Y009088D02*
X033281Y009088D01*
X032807Y008241D02*
X032118Y008950D01*
X031685Y008950D01*
X032177Y009166D02*
X033417Y007926D01*
X032807Y008182D02*
X032807Y008241D01*
X032177Y009166D02*
X028378Y009166D01*
X028218Y009030D02*
X026186Y009030D01*
X025486Y009088D02*
X028168Y009088D01*
X028168Y009147D02*
X023095Y009147D01*
X023153Y009205D02*
X028168Y009205D01*
X028178Y009264D02*
X023212Y009264D01*
X023270Y009322D02*
X028237Y009322D01*
X030293Y010025D02*
X023419Y010025D01*
X023299Y010111D02*
X023378Y010190D01*
X030425Y010190D01*
X030635Y010200D02*
X035796Y010200D01*
X035855Y010142D02*
X030635Y010142D01*
X030616Y010083D02*
X035913Y010083D01*
X035738Y010259D02*
X030635Y010259D01*
X030595Y010318D02*
X035679Y010318D01*
X035621Y010376D02*
X030536Y010376D01*
X030314Y010376D02*
X025475Y010376D01*
X025517Y010435D02*
X035562Y010435D01*
X035504Y010493D02*
X025517Y010493D01*
X025517Y010552D02*
X035445Y010552D01*
X035386Y010610D02*
X025499Y010610D01*
X025440Y010669D02*
X035328Y010669D01*
X035492Y010844D02*
X035556Y010844D01*
X035550Y010786D02*
X035701Y010786D01*
X035609Y010727D02*
X038024Y010727D01*
X038082Y010669D02*
X035667Y010669D01*
X035726Y010610D02*
X038141Y010610D01*
X038199Y010552D02*
X035784Y010552D01*
X035843Y010493D02*
X038258Y010493D01*
X038286Y010435D02*
X035901Y010435D01*
X035960Y010376D02*
X038289Y010376D01*
X038347Y010318D02*
X036019Y010318D01*
X035498Y010903D02*
X035433Y010903D01*
X035375Y010962D02*
X035491Y010962D01*
X035491Y011020D02*
X035316Y011020D01*
X035491Y011079D02*
X023928Y011079D01*
X023870Y011137D02*
X035544Y011137D01*
X036704Y011137D02*
X036939Y011137D01*
X036992Y011079D02*
X036763Y011079D01*
X036797Y011020D02*
X037042Y011020D01*
X037097Y010962D02*
X036797Y010962D01*
X036797Y010903D02*
X037848Y010903D01*
X037906Y010844D02*
X036770Y010844D01*
X036712Y010786D02*
X037965Y010786D01*
X038152Y011020D02*
X039557Y011020D01*
X039557Y010962D02*
X038211Y010962D01*
X038269Y010903D02*
X039557Y010903D01*
X039557Y010844D02*
X038328Y010844D01*
X038387Y010786D02*
X039557Y010786D01*
X039557Y010727D02*
X038445Y010727D01*
X038590Y010669D02*
X039557Y010669D01*
X039557Y010610D02*
X038648Y010610D01*
X038706Y010552D02*
X039557Y010552D01*
X039557Y010493D02*
X038706Y010493D01*
X038706Y010435D02*
X039557Y010435D01*
X039536Y010376D02*
X038703Y010376D01*
X038645Y010318D02*
X039477Y010318D01*
X039677Y010348D02*
X039677Y015977D01*
X039362Y016292D01*
X038299Y016292D01*
X038024Y016568D01*
X038234Y016582D02*
X039744Y016582D01*
X039744Y016640D02*
X038234Y016640D01*
X038190Y016699D02*
X039744Y016699D01*
X039744Y016757D02*
X038131Y016757D01*
X037916Y016757D02*
X037289Y016757D01*
X037289Y016816D02*
X039744Y016816D01*
X039744Y016874D02*
X037289Y016874D01*
X037247Y016933D02*
X039744Y016933D01*
X039744Y016991D02*
X037188Y016991D01*
X037033Y017050D02*
X039744Y017050D01*
X039744Y017109D02*
X037032Y017109D01*
X036973Y017167D02*
X039744Y017167D01*
X039744Y017226D02*
X036915Y017226D01*
X036875Y017284D02*
X039744Y017284D01*
X039744Y017343D02*
X036875Y017343D01*
X036875Y017401D02*
X039744Y017401D01*
X039744Y017460D02*
X036838Y017460D01*
X036780Y017518D02*
X037327Y017518D01*
X037539Y017518D02*
X038548Y017518D01*
X038759Y017518D02*
X039744Y017518D01*
X039744Y017577D02*
X038818Y017577D01*
X038864Y017635D02*
X039744Y017635D01*
X039744Y017694D02*
X038864Y017694D01*
X038864Y017753D02*
X039744Y017753D01*
X039744Y017811D02*
X038849Y017811D01*
X038791Y017870D02*
X039744Y017870D01*
X039744Y017928D02*
X035545Y017928D01*
X035545Y017870D02*
X035721Y017870D01*
X035663Y017811D02*
X035545Y017811D01*
X035545Y017753D02*
X035648Y017753D01*
X035648Y017694D02*
X035545Y017694D01*
X035545Y017635D02*
X035648Y017635D01*
X035694Y017577D02*
X035545Y017577D01*
X035545Y017518D02*
X035753Y017518D01*
X035964Y017518D02*
X036079Y017518D01*
X036020Y017460D02*
X035545Y017460D01*
X035545Y017401D02*
X035983Y017401D01*
X035983Y017343D02*
X035545Y017343D01*
X035545Y017284D02*
X035983Y017284D01*
X036006Y017226D02*
X035545Y017226D01*
X035545Y017167D02*
X036064Y017167D01*
X036193Y017336D02*
X036665Y017336D01*
X036537Y017167D02*
X036321Y017167D01*
X036614Y017109D02*
X035545Y017109D01*
X035545Y017050D02*
X036613Y017050D01*
X036613Y016991D02*
X035507Y016991D01*
X035475Y016960D02*
X035545Y017030D01*
X035545Y018408D01*
X036144Y019007D01*
X036214Y019077D01*
X036214Y019974D01*
X036304Y020064D01*
X036304Y020238D01*
X036181Y020361D01*
X036007Y020361D01*
X035884Y020238D01*
X035884Y020064D01*
X035974Y019974D01*
X035974Y019177D01*
X035950Y019152D01*
X035950Y019214D01*
X035827Y019337D01*
X035653Y019337D01*
X035530Y019214D01*
X035530Y019087D01*
X035238Y018794D01*
X035167Y018724D01*
X035167Y017326D01*
X034833Y016992D01*
X034833Y016892D01*
X034833Y016657D01*
X034833Y016558D01*
X035255Y016136D01*
X035255Y016009D01*
X035378Y015886D01*
X035552Y015886D01*
X035675Y016009D01*
X035675Y016183D01*
X035552Y016306D01*
X035424Y016306D01*
X035073Y016657D01*
X035073Y016663D01*
X035102Y016634D01*
X035276Y016634D01*
X035399Y016757D01*
X036390Y016757D01*
X036448Y016816D02*
X035399Y016816D01*
X035399Y016874D02*
X036507Y016874D01*
X036565Y016933D02*
X035448Y016933D01*
X035475Y016960D02*
X035399Y016884D01*
X035399Y016757D01*
X035341Y016699D02*
X036331Y016699D01*
X036273Y016640D02*
X035283Y016640D01*
X035207Y016523D02*
X036156Y016523D01*
X036214Y016582D02*
X035148Y016582D01*
X035095Y016640D02*
X035090Y016640D01*
X034953Y016607D02*
X035465Y016096D01*
X035627Y016230D02*
X035863Y016230D01*
X035804Y016172D02*
X035675Y016172D01*
X035675Y016113D02*
X035746Y016113D01*
X035687Y016055D02*
X035675Y016055D01*
X035668Y015996D02*
X035662Y015996D01*
X035609Y015938D02*
X035604Y015938D01*
X035551Y015879D02*
X032927Y015879D01*
X032938Y015868D02*
X032815Y015991D01*
X032641Y015991D01*
X032518Y015868D01*
X032518Y015760D01*
X031371Y014613D01*
X031204Y014613D01*
X031081Y014490D01*
X031081Y014316D01*
X031204Y014193D01*
X031378Y014193D01*
X031501Y014316D01*
X031501Y014404D01*
X032668Y015571D01*
X032815Y015571D01*
X032938Y015694D01*
X032938Y015868D01*
X032938Y015821D02*
X035492Y015821D01*
X035434Y015762D02*
X032938Y015762D01*
X032938Y015704D02*
X035375Y015704D01*
X035317Y015645D02*
X032890Y015645D01*
X032831Y015586D02*
X035258Y015586D01*
X035200Y015528D02*
X032626Y015528D01*
X032567Y015469D02*
X035141Y015469D01*
X035083Y015411D02*
X032509Y015411D01*
X032450Y015352D02*
X035024Y015352D01*
X034965Y015294D02*
X032391Y015294D01*
X032333Y015235D02*
X034907Y015235D01*
X034848Y015177D02*
X032274Y015177D01*
X032216Y015118D02*
X034790Y015118D01*
X034815Y014974D02*
X032335Y014974D01*
X030878Y013517D01*
X028831Y013517D01*
X027276Y015072D01*
X027118Y015072D01*
X027288Y014884D02*
X027294Y014884D01*
X027347Y014825D02*
X027352Y014825D01*
X027348Y014767D02*
X027411Y014767D01*
X027470Y014708D02*
X027348Y014708D01*
X027347Y014650D02*
X027528Y014650D01*
X027587Y014591D02*
X027289Y014591D01*
X027230Y014533D02*
X027645Y014533D01*
X027704Y014474D02*
X027157Y014474D01*
X027216Y014416D02*
X027762Y014416D01*
X027821Y014357D02*
X027274Y014357D01*
X027333Y014299D02*
X027879Y014299D01*
X027938Y014240D02*
X027391Y014240D01*
X027597Y014181D02*
X027996Y014181D01*
X028055Y014123D02*
X027656Y014123D01*
X027682Y014064D02*
X028114Y014064D01*
X028172Y014006D02*
X027682Y014006D01*
X027682Y013947D02*
X028231Y013947D01*
X028289Y013889D02*
X027649Y013889D01*
X027591Y013830D02*
X028348Y013830D01*
X028406Y013772D02*
X027518Y013772D01*
X027578Y013713D02*
X028465Y013713D01*
X028523Y013655D02*
X027637Y013655D01*
X027697Y013596D02*
X028582Y013596D01*
X028640Y013537D02*
X027757Y013537D01*
X027945Y013479D02*
X028699Y013479D01*
X028757Y013420D02*
X028004Y013420D01*
X028017Y013362D02*
X031602Y013362D01*
X031554Y013420D02*
X030951Y013420D01*
X031010Y013479D02*
X031554Y013479D01*
X031554Y013537D02*
X031068Y013537D01*
X031127Y013596D02*
X031566Y013596D01*
X031624Y013655D02*
X031185Y013655D01*
X031244Y013713D02*
X031810Y013713D01*
X031869Y013772D02*
X031302Y013772D01*
X031361Y013830D02*
X031927Y013830D01*
X031986Y013889D02*
X031419Y013889D01*
X031478Y013947D02*
X032044Y013947D01*
X032103Y014006D02*
X031537Y014006D01*
X031595Y014064D02*
X032161Y014064D01*
X032220Y014123D02*
X031654Y014123D01*
X031712Y014181D02*
X032278Y014181D01*
X032337Y014240D02*
X031771Y014240D01*
X031829Y014299D02*
X032395Y014299D01*
X032454Y014357D02*
X031888Y014357D01*
X031946Y014416D02*
X032513Y014416D01*
X032571Y014474D02*
X032005Y014474D01*
X032063Y014533D02*
X032630Y014533D01*
X032688Y014591D02*
X032122Y014591D01*
X032181Y014650D02*
X032747Y014650D01*
X032805Y014708D02*
X032239Y014708D01*
X032298Y014767D02*
X032864Y014767D01*
X032922Y014825D02*
X032356Y014825D01*
X032192Y015001D02*
X032099Y015001D01*
X032134Y014942D02*
X032040Y014942D01*
X032075Y014884D02*
X031982Y014884D01*
X032017Y014825D02*
X031923Y014825D01*
X031958Y014767D02*
X031865Y014767D01*
X031900Y014708D02*
X031806Y014708D01*
X031841Y014650D02*
X031747Y014650D01*
X031783Y014591D02*
X031689Y014591D01*
X031724Y014533D02*
X031630Y014533D01*
X031666Y014474D02*
X031572Y014474D01*
X031607Y014416D02*
X031513Y014416D01*
X031501Y014357D02*
X031548Y014357D01*
X031490Y014299D02*
X031484Y014299D01*
X031431Y014240D02*
X031426Y014240D01*
X031373Y014181D02*
X029182Y014181D01*
X029241Y014123D02*
X031314Y014123D01*
X031256Y014064D02*
X029299Y014064D01*
X029485Y014006D02*
X031197Y014006D01*
X031139Y013947D02*
X029544Y013947D01*
X029553Y013889D02*
X031080Y013889D01*
X031022Y013830D02*
X029553Y013830D01*
X029553Y013772D02*
X030963Y013772D01*
X030904Y013713D02*
X029501Y013713D01*
X029443Y013655D02*
X030846Y013655D01*
X031157Y014240D02*
X029124Y014240D01*
X029065Y014299D02*
X031098Y014299D01*
X031081Y014357D02*
X029007Y014357D01*
X028948Y014416D02*
X031081Y014416D01*
X031081Y014474D02*
X028890Y014474D01*
X028831Y014533D02*
X031124Y014533D01*
X031108Y014591D02*
X031183Y014591D01*
X031166Y014650D02*
X031408Y014650D01*
X031467Y014708D02*
X031186Y014708D01*
X031186Y014670D02*
X031186Y014797D01*
X032196Y015807D01*
X032244Y015807D01*
X032367Y015930D01*
X032367Y016104D01*
X032330Y016141D01*
X032500Y016141D01*
X032623Y016264D01*
X032623Y016438D01*
X032500Y016561D01*
X032326Y016561D01*
X032276Y016511D01*
X032168Y016511D01*
X032068Y016511D01*
X032029Y016471D01*
X031970Y016471D01*
X030682Y015184D01*
X030558Y015184D01*
X030616Y015241D01*
X030616Y015368D01*
X031645Y016397D01*
X031693Y016397D01*
X031816Y016520D01*
X031816Y016694D01*
X031693Y016817D01*
X031519Y016817D01*
X031396Y016694D01*
X031396Y016520D01*
X031412Y016504D01*
X030446Y015538D01*
X030319Y015538D01*
X030195Y015415D01*
X030195Y015241D01*
X030319Y015118D01*
X030489Y015118D01*
X030432Y015061D01*
X030432Y014887D01*
X030555Y014764D01*
X030729Y014764D01*
X030766Y014801D01*
X030766Y014670D01*
X030889Y014547D01*
X031063Y014547D01*
X031186Y014670D01*
X031186Y014767D02*
X031525Y014767D01*
X031584Y014825D02*
X031214Y014825D01*
X031273Y014884D02*
X031642Y014884D01*
X031701Y014942D02*
X031332Y014942D01*
X031390Y015001D02*
X031759Y015001D01*
X031818Y015060D02*
X031449Y015060D01*
X031507Y015118D02*
X031876Y015118D01*
X031935Y015177D02*
X031566Y015177D01*
X031624Y015235D02*
X031994Y015235D01*
X032052Y015294D02*
X031683Y015294D01*
X031741Y015352D02*
X032111Y015352D01*
X032169Y015411D02*
X031800Y015411D01*
X031858Y015469D02*
X032228Y015469D01*
X032286Y015528D02*
X031917Y015528D01*
X031976Y015586D02*
X032345Y015586D01*
X032403Y015645D02*
X032034Y015645D01*
X032093Y015704D02*
X032462Y015704D01*
X032518Y015762D02*
X032151Y015762D01*
X032258Y015821D02*
X032518Y015821D01*
X032530Y015879D02*
X032317Y015879D01*
X032367Y015938D02*
X032588Y015938D01*
X032709Y015781D02*
X031331Y014403D01*
X031291Y014403D01*
X030976Y014757D02*
X032157Y015938D01*
X032157Y016017D01*
X032367Y015996D02*
X035267Y015996D01*
X035255Y016055D02*
X032367Y016055D01*
X032358Y016113D02*
X035255Y016113D01*
X035219Y016172D02*
X032531Y016172D01*
X032589Y016230D02*
X035160Y016230D01*
X035101Y016289D02*
X032623Y016289D01*
X032623Y016348D02*
X035043Y016348D01*
X034984Y016406D02*
X032623Y016406D01*
X032597Y016465D02*
X034926Y016465D01*
X034867Y016523D02*
X032539Y016523D01*
X032413Y016351D02*
X032295Y016351D01*
X032256Y016391D01*
X032118Y016391D01*
X032079Y016351D01*
X032020Y016351D01*
X030642Y014974D01*
X030493Y014825D02*
X028538Y014825D01*
X028597Y014767D02*
X030551Y014767D01*
X030434Y014884D02*
X028480Y014884D01*
X028421Y014942D02*
X030432Y014942D01*
X030432Y015001D02*
X028363Y015001D01*
X028304Y015060D02*
X030432Y015060D01*
X030318Y015118D02*
X028246Y015118D01*
X028187Y015177D02*
X030260Y015177D01*
X030201Y015235D02*
X028128Y015235D01*
X028070Y015294D02*
X030195Y015294D01*
X030195Y015352D02*
X028011Y015352D01*
X027953Y015411D02*
X030195Y015411D01*
X030250Y015469D02*
X027894Y015469D01*
X027836Y015528D02*
X030309Y015528D01*
X030494Y015586D02*
X027777Y015586D01*
X027719Y015645D02*
X030553Y015645D01*
X030611Y015704D02*
X027660Y015704D01*
X027602Y015762D02*
X030670Y015762D01*
X030729Y015821D02*
X027543Y015821D01*
X027484Y015879D02*
X030787Y015879D01*
X030846Y015938D02*
X027426Y015938D01*
X027367Y015996D02*
X030904Y015996D01*
X030963Y016055D02*
X027309Y016055D01*
X027250Y016113D02*
X031021Y016113D01*
X031080Y016172D02*
X027192Y016172D01*
X027133Y016230D02*
X031138Y016230D01*
X031197Y016289D02*
X027075Y016289D01*
X027016Y016348D02*
X031255Y016348D01*
X031314Y016406D02*
X026958Y016406D01*
X026899Y016465D02*
X031373Y016465D01*
X031396Y016523D02*
X026841Y016523D01*
X026782Y016582D02*
X031396Y016582D01*
X031396Y016640D02*
X026723Y016640D01*
X026665Y016699D02*
X031401Y016699D01*
X031459Y016757D02*
X026606Y016757D01*
X026548Y016816D02*
X031518Y016816D01*
X031695Y016816D02*
X034833Y016816D01*
X034833Y016874D02*
X026489Y016874D01*
X026431Y016933D02*
X034833Y016933D01*
X034833Y016991D02*
X026372Y016991D01*
X026314Y017050D02*
X034891Y017050D01*
X034950Y017109D02*
X026255Y017109D01*
X026197Y017167D02*
X035008Y017167D01*
X035067Y017226D02*
X032246Y017226D01*
X032244Y017224D02*
X032335Y017314D01*
X032405Y017244D01*
X032579Y017244D01*
X032702Y017367D01*
X032702Y017494D01*
X033830Y018622D01*
X033977Y018622D01*
X034037Y018682D01*
X034137Y018582D01*
X034251Y018582D01*
X034251Y018450D01*
X034374Y018326D01*
X034548Y018326D01*
X034671Y018450D01*
X034671Y018579D01*
X035348Y019271D01*
X035473Y019271D01*
X035596Y019394D01*
X035596Y019568D01*
X035473Y019691D01*
X035299Y019691D01*
X035176Y019568D01*
X035176Y019438D01*
X034498Y018747D01*
X034434Y018747D01*
X034434Y018833D01*
X035967Y020365D01*
X037473Y020365D01*
X037563Y020275D01*
X037737Y020275D01*
X037860Y020398D01*
X037860Y020572D01*
X037737Y020695D01*
X037563Y020695D01*
X037473Y020605D01*
X035967Y020605D01*
X035868Y020605D01*
X034265Y019002D01*
X034137Y019002D01*
X034077Y018942D01*
X034074Y018945D01*
X034432Y019302D01*
X034502Y019373D01*
X034502Y019648D01*
X034502Y019748D01*
X034305Y019944D01*
X034277Y019973D01*
X034277Y019982D01*
X034154Y020105D01*
X033980Y020105D01*
X033857Y019982D01*
X033857Y019808D01*
X033927Y019737D01*
X033870Y019680D01*
X033595Y019680D01*
X033545Y019680D01*
X033545Y019680D01*
X033545Y019680D01*
X033510Y019645D01*
X032269Y018417D01*
X032269Y018439D01*
X032553Y018723D01*
X032553Y018822D01*
X032553Y019245D01*
X032643Y019335D01*
X032643Y019384D01*
X032651Y019392D01*
X033254Y019392D01*
X033313Y019450D02*
X032709Y019450D01*
X032651Y019392D02*
X033585Y020326D01*
X033890Y020326D01*
X033980Y020236D01*
X034154Y020236D01*
X034277Y020359D01*
X034277Y020533D01*
X034154Y020656D01*
X033980Y020656D01*
X033890Y020566D01*
X033585Y020566D01*
X033486Y020566D01*
X032536Y019616D01*
X032520Y019632D01*
X032346Y019632D01*
X032223Y019509D01*
X022269Y019509D01*
X022269Y019450D02*
X032223Y019450D01*
X032223Y019392D02*
X022269Y019392D01*
X022247Y019333D02*
X032225Y019333D01*
X032223Y019335D02*
X032313Y019245D01*
X032313Y018822D01*
X032099Y018609D01*
X031972Y018609D01*
X031849Y018486D01*
X031849Y018312D01*
X031972Y018189D01*
X032039Y018189D01*
X031648Y017802D01*
X031519Y017802D01*
X031396Y017679D01*
X031396Y017505D01*
X031519Y017382D01*
X031693Y017382D01*
X031816Y017505D01*
X031816Y017631D01*
X033207Y019007D01*
X032108Y017908D01*
X032037Y017838D01*
X032037Y017611D01*
X031947Y017521D01*
X031947Y017347D01*
X032070Y017224D01*
X032244Y017224D01*
X032305Y017284D02*
X032365Y017284D01*
X032492Y017454D02*
X033870Y018832D01*
X033890Y018832D01*
X033986Y018631D02*
X034089Y018631D01*
X034251Y018572D02*
X033780Y018572D01*
X033722Y018514D02*
X034251Y018514D01*
X034251Y018455D02*
X033663Y018455D01*
X033604Y018397D02*
X034304Y018397D01*
X034362Y018338D02*
X033546Y018338D01*
X033487Y018279D02*
X035167Y018279D01*
X035167Y018221D02*
X033429Y018221D01*
X033370Y018162D02*
X035167Y018162D01*
X035167Y018104D02*
X033312Y018104D01*
X033253Y018045D02*
X035167Y018045D01*
X035167Y017987D02*
X033195Y017987D01*
X033136Y017928D02*
X035167Y017928D01*
X035167Y017870D02*
X033078Y017870D01*
X033019Y017811D02*
X035167Y017811D01*
X035167Y017753D02*
X032961Y017753D01*
X032902Y017694D02*
X035167Y017694D01*
X035167Y017635D02*
X032843Y017635D01*
X032785Y017577D02*
X035167Y017577D01*
X035167Y017518D02*
X032726Y017518D01*
X032702Y017460D02*
X035167Y017460D01*
X035167Y017401D02*
X032702Y017401D01*
X032678Y017343D02*
X035167Y017343D01*
X035125Y017284D02*
X032619Y017284D01*
X032157Y017434D02*
X032157Y017789D01*
X033654Y019285D01*
X033772Y019285D01*
X033772Y019048D02*
X034008Y019048D01*
X034382Y019422D01*
X034382Y019698D01*
X034185Y019895D01*
X034067Y019895D01*
X034223Y020036D02*
X035298Y020036D01*
X035357Y020094D02*
X034164Y020094D01*
X034277Y019977D02*
X035239Y019977D01*
X035181Y019919D02*
X034331Y019919D01*
X034389Y019860D02*
X035122Y019860D01*
X035064Y019802D02*
X034448Y019802D01*
X034502Y019743D02*
X035005Y019743D01*
X034947Y019684D02*
X034502Y019684D01*
X034502Y019626D02*
X034888Y019626D01*
X034830Y019567D02*
X034502Y019567D01*
X034502Y019509D02*
X034771Y019509D01*
X034713Y019450D02*
X034502Y019450D01*
X034502Y019392D02*
X034654Y019392D01*
X034596Y019333D02*
X034462Y019333D01*
X034404Y019275D02*
X034537Y019275D01*
X034478Y019216D02*
X034345Y019216D01*
X034287Y019158D02*
X034420Y019158D01*
X034361Y019099D02*
X034228Y019099D01*
X034170Y019041D02*
X034303Y019041D01*
X034117Y018982D02*
X034111Y018982D01*
X034224Y018792D02*
X035917Y020485D01*
X037650Y020485D01*
X037790Y020328D02*
X039744Y020328D01*
X039744Y020270D02*
X036272Y020270D01*
X036304Y020211D02*
X039744Y020211D01*
X039744Y020153D02*
X036304Y020153D01*
X036304Y020094D02*
X039744Y020094D01*
X039744Y020036D02*
X036277Y020036D01*
X036218Y019977D02*
X039744Y019977D01*
X039744Y019919D02*
X036214Y019919D01*
X036214Y019860D02*
X039744Y019860D01*
X039744Y019802D02*
X036214Y019802D01*
X036214Y019743D02*
X039744Y019743D01*
X039744Y019684D02*
X036214Y019684D01*
X036214Y019626D02*
X039744Y019626D01*
X039744Y019567D02*
X036214Y019567D01*
X036214Y019509D02*
X039744Y019509D01*
X039744Y019450D02*
X036214Y019450D01*
X036214Y019392D02*
X039744Y019392D01*
X039744Y019333D02*
X036214Y019333D01*
X036214Y019275D02*
X039744Y019275D01*
X039744Y019216D02*
X036214Y019216D01*
X036214Y019158D02*
X039744Y019158D01*
X039744Y019099D02*
X036214Y019099D01*
X036178Y019041D02*
X039744Y019041D01*
X039744Y018982D02*
X036119Y018982D01*
X036061Y018923D02*
X039744Y018923D01*
X039744Y018865D02*
X036002Y018865D01*
X035943Y018806D02*
X039744Y018806D01*
X039744Y018748D02*
X035885Y018748D01*
X035826Y018689D02*
X039744Y018689D01*
X039744Y018631D02*
X035768Y018631D01*
X035709Y018572D02*
X039744Y018572D01*
X039744Y018514D02*
X035651Y018514D01*
X035592Y018455D02*
X039744Y018455D01*
X039744Y018397D02*
X035545Y018397D01*
X035545Y018338D02*
X039744Y018338D01*
X039744Y018279D02*
X035545Y018279D01*
X035545Y018221D02*
X039744Y018221D01*
X039744Y018162D02*
X035545Y018162D01*
X035545Y018104D02*
X039744Y018104D01*
X039744Y018045D02*
X035545Y018045D01*
X035545Y017987D02*
X039744Y017987D01*
X037857Y016699D02*
X037270Y016699D01*
X037212Y016640D02*
X037814Y016640D01*
X037814Y016582D02*
X037026Y016582D01*
X036967Y016523D02*
X037814Y016523D01*
X037830Y016465D02*
X036909Y016465D01*
X036850Y016406D02*
X037889Y016406D01*
X038074Y016348D02*
X036792Y016348D01*
X036733Y016289D02*
X038133Y016289D01*
X038191Y016230D02*
X036675Y016230D01*
X036616Y016172D02*
X039313Y016172D01*
X039372Y016113D02*
X036557Y016113D01*
X036499Y016055D02*
X039430Y016055D01*
X039489Y015996D02*
X036440Y015996D01*
X036382Y015938D02*
X039547Y015938D01*
X039557Y015879D02*
X036323Y015879D01*
X036265Y015821D02*
X039557Y015821D01*
X039557Y015762D02*
X036292Y015762D01*
X036350Y015704D02*
X039557Y015704D01*
X039557Y015645D02*
X036403Y015645D01*
X036403Y015586D02*
X039557Y015586D01*
X039557Y015528D02*
X036403Y015528D01*
X036395Y015469D02*
X039557Y015469D01*
X039557Y015411D02*
X036337Y015411D01*
X036283Y015302D02*
X036160Y015179D01*
X036160Y015005D01*
X036283Y014882D01*
X036457Y014882D01*
X036518Y014943D01*
X037895Y014943D01*
X037956Y014882D01*
X038130Y014882D01*
X038253Y015005D01*
X038253Y015179D01*
X038130Y015302D01*
X037956Y015302D01*
X037895Y015241D01*
X036518Y015241D01*
X036457Y015302D01*
X036283Y015302D01*
X036275Y015294D02*
X036092Y015294D01*
X036151Y015352D02*
X039557Y015352D01*
X039557Y015294D02*
X038138Y015294D01*
X038197Y015235D02*
X039557Y015235D01*
X039557Y015177D02*
X038253Y015177D01*
X038253Y015118D02*
X039557Y015118D01*
X039557Y015060D02*
X038253Y015060D01*
X038250Y015001D02*
X039557Y015001D01*
X039557Y014942D02*
X038191Y014942D01*
X038133Y014884D02*
X039557Y014884D01*
X039557Y014825D02*
X035624Y014825D01*
X035565Y014767D02*
X039557Y014767D01*
X039557Y014708D02*
X035507Y014708D01*
X035448Y014650D02*
X039557Y014650D01*
X039557Y014591D02*
X035534Y014591D01*
X035592Y014533D02*
X039557Y014533D01*
X039557Y014474D02*
X035635Y014474D01*
X035635Y014416D02*
X039557Y014416D01*
X039557Y014357D02*
X035635Y014357D01*
X035618Y014299D02*
X039557Y014299D01*
X039557Y014240D02*
X035559Y014240D01*
X035545Y014181D02*
X039557Y014181D01*
X039557Y014123D02*
X035545Y014123D01*
X035545Y014064D02*
X039557Y014064D01*
X039557Y014006D02*
X035545Y014006D01*
X035545Y013947D02*
X039557Y013947D01*
X039557Y013889D02*
X035545Y013889D01*
X035536Y013830D02*
X039557Y013830D01*
X039557Y013772D02*
X035476Y013772D01*
X035409Y013713D02*
X039557Y013713D01*
X039557Y013655D02*
X035345Y013655D01*
X035281Y013596D02*
X039557Y013596D01*
X039557Y013537D02*
X035217Y013537D01*
X035163Y013479D02*
X039557Y013479D01*
X039557Y013420D02*
X035163Y013420D01*
X035154Y013362D02*
X039557Y013362D01*
X039557Y013303D02*
X035095Y013303D01*
X034953Y013458D02*
X035425Y013891D01*
X035425Y014403D01*
X035215Y014416D02*
X034795Y014416D01*
X034853Y014357D02*
X035215Y014357D01*
X035232Y014299D02*
X034912Y014299D01*
X034970Y014240D02*
X035291Y014240D01*
X035305Y014181D02*
X035029Y014181D01*
X035087Y014123D02*
X035305Y014123D01*
X035305Y014064D02*
X035112Y014064D01*
X035112Y014006D02*
X035305Y014006D01*
X035305Y013947D02*
X035112Y013947D01*
X035112Y013889D02*
X035245Y013889D01*
X035181Y013830D02*
X035101Y013830D01*
X035118Y013772D02*
X035043Y013772D01*
X035054Y013713D02*
X034984Y013713D01*
X034992Y013891D02*
X033181Y012080D01*
X033391Y012074D02*
X039557Y012074D01*
X039557Y012132D02*
X033403Y012132D01*
X033462Y012191D02*
X039557Y012191D01*
X039557Y012249D02*
X033520Y012249D01*
X033579Y012308D02*
X039557Y012308D01*
X039557Y012367D02*
X033637Y012367D01*
X033696Y012425D02*
X039557Y012425D01*
X039557Y012484D02*
X033755Y012484D01*
X033813Y012542D02*
X039557Y012542D01*
X039557Y012601D02*
X033872Y012601D01*
X033930Y012659D02*
X039557Y012659D01*
X039557Y012718D02*
X033989Y012718D01*
X034047Y012776D02*
X039557Y012776D01*
X039557Y012835D02*
X034106Y012835D01*
X034164Y012893D02*
X039557Y012893D01*
X039557Y012952D02*
X034223Y012952D01*
X034281Y013011D02*
X039557Y013011D01*
X039557Y013069D02*
X034340Y013069D01*
X034399Y013128D02*
X039557Y013128D01*
X039557Y013186D02*
X034457Y013186D01*
X034516Y013245D02*
X039557Y013245D01*
X039557Y012015D02*
X033391Y012015D01*
X033355Y011957D02*
X039557Y011957D01*
X039557Y011898D02*
X033296Y011898D01*
X033066Y011898D02*
X032903Y011898D01*
X032961Y011957D02*
X033007Y011957D01*
X032787Y012080D02*
X034717Y014009D01*
X034506Y014006D02*
X034037Y014006D01*
X034095Y014064D02*
X034506Y014064D01*
X034533Y014123D02*
X034154Y014123D01*
X034212Y014181D02*
X034365Y014181D01*
X034307Y014240D02*
X034271Y014240D01*
X034165Y014304D02*
X034165Y014363D01*
X034382Y014580D01*
X035031Y014580D01*
X035189Y014737D01*
X035366Y014737D01*
X036193Y015564D01*
X036217Y015235D02*
X036034Y015235D01*
X035975Y015177D02*
X036160Y015177D01*
X036160Y015118D02*
X035917Y015118D01*
X035858Y015060D02*
X036160Y015060D01*
X036164Y015001D02*
X035800Y015001D01*
X035741Y014942D02*
X036222Y014942D01*
X036281Y014884D02*
X035682Y014884D01*
X035317Y014591D02*
X035213Y014591D01*
X035258Y014533D02*
X035154Y014533D01*
X035095Y014474D02*
X035215Y014474D01*
X034992Y014718D02*
X032984Y014718D01*
X031764Y013497D01*
X031867Y013303D02*
X031908Y013303D01*
X031955Y013245D02*
X028888Y013245D01*
X028752Y013084D02*
X031941Y013084D01*
X031980Y013044D01*
X032906Y013044D01*
X034165Y014304D01*
X034045Y014357D02*
X034041Y014357D01*
X034041Y014416D02*
X034048Y014416D01*
X034041Y014474D02*
X034107Y014474D01*
X034165Y014533D02*
X034037Y014533D01*
X033979Y014591D02*
X034224Y014591D01*
X034480Y014363D02*
X034677Y014363D01*
X034992Y014048D01*
X034992Y013891D01*
X034485Y013947D02*
X033978Y013947D01*
X033919Y013889D02*
X034427Y013889D01*
X034368Y013830D02*
X033861Y013830D01*
X033802Y013772D02*
X034310Y013772D01*
X034251Y013713D02*
X033744Y013713D01*
X033685Y013655D02*
X034192Y013655D01*
X034134Y013596D02*
X033627Y013596D01*
X033568Y013537D02*
X034075Y013537D01*
X034017Y013479D02*
X033510Y013479D01*
X033451Y013420D02*
X033958Y013420D01*
X033900Y013362D02*
X033393Y013362D01*
X033334Y013303D02*
X033841Y013303D01*
X033783Y013245D02*
X033276Y013245D01*
X033217Y013186D02*
X033724Y013186D01*
X033666Y013128D02*
X033158Y013128D01*
X033100Y013069D02*
X033607Y013069D01*
X033548Y013011D02*
X033041Y013011D01*
X032983Y012952D02*
X033490Y012952D01*
X033431Y012893D02*
X028859Y012893D01*
X028917Y012952D02*
X031903Y012952D01*
X032008Y013186D02*
X032014Y013186D01*
X032222Y013186D02*
X032878Y013186D01*
X032936Y013245D02*
X032281Y013245D01*
X032118Y013379D02*
X032768Y013379D01*
X033831Y014442D01*
X033984Y014299D02*
X033990Y014299D01*
X033931Y014240D02*
X033926Y014240D01*
X033873Y014181D02*
X033740Y014181D01*
X033681Y014123D02*
X033814Y014123D01*
X033756Y014064D02*
X033623Y014064D01*
X033564Y014006D02*
X033697Y014006D01*
X033639Y013947D02*
X033506Y013947D01*
X033447Y013889D02*
X033580Y013889D01*
X033522Y013830D02*
X033389Y013830D01*
X033330Y013772D02*
X033463Y013772D01*
X033404Y013713D02*
X033271Y013713D01*
X033213Y013655D02*
X033346Y013655D01*
X033287Y013596D02*
X033154Y013596D01*
X033096Y013537D02*
X033229Y013537D01*
X033170Y013479D02*
X033037Y013479D01*
X032979Y013420D02*
X033112Y013420D01*
X033053Y013362D02*
X032920Y013362D01*
X032862Y013303D02*
X032995Y013303D01*
X033373Y012835D02*
X028107Y012835D01*
X028049Y012893D02*
X028645Y012893D01*
X028587Y012952D02*
X027990Y012952D01*
X027932Y013011D02*
X028542Y013011D01*
X028542Y013069D02*
X027873Y013069D01*
X027912Y013128D02*
X028542Y013128D01*
X028557Y013186D02*
X027970Y013186D01*
X028017Y013245D02*
X028616Y013245D01*
X028863Y013655D02*
X029242Y013655D01*
X029184Y013713D02*
X028804Y013713D01*
X028871Y013772D02*
X029132Y013772D01*
X029132Y013830D02*
X028929Y013830D01*
X028962Y013889D02*
X029132Y013889D01*
X029077Y013947D02*
X028962Y013947D01*
X028962Y014006D02*
X029019Y014006D01*
X028960Y014064D02*
X028935Y014064D01*
X028901Y014123D02*
X028876Y014123D01*
X028843Y014181D02*
X028690Y014181D01*
X028632Y014240D02*
X028784Y014240D01*
X028726Y014299D02*
X028573Y014299D01*
X028514Y014357D02*
X028667Y014357D01*
X028609Y014416D02*
X028456Y014416D01*
X028397Y014474D02*
X028550Y014474D01*
X028492Y014533D02*
X028339Y014533D01*
X028280Y014591D02*
X028433Y014591D01*
X028375Y014650D02*
X028222Y014650D01*
X028163Y014708D02*
X028316Y014708D01*
X028257Y014767D02*
X028105Y014767D01*
X028046Y014825D02*
X028199Y014825D01*
X028140Y014884D02*
X027988Y014884D01*
X027929Y014942D02*
X028082Y014942D01*
X028023Y015001D02*
X027870Y015001D01*
X027812Y015060D02*
X027965Y015060D01*
X027906Y015118D02*
X027753Y015118D01*
X027695Y015177D02*
X027848Y015177D01*
X027789Y015235D02*
X027636Y015235D01*
X027578Y015294D02*
X027731Y015294D01*
X027672Y015352D02*
X027519Y015352D01*
X027461Y015411D02*
X027613Y015411D01*
X027555Y015469D02*
X027402Y015469D01*
X027344Y015528D02*
X027496Y015528D01*
X027438Y015586D02*
X027285Y015586D01*
X027226Y015645D02*
X027379Y015645D01*
X027321Y015704D02*
X027168Y015704D01*
X027109Y015762D02*
X027262Y015762D01*
X027204Y015821D02*
X027051Y015821D01*
X026992Y015879D02*
X027145Y015879D01*
X027087Y015938D02*
X026934Y015938D01*
X026875Y015996D02*
X027028Y015996D01*
X026969Y016055D02*
X026817Y016055D01*
X026911Y016113D02*
X025940Y016113D01*
X025998Y016055D02*
X026150Y016055D01*
X026092Y015996D02*
X026057Y015996D01*
X026252Y015958D02*
X026291Y015958D01*
X026291Y015899D01*
X026291Y015958D02*
X026744Y015958D01*
X028752Y013950D01*
X029343Y013851D02*
X024441Y018753D01*
X023516Y018753D01*
X023437Y018832D01*
X022591Y018832D01*
X022492Y018733D01*
X019165Y018733D01*
X018535Y019363D01*
X018386Y019216D02*
X018370Y019216D01*
X018312Y019158D02*
X018444Y019158D01*
X018630Y019099D02*
X016423Y019099D01*
X016423Y019273D01*
X016300Y019396D01*
X016126Y019396D01*
X016065Y019335D01*
X014857Y019335D01*
X014825Y019335D01*
X014804Y019357D01*
X014630Y019357D01*
X014569Y019296D01*
X013703Y019296D01*
X013642Y019357D01*
X013468Y019357D01*
X013345Y019234D01*
X013345Y019060D01*
X013468Y018937D01*
X013642Y018937D01*
X013703Y018998D01*
X014569Y018998D01*
X014630Y018937D01*
X014804Y018937D01*
X014904Y019037D01*
X016065Y019037D01*
X016126Y018976D01*
X016300Y018976D01*
X016423Y019099D01*
X016423Y019158D02*
X018129Y019158D01*
X018071Y019216D02*
X016423Y019216D01*
X016421Y019275D02*
X018012Y019275D01*
X018010Y019333D02*
X016362Y019333D01*
X016304Y019392D02*
X016556Y019392D01*
X016498Y019450D02*
X000634Y019450D01*
X000634Y019392D02*
X016121Y019392D01*
X016439Y019509D02*
X000634Y019509D01*
X000634Y019567D02*
X016436Y019567D01*
X016436Y019626D02*
X000634Y019626D01*
X000634Y019684D02*
X016436Y019684D01*
X016492Y019743D02*
X000634Y019743D01*
X000634Y019802D02*
X016551Y019802D01*
X016741Y019802D02*
X032721Y019802D01*
X032780Y019860D02*
X000634Y019860D01*
X000634Y019919D02*
X032838Y019919D01*
X032897Y019977D02*
X029966Y019977D01*
X029927Y019961D02*
X030026Y020002D01*
X030101Y020078D01*
X030142Y020176D01*
X030142Y020283D01*
X030101Y020381D01*
X030026Y020457D01*
X029927Y020498D01*
X029821Y020498D01*
X029722Y020457D01*
X029683Y020418D01*
X013372Y020418D01*
X013333Y020457D01*
X013234Y020498D01*
X013128Y020498D01*
X013029Y020457D01*
X012954Y020381D01*
X012913Y020283D01*
X012913Y020176D01*
X012954Y020078D01*
X013029Y020002D01*
X013128Y019961D01*
X013234Y019961D01*
X013333Y020002D01*
X013372Y020041D01*
X029683Y020041D01*
X029722Y020002D01*
X029821Y019961D01*
X029927Y019961D01*
X029782Y019977D02*
X013273Y019977D01*
X013367Y020036D02*
X029689Y020036D01*
X030059Y020036D02*
X032956Y020036D01*
X033014Y020094D02*
X030108Y020094D01*
X030132Y020153D02*
X033073Y020153D01*
X033131Y020211D02*
X030142Y020211D01*
X030142Y020270D02*
X033190Y020270D01*
X033248Y020328D02*
X030123Y020328D01*
X030096Y020387D02*
X033307Y020387D01*
X033365Y020446D02*
X030037Y020446D01*
X029711Y020446D02*
X013344Y020446D01*
X013018Y020446D02*
X000634Y020446D01*
X000634Y020504D02*
X033424Y020504D01*
X033482Y020563D02*
X000634Y020563D01*
X000634Y020621D02*
X033945Y020621D01*
X034067Y020446D02*
X033535Y020446D01*
X032531Y019442D01*
X032453Y019442D01*
X032433Y019422D01*
X032433Y018773D01*
X032059Y018399D01*
X031849Y018397D02*
X026147Y018397D01*
X026147Y018371D02*
X026024Y018248D01*
X025850Y018248D01*
X025760Y018338D01*
X025396Y018338D01*
X025297Y018338D01*
X025032Y018602D01*
X024905Y018602D01*
X024782Y018725D01*
X024782Y018899D01*
X024905Y019022D01*
X025079Y019022D01*
X025202Y018899D01*
X025202Y018772D01*
X025396Y018578D01*
X025760Y018578D01*
X025850Y018668D01*
X026024Y018668D01*
X026147Y018545D01*
X026147Y018371D01*
X026114Y018338D02*
X031849Y018338D01*
X031881Y018279D02*
X026056Y018279D01*
X026147Y018455D02*
X031849Y018455D01*
X031877Y018514D02*
X026147Y018514D01*
X026120Y018572D02*
X031935Y018572D01*
X032121Y018631D02*
X026061Y018631D01*
X025937Y018458D02*
X025346Y018458D01*
X024992Y018812D01*
X024782Y018806D02*
X024557Y018806D01*
X024616Y018748D02*
X024782Y018748D01*
X024818Y018689D02*
X024674Y018689D01*
X024733Y018631D02*
X024876Y018631D01*
X024791Y018572D02*
X025062Y018572D01*
X025121Y018514D02*
X024850Y018514D01*
X024909Y018455D02*
X025179Y018455D01*
X025238Y018397D02*
X024967Y018397D01*
X025026Y018338D02*
X025297Y018338D01*
X025143Y018221D02*
X031940Y018221D01*
X032012Y018162D02*
X025201Y018162D01*
X025260Y018104D02*
X031953Y018104D01*
X031894Y018045D02*
X025318Y018045D01*
X025377Y017987D02*
X031835Y017987D01*
X031776Y017928D02*
X025435Y017928D01*
X025494Y017870D02*
X031717Y017870D01*
X031657Y017811D02*
X025553Y017811D01*
X025611Y017753D02*
X031470Y017753D01*
X031412Y017694D02*
X025670Y017694D01*
X025728Y017635D02*
X031396Y017635D01*
X031396Y017577D02*
X025787Y017577D01*
X025845Y017518D02*
X031396Y017518D01*
X031441Y017460D02*
X025904Y017460D01*
X025962Y017401D02*
X031500Y017401D01*
X031713Y017401D02*
X031947Y017401D01*
X031952Y017343D02*
X026021Y017343D01*
X026079Y017284D02*
X032010Y017284D01*
X032069Y017226D02*
X026138Y017226D01*
X025974Y017050D02*
X025841Y017050D01*
X025783Y017109D02*
X025916Y017109D01*
X025857Y017167D02*
X025724Y017167D01*
X025666Y017226D02*
X025799Y017226D01*
X025740Y017284D02*
X025607Y017284D01*
X025548Y017343D02*
X025682Y017343D01*
X025623Y017401D02*
X025490Y017401D01*
X025431Y017460D02*
X025564Y017460D01*
X025506Y017518D02*
X025373Y017518D01*
X025314Y017577D02*
X025447Y017577D01*
X025389Y017635D02*
X025256Y017635D01*
X025197Y017694D02*
X025330Y017694D01*
X025272Y017753D02*
X025139Y017753D01*
X025080Y017811D02*
X025213Y017811D01*
X025155Y017870D02*
X025022Y017870D01*
X024963Y017928D02*
X025096Y017928D01*
X025038Y017987D02*
X024904Y017987D01*
X024846Y018045D02*
X024979Y018045D01*
X024920Y018104D02*
X024787Y018104D01*
X024729Y018162D02*
X024862Y018162D01*
X024803Y018221D02*
X024670Y018221D01*
X024612Y018279D02*
X024745Y018279D01*
X024686Y018338D02*
X024553Y018338D01*
X024628Y018397D02*
X024244Y018397D01*
X024257Y018455D02*
X024569Y018455D01*
X024511Y018514D02*
X024257Y018514D01*
X024257Y018572D02*
X024452Y018572D01*
X024394Y018631D02*
X024211Y018631D01*
X024047Y018497D02*
X022945Y018497D01*
X022735Y018514D02*
X020942Y018514D01*
X020970Y018455D02*
X022735Y018455D01*
X022748Y018397D02*
X020970Y018397D01*
X020937Y018222D02*
X021626Y018222D01*
X021764Y018084D01*
X022453Y018084D01*
X022630Y018261D01*
X024264Y018261D01*
X024303Y018222D01*
X024500Y018222D01*
X026035Y016686D01*
X026245Y016699D02*
X026326Y016699D01*
X026384Y016640D02*
X026245Y016640D01*
X026228Y016582D02*
X026443Y016582D01*
X026501Y016523D02*
X026169Y016523D01*
X026245Y016757D02*
X026267Y016757D01*
X026208Y016816D02*
X026203Y016816D01*
X026150Y016874D02*
X026144Y016874D01*
X026091Y016933D02*
X025958Y016933D01*
X025900Y016991D02*
X026033Y016991D01*
X025701Y016568D02*
X024165Y018103D01*
X022689Y018103D01*
X022472Y017887D01*
X021587Y017887D01*
X021448Y018045D02*
X020182Y018045D01*
X020124Y018104D02*
X020885Y018104D01*
X020826Y018162D02*
X020065Y018162D01*
X020007Y018221D02*
X020641Y018221D01*
X020582Y018279D02*
X019948Y018279D01*
X019890Y018338D02*
X020550Y018338D01*
X020550Y018397D02*
X019654Y018397D01*
X019595Y018455D02*
X020550Y018455D01*
X020578Y018514D02*
X019525Y018514D01*
X019466Y018572D02*
X020636Y018572D01*
X020760Y018399D02*
X020937Y018222D01*
X020883Y018572D02*
X022735Y018572D01*
X022781Y018631D02*
X022559Y018631D01*
X022618Y018689D02*
X022840Y018689D01*
X023050Y018689D02*
X023410Y018689D01*
X023515Y018923D02*
X024806Y018923D01*
X024782Y018865D02*
X024499Y018865D01*
X024865Y018982D02*
X021810Y018982D01*
X021868Y019041D02*
X032313Y019041D01*
X032313Y019099D02*
X021927Y019099D01*
X021985Y019158D02*
X032313Y019158D01*
X032313Y019216D02*
X022044Y019216D01*
X022189Y019275D02*
X032284Y019275D01*
X032223Y019335D02*
X032223Y019509D01*
X032281Y019567D02*
X022231Y019567D01*
X022172Y019626D02*
X032340Y019626D01*
X032526Y019626D02*
X032546Y019626D01*
X032604Y019684D02*
X018069Y019684D01*
X018127Y019626D02*
X021946Y019626D01*
X021887Y019567D02*
X019396Y019567D01*
X019210Y019567D02*
X018628Y019567D01*
X018687Y019509D02*
X019152Y019509D01*
X019093Y019333D02*
X018745Y019333D01*
X018794Y019275D02*
X019095Y019275D01*
X019153Y019216D02*
X018852Y019216D01*
X018911Y019158D02*
X019212Y019158D01*
X019357Y019099D02*
X018969Y019099D01*
X019028Y019041D02*
X019415Y019041D01*
X019474Y018982D02*
X019086Y018982D01*
X019145Y018923D02*
X022512Y018923D01*
X022454Y018865D02*
X019204Y018865D01*
X019040Y018689D02*
X000634Y018689D01*
X000634Y018631D02*
X019098Y018631D01*
X019219Y018572D02*
X000634Y018572D01*
X000634Y018514D02*
X016090Y018514D01*
X016031Y018455D02*
X000634Y018455D01*
X000634Y018397D02*
X016022Y018397D01*
X016022Y018338D02*
X000634Y018338D01*
X000634Y018279D02*
X016022Y018279D01*
X016074Y018221D02*
X000634Y018221D01*
X000634Y018162D02*
X016132Y018162D01*
X016332Y018162D02*
X017667Y018162D01*
X017617Y018104D02*
X000634Y018104D01*
X000634Y018045D02*
X017617Y018045D01*
X017617Y017987D02*
X000634Y017987D01*
X000634Y017928D02*
X017626Y017928D01*
X017685Y017870D02*
X000634Y017870D01*
X000634Y017811D02*
X019995Y017811D01*
X020053Y017753D02*
X000634Y017753D01*
X000634Y017694D02*
X020112Y017694D01*
X020171Y017635D02*
X000634Y017635D01*
X000634Y017577D02*
X020229Y017577D01*
X020288Y017518D02*
X000634Y017518D01*
X000634Y017460D02*
X020346Y017460D01*
X020405Y017401D02*
X000634Y017401D01*
X000634Y017343D02*
X020273Y017343D01*
X020214Y017284D02*
X000634Y017284D01*
X000634Y017226D02*
X020156Y017226D01*
X020156Y017167D02*
X000634Y017167D01*
X000634Y017109D02*
X020125Y017109D01*
X020066Y017050D02*
X000634Y017050D01*
X000634Y016991D02*
X020008Y016991D01*
X019949Y016933D02*
X000634Y016933D01*
X000634Y016874D02*
X019891Y016874D01*
X019832Y016816D02*
X016124Y016816D01*
X016103Y016837D02*
X015929Y016837D01*
X015868Y016776D01*
X014936Y016776D01*
X014904Y016776D01*
X014863Y016817D01*
X014689Y016817D01*
X014628Y016756D01*
X013723Y016756D01*
X013662Y016817D01*
X013488Y016817D01*
X013365Y016694D01*
X013365Y016520D01*
X013488Y016397D01*
X013662Y016397D01*
X013723Y016458D01*
X014628Y016458D01*
X014689Y016397D01*
X014863Y016397D01*
X014943Y016478D01*
X015868Y016478D01*
X015929Y016417D01*
X016103Y016417D01*
X016226Y016540D01*
X016226Y016714D01*
X016103Y016837D01*
X016182Y016757D02*
X019774Y016757D01*
X019715Y016699D02*
X016226Y016699D01*
X016226Y016640D02*
X019657Y016640D01*
X019598Y016582D02*
X016226Y016582D01*
X016209Y016523D02*
X019540Y016523D01*
X019481Y016465D02*
X016150Y016465D01*
X015881Y016465D02*
X014930Y016465D01*
X014871Y016406D02*
X019423Y016406D01*
X019364Y016348D02*
X000634Y016348D01*
X000634Y016406D02*
X013479Y016406D01*
X013421Y016465D02*
X000634Y016465D01*
X000634Y016523D02*
X013365Y016523D01*
X013365Y016582D02*
X000634Y016582D01*
X000634Y016640D02*
X013365Y016640D01*
X013369Y016699D02*
X000634Y016699D01*
X000634Y016757D02*
X013428Y016757D01*
X013486Y016816D02*
X000634Y016816D01*
X000634Y016289D02*
X019305Y016289D01*
X019247Y016230D02*
X000634Y016230D01*
X000634Y016172D02*
X019188Y016172D01*
X019151Y015821D02*
X016385Y015821D01*
X016326Y015762D02*
X022339Y015762D01*
X022398Y015704D02*
X016268Y015704D01*
X016197Y015645D02*
X022456Y015645D01*
X022515Y015586D02*
X016138Y015586D01*
X015933Y015586D02*
X000634Y015586D01*
X000634Y015528D02*
X022573Y015528D01*
X022731Y015411D02*
X021820Y015411D01*
X021879Y015352D02*
X022672Y015352D01*
X022827Y015210D02*
X021724Y015210D01*
X021570Y015352D02*
X000634Y015352D01*
X000634Y015294D02*
X021514Y015294D01*
X021514Y015235D02*
X000634Y015235D01*
X000634Y015177D02*
X021514Y015177D01*
X021519Y015118D02*
X000634Y015118D01*
X000634Y015060D02*
X021578Y015060D01*
X021636Y015001D02*
X000634Y015001D01*
X000634Y014942D02*
X017252Y014942D01*
X017193Y014884D02*
X000634Y014884D01*
X000634Y014825D02*
X017135Y014825D01*
X017076Y014767D02*
X000634Y014767D01*
X000634Y014708D02*
X017018Y014708D01*
X016959Y014650D02*
X000634Y014650D01*
X000634Y014591D02*
X016901Y014591D01*
X016842Y014533D02*
X015671Y014533D01*
X015543Y014363D02*
X016843Y014363D01*
X017354Y014875D01*
X022827Y014875D01*
X023037Y014884D02*
X023217Y014884D01*
X023170Y014942D02*
X023037Y014942D01*
X022998Y015001D02*
X023170Y015001D01*
X023170Y015060D02*
X022974Y015060D01*
X023032Y015118D02*
X023170Y015118D01*
X023170Y015177D02*
X023037Y015177D01*
X023037Y015235D02*
X023170Y015235D01*
X023162Y015294D02*
X023037Y015294D01*
X022981Y015352D02*
X023103Y015352D01*
X023045Y015411D02*
X022923Y015411D01*
X022986Y015469D02*
X000634Y015469D01*
X000634Y015411D02*
X021628Y015411D01*
X021871Y015060D02*
X022680Y015060D01*
X022656Y015001D02*
X021813Y015001D01*
X021831Y014708D02*
X017357Y014708D01*
X017299Y014650D02*
X021773Y014650D01*
X021770Y014591D02*
X017240Y014591D01*
X017182Y014533D02*
X021770Y014533D01*
X021770Y014474D02*
X017123Y014474D01*
X017064Y014416D02*
X021828Y014416D01*
X021886Y014357D02*
X017006Y014357D01*
X016947Y014299D02*
X021928Y014299D01*
X021928Y014240D02*
X015717Y014240D01*
X015658Y014181D02*
X018608Y014181D01*
X018549Y014123D02*
X000634Y014123D01*
X000634Y014181D02*
X015428Y014181D01*
X015370Y014240D02*
X000634Y014240D01*
X000634Y014299D02*
X015333Y014299D01*
X015333Y014357D02*
X000634Y014357D01*
X000634Y014416D02*
X015333Y014416D01*
X015357Y014474D02*
X000634Y014474D01*
X000634Y014533D02*
X015416Y014533D01*
X015394Y013550D02*
X015220Y013550D01*
X015097Y013427D01*
X015097Y013253D01*
X015158Y013192D01*
X015158Y012235D01*
X015241Y012151D01*
X011776Y012151D01*
X011719Y012209D01*
X011620Y012249D01*
X011514Y012249D01*
X011415Y012209D01*
X011340Y012133D01*
X011299Y012035D01*
X011299Y011928D01*
X011340Y011830D01*
X011415Y011754D01*
X011514Y011713D01*
X011620Y011713D01*
X011719Y011754D01*
X011776Y011811D01*
X016794Y011811D01*
X016834Y011771D01*
X016973Y011771D01*
X016722Y011520D01*
X014983Y011520D01*
X014922Y011581D01*
X014748Y011581D01*
X014625Y011458D01*
X014625Y011284D01*
X014748Y011161D01*
X014922Y011161D01*
X014983Y011222D01*
X016845Y011222D01*
X016932Y011309D01*
X017357Y011734D01*
X021786Y011734D01*
X021873Y011821D01*
X022158Y012106D01*
X022323Y012106D01*
X022446Y012229D01*
X022446Y012403D01*
X022323Y012526D01*
X022149Y012526D01*
X022026Y012403D01*
X022026Y012396D01*
X021663Y012032D01*
X017357Y012032D01*
X017234Y012032D01*
X017131Y011930D01*
X017131Y012068D01*
X017052Y012147D01*
X019195Y012147D01*
X019256Y012086D01*
X019429Y012086D01*
X019490Y012147D01*
X020120Y012147D01*
X020181Y012086D01*
X020355Y012086D01*
X020455Y012187D01*
X021498Y012187D01*
X021559Y012126D01*
X021733Y012126D01*
X021856Y012249D01*
X021856Y012423D01*
X021733Y012546D01*
X021559Y012546D01*
X021498Y012485D01*
X020376Y012485D01*
X020355Y012506D01*
X020181Y012506D01*
X020120Y012445D01*
X019490Y012445D01*
X019429Y012506D01*
X019256Y012506D01*
X019195Y012445D01*
X015456Y012445D01*
X015456Y013192D01*
X015517Y013253D01*
X015517Y013427D01*
X015394Y013550D01*
X015406Y013537D02*
X018377Y013537D01*
X018319Y013479D02*
X015465Y013479D01*
X015517Y013420D02*
X018266Y013420D01*
X018266Y013362D02*
X015517Y013362D01*
X015517Y013303D02*
X018266Y013303D01*
X018274Y013245D02*
X015509Y013245D01*
X015456Y013186D02*
X018333Y013186D01*
X018519Y013128D02*
X015456Y013128D01*
X015456Y013069D02*
X018577Y013069D01*
X018636Y013011D02*
X015456Y013011D01*
X015456Y012952D02*
X018694Y012952D01*
X018753Y012893D02*
X015456Y012893D01*
X015456Y012835D02*
X018811Y012835D01*
X018870Y012776D02*
X015456Y012776D01*
X015456Y012718D02*
X018929Y012718D01*
X018987Y012659D02*
X015456Y012659D01*
X015456Y012601D02*
X019046Y012601D01*
X019106Y012710D02*
X024402Y012710D01*
X024598Y012513D01*
X024756Y012513D01*
X024776Y012493D01*
X025701Y011588D01*
X025491Y011606D02*
X017229Y011606D01*
X017287Y011664D02*
X025451Y011664D01*
X025391Y011723D02*
X017346Y011723D01*
X017170Y011547D02*
X025491Y011547D01*
X025503Y011488D02*
X017111Y011488D01*
X017053Y011430D02*
X017675Y011430D01*
X017706Y011461D02*
X017706Y011461D01*
X017706Y011461D01*
X017619Y011374D02*
X017619Y011374D01*
X017616Y011371D02*
X016994Y011371D01*
X016936Y011313D02*
X017558Y011313D01*
X017413Y011254D02*
X016877Y011254D01*
X016749Y011547D02*
X014956Y011547D01*
X014713Y011547D02*
X000634Y011547D01*
X000634Y011606D02*
X016807Y011606D01*
X016866Y011664D02*
X000634Y011664D01*
X000634Y011723D02*
X011491Y011723D01*
X011388Y011781D02*
X000634Y011781D01*
X000634Y011840D02*
X011335Y011840D01*
X011311Y011898D02*
X000634Y011898D01*
X000634Y011957D02*
X011299Y011957D01*
X011299Y012015D02*
X000634Y012015D01*
X000634Y012074D02*
X011315Y012074D01*
X011339Y012132D02*
X000634Y012132D01*
X000634Y012191D02*
X011397Y012191D01*
X011736Y012191D02*
X015202Y012191D01*
X015158Y012249D02*
X000634Y012249D01*
X000634Y012308D02*
X015158Y012308D01*
X015158Y012367D02*
X000634Y012367D01*
X000634Y012425D02*
X015158Y012425D01*
X015158Y012484D02*
X000634Y012484D01*
X000634Y012542D02*
X015158Y012542D01*
X015158Y012601D02*
X000634Y012601D01*
X000634Y012659D02*
X015158Y012659D01*
X015158Y012718D02*
X000634Y012718D01*
X000634Y012776D02*
X015158Y012776D01*
X015158Y012835D02*
X000634Y012835D01*
X000634Y012893D02*
X015158Y012893D01*
X015158Y012952D02*
X000634Y012952D01*
X000634Y013011D02*
X015158Y013011D01*
X015158Y013069D02*
X000634Y013069D01*
X000634Y013128D02*
X015158Y013128D01*
X015158Y013186D02*
X000634Y013186D01*
X000634Y013245D02*
X015105Y013245D01*
X015097Y013303D02*
X000634Y013303D01*
X000634Y013362D02*
X015097Y013362D01*
X015097Y013420D02*
X000634Y013420D01*
X000634Y013479D02*
X015149Y013479D01*
X015208Y013537D02*
X000634Y013537D01*
X000634Y013596D02*
X021948Y013596D01*
X021889Y013655D02*
X000634Y013655D01*
X000634Y013713D02*
X021831Y013713D01*
X021823Y013891D02*
X022079Y013635D01*
X022256Y013635D01*
X022374Y013753D01*
X023811Y013753D01*
X024106Y013458D01*
X024106Y013438D01*
X024343Y013202D01*
X024343Y013084D01*
X024008Y013182D02*
X023929Y013103D01*
X022886Y013103D01*
X022453Y013497D01*
X022291Y013362D02*
X019198Y013362D01*
X019198Y013303D02*
X022350Y013303D01*
X022243Y013420D02*
X019165Y013420D01*
X019107Y013479D02*
X022243Y013479D01*
X022007Y013537D02*
X018576Y013537D01*
X018634Y013479D02*
X018870Y013479D01*
X018811Y013420D02*
X018686Y013420D01*
X018686Y013362D02*
X018778Y013362D01*
X018778Y013303D02*
X018686Y013303D01*
X018741Y013245D02*
X018778Y013245D01*
X018800Y013186D02*
X018805Y013186D01*
X018858Y013128D02*
X018864Y013128D01*
X018917Y013069D02*
X019050Y013069D01*
X019108Y013011D02*
X018975Y013011D01*
X019034Y012952D02*
X019167Y012952D01*
X019225Y012893D02*
X019092Y012893D01*
X019151Y012835D02*
X019284Y012835D01*
X019441Y012848D02*
X018988Y013300D01*
X018988Y013320D01*
X019213Y013245D02*
X022552Y013245D01*
X022616Y013186D02*
X019272Y013186D01*
X019331Y013128D02*
X022681Y013128D01*
X022745Y013069D02*
X019389Y013069D01*
X019448Y013011D02*
X022809Y013011D01*
X022366Y012484D02*
X024458Y012484D01*
X024399Y012542D02*
X021736Y012542D01*
X021795Y012484D02*
X022107Y012484D01*
X022048Y012425D02*
X021853Y012425D01*
X021856Y012367D02*
X021997Y012367D01*
X021939Y012308D02*
X021856Y012308D01*
X021856Y012249D02*
X021880Y012249D01*
X021822Y012191D02*
X021798Y012191D01*
X021763Y012132D02*
X021739Y012132D01*
X021704Y012074D02*
X017126Y012074D01*
X017131Y012015D02*
X017217Y012015D01*
X017158Y011957D02*
X017131Y011957D01*
X017067Y012132D02*
X019209Y012132D01*
X019476Y012132D02*
X020135Y012132D01*
X020268Y012296D02*
X020268Y012336D01*
X020158Y012484D02*
X019452Y012484D01*
X019233Y012484D02*
X015456Y012484D01*
X015456Y012542D02*
X021555Y012542D01*
X021552Y012132D02*
X020401Y012132D01*
X020327Y011096D02*
X020327Y011017D01*
X020346Y011017D01*
X019402Y011056D02*
X019402Y010938D01*
X019382Y011017D02*
X019402Y011056D01*
X017804Y011137D02*
X023674Y011137D01*
X023615Y011079D02*
X017745Y011079D01*
X017722Y011020D02*
X023562Y011020D01*
X023562Y010962D02*
X017714Y010962D01*
X017656Y010903D02*
X023562Y010903D01*
X023551Y010669D02*
X025174Y010669D01*
X025417Y010318D02*
X030256Y010318D01*
X030828Y009966D02*
X039744Y009966D01*
X039744Y009908D02*
X030886Y009908D01*
X030945Y009849D02*
X039744Y009849D01*
X039744Y009791D02*
X030950Y009791D01*
X030950Y009732D02*
X039744Y009732D01*
X039744Y009674D02*
X030950Y009674D01*
X030895Y009615D02*
X039744Y009615D01*
X039744Y009556D02*
X030837Y009556D01*
X030644Y009556D02*
X023505Y009556D01*
X023446Y009498D02*
X039744Y009498D01*
X039744Y009439D02*
X023388Y009439D01*
X023329Y009381D02*
X039744Y009381D01*
X039744Y009088D02*
X036470Y009088D01*
X036528Y009030D02*
X039744Y009030D01*
X039744Y008971D02*
X036541Y008971D01*
X036541Y008913D02*
X039744Y008913D01*
X039744Y008854D02*
X036541Y008854D01*
X036493Y008795D02*
X039744Y008795D01*
X039744Y008737D02*
X036451Y008737D01*
X036451Y008678D02*
X039744Y008678D01*
X039744Y008620D02*
X036451Y008620D01*
X036451Y008561D02*
X039744Y008561D01*
X039744Y008503D02*
X036451Y008503D01*
X036451Y008444D02*
X039744Y008444D01*
X039744Y008386D02*
X036451Y008386D01*
X036451Y008327D02*
X039744Y008327D01*
X039744Y008269D02*
X036453Y008269D01*
X036512Y008210D02*
X037873Y008210D01*
X037814Y008151D02*
X036570Y008151D01*
X036528Y008025D02*
X036331Y008222D01*
X036331Y008930D01*
X036528Y008025D02*
X037984Y008025D01*
X038194Y008034D02*
X039744Y008034D01*
X039744Y007976D02*
X038194Y007976D01*
X038174Y007917D02*
X039744Y007917D01*
X039744Y007859D02*
X038115Y007859D01*
X038194Y008093D02*
X039744Y008093D01*
X039744Y008151D02*
X038154Y008151D01*
X038096Y008210D02*
X039744Y008210D01*
X039744Y007800D02*
X035859Y007800D01*
X035917Y007742D02*
X037640Y007742D01*
X037582Y007683D02*
X035976Y007683D01*
X036705Y007156D02*
X031054Y007156D01*
X030110Y006883D02*
X034264Y006883D01*
X034854Y006292D01*
X035268Y006292D01*
X035602Y005958D01*
X035602Y005663D01*
X035701Y005564D01*
X035701Y005348D01*
X035583Y005229D01*
X035583Y005131D01*
X035484Y005446D02*
X035386Y005544D01*
X034353Y007141D02*
X034353Y007141D01*
X034353Y007141D01*
X033102Y004875D02*
X025799Y004875D01*
X025720Y004954D01*
X025484Y005170D01*
X025367Y004990D02*
X000634Y004990D01*
X000634Y004932D02*
X025567Y004932D01*
X025631Y004873D02*
X000634Y004873D01*
X000634Y004814D02*
X025690Y004814D01*
X025749Y004756D02*
X000634Y004756D01*
X000634Y004697D02*
X003115Y004697D01*
X003091Y004673D02*
X003091Y004673D01*
X003090Y004639D02*
X000634Y004639D01*
X000634Y006454D02*
X008334Y006454D01*
X008334Y006512D02*
X000634Y006512D01*
X000634Y006571D02*
X008334Y006571D01*
X008334Y006629D02*
X000634Y006629D01*
X000634Y006688D02*
X008334Y006688D01*
X008340Y006746D02*
X000634Y006746D01*
X000634Y006805D02*
X008355Y006805D01*
X008379Y006864D02*
X000634Y006864D01*
X000634Y006922D02*
X008415Y006922D01*
X008465Y006981D02*
X000634Y006981D01*
X000634Y007039D02*
X008539Y007039D01*
X008734Y006629D02*
X008794Y006629D01*
X008794Y006571D02*
X008734Y006571D01*
X008734Y006512D02*
X008794Y006512D01*
X008794Y006454D02*
X008734Y006454D01*
X008734Y006278D02*
X008794Y006278D01*
X008794Y006220D02*
X008734Y006220D01*
X008734Y006161D02*
X008794Y006161D01*
X008794Y006102D02*
X008734Y006102D01*
X008734Y006044D02*
X008794Y006044D01*
X008794Y005985D02*
X008734Y005985D01*
X008734Y005927D02*
X008794Y005927D01*
X008794Y005868D02*
X008734Y005868D01*
X008734Y005810D02*
X008794Y005810D01*
X008794Y005751D02*
X008734Y005751D01*
X008734Y005693D02*
X008794Y005693D01*
X008968Y005693D02*
X009659Y005693D01*
X009532Y005751D02*
X009052Y005751D01*
X009105Y005810D02*
X009474Y005810D01*
X009426Y005868D02*
X009143Y005868D01*
X009169Y005927D02*
X009401Y005927D01*
X009377Y005985D02*
X009185Y005985D01*
X009194Y006044D02*
X009374Y006044D01*
X009374Y006102D02*
X009194Y006102D01*
X009194Y006161D02*
X009374Y006161D01*
X009374Y006220D02*
X009194Y006220D01*
X009194Y006278D02*
X009374Y006278D01*
X009374Y006337D02*
X009194Y006337D01*
X014775Y010376D02*
X022652Y010376D01*
X022593Y010435D02*
X014834Y010435D01*
X014713Y011196D02*
X000634Y011196D01*
X000634Y011254D02*
X014655Y011254D01*
X014625Y011313D02*
X000634Y011313D01*
X000634Y011371D02*
X014625Y011371D01*
X014625Y011430D02*
X000634Y011430D01*
X000634Y011488D02*
X014655Y011488D01*
X014956Y011196D02*
X017354Y011196D01*
X017302Y011137D02*
X000634Y011137D01*
X000634Y011079D02*
X017302Y011079D01*
X017302Y011020D02*
X000634Y011020D01*
X000634Y010962D02*
X017309Y010962D01*
X017368Y010903D02*
X000634Y010903D01*
X000634Y008034D02*
X017395Y008034D01*
X017482Y008034D02*
X017542Y008034D01*
X017542Y007976D02*
X017482Y007976D01*
X017482Y007917D02*
X017542Y007917D01*
X017542Y007859D02*
X017482Y007859D01*
X017482Y007800D02*
X017542Y007800D01*
X017542Y007742D02*
X017482Y007742D01*
X017482Y007683D02*
X017542Y007683D01*
X017542Y007625D02*
X017482Y007625D01*
X017250Y007976D02*
X000634Y007976D01*
X000634Y007917D02*
X017170Y007917D01*
X017114Y007859D02*
X000634Y007859D01*
X000634Y007800D02*
X017071Y007800D01*
X017042Y007742D02*
X000634Y007742D01*
X000634Y007683D02*
X017020Y007683D01*
X017006Y007625D02*
X000634Y007625D01*
X000634Y007566D02*
X016998Y007566D01*
X019583Y007156D02*
X022392Y007156D01*
X022392Y007098D02*
X019641Y007098D01*
X019621Y006805D02*
X022540Y006805D01*
X022505Y006864D02*
X022589Y006864D01*
X022589Y006922D02*
X022563Y006922D01*
X022829Y007098D02*
X022945Y007098D01*
X022870Y007156D02*
X022829Y007156D01*
X022469Y006395D02*
X023877Y006395D01*
X024847Y005693D02*
X025276Y005693D01*
X025335Y005751D02*
X024905Y005751D01*
X025243Y008737D02*
X022829Y008737D01*
X022829Y008795D02*
X025184Y008795D01*
X023563Y009615D02*
X030585Y009615D01*
X029875Y011488D02*
X032314Y011488D01*
X032302Y011547D02*
X029887Y011547D01*
X029887Y011606D02*
X032302Y011606D01*
X032302Y011664D02*
X029887Y011664D01*
X029839Y011723D02*
X032350Y011723D01*
X032408Y011781D02*
X029781Y011781D01*
X029574Y011781D02*
X028588Y011781D01*
X028588Y011723D02*
X029515Y011723D01*
X029677Y011588D02*
X028240Y011588D01*
X025937Y013891D01*
X022157Y013891D01*
X021975Y014006D02*
X021878Y014006D01*
X021936Y013947D02*
X021947Y013947D01*
X021943Y013941D02*
X021943Y013941D01*
X021823Y013891D02*
X018850Y013891D01*
X018732Y014009D01*
X018522Y014006D02*
X000634Y014006D01*
X000634Y014064D02*
X018522Y014064D01*
X018522Y013947D02*
X000634Y013947D01*
X000634Y013889D02*
X018556Y013889D01*
X018614Y013830D02*
X000634Y013830D01*
X000634Y013772D02*
X018800Y013772D01*
X018942Y014064D02*
X022002Y014064D01*
X021943Y014123D02*
X018915Y014123D01*
X018857Y014181D02*
X021928Y014181D01*
X022138Y014226D02*
X023929Y014226D01*
X024008Y014147D01*
X024067Y014560D02*
X024520Y014107D01*
X024730Y014123D02*
X024743Y014123D01*
X024743Y014181D02*
X024730Y014181D01*
X024769Y014240D02*
X024684Y014240D01*
X024626Y014299D02*
X024827Y014299D01*
X024833Y014357D02*
X024440Y014357D01*
X024381Y014416D02*
X024833Y014416D01*
X024833Y014474D02*
X024323Y014474D01*
X024264Y014533D02*
X024833Y014533D01*
X024833Y014591D02*
X024206Y014591D01*
X024147Y014650D02*
X024833Y014650D01*
X024833Y014708D02*
X024179Y014708D01*
X024179Y014767D02*
X024833Y014767D01*
X024833Y014825D02*
X024179Y014825D01*
X024158Y014884D02*
X024833Y014884D01*
X024833Y014942D02*
X024100Y014942D01*
X023837Y014942D02*
X023580Y014942D01*
X023639Y014884D02*
X023779Y014884D01*
X023522Y015001D02*
X024775Y015001D01*
X024717Y015060D02*
X023468Y015060D01*
X023468Y015118D02*
X024658Y015118D01*
X024600Y015177D02*
X023468Y015177D01*
X023468Y015235D02*
X024541Y015235D01*
X024483Y015294D02*
X024192Y015294D01*
X024067Y015466D02*
X024480Y015466D01*
X024953Y014993D01*
X024953Y014127D01*
X024743Y014064D02*
X024730Y014064D01*
X024283Y013753D02*
X025898Y013753D01*
X026882Y012769D01*
X026882Y011568D01*
X026291Y011568D02*
X026055Y011568D01*
X025701Y011922D01*
X025332Y011781D02*
X021833Y011781D01*
X021892Y011840D02*
X025272Y011840D01*
X025212Y011898D02*
X021950Y011898D01*
X022009Y011957D02*
X025152Y011957D01*
X025092Y012015D02*
X022068Y012015D01*
X022126Y012074D02*
X025033Y012074D01*
X024973Y012132D02*
X022350Y012132D01*
X022408Y012191D02*
X024913Y012191D01*
X024853Y012249D02*
X022446Y012249D01*
X022446Y012308D02*
X024793Y012308D01*
X024733Y012367D02*
X022446Y012367D01*
X022424Y012425D02*
X024516Y012425D01*
X024677Y012848D02*
X019441Y012848D01*
X019106Y012710D02*
X018476Y013340D01*
X016924Y011723D02*
X011643Y011723D01*
X011746Y011781D02*
X016824Y011781D01*
X017829Y011461D02*
X017829Y011461D01*
X020195Y009615D02*
X021866Y009615D01*
X021807Y009556D02*
X020253Y009556D01*
X020281Y009498D02*
X021748Y009498D01*
X023419Y009849D02*
X023458Y009849D01*
X026665Y012670D02*
X026665Y012808D01*
X025858Y013615D01*
X024638Y013615D01*
X024559Y013537D01*
X024283Y013753D02*
X024205Y013674D01*
X024736Y013163D02*
X025642Y013163D01*
X025937Y012867D01*
X026291Y012867D01*
X027453Y014009D02*
X026921Y014540D01*
X026921Y014777D01*
X024323Y017375D01*
X024205Y017375D01*
X023772Y017828D01*
X024106Y017848D02*
X024106Y017789D01*
X024283Y017611D01*
X027138Y014737D01*
X026764Y014718D02*
X025110Y016391D01*
X025012Y016391D01*
X024224Y017178D01*
X024028Y017178D01*
X023850Y017355D01*
X023772Y017139D02*
X023752Y017139D01*
X022925Y017966D01*
X022728Y017966D01*
X022335Y017572D01*
X021724Y017572D01*
X021514Y017577D02*
X020651Y017577D01*
X020709Y017518D02*
X021514Y017518D01*
X021539Y017460D02*
X020768Y017460D01*
X020826Y017401D02*
X021598Y017401D01*
X021514Y017635D02*
X020592Y017635D01*
X020534Y017694D02*
X021482Y017694D01*
X021424Y017753D02*
X020475Y017753D01*
X020416Y017811D02*
X021377Y017811D01*
X021377Y017870D02*
X020358Y017870D01*
X020299Y017928D02*
X021377Y017928D01*
X021389Y017987D02*
X020241Y017987D01*
X019936Y017870D02*
X018835Y017870D01*
X018893Y017928D02*
X019878Y017928D01*
X019819Y017987D02*
X018903Y017987D01*
X018903Y018045D02*
X019761Y018045D01*
X019525Y018104D02*
X018903Y018104D01*
X018852Y018162D02*
X019466Y018162D01*
X019223Y018221D02*
X018794Y018221D01*
X018592Y018221D02*
X018241Y018221D01*
X018183Y018162D02*
X018534Y018162D01*
X018693Y018025D02*
X017827Y018025D01*
X017969Y017870D02*
X018551Y017870D01*
X017726Y018221D02*
X016391Y018221D01*
X016305Y018982D02*
X018747Y018982D01*
X018689Y019041D02*
X016364Y019041D01*
X016120Y018982D02*
X014849Y018982D01*
X014584Y018982D02*
X013687Y018982D01*
X013423Y018982D02*
X000634Y018982D01*
X000634Y019041D02*
X013364Y019041D01*
X013345Y019099D02*
X000634Y019099D01*
X000634Y019158D02*
X013345Y019158D01*
X013345Y019216D02*
X000634Y019216D01*
X000634Y019275D02*
X013386Y019275D01*
X013445Y019333D02*
X000634Y019333D01*
X000634Y018923D02*
X018806Y018923D01*
X018864Y018865D02*
X000634Y018865D01*
X000634Y018806D02*
X018923Y018806D01*
X018981Y018748D02*
X000634Y018748D01*
X000634Y019977D02*
X013089Y019977D01*
X012996Y020036D02*
X000634Y020036D01*
X000634Y020094D02*
X012947Y020094D01*
X012923Y020153D02*
X000634Y020153D01*
X000634Y020211D02*
X012913Y020211D01*
X012913Y020270D02*
X000634Y020270D01*
X000634Y020328D02*
X012932Y020328D01*
X012960Y020387D02*
X000634Y020387D01*
X000634Y020680D02*
X037547Y020680D01*
X037488Y020621D02*
X034189Y020621D01*
X034247Y020563D02*
X035825Y020563D01*
X035766Y020504D02*
X034277Y020504D01*
X034277Y020446D02*
X035708Y020446D01*
X035649Y020387D02*
X034277Y020387D01*
X034246Y020328D02*
X035591Y020328D01*
X035532Y020270D02*
X034188Y020270D01*
X033946Y020270D02*
X033529Y020270D01*
X033471Y020211D02*
X035474Y020211D01*
X035415Y020153D02*
X033412Y020153D01*
X033353Y020094D02*
X033969Y020094D01*
X033911Y020036D02*
X033295Y020036D01*
X033236Y019977D02*
X033857Y019977D01*
X033857Y019919D02*
X033178Y019919D01*
X033119Y019860D02*
X033857Y019860D01*
X033863Y019802D02*
X033061Y019802D01*
X033002Y019743D02*
X033922Y019743D01*
X033875Y019684D02*
X032944Y019684D01*
X032885Y019626D02*
X033490Y019626D01*
X033431Y019567D02*
X032827Y019567D01*
X032768Y019509D02*
X033372Y019509D01*
X033594Y019560D02*
X031606Y017592D01*
X031816Y017577D02*
X032003Y017577D01*
X032037Y017635D02*
X031821Y017635D01*
X031880Y017694D02*
X032037Y017694D01*
X032037Y017753D02*
X031939Y017753D01*
X031998Y017811D02*
X032037Y017811D01*
X032058Y017870D02*
X032069Y017870D01*
X032117Y017928D02*
X032128Y017928D01*
X032176Y017987D02*
X032186Y017987D01*
X032235Y018045D02*
X032245Y018045D01*
X032294Y018104D02*
X032303Y018104D01*
X032353Y018162D02*
X032362Y018162D01*
X032412Y018221D02*
X032420Y018221D01*
X032471Y018279D02*
X032479Y018279D01*
X032531Y018338D02*
X032537Y018338D01*
X032590Y018397D02*
X032596Y018397D01*
X032649Y018455D02*
X032654Y018455D01*
X032708Y018514D02*
X032713Y018514D01*
X032767Y018572D02*
X032771Y018572D01*
X032826Y018631D02*
X032830Y018631D01*
X032885Y018689D02*
X032889Y018689D01*
X032945Y018748D02*
X032947Y018748D01*
X033004Y018806D02*
X033006Y018806D01*
X033063Y018865D02*
X033064Y018865D01*
X033122Y018923D02*
X033123Y018923D01*
X033181Y018982D02*
X033181Y018982D01*
X033017Y019158D02*
X032553Y019158D01*
X032553Y019216D02*
X033077Y019216D01*
X033136Y019275D02*
X032582Y019275D01*
X032641Y019333D02*
X033195Y019333D01*
X032958Y019099D02*
X032553Y019099D01*
X032553Y019041D02*
X032899Y019041D01*
X032840Y018982D02*
X032553Y018982D01*
X032553Y018923D02*
X032781Y018923D01*
X032722Y018865D02*
X032553Y018865D01*
X032553Y018806D02*
X032663Y018806D01*
X032604Y018748D02*
X032553Y018748D01*
X032544Y018689D02*
X032519Y018689D01*
X032485Y018631D02*
X032461Y018631D01*
X032426Y018572D02*
X032402Y018572D01*
X032367Y018514D02*
X032344Y018514D01*
X032308Y018455D02*
X032285Y018455D01*
X032180Y018689D02*
X025285Y018689D01*
X025343Y018631D02*
X025813Y018631D01*
X025818Y018279D02*
X025084Y018279D01*
X025226Y018748D02*
X032238Y018748D01*
X032297Y018806D02*
X025202Y018806D01*
X025202Y018865D02*
X032313Y018865D01*
X032313Y018923D02*
X025178Y018923D01*
X025119Y018982D02*
X032313Y018982D01*
X033260Y018537D02*
X033772Y019048D01*
X033594Y019560D02*
X034047Y019560D01*
X034701Y019099D02*
X034844Y019099D01*
X034901Y019158D02*
X034759Y019158D01*
X034818Y019216D02*
X034958Y019216D01*
X035015Y019275D02*
X034876Y019275D01*
X034935Y019333D02*
X035073Y019333D01*
X035130Y019392D02*
X034993Y019392D01*
X035052Y019450D02*
X035176Y019450D01*
X035176Y019509D02*
X035111Y019509D01*
X035169Y019567D02*
X035176Y019567D01*
X035228Y019626D02*
X035233Y019626D01*
X035286Y019684D02*
X035292Y019684D01*
X035345Y019743D02*
X035974Y019743D01*
X035974Y019684D02*
X035480Y019684D01*
X035538Y019626D02*
X035974Y019626D01*
X035974Y019567D02*
X035596Y019567D01*
X035596Y019509D02*
X035974Y019509D01*
X035974Y019450D02*
X035596Y019450D01*
X035593Y019392D02*
X035974Y019392D01*
X035974Y019333D02*
X035831Y019333D01*
X035890Y019275D02*
X035974Y019275D01*
X035974Y019216D02*
X035948Y019216D01*
X035950Y019158D02*
X035955Y019158D01*
X036094Y019127D02*
X036094Y020151D01*
X035884Y020153D02*
X035754Y020153D01*
X035696Y020094D02*
X035884Y020094D01*
X035912Y020036D02*
X035637Y020036D01*
X035579Y019977D02*
X035971Y019977D01*
X035974Y019919D02*
X035520Y019919D01*
X035462Y019860D02*
X035974Y019860D01*
X035974Y019802D02*
X035403Y019802D01*
X035386Y019481D02*
X034461Y018537D01*
X034618Y018397D02*
X035167Y018397D01*
X035167Y018455D02*
X034671Y018455D01*
X034671Y018514D02*
X035167Y018514D01*
X035167Y018572D02*
X034671Y018572D01*
X034721Y018631D02*
X035167Y018631D01*
X035167Y018689D02*
X034778Y018689D01*
X034835Y018748D02*
X035191Y018748D01*
X035250Y018806D02*
X034893Y018806D01*
X034950Y018865D02*
X035308Y018865D01*
X035367Y018923D02*
X035007Y018923D01*
X035065Y018982D02*
X035425Y018982D01*
X035484Y019041D02*
X035122Y019041D01*
X035179Y019099D02*
X035530Y019099D01*
X035530Y019158D02*
X035237Y019158D01*
X035294Y019216D02*
X035532Y019216D01*
X035476Y019275D02*
X035591Y019275D01*
X035535Y019333D02*
X035649Y019333D01*
X035740Y019127D02*
X035287Y018674D01*
X035287Y017277D01*
X034953Y016942D01*
X034953Y016607D01*
X034833Y016582D02*
X031816Y016582D01*
X031816Y016640D02*
X034833Y016640D01*
X034833Y016699D02*
X031812Y016699D01*
X031753Y016757D02*
X034833Y016757D01*
X035189Y016844D02*
X035425Y017080D01*
X035425Y018458D01*
X036094Y019127D01*
X035884Y020211D02*
X035813Y020211D01*
X035872Y020270D02*
X035917Y020270D01*
X035930Y020328D02*
X035975Y020328D01*
X036214Y020328D02*
X037509Y020328D01*
X037848Y020387D02*
X039744Y020387D01*
X039744Y020446D02*
X037860Y020446D01*
X037860Y020504D02*
X039744Y020504D01*
X039744Y020563D02*
X037860Y020563D01*
X037811Y020621D02*
X039744Y020621D01*
X039744Y020680D02*
X037752Y020680D01*
X037742Y020827D02*
X037841Y020868D01*
X037916Y020944D01*
X037957Y021042D01*
X037957Y021149D01*
X037916Y021247D01*
X037841Y021323D01*
X037742Y021364D01*
X037636Y021364D01*
X037537Y021323D01*
X037480Y021266D01*
X036522Y021266D01*
X036580Y021324D01*
X037539Y021324D01*
X037330Y021499D02*
X039744Y021499D01*
X039744Y021441D02*
X037218Y021441D01*
X037211Y021438D02*
X037309Y021479D01*
X037385Y021554D01*
X037426Y021652D01*
X037426Y021759D01*
X037385Y021858D01*
X037309Y021933D01*
X037211Y021974D01*
X037104Y021974D01*
X037006Y021933D01*
X036948Y021876D01*
X012918Y021876D01*
X012861Y021933D01*
X012762Y021974D01*
X012655Y021974D01*
X012557Y021933D01*
X012481Y021858D01*
X012441Y021759D01*
X012441Y021652D01*
X012481Y021554D01*
X012557Y021479D01*
X012655Y021438D01*
X012762Y021438D01*
X012861Y021479D01*
X012918Y021536D01*
X015450Y021536D01*
X015412Y021498D01*
X015412Y021324D01*
X012425Y021324D01*
X012427Y021323D02*
X012329Y021364D01*
X012222Y021364D01*
X012124Y021323D01*
X012048Y021247D01*
X012007Y021149D01*
X012007Y021042D01*
X012048Y020944D01*
X012124Y020868D01*
X012222Y020827D01*
X012329Y020827D01*
X012427Y020868D01*
X012485Y020926D01*
X037480Y020926D01*
X037537Y020868D01*
X037636Y020827D01*
X037742Y020827D01*
X037810Y020855D02*
X039744Y020855D01*
X039744Y020797D02*
X000634Y020797D01*
X000634Y020855D02*
X012155Y020855D01*
X012078Y020914D02*
X000634Y020914D01*
X000634Y020972D02*
X012036Y020972D01*
X012012Y021031D02*
X000634Y021031D01*
X000634Y021090D02*
X012007Y021090D01*
X012007Y021148D02*
X000634Y021148D01*
X000634Y021207D02*
X012031Y021207D01*
X012066Y021265D02*
X000634Y021265D01*
X000634Y021324D02*
X012126Y021324D01*
X012427Y021323D02*
X012485Y021266D01*
X015470Y021266D01*
X015412Y021324D01*
X015412Y021382D02*
X000634Y021382D01*
X000634Y021441D02*
X012648Y021441D01*
X012769Y021441D02*
X015412Y021441D01*
X015414Y021499D02*
X012881Y021499D01*
X012536Y021499D02*
X000634Y021499D01*
X000634Y021558D02*
X012480Y021558D01*
X012455Y021616D02*
X000634Y021616D01*
X000634Y021675D02*
X012441Y021675D01*
X012441Y021734D02*
X000634Y021734D01*
X000634Y021792D02*
X012454Y021792D01*
X012478Y021851D02*
X000634Y021851D01*
X000634Y021909D02*
X012533Y021909D01*
X012640Y021968D02*
X000634Y021968D01*
X000634Y022026D02*
X033331Y022026D01*
X033286Y022085D02*
X000634Y022085D01*
X000634Y022143D02*
X033286Y022143D01*
X033286Y022202D02*
X000634Y022202D01*
X000634Y022260D02*
X033301Y022260D01*
X033359Y022319D02*
X000634Y022319D01*
X000634Y022377D02*
X039744Y022377D01*
X039744Y022319D02*
X039696Y022319D01*
X039744Y022436D02*
X000634Y022436D01*
X000634Y022495D02*
X039744Y022495D01*
X039744Y022553D02*
X000634Y022553D01*
X000634Y022612D02*
X039744Y022612D01*
X039744Y022670D02*
X000634Y022670D01*
X000634Y022729D02*
X039744Y022729D01*
X039744Y022787D02*
X000634Y022787D01*
X000634Y022846D02*
X039744Y022846D01*
X039744Y022904D02*
X000634Y022904D01*
X000634Y022963D02*
X039744Y022963D01*
X039744Y023021D02*
X000634Y023021D01*
X000634Y023080D02*
X039744Y023080D01*
X039744Y023139D02*
X000634Y023139D01*
X000634Y023197D02*
X039744Y023197D01*
X039744Y023256D02*
X000634Y023256D01*
X000634Y023314D02*
X039744Y023314D01*
X039744Y023373D02*
X000634Y023373D01*
X000634Y023431D02*
X039744Y023431D01*
X039744Y023490D02*
X000634Y023490D01*
X000634Y023548D02*
X029345Y023548D01*
X029348Y023545D02*
X029447Y023505D01*
X029553Y023505D01*
X029652Y023545D01*
X029691Y023584D01*
X036297Y023584D01*
X036336Y023545D01*
X036435Y023505D01*
X036541Y023505D01*
X036640Y023545D01*
X036679Y023584D01*
X037833Y023584D01*
X037872Y023545D01*
X037970Y023505D01*
X038077Y023505D01*
X038175Y023545D01*
X038251Y023621D01*
X038292Y023719D01*
X038292Y023826D01*
X038251Y023925D01*
X038175Y024000D01*
X038077Y024041D01*
X037970Y024041D01*
X037872Y024000D01*
X037833Y023961D01*
X036679Y023961D01*
X036640Y024000D01*
X036541Y024041D01*
X036435Y024041D01*
X036336Y024000D01*
X036297Y023961D01*
X034985Y023961D01*
X035045Y024020D01*
X035045Y024148D01*
X035180Y024283D01*
X037965Y024283D01*
X038055Y024193D01*
X038229Y024193D01*
X038352Y024316D01*
X038352Y024490D01*
X038229Y024613D01*
X038055Y024613D01*
X037965Y024523D01*
X035080Y024523D01*
X035010Y024452D01*
X034875Y024317D01*
X034748Y024317D01*
X034625Y024194D01*
X034625Y024020D01*
X034684Y023961D01*
X029691Y023961D01*
X029652Y024000D01*
X029553Y024041D01*
X029447Y024041D01*
X029348Y024000D01*
X029273Y023925D01*
X029232Y023826D01*
X029232Y023719D01*
X029273Y023621D01*
X029348Y023545D01*
X029287Y023607D02*
X000634Y023607D01*
X000634Y023665D02*
X029254Y023665D01*
X029232Y023724D02*
X000634Y023724D01*
X000634Y023783D02*
X029232Y023783D01*
X029238Y023841D02*
X000634Y023841D01*
X000634Y023900D02*
X029262Y023900D01*
X029306Y023958D02*
X000634Y023958D01*
X000634Y024017D02*
X029388Y024017D01*
X029612Y024017D02*
X032916Y024017D01*
X032937Y023996D02*
X033111Y023996D01*
X033201Y024086D01*
X033949Y024086D01*
X034039Y023996D01*
X034213Y023996D01*
X034336Y024119D01*
X034336Y024293D01*
X034213Y024416D01*
X034039Y024416D01*
X033949Y024326D01*
X033201Y024326D01*
X033111Y024416D01*
X032937Y024416D01*
X032814Y024293D01*
X032814Y024119D01*
X032937Y023996D01*
X032857Y024075D02*
X000634Y024075D01*
X000634Y024134D02*
X032814Y024134D01*
X032814Y024192D02*
X000634Y024192D01*
X000634Y024251D02*
X032814Y024251D01*
X032830Y024309D02*
X000634Y024309D01*
X000634Y024368D02*
X032889Y024368D01*
X033024Y024206D02*
X034126Y024206D01*
X034336Y024192D02*
X034625Y024192D01*
X034625Y024134D02*
X034336Y024134D01*
X034292Y024075D02*
X034625Y024075D01*
X034628Y024017D02*
X034234Y024017D01*
X034018Y024017D02*
X033131Y024017D01*
X033190Y024075D02*
X033960Y024075D01*
X033991Y024368D02*
X033158Y024368D01*
X034261Y024368D02*
X034926Y024368D01*
X034984Y024426D02*
X000634Y024426D01*
X000634Y024485D02*
X035043Y024485D01*
X035010Y024452D02*
X035010Y024452D01*
X035130Y024403D02*
X038142Y024403D01*
X038298Y024544D02*
X039744Y024544D01*
X039744Y024602D02*
X038239Y024602D01*
X038352Y024485D02*
X039744Y024485D01*
X039744Y024426D02*
X038352Y024426D01*
X038352Y024368D02*
X039744Y024368D01*
X039744Y024309D02*
X038345Y024309D01*
X038287Y024251D02*
X039744Y024251D01*
X039744Y024192D02*
X035089Y024192D01*
X035045Y024134D02*
X039744Y024134D01*
X039744Y024075D02*
X035045Y024075D01*
X035041Y024017D02*
X036377Y024017D01*
X036600Y024017D02*
X037912Y024017D01*
X038135Y024017D02*
X039744Y024017D01*
X039744Y023958D02*
X038217Y023958D01*
X038261Y023900D02*
X039744Y023900D01*
X039744Y023841D02*
X038286Y023841D01*
X038292Y023783D02*
X039744Y023783D01*
X039744Y023724D02*
X038292Y023724D01*
X038269Y023665D02*
X039744Y023665D01*
X039744Y023607D02*
X038237Y023607D01*
X038178Y023548D02*
X039744Y023548D01*
X039744Y024661D02*
X000634Y024661D01*
X000634Y024719D02*
X039744Y024719D01*
X039744Y024778D02*
X000634Y024778D01*
X000634Y024836D02*
X039744Y024836D01*
X039744Y024895D02*
X000634Y024895D01*
X000634Y024953D02*
X039744Y024953D01*
X039744Y025012D02*
X000634Y025012D01*
X000634Y025070D02*
X039744Y025070D01*
X039744Y025129D02*
X000634Y025129D01*
X000634Y025188D02*
X039744Y025188D01*
X039744Y025246D02*
X000634Y025246D01*
X000634Y025305D02*
X039744Y025305D01*
X039744Y025363D02*
X000634Y025363D01*
X000634Y025422D02*
X039744Y025422D01*
X039744Y025480D02*
X000634Y025480D01*
X000634Y025539D02*
X039744Y025539D01*
X039744Y025597D02*
X000634Y025597D01*
X000634Y025656D02*
X039744Y025656D01*
X039744Y025714D02*
X000634Y025714D01*
X000634Y025773D02*
X039744Y025773D01*
X039744Y025832D02*
X000634Y025832D01*
X000634Y025890D02*
X039744Y025890D01*
X039744Y025949D02*
X000634Y025949D01*
X000634Y026007D02*
X039744Y026007D01*
X039744Y026066D02*
X000634Y026066D01*
X000634Y026124D02*
X039744Y026124D01*
X039744Y026183D02*
X000634Y026183D01*
X000634Y026241D02*
X039744Y026241D01*
X039744Y026300D02*
X000634Y026300D01*
X000634Y026358D02*
X003148Y026358D01*
X003167Y026340D02*
X003167Y026340D01*
X003167Y026340D01*
X003274Y026340D02*
X003274Y026340D01*
X003090Y026417D02*
X000634Y026417D01*
X000634Y026476D02*
X003090Y026476D01*
X000634Y024602D02*
X038044Y024602D01*
X037986Y024544D02*
X000634Y024544D01*
X000634Y020738D02*
X039744Y020738D01*
X039744Y020914D02*
X037886Y020914D01*
X037928Y020972D02*
X039744Y020972D01*
X039744Y021031D02*
X037952Y021031D01*
X037957Y021090D02*
X039744Y021090D01*
X039744Y021148D02*
X037957Y021148D01*
X037933Y021207D02*
X039744Y021207D01*
X039744Y021265D02*
X037899Y021265D01*
X037839Y021324D02*
X039744Y021324D01*
X039744Y021382D02*
X036580Y021382D01*
X036580Y021324D02*
X036580Y021498D01*
X036542Y021536D01*
X036948Y021536D01*
X037006Y021479D01*
X037104Y021438D01*
X037211Y021438D01*
X037097Y021441D02*
X036580Y021441D01*
X036578Y021499D02*
X036985Y021499D01*
X037386Y021558D02*
X039744Y021558D01*
X039744Y021616D02*
X037411Y021616D01*
X037426Y021675D02*
X039744Y021675D01*
X039744Y021734D02*
X037426Y021734D01*
X037412Y021792D02*
X039744Y021792D01*
X039744Y021851D02*
X037388Y021851D01*
X037333Y021909D02*
X039744Y021909D01*
X039744Y021968D02*
X039665Y021968D01*
X039724Y022026D02*
X039744Y022026D01*
X039453Y021968D02*
X037226Y021968D01*
X037089Y021968D02*
X033602Y021968D01*
X033390Y021968D02*
X012777Y021968D01*
X012884Y021909D02*
X036982Y021909D01*
X036370Y021411D02*
X015622Y021411D01*
X016799Y019743D02*
X032663Y019743D01*
X034434Y018806D02*
X034557Y018806D01*
X034500Y018748D02*
X034434Y018748D01*
X034467Y018865D02*
X034614Y018865D01*
X034672Y018923D02*
X034525Y018923D01*
X034584Y018982D02*
X034729Y018982D01*
X034786Y019041D02*
X034642Y019041D01*
X034559Y018338D02*
X035167Y018338D01*
X036823Y017021D02*
X035799Y015997D01*
X035799Y015958D01*
X034815Y014974D01*
X034895Y014884D02*
X034989Y014884D01*
X034954Y014942D02*
X035047Y014942D01*
X035012Y015001D02*
X035106Y015001D01*
X035071Y015060D02*
X035164Y015060D01*
X035129Y015118D02*
X035223Y015118D01*
X035188Y015177D02*
X035281Y015177D01*
X035246Y015235D02*
X035340Y015235D01*
X035305Y015294D02*
X035399Y015294D01*
X035363Y015352D02*
X035457Y015352D01*
X035422Y015411D02*
X035516Y015411D01*
X035480Y015469D02*
X035574Y015469D01*
X035539Y015528D02*
X035633Y015528D01*
X035598Y015586D02*
X035691Y015586D01*
X035656Y015645D02*
X035750Y015645D01*
X035715Y015704D02*
X035808Y015704D01*
X035773Y015762D02*
X035867Y015762D01*
X035832Y015821D02*
X035925Y015821D01*
X035890Y015879D02*
X035984Y015879D01*
X036043Y015938D02*
X035919Y015938D01*
X035968Y015996D02*
X036101Y015996D01*
X036160Y016055D02*
X036027Y016055D01*
X036085Y016113D02*
X036218Y016113D01*
X036277Y016172D02*
X036144Y016172D01*
X036202Y016230D02*
X036335Y016230D01*
X036394Y016289D02*
X036261Y016289D01*
X036319Y016348D02*
X036452Y016348D01*
X036511Y016406D02*
X036378Y016406D01*
X036436Y016465D02*
X036569Y016465D01*
X036628Y016523D02*
X036495Y016523D01*
X036553Y016582D02*
X036686Y016582D01*
X036745Y016640D02*
X036612Y016640D01*
X036671Y016699D02*
X036804Y016699D01*
X036862Y016757D02*
X036729Y016757D01*
X037079Y016804D02*
X034992Y014718D01*
X036459Y014884D02*
X037954Y014884D01*
X037895Y014942D02*
X036518Y014942D01*
X036465Y015294D02*
X037948Y015294D01*
X038297Y016465D02*
X039744Y016465D01*
X039744Y016523D02*
X038238Y016523D01*
X039418Y016406D02*
X039744Y016406D01*
X039744Y016348D02*
X039477Y016348D01*
X039535Y016289D02*
X039744Y016289D01*
X039744Y016230D02*
X039594Y016230D01*
X039652Y016172D02*
X039744Y016172D01*
X039744Y016113D02*
X039711Y016113D01*
X036097Y016465D02*
X035265Y016465D01*
X035324Y016406D02*
X036038Y016406D01*
X035980Y016348D02*
X035382Y016348D01*
X035568Y016289D02*
X035921Y016289D01*
X035325Y015938D02*
X032868Y015938D01*
X032728Y015781D02*
X032709Y015781D01*
X032288Y016523D02*
X031816Y016523D01*
X031761Y016465D02*
X031963Y016465D01*
X031905Y016406D02*
X031702Y016406D01*
X031595Y016348D02*
X031846Y016348D01*
X031787Y016289D02*
X031536Y016289D01*
X031478Y016230D02*
X031729Y016230D01*
X031670Y016172D02*
X031419Y016172D01*
X031361Y016113D02*
X031612Y016113D01*
X031553Y016055D02*
X031302Y016055D01*
X031244Y015996D02*
X031495Y015996D01*
X031436Y015938D02*
X031185Y015938D01*
X031126Y015879D02*
X031378Y015879D01*
X031319Y015821D02*
X031068Y015821D01*
X031009Y015762D02*
X031261Y015762D01*
X031202Y015704D02*
X030951Y015704D01*
X030892Y015645D02*
X031144Y015645D01*
X031085Y015586D02*
X030834Y015586D01*
X030775Y015528D02*
X031026Y015528D01*
X030968Y015469D02*
X030717Y015469D01*
X030658Y015411D02*
X030909Y015411D01*
X030851Y015352D02*
X030616Y015352D01*
X030616Y015294D02*
X030792Y015294D01*
X030734Y015235D02*
X030610Y015235D01*
X030406Y015328D02*
X031606Y016529D01*
X031606Y016607D01*
X031771Y017460D02*
X031947Y017460D01*
X031947Y017518D02*
X031816Y017518D01*
X032157Y015060D02*
X032251Y015060D01*
X030845Y014591D02*
X028772Y014591D01*
X028714Y014650D02*
X030787Y014650D01*
X030766Y014708D02*
X028655Y014708D01*
X027472Y014009D02*
X027453Y014009D01*
X026764Y014344D02*
X027807Y013320D01*
X028017Y013303D02*
X031661Y013303D01*
X031637Y012487D02*
X031547Y012397D01*
X031193Y012397D01*
X031103Y012487D01*
X030929Y012487D01*
X030806Y012364D01*
X030806Y012190D01*
X030929Y012067D01*
X031103Y012067D01*
X031193Y012157D01*
X031547Y012157D01*
X031637Y012067D01*
X031811Y012067D01*
X031934Y012190D01*
X031934Y012364D01*
X031811Y012487D01*
X031637Y012487D01*
X031634Y012484D02*
X031106Y012484D01*
X031164Y012425D02*
X031576Y012425D01*
X031724Y012277D02*
X031016Y012277D01*
X030867Y012425D02*
X028576Y012425D01*
X028518Y012484D02*
X030926Y012484D01*
X030809Y012367D02*
X028703Y012367D01*
X028762Y012308D02*
X030806Y012308D01*
X030806Y012249D02*
X028804Y012249D01*
X028804Y012191D02*
X030806Y012191D01*
X030863Y012132D02*
X028804Y012132D01*
X028787Y012074D02*
X030922Y012074D01*
X031110Y012074D02*
X031630Y012074D01*
X031572Y012132D02*
X031168Y012132D01*
X031819Y012074D02*
X032577Y012074D01*
X032577Y012132D02*
X031877Y012132D01*
X031934Y012191D02*
X032601Y012191D01*
X032660Y012249D02*
X031934Y012249D01*
X031934Y012308D02*
X032846Y012308D01*
X032904Y012367D02*
X031931Y012367D01*
X031873Y012425D02*
X032963Y012425D01*
X033022Y012484D02*
X031814Y012484D01*
X032577Y012015D02*
X028729Y012015D01*
X028581Y011898D02*
X032672Y011898D01*
X032613Y011957D02*
X028522Y011957D01*
X028588Y011840D02*
X039557Y011840D01*
X039557Y011781D02*
X032615Y011781D01*
X032551Y011627D02*
X032512Y011588D01*
X032551Y011627D02*
X038594Y011627D01*
X038870Y011351D01*
X038729Y011196D02*
X037977Y011196D01*
X038035Y011137D02*
X039557Y011137D01*
X039557Y011079D02*
X038094Y011079D01*
X038563Y011488D02*
X037160Y011488D01*
X037210Y011430D02*
X038622Y011430D01*
X038660Y011371D02*
X037210Y011371D01*
X037210Y011313D02*
X038660Y011313D01*
X038670Y011254D02*
X037235Y011254D01*
X038669Y011723D02*
X039557Y011723D01*
X039557Y011664D02*
X038727Y011664D01*
X038786Y011606D02*
X039557Y011606D01*
X039557Y011547D02*
X038972Y011547D01*
X039030Y011488D02*
X039557Y011488D01*
X039557Y011430D02*
X039080Y011430D01*
X039080Y011371D02*
X039557Y011371D01*
X039557Y011313D02*
X039080Y011313D01*
X039070Y011254D02*
X039557Y011254D01*
X039557Y011196D02*
X039011Y011196D01*
X034810Y013303D02*
X034574Y013303D01*
X034633Y013362D02*
X034752Y013362D01*
X034743Y013420D02*
X034691Y013420D01*
X033314Y012776D02*
X028166Y012776D01*
X028284Y012718D02*
X033256Y012718D01*
X033197Y012659D02*
X028342Y012659D01*
X028401Y012601D02*
X033139Y012601D01*
X033080Y012542D02*
X028459Y012542D01*
X028220Y012611D02*
X028161Y012611D01*
X024835Y015938D01*
X024776Y015938D01*
X024264Y016450D01*
X024106Y016588D01*
X023929Y016588D01*
X023791Y016450D01*
X023581Y016465D02*
X019903Y016465D01*
X019961Y016523D02*
X023581Y016523D01*
X023626Y016582D02*
X020020Y016582D01*
X020078Y016640D02*
X023678Y016640D01*
X023581Y016406D02*
X019844Y016406D01*
X019786Y016348D02*
X023597Y016348D01*
X023655Y016289D02*
X019727Y016289D01*
X019668Y016230D02*
X023837Y016230D01*
X023871Y016172D02*
X019610Y016172D01*
X019551Y016113D02*
X023929Y016113D01*
X023932Y015996D02*
X024334Y015996D01*
X024275Y016055D02*
X022468Y016055D01*
X022523Y016000D02*
X022523Y016000D01*
X022527Y015996D02*
X023651Y015996D01*
X023592Y015938D02*
X022585Y015938D01*
X022644Y015879D02*
X023581Y015879D01*
X023581Y015821D02*
X022702Y015821D01*
X023115Y015762D02*
X023581Y015762D01*
X023630Y015704D02*
X023174Y015704D01*
X023232Y015645D02*
X023689Y015645D01*
X023894Y015645D02*
X023949Y015645D01*
X023952Y015704D02*
X024426Y015704D01*
X024483Y015645D02*
X024185Y015645D01*
X024243Y015586D02*
X024540Y015586D01*
X024588Y015528D02*
X024598Y015528D01*
X024646Y015469D02*
X024655Y015469D01*
X024705Y015411D02*
X024712Y015411D01*
X024763Y015352D02*
X024769Y015352D01*
X024822Y015294D02*
X024827Y015294D01*
X024880Y015235D02*
X024884Y015235D01*
X024939Y015177D02*
X024941Y015177D01*
X024998Y015118D02*
X024998Y015118D01*
X024461Y015840D02*
X027906Y012316D01*
X028063Y012159D01*
X028142Y012159D01*
X028378Y012237D02*
X028378Y011804D01*
X028594Y012178D02*
X028594Y012237D01*
X028220Y012611D01*
X028161Y012454D02*
X028378Y012237D01*
X028161Y012454D02*
X028102Y012454D01*
X024205Y016292D01*
X024047Y016292D01*
X024165Y016113D02*
X024216Y016113D01*
X024461Y015840D02*
X023791Y015840D01*
X023891Y015586D02*
X023291Y015586D01*
X023349Y015528D02*
X023857Y015528D01*
X023857Y015469D02*
X023408Y015469D01*
X023466Y015411D02*
X023857Y015411D01*
X023883Y015352D02*
X023468Y015352D01*
X023468Y015294D02*
X023942Y015294D01*
X024067Y014560D02*
X021980Y014560D01*
X022957Y014708D02*
X023393Y014708D01*
X023334Y014767D02*
X023015Y014767D01*
X023037Y014825D02*
X023276Y014825D01*
X024854Y016194D02*
X024500Y016548D01*
X024500Y016568D01*
X024362Y016706D01*
X024343Y016706D01*
X024205Y016844D01*
X024087Y016844D01*
X023870Y017060D01*
X023850Y017060D01*
X023772Y017139D01*
X023671Y017050D02*
X021178Y017050D01*
X021236Y016991D02*
X023662Y016991D01*
X023613Y017109D02*
X021119Y017109D01*
X021060Y017167D02*
X023554Y017167D01*
X023495Y017226D02*
X021002Y017226D01*
X020943Y017284D02*
X023437Y017284D01*
X023378Y017343D02*
X020885Y017343D01*
X020697Y017109D02*
X020576Y017109D01*
X020576Y017167D02*
X020639Y017167D01*
X020580Y017226D02*
X020576Y017226D01*
X020522Y017284D02*
X020518Y017284D01*
X020463Y017343D02*
X020459Y017343D01*
X020574Y017050D02*
X020756Y017050D01*
X020815Y016991D02*
X020516Y016991D01*
X020457Y016933D02*
X020873Y016933D01*
X020932Y016874D02*
X020312Y016874D01*
X020254Y016816D02*
X020990Y016816D01*
X021049Y016757D02*
X020195Y016757D01*
X020137Y016699D02*
X021107Y016699D01*
X021851Y017401D02*
X023320Y017401D01*
X023261Y017460D02*
X022392Y017460D01*
X022451Y017518D02*
X023203Y017518D01*
X023144Y017577D02*
X022509Y017577D01*
X022568Y017635D02*
X023086Y017635D01*
X023027Y017694D02*
X022626Y017694D01*
X022685Y017753D02*
X022969Y017753D01*
X022910Y017811D02*
X022743Y017811D01*
X022420Y018221D02*
X021796Y018221D01*
X021738Y018279D02*
X022479Y018279D01*
X022537Y018338D02*
X021679Y018338D01*
X021681Y019275D02*
X019603Y019275D01*
X019544Y019333D02*
X021739Y019333D01*
X021798Y019392D02*
X019513Y019392D01*
X018443Y019567D02*
X018313Y019567D01*
X018372Y019509D02*
X018384Y019509D01*
X018220Y019363D02*
X017984Y019600D01*
X016646Y019600D01*
X016793Y019450D02*
X017964Y019450D01*
X018010Y019392D02*
X016735Y019392D01*
X014606Y019333D02*
X013666Y019333D01*
X012473Y020914D02*
X037491Y020914D01*
X037568Y020855D02*
X012396Y020855D01*
X013663Y016816D02*
X014687Y016816D01*
X014629Y016757D02*
X013722Y016757D01*
X013670Y016406D02*
X014680Y016406D01*
X014864Y016816D02*
X015908Y016816D01*
X016256Y016113D02*
X000634Y016113D01*
X000634Y016055D02*
X016197Y016055D01*
X016139Y015996D02*
X000634Y015996D01*
X000634Y015938D02*
X015896Y015938D01*
X015837Y015879D02*
X000634Y015879D01*
X000634Y015821D02*
X015825Y015821D01*
X015825Y015762D02*
X000634Y015762D01*
X000634Y015704D02*
X015825Y015704D01*
X015874Y015645D02*
X000634Y015645D01*
X019756Y020663D02*
X019874Y020781D01*
X021449Y020781D01*
X021685Y020544D01*
X023108Y018631D02*
X023884Y018631D01*
X025708Y016348D02*
X026677Y016348D01*
X026618Y016406D02*
X025836Y016406D01*
X025894Y016465D02*
X026560Y016465D01*
X026735Y016289D02*
X025766Y016289D01*
X025824Y016230D02*
X026794Y016230D01*
X026852Y016172D02*
X025882Y016172D01*
X024933Y016194D02*
X024854Y016194D01*
X024933Y016194D02*
X026528Y014580D01*
X026764Y014718D02*
X026764Y014344D01*
X030732Y014767D02*
X030766Y014767D01*
X029655Y023548D02*
X036333Y023548D01*
X036643Y023548D02*
X037869Y023548D01*
X037996Y024251D02*
X035148Y024251D01*
X035130Y024403D02*
X034835Y024107D01*
X034681Y024251D02*
X034336Y024251D01*
X034319Y024309D02*
X034740Y024309D01*
X035656Y026358D02*
X039744Y026358D01*
X039744Y026417D02*
X037269Y026417D01*
X037287Y026476D02*
X039744Y026476D01*
D14*
X038142Y024403D03*
X034835Y024107D03*
X034126Y024206D03*
X033024Y024206D03*
X033496Y022159D03*
X034067Y020446D03*
X034067Y019895D03*
X034047Y019560D03*
X033772Y019285D03*
X033890Y018832D03*
X034224Y018792D03*
X034461Y018537D03*
X034913Y017926D03*
X034913Y017611D03*
X035858Y017710D03*
X036193Y017336D03*
X036665Y017336D03*
X036823Y017021D03*
X037079Y016804D03*
X038024Y016568D03*
X037433Y017710D03*
X038654Y017710D03*
X038280Y019363D03*
X038280Y019639D03*
X037984Y019639D03*
X037984Y019363D03*
X037650Y020485D03*
X036370Y021411D03*
X036094Y020151D03*
X035386Y019481D03*
X035740Y019127D03*
X033260Y018537D03*
X032059Y018399D03*
X031606Y017592D03*
X032157Y017434D03*
X032492Y017454D03*
X031606Y016607D03*
X032157Y016017D03*
X032413Y016351D03*
X032728Y015781D03*
X033831Y014442D03*
X034480Y014363D03*
X034717Y014009D03*
X034953Y013458D03*
X035425Y014403D03*
X036370Y015092D03*
X036193Y015564D03*
X035465Y016096D03*
X035189Y016844D03*
X038043Y015092D03*
X033181Y012080D03*
X032787Y012080D03*
X032512Y011588D03*
X031724Y012277D03*
X031508Y012572D03*
X031508Y012848D03*
X031232Y012848D03*
X031232Y012572D03*
X031016Y012277D03*
X029677Y011588D03*
X028594Y012178D03*
X028142Y012159D03*
X028378Y011804D03*
X026882Y011568D03*
X026291Y011568D03*
X025701Y011588D03*
X025701Y011922D03*
X026665Y012670D03*
X026291Y012867D03*
X027472Y014009D03*
X027807Y013320D03*
X028752Y013084D03*
X028752Y013950D03*
X029343Y013851D03*
X030642Y014974D03*
X030976Y014757D03*
X031291Y014403D03*
X031764Y013497D03*
X032118Y013379D03*
X030406Y015328D03*
X027315Y017631D03*
X027315Y017946D03*
X026980Y017946D03*
X026980Y017631D03*
X025937Y018458D03*
X024992Y018812D03*
X024047Y018497D03*
X024106Y017848D03*
X023772Y017828D03*
X023850Y017355D03*
X023791Y016824D03*
X023791Y016450D03*
X024047Y016292D03*
X023791Y015840D03*
X024067Y015466D03*
X023969Y014777D03*
X024008Y014147D03*
X024520Y014107D03*
X024953Y014127D03*
X024559Y013537D03*
X024205Y013674D03*
X024008Y013182D03*
X024343Y013084D03*
X024736Y013163D03*
X024677Y012848D03*
X022453Y013497D03*
X022157Y013891D03*
X022138Y014226D03*
X021980Y014560D03*
X021724Y015210D03*
X022827Y015210D03*
X022827Y014875D03*
X020799Y014166D03*
X020484Y014166D03*
X020091Y014166D03*
X019756Y014166D03*
X018732Y014009D03*
X018476Y013340D03*
X018988Y013300D03*
X019343Y012296D03*
X020268Y012296D03*
X021646Y012336D03*
X022236Y012316D03*
X021724Y010997D03*
X021429Y010151D03*
X021075Y009934D03*
X020071Y009442D03*
X019559Y009304D03*
X019421Y008635D03*
X019106Y008674D03*
X018772Y008812D03*
X018693Y009107D03*
X020799Y008497D03*
X020996Y008733D03*
X021941Y008871D03*
X022236Y009088D03*
X022236Y009403D03*
X022295Y009718D03*
X022787Y009600D03*
X022984Y009855D03*
X023417Y010505D03*
X023772Y010938D03*
X025307Y010505D03*
X025346Y008930D03*
X025327Y008576D03*
X025327Y008261D03*
X025327Y007926D03*
X025327Y007592D03*
X026291Y008281D03*
X026429Y007946D03*
X026882Y007611D03*
X027217Y007277D03*
X027551Y006942D03*
X027886Y006607D03*
X028673Y005879D03*
X028142Y005525D03*
X029677Y006509D03*
X030484Y007316D03*
X030071Y007729D03*
X030484Y007808D03*
X030484Y008123D03*
X030012Y008320D03*
X029441Y008556D03*
X029087Y008891D03*
X028378Y009166D03*
X030425Y010190D03*
X030740Y009757D03*
X031075Y010190D03*
X031075Y010466D03*
X031370Y010466D03*
X031370Y010190D03*
X031685Y008950D03*
X031803Y008320D03*
X031606Y008005D03*
X031272Y008005D03*
X031213Y007552D03*
X032551Y007552D03*
X032886Y007572D03*
X032945Y007907D03*
X032807Y008182D03*
X033417Y007926D03*
X033181Y008891D03*
X032787Y008891D03*
X035543Y008576D03*
X036331Y008930D03*
X037984Y008025D03*
X037748Y007552D03*
X037531Y006824D03*
X037531Y006529D03*
X037531Y006214D03*
X038772Y006489D03*
X039087Y006489D03*
X039087Y006804D03*
X038772Y006804D03*
X036823Y007336D03*
X035484Y005446D03*
X035583Y005131D03*
X035740Y004875D03*
X035346Y004875D03*
X035110Y005111D03*
X034795Y005170D03*
X034795Y004836D03*
X034461Y004836D03*
X034126Y004836D03*
X034028Y005151D03*
X033732Y004855D03*
X033417Y004855D03*
X033102Y004875D03*
X033516Y005249D03*
X034894Y005603D03*
X038496Y010466D03*
X038870Y011351D03*
X037000Y011351D03*
X036587Y010958D03*
X035701Y010997D03*
X027138Y014737D03*
X027118Y015072D03*
X026528Y014580D03*
X026291Y015899D03*
X026035Y016686D03*
X025701Y016568D03*
X022827Y017119D03*
X022827Y017434D03*
X022827Y017749D03*
X022236Y018418D03*
X022945Y018497D03*
X022059Y019442D03*
X021685Y020544D03*
X019756Y020663D03*
X019303Y019363D03*
X018535Y019363D03*
X018220Y019363D03*
X018083Y018359D03*
X017827Y018025D03*
X018693Y018025D03*
X019343Y018399D03*
X020760Y018399D03*
X021587Y017887D03*
X021724Y017572D03*
X020366Y017139D03*
X016646Y019600D03*
X016213Y019186D03*
X016232Y018359D03*
X014717Y019147D03*
X013555Y019147D03*
X015622Y021411D03*
X016016Y016627D03*
X016035Y015781D03*
X014776Y016607D03*
X013575Y016607D03*
X015543Y014363D03*
X015307Y013340D03*
X016665Y013044D03*
X016665Y012769D03*
X016961Y012769D03*
X016961Y013044D03*
X016921Y011981D03*
X017512Y011056D03*
X018437Y010997D03*
X019382Y011017D03*
X020346Y011017D03*
X019480Y006962D03*
X019480Y006489D03*
X016213Y006962D03*
X014835Y011371D03*
X024087Y006470D03*
X024736Y005879D03*
X025189Y006135D03*
X025425Y005544D03*
X025484Y005170D03*
X026035Y008615D03*
X032433Y019422D03*
X039559Y022159D03*
D15*
X022807Y010544D03*
D16*
X022728Y010623D01*
X014756Y010623D01*
X016921Y011981D02*
X011567Y011981D01*
X012276Y021096D02*
X037689Y021096D01*
X037157Y021706D02*
X012709Y021706D01*
X033496Y022159D02*
X039559Y022159D01*
X038654Y017710D02*
X037433Y017710D01*
X035858Y017710D01*
D17*
X029874Y020229D02*
X013181Y020229D01*
X014756Y010623D02*
X014047Y009914D01*
X029500Y023773D02*
X036488Y023773D01*
X038024Y023773D01*
D18*
X038024Y023773D03*
X036488Y023773D03*
X037157Y021706D03*
X037689Y021096D03*
X029874Y020229D03*
X029500Y023773D03*
X013181Y020229D03*
X012276Y021096D03*
X012709Y021706D03*
X011567Y011981D03*
X014047Y009914D03*
D19*
X023417Y010505D02*
X025307Y010505D01*
D20*
X025366Y008911D02*
X026094Y008911D01*
X026173Y008832D01*
X028772Y008832D01*
X029874Y007729D01*
X030071Y007729D01*
X035701Y010997D02*
X035780Y010918D01*
X036547Y010918D01*
X036587Y010958D01*
X037000Y011292D02*
X037177Y011096D01*
X037866Y011096D01*
X038496Y010466D01*
X037000Y011292D02*
X037000Y011351D01*
X037000Y011292D02*
X017768Y011312D01*
X017512Y011056D01*
X016783Y011371D02*
X014835Y011371D01*
X015307Y012296D02*
X015307Y013340D01*
X015307Y012296D02*
X019343Y012296D01*
X020268Y012296D01*
X020268Y012336D02*
X021646Y012336D01*
X021724Y011883D02*
X017295Y011883D01*
X016783Y011371D01*
X021724Y011883D02*
X022157Y012316D01*
X022236Y012316D01*
X023594Y014718D02*
X023319Y014993D01*
X023319Y015348D01*
X023043Y015623D01*
X022689Y015623D01*
X022374Y015938D01*
X019244Y015938D01*
X019205Y015977D01*
X016331Y015977D01*
X016193Y015840D01*
X016055Y015840D01*
X016035Y015820D01*
X016035Y015781D01*
X016016Y016627D02*
X014874Y016627D01*
X014854Y016607D01*
X014776Y016607D01*
X013575Y016607D01*
X014776Y016607D02*
X014795Y016627D01*
X016232Y018359D02*
X016213Y018399D01*
X018083Y018399D01*
X018083Y018359D01*
X018083Y018399D02*
X019343Y018399D01*
X019343Y018359D01*
X019362Y018340D01*
X019500Y018340D01*
X019638Y018202D01*
X019815Y018202D01*
X021193Y016824D01*
X023791Y016824D01*
X023969Y014777D02*
X023909Y014718D01*
X023594Y014718D01*
X020366Y017139D02*
X019205Y015977D01*
X019559Y019107D02*
X019303Y019363D01*
X019559Y019107D02*
X021724Y019107D01*
X022059Y019442D01*
X016213Y019186D02*
X014795Y019186D01*
X014776Y019166D01*
X014756Y019166D01*
X014717Y019147D01*
X013555Y019147D01*
X036370Y015092D02*
X038043Y015092D01*
D21*
X032551Y007552D02*
X031213Y007552D01*
X030248Y007552D01*
X030071Y007729D01*
M02*
