M48
;Layer_Color=9474304
;FILE_FORMAT=2:5
INCH,TZ
;TYPE=PLATED
T1F00S00C0.00400
%
T01
X306359Y22238
X305893Y43005
X306159Y47038
X305686Y53773
X308171Y55638
X307759Y58237
X305893Y58329
X306514Y62818
X307964Y63714
X305901Y65768
X308171Y70038
X307959Y73838
X308171Y79637
Y84438
X306169Y82907
X306790Y87256
X319359Y85637
X320159Y82638
X318181Y76348
X318112Y71033
X322571Y70038
X313763Y68270
X313970Y73103
X301129Y73655
X299749Y69928
X303371Y70038
X303062Y66475
X298571Y65237
X296573Y66960
X294502Y69238
X293771Y65237
Y60438
X298571
Y55638
Y50837
X294759Y51237
X295192Y53360
X301129Y53153
X300922Y48735
X301406Y43211
X298571Y41238
X295745Y42867
X293771Y41238
X288559Y41037
X288971Y36437
X284171
Y31637
X288220Y29267
X291759Y29237
X294295Y30441
X297194Y34099
X301958Y38587
X298559Y21837
X284216Y18566
X281159Y21238
X277951Y20493
X274887Y20456
X270659Y20432
X268559Y23038
X263959Y23237
X260759Y26237
X260460Y20177
X257707Y19533
X253220Y19602
X255371Y22038
X257159Y29838
X254159Y32638
X251159Y29838
X246159Y29237
X248559Y41238
X255371
X257707Y39345
X260171Y41238
Y36437
X264971Y31637
X269771
Y36437
X274571
X272618Y33823
X273159Y29037
X277520Y28921
X267579Y28991
X272342Y39759
X274571Y41238
X277451Y42797
X279371Y41238
X277244Y39000
X277313Y46387
X277244Y49218
X279371Y50837
X274571
Y46038
X276484Y54188
X281455Y56051
X280143Y60400
X286701Y67235
X290360Y66960
X288971Y55638
X292017Y49700
X303371Y60438
X302993Y83320
X288171Y85037
X284171Y84438
X269771
X271721Y81732
X269771Y79637
X266121Y78838
X266336Y75726
X265577Y72413
X259226Y72136
X255371Y74837
X252737Y76140
X250571Y74837
X251839Y72275
X250458Y66891
X249559Y62037
X250159Y59637
X255959
X256959Y62037
X263559Y59637
X266359Y62037
X264559Y51837
X269637Y51284
X256740Y51758
X260192Y47216
X262056Y44385
X257707Y44247
X243969Y43764
X239068
X239489Y47458
X233897Y47804
X232648Y43902
X228996Y47458
X226571Y46038
X224294Y44455
X223542Y47528
X221771Y46038
X219538Y47804
X221559Y52038
X235754Y51819
X242872Y51750
X246659Y47738
X238999Y66131
X245212Y74622
X243476Y81988
X251632Y81940
X250571Y79637
X255371
X260171
X261502Y81686
X258121Y81801
X260171Y84438
X264971
X255371
X238959Y86838
X236171Y79637
X231371
X226571Y84438
X221771
X213671Y82138
X211171Y82437
X212192Y80708
X211171Y78938
X212171Y74837
X207359Y77438
X211171Y85237
X218559Y72637
Y71438
X204171Y58837
Y57237
Y54037
Y52438
X200959
Y54037
Y57237
Y58837
X197759
Y57237
Y54037
Y52438
X194571
Y54037
X191371
Y52438
X191359Y49237
Y47638
X194546
Y49237
X197759
Y47638
X200959
Y49237
X197771Y44438
X197759Y42838
X196159
Y41238
Y39638
Y38037
X197771Y36437
X192971
X189359Y37238
X191359Y39638
Y41238
Y42838
Y44438
X194559
X188146
X184959
Y47638
Y49237
X188146
Y47638
Y52438
Y54037
X184959
Y52438
X181759
Y54037
Y57237
Y58837
X184959
Y57237
X188159
Y58837
X191359
Y57237
X194559
Y58837
Y62037
Y63638
X191359
Y62037
X188159
Y63638
Y66838
Y68437
X191359
Y66838
X194546
Y68437
X197771Y63638
Y62037
X200971
X207959Y54438
X212006Y37481
X216770Y37413
X223328Y37137
X229359Y29838
X226780Y24296
X222223
X215941
X201030Y24365
X202591Y26265
X202571Y22038
X203929Y19670
X199994
X195507Y19602
X191158Y19670
X192971Y22038
X192991Y26265
X192559Y29838
X196959
X197791Y26265
X197771Y22038
X195162Y24365
X190468
X188191Y26265
X188171Y22038
X184959Y22838
X185360Y19808
X184959Y39638
X186559Y41238
X181759
Y42838
Y44438
Y47638
Y49237
X178559
Y47638
Y44438
Y42838
X169551Y42522
X170159Y44638
X167559Y49637
X168659Y55838
X169159Y61238
X168659Y65237
Y69937
Y74638
Y79637
Y84338
X173759Y84438
X175359Y82837
Y81238
X173771Y79637
X175359Y78038
Y76437
Y74837
Y73238
Y71637
Y70038
Y68437
Y66838
Y65237
Y63638
Y62037
Y58837
X178559
Y57237
Y54037
Y52438
X173771Y50837
X178559Y62037
X181759
Y63638
X184959
Y62037
Y66838
Y68437
Y71637
Y73238
X188159
Y71637
X181759
Y73238
Y76437
Y78038
X184959
Y76437
X178559
Y78038
Y81238
Y82837
X176959Y84438
X181759Y81238
X178559Y73238
Y71637
Y68437
X181759
Y66838
X178571Y65237
X203359Y29838
X232302Y18843
X267359Y13637
X271911Y74335
X274571Y89237
X275725Y91536
X274571Y94037
Y98838
Y103638
X269771
X269759Y100238
X264971Y98838
X260171
Y94037
X255371
Y98838
Y103638
X260171
Y108438
X260744Y111347
X259514Y112118
X258509Y113223
X257589Y114408
X256834Y115807
X256509Y117367
X256159Y118837
X256399Y120308
X257029Y121588
X257679Y122857
X258409Y124048
X259444Y125042
X260674Y125807
X261944Y126412
X263364Y126647
X264749Y126632
X266084Y126573
X267519Y126503
X268914Y126478
X270299
X271694Y126447
X273069
X274469Y126462
X275854Y126453
X277264Y126468
X278609Y126453
X279944Y126447
X281319Y126437
X282704Y126423
X284059Y126437
X285399Y126423
X286869Y126377
X288364Y126398
X289659Y126453
X291249
X292639Y125988
X293974Y125198
X295549Y123462
X297159Y123837
X296439Y122257
X297144Y120798
X297349Y119407
X296949Y116753
X296799Y115507
X295559Y116838
X294769Y113048
X293724Y112153
X292469Y111713
X289289Y111137
X288034
X288971Y108438
Y103638
X293771
Y108438
X297085Y110044
X297016Y105902
X297292Y102035
X300159Y100838
X304167Y103893
X304926Y109140
X304374Y114248
Y119149
X282988Y124747
X283859Y110987
X284171Y108438
Y103638
Y98838
X279371
Y108438
X279899Y110987
X275964Y110637
X274449Y110602
X274571Y108438
X269771
X269049Y110658
X270714Y110678
X265704
X264169Y110658
X264971Y108438
Y103638
Y94037
X269771
X262959Y88138
X249859Y91037
X249759Y95237
X244263Y99567
X240971Y103638
X238159Y104237
X240971Y108438
X241471Y112893
Y115538
X239759Y115038
X240971Y118037
X238859Y119537
X235159Y118638
X233821Y120737
X231371Y122837
X228851Y121221
X226571Y122837
Y118037
X229959Y117838
X228782Y115767
X224294Y115629
X224502Y119702
X221771Y118037
Y113238
X226571
Y108438
Y103638
X221771
Y98838
Y94037
X226571
X231371
Y89237
X240971
X236171Y94037
X231371Y103638
X233614Y115490
X233131Y126052
X239275Y126881
X240971Y122837
X243693Y119908
X244916Y116523
X247659Y117838
X249409Y114437
X248071Y111637
X247853Y109929
X244074Y110334
X248234Y104756
X250873Y107185
X250359Y121637
X248862Y123038
X246959Y125338
X245771Y127638
X203959Y124838
X196471Y118037
X192971
Y113238
X196471
X188171
Y122837
X190567Y120581
X183371Y122837
X172771Y127638
X178571Y103638
X183371Y102838
X192971Y99738
X189671Y95438
X189159Y92637
X205171Y88238
X211171Y88386
X168659Y89138
Y93937
Y98738
X288971Y98838
X294459Y98239
X295559Y96038
X293771Y94037
X293959Y91637
X287959Y89038
X281731Y88705
X284630Y93124
X315696Y90293
X313901Y88083
X313072Y112177
X309759Y113833
X310173Y119079
X312382Y118389
M30
