M48
;Layer_Color=9474304
;FILE_FORMAT=2:5
INCH,TZ
;TYPE=PLATED
T1F00S00C0.00400
%
T01
X307359Y17038
X309759
Y20237
X307359
Y23438
X309759
Y26638
X307359
Y29838
X309759
Y33037
X307359
X308053Y35215
X308159Y38037
X308460Y44010
X308271Y46938
X308164Y48649
X308271Y51337
Y55738
Y60137
X308701Y62319
X307359Y63038
X308317Y64240
X308352Y66755
X310482
X315439Y66824
X317883Y66755
X320258
X323482Y67080
X322891Y68975
X322920Y71974
X322911Y73527
X322836Y77071
X322759Y79937
X319171Y80137
X319996Y84894
X316961Y84929
X314623Y84859
X307543Y84121
X306399Y85673
X309159Y71838
Y70638
X312571Y71737
X312659Y74338
X316859Y74037
X322759Y84338
X322997Y86987
X304614Y85673
X304600Y84123
X302571Y84451
X300388Y85066
X296978
X297671Y80338
X294310Y80660
X292863Y80685
X292921Y77956
X294254
X293171Y75337
Y72938
X290171
Y75337
X287171
Y72938
X284171
Y75337
X277359Y74638
X275359
Y73438
Y72237
X277359
Y69837
X275359
X273959Y70638
Y68837
X275359Y67437
X277359
X277471Y63837
X281671Y67338
X284659
X285859
X287771
X288971
X290771
X291971
X293871
X295071
X296871
X298071
X299971
X301171
X302871
X304071
Y64038
X301071
X298071
X295071
X292071
X289059Y63937
X287771Y59538
X290771
X293771
X296771
X297371Y54838
X293959
X296671Y51437
Y49038
Y46637
X296659Y44238
Y41837
Y39437
Y37038
Y34637
X292671
Y37038
Y39437
Y41837
Y44238
Y46637
Y49038
X300171Y45138
X304071Y45037
Y30738
X302371Y22138
X298271Y20437
X297759Y16438
Y14038
X294559
Y16438
X291359
Y14038
X288159
Y16438
X284959
Y14038
X281759
Y16438
X278559
Y14038
X275359
Y16438
X272159
Y14038
X268959
Y16438
X265759
Y14038
X262559
Y16438
X259359
Y14038
X256159
Y16438
X252959
Y14038
X249759
Y16438
X246559
Y14038
X243359
Y16438
X240159
X238559
Y15237
Y14038
X236959
X235359
Y15237
Y16438
X233759
X232159
Y15237
Y14038
X233759
X230559
X228959
Y15237
Y16438
X227359
X225759
Y15237
Y14038
X224159
X222559
Y15237
Y16438
X220959
X219359
Y15237
Y14038
X220959
X217759
X216159
Y15237
Y16438
X214559
X212959
Y15237
Y14038
X214559
X211359
X209759
Y15237
Y16438
X211359
X208159
Y17638
X207159Y18638
X206359Y19838
X208159
Y21637
X207759Y22838
X208159Y24637
X206359
Y26838
X208159
Y28837
Y30038
X206359
Y28837
X208159Y32237
Y34438
Y36437
X206359
Y38238
X206159Y39437
Y40637
X207512Y40560
X207952Y42241
X208159Y38238
X206159Y34238
X202754Y37067
X203371Y41848
X203359Y43038
X202159
X200959
Y41837
X199759
X198559
Y43038
X197359
X195959Y43238
X194759
X193159
Y42037
X191829Y41963
X191759Y43238
X190559
X189359
Y41238
X188159
X187759Y44038
X185759
Y46237
X187759
Y48438
Y50638
X185559
X183359
Y52838
Y55037
X185559Y56837
Y59237
Y61437
X187759
X188759Y63638
X186559
X185559Y66438
X187759
Y69037
X185559
Y71237
X188559
X187559Y73238
X189359Y75037
X182959Y76038
X181559Y74437
X180159Y72838
X178559Y71637
Y70438
X176559Y69437
Y68238
X177671Y66637
X180559Y66438
X179359Y62837
Y60637
X172671Y66637
X172959Y68037
Y69238
X172871Y72137
X172759Y74238
Y75437
X174159Y76638
X173559Y79238
Y81437
X174671Y81238
X175759Y81437
Y79238
X177959Y81437
Y85838
X179559
X184471Y87138
X183159Y82237
X184371Y80838
X183159Y79438
X187571Y80838
X198554Y85567
X205971Y86638
X210171Y86886
X208985Y84248
X208003Y82418
X210171Y80937
Y77438
X203371Y77538
X203359Y75238
Y73037
X202359Y71637
X203159Y70638
X202359Y68037
Y65838
Y63238
X202759Y62037
X203971Y62738
X204959Y63837
Y65038
X203971Y67137
X205559Y69238
X206759Y70638
X207959
X209159
X210359
X211559
X216071Y65237
Y62837
X211871Y58637
X208071
X203971Y58337
X202759Y57038
X202959Y55838
Y54637
Y53438
Y51638
Y50238
X203559Y48838
X201359
X198759
X199359Y51837
X201759Y54238
X204959Y54637
Y53438
Y51837
Y50037
Y55838
X202759Y60037
X201371Y74238
X199771Y75238
X203279Y80843
X220871Y83637
X220971Y85938
X224254Y83566
X230359Y83837
X229871Y86838
X233032Y87043
X234654Y85366
X236181Y83837
X239559Y84038
Y87037
X243074Y83893
Y80588
X243559Y77038
Y75238
X240759
X240671Y77038
X239371Y77138
X236959Y75238
X233159
X232971Y77138
X232959Y81037
X227671Y80537
X227559Y75238
X223159Y76837
Y70837
X221959
X224359
X225559
X230359Y70638
X231559
X232759
X233959
X235159
X236359
X237559
X241662Y70002
X242759Y70638
X244559
X246876Y69981
X247959Y70638
X249359
X251689Y69981
X255759Y70638
X255959Y68837
X257759
X258959
X260159
X261359
Y70638
X258959
X257759
X262471Y66137
X270759Y68437
X267671Y77538
X265121Y77338
X261371Y77538
X257971Y80738
X251929Y77594
Y83893
X247371Y82237
X247559Y75238
X246671Y65438
X243471
X240271
X237071
X233871
X230671
X226871Y64337
X230071Y56638
X232071
X233971
X235971
X237971
X239871
X241871
X245871
X245771Y50837
X243371
Y48438
X240971
Y46038
Y43637
X238571
X236171
Y41238
Y38838
X233771
X231371
Y36437
Y34038
X233771
X236171
X238571
X240971
X243371
X245771
Y36437
Y38838
X243371
X240971
Y36437
X236171
X238571Y38838
X236171Y46038
Y48438
Y50837
X233771
X231371
X228971
Y48438
X231371
Y46038
Y43637
X228971
X233771
Y48438
X238571
X238959Y51237
X240971Y50837
X245771Y48438
Y43637
X243371
X244559Y44837
X249971Y46237
X250559Y52237
X249871Y65438
X260971Y48438
X265771Y38037
X280071Y38838
X279671Y41638
X280071Y44537
Y48838
X279771Y54537
X275755Y53508
X282971Y41438
X280071Y34538
Y30738
Y26438
X290371Y25738
Y21238
X294371Y26638
X300959Y16438
Y14038
X304159
Y16438
X270171Y22038
X264571Y20137
X257171Y23038
X253649Y24073
X252397Y25317
X251671Y32438
X250471
X246971Y30838
X241771
X243071Y20638
X236059Y19637
X234871Y20838
X236959Y16438
X240159Y14038
X230559Y16438
X227359Y14038
X224159Y16438
X223471Y20738
X220271
X217171
X217759Y16438
X206559
Y15237
Y14038
X204959
X203359
Y15237
Y16438
X201759
X200159
Y15237
Y14038
X198559
X196959
Y15237
Y16438
X198559
X195359
X193759
Y15237
Y14038
X192159
X190559
Y15237
Y16438
X192159
X188959
X187359
Y15237
Y14038
X188959
X185759
X184159
Y15237
Y16438
X182759
X181559
X180359
Y14838
X182759
Y18037
Y19637
X181559
X180359
Y18037
Y21238
Y23638
Y24837
Y26037
Y27237
Y28438
Y29838
Y31438
Y32838
Y34238
Y35838
Y37637
Y39237
Y40837
X182759
Y39237
Y37637
Y36037
Y34238
Y32838
Y31438
Y29838
Y28438
Y27237
Y26037
Y24837
Y23638
Y22437
Y21238
X185759Y16438
X195359Y14038
X201759
X204959Y16438
X208159Y14038
X206359Y21837
X204559Y41238
X199759Y43038
X196469Y42143
X191371Y47837
X192471Y49837
X188359Y54037
Y56238
X183359Y46237
Y44038
X180959
Y46237
X178359Y44038
Y41837
X176599Y42143
X175759Y44038
X173359
X173536Y42090
X170099Y41499
X170959Y44038
X167559Y45638
Y47238
X168959Y48638
X169359Y52038
X172871Y50937
X176271Y51038
X182353Y42162
X184364Y42311
X186271Y36737
X189871Y32638
X222071Y32438
X223271
X228971Y34038
X227471Y21238
X223271Y44238
X222071
Y46237
X223271
Y48138
X222071
X223359Y50037
Y52237
X218971Y56837
X215159Y53038
X215671Y48638
Y45338
Y42138
X171159Y79238
Y81437
Y83637
Y86037
X262953Y85468
X264528Y87043
Y83893
X267671Y83837
X270827Y83893
X270759Y87238
X267559
X275359Y86738
Y85537
X277359
Y86738
X279671Y85938
X280859Y84737
X276677Y79893
X277359Y77237
X275359
X296171Y75337
X299171
Y72938
X298303Y89903
X295555Y89395
X292759Y88837
X289559
X285971Y89038
X283073Y89521
X280436Y89498
X280759Y92238
X282159
Y94138
X283559
X280759
X279359
Y92238
X277359Y92738
Y91537
Y90338
Y89138
Y87937
X275359
Y89138
Y90338
Y91537
Y92738
Y93937
X277359
X276159Y101237
Y103437
X277759Y102838
X280559Y100038
X282359Y107837
X283759Y106638
X286959
X291759Y107638
X290759Y109637
X292959
X293071Y103638
X289880Y103593
X292959Y100238
X292159Y94037
X290170Y94063
X291424Y92418
X287969Y92501
X286214Y93950
X294015Y93727
X295464Y92836
X296959Y94037
X300145Y93783
X299982Y95737
X301959Y95837
X303759
X303559Y97637
X301959
X300159Y97838
X298759Y97038
X299329Y103593
X301359Y103638
X302159Y101038
X304159Y105037
X302479Y106742
X299329
X300359Y108637
X303871Y111238
X302479Y116191
X300971Y117638
X304071Y117737
X298959Y118837
X297559Y117838
X296180Y119341
X294559Y121037
X292159Y121637
X289759Y119237
X289959Y116437
X291559Y114437
X295759Y113637
X297359Y113437
X299359Y114437
X295959Y116037
X286759Y115838
X284559Y115237
X280159Y118438
X282032Y121554
X287959Y121037
X284559Y125838
X282957Y129237
X279798Y128770
X278223Y129179
X273547Y129218
X270919Y129140
X268793Y129179
X263921Y129159
X260816Y128618
X258737Y129551
X255759Y128638
X254159
X251030Y128874
X247959Y128638
X246108Y128803
X243959Y128638
X242273Y128675
X243171Y124437
X247971Y124738
X251371
X255159Y118638
X253571Y116937
X251929Y115389
X253504Y113637
X251971Y109037
X253559Y107438
X251871Y105938
X249373Y105685
X246223
X244707Y103714
X241959Y102638
X239159Y102437
X235959Y102838
X232959Y102437
X230559Y105037
X227471Y106237
X227359Y101237
X221959Y103038
X217559
X218671Y99638
Y97838
X216471Y96337
X213771Y96137
X215771Y98937
X216471Y92338
X217054Y90166
X224959Y91838
X227271Y91537
X229759Y96137
X232959Y96838
X239454Y96767
X240959Y98238
X245971Y98637
X244055Y94917
X242171Y93338
X242359Y90438
X240959Y88437
X244005Y88668
X236159Y87437
X248759Y93837
X250559Y95638
X253759Y99638
X253559Y103638
X254759Y105438
X257159Y104838
X258559Y101637
Y99837
X260359
X259759Y98058
X258159Y96637
X256159Y97838
X258559Y93238
X262359Y92838
X265559Y93437
Y90237
X269359Y88638
X271759Y90237
X270271Y99638
X270871Y102737
X270571Y105938
X270759Y108837
X266159Y110637
X262359Y111238
X262759Y113637
X259871Y113838
X258559Y111238
X256871Y110637
X248659Y111940
Y109090
X247205Y113815
X244759Y112461
Y115361
X245671Y118537
X241359Y120381
X239359Y121637
X241359Y116238
X241359Y113438
X240905Y110665
X236359Y109037
X236159Y106438
X237903Y107238
X235759Y112437
X237159Y116237
X234559Y117037
X230271Y118737
Y115338
X229571Y112538
X224071Y114437
X219759Y115038
X224354Y108967
X211271Y110738
X205959Y110438
X206359Y114437
X204671Y117037
X202159Y119237
X203311Y122019
X200303Y122088
X200189Y124911
X197359Y125038
X197296Y122064
X194959Y122037
X195359Y119237
X195159Y114637
X198871Y116037
X196004Y109439
X195905Y107740
X192871Y110137
X193830Y102890
Y99741
X195471Y98338
X196971Y96737
X200129Y96591
X202559Y97038
X203279Y99741
X203271Y102937
X201671
X196979Y102890
X197573Y99485
X198271Y94638
X200971Y93138
X203279Y93441
X205159Y92238
X201671Y88638
X196979Y90292
X190680
X191571Y96637
X193471Y96938
X191596Y100655
X187271Y99537
X186671Y96637
X183102Y99385
X181171Y102838
X181271Y106037
X183171Y110137
X183649Y117353
X185759Y120638
X180759
X175671Y119837
X174471
X175759Y117438
X172159Y122637
X169071Y124137
X167660Y122855
X167882Y125923
X169071Y128537
X167734Y129581
X169988Y130136
X173171Y129537
X174423Y128694
X177571Y129537
X181407Y129341
X181359Y126437
X184686Y129434
X186433Y130043
X189440Y129434
X191459Y128898
X194193Y129413
X195930Y130117
X196897Y128888
X199026Y129491
X201104Y128823
X203878Y129532
X206359Y128638
Y130438
X208749Y129532
X210565Y129988
X213327Y129589
X218043
X219693Y129988
X219759Y128638
X222559
Y130438
X224759
Y128638
X230159
Y130438
X232359
Y128638
X234359
Y130438
X236759
Y128638
X233759Y124238
X230771Y124437
X207626Y125073
X207741Y121974
X207759Y119237
X203219Y125004
X191071Y118338
X169071Y119738
X167771Y115519
X167512Y113043
X167956Y111269
X169359Y111238
X169064Y109607
X171959Y109637
Y108438
X173159
Y109637
Y106037
X171959
Y104838
X173159
Y101637
X171959
Y100437
X173159
X175759
Y101637
X167559Y101437
X167734Y99962
X167559Y98238
Y95638
Y94437
X167959Y93238
X173071Y95737
X178871Y94138
X177871Y89737
X177959Y87837
X179559
X167959Y103437
X167159Y104838
X167359Y106438
X168925Y113927
X171959Y127038
X206359Y105638
X209559Y96838
X248159Y103237
X262559Y102437
X262359Y105838
X264759Y99837
X262159Y96637
X262759Y116838
X265559Y117638
X267959Y115237
X268959Y121637
X258759Y121037
X257359Y120037
X275071Y126437
X287731Y129179
X289751Y129104
X292544Y129199
X294298Y129235
X297239Y129199
X299222Y129030
X302111Y129159
X304819Y129208
X305029Y126265
X303359Y93037
X301571Y89638
X307543Y88763
X314693Y88103
X317414Y88383
X317554Y91140
X317519Y93233
X315206Y93497
X314762Y91243
X320807Y90447
X320751Y87699
X322893Y89499
X322759Y93138
X320696Y93279
X323067Y95535
X322820Y97695
X322891Y100988
X321909Y102963
X320523Y104737
Y109038
X323759Y108037
X323007Y106648
X322862Y111614
X322787Y113578
X320074Y113259
X320767Y116663
X322920Y116724
X320563Y119334
X322862Y121977
X322841Y123913
X322891Y126829
X322859Y129757
X320911Y129776
X318939Y129796
X320033Y125776
X311797Y121453
X309066Y122473
X307639Y125490
X305359Y119237
X308759Y116437
X308871Y113038
X310159Y111637
X310359Y114237
X311634Y115623
X311928Y113041
X311759Y107638
X311553Y103637
X308771Y101437
X307471Y99937
X305359Y97637
X308771Y106037
X307159Y109837
X305628Y113041
X307071Y114538
X319218Y97642
M30
