<?xml version="1.0" encoding="UTF-8" standalone="no"?>
<!-- Created with Inkscape (http://www.inkscape.org/) -->

<svg
   xmlns:dc="http://purl.org/dc/elements/1.1/"
   xmlns:cc="http://creativecommons.org/ns#"
   xmlns:rdf="http://www.w3.org/1999/02/22-rdf-syntax-ns#"
   xmlns:svg="http://www.w3.org/2000/svg"
   xmlns="http://www.w3.org/2000/svg"
   xmlns:sodipodi="http://sodipodi.sourceforge.net/DTD/sodipodi-0.dtd"
   xmlns:inkscape="http://www.inkscape.org/namespaces/inkscape"
   width="744.09448819"
   height="1052.3622047"
   id="svg2"
   version="1.1"
   inkscape:version="0.48.3.1 r9886"
   sodipodi:docname="manga-screen.svg">
  <defs
     id="defs4" />
  <sodipodi:namedview
     id="base"
     pagecolor="#ffffff"
     bordercolor="#666666"
     borderopacity="1.0"
     inkscape:pageopacity="0.0"
     inkscape:pageshadow="2"
     inkscape:zoom="0.70710678"
     inkscape:cx="239.08632"
     inkscape:cy="566.02694"
     inkscape:document-units="px"
     inkscape:current-layer="layer1"
     showgrid="false"
     showguides="true"
     inkscape:window-width="1215"
     inkscape:window-height="1000"
     inkscape:window-x="65"
     inkscape:window-y="24"
     inkscape:window-maximized="1"
     inkscape:guide-bbox="true" />
  <metadata
     id="metadata7">
    <rdf:RDF>
      <cc:Work
         rdf:about="">
        <dc:format>image/svg+xml</dc:format>
        <dc:type
           rdf:resource="http://purl.org/dc/dcmitype/StillImage" />
        <dc:title />
      </cc:Work>
    </rdf:RDF>
  </metadata>
  <g
     inkscape:label="face"
     inkscape:groupmode="layer"
     id="layer1">
    <path
       style="fill:none;stroke:#000000;stroke-width:1px;stroke-linecap:butt;stroke-linejoin:miter;stroke-opacity:1"
       d="m 0.0109357,462.29344 10.5687013,0.84414 50.546836,-26.91896"
       id="path2991"
       inkscape:connector-curvature="0"
       sodipodi:nodetypes="ccc" />
    <path
       d="m 94.655909,188.34045 c 0.0979,-0.0979 11.763991,-1.23197 19.370281,-1.237 5.67203,-0.004 16.46581,-0.66734 16.46581,-0.66734 -1.76624,6.11116 -10.83263,15.30208 -16.97532,15.42597 -7.96512,0.16065 -15.15818,-3.86777 -18.860771,-13.52163 z"
       id="path3003"
       inkscape:connector-curvature="0"
       sodipodi:nodetypes="cscsc" />
    <path
       d="m 16.506363,164.42966 c 4.670628,12.28496 89.230467,-27.21069 130.560447,-45.14798 10.78007,-5.63945 36.4253,-19.796174 36.64926,-19.688724 0.54808,0.26298 37.68972,34.090234 37.56049,34.140454 -0.0679,0.0264 -9.11971,-4.1646 -20.11521,-9.31327 -10.9955,-5.14867 -20.12787,-9.32229 -20.29416,-9.27472 -0.16629,0.0476 -53.67141,25.64009 -93.119067,41.54035 -39.447667,15.90027 -72.754357,37.90957 -72.792647,37.90957 0.525167,-10.23515 1.865311,-23.84695 1.550887,-30.16568 z"
       id="path3005"
       inkscape:connector-curvature="0"
       sodipodi:nodetypes="ccccscscc" />
    <path
       style="fill:none;stroke:#000000;stroke-width:1px;stroke-linecap:butt;stroke-linejoin:miter;stroke-opacity:1"
       d="M 59.809993,436.10565 46.993563,408.33672"
       id="path3015"
       inkscape:connector-curvature="0" />
    <path
       style="fill:none;stroke:#000000;stroke-width:1px;stroke-linecap:butt;stroke-linejoin:miter;stroke-opacity:1"
       d="m 173.32189,453.66532 7.17454,-85.90573 53.05387,-47.95617 1.13283,-104.5973 -0.18881,0.56641 -3.02086,103.27568 -53.24267,47.57856 z"
       id="path3021"
       inkscape:connector-curvature="0" />
    <path
       d=""
       id="path3023"
       inkscape:connector-curvature="0" />
    <path
       d="m 176.83658,402.76682 c -0.007,-0.51921 0.43292,-8.78378 0.97812,-18.36571 l 0.99128,-17.4217 0.55824,-0.53616 c 0.30703,-0.29489 12.15551,-10.88298 26.32995,-23.52909 14.17445,-12.64611 25.91062,-23.12921 26.0804,-23.29578 0.27481,-0.26962 0.3778,-2.73008 0.93883,-22.42954 0.34658,-12.16968 0.65374,-22.10311 0.68258,-22.07427 0.0906,0.0906 -0.33651,41.28927 -0.44503,42.92849 l -0.10325,1.55958 -26.30525,23.77983 c -14.46788,13.07891 -26.37606,23.88941 -26.46262,24.02334 -0.0866,0.13393 -0.84874,8.35735 -1.69374,18.27427 -0.845,9.91692 -1.54228,17.60595 -1.54951,17.08674 z"
       id="path3025"
       inkscape:connector-curvature="0" />
    <path
       style="fill:#000080;fill-opacity:0;stroke:#000000;stroke-width:1.81192231;stroke-miterlimit:4;stroke-opacity:1;stroke-dasharray:none"
       d=""
       id="path3010"
       inkscape:connector-curvature="0" />
    <path
       style="fill:#000000;fill-opacity:0;stroke:none"
       d="m 37.082377,514.9096 -36.58021927,-6.59005 -0.0754971,-2.99016 c -0.0524467,-2.07722 0.0159794,-2.99016 0.22411668,-2.99016 0.38948539,0 74.31181669,18.98243 74.45811869,19.12001 0.343411,0.32295 -4.696852,-0.54518 -38.026519,-6.54964 z"
       id="path3024"
       inkscape:connector-curvature="0" />
    <path
       style="fill:#000000;fill-opacity:0;stroke:none"
       d=""
       id="path3794"
       inkscape:connector-curvature="0" />
    <path
       style="fill:#000000;fill-opacity:0;stroke:none"
       d="m 37.082377,514.9096 -36.58021927,-6.59005 -0.0754971,-2.99016 c -0.0524467,-2.07722 0.0159794,-2.99016 0.22411664,-2.99016 0.38948543,0 74.31181673,18.98243 74.45811873,19.12001 0.343411,0.32295 -4.696852,-0.54518 -38.026519,-6.54964 z"
       id="path3796"
       inkscape:connector-curvature="0" />
    <path
       style="fill:#000000;fill-opacity:0;stroke:none"
       d="m 37.082377,514.9096 -36.58021927,-6.59005 -0.0754971,-2.99016 c -0.0524467,-2.07722 0.0159794,-2.99016 0.22411664,-2.99016 0.38948543,0 74.31181673,18.98243 74.45811873,19.12001 0.343411,0.32295 -4.696852,-0.54518 -38.026519,-6.54964 z"
       id="path3798"
       inkscape:connector-curvature="0" />
    <path
       style="fill:#000000;fill-opacity:0;stroke:none"
       d="m -30.784843,481.96196 0,-130.83436 80.236174,0 80.236179,0 0,67.87367 c 0,40.14418 -0.098,67.77003 -0.2399,67.62 -0.31375,-0.33176 -7.24477,-9.91236 -14.57437,-20.14582 -8.83357,-12.33329 -14.69176,-20.02126 -15.258296,-20.02414 -0.165585,-8e-4 -0.428853,0.15244 -0.585037,0.34064 -0.214008,0.25786 0.452222,1.27058 2.704153,4.11051 3.36356,4.24183 4.04973,5.17757 16.60803,22.64872 4.9613,6.90218 9.54364,13.23118 10.18298,14.06444 l 1.16244,1.51502 0,13.37852 0,13.37852 -5.87813,9.10495 c -5.36052,8.3032 -5.8369,9.1351 -5.40988,9.44735 0.25754,0.18832 0.54426,0.29542 0.63715,0.23801 0.0929,-0.0574 2.49729,-3.71177 5.34312,-8.12081 l 5.17423,-8.01643 0.0675,45.42016 0.0675,45.42015 -1.3588,1.70763 -1.35881,1.70764 -78.878133,0 -78.87814,0 0,-130.83437 z m 128.097519,24.12705 c 18.831264,-3.59601 19.291394,-3.69841 19.291394,-4.29314 0,-0.3351 -0.15019,-0.6066 -0.33376,-0.60334 -0.18357,0.003 -9.10344,1.31357 -19.821939,2.91182 l -19.488176,2.90591 -36.717197,-9.43215 C 20.048538,492.39042 2.5917549,487.90756 1.4501424,487.61619 l -2.07566048,-0.52976 0.0730937,4.43015 0.073091,4.43015 38.84979538,6.99214 c 21.367387,3.84568 39.030025,6.95657 39.250308,6.91308 0.220282,-0.0435 9.08164,-1.73681 19.691906,-3.76294 l 0,0 z M 36.283018,450.19724 c 22.522436,-11.99365 25.252783,-13.51528 25.022688,-13.94522 -0.142051,-0.26543 -0.408379,-0.48259 -0.591838,-0.48259 -0.183459,0 -3.212964,-6.24663 -6.732232,-13.88139 -5.752749,-12.48011 -6.452609,-13.86486 -6.933035,-13.71778 -0.293902,0.09 -0.573562,0.19787 -0.621464,0.23976 -0.0479,0.0419 2.80989,6.35496 6.350655,14.02901 3.540762,7.67406 6.343496,14.03447 6.2283,14.13424 -0.115198,0.0998 -11.106267,5.97501 -24.424599,13.05607 l -24.215149,12.87465 -4.9811073,-0.41735 c -2.7396074,-0.22954 -5.08977166,-0.41735 -5.22258189,-0.41735 -0.13281023,0 -0.24147484,0.28447 -0.24147484,0.63216 0,0.62582 0.04349308,0.63536 4.33889463,0.95184 2.386392,0.17583 4.5191256,0.36282 4.739408,0.41553 0.2202823,0.0527 0.7609753,0.0722 1.2015404,0.0434 0.471164,-0.0308 11.211725,-5.5963 26.081995,-13.51502 z"
       id="path3800"
       inkscape:connector-curvature="0" />
    <path
       style="fill:#666666;fill-opacity:0;stroke:none"
       d="m 37.082377,514.9096 -36.58021927,-6.59005 -0.0754971,-2.99016 c -0.0524467,-2.07722 0.0159794,-2.99016 0.22411664,-2.99016 0.38948543,0 74.31181673,18.98243 74.45811873,19.12001 0.343411,0.32295 -4.696852,-0.54518 -38.026519,-6.54964 z"
       id="path3802"
       inkscape:connector-curvature="0" />
    <path
       style="fill:#000000;fill-opacity:0;stroke:none"
       d="m 37.082377,514.9096 -36.58021927,-6.59005 -0.0754971,-2.99016 c -0.0524467,-2.07722 0.0159794,-2.99016 0.22411664,-2.99016 0.38948543,0 74.31181673,18.98243 74.45811873,19.12001 0.343411,0.32295 -4.696852,-0.54518 -38.026519,-6.54964 z"
       id="path3804"
       inkscape:connector-curvature="0" />
    <path
       style="fill:#000000;fill-opacity:1;stroke:#000000;stroke-opacity:1"
       d="M 36.760898,516.36075 C 20.900569,513.4775 6.301858,510.84181 4.3193169,510.50367 l -3.60462009,-0.6148 -0.6675223,-6.76048 c -0.156124,-1.58118 75.49009049,18.33892 75.56351849,18.33961 0.287618,0.003 39.816887,-4.63736 40.318337,-4.43728 2.16979,0.86574 -14.57468,2.92982 -40.051328,7.3403 z"
       id="path3806"
       inkscape:connector-curvature="0"
       sodipodi:nodetypes="cscscscc" />
    <path
       style="fill:#000000;fill-opacity:1;stroke:#000000;stroke-width:0.90596116;stroke-miterlimit:4;stroke-opacity:1;stroke-dasharray:none"
       d="m 0.47132583,469.81405 c -0.0446845,-3.27036 -0.0516567,-5.99572 -0.0154938,-6.05636 0.17640845,-0.2958 4.54889327,-0.42603 7.27699397,-0.21674 l 3.070602,0.23558 13.350445,-7.12505 c 13.964857,-7.45296 36.08197,-19.70213 36.441642,-19.56497 0.157533,0.0601 -60.47682733,42.33639 -60.2179008,44.60943 0.50588056,4.441 0.16049414,-6.99423 0.0937116,-11.88189 z"
       id="path3810"
       inkscape:connector-curvature="0"
       sodipodi:nodetypes="scscscss" />
    <path
       style="fill:#000000;fill-opacity:1;stroke:#000000;stroke-width:0.45298058;stroke-miterlimit:4;stroke-opacity:1;stroke-dasharray:none"
       d="m -0.21890504,539.08985 c 0.032909,-0.0285 18.33804104,-0.99869 38.81684004,-2.20355 l 41.392921,-2.43534 10.646476,-6.70985 c 7.141728,-4.50101 14.822868,-4.04389 14.850608,-4.01615 0.0277,0.0277 -6.001525,2.3368 -13.398369,5.13124 l -12.063376,10.39859 -32.260255,2.6555 c -11.522822,-3.08925 -39.4979384,3.52779 -47.88886295,3.25154 0.38475796,-3.59301 -0.0157058,-3.37269 -0.0959821,-6.07198 z"
       id="path3818"
       inkscape:connector-curvature="0"
       sodipodi:nodetypes="cscssscccc" />
    <path
       style="fill:#000000;fill-opacity:1;stroke:#000000;stroke-width:0.64061129;stroke-miterlimit:4;stroke-opacity:1;stroke-dasharray:none"
       d="m 20.964657,200.65639 c -2.872482,-1.72984 -5.196559,-3.1717 -5.164617,-3.20413 0.03194,-0.0324 3.087222,0.74863 6.789509,1.73568 l 6.731433,1.79462 2.68127,-1.99507 c 5.640257,-4.1968 13.694798,-9.29507 21.939257,-13.88687 3.238333,-1.8036 8.649448,-4.67392 20.360353,-10.80009 3.513879,-1.83817 7.677003,-4.04915 9.251387,-4.91329 3.073216,-1.68681 3.514992,-1.83062 9.581166,-3.11891 19.457785,-4.1323 39.304745,-5.01029 67.103635,-2.96852 l 3.20967,0.23575 5.99094,3.86596 c 3.29503,2.12628 22.74956,10.2957 22.67262,10.322 -0.0769,0.0263 -19.38203,-7.16946 -22.3405,-8.15832 l -5.37905,-1.79794 -4.90889,-0.7348 c -2.6999,-0.40414 -5.63108,-0.82673 -6.51374,-0.93909 -23.02346,-2.93083 -42.57534,-1.88694 -61.68723,3.29353 -6.568835,1.78055 -7.700805,2.20926 -11.912412,4.51153 -2.147373,1.17386 -8.407286,4.53508 -13.910917,7.46937 -18.01321,9.60386 -25.455055,13.84309 -34.858291,19.8569 -2.245799,1.43629 -4.157437,2.60366 -4.248085,2.59415 -0.09065,-0.01 -2.515027,-1.43262 -5.387508,-3.16246 z"
       id="path3824"
       inkscape:connector-curvature="0"
       sodipodi:nodetypes="ccscsssssscscscssssssccc" />
    <path
       style="fill:#000000;fill-opacity:1;stroke:#000000;stroke-width:0.5993495;stroke-miterlimit:4;stroke-opacity:1;stroke-dasharray:none"
       d="m 165.6081,672.50973 c 4.82165,-36.54338 35.93243,-143.87267 37.42145,-149.30838 -0.0304,-0.32308 -32.55741,129.69185 -35.83297,148.17243 6.77265,16.60948 18.05511,39.24376 16.32279,38.72294 z"
       id="path3828"
       inkscape:connector-curvature="0"
       sodipodi:nodetypes="ccccc" />
    <path
       style="fill:#000000;fill-opacity:1;stroke:#000000;stroke-width:0.22649029;stroke-miterlimit:4;stroke-opacity:1;stroke-dasharray:none"
       d="m 123.4003,537.10714 c 0.0191,-0.0551 2.30831,-4.28913 5.0871,-9.40902 3.68392,-6.78756 5.03769,-9.33879 4.99818,-9.41926 -0.0298,-0.0607 -4.79591,-6.9202 -10.59137,-15.24333 -5.79545,-8.32314 -10.52418,-15.14598 -10.50828,-15.16188 0.0159,-0.0159 5.21666,6.80785 11.55725,15.16388 l 11.52835,15.19278 -5.98663,9.42173 c -3.29264,5.18195 -6.01649,9.45176 -6.05299,9.48847 -0.0441,0.0444 -0.0547,0.0332 -0.0316,-0.0334 z"
       id="path3838"
       inkscape:connector-curvature="0" />
    <path
       style="fill:#000000;fill-opacity:1;stroke:#000000;stroke-width:1.81192231;stroke-miterlimit:4;stroke-opacity:1;stroke-dasharray:none"
       d="M 489.4194,732.95923 402.92219,720.5771 343.81981,662.11249 C 311.3135,629.95695 204.94162,524.99949 206.92599,526.03088 c 0.16571,0.0861 170.39615,165.37898 194.92213,189.04202 l 2.6914,2.59669 86.75658,13.61237 c 47.71613,7.4868 247.85641,33.46358 248.29697,33.57672 4.50929,1.15791 -176.41667,-21.3411 -250.17367,-31.89945 z"
       id="path3846"
       inkscape:connector-curvature="0"
       sodipodi:nodetypes="ccssscscc" />
    <path
       style="fill:#000000;fill-opacity:1;stroke:#000000;stroke-width:1.28122258;stroke-miterlimit:4;stroke-opacity:1;stroke-dasharray:none"
       d="m 193.39968,1013.3442 c -0.0109,-0.4153 4.53455,-33.94676 10.10093,-74.51424 l 10.12069,-81.75904 -10.88011,-87.40917 c -6.52373,-52.41067 -21.84026,-141.91893 -21.79156,-142.54198 0.0487,-0.62305 -0.70774,-64.48674 10.00385,-11.08211 19.95277,99.47823 50.03384,189.95353 47.9153,309.05071 l 16.91843,127.12793 c -24.70562,2.0871 -65.14597,0.2978 -65.22468,0.5055 -0.0787,0.2077 2.84801,-38.962 2.83715,-39.3776 z"
       id="path3850"
       inkscape:connector-curvature="0"
       sodipodi:nodetypes="cscssscccc" />
    <path
       style="fill:#000000;fill-opacity:1;stroke:#000000;stroke-width:0.64061129;stroke-miterlimit:4;stroke-opacity:1;stroke-dasharray:none"
       d="m 45.464532,224.79969 86.512138,-0.44507 c 18.31812,0.22686 42.38785,-24.45884 58.86118,-38.54917 -23.05317,17.58927 -31.40911,41.30862 -58.50201,40.45988 -28.94565,0.10555 -57.923819,-0.88652 -86.871308,-1.46564 z"
       id="path3854"
       inkscape:connector-curvature="0"
       sodipodi:nodetypes="ccccc" />
    <path
       style="fill:#000000;fill-opacity:1;stroke:#000000;stroke-width:0.64061129;stroke-miterlimit:4;stroke-opacity:1;stroke-dasharray:none"
       d="m 113.03431,183.80095 c 47.05053,-2.55406 53.15308,-1.52259 79.03723,1.23356 -26.18791,-1.60962 -21.5319,0.60524 -78.64318,2.02315 -28.118568,0.69811 -52.378447,6.40811 -77.930715,17.52718 0.171018,-3.19949 0.08498,-1.51187 0.09681,-3.42375 21.607397,-8.91562 51.598526,-15.95739 77.439853,-17.36014 z"
       id="path3858"
       inkscape:connector-curvature="0"
       sodipodi:nodetypes="scsccs" />
    <path
       style="fill:#000000;fill-opacity:1;stroke:#000000;stroke-width:0.59980333;stroke-miterlimit:4;stroke-opacity:1;stroke-dasharray:none"
       d="m 77.478276,189.94105 c 4.175137,13.58444 21.557538,25.62505 35.333904,24.51377 15.87783,-1.2808 29.78896,-16.54794 36.26782,-28.27612 0.12563,0.12563 -10.20148,30.2625 -36.11507,30.85637 -14.063089,0.32229 -33.409827,-12.65188 -35.486654,-27.09402 z"
       id="path3862"
       inkscape:connector-curvature="0"
       sodipodi:nodetypes="cscsc" />
    <path
       style="fill:#000000;fill-opacity:1;stroke:#000000;stroke-width:4.79842663;stroke-miterlimit:4;stroke-opacity:1;stroke-dasharray:none"
       d="m 2.5236979,830.37767 c 0,0 0.7142347,-30.87587 0.6299556,-41.57307 l -0.66453,-84.34604 33.0763555,0 33.076351,0 60.68396,-79.20235 C 162.70196,581.69492 194.93197,530.17158 198.85215,523.76669 190.09922,537.62549 141.94521,626.90547 97.439839,706.1841 46.610572,796.72765 29.070751,824.2717 2.5236979,830.37767 z"
       id="path3866"
       inkscape:connector-curvature="0"
       sodipodi:nodetypes="cscccscsc" />
    <path
       style="fill:#000000;fill-opacity:1;stroke:#000000;stroke-width:1.69649994000000004;stroke-miterlimit:4;stroke-opacity:1;stroke-dasharray:none"
       d=""
       id="path3944"
       inkscape:connector-curvature="0" />
    <path
       style="fill:#000000;fill-opacity:1;stroke:#000000;stroke-width:1.69649994;stroke-miterlimit:4;stroke-opacity:1;stroke-dasharray:none"
       d="m 197.84358,525.08288 c -0.0543,-0.7207 42.81578,-134.67169 43.22585,-135.14933 16.31854,10.94108 17.48129,13.54465 33.86991,-11.10067 6.12739,-12.25278 10.90067,-26.44403 22.38744,-66.55916 8.34075,-29.12833 13.71157,-46.09821 16.99269,-53.69084 1.65436,-3.82826 1.80712,-4.5477 1.53939,-7.25 -0.976,-9.85125 -1.41617,-16.03531 -2.79374,-39.25 -1.63058,-14.55996 -3.39887,-114.537976 -29.40981,-111.18057 -27.36682,16.7771 -31.09597,68.87308 -44.38679,90.55215 -0.13069,-0.13068 0.42847,-2.574 1.24257,-5.42959 8.01684,-27.55596 14.3334,-65.44872 33.52921,-86.60942 9.08339,-9.54178 16.13355,-4.067634 23.2733,1.2759 12.99476,17.57121 16.95451,83.42092 18.0026,105.39153 0.81306,17.29935 1.3713,27.04896 2.33511,40.78292 l 0.59881,8.53291 -21.45564,68.38138 c -7.07269,20.00707 -11.40362,53.7058 -28.46553,75.27395 -2.32975,1.19911 -5.68757,6.27884 -12.5,6.27884 -6.95981,-1.5406 -6.97593,-2.91093 -10.3501,-5.5 l -19.20157,51.75 c -19.30984,52.04179 -28.3647,74.41522 -28.4337,73.5 z"
       id="path3946"
       inkscape:connector-curvature="0"
       sodipodi:nodetypes="cccssscccccccscccccsc" />
    <path
       style="fill:#000000;fill-opacity:1;stroke:#000000;stroke-width:2.39921331;stroke-miterlimit:4;stroke-opacity:1;stroke-dasharray:none"
       d="m 259.76662,271.67209 c -3.62111,-40.6984 10.91826,-120.54303 36.59284,-155.70551 -18.11645,38.72001 -44.1059,104.60616 -36.59284,155.70551 z"
       id="path3950"
       inkscape:connector-curvature="0"
       sodipodi:nodetypes="ccc" />
    <path
       style="fill:#000000;stroke:#000000;stroke-width:1px;stroke-linecap:butt;stroke-linejoin:miter;stroke-opacity:1"
       d="M 0.70710634,569.76181 43.487067,565.51917 0.35355334,574.00445 z"
       id="path3956"
       inkscape:connector-curvature="0" />
    <path
       style="fill:#000000;fill-opacity:1;stroke:#000000;stroke-width:2.59299994;stroke-miterlimit:4;stroke-opacity:1;stroke-dasharray:none"
       d="m 42.024699,949.05771 5.268897,-53 1.808252,10 c 0.994539,5.5 2.088762,10.53405 2.431606,11.18678 0.342844,0.65273 15.015608,-38.4021 32.606143,-86.78852 C 101.73013,782.06956 116.25593,742.88132 116.41916,743.37099 86.689432,844.04626 51.342585,956.88516 20.280878,1053.5577 34.200827,1019.0222 39.017583,979.37205 42.024699,949.05771 z"
       id="path3960"
       inkscape:connector-curvature="0"
       sodipodi:nodetypes="ccsssccc" />
    <path
       style="fill:#000000;fill-opacity:1;stroke:#000000;stroke-width:1.29649997;stroke-miterlimit:4;stroke-opacity:1;stroke-dasharray:none"
       d="m 291.06508,179.16217 -5.88855,-34.01704 1.9989,-4.73296 c 1.0994,-2.60313 2.0055,-4.39887 2.01355,-3.99055 0.008,0.40833 1.82385,17.28333 4.0351,37.5 2.21124,20.21668 3.95499,37.32009 3.875,38.00759 -0.08,0.6875 -2.7953,-14.05767 -6.034,-32.76704 z"
       id="path3964"
       inkscape:connector-curvature="0" />
    <path
       style="fill:#000000;fill-opacity:1;stroke:#000000;stroke-width:1.29649997;stroke-miterlimit:4;stroke-opacity:1;stroke-dasharray:none"
       d="m 271.70363,321.86928 c 0,-0.39964 3.60125,-15.19963 8.00277,-32.88888 l 8.00278,-32.16227 -7.2741,-26.00646 c -4.00076,-14.30356 -7.1991,-26.08147 -7.10743,-26.17314 0.0917,-0.0917 4.73143,11.16978 10.31058,25.02546 l 10.14391,25.19214 -10.85015,33.66154 c -5.96758,18.51385 -10.93525,33.75529 -11.03926,33.86988 -0.104,0.11458 -0.1891,-0.11864 -0.1891,-0.51827 z"
       id="path3968"
       inkscape:connector-curvature="0" />
    <path
       style="fill:#000000;fill-opacity:1;stroke:#000000;stroke-width:0.45838195;stroke-miterlimit:4;stroke-opacity:1;stroke-dasharray:none"
       d="m -0.0214208,517.27434 0,-0.66997 0,-0.66998 0.77132141,0.10573 C 23.882005,519.51031 48.471594,520.95473 73.340908,524.89993 48.898957,522.20881 24.46547,519.51161 -0.0214208,517.27434 z"
       id="path3978"
       inkscape:connector-curvature="0"
       sodipodi:nodetypes="cccccc" />
    <path
       style="fill:#000000;fill-opacity:1;stroke:#000000;stroke-width:0.45838195;stroke-miterlimit:4;stroke-opacity:1;stroke-dasharray:none"
       d="m 0.23900794,128.25084 c 0,0 36.66156706,-55.578588 36.76303006,-55.477125 -10.510814,30.788265 -20.580543,37.880795 -36.79314694,65.665205 0.002894,-4.5502 0.0301169,-10.18808 0.0301169,-10.18808 z"
       id="path3982"
       inkscape:connector-curvature="0"
       sodipodi:nodetypes="cccc" />
    <path
       style="fill:#000000;fill-opacity:1;stroke:#000000;stroke-width:0.5844869;stroke-miterlimit:4;stroke-opacity:1;stroke-dasharray:none"
       d="m 9.792338,386.72478 c 0.058188,-7.98314 0.161082,-42.51685 0.228653,-76.7416 0.06757,-34.22474 0.149291,-62.0328 0.181603,-61.79567 0.03231,0.23712 0.329377,34.12413 0.660148,75.30448 l 0.601401,74.87336 -0.888801,1.43712 -0.888801,1.4371 0.105797,-14.51479 0,0 z"
       id="path3988"
       inkscape:connector-curvature="0" />
    <path
       style="fill:#000000;fill-opacity:1;stroke:#000000;stroke-width:0.22919098;stroke-miterlimit:4;stroke-opacity:1;stroke-dasharray:none"
       d="m 9.2159902,217.19062 c -9.29903225,-4.11914 -9.10321838,-2.82591 -9.08559869,-3.06997 0.009763,-0.13523 -0.11779912,-4.247 0.0406187,-7.5168 0.15841782,-3.2698 -0.21443545,-6.19987 -0.18038161,-6.18719 0.0433132,0.0162 16.02467541,17.79817 18.61893241,20.77225 0.07421,0.0851 0.09893,0.15399 0.05494,0.15315 -0.04399,-8.9e-4 -4.295822,-1.86899 -9.4485108,-4.15144 z"
       id="path3992"
       inkscape:connector-curvature="0"
       sodipodi:nodetypes="ssscccs" />
    <path
       style="fill:#000000;fill-opacity:1;stroke:#000000;stroke-width:3.66705561;stroke-miterlimit:4;stroke-opacity:1;stroke-dasharray:none"
       d="m 2136.5454,643.9789 c -0.5855,-0.7592 40.2582,-230.98592 -10.1918,-359.27843 -9.3973,-23.89719 114.389,107.40771 114.389,107.40771 l 302.1207,47.03426 c 0,0 28.6477,9.40926 16.122,-80.50104 9.0736,8.97732 33.0842,81.89138 41.0588,90.18189 6.9528,7.22816 16.8226,1.75617 25.0622,10.3483 -5.3649,37.55556 4.8556,121.88509 0.5731,182.27091 -6.8059,-0.1076 -129.2945,1.0695 -254.912,-0.8413 -74.5734,1.4755 -160.2813,0.1984 -234.222,3.3777 z"
       id="path4016"
       inkscape:connector-curvature="0"
       sodipodi:nodetypes="cscccscccc" />
    <path
       style="fill:#000000;fill-opacity:1;stroke:#000000;stroke-width:0.45838195;stroke-miterlimit:4;stroke-opacity:1;stroke-dasharray:none"
       d="m 66.468164,1026.0202 9.63305,-6.2855 c 22.249386,-3.5137 10.046082,-1.5234 32.327826,-4.8192 -15.692398,4.5387 -6.08591,0.8841 -22.1579,6.5076 14.4006,0.2391 28.38121,-4.6631 40.03721,-6.2772 19.44544,-2.6949 36.00942,-4.06 36.59278,-4.1139 0.58336,-0.054 -39.21349,5.4638 -73.097165,12.2616 -33.883671,6.7978 -49.21463,12.3622 -49.409084,12.3653 -0.194455,0 16.691563,-5.3066 26.073283,-9.6387 z"
       id="path4026"
       inkscape:connector-curvature="0"
       sodipodi:nodetypes="ccccccscc" />
    <path
       style="fill:#000000;fill-opacity:1;stroke:#000000;stroke-width:2.59299994;stroke-miterlimit:4;stroke-opacity:1;stroke-dasharray:none"
       d="m 185.42681,594.5166 6.68209,-19.82674 c -4.16791,12.3668 5.46576,-23.88932 5.81247,-24.27137 0.3467,-0.38204 14.80278,24.18832 24.34645,60.21836 9.54367,36.03004 25.53353,71.93499 40.03343,126.31009 -16.68659,-23.54794 -43.31763,-94.93711 -47.50648,-108.33382 -4.25295,0.48333 -6.3196,7.80933 0.36889,31.57037 -14.49226,-22.18497 -18.87144,-36.10143 -29.73685,-65.66689 z"
       id="path4030"
       inkscape:connector-curvature="0"
       sodipodi:nodetypes="cssscccc" />
    <path
       style="fill:#000000;fill-opacity:1;stroke:#000000;stroke-width:2.59299994;stroke-miterlimit:4;stroke-opacity:1;stroke-dasharray:none"
       d="m 318.86148,1052.587 c -8.1218,-0.2734 -9.77458,-0.6043 -10.19147,-2.0408 -0.81083,-2.7938 -16.61463,-73.96973 -16.61463,-74.82769 0,-3.22677 -2.59579,3.96939 -7.43559,20.61326 -3.11867,10.72503 -6.36908,21.67193 -7.22313,24.32653 l -1.55282,4.8264 -2.24847,-3.3264 -2.24847,-3.3265 -0.72201,-87.11834 -1.07556,-83.93634 c 0.45404,-8.38841 6.60097,-13.09234 13.91047,-6.34766 0.20664,0.22127 10.58582,46.97731 23.06483,103.90231 12.47902,56.92503 22.92727,104.51253 23.21834,105.75003 0.29107,1.2375 0.14294,2.1558 -0.32919,2.0407 -0.47212,-0.1151 -5.22066,-0.3561 -10.5523,-0.5355 z"
       id="path4034"
       inkscape:connector-curvature="0"
       sodipodi:nodetypes="ccsssccccccsssc" />
    <path
       style="fill:#000000;fill-opacity:1;stroke:#000000;stroke-width:1.8335278;stroke-miterlimit:4;stroke-opacity:1;stroke-dasharray:none"
       d="M 331.66694,923.8426 C 312.4933,853.7418 296.68577,796.25402 296.53908,796.09197 273.08013,701.2511 201.97665,502.29593 197.64534,550.18005 c 4.62206,-25.05584 5.91936,-23.10905 5.96432,-24.09453 0.0875,-1.91815 19.65219,43.36216 29.54245,68.42209 23.93801,60.65417 41.91368,114.67719 84.58434,254.20489 26.42339,86.40119 42.1599,136.18472 55.15243,174.4786 l 9.53646,28.1075 -7.94862,0 -7.94862,0 z"
       id="path4038"
       inkscape:connector-curvature="0"
       sodipodi:nodetypes="cccsssscccc" />
  </g>
  <g
     inkscape:groupmode="layer"
     id="layer2"
     inkscape:label="hair"
     style="display:none">
    <path
       style="fill:#ffffff;stroke:#000000;stroke-width:1px;stroke-linecap:butt;stroke-linejoin:miter;stroke-opacity:1"
       d="M 0,23.875373 C -1.8402483,32.41645 23.904883,190.47344 51.972348,214.44065 40.470685,191.72712 17.67767,0.18729582 17.67767,0.18729582 L 0,-0.16625757 z"
       id="path3930"
       inkscape:connector-curvature="0"
       sodipodi:nodetypes="ccccc" />
    <path
       style="fill:#ffffff;fill-opacity:1;stroke:#000000;stroke-width:1.69299996;stroke-miterlimit:4;stroke-opacity:1;stroke-dasharray:none"
       d="m 171.74498,233.37514 c 0,-3.80569 -2.44774,-20.17855 -5.11644,-34.22377 -6.5562,-34.50482 -13.97031,-64.05364 -38.39239,-153.01233 -9.81669,-35.75781 -12.29404,-46.00120976 -11.28458,-46.6597098 0.71138,-0.46404 4.21389,-0.72768 7.78337,-0.58584 l 6.48995,0.25788 7.74777,35.9999998 c 16.77591,77.94931 25.07827,122.24699 31.7856,169.59373 3.13394,22.12234 3.65104,29.90627 1.98672,29.90627 -0.55,0 -1,-0.57431 -1,-1.27623 z"
       id="path3936"
       inkscape:connector-curvature="0" />
    <path
       style="fill:#ffffff;fill-opacity:1;stroke:#000000;stroke-width:2.59299994;stroke-miterlimit:4;stroke-opacity:1;stroke-dasharray:none"
       d="m 203.20065,238.3015 c 7.5e-4,-0.45833 0.65434,-4.54366 1.45242,-9.07851 4.50387,-25.59187 6.4801,-68.77206 7.23423,-158.06606 l 0.6276,-74.3112406 4.09219,0.63114 c 2.25071,0.34712 5.55469,1.08458 7.34219,1.63879004 3.02185,0.93691 3.25,1.31667 3.25,5.40955996 0,7.3475996 -5.89409,97.3286506 -8.05322,122.9429906 -2.81269,33.36771 -10.22583,95.81357 -12.75278,107.42523 -0.64833,2.97918 -3.19639,5.6992 -3.19263,3.4081 l 0,0 z"
       id="path3938"
       inkscape:connector-curvature="0" />
    <path
       style="fill:#ffffff;fill-opacity:1;stroke:#000000;stroke-width:3.39299989;stroke-miterlimit:4;stroke-opacity:1;stroke-dasharray:none"
       d="M 326.78279,237.4339 C 328.49944,157.17063 312.86931,68.464089 307.82722,4.1938506 c 0.96019,-0.5657023 31.9889,-2.0684611 32.84703,-1.285461 1.13172,1.0326475 -2.24137,80.8185044 -0.87008,122.4066104 1.2745,38.6527 -9.2601,109.70844 -10.558,117.87824 -0.28409,1.78812 -0.97789,2.83013 -1.79768,2.69988 -0.96325,-0.15303 -1.14862,-2.5088 -0.66565,-8.45922 z"
       id="path3940"
       inkscape:connector-curvature="0"
       sodipodi:nodetypes="ccsscccc" />
    <path
       style="fill:#ffffff;fill-opacity:1;stroke:#000000;stroke-width:1.19713175;stroke-miterlimit:4;stroke-opacity:1;stroke-dasharray:none"
       d="M 94.325125,62.170916 58.869411,0.99113905 86.546953,0.60711834 C 101.7696,0.39590696 106.57598,0.97866495 106.38785,0.85718559 103.68712,-0.88678671 143.90275,114.05808 145.51876,115.27676 c 0.44755,0.33751 -31.3222,-18.817149 -51.193635,-53.105844 z"
       id="path3954"
       inkscape:connector-curvature="0"
       sodipodi:nodetypes="scssss" />
  </g>
  <g
     inkscape:groupmode="layer"
     id="layer3"
     inkscape:label="hari2"
     style="display:none">
    <path
       style="fill:#000000;fill-opacity:1;stroke:#000000;stroke-width:5.18599987;stroke-miterlimit:4;stroke-opacity:1;stroke-dasharray:none"
       d="m 319.02545,226.98455 c -1.69694,-28.42454 -7.37562,-79.98325 -10.50242,-95.35516 -2.23752,-11 -5.29428,-23.09393 -6.7928,-31.764287 -43.18045,-22.287617 -52.6978,49.581017 -56.9444,64.388817 -4.12538,14.64349 -7.95226,27.07611 -8.5042,27.62804 -1.73742,1.73743 12.58464,-36.96679 6.62008,-119.968979 C 239.71153,27.518957 220.82379,11.943731 220.48447,11.634702 220.14517,11.325672 171.45649,9.7369943 112.28741,8.1043069 53.118341,6.4716197 4.1433406,4.5718453 3.4540812,3.8825861 2.764822,3.1933267 2.7865164,2.0437535 3.502291,1.3279789 4.2180656,0.61220431 83.605199,1.2187133 179.91814,2.6757765 l 175.11445,2.649206 -1.06502,5.1522025 c -0.58576,2.833711 -8.29222,52.402202 -17.12548,110.152205 -15.1727,99.19608 -17.43708,112.71312 -17.81664,106.35516 z"
       id="path3997"
       inkscape:connector-curvature="0"
       sodipodi:nodetypes="ssccsscsssscsss" />
  </g>
  <g
     inkscape:groupmode="layer"
     id="layer4"
     inkscape:label="hair3">
    <path
       style="fill:#000000;fill-opacity:1;stroke:#000000;stroke-width:3.66705561;stroke-miterlimit:4;stroke-opacity:1;stroke-dasharray:none"
       d="m 305.8965,487.79012 c -22.19413,-58.57293 -33.35155,-48.50808 -32.17626,-97.30314 l 43.93704,-135.7645 -2.47585,-36.06244 c -1.36172,-19.83435 -2.37635,-48.79037 -2.25474,-64.34672 l -4.77888,-28.28427 -28.5872,-62.225399 -33.5872,-62.2253962 33.29302,-0.92574079 c 18.31117,-0.50915733 46.36188,-1.24989028 62.33493,-1.64607302 L 370.64326,-1.7138914 385.9576,81.67663 c 10.92227,59.47454 60.25529,123.30242 59.87162,123.68609 -0.38367,0.38368 -32.47087,-20.62015 -59.2055,-55.31758 C 359.8891,115.3477 347.72557,80.796874 347.4943,81.907939 c -0.23127,1.111066 -13.11091,70.549441 10.26947,159.492951 23.38037,88.94351 -0.43721,100.05233 24.46213,145.82549 -24.9408,-22.2678 -14.61741,-24.90418 -40.67336,-90.36875 -26.05593,-65.46455 -5.15385,-124.32162 -5.40543,-123.01529 -0.25157,1.30632 2.86137,17.17839 6.91766,35.27126 l 7.37507,32.89612 c -7.69627,74.45219 -55.55608,92.0082 -44.54334,245.7804 z"
       id="path4002"
       inkscape:connector-curvature="0"
       sodipodi:nodetypes="cccsscccsscssssscssscc" />
    <path
       style="fill:#000000;fill-opacity:1;stroke:#000000;stroke-width:3.66705561;stroke-miterlimit:4;stroke-opacity:1;stroke-dasharray:none"
       d="m 158.5807,269.41218 c 0,-0.46553 2.21741,-5.33316 4.92756,-10.81694 22.91692,-46.37051 36.38172,-103.4573 40.25094,-170.651974 0.80618,-14.000718 1.81243,-31.024314 2.2361,-37.830217 0.42365,-6.805903 0.23439,-12.374369 -0.42062,-12.374369 -0.65499,0 -2.30754,7.159457 -3.6723,15.909903 -4.23624,27.161303 -10.5587,56.857317 -15.18767,71.334947 -4.38591,13.71745 -13.01489,32.43586 -17.4775,37.91305 -2.23112,2.73837 -2.28175,2.69333 -1.5901,-1.41421 2.25099,-13.36812 3.94512,-44.52706 3.1891,-58.65487 -0.93939,-17.554264 -4.02664,-30.060542 -9.87502,-40.003248 -3.52929,-6.000064 -10.38064,-13.364263 -11.39261,-12.245375 -0.29588,0.327158 -8.97041,16.186537 -19.2767,35.243069 -28.42959,52.566794 -41.31324,73.393634 -61.793616,99.891404 -8.30403,10.74384 -32.6348,35.24963 -33.82058,34.06384 -0.29309,-0.29308 3.00587,-5.89256 7.331,-12.44329 30.41311,-46.06277 45.30389,-85.95008 50.114606,-134.239881 0.89111,-8.9449 1.41236,-19.41772 1.15834,-23.272934 L 92.81977,42.811607 48.439734,107.80384 c -24.40903,35.74574 -45.01411,65.62864 -45.78907,66.40645 -0.93591,0.93937 -1.11614,-21.90071 -0.53675,-68.02291 L 2.986184,36.750256 -0.501686,18.591838 C -2.4200058,8.6047077 -3.8449158,0.30259857 -3.6681458,0.14270657 c 0.17677,-0.159893 55.4463618,0.7840329 122.8227258,0.478764 L 261.45492,-0.02326396 C 259.92393,27.654177 293.29021,52.459283 287.41274,80.861473 275.14676,140.13547 216.10844,201.65462 183.01605,243.50676 172.2585,256.79423 158.5807,271.29491 158.5807,269.41218 z"
       id="path4008"
       inkscape:connector-curvature="0"
       sodipodi:nodetypes="ssssssssssscsscssscssscssscscs" />
    <path
       style="fill:#000000;fill-opacity:1;stroke:#000000;stroke-width:2.59299994;stroke-miterlimit:4;stroke-opacity:1;stroke-dasharray:none"
       d="m 274.747,591.62846 c -20.48388,-21.11911 -55.29824,-50.83326 -74.82101,-72.95472 -0.53266,-0.73103 2.99665,-11.38451 9.32385,-28.14473 5.59952,-14.83265 14.9334,-39.79345 20.74197,-55.46845 5.80857,-15.675 11.2043,-29.02079 11.99052,-29.65731 15.85787,-11.29205 20.00087,-9.85906 29.84187,-9.84286 l -5.89556,23.72245 c 1.62662,69.6199 54.68561,114.89584 82.08052,163.38479 -0.27563,0.27563 -44.48839,-21.11074 -73.50058,-57.30305 -57.68355,-71.95944 -34.93881,-76.92422 -35.74141,-76.12162 -0.30994,0.30994 4.69602,50.78316 9.90213,69.69048 9.74327,29.66547 17.42845,42.69232 26.0777,72.69502 z"
       id="path4012"
       inkscape:connector-curvature="0"
       sodipodi:nodetypes="ccssccccsscc" />
  </g>
</svg>
