M48
METRIC,LZ,0000.00
T01C0.10
T02C0.20
T03C0.30
T04C0.46
T05C0.60
T06C0.70
T07C0.80
T08C0.85
T09C1.05
T10C1.10
T11C1.20
T12C1.70
T13C2.00
T14C2.00
T15C2.30
T16C5.25
%
T01
X+008482Y+013205
X+009052Y+013107
X+009097Y+013477
Y+013577
X+008805Y+013092
X+009357Y+01202
X+009825Y+012797
X+009615Y+013455
Y+013655
X+009575Y+013215
Y+013255
X+009815Y+013175
X+009575Y+013615
Y+013575
Y+013535
X+009775Y+013175
X+009735
X+009695
X+009575Y+013295
Y+013375
Y+013415
Y+013335
Y+013455
X+009615Y+013215
X+009775
X+009575Y+013695
X+009815Y+013255
X+009575Y+013655
X+009655Y+013295
X+009575Y+013495
Y+014175
X+009775Y+014135
X+009575Y+013975
X+009855Y+013815
Y+013775
X+009615
Y+013815
X+009575Y+013895
X+009815Y+013935
Y+013855
Y+013895
X+009575Y+013735
Y+013775
Y+014015
Y+013935
Y+014095
Y+014055
X+009655Y+014175
X+009575Y+013815
X+009615Y+014175
X+009695
X+009575Y+013855
X+009855Y+013935
X+010452Y+012155
X+010172Y+012075
X+010332
X+010052Y+012155
X+010292Y+012115
X+010412
X+010292Y+012075
X+010492Y+012115
X+010332
X+010532
X+010492Y+012155
X+010092Y+012115
Y+012155
X+010132Y+012075
X+009972Y+012115
X+010092Y+012075
X+010252Y+012555
X+010212
X+009972Y+012595
Y+012635
Y+012555
X+010212Y+012315
X+010252
X+010212Y+012355
X+010292Y+012315
X+010172Y+012355
X+010052Y+012595
X+010492Y+012555
X+010012Y+012355
X+010052Y+012475
X+010372Y+012515
X+010412
Y+012555
X+010332Y+012515
X+010132Y+012275
Y+012515
X+010172
X+009972Y+012275
X+010452Y+012595
Y+012355
Y+012235
Y+012475
X+010052Y+012515
X+01008Y+01288
X+010492Y+012435
Y+012515
Y+012395
X+010452Y+012315
X+009972Y+012395
Y+012435
X+010332Y+012555
X+010015Y+013495
Y+013175
X+010055
X+010575Y+013415
X+010255Y+013175
X+010175Y+013215
X+010415Y+013175
X+010095Y+013495
X+010135
Y+013455
X+010175
X+010295Y+013695
X+010535
X+010575Y+013175
X+009975Y+013495
Y+013455
X+010255Y+013495
X+010295Y+013535
Y+013575
X+010535Y+013495
X+010575Y+013575
X+009935Y+013455
X+010015
X+010135Y+013175
X+010495Y+013415
X+010575Y+013335
X+010375Y+013175
X+010335
X+010575Y+013375
Y+013455
Y+013295
X+010495Y+013175
Y+013215
X+010455Y+013175
X+010535Y+013215

Y+013255
X+010335Y+013495
X+010095Y+013215
X+010175Y+013175
X+010575Y+013255
X+009975Y+013135
Y+013175
X+010095
X+010495Y+013375
X+010295Y+013175
X+010495Y+013575
X+010135Y+014135
X+010055Y+014175
X+010255Y+014135
X+009975Y+013895
X+010015
X+010135
X+010175
X+010255Y+013855
X+010295
Y+013735
X+010575
Y+013775
X+010535Y+013895
X+010495Y+014055
X+010535
X+010375Y+014135
X+010575Y+014175
X+010335Y+013775
X+009935Y+013935
X+01031Y+013982
X+010335Y+013895
X+01037Y+013957
X+009952Y+014002
X+011047Y+012207
X+010707Y+012432
X+010735Y+01248
X+01132Y+012575
X+0107Y+012567
X+011067
X+011167Y+012565
X+010945Y+012385
X+011415Y+013355
Y+013395
X+010875Y+013315
X+011415Y+013435
X+010733Y+01367
X+012107Y+01157
X+011702
X+011592Y+012577
X+012095Y+013195
X+012045
X+011535Y+013355
X+011495Y+013315
Y+013435
X+011865Y+013155
X+011995Y+013245
X+012045Y+013145
X+011995
X+012095Y+013095
X+011995Y+013295
X+010412Y+012195
X+010012
X+009895Y+013215
Y+013495
Y+013535
Y+014135
Y+013815
Y+013855
Y+013935
T00
M30
