%
T1C.012F095S3
X-003639Y00144
X-004119Y0024
X-003639Y0024
X-004119Y00288
X-003639Y00288
X-0037Y00324
X-004119Y00336
X-00338Y00356
X-0047Y00384
X-00446Y00384
X-0042Y00418
X-004599Y00432
X-00334Y00446
X-00369Y00449
X-0042Y0047
X-0038Y00474
X-004599Y0048
X-0043Y00494
X-0034Y00496
X-00344Y00521
X-00368Y00521
X-00344Y00545
X-00368Y00545
X-004334Y005619
X-00344Y00569
X-00368Y00569
X-00462Y0059
X-00344Y00593
X-00368Y00593
X-00432Y00616
X-00346Y00617
X-0037Y00617
X-00462Y00618
X-00428Y0064
X-00368Y00641
X-00462Y00642
X-00432Y00664
X-00368Y00665
X-00462Y00666
X-00368Y00689
X-00432Y0069
X-0046Y0069
X-00368Y00713
X-0046Y00714
X-00432Y00714
X-0046Y00738
X-0043Y00742
X-00378Y00756
X-0046Y00762
X-00364Y00776
X-0046Y00786
X-004326Y007908
X-0045Y0081
X-00368Y00811
X-00456Y00834
X-0042Y00834
X-00368Y00835
X-00368Y00859
X-00484Y00868
X-00448Y00868
X-00368Y00883
X-00484Y00888
X-00368Y00907
X-00484Y00908
X-00384Y00932
X-00419Y00967
X-0033Y00998
X-00344Y01028
X-00364Y01054
X-00336Y01054
X-00364Y01078
X-00326Y01122
X-00344Y01144
X-00348Y0117
X-00348Y01196
X-003355Y012213
X-00342Y01258
X-00348Y01292
X-00494Y013
X-00494Y0132
X-00344Y0132
X-0051Y01336
X-00566Y01342
X-00356Y01344
X-0051Y01356
X-00339Y01365
X-00574Y01376
X-0052Y01388
X-00556Y01396
X-00348Y01396
X-00574Y01412
X-00472Y0142
X-00326Y01436
X-00574Y01448
X-00574Y01482
X-00468Y0151
X-00574Y01514
X-00334Y01534
X-00468Y01536
X-00572Y0155
X-0034Y0157
X-00568Y01582
X-0053Y01584
X-00502Y01602
X-00328Y0163
X-005Y01638
X-005Y01674
X-00356Y01696
X-005Y01706
X-005Y01738
X-00328Y01774
X-00358Y01814
X-0033Y01854
X-00364Y01898
X-00364Y0202
X-00326Y02044
X-00342Y0206
X-00358Y02076
X-00354Y02112
X-00504Y0213
X-00356Y0217
X-00504Y02198
X-00358Y0222
X-00504Y02232
X-00502Y02266
X-00358Y0227
X-00504Y023
X-00358Y02312
X-00504Y02334
X-00504Y02368
X-00336Y02382
X-00504Y02402
X-00364Y02408
X-00504Y02436
X-00366Y02448
X-00504Y0247
X-00504Y02504
X-0035Y02508
X-00504Y02538
X-00496Y02576
X-00362Y02634
X-003283Y026935
X-00347Y02717
X-00326Y02762
X-00362Y0277
X-00338Y02818
X-003689Y028413
X-003852Y028604
X-0033Y028636
X-003859Y028857
X-003873Y029097
X-004099Y029191
X-00343Y029266
X-004113Y02945
X-004147Y029784
X-00346Y02986
X-004092Y030054
X-004345Y030105
X-003403Y030289
X-004336Y030619
X-00407Y03063
X-00384Y03086
X-004309Y030871
X-00358Y03096
X-00404Y03126
X-004276Y031362
X-00404Y0315
X-00372Y0316
X-004022Y031994
X-00364Y03272
X-003874Y032921
X-003673Y033302
X-00384Y03364
X-003432Y033769
X-00328Y03456
X-00108Y03706
X-00134Y03676
X-00162Y03658
X-00108Y03638
X-00184Y03622
X-00216Y03566
X-00178Y03566
X-00082Y03554
X-001297Y035442
X-001434Y035225
X-002554Y035224
X-000979Y035169
X-001433Y034957
X-001096Y034797
X-00284Y03478
X-00224Y0347
X-00252Y03454
X-001715Y034495
X-001475Y034488
X-00284Y03432
X-000978Y034277
X-001828Y034262
X-0024Y03422
X-001442Y034055
X-000972Y034028
X-00308Y03384
X-000766Y033773
X-001983Y033734
X-00282Y03362
X-002265Y03354
X-001554Y033286
X-002127Y033284
X-00292Y03322
X-00308Y0331
X-001267Y03305
X-000855Y033032
X-001632Y032776
X-001191Y032625
X-001634Y03251
X-001631Y032269
X-00232Y03224
X-00294Y03224
X-002089Y031716
X-00294Y03162
X-001309Y031548
X-002175Y031442
X-00294Y03058
X-001295Y030438
X-00316Y0303
X-002111Y030252
X-001283Y030169
X-00312Y02968
X-00268Y02946
X-002935Y029453
X-003229Y029266
X-001788Y029092
X-000762Y029025
X-00285Y02901
X-003086Y028853
X-001503Y028675
X-00089Y028641
X-002996Y028554
X-001897Y028481
X-001559Y028387
X-00304Y0283
X-001754Y028243
X-002484Y027858
X-0027Y02774
X-001294Y02772
X-001059Y027603
X-000882Y027603
X-002185Y027582
X-00288Y02756
X-00192Y02756
X-0013Y02746
X-002384Y027439
X-00107Y02736
X-00083Y027293
X-0028Y02712
X-001302Y026549
X-00232Y02654
X-002906Y02648
X-00194Y02644
X-00264Y02634
X-003176Y02618
X-00224Y02618
X-001526Y026175
X-00192Y0261
X-00282Y02606
X-00214Y02594
X-000857Y025781
X-00148Y025764
X-00264Y02574
X-00216Y0257
X-0032Y02522
X-002744Y025195
X-00216Y02519
X-00176Y02506
X-00264Y02492
X-00128Y0248
X-00216Y02462
X-00264Y02458
X-00268Y02434
X-00292Y02366
X-002511Y023635
X-001997Y023208
X-002501Y023138
X-00316Y02312
X-00152Y02306
X-002178Y022922
X-00316Y0227
X-002601Y022616
X-000865Y022413
X-00128Y02234
X-00314Y02218
X-002622Y022172
X-001602Y02201
X-001035Y022009
X-00262Y021784
X-002346Y021758
X-0031Y02164
X-001754Y021509
X-002401Y021508
X-00294Y02148
X-00278Y02132
X-00184Y02122
X-00156Y02118
X-00294Y02116
X-000883Y021034
X-00294Y02096
X-00196Y02094
X-00216Y02094
X-001714Y020824
X-00294Y02076
X-00216Y0205
X-00196Y0205
X-00176Y0205
X-00156Y0205
X-00092Y0205
X-00294Y02044
X-002518Y020322
X-00322Y02016
X-003043Y019634
X-00086Y01938
X-0024Y0185
X-00156Y01848
X-00204Y0184
X-002857Y018377
X-00264Y01784
X-000895Y017813
X-00218Y01776
X-00284Y01764
X-0024Y0176
X-0024Y01736
X-00196Y0173
X-00279Y0172
X-00212Y01712
X-0026Y01699
X-00082Y01697
X-00106Y01696
X-001514Y016942
X-00189Y01691
X-00242Y0168
X-00078Y0166
X-0022Y01656
X-00172Y01655
X-00115Y01635
X-00296Y01618
X-00142Y016131
X-00298Y0159
X-00258Y0159
X-001829Y0155
X-00284Y01548
X-00256Y01528
X-001259Y01521
X-003162Y015116
X-001309Y01493
X-00256Y01488
X-003124Y01418
X-00294Y0141
X-00156Y01316
X-0013Y01296
X-0023Y01274
X-00154Y01272
X-000907Y01266
X-001204Y012307
X-0025Y01224
X-00108Y01204
X-0023Y01186
X-001195Y011703
X-00242Y01144
X-00103Y01135
X-000759Y01104
X-001239Y01104
X-0025Y01092
X-00236Y01078
X-00116Y01076
X-00261Y01061
X-00234Y01052
X-001295Y01044
X-000969Y01032
X-00237Y01023
X-000969Y01
X-00238Y00998
X-0013Y009805
X-00261Y00973
X-0024Y0096
X-001068Y009516
X-0013Y00938
X-000758Y009213
X-00125Y00911
X-00154Y00896
X-00095Y00891
X-000759Y00864
X-001389Y00853
X-00156Y00816
X-001239Y00816
X-000759Y00816
X-000919Y00768
X-001239Y00768
X-00156Y00768
X-000919Y0072
X-001239Y0072
X-000919Y00672
X-00124Y00672
X-00193Y00652
X-00124Y0064
X-000919Y00624
X-00124Y00608
X-00199Y00594
X-00156Y00576
X-001239Y00576
X-000919Y00576
X-002182Y005612
X-000919Y00528
X-001239Y00528
X-00214Y00512
X-00308Y00502
X-00172Y00494
X-001239Y0048
X-000919Y0048
X-00322Y00478
X-002Y00446
X-001239Y00432
X-000919Y00432
X-00304Y0041
X-001716Y003931
X-003159Y00384
X-00124Y00384
X-00094Y00364
X-00136Y0036
X-003159Y00336
X-00094Y00332
X-003159Y00288
X-002679Y00288
X-0022Y00272
X-00164Y00242
X-002679Y0024
X-00212Y00228
X-0014Y00222
X-001051Y002016
X-00202Y00201
X-002679Y00192
X-00144Y00188
X-00172Y00182
X-00094Y00168
X-001719Y00144
X-002199Y00144
X-003159Y00144
X-001239Y00144
X-002679Y00144
X-00094Y00136
X-001239Y00096
X-001719Y00096
X-003159Y00096
X-002679Y00096
X-002199Y00096
X-000759Y00096
X-00068Y00124
X00156Y00124
X00092Y00124
X0006Y00124
X-00004Y00124
X00124Y00124
X00028Y00124
X-00036Y00124
X001551Y00173
X001551Y00206
X001631Y00266
X-000109Y0027
X000888Y002719
X-000418Y002765
X00096Y00306
X001631Y0031
X000475Y003173
X-000161Y003186
X001181Y00349
X-000469Y00349
X001655Y003492
X000961Y003901
X000271Y003931
X-000193Y003933
X-000665Y003934
X001419Y00394
X001301Y00429
X00036Y00432
X-000599Y00432
X001641Y00432
X000041Y00432
X-000279Y00432
X000681Y00432
X001591Y00458
X00036Y0048
X-000599Y0048
X001Y0048
X000041Y0048
X000681Y0048
X-000279Y0048
X00036Y00528
X-000599Y00528
X000681Y00528
X-000279Y00528
X000041Y00528
X001Y00528
X00036Y00576
X-000599Y00576
X001641Y00576
X-000279Y00576
X00004Y00576
X001Y00576
X000681Y00576
X00116Y00614
X00036Y00624
X-000599Y00624
X-000279Y00624
X000041Y00624
X000681Y00624
X001641Y00624
X00116Y00654
X-000599Y00672
X-000279Y00672
X000681Y00672
X000041Y00672
X-000599Y0072
X001641Y0072
X000681Y0072
X000201Y0072
X001161Y0072
X-000279Y0072
X-000279Y00768
X000681Y00768
X000201Y00768
X001161Y00768
X-000279Y00816
X000201Y00816
X000681Y00816
X001161Y00816
X-00042Y0084
X001651Y00843
X001161Y00864
X000201Y00864
X000681Y00864
X-000279Y00864
X001641Y00888
X000179Y008905
X00089Y00891
X00045Y00897
X001161Y00912
X-00039Y00924
X000061Y00926
X000301Y00927
X00172Y00942
X-00061Y00949
X-000359Y0098
X000201Y00984
X001421Y01007
X-00022Y01063
X000801Y01068
X00134Y01076
X00116Y0113
X-000595Y01135
X001641Y01146
X-000279Y01152
X00024Y011741
X000201Y012
X-000039Y012
X-000468Y012246
X000043Y012658
X-000432Y01266
X000527Y012665
X001499Y012669
X001012Y012669
X-000409Y01311
X-000249Y01332
X-00072Y01476
X-000279Y01488
X00014Y01492
X00038Y01492
X00062Y01498
X-000099Y01514
X00156Y01586
X-00024Y0161
X000726Y016183
X000999Y016195
X00024Y0162
X0Y0162
X00048Y0162
X-00048Y0162
X-00018Y01658
X00016Y01658
X00116Y01668
X-00014Y01688
X0001Y01696
X00008Y01784
X00028Y01784
X0013Y01784
X00166Y01784
X00132Y019
X00152Y01914
X00112Y01928
X-00036Y01936
X001711Y019729
X0005Y02002
X0005Y02022
X-00038Y02036
X00118Y02072
X-000368Y020824
X001572Y020901
X00144Y02146
X0001Y0216
X-00018Y02206
X00142Y0223
X00094Y02234
X-0002Y02268
X00022Y02274
X0009Y02276
X0017Y02304
X0009Y0231
X-00052Y02338
X-00022Y02338
X0002Y0234
X00138Y0234
X00092Y02342
X-00022Y0237
X-00052Y0237
X00014Y02388
X00122Y02402
X-00038Y0241
X00048Y0243
X001146Y024548
X00026Y02456
X-00022Y02474
X-00046Y02482
X-0007Y02486
X00032Y02486
X00088Y02492
X00074Y02512
X0003Y02516
X-000732Y025554
X00032Y02556
X00082Y0257
X-00038Y02574
X001408Y025844
X0Y02592
X00058Y02611
X-0002Y02614
X00166Y02615
X001387Y026239
X00012Y02626
X-000092Y026407
X-00034Y02646
X000662Y027218
X-00014Y02728
X001004Y027381
X00168Y0275
X000692Y027566
X-00032Y0276
X000022Y027697
X000735Y027846
X000978Y02788
X-000311Y027981
X000093Y028022
X001571Y028032
X001299Y028226
X-000613Y028238
X-000306Y028265
X000136Y028394
X001032Y028411
X001552Y028431
X-000038Y028569
X-000463Y028611
X001568Y028674
X00114Y02873
X00013Y028745
X-000263Y028881
X00138Y02908
X00024Y0291
X001724Y029103
X-000336Y029122
X-00072Y029267
X001736Y029344
X-000121Y029366
X001084Y029485
X000141Y029762
X000291Y030026
X-00011Y030244
X00148Y03088
X-000221Y031566
X000874Y031572
X000293Y031596
X000027Y032174
X000429Y032187
X000846Y032187
X00148Y03246
X-000702Y032652
X001378Y033258
X000973Y033444
X001082Y033659
X001349Y033668
X-000358Y033724
X-000018Y033881
X001472Y033994
X00004Y03412
X-00026Y03448
X00016Y03474
X001735Y034781
X001062Y034843
X-000419Y034974
X000723Y035088
X000441Y035182
X00156Y03522
X001137Y035345
X001743Y035397
X-00018Y03542
X-000418Y035697
X000329Y035739
X0015Y03577
X000674Y035848
X-000447Y03609
X000298Y036107
X-0003Y03648
X00146Y0365
X00072Y0365
X-00067Y036601
X00018Y03668
X00072Y03684
X00144Y03686
X0Y03716
X00228Y03676
X00296Y03672
X00192Y0365
X00324Y03644
X00402Y03638
X00312Y03608
X00392Y036072
X0029Y03594
X002042Y035782
X003844Y035752
X00178Y03568
X002282Y035442
X002111Y035225
X00244Y03518
X00266Y03505
X003569Y034976
X004086Y034054
X003646Y034
X003242Y033998
X00276Y03378
X001785Y033722
X003207Y033593
X003638Y033497
X002161Y033158
X003431Y032998
X002325Y032471
X003169Y032437
X003653Y032357
X00407Y031527
X002451Y031465
X002784Y031464
X003116Y031453
X00394Y03078
X00422Y03076
X003741Y030627
X004Y0305
X002296Y030451
X002545Y030446
X003735Y030304
X002499Y030089
X002624Y029685
X003052Y029601
X002498Y029124
X00297Y02896
X003248Y028825
X002074Y028805
X002932Y028713
X002348Y028558
X003069Y028508
X002626Y028296
X001775Y028274
X001946Y028068
X0041Y02791
X002851Y027858
X002448Y027739
X001919Y02758
X00334Y02718
X00286Y02697
X0031Y02694
X00334Y02694
X00246Y02686
X00384Y0264
X00222Y02632
X0032Y0263
X00238Y02614
X00394Y02606
X00322Y02606
X002Y02594
X0028Y02594
X00176Y0259
X0035Y02584
X00374Y02584
X00326Y02574
X00252Y02566
X0039Y02526
X00202Y02524
X0039Y025036
X00362Y025
X00238Y02456
X00328Y02456
X00354Y0245
X002711Y02429
X003623Y024249
X00292Y02408
X00328Y02376
X00248Y0236
X00408Y0236
X00284Y02345
X00248Y02336
X00408Y02328
X00248Y02296
X00408Y02296
X00335Y0229
X00264Y0228
X00248Y02264
X00408Y02264
X00264Y02248
X0033Y02248
X00422Y02232
X00376Y02232
X00184Y02146
X00336Y02089
X002906Y020796
X00332Y02028
X00286Y02028
X00376Y02024
X002126Y020041
X001921Y019857
X00276Y0197
X00364Y01952
X00396Y01952
X00276Y01938
X00212Y01914
X00276Y01906
X002414Y019036
X00212Y01894
X00292Y0189
X0018Y01874
X00212Y01874
X00244Y01874
X00276Y01874
X00338Y01784
X0041Y01784
X00302Y01784
X00374Y01784
X00202Y01784
X00266Y01784
X00192Y01674
X00267Y01667
X00291Y01664
X00184Y01602
X00206Y01586
X00184Y01514
X00332Y01504
X00381Y01504
X00277Y01498
X004041Y01488
X003561Y01488
X003081Y01488
X00198Y01478
X001957Y012675
X002428Y012675
X002896Y012673
X00412Y01267
X00326Y01266
X00368Y01266
X00412Y01148
X00227Y01148
X002001Y01146
X003555Y011205
X001991Y01079
X003231Y01072
X004041Y01056
X00362Y01028
X004041Y0096
X003601Y00955
X00206Y0095
X003931Y00932
X0024Y00898
X00342Y00894
X00395Y00883
X0023Y00866
X00303Y00846
X001891Y00834
X00244Y00834
X00417Y00818
X001861Y00796
X00318Y00778
X001861Y00761
X002681Y00744
X00242Y00722
X00202Y00704
X00258Y00692
X003201Y0069
X00176Y00676
X00206Y00676
X00258Y00672
X003201Y00642
X001881Y00624
X00378Y006
X003201Y00588
X001881Y00576
X003031Y00558
X003911Y00542
X0019Y00534
X00352Y00488
X00226Y00488
X001881Y0048
X00194Y00452
X002351Y00435
X004041Y00432
X002621Y00419
X002121Y00414
X002621Y00387
X002841Y00384
X001881Y00384
X003321Y00384
X004041Y00384
X004041Y00336
X003801Y00288
X001881Y00288
X002841Y00288
X002361Y00288
X002841Y0024
X003321Y0024
X003801Y0024
X002231Y00229
X002841Y00192
X003321Y00192
X003801Y00192
X002261Y0019
X003091Y00173
X003411Y00173
X002771Y00173
X002001Y00167
X00412Y00124
X0038Y00124
X00316Y00124
X00348Y00124
X0022Y00124
X00188Y00124
X00252Y00124
X00284Y00124
X00604Y00124
X00668Y00124
X00636Y00124
X00508Y00124
X00444Y00124
X00572Y00124
X0054Y00124
X00476Y00124
X00466Y00174
X006505Y002244
X005615Y002368
X006215Y002396
X006681Y0024
X005162Y002442
X004679Y002442
X005001Y00264
X004521Y00264
X005731Y00265
X004761Y00288
X004281Y00288
X005241Y00288
X005741Y003106
X004761Y00312
X004281Y00312
X005241Y00312
X00629Y00329
X00599Y00334
X005001Y00336
X005481Y00336
X004521Y00336
X004281Y0036
X00631Y0036
X004761Y0036
X005241Y0036
X00601Y00365
X0063Y0038
X005001Y00384
X005481Y00384
X00602Y00388
X00634Y00409
X00604Y00414
X005001Y00432
X004521Y00432
X00604Y00434
X00635Y00455
X0053Y00457
X00599Y00468
X0061Y00486
X00636Y00488
X00642Y00541
X004301Y00542
X004701Y00542
X005091Y00542
X005481Y00552
X00611Y00569
X005481Y006
X005731Y00621
X005411Y00621
X004451Y00621
X005091Y00621
X0061Y00624
X00634Y00668
X00676Y0067
X00434Y0067
X005312Y006714
X005793Y006714
X00479Y006716
X004281Y00744
X004761Y00744
X006441Y00744
X005721Y00744
X00522Y00746
X005001Y00804
X004521Y00807
X00623Y00811
X00665Y00815
X004271Y0084
X004511Y00852
X00528Y00856
X006441Y00864
X005961Y00864
X0054Y00904
X005001Y00919
X00472Y00939
X00599Y00953
X004521Y0096
X00491Y00961
X00571Y00972
X0063Y00988
X00594Y00991
X00549Y01002
X00444Y01014
X005241Y01032
X005881Y01034
X004521Y01056
X006321Y01068
X00586Y01071
X005471Y01085
X00596Y01104
X006441Y01104
X00544Y01122
X00462Y01138
X006721Y01163
X005581Y01195
X004601Y01204
X006221Y01204
X00525Y01266
X0056Y01267
X00605Y01267
X006498Y012671
X005481Y01296
X00619Y01299
X00486Y01333
X005961Y01344
X006441Y01344
X00558Y01366
X00538Y01366
X0065Y01404
X00606Y01476
X0063Y01476
X004521Y01488
X004281Y01489
X00662Y01492
X00472Y01508
X00656Y01516
X00498Y01768
X00446Y01784
X004901Y018136
X00432Y01952
X00464Y01956
X00506Y01972
X00674Y0199
X00476Y02014
X0063Y02028
X00544Y0203
X00442Y02038
X00524Y0206
X00501Y02088
X00552Y02232
X00524Y02248
X0044Y02264
X00504Y02266
X00599Y02277
X00577Y02299
X0045Y0232
X00454Y02344
X00568Y0236
X00536Y0236
X00434Y02382
X00536Y02392
X00504Y02392
X00468Y02438
X00554Y02458
X006611Y024901
X004718Y025053
X00667Y02518
X00562Y02519
X00504Y02538
X004692Y025642
X005993Y025695
X00476Y02616
X005Y02622
X00648Y02626
X00474Y0264
X00536Y0264
X00626Y02642
X00544Y02704
X00442Y02708
X00598Y02708
X006Y02732
X00594Y02766
X005286Y027849
X00598Y02824
X00458Y0284
X006599Y028485
X006Y02857
X00605Y028987
X00472Y02904
X00449Y02904
X00461Y029219
X00666Y02974
X006188Y029796
X00454Y02984
X006299Y030012
X00654Y03014
X00616Y03024
X006403Y030509
X006489Y030849
X0059Y03096
X006669Y031245
X00468Y03156
X006228Y031814
X00652Y03192
X0048Y03192
X00628Y03216
X006607Y032551
X004862Y032553
X0049Y032791
X006623Y032841
X006196Y032852
X00586Y03312
X0066Y03326
X004979Y033352
X004489Y033431
X00586Y03348
X00626Y03368
X004349Y03375
X0067Y03386
X004341Y033998
X00626Y03426
X0067Y03426
X0057Y0343
X00596Y03534
X00652Y03534
X00596Y03568
X00544Y03568
X0065Y0357
X00476Y0357
X00546Y03602
X00596Y03602
X0065Y03604
X00596Y03638
X00474Y03638
X00544Y03638
X0065Y03638
X008823Y037175
X009098Y037048
X008781Y036971
X008609Y036867
X008803Y036591
X00863Y036491
X00923Y036458
X0072Y0364
X00798Y0364
X00684Y03638
X008806Y036308
X008607Y036298
X009225Y036124
X008717Y036059
X00686Y03604
X0072Y03604
X00798Y0359
X00873Y0357
X007195Y035558
X008687Y035309
X007618Y035268
X008811Y034985
X009215Y034874
X00708Y03486
X008618Y034775
X008Y03468
X0088Y03455
X0088Y03435
X008207Y033693
X007215Y033648
X009141Y033645
X008824Y03325
X00914Y03324
X008311Y03296
X009153Y032804
X00706Y03256
X008311Y03253
X008802Y032351
X008311Y032149
X007306Y032112
X00716Y0319
X008311Y031773
X00714Y03166
X008657Y03162
X007191Y031423
X008311Y031397
X0069Y03104
X008311Y030978
X007172Y03082
X007656Y030808
X008311Y030645
X0068Y03055
X007175Y030397
X008311Y030281
X007662Y030167
X006978Y030158
X008835Y030034
X008311Y02991
X00708Y02974
X009097Y02956
X007662Y029541
X008299Y029449
X0069Y02942
X00864Y029166
X008152Y029148
X007662Y028966
X00677Y02896
X008152Y028786
X007003Y028715
X007658Y028392
X00827Y028229
X008633Y028167
X008978Y028118
X0069Y0281
X007223Y027931
X00766Y027884
X008155Y027777
X006808Y02768
X009123Y027639
X007658Y027326
X008292Y027299
X007262Y027139
X009173Y026959
X007653Y026861
X008222Y026824
X007099Y026385
X007657Y026325
X008671Y02632
X008326Y026303
X006798Y026263
X007281Y025995
X009035Y025951
X008149Y02588
X00912Y0256
X006896Y02559
X007907Y025548
X0083Y02552
X008747Y025515
X00898Y02517
X006994Y025119
X007201Y024899
X007065Y024689
X008689Y02468
X006937Y024427
X007315Y024049
X00824Y02392
X00856Y02392
X0092Y02392
X00888Y02392
X0092Y0236
X00856Y0236
X00888Y0236
X00856Y02328
X0092Y02328
X00888Y02328
X0092Y02296
X00856Y02296
X00888Y02296
X007904Y022929
X00856Y02264
X00888Y02264
X0092Y02264
X007567Y022124
X00816Y02208
X00888Y022
X00856Y022
X0092Y022
X00804Y02156
X00695Y021532
X00892Y02135
X00864Y02112
X00722Y02106
X00742Y02084
X00889Y020651
X0084Y02064
X00712Y02054
X00706Y02026
X008748Y020259
X00823Y01994
X00868Y01988
X00838Y01812
X00782Y01809
X00884Y01788
X00815Y01776
X00776Y01774
X0086Y01748
X00784Y01743
X00897Y01735
X008793Y016562
X007637Y016562
X0082Y016562
X007971Y016075
X008524Y016071
X00906Y01606
X00749Y01602
X008823Y015601
X008245Y015586
X007698Y015586
X008563Y015312
X009229Y015293
X007981Y015234
X00686Y01508
X007881Y01496
X007401Y01496
X007204Y013963
X00874Y01368
X00789Y0135
X007401Y01344
X009142Y013393
X00846Y01334
X00698Y01325
X0077Y01319
X00836Y01297
X006921Y01296
X008841Y01296
X007401Y01296
X007881Y01296
X00892Y01264
X007979Y012638
X008446Y012634
X007503Y012634
X007016Y012632
X007401Y012
X007881Y012
X008361Y012
X008841Y012
X00765Y01184
X00905Y01181
X00811Y01178
X00861Y01178
X008251Y01036
X00922Y01036
X008701Y01018
X00815Y01012
X00788Y00954
X007881Y00864
X006921Y00864
X007401Y00864
X00834Y00833
X00722Y00829
X00754Y00822
X00893Y00804
X008572Y007921
X007641Y00792
X00725Y00789
X00749Y00758
X006921Y00744
X00852Y00742
X00822Y00732
X0079Y00707
X00839Y007007
X00706Y0067
X007863Y006693
X00739Y00659
X0077Y00643
X007001Y00627
X008801Y00627
X0075Y00618
X006921Y006
X008491Y00599
X006921Y00552
X008121Y00552
X00922Y00533
X008158Y005191
X00765Y005
X00808Y0048
X009091Y00477
X00768Y00464
X007401Y00432
X008961Y00432
X007881Y00432
X00817Y00422
X007401Y00384
X007881Y00384
X009141Y00371
X007271Y00353
X007401Y00336
X008961Y00333
X009011Y00292
X007161Y00288
X008601Y00288
X00925Y00266
X006911Y00265
X00838Y0026
X008961Y00252
X008601Y0024
X008121Y0024
X008201Y00192
X007641Y00173
X00732Y00124
X00796Y00124
X00764Y00124
X007Y00124
X0086Y00124
X00892Y00124
X00924Y00124
X00828Y00124
X01084Y00124
X00956Y00124
X01052Y00124
X01116Y00124
X0102Y00124
X00988Y00124
X01148Y00126
X011141Y00166
X010281Y00168
X009771Y00197
X010081Y00225
X011241Y0024
X010761Y0024
X010041Y00288
X011241Y00288
X010761Y00288
X0099Y0032
X01172Y00324
X011241Y00336
X010731Y0035
X010011Y00354
X01165Y00371
X01092Y00381
X00991Y00387
X01131Y00395
X01173Y00413
X0093Y00415
X010011Y0042
X011241Y00432
X011731Y00457
X01042Y00462
X01144Y00468
X00988Y00472
X009561Y0048
X011731Y00501
X00927Y00505
X00982Y00505
X01104Y0052
X010041Y00528
X009561Y00528
X00983Y00561
X010731Y00561
X010431Y00561
X01013Y00561
X009531Y00561
X0117Y00584
X011161Y00606
X009661Y00606
X009961Y00606
X010261Y00606
X010561Y00606
X010861Y00606
X01147Y00649
X01154Y00686
X010371Y00695
X009471Y00695
X009771Y00695
X010671Y00695
X010071Y00695
X009471Y00719
X010371Y00719
X010071Y00719
X009771Y00719
X0114Y00724
X01106Y00724
X01161Y00726
X0107Y00731
X009801Y00744
X009321Y00744
X01095Y00751
X01132Y00751
X01071Y00764
X00957Y00765
X009321Y00792
X009801Y00792
X009591Y00837
X01046Y00858
X01018Y00872
X0099Y00872
X0117Y00916
X01116Y00918
X01118Y00958
X01079Y0096
X011491Y009775
X010524Y011121
X01162Y011523
X01089Y01153
X011721Y012
X011241Y012
X009321Y012
X011241Y01248
X010835Y012632
X009397Y012634
X009879Y012636
X010348Y012636
X009321Y01296
X009801Y01296
X011721Y01296
X011241Y01296
X010281Y01296
X010761Y01296
X009801Y01344
X010761Y01344
X010281Y01344
X011241Y01344
X010148Y014305
X00961Y01431
X011611Y014319
X011721Y01488
X011241Y01488
X009561Y014911
X010647Y014916
X010085Y014926
X010378Y015239
X009791Y015263
X011683Y01536
X010761Y01536
X011241Y01536
X009493Y01565
X01104Y01584
X01152Y01584
X010262Y016065
X010843Y016065
X009653Y016245
X011241Y01632
X011721Y01632
X01063Y016576
X00944Y016584
X010017Y016588
X011102Y017283
X00959Y017284
X00988Y01752
X010456Y017776
X009491Y017798
X010949Y017803
X009321Y01824
X009801Y01824
X010761Y01824
X010281Y01824
X0116Y01825
X01123Y01829
X01138Y01926
X010741Y019718
X011281Y019718
X009941Y019752
X0094Y019752
X010388Y020268
X009847Y020268
X011258Y020317
X009321Y02064
X011678Y020709
X010728Y020797
X010441Y021092
X010981Y021092
X009321Y02112
X010106Y02157
X009321Y0216
X01144Y022
X01112Y022
X01048Y022
X00984Y022
X00952Y022
X01016Y022
X0108Y022
X01112Y02232
X01144Y02232
X0108Y02232
X01048Y02232
X00984Y02232
X00952Y02232
X01016Y02232
X0108Y02264
X01144Y02264
X01112Y02264
X00984Y02264
X01048Y02264
X01016Y02264
X00984Y02296
X01144Y02296
X01112Y02296
X00952Y02296
X01016Y02296
X0108Y02296
X01048Y02296
X01144Y02328
X0108Y02328
X01048Y02328
X01016Y02328
X01112Y02328
X01112Y0236
X00984Y0236
X01016Y0236
X01144Y0236
X0108Y0236
X01048Y0236
X01016Y02392
X0108Y02392
X01112Y02392
X00984Y02392
X01144Y02392
X01048Y02392
X011499Y024368
X01086Y0245
X010474Y024639
X009814Y025014
X010294Y025014
X009334Y025014
X01138Y02504
X01162Y02504
X01122Y0253
X01012Y02558
X009806Y025615
X009369Y025687
X009748Y025877
X01038Y02598
X009805Y026116
X009986Y026282
X009409Y026298
X010418Y026356
X010756Y026469
X01173Y0265
X01033Y026859
X010883Y026959
X009682Y026959
X009983Y027474
X010506Y027474
X00945Y027518
X011235Y027763
X009955Y027913
X010385Y027922
X010852Y027932
X011637Y02796
X011226Y028221
X009476Y028658
X010702Y028663
X011254Y02867
X0101Y028685
X009419Y029047
X010273Y029087
X01016Y02956
X009738Y029756
X009291Y02989
X011544Y030334
X010184Y03046
X00976Y030488
X00996Y0308
X01131Y030932
X011703Y030979
X01047Y031098
X010964Y031147
X009548Y031227
X011338Y031315
X010974Y031437
X00952Y03188
X011217Y032081
X011637Y032091
X009777Y032389
X01006Y03326
X010689Y033342
X009387Y033367
X011465Y033602
X010362Y0337
X010222Y034101
X010942Y034177
X00985Y034277
X010546Y034373
X0114Y034378
X010747Y03485
X01131Y034936
X010422Y035198
X00944Y03524
X009907Y035274
X011668Y035837
X010938Y035971
X009535Y036124
X011462Y036171
X010064Y036291
X011721Y03648
X011241Y03648
X010475Y036591
X010895Y036606
X009964Y036615
X011489Y037028
X011153Y037052
X009411Y03706
X010858Y037105
X010594Y037121
X00968Y037139
X01028Y03714
X009933Y037178
X011794Y037045
X012047Y037024
X012306Y036738
X012526Y036524
X012717Y036328
X012016Y036133
X013004Y036081
X012126Y035661
X01277Y035556
X013635Y035466
X011892Y035389
X01323Y03526
X01221Y03526
X012817Y035122
X012402Y035048
X01393Y03501
X013423Y034883
X01404Y034822
X01356Y03444
X012106Y034354
X012717Y034311
X013261Y034296
X013805Y034106
X013328Y0339
X012374Y033743
X013628Y033667
X013127Y033457
X012507Y033409
X013758Y03281
X01392Y03254
X0133Y03236
X012982Y032344
X0136Y0323
X012413Y032294
X0142Y03212
X012829Y032108
X01378Y03208
X013294Y032043
X012655Y031437
X011899Y031268
X014018Y031171
X012482Y031167
X013075Y031028
X013689Y030959
X012788Y030557
X012146Y030515
X011869Y0302
X0136Y03012
X01264Y02996
X012254Y029764
X013567Y029678
X012619Y029352
X012151Y029278
X013543Y029117
X013177Y029064
X012404Y028885
X011787Y028782
X012123Y02867
X012619Y028539
X014002Y028464
X013516Y028455
X013021Y028455
X011806Y028352
X01236Y02828
X012039Y027997
X013114Y027988
X012628Y027988
X013965Y027978
X013516Y027978
X012294Y027291
X013196Y027291
X013722Y027257
X01249Y02651
X01406Y0265
X01314Y0265
X01376Y02598
X01352Y02582
X0141Y02578
X013851Y025
X01346Y02496
X01422Y02442
X013887Y024372
X013407Y024372
X012927Y024372
X011979Y024368
X012459Y024368
X01336Y02392
X01304Y02392
X01272Y02392
X013681Y02392
X01208Y02392
X01176Y02392
X0124Y02392
X014Y02392
X01176Y0236
X01336Y0236
X01304Y0236
X013681Y0236
X014Y0236
X01208Y0236
X01272Y0236
X0124Y0236
X0124Y02328
X01272Y02328
X01304Y02328
X01336Y02328
X014Y02328
X01208Y02328
X01176Y02328
X01368Y02328
X01176Y02296
X013681Y02296
X01208Y02296
X01336Y02296
X013041Y02296
X0124Y02296
X01272Y02296
X014Y02296
X01176Y02264
X01304Y02264
X01272Y02264
X01336Y02264
X013681Y02264
X014Y02264
X01208Y02264
X0124Y02264
X01176Y02232
X01304Y02232
X01272Y02232
X01208Y02232
X01336Y02232
X01368Y02232
X013999Y02232
X0124Y02232
X01272Y022
X013999Y022
X01208Y022
X01368Y022
X01336Y022
X01304Y022
X01176Y022
X0124Y022
X013924Y021647
X01244Y02144
X011789Y021274
X012932Y021058
X013473Y021058
X014017Y02096
X012219Y020709
X01328Y02062
X012697Y020547
X014037Y020503
X011799Y020317
X014042Y019939
X013021Y01988
X012481Y01988
X011887Y019212
X012094Y019212
X012638Y019158
X013178Y019158
X013737Y019124
X012128Y018721
X01189Y018721
X013875Y018613
X01324Y01854
X01242Y01843
X013181Y018284
X012Y01824
X01368Y01802
X014081Y018005
X012864Y017744
X0119Y01755
X01236Y01737
X01416Y017347
X01368Y01734
X012663Y01665
X014101Y016473
X012681Y01632
X012287Y01631
X013155Y016262
X01302Y01587
X012681Y01584
X014121Y01584
X012287Y01583
X011956Y015767
X014121Y01536
X012681Y01536
X012256Y015358
X013033Y01502
X012201Y01488
X014174Y014868
X01252Y01448
X013641Y0144
X014121Y0144
X01421Y01393
X01268Y01378
X014121Y01344
X012681Y01344
X013641Y01344
X0132Y01338
X01222Y01332
X01368Y01298
X014121Y01296
X012518Y012696
X014143Y012504
X011992Y012489
X012681Y01248
X013193Y012119
X014121Y012
X012532Y011995
X01209Y01187
X01283Y01165
X01319Y011634
X012509Y011523
X01214Y0114
X01412Y011303
X01278Y01117
X013196Y011109
X012539Y010877
X01412Y010619
X01319Y010598
X01283Y01055
X011916Y010254
X01257Y010247
X013205Y010101
X01289Y00993
X014067Y009912
X012Y00983
X012681Y0096
X013193Y009535
X01234Y0095
X012023Y009213
X01318Y00919
X01239Y00916
X012694Y009044
X01205Y00884
X012705Y008761
X01318Y00875
X0123Y0087
X01384Y00854
X012699Y008486
X01318Y00831
X01396Y00828
X013641Y00816
X0127Y00812
X01396Y008
X01238Y00796
X0127Y00788
X01318Y00787
X01294Y00756
X013641Y0072
X013188Y007143
X01204Y00692
X01246Y00676
X013641Y00672
X01396Y00672
X01204Y0066
X012972Y006424
X01396Y00634
X01304Y00618
X013Y00585
X01398Y00585
X01258Y00578
X01376Y00565
X01223Y00546
X01305Y00546
X01398Y00545
X01376Y00525
X01267Y00513
X01397Y00505
X01223Y00503
X01376Y00485
X013161Y0048
X01258Y00472
X01223Y00469
X01354Y00447
X0126Y0044
X012201Y00432
X013161Y00432
X014121Y00432
X0135Y00398
X012201Y00384
X012681Y00384
X01356Y00373
X0141Y00353
X012681Y00336
X013161Y00336
X012201Y00336
X01414Y0032
X013161Y00288
X012201Y00288
X012681Y00288
X01176Y00286
X01366Y00284
X01176Y00254
X012201Y0024
X013161Y0024
X012681Y0024
X01176Y00222
X013641Y00192
X012681Y00192
X013161Y00192
X01176Y0019
X01176Y00158
X014121Y00144
X012681Y00144
X013161Y00144
X01212Y00126
X0118Y00126
X0141Y00096
X014601Y00144
X014601Y0024
X0148Y00286
X0145Y00308
X015318Y003252
X015054Y0033
X01476Y00342
X0156Y00348
X014406Y00352
X01461Y00369
X015129Y00393
X015491Y003971
X0159Y00422
X015081Y00432
X014601Y00432
X014601Y0048
X015081Y0048
X015561Y0048
X0151Y00524
X014601Y00528
X015561Y00528
X01494Y00548
X01554Y00564
X01504Y00572
X014601Y00576
X01542Y00586
X0158Y0059
X01554Y0062
X01506Y0063
X0158Y0065
X015561Y00672
X01506Y00672
X01506Y00718
X015561Y0072
X01494Y00753
X01536Y00772
X01544Y00796
X01604Y008
X0149Y00812
X01564Y00842
X01525Y00845
X01516Y00886
X01591Y00903
X01488Y00918
X01561Y009363
X0146Y00938
X0146Y00964
X01561Y00972
X015561Y01008
X015017Y010087
X01596Y01032
X01428Y01036
X015561Y01056
X015017Y01128
X01435Y01161
X016521Y012
X015561Y012
X016041Y012
X01504Y01216
X01652Y01247
X016041Y01344
X015561Y01344
X015081Y01344
X016521Y01344
X015561Y01392
X015081Y01392
X016041Y01392
X016521Y01392
X016041Y0144
X016041Y01488
X01649Y01488
X01512Y01498
X015081Y01536
X015561Y01536
X016041Y01536
X01653Y0155
X015561Y01584
X01523Y01595
X015561Y01632
X0152Y01656
X01597Y01658
X01516Y01692
X01597Y01707
X01581Y01749
X015446Y017538
X014906Y017538
X01492Y01798
X01526Y017995
X01564Y01815
X01526Y0184
X01436Y0186
X014989Y018618
X01553Y018618
X01498Y01908
X015392Y019094
X014278Y019124
X0153Y019466
X01568Y01953
X01537Y01986
X01564Y01997
X015882Y020199
X01504Y02027
X015877Y020763
X015858Y02122
X014984Y021293
X01496Y02168
X01528Y02168
X0156Y02168
X01594Y02168
X01432Y022
X0156Y022
X01528Y022
X01594Y022
X01496Y022
X0156Y02232
X01528Y02232
X01496Y02232
X01432Y02232
X01594Y02232
X01432Y02264
X0156Y02264
X01528Y02264
X01594Y02264
X01496Y02264
X0156Y02296
X01528Y02296
X01496Y02296
X01432Y02296
X01594Y02296
X0156Y02328
X01594Y02328
X01432Y02328
X01528Y02328
X01496Y02328
X0156Y0236
X01528Y0236
X01496Y0236
X01594Y0236
X01432Y0236
X01594Y02392
X01528Y02392
X01496Y02392
X0156Y02392
X01432Y02392
X0156Y02424
X01594Y02424
X01496Y02424
X01528Y02424
X0156Y02456
X01528Y02456
X01594Y02456
X01496Y02456
X01436Y02472
X01478Y02482
X0156Y02488
X01528Y02488
X01594Y02488
X015273Y025146
X015197Y02538
X0145Y02552
X015011Y025722
X01438Y02578
X015027Y02597
X01526Y02614
X01513Y02644
X01446Y02646
X0159Y02653
X0145Y0267
X016198Y027567
X015722Y027567
X015282Y027577
X01475Y027577
X014301Y027707
X016189Y028044
X01575Y028053
X015254Y028081
X014357Y028091
X014834Y028147
X014507Y028455
X014341Y029265
X015259Y029462
X015105Y029739
X01438Y029861
X014642Y030491
X015239Y030787
X014656Y031028
X014536Y031344
X0154Y0314
X015032Y031501
X01428Y03175
X014854Y031846
X01558Y03188
X01508Y03208
X015242Y032525
X01442Y03262
X01488Y03284
X014531Y033008
X01496Y03326
X014829Y03361
X014517Y033954
X014488Y034244
X014272Y034424
M30
