%
T1C.004F0S0
X-00418Y00268
X-0043Y00268
X-00442Y0029
X-00382Y0029
X-00406Y00312
X-00454Y00312
X-00336Y00312
X-0043Y00312
X-00358Y00312
X-00382Y00312
X-00448Y00336
X-00436Y00356
X-00467Y00359
X-00386Y00364
X-00396Y00392
X-0037Y00394
X-00432Y004
X-00452Y00404
X-00472Y00408
X-00406Y00408
X-0038Y00426
X-00476Y00432
X-00385Y00449
X-00406Y0045
X-00438Y00454
X-0035Y00462
X-00474Y00464
X-00436Y0047
X-00396Y00478
X-00348Y0048
X-00476Y00486
X-00398Y005
X-00368Y005
X-00476Y00508
X-00388Y0051
X-00402Y00516
X-00442Y00518
X-00328Y00524
X-00384Y00528
X-00476Y0053
X-00328Y00545
X-00384Y00545
X-00442Y00546
X-00476Y00552
X-00328Y00569
X-00384Y00576
X-00412Y00592
X-00328Y00593
X-00384Y00593
X-00448Y00602
X-00328Y0062
X-00384Y00624
X-00446Y00634
X-00384Y00641
X-00344Y0065
X-00446Y00653
X-00394Y00658
X-00344Y00664
X-00384Y00674
X-0033Y00678
X-00344Y00678
X-00384Y0069
X-0033Y00692
X-00344Y00692
X-00446Y007
X-00394Y00704
X-00344Y00706
X-0033Y00706
X-00344Y0072
X-0038Y00724
X-00446Y00728
X-00339Y00735
X-00367Y00737
X-00412Y00738
X-00446Y00754
X-00359Y00756
X-00342Y0077
X-00476Y00772
X-00446Y00778
X-004839Y00792
X-00326Y00798
X-00466Y0081
X-00384Y00811
X-00428Y00812
X-00436Y00826
X-0047Y00828
X-00326Y0083
X-00384Y00835
X-00488Y0084
X-00436Y00844
X-00398Y00848
X-00384Y00859
X-00466Y0087
X-00398Y0087
X-00384Y00883
X-00466Y0089
X-00384Y00906
X-00422Y00918
X-00476Y00922
X-00476Y00938
X-00416Y00943
X-00328Y00954
X-00476Y0096
X-00488Y0096
X-0035Y009791
X-00376Y00996
X-00428Y00998
X-00352Y01
X-00476Y01004
X-00388Y01016
X-00358Y01022
X-004724Y010307
X-00358Y01034
X-00346Y01072
X-00389Y011109
X-004774Y011264
X-00442Y0115
X-004027Y01161
X-004739Y011816
X-00442Y01182
X-00479Y012145
X-004561Y012153
X-003798Y012267
X-004237Y012302
X-00342Y01242
X-004737Y012538
X-004382Y012569
X-004717Y012855
X-00364Y01292
X-003987Y013154
X-00328Y01332
X-004066Y013381
X-00526Y01342
X-00486Y01344
X-004737Y013552
X-00439Y013617
X-004096Y013693
X-0052Y01372
X-00556Y0138
X-00337Y01385
X-00574Y01396
X-0052Y01404
X-00472Y01404
X-004157Y014066
X-00556Y01412
X-003791Y014206
X-00574Y01428
X-004448Y014331
X-00472Y01436
X-00334Y01454
X-00574Y01466
X-004192Y014707
X-003741Y014833
X-00334Y01484
X-00574Y01498
X-00326Y015
X-00452Y01506
X-00484Y0151
X-00556Y01518
X-00572Y01534
X-00452Y01538
X-00484Y01542
X-00556Y0155
X-00446Y0156
X-00394Y0156
X-00568Y01566
X-00546Y01584
X-00514Y01584
X-00502Y01586
X-00394Y01592
X-00446Y01592
X-00342Y01596
X-003719Y0161
X-00502Y01618
X-0042Y01638
X-0046Y01652
X-005Y01658
X-0042Y0167
X-0046Y01684
X-005Y0169
X-0039Y01714
X-005Y01722
X-0039Y01746
X-00422Y01746
X-005Y01754
X-00488Y01764
X-00422Y01778
X-00488Y01796
X-0039Y0183
X-00488Y01832
X-0039Y01842
X-00488Y01864
X-00428Y0187
X-00414Y0187
X-0039Y01874
X-00488Y01902
X-0039Y01906
X-00416Y0191
X-00488Y01934
X-00416Y01942
X-003454Y019545
X-003272Y019558
X-00488Y01966
X-0042Y0197
X-00488Y01998
X-00338Y02
X-00338Y02012
X-00488Y0203
X-00326Y0206
X-00488Y02062
X-00342Y02076
X-0049Y0209
X-00354Y02094
X-00394Y02102
X-0049Y02122
X-00394Y02134
X-00504Y02148
X-00348Y02156
X-00504Y0218
X-00348Y02188
X-00348Y02208
X-00504Y02216
X-004Y02218
X-00348Y0224
X-00504Y02248
X-004Y0225
X-00504Y02284
X-00504Y02316
X-004137Y023452
X-00504Y02352
X-003402Y023552
X-003271Y023552
X-004137Y023552
X-00504Y02384
X-00504Y0242
X-00396Y02426
X-00504Y02452
X-003324Y024642
X-00504Y02488
X-00504Y0252
X-0041Y0255
X-005075Y025635
X-00368Y02588
X-0049Y02598
X-00358Y02604
X-00334Y02618
X-00488Y02624
X-0041Y02636
X-004Y02642
X-00488Y02656
X-00356Y02662
X-00412Y02674
X-004Y0268
X-00364Y02686
X-00488Y02688
X-00344Y02696
X-004Y02704
X-00412Y02706
X-00361Y02711
X-00486Y0272
X-00372Y0275
X-00486Y02752
X-00346Y0277
X-00332Y02778
X-00418Y0278
X-00488Y02788
X-00418Y02802
X-00488Y0282
X-0036Y02822
X-00418Y02838
X-003498Y028507
X-00488Y02854
X-0041Y02868
X-00418Y02886
X-00488Y02886
X-00364Y02918
X-00494Y02924
X-00364Y02934
X-00494Y02956
X-00374Y02974
X-0033Y02986
X-00494Y02988
X-003638Y030006
X-00494Y0302
X-004092Y030231
X-00439Y0303
X-00486Y03054
X-00486Y03086
X-0047Y03122
X-0047Y03154
X-00334Y03168
X-004022Y031794
X-00448Y03184
X-003688Y031889
X-00448Y03216
X-00428Y03242
X-003887Y032714
X-00348Y03272
X-00428Y03274
X-003665Y032922
X-00338Y03316
X-0041Y03318
X-003867Y033235
X-00398Y03338
X-00365Y033447
X-00338Y03348
X-00382Y03348
X-00382Y0338
X-003278Y034065
X-00328Y0344
X-00328Y03472
X-00106Y03722
X-00106Y0369
X-00112Y03676
X-00108Y03654
X-00154Y03628
X-001038Y036024
X-00154Y03596
X-00218Y03582
X-00178Y03582
X-000794Y035809
X-0012Y03568
X-00218Y0355
X-00178Y0355
X-002554Y035438
X-00152Y035406
X-000814Y035332
X-00226Y0353
X-001089Y035036
X-00168Y035
X-00226Y03498
X-00284Y03494
X-000916Y034894
X-00252Y0347
X-00284Y03462
X-00095Y034607
X-00284Y03448
X-00252Y03438
X-001326Y034354
X-002205Y03434
X-003Y03432
X-00308Y034
X-002262Y033927
X-00126Y0338
X-000925Y03365
X-00166Y03364
X-00078Y03354
X-00312Y03348
X-00126Y03336
X-0009Y03334
X-001768Y03325
X-00176Y033067
X-001255Y032855
X-002Y03284
X-00324Y0327
X-002Y03252
X-000824Y03248
X-00324Y03238
X-002053Y032279
X-00278Y03162
X-000791Y031503
X-001683Y03145
X-001891Y031442
X-00112Y03142
X-00152Y03056
X-0023Y03054
X-002Y03046
X-00298Y0304
X-00268Y03024
X-000896Y030191
X-003153Y030151
X-00192Y03012
X-001066Y030087
X-00284Y03006
X-002631Y030057
X-002528Y029501
X-000902Y029368
X-001791Y029361
X-00258Y02908
X-00124Y02904
X-00324Y02904
X-00277Y02887
X-001715Y028813
X-001893Y028792
X-002508Y028676
X-001334Y028561
X-00284Y028554
X-002189Y028523
X-001732Y028506
X-001237Y02842
X-00284Y02838
X-001931Y028279
X-001556Y028182
X-00104Y02818
X-00082Y02818
X-000902Y027827
X-00286Y02776
X-00192Y02772
X-00208Y02772
X-00248Y02766
X-00144Y02762
X-00282Y0274
X-00144Y0274
X-00254Y02738
X-00316Y027306
X-00242Y02724
X-00194Y02722
X-0017Y02668
X-00276Y0266
X-001865Y026583
X-000946Y026541
X-00216Y02654
X-00112Y02652
X-00156Y0264
X-00174Y02634
X-00244Y0263
X-00214Y0263
X-00188Y02624
X-002574Y026102
X-00104Y0261
X-001317Y025792
X-001676Y025719
X-001744Y025462
X-001594Y025397
X-00242Y02532
X-00208Y02532
X-00258Y02524
X-001418Y025231
X-00112Y02512
X-00088Y02512
X-00296Y02504
X-001Y025
X-00312Y02498
X-00128Y024965
X-00164Y0249
X-00244Y02488
X-003185Y024781
X-00258Y02478
X-0023Y02476
X-00178Y02476
X-00194Y02444
X-0021Y02442
X-00284Y02436
X-0025Y02434
X-00182Y02432
X-00272Y0241
X-00284Y0241
X-00232Y0239
X-00248Y0239
X-0015Y0237
X-00178Y0237
X-00204Y0235
X-00184Y02328
X-002907Y023223
X-0022Y0232
X-002188Y022704
X-002188Y022603
X-001592Y022436
X-00202Y02242
X-001592Y022326
X-00174Y02218
X-001223Y022109
X-002229Y021958
X-001477Y021631
X-0016Y021631
X-002105Y021508
X-002223Y021508
X-0031Y02148
X-00278Y02148
X-00108Y02138
X-00294Y02132
X-00252Y0213
X-00234Y0213
X-0014Y02126
X-00124Y02126
X-00108Y02126
X-00216Y02122
X-00278Y02116
X-00108Y02114
X-00196Y0211
X-00252Y02106
X-00234Y02106
X-00156Y02102
X-0014Y02102
X-00124Y02102
X-00278Y02096
X-00252Y02094
X-00234Y02094
X-00196Y02078
X-00216Y02078
X-00252Y02058
X-00234Y02058
X-0014Y02058
X-00124Y02058
X-00108Y0205
X-00234Y02046
X-0031Y02044
X-00216Y02034
X-00196Y02034
X-00176Y02034
X-00156Y02034
X-0014Y02034
X-00124Y02034
X-00108Y02034
X-00092Y02034
X-00322Y02
X-00296Y01914
X-001819Y019085
X-001927Y019078
X-001927Y018968
X-001819Y018968
X-00238Y01884
X-0031Y01864
X-0031Y01832
X-000932Y018283
X-001098Y018283
X-000775Y018283
X-0027Y01822
X-00204Y01822
X-00316Y01814
X-000938Y018119
X-001098Y018119
X-000766Y018119
X-00316Y01802
X-00296Y01786
X-0011Y01777
X-00178Y01766
X-00098Y01761
X-00296Y01754
X-00259Y0172
X-00318Y0172
X-00144Y0165
X-002021Y016395
X-00157Y01634
X-00188Y01616
X-002687Y016047
X-003128Y016005
X-002782Y015845
X-001346Y015786
X-00198Y01572
X-0032Y01569
X-002675Y015594
X-00134Y01554
X-00307Y015484
X-00134Y01536
X-001935Y015295
X-00105Y015126
X-002746Y015049
X-001987Y014996
X-001043Y014902
X-00177Y01475
X-00256Y01466
X-001039Y01464
X-00148Y01462
X-0026Y01452
X-002006Y014413
X-000759Y0144
X-0011Y0144
X-0027Y0144
X-00144Y01428
X-00298Y01428
X-001039Y01416
X-002713Y014157
X-00178Y01414
X-00076Y01402
X-00208Y01378
X-00239Y01375
X-0015Y0137
X-00193Y01361
X-002367Y013544
X-00138Y01354
X-00322Y01353
X-002199Y01344
X-001719Y01344
X-00156Y01332
X-001959Y0132
X-002357Y013126
X-001Y01312
X-002199Y01296
X-00154Y01288
X-0032Y0128
X-001899Y01267
X-000747Y01266
X-0011Y01252
X-002189Y01245
X-000799Y01211
X-002189Y01201
X-00254Y01166
X-002189Y01157
X-0012Y01154
X-00104Y01152
X-002184Y011367
X-00256Y01122
X-00076Y0112
X-00104Y01118
X-0014Y01104
X-00092Y01104
X-00322Y01102
X-002203Y010989
X-001479Y0108
X-000999Y0108
X-0013Y0106
X-00204Y01058
X-00146Y01044
X-00252Y01034
X-001129Y01032
X-001479Y01008
X-00198Y01004
X-00252Y01004
X-001129Y01
X-00252Y00992
X-00093Y009655
X-00234Y0094
X-00246Y0094
X-00146Y00938
X-00324Y0093
X-00252Y00918
X-00154Y00912
X-003199Y009107
X-001469Y00869
X-00248Y00864
X-00248Y00852
X-00248Y00816
X-00248Y00804
X-00248Y00792
X-000999Y00792
X-00316Y00784
X-00124Y00746
X-001479Y00744
X-000999Y00744
X-00308Y00744
X-002459Y007419
X-00246Y0073
X-00308Y00728
X-000999Y00696
X-002459Y006939
X-00246Y00682
X-001809Y00681
X-00246Y00658
X-00246Y00646
X-00246Y00634
X-001829Y00626
X-001329Y00626
X-0017Y00614
X-00248Y0061
X-000999Y006
X-00248Y00598
X-001709Y00593
X-001959Y00552
X-000999Y00552
X-001479Y00552
X-00248Y00552
X-00166Y0053
X-00192Y0052
X-000999Y00504
X-001479Y00504
X-00236Y00484
X-001469Y0047
X-001809Y00469
X-00204Y00466
X-000999Y00456
X-001218Y004546
X-0018Y00442
X-00208Y00426
X-002214Y004178
X-002207Y00395
X-001938Y003935
X-000981Y003933
X-001556Y003931
X-003Y00384
X-00094Y0038
X-00286Y0037
X-00151Y00367
X-00274Y00358
X-00094Y00348
X-00286Y00346
X-001239Y00336
X-00274Y00334
X-00262Y00334
X-0025Y00334
X-00152Y00326
X-00238Y00322
X-00286Y00322
X-00094Y00314
X-0022Y00306
X-00094Y003
X-00184Y00288
X-001239Y00288
X-002199Y00288
X-00094Y00286
X-00094Y0027
X-0024Y00264
X-00164Y00258
X-0022Y00256
X-00142Y00248
X-00184Y0024
X-0024Y00216
X-00166Y00214
X-001239Y00192
X-00094Y00184
X-00192Y00168
X-0024Y00168
X-00216Y00168
X-0015Y00166
X-00094Y00152
X-0024Y0012
X-00144Y0012
X-00288Y0012
X-00094Y0012
X-00192Y0012
X-00096Y00072
X-0024Y00072
X-00144Y00072
X-00288Y00072
X-00192Y00072
X00108Y00124
X00076Y00124
X00044Y00124
X-00052Y00124
X-0002Y00124
X0014Y00124
X00012Y00124
X00172Y00124
X00164Y0023
X00164Y0025
X001631Y00282
X-000109Y00286
X00152Y00294
X001631Y00326
X-000469Y00327
X001181Y00328
X001655Y003652
X001121Y003901
X-000033Y003913
X000431Y003931
X-000505Y003934
X-00038Y00394
X001579Y00394
X001417Y00409
X-000519Y00456
X000441Y00456
X001417Y00457
X00131Y00481
X001301Y00499
X-000519Y00504
X000921Y00504
X-000039Y00504
X0013Y00524
X001301Y00543
X001711Y00546
X000441Y00552
X-000039Y00552
X-000519Y00552
X001301Y00587
X-000039Y006
X000441Y006
X-000519Y006
X001301Y00631
X-000039Y00648
X000441Y00648
X-000519Y00648
X0014Y00652
X0017Y0066
X00158Y0066
X00134Y00678
X00146Y00678
X001401Y00696
X-000039Y00696
X-000519Y00696
X000441Y00696
X000441Y00744
X000921Y00744
X-000519Y00744
X-000039Y00744
X-000039Y00792
X001401Y00792
X000921Y00792
X-000519Y00792
X000441Y00792
X000441Y0084
X-000039Y0084
X000921Y0084
X001501Y0085
X-000519Y00888
X00152Y00928
X-000039Y00938
X00072Y00938
X000371Y00941
X00148Y00944
X00092Y0095
X00174Y00962
X-000249Y00967
X00096Y00968
X001151Y00991
X001001Y00991
X000064Y009918
X00068Y00998
X-00056Y01008
X-00008Y01008
X00173Y01018
X-00056Y0104
X-00008Y0104
X000191Y01059
X-00038Y01062
X-00006Y01062
X-000629Y01073
X-000279Y01128
X001371Y0113
X000791Y01146
X-00044Y01152
X-000739Y01158
X-000148Y011601
X000572Y01202
X000215Y01218
X000461Y012182
X000024Y012182
X001039Y012209
X001509Y012209
X000203Y012658
X-000272Y01266
X000687Y012665
X001172Y012669
X001659Y012669
X-00008Y01296
X-00064Y01298
X000331Y01306
X000211Y01306
X000451Y01306
X000571Y01306
X000691Y01306
X000091Y0131
X-000189Y01311
X000091Y01322
X000091Y01334
X000451Y01338
X000091Y01346
X-00036Y01346
X000091Y01358
X-0001Y01366
X000451Y01366
X00168Y01368
X00144Y01368
X0012Y01368
X000091Y0137
X000091Y01382
X-00064Y01384
X001641Y01392
X001161Y01392
X000691Y01398
X-0001Y01398
X000571Y01398
X-00028Y01404
X00072Y01418
X00018Y01418
X-00052Y01446
X-0004Y01458
X-00072Y01458
X-00044Y01474
X00136Y01476
X-00004Y01482
X00158Y0149
X-00072Y01498
X00156Y01512
X0005Y01516
X-00026Y01516
X00144Y01524
X-00016Y0155
X00154Y015611
X-00028Y0157
X00032Y01574
X001378Y015855
X00026Y01604
X00108Y01608
X-00068Y01616
X00138Y01638
X00164Y01638
X-000618Y016516
X00032Y01652
X-00034Y01652
X-00034Y01676
X-00064Y01678
X-00048Y01678
X-00064Y01696
X00122Y01758
X-00046Y01772
X00054Y01772
X-0006Y01772
X00148Y01784
X00113Y01784
X0012Y01882
X0006Y01884
X-00042Y01892
X-00018Y01892
X-0003Y01892
X00116Y019
X-0005Y01904
X-00038Y01904
X00166Y0193
X001711Y019569
X001014Y019789
X000295Y019789
X00053Y019789
X000801Y019789
X-000044Y019793
X-00011Y020043
X-00024Y020043
X00166Y02043
X00118Y02054
X00008Y02072
X0015Y0208
X-00008Y02081
X00046Y02104
X-00064Y02124
X-00052Y02124
X00012Y02124
X00054Y02124
X0Y02124
X00084Y02128
X00114Y02134
X00066Y02136
X00144Y02162
X00112Y02166
X0009Y02166
X-00034Y02192
X0012Y02202
X00026Y02202
X00142Y02214
X00094Y02218
X00078Y02234
X00004Y02238
X-00036Y02238
X00164Y02272
X-00018Y02288
X00156Y02298
X00036Y02298
X00154Y02362
X00038Y02402
X00006Y02402
X0006Y02404
X00076Y0241
X00146Y02414
X0013Y02416
X00146Y02426
X000301Y0243
X00017Y0243
X-0002Y02442
X-00068Y02454
X-00018Y02458
X00148Y02462
X-00042Y02467
X-0007Y0247
X00015Y02476
X00104Y02492
X00132Y02502
X-00042Y02512
X0005Y02512
X00002Y02512
X-0007Y02512
X00118Y02513
X-000413Y025392
X001045Y02552
X00044Y02566
X-000525Y025694
X-000704Y025858
X-00056Y02594
X00076Y02594
X00108Y02598
X-0007Y02604
X0Y02606
X00084Y02608
X0003Y02614
X-00036Y02618
X00106Y02622
X00042Y02625
X00166Y0263
X00152Y02639
X-0005Y02642
X001353Y026446
X-00049Y0266
X00145Y02718
X00026Y02728
X00002Y02728
X00042Y02732
X0017Y02734
X00056Y0274
X-0003Y02742
X001201Y027423
X000866Y027451
X00024Y02748
X-00012Y0275
X001023Y027634
X00084Y027701
X001065Y027795
X00023Y02784
X001752Y027975
X-000513Y028033
X-000126Y028082
X0006Y028107
X000071Y028204
X000259Y028212
X001533Y02823
X-000155Y028356
X-000486Y028393
X000433Y028427
X-000734Y028473
X00167Y028477
X001363Y028516
X000437Y028591
X000285Y02866
X001408Y028673
X00102Y0288
X001446Y028851
X-000483Y028888
X001228Y02893
X-000131Y02897
X-00017Y02913
X-000591Y029187
X000073Y029214
X00136Y029237
X001076Y029246
X000376Y029283
X-000456Y029332
X00013Y029394
X000256Y029527
X001448Y029637
X001205Y029656
X000277Y029702
X-00015Y029883
X-000413Y029972
X-000005Y03004
X000421Y030112
X000605Y030266
X00019Y030398
X00162Y03088
X000035Y031309
X-000144Y031311
X000385Y031407
X000187Y031421
X-00063Y031434
X0006Y03158
X-000439Y031998
X-000289Y031998
X-000675Y032102
X000187Y032211
X000629Y032223
X-000675Y03225
X00133Y032701
X-000505Y032842
X001003Y033004
X000744Y033079
X00011Y033122
X000446Y033122
X000274Y033129
X-00003Y033245
X001203Y03327
X-000634Y033399
X000828Y033532
X-000567Y03374
X000626Y033843
X00164Y033864
X000777Y033901
X000937Y03391
X-000503Y034117
X001465Y034231
X00169Y034255
X000234Y034275
X-00004Y03458
X-0007Y034616
X00084Y03474
X-00006Y03476
X001563Y034781
X001263Y034843
X-000157Y035044
X001022Y035177
X00132Y03522
X0Y03534
X000689Y035346
X-00048Y03548
X000677Y035508
X000191Y035548
X001286Y035693
X001124Y035723
X-000132Y035822
X000501Y035847
X-000639Y035975
X-0003Y03632
X00072Y03634
X00162Y03654
X00112Y03662
X-0003Y03664
X00072Y03666
X-000269Y036756
X00162Y03686
X00112Y03694
X0Y037
X0Y03732
X0028Y03676
X00192Y03666
X00324Y0366
X0026Y03658
X00402Y03654
X00192Y03634
X0029Y03628
X00324Y03628
X0026Y03626
X00402Y03622
X003441Y035718
X003596Y035662
X003345Y035579
X003844Y035515
X002056Y035441
X003584Y035416
X004144Y035352
X003178Y035041
X002157Y035026
X003293Y034921
X003841Y034021
X003423Y033992
X00302Y03396
X004186Y033872
X002087Y033813
X004063Y033599
X003011Y033537
X003399Y033532
X003813Y033512
X00284Y03346
X003451Y033377
X003765Y033314
X002821Y033034
X003628Y032998
X003825Y032811
X004231Y032705
X004096Y032576
X004237Y032495
X003515Y032388
X004198Y032059
X004068Y031911
X003492Y031816
X004238Y031811
X004239Y031647
X002587Y031549
X00392Y0315
X00292Y03138
X003166Y031318
X003552Y030518
X003392Y030512
X00341Y03032
X002377Y030261
X003206Y030184
X00346Y03012
X002293Y03009
X002797Y030041
X003196Y02987
X003831Y029766
X00397Y02967
X002775Y029639
X00327Y02956
X002956Y029487
X00354Y02943
X0039Y02943
X00424Y02943
X00408Y02942
X00338Y0294
X002276Y029286
X001925Y029159
X002033Y02902
X003123Y028985
X00276Y02898
X00405Y02882
X003865Y02882
X002184Y028694
X00406Y02864
X00403Y02847
X002472Y028438
X002068Y028274
X00367Y028272
X00385Y02825
X00404Y02805
X002352Y028033
X00388Y02802
X003303Y027538
X001993Y027432
X003188Y027423
X003303Y027423
X00272Y02712
X00284Y02682
X00228Y02682
X003Y02682
X00332Y02674
X0027Y02636
X00336Y0263
X00384Y02624
X0026Y02622
X00204Y0262
X00344Y02614
X00204Y02574
X001871Y025671
X00322Y02548
X00418Y02544
X00322Y02528
X00177Y02518
X00322Y02508
X002596Y024986
X00241Y02494
X002814Y024863
X00286Y0246
X002183Y024514
X00269Y024466
X00176Y02442
X001956Y024419
X002108Y024347
X0024Y02434
X00212Y0241
X00366Y02374
X00342Y02348
X00416Y02348
X00358Y02344
X00366Y02324
X0024Y02322
X00294Y02322
X00306Y02322
X00407Y02312
X00182Y02288
X00366Y02284
X00408Y0228
X00324Y02276
X00424Y02264
X003Y02262
X0035Y0226
X00192Y02258
X003Y0225
X00408Y02248
X002934Y022323
X00264Y02232
X002389Y022274
X003599Y022228
X00416Y02217
X002206Y022169
X00264Y02216
X002371Y022102
X00196Y02192
X00294Y021716
X00184Y02162
X002786Y021562
X002609Y021384
X003003Y021115
X00368Y0211
X00356Y0211
X00416Y02108
X002918Y02103
X003159Y021012
X003075Y020928
X00408Y02092
X00208Y02085
X002404Y020631
X003553Y020558
X00418Y02036
X00355Y020333
X00348Y01982
X00418Y01982
X002126Y019726
X00348Y01966
X003173Y019606
X001921Y019569
X00244Y01954
X00276Y01954
X00348Y0195
X003173Y019466
X00228Y01938
X0025Y01938
X00182Y0193
X00276Y01922
X002574Y019195
X00196Y01894
X00276Y0189
X003805Y01886
X00365Y01886
X003948Y01886
X003505Y01886
X0026Y01874
X004222Y018276
X004222Y018119
X0022Y01784
X0032Y01784
X00392Y01784
X00284Y01784
X00184Y01784
X00234Y01784
X00248Y01784
X00364Y01758
X003461Y016819
X003294Y016819
X00244Y016812
X00206Y016812
X003961Y016809
X003709Y016803
X004154Y016803
X00318Y01638
X00346Y01638
X00402Y01638
X00374Y01638
X00232Y01638
X00288Y01638
X00204Y01638
X0026Y01638
X003855Y016131
X004183Y016131
X002359Y015987
X003328Y015974
X00401Y015974
X003561Y01584
X003199Y015833
X002395Y015462
X00364Y0152
X003301Y01488
X00392Y0148
X00272Y01476
X00182Y01476
X002222Y014035
X00372Y014
X00316Y01394
X003561Y01392
X004041Y01392
X002601Y01392
X00316Y01382
X002333Y013721
X00316Y0137
X0036Y01368
X00408Y01368
X00336Y01368
X00384Y01368
X00192Y01368
X00394Y01325
X003801Y01318
X003941Y01306
X003801Y01306
X002588Y012675
X002117Y012675
X00306Y01266
X002113Y012211
X002719Y012207
X003128Y012206
X003867Y012197
X00214Y01134
X001881Y01128
X002361Y01128
X003311Y01102
X00418Y011
X00291Y01083
X001831Y01079
X00246Y01076
X00222Y01076
X003401Y01072
X00303Y01067
X00274Y01066
X00382Y01034
X00224Y01019
X00307Y01018
X0026Y01017
X0034Y01008
X0042Y01008
X00291Y01001
X00201Y01001
X00242Y01
X003731Y00967
X00194Y00962
X00218Y00962
X002281Y00945
X003771Y00943
X00208Y00934
X00182Y00928
X00302Y00922
X00324Y00922
X0028Y00922
X00302Y009
X004155Y008785
X0034Y00878
X003671Y00871
X00214Y0087
X00379Y008575
X004211Y00855
X001861Y0085
X003741Y0084
X002601Y0084
X00394Y00822
X002841Y00816
X00346Y00796
X002361Y00792
X002121Y00792
X00302Y00792
X001801Y00781
X00258Y0078
X003521Y00777
X002361Y00768
X001801Y00746
X00298Y00744
X002501Y00744
X00366Y0074
X00338Y00732
X002361Y00696
X001881Y00696
X003662Y00678
X00346Y00668
X00322Y00668
X00334Y00668
X0031Y00668
X00394Y00666
X00406Y00666
X00418Y00666
X00194Y0066
X00182Y0066
X00206Y0066
X0019Y006425
X002871Y00637
X002721Y00637
X003711Y00615
X003971Y00614
X002511Y00612
X0019Y005945
X002511Y00588
X004065Y005783
X003356Y005672
X00357Y005669
X003806Y005662
X002091Y00546
X003911Y00526
X004111Y00526
X00372Y005
X00404Y00494
X00336Y00494
X00242Y0049
X003921Y0048
X004161Y0048
X00312Y00472
X002061Y004663
X003471Y00453
X003351Y00453
X002471Y00446
X004161Y00444
X003921Y00444
X003471Y00434
X003351Y00434
X003801Y00432
X003681Y00432
X004161Y0042
X003921Y0042
X003471Y00414
X003351Y00414
X002471Y00413
X002966Y003895
X002471Y00381
X003921Y00372
X004161Y00372
X002275Y003622
X001919Y003601
X002626Y003576
X002992Y00356
X003415Y00354
X003921Y00348
X004161Y00348
X002244Y003277
X002615Y00324
X001909Y00324
X004161Y00324
X003921Y00324
X002987Y00323
X003415Y003225
X003471Y00296
X003361Y00296
X002239Y002936
X002615Y0029
X002244Y002575
X003997Y002544
X002595Y002539
X003229Y002539
X003631Y002534
X002909Y002534
X001894Y002498
X002925Y002158
X002605Y002158
X003647Y002153
X003244Y002153
X002254Y002122
X001899Y002075
X003651Y00172
X002249Y001678
X003251Y00167
X002931Y00167
X002621Y00167
X00236Y00124
X00204Y00124
X00396Y00124
X00364Y00124
X003Y00124
X00332Y00124
X00268Y00124
X00652Y00124
X00524Y00124
X00428Y00124
X0046Y00124
X00492Y00124
X00588Y00124
X00556Y00124
X0062Y00124
X005702Y001587
X006106Y001591
X00647Y001598
X005211Y00166
X004391Y00168
X005508Y001785
X00451Y0018
X005849Y001828
X006252Y001884
X006621Y0019
X006136Y002124
X006735Y002244
X006269Y002248
X006458Y002426
X005374Y002508
X00426Y002534
X00668Y002566
X005595Y002596
X005907Y002768
X005307Y002787
X006367Y002805
X005791Y00296
X00628Y00312
X005361Y00324
X004401Y00324
X004881Y00324
X004641Y00324
X005121Y00324
X005241Y00336
X004281Y00336
X004761Y00336
X004641Y00348
X005361Y00348
X004881Y00348
X005121Y00348
X004401Y00348
X004641Y00372
X005361Y00372
X005121Y00372
X004881Y00372
X004401Y00372
X004641Y0042
X004401Y0042
X004881Y0042
X005121Y0042
X004281Y00432
X005241Y00432
X004761Y00432
X005781Y00434
X005121Y00444
X004641Y00444
X004401Y00444
X004881Y00444
X00536Y00482
X00468Y00484
X00584Y00494
X00498Y005
X00556Y005
X006137Y005186
X005491Y00526
X004891Y00526
X004501Y00526
X004301Y00526
X004701Y00526
X005091Y00526
X006255Y005441
X006465Y005611
X005259Y005758
X004514Y005766
X005051Y005768
X005473Y005773
X005682Y005773
X004306Y005776
X004764Y00578
X00668Y005807
X006255Y005921
X004419Y005956
X004654Y005963
X004886Y005971
X005097Y005976
X006572Y005999
X004291Y00614
X005891Y00614
X005251Y00614
X005571Y00614
X004931Y00614
X004611Y00614
X006201Y00637
X006633Y006383
X00454Y00666
X00658Y0067
X005472Y006714
X005953Y006714
X00495Y006716
X006745Y006928
X004281Y00696
X005721Y00696
X006101Y00728
X004661Y00816
X005481Y00816
X005721Y00816
X004521Y00834
X005721Y0084
X006681Y0084
X006201Y0084
X006441Y0084
X005961Y0084
X00512Y00856
X00554Y0086
X00435Y008655
X00664Y00867
X00572Y00869
X00448Y00878
X00532Y00884
X0058Y00886
X005241Y00905
X00642Y00912
X00441Y009395
X0063Y0094
X00472Y009585
X004295Y009595
X0066Y00968
X0055Y00976
X00652Y00984
X00434Y00984
X00469Y00985
X00462Y01
X00602Y01014
X00512Y01018
X00468Y01018
X00488Y0102
X005741Y01027
X0065Y01038
X00562Y01046
X00536Y01066
X00492Y01068
X005691Y01071
X0048Y01082
X00448Y01084
X005581Y01101
X00464Y01104
X005781Y01109
X00462Y01122
X0056Y01126
X006341Y01133
X00536Y01142
X00428Y01148
X00504Y0115
X00444Y01162
X006521Y01175
X005471Y01183
X006041Y01199
X00484Y01202
X0058Y01205
X00553Y01219
X00485Y0122
X006658Y012671
X004491Y01318
X004491Y01338
X00666Y01353
X00607Y01364
X00456Y01368
X00432Y01368
X00558Y01382
X00538Y01382
X004521Y01392
X00558Y01394
X00538Y01394
X0058Y01394
X00604Y01412
X00432Y01414
X00464Y01472
X00464Y01496
X0044Y01506
X00464Y01528
X0044Y01536
X00466Y01548
X006522Y015653
X00476Y01572
X004934Y015729
X004875Y016112
X0066Y0165
X006574Y0168
X00434Y0168
X00448Y01692
X0045Y01742
X00476Y01744
X00492Y01782
X00428Y01784
X00576Y0181
X00544Y0181
X00522Y0181
X00435Y018119
X004501Y018119
X006623Y018211
X006059Y018245
X00436Y018276
X004513Y018276
X00532Y01834
X00608Y01982
X005575Y019824
X004448Y01983
X00602Y02008
X006493Y020272
X00574Y02028
X00631Y02053
X00643Y02053
X00619Y02053
X00574Y02062
X00663Y020719
X006275Y020778
X006495Y020824
X0054Y02092
X006313Y020997
X006594Y021016
X00602Y02104
X00558Y02108
X006265Y021977
X006125Y021977
X00472Y02216
X005359Y022165
X00641Y02217
X00428Y02217
X005698Y022202
X00675Y022308
X00456Y02232
X00488Y02232
X00524Y02232
X006263Y022385
X006607Y022419
X006006Y022463
X0044Y02248
X00504Y02248
X006745Y022608
X006356Y022618
X00456Y02264
X00661Y022841
X006Y02293
X006322Y023004
X00607Y0231
X0043Y02314
X004771Y023235
X005022Y023292
X00438Y0233
X005349Y023329
X005857Y02344
X00438Y02346
X00584Y0236
X005217Y023699
X006513Y02371
X00454Y02372
X00568Y02376
X00536Y02376
X006513Y023897
X0052Y02392
X00552Y02392
X00622Y023948
X00536Y02408
X00669Y024094
X006401Y024096
X006071Y024098
X006095Y024371
X005802Y024371
X006403Y024371
X006576Y02451
X006282Y024514
X005962Y024524
X0043Y02458
X00524Y024901
X00618Y0258
X006551Y025857
X005923Y02586
X004771Y02593
X005347Y025935
X005601Y025962
X004975Y025985
X00447Y025994
X005965Y026033
X006574Y026052
X0044Y02636
X00586Y02636
X00552Y0264
X00564Y0264
X00494Y0264
X00514Y02642
X00604Y02646
X00642Y02646
X00464Y02652
X005979Y02687
X006139Y02695
X00512Y02702
X0054Y02728
X00652Y0275
X0056Y02752
X00631Y027526
X005286Y027687
X006111Y027846
X00444Y028355
X00487Y028394
X004983Y028394
X006757Y028485
X00487Y02855
X004314Y028658
X00428Y02888
X00484Y0289
X0049Y02909
X00605Y029178
X005304Y029193
X00444Y0292
X00664Y02932
X004709Y02935
X004525Y029356
X00648Y02938
X005214Y029457
X005338Y029578
X004409Y029773
X00526Y03005
X0067Y03014
X00634Y03022
X00666Y03038
X00598Y03046
X00666Y0309
X006688Y031064
X005925Y031108
X0062Y03116
X00614Y03132
X006737Y031623
X004968Y031667
X00496Y031929
X004966Y032093
X005946Y032121
X004724Y032221
X005852Y032265
X005451Y032313
X004755Y03238
X00619Y032473
X004393Y032561
X005514Y032824
X00449Y03288
X004859Y033004
X004272Y033175
X004861Y033178
X005133Y033188
X004427Y033228
X00638Y03324
X005376Y03324
X00626Y0335
X005153Y033558
X004843Y033649
X004663Y033656
X00626Y03384
X005461Y033924
X00456Y03394
X005325Y034053
X00626Y0341
X00456Y0341
X0058Y03416
X0067Y03442
X006071Y034512
X005902Y034517
X006088Y034677
X006602Y034798
X006301Y034948
X004782Y034998
X005705Y03507
X00596Y03518
X005344Y035216
X005151Y035426
X00596Y0355
X0065Y03554
X004509Y035619
X0057Y03566
X00624Y03568
X00596Y03584
X00544Y03584
X004509Y036047
X00596Y03622
X0065Y03622
X00474Y03622
X00544Y03622
X0051Y03622
X00596Y03654
X00474Y03654
X00544Y03654
X0065Y03654
X009162Y037199
X008985Y037177
X008623Y037103
X009255Y036994
X008953Y036971
X008777Y036753
X00915Y036665
X008579Y036645
X0072Y03656
X00684Y03654
X007592Y036346
X0072Y03624
X00684Y03622
X008802Y035919
X008639Y035912
X0078Y0359
X009122Y035813
X008344Y03562
X00788Y0356
X008724Y035467
X007058Y03542
X00788Y03528
X008792Y03515
X00772Y03502
X008646Y034936
X008777Y034769
X00772Y0347
X00704Y0346
X008624Y034512
X009259Y034497
X00861Y034305
X0077Y03422
X00712Y03404
X00921Y033923
X009079Y033923
X008946Y033923
X0077Y0339
X008603Y033803
X008311Y03359
X007Y033526
X008792Y033525
X008148Y03336
X00861Y033276
X00764Y0332
X008311Y033183
X006936Y033154
X007133Y033077
X008806Y032991
X008131Y032889
X00764Y03288
X008311Y032728
X008639Y032688
X00881Y032559
X008131Y032495
X00698Y03242
X008589Y032388
X008311Y032339
X00912Y03228
X00764Y03226
X00877Y032139
X00698Y0321
X008131Y032095
X008777Y031954
X008311Y031944
X00764Y03194
X00678Y03188
X0073Y03186
X008653Y031822
X009038Y031746
X008131Y031705
X0073Y0317
X006899Y031595
X00881Y031587
X008311Y031576
X00686Y03144
X008781Y031419
X008631Y03138
X008131Y031366
X009097Y031355
X00688Y0312
X008628Y031198
X008311Y031184
X008785Y031077
X00908Y031017
X008131Y030982
X008777Y030931
X008631Y030814
X008311Y030803
X00702Y03078
X008131Y030645
X00866Y030618
X008788Y030532
X008311Y030462
X00736Y0304
X009063Y030341
X008834Y030272
X008131Y030261
X008617Y030204
X00736Y0302
X008311Y030092
X00736Y03002
X008617Y030019
X008131Y029919
X007343Y029854
X009141Y02983
X00876Y029819
X00682Y02974
X00724Y02972
X008311Y029707
X008774Y029623
X008635Y029595
X008131Y029527
X008631Y029378
X008806Y029235
X008327Y029148
X009047Y029131
X008781Y029057
X00922Y029047
X007349Y028936
X008589Y028925
X009058Y028868
X008606Y02874
X00915Y028665
X008767Y028626
X007652Y028617
X00715Y0285
X008603Y028394
X008952Y028302
X008792Y028159
X007652Y02813
X009169Y028106
X009002Y027845
X007663Y027671
X008684Y027638
X00689Y027519
X009172Y027403
X008684Y027357
X00698Y02732
X008946Y027155
X00766Y02712
X00702Y02712
X007008Y026948
X008877Y026883
X007282Y026703
X00766Y0266
X007099Y026548
X00766Y02648
X008148Y026273
X008316Y026105
X006813Y02607
X008316Y025923
X008316Y025686
X008144Y025639
X0073Y02548
X008144Y025218
X007943Y025164
X007786Y025062
X008329Y025033
X008329Y024776
X007837Y024726
X008128Y024575
X007781Y024403
X00714Y02438
X008326Y024377
X008794Y024188
X006999Y02409
X007831Y02408
X008141Y024064
X007543Y024062
X007709Y023935
X0068Y023903
X007113Y023903
X0087Y02377
X007603Y023759
X00834Y023747
X007104Y023725
X006787Y02372
X00789Y02372
X007411Y023658
X008148Y023556
X00676Y023526
X00775Y023505
X007393Y023463
X006962Y023393
X00834Y023364
X007608Y023329
X007123Y023259
X007914Y02323
X008148Y023173
X007579Y023129
X007398Y023064
X007193Y023023
X008331Y02299
X008142Y022801
X007465Y022795
X006939Y022779
X008332Y022612
X007149Y022533
X008169Y022449
X006949Y022364
X007857Y022329
X008673Y022246
X008373Y022245
X00784Y02194
X008369Y02188
X007215Y021749
X00707Y021749
X00784Y02168
X008367Y021531
X0084Y02136
X00736Y02124
X008157Y021174
X0084Y02112
X00788Y0211
X0084Y02088
X007781Y020819
X008188Y020637
X00728Y02054
X006762Y020537
X0084Y0204
X00788Y020309
X00728Y02026
X007756Y020123
X00726Y02008
X007839Y019917
X00736Y0199
X00752Y0197
X00736Y01962
X00756Y0185
X008919Y018345
X006898Y018245
X007025Y018092
X009259Y017927
X007276Y017674
X009233Y017604
X007314Y017466
X00812Y01742
X007522Y017385
X008187Y017218
X007461Y017179
X007173Y01683
X006828Y016821
X008182Y016683
X009205Y01658
X00688Y01652
X00716Y01652
X007884Y01651
X006898Y016104
X00829Y016066
X00685Y015749
X00708Y0157
X007463Y015582
X0074Y01524
X0071Y01524
X0071Y01492
X008361Y01488
X009081Y01464
X008841Y01464
X0083Y014544
X00856Y01444
X0092Y01402
X00856Y01388
X00824Y01388
X00888Y01388
X007902Y013814
X00763Y01355
X00721Y01354
X00694Y01354
X00708Y01354
X0068Y01353
X00863Y01352
X00877Y01352
X00891Y01352
X00835Y01351
X0082Y01351
X00806Y01351
X00908Y01264
X008139Y012638
X007663Y012634
X008606Y012634
X007176Y012632
X008531Y01236
X0092Y01174
X0073Y01152
X0071Y01046
X00694Y0104
X00678Y0104
X008091Y01032
X00716Y01018
X00748Y01018
X00678Y01016
X008Y01012
X00724Y01004
X00676Y01
X008061Y00968
X00732Y00954
X00768Y00936
X00746Y00918
X00854Y00918
X00714Y00912
X00875Y00905
X00854Y00893
X00832Y0089
X00808Y00886
X00854Y00869
X009211Y008534
X008948Y008508
X00854Y00845
X006921Y0084
X00899Y00831
X008871Y00819
X008111Y0081
X008572Y008081
X006831Y00779
X008572Y007586
X00726Y00757
X00864Y0073
X008867Y007227
X00864Y00706
X007211Y006941
X007409Y006941
X007026Y006941
X00844Y00682
X00864Y00682
X00692Y00678
X00814Y00678
X008023Y006693
X00814Y0066
X00844Y00658
X00864Y00658
X008655Y006338
X009071Y00633
X007151Y00621
X006819Y006068
X008651Y00598
X008139Y005913
X007893Y005689
X00751Y005689
X007893Y005209
X008491Y005191
X008881Y00505
X007121Y00461
X0092Y004599
X008911Y00448
X009059Y004057
X008911Y00405
X009071Y00386
X008871Y00376
X008911Y00348
X007121Y00347
X008911Y00305
X008911Y00267
X00712Y002583
X007568Y002566
X007207Y002331
X00763Y002323
X008911Y00224
X009073Y002177
X008086Y002177
X00712Y002103
X007568Y002086
X009216Y00205
X008615Y002024
X007333Y002014
X008939Y002006
X006918Y001959
X008041Y00192
X008614Y001737
X007481Y00173
X006842Y001705
X008947Y001701
X008311Y00167
X00712Y001623
X008615Y001544
X007801Y001515
X0078Y00124
X00748Y00124
X00684Y00124
X00908Y00124
X00876Y00124
X00812Y00124
X00716Y00124
X00844Y00124
X01068Y00124
X00972Y00124
X01036Y00124
X01132Y00124
X011Y00124
X0094Y00124
X01004Y00124
X01164Y00126
X009929Y001571
X009572Y001679
X009307Y001717
X011141Y00179
X009501Y001931
X010885Y001942
X009941Y00196
X011402Y00201
X009572Y002159
X009941Y00217
X009349Y002189
X009443Y002311
X010885Y002422
X009561Y002424
X009707Y00245
X010116Y002468
X009986Y002503
X009847Y002513
X011311Y00267
X009263Y002976
X009897Y002978
X009448Y002983
X00975Y002983
X009604Y002986
X011461Y003056
X01057Y00306
X010171Y00306
X010171Y0033
X01057Y0033
X01172Y0034
X009515Y003471
X0097Y003471
X009837Y003471
X011461Y003499
X01057Y00354
X010171Y00354
X009599Y003605
X009745Y003605
X009863Y003605
X009467Y003656
X009361Y003766
X01057Y00378
X010171Y00378
X01057Y00402
X010171Y00402
X010921Y00411
X009849Y004119
X009738Y004177
X010571Y00426
X010171Y00426
X009642Y004261
X011731Y00429
X009546Y004357
X00945Y004462
X010571Y0045
X010171Y0045
X009359Y004568
X011731Y00473
X010571Y00474
X01017Y00474
X010641Y00508
X0103Y00508
X011731Y00517
X01028Y00555
X009681Y00555
X00998Y00555
X010581Y00555
X011731Y00561
X00981Y00599
X010111Y006
X010411Y006
X011311Y006
X011011Y006
X010711Y006
X011311Y00633
X0117Y00678
X009921Y00689
X009621Y00689
X009321Y00689
X010221Y00689
X010821Y00689
X0117Y0069
X010821Y00713
X010221Y00713
X009921Y00713
X009321Y00713
X009621Y00713
X010198Y007657
X010335Y007657
X010958Y008096
X010611Y008096
X010797Y008096
X010463Y008096
X011526Y008128
X010463Y008223
X010797Y008223
X011161Y008295
X011688Y008304
X011688Y008444
X01153Y008444
X011366Y008444
X01018Y00848
X00986Y00848
X009501Y0085
X011061Y00856
X010791Y00857
X011379Y008593
X011512Y008593
X010612Y008707
X011158Y008777
X01046Y008785
X00926Y00901
X00972Y00914
X01036Y00974
X01124Y00982
X010091Y01007
X009761Y01007
X010731Y01014
X00938Y01032
X010711Y01038
X0095Y01044
X0102Y01048
X0104Y01064
X00986Y01068
X01162Y01082
X011161Y01083
X01146Y0109
X01018Y01116
X00978Y01124
X01Y0114
X0105Y01144
X01024Y01152
X0108Y01172
X00988Y01176
X01024Y01176
X01004Y0118
X0093Y01184
X01064Y01186
X011481Y01224
X010995Y012632
X009557Y012634
X010508Y012636
X010039Y012636
X00947Y01349
X00961Y01349
X011001Y01368
X011481Y01368
X009861Y01378
X010341Y01378
X011721Y01392
X0102Y01402
X01138Y0142
X01036Y01424
X009914Y0143
X00932Y01436
X0096Y014613
X009262Y014731
X009327Y014907
X01152Y01512
X010143Y015234
X0108Y0156
X01152Y0156
X011692Y0156
X010528Y015628
X010059Y015693
X011274Y015784
X01064Y01584
X009785Y015972
X010608Y01606
X010028Y01606
X011093Y016107
X009418Y01624
X01001Y016291
X011382Y016524
X011028Y016553
X010396Y016572
X009782Y016584
X010819Y01727
X01036Y017278
X010598Y017278
X009877Y017279
X009355Y01728
X010118Y017284
X011668Y017287
X011329Y017594
X010892Y017639
X010208Y01775
X00998Y017874
X011689Y017948
X010844Y017954
X01135Y017985
X010234Y018011
X011538Y019783
X00941Y020055
X01074Y020102
X01013Y020133
X009603Y020289
X010662Y020493
X010072Y020576
X011382Y020784
X01044Y020788
X011075Y020792
X009925Y020839
X009558Y02088
X009999Y021217
X009737Y021231
X011449Y021233
X01098Y021335
X010209Y021345
X010625Y021351
X011113Y021501
X010784Y021513
X011558Y021546
X009734Y021588
X010474Y02165
X01016Y02184
X01128Y022
X0116Y022
X01032Y022
X01064Y022
X00968Y022
X01096Y022
X01112Y02216
X01144Y02216
X01016Y02216
X01048Y02216
X0108Y02216
X01128Y02232
X0116Y02232
X00968Y02232
X01096Y02232
X01032Y02232
X01064Y02232
X0108Y02248
X01112Y02248
X01048Y02248
X01016Y02248
X01144Y02248
X0116Y02264
X01096Y02264
X01128Y02264
X01064Y02264
X01032Y02264
X009628Y022668
X01112Y0228
X01144Y0228
X01016Y0228
X01048Y0228
X0108Y0228
X0116Y02296
X01064Y02296
X01032Y02296
X01128Y02296
X01096Y02296
X01016Y02312
X01112Y02312
X0108Y02312
X01144Y02312
X01048Y02312
X009965Y023183
X01096Y02328
X01032Y02328
X01128Y02328
X01064Y02328
X0116Y02328
X01048Y02344
X01144Y02344
X01112Y02344
X0108Y02344
X01016Y02344
X01032Y0236
X0116Y0236
X01096Y0236
X01128Y0236
X01064Y0236
X01048Y02376
X01144Y02376
X01112Y02376
X01016Y02376
X0108Y02376
X0116Y02392
X01128Y02392
X01096Y02392
X01064Y02392
X01032Y02392
X00936Y02392
X009556Y02396
X010148Y02408
X01048Y02408
X01144Y02408
X01112Y02408
X0108Y02408
X011725Y024349
X01044Y024365
X011241Y0244
X0095Y02442
X009976Y024431
X009534Y024597
X010172Y024605
X009896Y024612
X01106Y02492
X01056Y02492
X011483Y026581
X011651Y026752
X009977Y026832
X01052Y026855
X00942Y026888
X010253Y027021
X011206Y02715
X011547Y02721
X01022Y027238
X010104Y027238
X01056Y027238
X010687Y027238
X009955Y027238
X010353Y027238
X009764Y027238
X010477Y027238
X009462Y027256
X010761Y027312
X009764Y027351
X010761Y027439
X011529Y027439
X010974Y027439
X011156Y027439
X011275Y027439
X01138Y027439
X009764Y027464
X011607Y027517
X011712Y027622
X009764Y027633
X00943Y027744
X009764Y027749
X009764Y027881
X009764Y027984
X009316Y02807
X010675Y02816
X010837Y02816
X010153Y02816
X011017Y02816
X010015Y02816
X009764Y02816
X010518Y02816
X009873Y02816
X010398Y02816
X010257Y02816
X009454Y028223
X011017Y028271
X010609Y028316
X010292Y028316
X009337Y028319
X009854Y028348
X011017Y028401
X011017Y028537
X011017Y028664
X011017Y028797
X009754Y028905
X011017Y028937
X010543Y028947
X00998Y02902
X01152Y02912
X010367Y029338
X010553Y029372
X010743Y02938
X011389Y029395
X009342Y029404
X009688Y029421
X00996Y02944
X010593Y02952
X011389Y029524
X011559Y02967
X011709Y02967
X011389Y029675
X01124Y029743
X010958Y029795
X01116Y029822
X010003Y029828
X009493Y029882
X01116Y029944
X010898Y030035
X009983Y030045
X010203Y03005
X01116Y030093
X009567Y030146
X01116Y030208
X00976Y03025
X009392Y030252
X010031Y030284
X01116Y030346
X01116Y030502
X010865Y03056
X00996Y03064
X01123Y03065
X01151Y03065
X009281Y03067
X010997Y030763
X010997Y03088
X01087Y030896
X009571Y030926
X010159Y030984
X010779Y030987
X010673Y031093
X010673Y03124
X010469Y031356
X010673Y031374
X009487Y031467
X010673Y031507
X009292Y031547
X010372Y031608
X010673Y031657
X010673Y031766
X010765Y031858
X00936Y03188
X010875Y031967
X009744Y032073
X010875Y032116
X009518Y03223
X011003Y032244
X01172Y032352
X011117Y032358
X011584Y032392
X010473Y032396
X011417Y032424
X0116Y0326
X00972Y03276
X01096Y03288
X0096Y03288
X01021Y03316
X01112Y03336
X010365Y033395
X010825Y033646
X01019Y033784
X011465Y033826
X011076Y033878
X011253Y034088
X0115Y034143
X009646Y034503
X010188Y034556
X011081Y034562
X010819Y034616
X011507Y034647
X010486Y03473
X010051Y034751
X011075Y034812
X009642Y034819
X009949Y035021
X011045Y035051
X010682Y035056
X010283Y035056
X00958Y03524
X0106Y03533
X010193Y03533
X010902Y035342
X011555Y035557
X00976Y03564
X011446Y035691
X00976Y03576
X011303Y035797
X009372Y035801
X010225Y035869
X009983Y035882
X010473Y035895
X00962Y036499
X011624Y036684
X00954Y03675
X011293Y036969
X010699Y036993
X010175Y036997
X010371Y036997
X009585Y036997
X00978Y037006
X010024Y037009
X011337Y037115
X010114Y037134
X011656Y037136
X011471Y037186
X009511Y037195
X01045Y037196
X011029Y037197
X011954Y037157
X012251Y036912
X012057Y036862
X012452Y036671
X012348Y036545
X012686Y036489
X013053Y036242
X012267Y036238
X012847Y03616
X012312Y036022
X013141Y035969
X012605Y035961
X013274Y035918
X012413Y035831
X012789Y035753
X013395Y035729
X012534Y035627
X013513Y035576
X013021Y035545
X013748Y035358
X012712Y035318
X01237Y03526
X013021Y035217
X013414Y035164
X013816Y035123
X012062Y035115
X014083Y034977
X013089Y034886
X012806Y034883
X014197Y034792
X0137Y034735
X01316Y03464
X01176Y03464
X013483Y034618
X014233Y034578
X013825Y034491
X013938Y034247
X013569Y034205
X012929Y034143
X012051Y034132
X012487Y034132
X014051Y034021
X013005Y033907
X012683Y033903
X013867Y03386
X01205Y033844
X01426Y033675
X012726Y033649
X01197Y033562
X012414Y03355
X01417Y03355
X01204Y03336
X013578Y032875
X013487Y0326
X012092Y032414
X012631Y032377
X011858Y032298
X01196Y032197
X012497Y032068
X012225Y032063
X012032Y032003
X014014Y031888
X012195Y031882
X012032Y031882
X012391Y031882
X01244Y031733
X012931Y03169
X013316Y0316
X013901Y03155
X01244Y031437
X013373Y031395
X014169Y031377
X013028Y031358
X012423Y031275
X013572Y031255
X012423Y031067
X012609Y03104
X012326Y03097
X013427Y030915
X014079Y030898
X012228Y030872
X012112Y030872
X012783Y030828
X012012Y030772
X01179Y03065
X013929Y030586
X012424Y03056
X012995Y030557
X01192Y030515
X013615Y030496
X013306Y030399
X01192Y030384
X012434Y03036
X012591Y03036
X01273Y03036
X012305Y030305
X01368Y03028
X012819Y03027
X01298Y03027
X013107Y030217
X01204Y0302
X01276Y03012
X013107Y030081
X01192Y030013
X01216Y030011
X012051Y030011
X012988Y029962
X013884Y029939
X01192Y029881
X012879Y029853
X011809Y02977
X012879Y029718
X013923Y029572
X012879Y029559
X013316Y029449
X012879Y029433
X012879Y029272
X012879Y029133
X014007Y029126
X012761Y029014
X013543Y028873
X012761Y028858
X012847Y028772
X014187Y028699
X014022Y028699
X013873Y028699
X013712Y028699
X013551Y028699
X0134Y028699
X013265Y028699
X013077Y028699
X01292Y028699
X012362Y028449
X01236Y02812
X011789Y027699
X011957Y027699
X012096Y027699
X012557Y027699
X012971Y027699
X013225Y027699
X013361Y027699
X013482Y027699
X012311Y027699
X012844Y027699
X012427Y027699
X013087Y027699
X012687Y027699
X013623Y027699
X013739Y027699
X013894Y027699
X012214Y027699
X013982Y027611
X011892Y027509
X014093Y0275
X012255Y0275
X012476Y027495
X014209Y027384
X014004Y027348
X012039Y027233
X012891Y027219
X013424Y027205
X012499Y027205
X013674Y026709
X01304Y026698
X012339Y026698
X012044Y026554
X01226Y02492
X01264Y02492
X012668Y024349
X013202Y02434
X012259Y02434
X01208Y02408
X01176Y02408
X01336Y02408
X014Y02408
X01368Y02408
X01272Y02408
X01304Y02408
X0124Y02408
X01224Y02392
X01416Y02392
X01256Y02392
X01288Y02392
X0132Y02392
X01352Y02392
X01384Y02392
X01192Y02392
X01176Y02376
X01304Y02376
X01368Y02376
X014Y02376
X01272Y02376
X0124Y02376
X01336Y02376
X01208Y02376
X01416Y0236
X01384Y0236
X0132Y0236
X01192Y0236
X01352Y0236
X01224Y0236
X01288Y0236
X01256Y0236
X01368Y02344
X01176Y02344
X01336Y02344
X01208Y02344
X014Y02344
X01304Y02344
X01272Y02344
X0124Y02344
X01384Y02328
X0132Y02328
X01192Y02328
X01224Y02328
X01352Y02328
X01416Y02328
X01288Y02328
X01256Y02328
X01368Y02312
X01176Y02312
X01336Y02312
X014Y02312
X01304Y02312
X01208Y02312
X0124Y02312
X01272Y02312
X01384Y02296
X01192Y02296
X01224Y02296
X01352Y02296
X01416Y02296
X0132Y02296
X01288Y02296
X01256Y02296
X01368Y0228
X01208Y0228
X014Y0228
X01176Y0228
X01304Y0228
X0124Y0228
X01336Y0228
X01272Y0228
X01384Y02264
X01224Y02264
X01352Y02264
X01416Y02264
X0132Y02264
X01288Y02264
X01256Y02264
X01192Y02264
X01368Y02248
X013999Y02248
X0124Y02248
X01176Y02248
X01336Y02248
X01304Y02248
X01272Y02248
X01208Y02248
X01384Y02232
X01224Y02232
X01416Y02232
X01352Y02232
X0132Y02232
X01288Y02232
X01256Y02232
X01192Y02232
X013999Y02216
X01176Y02216
X0124Y02216
X01336Y02216
X01304Y02216
X01368Y02216
X01272Y02216
X01208Y02216
X01224Y022
X01352Y022
X01384Y022
X01416Y022
X0132Y022
X01288Y022
X01256Y022
X01192Y022
X013634Y02177
X01416Y02168
X012721Y021285
X013326Y02128
X013769Y021259
X012085Y021056
X011984Y020812
X01367Y020602
X012888Y020331
X013571Y020002
X013456Y019199
X012951Y018855
X01366Y018788
X014134Y018782
X01258Y018777
X013095Y018079
X011929Y01787
X013092Y017778
X012597Y017696
X013957Y017687
X013363Y017625
X012864Y017521
X013214Y017234
X012748Y017234
X012091Y017213
X013701Y017086
X014061Y017065
X01327Y01703
X012429Y016645
X013436Y016624
X01176Y01656
X012Y01656
X013649Y016504
X013385Y016262
X01403Y016191
X01248Y01608
X01272Y01608
X013837Y016055
X01343Y015988
X01392Y0156
X01416Y0156
X01224Y0156
X01272Y0156
X01248Y0156
X0132Y0156
X013606Y015561
X011899Y015551
X012016Y015551
X012016Y015443
X013595Y015137
X012441Y01512
X011952Y015024
X012681Y01488
X013881Y01464
X013401Y01464
X012057Y01454
X01276Y01448
X012921Y0144
X013313Y0143
X012579Y014173
X01298Y01398
X012201Y01392
X013641Y01392
X0129Y01378
X012039Y013686
X013401Y01368
X013881Y01368
X01222Y01348
X01266Y01332
X011942Y013251
X013881Y0132
X012678Y012696
X013748Y012665
X013193Y012279
X01319Y011794
X013401Y01176
X013196Y011269
X0136Y01126
X012101Y0109
X01319Y010758
X0136Y01056
X013401Y01032
X013205Y010261
X013401Y00984
X013193Y009695
X013597Y009401
X01382Y00906
X012854Y009044
X01318Y00891
X013401Y00888
X012865Y008761
X012859Y008486
X013745Y008305
X014121Y00816
X01318Y00803
X013401Y00792
X013745Y007825
X01424Y0078
X0127Y00773
X01318Y00759
X013881Y00744
X012826Y007379
X013188Y007303
X01382Y00729
X01205Y00715
X012591Y007
X013881Y00696
X013401Y00696
X013196Y006794
X01204Y00676
X012846Y006694
X012313Y006686
X013486Y006578
X013887Y006564
X013132Y006424
X012137Y006202
X0135Y00618
X012666Y006083
X013292Y00601
X01382Y00585
X012087Y005783
X0136Y00565
X012678Y005484
X013351Y005465
X01382Y00545
X012018Y005281
X0136Y00525
X013801Y00505
X013401Y00504
X0136Y00485
X012911Y004822
X011985Y004723
X014136Y004533
X012911Y004342
X012859Y004162
X01338Y00416
X0135Y00416
X012396Y004156
X012087Y004156
X014113Y003927
X013958Y003883
X013195Y003767
X013401Y0036
X01395Y00353
X01399Y00325
X012047Y003131
X01399Y00313
X013552Y003119
X012427Y003028
X01176Y00302
X013201Y002997
X012859Y002919
X01176Y0027
X013401Y00264
X013881Y00264
X01176Y00238
X01216Y00218
X011944Y002177
X01176Y00206
X01212Y00194
X01176Y00174
X01367Y00164
X01176Y00142
X01196Y00126
X014841Y00168
X014841Y00216
X014841Y00264
X014361Y00264
X015321Y00264
X015168Y002711
X01467Y00308
X015054Y003101
X01544Y00313
X015464Y003667
X015055Y0037
X014841Y00408
X0144Y00408
X015469Y00424
X015633Y004241
X01581Y004436
X015641Y00444
X01438Y00454
X014841Y00456
X014431Y00497
X014841Y00504
X015321Y00504
X0151Y00548
X014381Y00552
X015321Y00552
X0157Y00564
X01482Y00572
X01438Y00574
X0156Y00584
X015153Y005986
X014841Y006
X01438Y006
X01564Y00607
X014841Y00648
X01438Y00648
X015321Y006557
X01438Y00692
X014841Y00696
X01432Y00728
X0148Y00744
X015321Y00744
X0145Y0076
X01508Y00798
X015371Y008237
X01483Y00827
X014619Y008413
X01516Y0087
X015857Y008703
X015371Y008717
X01429Y008729
X01561Y00912
X015328Y009223
X014926Y009434
X015328Y009703
X016041Y01008
X015321Y01032
X015601Y010322
X016041Y01056
X015231Y01072
X015345Y010981
X016041Y01104
X015314Y011266
X015743Y01128
X015501Y011576
X01656Y01176
X016281Y01176
X015156Y011764
X016161Y012261
X015956Y01238
X015319Y012381
X016281Y01272
X015919Y01288
X015321Y0132
X015801Y0132
X016281Y0132
X015801Y01368
X015321Y01368
X016281Y01368
X016281Y01416
X015801Y01416
X015561Y0144
X015081Y0144
X01474Y014429
X015801Y01464
X016281Y01464
X015573Y01496
X016281Y01512
X0156Y0156
X01512Y0156
X01488Y0156
X0144Y0156
X01464Y0156
X015824Y01604
X014353Y016066
X014974Y016118
X014718Y016144
X01584Y01632
X01439Y016645
X01584Y0168
X015678Y01703
X014485Y017107
X01489Y01714
X014583Y017521
X014385Y017906
X014823Y018313
X014296Y01836
X014692Y018761
X014959Y019823
X015407Y020326
X014854Y020753
X015422Y020753
X015678Y020884
X01594Y02152
X0156Y02152
X01528Y02152
X0148Y02168
X01578Y02168
X01512Y02168
X01448Y02168
X01544Y02168
X01594Y02184
X01464Y02184
X0156Y02184
X01528Y02184
X01496Y02184
X0148Y022
X01448Y022
X01578Y022
X01512Y022
X01544Y022
X01594Y02216
X01432Y02216
X0156Y02216
X01464Y02216
X01528Y02216
X01496Y02216
X01448Y02232
X01578Y02232
X01512Y02232
X0148Y02232
X01544Y02232
X01594Y02248
X0156Y02248
X01464Y02248
X01432Y02248
X01528Y02248
X01496Y02248
X01448Y02264
X01578Y02264
X0148Y02264
X01512Y02264
X01544Y02264
X01464Y0228
X0156Y0228
X01528Y0228
X01496Y0228
X01594Y0228
X01432Y0228
X01448Y02296
X01544Y02296
X01578Y02296
X01512Y02296
X0148Y02296
X01464Y02312
X0156Y02312
X01432Y02312
X01528Y02312
X01496Y02312
X01594Y02312
X01448Y02328
X01578Y02328
X01544Y02328
X0148Y02328
X01512Y02328
X01594Y02344
X01432Y02344
X01464Y02344
X01496Y02344
X01528Y02344
X0156Y02344
X01578Y0236
X01544Y0236
X0148Y0236
X01512Y0236
X01448Y0236
X01432Y02376
X01594Y02376
X0156Y02376
X01464Y02376
X01528Y02376
X01496Y02376
X01448Y02392
X01578Y02392
X01544Y02392
X0148Y02392
X01512Y02392
X01464Y02408
X01594Y02408
X0156Y02408
X01432Y02408
X01528Y02408
X01496Y02408
X01448Y02424
X01512Y02424
X01578Y02424
X01544Y02424
X0148Y02424
X01594Y0244
X0156Y0244
X01528Y0244
X01496Y0244
X01464Y0244
X01578Y02456
X01544Y02456
X01512Y02456
X0148Y02456
X01496Y02472
X01594Y02472
X01528Y02472
X0156Y02472
X01544Y02488
X01578Y02488
X01594Y02504
X0156Y02504
X01578Y0252
X015791Y025694
X015458Y025774
X015419Y026343
X015418Y026674
X014994Y026678
X015748Y026682
X014336Y02669
X015137Y027332
X01454Y027332
X014985Y027332
X015911Y027332
X014662Y027332
X015411Y027332
X014261Y027332
X015292Y027332
X014828Y027332
X015571Y027332
X016085Y027332
X015797Y027332
X016228Y027332
X016341Y027332
X014408Y027332
X015676Y027332
X016006Y028295
X01585Y028295
X015038Y028295
X015526Y028295
X015373Y028295
X016195Y028295
X015201Y028295
X015704Y028295
X014948Y028385
X014845Y028488
X014742Y028591
X01486Y028692
X014634Y028699
X014492Y028699
X014348Y028699
X015383Y028706
X015223Y028713
X015733Y028734
X015209Y028873
X014391Y028891
X015041Y028895
X015537Y028898
X014689Y028898
X015683Y029027
X015804Y029216
X014648Y029237
X015259Y02924
X014902Y029245
X015651Y029447
X014341Y029544
X014876Y029599
X014565Y029624
X015783Y029686
X015811Y029871
X015644Y029932
X015222Y02999
X015633Y030149
X014575Y030174
X015082Y030228
X015818Y030231
X015372Y030385
X015676Y030473
X01501Y030497
X014302Y030541
X015824Y030712
X015824Y030894
X014971Y030934
X015652Y030983
X014479Y031012
X015663Y031168
X015032Y031253
X015813Y031289
X015624Y031521
X01474Y03162
X015208Y031667
X015726Y031727
X01447Y03175
X015408Y031902
X01549Y032094
X014424Y032119
X014933Y032274
X015387Y032287
X015202Y032298
X014698Y032375
X01432Y03238
X015473Y032533
X015027Y032647
X015166Y032793
X015086Y032992
X014829Y033081
X014712Y03331
X015122Y033313
X014886Y03342
X014514Y033623
X014678Y033712
X014678Y033905
X014429Y034097
X014429Y034393
M30
