%
T1C.004F0S0
X-00294Y00091
X-003159Y00096
X-003639Y00144
X-003159Y00144
X-002679Y00144
X-002679Y00192
X-003639Y0024
X-002679Y0024
X-004119Y0024
X-0043Y00248
X-003159Y00288
X-002679Y00288
X-0043Y0029
X-00394Y0029
X-00406Y0029
X-00418Y0029
X-00286Y0031
X-0037Y00312
X-00418Y00312
X-00442Y00312
X-00394Y00312
X-00274Y00322
X-00356Y00326
X-00286Y00334
X-004599Y00336
X-00356Y00338
X-00274Y00346
X-00378Y0035
X-00286Y00358
X-0041Y00358
X-0047Y00372
X-00442Y00391
X-00408Y00392
X-00476Y00396
X-00322Y00398
X-00352Y00398
X-00272Y00404
X-00306Y00414
X-00452Y00416
X-0048Y00418
X-004119Y00432
X-00288Y00432
X-00484Y00442
X-00424Y00442
X-00367Y00445
X-00421Y00458
X-00486Y00464
X-00368Y00476
X-00442Y00486
X-00488Y00486
X-00431Y005044
X-00342Y00506
X-00488Y00508
X-00362Y00524
X-00428Y00528
X-00488Y0053
X-00342Y00532
X-00362Y00546
X-00488Y00552
X-00342Y00556
X-00394Y0056
X-00362Y00568
X-00488Y00574
X-004119Y00576
X-00436Y00576
X-00342Y0058
X-00284Y00587
X-00362Y0059
X-00488Y00596
X-00432Y00597
X-00342Y00608
X-00284Y00611
X-00362Y00612
X-00488Y00618
X-00432Y00623
X-00284Y00634
X-00362Y00634
X-00344Y00636
X-00488Y0064
X-00431Y00645
X-00362Y00656
X-00285Y00658
X-00488Y00662
X-004482Y006696
X-004119Y00672
X-00362Y00678
X-00285Y00682
X-00488Y00684
X-004313Y006927
X-00314Y00694
X-00362Y007
X-00283Y00705
X-00488Y00706
X-003Y0071
X-00314Y0071
X-00436Y00713
X-004119Y0072
X-00362Y00722
X-00283Y00728
X-00488Y00728
X-00434Y007405
X-00488Y0075
X-00283Y00752
X-00388Y00752
X-004313Y007641
X-00316Y0077
X-00488Y00772
X-00388Y00772
X-00287Y00775
X-00412Y00776
X-004602Y00788
X-00342Y00792
X-00364Y00792
X-00388Y00794
X-00412Y008
X-00454Y00812
X-00364Y00812
X-00342Y00812
X-003159Y00816
X-00412Y0082
X-003008Y008232
X-00364Y00834
X-00342Y00834
X-00458Y00834
X-00319Y00847
X-00488Y00852
X-00412Y00858
X-004515Y008587
X-00412Y0087
X-0032Y00872
X-004513Y00882
X-00488Y00888
X-0032Y00893
X-00412Y009
X-00458Y00906
X-0047Y00906
X-00446Y00906
X-00432Y00906
X-0036Y00912
X-002651Y009175
X-00404Y00922
X-00488Y00922
X-00488Y00938
X-00392Y00958
X-00354Y00958
X-00438Y0097
X-00338Y009791
X-00488Y00982
X-00476Y00982
X-004538Y009831
X-00268Y00992
X-004Y00996
X-00338Y00998
X-00268Y01004
X-00488Y01004
X-004119Y01008
X-004599Y01008
X-00346Y01022
X-004Y01022
X-00304Y01024
X-00316Y01024
X-00442Y01026
X-004604Y010307
X-00264Y01034
X-00346Y01034
X-00316Y01036
X-00304Y01036
X-00488Y01042
X-004064Y010452
X-00353Y01052
X-004599Y01056
X-004299Y010576
X-0027Y01058
X-00339Y01058
X-004064Y010656
X-00488Y01068
X-0027Y0107
X-003714Y010811
X-0039Y010811
X-004403Y010811
X-004179Y010811
X-004064Y010958
X-00484Y01098
X-00427Y011006
X-003838Y011037
X-004599Y01104
X-004064Y011157
X-00382Y01142
X-003907Y01161
X-003161Y011733
X-003409Y011853
X-003161Y011943
X-003917Y011971
X-004119Y012
X-003522Y012101
X-003321Y012101
X-003176Y012203
X-002913Y012348
X-0032Y01242
X-00342Y0127
X-00292Y0127
X-004119Y01296
X-00326Y01306
X-003867Y013154
X-003019Y01328
X-00512Y01342
X-00512Y01362
X-004599Y01392
X-004037Y014066
X-003671Y014206
X-0028Y01432
X-00314Y01432
X-004328Y014331
X-00328Y01442
X-00338Y0147
X-004072Y014707
X-003621Y014833
X-00266Y01494
X-00288Y01508
X-00306Y01508
X-003203Y015091
X-003982Y015123
X-003689Y01596
X-00478Y01601
X-0027Y01638
X-00286Y01638
X-00302Y01638
X-00327Y01769
X-00328Y01802
X-0039Y01802
X-00282Y01814
X-00328Y01814
X-0039Y01816
X-00428Y01886
X-00412Y01886
X-00286Y01942
X-00286Y01954
X-0043Y0198
X-00342Y01986
X-0033Y01986
X-003178Y019866
X-003232Y021283
X-003262Y021441
X-00387Y0216
X-002687Y021828
X-002844Y02187
X-003002Y02192
X-00422Y02222
X-00422Y02252
X-00422Y02278
X-00318Y023109
X-003319Y023115
X-00296Y02342
X-00284Y02342
X-004395Y023577
X-004395Y023702
X-00278Y02386
X-00368Y02414
X-00316Y02434
X-00396Y02438
X-00274Y02452
X-003476Y024808
X-00334Y024808
X-003684Y02503
X-00278Y02504
X-00296Y02516
X-003684Y025184
X-00348Y02548
X-002972Y025506
X-00298Y02586
X-00356Y02588
X-00346Y02602
X-003Y02618
X-00346Y02618
X-00438Y02622
X-0031Y02644
X-004Y02658
X-00344Y02662
X-00344Y02678
X-00294Y02694
X-00268Y02696
X-0031Y02714
X-004Y02722
X-00274Y02724
X-00344Y02728
X-00306Y02738
X-0027Y0274
X-00438Y02751
X-00274Y02756
X-0029Y0276
X-00274Y0278
X-00394Y02786
X-003032Y027963
X-0037Y02804
X-003069Y028126
X-00272Y02822
X-003488Y028231
X-003015Y028357
X-00272Y02838
X-003494Y028394
X-002704Y028554
X-003529Y028687
X-002984Y028751
X-004391Y028776
X-004Y02882
X-00269Y02895
X-002686Y029129
X-00308Y02914
X-0035Y02918
X-0035Y0293
X-002972Y029338
X-002719Y02942
X-00392Y02948
X-00308Y02954
X-0039Y0297
X-0029Y02972
X-003504Y029932
X-004Y03002
X-00439Y030095
X-003693Y030221
X-00298Y03028
X-00399Y030312
X-00336Y03042
X-00268Y03058
X-00278Y03176
X-003887Y032257
X-00354Y032922
X-003689Y033603
X-003561Y033949
X-003362Y03429
X-003093Y034712
X-002733Y035174
X-000998Y03676
X-001403Y036756
X-000538Y036756
X-001773Y036386
X-002148Y036011
X-001051Y035799
X-000367Y035761
X-000794Y03565
X-002428Y035629
X-000652Y035332
X-000335Y035323
X-000618Y035071
X-00028Y0349
X-000366Y034757
X-0007Y034742
X-001254Y0346
X-00095Y034445
X-000635Y034441
X-000659Y034171
X-002205Y034168
X-00067Y033881
X-000373Y033603
X-002418Y033323
X-000193Y033275
X-001933Y033069
X-00164Y033067
X-000257Y032814
X-00046Y032587
X-000885Y032308
X-001821Y03226
X-000476Y03186
X-000289Y03186
X-000964Y031532
X-001891Y031297
X-000829Y031296
X-00167Y031294
X-0014Y031258
X-002547Y030708
X-00172Y03062
X-001077Y030483
X-000507Y03047
X-000226Y030466
X-00212Y03046
X-000828Y030455
X-001833Y030369
X-000202Y030298
X-000625Y030291
X-00107Y03028
X-0025Y03024
X-00218Y03024
X-00156Y03022
X-002321Y029832
X-000413Y029806
X-00148Y0298
X-00199Y029763
X-001799Y02976
X-001641Y029724
X-000975Y029713
X-000735Y029711
X-000166Y029696
X-000415Y029646
X-001955Y029604
X-000836Y029548
X-001004Y029537
X-000172Y029514
X-001791Y02951
X-000682Y029501
X-002382Y029501
X-001201Y029496
X-000333Y029493
X-001386Y029492
X-000514Y029492
X-002186Y029492
X-00086Y02904
X-002185Y029017
X-0014Y029
X-00164Y029
X-0018Y029
X-00061Y028991
X-00124Y02888
X-000563Y028816
X-000126Y028807
X-002171Y028775
X-001566Y028754
X-001319Y028722
X-000316Y028657
X-001496Y028554
X-002021Y02853
X-002078Y028361
X-00224Y028357
X-00206Y028177
X-0009Y02804
X-00108Y02802
X-00128Y02782
X-00228Y02772
X-000359Y027692
X-000902Y027671
X-000705Y027671
X-001102Y027668
X-00128Y02766
X-00204Y02744
X-000918Y027287
X-0021Y02726
X-000294Y027208
X-00072Y02714
X-00204Y02708
X-00084Y02702
X-0022Y0269
X-0016Y02686
X-0007Y02686
X-00082Y026742
X-00154Y0267
X-002042Y026662
X-000748Y026576
X-00228Y02652
X-00162Y0265
X-00016Y02646
X-00144Y02638
X-00096Y02636
X-001929Y026341
X-0023Y02634
X-00112Y02634
X-00042Y02634
X-00062Y02628
X-0004Y02584
X-001185Y025835
X-001025Y025811
X-002381Y025793
X-002616Y02579
X-002006Y02579
X-00024Y02576
X-000692Y025666
X-001594Y025555
X-00242Y02554
X-001305Y025537
X-0026Y02552
X-00218Y02552
X-000634Y025512
X-000809Y025512
X-000455Y025485
X-00058Y02512
X-001302Y025112
X-00178Y02506
X-001988Y02502
X-001594Y025013
X-00246Y025
X-0023Y025
X-00262Y025
X-00042Y025
X-001324Y024799
X-00082Y0247
X-00024Y02468
X-00054Y02467
X-00086Y02436
X-0007Y02436
X-00218Y0239
X-0026Y0239
X-0017Y02388
X-00186Y02388
X-00128Y02378
X-00082Y02378
X-00166Y0237
X-002097Y022694
X-001976Y022694
X-0008Y02222
X-001069Y022187
X-00048Y02218
X-00036Y02218
X-000955Y022125
X-002057Y022124
X-002057Y022012
X-002529Y021958
X-00046Y02192
X-001427Y02186
X-001266Y021702
X-001198Y021633
X-00127Y02145
X-0014Y02145
X-00252Y02118
X-00234Y02118
X-0014Y02114
X-00124Y02114
X-00216Y0211
X-00108Y02102
X-00156Y0209
X-0014Y0209
X-00124Y0209
X-00108Y0209
X-00252Y02082
X-00234Y02082
X-000207Y02081
X-00108Y02078
X-00092Y02078
X-00252Y0207
X-00234Y0207
X-0014Y0207
X-00124Y0207
X-00216Y02066
X-00196Y02066
X-00176Y02066
X-00156Y02066
X-00092Y02066
X-00108Y02066
X-000331Y020496
X-000205Y020496
X-0014Y02046
X-00124Y02046
X-00234Y02034
X-000205Y020338
X-000328Y020338
X-00234Y02022
X-00216Y02022
X-00196Y02022
X-00176Y02022
X-00156Y02022
X-0014Y02022
X-00124Y02022
X-00108Y02022
X-00092Y02022
X-00254Y02004
X-00234Y02004
X-00124Y02004
X-0014Y02004
X-00156Y02004
X-00176Y02004
X-00196Y02004
X-00216Y02004
X-00092Y02004
X-00108Y02004
X-00254Y01986
X-00234Y01986
X-00124Y01986
X-0014Y01986
X-00156Y01986
X-00176Y01986
X-00196Y01986
X-00216Y01986
X-00092Y01986
X-00108Y01986
X-00024Y01986
X-00024Y01972
X-00254Y01968
X-00234Y01968
X-00124Y01968
X-0014Y01968
X-00156Y01968
X-00176Y01968
X-00196Y01968
X-00216Y01968
X-00108Y01968
X-00124Y0195
X-0014Y0195
X-00156Y0195
X-00176Y0195
X-00196Y0195
X-00216Y0195
X-00234Y0195
X-00108Y0195
X-00032Y0194
X-00048Y01938
X-00048Y019264
X-002197Y019078
X-002058Y019078
X-002214Y018956
X-002058Y018956
X-001115Y018804
X-001584Y018804
X-00064Y018804
X-001427Y018796
X-001515Y018715
X-001792Y01865
X-001899Y01865
X-001899Y01856
X-001695Y018557
X-001792Y018557
X-001839Y017993
X-00014Y01792
X-00172Y01784
X-00072Y01772
X-00072Y0176
X-00245Y0172
X-00204Y01698
X-00138Y0169
X-00118Y01664
X-00016Y01664
X-00034Y01664
X-000498Y016516
X-00132Y0165
X-000229Y016403
X-001901Y016395
X-00238Y01638
X-00254Y01638
X-0006Y01608
X-00157Y01606
X-00166Y01573
X-00016Y0157
X-00122Y01536
X-001784Y015295
X-0017Y01494
X-00258Y0148
X-001539Y01445
X-0025Y01434
X-00224Y01434
X-00194Y01434
X-00064Y01402
X-00076Y01384
X-001659Y01383
X-00194Y01382
X-000398Y013632
X-001659Y01363
X-00222Y01361
X-00116Y0135
X-00194Y01344
X-00062Y01344
X-00036Y01334
X-00082Y01324
X-00156Y0131
X-00244Y0129
X-002097Y01273
X-000453Y012721
X-002323Y012674
X-001779Y01267
X-001339Y01267
X-000152Y01266
X-000627Y01266
X-000955Y01265
X-001654Y012586
X-002189Y01257
X-0019Y01242
X-00096Y01236
X-002308Y012309
X-00256Y0123
X-002189Y01213
X-00233Y012002
X-00188Y01198
X-00052Y01178
X-00102Y01178
X-001529Y0117
X-001649Y0117
X-002189Y01169
X-00152Y01146
X-000731Y011452
X-002319Y011268
X-002203Y011109
X-002345Y011021
X-0023Y010843
X-00216Y01084
X-000779Y01073
X-00178Y01068
X-0019Y01068
X-00219Y010677
X-00258Y01058
X-0019Y01056
X-00178Y01056
X-00236Y01036
X-000969Y01032
X-0019Y01032
X-00178Y01032
X-00238Y0102
X-00178Y0102
X-0019Y0102
X-0023Y01006
X-000979Y01
X-00152Y00988
X-00178Y00988
X-0019Y00988
X-00234Y00986
X-00152Y00976
X-0019Y00976
X-00178Y00976
X-002323Y009712
X-000369Y00967
X-000786Y009655
X-00252Y00964
X-00234Y00954
X-000429Y00938
X-001789Y00929
X-00234Y00928
X-00234Y00916
X-001239Y00913
X-0023Y00904
X-00248Y00876
X-001309Y00869
X-00114Y0085
X-0013Y0085
X-000649Y00843
X-00248Y0084
X-00198Y00832
X-00114Y0083
X-0013Y0083
X-00248Y00828
X-0013Y00808
X-00198Y00808
X-00078Y00794
X-00198Y00786
X-00174Y00786
X-00152Y00786
X-0013Y00786
X-001629Y00784
X-000659Y0078
X-000339Y0078
X-00078Y00766
X-00198Y00764
X-00174Y00764
X-00152Y00764
X-00246Y00754
X-00168Y00738
X-0008Y00732
X-00182Y00726
X-00016Y00722
X-00246Y00718
X-00094Y00716
X-00182Y00714
X-00246Y00706
X-00034Y00704
X-00108Y007
X-001809Y00693
X-00124Y00688
X-00024Y00684
X-00054Y00684
X-00124Y00676
X-00246Y0067
X-00144Y00666
X-0018Y00664
X-00054Y00662
X-00032Y00662
X-00144Y00654
X-0018Y00652
X-001829Y00638
X-001329Y00638
X-00104Y00636
X-00032Y00636
X-00054Y00636
X-00247Y00622
X-00096Y00618
X-00022Y00608
X-00044Y00608
X-00116Y006
X-001829Y00593
X-00032Y00586
X-00054Y00586
X-00116Y00578
X-00248Y00576
X-00054Y00564
X-00248Y00564
X-0025Y0054
X-00054Y0054
X-00026Y00534
X-00076Y00522
X-00026Y00512
X-00076Y005
X-00216Y00492
X-001469Y00482
X-001809Y00481
X-00032Y00478
X-00076Y00478
X-00054Y00478
X-00258Y00462
X-0022Y00458
X-00032Y00456
X-00234Y00444
X-001175Y004366
X-001Y00434
X-00076Y00434
X-00052Y00434
X-00032Y00434
X-00234Y00428
X-00254Y00424
X-001Y00412
X-00052Y00412
X-00152Y00412
X-00176Y00412
X-00126Y00412
X-00076Y00412
X-00032Y00412
X-002Y00412
X-00016Y00404
X-00066Y003947
X-000861Y003933
X-001436Y003931
X-001742Y003925
X-00126Y0039
X-002086Y003866
X-00028Y00384
X-00016Y00384
X-00082Y0038
X-00106Y0038
X-00082Y00364
X-00106Y00364
X-00262Y00358
X-0025Y00358
X-00082Y00348
X-00106Y00348
X-00262Y00346
X-0025Y00346
X-00168Y00346
X-00238Y0034
X-000469Y00339
X-00082Y00332
X-00106Y0033
X-0025Y00322
X-00262Y00322
X-00106Y00314
X-00082Y00314
X-00082Y003
X-00106Y003
X-00082Y00286
X-00106Y00286
X-00106Y0027
X-00082Y0027
X-00176Y00258
X-00106Y00256
X-00082Y00256
X-00082Y00244
X-00106Y00244
X-00106Y00232
X-00082Y00232
X-00106Y0022
X-00082Y0022
X-00106Y00208
X-00082Y00208
X-00082Y00196
X-002199Y00192
X-00082Y00184
X-00106Y00184
X-00094Y00168
X-00082Y00168
X-00106Y00168
X-00162Y00166
X-00106Y00152
X-00082Y00152
X-0002Y00136
X-00082Y00136
X-00052Y00136
X-00094Y00136
X-00106Y00136
X-00036Y00136
X-00068Y00136
X-001216Y001313
X-00068Y00124
X-00036Y00124
X-00106Y0012
X-00082Y0012
X-0002Y00112
X-00068Y00112
X-00052Y00112
X-00036Y00112
X-000759Y00096
X-001239Y00096
X00044Y00112
X00172Y00112
X00028Y00112
X00204Y00112
X00092Y00112
X00076Y00112
X0006Y00112
X00012Y00112
X-00004Y00112
X0022Y00112
X00188Y00112
X00156Y00112
X00124Y00112
X0014Y00112
X00236Y00112
X00108Y00112
X00124Y00124
X00092Y00124
X00156Y00124
X0006Y00124
X00028Y00124
X-00004Y00124
X0022Y00124
X00188Y00124
X00076Y00136
X00092Y00136
X00028Y00136
X00012Y00136
X0006Y00136
X00108Y00136
X0022Y00136
X00204Y00136
X00188Y00136
X00156Y00136
X00124Y00136
X-00004Y00136
X00044Y00136
X00236Y00136
X0014Y00136
X00172Y00136
X00172Y00148
X00162Y00158
X00154Y0017
X00172Y0017
X00172Y00188
X00154Y0019
X00168Y002
X00154Y00218
X00172Y00218
X00154Y0024
X00172Y0024
X00154Y0026
X00172Y0026
X00154Y00272
X00172Y00272
X00172Y00294
X-000109Y00298
X00152Y00314
X00172Y00316
X00154Y00336
X00172Y00336
X00118Y003423
X00154Y00354
X00172Y00354
X00152Y00366
X001655Y003772
X00152Y00378
X00136Y00384
X00076Y0039
X001Y0039
X00088Y0039
X001241Y003901
X000087Y003913
X00022Y00392
X000551Y003931
X001699Y00394
X00064Y00402
X00076Y00402
X00088Y00402
X001Y00402
X00112Y00402
X00124Y00402
X-00004Y00404
X00008Y00404
X00022Y00404
X00038Y00404
X0005Y00404
X000041Y0045
X00078Y0046
X00126Y0046
X00104Y0046
X000151Y0047
X0014Y00472
X0012Y00474
X0012Y00488
X0014Y0049
X00084Y0049
X0014Y00506
X0012Y00506
X00108Y00514
X0012Y00518
X0014Y00518
X0012Y0053
X0014Y0053
X00118Y00542
X001301Y00555
X001711Y00558
X002091Y00558
X00118Y00572
X00118Y00592
X001301Y00599
X00114Y00604
X0014Y0061
X0014Y00622
X00114Y0063
X001301Y00643
X00114Y00652
X00146Y00664
X00158Y00678
X0017Y00678
X00182Y00678
X00194Y00678
X00206Y00678
X00122Y00678
X00114Y00688
X00124Y00702
X001041Y00714
X000881Y00724
X00124Y00724
X001921Y00746
X001241Y00747
X001232Y007801
X001921Y00781
X001501Y00838
X001861Y00838
X001972Y008431
X001071Y00858
X-000028Y008745
X000602Y008745
X00142Y00894
X001001Y00903
X001232Y00906
X000731Y00918
X002281Y00933
X000917Y009375
X000081Y00938
X000601Y00939
X00186Y0094
X000251Y00941
X00116Y00942
X000451Y00955
X00064Y00966
X001232Y00969
X000287Y00969
X000064Y009782
X000561Y00998
X000287Y010005
X001071Y01001
X001231Y01001
X00154Y01028
X000191Y01073
X0015Y01076
X002031Y01079
X00154Y01116
X00042Y01118
X000791Y01132
X001371Y01142
X000011Y01155
X00168Y01164
X00112Y01164
X00044Y01164
X001678Y011914
X001235Y011918
X0004Y01192
X000634Y011923
X000934Y011925
X000923Y012207
X001226Y012217
X00064Y01222
X001667Y012224
X00154Y01258
X001015Y012599
X000594Y012605
X00005Y012606
X000323Y012658
X000807Y012665
X001292Y012669
X001779Y012669
X002237Y012675
X001961Y012715
X000497Y012728
X00154Y01276
X000451Y01322
X000251Y01322
X000651Y01322
X000351Y01331
X000551Y01331
X000651Y01342
X000251Y01342
X-00008Y01346
X00033Y01352
X00057Y01352
X000451Y01354
X000251Y01362
X000651Y01362
X000561Y01374
X000341Y01374
X000251Y01382
X-00008Y01382
X000451Y01382
X000651Y01382
X001454Y013979
X002342Y014035
X-0001Y01416
X001156Y014187
X000941Y014236
X001661Y0143
X002141Y0143
X000292Y015334
X00057Y015334
X000429Y015334
X000287Y015459
X00057Y015459
X000424Y015459
X00166Y015611
X0022Y01638
X00124Y01638
X00152Y01638
X00104Y01638
X00192Y01638
X00156Y01664
X00192Y01664
X0022Y01664
X00036Y0176
X00054Y0176
X0007Y0176
X001953Y017657
X002077Y017657
X00104Y01766
X002Y01784
X00184Y018
X00164Y018
X00132Y018
X00148Y018
X002004Y018001
X00148Y01818
X00132Y01818
X00164Y01818
X00112Y01819
X00097Y01819
X00002Y01824
X00148Y01834
X00164Y01834
X00132Y01834
X-0001Y01836
X00132Y0185
X00148Y0185
X00164Y0185
X000546Y01866
X0004Y01874
X00072Y01884
X00154Y01886
X00154Y01898
X00168Y01898
X00042Y019
X000098Y019063
X00182Y01914
X00168Y01914
X-00008Y01924
X001921Y019731
X001224Y019982
X001224Y02012
X001367Y02012
X002224Y020411
X00206Y020411
X0013Y02054
X0014Y02054
X00138Y0208
X00094Y02084
X00064Y02088
X00076Y02088
X0003Y02092
X00066Y02112
X00176Y02114
X00066Y02124
X00176Y02128
X00192Y0214
X00176Y0214
X00108Y0215
X002Y02168
X00156Y02172
X00116Y02184
X-00006Y02198
X00154Y02228
X00198Y02288
X00008Y02306
X00224Y02322
X00026Y02402
X-00012Y02402
X00114Y0242
X0018Y02426
X00168Y02426
X00042Y02468
X00128Y02468
X00027Y02476
X00116Y0248
X00094Y02486
X001624Y025033
X0009Y0251
X00136Y02512
X00034Y02512
X001837Y02542
X00042Y0255
X00058Y0255
X00166Y02554
X-000074Y025541
X00024Y02556
X00216Y02558
X00098Y02562
X001238Y025686
X00216Y02574
X00012Y02576
X00036Y02582
X00086Y02586
X001223Y025863
X001035Y025865
X00212Y02596
X00158Y02596
X00232Y02614
X00082Y02619
X001209Y026286
X0019Y0263
X0003Y02636
X001083Y026392
X0Y0264
X000926Y026425
X00042Y02647
X00212Y0265
X00232Y0265
X001235Y026585
X0009Y0266
X00168Y02662
X00032Y02663
X00112Y02674
X00042Y02678
X001716Y026783
X00026Y02682
X001226Y026873
X00006Y02688
X0017Y026953
X0011Y02698
X0002Y02698
X002217Y026981
X00116Y02714
X00042Y02716
X001693Y027176
X0012Y0273
X00086Y02732
X0016Y0274
X002138Y027436
X001683Y027549
X001197Y027584
X001872Y027733
X000899Y027766
X000072Y02779
X00089Y02793
X0022Y028013
X000156Y028082
X001185Y028129
X000406Y028176
X0022Y0282
X00172Y02822
X00112Y02838
X000236Y028386
X00197Y02844
X00176Y02852
X000878Y028592
X00125Y0286
X000892Y028752
X001251Y028771
X002097Y028782
X000263Y028901
X001696Y028947
X002274Y028949
X00084Y028951
X001Y028965
X001201Y029106
X001755Y029207
X001155Y02935
X0017Y02936
X000546Y029465
X000714Y029489
X00125Y0295
X-000012Y029524
X001699Y029538
X00097Y029545
X000107Y029663
X00105Y02971
X001205Y029778
X-000019Y029778
X000694Y029791
X000514Y029795
X000277Y029834
X001754Y029932
X00194Y029932
X002224Y030261
X000086Y030285
X001462Y030289
X00077Y03029
X00044Y03031
X001047Y030393
X001478Y030465
X000034Y030471
X000469Y030474
X00072Y0305
X000307Y030529
X00162Y030708
X000231Y031263
X000554Y03127
X00104Y031287
X000304Y031612
X000304Y031775
X000629Y032521
X000912Y032771
X001492Y032843
X001794Y033277
X000453Y033284
X000127Y033284
X000291Y0333
X002092Y03336
X-000102Y033427
X00226Y033459
X000029Y033526
X001364Y033582
X000713Y033591
X002247Y033639
X000516Y033701
X001526Y033722
X001197Y033869
X-000102Y033875
X001634Y034051
X00081Y034137
X001155Y03416
X000234Y034163
X00056Y03418
X000224Y034437
X00056Y03444
X-00004Y034468
X000791Y034492
X00204Y03456
X000237Y034749
X001135Y034757
X0023Y03482
X000563Y035016
X001098Y035027
X-000049Y035036
X000235Y035038
X000836Y035053
X001564Y035054
X00058Y0352
X00022Y035311
X000911Y035324
X001383Y035595
X000978Y035641
X000402Y035748
X002264Y035832
X000084Y035867
X002024Y036756
X001529Y036756
X-00006Y03676
X001013Y03676
X00048Y03676
X002472Y036756
X00443Y036756
X003902Y036756
X003442Y036756
X002929Y036756
X004065Y035595
X004234Y035576
X00484Y035285
X002398Y035277
X003285Y035274
X004525Y03526
X003613Y034969
X004542Y034962
X002963Y034642
X004444Y034633
X003582Y034632
X004693Y034615
X003183Y034574
X004345Y034495
X003Y03424
X0034Y03416
X002835Y034067
X00406Y03402
X002661Y033962
X004838Y033851
X00277Y033826
X0045Y03376
X003492Y033733
X00392Y033686
X003277Y033431
X004861Y033391
X00391Y03338
X004534Y033378
X004537Y033081
X002958Y033063
X003623Y032753
X00436Y03272
X00383Y032594
X002634Y03259
X002486Y032507
X004649Y032503
X003829Y032395
X004402Y032153
X004833Y032093
X003606Y031935
X004836Y031923
X00446Y0319
X003732Y031803
X0044Y0317
X00412Y03166
X00382Y03154
X003879Y031237
X003148Y031122
X004Y0311
X002611Y03109
X003491Y031085
X003332Y031068
X002682Y030763
X00476Y03074
X004505Y030703
X00466Y0306
X00326Y03047
X002981Y030403
X004119Y030293
X00452Y03028
X003056Y030261
X00356Y03026
X00476Y03014
X00452Y03009
X0043Y03008
X00357Y03006
X003767Y030054
X004053Y030052
X00312Y030025
X003729Y029896
X004155Y029865
X00455Y029865
X00396Y02986
X00357Y02983
X00357Y02967
X00376Y02967
X00408Y02967
X00428Y02967
X002943Y029658
X003099Y029605
X004709Y02951
X004525Y02951
X00322Y02946
X00435Y029408
X004877Y029371
X003907Y029324
X00372Y029315
X004115Y029315
X00357Y02927
X002947Y029258
X00432Y02924
X00327Y029213
X00388Y02916
X00408Y02915
X00455Y029015
X00416Y02896
X00396Y02896
X003755Y028945
X002875Y028933
X00472Y0289
X004155Y02876
X00373Y02873
X003534Y02873
X00392Y02872
X004475Y028685
X004675Y028685
X002938Y028608
X003565Y028565
X00416Y028565
X003755Y028555
X00393Y02853
X004345Y028492
X00468Y02849
X003755Y028375
X004155Y02836
X003934Y028346
X003528Y028324
X003302Y0283
X00436Y02828
X003199Y028175
X004085Y02816
X00355Y02815
X00428Y02815
X0047Y02814
X00373Y02813
X00354Y02788
X0037Y02786
X00387Y02786
X004608Y027852
X004747Y027733
X004383Y027694
X003758Y027693
X004818Y027627
X002961Y027538
X00311Y027538
X00454Y027525
X002961Y027406
X004541Y027386
X00246Y02736
X00392Y02726
X00392Y02702
X00478Y02694
X00446Y026813
X00402Y0267
X00318Y02662
X003Y02656
X00252Y0265
X00272Y02648
X0044Y02648
X0034Y02646
X00482Y0264
X0036Y02638
X00286Y0263
X0036Y02618
X003Y02606
X00252Y02598
X00418Y025563
X0031Y02548
X004351Y025474
X003701Y025297
X0031Y02528
X0031Y02508
X00318Y02492
X00418Y02458
X002561Y024347
X00378Y02358
X00398Y02358
X00434Y02356
X00426Y0233
X0027Y02322
X00282Y02322
X003534Y02298
X00428Y02294
X00364Y02272
X00264Y02248
X00486Y02248
X00388Y02246
X003691Y022319
X002972Y022064
X00252Y02198
X00324Y02184
X00266Y02167
X00246Y02153
X002989Y021529
X0032Y02141
X002824Y021402
X00356Y02134
X002977Y021339
X002657Y021261
X00415Y02125
X00356Y02122
X00348Y02094
X00422Y02092
X0034Y02086
X003426Y020558
X00418Y020494
X003432Y020282
X00418Y02018
X002562Y020015
X00286Y01994
X00394Y01976
X00288Y0195
X00262Y01948
X00474Y01942
X00474Y01924
X00238Y01924
X00288Y01922
X00474Y01906
X003218Y019012
X003345Y019012
X003341Y01886
X003218Y01886
X002523Y018524
X002523Y01838
X00374Y018
X00392Y018
X0042Y01766
X00378Y01754
X0046Y01736
X00415Y01703
X00478Y01666
X00388Y01664
X00304Y01664
X0036Y01664
X00416Y01664
X00332Y01664
X00248Y01664
X00276Y01664
X004874Y016523
X00466Y0164
X0036Y01638
X00418Y01638
X00304Y01638
X00332Y01638
X00388Y01638
X00248Y01638
X00276Y01638
X002951Y016007
X003126Y016003
X002479Y015987
X003448Y015974
X00476Y01584
X00426Y01564
X00476Y01528
X003541Y01506
X002621Y0143
X00291Y01392
X00272Y01392
X0029Y01374
X00271Y01373
X00291Y01357
X00272Y01355
X004491Y0135
X00437Y0135
X00425Y0135
X004081Y0135
X0029Y01339
X00272Y01336
X003801Y01331
X00425Y01326
X00437Y01326
X00273Y01319
X004081Y01318
X00293Y01317
X00437Y01314
X00425Y01314
X004081Y01306
X004491Y01306
X00392Y01276
X00338Y01276
X00414Y01276
X00434Y01276
X00458Y01276
X00316Y01276
X002873Y012715
X002708Y012675
X00338Y01258
X00434Y01258
X00414Y01258
X00316Y01258
X00458Y01258
X00392Y01258
X00288Y01258
X003981Y01216
X00428Y01214
X00484Y01188
X003931Y01159
X00436Y01142
X00462Y01134
X003931Y01125
X00288Y01122
X003311Y01116
X003861Y01097
X00448Y01096
X0048Y01094
X00454Y01062
X00334Y010613
X00452Y01036
X003651Y01034
X00396Y01022
X0031Y01002
X00266Y01002
X0045Y01
X00482Y00996
X0042Y00996
X00364Y00984
X002771Y00968
X002481Y00961
X002771Y0095
X0042Y0094
X00485Y009393
X002551Y00935
X00388Y00933
X002551Y00895
X0034Y0089
X003631Y00887
X00261Y008733
X00452Y00846
X004207Y008421
X00486Y00842
X003891Y0084
X003001Y00831
X00437Y008253
X00486Y00812
X00394Y0081
X004522Y0081
X002991Y00808
X00333Y008073
X0042Y00782
X003671Y00777
X004841Y00743
X004201Y00743
X00322Y0074
X00366Y00724
X00422Y00724
X0046Y00724
X00322Y0068
X0031Y0068
X00334Y0068
X00346Y0068
X00454Y00678
X00418Y00678
X00442Y00678
X00406Y00678
X0043Y00678
X00394Y00678
X00466Y00678
X004611Y00626
X004291Y00626
X003971Y00626
X002511Y00624
X003591Y00615
X002511Y006
X002801Y0054
X004701Y00538
X004111Y00538
X004501Y00538
X003911Y00538
X004301Y00538
X00242Y00502
X00324Y00494
X0048Y00484
X004281Y0048
X004521Y0048
X003801Y0048
X004041Y0048
X00324Y00472
X002471Y00458
X004041Y00456
X003801Y00456
X004281Y00456
X004761Y00456
X004521Y00456
X003111Y00453
X003231Y00453
X003231Y00434
X003111Y00434
X004521Y00432
X004041Y00432
X002471Y00425
X003111Y00414
X003231Y00414
X003801Y00408
X004041Y00408
X004521Y00408
X004281Y00408
X004761Y00408
X002471Y00393
X004521Y00384
X004761Y0036
X004521Y0036
X004041Y0036
X004281Y0036
X004041Y00336
X004521Y00336
X004281Y00312
X004041Y00312
X004761Y00312
X004521Y00312
X003801Y00312
X003111Y00296
X003231Y00296
X003651Y00184
X004391Y0018
X003251Y00179
X002931Y00179
X002621Y00179
X00451Y00168
X00284Y00136
X003Y00136
X00332Y00136
X0038Y00136
X00252Y00136
X00364Y00136
X00396Y00136
X00428Y00136
X00316Y00136
X0046Y00136
X00444Y00136
X00412Y00136
X00268Y00136
X00348Y00136
X00476Y00136
X00252Y00124
X00444Y00124
X00316Y00124
X0038Y00124
X00476Y00124
X00348Y00124
X00284Y00124
X00412Y00124
X00396Y00112
X00268Y00112
X003Y00112
X00412Y00112
X0038Y00112
X00348Y00112
X00476Y00112
X00444Y00112
X0046Y00112
X00332Y00112
X00284Y00112
X00364Y00112
X00252Y00112
X00316Y00112
X00428Y00112
X00716Y00112
X00588Y00112
X0062Y00112
X00556Y00112
X00652Y00112
X00684Y00112
X00524Y00112
X00492Y00112
X00716Y00136
X0062Y00136
X00524Y00136
X00556Y00136
X00492Y00136
X00588Y00136
X00652Y00136
X00684Y00136
X007361Y00173
X005211Y00178
X006621Y00202
X006269Y002124
X006144Y002248
X005081Y0028
X005601Y0028
X006071Y00296
X005951Y00296
X005001Y00312
X005481Y00312
X005241Y00312
X005481Y00336
X005001Y00336
X005241Y0036
X005001Y0036
X005481Y0036
X005001Y00408
X005481Y00408
X005241Y00408
X00536Y0042
X005001Y00432
X005901Y00434
X007001Y00456
X005241Y00456
X005001Y00456
X005481Y00456
X005241Y0048
X005001Y0048
X005481Y0048
X00596Y00494
X005491Y00538
X004891Y00538
X005091Y00538
X005891Y00626
X005571Y00626
X005251Y00626
X004931Y00626
X007151Y00633
X00692Y0066
X0065Y0066
X00668Y0066
X0068Y0066
X00704Y0066
X005592Y006714
X006073Y006714
X00507Y006716
X00668Y00678
X00704Y00678
X0068Y00678
X00584Y00678
X00648Y00678
X0057Y00678
X00518Y00678
X00536Y00678
X00526Y00724
X00566Y00724
X00498Y00724
X004971Y00742
X00526Y00742
X00736Y00747
X007041Y00747
X006097Y007476
X006701Y00779
X005641Y00794
X007357Y008106
X006097Y008106
X007357Y008421
X005Y00856
X00674Y00875
X00514Y00876
X00714Y009
X00676Y00904
X005121Y00905
X00578Y0091
X00596Y00928
X00712Y00938
X00672Y00938
X00652Y0095
X00688Y009522
X005Y00954
X005501Y00958
X00628Y00968
X00694Y0097
X00676Y0097
X00676Y00988
X00716Y00996
X0051Y00998
X00572Y01004
X00626Y01008
X00662Y0102
X00638Y01026
X00714Y0103
X006091Y01031
X005831Y01036
X00498Y01044
X00626Y01046
X006101Y01062
X005782Y010625
X006591Y01078
X00676Y01084
X00714Y01084
X005782Y01094
X005461Y01101
X00718Y01108
X006255Y01108
X006891Y0111
X006097Y011255
X00544Y01126
X00718Y0114
X006261Y01141
X005471Y01157
X00642Y01158
X00664Y01172
X00678Y01182
X005221Y01216
X006041Y01219
X005701Y01219
X006986Y012578
X00648Y01258
X00632Y01258
X0053Y01258
X0057Y01258
X005131Y012584
X005515Y012597
X006007Y012604
X007296Y012632
X006778Y012671
X005859Y013594
X00592Y01382
X00494Y01401
X00518Y01401
X00506Y01401
X00558Y01406
X00546Y01406
X00494Y01413
X00518Y01413
X00506Y01413
X00558Y01418
X00546Y01418
X00518Y01425
X00494Y01425
X00506Y01425
X007225Y015445
X00658Y01545
X0072Y0157
X00723Y01598
X00674Y01638
X00646Y01638
X0073Y01638
X00702Y01638
X00674Y01664
X00646Y01664
X0073Y01664
X00702Y01664
X00593Y01703
X00605Y01703
X00581Y01703
X006988Y017054
X006868Y017054
X006732Y017054
X00605Y01715
X00593Y01715
X00581Y01715
X006988Y017188
X006737Y017188
X00687Y017188
X00605Y01727
X00593Y01727
X00581Y01727
X00687Y017334
X006988Y017336
X006737Y01734
X00722Y018
X00558Y0181
X00671Y018108
X005963Y018115
X00596Y0183
X0055Y0185
X00572Y0185
X00638Y01854
X00592Y0187
X00728Y01872
X0069Y01872
X0063Y01872
X00572Y01872
X00536Y01884
X0061Y01888
X0065Y01892
X007255Y018948
X00498Y01906
X006066Y019066
X007185Y019208
X0064Y01926
X00498Y01942
X00488Y0196
X00562Y0196
X00574Y02002
X00602Y02042
X00655Y02053
X005093Y02068
X007023Y020731
X004982Y02092
X00574Y02096
X005153Y021108
X00526Y02136
X006487Y021786
X007177Y021856
X006487Y021976
X007177Y021994
X005698Y022038
X005537Y022058
X00516Y02222
X00568Y02256
X006803Y022982
X00607Y02322
X00587Y02322
X00513Y02353
X00568Y0236
X006232Y023707
X006058Y023712
X006645Y023713
X00692Y023724
X007237Y023729
X006357Y023898
X006646Y0239
X006933Y023906
X007245Y023906
X00536Y02392
X00568Y02392
X007131Y024093
X006823Y024097
X006534Y024099
X006204Y024101
X005653Y024115
X00514Y02412
X005877Y024133
X007274Y024186
X006818Y02427
X007258Y024341
X00563Y024366
X006227Y024374
X005934Y024374
X006536Y024374
X006973Y024491
X006709Y024514
X006415Y024517
X007214Y024518
X006095Y024527
X0051Y0249
X005672Y025767
X00705Y02597
X00725Y02598
X0071Y02638
X007282Y02656
X00636Y02658
X00604Y02658
X005811Y026805
X005124Y026832
X00532Y02684
X006399Y026986
X00655Y02699
X006049Y027043
X00734Y02718
X0071Y02732
X007377Y027512
X006131Y027514
X00677Y027519
X00722Y02774
X005035Y027864
X00726Y02794
X00593Y028027
X0072Y0281
X00566Y028165
X00546Y02817
X00514Y02829
X005686Y028333
X00726Y02834
X005466Y028356
X006414Y028434
X006906Y028485
X005135Y028491
X00703Y0285
X005465Y028555
X005649Y028573
X007269Y028653
X005133Y028689
X007214Y028825
X00534Y02896
X007208Y029028
X005655Y029065
X00546Y02915
X0049Y02921
X0059Y02924
X005137Y029277
X005505Y029305
X00568Y02932
X005335Y02935
X0064Y02946
X005491Y029512
X00507Y029538
X00614Y02954
X00526Y02966
X005527Y029672
X00638Y0297
X005108Y029709
X00569Y02971
X00694Y02974
X00494Y02986
X00531Y02989
X007198Y029924
X00567Y02993
X005134Y029931
X00546Y03006
X00492Y03008
X00716Y03012
X006809Y03014
X00546Y03026
X00566Y03026
X00526Y03026
X00492Y03027
X00722Y03032
X006787Y03038
X00698Y03052
X00588Y03052
X00514Y03054
X00716Y03062
X00508Y03078
X0069Y03078
X00524Y0308
X00602Y03084
X00736Y031
X00624Y031
X00686Y03104
X00608Y03116
X007046Y0312
X00724Y03124
X00652Y0314
X00726Y0314
X00698Y03144
X00638Y03156
X007049Y031595
X0069Y03188
X006547Y031938
X005713Y032081
X006186Y032231
X005657Y032265
X004893Y032282
X006756Y032387
X005003Y032408
X006657Y032529
X005955Y032701
X006227Y032703
X006423Y032711
X00578Y033066
X00676Y033365
X005161Y033376
X005778Y033383
X005474Y033391
X007067Y033688
X005495Y033707
X005325Y033817
X00516Y033822
X006777Y03392
X00502Y03416
X00514Y03448
X00572Y03452
X00627Y034539
X005325Y034585
X006437Y034948
X006734Y034964
X005807Y034968
X00613Y034975
X007357Y035257
X006113Y035272
X007058Y035273
X005152Y035288
X005487Y035292
X005169Y035586
X0069Y035617
X006784Y036756
X006353Y036756
X007171Y036756
X005882Y03676
X00492Y03676
X00536Y03676
X009703Y037228
X009286Y037222
X008694Y037205
X009418Y037027
X009068Y03702
X0088Y036908
X008585Y036766
X00827Y036756
X007946Y036756
X007601Y036756
X009337Y036732
X009103Y036723
X00878Y03658
X00924Y0364
X009702Y036381
X008582Y036101
X00912Y03608
X008794Y036078
X008347Y03583
X009626Y03574
X008803Y035737
X008137Y03562
X00964Y03556
X008572Y035539
X00912Y03552
X007414Y035438
X008354Y035403
X008794Y035311
X00945Y03524
X009123Y0352
X008139Y035187
X008579Y035146
X008794Y034984
X008351Y034974
X00912Y03488
X008147Y03477
X008592Y034726
X008347Y03457
X008797Y034554
X008136Y034359
X008774Y034299
X008342Y034153
X009681Y034122
X00911Y03412
X008146Y033956
X00877Y033787
X008345Y033757
X009183Y033741
X009064Y03374
X008615Y033585
X008135Y033547
X00911Y03341
X008348Y033334
X008803Y033255
X008139Y033124
X009031Y03301
X00972Y033
X008345Y032918
X008648Y032918
X00984Y03288
X008794Y032746
X008146Y032719
X007471Y032571
X008345Y03252
X00876Y032395
X009781Y032364
X008152Y032326
X008344Y032135
X00912Y03212
X008598Y032091
X00814Y031931
X00952Y03192
X00924Y03188
X008787Y031774
X008331Y03174
X00784Y0316
X008645Y031562
X008143Y031551
X008331Y031362
X0076Y03136
X008817Y031265
X00774Y0312
X008147Y031177
X009297Y031132
X009754Y031117
X008622Y031017
X00778Y031
X008328Y030995
X008131Y030798
X008797Y030719
X009035Y030691
X00756Y03068
X008307Y030621
X007725Y030515
X008142Y030456
X00976Y03044
X008605Y030395
X00786Y03032
X008325Y030273
X00766Y03012
X00814Y030088
X008794Y030015
X009141Y02995
X008322Y029906
X008602Y029807
X008151Y029735
X007746Y029726
X009549Y029659
X008327Y029559
X009133Y029495
X008777Y029443
X008327Y029327
X00815Y029327
X008605Y029116
X008777Y028861
X00922Y02885
X008569Y028574
X00881Y028372
X009167Y028319
X009607Y028309
X008635Y028154
X008956Y028084
X009491Y028081
X008715Y027892
X009571Y027872
X00892Y02748
X00968Y02742
X0092Y02718
X00968Y02718
X008696Y027087
X00968Y02694
X00917Y02691
X00754Y02672
X00766Y02672
X009325Y026076
X009805Y026076
X008148Y02607
X00745Y0259
X0076Y0257
X00743Y02566
X009486Y025326
X00752Y025299
X009863Y025292
X008329Y02527
X007524Y025102
X008151Y024955
X007529Y024905
X009739Y024883
X007531Y024708
X008273Y0246
X007537Y024512
X009673Y024386
X008157Y024377
X00868Y024355
X008348Y024064
X009659Y024063
X008182Y023809
X0087Y02364
X009657Y023632
X00834Y023548
X008143Y023364
X00867Y023351
X008331Y023152
X00876Y023007
X008324Y022801
X009808Y022761
X008146Y022612
X008373Y022435
X008673Y022381
X008369Y02207
X00816Y022029
X00984Y022
X008661Y021985
X00748Y02124
X008177Y020903
X008373Y020628
X0074Y02054
X008974Y020482
X007769Y020425
X008247Y020415
X0074Y02026
X00816Y020188
X008659Y020092
X00748Y0199
X009616Y01985
X009139Y019717
X009626Y019517
X00786Y01943
X008339Y019089
X008168Y018918
X00833Y018884
X0078Y01874
X00812Y0187
X00834Y0186
X00818Y01842
X00756Y01836
X00838Y01832
X009532Y018222
X00862Y01816
X00772Y01806
X00814Y018
X00794Y0179
X008335Y017864
X008636Y017831
X009544Y017805
X00772Y01778
X00975Y01756
X00782Y01744
X009291Y017309
X009629Y017271
X008307Y017218
X00786Y01718
X00868Y017114
X008312Y016992
X008173Y016876
X009785Y01686
X009305Y01686
X0077Y01684
X008302Y016683
X008004Y01651
X007702Y015951
X008808Y015809
X007532Y015773
X007934Y015575
X00858Y01554
X009731Y01542
X00758Y01538
X0087Y01538
X009124Y01496
X008075Y01495
X00876Y01444
X00944Y01438
X00938Y01396
X00836Y01388
X0092Y01366
X0092Y01264
X008259Y012638
X008726Y012634
X007783Y012634
X009677Y012634
X007996Y01263
X009879Y012627
X008884Y012593
X008411Y01236
X00936Y0123
X0078Y01188
X0097Y01182
X00892Y01156
X00746Y01148
X00958Y0113
X0077Y01124
X00936Y01124
X00752Y01078
X00798Y0106
X00914Y0105
X00928Y01038
X0096Y01038
X007961Y01031
X00852Y01006
X00868Y01
X007991Y00999
X00852Y00984
X00896Y00972
X00738Y0097
X007931Y00968
X00898Y00913
X00884Y00913
X00926Y00913
X00912Y00913
X009526Y009111
X00864Y00911
X00844Y00911
X00746Y00906
X00864Y00899
X00844Y00899
X009701Y008966
X00884Y00894
X00898Y00894
X00912Y00894
X00864Y00887
X00844Y00887
X00864Y00875
X00844Y00875
X00808Y00874
X00746Y00874
X009211Y008668
X008948Y008666
X00864Y00863
X00844Y00863
X009501Y00862
X00986Y0086
X00784Y00858
X00864Y00851
X00844Y00851
X00766Y00844
X00798Y00844
X00844Y00839
X00864Y00839
X008871Y00831
X00864Y00827
X00844Y00827
X00899Y00819
X007987Y008106
X007671Y0081
X008572Y007706
X007671Y00747
X00844Y00744
X00864Y00744
X009321Y00725
X009621Y00725
X00844Y00718
X00864Y00718
X00844Y00706
X009321Y00701
X009621Y00701
X00844Y00694
X00864Y00694
X0083Y00678
X00864Y0067
X00844Y0067
X0083Y0066
X00798Y00656
X00864Y00646
X00844Y00646
X009071Y00645
X009801Y00645
X00949Y00645
X009681Y00645
X00937Y00645
X00981Y00611
X008651Y0061
X009681Y00567
X008881Y00517
X00848Y005067
X008911Y0046
X008911Y00417
X008871Y00388
X009201Y00386
X008911Y0036
X007481Y00352
X008911Y00317
X008911Y00279
X008911Y00236
X007921Y00192
X00908Y00136
X00972Y00136
X0094Y00136
X00748Y00136
X00812Y00136
X00844Y00136
X0078Y00136
X00876Y00136
X00972Y00112
X00908Y00112
X00876Y00112
X00844Y00112
X0094Y00112
X0078Y00112
X00812Y00112
X00748Y00112
X011Y00112
X01132Y00112
X01036Y00112
X01004Y00112
X01068Y00112
X01212Y00122
X01212Y00134
X01132Y00136
X011Y00136
X01036Y00136
X01068Y00136
X01004Y00136
X01164Y00142
X01188Y00142
X01212Y00146
X01212Y00158
X01212Y0017
X01164Y00174
X01188Y00174
X010731Y00176
X01212Y00182
X009941Y00184
X011141Y00193
X01164Y00206
X01188Y00206
X009941Y00229
X01188Y00238
X010341Y00238
X01164Y00238
X012171Y00251
X012171Y00263
X01164Y0027
X01188Y0027
X011311Y00279
X01188Y00302
X01164Y00302
X01057Y00318
X010171Y00318
X011709Y003238
X012171Y00329
X012171Y00341
X010171Y00342
X01057Y00342
X01172Y00352
X01057Y00366
X010171Y00366
X01057Y0039
X010171Y0039
X01175Y004117
X01057Y00414
X010171Y00414
X011311Y00422
X010921Y00423
X010171Y00438
X010571Y00438
X011731Y00441
X011721Y004581
X010171Y00462
X010571Y00462
X011731Y00485
X010571Y00486
X01234Y00501
X010641Y0052
X0103Y0052
X011731Y00529
X010281Y00567
X009981Y00567
X010581Y00567
X011731Y00573
X011774Y005948
X01164Y00602
X010411Y00612
X011311Y00612
X011011Y00612
X010711Y00612
X010111Y00612
X011736Y00614
X011952Y006392
X011739Y006392
X011311Y00645
X010711Y00645
X009981Y00645
X011021Y00645
X011191Y00645
X010901Y00645
X010291Y00645
X010101Y00645
X010411Y00645
X010591Y00645
X01182Y00678
X012161Y00689
X01182Y0069
X010821Y00701
X009921Y00701
X010221Y00701
X01217Y00715
X010221Y00725
X009921Y00725
X010521Y00725
X010821Y00725
X01033Y007512
X010196Y007512
X010671Y00775
X010335Y007782
X01019Y007785
X011658Y008128
X011364Y008129
X011161Y008161
X012366Y008202
X010943Y008223
X010602Y008223
X011366Y008284
X011544Y008284
X012373Y008527
X011658Y008593
X01018Y0086
X01046Y008656
X011061Y00868
X010734Y008707
X010047Y008958
X010451Y009
X01124Y00902
X010306Y009089
X010919Y009095
X0106Y00912
X01012Y00912
X009921Y009123
X0111Y0093
X01128Y0093
X01078Y00942
X01126Y00948
X01144Y00948
X0111Y00948
X01092Y0095
X011651Y00971
X01048Y00974
X0102Y00974
X01112Y00982
X011781Y00986
X009892Y010075
X010837Y010075
X012059Y01008
X010211Y01008
X01104Y01008
X01132Y01022
X011781Y01032
X010837Y01039
X011152Y01039
X01008Y01048
X01208Y01048
X01094Y01058
X0102Y01068
X00998Y01068
X01162Y0107
X011291Y01084
X01192Y01088
X011791Y01102
X011467Y01102
X012097Y01102
X01064Y01106
X01048Y01108
X01194Y01114
X01084Y01116
X01006Y01116
X011611Y01117
X012068Y011279
X0105Y01132
X011152Y011335
X0099Y01136
X01178Y01136
X011001Y01148
X011311Y01149
X01066Y0115
X0108Y0116
X00988Y01164
X01144Y01164
X010522Y01165
X01036Y01182
X012084Y011862
X01012Y01188
X011811Y011964
X011668Y012265
X011407Y012343
X010826Y012619
X011115Y012632
X010159Y012636
X010628Y012636
X011386Y012637
X010334Y01264
X01206Y01348
X0102Y0137
X01006Y01394
X01204Y01396
X010828Y013972
X011522Y014058
X0123Y01414
X01174Y01422
X01036Y01436
X012207Y01454
X01176Y01454
X011044Y014718
X011Y0151
X011892Y015274
X012048Y015281
X010281Y01536
X010761Y01536
X010047Y015426
X011899Y01543
X011742Y016036
X010532Y016134
X010281Y01632
X010532Y016614
X010081Y016618
X010137Y016964
X010532Y017094
X011921Y017323
X01023Y01756
X010532Y017574
X010499Y017843
X012336Y018174
X011749Y018201
X011269Y018201
X010096Y018215
X010576Y018215
X010795Y01825
X009917Y018475
X010397Y018475
X012164Y01851
X011742Y018636
X011155Y018663
X010675Y018663
X010158Y018974
X010786Y019023
X011746Y019023
X011266Y019023
X012226Y019023
X012264Y019212
X010585Y019321
X011269Y019326
X010192Y019495
X011266Y019503
X011746Y019503
X012226Y019503
X010786Y019503
X010642Y019666
X01191Y019718
X011109Y019829
X010042Y019856
X010522Y019856
X012097Y019964
X011342Y019988
X011782Y020024
X012177Y020172
X011056Y020262
X01222Y020437
X011782Y020504
X011061Y02056
X011288Y020974
X011782Y020984
X010701Y021001
X010221Y021001
X012127Y021507
X011303Y02159
X010716Y021617
X010236Y021617
X009914Y021814
X01112Y022
X01144Y022
X01176Y022
X01048Y022
X0108Y022
X01016Y022
X01208Y022
X00993Y022189
X01208Y02232
X01112Y02232
X01176Y02232
X0108Y02232
X01144Y02232
X01208Y02264
X01144Y02264
X0108Y02264
X01176Y02264
X01112Y02264
X01112Y02296
X0108Y02296
X01176Y02296
X01144Y02296
X01208Y02296
X01208Y02328
X01144Y02328
X01112Y02328
X0108Y02328
X01176Y02328
X0108Y0236
X01208Y0236
X01176Y0236
X01144Y0236
X01112Y0236
X0108Y02392
X01176Y02392
X01112Y02392
X01144Y02392
X01208Y02392
X012034Y024395
X011959Y024595
X010892Y024622
X011372Y024622
X011723Y024906
X01095Y025012
X011816Y025288
X011336Y025288
X010899Y025293
X012188Y025293
X010025Y025653
X010553Y025663
X011033Y025663
X012295Y025663
X01147Y025674
X01195Y025674
X010944Y025863
X012231Y026055
X010738Y026076
X010258Y026076
X011164Y026082
X011644Y026082
X011783Y02631
X010716Y026337
X011196Y026337
X012372Y026359
X010065Y026424
X010266Y026843
X01084Y02694
X010009Y027023
X010517Y027029
X01086Y02718
X01084Y02742
X012088Y027493
X012363Y028232
X010466Y028312
X010767Y028322
X010139Y028326
X01236Y02836
X01112Y02904
X01168Y02912
X0099Y02915
X01088Y02919
X01056Y0292
X010389Y029524
X00996Y0296
X01056Y02972
X010393Y029724
X01036Y02996
X01054Y030109
X010367Y030127
X0122Y0302
X010445Y030275
X010299Y030277
X010935Y030373
X01008Y03064
X01134Y03065
X01166Y03065
X01192Y03068
X01108Y03068
X01087Y03077
X010315Y03114
X01003Y031166
X00988Y03168
X01054Y03169
X010503Y03193
X009893Y031932
X010188Y031942
X01097Y0321
X01065Y0321
X0119Y03211
X01002Y03211
X01033Y03211
X010504Y032132
X010798Y032279
X01128Y03242
X01096Y03242
X01065Y03242
X011716Y032546
X011112Y032575
X010803Y032584
X012373Y032738
X01222Y03274
X01064Y03274
X010787Y03285
X01096Y03304
X01159Y03305
X01033Y03305
X01128Y03305
X01191Y03306
X011433Y03316
X01096Y03336
X01224Y03336
X009996Y033368
X01159Y03337
X01065Y03337
X011795Y03348
X01128Y03368
X0116Y03368
X01222Y03368
X0116Y034
X01033Y034
X01064Y034
X01Y03432
X011278Y034328
X01222Y03462
X011898Y034637
X01159Y03494
X01223Y03495
X01191Y03495
X011278Y035239
X01191Y03525
X01222Y03526
X01002Y03557
X01127Y03557
X01227Y035917
X012199Y03611
X012126Y036254
X012033Y036363
X01172Y036451
X01192Y03652
X011568Y036543
X011849Y036715
X011537Y036715
X011697Y036724
X012156Y036789
X010496Y037
X009901Y037007
X01165Y03701
X011009Y037017
X012129Y037093
X011256Y037209
X010678Y037232
X011858Y037232
X010169Y037242
X01249Y036789
X012906Y036405
X012589Y036356
X013257Y036104
X013174Y035794
X012499Y035498
X013789Y03548
X013571Y0354
X01403Y035162
X01336Y03496
X01359Y03495
X013961Y034805
X014377Y03466
X01332Y03464
X01336Y03432
X014225Y034306
X014619Y034194
X013346Y034
X014467Y033863
X01405Y03371
X012652Y033477
X014685Y033466
X013208Y033311
X013208Y03316
X01388Y033
X01416Y03288
X014673Y032657
X013641Y0326
X01245Y032574
X01333Y03252
X012539Y032416
X013561Y032316
X013733Y032315
X013957Y032309
X012699Y0323
X013209Y0323
X012903Y032298
X013059Y032298
X013376Y032296
X014449Y032294
X014135Y03227
X01396Y0321
X014288Y032063
X014413Y031914
X012542Y031882
X012663Y031773
X01462Y03176
X01388Y0317
X012797Y031692
X014183Y031611
X01261Y031604
X01244Y0316
X01436Y03152
X012814Y031357
X013183Y031313
X0144Y03128
X01392Y0312
X013287Y031174
X014226Y031163
X0128Y03104
X014252Y031028
X013228Y031009
X014479Y030832
X013838Y030823
X01478Y03082
X014295Y030811
X01361Y030742
X013468Y030733
X012995Y030733
X01401Y030733
X012491Y030717
X013228Y030455
X01384Y03028
X01292Y03012
X014257Y0301
X014842Y030085
X014617Y029864
X014232Y028889
X014533Y028886
X014863Y028883
X01337Y028873
X012693Y027499
X013551Y027499
X013791Y027499
X013272Y027489
X012962Y02748
X014617Y027173
X014275Y02717
X012852Y026359
X014281Y026337
X013801Y026337
X013439Y026332
X014868Y02631
X013619Y026071
X014099Y026071
X013193Y026066
X012713Y026066
X014686Y026044
X013619Y025646
X014099Y025646
X012713Y025641
X013193Y025641
X014686Y025619
X013515Y025304
X014033Y025304
X014513Y025304
X013035Y025304
X012668Y025293
X014304Y024945
X013824Y024945
X01276Y024938
X013197Y024932
X012404Y024655
X012956Y024588
X01464Y02456
X013594Y024479
X014031Y024474
X012471Y02439
X01464Y02424
X013681Y02392
X01464Y02392
X01432Y02392
X014Y02392
X01304Y02392
X01336Y02392
X01272Y02392
X0124Y02392
X01272Y0236
X0124Y0236
X013681Y0236
X01336Y0236
X014Y0236
X01432Y0236
X01464Y0236
X01304Y0236
X0124Y02328
X014Y02328
X01464Y02328
X01432Y02328
X01336Y02328
X01368Y02328
X01272Y02328
X01304Y02328
X013041Y02296
X0124Y02296
X014Y02296
X01432Y02296
X01272Y02296
X01464Y02296
X01336Y02296
X013681Y02296
X01304Y02264
X0124Y02264
X01432Y02264
X01336Y02264
X014Y02264
X01464Y02264
X01272Y02264
X013681Y02264
X01304Y02232
X01432Y02232
X0124Y02232
X01464Y02232
X01336Y02232
X01272Y02232
X013999Y02232
X01368Y02232
X0124Y022
X01432Y022
X01272Y022
X01368Y022
X013999Y022
X01464Y022
X01304Y022
X01336Y022
X01464Y02168
X013033Y021512
X013513Y021512
X012607Y021507
X0141Y021485
X014761Y021221
X014281Y021221
X013392Y020838
X013872Y020838
X012966Y020833
X012486Y020833
X014459Y020811
X013607Y02029
X014087Y02029
X014674Y020263
X013128Y020243
X012657Y020172
X012577Y019964
X014462Y019961
X013578Y019653
X014058Y019653
X014645Y019626
X012527Y019619
X013007Y019619
X01444Y019329
X012808Y019278
X013614Y019044
X014094Y019044
X012706Y019023
X014682Y019017
X013249Y018839
X014558Y018484
X01392Y018482
X013037Y01848
X012557Y01848
X013517Y01848
X013688Y018055
X014168Y018055
X014755Y018028
X013746Y01763
X014226Y01763
X014813Y017603
X012425Y017524
X012878Y017329
X013312Y016483
X014601Y01536
X014121Y01536
X012856Y015191
X012924Y014859
X013215Y014855
X01294Y01458
X014151Y014388
X014016Y014388
X012898Y014166
X014461Y01402
X01302Y01378
X014871Y01371
X013409Y01347
X01329Y0131
X012909Y0131
X013703Y013078
X013641Y01296
X012798Y012696
X012995Y012694
X01319Y012692
X013193Y012399
X012907Y012294
X013188Y012108
X01319Y011914
X01296Y01165
X013641Y01152
X013901Y011414
X013196Y011389
X012981Y011383
X014151Y011087
X013183Y011074
X012912Y011042
X014151Y010924
X01319Y010878
X012956Y01062
X01328Y01052
X013205Y010381
X014009Y01025
X012956Y01019
X013879Y010119
X013095Y010013
X013193Y009815
X014298Y00952
X013186Y009486
X012826Y009481
X014298Y009346
X013211Y00927
X0136Y00924
X012425Y009066
X012974Y009044
X012656Y00904
X01318Y00903
X01378Y00888
X01238Y008841
X01266Y00883
X012985Y008761
X013193Y008666
X012646Y008555
X012979Y008486
X013204Y008415
X014704Y008229
X0126Y008209
X012904Y008206
X01318Y00815
X012821Y00773
X01318Y00771
X01434Y00744
X013188Y007423
X01374Y0072
X01442Y0072
X01259Y00712
X013195Y007069
X01398Y00704
X0137Y007
X013196Y006914
X014601Y00672
X013641Y00672
X014121Y00672
X013193Y006614
X013252Y006424
X012448Y006399
X01293Y006392
X012692Y006392
X0135Y006298
X01389Y006298
X01371Y006298
X014121Y00624
X014601Y00624
X01389Y006074
X01366Y00606
X0135Y00606
X0137Y00585
X014601Y00576
X014121Y00576
X01348Y00565
X01369Y00545
X014601Y00528
X01348Y00525
X013681Y00506
X01348Y00485
X014121Y0048
X013647Y004459
X01338Y004453
X0132Y00442
X013514Y004404
X013817Y004404
X013931Y004309
X01338Y0043
X01364Y0043
X013Y00428
X0132Y00424
X013869Y004182
X01426Y00382
X014736Y00353
X013251Y00342
X013251Y0033
X01417Y00325
X01417Y00313
X01479Y00308
X01414Y00288
X013641Y00288
X014601Y00288
X013251Y00263
X013251Y00251
X014601Y0024
X013641Y0024
X014601Y00144
X014121Y00144
X014121Y00096
X015081Y0024
X015081Y00288
X01544Y002987
X015193Y003101
X015464Y00352
X015055Y00353
X015561Y00384
X015485Y004404
X01552Y00486
X01564Y00486
X01558Y00564
X015081Y00576
X01548Y00584
X015379Y006075
X015518Y006081
X015818Y006089
X015081Y00624
X015818Y006327
X015677Y006327
X015527Y006327
X015379Y006327
X015081Y00672
X015561Y00672
X015767Y008137
X015767Y00912
X015561Y01008
X015767Y010322
X015111Y01072
X015767Y011199
X015081Y01296
X015081Y01344
X015561Y01344
X016041Y01344
X015081Y01392
X016041Y01392
X015561Y01392
X016041Y0144
X016041Y01536
X015561Y01536
X015081Y01536
X016521Y01536
X015081Y01584
X015561Y01584
X014973Y0167
X015561Y0168
X016041Y0168
X015135Y017322
X01567Y017358
X015135Y017802
X01567Y017838
X015135Y018282
X01567Y018318
X015135Y018762
X01567Y018798
X015066Y020312
X015066Y020792
X015348Y021194
X015066Y021272
X01594Y02168
X01496Y02168
X0156Y02168
X01528Y02168
X01594Y022
X01496Y022
X01528Y022
X0156Y022
X01594Y02232
X01528Y02232
X01496Y02232
X0156Y02232
X01594Y02264
X01528Y02264
X01496Y02264
X0156Y02264
X01496Y02296
X01528Y02296
X01594Y02296
X0156Y02296
X01528Y02328
X01594Y02328
X0156Y02328
X01496Y02328
X01528Y0236
X0156Y0236
X01496Y0236
X01594Y0236
X01594Y02392
X0156Y02392
X01528Y02392
X01496Y02392
X01528Y02424
X01594Y02424
X0156Y02424
X01496Y02424
X0156Y02456
X01594Y02456
X01528Y02456
X01496Y02456
X01528Y02488
X0156Y02488
X01594Y02488
X015139Y025308
X016157Y027164
X015089Y027171
X015507Y027175
X015968Y027179
X01576Y02719
X01524Y02724
X0163Y02724
X016377Y02835
X0158Y02839
X01521Y0284
X015619Y02841
X0163Y02841
X016053Y028414
X015422Y028414
X015038Y028707
X015557Y028721
X015825Y028879
X015353Y028883
X015647Y029207
X015093Y02924
X015829Y029464
X015407Y029726
X015637Y029739
X015825Y030036
X015637Y030304
X015842Y030529
X015634Y030767
X015842Y031045
X0152Y031253
X015643Y031322
X015341Y03142
X015809Y031574
X01502Y03164
X015488Y031724
X015043Y031882
X01569Y031965
X015059Y032067
X0153Y032108
X015534Y032359
X015151Y032461
X015353Y032732
X014949Y032843
X015257Y033065
X014952Y033197
X014893Y033794
M30
