%
T1C.004F0S0
X-003901Y00314
X-003294Y003147
X-004397Y003322
X-00458Y0035
X-00446Y00368
X-00404Y00402
X-0044Y0041
X-00404Y00418
X-004378Y004394
X-00394Y00448
X-00436Y0047
X-00394Y00476
X-004774Y00507
X-00384Y00521
X-00384Y00545
X-00384Y00569
X-00384Y00593
X-00486Y006
X-00486Y00612
X-00386Y00617
X-00486Y00624
X-00486Y00636
X-00352Y00646
X-00486Y00648
X-00486Y0066
X-00352Y00666
X-00486Y00672
X-00352Y00684
X-00486Y00684
X-00486Y00696
X-00486Y00708
X-00338Y00718
X-00486Y0072
X-00486Y00732
X-00486Y00744
X-00486Y00756
X-00486Y00768
X-00486Y0078
X-00486Y00792
X-00486Y00804
X-00328Y00812
X-00434Y00812
X-00486Y00816
X-00486Y00828
X-00328Y00834
X-0044Y00834
X-00464Y00864
X-00464Y00876
X-00464Y00888
X-00464Y009
X-00464Y00912
X-00464Y00924
X-00488Y00924
X-00488Y00936
X-00464Y00936
X-00488Y00948
X-00464Y00948
X-00488Y0096
X-00464Y0096
X-00488Y00972
X-00464Y00972
X-00488Y00984
X-00464Y00984
X-00464Y00996
X-00488Y00996
X-00464Y01008
X-00488Y01008
X-00464Y0102
X-00488Y0102
X-00464Y01032
X-00488Y01032
X-00464Y01044
X-00488Y01044
X-00464Y01056
X-00488Y01056
X-00464Y01068
X-00488Y01068
X-00344Y01074
X-00464Y0108
X-00488Y0108
X-00464Y01092
X-00488Y01092
X-00488Y01104
X-00464Y01104
X-00464Y01116
X-00488Y01116
X-00344Y01124
X-00488Y01128
X-00464Y01128
X-00488Y0114
X-00464Y0114
X-00464Y01152
X-00488Y01152
X-00464Y01164
X-00488Y01164
X-00488Y01176
X-00464Y01176
X-00488Y01188
X-00464Y01188
X-00464Y012
X-00488Y012
X-00488Y01212
X-00464Y01212
X-00464Y01224
X-00488Y01224
X-00344Y01236
X-00464Y01236
X-00488Y01236
X-00488Y01248
X-00464Y01248
X-00464Y0126
X-00488Y0126
X-00464Y01272
X-00488Y01272
X-00464Y01284
X-00488Y01284
X-00464Y01296
X-00464Y01308
X-00494Y01336
X-00526Y01338
X-0055Y01342
X-00526Y0135
X-00438Y01354
X-0055Y01362
X-00558Y01376
X-00576Y01396
X-00502Y0142
X-00576Y0143
X-00576Y01466
X-00576Y01498
X-00482Y01522
X-00576Y01532
X-00576Y01568
X-00516Y01592
X-005Y0162
X-005Y01656
X-00488Y01688
X-00488Y01722
X-00488Y01758
X-0049Y01792
X-0049Y01826
X-0049Y01862
X-0049Y01896
X-0049Y0193
X-0049Y01966
X-00488Y02006
X-00488Y0204
X-00488Y02076
X-00488Y02106
X-00488Y0214
X-00488Y02176
X-00508Y0218
X-00508Y02214
X-00508Y0225
X-00486Y02266
X-00508Y02282
X-00508Y02316
X-00508Y02352
X-00508Y02384
X-0037Y02388
X-00508Y02418
X-00366Y0243
X-00508Y02454
X-0035Y02466
X-00374Y02478
X-00508Y02486
X-0035Y02492
X-00508Y0252
X-0035Y0253
X-00508Y02556
X-0035Y02562
X-00488Y02592
X-0035Y02616
X-00488Y02626
X-0035Y0265
X-00488Y02662
X-0035Y02686
X-00488Y02698
X-00358Y02702
X-00488Y02732
X-00354Y02742
X-00488Y02768
X-00358Y0279
X-00334Y02798
X-00488Y028
X-00358Y02814
X-00488Y02834
X-00356Y02854
X-00488Y0287
X-00358Y02876
X-00358Y02894
X-00358Y0291
X-00494Y02934
X-00342Y02948
X-00372Y02958
X-00336Y02964
X-00494Y02968
X-00374Y02974
X-00354Y02974
X-00494Y03002
X-00418Y03028
X-00494Y03034
X-0049Y03072
X-00446Y0308
X-00468Y03102
X-00358Y03118
X-00468Y03136
X-00358Y03152
X-004372Y031599
X-00462Y0318
X-00456Y03198
X-003877Y032139
X-00342Y03222
X-00444Y03234
X-00382Y03252
X-00348Y03272
X-0042Y033
X-003874Y033271
X-00366Y03388
X-00328Y03438
X-00084Y03712
X-00084Y0368
X-00124Y03654
X-00084Y03642
X-00086Y03624
X-00124Y03622
X-00156Y03622
X-00208Y0362
X-001253Y035936
X-00103Y035936
X-00196Y03566
X-001146Y035291
X-00127Y035136
X-001198Y034988
X-00284Y03496
X-000796Y034847
X-001475Y034724
X-001441Y034268
X-001619Y034262
X-000805Y034256
X-002231Y03422
X-000769Y034028
X-001208Y033976
X-00238Y03396
X-001908Y033911
X-001309Y033902
X-00158Y0338
X-00266Y03362
X-001471Y033547
X-002061Y033495
X-00099Y033436
X-00266Y03342
X-00238Y03328
X-001232Y033272
X-001987Y033148
X-00178Y033
X-001194Y032833
X-001401Y032765
X-001488Y032625
X-00206Y03258
X-001821Y032269
X-00136Y03222
X-00102Y03222
X-00102Y0319
X-00194Y03152
X-001099Y03152
X-00246Y0315
X-00162Y0315
X-00298Y03118
X-00246Y03118
X-00202Y03118
X-00162Y03116
X-00112Y03112
X-00298Y03084
X-00248Y03084
X-00202Y0308
X-00164Y0308
X-00112Y0307
X-00096Y0307
X-0025Y03046
X-00278Y02926
X-002952Y029235
X-00269Y02911
X-00114Y02892
X-0013Y02892
X-00096Y02892
X-00266Y02876
X-00232Y02866
X-000763Y028424
X-00206Y02818
X-001559Y028169
X-00294Y02814
X-00114Y028133
X-00276Y02802
X-001019Y028017
X-001754Y028009
X-002376Y027654
X-0018Y02744
X-00206Y02742
X-00102Y02718
X-00254Y02715
X-00256Y0266
X-00232Y02638
X-00264Y02618
X-00262Y02594
X-00238Y02556
X-00248Y0253
X-00196Y02522
X-00146Y02486
X-00248Y02472
X-0019Y02462
X-00146Y02454
X-00204Y02448
X-001Y02416
X-00154Y02412
X-0022Y02402
X-00182Y024
X-00146Y02386
X-00108Y02384
X-0022Y02368
X-00182Y02366
X-00146Y02354
X-00108Y02354
X-00182Y0235
X-002474Y023424
X-00162Y02324
X-00108Y02322
X-002473Y022958
X-00108Y0229
X-00162Y02288
X-00198Y02264
X-00162Y02254
X-002469Y02246
X-00198Y02228
X-002488Y022023
X-00198Y02194
X-00192Y021509
X-002015Y021413
X-002297Y021381
X-002507Y021335
X-002297Y021249
X-00184Y0207
X-00296Y0206
X-002715Y020125
X-00152Y02004
X-00152Y01968
X-00272Y01968
X-00152Y01934
X-00272Y01932
X-000802Y019184
X-0017Y01906
X-00272Y01898
X-0017Y0187
X-001312Y018693
X-00085Y018666
X-0017Y01836
X-000808Y018265
X-001381Y018183
X-000781Y017775
X-002445Y017754
X-001319Y017734
X-0028Y01742
X-000836Y017292
X-00258Y01726
X-00273Y01668
X-002703Y016505
X-00216Y01634
X-00284Y0163
X-002758Y01614
X-002738Y015904
X-0015Y01586
X-002082Y01569
X-002758Y01566
X-00326Y01547
X-00266Y01544
X-00134Y01542
X-002758Y01518
X-002089Y015173
X-0015Y01516
X-00298Y01512
X-002124Y014731
X-001239Y0144
X-002096Y014241
X-001479Y01422
X-002669Y014144
X-001239Y01392
X-001479Y01374
X-00288Y0137
X-00264Y01368
X-00182Y01344
X-002137Y013398
X-00284Y01326
X-002199Y01296
X-002703Y012922
X-00284Y01278
X-001819Y01248
X-002693Y012432
X-00286Y01234
X-00286Y01186
X-002679Y011804
X-00286Y01156
X-002728Y011334
X-00286Y01108
X-002707Y010775
X-00288Y01064
X-00278Y01048
X-0028Y01028
X-00268Y01028
X-0028Y01012
X-00268Y01012
X-001239Y01008
X-00248Y00974
X-00223Y00959
X-00256Y00914
X-00223Y00911
X-00223Y00863
X-00256Y0086
X-001569Y00853
X-0014Y00816
X-00172Y00816
X-00223Y00815
X-00256Y0081
X-00124Y008
X-00156Y008
X-00092Y00784
X-00124Y00784
X-00156Y00784
X-00256Y00778
X-00223Y00768
X-001719Y00768
X-00156Y00752
X-00092Y00752
X-00124Y00752
X-00256Y0074
X-00124Y00736
X-00156Y00736
X-00092Y00736
X-003114Y007234
X-00156Y0072
X-00223Y00718
X-00156Y00704
X-00092Y00704
X-00124Y00704
X-00256Y00696
X-00156Y00688
X-00124Y00688
X-00092Y00688
X-003121Y00682
X-00156Y00672
X-00223Y00671
X-00124Y00656
X-00156Y00656
X-00092Y00656
X-00256Y00654
X-00156Y0064
X-00092Y0064
X-003114Y006343
X-00223Y00624
X-001239Y00624
X-00156Y00624
X-00256Y0062
X-00156Y00608
X-00092Y00608
X-00156Y00592
X-00124Y00592
X-00092Y00592
X-00218Y00584
X-003059Y005812
X-00256Y00576
X-00092Y0056
X-00124Y0056
X-00156Y0056
X-00124Y00544
X-00092Y00544
X-003018Y005328
X-00256Y0053
X-00223Y0053
X-00124Y00512
X-00092Y00512
X-00124Y00496
X-00092Y00496
X-001719Y0048
X-00292Y00478
X-00234Y00468
X-00124Y00464
X-00092Y00464
X-00314Y00458
X-00262Y00452
X-00296Y0045
X-0024Y00448
X-00092Y00448
X-00124Y00448
X-002534Y004279
X-00304Y00426
X-00208Y00418
X-00124Y00416
X-00092Y00416
X-00124Y004
X-00092Y004
X-002141Y003968
X-00242Y00386
X-00092Y00384
X-001796Y003623
X-002431Y003616
X-00302Y00356
X-00152Y00344
X-001719Y00336
X-002199Y00336
X-002679Y00336
X-001239Y00336
X-002058Y003154
X-001589Y003154
X-002914Y003147
X-0024Y00308
X-002199Y00288
X-001719Y00288
X-001492Y002698
X-001913Y002657
X-00144Y00242
X-00232Y00238
X-00194Y00226
X-00172Y00222
X-00156Y00222
X-00088Y00202
X-00186Y00198
X-001185Y001696
X-00144Y00168
X-001975Y001656
X-001948Y001179
X-002445Y001145
X-001526Y001131
X000455Y001676
X000904Y001683
X00002Y001683
X001297Y001683
X-00056Y001697
X001711Y00173
X-000279Y00192
X000201Y00192
X000681Y00192
X001161Y00192
X-0006Y002
X001711Y00206
X-000049Y002153
X00042Y002153
X001007Y002153
X-000277Y002343
X000203Y002343
X000683Y002343
X001163Y002343
X0006Y0027
X00124Y0027
X00016Y0027
X000201Y00336
X000681Y00336
X-00016Y00344
X00052Y00352
X00004Y00368
X00052Y00368
X-0006Y00368
X-00044Y00384
X00004Y00384
X00052Y00384
X00004Y004
X00052Y004
X00068Y004
X-0006Y00416
X000681Y00416
X00036Y00416
X00004Y00416
X-000281Y00416
X-0006Y00448
X00068Y00448
X00004Y00448
X000359Y00448
X001Y00448
X-000281Y00448
X-0006Y00464
X00068Y00464
X00004Y00464
X000359Y00464
X001Y00464
X-000281Y00464
X-0006Y00496
X001321Y00496
X001Y00496
X000041Y00496
X000361Y00496
X00068Y00496
X-000281Y00496
X-0006Y00512
X001321Y00512
X000041Y00512
X000361Y00512
X00068Y00512
X001Y00512
X-000281Y00512
X0017Y00516
X-0006Y00544
X001321Y00544
X00004Y00544
X00036Y00544
X00068Y00544
X001Y00544
X-00028Y00544
X-0006Y0056
X001321Y0056
X00004Y0056
X00036Y0056
X00068Y0056
X001Y0056
X-00028Y0056
X000681Y00592
X00036Y00592
X-0006Y00592
X-00028Y00592
X001001Y00592
X00004Y00592
X-00028Y00608
X00036Y00608
X-0006Y00608
X000681Y00608
X00004Y00608
X-0006Y0064
X-00028Y0064
X000359Y0064
X00004Y0064
X-0006Y00656
X000359Y00656
X-00028Y00656
X00004Y00656
X-00028Y00688
X-0006Y00688
X-00028Y00704
X-0006Y00704
X-0006Y00736
X00164Y00746
X-0006Y00752
X-00018Y00898
X-000129Y00926
X000201Y00969
X-000169Y0098
X-000759Y01
X000201Y01104
X-000279Y01104
X000551Y01104
X000551Y01152
X000201Y01152
X-000039Y011774
X-000279Y012
X-000759Y012
X0013Y0122
X-00024Y0131
X00132Y0132
X-000109Y01325
X-00028Y01382
X00132Y0139
X-00028Y01416
X-00028Y01452
X00048Y01472
X0003Y01472
X00062Y01484
X-000099Y015
X001161Y01536
X000681Y01536
X001Y0166
X000358Y017347
X000989Y017373
X001469Y017373
X-000208Y017748
X000945Y017948
X001504Y018031
X000351Y018169
X-00027Y01821
X000966Y018445
X001497Y018645
X-000222Y01868
X000344Y018686
X000945Y019052
X0004Y019204
X001518Y019356
X000966Y019708
X001463Y020026
X-00027Y02005
X001183Y020093
X000175Y020098
X000945Y020316
X001504Y020447
X00114Y02048
X000365Y020578
X000959Y02082
X0011Y02136
X00168Y02168
X00152Y02184
X-00038Y02188
X-00006Y02188
X00032Y0219
X00064Y0219
X00168Y022
X00152Y02216
X0012Y02216
X-00006Y0222
X-00038Y0222
X00032Y02222
X00064Y02222
X00168Y02232
X00152Y02248
X-00006Y02252
X-00038Y02252
X00032Y02254
X00064Y02254
X00106Y0226
X00138Y0226
X-00006Y0229
X-00038Y0229
X-00076Y0229
X00106Y02292
X00032Y02292
X00138Y02292
X00064Y02292
X-00006Y02322
X-00076Y02322
X-00038Y02322
X00106Y02324
X00064Y02324
X00032Y02324
X00138Y02324
X-00076Y02354
X00122Y0236
X0006Y02372
X-00006Y02372
X00138Y02372
X00102Y02372
X00028Y02372
X00048Y02414
X-00038Y02426
X-00074Y0243
X00004Y02472
X00056Y02488
X-00018Y0249
X-00034Y02492
X0Y02496
X00128Y0256
X00104Y02578
X-00018Y02591
X0014Y02602
X-00004Y02612
X-00046Y0263
X0004Y0263
X-00026Y0266
X00134Y02662
X-00076Y02694
X00134Y02696
X-00012Y02698
X00088Y02698
X0004Y027
X-0006Y02718
X00158Y02736
X00092Y02774
X-00052Y02778
X-00018Y0278
X00022Y02792
X-00016Y02804
X-00048Y02814
X000513Y028522
X00064Y028657
X-00044Y02876
X000356Y028776
X00008Y02908
X000722Y029092
X00056Y029098
X00072Y03046
X0006Y030579
X00084Y031
X-00032Y03112
X00012Y03112
X-00072Y03112
X000662Y031572
X-000138Y031755
X0017Y03176
X-00064Y0319
X000305Y032063
X00166Y03214
X-00064Y03222
X00046Y03244
X-00016Y03254
X0014Y0327
X00002Y03286
X-00068Y03286
X-0003Y03286
X0004Y03286
X00078Y03286
X001257Y033071
X001078Y033185
X000938Y033284
X00158Y03334
X-000046Y033509
X-00022Y033509
X-000377Y033509
X000085Y033641
X-000587Y033773
X00014Y03382
X00158Y03388
X00036Y03396
X-000584Y033985
X-00018Y034951
X-00069Y03517
X00148Y03548
X000149Y035739
X-00044Y03588
X-00071Y0359
X00094Y0359
X00126Y0359
X00164Y03592
X00054Y03628
X-00016Y03628
X00094Y0363
X00022Y0363
X00126Y0363
X00164Y03632
X-00052Y03642
X00126Y03668
X00094Y03668
X00164Y0367
X-00052Y0368
X00126Y037
X-00016Y037
X00094Y037
X00016Y037
X00164Y03702
X00054Y03702
X-00052Y03712
X00354Y03654
X0027Y0365
X00218Y03632
X00354Y03622
X00408Y03608
X00354Y03584
X00354Y03552
X00292Y03546
X00312Y03546
X00336Y03516
X00386Y03516
X00336Y03484
X00386Y03478
X00336Y03446
X00386Y03446
X00272Y03394
X00204Y03214
X00236Y03214
X00274Y03214
X00312Y03214
X00356Y03214
X00394Y03214
X00352Y03182
X0039Y03182
X00422Y03182
X00208Y03176
X0024Y03176
X00278Y03176
X00316Y03176
X00186Y03138
X003211Y03134
X00269Y03134
X0025Y03133
X002938Y030511
X003452Y029888
X003643Y029886
X003866Y029881
X004Y02964
X00362Y02908
X00416Y02908
X0026Y02868
X002512Y028508
X00216Y02746
X00202Y02746
X00354Y027
X00184Y02696
X0035Y02684
X00184Y02664
X0039Y02662
X00352Y02648
X00264Y02644
X00264Y02612
X00418Y02602
X00418Y02586
X00396Y02586
X00418Y0257
X00396Y0257
X00186Y02562
X00248Y02428
X00408Y02428
X00312Y02428
X00344Y02428
X00264Y02372
X00186Y02372
X00232Y02372
X00392Y02372
X0036Y02372
X00296Y02372
X00194Y02346
X00216Y02344
X00408Y02344
X00376Y02344
X00344Y02344
X00312Y02344
X00268Y02344
X00392Y02328
X0036Y02328
X00328Y02328
X00296Y02328
X00264Y02328
X00232Y02328
X00408Y02312
X00376Y02312
X00344Y02312
X00312Y02312
X00216Y02312
X00248Y02312
X0028Y02312
X0036Y02296
X00392Y02296
X00296Y02296
X00264Y02296
X002Y02296
X00232Y02296
X00344Y0228
X00312Y0228
X00408Y0228
X00376Y0228
X00216Y0228
X00248Y0228
X00184Y0228
X0028Y0228
X00328Y02264
X00296Y02264
X002Y02264
X00264Y02264
X0036Y02264
X00232Y02264
X00392Y02264
X00408Y02248
X00312Y02248
X00376Y02248
X00344Y02248
X00216Y02248
X00248Y02248
X00184Y02248
X0028Y02248
X00296Y02232
X00232Y02232
X00264Y02232
X00392Y02232
X00328Y02232
X002Y02232
X0036Y02232
X00248Y02216
X00216Y02216
X00184Y02216
X00344Y02216
X00312Y02216
X00408Y02216
X0028Y02216
X00376Y02216
X002Y022
X00328Y022
X00296Y022
X0036Y022
X00392Y022
X00264Y022
X00232Y022
X00408Y02184
X00312Y02184
X00376Y02184
X00344Y02184
X00216Y02184
X00184Y02184
X0028Y02184
X00248Y02184
X002657Y021475
X00312Y021034
X002657Y020909
X003713Y020695
X002143Y020573
X001898Y020537
X00392Y02024
X003161Y020109
X002664Y019915
X00359Y01977
X00372Y01872
X00348Y01872
X00212Y01858
X00276Y01858
X003258Y018472
X003734Y018403
X002126Y018058
X00372Y018038
X002671Y018024
X00384Y01776
X003465Y017748
X002098Y01761
X002754Y017478
X001949Y017373
X00384Y01728
X004197Y017188
X00384Y01704
X0036Y01704
X00384Y0168
X00267Y01651
X00284Y01649
X003561Y01584
X00186Y01584
X0022Y01578
X003561Y01536
X003081Y01505
X003081Y01465
X003851Y014551
X003561Y0144
X003796Y014068
X003561Y01392
X004041Y01392
X002601Y01344
X003561Y01344
X003561Y01296
X004217Y012322
X003561Y012
X004041Y012
X003789Y011838
X003354Y011686
X003561Y01152
X003081Y01152
X0039Y0115
X003782Y011293
X003334Y011279
X003561Y01104
X003081Y01104
X003561Y01056
X003561Y01008
X004041Y01008
X003081Y01008
X003081Y0096
X003561Y00912
X004041Y00912
X003081Y00912
X004041Y00864
X001881Y00854
X002041Y00834
X003561Y00816
X003081Y00816
X002021Y00796
X002271Y00793
X002123Y007787
X004041Y00768
X002021Y00761
X002121Y0072
X00276Y00698
X00276Y00686
X00306Y00492
X002858Y004497
X003258Y004469
X003804Y004462
X003081Y00432
X003561Y00432
X003334Y004162
X004169Y004106
X002105Y003464
X002581Y003458
X003237Y00343
X00384Y0027
X003582Y002146
X003126Y002146
X002498Y002146
X003981Y00206
X002411Y0019
X004134Y001601
X006675Y00167
X006226Y001676
X006441Y00192
X005511Y00215
X00552Y00264
X00662Y0027
X00602Y0027
X00632Y00298
X006675Y003651
X00576Y00384
X006441Y00384
X004811Y004093
X005301Y004093
X006675Y004141
X004853Y004462
X00557Y00449
X004294Y004497
X005191Y004891
X006578Y004892
X00448Y004898
X0065Y00568
X00592Y00568
X00586Y00592
X0066Y00592
X004804Y006329
X00595Y006405
X006088Y006944
X005425Y007179
X006441Y0072
X005961Y0072
X006178Y00733
X005961Y00768
X004521Y00768
X006441Y00768
X006716Y007896
X006067Y00791
X006441Y00816
X005001Y00864
X00589Y00882
X006441Y00912
X004521Y00912
X00588Y00924
X006441Y0096
X006441Y01008
X005001Y01008
X00472Y01014
X005721Y01034
X005001Y01056
X005981Y01059
X0056Y01076
X00608Y01092
X005001Y01104
X006663Y011157
X00488Y01122
X0056Y01122
X004266Y011265
X006588Y011297
X006555Y011453
X00567Y0115
X005001Y01152
X00442Y01158
X00652Y0116
X00479Y01167
X005273Y011707
X006544Y011747
X004286Y01179
X006607Y011875
X00594Y01188
X005001Y012
X006672Y012002
X00572Y01202
X0056Y01225
X004832Y012404
X005481Y01248
X00558Y01338
X00546Y01338
X00534Y01338
X005001Y01392
X005481Y01392
X004521Y01392
X004852Y014179
X005474Y014344
X00658Y01442
X0062Y01442
X00602Y01442
X0064Y01442
X004742Y014634
X005754Y014812
X005001Y01488
X005481Y01488
X006036Y015182
X006277Y015329
X005481Y01536
X005001Y01536
X005713Y015482
X00606Y015588
X004521Y01584
X005001Y01584
X005481Y01584
X006066Y015969
X005191Y016052
X005543Y016105
X005872Y016228
X00528Y01632
X0048Y01632
X006136Y016369
X00606Y016604
X005522Y016747
X0048Y0168
X00432Y0168
X00613Y016868
X004673Y017023
X006213Y017321
X005598Y017389
X0048Y01776
X00528Y01776
X006489Y017802
X006088Y017858
X005556Y017969
X00672Y01824
X00576Y01824
X006129Y018397
X004928Y018486
X005536Y018542
X004279Y01868
X00576Y01872
X00528Y01872
X006102Y018907
X00624Y0192
X004894Y019308
X0043Y019322
X00624Y01968
X0062Y02148
X00568Y02184
X00536Y02184
X006Y02184
X00632Y02184
X00664Y02184
X00504Y02184
X00472Y02184
X0044Y02184
X0052Y022
X00616Y022
X00552Y022
X00584Y022
X00456Y022
X00648Y022
X00488Y022
X00424Y022
X00664Y02216
X006Y02216
X00632Y02216
X00568Y02216
X00536Y02216
X00472Y02216
X00504Y02216
X0044Y02216
X00648Y02232
X00584Y02232
X00616Y02232
X00488Y02232
X00456Y02232
X00664Y02248
X006Y02248
X00632Y02248
X00568Y02248
X0044Y02248
X00472Y02248
X00552Y02264
X00616Y02264
X00424Y02264
X00648Y02264
X00456Y02264
X00568Y0228
X00536Y0228
X00632Y0228
X00472Y0228
X0044Y0228
X00664Y0228
X0052Y02296
X00552Y02296
X00616Y02296
X00456Y02296
X00424Y02296
X00488Y02296
X00648Y02296
X00536Y02312
X006Y02312
X00504Y02312
X00472Y02312
X00664Y02312
X00632Y02312
X00552Y02328
X0052Y02328
X00584Y02328
X00648Y02328
X00488Y02328
X00424Y02328
X00616Y02328
X00568Y02344
X006Y02344
X00536Y02344
X00664Y02344
X00504Y02344
X00632Y02344
X00584Y02372
X00488Y02372
X00616Y02372
X00648Y02372
X00424Y02372
X0052Y02372
X00552Y02372
X00642Y02396
X0044Y02428
X00504Y02428
X00536Y02428
X00664Y02428
X00632Y02428
X00568Y02428
X006Y02428
X00616Y02524
X0043Y02524
X0044Y0257
X00506Y0257
X00484Y02586
X0044Y02586
X00462Y02586
X0044Y02602
X0044Y02618
X0044Y02634
X00646Y02646
X00478Y02682
X00468Y02692
X00666Y02706
X00426Y02708
X00666Y02762
X00544Y028
X006602Y02807
X00634Y02824
X00564Y02852
X00458Y0286
X00644Y029
X00564Y02908
X0051Y02908
X00648Y0298
X00606Y0299
X00614Y03004
X006Y03024
X006719Y030278
X006353Y030311
X00464Y03034
X006561Y030352
X00544Y03036
X00502Y03036
X00598Y0305
X004639Y03059
X00672Y03074
X006489Y031034
X006494Y031214
X00598Y03152
X0046Y03182
X00498Y03182
X00464Y03214
X00426Y03214
X00502Y03214
X00648Y03216
X00578Y03216
X0054Y03216
X0061Y03216
X00486Y03238
X0066Y03238
X00506Y0325
X0064Y0325
X00586Y03258
X00456Y03262
X00598Y03446
X00636Y03446
X00668Y03446
X00494Y03446
X00456Y03446
X00424Y03446
X00532Y03446
X00564Y03446
X00636Y03478
X00668Y03478
X00598Y03478
X00456Y03478
X00532Y03478
X00564Y03478
X00424Y03478
X00494Y03478
X00564Y03516
X00668Y03516
X00424Y03516
X00456Y03516
X00636Y03516
X00532Y03516
X00494Y03516
X00598Y03516
X00596Y03552
X00564Y03552
X00634Y03552
X00424Y03552
X00456Y03552
X00666Y03552
X00526Y03554
X00494Y03554
X00424Y03584
X00456Y03584
X00564Y03584
X00596Y03584
X00634Y03584
X00666Y03584
X00494Y03586
X00526Y03586
X00564Y03622
X00596Y03622
X00634Y03622
X00456Y03622
X00666Y03622
X00424Y03622
X00526Y03624
X00494Y03624
X00456Y03654
X00634Y03654
X00424Y03654
X00596Y03654
X00666Y03654
X00564Y03654
X00526Y03656
X00494Y03656
X00704Y03656
X00736Y03656
X00776Y03656
X00704Y03624
X00736Y03624
X00776Y03624
X00915Y035916
X00704Y03586
X00736Y03586
X00792Y03562
X00704Y03554
X00736Y03554
X009113Y034827
X00786Y03468
X0079Y03392
X00788Y03336
X009153Y032564
X00686Y03216
X009152Y032127
X00698Y0318
X009134Y03165
X007Y03152
X009134Y031181
X007302Y031154
X008163Y031033
X007912Y030985
X009125Y030623
X008163Y030553
X007202Y030198
X009143Y030146
X008163Y030073
X00681Y02993
X00708Y0299
X007811Y029809
X00815Y029493
X007383Y029171
X009063Y029102
X00815Y029013
X007896Y028591
X00815Y028533
X009072Y028447
X007291Y028305
X008144Y028005
X008851Y027846
X008144Y027525
X00909Y027298
X008144Y027045
X00922Y02548
X0071Y02524
X0079Y02524
X00728Y02428
X0076Y02428
X00792Y02428
X00856Y02428
X00824Y02428
X0092Y02428
X00888Y02428
X00718Y02412
X0092Y02408
X00888Y02408
X00856Y02408
X00824Y02408
X0076Y02408
X00792Y02408
X00712Y02396
X0084Y02396
X00808Y02396
X00776Y02396
X00904Y02396
X00872Y02396
X0068Y02396
X00904Y02372
X0068Y02372
X00712Y02372
X00744Y02372
X00776Y02372
X00808Y02372
X0084Y02372
X00872Y02372
X00728Y02344
X00696Y02344
X0076Y02344
X00888Y02344
X0092Y02344
X00856Y02344
X00824Y02344
X00792Y02344
X0068Y02328
X00712Y02328
X00776Y02328
X00872Y02328
X00904Y02328
X0084Y02328
X00808Y02328
X00744Y02328
X00792Y02314
X00728Y02312
X00696Y02312
X0076Y02312
X00888Y02312
X0092Y02312
X00856Y02312
X00824Y02312
X00712Y02296
X00872Y02296
X00904Y02296
X0068Y02296
X0084Y02296
X00744Y02296
X00696Y0228
X00728Y0228
X0076Y0228
X00888Y0228
X0092Y0228
X00856Y0228
X00824Y0228
X00712Y02264
X00872Y02264
X00904Y02264
X0084Y02264
X0068Y02264
X00808Y02264
X00776Y02264
X00744Y02264
X00696Y02248
X00728Y02248
X00888Y02248
X0092Y02248
X00856Y02248
X00792Y02248
X00824Y02248
X0076Y02248
X0068Y02232
X00712Y02232
X00872Y02232
X00904Y02232
X0084Y02232
X00808Y02232
X00744Y02232
X00776Y02232
X00696Y02216
X00888Y02216
X00728Y02216
X0092Y02216
X00856Y02216
X00792Y02216
X0068Y022
X00872Y022
X00712Y022
X00904Y022
X0084Y022
X00776Y022
X00888Y02184
X00696Y02184
X00728Y02184
X0092Y02184
X00856Y02184
X00792Y02184
X00824Y02184
X0076Y02184
X00768Y02064
X00768Y02016
X00864Y02016
X00732Y0201
X00768Y01992
X00768Y01968
X0072Y01968
X008042Y019547
X009146Y019542
X0072Y01944
X00768Y01944
X008401Y01941
X009222Y019254
X008943Y019236
X0072Y0192
X00768Y0192
X008114Y018993
X008594Y018993
X009189Y018702
X008943Y018669
X008722Y018363
X0072Y01824
X009198Y017872
X0071Y017785
X008416Y01641
X009162Y016351
X00875Y016246
X008269Y016116
X008421Y014983
X009085Y014883
X007799Y013866
X009103Y013849
X008586Y013849
X00811Y013843
X007241Y012381
X007379Y01238
X007513Y012374
X007656Y012367
X007934Y012364
X007796Y012364
X008631Y012363
X008351Y012363
X008765Y012362
X00849Y012362
X008899Y012361
X008074Y012361
X008211Y012361
X009036Y01236
X009175Y012359
X007099Y012358
X006972Y012297
X006849Y012221
X006745Y012121
X006755Y011039
X006856Y010928
X006979Y010851
X008894Y010815
X007976Y010784
X007475Y010784
X007321Y010782
X007809Y010782
X008501Y01078
X008349Y010777
X008361Y01056
X007401Y01056
X008841Y01056
X007881Y01056
X006921Y01056
X007881Y01008
X008361Y01008
X007401Y01008
X006921Y01008
X00788Y00974
X006921Y0096
X008361Y0096
X007401Y0096
X008841Y0096
X006921Y00912
X007881Y00912
X007401Y00912
X008361Y00912
X008477Y00887
X008361Y00864
X009077Y008587
X00706Y00829
X006921Y00816
X007401Y00816
X007881Y00816
X008076Y00789
X007054Y007885
X006921Y00768
X007881Y00768
X00726Y00757
X007538Y007289
X008095Y00715
X007462Y006958
X006827Y00693
X00754Y00592
X008918Y005756
X00726Y00568
X00905Y005321
X008553Y005135
X00736Y0049
X007868Y004845
X008841Y0048
X008361Y0048
X008629Y004638
X006923Y004438
X008635Y004355
X008361Y00432
X00711Y004155
X008649Y003996
X008361Y00384
X006921Y00384
X008841Y00384
X008138Y003692
X008629Y003616
X006921Y00336
X008361Y00336
X007881Y00336
X008166Y003099
X007881Y00288
X007401Y00288
X00822Y00262
X007662Y002615
X008656Y002608
X00698Y00234
X0073Y00204
X00776Y00202
X00902Y00184
X008699Y001766
X008393Y001762
X00797Y001759
X00695Y001734
X00764Y00108
X009326Y001573
X01076Y0019
X01154Y00194
X01008Y00264
X009726Y002643
X010334Y00276
X009321Y00288
X010624Y003126
X009321Y00336
X009801Y00336
X0111Y003575
X00976Y00382
X010281Y00384
X010761Y00384
X010479Y004003
X011493Y004017
X011045Y004037
X01152Y00442
X010996Y00459
X010106Y004686
X010761Y0048
X01038Y00484
X011017Y005032
X010423Y005052
X011473Y005094
X011721Y00528
X010761Y00528
X009801Y00528
X01168Y00554
X011493Y005549
X010281Y00576
X011241Y00576
X010761Y00576
X011556Y005998
X011701Y006088
X010281Y00624
X010761Y00624
X011494Y006293
X01121Y006364
X010561Y006412
X00994Y006412
X009574Y00644
X010354Y00664
X010879Y006709
X011721Y00672
X011241Y00672
X011017Y007082
X0117Y0071
X011721Y00768
X011521Y008007
X011203Y008048
X011721Y00816
X009321Y00816
X009721Y00822
X011583Y008442
X0097Y00862
X0103Y00888
X009367Y009029
X010281Y00912
X01046Y00932
X009321Y0096
X009801Y0096
X01092Y0098
X010633Y00992
X009321Y01008
X009801Y01008
X010281Y01008
X011321Y010106
X010606Y010306
X009321Y01056
X010281Y01056
X009801Y01056
X011397Y01063
X010613Y010721
X00929Y010815
X009833Y01083
X009708Y01083
X010151Y010888
X010277Y010932
X010381Y011021
X011342Y011141
X010584Y011267
X010599Y011392
X01046Y0114
X011342Y011631
X010639Y011657
X010619Y011796
X010548Y011942
X010459Y012063
X01062Y0121
X010302Y012236
X010168Y012315
X009591Y012354
X009741Y012356
X009444Y012359
X00931Y01236
X010029Y012362
X00987Y012362
X00962Y012932
X009538Y01342
X009532Y013708
X010055Y013784
X01132Y01392
X010477Y013978
X010597Y014357
X010025Y015505
X010583Y015553
X009843Y015917
X010554Y01598
X009391Y016122
X010993Y016622
X010168Y016891
X010583Y016924
X010243Y017396
X010622Y017457
X010175Y017853
X009807Y017858
X01032Y018
X009571Y018056
X01056Y01824
X011628Y01926
X011525Y01926
X01144Y02184
X01048Y02184
X01016Y02184
X00984Y02184
X00952Y02184
X01064Y022
X01Y022
X01032Y022
X0116Y022
X00936Y022
X00968Y022
X01096Y022
X01048Y02216
X01016Y02216
X00952Y02216
X00984Y02216
X01144Y02216
X01064Y02232
X01Y02232
X01032Y02232
X00936Y02232
X00968Y02232
X0116Y02232
X01096Y02232
X01048Y02248
X01016Y02248
X00984Y02248
X00952Y02248
X01144Y02248
X01Y02264
X01032Y02264
X01064Y02264
X00936Y02264
X00968Y02264
X0116Y02264
X01096Y02264
X01048Y0228
X01016Y0228
X00984Y0228
X00952Y0228
X01144Y0228
X01Y02296
X01032Y02296
X01064Y02296
X00936Y02296
X00968Y02296
X0116Y02296
X01096Y02296
X01016Y02312
X01048Y02312
X00984Y02312
X00952Y02312
X01144Y02312
X01032Y02328
X00968Y02328
X00936Y02328
X01Y02328
X01096Y02328
X00984Y02344
X0108Y02344
X00952Y02344
X01144Y02344
X01016Y02344
X01156Y0235
X01064Y0236
X01096Y02372
X00936Y02372
X01128Y02372
X00968Y02372
X01032Y02372
X01Y02372
X01096Y02396
X00936Y02396
X00968Y02396
X01Y02396
X01032Y02396
X01064Y02396
X0108Y02408
X01048Y02408
X01016Y02408
X00952Y02408
X00984Y02408
X00952Y02428
X00984Y02428
X01016Y02428
X01048Y02428
X0108Y02428
X01048Y02444
X0107Y0245
X01124Y0251
X01154Y02518
X01122Y02548
X0095Y02558
X00958Y02572
X010107Y025748
X00992Y02586
X00994Y02602
X010243Y026076
X01012Y0262
X01028Y02624
X01076Y0263
X010204Y027227
X011681Y027253
X009709Y027271
X011133Y02728
X011575Y027625
X010885Y027696
X009479Y027846
X009753Y028377
X010266Y028394
X010921Y028403
X01154Y029075
X0097Y029075
X010859Y02912
X010921Y029606
X011575Y02965
X010248Y030057
X010885Y030093
X009665Y030137
X010894Y030597
X01154Y030632
X009674Y030685
X01012Y0308
X01031Y031119
X009691Y031588
X010319Y03165
X01154Y031676
X010876Y031729
X009709Y032136
X010832Y032145
X010328Y032163
X010004Y032937
X010931Y033286
X010489Y033481
X011649Y033559
X010601Y033844
X01093Y03397
X01047Y033992
X010495Y034739
X011053Y034745
X009417Y034769
X009833Y034775
X009551Y034823
X010207Y034831
X00998Y03496
X00952Y03496
X010842Y035083
X011321Y035153
X011635Y035193
X01062Y03528
X010857Y035337
X011456Y035357
X011146Y035377
X010962Y035567
X011336Y035582
X010562Y035587
X01173Y035737
X009419Y035921
X009724Y035941
X010348Y035966
X010787Y035966
X011241Y036
X011721Y036
X010981Y036116
X011221Y036226
X009449Y036246
X010457Y036251
X010442Y036465
X010761Y03648
X011565Y036495
X009908Y036515
X011051Y036595
X010198Y03667
X009664Y036675
X011326Y036695
X011815Y03667
X012049Y03634
X011775Y036241
X012324Y036141
X012201Y036
X012698Y035782
X012234Y035757
X01193Y035732
X012893Y035672
X012454Y035627
X013048Y035567
X012015Y035457
X012978Y035377
X013078Y035178
X012565Y035018
X012768Y034868
X013162Y034793
X013457Y034644
X012269Y034619
X012943Y034619
X012514Y034604
X013756Y034594
X013731Y034259
X013087Y034204
X012643Y034165
X013542Y03411
X013886Y033985
X012943Y033915
X014131Y03382
X013836Y03369
X012639Y033604
X014056Y033601
X012462Y033214
X013758Y033014
X01407Y032684
X014008Y032242
X013981Y031703
X012893Y031685
X012283Y03165
X013389Y031641
X013451Y031181
X012221Y031128
X013451Y030668
X013999Y030659
X012884Y030243
X01399Y03019
X012283Y030119
X013406Y029907
X01399Y029677
X012884Y029659
X013955Y029129
X012884Y029111
X013442Y028748
X012884Y027775
X012309Y027775
X012884Y027298
X014229Y027262
X01326Y026793
X01406Y02634
X01388Y02586
X01222Y02576
X01254Y02576
X01376Y02574
X01418Y02564
X01206Y0256
X01238Y0256
X01222Y02544
X01254Y02544
X01206Y02528
X01238Y02528
X01222Y02512
X01254Y02512
X01402Y02502
X01364Y02502
X01206Y02496
X01238Y02496
X01222Y0248
X01254Y0248
X01238Y02464
X01206Y02464
X014Y02408
X01272Y02408
X01336Y02408
X01304Y02408
X014Y02376
X01272Y02376
X01336Y02376
X01304Y02376
X014Y02344
X01336Y02344
X01304Y02344
X01188Y02318
X01336Y02312
X01304Y02312
X014Y02312
X0122Y02286
X014Y0228
X01336Y0228
X01304Y0228
X01176Y0228
X01192Y02264
X01336Y02248
X01304Y02248
X01176Y02248
X014Y02248
X01192Y02232
X01336Y02216
X01304Y02216
X014Y02216
X01176Y02216
X01192Y022
X01176Y02184
X012094Y019018
X011887Y019015
X012094Y018883
X011887Y018882
X01349Y018392
X01236Y01824
X01331Y018075
X01236Y01776
X013092Y017744
X013163Y017553
X01236Y01752
X012363Y017192
X01323Y01705
X01236Y01704
X01236Y0168
X012913Y016262
X01236Y01616
X012033Y016115
X011899Y016115
X01236Y01598
X012033Y015969
X011909Y015967
X01236Y01548
X01236Y01522
X01236Y01498
X01252Y01464
X01323Y01443
X01268Y01394
X01323Y01393
X01218Y01358
X01208Y01332
X01196Y01332
X011921Y011624
X012142Y011555
X01188Y0111
X012211Y010934
X01412Y01036
X01382Y009533
X01378Y0093
X013502Y009001
X013889Y008925
X012474Y008746
X012294Y008525
X01388Y00836
X01284Y00828
X01292Y00798
X013861Y007834
X01378Y0076
X01378Y00736
X012722Y007351
X012301Y007027
X012715Y00682
X013161Y00672
X01228Y006543
X01381Y00654
X01288Y00618
X01376Y00608
X0128Y00592
X01376Y00586
X012267Y005632
X012736Y005535
X01365Y00545
X0136Y00525
X01365Y00505
X0124Y005004
X012777Y004956
X0136Y00485
X0128Y00418
X01292Y00418
X01362Y00338
X012418Y002602
X0146Y00318
X014579Y003361
X01538Y00341
X01526Y00341
X01506Y00346
X01552Y0041
X01552Y00462
X01428Y00468
X01478Y00548
X01584Y00558
X01584Y00688
X01456Y00772
X01552Y00772
X01498Y00788
X0149Y00796
X01506Y00797
X01506Y00809
X0156Y0081
X01456Y00845
X015877Y008538
X01605Y008773
X01488Y00886
X01458Y00903
X015905Y00918
X01508Y0093
X01582Y00944
X016041Y01008
X016041Y01056
X01532Y01322
X01532Y01354
X01532Y01386
X01532Y01418
X01524Y0164
X01516Y01676
X01548Y0194
X01548Y01951
X0158Y01978
X01534Y02018
X01534Y0205
X01534Y02114
X01534Y02146
X01594Y02152
X0156Y02152
X01544Y02168
X01534Y02178
X01594Y02184
X0156Y02184
X01544Y022
X0156Y02216
X01594Y02216
X01544Y02232
X0156Y02248
X01594Y02248
X01544Y02264
X0156Y0228
X01594Y0228
X01544Y02296
X0156Y02312
X01594Y02312
X01544Y02328
X01594Y02344
X0156Y02344
X01544Y0236
X0156Y02376
X01594Y02376
X01578Y02392
X0156Y02408
X01594Y02408
X01578Y02424
X01438Y0244
X01594Y0244
X0156Y0244
X01578Y02456
X014404Y024567
X0156Y02472
X01594Y02472
X01514Y02504
X0154Y02538
X015011Y025541
X01454Y02578
X015207Y025809
X01526Y02598
X01446Y0263
X01484Y02668
X014963Y02728
X015538Y02728
X015476Y027846
X014654Y027855
X015662Y028474
X015299Y028492
X014875Y028554
X015273Y02904
X014671Y029058
X014662Y029553
X01529Y030137
X014645Y030155
X015317Y031128
X015343Y031782
X014698Y03218
X014654Y032667
M30
