*
*
G04 PADS Layout (Build Number 2005.266.2) generated Gerber (RS-274-X) file*
G04 PC Version=2.1*
*
%IN "GTA-MB-A6(50-71481-00)."*%
*
%MOIN*%
*
%FSLAX35Y35*%
*
*
*
*
G04 PC Standard Apertures*
*
*
G04 Thermal Relief Aperture macro.*
%AMTER*
1,1,$1,0,0*
1,0,$1-$2,0,0*
21,0,$3,$4,0,0,45*
21,0,$3,$4,0,0,135*
%
*
*
G04 Annular Aperture macro.*
%AMANN*
1,1,$1,0,0*
1,0,$2,0,0*
%
*
*
G04 Odd Aperture macro.*
%AMODD*
1,1,$1,0,0*
1,0,$1-0.005,0,0*
%
*
*
G04 PC Custom Aperture Macros*
*
*
*
*
*
*
G04 PC Aperture Table*
*
%ADD011C,0.006*%
%ADD012C,0.01*%
%ADD013C,0.00591*%
%ADD015C,0.005*%
%ADD018C,0.00394*%
%ADD020C,0.00394*%
%ADD022C,0.00591*%
%ADD025C,0.01181*%
%ADD028C,0.007*%
%ADD075C,0.008*%
%ADD076C,0.004*%
%ADD079C,0.016*%
%ADD096C,0.04*%
%ADD101C,0.00787*%
%ADD111C,0.001*%
*
*
*
*
G04 PC Copper Outlines (0)*
G04 Layer Name GTA-MB-A6(50-71481-00). - dark (0)*
%LPD*%
*
*
G04 PC Area=CFC1*
G75*
G36*
G01*
X270517Y2874777D02*
Y2872415D01*
X239021D01*
Y2874777D01*
X270517D01*
G37*
G74*
*
*
G04 PC Area=CFC0*
G75*
G36*
G01*
X272722Y2881155D02*
X262486D01*
Y2912454D01*
X272722D01*
Y2881155D01*
G37*
G74*
*
*
G04 PC Copper Outlines (1)*
G04 Layer Name GTA-MB-A6(50-71481-00). - dark (1)*
%LPD*%
*
*
G04 PC Area=Custom_Thermal*
*
G04 PC Copper Outlines (2)*
G04 Layer Name GTA-MB-A6(50-71481-00). - dark (2)*
%LPD*%
*
*
G04 PC Area=System Text*
G75*
G36*
G01*
X138489Y2821076D02*
X137249Y2817456D01*
X136753D01*
X135514Y2821076D01*
X136059D01*
X137001Y2818150D01*
X137943Y2821076D01*
X138489D01*
G37*
G74*
*
G75*
G36*
G01*
X141315Y2818547D02*
Y2818299D01*
X141216Y2818100D01*
X140919Y2817753D01*
X140720Y2817604D01*
X140472Y2817505D01*
X140224Y2817456D01*
X139877D01*
X138836D01*
Y2821076D01*
X139828D01*
X140175D01*
X140423Y2821026D01*
X140770Y2820927D01*
X140968Y2820778D01*
X141067Y2820629D01*
X141166Y2820233D01*
X141117Y2819985D01*
X141018Y2819786D01*
X140869Y2819588D01*
X140671Y2819489D01*
Y2819439D01*
X140919Y2819340D01*
X141166Y2819142D01*
X141266Y2818844D01*
X141315Y2818547D01*
X141315D01*
G37*
G74*
*
G75*
G36*
G01*
X141414Y2817456D02*
X142604Y2821076D01*
X143200D01*
X144390Y2817456D01*
X143844D01*
X143547Y2818497D01*
X142257D01*
X141960Y2817456D01*
X141414D01*
G37*
G74*
*
G75*
G36*
G01*
X145580D02*
Y2820629D01*
X144290D01*
Y2821076D01*
X147365D01*
Y2820629D01*
X146076D01*
Y2817456D01*
X145580D01*
G37*
G74*
*
G75*
G36*
G01*
X277737Y2755744D02*
X276497D01*
Y2754504D01*
X276100D01*
Y2755744D01*
X274861D01*
Y2756141D01*
X276100D01*
Y2757380D01*
X276497D01*
Y2756141D01*
X277737D01*
Y2755744D01*
G37*
G74*
*
G75*
G36*
G01*
X276300Y2761695D02*
X274912D01*
Y2762141D01*
X276300D01*
Y2761695D01*
G37*
G74*
*
G75*
G36*
G01*
X270868Y2771281D02*
X269628Y2767661D01*
X269132D01*
X267893Y2771281D01*
X268438D01*
X269380Y2768355D01*
X270322Y2771281D01*
X270868D01*
G37*
G74*
*
G75*
G36*
G01*
X266798Y2739157D02*
X266401Y2739206D01*
X266104Y2739256D01*
X265806Y2739404D01*
X265558Y2739652D01*
X265310Y2739900D01*
X265162Y2740247D01*
X265112Y2740644D01*
X265062Y2741090D01*
X265112Y2741487D01*
X265211Y2741884D01*
X265360Y2742181D01*
X265558Y2742479D01*
X265806Y2742677D01*
X266104Y2742826D01*
X266451Y2742925D01*
X266798Y2742975D01*
X267145Y2742925D01*
X267492Y2742876D01*
X267740Y2742776D01*
X267988Y2742677D01*
Y2742082D01*
X267938D01*
X267740Y2742231D01*
X267492Y2742380D01*
X267145Y2742528D01*
X266748Y2742578D01*
X266500Y2742528D01*
X266252Y2742479D01*
X266054Y2742330D01*
X265905Y2742181D01*
X265657Y2741685D01*
X265558Y2741090D01*
Y2740743D01*
X265657Y2740446D01*
X265905Y2739950D01*
X266054Y2739752D01*
X266252Y2739652D01*
X266500Y2739553D01*
X266748D01*
X267145Y2739603D01*
X267492Y2739652D01*
Y2740644D01*
X266699D01*
Y2741090D01*
X267988D01*
Y2739454D01*
X267740Y2739355D01*
X267443Y2739256D01*
X267145Y2739157D01*
X266798D01*
X266798D01*
G37*
G74*
*
G75*
G36*
G01*
X212430Y2788448D02*
X212099D01*
Y2790530D01*
X211471Y2789109D01*
X211273D01*
X210645Y2790530D01*
Y2788448D01*
X210347D01*
Y2790861D01*
X210777D01*
X211405Y2789506D01*
X211967Y2790861D01*
X212430D01*
Y2788448D01*
G37*
G74*
*
G75*
G36*
G01*
X214512Y2787985D02*
X212628D01*
Y2788183D01*
X214512D01*
Y2787985D01*
G37*
G74*
*
G75*
G36*
G01*
X216430Y2790596D02*
X216562Y2790398D01*
X216661Y2790200D01*
X216694Y2789935D01*
X216727Y2789638D01*
X216694Y2789373D01*
X216661Y2789109D01*
X216562Y2788877D01*
X216430Y2788712D01*
X216264Y2788547D01*
X216099Y2788448D01*
X215868Y2788415D01*
X215636Y2788382D01*
X215405Y2788415D01*
X215206Y2788448D01*
X215041Y2788580D01*
X214876Y2788712D01*
X214744Y2788877D01*
X214645Y2789109D01*
X214611Y2789373D01*
X214578Y2789638D01*
X214611Y2789935D01*
X214645Y2790200D01*
X214744Y2790398D01*
X214876Y2790596D01*
X215041Y2790729D01*
X215206Y2790828D01*
X215405Y2790894D01*
X215636Y2790927D01*
X215901Y2790894D01*
X216099Y2790828D01*
X216297Y2790729D01*
X216430Y2790596D01*
X216430D01*
G37*
G74*
*
G75*
G36*
G01*
X218810Y2788448D02*
X218446D01*
X217355Y2790530D01*
Y2788448D01*
X217058D01*
Y2790861D01*
X217521D01*
X218512Y2788944D01*
Y2790861D01*
X218810D01*
Y2788448D01*
G37*
G74*
*
G75*
G36*
G01*
X244570Y2788790D02*
X244305Y2788823D01*
X244107Y2788856D01*
X243909Y2788955D01*
X243743Y2789120D01*
X243578Y2789285D01*
X243479Y2789517D01*
X243446Y2789781D01*
X243413Y2790079D01*
X243446Y2790343D01*
X243512Y2790608D01*
X243611Y2790806D01*
X243743Y2791004D01*
X243909Y2791137D01*
X244107Y2791236D01*
X244338Y2791302D01*
X244570Y2791335D01*
X244801Y2791302D01*
X245033Y2791269D01*
X245198Y2791203D01*
X245363Y2791137D01*
Y2790740D01*
X245330D01*
X245198Y2790839D01*
X245033Y2790938D01*
X244801Y2791038D01*
X244537Y2791071D01*
X244371Y2791038D01*
X244206Y2791004D01*
X244074Y2790905D01*
X243975Y2790806D01*
X243809Y2790476D01*
X243743Y2790079D01*
Y2789847D01*
X243809Y2789649D01*
X243975Y2789319D01*
X244074Y2789186D01*
X244206Y2789120D01*
X244371Y2789054D01*
X244537D01*
X244801Y2789087D01*
X245033Y2789120D01*
Y2789781D01*
X244504D01*
Y2790079D01*
X245363D01*
Y2788988D01*
X245198Y2788922D01*
X245000Y2788856D01*
X244801Y2788790D01*
X244570D01*
X244570D01*
G37*
G74*
*
G75*
G36*
G01*
X121973Y2812856D02*
Y2814971D01*
X121114D01*
Y2815269D01*
X123163D01*
Y2814971D01*
X122304D01*
Y2812856D01*
X121973D01*
G37*
G74*
*
G75*
G36*
G01*
X125014D02*
X124618D01*
X124056Y2813781D01*
X123461Y2812856D01*
X123097D01*
X123857Y2814046D01*
X123097Y2815269D01*
X123494D01*
X124056Y2814343D01*
X124684Y2815269D01*
X125014D01*
X124254Y2814079D01*
X125014Y2812856D01*
G37*
G74*
*
G75*
G36*
G01*
X126866Y2812393D02*
X124981D01*
Y2812591D01*
X126866D01*
Y2812393D01*
G37*
G74*
*
G75*
G36*
G01*
X127923Y2812856D02*
X126998D01*
Y2813087D01*
X127295D01*
Y2815038D01*
X126998D01*
Y2815269D01*
X127923D01*
Y2815038D01*
X127626D01*
Y2813087D01*
X127923D01*
Y2812856D01*
G37*
G74*
*
G75*
G36*
G01*
X131029Y2812656D02*
X130666D01*
X129905Y2813614D01*
X129476D01*
Y2812656D01*
X129145D01*
Y2815069D01*
X129773D01*
X129971D01*
X130137Y2815036D01*
X130401Y2814937D01*
X130600Y2814738D01*
X130633Y2814573D01*
X130666Y2814408D01*
X130633Y2814176D01*
X130533Y2813978D01*
X130368Y2813813D01*
X130170Y2813714D01*
X131029Y2812656D01*
G37*
G74*
*
G75*
G36*
G01*
X132881D02*
X132484D01*
X131922Y2813581D01*
X131327Y2812656D01*
X130963D01*
X131723Y2813846D01*
X130963Y2815069D01*
X131360D01*
X131922Y2814143D01*
X132550Y2815069D01*
X132881D01*
X132120Y2813879D01*
X132881Y2812656D01*
G37*
G74*
*
G75*
G36*
G01*
X134732Y2812193D02*
X132847D01*
Y2812391D01*
X134732D01*
Y2812193D01*
G37*
G74*
*
G75*
G36*
G01*
X135790Y2812656D02*
X134864D01*
Y2812887D01*
X135162D01*
Y2814838D01*
X134864D01*
Y2815069D01*
X135790D01*
Y2814838D01*
X135492D01*
Y2812887D01*
X135790D01*
Y2812656D01*
G37*
G74*
*
G75*
G36*
G01*
X217332Y2810220D02*
X216506Y2807807D01*
X216175D01*
X215349Y2810220D01*
X215712D01*
X216340Y2808270D01*
X216968Y2810220D01*
X217332D01*
G37*
G74*
*
G75*
G36*
G01*
X219216Y2808534D02*
Y2808369D01*
X219150Y2808236D01*
X218952Y2808005D01*
X218820Y2807906D01*
X218654Y2807840D01*
X218489Y2807807D01*
X218258D01*
X217563D01*
Y2810220D01*
X218225D01*
X218456D01*
X218621Y2810187D01*
X218853Y2810121D01*
X218985Y2810022D01*
X219051Y2809922D01*
X219117Y2809658D01*
X219084Y2809493D01*
X219018Y2809360D01*
X218919Y2809228D01*
X218787Y2809162D01*
Y2809129D01*
X218952Y2809063D01*
X219117Y2808931D01*
X219183Y2808732D01*
X219216Y2808534D01*
X219216D01*
G37*
G74*
*
G75*
G36*
G01*
X219282Y2807807D02*
X220076Y2810220D01*
X220473D01*
X221266Y2807807D01*
X220902D01*
X220704Y2808501D01*
X219844D01*
X219646Y2807807D01*
X219282D01*
G37*
G74*
*
G75*
G36*
G01*
X222059D02*
Y2809922D01*
X221200D01*
Y2810220D01*
X223249D01*
Y2809922D01*
X222390D01*
Y2807807D01*
X222059D01*
G37*
G74*
*
G75*
G36*
G01*
X174277Y2811637D02*
X174078Y2811670D01*
X173847Y2811703D01*
X173682Y2811802D01*
X173516Y2811967D01*
X173384Y2812132D01*
X173285Y2812364D01*
X173252Y2812595D01*
X173219Y2812893D01*
X173252Y2813190D01*
X173285Y2813455D01*
X173384Y2813653D01*
X173516Y2813851D01*
X173682Y2813984D01*
X173847Y2814083D01*
X174078Y2814149D01*
X174310Y2814182D01*
X174508Y2814149D01*
X174706Y2814116D01*
X174872Y2814050D01*
X175037Y2813984D01*
Y2813587D01*
X175004D01*
X174905Y2813686D01*
X174739Y2813785D01*
X174541Y2813885D01*
X174310Y2813918D01*
X174012Y2813851D01*
X173748Y2813653D01*
X173615Y2813323D01*
X173549Y2812893D01*
Y2812661D01*
X173615Y2812463D01*
X173781Y2812166D01*
X173880Y2812033D01*
X174012Y2811967D01*
X174144Y2811901D01*
X174310D01*
X174541Y2811934D01*
X174772Y2812033D01*
X174905Y2812132D01*
X175004Y2812232D01*
X175037D01*
Y2811835D01*
X174905Y2811769D01*
X174706Y2811703D01*
X174541Y2811637D01*
X174277D01*
X174277D01*
G37*
G74*
*
G75*
G36*
G01*
X175896Y2811703D02*
Y2813818D01*
X175037D01*
Y2814116D01*
X177087D01*
Y2813818D01*
X176227D01*
Y2811703D01*
X175896D01*
G37*
G74*
*
G75*
G36*
G01*
X177946Y2811637D02*
X177682D01*
X177483Y2811703D01*
X177120Y2811835D01*
Y2812232D01*
X177153D01*
X177318Y2812099D01*
X177516Y2812000D01*
X177715Y2811934D01*
X177913Y2811901D01*
X178144Y2811934D01*
X178343Y2812000D01*
X178442Y2812132D01*
X178475Y2812331D01*
X178442Y2812463D01*
X178409Y2812562D01*
X178310Y2812628D01*
X178177Y2812694D01*
X177946Y2812761D01*
X177715Y2812827D01*
X177483Y2812893D01*
X177318Y2813025D01*
X177186Y2813223D01*
X177153Y2813488D01*
X177219Y2813752D01*
X177384Y2813984D01*
X177649Y2814116D01*
X177979Y2814182D01*
X178376Y2814149D01*
X178706Y2814017D01*
Y2813653D01*
X178673D01*
X178541Y2813752D01*
X178376Y2813851D01*
X178177Y2813885D01*
X177979Y2813918D01*
X177781Y2813885D01*
X177615Y2813818D01*
X177516Y2813686D01*
X177483Y2813521D01*
X177516Y2813389D01*
X177582Y2813256D01*
X177682Y2813190D01*
X177814Y2813124D01*
X178078Y2813058D01*
X178310Y2812992D01*
X178541Y2812893D01*
X178673Y2812761D01*
X178772Y2812595D01*
X178806Y2812364D01*
Y2812232D01*
X178739Y2812099D01*
X178574Y2811868D01*
X178310Y2811703D01*
X178144Y2811637D01*
X177946D01*
X177946D01*
G37*
G74*
*
G75*
G36*
G01*
X183082Y2811528D02*
X182719D01*
X181958Y2812486D01*
X181529D01*
Y2811528D01*
X181198D01*
Y2813941D01*
X181826D01*
X182024D01*
X182190Y2813908D01*
X182454Y2813809D01*
X182653Y2813610D01*
X182686Y2813445D01*
X182719Y2813280D01*
X182686Y2813048D01*
X182586Y2812850D01*
X182421Y2812685D01*
X182223Y2812586D01*
X183082Y2811528D01*
G37*
G74*
*
G75*
G36*
G01*
X183810D02*
Y2813643D01*
X182950D01*
Y2813941D01*
X185000D01*
Y2813643D01*
X184140D01*
Y2811528D01*
X183810D01*
G37*
G74*
*
G75*
G36*
G01*
X185859Y2811462D02*
X185595D01*
X185396Y2811528D01*
X185033Y2811660D01*
Y2812057D01*
X185066D01*
X185231Y2811924D01*
X185429Y2811825D01*
X185628Y2811759D01*
X185826Y2811726D01*
X186057Y2811759D01*
X186256Y2811825D01*
X186355Y2811957D01*
X186388Y2812156D01*
X186355Y2812288D01*
X186322Y2812387D01*
X186223Y2812453D01*
X186091Y2812519D01*
X185859Y2812586D01*
X185628Y2812652D01*
X185396Y2812718D01*
X185231Y2812850D01*
X185099Y2813048D01*
X185066Y2813313D01*
X185132Y2813577D01*
X185297Y2813809D01*
X185562Y2813941D01*
X185892Y2814007D01*
X186289Y2813974D01*
X186619Y2813842D01*
Y2813478D01*
X186586D01*
X186454Y2813577D01*
X186289Y2813676D01*
X186091Y2813710D01*
X185892Y2813743D01*
X185694Y2813710D01*
X185529Y2813643D01*
X185429Y2813511D01*
X185396Y2813346D01*
X185429Y2813214D01*
X185496Y2813081D01*
X185595Y2813015D01*
X185727Y2812949D01*
X185991Y2812883D01*
X186223Y2812817D01*
X186454Y2812718D01*
X186586Y2812586D01*
X186686Y2812420D01*
X186719Y2812189D01*
Y2812057D01*
X186653Y2811924D01*
X186487Y2811693D01*
X186223Y2811528D01*
X186057Y2811462D01*
X185859D01*
X185859D01*
G37*
G74*
*
G75*
G36*
G01*
X154591Y2817918D02*
X154326D01*
X153368Y2820959D01*
X153632D01*
X154591Y2817918D01*
G37*
G74*
*
G75*
G36*
G01*
X156277Y2820133D02*
X156211Y2819835D01*
X156078Y2819604D01*
X155946Y2819471D01*
X155781Y2819405D01*
X155583Y2819339D01*
X155351D01*
X155087D01*
Y2818447D01*
X154756D01*
Y2820860D01*
X155351D01*
X155550D01*
X155715Y2820827D01*
X155979Y2820695D01*
X156211Y2820463D01*
X156244Y2820298D01*
X156277Y2820133D01*
X156277D01*
G37*
G74*
*
G75*
G36*
G01*
X159285Y2820860D02*
X158690Y2818447D01*
X158326D01*
X157831Y2820463D01*
X157368Y2818447D01*
X157004D01*
X156376Y2820860D01*
X156707D01*
X157202Y2818876D01*
X157665Y2820860D01*
X157996D01*
X158492Y2818810D01*
X158988Y2820860D01*
X159285D01*
G37*
G74*
*
G75*
G36*
G01*
X161434Y2818447D02*
X161070D01*
X160310Y2819405D01*
X159880D01*
Y2818447D01*
X159550D01*
Y2820860D01*
X160178D01*
X160376D01*
X160541Y2820827D01*
X160806Y2820728D01*
X161004Y2820529D01*
X161037Y2820364D01*
X161070Y2820199D01*
X161037Y2819967D01*
X160938Y2819769D01*
X160773Y2819604D01*
X160574Y2819505D01*
X161434Y2818447D01*
G37*
G74*
*
G75*
G36*
G01*
X163219Y2817984D02*
X161335D01*
Y2818182D01*
X163219D01*
Y2817984D01*
G37*
G74*
*
G75*
G36*
G01*
X164277Y2818447D02*
X163351D01*
Y2818678D01*
X163649D01*
Y2820629D01*
X163351D01*
Y2820860D01*
X164277D01*
Y2820629D01*
X163979D01*
Y2818678D01*
X164277D01*
Y2818447D01*
G37*
G74*
*
G75*
G36*
G01*
X166525D02*
X166161D01*
X165401Y2819405D01*
X164971D01*
Y2818447D01*
X164640D01*
Y2820860D01*
X165269D01*
X165467D01*
X165632Y2820827D01*
X165897Y2820728D01*
X166095Y2820529D01*
X166128Y2820364D01*
X166161Y2820199D01*
X166128Y2819967D01*
X166029Y2819769D01*
X165864Y2819604D01*
X165665Y2819505D01*
X166525Y2818447D01*
G37*
G74*
*
G75*
G36*
G01*
X168707Y2817852D02*
X168541Y2817819D01*
X168343D01*
X168078Y2817852D01*
X167913Y2817951D01*
X167781Y2818149D01*
X167715Y2818381D01*
X167682D01*
X167616D01*
X167384Y2818414D01*
X167186Y2818447D01*
X166988Y2818579D01*
X166855Y2818711D01*
X166723Y2818876D01*
X166624Y2819108D01*
X166591Y2819372D01*
X166558Y2819637D01*
X166591Y2819934D01*
X166624Y2820199D01*
X166723Y2820397D01*
X166855Y2820595D01*
X167021Y2820728D01*
X167186Y2820827D01*
X167384Y2820893D01*
X167616Y2820926D01*
X167880Y2820893D01*
X168078Y2820827D01*
X168277Y2820728D01*
X168409Y2820595D01*
X168541Y2820397D01*
X168640Y2820199D01*
X168674Y2819934D01*
X168707Y2819637D01*
X168674Y2819207D01*
X168508Y2818876D01*
X168310Y2818612D01*
X168012Y2818447D01*
X168045Y2818281D01*
X168112Y2818182D01*
X168211Y2818116D01*
X168376Y2818083D01*
X168541Y2818116D01*
X168674Y2818149D01*
X168707D01*
Y2817852D01*
G37*
G74*
*
G75*
G36*
G01*
X233677Y2807981D02*
Y2810096D01*
X232818D01*
Y2810394D01*
X234867D01*
Y2810096D01*
X234008D01*
Y2807981D01*
X233677D01*
G37*
G74*
*
G75*
G36*
G01*
X236718D02*
X236322D01*
X235760Y2808906D01*
X235165Y2807981D01*
X234801D01*
X235561Y2809171D01*
X234801Y2810394D01*
X235198D01*
X235760Y2809468D01*
X236388Y2810394D01*
X236718D01*
X235958Y2809204D01*
X236718Y2807981D01*
G37*
G74*
*
G75*
G36*
G01*
X238867Y2809171D02*
X238834Y2808873D01*
X238735Y2808576D01*
X238570Y2808344D01*
X238371Y2808179D01*
X238173Y2808080D01*
X238008Y2808014D01*
X237776Y2807981D01*
X237512D01*
X236950D01*
Y2810394D01*
X237512D01*
X237809D01*
X238041Y2810328D01*
X238371Y2810196D01*
X238570Y2810030D01*
X238735Y2809799D01*
X238834Y2809501D01*
X238867Y2809171D01*
X238867D01*
G37*
G74*
*
G75*
G36*
G01*
X226877Y2807899D02*
X226514D01*
X225753Y2808857D01*
X225324D01*
Y2807899D01*
X224993D01*
Y2810312D01*
X225621D01*
X225819D01*
X225985Y2810279D01*
X226249Y2810180D01*
X226448Y2809981D01*
X226481Y2809816D01*
X226514Y2809651D01*
X226481Y2809419D01*
X226381Y2809221D01*
X226216Y2809056D01*
X226018Y2808957D01*
X226877Y2807899D01*
G37*
G74*
*
G75*
G36*
G01*
X228729D02*
X228332D01*
X227770Y2808824D01*
X227175Y2807899D01*
X226811D01*
X227571Y2809089D01*
X226811Y2810312D01*
X227208D01*
X227770Y2809386D01*
X228398Y2810312D01*
X228729D01*
X227968Y2809122D01*
X228729Y2807899D01*
G37*
G74*
*
G75*
G36*
G01*
X230877Y2809089D02*
X230844Y2808791D01*
X230745Y2808494D01*
X230580Y2808262D01*
X230381Y2808097D01*
X230183Y2807998D01*
X230018Y2807932D01*
X229786Y2807899D01*
X229522D01*
X228960D01*
Y2810312D01*
X229522D01*
X229819D01*
X230051Y2810246D01*
X230381Y2810114D01*
X230580Y2809948D01*
X230745Y2809717D01*
X230844Y2809419D01*
X230877Y2809089D01*
X230877D01*
G37*
G74*
*
G75*
G36*
G01*
X106980Y2753456D02*
X105120D01*
Y2753869D01*
X105492Y2754241D01*
X105864Y2754613D01*
X106153Y2754943D01*
X106319Y2755233D01*
X106401Y2755480D01*
X106443Y2755728D01*
X106401Y2755935D01*
X106277Y2756100D01*
X106153Y2756183D01*
X105947Y2756224D01*
X105740Y2756183D01*
X105492Y2756100D01*
X105368Y2756018D01*
X105244Y2755935D01*
X105203D01*
Y2756348D01*
X105368Y2756431D01*
X105533Y2756472D01*
X105988Y2756555D01*
X106360Y2756514D01*
X106608Y2756307D01*
X106814Y2756059D01*
X106856Y2755728D01*
X106814Y2755398D01*
X106690Y2755109D01*
X106525Y2754819D01*
X106277Y2754571D01*
X105864Y2754158D01*
X105657Y2753952D01*
X105492Y2753786D01*
X106980D01*
Y2753456D01*
G37*
G74*
*
G75*
G36*
G01*
X103647Y2708524D02*
X103440Y2708483D01*
X103233Y2708400D01*
X103068Y2708318D01*
X102944Y2708235D01*
X102903D01*
Y2708648D01*
X103068Y2708731D01*
X103275Y2708772D01*
X103688Y2708855D01*
X104060Y2708814D01*
X104308Y2708690D01*
X104514Y2708442D01*
X104597Y2708111D01*
X104556Y2707863D01*
X104432Y2707657D01*
X104266Y2707533D01*
X104019Y2707450D01*
Y2707409D01*
X104225Y2707326D01*
X104432Y2707202D01*
X104597Y2706995D01*
X104638Y2706623D01*
X104556Y2706252D01*
X104390Y2705962D01*
X104060Y2705756D01*
X103647Y2705673D01*
X103192Y2705714D01*
X102820Y2705838D01*
Y2706293D01*
X102862D01*
X102985Y2706169D01*
X103192Y2706086D01*
X103399Y2706004D01*
X103605D01*
X103853Y2706045D01*
X104060Y2706169D01*
X104184Y2706376D01*
X104225Y2706665D01*
X104184Y2706954D01*
X104060Y2707119D01*
X103853Y2707202D01*
X103605Y2707243D01*
X103440D01*
Y2707574D01*
X103564D01*
X103812Y2707615D01*
X104019Y2707698D01*
X104143Y2707863D01*
X104184Y2708111D01*
X104143Y2708276D01*
X104019Y2708442D01*
X103853Y2708483D01*
X103647Y2708524D01*
X103647D01*
G37*
G74*
*
G75*
G36*
G01*
X106539Y2708070D02*
X106539D01*
X106498Y2707739D01*
X106374Y2707615D01*
X106250Y2707450D01*
X106002Y2707574D01*
X105837Y2707657D01*
X105630Y2707863D01*
X105547Y2708111D01*
X105589Y2708276D01*
X105671Y2708442D01*
X105837Y2708524D01*
X106043Y2708566D01*
X106250Y2708524D01*
X106415Y2708442D01*
X106498Y2708276D01*
X106539Y2708070D01*
G37*
G74*
*
G75*
G36*
G01*
X106581Y2706541D02*
X106581D01*
X106539Y2706293D01*
X106415Y2706128D01*
X106250Y2706004D01*
X106043Y2705962D01*
X105795Y2706004D01*
X105630Y2706128D01*
X105506Y2706334D01*
X105465Y2706623D01*
X105506Y2706789D01*
X105547Y2706995D01*
X105795Y2707243D01*
X106043Y2707161D01*
X106250Y2707078D01*
X106415Y2706954D01*
X106498Y2706830D01*
X106581Y2706541D01*
G37*
G74*
*
G75*
G36*
G01*
X82147Y2704224D02*
X81940Y2704183D01*
X81733Y2704100D01*
X81568Y2704018D01*
X81444Y2703935D01*
X81403D01*
Y2704348D01*
X81568Y2704431D01*
X81775Y2704472D01*
X82188Y2704555D01*
X82560Y2704514D01*
X82808Y2704390D01*
X83014Y2704142D01*
X83097Y2703811D01*
X83056Y2703563D01*
X82932Y2703357D01*
X82766Y2703233D01*
X82519Y2703150D01*
Y2703109D01*
X82725Y2703026D01*
X82932Y2702902D01*
X83097Y2702695D01*
X83138Y2702323D01*
X83056Y2701952D01*
X82890Y2701662D01*
X82560Y2701456D01*
X82147Y2701373D01*
X81692Y2701414D01*
X81320Y2701538D01*
Y2701993D01*
X81362D01*
X81485Y2701869D01*
X81692Y2701786D01*
X81899Y2701704D01*
X82105D01*
X82353Y2701745D01*
X82560Y2701869D01*
X82684Y2702076D01*
X82725Y2702365D01*
X82684Y2702654D01*
X82560Y2702819D01*
X82353Y2702902D01*
X82105Y2702943D01*
X81940D01*
Y2703274D01*
X82064D01*
X82312Y2703315D01*
X82519Y2703398D01*
X82643Y2703563D01*
X82684Y2703811D01*
X82643Y2703976D01*
X82519Y2704142D01*
X82353Y2704183D01*
X82147Y2704224D01*
X82147D01*
G37*
G74*
*
G75*
G36*
G01*
X85039Y2703233D02*
X85039D01*
Y2703109D01*
Y2703026D01*
X84791Y2702902D01*
X84502Y2702861D01*
X84295D01*
X84130Y2702985D01*
X83965Y2703191D01*
X83923Y2703522D01*
X83965Y2703811D01*
X84089Y2704018D01*
X84254Y2704183D01*
X84461Y2704224D01*
X84667Y2704183D01*
X84833Y2704059D01*
X84915Y2703894D01*
X84998Y2703728D01*
X85039Y2703522D01*
Y2703233D01*
G37*
G74*
*
G75*
G36*
G01*
X142285Y2813970D02*
X140219D01*
Y2811904D01*
X139558D01*
Y2813970D01*
X137492D01*
Y2814631D01*
X139558D01*
Y2816697D01*
X140219D01*
Y2814631D01*
X142285D01*
Y2813970D01*
G37*
G74*
*
G75*
G36*
G01*
X161282Y2813662D02*
X158968D01*
Y2814406D01*
X161282D01*
Y2813662D01*
G37*
G74*
*
G75*
G36*
G01*
X236570Y2811490D02*
X236305Y2811523D01*
X236107Y2811556D01*
X235909Y2811655D01*
X235743Y2811820D01*
X235578Y2811985D01*
X235479Y2812217D01*
X235446Y2812481D01*
X235413Y2812779D01*
X235446Y2813043D01*
X235512Y2813308D01*
X235611Y2813506D01*
X235743Y2813704D01*
X235909Y2813837D01*
X236107Y2813936D01*
X236338Y2814002D01*
X236570Y2814035D01*
X236801Y2814002D01*
X237033Y2813969D01*
X237198Y2813903D01*
X237363Y2813837D01*
Y2813440D01*
X237330D01*
X237198Y2813539D01*
X237033Y2813638D01*
X236801Y2813738D01*
X236537Y2813771D01*
X236371Y2813738D01*
X236206Y2813704D01*
X236074Y2813605D01*
X235975Y2813506D01*
X235809Y2813176D01*
X235743Y2812779D01*
Y2812547D01*
X235809Y2812349D01*
X235975Y2812019D01*
X236074Y2811886D01*
X236206Y2811820D01*
X236371Y2811754D01*
X236537D01*
X236801Y2811787D01*
X237033Y2811820D01*
Y2812481D01*
X236504D01*
Y2812779D01*
X237363D01*
Y2811688D01*
X237198Y2811622D01*
X237000Y2811556D01*
X236801Y2811490D01*
X236570D01*
X236570D01*
G37*
G74*
*
G75*
G36*
G01*
X238454D02*
X238190D01*
X237991Y2811556D01*
X237628Y2811688D01*
Y2812085D01*
X237661D01*
X237826Y2811952D01*
X238024Y2811853D01*
X238223Y2811787D01*
X238421Y2811754D01*
X238652Y2811787D01*
X238851Y2811853D01*
X238950Y2811985D01*
X238983Y2812184D01*
X238950Y2812316D01*
X238917Y2812415D01*
X238818Y2812481D01*
X238685Y2812547D01*
X238454Y2812614D01*
X238223Y2812680D01*
X237991Y2812746D01*
X237826Y2812878D01*
X237694Y2813076D01*
X237661Y2813341D01*
X237727Y2813605D01*
X237892Y2813837D01*
X238157Y2813969D01*
X238487Y2814035D01*
X238884Y2814002D01*
X239214Y2813870D01*
Y2813506D01*
X239181D01*
X239049Y2813605D01*
X238884Y2813704D01*
X238685Y2813738D01*
X238487Y2813771D01*
X238289Y2813738D01*
X238123Y2813671D01*
X238024Y2813539D01*
X237991Y2813374D01*
X238024Y2813242D01*
X238090Y2813109D01*
X238190Y2813043D01*
X238322Y2812977D01*
X238586Y2812911D01*
X238818Y2812845D01*
X239049Y2812746D01*
X239181Y2812614D01*
X239281Y2812448D01*
X239314Y2812217D01*
Y2812085D01*
X239247Y2811952D01*
X239082Y2811721D01*
X238818Y2811556D01*
X238652Y2811490D01*
X238454D01*
X238454D01*
G37*
G74*
*
G75*
G36*
G01*
X241694Y2811556D02*
X241363D01*
Y2813638D01*
X240735Y2812217D01*
X240537D01*
X239909Y2813638D01*
Y2811556D01*
X239611D01*
Y2813969D01*
X240041D01*
X240669Y2812614D01*
X241231Y2813969D01*
X241694D01*
Y2811556D01*
G37*
G74*
*
G75*
G36*
G01*
X243776Y2811093D02*
X241892D01*
Y2811291D01*
X243776D01*
Y2811093D01*
G37*
G74*
*
G75*
G36*
G01*
X245694Y2813704D02*
X245826Y2813506D01*
X245925Y2813308D01*
X245958Y2813043D01*
X245991Y2812746D01*
X245958Y2812481D01*
X245925Y2812217D01*
X245826Y2811985D01*
X245694Y2811820D01*
X245528Y2811655D01*
X245363Y2811556D01*
X245132Y2811523D01*
X244900Y2811490D01*
X244669Y2811523D01*
X244471Y2811556D01*
X244305Y2811688D01*
X244140Y2811820D01*
X244008Y2811985D01*
X243909Y2812217D01*
X243876Y2812481D01*
X243843Y2812746D01*
X243876Y2813043D01*
X243909Y2813308D01*
X244008Y2813506D01*
X244140Y2813704D01*
X244305Y2813837D01*
X244471Y2813936D01*
X244669Y2814002D01*
X244900Y2814035D01*
X245165Y2814002D01*
X245363Y2813936D01*
X245562Y2813837D01*
X245694Y2813704D01*
X245694D01*
G37*
G74*
*
G75*
G36*
G01*
X248074Y2811556D02*
X247710D01*
X246619Y2813638D01*
Y2811556D01*
X246322D01*
Y2813969D01*
X246785D01*
X247776Y2812052D01*
Y2813969D01*
X248074D01*
Y2811556D01*
G37*
G74*
*
G75*
G36*
G01*
X105510Y2686307D02*
X105246D01*
X105047Y2686373D01*
X104684Y2686505D01*
Y2686902D01*
X104717D01*
X104882Y2686769D01*
X105080Y2686670D01*
X105279Y2686604D01*
X105477Y2686571D01*
X105709Y2686604D01*
X105907Y2686670D01*
X106006Y2686802D01*
X106039Y2687001D01*
X106006Y2687133D01*
X105973Y2687232D01*
X105874Y2687298D01*
X105742Y2687364D01*
X105510Y2687431D01*
X105279Y2687497D01*
X105047Y2687563D01*
X104882Y2687695D01*
X104750Y2687893D01*
X104717Y2688158D01*
X104783Y2688422D01*
X104948Y2688654D01*
X105213Y2688786D01*
X105543Y2688852D01*
X105940Y2688819D01*
X106271Y2688687D01*
Y2688323D01*
X106237D01*
X106105Y2688422D01*
X105940Y2688521D01*
X105742Y2688555D01*
X105543Y2688588D01*
X105345Y2688555D01*
X105180Y2688488D01*
X105080Y2688356D01*
X105047Y2688191D01*
X105080Y2688059D01*
X105147Y2687926D01*
X105246Y2687860D01*
X105378Y2687794D01*
X105642Y2687728D01*
X105874Y2687662D01*
X106105Y2687563D01*
X106237Y2687431D01*
X106337Y2687265D01*
X106370Y2687034D01*
Y2686902D01*
X106304Y2686769D01*
X106138Y2686538D01*
X105874Y2686373D01*
X105709Y2686307D01*
X105510D01*
X105510D01*
G37*
G74*
*
G75*
G36*
G01*
X108188Y2688059D02*
X108122Y2687761D01*
X107990Y2687530D01*
X107857Y2687397D01*
X107692Y2687331D01*
X107494Y2687265D01*
X107262D01*
X106998D01*
Y2686373D01*
X106667D01*
Y2688786D01*
X107262D01*
X107461D01*
X107626Y2688753D01*
X107890Y2688621D01*
X108122Y2688389D01*
X108155Y2688224D01*
X108188Y2688059D01*
X108188D01*
G37*
G74*
*
G75*
G36*
G01*
X109345Y2686373D02*
X108419D01*
Y2686604D01*
X108717D01*
Y2688555D01*
X108419D01*
Y2688786D01*
X109345D01*
Y2688555D01*
X109047D01*
Y2686604D01*
X109345D01*
Y2686373D01*
G37*
G74*
*
G75*
G36*
G01*
X111328Y2685910D02*
X109444D01*
Y2686108D01*
X111328D01*
Y2685910D01*
G37*
G74*
*
G75*
G36*
G01*
X113609Y2686373D02*
X113279D01*
Y2688455D01*
X112651Y2687034D01*
X112452D01*
X111824Y2688455D01*
Y2686373D01*
X111527D01*
Y2688786D01*
X111956D01*
X112585Y2687431D01*
X113147Y2688786D01*
X113609D01*
Y2686373D01*
G37*
G74*
*
G75*
G36*
G01*
X115791Y2688521D02*
X115923Y2688323D01*
X116023Y2688125D01*
X116056Y2687860D01*
X116089Y2687563D01*
X116056Y2687298D01*
X116023Y2687034D01*
X115923Y2686802D01*
X115791Y2686637D01*
X115626Y2686472D01*
X115461Y2686373D01*
X115229Y2686340D01*
X114998Y2686307D01*
X114766Y2686340D01*
X114568Y2686373D01*
X114403Y2686505D01*
X114237Y2686637D01*
X114105Y2686802D01*
X114006Y2687034D01*
X113973Y2687298D01*
X113940Y2687563D01*
X113973Y2687860D01*
X114006Y2688125D01*
X114105Y2688323D01*
X114237Y2688521D01*
X114403Y2688654D01*
X114568Y2688753D01*
X114766Y2688819D01*
X114998Y2688852D01*
X115262Y2688819D01*
X115461Y2688753D01*
X115659Y2688654D01*
X115791Y2688521D01*
X115791D01*
G37*
G74*
*
G75*
G36*
G01*
X117114Y2686307D02*
X116849D01*
X116651Y2686373D01*
X116287Y2686505D01*
Y2686902D01*
X116320D01*
X116485Y2686769D01*
X116684Y2686670D01*
X116882Y2686604D01*
X117080Y2686571D01*
X117312Y2686604D01*
X117510Y2686670D01*
X117609Y2686802D01*
X117642Y2687001D01*
X117609Y2687133D01*
X117576Y2687232D01*
X117477Y2687298D01*
X117345Y2687364D01*
X117114Y2687431D01*
X116882Y2687497D01*
X116651Y2687563D01*
X116485Y2687695D01*
X116353Y2687893D01*
X116320Y2688158D01*
X116386Y2688422D01*
X116552Y2688654D01*
X116816Y2688786D01*
X117147Y2688852D01*
X117543Y2688819D01*
X117874Y2688687D01*
Y2688323D01*
X117841D01*
X117709Y2688422D01*
X117543Y2688521D01*
X117345Y2688555D01*
X117147Y2688588D01*
X116948Y2688555D01*
X116783Y2688488D01*
X116684Y2688356D01*
X116651Y2688191D01*
X116684Y2688059D01*
X116750Y2687926D01*
X116849Y2687860D01*
X116981Y2687794D01*
X117246Y2687728D01*
X117477Y2687662D01*
X117709Y2687563D01*
X117841Y2687431D01*
X117940Y2687265D01*
X117973Y2687034D01*
Y2686902D01*
X117907Y2686769D01*
X117742Y2686538D01*
X117477Y2686373D01*
X117312Y2686307D01*
X117114D01*
X117114D01*
G37*
G74*
*
G75*
G36*
G01*
X119130Y2686373D02*
X118204D01*
Y2686604D01*
X118502D01*
Y2688555D01*
X118204D01*
Y2688786D01*
X119130D01*
Y2688555D01*
X118833D01*
Y2686604D01*
X119130D01*
Y2686373D01*
G37*
G74*
*
G75*
G36*
G01*
X120783D02*
X119626D01*
Y2686604D01*
X120056D01*
Y2688224D01*
X119626D01*
Y2688455D01*
X119824D01*
X119990Y2688521D01*
X120089Y2688621D01*
X120122Y2688786D01*
X120353D01*
Y2686604D01*
X120783D01*
Y2686373D01*
G37*
G74*
*
G75*
G36*
G01*
X107339Y2677190D02*
X107075D01*
X106876Y2677256D01*
X106513Y2677388D01*
Y2677785D01*
X106546D01*
X106711Y2677652D01*
X106909Y2677553D01*
X107108Y2677487D01*
X107306Y2677454D01*
X107538Y2677487D01*
X107736Y2677553D01*
X107835Y2677685D01*
X107868Y2677884D01*
X107835Y2678016D01*
X107802Y2678115D01*
X107703Y2678181D01*
X107571Y2678247D01*
X107339Y2678314D01*
X107108Y2678380D01*
X106876Y2678446D01*
X106711Y2678578D01*
X106579Y2678776D01*
X106546Y2679041D01*
X106612Y2679305D01*
X106777Y2679537D01*
X107042Y2679669D01*
X107372Y2679735D01*
X107769Y2679702D01*
X108100Y2679570D01*
Y2679206D01*
X108066D01*
X107934Y2679305D01*
X107769Y2679404D01*
X107571Y2679438D01*
X107372Y2679471D01*
X107174Y2679438D01*
X107009Y2679371D01*
X106909Y2679239D01*
X106876Y2679074D01*
X106909Y2678942D01*
X106976Y2678809D01*
X107075Y2678743D01*
X107207Y2678677D01*
X107471Y2678611D01*
X107703Y2678545D01*
X107934Y2678446D01*
X108066Y2678314D01*
X108166Y2678148D01*
X108199Y2677917D01*
Y2677785D01*
X108133Y2677652D01*
X107967Y2677421D01*
X107703Y2677256D01*
X107538Y2677190D01*
X107339D01*
X107339D01*
G37*
G74*
*
G75*
G36*
G01*
X110017Y2678942D02*
X109951Y2678644D01*
X109819Y2678413D01*
X109686Y2678280D01*
X109521Y2678214D01*
X109323Y2678148D01*
X109091D01*
X108827D01*
Y2677256D01*
X108496D01*
Y2679669D01*
X109091D01*
X109290D01*
X109455Y2679636D01*
X109719Y2679504D01*
X109951Y2679272D01*
X109984Y2679107D01*
X110017Y2678942D01*
X110017D01*
G37*
G74*
*
G75*
G36*
G01*
X111174Y2677256D02*
X110248D01*
Y2677487D01*
X110546D01*
Y2679438D01*
X110248D01*
Y2679669D01*
X111174D01*
Y2679438D01*
X110876D01*
Y2677487D01*
X111174D01*
Y2677256D01*
G37*
G74*
*
G75*
G36*
G01*
X113157Y2676793D02*
X111273D01*
Y2676991D01*
X113157D01*
Y2676793D01*
G37*
G74*
*
G75*
G36*
G01*
X114281Y2677190D02*
X114083Y2677223D01*
X113852Y2677256D01*
X113686Y2677355D01*
X113521Y2677520D01*
X113389Y2677685D01*
X113290Y2677917D01*
X113257Y2678148D01*
X113223Y2678446D01*
X113257Y2678743D01*
X113290Y2679008D01*
X113389Y2679206D01*
X113521Y2679404D01*
X113686Y2679537D01*
X113852Y2679636D01*
X114083Y2679702D01*
X114314Y2679735D01*
X114513Y2679702D01*
X114711Y2679669D01*
X114876Y2679603D01*
X115042Y2679537D01*
Y2679140D01*
X115009D01*
X114909Y2679239D01*
X114744Y2679338D01*
X114546Y2679438D01*
X114314Y2679471D01*
X114017Y2679404D01*
X113752Y2679206D01*
X113620Y2678876D01*
X113554Y2678446D01*
Y2678214D01*
X113620Y2678016D01*
X113785Y2677719D01*
X113885Y2677586D01*
X114017Y2677520D01*
X114149Y2677454D01*
X114314D01*
X114546Y2677487D01*
X114777Y2677586D01*
X114909Y2677685D01*
X115009Y2677785D01*
X115042D01*
Y2677388D01*
X114909Y2677322D01*
X114711Y2677256D01*
X114546Y2677190D01*
X114281D01*
X114281D01*
G37*
G74*
*
G75*
G36*
G01*
X116761Y2677256D02*
X115339D01*
Y2679669D01*
X115670D01*
Y2677553D01*
X116761D01*
Y2677256D01*
G37*
G74*
*
G75*
G36*
G01*
X118777D02*
X118414D01*
X117488Y2678413D01*
X117323Y2678214D01*
Y2677256D01*
X116992D01*
Y2679669D01*
X117323D01*
Y2678545D01*
X118314Y2679669D01*
X118711D01*
X117719Y2678578D01*
X118777Y2677256D01*
G37*
G74*
*
G75*
G36*
G01*
X120232D02*
X119075D01*
Y2677487D01*
X119504D01*
Y2679107D01*
X119075D01*
Y2679338D01*
X119273D01*
X119438Y2679404D01*
X119538Y2679504D01*
X119571Y2679669D01*
X119802D01*
Y2677487D01*
X120232D01*
Y2677256D01*
G37*
G74*
*
G75*
G36*
G01*
X113639Y2666990D02*
X113375D01*
X113176Y2667056D01*
X112813Y2667188D01*
Y2667585D01*
X112846D01*
X113011Y2667452D01*
X113209Y2667353D01*
X113408Y2667287D01*
X113606Y2667254D01*
X113838Y2667287D01*
X114036Y2667353D01*
X114135Y2667485D01*
X114168Y2667684D01*
X114135Y2667816D01*
X114102Y2667915D01*
X114003Y2667981D01*
X113871Y2668047D01*
X113639Y2668114D01*
X113408Y2668180D01*
X113176Y2668246D01*
X113011Y2668378D01*
X112879Y2668576D01*
X112846Y2668841D01*
X112912Y2669105D01*
X113077Y2669337D01*
X113342Y2669469D01*
X113672Y2669535D01*
X114069Y2669502D01*
X114400Y2669370D01*
Y2669006D01*
X114366D01*
X114234Y2669105D01*
X114069Y2669204D01*
X113871Y2669238D01*
X113672Y2669271D01*
X113474Y2669238D01*
X113309Y2669171D01*
X113209Y2669039D01*
X113176Y2668874D01*
X113209Y2668742D01*
X113276Y2668609D01*
X113375Y2668543D01*
X113507Y2668477D01*
X113771Y2668411D01*
X114003Y2668345D01*
X114234Y2668246D01*
X114366Y2668114D01*
X114466Y2667948D01*
X114499Y2667717D01*
Y2667585D01*
X114433Y2667452D01*
X114267Y2667221D01*
X114003Y2667056D01*
X113838Y2666990D01*
X113639D01*
X113639D01*
G37*
G74*
*
G75*
G36*
G01*
X116317Y2668742D02*
X116251Y2668444D01*
X116119Y2668213D01*
X115986Y2668080D01*
X115821Y2668014D01*
X115623Y2667948D01*
X115391D01*
X115127D01*
Y2667056D01*
X114796D01*
Y2669469D01*
X115391D01*
X115590D01*
X115755Y2669436D01*
X116019Y2669304D01*
X116251Y2669072D01*
X116284Y2668907D01*
X116317Y2668742D01*
X116317D01*
G37*
G74*
*
G75*
G36*
G01*
X117474Y2667056D02*
X116548D01*
Y2667287D01*
X116846D01*
Y2669238D01*
X116548D01*
Y2669469D01*
X117474D01*
Y2669238D01*
X117176D01*
Y2667287D01*
X117474D01*
Y2667056D01*
G37*
G74*
*
G75*
G36*
G01*
X119457Y2666593D02*
X117573D01*
Y2666791D01*
X119457D01*
Y2666593D01*
G37*
G74*
*
G75*
G36*
G01*
X121738Y2667056D02*
X121408D01*
Y2669138D01*
X120780Y2667717D01*
X120581D01*
X119953Y2669138D01*
Y2667056D01*
X119656D01*
Y2669469D01*
X120085D01*
X120714Y2668114D01*
X121276Y2669469D01*
X121738D01*
Y2667056D01*
G37*
G74*
*
G75*
G36*
G01*
X123061D02*
X122135D01*
Y2667287D01*
X122433D01*
Y2669238D01*
X122135D01*
Y2669469D01*
X123061D01*
Y2669238D01*
X122763D01*
Y2667287D01*
X123061D01*
Y2667056D01*
G37*
G74*
*
G75*
G36*
G01*
X124119Y2666990D02*
X123854D01*
X123656Y2667056D01*
X123292Y2667188D01*
Y2667585D01*
X123325D01*
X123490Y2667452D01*
X123689Y2667353D01*
X123887Y2667287D01*
X124085Y2667254D01*
X124317Y2667287D01*
X124515Y2667353D01*
X124614Y2667485D01*
X124647Y2667684D01*
X124614Y2667816D01*
X124581Y2667915D01*
X124482Y2667981D01*
X124350Y2668047D01*
X124119Y2668114D01*
X123887Y2668180D01*
X123656Y2668246D01*
X123490Y2668378D01*
X123358Y2668576D01*
X123325Y2668841D01*
X123391Y2669105D01*
X123557Y2669337D01*
X123821Y2669469D01*
X124152Y2669535D01*
X124548Y2669502D01*
X124879Y2669370D01*
Y2669006D01*
X124846D01*
X124714Y2669105D01*
X124548Y2669204D01*
X124350Y2669238D01*
X124152Y2669271D01*
X123953Y2669238D01*
X123788Y2669171D01*
X123689Y2669039D01*
X123656Y2668874D01*
X123689Y2668742D01*
X123755Y2668609D01*
X123854Y2668543D01*
X123986Y2668477D01*
X124251Y2668411D01*
X124482Y2668345D01*
X124714Y2668246D01*
X124846Y2668114D01*
X124945Y2667948D01*
X124978Y2667717D01*
Y2667585D01*
X124912Y2667452D01*
X124747Y2667221D01*
X124482Y2667056D01*
X124317Y2666990D01*
X124119D01*
X124119D01*
G37*
G74*
*
G75*
G36*
G01*
X126995Y2669204D02*
X127127Y2669006D01*
X127226Y2668808D01*
X127259Y2668543D01*
X127292Y2668246D01*
X127259Y2667981D01*
X127226Y2667717D01*
X127127Y2667485D01*
X126995Y2667320D01*
X126829Y2667155D01*
X126664Y2667056D01*
X126433Y2667023D01*
X126201Y2666990D01*
X125970Y2667023D01*
X125771Y2667056D01*
X125606Y2667188D01*
X125441Y2667320D01*
X125309Y2667485D01*
X125209Y2667717D01*
X125176Y2667981D01*
X125143Y2668246D01*
X125176Y2668543D01*
X125209Y2668808D01*
X125309Y2669006D01*
X125441Y2669204D01*
X125606Y2669337D01*
X125771Y2669436D01*
X125970Y2669502D01*
X126201Y2669535D01*
X126466Y2669502D01*
X126664Y2669436D01*
X126862Y2669337D01*
X126995Y2669204D01*
X126995D01*
G37*
G74*
*
G75*
G36*
G01*
X128912Y2667056D02*
X127755D01*
Y2667287D01*
X128185D01*
Y2668907D01*
X127755D01*
Y2669138D01*
X127953D01*
X128119Y2669204D01*
X128218Y2669304D01*
X128251Y2669469D01*
X128482D01*
Y2667287D01*
X128912D01*
Y2667056D01*
G37*
G74*
*
G75*
G36*
G01*
X288994Y2698287D02*
X287548D01*
Y2698576D01*
X288085D01*
Y2700601D01*
X287548D01*
Y2700890D01*
X287796D01*
X288003Y2700973D01*
X288127Y2701097D01*
X288168Y2701303D01*
X288457D01*
Y2698576D01*
X288994D01*
Y2698287D01*
G37*
G74*
*
G75*
G36*
G01*
X291019Y2700601D02*
X291019D01*
X290978Y2700270D01*
X290854Y2700146D01*
X290730Y2699981D01*
X290482Y2700105D01*
X290317Y2700188D01*
X290110Y2700394D01*
X290027Y2700642D01*
X290069Y2700807D01*
X290151Y2700973D01*
X290317Y2701055D01*
X290523Y2701097D01*
X290730Y2701055D01*
X290895Y2700973D01*
X290978Y2700807D01*
X291019Y2700601D01*
G37*
G74*
*
G75*
G36*
G01*
X291061Y2699072D02*
X291061D01*
X291019Y2698824D01*
X290895Y2698659D01*
X290730Y2698535D01*
X290523Y2698493D01*
X290275Y2698535D01*
X290110Y2698659D01*
X289986Y2698865D01*
X289945Y2699154D01*
X289986Y2699320D01*
X290027Y2699526D01*
X290275Y2699774D01*
X290523Y2699692D01*
X290730Y2699609D01*
X290895Y2699485D01*
X290978Y2699361D01*
X291061Y2699072D01*
G37*
G74*
*
G75*
G36*
G01*
X266779Y2725702D02*
X266779D01*
Y2725578D01*
Y2725495D01*
X266532Y2725371D01*
X266242Y2725330D01*
X266036D01*
X265870Y2725454D01*
X265705Y2725660D01*
X265664Y2725991D01*
X265705Y2726280D01*
X265829Y2726487D01*
X265994Y2726652D01*
X266201Y2726693D01*
X266408Y2726652D01*
X266573Y2726528D01*
X266656Y2726363D01*
X266738Y2726197D01*
X266779Y2725991D01*
Y2725702D01*
G37*
G74*
*
G75*
G36*
G01*
X288765Y2726167D02*
X287319D01*
Y2726456D01*
X287856D01*
Y2728481D01*
X287319D01*
Y2728770D01*
X287567D01*
X287774Y2728853D01*
X287898Y2728977D01*
X287939Y2729183D01*
X288228D01*
Y2726456D01*
X288765D01*
Y2726167D01*
G37*
G74*
*
G75*
G36*
G01*
X291203Y2727654D02*
Y2727282D01*
X291162Y2726952D01*
X291079Y2726704D01*
X290955Y2726456D01*
X290832Y2726291D01*
X290666Y2726167D01*
X290501Y2726125D01*
X290253Y2726084D01*
X290005Y2726125D01*
X289840Y2726167D01*
X289674Y2726291D01*
X289551Y2726456D01*
X289427Y2726704D01*
X289344Y2726952D01*
X289303Y2727282D01*
Y2727654D01*
Y2728068D01*
X289344Y2728398D01*
X289427Y2728646D01*
X289551Y2728894D01*
X289674Y2729059D01*
X289840Y2729183D01*
X290046Y2729225D01*
X290253Y2729266D01*
X290501Y2729225D01*
X290666Y2729183D01*
X290832Y2729059D01*
X290955Y2728853D01*
X291079Y2728646D01*
X291162Y2728357D01*
X291203Y2728026D01*
Y2727654D01*
X291203D01*
G37*
G74*
*
G75*
G36*
G01*
X84814Y2760256D02*
X83368D01*
Y2760545D01*
X83905D01*
Y2762570D01*
X83368D01*
Y2762859D01*
X83616D01*
X83823Y2762942D01*
X83947Y2763066D01*
X83988Y2763272D01*
X84277D01*
Y2760545D01*
X84814D01*
Y2760256D01*
G37*
G74*
*
G75*
G36*
G01*
X221845Y2788256D02*
Y2790669D01*
X223366D01*
Y2790371D01*
X222176D01*
Y2789710D01*
X223300D01*
Y2789413D01*
X222176D01*
Y2788553D01*
X223366D01*
Y2788256D01*
X221845D01*
G37*
G74*
*
G75*
G36*
G01*
X225217Y2789942D02*
X225151Y2789644D01*
X225019Y2789413D01*
X224886Y2789280D01*
X224721Y2789214D01*
X224523Y2789148D01*
X224291D01*
X224027D01*
Y2788256D01*
X223696D01*
Y2790669D01*
X224291D01*
X224490D01*
X224655Y2790636D01*
X224919Y2790504D01*
X225151Y2790272D01*
X225184Y2790107D01*
X225217Y2789942D01*
X225217D01*
G37*
G74*
*
G75*
G36*
G01*
X227399Y2788256D02*
X227035D01*
X226275Y2789214D01*
X225845D01*
Y2788256D01*
X225514D01*
Y2790669D01*
X226143D01*
X226341D01*
X226506Y2790636D01*
X226771Y2790537D01*
X226969Y2790338D01*
X227002Y2790173D01*
X227035Y2790008D01*
X227002Y2789776D01*
X226903Y2789578D01*
X226738Y2789413D01*
X226539Y2789314D01*
X227399Y2788256D01*
G37*
G74*
*
G75*
G36*
G01*
X230736Y2787627D02*
X230471D01*
X229513Y2790668D01*
X229777D01*
X230736Y2787627D01*
G37*
G74*
*
G75*
G36*
G01*
X232686Y2788156D02*
X232356D01*
Y2789313D01*
X231232D01*
Y2788156D01*
X230901D01*
Y2790569D01*
X231232D01*
Y2789610D01*
X232356D01*
Y2790569D01*
X232686D01*
Y2788156D01*
G37*
G74*
*
G75*
G36*
G01*
X234868Y2790304D02*
X235000Y2790106D01*
X235100Y2789908D01*
X235133Y2789643D01*
X235166Y2789346D01*
X235133Y2789081D01*
X235100Y2788817D01*
X235000Y2788585D01*
X234868Y2788420D01*
X234703Y2788255D01*
X234538Y2788156D01*
X234306Y2788123D01*
X234075Y2788090D01*
X233843Y2788123D01*
X233645Y2788156D01*
X233480Y2788288D01*
X233314Y2788420D01*
X233182Y2788585D01*
X233083Y2788817D01*
X233050Y2789081D01*
X233017Y2789346D01*
X233050Y2789643D01*
X233083Y2789908D01*
X233182Y2790106D01*
X233314Y2790304D01*
X233480Y2790437D01*
X233645Y2790536D01*
X233843Y2790602D01*
X234075Y2790635D01*
X234339Y2790602D01*
X234538Y2790536D01*
X234736Y2790437D01*
X234868Y2790304D01*
X234868D01*
G37*
G74*
*
G75*
G36*
G01*
X237281Y2788156D02*
X236918D01*
X235992Y2789313D01*
X235827Y2789114D01*
Y2788156D01*
X235496D01*
Y2790569D01*
X235827D01*
Y2789445D01*
X236819Y2790569D01*
X237215D01*
X236223Y2789478D01*
X237281Y2788156D01*
G37*
G74*
*
G75*
G36*
G01*
X239364Y2789346D02*
X239331Y2789048D01*
X239232Y2788751D01*
X239066Y2788519D01*
X238868Y2788354D01*
X238670Y2788255D01*
X238504Y2788189D01*
X238273Y2788156D01*
X238009D01*
X237447D01*
Y2790569D01*
X238009D01*
X238306D01*
X238538Y2790503D01*
X238868Y2790371D01*
X239066Y2790205D01*
X239232Y2789974D01*
X239331Y2789676D01*
X239364Y2789346D01*
X239364D01*
G37*
G74*
*
G75*
G36*
G01*
X250233Y2737497D02*
X248993D01*
Y2736257D01*
X248596D01*
Y2737497D01*
X247357D01*
Y2737894D01*
X248596D01*
Y2739133D01*
X248993D01*
Y2737894D01*
X250233D01*
Y2737497D01*
G37*
G74*
*
G75*
G36*
G01*
X183557Y2836173D02*
X182317D01*
Y2834933D01*
X181920D01*
Y2836173D01*
X180681D01*
Y2836570D01*
X181920D01*
Y2837809D01*
X182317D01*
Y2836570D01*
X183557D01*
Y2836173D01*
G37*
G74*
*
G75*
G36*
G01*
X136144Y2885354D02*
X134904D01*
Y2884114D01*
X134507D01*
Y2885354D01*
X133268D01*
Y2885751D01*
X134507D01*
Y2886990D01*
X134904D01*
Y2885751D01*
X136144D01*
Y2885354D01*
G37*
G74*
*
G75*
G36*
G01*
X105264Y2546532D02*
X104404Y2546640D01*
X103760Y2546747D01*
X103115Y2547069D01*
X102578Y2547607D01*
X102041Y2548144D01*
X101718Y2548896D01*
X101611Y2549755D01*
X101504Y2550722D01*
X101611Y2551582D01*
X101826Y2552441D01*
X102148Y2553086D01*
X102578Y2553731D01*
X103115Y2554160D01*
X103760Y2554483D01*
X104512Y2554697D01*
X105264Y2554805D01*
X106016Y2554697D01*
X106768Y2554590D01*
X107305Y2554375D01*
X107842Y2554160D01*
Y2552871D01*
X107735D01*
X107305Y2553193D01*
X106768Y2553516D01*
X106016Y2553838D01*
X105157Y2553945D01*
X104619Y2553838D01*
X104082Y2553731D01*
X103652Y2553408D01*
X103330Y2553086D01*
X102793Y2552012D01*
X102578Y2550722D01*
Y2549970D01*
X102793Y2549326D01*
X103330Y2548251D01*
X103652Y2547821D01*
X104082Y2547607D01*
X104619Y2547392D01*
X105157D01*
X106016Y2547499D01*
X106768Y2547607D01*
Y2549755D01*
X105049D01*
Y2550722D01*
X107842D01*
Y2547177D01*
X107305Y2546962D01*
X106661Y2546747D01*
X106016Y2546532D01*
X105264D01*
X105264D01*
G37*
G74*
*
G75*
G36*
G01*
X110958Y2546747D02*
Y2553623D01*
X108165D01*
Y2554590D01*
X114826D01*
Y2553623D01*
X112033D01*
Y2546747D01*
X110958D01*
G37*
G74*
*
G75*
G36*
G01*
X114611D02*
X117190Y2554590D01*
X118479D01*
X121057Y2546747D01*
X119876D01*
X119231Y2549003D01*
X116437D01*
X115793Y2546747D01*
X114611D01*
G37*
G74*
*
G75*
G36*
G01*
X126429Y2550615D02*
Y2549648D01*
X126322Y2548788D01*
X126107Y2548144D01*
X125785Y2547499D01*
X125462Y2547069D01*
X125033Y2546747D01*
X124603Y2546640D01*
X123958Y2546532D01*
X123314Y2546640D01*
X122884Y2546747D01*
X122454Y2547069D01*
X122132Y2547499D01*
X121809Y2548144D01*
X121595Y2548788D01*
X121487Y2549648D01*
Y2550615D01*
Y2551689D01*
X121595Y2552549D01*
X121809Y2553193D01*
X122132Y2553838D01*
X122454Y2554268D01*
X122884Y2554590D01*
X123421Y2554697D01*
X123958Y2554805D01*
X124603Y2554697D01*
X125033Y2554590D01*
X125462Y2554268D01*
X125785Y2553731D01*
X126107Y2553193D01*
X126322Y2552441D01*
X126429Y2551582D01*
Y2550615D01*
X126429D01*
G37*
G74*
*
G75*
G36*
G01*
X132338Y2546747D02*
X127504D01*
Y2547821D01*
X128471Y2548788D01*
X129437Y2549755D01*
X130190Y2550615D01*
X130619Y2551367D01*
X130834Y2552012D01*
X130942Y2552656D01*
X130834Y2553193D01*
X130512Y2553623D01*
X130190Y2553838D01*
X129652Y2553945D01*
X129115Y2553838D01*
X128471Y2553623D01*
X128148Y2553408D01*
X127826Y2553193D01*
X127718D01*
Y2554268D01*
X128148Y2554483D01*
X128578Y2554590D01*
X129760Y2554805D01*
X130727Y2554697D01*
X131371Y2554160D01*
X131909Y2553516D01*
X132016Y2552656D01*
X131909Y2551797D01*
X131586Y2551045D01*
X131157Y2550293D01*
X130512Y2549648D01*
X129437Y2548574D01*
X128900Y2548036D01*
X128471Y2547607D01*
X132338D01*
Y2546747D01*
G37*
G74*
*
G75*
G36*
G01*
X56987Y2471841D02*
X56342Y2471948D01*
X55590Y2472056D01*
X55053Y2472378D01*
X54515Y2472915D01*
X54086Y2473452D01*
X53763Y2474204D01*
X53656Y2474957D01*
X53548Y2475923D01*
X53656Y2476890D01*
X53763Y2477750D01*
X54086Y2478395D01*
X54515Y2479039D01*
X55053Y2479469D01*
X55590Y2479791D01*
X56342Y2480006D01*
X57094Y2480114D01*
X57739Y2480006D01*
X58383Y2479899D01*
X58920Y2479684D01*
X59458Y2479469D01*
Y2478180D01*
X59350D01*
X59028Y2478502D01*
X58491Y2478824D01*
X57846Y2479147D01*
X57094Y2479254D01*
X56127Y2479039D01*
X55268Y2478395D01*
X54838Y2477320D01*
X54623Y2475923D01*
Y2475171D01*
X54838Y2474527D01*
X55375Y2473560D01*
X55697Y2473130D01*
X56127Y2472915D01*
X56557Y2472700D01*
X57094D01*
X57846Y2472808D01*
X58598Y2473130D01*
X59028Y2473452D01*
X59350Y2473775D01*
X59458D01*
Y2472485D01*
X59028Y2472271D01*
X58383Y2472056D01*
X57846Y2471841D01*
X56987D01*
X56987D01*
G37*
G74*
*
G75*
G36*
G01*
X61391Y2472056D02*
X60425D01*
Y2480221D01*
X61391D01*
Y2472056D01*
G37*
G74*
*
G75*
G36*
G01*
X65367Y2471948D02*
X64185Y2472163D01*
X63218Y2472700D01*
X62681Y2473667D01*
X62466Y2475064D01*
X62681Y2476353D01*
X63218Y2477320D01*
X64077Y2477965D01*
X65152Y2478180D01*
X66119Y2477965D01*
X66871Y2477535D01*
X67301Y2476676D01*
X67515Y2476138D01*
Y2475494D01*
Y2474957D01*
X63433D01*
X63540Y2473990D01*
X63970Y2473345D01*
X64615Y2472915D01*
X65367Y2472808D01*
X66011Y2472915D01*
X66548Y2473130D01*
X67086Y2473345D01*
X67301Y2473560D01*
X67408D01*
Y2472485D01*
X66978Y2472271D01*
X66548Y2472056D01*
X66011Y2471948D01*
X65367D01*
X65367D01*
G37*
G74*
*
G75*
G36*
G01*
X71813Y2473452D02*
X71813D01*
X71061Y2473023D01*
X70201Y2472808D01*
X69772Y2472915D01*
X69449Y2473023D01*
X69234Y2473345D01*
X69127Y2473882D01*
X69234Y2474204D01*
X69342Y2474527D01*
X70094Y2474957D01*
X70416D01*
X70953Y2475064D01*
X71813Y2475171D01*
Y2473452D01*
G37*
G74*
*
G75*
G36*
G01*
X77292Y2476890D02*
X77292D01*
X76970D01*
X76755D01*
X75896Y2476676D01*
X75144Y2476246D01*
Y2472056D01*
X74177D01*
Y2477965D01*
X75144D01*
Y2477105D01*
X75681Y2477535D01*
X76110Y2477750D01*
X76863Y2477965D01*
X77077D01*
X77292D01*
Y2476890D01*
G37*
G74*
*
G75*
G36*
G01*
X81268Y2473452D02*
X81268D01*
X80515Y2473023D01*
X79656Y2472808D01*
X79226Y2472915D01*
X78904Y2473023D01*
X78689Y2473345D01*
X78582Y2473882D01*
X78689Y2474204D01*
X78796Y2474527D01*
X79548Y2474957D01*
X79871D01*
X80408Y2475064D01*
X81268Y2475171D01*
Y2473452D01*
G37*
G74*
*
G75*
G36*
G01*
X88251Y2472056D02*
X87284D01*
Y2475386D01*
Y2476246D01*
X87069Y2476783D01*
X86747Y2477105D01*
X86102Y2477213D01*
X85350Y2476998D01*
X84598Y2476461D01*
Y2472056D01*
X83631D01*
Y2477965D01*
X84598D01*
Y2477320D01*
X85458Y2477965D01*
X86425Y2478180D01*
X87177Y2478072D01*
X87714Y2477642D01*
X88144Y2476890D01*
X88251Y2475923D01*
Y2472056D01*
G37*
G74*
*
G75*
G36*
G01*
X91904Y2471948D02*
X90829Y2472163D01*
X90400Y2472378D01*
X89970Y2472700D01*
X89648Y2473130D01*
X89433Y2473667D01*
X89218Y2474312D01*
Y2475064D01*
X89325Y2475816D01*
X89433Y2476353D01*
X89970Y2477320D01*
X90829Y2477965D01*
X91904Y2478180D01*
X92871Y2478072D01*
X93623Y2477750D01*
Y2476676D01*
X93515D01*
X93301Y2476890D01*
X92871Y2477105D01*
X92441Y2477213D01*
X91904Y2477320D01*
X91152Y2477213D01*
X90615Y2476676D01*
X90292Y2476031D01*
X90185Y2475064D01*
X90292Y2474097D01*
X90615Y2473345D01*
X91152Y2472915D01*
X91904Y2472808D01*
X92334D01*
X92763Y2473023D01*
X93515Y2473560D01*
X93623D01*
Y2472378D01*
X93301Y2472271D01*
X92871Y2472056D01*
X92441Y2471948D01*
X91904D01*
X91904D01*
G37*
G74*
*
G75*
G36*
G01*
X97061D02*
X95879Y2472163D01*
X94912Y2472700D01*
X94375Y2473667D01*
X94160Y2475064D01*
X94375Y2476353D01*
X94912Y2477320D01*
X95772Y2477965D01*
X96846Y2478180D01*
X97813Y2477965D01*
X98565Y2477535D01*
X98995Y2476676D01*
X99210Y2476138D01*
Y2475494D01*
Y2474957D01*
X95127D01*
X95234Y2473990D01*
X95664Y2473345D01*
X96309Y2472915D01*
X97061Y2472808D01*
X97706Y2472915D01*
X98243Y2473130D01*
X98780Y2473345D01*
X98995Y2473560D01*
X99102D01*
Y2472485D01*
X98672Y2472271D01*
X98243Y2472056D01*
X97706Y2471948D01*
X97061D01*
X97061D01*
G37*
G74*
*
G75*
G36*
G01*
X106086D02*
X104904Y2472163D01*
X103937Y2472700D01*
X103400Y2473667D01*
X103185Y2475064D01*
X103400Y2476353D01*
X103937Y2477320D01*
X104796Y2477965D01*
X105871Y2478180D01*
X106838Y2477965D01*
X107590Y2477535D01*
X108020Y2476676D01*
X108234Y2476138D01*
Y2475494D01*
Y2474957D01*
X104152D01*
X104259Y2473990D01*
X104689Y2473345D01*
X105334Y2472915D01*
X106086Y2472808D01*
X106730Y2472915D01*
X107268Y2473130D01*
X107805Y2473345D01*
X108020Y2473560D01*
X108127D01*
Y2472485D01*
X107697Y2472271D01*
X107268Y2472056D01*
X106730Y2471948D01*
X106086D01*
X106086D01*
G37*
G74*
*
G75*
G36*
G01*
X112425Y2476890D02*
X112425D01*
X112102D01*
X111887D01*
X111028Y2476676D01*
X110276Y2476246D01*
Y2472056D01*
X109309D01*
Y2477965D01*
X110276D01*
Y2477105D01*
X110813Y2477535D01*
X111243Y2477750D01*
X111995Y2477965D01*
X112210D01*
X112425D01*
Y2476890D01*
G37*
G74*
*
G75*
G36*
G01*
X116292D02*
X116292D01*
X115970D01*
X115755D01*
X114896Y2476676D01*
X114144Y2476246D01*
Y2472056D01*
X113177D01*
Y2477965D01*
X114144D01*
Y2477105D01*
X114681Y2477535D01*
X115110Y2477750D01*
X115863Y2477965D01*
X116077D01*
X116292D01*
Y2476890D01*
G37*
G74*
*
G75*
G36*
G01*
X121772Y2474957D02*
X121557Y2473667D01*
X121020Y2472700D01*
X120268Y2472056D01*
X119193Y2471841D01*
X118119Y2472056D01*
X117689Y2472271D01*
X117259Y2472700D01*
X116829Y2473667D01*
X116615Y2474957D01*
X116829Y2476353D01*
X117367Y2477320D01*
X118119Y2477965D01*
X119193Y2478180D01*
X120268Y2477965D01*
X121020Y2477320D01*
X121557Y2476353D01*
X121772Y2474957D01*
X121772D01*
G37*
G74*
*
G75*
G36*
G01*
X125962Y2476890D02*
X125962D01*
X125639D01*
X125425D01*
X124565Y2476676D01*
X123813Y2476246D01*
Y2472056D01*
X122846D01*
Y2477965D01*
X123813D01*
Y2477105D01*
X124350Y2477535D01*
X124780Y2477750D01*
X125532Y2477965D01*
X125747D01*
X125962D01*
Y2476890D01*
G37*
G74*
*
G75*
G36*
G01*
X56987Y2451841D02*
X56342Y2451948D01*
X55590Y2452056D01*
X55053Y2452378D01*
X54515Y2452915D01*
X54086Y2453452D01*
X53763Y2454204D01*
X53656Y2454957D01*
X53548Y2455923D01*
X53656Y2456890D01*
X53763Y2457750D01*
X54086Y2458395D01*
X54515Y2459039D01*
X55053Y2459469D01*
X55590Y2459791D01*
X56342Y2460006D01*
X57094Y2460114D01*
X57739Y2460006D01*
X58383Y2459899D01*
X58920Y2459684D01*
X59458Y2459469D01*
Y2458180D01*
X59350D01*
X59028Y2458502D01*
X58491Y2458824D01*
X57846Y2459147D01*
X57094Y2459254D01*
X56127Y2459039D01*
X55268Y2458395D01*
X54838Y2457320D01*
X54623Y2455923D01*
Y2455171D01*
X54838Y2454527D01*
X55375Y2453560D01*
X55697Y2453130D01*
X56127Y2452915D01*
X56557Y2452700D01*
X57094D01*
X57846Y2452808D01*
X58598Y2453130D01*
X59028Y2453452D01*
X59350Y2453775D01*
X59458D01*
Y2452485D01*
X59028Y2452271D01*
X58383Y2452056D01*
X57846Y2451841D01*
X56987D01*
X56987D01*
G37*
G74*
*
G75*
G36*
G01*
X65152Y2454957D02*
X64937Y2453667D01*
X64400Y2452700D01*
X63648Y2452056D01*
X62573Y2451841D01*
X61499Y2452056D01*
X61069Y2452271D01*
X60639Y2452700D01*
X60210Y2453667D01*
X59995Y2454957D01*
X60210Y2456353D01*
X60747Y2457320D01*
X61499Y2457965D01*
X62573Y2458180D01*
X63648Y2457965D01*
X64400Y2457320D01*
X64937Y2456353D01*
X65152Y2454957D01*
X65152D01*
G37*
G74*
*
G75*
G36*
G01*
X70846Y2452056D02*
X69879D01*
Y2455386D01*
Y2456246D01*
X69664Y2456783D01*
X69342Y2457105D01*
X68697Y2457213D01*
X67945Y2456998D01*
X67193Y2456461D01*
Y2452056D01*
X66226D01*
Y2457965D01*
X67193D01*
Y2457320D01*
X68053Y2457965D01*
X69020Y2458180D01*
X69772Y2458072D01*
X70309Y2457642D01*
X70739Y2456890D01*
X70846Y2455923D01*
Y2452056D01*
G37*
G74*
*
G75*
G36*
G01*
X76863D02*
X75896D01*
Y2455386D01*
Y2456246D01*
X75681Y2456783D01*
X75358Y2457105D01*
X74714Y2457213D01*
X73962Y2456998D01*
X73210Y2456461D01*
Y2452056D01*
X72243D01*
Y2457965D01*
X73210D01*
Y2457320D01*
X74069Y2457965D01*
X75036Y2458180D01*
X75788Y2458072D01*
X76325Y2457642D01*
X76755Y2456890D01*
X76863Y2455923D01*
Y2452056D01*
G37*
G74*
*
G75*
G36*
G01*
X80730Y2451948D02*
X79548Y2452163D01*
X78582Y2452700D01*
X78044Y2453667D01*
X77829Y2455064D01*
X78044Y2456353D01*
X78582Y2457320D01*
X79441Y2457965D01*
X80515Y2458180D01*
X81482Y2457965D01*
X82234Y2457535D01*
X82664Y2456676D01*
X82879Y2456138D01*
Y2455494D01*
Y2454957D01*
X78796D01*
X78904Y2453990D01*
X79334Y2453345D01*
X79978Y2452915D01*
X80730Y2452808D01*
X81375Y2452915D01*
X81912Y2453130D01*
X82449Y2453345D01*
X82664Y2453560D01*
X82772D01*
Y2452485D01*
X82342Y2452271D01*
X81912Y2452056D01*
X81375Y2451948D01*
X80730D01*
X80730D01*
G37*
G74*
*
G75*
G36*
G01*
X86210D02*
X85135Y2452163D01*
X84706Y2452378D01*
X84276Y2452700D01*
X83953Y2453130D01*
X83739Y2453667D01*
X83524Y2454312D01*
Y2455064D01*
X83631Y2455816D01*
X83739Y2456353D01*
X84276Y2457320D01*
X85135Y2457965D01*
X86210Y2458180D01*
X87177Y2458072D01*
X87929Y2457750D01*
Y2456676D01*
X87821D01*
X87606Y2456890D01*
X87177Y2457105D01*
X86747Y2457213D01*
X86210Y2457320D01*
X85458Y2457213D01*
X84920Y2456676D01*
X84598Y2456031D01*
X84491Y2455064D01*
X84598Y2454097D01*
X84920Y2453345D01*
X85458Y2452915D01*
X86210Y2452808D01*
X86639D01*
X87069Y2453023D01*
X87821Y2453560D01*
X87929D01*
Y2452378D01*
X87606Y2452271D01*
X87177Y2452056D01*
X86747Y2451948D01*
X86210D01*
X86210D01*
G37*
G74*
*
G75*
G36*
G01*
X90615D02*
X89863Y2452056D01*
X89325Y2452378D01*
X89003Y2453023D01*
X88896Y2453882D01*
Y2457105D01*
X88251D01*
Y2457965D01*
X88896D01*
Y2459684D01*
X89863D01*
Y2457965D01*
X91689D01*
Y2457105D01*
X89863D01*
Y2454312D01*
Y2453882D01*
Y2453667D01*
X89970Y2453130D01*
X90292Y2452915D01*
X90829Y2452808D01*
X91259Y2452915D01*
X91582Y2453023D01*
X91689D01*
Y2452163D01*
X91152Y2451948D01*
X90615D01*
X90615D01*
G37*
G74*
*
G75*
G36*
G01*
X93408Y2452056D02*
X92441D01*
Y2457965D01*
X93408D01*
Y2452056D01*
G37*
G74*
*
G75*
G36*
G01*
Y2458824D02*
X92334D01*
Y2459899D01*
X93408D01*
Y2458824D01*
G37*
G74*
*
G75*
G36*
G01*
X99532Y2457965D02*
X97276Y2452056D01*
X96416D01*
X94160Y2457965D01*
X95234D01*
X96846Y2453345D01*
X98458Y2457965D01*
X99532D01*
G37*
G74*
*
G75*
G36*
G01*
X101251Y2452056D02*
X100284D01*
Y2457965D01*
X101251D01*
Y2452056D01*
G37*
G74*
*
G75*
G36*
G01*
Y2458824D02*
X100177D01*
Y2459899D01*
X101251D01*
Y2458824D01*
G37*
G74*
*
G75*
G36*
G01*
X104474Y2451948D02*
X103722Y2452056D01*
X103185Y2452378D01*
X102863Y2453023D01*
X102755Y2453882D01*
Y2457105D01*
X102110D01*
Y2457965D01*
X102755D01*
Y2459684D01*
X103722D01*
Y2457965D01*
X105548D01*
Y2457105D01*
X103722D01*
Y2454312D01*
Y2453882D01*
Y2453667D01*
X103829Y2453130D01*
X104152Y2452915D01*
X104689Y2452808D01*
X105119Y2452915D01*
X105441Y2453023D01*
X105548D01*
Y2452163D01*
X105011Y2451948D01*
X104474D01*
X104474D01*
G37*
G74*
*
G75*
G36*
G01*
X110920Y2457965D02*
X107697Y2449907D01*
X106623D01*
X107697Y2452378D01*
X105548Y2457965D01*
X106623D01*
X108234Y2453560D01*
X109846Y2457965D01*
X110920D01*
G37*
G74*
*
G75*
G36*
G01*
X117474Y2451948D02*
X116292Y2452163D01*
X115325Y2452700D01*
X114788Y2453667D01*
X114573Y2455064D01*
X114788Y2456353D01*
X115325Y2457320D01*
X116185Y2457965D01*
X117259Y2458180D01*
X118226Y2457965D01*
X118978Y2457535D01*
X119408Y2456676D01*
X119623Y2456138D01*
Y2455494D01*
Y2454957D01*
X115540D01*
X115648Y2453990D01*
X116077Y2453345D01*
X116722Y2452915D01*
X117474Y2452808D01*
X118119Y2452915D01*
X118656Y2453130D01*
X119193Y2453345D01*
X119408Y2453560D01*
X119515D01*
Y2452485D01*
X119086Y2452271D01*
X118656Y2452056D01*
X118119Y2451948D01*
X117474D01*
X117474D01*
G37*
G74*
*
G75*
G36*
G01*
X123813Y2456890D02*
X123813D01*
X123491D01*
X123276D01*
X122416Y2456676D01*
X121664Y2456246D01*
Y2452056D01*
X120697D01*
Y2457965D01*
X121664D01*
Y2457105D01*
X122201Y2457535D01*
X122631Y2457750D01*
X123383Y2457965D01*
X123598D01*
X123813D01*
Y2456890D01*
G37*
G74*
*
G75*
G36*
G01*
X127681D02*
X127681D01*
X127358D01*
X127144D01*
X126284Y2456676D01*
X125532Y2456246D01*
Y2452056D01*
X124565D01*
Y2457965D01*
X125532D01*
Y2457105D01*
X126069Y2457535D01*
X126499Y2457750D01*
X127251Y2457965D01*
X127466D01*
X127681D01*
Y2456890D01*
G37*
G74*
*
G75*
G36*
G01*
X133160Y2454957D02*
X132945Y2453667D01*
X132408Y2452700D01*
X131656Y2452056D01*
X130582Y2451841D01*
X129507Y2452056D01*
X129077Y2452271D01*
X128648Y2452700D01*
X128218Y2453667D01*
X128003Y2454957D01*
X128218Y2456353D01*
X128755Y2457320D01*
X129507Y2457965D01*
X130582Y2458180D01*
X131656Y2457965D01*
X132408Y2457320D01*
X132945Y2456353D01*
X133160Y2454957D01*
X133160D01*
G37*
G74*
*
G75*
G36*
G01*
X137350Y2456890D02*
X137350D01*
X137028D01*
X136813D01*
X135953Y2456676D01*
X135201Y2456246D01*
Y2452056D01*
X134234D01*
Y2457965D01*
X135201D01*
Y2457105D01*
X135739Y2457535D01*
X136168Y2457750D01*
X136920Y2457965D01*
X137135D01*
X137350D01*
Y2456890D01*
G37*
G74*
*
G75*
G36*
G01*
X194693Y2477609D02*
X194693D01*
X194594Y2476816D01*
X194296Y2476519D01*
X193999Y2476122D01*
X193404Y2476419D01*
X193007Y2476618D01*
X192511Y2477114D01*
X192313Y2477709D01*
X192412Y2478105D01*
X192610Y2478502D01*
X193007Y2478700D01*
X193503Y2478800D01*
X193999Y2478700D01*
X194396Y2478502D01*
X194594Y2478105D01*
X194693Y2477609D01*
G37*
G74*
*
G75*
G36*
G01*
X194792Y2473940D02*
X194792D01*
X194693Y2473345D01*
X194396Y2472948D01*
X193999Y2472651D01*
X193503Y2472552D01*
X192908Y2472651D01*
X192511Y2472948D01*
X192214Y2473444D01*
X192115Y2474138D01*
X192214Y2474535D01*
X192313Y2475031D01*
X192908Y2475626D01*
X193503Y2475428D01*
X193999Y2475229D01*
X194396Y2474932D01*
X194594Y2474634D01*
X194792Y2473940D01*
G37*
G74*
*
G75*
G36*
G01*
X195685Y2455626D02*
Y2454733D01*
X195586Y2453940D01*
X195387Y2453345D01*
X195090Y2452750D01*
X194792Y2452353D01*
X194396Y2452056D01*
X193999Y2451957D01*
X193404Y2451857D01*
X192809Y2451957D01*
X192412Y2452056D01*
X192015Y2452353D01*
X191718Y2452750D01*
X191420Y2453345D01*
X191222Y2453940D01*
X191123Y2454733D01*
Y2455626D01*
Y2456618D01*
X191222Y2457411D01*
X191420Y2458006D01*
X191718Y2458601D01*
X192015Y2458998D01*
X192412Y2459295D01*
X192908Y2459395D01*
X193404Y2459494D01*
X193999Y2459395D01*
X194396Y2459295D01*
X194792Y2458998D01*
X195090Y2458502D01*
X195387Y2458006D01*
X195586Y2457312D01*
X195685Y2456519D01*
Y2455626D01*
X195685D01*
G37*
G74*
*
G75*
G36*
G01*
X168185Y2545278D02*
X168185D01*
X168061Y2544286D01*
X167689Y2543914D01*
X167317Y2543418D01*
X166573Y2543790D01*
X166077Y2544038D01*
X165458Y2544658D01*
X165210Y2545402D01*
X165334Y2545898D01*
X165582Y2546394D01*
X166077Y2546641D01*
X166697Y2546765D01*
X167317Y2546641D01*
X167813Y2546394D01*
X168061Y2545898D01*
X168185Y2545278D01*
G37*
G74*
*
G75*
G36*
G01*
X168309Y2540691D02*
X168309D01*
X168185Y2539947D01*
X167813Y2539451D01*
X167317Y2539080D01*
X166697Y2538956D01*
X165953Y2539080D01*
X165458Y2539451D01*
X165086Y2540071D01*
X164962Y2540939D01*
X165086Y2541435D01*
X165210Y2542055D01*
X165953Y2542799D01*
X166697Y2542551D01*
X167317Y2542303D01*
X167813Y2541931D01*
X168061Y2541559D01*
X168309Y2540691D01*
G37*
G74*
*
G75*
G36*
G01*
X108706Y2537712D02*
X105053D01*
Y2535563D01*
X108598D01*
Y2534596D01*
X105053D01*
Y2530836D01*
X103978D01*
Y2538679D01*
X108706D01*
Y2537712D01*
G37*
G74*
*
G75*
G36*
G01*
X112358Y2530836D02*
X109350D01*
Y2531588D01*
X110317D01*
Y2537927D01*
X109350D01*
Y2538679D01*
X112358D01*
Y2537927D01*
X111391D01*
Y2531588D01*
X112358D01*
Y2530836D01*
G37*
G74*
*
G75*
G36*
G01*
X116548Y2530621D02*
X115904Y2530728D01*
X115152Y2530836D01*
X114615Y2531158D01*
X114077Y2531695D01*
X113648Y2532232D01*
X113325Y2532984D01*
X113218Y2533737D01*
X113110Y2534703D01*
X113218Y2535670D01*
X113325Y2536530D01*
X113648Y2537175D01*
X114077Y2537819D01*
X114615Y2538249D01*
X115152Y2538571D01*
X115904Y2538786D01*
X116656Y2538894D01*
X117301Y2538786D01*
X117945Y2538679D01*
X118482Y2538464D01*
X119020Y2538249D01*
Y2536960D01*
X118912D01*
X118590Y2537282D01*
X118053Y2537604D01*
X117408Y2537927D01*
X116656Y2538034D01*
X115689Y2537819D01*
X114829Y2537175D01*
X114400Y2536100D01*
X114185Y2534703D01*
Y2533951D01*
X114400Y2533307D01*
X114937Y2532340D01*
X115259Y2531910D01*
X115689Y2531695D01*
X116119Y2531480D01*
X116656D01*
X117408Y2531588D01*
X118160Y2531910D01*
X118590Y2532232D01*
X118912Y2532555D01*
X119020D01*
Y2531265D01*
X118590Y2531051D01*
X117945Y2530836D01*
X117408Y2530621D01*
X116548D01*
X116548D01*
G37*
G74*
*
G75*
G36*
G01*
X124606Y2534703D02*
Y2533737D01*
X124499Y2532877D01*
X124284Y2532232D01*
X123962Y2531588D01*
X123639Y2531158D01*
X123210Y2530836D01*
X122780Y2530728D01*
X122135Y2530621D01*
X121491Y2530728D01*
X121061Y2530836D01*
X120631Y2531158D01*
X120309Y2531588D01*
X119987Y2532232D01*
X119772Y2532877D01*
X119664Y2533737D01*
Y2534703D01*
Y2535778D01*
X119772Y2536637D01*
X119987Y2537282D01*
X120309Y2537927D01*
X120631Y2538356D01*
X121061Y2538679D01*
X121598Y2538786D01*
X122135Y2538894D01*
X122780Y2538786D01*
X123210Y2538679D01*
X123639Y2538356D01*
X123962Y2537819D01*
X124284Y2537282D01*
X124499Y2536530D01*
X124606Y2535670D01*
Y2534703D01*
X124606D01*
G37*
G74*
*
G75*
G36*
G01*
X130086Y2530836D02*
X126325D01*
Y2531588D01*
X127722D01*
Y2536852D01*
X126325D01*
Y2537604D01*
X126970D01*
X127507Y2537819D01*
X127829Y2538141D01*
X127937Y2538679D01*
X128689D01*
Y2531588D01*
X130086D01*
Y2530836D01*
G37*
G74*
*
G75*
G36*
G01*
X135995D02*
X132234D01*
Y2531588D01*
X133631D01*
Y2536852D01*
X132234D01*
Y2537604D01*
X132879D01*
X133416Y2537819D01*
X133739Y2538141D01*
X133846Y2538679D01*
X134598D01*
Y2531588D01*
X135995D01*
Y2530836D01*
G37*
G74*
*
G75*
G36*
G01*
X60168Y2532840D02*
X58185D01*
X56697Y2533336D01*
X53970Y2534327D01*
Y2537303D01*
X54218D01*
X55458Y2536311D01*
X56945Y2535567D01*
X58433Y2535071D01*
X59920Y2534823D01*
X61656Y2535071D01*
X63144Y2535567D01*
X63887Y2536559D01*
X64135Y2538046D01*
X63887Y2539038D01*
X63639Y2539782D01*
X62896Y2540278D01*
X61904Y2540774D01*
X60168Y2541270D01*
X58433Y2541765D01*
X56697Y2542261D01*
X55458Y2543253D01*
X54466Y2544741D01*
X54218Y2546724D01*
X54714Y2548708D01*
X55953Y2550443D01*
X57937Y2551435D01*
X60416Y2551931D01*
X63391Y2551683D01*
X65871Y2550691D01*
Y2547964D01*
X65623D01*
X64631Y2548708D01*
X63391Y2549451D01*
X61904Y2549699D01*
X60416Y2549947D01*
X58929Y2549699D01*
X57689Y2549203D01*
X56945Y2548212D01*
X56697Y2546972D01*
X56945Y2545980D01*
X57441Y2544989D01*
X58185Y2544493D01*
X59177Y2543997D01*
X61160Y2543501D01*
X62896Y2543005D01*
X64631Y2542261D01*
X65623Y2541270D01*
X66367Y2540030D01*
X66615Y2538294D01*
Y2537303D01*
X66119Y2536311D01*
X64879Y2534575D01*
X62896Y2533336D01*
X61656Y2532840D01*
X60168D01*
X60168D01*
G37*
G74*
*
G75*
G36*
G01*
X73061Y2533336D02*
Y2549203D01*
X66615D01*
Y2551435D01*
X81987D01*
Y2549203D01*
X75540D01*
Y2533336D01*
X73061D01*
G37*
G74*
*
G75*
G36*
G01*
X110685Y2493336D02*
X106222D01*
Y2494327D01*
X107115Y2495220D01*
X108007Y2496113D01*
X108701Y2496906D01*
X109098Y2497600D01*
X109296Y2498195D01*
X109396Y2498790D01*
X109296Y2499286D01*
X108999Y2499683D01*
X108701Y2499881D01*
X108206Y2499980D01*
X107710Y2499881D01*
X107115Y2499683D01*
X106817Y2499484D01*
X106520Y2499286D01*
X106420D01*
Y2500278D01*
X106817Y2500476D01*
X107214Y2500575D01*
X108305Y2500774D01*
X109197Y2500675D01*
X109792Y2500179D01*
X110288Y2499584D01*
X110387Y2498790D01*
X110288Y2497997D01*
X109991Y2497303D01*
X109594Y2496608D01*
X108999Y2496013D01*
X108007Y2495022D01*
X107511Y2494526D01*
X107115Y2494129D01*
X110685D01*
Y2493336D01*
G37*
G74*
*
G75*
G36*
G01*
X116139Y2496906D02*
Y2496013D01*
X116040Y2495220D01*
X115842Y2494625D01*
X115544Y2494030D01*
X115247Y2493633D01*
X114850Y2493336D01*
X114453Y2493237D01*
X113858Y2493137D01*
X113263Y2493237D01*
X112867Y2493336D01*
X112470Y2493633D01*
X112172Y2494030D01*
X111875Y2494625D01*
X111677Y2495220D01*
X111577Y2496013D01*
Y2496906D01*
Y2497898D01*
X111677Y2498691D01*
X111875Y2499286D01*
X112172Y2499881D01*
X112470Y2500278D01*
X112867Y2500575D01*
X113363Y2500675D01*
X113858Y2500774D01*
X114453Y2500675D01*
X114850Y2500575D01*
X115247Y2500278D01*
X115544Y2499782D01*
X115842Y2499286D01*
X116040Y2498592D01*
X116139Y2497799D01*
Y2496906D01*
X116139D01*
G37*
G74*
*
G75*
G36*
G01*
X121594D02*
Y2496013D01*
X121495Y2495220D01*
X121296Y2494625D01*
X120999Y2494030D01*
X120701Y2493633D01*
X120305Y2493336D01*
X119908Y2493237D01*
X119313Y2493137D01*
X118718Y2493237D01*
X118321Y2493336D01*
X117925Y2493633D01*
X117627Y2494030D01*
X117329Y2494625D01*
X117131Y2495220D01*
X117032Y2496013D01*
Y2496906D01*
Y2497898D01*
X117131Y2498691D01*
X117329Y2499286D01*
X117627Y2499881D01*
X117925Y2500278D01*
X118321Y2500575D01*
X118817Y2500675D01*
X119313Y2500774D01*
X119908Y2500675D01*
X120305Y2500575D01*
X120701Y2500278D01*
X120999Y2499782D01*
X121296Y2499286D01*
X121495Y2498592D01*
X121594Y2497799D01*
Y2496906D01*
X121594D01*
G37*
G74*
*
G75*
G36*
G01*
X126057Y2498889D02*
X126057D01*
X125958Y2498096D01*
X125660Y2497799D01*
X125363Y2497402D01*
X124768Y2497699D01*
X124371Y2497898D01*
X123875Y2498394D01*
X123677Y2498989D01*
X123776Y2499385D01*
X123974Y2499782D01*
X124371Y2499980D01*
X124867Y2500080D01*
X125363Y2499980D01*
X125759Y2499782D01*
X125958Y2499385D01*
X126057Y2498889D01*
G37*
G74*
*
G75*
G36*
G01*
X126156Y2495220D02*
X126156D01*
X126057Y2494625D01*
X125759Y2494228D01*
X125363Y2493931D01*
X124867Y2493832D01*
X124272Y2493931D01*
X123875Y2494228D01*
X123577Y2494724D01*
X123478Y2495418D01*
X123577Y2495815D01*
X123677Y2496311D01*
X124272Y2496906D01*
X124867Y2496708D01*
X125363Y2496509D01*
X125759Y2496212D01*
X125958Y2495914D01*
X126156Y2495220D01*
G37*
G74*
*
G75*
G36*
G01*
X130718Y2496013D02*
X127941D01*
Y2496906D01*
X130718D01*
Y2496013D01*
G37*
G74*
*
G75*
G36*
G01*
X136073Y2496906D02*
Y2496013D01*
X135974Y2495220D01*
X135776Y2494625D01*
X135478Y2494030D01*
X135181Y2493633D01*
X134784Y2493336D01*
X134387Y2493237D01*
X133792Y2493137D01*
X133197Y2493237D01*
X132801Y2493336D01*
X132404Y2493633D01*
X132106Y2494030D01*
X131809Y2494625D01*
X131610Y2495220D01*
X131511Y2496013D01*
Y2496906D01*
Y2497898D01*
X131610Y2498691D01*
X131809Y2499286D01*
X132106Y2499881D01*
X132404Y2500278D01*
X132801Y2500575D01*
X133296Y2500675D01*
X133792Y2500774D01*
X134387Y2500675D01*
X134784Y2500575D01*
X135181Y2500278D01*
X135478Y2499782D01*
X135776Y2499286D01*
X135974Y2498592D01*
X136073Y2497799D01*
Y2496906D01*
X136073D01*
G37*
G74*
*
G75*
G36*
G01*
X139048Y2499980D02*
X138553Y2499881D01*
X138057Y2499683D01*
X137660Y2499484D01*
X137363Y2499286D01*
X137263D01*
Y2500278D01*
X137660Y2500476D01*
X138156Y2500575D01*
X139148Y2500774D01*
X140040Y2500675D01*
X140635Y2500377D01*
X141131Y2499782D01*
X141329Y2498989D01*
X141230Y2498394D01*
X140933Y2497898D01*
X140536Y2497600D01*
X139941Y2497402D01*
Y2497303D01*
X140437Y2497104D01*
X140933Y2496807D01*
X141329Y2496311D01*
X141429Y2495418D01*
X141230Y2494526D01*
X140834Y2493832D01*
X140040Y2493336D01*
X139048Y2493137D01*
X137958Y2493237D01*
X137065Y2493534D01*
Y2494625D01*
X137164D01*
X137462Y2494327D01*
X137958Y2494129D01*
X138453Y2493931D01*
X138949D01*
X139544Y2494030D01*
X140040Y2494327D01*
X140338Y2494823D01*
X140437Y2495518D01*
X140338Y2496212D01*
X140040Y2496608D01*
X139544Y2496807D01*
X138949Y2496906D01*
X138553D01*
Y2497699D01*
X138850D01*
X139445Y2497799D01*
X139941Y2497997D01*
X140239Y2498394D01*
X140338Y2498989D01*
X140239Y2499385D01*
X139941Y2499782D01*
X139544Y2499881D01*
X139048Y2499980D01*
X139048D01*
G37*
G74*
*
G75*
G36*
G01*
X145197Y2496013D02*
X142420D01*
Y2496906D01*
X145197D01*
Y2496013D01*
G37*
G74*
*
G75*
G36*
G01*
X150553Y2496906D02*
Y2496013D01*
X150453Y2495220D01*
X150255Y2494625D01*
X149958Y2494030D01*
X149660Y2493633D01*
X149263Y2493336D01*
X148867Y2493237D01*
X148272Y2493137D01*
X147677Y2493237D01*
X147280Y2493336D01*
X146883Y2493633D01*
X146586Y2494030D01*
X146288Y2494625D01*
X146090Y2495220D01*
X145991Y2496013D01*
Y2496906D01*
Y2497898D01*
X146090Y2498691D01*
X146288Y2499286D01*
X146586Y2499881D01*
X146883Y2500278D01*
X147280Y2500575D01*
X147776Y2500675D01*
X148272Y2500774D01*
X148867Y2500675D01*
X149263Y2500575D01*
X149660Y2500278D01*
X149958Y2499782D01*
X150255Y2499286D01*
X150453Y2498592D01*
X150553Y2497799D01*
Y2496906D01*
X150553D01*
G37*
G74*
*
G75*
G36*
G01*
X153528Y2499980D02*
X153032Y2499881D01*
X152536Y2499683D01*
X152139Y2499484D01*
X151842Y2499286D01*
X151743D01*
Y2500278D01*
X152139Y2500476D01*
X152635Y2500575D01*
X153627Y2500774D01*
X154520Y2500675D01*
X155115Y2500377D01*
X155610Y2499782D01*
X155809Y2498989D01*
X155710Y2498394D01*
X155412Y2497898D01*
X155015Y2497600D01*
X154420Y2497402D01*
Y2497303D01*
X154916Y2497104D01*
X155412Y2496807D01*
X155809Y2496311D01*
X155908Y2495418D01*
X155710Y2494526D01*
X155313Y2493832D01*
X154520Y2493336D01*
X153528Y2493137D01*
X152437Y2493237D01*
X151544Y2493534D01*
Y2494625D01*
X151644D01*
X151941Y2494327D01*
X152437Y2494129D01*
X152933Y2493931D01*
X153429D01*
X154024Y2494030D01*
X154520Y2494327D01*
X154817Y2494823D01*
X154916Y2495518D01*
X154817Y2496212D01*
X154520Y2496608D01*
X154024Y2496807D01*
X153429Y2496906D01*
X153032D01*
Y2497699D01*
X153329D01*
X153925Y2497799D01*
X154420Y2497997D01*
X154718Y2498394D01*
X154817Y2498989D01*
X154718Y2499385D01*
X154420Y2499782D01*
X154024Y2499881D01*
X153528Y2499980D01*
X153528D01*
G37*
G74*
*
G75*
G36*
G01*
X59672Y2496906D02*
X59573Y2496013D01*
X59276Y2495121D01*
X58780Y2494427D01*
X58185Y2493931D01*
X57590Y2493633D01*
X57094Y2493435D01*
X56400Y2493336D01*
X55606D01*
X53920D01*
Y2500575D01*
X55606D01*
X56499D01*
X57193Y2500377D01*
X58185Y2499980D01*
X58780Y2499484D01*
X59276Y2498790D01*
X59573Y2497898D01*
X59672Y2496906D01*
X59672D01*
G37*
G74*
*
G75*
G36*
G01*
X59970Y2493336D02*
X62350Y2500575D01*
X63540D01*
X65920Y2493336D01*
X64829D01*
X64234Y2495418D01*
X61656D01*
X61061Y2493336D01*
X59970D01*
G37*
G74*
*
G75*
G36*
G01*
X68301D02*
Y2499683D01*
X65722D01*
Y2500575D01*
X71871D01*
Y2499683D01*
X69292D01*
Y2493336D01*
X68301D01*
G37*
G74*
*
G75*
G36*
G01*
X72367D02*
Y2500575D01*
X76929D01*
Y2499683D01*
X73358D01*
Y2497699D01*
X76730D01*
Y2496807D01*
X73358D01*
Y2494228D01*
X76929D01*
Y2493336D01*
X72367D01*
G37*
G74*
*
G75*
G36*
G01*
X79606Y2497402D02*
X78416D01*
Y2498790D01*
X79606D01*
Y2497402D01*
G37*
G74*
*
G75*
G36*
G01*
Y2493336D02*
X78416D01*
Y2494724D01*
X79606D01*
Y2493336D01*
G37*
G74*
*
G75*
G36*
G01*
X58185Y2513336D02*
X53920D01*
Y2520575D01*
X54912D01*
Y2514228D01*
X58185D01*
Y2513336D01*
G37*
G74*
*
G75*
G36*
G01*
X58185D02*
X60565Y2520575D01*
X61755D01*
X64135Y2513336D01*
X63044D01*
X62449Y2515418D01*
X59871D01*
X59276Y2513336D01*
X58185D01*
G37*
G74*
*
G75*
G36*
G01*
X69987Y2520575D02*
X67507Y2516509D01*
Y2513336D01*
X66515D01*
Y2516410D01*
X64036Y2520575D01*
X65226D01*
X67011Y2517402D01*
X68896Y2520575D01*
X69987D01*
G37*
G74*
*
G75*
G36*
G01*
X70582Y2513336D02*
Y2520575D01*
X75144D01*
Y2519683D01*
X71573D01*
Y2517699D01*
X74945D01*
Y2516807D01*
X71573D01*
Y2514228D01*
X75144D01*
Y2513336D01*
X70582D01*
G37*
G74*
*
G75*
G36*
G01*
X81788D02*
X80697D01*
X78416Y2516212D01*
X77127D01*
Y2513336D01*
X76135D01*
Y2520575D01*
X78020D01*
X78615D01*
X79110Y2520476D01*
X79904Y2520179D01*
X80499Y2519584D01*
X80598Y2519088D01*
X80697Y2518592D01*
X80598Y2517898D01*
X80301Y2517303D01*
X79805Y2516807D01*
X79210Y2516509D01*
X81788Y2513336D01*
G37*
G74*
*
G75*
G36*
G01*
X83970Y2517402D02*
X82780D01*
Y2518790D01*
X83970D01*
Y2517402D01*
G37*
G74*
*
G75*
G36*
G01*
Y2513336D02*
X82780D01*
Y2514724D01*
X83970D01*
Y2513336D01*
G37*
G74*
*
G75*
G36*
G01*
X180685Y2538336D02*
X176420D01*
Y2545575D01*
X177412D01*
Y2539228D01*
X180685D01*
Y2538336D01*
G37*
G74*
*
G75*
G36*
G01*
X180685D02*
X183065Y2545575D01*
X184255D01*
X186635Y2538336D01*
X185544D01*
X184949Y2540418D01*
X182371D01*
X181776Y2538336D01*
X180685D01*
G37*
G74*
*
G75*
G36*
G01*
X192487Y2545575D02*
X190007Y2541509D01*
Y2538336D01*
X189015D01*
Y2541410D01*
X186536Y2545575D01*
X187726D01*
X189511Y2542402D01*
X191396Y2545575D01*
X192487D01*
G37*
G74*
*
G75*
G36*
G01*
X193082Y2538336D02*
Y2545575D01*
X197644D01*
Y2544683D01*
X194073D01*
Y2542699D01*
X197445D01*
Y2541807D01*
X194073D01*
Y2539228D01*
X197644D01*
Y2538336D01*
X193082D01*
G37*
G74*
*
G75*
G36*
G01*
X204288D02*
X203197D01*
X200916Y2541212D01*
X199627D01*
Y2538336D01*
X198635D01*
Y2545575D01*
X200520D01*
X201115D01*
X201610Y2545476D01*
X202404Y2545179D01*
X202999Y2544584D01*
X203098Y2544088D01*
X203197Y2543592D01*
X203098Y2542898D01*
X202801Y2542303D01*
X202305Y2541807D01*
X201710Y2541509D01*
X204288Y2538336D01*
G37*
G74*
*
G75*
G36*
G01*
X181877Y2513107D02*
X181877D01*
X181282D01*
X180786Y2513306D01*
X179993Y2513802D01*
X179497Y2514496D01*
X179299Y2514892D01*
Y2515289D01*
X179398Y2515983D01*
X179696Y2516479D01*
X180092Y2516876D01*
X180786Y2517173D01*
X181481Y2517372D01*
X182274Y2517570D01*
X182671Y2517769D01*
X182968Y2517967D01*
X183167Y2518364D01*
X183266Y2518760D01*
X183167Y2519256D01*
X182869Y2519653D01*
X182373Y2519851D01*
X181778Y2519950D01*
X181183Y2519851D01*
X180588Y2519752D01*
X180092Y2519454D01*
X179696Y2519157D01*
X179596D01*
Y2520248D01*
X180588Y2520645D01*
X181778Y2520744D01*
X182770Y2520545D01*
X183563Y2520149D01*
X184059Y2519454D01*
X184257Y2518661D01*
X184158Y2517868D01*
X183762Y2517273D01*
X183266Y2516876D01*
X182572Y2516678D01*
X181877Y2516479D01*
X181183Y2516281D01*
X180786Y2516083D01*
X180489Y2515884D01*
X180390Y2515587D01*
X180291Y2515190D01*
X180390Y2514595D01*
X180687Y2514198D01*
X181282Y2514000D01*
X181976Y2513901D01*
X182572Y2514000D01*
X183167Y2514198D01*
X183762Y2514496D01*
X184257Y2514892D01*
X184357D01*
Y2513702D01*
X183266Y2513306D01*
X182671Y2513107D01*
X181877D01*
G37*
G74*
*
G75*
G36*
G01*
X175828Y2513306D02*
Y2514000D01*
X176720D01*
Y2519851D01*
X175828D01*
Y2520545D01*
X178605D01*
Y2519851D01*
X177712D01*
Y2514000D01*
X178605D01*
Y2513306D01*
X175828D01*
G37*
G74*
*
G75*
G36*
G01*
X170472D02*
Y2514198D01*
X173745D01*
Y2520545D01*
X174737D01*
Y2513306D01*
X170472D01*
G37*
G74*
*
G75*
G36*
G01*
X164423D02*
X167596Y2517273D01*
X164621Y2520545D01*
X165811D01*
X168786Y2517173D01*
Y2520545D01*
X169778D01*
Y2513306D01*
X168786D01*
Y2516182D01*
X168291Y2516777D01*
X165514Y2513306D01*
X164423D01*
G37*
G74*
*
G75*
G36*
G01*
X161150Y2513107D02*
X161150D01*
X160357D01*
X159861Y2513306D01*
X159266Y2513504D01*
X158869Y2513702D01*
Y2514892D01*
X158968D01*
X159266Y2514595D01*
X159662Y2514297D01*
X160357Y2514000D01*
X161051Y2513901D01*
X161547D01*
X161943Y2514099D01*
X162340Y2514297D01*
X162638Y2514694D01*
X163134Y2515587D01*
X163332Y2516182D01*
Y2516876D01*
X163134Y2518165D01*
X162737Y2519157D01*
X161943Y2519752D01*
X161051Y2519950D01*
X160357Y2519851D01*
X159762Y2519554D01*
X159266Y2519256D01*
X158968Y2518959D01*
X158869D01*
Y2520149D01*
X159365Y2520347D01*
X159861Y2520545D01*
X160456Y2520645D01*
X161051Y2520744D01*
X161745Y2520645D01*
X162439Y2520446D01*
X162935Y2520149D01*
X163431Y2519752D01*
X163828Y2519157D01*
X164125Y2518562D01*
X164224Y2517769D01*
X164324Y2516876D01*
X164224Y2515983D01*
X164125Y2515289D01*
X163828Y2514595D01*
X163431Y2514099D01*
X162935Y2513603D01*
X162439Y2513306D01*
X161745Y2513207D01*
X161150Y2513107D01*
G37*
G74*
*
G75*
G36*
G01*
X152324Y2513306D02*
X154902Y2516479D01*
X154307Y2516777D01*
X153811Y2517273D01*
X153514Y2517868D01*
X153415Y2518562D01*
X153514Y2519058D01*
X153613Y2519554D01*
X154208Y2520149D01*
X155001Y2520446D01*
X155497Y2520545D01*
X156092D01*
X157976D01*
Y2513306D01*
X156985D01*
Y2516182D01*
X155696D01*
X153415Y2513306D01*
X152324D01*
G37*
G74*
*
G75*
G36*
G01*
X151828D02*
X147266D01*
Y2514198D01*
X150836D01*
Y2516777D01*
X147464D01*
Y2517669D01*
X150836D01*
Y2519653D01*
X147266D01*
Y2520545D01*
X151828D01*
Y2513306D01*
G37*
G74*
*
G75*
G36*
G01*
X146274D02*
X141712D01*
Y2514198D01*
X145282D01*
Y2516777D01*
X141910D01*
Y2517669D01*
X145282D01*
Y2519653D01*
X141712D01*
Y2520545D01*
X146274D01*
Y2513306D01*
G37*
G74*
*
G75*
G36*
G01*
X135464D02*
Y2520545D01*
X136357D01*
Y2514793D01*
X139332Y2520545D01*
X140720D01*
Y2513306D01*
X139828D01*
Y2519554D01*
X136555Y2513306D01*
X135464D01*
G37*
G74*
*
G75*
G36*
G01*
X128324Y2511322D02*
X128324D01*
X129018Y2512215D01*
X129712Y2513306D01*
X130109Y2514595D01*
X130307Y2516083D01*
X130109Y2517570D01*
X129712Y2518859D01*
X129018Y2519950D01*
X128324Y2520744D01*
Y2520843D01*
X129415D01*
X130208Y2519752D01*
X130704Y2518661D01*
X131100Y2517471D01*
X131200Y2516083D01*
X131100Y2514694D01*
X130704Y2513405D01*
X130109Y2512314D01*
X129415Y2511322D01*
X128324D01*
G37*
G74*
*
G75*
G36*
G01*
X122274Y2515488D02*
X122274D01*
X122373Y2516083D01*
X122572Y2516678D01*
X123067Y2517074D01*
X123563Y2517273D01*
Y2517372D01*
X123167Y2517570D01*
X122869Y2517967D01*
X122671Y2518364D01*
X122572Y2518859D01*
X122770Y2519653D01*
X122968Y2519950D01*
X123365Y2520248D01*
X124059Y2520446D01*
X124555Y2520545D01*
X125249D01*
X127233D01*
Y2513306D01*
X125150D01*
X124456D01*
X123960Y2513405D01*
X123464Y2513603D01*
X123067Y2513901D01*
X122472Y2514595D01*
X122274Y2514992D01*
Y2515488D01*
G37*
G74*
*
G75*
G36*
G01*
X116224Y2519752D02*
X116224D01*
X116621Y2520149D01*
X117216Y2520446D01*
X117811Y2520645D01*
X118605Y2520744D01*
X119299Y2520645D01*
X119894Y2520446D01*
X120390Y2520149D01*
X120886Y2519752D01*
X121282Y2519157D01*
X121580Y2518562D01*
X121679Y2517769D01*
X121778Y2516876D01*
X121679Y2516083D01*
X121580Y2515289D01*
X121282Y2514595D01*
X120886Y2514099D01*
X120390Y2513702D01*
X119894Y2513306D01*
X119299Y2513207D01*
X118605Y2513107D01*
X117910Y2513207D01*
X117216Y2513306D01*
X116720Y2513603D01*
X116224Y2514099D01*
X115828Y2514595D01*
X115530Y2515289D01*
X115431Y2516083D01*
X115332Y2516876D01*
X115431Y2517769D01*
X115530Y2518562D01*
X115828Y2519157D01*
X116224Y2519752D01*
G37*
G74*
*
G75*
G36*
G01*
X112654Y2513306D02*
X111662D01*
Y2519653D01*
X109084D01*
Y2520545D01*
X115233D01*
Y2519653D01*
X112654D01*
Y2513306D01*
G37*
G74*
*
G75*
G36*
G01*
X106010Y2516083D02*
X106010D01*
X106109Y2517471D01*
X106505Y2518661D01*
X107001Y2519752D01*
X107795Y2520843D01*
X108886D01*
Y2520744D01*
X108191Y2519950D01*
X107497Y2518859D01*
X107100Y2517570D01*
X106902Y2516083D01*
X107100Y2514595D01*
X107497Y2513306D01*
X108191Y2512215D01*
X108886Y2511322D01*
X108886D01*
X107795D01*
X107001Y2512314D01*
X106505Y2513405D01*
X106109Y2514694D01*
X106010Y2516083D01*
G37*
G74*
*
*
G04 PC Void Outlines (0)*
G04 Layer Name GTA-MB-A6(50-71481-00). - clear (0)*
%LPC*%
*
*
G04 PC Area=System Text*
G75*
G36*
G01*
X140671Y2820183D02*
X140621Y2820431D01*
X140472Y2820580D01*
X140224Y2820679D01*
X140026D01*
X139828D01*
X139332D01*
Y2819588D01*
X139877D01*
X140076D01*
X140224D01*
X140472Y2819687D01*
X140621Y2819885D01*
X140671Y2820183D01*
X140671D01*
G37*
G74*
*
G75*
G36*
G01*
X140819Y2818547D02*
X140770Y2818844D01*
X140671Y2818993D01*
X140522Y2819092D01*
X140274Y2819191D01*
X140125D01*
X139877D01*
X139332D01*
Y2817852D01*
X139728D01*
X140026D01*
X140224D01*
X140571Y2818001D01*
X140770Y2818199D01*
X140819Y2818547D01*
X140819D01*
G37*
G74*
*
G75*
G36*
G01*
X143398Y2818894D02*
X142902Y2820480D01*
X142406Y2818894D01*
X143398D01*
G37*
G74*
*
G75*
G36*
G01*
X216397Y2789638D02*
X216330Y2790101D01*
X216198Y2790398D01*
X215967Y2790596D01*
X215669Y2790663D01*
X215339Y2790596D01*
X215206Y2790530D01*
X215107Y2790398D01*
X215041Y2790266D01*
X214975Y2790068D01*
X214909Y2789638D01*
X214975Y2789208D01*
X215107Y2788911D01*
X215339Y2788712D01*
X215504Y2788646D01*
X215669D01*
X215802D01*
X215967Y2788712D01*
X216198Y2788911D01*
X216364Y2789208D01*
X216397Y2789638D01*
X216397D01*
G37*
G74*
*
G75*
G36*
G01*
X130335Y2814408D02*
X130302Y2814573D01*
X130170Y2814705D01*
X130038Y2814771D01*
X129806Y2814804D01*
X129476D01*
Y2813879D01*
X129773D01*
X130004Y2813912D01*
X130203Y2814011D01*
X130302Y2814176D01*
X130335Y2814408D01*
X130335D01*
G37*
G74*
*
G75*
G36*
G01*
X218787Y2809625D02*
X218754Y2809790D01*
X218654Y2809889D01*
X218489Y2809955D01*
X218357D01*
X218225D01*
X217894D01*
Y2809228D01*
X218258D01*
X218390D01*
X218489D01*
X218654Y2809294D01*
X218754Y2809427D01*
X218787Y2809625D01*
X218787D01*
G37*
G74*
*
G75*
G36*
G01*
X218886Y2808534D02*
X218853Y2808732D01*
X218787Y2808831D01*
X218687Y2808898D01*
X218522Y2808964D01*
X218423D01*
X218258D01*
X217894D01*
Y2808071D01*
X218158D01*
X218357D01*
X218489D01*
X218720Y2808170D01*
X218853Y2808303D01*
X218886Y2808534D01*
X218886D01*
G37*
G74*
*
G75*
G36*
G01*
X220605Y2808765D02*
X220274Y2809823D01*
X219944Y2808765D01*
X220605D01*
G37*
G74*
*
G75*
G36*
G01*
X182388Y2813280D02*
X182355Y2813445D01*
X182223Y2813577D01*
X182091Y2813643D01*
X181859Y2813676D01*
X181529D01*
Y2812751D01*
X181826D01*
X182057Y2812784D01*
X182256Y2812883D01*
X182355Y2813048D01*
X182388Y2813280D01*
X182388D01*
G37*
G74*
*
G75*
G36*
G01*
X155946Y2820133D02*
X155913Y2820331D01*
X155781Y2820496D01*
X155616Y2820562D01*
X155351Y2820595D01*
X155087D01*
Y2819604D01*
X155318D01*
X155483D01*
X155616Y2819637D01*
X155814Y2819736D01*
X155913Y2819901D01*
X155946Y2820133D01*
X155946D01*
G37*
G74*
*
G75*
G36*
G01*
X160740Y2820199D02*
X160707Y2820364D01*
X160574Y2820496D01*
X160442Y2820562D01*
X160211Y2820595D01*
X159880D01*
Y2819670D01*
X160178D01*
X160409Y2819703D01*
X160607Y2819802D01*
X160707Y2819967D01*
X160740Y2820199D01*
X160740D01*
G37*
G74*
*
G75*
G36*
G01*
X165831D02*
X165798Y2820364D01*
X165665Y2820496D01*
X165533Y2820562D01*
X165302Y2820595D01*
X164971D01*
Y2819670D01*
X165269D01*
X165500Y2819703D01*
X165698Y2819802D01*
X165798Y2819967D01*
X165831Y2820199D01*
X165831D01*
G37*
G74*
*
G75*
G36*
G01*
X168376Y2819637D02*
X168310Y2820100D01*
X168178Y2820397D01*
X167946Y2820595D01*
X167649Y2820662D01*
X167318Y2820595D01*
X167186Y2820529D01*
X167087Y2820397D01*
X166955Y2820100D01*
X166888Y2819637D01*
X166955Y2819207D01*
X167087Y2818910D01*
X167318Y2818711D01*
X167483Y2818645D01*
X167649D01*
X167781D01*
X167946Y2818711D01*
X168178Y2818910D01*
X168343Y2819207D01*
X168376Y2819637D01*
X168376D01*
G37*
G74*
*
G75*
G36*
G01*
X238537Y2809204D02*
X238504Y2809435D01*
X238437Y2809667D01*
X238338Y2809832D01*
X238173Y2809964D01*
X237908Y2810096D01*
X237743Y2810129D01*
X237512D01*
X237280D01*
Y2808245D01*
X237512D01*
X237908Y2808278D01*
X238074Y2808311D01*
X238206Y2808410D01*
X238338Y2808543D01*
X238437Y2808708D01*
X238504Y2808939D01*
X238537Y2809204D01*
X238537D01*
G37*
G74*
*
G75*
G36*
G01*
X226183Y2809651D02*
X226150Y2809816D01*
X226018Y2809948D01*
X225886Y2810014D01*
X225654Y2810047D01*
X225324D01*
Y2809122D01*
X225621D01*
X225852Y2809155D01*
X226051Y2809254D01*
X226150Y2809419D01*
X226183Y2809651D01*
X226183D01*
G37*
G74*
*
G75*
G36*
G01*
X230547Y2809122D02*
X230514Y2809353D01*
X230448Y2809585D01*
X230348Y2809750D01*
X230183Y2809882D01*
X229919Y2810014D01*
X229753Y2810047D01*
X229522D01*
X229291D01*
Y2808163D01*
X229522D01*
X229919Y2808196D01*
X230084Y2808229D01*
X230216Y2808328D01*
X230348Y2808461D01*
X230448Y2808626D01*
X230514Y2808857D01*
X230547Y2809122D01*
X230547D01*
G37*
G74*
*
G75*
G36*
G01*
X106043Y2705673D02*
X106043D01*
X106415Y2705756D01*
X106704Y2705921D01*
X106911Y2706210D01*
X106994Y2706582D01*
X106952Y2706830D01*
X106870Y2707037D01*
X106704Y2707202D01*
X106457Y2707367D01*
X106457D01*
X106663Y2707491D01*
X106787Y2707657D01*
X106870Y2707863D01*
X106911Y2708070D01*
X106870Y2708400D01*
X106663Y2708648D01*
X106374Y2708814D01*
X106043Y2708855D01*
X105671Y2708814D01*
X105382Y2708607D01*
X105217Y2708359D01*
X105134Y2708070D01*
X105176Y2707822D01*
X105258Y2707657D01*
X105382Y2707491D01*
X105547Y2707367D01*
X105547D01*
X105341Y2707202D01*
X105176Y2707037D01*
X105093Y2706830D01*
X105052Y2706582D01*
X105134Y2706210D01*
X105300Y2705921D01*
X105630Y2705756D01*
X106043Y2705673D01*
G37*
G74*
*
G75*
G36*
G01*
X83510Y2703480D02*
X83510D01*
X83552Y2703233D01*
X83593Y2703026D01*
X83841Y2702695D01*
X84089Y2702571D01*
X84419Y2702530D01*
X84709Y2702571D01*
X85039Y2702737D01*
X84957Y2702282D01*
X84791Y2701952D01*
X84502Y2701786D01*
X84171Y2701704D01*
X83923Y2701745D01*
X83758Y2701786D01*
X83758D01*
Y2701414D01*
X83923Y2701373D01*
X84089D01*
X84419Y2701414D01*
X84709Y2701497D01*
X84915Y2701662D01*
X85122Y2701869D01*
X85246Y2702117D01*
X85370Y2702406D01*
X85452Y2702778D01*
Y2703150D01*
Y2703522D01*
X85370Y2703852D01*
X85246Y2704100D01*
X85122Y2704266D01*
X84833Y2704472D01*
X84461Y2704555D01*
X84089Y2704472D01*
X83800Y2704266D01*
X83593Y2703935D01*
X83510Y2703480D01*
G37*
G74*
*
G75*
G36*
G01*
X245661Y2812746D02*
X245595Y2813209D01*
X245462Y2813506D01*
X245231Y2813704D01*
X244933Y2813771D01*
X244603Y2813704D01*
X244471Y2813638D01*
X244371Y2813506D01*
X244305Y2813374D01*
X244239Y2813176D01*
X244173Y2812746D01*
X244239Y2812316D01*
X244371Y2812019D01*
X244603Y2811820D01*
X244768Y2811754D01*
X244933D01*
X245066D01*
X245231Y2811820D01*
X245462Y2812019D01*
X245628Y2812316D01*
X245661Y2812746D01*
X245661D01*
G37*
G74*
*
G75*
G36*
G01*
X107857Y2688059D02*
X107824Y2688257D01*
X107692Y2688422D01*
X107527Y2688488D01*
X107262Y2688521D01*
X106998D01*
Y2687530D01*
X107229D01*
X107394D01*
X107527Y2687563D01*
X107725Y2687662D01*
X107824Y2687827D01*
X107857Y2688059D01*
X107857D01*
G37*
G74*
*
G75*
G36*
G01*
X115758Y2687563D02*
X115692Y2688026D01*
X115560Y2688323D01*
X115328Y2688521D01*
X115031Y2688588D01*
X114700Y2688521D01*
X114568Y2688455D01*
X114469Y2688323D01*
X114403Y2688191D01*
X114337Y2687993D01*
X114271Y2687563D01*
X114337Y2687133D01*
X114469Y2686836D01*
X114700Y2686637D01*
X114866Y2686571D01*
X115031D01*
X115163D01*
X115328Y2686637D01*
X115560Y2686836D01*
X115725Y2687133D01*
X115758Y2687563D01*
X115758D01*
G37*
G74*
*
G75*
G36*
G01*
X109686Y2678942D02*
X109653Y2679140D01*
X109521Y2679305D01*
X109356Y2679371D01*
X109091Y2679404D01*
X108827D01*
Y2678413D01*
X109058D01*
X109223D01*
X109356Y2678446D01*
X109554Y2678545D01*
X109653Y2678710D01*
X109686Y2678942D01*
X109686D01*
G37*
G74*
*
G75*
G36*
G01*
X115986Y2668742D02*
X115953Y2668940D01*
X115821Y2669105D01*
X115656Y2669171D01*
X115391Y2669204D01*
X115127D01*
Y2668213D01*
X115358D01*
X115523D01*
X115656Y2668246D01*
X115854Y2668345D01*
X115953Y2668510D01*
X115986Y2668742D01*
X115986D01*
G37*
G74*
*
G75*
G36*
G01*
X126962Y2668246D02*
X126895Y2668709D01*
X126763Y2669006D01*
X126532Y2669204D01*
X126234Y2669271D01*
X125904Y2669204D01*
X125771Y2669138D01*
X125672Y2669006D01*
X125606Y2668874D01*
X125540Y2668676D01*
X125474Y2668246D01*
X125540Y2667816D01*
X125672Y2667519D01*
X125904Y2667320D01*
X126069Y2667254D01*
X126234D01*
X126366D01*
X126532Y2667320D01*
X126763Y2667519D01*
X126928Y2667816D01*
X126962Y2668246D01*
X126962D01*
G37*
G74*
*
G75*
G36*
G01*
X290523Y2698204D02*
X290523D01*
X290895Y2698287D01*
X291184Y2698452D01*
X291391Y2698741D01*
X291474Y2699113D01*
X291432Y2699361D01*
X291350Y2699568D01*
X291184Y2699733D01*
X290937Y2699898D01*
X290937D01*
X291143Y2700022D01*
X291267Y2700188D01*
X291350Y2700394D01*
X291391Y2700601D01*
X291350Y2700931D01*
X291143Y2701179D01*
X290854Y2701345D01*
X290523Y2701386D01*
X290151Y2701345D01*
X289862Y2701138D01*
X289697Y2700890D01*
X289614Y2700601D01*
X289656Y2700353D01*
X289738Y2700188D01*
X289862Y2700022D01*
X290027Y2699898D01*
X290027D01*
X289821Y2699733D01*
X289656Y2699568D01*
X289573Y2699361D01*
X289532Y2699113D01*
X289614Y2698741D01*
X289780Y2698452D01*
X290110Y2698287D01*
X290523Y2698204D01*
G37*
G74*
*
G75*
G36*
G01*
X265251Y2725949D02*
X265251D01*
X265292Y2725702D01*
X265333Y2725495D01*
X265581Y2725164D01*
X265829Y2725040D01*
X266160Y2724999D01*
X266449Y2725040D01*
X266779Y2725206D01*
X266697Y2724751D01*
X266532Y2724421D01*
X266242Y2724255D01*
X265912Y2724173D01*
X265664Y2724214D01*
X265498Y2724255D01*
X265498D01*
Y2723883D01*
X265664Y2723842D01*
X265829D01*
X266160Y2723883D01*
X266449Y2723966D01*
X266656Y2724131D01*
X266862Y2724338D01*
X266986Y2724586D01*
X267110Y2724875D01*
X267193Y2725247D01*
Y2725619D01*
Y2725991D01*
X267110Y2726321D01*
X266986Y2726569D01*
X266862Y2726735D01*
X266573Y2726941D01*
X266201Y2727024D01*
X265829Y2726941D01*
X265540Y2726735D01*
X265333Y2726404D01*
X265251Y2725949D01*
G37*
G74*
*
G75*
G36*
G01*
X290666Y2726745D02*
X290749Y2726910D01*
Y2727117D01*
X290790Y2727365D01*
Y2727654D01*
X290749Y2728233D01*
X290666Y2728605D01*
X290542Y2728853D01*
X290253Y2728935D01*
X290005Y2728853D01*
X289798Y2728605D01*
X289757Y2728191D01*
X289716Y2727654D01*
Y2727365D01*
Y2727117D01*
X289798Y2726745D01*
X289964Y2726497D01*
X290088Y2726415D01*
X290253D01*
X290418D01*
X290542Y2726497D01*
X290625Y2726580D01*
X290666Y2726745D01*
X290666D01*
G37*
G74*
*
G75*
G36*
G01*
X224886Y2789942D02*
X224853Y2790140D01*
X224721Y2790305D01*
X224556Y2790371D01*
X224291Y2790404D01*
X224027D01*
Y2789413D01*
X224258D01*
X224423D01*
X224556Y2789446D01*
X224754Y2789545D01*
X224853Y2789710D01*
X224886Y2789942D01*
X224886D01*
G37*
G74*
*
G75*
G36*
G01*
X226704Y2790008D02*
X226671Y2790173D01*
X226539Y2790305D01*
X226407Y2790371D01*
X226176Y2790404D01*
X225845D01*
Y2789479D01*
X226143D01*
X226374Y2789512D01*
X226572Y2789611D01*
X226671Y2789776D01*
X226704Y2790008D01*
X226704D01*
G37*
G74*
*
G75*
G36*
G01*
X234835Y2789346D02*
X234769Y2789809D01*
X234637Y2790106D01*
X234405Y2790304D01*
X234108Y2790371D01*
X233777Y2790304D01*
X233645Y2790238D01*
X233546Y2790106D01*
X233480Y2789974D01*
X233414Y2789776D01*
X233347Y2789346D01*
X233414Y2788916D01*
X233546Y2788619D01*
X233777Y2788420D01*
X233943Y2788354D01*
X234108D01*
X234240D01*
X234405Y2788420D01*
X234637Y2788619D01*
X234802Y2788916D01*
X234835Y2789346D01*
X234835D01*
G37*
G74*
*
G75*
G36*
G01*
X239033Y2789379D02*
X239000Y2789610D01*
X238934Y2789842D01*
X238835Y2790007D01*
X238670Y2790139D01*
X238405Y2790271D01*
X238240Y2790304D01*
X238009D01*
X237777D01*
Y2788420D01*
X238009D01*
X238405Y2788453D01*
X238571Y2788486D01*
X238703Y2788585D01*
X238835Y2788718D01*
X238934Y2788883D01*
X239000Y2789114D01*
X239033Y2789379D01*
X239033D01*
G37*
G74*
*
G75*
G36*
G01*
X118909Y2549863D02*
X117834Y2553301D01*
X116760Y2549863D01*
X118909D01*
G37*
G74*
*
G75*
G36*
G01*
X125033Y2548251D02*
X125247Y2548681D01*
Y2549218D01*
X125355Y2549863D01*
Y2550615D01*
X125247Y2552119D01*
X125033Y2553086D01*
X124710Y2553731D01*
X123958Y2553945D01*
X123314Y2553731D01*
X122776Y2553086D01*
X122669Y2552012D01*
X122561Y2550615D01*
Y2549863D01*
Y2549218D01*
X122776Y2548251D01*
X123206Y2547607D01*
X123528Y2547392D01*
X123958D01*
X124388D01*
X124710Y2547607D01*
X124925Y2547821D01*
X125033Y2548251D01*
X125033D01*
G37*
G74*
*
G75*
G36*
G01*
X66548Y2475709D02*
X66441Y2476461D01*
X66226Y2476998D01*
X65796Y2477320D01*
X65044Y2477428D01*
X64400Y2477320D01*
X63970Y2476890D01*
X63540Y2476353D01*
X63433Y2475709D01*
X66548D01*
G37*
G74*
*
G75*
G36*
G01*
X71813Y2472593D02*
Y2472056D01*
X72780D01*
Y2476138D01*
X72672Y2477105D01*
X72135Y2477750D01*
X71383Y2478072D01*
X70416Y2478180D01*
X69342Y2478072D01*
X68912Y2477965D01*
X68590Y2477857D01*
Y2476890D01*
X68697D01*
X69557Y2477213D01*
X70416Y2477320D01*
X70953D01*
X71383Y2477105D01*
X71706Y2476783D01*
X71813Y2476138D01*
Y2475923D01*
X70416Y2475816D01*
X69234Y2475494D01*
X68805Y2475171D01*
X68375Y2474742D01*
X68268Y2474312D01*
X68160Y2473775D01*
X68268Y2472915D01*
X68697Y2472378D01*
X69234Y2471948D01*
X69879Y2471841D01*
X70309D01*
X70631Y2471948D01*
X71061Y2472163D01*
X71491Y2472378D01*
X71813Y2472593D01*
G37*
G74*
*
G75*
G36*
G01*
X81268D02*
Y2472056D01*
X82234D01*
Y2476138D01*
X82127Y2477105D01*
X81590Y2477750D01*
X80838Y2478072D01*
X79871Y2478180D01*
X78796Y2478072D01*
X78367Y2477965D01*
X78044Y2477857D01*
Y2476890D01*
X78152D01*
X79011Y2477213D01*
X79871Y2477320D01*
X80408D01*
X80838Y2477105D01*
X81160Y2476783D01*
X81268Y2476138D01*
Y2475923D01*
X79871Y2475816D01*
X78689Y2475494D01*
X78259Y2475171D01*
X77829Y2474742D01*
X77722Y2474312D01*
X77615Y2473775D01*
X77722Y2472915D01*
X78152Y2472378D01*
X78689Y2471948D01*
X79334Y2471841D01*
X79763D01*
X80086Y2471948D01*
X80515Y2472163D01*
X80945Y2472378D01*
X81268Y2472593D01*
G37*
G74*
*
G75*
G36*
G01*
X98243Y2475709D02*
X98135Y2476461D01*
X97920Y2476998D01*
X97491Y2477320D01*
X96739Y2477428D01*
X96094Y2477320D01*
X95664Y2476890D01*
X95234Y2476353D01*
X95127Y2475709D01*
X98243D01*
G37*
G74*
*
G75*
G36*
G01*
X107268D02*
X107160Y2476461D01*
X106945Y2476998D01*
X106515Y2477320D01*
X105763Y2477428D01*
X105119Y2477320D01*
X104689Y2476890D01*
X104259Y2476353D01*
X104152Y2475709D01*
X107268D01*
G37*
G74*
*
G75*
G36*
G01*
X120805Y2474957D02*
X120697Y2476031D01*
X120375Y2476783D01*
X119838Y2477213D01*
X119193Y2477320D01*
X118548Y2477213D01*
X118011Y2476783D01*
X117689Y2476031D01*
X117582Y2474957D01*
X117689Y2473990D01*
X118011Y2473238D01*
X118548Y2472808D01*
X119193Y2472700D01*
X119838Y2472808D01*
X120375Y2473238D01*
X120697Y2473990D01*
X120805Y2474957D01*
X120805D01*
G37*
G74*
*
G75*
G36*
G01*
X64185Y2454957D02*
X64077Y2456031D01*
X63755Y2456783D01*
X63218Y2457213D01*
X62573Y2457320D01*
X61929Y2457213D01*
X61391Y2456783D01*
X61069Y2456031D01*
X60962Y2454957D01*
X61069Y2453990D01*
X61391Y2453238D01*
X61929Y2452808D01*
X62573Y2452700D01*
X63218Y2452808D01*
X63755Y2453238D01*
X64077Y2453990D01*
X64185Y2454957D01*
X64185D01*
G37*
G74*
*
G75*
G36*
G01*
X81912Y2455709D02*
X81805Y2456461D01*
X81590Y2456998D01*
X81160Y2457320D01*
X80408Y2457428D01*
X79763Y2457320D01*
X79334Y2456890D01*
X78904Y2456353D01*
X78796Y2455709D01*
X81912D01*
G37*
G74*
*
G75*
G36*
G01*
X118656D02*
X118548Y2456461D01*
X118334Y2456998D01*
X117904Y2457320D01*
X117152Y2457428D01*
X116507Y2457320D01*
X116077Y2456890D01*
X115648Y2456353D01*
X115540Y2455709D01*
X118656D01*
G37*
G74*
*
G75*
G36*
G01*
X132193Y2454957D02*
X132086Y2456031D01*
X131763Y2456783D01*
X131226Y2457213D01*
X130582Y2457320D01*
X129937Y2457213D01*
X129400Y2456783D01*
X129077Y2456031D01*
X128970Y2454957D01*
X129077Y2453990D01*
X129400Y2453238D01*
X129937Y2452808D01*
X130582Y2452700D01*
X131226Y2452808D01*
X131763Y2453238D01*
X132086Y2453990D01*
X132193Y2454957D01*
X132193D01*
G37*
G74*
*
G75*
G36*
G01*
X193503Y2471857D02*
X193503D01*
X194396Y2472056D01*
X195090Y2472452D01*
X195586Y2473147D01*
X195784Y2474039D01*
X195685Y2474634D01*
X195487Y2475130D01*
X195090Y2475527D01*
X194495Y2475923D01*
X194495D01*
X194991Y2476221D01*
X195288Y2476618D01*
X195487Y2477114D01*
X195586Y2477609D01*
X195487Y2478403D01*
X194991Y2478998D01*
X194296Y2479395D01*
X193503Y2479494D01*
X192610Y2479395D01*
X191916Y2478899D01*
X191520Y2478304D01*
X191321Y2477609D01*
X191420Y2477014D01*
X191619Y2476618D01*
X191916Y2476221D01*
X192313Y2475923D01*
X192313D01*
X191817Y2475527D01*
X191420Y2475130D01*
X191222Y2474634D01*
X191123Y2474039D01*
X191321Y2473147D01*
X191718Y2472452D01*
X192511Y2472056D01*
X193503Y2471857D01*
G37*
G74*
*
G75*
G36*
G01*
X194396Y2453444D02*
X194594Y2453841D01*
Y2454337D01*
X194693Y2454932D01*
Y2455626D01*
X194594Y2457014D01*
X194396Y2457907D01*
X194098Y2458502D01*
X193404Y2458700D01*
X192809Y2458502D01*
X192313Y2457907D01*
X192214Y2456915D01*
X192115Y2455626D01*
Y2454932D01*
Y2454337D01*
X192313Y2453444D01*
X192710Y2452849D01*
X193007Y2452651D01*
X193404D01*
X193801D01*
X194098Y2452849D01*
X194296Y2453047D01*
X194396Y2453444D01*
X194396D01*
G37*
G74*
*
G75*
G36*
G01*
X166697Y2538088D02*
X166697D01*
X167813Y2538336D01*
X168681Y2538832D01*
X169301Y2539699D01*
X169548Y2540815D01*
X169425Y2541559D01*
X169177Y2542179D01*
X168681Y2542675D01*
X167937Y2543170D01*
X167937D01*
X168557Y2543542D01*
X168929Y2544038D01*
X169177Y2544658D01*
X169301Y2545278D01*
X169177Y2546270D01*
X168557Y2547013D01*
X167689Y2547509D01*
X166697Y2547633D01*
X165582Y2547509D01*
X164714Y2546889D01*
X164218Y2546146D01*
X163970Y2545278D01*
X164094Y2544534D01*
X164342Y2544038D01*
X164714Y2543542D01*
X165210Y2543170D01*
X165210D01*
X164590Y2542675D01*
X164094Y2542179D01*
X163846Y2541559D01*
X163722Y2540815D01*
X163970Y2539699D01*
X164466Y2538832D01*
X165458Y2538336D01*
X166697Y2538088D01*
G37*
G74*
*
G75*
G36*
G01*
X123210Y2532340D02*
X123425Y2532770D01*
Y2533307D01*
X123532Y2533951D01*
Y2534703D01*
X123425Y2536208D01*
X123210Y2537175D01*
X122887Y2537819D01*
X122135Y2538034D01*
X121491Y2537819D01*
X120953Y2537175D01*
X120846Y2536100D01*
X120739Y2534703D01*
Y2533951D01*
Y2533307D01*
X120953Y2532340D01*
X121383Y2531695D01*
X121706Y2531480D01*
X122135D01*
X122565D01*
X122887Y2531695D01*
X123102Y2531910D01*
X123210Y2532340D01*
X123210D01*
G37*
G74*
*
G75*
G36*
G01*
X114850Y2494724D02*
X115048Y2495121D01*
Y2495617D01*
X115148Y2496212D01*
Y2496906D01*
X115048Y2498294D01*
X114850Y2499187D01*
X114553Y2499782D01*
X113858Y2499980D01*
X113263Y2499782D01*
X112768Y2499187D01*
X112668Y2498195D01*
X112569Y2496906D01*
Y2496212D01*
Y2495617D01*
X112768Y2494724D01*
X113164Y2494129D01*
X113462Y2493931D01*
X113858D01*
X114255D01*
X114553Y2494129D01*
X114751Y2494327D01*
X114850Y2494724D01*
X114850D01*
G37*
G74*
*
G75*
G36*
G01*
X120305D02*
X120503Y2495121D01*
Y2495617D01*
X120602Y2496212D01*
Y2496906D01*
X120503Y2498294D01*
X120305Y2499187D01*
X120007Y2499782D01*
X119313Y2499980D01*
X118718Y2499782D01*
X118222Y2499187D01*
X118123Y2498195D01*
X118024Y2496906D01*
Y2496212D01*
Y2495617D01*
X118222Y2494724D01*
X118619Y2494129D01*
X118916Y2493931D01*
X119313D01*
X119710D01*
X120007Y2494129D01*
X120206Y2494327D01*
X120305Y2494724D01*
X120305D01*
G37*
G74*
*
G75*
G36*
G01*
X124867Y2493137D02*
X124867D01*
X125759Y2493336D01*
X126453Y2493732D01*
X126949Y2494427D01*
X127148Y2495319D01*
X127048Y2495914D01*
X126850Y2496410D01*
X126453Y2496807D01*
X125858Y2497203D01*
X125858D01*
X126354Y2497501D01*
X126652Y2497898D01*
X126850Y2498394D01*
X126949Y2498889D01*
X126850Y2499683D01*
X126354Y2500278D01*
X125660Y2500675D01*
X124867Y2500774D01*
X123974Y2500675D01*
X123280Y2500179D01*
X122883Y2499584D01*
X122685Y2498889D01*
X122784Y2498294D01*
X122982Y2497898D01*
X123280Y2497501D01*
X123677Y2497203D01*
X123677D01*
X123181Y2496807D01*
X122784Y2496410D01*
X122586Y2495914D01*
X122487Y2495319D01*
X122685Y2494427D01*
X123082Y2493732D01*
X123875Y2493336D01*
X124867Y2493137D01*
G37*
G74*
*
G75*
G36*
G01*
X134784Y2494724D02*
X134982Y2495121D01*
Y2495617D01*
X135082Y2496212D01*
Y2496906D01*
X134982Y2498294D01*
X134784Y2499187D01*
X134487Y2499782D01*
X133792Y2499980D01*
X133197Y2499782D01*
X132701Y2499187D01*
X132602Y2498195D01*
X132503Y2496906D01*
Y2496212D01*
Y2495617D01*
X132701Y2494724D01*
X133098Y2494129D01*
X133396Y2493931D01*
X133792D01*
X134189D01*
X134487Y2494129D01*
X134685Y2494327D01*
X134784Y2494724D01*
X134784D01*
G37*
G74*
*
G75*
G36*
G01*
X149263D02*
X149462Y2495121D01*
Y2495617D01*
X149561Y2496212D01*
Y2496906D01*
X149462Y2498294D01*
X149263Y2499187D01*
X148966Y2499782D01*
X148272Y2499980D01*
X147677Y2499782D01*
X147181Y2499187D01*
X147082Y2498195D01*
X146982Y2496906D01*
Y2496212D01*
Y2495617D01*
X147181Y2494724D01*
X147577Y2494129D01*
X147875Y2493931D01*
X148272D01*
X148668D01*
X148966Y2494129D01*
X149164Y2494327D01*
X149263Y2494724D01*
X149263D01*
G37*
G74*
*
G75*
G36*
G01*
X58681Y2497005D02*
X58582Y2497699D01*
X58383Y2498394D01*
X58086Y2498889D01*
X57590Y2499286D01*
X56796Y2499683D01*
X56301Y2499782D01*
X55606D01*
X54912D01*
Y2494129D01*
X55606D01*
X56796Y2494228D01*
X57292Y2494327D01*
X57689Y2494625D01*
X58086Y2495022D01*
X58383Y2495518D01*
X58582Y2496212D01*
X58681Y2497005D01*
X58681D01*
G37*
G74*
*
G75*
G36*
G01*
X63937Y2496212D02*
X62945Y2499385D01*
X61953Y2496212D01*
X63937D01*
G37*
G74*
*
G75*
G36*
G01*
X62152Y2516212D02*
X61160Y2519385D01*
X60168Y2516212D01*
X62152D01*
G37*
G74*
*
G75*
G36*
G01*
X79706Y2518592D02*
X79606Y2519088D01*
X79210Y2519484D01*
X78813Y2519683D01*
X78119Y2519782D01*
X77127D01*
Y2517005D01*
X78020D01*
X78714Y2517104D01*
X79309Y2517402D01*
X79606Y2517898D01*
X79706Y2518592D01*
X79706D01*
G37*
G74*
*
G75*
G36*
G01*
X184652Y2541212D02*
X183660Y2544385D01*
X182668Y2541212D01*
X184652D01*
G37*
G74*
*
G75*
G36*
G01*
X202206Y2543592D02*
X202106Y2544088D01*
X201710Y2544484D01*
X201313Y2544683D01*
X200619Y2544782D01*
X199627D01*
Y2542005D01*
X200520D01*
X201214Y2542104D01*
X201809Y2542402D01*
X202106Y2542898D01*
X202206Y2543592D01*
X202206D01*
G37*
G74*
*
G75*
G36*
G01*
X154406Y2518562D02*
X154406D01*
X154505Y2517868D01*
X154803Y2517372D01*
X155398Y2517074D01*
X156092Y2516975D01*
X156985D01*
Y2519752D01*
X155993D01*
X155299Y2519653D01*
X154902Y2519454D01*
X154505Y2519058D01*
X154406Y2518562D01*
G37*
G74*
*
G75*
G36*
G01*
X123563Y2518760D02*
X123563D01*
X123662Y2518165D01*
X123960Y2517769D01*
X124456Y2517570D01*
X124753D01*
X125150D01*
X126241D01*
Y2519752D01*
X125249D01*
X124853D01*
X124456D01*
X123960Y2519554D01*
X123662Y2519256D01*
X123563Y2518760D01*
G37*
G74*
*
G75*
G36*
G01*
X123266Y2515488D02*
X123266D01*
X123365Y2514793D01*
X123762Y2514397D01*
X124456Y2514099D01*
X124853D01*
X125448D01*
X126241D01*
Y2516777D01*
X125150D01*
X124654D01*
X124357D01*
X123861Y2516578D01*
X123563Y2516380D01*
X123365Y2516083D01*
X123266Y2515488D01*
G37*
G74*
*
G75*
G36*
G01*
X116324Y2516876D02*
X116324D01*
X116423Y2515587D01*
X116919Y2514694D01*
X117613Y2514099D01*
X118109Y2513901D01*
X118505D01*
X119001D01*
X119497Y2514099D01*
X120191Y2514694D01*
X120588Y2515587D01*
X120786Y2516876D01*
X120588Y2518165D01*
X120390Y2518760D01*
X120191Y2519157D01*
X119894Y2519554D01*
X119497Y2519752D01*
X118505Y2519950D01*
X117613Y2519752D01*
X116919Y2519157D01*
X116522Y2518264D01*
X116324Y2516876D01*
G37*
G74*
*
*
G04 PC Custom Flashes*
G04 Layer Name GTA-MB-A6(50-71481-00). - flashes*
%LPD*%
*
*
G04 PC Circuitry*
G04 Layer Name GTA-MB-A6(50-71481-00). - circuitry*
%LPD*%
*
G54D11*
G01X280002Y2746688D02*
X279412D01*
Y2765192*
X280199*
X284530Y2746688D02*
X288073D01*
X284530Y2765192D02*
X288073D01*
X292404Y2746688D02*
X293191D01*
Y2765192*
X292404*
X293191Y2750822D02*
X297128D01*
Y2761058*
X293191*
X283301Y2751940D02*
Y2759940D01*
X289301Y2751940D02*
Y2759940D01*
X283301Y2755940D02*
X285301D01*
X286801Y2754440*
X289301Y2755940D02*
X287301D01*
X134109Y2717085D02*
X126109D01*
Y2713085*
X134109*
Y2717085*
X130609Y2715085D02*
G75*
G03X130609I-500J0D01*
G01X132909Y2713085D02*
X140909D01*
Y2717085*
X132909*
Y2713085*
X137409Y2715085D02*
G03X137409I-500J0D01*
G01X195361Y2811004D02*
X226692D01*
X195350Y2787741D02*
X230661D01*
X230629Y2811086D02*
Y2803248D01*
X226692D02*
X248445D01*
Y2811031D02*
X226234D01*
X226692Y2795374D02*
X248364D01*
X248473Y2787741D02*
X230629D01*
Y2795374D02*
Y2787791D01*
X226692Y2787845D02*
Y2811059D01*
X248427Y2811086D02*
Y2787756D01*
X209566Y2787775D02*
Y2811034D01*
X195350Y2787749D02*
Y2811006D01*
X180057Y2800260D02*
X170307D01*
Y2794760*
X180057*
Y2800260*
X124364Y2972706D02*
X134114D01*
Y2978206*
X124364*
Y2972706*
X190576Y2881006D02*
X200326D01*
Y2886506*
X190576*
Y2881006*
X199576Y2886506D02*
Y2876756D01*
X205076*
Y2886506*
X199576*
X248857Y2809861D02*
X258607D01*
Y2815361*
X248857*
Y2809861*
X189507Y2805493D02*
X189901D01*
Y2809430*
X186751*
Y2805493*
X187145*
X186751Y2809037D02*
Y2810218D01*
X187145*
X189901Y2809037D02*
Y2810218D01*
X189507*
X277042Y2739675D02*
X285950Y2730767D01*
X288734Y2733550*
X279826Y2742459*
X277042Y2739675*
X282554Y2739174D02*
X283968Y2735638D01*
X280433Y2737053*
X282554Y2739174*
X285211Y2736474D02*
X283090Y2734353D01*
X284857Y2734707D02*
X284150Y2735414D01*
X276207Y2740510D02*
X278991Y2743294D01*
X276764Y2739953D02*
X279548Y2742737D01*
X276485Y2740232D02*
X279269Y2743016D01*
X287064Y2735221D02*
G03X281496Y2740789I-2784J2784D01*
G01X287064Y2735221D02*
X281496Y2740789D01*
X221514Y2969856D02*
Y2961856D01*
X225514*
Y2969856*
X221514*
X220314Y2994456D02*
X228314D01*
Y2998456*
X220314*
Y2994456*
G54D12*
X191133Y2860282D02*
Y2872282D01*
X181133*
Y2860282*
X185133*
Y2862282*
X187133*
Y2860282*
X191133*
X286975Y2702207D02*
Y2696892D01*
X268077*
Y2702207*
X286975Y2721105D02*
Y2726419D01*
X268077*
Y2721105*
X266829Y2698664D02*
G03X266829I-1114J0D01*
G01X48226Y2507056D02*
X210726D01*
X48226Y2527056D02*
X210726D01*
X48226Y2557556D02*
X50226Y2559556D01*
X208726*
X210726Y2557556*
Y2448556*
X208726Y2446556*
X50226*
X48226Y2448556*
Y2557556*
X83226Y2559556D02*
Y2527056D01*
X158226Y2559556D02*
Y2527056D01*
X48226Y2487056D02*
X210726D01*
X48226Y2467056D02*
X210726D01*
X175726Y2487056D02*
Y2446556D01*
X170726Y2487056D02*
Y2446556D01*
X83226Y2542056D02*
X158226D01*
X150214Y2907856D02*
X145914D01*
X150214Y2912156*
Y2907856*
X207014Y2978856D02*
X202714D01*
X207014Y2983156*
Y2978856*
X128426Y2678356D02*
X131026D01*
G54D13*
X149621Y2908176D02*
Y2963294D01*
X94503*
Y2908176*
X149621*
X229449Y3026986D02*
X246575D01*
Y3018325*
X229252*
Y3026790*
X229449Y3026986*
X140113Y2832182D02*
X152514D01*
Y2847930*
X140113*
Y2832182*
X138843Y2833855D02*
G03X138843I-502J0D01*
G01X118356Y3022772D02*
Y2987339D01*
X148671*
Y3022772*
X118356*
X122002Y2987527D02*
X118380Y2991149D01*
X121873Y2986596D02*
X117667D01*
Y2991087*
X285360Y2924777D02*
X242052D01*
X285360Y2817691D02*
X237722D01*
X290596Y2839935D02*
Y2903872D01*
X218155Y2912376D02*
Y2839935D01*
Y2817691*
X237840*
X285281D02*
X290596D01*
Y2839935*
X285281Y2924777D02*
X290596D01*
Y2903911*
X242171Y2924777D02*
X218155D01*
Y2912376*
X275469Y2980374D02*
X269958D01*
X266218Y2976042D02*
Y2974500D01*
X279210Y2976022D02*
Y2974500D01*
X275469Y2970138D02*
X269958D01*
G54D15*
X102663Y2754170D02*
Y2759878D01*
X86127*
Y2758697*
X83667*
Y2755351*
X102663Y2709681D02*
Y2703973D01*
X86127*
Y2705154*
X83667*
Y2708500*
X228641Y2935523D02*
Y2935917D01*
X231397*
X238877Y2935523D02*
Y2935917D01*
X236121*
X228641Y2926074D02*
Y2925681D01*
X238877*
Y2926074*
X284018Y2957200D02*
X272010D01*
Y2962712*
X284018*
Y2957200*
X191184Y2713560D02*
Y2685410D01*
X163034*
Y2713560*
X191184*
X165299Y2712241D02*
G03X165299I-946J0D01*
G01X245978Y2732474D02*
Y2726096D01*
X254640*
Y2732474*
X245978*
X218720Y2738654D02*
X225098D01*
Y2747315*
X218720*
Y2738654*
X118827Y2767967D02*
Y2728203D01*
X158591*
Y2767967*
X118827*
Y2763636D02*
X123158Y2767967D01*
X214328Y2778104D02*
X166690D01*
Y2730466*
X214328*
Y2778104*
X211257Y2777985D02*
X214289Y2774954D01*
X117934Y2723634D02*
Y2717335D01*
X121084*
Y2723634*
X117934*
X117734Y2707834D02*
Y2701535D01*
X120884*
Y2707834*
X117734*
X260744Y2783433D02*
X215075D01*
Y2751937*
X260744*
Y2783433*
X215075Y2779889D02*
X218618Y2783433D01*
X128134Y2681647D02*
Y2676922D01*
X129119*
Y2676135*
X130300*
Y2676922*
X131284*
Y2681647*
X130300*
Y2682434*
X129119*
Y2681647*
X128134*
X131284Y2676922D02*
Y2681647D01*
X128134*
Y2676922*
X131284*
X132509Y2691185D02*
Y2675485D01*
X145209*
Y2691185*
X132509*
X137946Y2726019D02*
X129272D01*
Y2716951*
X137946*
Y2726019*
Y2713419D02*
X129272D01*
Y2704351*
X137946*
Y2713419*
X228510Y2706443D02*
Y2688726D01*
X241108*
Y2706443*
X228510*
X220214Y2738480D02*
Y2712889D01*
X245804*
Y2738480*
X220214*
X223757Y2733952D02*
G03X223757I-590J0D01*
G01X112009Y2744885D02*
Y2734085D01*
X117609*
Y2744885*
X112009*
X121204Y2784072D02*
X110404D01*
Y2778472*
X121204*
Y2784072*
X153709Y2715885D02*
X166509D01*
Y2723285*
X153709*
Y2715885*
X154409Y2776285D02*
X141609D01*
Y2768885*
X154409*
Y2776285*
X117659Y2766585D02*
Y2779385D01*
X110259*
Y2766585*
X117659*
X142209Y2776385D02*
X129409D01*
Y2768985*
X142209*
Y2776385*
X127504Y2770372D02*
Y2783172D01*
X120104*
Y2770372*
X127504*
X146409Y2723085D02*
Y2710285D01*
X153809*
Y2723085*
X146409*
X169144Y2905693D02*
Y2916493D01*
X163544*
Y2905693*
X169144*
X85514Y2849856D02*
Y2839056D01*
X91114*
Y2849856*
X85514*
X170603Y2787871D02*
X183403D01*
Y2795271*
X170603*
Y2787871*
X200326Y2881756D02*
X187526D01*
Y2874356*
X200326*
Y2881756*
X133914Y2971756D02*
X146714D01*
Y2979156*
X133914*
Y2971756*
X172614Y2889056D02*
Y2901856D01*
X165214*
Y2889056*
X172614*
X204026Y2886756D02*
Y2873956D01*
X211426*
Y2886756*
X204026*
X168026Y2916456D02*
Y2905656D01*
X173626*
Y2916456*
X168026*
X95514Y2689356D02*
X108314D01*
Y2696756*
X95514*
Y2689356*
X92914Y2902456D02*
X103714D01*
Y2908056*
X92914*
Y2902456*
X113314Y2908256D02*
X102514D01*
Y2902656*
X113314*
Y2908256*
X92292Y2963719D02*
Y2971593D01*
X87961*
Y2963719*
X92292*
X99923Y2982173D02*
Y2990047D01*
X95592*
Y2982173*
X99923*
X96314Y2831856D02*
X85514D01*
Y2826256*
X96314*
Y2831856*
X115314Y2826256D02*
X126114D01*
Y2831856*
X115314*
Y2826256*
X177509Y2678485D02*
X185509D01*
Y2682885*
X177509*
Y2678485*
X169809Y2677685D02*
X177809D01*
Y2682085*
X169809*
Y2677685*
X200509Y2705485D02*
X208509D01*
Y2709885*
X200509*
Y2705485*
Y2709185D02*
X208509D01*
Y2713585*
X200509*
Y2709185*
X92705Y2981965D02*
Y2963855D01*
X104910*
Y2981965*
X92705*
X264768Y2680897D02*
X256768D01*
Y2676497*
X264768*
Y2680897*
X264820Y2669751D02*
Y2677751D01*
X260420*
Y2669751*
X264820*
X227109Y2746985D02*
Y2738985D01*
X231509*
Y2746985*
X227109*
X230309D02*
Y2738985D01*
X234709*
Y2746985*
X230309*
X260909Y2738585D02*
X252909D01*
Y2734185*
X260909*
Y2738585*
X165409Y2723585D02*
Y2715585D01*
X169809*
Y2723585*
X165409*
X137209Y2691085D02*
X145209D01*
Y2695485*
X137209*
Y2691085*
X124209Y2694585D02*
Y2686585D01*
X128609*
Y2694585*
X124209*
X166709Y2763885D02*
X158709D01*
Y2759485*
X166709*
Y2763885*
Y2767385D02*
X158709D01*
Y2762985*
X166709*
Y2767385*
X177709Y2778785D02*
X185709D01*
Y2783185*
X177709*
Y2778785*
X166709Y2749885D02*
X158709D01*
Y2745485*
X166709*
Y2749885*
X158709Y2751985D02*
X166709D01*
Y2756385*
X158709*
Y2751985*
X118509Y2748185D02*
X110509D01*
Y2743785*
X118509*
Y2748185*
Y2752285D02*
X110509D01*
Y2747885*
X118509*
Y2752285*
X158709Y2730485D02*
X166709D01*
Y2734885*
X158709*
Y2730485*
X110609Y2728785D02*
X118609D01*
Y2733185*
X110609*
Y2728785*
X115409Y2708685D02*
X123409D01*
Y2713085*
X115409*
Y2708685*
X158609Y2778685D02*
X166609D01*
Y2783085*
X158609*
Y2778685*
X199309Y2778785D02*
X207309D01*
Y2783185*
X199309*
Y2778785*
X93914Y2955456D02*
X85914D01*
Y2951056*
X93914*
Y2955456*
X265914Y2949256D02*
X273914D01*
Y2953656*
X265914*
Y2949256*
X271714Y2954256D02*
Y2962256D01*
X267314*
Y2954256*
X271714*
X85914Y2919056D02*
X93914D01*
Y2923456*
X85914*
Y2919056*
X129126Y2963856D02*
Y2971856D01*
X124726*
Y2963856*
X129126*
X128714Y2979056D02*
Y2987056D01*
X124314*
Y2979056*
X128714*
X142126Y2963856D02*
Y2971856D01*
X137726*
Y2963856*
X142126*
X202714Y2919456D02*
X210714D01*
Y2923856*
X202714*
Y2919456*
X85914Y2915856D02*
X93914D01*
Y2920256*
X85914*
Y2915856*
X95226Y2789656D02*
X103226D01*
Y2794056*
X95226*
Y2789656*
X112726Y2813856D02*
X120726D01*
Y2818256*
X112726*
Y2813856*
X86114Y2881856D02*
X94114D01*
Y2886256*
X86114*
Y2881856*
X88714Y2859856D02*
Y2851856D01*
X93114*
Y2859856*
X88714*
X121714Y2844456D02*
Y2836456D01*
X126114*
Y2844456*
X121714*
X93514Y2845456D02*
Y2837456D01*
X97914*
Y2845456*
X93514*
X130914Y2884256D02*
Y2892256D01*
X126514*
Y2884256*
X130914*
X146114Y2857856D02*
Y2865856D01*
X141714*
Y2857856*
X146114*
X134458Y2971842D02*
Y2963842D01*
X138858*
Y2971842*
X134458*
X171544Y2906893D02*
X163544D01*
Y2902493*
X171544*
Y2906893*
X170326Y2902456D02*
X178326D01*
Y2906856*
X170326*
Y2902456*
X93914Y2949056D02*
X85914D01*
Y2944656*
X93914*
Y2949056*
X173114Y2917656D02*
Y2925656D01*
X168714*
Y2917656*
X173114*
X97314Y2885856D02*
Y2893856D01*
X92914*
Y2885856*
X97314*
X199609Y2682385D02*
Y2674385D01*
X204009*
Y2682385*
X199609*
X240309Y2683585D02*
Y2675585D01*
X244709*
Y2683585*
X240309*
X232709Y2675585D02*
Y2683585D01*
X228309*
Y2675585*
X232709*
X114909Y2751685D02*
Y2759685D01*
X110509*
Y2751685*
X114909*
X200309Y2719585D02*
X208309D01*
Y2723985*
X200309*
Y2719585*
X115509Y2712685D02*
X123509D01*
Y2717085*
X115509*
Y2712685*
X98914Y2766656D02*
X106914D01*
Y2771056*
X98914*
Y2766656*
X80926Y2795156D02*
Y2787156D01*
X85326*
Y2795156*
X80926*
X206914Y3014256D02*
Y3006256D01*
X211314*
Y3014256*
X206914*
X211314Y2987056D02*
Y2995056D01*
X206914*
Y2987056*
X211314*
Y3014256D02*
Y3022256D01*
X206914*
Y3014256*
X211314*
X206914Y2987056D02*
Y2979056D01*
X211314*
Y2987056*
X206914*
X139114Y2979056D02*
Y2987056D01*
X134714*
Y2979056*
X139114*
X251109Y2702285D02*
Y2694285D01*
X255509*
Y2702285*
X251109*
X155409Y2776285D02*
Y2768285D01*
X159809*
Y2776285*
X155409*
X160009Y2775085D02*
Y2783085D01*
X155609*
Y2775085*
X160009*
X250114Y2939456D02*
Y2947456D01*
X245714*
Y2939456*
X250114*
X267114Y2942856D02*
X259114D01*
Y2938456*
X267114*
Y2942856*
X228309Y2738985D02*
Y2746985D01*
X223909*
Y2738985*
X228309*
X254709Y2735385D02*
Y2727385D01*
X259109*
Y2735385*
X254709*
X237909Y2738985D02*
Y2746985D01*
X233509*
Y2738985*
X237909*
X241109D02*
Y2746985D01*
X236709*
Y2738985*
X241109*
X244309D02*
Y2746985D01*
X239909*
Y2738985*
X244309*
X177809Y2678885D02*
X169809D01*
Y2674485*
X177809*
Y2678885*
X185509Y2678485D02*
X177509D01*
Y2674085*
X185509*
Y2678485*
X169809Y2674585D02*
Y2682585D01*
X165409*
Y2674585*
X169809*
X165909Y2674085D02*
Y2682085D01*
X161509*
Y2674085*
X165909*
X162709D02*
Y2682085D01*
X158309*
Y2674085*
X162709*
X159509D02*
Y2682085D01*
X155109*
Y2674085*
X159509*
X153509Y2695685D02*
X161509D01*
Y2700085*
X153509*
Y2695685*
Y2698885D02*
X161509D01*
Y2703285*
X153509*
Y2698885*
Y2702085D02*
X161509D01*
Y2706485*
X153509*
Y2702085*
X195109Y2684385D02*
Y2676385D01*
X199509*
Y2684385*
X195109*
X196009Y2692185D02*
X204009D01*
Y2696585*
X196009*
Y2692185*
Y2702285D02*
X204009D01*
Y2706685*
X196009*
Y2702285*
X173009Y2715585D02*
Y2723585D01*
X168609*
Y2715585*
X173009*
X176209D02*
Y2723585D01*
X171809*
Y2715585*
X176209*
X179409D02*
Y2723585D01*
X175009*
Y2715585*
X179409*
X182609D02*
Y2723585D01*
X178209*
Y2715585*
X182609*
X185809D02*
Y2723585D01*
X181409*
Y2715585*
X185809*
X189009D02*
Y2723585D01*
X184609*
Y2715585*
X189009*
X192209D02*
Y2723585D01*
X187809*
Y2715585*
X192209*
X153509Y2706785D02*
X161509D01*
Y2711185*
X153509*
Y2706785*
Y2709985D02*
X161509D01*
Y2714385*
X153509*
Y2709985*
X127809Y2694585D02*
Y2686585D01*
X132209*
Y2694585*
X127809*
X221609Y2712585D02*
X213609D01*
Y2708185*
X221609*
Y2712585*
X242009Y2692085D02*
Y2684085D01*
X246409*
Y2692085*
X242009*
X225009Y2699385D02*
X217009D01*
Y2694985*
X225009*
Y2699385*
X193809Y2783185D02*
X185809D01*
Y2778785*
X193809*
Y2783185*
X166709Y2741985D02*
X158709D01*
Y2737585*
X166709*
Y2741985*
X176609Y2782885D02*
X168609D01*
Y2778485*
X176609*
Y2782885*
X166714Y2760656D02*
X158714D01*
Y2756256*
X166714*
Y2760656*
X118509Y2763685D02*
X110509D01*
Y2759285*
X118509*
Y2763685*
Y2767385D02*
X110509D01*
Y2762985*
X118509*
Y2767385*
X110609Y2725585D02*
X118609D01*
Y2729985*
X110609*
Y2725585*
X118509Y2751685D02*
Y2759685D01*
X114109*
Y2751685*
X118509*
X158709Y2748685D02*
X166709D01*
Y2753085*
X158709*
Y2748685*
X166609Y2779485D02*
X158609D01*
Y2775085*
X166609*
Y2779485*
X164309Y2768085D02*
Y2776085D01*
X159909*
Y2768085*
X164309*
X192609Y2778785D02*
X200609D01*
Y2783185*
X192609*
Y2778785*
X214109Y2783185D02*
X206109D01*
Y2778785*
X214109*
Y2783185*
X179854Y2887472D02*
X171854D01*
Y2883072*
X179854*
Y2887472*
X188781Y2883575D02*
X180781D01*
Y2879175*
X188781*
Y2883575*
X103322Y2769729D02*
X108053Y2776180D01*
X104505Y2778782*
X99774Y2772331*
X103322Y2769729*
X84126Y2795156D02*
Y2787156D01*
X88526*
Y2795156*
X84126*
X181981Y2883575D02*
X173981D01*
Y2879175*
X181981*
Y2883575*
X84518Y2788394D02*
X79930Y2781841D01*
X83534Y2779317*
X88123Y2785870*
X84518Y2788394*
X182914Y2803256D02*
Y2811256D01*
X178514*
Y2803256*
X182914*
X102114Y2700256D02*
X94114D01*
Y2695856*
X102114*
Y2700256*
X87314Y2699056D02*
X95314D01*
Y2703456*
X87314*
Y2699056*
X121514Y2900256D02*
Y2908256D01*
X117114*
Y2900256*
X121514*
X203826Y2890056D02*
X195826D01*
Y2885656*
X203826*
Y2890056*
X197026D02*
X189026D01*
Y2885656*
X197026*
Y2890056*
X202726Y2885656D02*
X210726D01*
Y2890056*
X202726*
Y2885656*
X185726Y2890356D02*
Y2882356D01*
X190126*
Y2890356*
X185726*
X171526Y2896056D02*
X179526D01*
Y2900456*
X171526*
Y2896056*
Y2899256D02*
X179526D01*
Y2903656*
X171526*
Y2899256*
X172426Y2913656D02*
Y2905656D01*
X176826*
Y2913656*
X172426*
X185414Y2924856D02*
X177414D01*
Y2920456*
X185414*
Y2924856*
X176914Y2917656D02*
Y2925656D01*
X172514*
Y2917656*
X176914*
X177045Y2878662D02*
X169045D01*
Y2874262*
X177045*
Y2878662*
X179189Y2859332D02*
X171189D01*
Y2854932*
X179189*
Y2859332*
X197368Y2866126D02*
X205368D01*
Y2870526*
X197368*
Y2866126*
X114602Y2844466D02*
Y2836466D01*
X119002*
Y2844466*
X114602*
X120114Y2900656D02*
X112114D01*
Y2896256*
X120114*
Y2900656*
X148914Y2871256D02*
Y2879256D01*
X144514*
Y2871256*
X148914*
X93514Y2839456D02*
X85514D01*
Y2835056*
X93514*
Y2839456*
X93914Y2913856D02*
X85914D01*
Y2909456*
X93914*
Y2913856*
X118114Y2900256D02*
Y2908256D01*
X113714*
Y2900256*
X118114*
X145514Y2963856D02*
Y2971856D01*
X141114*
Y2963856*
X145514*
X148759Y2963837D02*
Y2971837D01*
X144359*
Y2963837*
X148759*
X135621Y2963904D02*
Y2971904D01*
X131221*
Y2963904*
X135621*
X93914Y2917056D02*
X85914D01*
Y2912656*
X93914*
Y2917056*
Y2952256D02*
X85914D01*
Y2947856*
X93914*
Y2952256*
Y2910656D02*
X85914D01*
Y2906256*
X93914*
Y2910656*
X252026Y2810156D02*
Y2802156D01*
X256426*
Y2810156*
X252026*
X238977Y2943440D02*
Y2951440D01*
X234577*
Y2943440*
X238977*
X112714Y3010456D02*
Y3002456D01*
X117114*
Y3010456*
X112714*
X192309Y2682885D02*
X184309D01*
Y2678485*
X192309*
Y2682885*
X171826Y2892656D02*
X179826D01*
Y2897056*
X171826*
Y2892656*
X179826Y2890656D02*
X171826D01*
Y2886256*
X179826*
Y2890656*
X189914Y2919456D02*
Y2927456D01*
X185514*
Y2919456*
X189914*
X258134Y2677684D02*
X250134D01*
Y2673284*
X258134*
Y2677684*
X258102Y2674104D02*
X250102D01*
Y2669704*
X258102*
Y2674104*
X256912Y2677699D02*
Y2669699D01*
X261312*
Y2677699*
X256912*
X219809Y2713585D02*
Y2721585D01*
X215409*
Y2713585*
X219809*
X246409Y2697785D02*
Y2705785D01*
X242009*
Y2697785*
X246409*
X228409Y2708185D02*
X236409D01*
Y2712585*
X228409*
Y2708185*
X124209Y2683385D02*
X132209D01*
Y2687785*
X124209*
Y2683385*
X209709Y2690585D02*
Y2682585D01*
X214109*
Y2690585*
X209709*
Y2699685D02*
Y2691685D01*
X214109*
Y2699685*
X209709*
Y2709685D02*
Y2701685D01*
X214109*
Y2709685*
X209709*
X200409Y2685285D02*
Y2693285D01*
X196009*
Y2685285*
X200409*
X196009Y2703485D02*
Y2695485D01*
X200409*
Y2703485*
X196009*
Y2713485D02*
Y2705485D01*
X200409*
Y2713485*
X196009*
X197409Y2869567D02*
X208209D01*
Y2875167*
X197409*
Y2869567*
X197438Y2854560D02*
X208238D01*
Y2860160*
X197438*
Y2854560*
X282314Y2953656D02*
X274314D01*
Y2949256*
X282314*
Y2953656*
X242114Y2943456D02*
Y2951456D01*
X237714*
Y2943456*
X242114*
X285314Y2963456D02*
Y2971456D01*
X280914*
Y2963456*
X285314*
X242514Y2947456D02*
Y2939456D01*
X246914*
Y2947456*
X242514*
X271477Y2938540D02*
Y2946540D01*
X267077*
Y2938540*
X271477*
X166709Y2745185D02*
X158709D01*
Y2740785*
X166709*
Y2745185*
X116114Y2979456D02*
X124114D01*
Y2983856*
X116114*
Y2979456*
X163248Y2908519D02*
Y2917193D01*
X154180*
Y2908519*
X163248*
X158541Y2861085D02*
Y2853085D01*
X162941*
Y2861085*
X158541*
X155314Y2861056D02*
Y2853056D01*
X159714*
Y2861056*
X155314*
X159651Y2926590D02*
X150977D01*
Y2917522*
X159651*
Y2926590*
X167404Y2795609D02*
Y2787609D01*
X171804*
Y2795609*
X167404*
X196351Y2976780D02*
X193399D01*
Y2967331*
X196351*
X199501D02*
X202454D01*
Y2976780*
X199501*
X193399Y2975599D02*
X194580Y2976780D01*
X171402Y2970981D02*
Y2968028D01*
X180851*
Y2970981*
Y2974130D02*
Y2977083D01*
X171402*
Y2974130*
X172583Y2968028D02*
X171402Y2969209D01*
X196351Y2965980D02*
X193399D01*
Y2956531*
X196351*
X199501D02*
X202454D01*
Y2965980*
X199501*
X193399Y2964799D02*
X194580Y2965980D01*
X205151D02*
X202199D01*
Y2956531*
X205151*
X208301D02*
X211254D01*
Y2965980*
X208301*
X202199Y2964799D02*
X203380Y2965980D01*
X110114Y2792056D02*
X102114D01*
Y2787656*
X110114*
Y2792056*
X85114Y2766256D02*
Y2774256D01*
X80714*
Y2766256*
X85114*
X88677Y2821341D02*
X80677D01*
Y2816941*
X88677*
Y2821341*
X190807Y2792010D02*
X182807D01*
Y2787610*
X190807*
Y2792010*
X181914Y2811256D02*
Y2803256D01*
X186314*
Y2811256*
X181914*
X266514Y2791456D02*
Y2799456D01*
X262114*
Y2791456*
X266514*
X262314Y2809906D02*
Y2801906D01*
X266714*
Y2809906*
X262314*
X258680Y2808766D02*
X266680D01*
Y2813166*
X258680*
Y2808766*
X258914Y2787856D02*
X266914D01*
Y2792256*
X258914*
Y2787856*
X221609Y2708185D02*
X229609D01*
Y2712585*
X221609*
Y2708185*
X242009Y2712585D02*
Y2704585D01*
X246409*
Y2712585*
X242009*
X235209Y2708185D02*
X243209D01*
Y2712585*
X235209*
Y2708185*
X200509Y2695385D02*
X208509D01*
Y2699785*
X200509*
Y2695385*
Y2699085D02*
X208509D01*
Y2703485*
X200509*
Y2699085*
Y2685285D02*
X208509D01*
Y2689685*
X200509*
Y2685285*
Y2688885D02*
X208509D01*
Y2693285*
X200509*
Y2688885*
X93914Y2926656D02*
X85914D01*
Y2922256*
X93914*
Y2926656*
X263314Y2791456D02*
Y2799456D01*
X258914*
Y2791456*
X263314*
X135314Y2907856D02*
X127314D01*
Y2903456*
X135314*
Y2907856*
X120514Y2903456D02*
X128514D01*
Y2907856*
X120514*
Y2903456*
X182202Y2970981D02*
Y2968028D01*
X191651*
Y2970981*
Y2974130D02*
Y2977083D01*
X182202*
Y2974130*
X183383Y2968028D02*
X182202Y2969209D01*
X103226Y2790856D02*
X95226D01*
Y2786456*
X103226*
Y2790856*
X120726Y2815056D02*
X112726D01*
Y2810656*
X120726*
Y2815056*
X119626Y2801256D02*
Y2809256D01*
X115226*
Y2801256*
X119626*
X205151Y2976780D02*
X202199D01*
Y2967331*
X205151*
X208301D02*
X211254D01*
Y2976780*
X208301*
X202199Y2975599D02*
X203380Y2976780D01*
X265114Y3001256D02*
X257114D01*
Y2996856*
X265114*
Y3001256*
X257114Y3006456D02*
X265114D01*
Y3010856*
X257114*
Y3006456*
X250314Y2950856D02*
X242314D01*
Y2946456*
X250314*
Y2950856*
X259114Y2947656D02*
X267114D01*
Y2952056*
X259114*
Y2947656*
X267314Y2954256D02*
Y2962256D01*
X262914*
Y2954256*
X267314*
X208801Y2891081D02*
X180651D01*
Y2919230*
X208801*
Y2891081*
X208506Y2917912D02*
G03X208506I-1024J0D01*
G01X171826Y2889456D02*
X179826D01*
Y2893856*
X171826*
Y2889456*
X175626Y2914856D02*
Y2906856D01*
X180026*
Y2914856*
X175626*
X203914Y2924656D02*
X195914D01*
Y2920256*
X203914*
Y2924656*
X215445Y2688122D02*
X224973D01*
Y2680248*
X215445*
Y2688122*
Y2696222D02*
X224973D01*
Y2688348*
X215445*
Y2696222*
Y2706222D02*
X224973D01*
Y2698348*
X215445*
Y2706222*
X258914Y2962256D02*
Y2954256D01*
X263314*
Y2962256*
X258914*
X227809Y2943385D02*
X235809D01*
Y2947785*
X227809*
Y2943385*
X235826Y2951056D02*
X227826D01*
Y2946656*
X235826*
Y2951056*
X119314Y2963856D02*
Y2971856D01*
X114914*
Y2963856*
X119314*
X169482Y2860797D02*
Y2865718D01*
X165545*
Y2860797*
X169482*
X166299Y2859911D02*
G03X166299I-557J0D01*
G01X116060Y2963829D02*
Y2971829D01*
X111660*
Y2963829*
X116060*
X122547Y2963841D02*
Y2971841D01*
X118147*
Y2963841*
X122547*
X103244Y2821293D02*
X95244D01*
Y2816893*
X103244*
Y2821293*
X200457Y2865541D02*
Y2860620D01*
X204394*
Y2865541*
X200457*
X204754Y2866427D02*
G03X204754I-557J0D01*
G01X93914Y2929856D02*
X85914D01*
Y2925456*
X93914*
Y2929856*
X124114Y2979256D02*
X116114D01*
Y2974856*
X124114*
Y2979256*
X86114Y2858656D02*
X94114D01*
Y2863056*
X86114*
Y2858656*
X89914Y2851856D02*
Y2859856D01*
X85514*
Y2851856*
X89914*
X85914Y2928656D02*
X93914D01*
Y2933056*
X85914*
Y2928656*
X94114Y2870256D02*
X86114D01*
Y2865856*
X94114*
Y2870256*
X86114Y2885056D02*
X94114D01*
Y2889456*
X86114*
Y2885056*
X85914Y2941456D02*
X93914D01*
Y2945856*
X85914*
Y2941456*
X94114Y2867056D02*
X86114D01*
Y2862656*
X94114*
Y2867056*
X85514Y2830656D02*
X96314D01*
Y2836256*
X85514*
Y2830656*
X131792Y2864955D02*
Y2852356D01*
X141635*
Y2864955*
X131792*
X112420Y2787524D02*
X120420D01*
Y2791924*
X112420*
Y2787524*
X117914Y2844456D02*
Y2836456D01*
X122314*
Y2844456*
X117914*
X89914Y2848656D02*
Y2840656D01*
X94314*
Y2848656*
X89914*
X169314Y2866056D02*
Y2874056D01*
X164914*
Y2866056*
X169314*
X85914Y2899056D02*
X93914D01*
Y2903456*
X85914*
Y2899056*
X124154Y2800293D02*
Y2792419D01*
X115099*
Y2800293*
X124154*
X139314Y2864656D02*
X147314D01*
Y2869056*
X139314*
Y2864656*
X280114Y2696656D02*
Y2688656D01*
X284514*
Y2696656*
X280114*
X276801D02*
Y2688656D01*
X281201*
Y2696656*
X276801*
X283314D02*
Y2688656D01*
X287714*
Y2696656*
X283314*
X289993Y2735221D02*
G03X289993I-787J0D01*
G01X177952Y2854952D02*
X185952D01*
Y2859352*
X177952*
Y2854952*
X184747Y2854978D02*
X192747D01*
Y2859378*
X184747*
Y2854978*
X175762Y2880147D02*
Y2872147D01*
X180162*
Y2880147*
X175762*
X180687Y2873367D02*
X188687D01*
Y2877767*
X180687*
Y2873367*
X108914Y2835856D02*
Y2843856D01*
X104514*
Y2835856*
X108914*
X207042Y2875163D02*
Y2867163D01*
X211442*
Y2875163*
X207042*
X211476Y2854557D02*
Y2862557D01*
X207076*
Y2854557*
X211476*
X175114Y2859063D02*
Y2867063D01*
X170714*
Y2859063*
X175114*
X170714Y2873816D02*
Y2865816D01*
X175114*
Y2873816*
X170714*
X276326Y2727556D02*
X284326D01*
Y2731956*
X276326*
Y2727556*
X265914Y2735456D02*
X273914D01*
Y2739856*
X265914*
Y2735456*
X91360Y2760533D02*
X106038Y2781495D01*
X98621Y2786689*
X83943Y2765726*
X91360Y2760533*
X153014Y2936368D02*
X161014D01*
Y2940768*
X153014*
Y2936368*
Y2933068D02*
X161014D01*
Y2937468*
X153014*
Y2933068*
X201014Y2926668D02*
Y2934668D01*
X196614*
Y2926668*
X201014*
X197826Y2926656D02*
Y2934656D01*
X193426*
Y2926656*
X197826*
X204314D02*
Y2934656D01*
X199914*
Y2926656*
X204314*
X194626D02*
Y2934656D01*
X190226*
Y2926656*
X194626*
X211314Y2935256D02*
X203314D01*
Y2930856*
X211314*
Y2935256*
Y2932056D02*
X203314D01*
Y2927656*
X211314*
Y2932056*
X161014Y2931068D02*
X153014D01*
Y2926668*
X161014*
Y2931068*
Y2934268D02*
X153014D01*
Y2929868*
X161014*
Y2934268*
X166714Y2926668D02*
X174714D01*
Y2931068*
X166714*
Y2926668*
Y2930268D02*
X174714D01*
Y2934668*
X166714*
Y2930268*
X161014Y2943968D02*
X153014D01*
Y2939568*
X161014*
Y2943968*
X161058Y2967103D02*
X153058D01*
Y2962703*
X161058*
Y2967103*
X193314Y2951856D02*
X201314D01*
Y2956256*
X193314*
Y2951856*
X160710Y2968770D02*
Y2976770D01*
X156310*
Y2968770*
X160710*
X153014Y2960669D02*
Y2952669D01*
X157414*
Y2960669*
X153014*
X183826Y2934656D02*
Y2926656D01*
X188226*
Y2934656*
X183826*
X170314Y2968768D02*
Y2976768D01*
X165914*
Y2968768*
X170314*
X187026Y2934656D02*
Y2926656D01*
X191426*
Y2934656*
X187026*
X167114Y2968768D02*
Y2976768D01*
X162714*
Y2968768*
X167114*
X161014Y2950569D02*
X153014D01*
Y2946169*
X161014*
Y2950569*
X161010Y2963869D02*
X153010D01*
Y2959469*
X161010*
Y2963869*
X163906Y2968774D02*
Y2976774D01*
X159506*
Y2968774*
X163906*
X161014Y2952669D02*
Y2960669D01*
X156614*
Y2952669*
X161014*
X161031Y2953840D02*
X153031D01*
Y2949440*
X161031*
Y2953840*
Y2947340D02*
X153031D01*
Y2942940*
X161031*
Y2947340*
X177114Y2934668D02*
Y2926668D01*
X181514*
Y2934668*
X177114*
X219814Y2827556D02*
Y2835556D01*
X215414*
Y2827556*
X219814*
X215425Y2843248D02*
Y2835248D01*
X219825*
Y2843248*
X215425*
X204594Y2848813D02*
Y2840813D01*
X208994*
Y2848813*
X204594*
X215566Y2884646D02*
Y2876646D01*
X219966*
Y2884646*
X215566*
X215569Y2898279D02*
Y2890279D01*
X219969*
Y2898279*
X215569*
X237114Y2974856D02*
X229114D01*
Y2970456*
X237114*
Y2974856*
X180314Y2934668D02*
Y2926668D01*
X184714*
Y2934668*
X180314*
X257114Y2991656D02*
X265114D01*
Y2996056*
X257114*
Y2991656*
X161466Y2966916D02*
Y2936011D01*
X162056Y2935420*
X192962*
Y2966916*
X161466*
X211448Y2943919D02*
Y2952593D01*
X202380*
Y2943919*
X211448*
Y2935031D02*
Y2943705D01*
X202380*
Y2935031*
X211448*
X202248D02*
Y2943705D01*
X193180*
Y2935031*
X202248*
Y2943919D02*
Y2952593D01*
X193180*
Y2943919*
X202248*
X173514Y2934668D02*
Y2926668D01*
X177914*
Y2934668*
X173514*
X167914Y2931068D02*
X159914D01*
Y2926668*
X167914*
Y2931068*
Y2934668D02*
X159914D01*
Y2930268*
X167914*
Y2934668*
X122314Y2837056D02*
X114314D01*
Y2832656*
X122314*
Y2837056*
X93514Y2853056D02*
X85514D01*
Y2848656*
X93514*
Y2853056*
X128114Y2840456D02*
Y2832456D01*
X132514*
Y2840456*
X128114*
X96714Y2837856D02*
X104714D01*
Y2842256*
X96714*
Y2837856*
X121314Y2832656D02*
X129314D01*
Y2837056*
X121314*
Y2832656*
X132326Y2963856D02*
Y2971856D01*
X127926*
Y2963856*
X132326*
X258514Y2949856D02*
Y2957856D01*
X254114*
Y2949856*
X258514*
X242914Y2969056D02*
Y2977056D01*
X238514*
Y2969056*
X242914*
X265114Y2981256D02*
X257114D01*
Y2976856*
X265114*
Y2981256*
X257114Y2985256D02*
X265114D01*
Y2989656*
X257114*
Y2985256*
X221114Y3022856D02*
X229114D01*
Y3027256*
X221114*
Y3022856*
X269714Y2984256D02*
Y2992256D01*
X265314*
Y2984256*
X269714*
X227914Y2995256D02*
X219914D01*
Y2990856*
X227914*
Y2995256*
Y3005256D02*
X219914D01*
Y3000856*
X227914*
Y3005256*
X257114Y2988456D02*
X265114D01*
Y2992856*
X257114*
Y2988456*
X227914Y3008456D02*
X219914D01*
Y3004056*
X227914*
Y3008456*
Y3002056D02*
X219914D01*
Y2997656*
X227914*
Y3002056*
X242314Y2956456D02*
X234314D01*
Y2952056*
X242314*
Y2956456*
X227914Y3018056D02*
X219914D01*
Y3013656*
X227914*
Y3018056*
X257114Y3000056D02*
X265114D01*
Y3004456*
X257114*
Y3000056*
X273115Y2996065D02*
X265115D01*
Y2991665*
X273115*
Y2996065*
X220714Y2970456D02*
X228714D01*
Y2974856*
X220714*
Y2970456*
X225314Y2983456D02*
Y2991456D01*
X220914*
Y2983456*
X225314*
X246114Y3026656D02*
Y3018656D01*
X250514*
Y3026656*
X246114*
X254114Y2969056D02*
Y2977056D01*
X249714*
Y2969056*
X254114*
X242314Y2960856D02*
X234314D01*
Y2956456*
X242314*
Y2960856*
X257114Y2982056D02*
X265114D01*
Y2986456*
X257114*
Y2982056*
X258714Y2961256D02*
X250714D01*
Y2956856*
X258714*
Y2961256*
X265114Y2977056D02*
X257114D01*
Y2972656*
X265114*
Y2977056*
X250914Y2957856D02*
Y2949856D01*
X255314*
Y2957856*
X250914*
X250314Y2976856D02*
X242314D01*
Y2972456*
X250314*
Y2976856*
X168451Y2926590D02*
X159777D01*
Y2917522*
X168451*
Y2926590*
X257114Y3003256D02*
X265114D01*
Y3007656*
X257114*
Y3003256*
X264514Y3004656D02*
Y2996656D01*
X268914*
Y3004656*
X264514*
X219914Y3008856D02*
X227914D01*
Y3013256*
X219914*
Y3008856*
X228514Y2983456D02*
Y2991456D01*
X224114*
Y2983456*
X228514*
X238514Y2961856D02*
Y2969856D01*
X234114*
Y2961856*
X238514*
X229004Y2947772D02*
X221004D01*
Y2943372*
X229004*
Y2947772*
X267114Y2955256D02*
X259114D01*
Y2950856*
X267114*
Y2955256*
X219914Y3018056D02*
X227914D01*
Y3022456*
X219914*
Y3018056*
X262964Y2801906D02*
Y2809906D01*
X258564*
Y2801906*
X262964*
X258664Y2798656D02*
X266664D01*
Y2803056*
X258664*
Y2798656*
X182914Y2849656D02*
X190914D01*
Y2854056*
X182914*
Y2849656*
X208914Y2827056D02*
Y2835056D01*
X204514*
Y2827056*
X208914*
X166914Y2827256D02*
X174914D01*
Y2831656*
X166914*
Y2827256*
X182314Y2831656D02*
X174314D01*
Y2827256*
X182314*
Y2831656*
X132114Y2847656D02*
X140114D01*
Y2852056*
X132114*
Y2847656*
X180114Y2798556D02*
X188114D01*
Y2802956*
X180114*
Y2798556*
X146114Y2849856D02*
Y2857856D01*
X141714*
Y2849856*
X146114*
X137914Y2848856D02*
X129914D01*
Y2844456*
X137914*
Y2848856*
X138914Y2843656D02*
X130914D01*
Y2839256*
X138914*
Y2843656*
X109672Y2963837D02*
Y2971837D01*
X105272*
Y2963837*
X109672*
X111201Y2844011D02*
Y2836011D01*
X115601*
Y2844011*
X111201*
X135914Y2883856D02*
X127914D01*
Y2879456*
X135914*
Y2883856*
X104714Y2845456D02*
X96714D01*
Y2841056*
X104714*
Y2845456*
X250635Y2803472D02*
X252404D01*
X251567Y2801671*
X250635Y2803472*
X207386Y2811819D02*
Y2819693D01*
X216441*
Y2811819*
X207386*
X100714Y2900356D02*
X87914D01*
Y2892956*
X100714*
Y2900356*
X120114Y2893756D02*
X132914D01*
Y2901156*
X120114*
Y2893756*
X138314Y2896656D02*
X146314D01*
Y2901056*
X138314*
Y2896656*
X165514Y2894656D02*
Y2902656D01*
X161114*
Y2894656*
X165514*
X124914Y2844456D02*
Y2836456D01*
X129314*
Y2844456*
X124914*
X87314Y2695856D02*
X95314D01*
Y2700256*
X87314*
Y2695856*
X132414Y2839056D02*
Y2826256D01*
X139814*
Y2839056*
X132414*
X154514Y2839156D02*
X167314D01*
Y2846556*
X154514*
Y2839156*
X170414Y2846656D02*
Y2859456D01*
X163014*
Y2846656*
X170414*
X183114Y2854956D02*
X170314D01*
Y2847556*
X183114*
Y2854956*
X172714Y2885456D02*
X164714D01*
Y2881056*
X172714*
Y2885456*
X164714Y2884456D02*
X172714D01*
Y2888856*
X164714*
Y2884456*
X86114Y2872256D02*
X94114D01*
Y2876656*
X86114*
Y2872256*
X112677Y2817040D02*
X120677D01*
Y2821440*
X112677*
Y2817040*
X116377Y2801240D02*
Y2809240D01*
X111977*
Y2801240*
X116377*
X93914Y2958656D02*
X85914D01*
Y2954256*
X93914*
Y2958656*
X206330Y2819534D02*
Y2817765D01*
X204529Y2818602*
X206330Y2819534*
X93914Y2961856D02*
X85914D01*
Y2957456*
X93914*
Y2961856*
X86114Y2869056D02*
X94114D01*
Y2873456*
X86114*
Y2869056*
X87314Y2692256D02*
X95314D01*
Y2696656*
X87314*
Y2692256*
X273601Y2696656D02*
Y2688656D01*
X278001*
Y2696656*
X273601*
X270201D02*
Y2688656D01*
X274601*
Y2696656*
X270201*
X112871Y2963837D02*
Y2971837D01*
X108471*
Y2963837*
X112871*
X250051Y2970419D02*
Y2960892D01*
X242177*
Y2970419*
X250051*
X256714Y2713256D02*
Y2721256D01*
X252314*
Y2713256*
X256714*
X255514Y2715656D02*
X263514D01*
Y2720056*
X255514*
Y2715656*
Y2712456D02*
X263514D01*
Y2716856*
X255514*
Y2712456*
Y2709256D02*
X263514D01*
Y2713656*
X255514*
Y2709256*
Y2706056D02*
X263514D01*
Y2710456*
X255514*
Y2706056*
X162914Y2846256D02*
Y2854256D01*
X158514*
Y2846256*
X162914*
X153314Y2871256D02*
Y2879256D01*
X148914*
Y2871256*
X153314*
X125314Y2900056D02*
X133314D01*
Y2904456*
X125314*
Y2900056*
X94114Y2893856D02*
X86114D01*
Y2889456*
X94114*
Y2893856*
X190653Y2921287D02*
X195574D01*
Y2925224*
X190653*
Y2921287*
X190324Y2925027D02*
G03X190324I-557J0D01*
G01X192714Y2854456D02*
Y2846456D01*
X197114*
Y2854456*
X192714*
X201914Y2846456D02*
Y2854456D01*
X197514*
Y2846456*
X201914*
X118214Y2894656D02*
Y2881856D01*
X125614*
Y2894656*
X118214*
X97214Y2893256D02*
Y2880456D01*
X104614*
Y2893256*
X97214*
X103514Y2885756D02*
X116314D01*
Y2893156*
X103514*
Y2885756*
X112614Y2835156D02*
Y2843156D01*
X108214*
Y2835156*
X112614*
X115592Y2988239D02*
X113823D01*
X114660Y2990040*
X115592Y2988239*
X154614Y2827734D02*
X167213D01*
Y2837577*
X154614*
Y2827734*
X265314Y2754256D02*
Y2746256D01*
X269714*
Y2754256*
X265314*
X140114Y2879256D02*
Y2871256D01*
X144514*
Y2879256*
X140114*
X140514Y2872856D02*
X132514D01*
Y2868456*
X140514*
Y2872856*
Y2876056D02*
X132514D01*
Y2871656*
X140514*
Y2876056*
Y2879256D02*
X132514D01*
Y2874856*
X140514*
Y2879256*
X94114Y2759856D02*
X102114D01*
Y2764256*
X94114*
Y2759856*
X98914Y2763456D02*
X106914D01*
Y2767856*
X98914*
Y2763456*
X94114Y2699056D02*
X102114D01*
Y2703456*
X94114*
Y2699056*
X84114Y2703456D02*
Y2695456D01*
X88514*
Y2703456*
X84114*
X93914Y2906656D02*
X85914D01*
Y2902256*
X93914*
Y2906656*
X255514Y2699656D02*
X263514D01*
Y2704056*
X255514*
Y2699656*
X271426Y2688656D02*
Y2696656D01*
X267026*
Y2688656*
X271426*
X93914Y2939456D02*
X85914D01*
Y2935056*
X93914*
Y2939456*
X85914Y2931856D02*
X93914D01*
Y2936256*
X85914*
Y2931856*
X104614Y2837756D02*
X96614D01*
Y2833356*
X104614*
Y2837756*
X108914Y2827956D02*
Y2835956D01*
X104514*
Y2827956*
X108914*
X105314Y2892456D02*
Y2900456D01*
X100914*
Y2892456*
X105314*
X190314Y2831656D02*
X182314D01*
Y2827256*
X190314*
Y2831656*
X163838Y2860295D02*
X154389D01*
Y2891004*
X163838*
Y2860295*
X132114Y2904656D02*
Y2896656D01*
X136514*
Y2904656*
X132114*
X106914Y2756656D02*
Y2764656D01*
X102514*
Y2756656*
X106914*
X182526Y2890356D02*
Y2882356D01*
X186926*
Y2890356*
X182526*
X179326D02*
Y2882356D01*
X183726*
Y2890356*
X179326*
X140514Y2869656D02*
X132514D01*
Y2865256*
X140514*
Y2869656*
X127714Y2982656D02*
X135714D01*
Y2987056*
X127714*
Y2982656*
X121460Y2971829D02*
Y2963829D01*
X125860*
Y2971829*
X121460*
X255514Y2702856D02*
X263514D01*
Y2707256*
X255514*
Y2702856*
X86114Y2875456D02*
X94114D01*
Y2879856*
X86114*
Y2875456*
Y2878656D02*
X94114D01*
Y2883056*
X86114*
Y2878656*
X127701Y2979056D02*
X135701D01*
Y2983456*
X127701*
Y2979056*
X148114Y2872256D02*
X140114D01*
Y2867856*
X148114*
Y2872256*
X225926Y2811056D02*
X233926D01*
Y2815456*
X225926*
Y2811056*
X204626Y2841956D02*
Y2833956D01*
X209026*
Y2841956*
X204626*
Y2855656D02*
Y2847656D01*
X209026*
Y2855656*
X204626*
X219926Y2858056D02*
Y2866056D01*
X215526*
Y2858056*
X219926*
X215626Y2891456D02*
Y2883456D01*
X220026*
Y2891456*
X215626*
Y2905056D02*
Y2897056D01*
X220026*
Y2905056*
X215626*
X107314Y2900456D02*
Y2892456D01*
X111714*
Y2900456*
X107314*
X104114D02*
Y2892456D01*
X108514*
Y2900456*
X104114*
X127714Y2792056D02*
X119714D01*
Y2787656*
X127714*
Y2792056*
X93914Y2942656D02*
X85914D01*
Y2938256*
X93914*
Y2942656*
X115209Y2700785D02*
Y2708785D01*
X110809*
Y2700785*
X115209*
X115409Y2716485D02*
Y2724485D01*
X111009*
Y2716485*
X115409*
X192791Y2811856D02*
G03X192791I-1077J0D01*
G01X256533Y2975256D02*
G03X256533I-1019J0D01*
G01X240314Y2964256D02*
Y2962256D01*
X242714Y2959856*
Y2961256*
X106514Y2708056D02*
G03X106514I-600J0D01*
G01Y2706656D02*
G03X106514I-600J0D01*
G01X85314Y2703456D02*
G03X85314I-800J0D01*
G01X84014Y2701556D02*
G03X85314Y2702856I98J1201D01*
G01X266914Y2726056D02*
G03X266914I-800J0D01*
G01X265614Y2724156D02*
G03X266914Y2725456I98J1201D01*
G01X290714Y2700456D02*
G03X290714I-600J0D01*
G01Y2699056D02*
G03X290714I-600J0D01*
G54D18*
G01X229432Y2977087D02*
G03X229432I-394J0D01*
G01X227660Y2981418D02*
X220967D01*
Y2976693*
X227660*
Y2981418*
X228339Y2960731D02*
G03X228339I-394J0D01*
G01X232276Y2962109D02*
Y2968802D01*
X227551*
Y2962109*
X232276*
G54D20*
X275469Y2989030D02*
X269958D01*
Y2985881*
X275469*
Y2989030*
G54D22*
X243164Y2959843D02*
X249463D01*
Y2951969*
X243164*
Y2959843*
X256093Y2977771D02*
Y3017141D01*
X228534*
Y2977771*
X256093*
G54D25*
X272722Y2881155D02*
X262486D01*
Y2912454*
X272722*
Y2881155*
X270517Y2874777D02*
Y2872415D01*
X239021*
Y2874777*
X270517*
G54D28*
X251054Y2941553D02*
G03X251054I-900J0D01*
G54D75*
G01X300496Y2776642D02*
X307689D01*
Y2815618*
X300496*
X291244Y2776642D02*
X280523D01*
X291244Y2815618D02*
X280523D01*
X302177Y2776642D02*
Y2815618D01*
X278358Y2776642D02*
X271468D01*
Y2788453*
X278358Y2815618D02*
X271468D01*
Y2803807*
X250777Y2943087D02*
X258847D01*
Y2947024*
X250777*
Y2945843*
X251958*
Y2944268*
X250777*
Y2943087*
X73626Y2815783D02*
X70674D01*
Y2813815*
X64768*
Y2798066*
X70674*
Y2796098*
X73626*
X110044Y2815783D02*
X112012D01*
Y2796098*
X110044*
X70674Y2798066D02*
Y2813815D01*
X81107Y2796098D02*
X88193D01*
X95674D02*
X102563D01*
Y2815783D02*
X95674D01*
X87996D02*
X81107D01*
X132285Y2811400D02*
X127364D01*
Y2809432*
X119490*
Y2801558*
X127364*
Y2799589*
X129726*
Y2790534*
X132285*
X127364Y2801558D02*
Y2811400D01*
X140159Y2790534D02*
X144096D01*
X151970D02*
X155907D01*
Y2811400D02*
X151970D01*
X144096D02*
X140159D01*
X163781Y2790534D02*
X166340D01*
Y2799589*
X168702*
Y2801558*
X176576*
Y2809432*
X168702*
Y2811400*
X163781*
X168702Y2801558D02*
Y2811400D01*
X100702Y2846691D02*
X97946D01*
Y2849053*
Y2876353D02*
Y2878187D01*
X99823*
X127209D02*
X129442D01*
Y2876277*
Y2849140D02*
Y2846691D01*
X126996*
X100064Y2846840D02*
X98039Y2848865D01*
Y2847865*
X99170Y2846734*
X250136Y2794390D02*
X258206D01*
Y2798327*
X250136*
Y2797146*
X251317*
Y2795571*
X250136*
Y2794390*
X197248Y2820034D02*
Y2811963D01*
X201185*
Y2820034*
X200004*
Y2818853*
X198429*
Y2820034*
X197248*
X150170Y2908355D02*
X157257D01*
X150170Y2895756D02*
X157257D01*
X160544Y2909027D02*
G03X160544I-721J0D01*
G01X150170Y2900087D02*
Y2904024D01*
X180213Y2842599D02*
Y2835512D01*
X167614Y2842599D02*
Y2835512D01*
X181606Y2832946D02*
G03X181606I-722J0D01*
G01X171945Y2842599D02*
X175882D01*
X191814Y2834512D02*
Y2841599D01*
X204413Y2834512D02*
Y2841599D01*
X191864Y2844165D02*
G03X191864I-721J0D01*
G01X200082Y2834512D02*
X196145D01*
X116092Y2997321D02*
X108021D01*
Y2993384*
X116092*
Y2994566*
X114910*
Y2996140*
X116092*
Y2997321*
X278981Y2943932D02*
X307681D01*
Y2930153*
X278981*
Y2943932*
X268752Y2734606D02*
X273476D01*
Y2727506*
X268752*
Y2734606*
X274737Y2734865D02*
G03X274737I-646J0D01*
G01X254326Y2680556D02*
X255476Y2681706D01*
X256626Y2680556*
X259426Y2680456D02*
X260576Y2681606D01*
X261726Y2680456*
X168694Y2545256D02*
G03X168694I-2080J0D01*
G01Y2540856D02*
G03X168694I-2080J0D01*
G01X126894Y2494656D02*
G03X126894I-2080J0D01*
G01Y2499056D02*
G03X126894I-2080J0D01*
G54D76*
G01X188080Y2798470D02*
X184930D01*
Y2792171*
X188080*
Y2798470*
X141271Y2683778D02*
G03X141271I-393J0D01*
G01X137546Y2717745D02*
X137152Y2717351D01*
X137546Y2705145D02*
X137152Y2704751D01*
X101169Y2974879D02*
G03X101169I-393J0D01*
G01X154973Y2908919D02*
X154580Y2909312D01*
X159251Y2918316D02*
X158857Y2917922D01*
X203173Y2944319D02*
X202780Y2944712D01*
X203173Y2935431D02*
X202780Y2935825D01*
X193973Y2935431D02*
X193580Y2935825D01*
X193973Y2944319D02*
X193580Y2944712D01*
X168051Y2918316D02*
X167657Y2917922D01*
X280581Y2971737D02*
G03X280581I-394J0D01*
G01X210314Y2916056D02*
G03X210314I-400J0D01*
G01X96714Y2847656D02*
G03X96714I-800J0D01*
G01X165514Y2714656D02*
G03X165514I-400J0D01*
G01X227914Y2689856D02*
G03X227914I-400J0D01*
G01X238914Y2674656D02*
G03X238914I-400J0D01*
G01X82914Y2754256D02*
G03X82914I-400J0D01*
G01X112714Y2793456D02*
G03X112714I-400J0D01*
G01X268714Y2802456D02*
G03X268714I-400J0D01*
G01X216930Y2820662D02*
G03X216930I-400J0D01*
G01X141714Y2830956D02*
G03X141714I-400J0D01*
G01X180114Y2860256D02*
G03X180114I-800J0D01*
G54D79*
G01X161114Y2935156D02*
Y2939456D01*
X165414Y2935156*
X161114*
G54D96*
X248714Y2698256D02*
Y2696256D01*
G54D101*
X281163Y2962712D02*
X284018D01*
Y2960349*
X274864Y2962712D02*
X272010D01*
Y2960349*
X223606Y2951166D02*
X220751D01*
Y2953528*
X229905Y2951166D02*
X232759D01*
Y2953528*
G54D111*
X262923Y2749392D02*
Y2722892D01*
X248523*
Y2671692*
X121823*
Y2698392*
X108623*
Y2785792*
X262923*
Y2749442*
Y2749392D02*
X216523D01*
Y2725992*
X144123*
Y2706292*
X147323Y2671792D02*
Y2698392D01*
X121623*
X163034Y2712083D02*
Y2713560D01*
X164511*
X189708D02*
X191184D01*
Y2712083*
Y2686886D02*
Y2685410D01*
X189708*
X164511D02*
X163034D01*
Y2686886*
X266472Y2696506D02*
X250072D01*
Y2680306*
X266472*
Y2696506*
X246097Y2731529D02*
X246884Y2732316D01*
X219665Y2738772D02*
X218878Y2739560D01*
X238609Y2679191D02*
G03X238609I-100J0D01*
G01X240052Y2682147D02*
X240249D01*
Y2677422*
X240052*
X232966D02*
X232769D01*
Y2682147*
X232966*
X118827Y2767967D02*
Y2728203D01*
X158591*
Y2767967*
X118827*
Y2763636D02*
X123060Y2767868D01*
X119309Y2723685D02*
X121109D01*
Y2722685*
X119309Y2717385D02*
X121109D01*
Y2718285*
X119109Y2707885D02*
X120909D01*
Y2706885*
X119109Y2701585D02*
X120909D01*
Y2702485*
X215075Y2779889D02*
X218598Y2783413D01*
X207049Y2918955D02*
X208525D01*
Y2917479*
Y2892833D02*
Y2891356D01*
X207049*
X182403D02*
X180927D01*
Y2892833*
Y2917479D02*
Y2918955D01*
X182403*
X223762Y2681606D02*
G03X223762I-502J0D01*
G01Y2689706D02*
G03X223762I-502J0D01*
G01Y2699706D02*
G03X223762I-502J0D01*
G01X131814Y2860956D02*
Y2856356D01*
X141614Y2860956D02*
Y2856356D01*
X155623Y2979102D02*
X206804D01*
Y3022409*
X155623*
Y2979102*
X206804Y2981071D02*
X204836Y2979102D01*
X244037Y2962605D02*
G03X244037I-502J0D01*
G01X158614Y2827756D02*
X163214D01*
X158614Y2837556D02*
X163214D01*
X1016941Y2653150D02*
X914578D01*
X44500Y2613780D02*
Y3078740D01*
X1036626Y2613780D02*
Y3078740D01*
Y2613780D02*
X44500D01*
X1036626Y3078740D02*
X44500D01*
X1016941Y3039370D02*
X912807D01*
X64185Y2653150D02*
Y2712205D01*
X1016941Y2653150D02*
Y2712205D01*
X168319Y3031102D02*
Y3039370D01*
X199815Y3031102D02*
Y3039370D01*
X77964Y2907087D02*
X77897D01*
X77964Y2879528D02*
X77897D01*
X168319Y3039370D02*
X64185D01*
Y2907087D02*
Y3039370D01*
Y2712205D02*
X78032D01*
X64185Y2731890D02*
X78032D01*
X185248Y3029921D02*
G03X185248I-1181J0D01*
G01X189185D02*
G03X189185I-1181J0D01*
G01X193122D02*
G03X193122I-1181J0D01*
G01X197059D02*
G03X197059I-1181J0D01*
G01X181311D02*
G03X181311I-1181J0D01*
G01X177374D02*
G03X177374I-1181J0D01*
G01X173437D02*
G03X173437I-1181J0D01*
G01X168319Y3028740D02*
G03Y3031102I-0J1181D01*
G01X199815D02*
G03Y3028740I-0J-1181D01*
G01X77964Y2905118D02*
G03X77964I-1181J0D01*
G01Y2901181D02*
G03X77964I-1181J0D01*
G01Y2897244D02*
G03X77964I-1181J0D01*
G01Y2893307D02*
G03X77964I-1181J0D01*
G01Y2889370D02*
G03X77964I-1181J0D01*
G01Y2885433D02*
G03X77964I-1181J0D01*
G01Y2881496D02*
G03X77964I-1181J0D01*
G01X75670Y2907087D02*
G03X77897I1113J394D01*
G01X75670D02*
X64185D01*
X77896Y2879528D02*
G03X75669Y2879526I-1113J-394D01*
G01X75670Y2879528D02*
X64185D01*
X80326Y2729921D02*
G03X80326I-1181J0D01*
G01Y2725984D02*
G03X80326I-1181J0D01*
G01Y2722047D02*
G03X80326I-1181J0D01*
G01Y2718110D02*
G03X80326I-1181J0D01*
G01Y2714173D02*
G03X80326I-1181J0D01*
G01X78032Y2731890D02*
G03X80259I1113J394D01*
G01Y2712205D02*
G03X78031Y2712203I-1114J-394D01*
G01X80259Y2712205D02*
X80326D01*
X80259Y2731890D02*
X80326D01*
X64185D02*
Y2879528D01*
X166547Y2664567D02*
Y2653150D01*
X205917Y2664567D02*
Y2653150D01*
X166547D02*
X64185D01*
X166547Y2664567D02*
G03Y2666929I-0J1181D01*
G01X171665Y2665748D02*
G03X171665I-1181J0D01*
G01X175602D02*
G03X175602I-1181J0D01*
G01X179539D02*
G03X179539I-1181J0D01*
G01X183476D02*
G03X183476I-1181J0D01*
G01X187413D02*
G03X187413I-1181J0D01*
G01X191350D02*
G03X191350I-1181J0D01*
G01X195287D02*
G03X195287I-1181J0D01*
G01X199224D02*
G03X199224I-1181J0D01*
G01X203161D02*
G03X203161I-1181J0D01*
G01X205917Y2666929D02*
G03Y2664567I-0J-1181D01*
G01X440366Y3031102D02*
Y3039370D01*
X408870Y3031102D02*
Y3039370D01*
X425799Y3029921D02*
G03X425799I-1181J0D01*
G01X429736D02*
G03X429736I-1181J0D01*
G01X433673D02*
G03X433673I-1181J0D01*
G01X437610D02*
G03X437610I-1181J0D01*
G01X421862D02*
G03X421862I-1181J0D01*
G01X417925D02*
G03X417925I-1181J0D01*
G01X413988D02*
G03X413988I-1181J0D01*
G01X408870Y3028740D02*
G03Y3031102I-0J1181D01*
G01X440366D02*
G03Y3028740I-0J-1181D01*
G01X672256Y3031102D02*
Y3039370D01*
X640759Y3031102D02*
Y3039370D01*
X657689Y3029921D02*
G03X657689I-1181J0D01*
G01X661626D02*
G03X661626I-1181J0D01*
G01X665563D02*
G03X665563I-1181J0D01*
G01X669500D02*
G03X669500I-1181J0D01*
G01X653752D02*
G03X653752I-1181J0D01*
G01X649815D02*
G03X649815I-1182J0D01*
G01X645878D02*
G03X645878I-1182J0D01*
G01X640759Y3028740D02*
G03Y3031102I0J1181D01*
G01X672256D02*
G03Y3028740I-0J-1181D01*
G01X912807Y3031102D02*
Y3039370D01*
X881311Y3031102D02*
Y3039370D01*
X898240Y3029921D02*
G03X898240I-1181J0D01*
G01X902177D02*
G03X902177I-1181J0D01*
G01X906114D02*
G03X906114I-1181J0D01*
G01X910051D02*
G03X910051I-1181J0D01*
G01X894303D02*
G03X894303I-1181J0D01*
G01X890366D02*
G03X890366I-1181J0D01*
G01X886429D02*
G03X886429I-1181J0D01*
G01X881311Y3028740D02*
G03Y3031102I-0J1181D01*
G01X912807D02*
G03Y3028740I-0J-1181D01*
G01X881311Y3039370D02*
X672256D01*
X640759D02*
X440366D01*
X408870D02*
X199815D01*
X442137Y2664567D02*
Y2653150D01*
X402767Y2664567D02*
Y2653150D01*
Y2664567D02*
G03Y2666929I0J1181D01*
G01X407885Y2665748D02*
G03X407885I-1181J0D01*
G01X411822D02*
G03X411822I-1181J0D01*
G01X415759D02*
G03X415759I-1181J0D01*
G01X419696D02*
G03X419696I-1181J0D01*
G01X423633D02*
G03X423633I-1181J0D01*
G01X427571D02*
G03X427571I-1182J0D01*
G01X431508D02*
G03X431508I-1182J0D01*
G01X435445D02*
G03X435445I-1182J0D01*
G01X439382D02*
G03X439382I-1182J0D01*
G01X442137Y2666929D02*
G03Y2664567I0J-1181D01*
G01X678358D02*
Y2653150D01*
X638988Y2664567D02*
Y2653150D01*
Y2664567D02*
G03Y2666929I-0J1181D01*
G01X644106Y2665748D02*
G03X644106I-1181J0D01*
G01X648043D02*
G03X648043I-1181J0D01*
G01X651980D02*
G03X651980I-1181J0D01*
G01X655917D02*
G03X655917I-1181J0D01*
G01X659854D02*
G03X659854I-1181J0D01*
G01X663791D02*
G03X663791I-1181J0D01*
G01X667728D02*
G03X667728I-1181J0D01*
G01X671665D02*
G03X671665I-1181J0D01*
G01X675602D02*
G03X675602I-1181J0D01*
G01X678358Y2666929D02*
G03Y2664567I-0J-1181D01*
G01X914578D02*
Y2653150D01*
X875208Y2664567D02*
Y2653150D01*
Y2664567D02*
G03Y2666929I0J1181D01*
G01X880326Y2665748D02*
G03X880326I-1181J0D01*
G01X884263D02*
G03X884263I-1181J0D01*
G01X888200D02*
G03X888200I-1181J0D01*
G01X892137D02*
G03X892137I-1181J0D01*
G01X896074D02*
G03X896074I-1181J0D01*
G01X900011D02*
G03X900011I-1181J0D01*
G01X903948D02*
G03X903948I-1181J0D01*
G01X907885D02*
G03X907885I-1181J0D01*
G01X911822D02*
G03X911822I-1181J0D01*
G01X914578Y2666929D02*
G03Y2664567I0J-1181D01*
G01X402767Y2653150D02*
X205917D01*
X638988D02*
X442137D01*
X875208D02*
X678358D01*
X530720Y2879528D02*
X530788D01*
X533015D02*
X548110D01*
X530720Y2907087D02*
X530788D01*
X533015D02*
X548110D01*
X533082Y2905118D02*
G03X533082I-1181J0D01*
G01Y2901181D02*
G03X533082I-1181J0D01*
G01Y2897244D02*
G03X533082I-1181J0D01*
G01Y2893307D02*
G03X533082I-1181J0D01*
G01Y2889370D02*
G03X533082I-1181J0D01*
G01Y2885433D02*
G03X533082I-1181J0D01*
G01Y2881496D02*
G03X533082I-1181J0D01*
G01X530788Y2907087D02*
G03X533015I1113J394D01*
G01Y2879528D02*
G03X530787Y2879526I-1114J-394D01*
G01X550405Y2879528D02*
X550338D01*
X550405Y2907087D02*
X550338D01*
X550405Y2905118D02*
G03X550405I-1181J0D01*
G01Y2901181D02*
G03X550405I-1181J0D01*
G01Y2897244D02*
G03X550405I-1181J0D01*
G01Y2893307D02*
G03X550405I-1181J0D01*
G01Y2889370D02*
G03X550405I-1181J0D01*
G01Y2885433D02*
G03X550405I-1181J0D01*
G01Y2881496D02*
G03X550405I-1181J0D01*
G01X548110Y2907087D02*
G03X550338I1114J394D01*
G01X550337Y2879528D02*
G03X548110Y2879526I-1113J-394D01*
G01X766941Y2879528D02*
X767008D01*
X769235D02*
X784331D01*
X766941Y2907087D02*
X767008D01*
X769235D02*
X784331D01*
X769303Y2905118D02*
G03X769303I-1181J0D01*
G01Y2901181D02*
G03X769303I-1181J0D01*
G01Y2897244D02*
G03X769303I-1181J0D01*
G01Y2893307D02*
G03X769303I-1181J0D01*
G01Y2889370D02*
G03X769303I-1181J0D01*
G01Y2885433D02*
G03X769303I-1181J0D01*
G01Y2881496D02*
G03X769303I-1181J0D01*
G01X767008Y2907087D02*
G03X769235I1114J394D01*
G01Y2879528D02*
G03X767008Y2879526I-1113J-394D01*
G01X786626Y2879528D02*
X786558D01*
X786626Y2907087D02*
X786558D01*
X786626Y2905118D02*
G03X786626I-1181J0D01*
G01Y2901181D02*
G03X786626I-1181J0D01*
G01Y2897244D02*
G03X786626I-1181J0D01*
G01Y2893307D02*
G03X786626I-1181J0D01*
G01Y2889370D02*
G03X786626I-1181J0D01*
G01Y2885433D02*
G03X786626I-1181J0D01*
G01Y2881496D02*
G03X786626I-1181J0D01*
G01X784331Y2907087D02*
G03X786558I1114J394D01*
G01Y2879528D02*
G03X784330Y2879526I-1113J-394D01*
G01X1003161Y2879528D02*
X1003229D01*
X1005456D02*
X1016941D01*
X1003161Y2907087D02*
X1003229D01*
X1005456D02*
X1016941D01*
X1005523Y2905118D02*
G03X1005523I-1181J0D01*
G01Y2901181D02*
G03X1005523I-1181J0D01*
G01Y2897244D02*
G03X1005523I-1181J0D01*
G01Y2893307D02*
G03X1005523I-1181J0D01*
G01Y2889370D02*
G03X1005523I-1181J0D01*
G01Y2885433D02*
G03X1005523I-1181J0D01*
G01Y2881496D02*
G03X1005523I-1181J0D01*
G01X1003229Y2907087D02*
G03X1005456I1113J394D01*
G01Y2879528D02*
G03X1003228Y2879526I-1114J-394D01*
G01X1016941Y2907087D02*
Y3039370D01*
X528358Y2712205D02*
X528425D01*
X530653D02*
X550473D01*
X552700D02*
X552767D01*
X528358Y2731890D02*
X528425D01*
X530653D02*
X550473D01*
X552700D02*
X552767D01*
X528425Y2712205D02*
X528358D01*
X528425Y2731890D02*
X528358D01*
X530720Y2729921D02*
G03X530720I-1181J0D01*
G01Y2725984D02*
G03X530720I-1181J0D01*
G01Y2722047D02*
G03X530720I-1181J0D01*
G01Y2718110D02*
G03X530720I-1181J0D01*
G01Y2714173D02*
G03X530720I-1181J0D01*
G01X528425Y2731890D02*
G03X530653I1114J394D01*
G01X530652Y2712205D02*
G03X528425Y2712203I-1113J-394D01*
G01X552700Y2712205D02*
X552767D01*
X552700Y2731890D02*
X552767D01*
Y2729921D02*
G03X552767I-1181J0D01*
G01Y2725984D02*
G03X552767I-1181J0D01*
G01Y2722047D02*
G03X552767I-1181J0D01*
G01Y2718110D02*
G03X552767I-1181J0D01*
G01Y2714173D02*
G03X552767I-1181J0D01*
G01X550473Y2731890D02*
G03X552700I1113J394D01*
G01Y2712205D02*
G03X550472Y2712203I-1114J-394D01*
G01X1000799Y2712205D02*
X1000866D01*
X1003094D02*
X1016941D01*
X1000799Y2731890D02*
X1000866D01*
X1003094D02*
X1016941D01*
X1000866Y2712205D02*
X1000799D01*
X1000866Y2731890D02*
X1000799D01*
X1003161Y2729921D02*
G03X1003161I-1181J0D01*
G01Y2725984D02*
G03X1003161I-1181J0D01*
G01Y2722047D02*
G03X1003161I-1181J0D01*
G01Y2718110D02*
G03X1003161I-1181J0D01*
G01Y2714173D02*
G03X1003161I-1181J0D01*
G01X1000866Y2731890D02*
G03X1003094I1114J394D01*
G01X1003093Y2712205D02*
G03X1000866Y2712203I-1113J-394D01*
G01X1016941Y2731890D02*
Y2879528D01*
X72059Y3059055D02*
G03X72059I-7874J0D01*
G01Y2633465D02*
G03X72059I-7874J0D01*
G01X1024815D02*
G03X1024815I-7874J0D01*
G01Y3059055D02*
G03X1024815I-7874J0D01*
G01X1003161D02*
G03X1003161I-5905J0D01*
G01X999224D02*
G03X999224I-1968J0D01*
G01X1003161Y2633465D02*
G03X1003161I-5905J0D01*
G01X999224D02*
G03X999224I-1968J0D01*
G01X89775Y3059055D02*
G03X89775I-5905J0D01*
G01X85838D02*
G03X85838I-1968J0D01*
G01X89775Y2633465D02*
G03X89775I-5905J0D01*
G01X85838D02*
G03X85838I-1968J0D01*
G01X997256Y3059055D02*
Y3199950D01*
X1036626Y3085112D02*
Y3199950D01*
X987413Y3196013D02*
X977571D01*
X1046468D02*
X1056311D01*
X987413Y3197653D02*
Y3194373D01*
X997256Y3196013*
X997256*
X987413Y3197653*
X1046468D02*
Y3194373D01*
X1036626Y3196013*
X1036626*
X1046468Y3197653*
X1039382Y3078740D02*
X1074535D01*
X1039382Y2613780D02*
X1074535D01*
X1070598Y3068898D02*
Y2867913D01*
Y2623622D02*
Y2824606D01*
X1068958Y3068898D02*
X1072239D01*
X1070598Y3078740*
X1070598*
X1068958Y3068898*
Y2623622D02*
X1072239D01*
X1070598Y2613780*
X1070598*
X1068958Y2623622*
X1039382Y2613780D02*
X1058303D01*
X1019696Y2653150D02*
X1058303D01*
X1054366Y2603937D02*
Y2594095D01*
Y2662992D02*
Y2672835D01*
X1052726Y2603937D02*
X1056007D01*
X1054366Y2613780*
X1054366*
X1052726Y2603937*
Y2662992D02*
X1056007D01*
X1054366Y2653150*
X1054366*
X1052726Y2662992*
X61429Y3059055D02*
X50D01*
X41744Y3078740D02*
X50D01*
X3987Y3049213D02*
Y3039370D01*
Y3088583D02*
Y3098425D01*
X2347Y3049213D02*
X5627D01*
X3987Y3059055*
X3987*
X2347Y3049213*
Y3088583D02*
X5627D01*
X3987Y3078740*
X3987*
X2347Y3088583*
X44500Y3081496D02*
Y3117397D01*
X64185Y3061811D02*
Y3117397D01*
X34657Y3113460D02*
X24815D01*
X74027D02*
X83870D01*
X34657Y3115101D02*
Y3111820D01*
X44500Y3113460*
X44500*
X34657Y3115101*
X74027D02*
Y3111820D01*
X64185Y3113460*
X64185*
X74027Y3115101*
X509360Y2659055D02*
X477571D01*
X367334D02*
X335544D01*
X477571Y2666929D02*
X367334D01*
X315279Y2708268D02*
X317437D01*
X314185Y2735827D02*
X317437D01*
X526299Y2982196D02*
X524827Y2981689D01*
X308279Y2772441D02*
Y2787008D01*
Y2805118D02*
Y2819291D01*
Y2926772D02*
Y2930118D01*
Y2943898D02*
Y2948425D01*
X314185Y2926772D02*
Y2865748D01*
Y2838189D02*
Y2819291D01*
Y2772441D02*
Y2761024D01*
Y2750788D02*
Y2735827D01*
X316153Y2838189D02*
Y2865748D01*
X317437Y2708268D02*
Y2735827D01*
X528752Y2759055D02*
X528358D01*
X314185Y2772441D02*
X308279D01*
X497769Y3024234D02*
X499674Y3026201D01*
X530720Y2787008D02*
X528752D01*
X536626Y2791339D02*
X530720D01*
X367334Y2659055D02*
Y2666929D01*
X308279Y2819291D02*
X314185D01*
X530720D02*
X536626D01*
X394893Y3028740D02*
Y3033465D01*
X530720Y2838189D02*
X528752D01*
X314185D02*
X316153D01*
X530720Y2865748D02*
X528752D01*
X314185D02*
X316153D01*
X454342Y3033465D02*
Y3028740D01*
X477571Y2659055D02*
Y2666929D01*
X530720Y2920866D02*
X528752D01*
X314185Y2926772D02*
X308279D01*
X530702Y2948425D02*
X528752D01*
X308279D02*
X314203D01*
X528358Y2759055D02*
Y2701129D01*
X528752Y2948425D02*
Y2920866D01*
Y2865748D02*
Y2838189D01*
Y2787008D02*
Y2759055D01*
X530720Y2787008D02*
Y2791339D01*
Y2819291D02*
Y2838189D01*
Y2865748D02*
Y2920866D01*
X536626Y2819291D02*
Y2815748D01*
Y2796063D02*
Y2791339D01*
X454342Y3028740D02*
X394893D01*
X486885Y3033465D02*
X454342D01*
X358020D02*
X394893D01*
X509372Y2659070D02*
G03X528354Y2701112I-86920J64552D01*
G01X315292Y2708180D02*
G03X335646Y2658919I107160J15442D01*
G01X511854Y3015555D02*
G03X502350Y3026354I-89402J-69098D01*
G01X527520Y2984698D02*
G03X521899Y2997565I-105068J-38241D01*
G01X520389Y2998750D02*
G03X511468Y3012807I-97937J-52293D01*
G01X530704Y2948346D02*
G03X524883Y2981527I-108252J-1889D01*
G01X358052Y3033489D02*
G03X314205Y2948535I64400J-87032D01*
G01X497797Y3024207D02*
G03X486853Y3033489I-75345J-77750D01*
G01X521852Y2997656D02*
G03X520419Y2998697I-1752J-904D01*
G01X526300Y2982196D02*
G03X527509Y2984731I-641J1861D01*
G01X502483Y3026221D02*
G03X499674Y3026201I-1395J-1390D01*
G01X511525Y3012699D02*
G03X511911Y3015481I-1173J1581D01*
G01X571765Y2659055D02*
X603555D01*
X713791D02*
X745581D01*
X603555Y2666929D02*
X713791D01*
X544500Y2819291D02*
Y2791339D01*
X550405Y2920866D02*
Y2865748D01*
Y2838189D02*
Y2819291D01*
Y2791339D02*
Y2787008D01*
X552374Y2948425D02*
Y2920866D01*
Y2865748D02*
Y2838189D01*
Y2787008D02*
Y2759055D01*
X552767D02*
Y2701129D01*
X765846Y2708268D02*
X763688D01*
X766941Y2735827D02*
X763688D01*
X603555Y2659055D02*
Y2666929D01*
X626783Y3033465D02*
Y3028740D01*
X552374Y2759055D02*
X552767D01*
X766941Y2772441D02*
X772846D01*
X550405Y2787008D02*
X552374D01*
X544500Y2791339D02*
X550405D01*
X686232Y3028740D02*
Y3033465D01*
X772846Y2819291D02*
X766941D01*
X550405D02*
X544500D01*
X713791Y2659055D02*
Y2666929D01*
X766941Y2838189D02*
X764972D01*
X550405D02*
X552374D01*
X766941Y2865748D02*
X764972D01*
X550405D02*
X552374D01*
X583356Y3024234D02*
X581451Y3026201D01*
X763688Y2708268D02*
Y2735827D01*
X764972Y2838189D02*
Y2865748D01*
X766941Y2735827D02*
Y2772441D01*
Y2819291D02*
Y2838189D01*
Y2865748D02*
Y2926772D01*
X772846Y2772441D02*
Y2819291D01*
Y2926772D02*
Y2948425D01*
X550405Y2920866D02*
X552374D01*
X766941Y2926772D02*
X772846D01*
X554826Y2982196D02*
X556298Y2981689D01*
X772846Y2948425D02*
X766923D01*
X550423D02*
X552374D01*
X626783Y3028740D02*
X686232D01*
X723105Y3033465D02*
X686232D01*
X594241D02*
X626783D01*
X560708Y2998698D02*
G03X559274Y2997657I315J-1944D01*
G01X553617Y2984731D02*
G03X554826Y2982196I1849J-674D01*
G01X569216Y3015483D02*
G03X569597Y3012701I1558J-1203D01*
G01X581451Y3026202D02*
G03X578643Y3026221I-1414J-1370D01*
G01X745592Y2659070D02*
G03X765860Y2708367I-86919J64552D01*
G01X552771Y2701112D02*
G03X571754Y2659070I105902J22510D01*
G01X578636Y3026215D02*
G03X569150Y3015398I80037J-79758D01*
G01X559316Y2997739D02*
G03X553672Y2984882I99357J-51282D01*
G01X569541Y3012652D02*
G03X567395Y3009660I89132J-66195D01*
G01X562043Y3001127D02*
G03X560736Y2998750I96630J-54670D01*
G01X594273Y3033489D02*
G03X583328Y3024207I64400J-87032D01*
G01X766924Y2948346D02*
G03X723225Y3033376I-108251J-1889D01*
G01X556304Y2981705D02*
G03X550425Y2948535I102369J-35248D01*
G01X981801Y2659055D02*
X950011D01*
X839775D02*
X807985D01*
X950011Y2666929D02*
X839775D01*
X787720Y2708268D02*
X789878D01*
X786626Y2735827D02*
X789878D01*
X998740Y2982196D02*
X997268Y2981689D01*
X780720Y2772441D02*
Y2787008D01*
Y2805118D02*
Y2819291D01*
Y2926772D02*
Y2930118D01*
Y2943898D02*
Y2948425D01*
X786626Y2926772D02*
Y2865748D01*
Y2838189D02*
Y2819291D01*
Y2772441D02*
Y2761024D01*
Y2750788D02*
Y2735827D01*
X788594Y2838189D02*
Y2865748D01*
X789878Y2708268D02*
Y2735827D01*
X1001193Y2759055D02*
X1000799D01*
X786626Y2772441D02*
X780720D01*
X970210Y3024234D02*
X972115Y3026201D01*
X1003161Y2787008D02*
X1001193D01*
X1009067Y2791339D02*
X1003161D01*
X839775Y2659055D02*
Y2666929D01*
X780720Y2819291D02*
X786626D01*
X1003161D02*
X1009067D01*
X867334Y3028740D02*
Y3033465D01*
X1003161Y2838189D02*
X1001193D01*
X786626D02*
X788594D01*
X1003161Y2865748D02*
X1001193D01*
X786626D02*
X788594D01*
X926783Y3033465D02*
Y3028740D01*
X950011Y2659055D02*
Y2666929D01*
X1003161Y2920866D02*
X1001193D01*
X786626Y2926772D02*
X780720D01*
X1003143Y2948425D02*
X1001193D01*
X780720D02*
X786644D01*
X1000799Y2759055D02*
Y2701129D01*
X1001193Y2948425D02*
Y2920866D01*
Y2865748D02*
Y2838189D01*
Y2787008D02*
Y2759055D01*
X1003161Y2787008D02*
Y2791339D01*
Y2819291D02*
Y2838189D01*
Y2865748D02*
Y2920866D01*
X1009067Y2819291D02*
Y2815748D01*
Y2796063D02*
Y2791339D01*
X926783Y3028740D02*
X867334D01*
X959326Y3033465D02*
X926783D01*
X830461D02*
X867334D01*
X981813Y2659070D02*
G03X1000795Y2701112I-86920J64552D01*
G01X787733Y2708180D02*
G03X808087Y2658919I107160J15442D01*
G01X984295Y3015555D02*
G03X974791Y3026354I-89402J-69098D01*
G01X999961Y2984698D02*
G03X994340Y2997565I-105068J-38241D01*
G01X992830Y2998750D02*
G03X983909Y3012807I-97937J-52293D01*
G01X1003145Y2948346D02*
G03X997324Y2981527I-108252J-1889D01*
G01X830493Y3033489D02*
G03X786646Y2948535I64400J-87032D01*
G01X970238Y3024207D02*
G03X959293Y3033489I-75345J-77750D01*
G01X994293Y2997656D02*
G03X992860Y2998697I-1752J-904D01*
G01X998741Y2982196D02*
G03X999950Y2984731I-641J1861D01*
G01X974924Y3026221D02*
G03X972115Y3026201I-1395J-1390D01*
G01X983966Y3012699D02*
G03X984352Y3015481I-1173J1581D01*
G01X99324Y2659055D02*
X131114D01*
X241350D02*
X273140D01*
X131114Y2666929D02*
X241350D01*
X72059Y2819291D02*
Y2791339D01*
X77964Y2920866D02*
Y2865748D01*
Y2838189D02*
Y2819291D01*
Y2791339D02*
Y2787008D01*
X79933Y2948425D02*
Y2920866D01*
Y2865748D02*
Y2838189D01*
Y2787008D02*
Y2759055D01*
X80326D02*
Y2701129D01*
X293405Y2708268D02*
X291247D01*
X294500Y2735827D02*
X291247D01*
X131114Y2659055D02*
Y2666929D01*
X154342Y3033465D02*
Y3028740D01*
X79933Y2759055D02*
X80326D01*
X294500Y2772441D02*
X300405D01*
X77964Y2787008D02*
X79933D01*
X72059Y2791339D02*
X77964D01*
X213791Y3028740D02*
Y3033465D01*
X300405Y2819291D02*
X294500D01*
X77964D02*
X72059D01*
X241350Y2659055D02*
Y2666929D01*
X294500Y2838189D02*
X292531D01*
X77964D02*
X79933D01*
X294500Y2865748D02*
X292531D01*
X77964D02*
X79933D01*
X110915Y3024234D02*
X109010Y3026201D01*
X291247Y2708268D02*
Y2735827D01*
X292531Y2838189D02*
Y2865748D01*
X294500Y2735827D02*
Y2772441D01*
Y2819291D02*
Y2838189D01*
Y2865748D02*
Y2926772D01*
X300405Y2772441D02*
Y2819291D01*
Y2926772D02*
Y2948425D01*
X77964Y2920866D02*
X79933D01*
X294500Y2926772D02*
X300405D01*
X82385Y2982196D02*
X83857Y2981689D01*
X300405Y2948425D02*
X294482D01*
X77982D02*
X79933D01*
X154342Y3028740D02*
X213791D01*
X250664Y3033465D02*
X213791D01*
X121800D02*
X154342D01*
X88267Y2998698D02*
G03X86833Y2997657I315J-1944D01*
G01X81176Y2984731D02*
G03X82385Y2982196I1849J-674D01*
G01X96775Y3015483D02*
G03X97156Y3012701I1558J-1203D01*
G01X109010Y3026202D02*
G03X106202Y3026221I-1414J-1370D01*
G01X273151Y2659070D02*
G03X293420Y2708367I-86919J64552D01*
G01X80330Y2701112D02*
G03X99313Y2659070I105902J22510D01*
G01X106195Y3026215D02*
G03X96709Y3015398I80037J-79758D01*
G01X86875Y2997739D02*
G03X81231Y2984882I99357J-51282D01*
G01X97100Y3012652D02*
G03X94955Y3009660I89132J-66195D01*
G01X89602Y3001127D02*
G03X88295Y2998750I96630J-54670D01*
G01X121832Y3033489D02*
G03X110887Y3024207I64400J-87032D01*
G01X294483Y2948346D02*
G03X250784Y3033376I-108251J-1889D01*
G01X83863Y2981705D02*
G03X77984Y2948535I102369J-35248D01*
G01X1009067Y2815748D02*
Y2796063D01*
X780720Y2805118D02*
Y2787008D01*
X536626Y2815748D02*
Y2796063D01*
X308279Y2805118D02*
Y2787008D01*
X314185Y2761024D02*
Y2750788D01*
X786626Y2761024D02*
Y2750788D01*
X780720Y2943898D02*
Y2930118D01*
X308279Y2943898D02*
Y2930118D01*
X97100Y3012652D02*
G03X88204Y2998579I89132J-66195D01*
G01X569541Y3012652D02*
G03X560645Y2998579I89132J-66195D01*
G01X78567Y3069612D02*
X70336Y3063971D01*
X76292Y3071976*
X76292*
X78567Y3069612*
X648846Y3039178D02*
X652571Y3029921D01*
X646045Y3037470*
X646045*
X648846Y3039178*
X993535Y3068314D02*
X997256Y3059055D01*
X990734Y3066607*
X990734*
X993535Y3068314*
X992134Y3067461D02*
X968435Y3106359D01*
X680496*
X647445Y3038324D02*
X561298Y3179567D01*
X516103*
X77429Y3070794D02*
X162482Y3152606D01*
X183218*
X296804Y2879528D02*
X311899D01*
X296804Y2907087D02*
X311899D01*
X296871Y2905118D02*
G03X296871I-1181J0D01*
G01Y2901181D02*
G03X296871I-1181J0D01*
G01Y2897244D02*
G03X296871I-1181J0D01*
G01Y2893307D02*
G03X296871I-1181J0D01*
G01Y2889370D02*
G03X296871I-1181J0D01*
G01Y2885433D02*
G03X296871I-1181J0D01*
G01Y2881496D02*
G03X296871I-1181J0D01*
G01X294577Y2907086D02*
G03X296804Y2907088I1113J394D01*
G01X296803Y2879528D02*
G03X294576Y2879526I-1113J-394D01*
G01X314194Y2905118D02*
G03X314194I-1181J0D01*
G01Y2901181D02*
G03X314194I-1181J0D01*
G01Y2897244D02*
G03X314194I-1181J0D01*
G01Y2893307D02*
G03X314194I-1181J0D01*
G01Y2889370D02*
G03X314194I-1181J0D01*
G01Y2885433D02*
G03X314194I-1181J0D01*
G01Y2881496D02*
G03X314194I-1181J0D01*
G01X311900Y2907086D02*
G03X314127Y2907088I1113J394D01*
G01X314126Y2879528D02*
G03X311899Y2879526I-1113J-394D01*
G74*
G01X0Y0D02*
M02*
