G75*
%MOIN*%
%OFA0B0*%
%FSLAX24Y24*%
%IPPOS*%
%LPD*%
%AMOC8*
5,1,8,0,0,1.08239X$1,22.5*
%
%ADD10C,0.0000*%
%ADD11C,0.0079*%
%ADD12C,0.0030*%
%ADD13C,0.0039*%
%ADD14C,0.0080*%
%ADD15C,0.0060*%
%ADD16C,0.0050*%
%ADD17C,0.0100*%
%ADD18R,0.1440X0.0080*%
%ADD19R,0.0060X0.0090*%
%ADD20R,0.0059X0.0118*%
%ADD21R,0.0118X0.0118*%
%ADD22C,0.0040*%
%ADD23C,0.0070*%
%ADD24R,0.4030X0.0010*%
%ADD25R,0.1910X0.0010*%
%ADD26R,0.0150X0.0010*%
%ADD27R,0.0660X0.0010*%
%ADD28R,0.0040X0.0010*%
%ADD29R,0.0110X0.0010*%
%ADD30R,0.0770X0.0010*%
%ADD31R,0.0640X0.0010*%
%ADD32R,0.0020X0.0010*%
%ADD33R,0.0100X0.0010*%
%ADD34R,0.0620X0.0010*%
%ADD35R,0.0090X0.0010*%
%ADD36R,0.0600X0.0010*%
%ADD37R,0.1110X0.0010*%
%ADD38R,0.0610X0.0010*%
%ADD39R,0.0010X0.0010*%
%ADD40R,0.0780X0.0010*%
%ADD41R,0.0550X0.0010*%
%ADD42R,0.1060X0.0010*%
%ADD43R,0.0080X0.0010*%
%ADD44R,0.0520X0.0010*%
%ADD45R,0.1030X0.0010*%
%ADD46R,0.0070X0.0010*%
%ADD47R,0.0060X0.0010*%
%ADD48R,0.0790X0.0010*%
%ADD49R,0.0490X0.0010*%
%ADD50R,0.1000X0.0010*%
%ADD51R,0.0460X0.0010*%
%ADD52R,0.0970X0.0010*%
%ADD53R,0.0440X0.0010*%
%ADD54R,0.0950X0.0010*%
%ADD55R,0.0800X0.0010*%
%ADD56R,0.0420X0.0010*%
%ADD57R,0.0930X0.0010*%
%ADD58R,0.0700X0.0010*%
%ADD59R,0.0030X0.0010*%
%ADD60R,0.0400X0.0010*%
%ADD61R,0.0910X0.0010*%
%ADD62R,0.0650X0.0010*%
%ADD63R,0.0390X0.0010*%
%ADD64R,0.0890X0.0010*%
%ADD65R,0.0050X0.0010*%
%ADD66R,0.0810X0.0010*%
%ADD67R,0.0370X0.0010*%
%ADD68R,0.0880X0.0010*%
%ADD69R,0.0360X0.0010*%
%ADD70R,0.0860X0.0010*%
%ADD71R,0.0590X0.0010*%
%ADD72R,0.0820X0.0010*%
%ADD73R,0.0340X0.0010*%
%ADD74R,0.0850X0.0010*%
%ADD75R,0.0580X0.0010*%
%ADD76R,0.0330X0.0010*%
%ADD77R,0.0840X0.0010*%
%ADD78R,0.0570X0.0010*%
%ADD79R,0.0160X0.0010*%
%ADD80R,0.0320X0.0010*%
%ADD81R,0.0220X0.0010*%
%ADD82R,0.0560X0.0010*%
%ADD83R,0.0830X0.0010*%
%ADD84R,0.0310X0.0010*%
%ADD85R,0.0300X0.0010*%
%ADD86R,0.0290X0.0010*%
%ADD87R,0.0280X0.0010*%
%ADD88R,0.0410X0.0010*%
%ADD89R,0.0270X0.0010*%
%ADD90R,0.0450X0.0010*%
%ADD91R,0.0260X0.0010*%
%ADD92R,0.0250X0.0010*%
%ADD93R,0.0760X0.0010*%
%ADD94R,0.0750X0.0010*%
%ADD95R,0.0140X0.0010*%
%ADD96R,0.0240X0.0010*%
%ADD97R,0.0210X0.0010*%
%ADD98R,0.2870X0.0010*%
%ADD99R,0.0230X0.0010*%
%ADD100R,0.0190X0.0010*%
%ADD101R,0.2860X0.0010*%
%ADD102R,0.0170X0.0010*%
%ADD103R,0.2850X0.0010*%
%ADD104R,0.2840X0.0010*%
%ADD105R,0.2830X0.0010*%
%ADD106R,0.0200X0.0010*%
%ADD107R,0.0130X0.0010*%
%ADD108R,0.2820X0.0010*%
%ADD109R,0.0180X0.0010*%
%ADD110R,0.0120X0.0010*%
%ADD111R,0.2810X0.0010*%
%ADD112R,0.2800X0.0010*%
%ADD113R,0.0380X0.0010*%
%ADD114R,0.0480X0.0010*%
D10*
X000150Y004791D02*
X000150Y032921D01*
X000878Y032940D02*
X000880Y032990D01*
X000886Y033040D01*
X000896Y033089D01*
X000910Y033137D01*
X000927Y033184D01*
X000948Y033229D01*
X000973Y033273D01*
X001001Y033314D01*
X001033Y033353D01*
X001067Y033390D01*
X001104Y033424D01*
X001144Y033454D01*
X001186Y033481D01*
X001230Y033505D01*
X001276Y033526D01*
X001323Y033542D01*
X001371Y033555D01*
X001421Y033564D01*
X001470Y033569D01*
X001521Y033570D01*
X001571Y033567D01*
X001620Y033560D01*
X001669Y033549D01*
X001717Y033534D01*
X001763Y033516D01*
X001808Y033494D01*
X001851Y033468D01*
X001892Y033439D01*
X001931Y033407D01*
X001967Y033372D01*
X001999Y033334D01*
X002029Y033294D01*
X002056Y033251D01*
X002079Y033207D01*
X002098Y033161D01*
X002114Y033113D01*
X002126Y033064D01*
X002134Y033015D01*
X002138Y032965D01*
X002138Y032915D01*
X002134Y032865D01*
X002126Y032816D01*
X002114Y032767D01*
X002098Y032719D01*
X002079Y032673D01*
X002056Y032629D01*
X002029Y032586D01*
X001999Y032546D01*
X001967Y032508D01*
X001931Y032473D01*
X001892Y032441D01*
X001851Y032412D01*
X001808Y032386D01*
X001763Y032364D01*
X001717Y032346D01*
X001669Y032331D01*
X001620Y032320D01*
X001571Y032313D01*
X001521Y032310D01*
X001470Y032311D01*
X001421Y032316D01*
X001371Y032325D01*
X001323Y032338D01*
X001276Y032354D01*
X001230Y032375D01*
X001186Y032399D01*
X001144Y032426D01*
X001104Y032456D01*
X001067Y032490D01*
X001033Y032527D01*
X001001Y032566D01*
X000973Y032607D01*
X000948Y032651D01*
X000927Y032696D01*
X000910Y032743D01*
X000896Y032791D01*
X000886Y032840D01*
X000880Y032890D01*
X000878Y032940D01*
X000150Y032920D02*
X000154Y032992D01*
X000163Y033064D01*
X000175Y033136D01*
X000191Y033206D01*
X000211Y033276D01*
X000234Y033344D01*
X000261Y033411D01*
X000292Y033477D01*
X000326Y033541D01*
X000363Y033603D01*
X000403Y033663D01*
X000447Y033720D01*
X000494Y033776D01*
X000543Y033828D01*
X000596Y033878D01*
X000651Y033925D01*
X000708Y033970D01*
X000768Y034011D01*
X000829Y034048D01*
X000893Y034083D01*
X000958Y034114D01*
X001025Y034141D01*
X001094Y034165D01*
X001163Y034185D01*
X001233Y034202D01*
X001305Y034215D01*
X001377Y034224D01*
X001449Y034229D01*
X001521Y034230D01*
X001593Y034227D01*
X001665Y034221D01*
X001737Y034211D01*
X001808Y034196D01*
X001878Y034179D01*
X001947Y034157D01*
X002015Y034132D01*
X002081Y034103D01*
X002146Y034071D01*
X002209Y034035D01*
X002270Y033996D01*
X002329Y033954D01*
X002385Y033909D01*
X002439Y033861D01*
X002491Y033810D01*
X002539Y033756D01*
X002585Y033700D01*
X002628Y033641D01*
X002667Y033581D01*
X002703Y033518D01*
X002736Y033454D01*
X002765Y033387D01*
X002791Y033320D01*
X002813Y033251D01*
X002831Y033181D01*
X002846Y033110D01*
X002857Y033038D01*
X002864Y032966D01*
X002867Y032894D01*
X002866Y032822D01*
X002866Y029791D01*
X036803Y029791D01*
X036803Y033058D01*
X036805Y033130D01*
X036811Y033202D01*
X036820Y033274D01*
X036834Y033345D01*
X036851Y033415D01*
X036872Y033485D01*
X036896Y033553D01*
X036924Y033619D01*
X036956Y033684D01*
X036991Y033747D01*
X037029Y033809D01*
X037071Y033868D01*
X037116Y033925D01*
X037163Y033979D01*
X037214Y034031D01*
X037267Y034080D01*
X037322Y034126D01*
X037380Y034169D01*
X037441Y034209D01*
X037503Y034246D01*
X037567Y034279D01*
X037633Y034309D01*
X037700Y034335D01*
X037769Y034358D01*
X037839Y034377D01*
X037909Y034392D01*
X037981Y034404D01*
X038053Y034412D01*
X038125Y034416D01*
X038197Y034416D01*
X038269Y034412D01*
X038341Y034404D01*
X038413Y034392D01*
X038483Y034377D01*
X038553Y034358D01*
X038622Y034335D01*
X038689Y034309D01*
X038755Y034279D01*
X038819Y034246D01*
X038881Y034209D01*
X038942Y034169D01*
X039000Y034126D01*
X039055Y034080D01*
X039108Y034031D01*
X039159Y033979D01*
X039206Y033925D01*
X039251Y033868D01*
X039293Y033809D01*
X039331Y033747D01*
X039366Y033684D01*
X039398Y033619D01*
X039426Y033553D01*
X039450Y033485D01*
X039471Y033415D01*
X039488Y033345D01*
X039502Y033274D01*
X039511Y033202D01*
X039517Y033130D01*
X039519Y033058D01*
X039520Y033058D02*
X039520Y004791D01*
X037531Y004791D02*
X037533Y004841D01*
X037539Y004891D01*
X037549Y004940D01*
X037563Y004988D01*
X037580Y005035D01*
X037601Y005080D01*
X037626Y005124D01*
X037654Y005165D01*
X037686Y005204D01*
X037720Y005241D01*
X037757Y005275D01*
X037797Y005305D01*
X037839Y005332D01*
X037883Y005356D01*
X037929Y005377D01*
X037976Y005393D01*
X038024Y005406D01*
X038074Y005415D01*
X038123Y005420D01*
X038174Y005421D01*
X038224Y005418D01*
X038273Y005411D01*
X038322Y005400D01*
X038370Y005385D01*
X038416Y005367D01*
X038461Y005345D01*
X038504Y005319D01*
X038545Y005290D01*
X038584Y005258D01*
X038620Y005223D01*
X038652Y005185D01*
X038682Y005145D01*
X038709Y005102D01*
X038732Y005058D01*
X038751Y005012D01*
X038767Y004964D01*
X038779Y004915D01*
X038787Y004866D01*
X038791Y004816D01*
X038791Y004766D01*
X038787Y004716D01*
X038779Y004667D01*
X038767Y004618D01*
X038751Y004570D01*
X038732Y004524D01*
X038709Y004480D01*
X038682Y004437D01*
X038652Y004397D01*
X038620Y004359D01*
X038584Y004324D01*
X038545Y004292D01*
X038504Y004263D01*
X038461Y004237D01*
X038416Y004215D01*
X038370Y004197D01*
X038322Y004182D01*
X038273Y004171D01*
X038224Y004164D01*
X038174Y004161D01*
X038123Y004162D01*
X038074Y004167D01*
X038024Y004176D01*
X037976Y004189D01*
X037929Y004205D01*
X037883Y004226D01*
X037839Y004250D01*
X037797Y004277D01*
X037757Y004307D01*
X037720Y004341D01*
X037686Y004378D01*
X037654Y004417D01*
X037626Y004458D01*
X037601Y004502D01*
X037580Y004547D01*
X037563Y004594D01*
X037549Y004642D01*
X037539Y004691D01*
X037533Y004741D01*
X037531Y004791D01*
X036803Y004791D02*
X036805Y004719D01*
X036811Y004647D01*
X036820Y004575D01*
X036834Y004504D01*
X036851Y004434D01*
X036872Y004364D01*
X036896Y004296D01*
X036924Y004230D01*
X036956Y004165D01*
X036991Y004102D01*
X037029Y004040D01*
X037071Y003981D01*
X037116Y003924D01*
X037163Y003870D01*
X037214Y003818D01*
X037267Y003769D01*
X037322Y003723D01*
X037380Y003680D01*
X037441Y003640D01*
X037503Y003603D01*
X037567Y003570D01*
X037633Y003540D01*
X037700Y003514D01*
X037769Y003491D01*
X037839Y003472D01*
X037909Y003457D01*
X037981Y003445D01*
X038053Y003437D01*
X038125Y003433D01*
X038197Y003433D01*
X038269Y003437D01*
X038341Y003445D01*
X038413Y003457D01*
X038483Y003472D01*
X038553Y003491D01*
X038622Y003514D01*
X038689Y003540D01*
X038755Y003570D01*
X038819Y003603D01*
X038881Y003640D01*
X038942Y003680D01*
X039000Y003723D01*
X039055Y003769D01*
X039108Y003818D01*
X039159Y003870D01*
X039206Y003924D01*
X039251Y003981D01*
X039293Y004040D01*
X039331Y004102D01*
X039366Y004165D01*
X039398Y004230D01*
X039426Y004296D01*
X039450Y004364D01*
X039471Y004434D01*
X039488Y004504D01*
X039502Y004575D01*
X039511Y004647D01*
X039517Y004719D01*
X039519Y004791D01*
X036803Y004791D02*
X036803Y007212D01*
X037039Y007212D01*
X037039Y007901D01*
X002866Y007901D01*
X002866Y004732D01*
X002867Y004731D02*
X002863Y004659D01*
X002856Y004587D01*
X002845Y004516D01*
X002830Y004445D01*
X002811Y004375D01*
X002789Y004306D01*
X002763Y004239D01*
X002733Y004173D01*
X002700Y004108D01*
X002664Y004046D01*
X002624Y003985D01*
X002581Y003927D01*
X002535Y003871D01*
X002486Y003818D01*
X002435Y003767D01*
X002380Y003719D01*
X002324Y003674D01*
X002265Y003632D01*
X002204Y003594D01*
X002141Y003558D01*
X002076Y003526D01*
X002009Y003498D01*
X001941Y003473D01*
X001872Y003452D01*
X001802Y003434D01*
X001731Y003420D01*
X001659Y003410D01*
X001587Y003404D01*
X001515Y003402D01*
X001442Y003404D01*
X001370Y003409D01*
X001298Y003418D01*
X001227Y003431D01*
X001157Y003448D01*
X001087Y003469D01*
X001019Y003493D01*
X000953Y003521D01*
X000887Y003552D01*
X000824Y003587D01*
X000762Y003625D01*
X000703Y003666D01*
X000646Y003711D01*
X000591Y003758D01*
X000539Y003808D01*
X000490Y003861D01*
X000443Y003917D01*
X000400Y003974D01*
X000359Y004035D01*
X000322Y004097D01*
X000289Y004161D01*
X000259Y004226D01*
X000232Y004294D01*
X000209Y004362D01*
X000189Y004432D01*
X000174Y004503D01*
X000162Y004574D01*
X000154Y004646D01*
X000150Y004718D01*
X000149Y004791D01*
X000878Y004791D02*
X000880Y004841D01*
X000886Y004891D01*
X000896Y004940D01*
X000910Y004988D01*
X000927Y005035D01*
X000948Y005080D01*
X000973Y005124D01*
X001001Y005165D01*
X001033Y005204D01*
X001067Y005241D01*
X001104Y005275D01*
X001144Y005305D01*
X001186Y005332D01*
X001230Y005356D01*
X001276Y005377D01*
X001323Y005393D01*
X001371Y005406D01*
X001421Y005415D01*
X001470Y005420D01*
X001521Y005421D01*
X001571Y005418D01*
X001620Y005411D01*
X001669Y005400D01*
X001717Y005385D01*
X001763Y005367D01*
X001808Y005345D01*
X001851Y005319D01*
X001892Y005290D01*
X001931Y005258D01*
X001967Y005223D01*
X001999Y005185D01*
X002029Y005145D01*
X002056Y005102D01*
X002079Y005058D01*
X002098Y005012D01*
X002114Y004964D01*
X002126Y004915D01*
X002134Y004866D01*
X002138Y004816D01*
X002138Y004766D01*
X002134Y004716D01*
X002126Y004667D01*
X002114Y004618D01*
X002098Y004570D01*
X002079Y004524D01*
X002056Y004480D01*
X002029Y004437D01*
X001999Y004397D01*
X001967Y004359D01*
X001931Y004324D01*
X001892Y004292D01*
X001851Y004263D01*
X001808Y004237D01*
X001763Y004215D01*
X001717Y004197D01*
X001669Y004182D01*
X001620Y004171D01*
X001571Y004164D01*
X001521Y004161D01*
X001470Y004162D01*
X001421Y004167D01*
X001371Y004176D01*
X001323Y004189D01*
X001276Y004205D01*
X001230Y004226D01*
X001186Y004250D01*
X001144Y004277D01*
X001104Y004307D01*
X001067Y004341D01*
X001033Y004378D01*
X001001Y004417D01*
X000973Y004458D01*
X000948Y004502D01*
X000927Y004547D01*
X000910Y004594D01*
X000896Y004642D01*
X000886Y004691D01*
X000880Y004741D01*
X000878Y004791D01*
X001823Y012094D02*
X001823Y028432D01*
X012158Y028432D01*
X012158Y012094D01*
X001823Y012094D01*
X014597Y009397D02*
X014599Y009418D01*
X014604Y009438D01*
X014613Y009457D01*
X014625Y009474D01*
X014640Y009489D01*
X014657Y009501D01*
X014676Y009510D01*
X014696Y009515D01*
X014717Y009517D01*
X014738Y009515D01*
X014758Y009510D01*
X014777Y009501D01*
X014794Y009489D01*
X014809Y009474D01*
X014821Y009457D01*
X014830Y009438D01*
X014835Y009418D01*
X014837Y009397D01*
X037531Y032921D02*
X037533Y032971D01*
X037539Y033021D01*
X037549Y033070D01*
X037563Y033118D01*
X037580Y033165D01*
X037601Y033210D01*
X037626Y033254D01*
X037654Y033295D01*
X037686Y033334D01*
X037720Y033371D01*
X037757Y033405D01*
X037797Y033435D01*
X037839Y033462D01*
X037883Y033486D01*
X037929Y033507D01*
X037976Y033523D01*
X038024Y033536D01*
X038074Y033545D01*
X038123Y033550D01*
X038174Y033551D01*
X038224Y033548D01*
X038273Y033541D01*
X038322Y033530D01*
X038370Y033515D01*
X038416Y033497D01*
X038461Y033475D01*
X038504Y033449D01*
X038545Y033420D01*
X038584Y033388D01*
X038620Y033353D01*
X038652Y033315D01*
X038682Y033275D01*
X038709Y033232D01*
X038732Y033188D01*
X038751Y033142D01*
X038767Y033094D01*
X038779Y033045D01*
X038787Y032996D01*
X038791Y032946D01*
X038791Y032896D01*
X038787Y032846D01*
X038779Y032797D01*
X038767Y032748D01*
X038751Y032700D01*
X038732Y032654D01*
X038709Y032610D01*
X038682Y032567D01*
X038652Y032527D01*
X038620Y032489D01*
X038584Y032454D01*
X038545Y032422D01*
X038504Y032393D01*
X038461Y032367D01*
X038416Y032345D01*
X038370Y032327D01*
X038322Y032312D01*
X038273Y032301D01*
X038224Y032294D01*
X038174Y032291D01*
X038123Y032292D01*
X038074Y032297D01*
X038024Y032306D01*
X037976Y032319D01*
X037929Y032335D01*
X037883Y032356D01*
X037839Y032380D01*
X037797Y032407D01*
X037757Y032437D01*
X037720Y032471D01*
X037686Y032508D01*
X037654Y032547D01*
X037626Y032588D01*
X037601Y032632D01*
X037580Y032677D01*
X037563Y032724D01*
X037549Y032772D01*
X037539Y032821D01*
X037533Y032871D01*
X037531Y032921D01*
D11*
X036803Y031110D02*
X039520Y031110D01*
X039520Y006661D02*
X036803Y006661D01*
X002866Y006582D02*
X000150Y006582D01*
X000169Y031110D02*
X002866Y031110D01*
D12*
X012684Y024969D02*
X012684Y024775D01*
X012733Y024727D01*
X012829Y024727D01*
X012878Y024775D01*
X012878Y024872D01*
X012781Y024872D01*
X012684Y024969D02*
X012733Y025017D01*
X012829Y025017D01*
X012878Y024969D01*
X012979Y025017D02*
X013173Y024727D01*
X013173Y025017D01*
X013274Y025017D02*
X013419Y025017D01*
X013467Y024969D01*
X013467Y024775D01*
X013419Y024727D01*
X013274Y024727D01*
X013274Y025017D01*
X012979Y025017D02*
X012979Y024727D01*
X013964Y024872D02*
X014157Y024872D01*
X014259Y024872D02*
X014355Y024920D01*
X014404Y024920D01*
X014452Y024872D01*
X014452Y024775D01*
X014404Y024727D01*
X014307Y024727D01*
X014259Y024775D01*
X014259Y024872D02*
X014259Y025017D01*
X014452Y025017D01*
X014553Y025017D02*
X014553Y024824D01*
X014650Y024727D01*
X014747Y024824D01*
X014747Y025017D01*
X014061Y024969D02*
X014061Y024775D01*
X015704Y024826D02*
X015995Y024826D01*
X015704Y024632D01*
X015995Y024632D01*
X015995Y024435D02*
X015849Y024435D01*
X015753Y024531D01*
X015704Y024531D01*
X015849Y024435D02*
X015753Y024338D01*
X015704Y024338D01*
X015753Y024237D02*
X015704Y024188D01*
X015704Y024092D01*
X015753Y024043D01*
X015801Y024043D01*
X015849Y024092D01*
X015849Y024188D01*
X015898Y024237D01*
X015946Y024237D01*
X015995Y024188D01*
X015995Y024092D01*
X015946Y024043D01*
X015995Y023942D02*
X015704Y023942D01*
X015849Y023942D02*
X015849Y023749D01*
X015704Y023749D02*
X015995Y023749D01*
X016590Y023749D02*
X016590Y023894D01*
X016638Y023942D01*
X016832Y023942D01*
X016880Y023894D01*
X016880Y023749D01*
X016590Y023749D01*
X016590Y024043D02*
X016590Y024140D01*
X016590Y024092D02*
X016880Y024092D01*
X016880Y024140D02*
X016880Y024043D01*
X016832Y024240D02*
X016880Y024288D01*
X016880Y024385D01*
X016832Y024433D01*
X016784Y024433D01*
X016735Y024385D01*
X016735Y024288D01*
X016687Y024240D01*
X016638Y024240D01*
X016590Y024288D01*
X016590Y024385D01*
X016638Y024433D01*
X016590Y024534D02*
X016590Y024679D01*
X016638Y024728D01*
X016735Y024728D01*
X016784Y024679D01*
X016784Y024534D01*
X016880Y024534D02*
X016590Y024534D01*
X015995Y024976D02*
X015995Y025072D01*
X015946Y025121D01*
X015995Y024976D02*
X015946Y024927D01*
X015753Y024927D01*
X015704Y024976D01*
X015704Y025072D01*
X015753Y025121D01*
X017358Y025072D02*
X017358Y024976D01*
X017406Y024927D01*
X017600Y024927D01*
X017648Y024976D01*
X017648Y025072D01*
X017600Y025121D01*
X017406Y025121D02*
X017358Y025072D01*
X017358Y024826D02*
X017648Y024826D01*
X017358Y024632D01*
X017648Y024632D01*
X017648Y024435D02*
X017503Y024435D01*
X017406Y024531D01*
X017358Y024531D01*
X017503Y024435D02*
X017406Y024338D01*
X017358Y024338D01*
X017406Y024237D02*
X017358Y024188D01*
X017358Y024092D01*
X017406Y024043D01*
X017455Y024043D01*
X017503Y024092D01*
X017503Y024188D01*
X017551Y024237D01*
X017600Y024237D01*
X017648Y024188D01*
X017648Y024092D01*
X017600Y024043D01*
X017551Y023942D02*
X017358Y023942D01*
X017551Y023942D02*
X017648Y023845D01*
X017551Y023749D01*
X017358Y023749D01*
X018145Y023797D02*
X018194Y023749D01*
X018387Y023749D01*
X018435Y023797D01*
X018435Y023894D01*
X018387Y023942D01*
X018339Y024043D02*
X018145Y024237D01*
X018145Y024043D02*
X018435Y024043D01*
X018290Y024092D02*
X018435Y024237D01*
X018787Y024150D02*
X018787Y024053D01*
X018836Y024004D01*
X019029Y024004D01*
X019078Y024053D01*
X019078Y024150D01*
X019029Y024198D01*
X018932Y024299D02*
X018932Y024493D01*
X018787Y024444D02*
X018932Y024299D01*
X018836Y024198D02*
X018787Y024150D01*
X018787Y024444D02*
X019078Y024444D01*
X019772Y024512D02*
X019772Y024319D01*
X019820Y024218D02*
X019772Y024169D01*
X019772Y024073D01*
X019820Y024024D01*
X020013Y024024D01*
X020062Y024073D01*
X020062Y024169D01*
X020013Y024218D01*
X020013Y024319D02*
X020062Y024319D01*
X020013Y024319D02*
X019820Y024512D01*
X019772Y024512D01*
X018194Y023942D02*
X018145Y023894D01*
X018145Y023797D01*
X016460Y022377D02*
X016460Y022087D01*
X016363Y022087D02*
X016557Y022087D01*
X016363Y022281D02*
X016460Y022377D01*
X016262Y022377D02*
X016262Y022135D01*
X016214Y022087D01*
X016117Y022087D01*
X016068Y022135D01*
X016068Y022377D01*
X015096Y022082D02*
X015096Y021889D01*
X015096Y021986D02*
X014806Y021986D01*
X014903Y021889D01*
X014903Y021788D02*
X014855Y021788D01*
X014806Y021739D01*
X014806Y021643D01*
X014855Y021594D01*
X014855Y021493D02*
X014806Y021445D01*
X014806Y021348D01*
X014855Y021300D01*
X015048Y021300D01*
X015096Y021348D01*
X015096Y021445D01*
X015048Y021493D01*
X015096Y021594D02*
X014903Y021788D01*
X015096Y021788D02*
X015096Y021594D01*
X015523Y019920D02*
X015475Y019871D01*
X015475Y019678D01*
X015523Y019629D01*
X015620Y019629D01*
X015668Y019678D01*
X015770Y019678D02*
X015818Y019629D01*
X015915Y019629D01*
X015963Y019678D01*
X015963Y019726D01*
X015915Y019774D01*
X015866Y019774D01*
X015915Y019774D02*
X015963Y019823D01*
X015963Y019871D01*
X015915Y019920D01*
X015818Y019920D01*
X015770Y019871D01*
X015668Y019871D02*
X015620Y019920D01*
X015523Y019920D01*
X015107Y019425D02*
X015155Y019377D01*
X015155Y019280D01*
X015107Y019231D01*
X014914Y019425D01*
X015107Y019425D01*
X014914Y019425D02*
X014865Y019377D01*
X014865Y019280D01*
X014914Y019231D01*
X015107Y019231D01*
X015155Y019130D02*
X015155Y018937D01*
X014962Y019130D01*
X014914Y019130D01*
X014865Y019082D01*
X014865Y018985D01*
X014914Y018937D01*
X014914Y018836D02*
X014865Y018787D01*
X014865Y018691D01*
X014914Y018642D01*
X015107Y018642D01*
X015155Y018691D01*
X015155Y018787D01*
X015107Y018836D01*
X015563Y018030D02*
X015514Y017981D01*
X015514Y017788D01*
X015563Y017740D01*
X015659Y017740D01*
X015708Y017788D01*
X015809Y017788D02*
X015809Y017836D01*
X015857Y017885D01*
X015954Y017885D01*
X016003Y017836D01*
X016003Y017788D01*
X015954Y017740D01*
X015857Y017740D01*
X015809Y017788D01*
X015857Y017885D02*
X015809Y017933D01*
X015809Y017981D01*
X015857Y018030D01*
X015954Y018030D01*
X016003Y017981D01*
X016003Y017933D01*
X015954Y017885D01*
X015708Y017981D02*
X015659Y018030D01*
X015563Y018030D01*
X015206Y016236D02*
X015254Y016188D01*
X015254Y016091D01*
X015206Y016042D01*
X015157Y016042D01*
X015109Y016091D01*
X015109Y016188D01*
X015157Y016236D01*
X015206Y016236D01*
X015109Y016188D02*
X015060Y016236D01*
X015012Y016236D01*
X014964Y016188D01*
X014964Y016091D01*
X015012Y016042D01*
X015060Y016042D01*
X015109Y016091D01*
X015254Y015941D02*
X015254Y015748D01*
X015254Y015845D02*
X014964Y015845D01*
X015060Y015748D01*
X015012Y015647D02*
X014964Y015598D01*
X014964Y015502D01*
X015012Y015453D01*
X015206Y015453D01*
X015254Y015502D01*
X015254Y015598D01*
X015206Y015647D01*
X015107Y013539D02*
X014914Y013539D01*
X014865Y013491D01*
X014865Y013394D01*
X014914Y013346D01*
X014962Y013346D01*
X015010Y013394D01*
X015010Y013539D01*
X015107Y013539D02*
X015155Y013491D01*
X015155Y013394D01*
X015107Y013346D01*
X015155Y013244D02*
X015155Y013051D01*
X015155Y013148D02*
X014865Y013148D01*
X014962Y013051D01*
X014914Y012950D02*
X014865Y012901D01*
X014865Y012805D01*
X014914Y012756D01*
X015107Y012756D01*
X015155Y012805D01*
X015155Y012901D01*
X015107Y012950D01*
X015060Y011579D02*
X014963Y011579D01*
X014915Y011530D01*
X014915Y011482D01*
X014963Y011433D01*
X015060Y011433D01*
X015108Y011385D01*
X015108Y011337D01*
X015060Y011288D01*
X014963Y011288D01*
X014915Y011337D01*
X015108Y011530D02*
X015060Y011579D01*
X015209Y011579D02*
X015354Y011579D01*
X015403Y011530D01*
X015403Y011337D01*
X015354Y011288D01*
X015209Y011288D01*
X015209Y011579D01*
X015504Y011482D02*
X015504Y011288D01*
X015504Y011433D02*
X015697Y011433D01*
X015697Y011482D02*
X015697Y011288D01*
X015799Y011240D02*
X015992Y011240D01*
X016093Y011288D02*
X016238Y011288D01*
X016287Y011337D01*
X016287Y011385D01*
X016238Y011433D01*
X016093Y011433D01*
X016093Y011288D02*
X016093Y011579D01*
X016238Y011579D01*
X016287Y011530D01*
X016287Y011482D01*
X016238Y011433D01*
X016388Y011433D02*
X016533Y011433D01*
X016581Y011385D01*
X016581Y011337D01*
X016533Y011288D01*
X016388Y011288D01*
X016388Y011579D01*
X016533Y011579D01*
X016581Y011530D01*
X016581Y011482D01*
X016533Y011433D01*
X015697Y011482D02*
X015601Y011579D01*
X015504Y011482D01*
X015036Y010995D02*
X015036Y010947D01*
X014987Y010899D01*
X015036Y010850D01*
X015036Y010802D01*
X014987Y010753D01*
X014891Y010753D01*
X014842Y010802D01*
X014741Y010802D02*
X014741Y011044D01*
X014842Y010995D02*
X014891Y011044D01*
X014987Y011044D01*
X015036Y010995D01*
X014987Y010899D02*
X014939Y010899D01*
X014741Y010802D02*
X014693Y010753D01*
X014596Y010753D01*
X014548Y010802D01*
X014548Y011044D01*
X013303Y010328D02*
X013303Y010135D01*
X013110Y010328D01*
X013061Y010328D01*
X013013Y010280D01*
X013013Y010183D01*
X013061Y010135D01*
X013061Y010034D02*
X013013Y009985D01*
X013013Y009889D01*
X013061Y009840D01*
X013061Y009739D02*
X013013Y009691D01*
X013013Y009594D01*
X013061Y009546D01*
X013255Y009546D01*
X013303Y009594D01*
X013303Y009691D01*
X013255Y009739D01*
X013303Y009840D02*
X013110Y010034D01*
X013061Y010034D01*
X013303Y010034D02*
X013303Y009840D01*
X012279Y009799D02*
X011989Y009799D01*
X012086Y009703D01*
X012038Y009601D02*
X012134Y009601D01*
X012183Y009553D01*
X012183Y009408D01*
X012279Y009408D02*
X011989Y009408D01*
X011989Y009553D01*
X012038Y009601D01*
X012183Y009505D02*
X012279Y009601D01*
X012279Y009703D02*
X012279Y009896D01*
X012231Y009997D02*
X012183Y009997D01*
X012134Y010046D01*
X012134Y010142D01*
X012183Y010191D01*
X012231Y010191D01*
X012279Y010142D01*
X012279Y010046D01*
X012231Y009997D01*
X012134Y010046D02*
X012086Y009997D01*
X012038Y009997D01*
X011989Y010046D01*
X011989Y010142D01*
X012038Y010191D01*
X012086Y010191D01*
X012134Y010142D01*
X015258Y009374D02*
X015572Y009060D01*
X015572Y009217D02*
X015258Y009217D01*
X015258Y009060D02*
X015572Y009374D01*
X015415Y009374D02*
X015415Y009060D01*
X015741Y009111D02*
X015741Y009401D01*
X015887Y009401D01*
X015935Y009353D01*
X015935Y009256D01*
X015887Y009207D01*
X015741Y009207D01*
X015838Y009207D02*
X015935Y009111D01*
X016036Y009111D02*
X016230Y009111D01*
X016133Y009111D02*
X016133Y009401D01*
X016036Y009304D01*
X016331Y009256D02*
X016331Y009401D01*
X016524Y009401D01*
X016476Y009304D02*
X016524Y009256D01*
X016524Y009159D01*
X016476Y009111D01*
X016379Y009111D01*
X016331Y009159D01*
X016331Y009256D02*
X016428Y009304D01*
X016476Y009304D01*
X016475Y008429D02*
X016523Y008381D01*
X016523Y008332D01*
X016475Y008284D01*
X016330Y008284D01*
X016475Y008284D02*
X016523Y008235D01*
X016523Y008187D01*
X016475Y008139D01*
X016330Y008139D01*
X016330Y008429D01*
X016475Y008429D01*
X016624Y008429D02*
X016769Y008429D01*
X016818Y008381D01*
X016818Y008332D01*
X016769Y008284D01*
X016624Y008284D01*
X016624Y008139D02*
X016624Y008429D01*
X016769Y008284D02*
X016818Y008235D01*
X016818Y008187D01*
X016769Y008139D01*
X016624Y008139D01*
X016228Y008090D02*
X016035Y008090D01*
X015934Y008139D02*
X015740Y008139D01*
X015740Y008429D01*
X015639Y008381D02*
X015591Y008429D01*
X015494Y008429D01*
X015446Y008381D01*
X015446Y008187D01*
X015494Y008139D01*
X015591Y008139D01*
X015639Y008187D01*
X015344Y008187D02*
X015296Y008139D01*
X015199Y008139D01*
X015151Y008187D01*
X015199Y008284D02*
X015296Y008284D01*
X015344Y008235D01*
X015344Y008187D01*
X015199Y008284D02*
X015151Y008332D01*
X015151Y008381D01*
X015199Y008429D01*
X015296Y008429D01*
X015344Y008381D01*
X016824Y010213D02*
X016824Y010503D01*
X016969Y010503D01*
X017018Y010455D01*
X017018Y010358D01*
X016969Y010310D01*
X016824Y010310D01*
X016921Y010310D02*
X017018Y010213D01*
X017119Y010213D02*
X017312Y010213D01*
X017216Y010213D02*
X017216Y010503D01*
X017119Y010407D01*
X017413Y010358D02*
X017607Y010358D01*
X017559Y010213D02*
X017559Y010503D01*
X017413Y010358D01*
X017668Y013502D02*
X017861Y013502D01*
X017909Y013551D01*
X017909Y013648D01*
X017861Y013696D01*
X017909Y013797D02*
X017716Y013991D01*
X017668Y013991D01*
X017619Y013942D01*
X017619Y013845D01*
X017668Y013797D01*
X017668Y013696D02*
X017619Y013648D01*
X017619Y013551D01*
X017668Y013502D01*
X017909Y013797D02*
X017909Y013991D01*
X017861Y014092D02*
X017909Y014140D01*
X017909Y014237D01*
X017861Y014285D01*
X017764Y014285D01*
X017716Y014237D01*
X017716Y014188D01*
X017764Y014092D01*
X017619Y014092D01*
X017619Y014285D01*
X018544Y014258D02*
X018544Y014355D01*
X018593Y014403D01*
X018786Y014210D01*
X018835Y014258D01*
X018835Y014355D01*
X018786Y014403D01*
X018593Y014403D01*
X018544Y014258D02*
X018593Y014210D01*
X018786Y014210D01*
X018835Y014109D02*
X018835Y013915D01*
X018835Y014012D02*
X018544Y014012D01*
X018641Y013915D01*
X018593Y013814D02*
X018544Y013766D01*
X018544Y013669D01*
X018593Y013620D01*
X018786Y013620D01*
X018835Y013669D01*
X018835Y013766D01*
X018786Y013814D01*
X019214Y013785D02*
X019214Y013689D01*
X019262Y013640D01*
X019456Y013640D01*
X019504Y013689D01*
X019504Y013785D01*
X019456Y013834D01*
X019504Y013935D02*
X019504Y014128D01*
X019504Y014032D02*
X019214Y014032D01*
X019310Y013935D01*
X019262Y013834D02*
X019214Y013785D01*
X019310Y014229D02*
X019214Y014326D01*
X019504Y014326D01*
X019504Y014229D02*
X019504Y014423D01*
X020277Y014574D02*
X020325Y014526D01*
X020519Y014526D01*
X020567Y014574D01*
X020567Y014671D01*
X020519Y014720D01*
X020567Y014821D02*
X020567Y015014D01*
X020567Y014917D02*
X020277Y014917D01*
X020373Y014821D01*
X020325Y014720D02*
X020277Y014671D01*
X020277Y014574D01*
X020325Y015115D02*
X020277Y015164D01*
X020277Y015260D01*
X020325Y015309D01*
X020373Y015309D01*
X020567Y015115D01*
X020567Y015309D01*
X020808Y015300D02*
X020953Y015155D01*
X020953Y015348D01*
X021098Y015300D02*
X020808Y015300D01*
X020808Y014957D02*
X021098Y014957D01*
X021098Y014860D02*
X021098Y015054D01*
X020905Y014860D02*
X020808Y014957D01*
X020857Y014759D02*
X020808Y014710D01*
X020808Y014614D01*
X020857Y014565D01*
X021050Y014565D01*
X021098Y014614D01*
X021098Y014710D01*
X021050Y014759D01*
X021714Y014285D02*
X021714Y014092D01*
X021714Y014285D02*
X021762Y014285D01*
X021956Y014092D01*
X022004Y014092D01*
X022004Y013991D02*
X022004Y013797D01*
X022004Y013894D02*
X021714Y013894D01*
X021810Y013797D01*
X021762Y013696D02*
X021714Y013648D01*
X021714Y013551D01*
X021762Y013502D01*
X021956Y013502D01*
X022004Y013551D01*
X022004Y013648D01*
X021956Y013696D01*
X022370Y015048D02*
X022370Y015193D01*
X022418Y015241D01*
X022515Y015241D01*
X022564Y015193D01*
X022564Y015048D01*
X022660Y015048D02*
X022370Y015048D01*
X022564Y015145D02*
X022660Y015241D01*
X022612Y015342D02*
X022564Y015342D01*
X022515Y015391D01*
X022515Y015488D01*
X022564Y015536D01*
X022612Y015536D01*
X022660Y015488D01*
X022660Y015391D01*
X022612Y015342D01*
X022515Y015391D02*
X022467Y015342D01*
X022418Y015342D01*
X022370Y015391D01*
X022370Y015488D01*
X022418Y015536D01*
X022467Y015536D01*
X022515Y015488D01*
X022803Y015439D02*
X023093Y015439D01*
X023093Y015342D02*
X023093Y015536D01*
X023093Y015637D02*
X022900Y015831D01*
X022851Y015831D01*
X022803Y015782D01*
X022803Y015685D01*
X022851Y015637D01*
X022803Y015439D02*
X022900Y015342D01*
X022948Y015241D02*
X022997Y015193D01*
X022997Y015048D01*
X023093Y015048D02*
X022803Y015048D01*
X022803Y015193D01*
X022851Y015241D01*
X022948Y015241D01*
X022997Y015145D02*
X023093Y015241D01*
X023093Y015637D02*
X023093Y015831D01*
X023395Y016374D02*
X023708Y016688D01*
X023552Y016688D02*
X023552Y016374D01*
X023708Y016374D02*
X023395Y016688D01*
X023395Y016531D02*
X023708Y016531D01*
X025092Y017840D02*
X025140Y017792D01*
X025237Y017792D01*
X025285Y017840D01*
X025387Y017840D02*
X025435Y017792D01*
X025532Y017792D01*
X025580Y017840D01*
X025580Y018034D01*
X025532Y018082D01*
X025435Y018082D01*
X025387Y018034D01*
X025387Y017985D01*
X025435Y017937D01*
X025580Y017937D01*
X025285Y018034D02*
X025237Y018082D01*
X025140Y018082D01*
X025092Y018034D01*
X025092Y017840D01*
X025446Y018343D02*
X025446Y018633D01*
X025591Y018633D01*
X025640Y018585D01*
X025640Y018488D01*
X025591Y018440D01*
X025446Y018440D01*
X025543Y018440D02*
X025640Y018343D01*
X025741Y018391D02*
X025789Y018343D01*
X025886Y018343D01*
X025934Y018391D01*
X025934Y018585D01*
X025886Y018633D01*
X025789Y018633D01*
X025741Y018585D01*
X025741Y018537D01*
X025789Y018488D01*
X025934Y018488D01*
X025335Y019977D02*
X025383Y020025D01*
X025383Y020074D01*
X025335Y020122D01*
X025190Y020122D01*
X025190Y020025D01*
X025238Y019977D01*
X025335Y019977D01*
X025190Y020122D02*
X025286Y020219D01*
X025383Y020267D01*
X025088Y020219D02*
X025040Y020267D01*
X024943Y020267D01*
X024895Y020219D01*
X024895Y020025D01*
X024943Y019977D01*
X025040Y019977D01*
X025088Y020025D01*
X021785Y024123D02*
X021592Y024123D01*
X021543Y024171D01*
X021543Y024268D01*
X021592Y024316D01*
X021543Y024417D02*
X021688Y024417D01*
X021640Y024514D01*
X021640Y024562D01*
X021688Y024611D01*
X021785Y024611D01*
X021834Y024562D01*
X021834Y024466D01*
X021785Y024417D01*
X021785Y024316D02*
X021834Y024268D01*
X021834Y024171D01*
X021785Y024123D01*
X021543Y024417D02*
X021543Y024611D01*
X021559Y027247D02*
X021656Y027440D01*
X021463Y027440D02*
X021559Y027247D01*
X021361Y027343D02*
X021168Y027343D01*
X021168Y027295D02*
X021168Y027392D01*
X021216Y027440D01*
X021313Y027440D01*
X021361Y027392D01*
X021361Y027343D01*
X021313Y027247D02*
X021216Y027247D01*
X021168Y027295D01*
X021067Y027247D02*
X020970Y027343D01*
X021018Y027343D02*
X020873Y027343D01*
X020873Y027247D02*
X020873Y027537D01*
X021018Y027537D01*
X021067Y027488D01*
X021067Y027392D01*
X021018Y027343D01*
X022052Y027392D02*
X022245Y027392D01*
X022245Y027440D02*
X022245Y027247D01*
X022347Y027392D02*
X022540Y027392D01*
X022492Y027537D02*
X022347Y027392D01*
X022245Y027440D02*
X022149Y027537D01*
X022052Y027440D01*
X022052Y027247D01*
X022492Y027247D02*
X022492Y027537D01*
X023714Y028835D02*
X023907Y028835D01*
X023811Y028932D02*
X023811Y028738D01*
X024009Y028738D02*
X024057Y028690D01*
X024154Y028690D01*
X024202Y028738D01*
X024202Y028787D01*
X024154Y028835D01*
X024105Y028835D01*
X024154Y028835D02*
X024202Y028883D01*
X024202Y028932D01*
X024154Y028980D01*
X024057Y028980D01*
X024009Y028932D01*
X024303Y028980D02*
X024303Y028787D01*
X024400Y028690D01*
X024497Y028787D01*
X024497Y028980D01*
X024598Y028932D02*
X024646Y028980D01*
X024743Y028980D01*
X024791Y028932D01*
X024791Y028883D01*
X024743Y028835D01*
X024791Y028787D01*
X024791Y028738D01*
X024743Y028690D01*
X024646Y028690D01*
X024598Y028738D01*
X024695Y028835D02*
X024743Y028835D01*
X025897Y028836D02*
X025897Y028594D01*
X025945Y028546D01*
X026042Y028546D01*
X026090Y028594D01*
X026090Y028836D01*
X026192Y028836D02*
X026192Y028691D01*
X026288Y028740D01*
X026337Y028740D01*
X026385Y028691D01*
X026385Y028594D01*
X026337Y028546D01*
X026240Y028546D01*
X026192Y028594D01*
X026192Y028836D02*
X026385Y028836D01*
X028956Y028323D02*
X028956Y028130D01*
X029004Y028081D01*
X029101Y028081D01*
X029150Y028130D01*
X029251Y028081D02*
X029444Y028081D01*
X029347Y028081D02*
X029347Y028371D01*
X029251Y028275D01*
X029150Y028323D02*
X029101Y028371D01*
X029004Y028371D01*
X028956Y028323D01*
X029545Y028226D02*
X029690Y028226D01*
X029739Y028178D01*
X029739Y028130D01*
X029690Y028081D01*
X029594Y028081D01*
X029545Y028130D01*
X029545Y028226D01*
X029642Y028323D01*
X029739Y028371D01*
X029933Y028384D02*
X029933Y028529D01*
X029981Y028577D01*
X030078Y028577D01*
X030126Y028529D01*
X030126Y028384D01*
X030126Y028480D02*
X030223Y028577D01*
X030223Y028678D02*
X030175Y028678D01*
X029981Y028872D01*
X029933Y028872D01*
X029933Y028678D01*
X029933Y028384D02*
X030223Y028384D01*
X030168Y027597D02*
X030071Y027597D01*
X030023Y027548D01*
X030023Y027355D01*
X030071Y027306D01*
X030168Y027306D01*
X030216Y027355D01*
X030318Y027306D02*
X030511Y027500D01*
X030511Y027548D01*
X030463Y027597D01*
X030366Y027597D01*
X030318Y027548D01*
X030216Y027548D02*
X030168Y027597D01*
X030318Y027306D02*
X030511Y027306D01*
X030612Y027306D02*
X030612Y027355D01*
X030806Y027548D01*
X030806Y027597D01*
X030612Y027597D01*
X030551Y026468D02*
X030600Y026420D01*
X030600Y026371D01*
X030551Y026323D01*
X030600Y026274D01*
X030600Y026226D01*
X030551Y026178D01*
X030455Y026178D01*
X030406Y026226D01*
X030305Y026226D02*
X030257Y026178D01*
X030160Y026178D01*
X030112Y026226D01*
X030112Y026420D01*
X030160Y026468D01*
X030257Y026468D01*
X030305Y026420D01*
X030406Y026420D02*
X030455Y026468D01*
X030551Y026468D01*
X030551Y026323D02*
X030503Y026323D01*
X030701Y026371D02*
X030798Y026468D01*
X030798Y026178D01*
X030894Y026178D02*
X030701Y026178D01*
X031038Y025484D02*
X031038Y025291D01*
X031038Y025387D02*
X030748Y025387D01*
X030845Y025291D01*
X030748Y025189D02*
X030748Y024996D01*
X030748Y025093D02*
X031038Y025093D01*
X031038Y024895D02*
X030748Y024701D01*
X030748Y024895D02*
X031038Y024701D01*
X030925Y023810D02*
X030973Y023762D01*
X030780Y023569D01*
X030828Y023520D01*
X030925Y023520D01*
X030973Y023569D01*
X030973Y023762D01*
X030925Y023810D02*
X030828Y023810D01*
X030780Y023762D01*
X030780Y023569D01*
X030678Y023569D02*
X030630Y023520D01*
X030533Y023520D01*
X030485Y023569D01*
X030384Y023569D02*
X030335Y023520D01*
X030239Y023520D01*
X030190Y023569D01*
X030190Y023762D01*
X030239Y023810D01*
X030335Y023810D01*
X030384Y023762D01*
X030485Y023762D02*
X030533Y023810D01*
X030630Y023810D01*
X030678Y023762D01*
X030678Y023714D01*
X030630Y023665D01*
X030678Y023617D01*
X030678Y023569D01*
X030630Y023665D02*
X030582Y023665D01*
X031110Y022544D02*
X031110Y022350D01*
X031255Y022350D01*
X031207Y022447D01*
X031207Y022495D01*
X031255Y022544D01*
X031352Y022544D01*
X031400Y022495D01*
X031400Y022399D01*
X031352Y022350D01*
X031400Y022249D02*
X031304Y022152D01*
X031304Y022201D02*
X031304Y022056D01*
X031400Y022056D02*
X031110Y022056D01*
X031110Y022201D01*
X031159Y022249D01*
X031255Y022249D01*
X031304Y022201D01*
X032449Y022122D02*
X032449Y021977D01*
X032739Y021977D01*
X032642Y021977D02*
X032642Y022122D01*
X032594Y022170D01*
X032497Y022170D01*
X032449Y022122D01*
X032642Y022074D02*
X032739Y022170D01*
X032691Y022272D02*
X032739Y022320D01*
X032739Y022417D01*
X032691Y022465D01*
X032642Y022465D01*
X032594Y022417D01*
X032594Y022272D01*
X032691Y022272D01*
X032594Y022272D02*
X032497Y022368D01*
X032449Y022465D01*
X035473Y020930D02*
X035522Y020978D01*
X035570Y020978D01*
X035619Y020930D01*
X035619Y020833D01*
X035570Y020785D01*
X035522Y020785D01*
X035473Y020833D01*
X035473Y020930D01*
X035619Y020930D02*
X035667Y020978D01*
X035715Y020978D01*
X035764Y020930D01*
X035764Y020833D01*
X035715Y020785D01*
X035667Y020785D01*
X035619Y020833D01*
X035570Y020683D02*
X035522Y020683D01*
X035473Y020635D01*
X035473Y020538D01*
X035522Y020490D01*
X035522Y020389D02*
X035473Y020340D01*
X035473Y020244D01*
X035522Y020195D01*
X035715Y020195D01*
X035764Y020244D01*
X035764Y020340D01*
X035715Y020389D01*
X035764Y020490D02*
X035570Y020683D01*
X035764Y020683D02*
X035764Y020490D01*
X036608Y019618D02*
X036753Y019618D01*
X036801Y019569D01*
X036801Y019472D01*
X036753Y019424D01*
X036608Y019424D01*
X036704Y019424D02*
X036801Y019327D01*
X036902Y019472D02*
X037096Y019472D01*
X037047Y019327D02*
X037047Y019618D01*
X036902Y019472D01*
X036608Y019327D02*
X036608Y019618D01*
X037902Y019267D02*
X037950Y019315D01*
X037998Y019315D01*
X038047Y019267D01*
X038095Y019315D01*
X038143Y019315D01*
X038192Y019267D01*
X038192Y019170D01*
X038143Y019122D01*
X038192Y019021D02*
X038095Y018924D01*
X038095Y018972D02*
X038095Y018827D01*
X038192Y018827D02*
X037902Y018827D01*
X037902Y018972D01*
X037950Y019021D01*
X038047Y019021D01*
X038095Y018972D01*
X037950Y019122D02*
X037902Y019170D01*
X037902Y019267D01*
X038047Y019267D02*
X038047Y019219D01*
X038610Y019267D02*
X038610Y019170D01*
X038659Y019122D01*
X038659Y019021D02*
X038755Y019021D01*
X038804Y018972D01*
X038804Y018827D01*
X038900Y018827D02*
X038610Y018827D01*
X038610Y018972D01*
X038659Y019021D01*
X038804Y018924D02*
X038900Y019021D01*
X038900Y019122D02*
X038707Y019315D01*
X038659Y019315D01*
X038610Y019267D01*
X038900Y019315D02*
X038900Y019122D01*
X039124Y020195D02*
X039076Y020244D01*
X039076Y020340D01*
X039124Y020389D01*
X039124Y020490D02*
X039076Y020538D01*
X039076Y020635D01*
X039124Y020683D01*
X039173Y020683D01*
X039366Y020490D01*
X039366Y020683D01*
X039318Y020785D02*
X039366Y020833D01*
X039366Y020930D01*
X039318Y020978D01*
X039269Y020978D01*
X039221Y020930D01*
X039221Y020785D01*
X039318Y020785D01*
X039221Y020785D02*
X039124Y020881D01*
X039076Y020978D01*
X039318Y020389D02*
X039366Y020340D01*
X039366Y020244D01*
X039318Y020195D01*
X039124Y020195D01*
X036137Y017890D02*
X036137Y017697D01*
X036137Y017793D02*
X035846Y017793D01*
X035943Y017697D01*
X035895Y017596D02*
X036088Y017596D01*
X036137Y017547D01*
X036137Y017450D01*
X036088Y017402D01*
X035895Y017402D01*
X035846Y017450D01*
X035846Y017547D01*
X035895Y017596D01*
X036040Y017499D02*
X036137Y017596D01*
X037417Y016912D02*
X037417Y016621D01*
X037611Y016621D01*
X037712Y016621D02*
X037905Y016621D01*
X037809Y016621D02*
X037809Y016912D01*
X037712Y016815D01*
X038898Y015449D02*
X038850Y015401D01*
X038850Y015304D01*
X038898Y015256D01*
X038898Y015155D02*
X038850Y015106D01*
X038850Y015010D01*
X038898Y014961D01*
X039092Y014961D01*
X039140Y015010D01*
X039140Y015106D01*
X039092Y015155D01*
X039140Y015256D02*
X038947Y015449D01*
X038898Y015449D01*
X039140Y015449D02*
X039140Y015256D01*
X038318Y013591D02*
X038221Y013591D01*
X038173Y013542D01*
X038072Y013591D02*
X038072Y013349D01*
X038024Y013300D01*
X037927Y013300D01*
X037878Y013349D01*
X037878Y013591D01*
X038173Y013300D02*
X038367Y013494D01*
X038367Y013542D01*
X038318Y013591D01*
X038367Y013300D02*
X038173Y013300D01*
X037618Y013243D02*
X037618Y013050D01*
X037618Y013146D02*
X037328Y013146D01*
X037425Y013050D01*
X037473Y012948D02*
X037521Y012900D01*
X037521Y012755D01*
X037521Y012852D02*
X037618Y012948D01*
X037473Y012948D02*
X037376Y012948D01*
X037328Y012900D01*
X037328Y012755D01*
X037618Y012755D01*
X038358Y011806D02*
X038358Y011612D01*
X038261Y011709D02*
X038455Y011709D01*
X038556Y011806D02*
X038604Y011854D01*
X038701Y011854D01*
X038749Y011806D01*
X038749Y011757D01*
X038556Y011564D01*
X038749Y011564D01*
X038850Y011564D02*
X038850Y011612D01*
X039044Y011806D01*
X039044Y011854D01*
X038850Y011854D01*
X039145Y011854D02*
X039145Y011661D01*
X039242Y011564D01*
X039339Y011661D01*
X039339Y011854D01*
X036927Y010210D02*
X036927Y009920D01*
X036927Y010210D01*
X036830Y010113D01*
X036927Y010210D01*
X036830Y009920D02*
X037024Y009920D01*
X036830Y009920D01*
X036867Y009722D02*
X036818Y009673D01*
X036867Y009722D01*
X036963Y009722D01*
X037012Y009673D01*
X037012Y009625D01*
X036818Y009432D01*
X037012Y009432D01*
X036818Y009432D01*
X037012Y009625D01*
X037012Y009673D01*
X036963Y009722D01*
X036867Y009722D01*
X031755Y010613D02*
X031562Y010613D01*
X031755Y010806D01*
X031755Y010855D01*
X031707Y010903D01*
X031610Y010903D01*
X031562Y010855D01*
X031461Y010903D02*
X031267Y010613D01*
X031461Y010613D02*
X031267Y010903D01*
X030998Y010194D02*
X030901Y010194D01*
X030853Y010146D01*
X030853Y010098D01*
X030901Y010049D01*
X031047Y010049D01*
X030901Y010049D01*
X030853Y010098D01*
X030853Y010146D01*
X030901Y010194D01*
X030998Y010194D01*
X031047Y010146D01*
X031047Y009952D01*
X030998Y009904D01*
X030901Y009904D01*
X030853Y009952D01*
X030901Y009904D01*
X030998Y009904D01*
X031047Y009952D01*
X031047Y010146D01*
X030998Y010194D01*
X030752Y010194D02*
X030558Y010194D01*
X030558Y010049D01*
X030655Y010098D01*
X030704Y010098D01*
X030752Y010049D01*
X030752Y009952D01*
X030704Y009904D01*
X030607Y009904D01*
X030558Y009952D01*
X030607Y009904D01*
X030704Y009904D01*
X030752Y009952D01*
X030752Y010049D01*
X030704Y010098D01*
X030655Y010098D01*
X030558Y010049D01*
X030558Y010194D01*
X030752Y010194D01*
X030713Y009682D02*
X030616Y009634D01*
X030519Y009537D01*
X030664Y009537D01*
X030713Y009489D01*
X030713Y009441D01*
X030664Y009392D01*
X030567Y009392D01*
X030519Y009441D01*
X030519Y009537D01*
X030664Y009537D01*
X030713Y009489D01*
X030713Y009441D01*
X030664Y009392D01*
X030567Y009392D01*
X030519Y009441D01*
X030519Y009537D01*
X030616Y009634D01*
X030713Y009682D01*
X030814Y009634D02*
X030862Y009682D01*
X030959Y009682D01*
X031007Y009634D01*
X030814Y009441D01*
X030862Y009392D01*
X030959Y009392D01*
X031007Y009441D01*
X031007Y009634D01*
X030814Y009441D01*
X030814Y009634D01*
X030862Y009682D01*
X030959Y009682D01*
X031007Y009634D01*
X031007Y009441D01*
X030959Y009392D01*
X030862Y009392D01*
X030814Y009441D01*
X030814Y009634D01*
X035861Y015111D02*
X035958Y015111D01*
X036006Y015159D01*
X036107Y015111D02*
X036301Y015111D01*
X036204Y015111D02*
X036204Y015401D01*
X036107Y015305D01*
X036006Y015353D02*
X035958Y015401D01*
X035861Y015401D01*
X035812Y015353D01*
X035812Y015159D01*
X035861Y015111D01*
X027822Y024703D02*
X027870Y024752D01*
X027870Y024848D01*
X027822Y024897D01*
X027870Y024998D02*
X027870Y025191D01*
X027870Y025095D02*
X027580Y025095D01*
X027677Y024998D01*
X027628Y024897D02*
X027580Y024848D01*
X027580Y024752D01*
X027628Y024703D01*
X027822Y024703D01*
X027822Y025292D02*
X027870Y025341D01*
X027870Y025438D01*
X027822Y025486D01*
X027725Y025486D01*
X027677Y025438D01*
X027677Y025389D01*
X027725Y025292D01*
X027580Y025292D01*
X027580Y025486D01*
X025102Y025462D02*
X025102Y025401D01*
X025041Y025339D01*
X025102Y025277D01*
X025102Y025215D01*
X025041Y025154D01*
X024917Y025154D01*
X024855Y025215D01*
X024734Y025154D02*
X024487Y025154D01*
X024611Y025154D02*
X024611Y025524D01*
X024487Y025401D01*
X024366Y025462D02*
X024304Y025524D01*
X024181Y025524D01*
X024119Y025462D01*
X024119Y025215D01*
X024181Y025154D01*
X024304Y025154D01*
X024366Y025215D01*
X024855Y025462D02*
X024917Y025524D01*
X025041Y025524D01*
X025102Y025462D01*
X025041Y025339D02*
X024979Y025339D01*
X031267Y029314D02*
X031267Y029604D01*
X031412Y029604D01*
X031461Y029555D01*
X031461Y029459D01*
X031412Y029410D01*
X031267Y029410D01*
X031364Y029410D02*
X031461Y029314D01*
X031562Y029362D02*
X031562Y029459D01*
X031610Y029507D01*
X031707Y029507D01*
X031755Y029459D01*
X031755Y029410D01*
X031562Y029410D01*
X031562Y029362D02*
X031610Y029314D01*
X031707Y029314D01*
X031856Y029314D02*
X032001Y029314D01*
X032050Y029362D01*
X032001Y029410D01*
X031905Y029410D01*
X031856Y029459D01*
X031905Y029507D01*
X032050Y029507D01*
X032151Y029459D02*
X032199Y029507D01*
X032296Y029507D01*
X032345Y029459D01*
X032345Y029410D01*
X032151Y029410D01*
X032151Y029362D02*
X032151Y029459D01*
X032151Y029362D02*
X032199Y029314D01*
X032296Y029314D01*
X032494Y029362D02*
X032542Y029314D01*
X032494Y029362D02*
X032494Y029555D01*
X032446Y029507D02*
X032542Y029507D01*
X035702Y027443D02*
X035702Y027250D01*
X035750Y027201D01*
X035847Y027201D01*
X035896Y027250D01*
X035997Y027201D02*
X036190Y027395D01*
X036190Y027443D01*
X036142Y027492D01*
X036045Y027492D01*
X035997Y027443D01*
X035896Y027443D02*
X035847Y027492D01*
X035750Y027492D01*
X035702Y027443D01*
X035997Y027201D02*
X036190Y027201D01*
X036291Y027250D02*
X036340Y027201D01*
X036437Y027201D01*
X036485Y027250D01*
X036485Y027443D01*
X036437Y027492D01*
X036340Y027492D01*
X036291Y027443D01*
X036291Y027395D01*
X036340Y027346D01*
X036485Y027346D01*
X037304Y027872D02*
X037304Y028018D01*
X037353Y028066D01*
X037449Y028066D01*
X037498Y028018D01*
X037498Y027872D01*
X037594Y027872D02*
X037304Y027872D01*
X037498Y027969D02*
X037594Y028066D01*
X037594Y028167D02*
X037594Y028361D01*
X037594Y028264D02*
X037304Y028264D01*
X037401Y028167D01*
X037353Y028462D02*
X037304Y028510D01*
X037304Y028607D01*
X037353Y028655D01*
X037401Y028655D01*
X037449Y028607D01*
X037498Y028655D01*
X037546Y028655D01*
X037594Y028607D01*
X037594Y028510D01*
X037546Y028462D01*
X037449Y028559D02*
X037449Y028607D01*
X037733Y029058D02*
X037684Y029106D01*
X037733Y029058D02*
X037829Y029058D01*
X037878Y029106D01*
X037878Y029154D01*
X037829Y029203D01*
X037733Y029203D01*
X037684Y029251D01*
X037684Y029299D01*
X037733Y029348D01*
X037829Y029348D01*
X037878Y029299D01*
X037979Y029251D02*
X038076Y029251D01*
X038027Y029299D02*
X038027Y029106D01*
X038076Y029058D01*
X038175Y029106D02*
X038224Y029154D01*
X038369Y029154D01*
X038369Y029203D02*
X038369Y029058D01*
X038224Y029058D01*
X038175Y029106D01*
X038224Y029251D02*
X038321Y029251D01*
X038369Y029203D01*
X038470Y029251D02*
X038567Y029251D01*
X038518Y029299D02*
X038518Y029106D01*
X038567Y029058D01*
X038667Y029106D02*
X038715Y029058D01*
X038860Y029058D01*
X038860Y029251D01*
X038961Y029203D02*
X039010Y029251D01*
X039155Y029251D01*
X039106Y029154D02*
X039010Y029154D01*
X038961Y029203D01*
X038961Y029058D02*
X039106Y029058D01*
X039155Y029106D01*
X039106Y029154D01*
X038667Y029106D02*
X038667Y029251D01*
X039248Y028734D02*
X039248Y028541D01*
X039248Y028637D02*
X038958Y028637D01*
X039054Y028541D01*
X039006Y028439D02*
X038958Y028391D01*
X038958Y028246D01*
X039248Y028246D01*
X039248Y028391D01*
X039200Y028439D01*
X039006Y028439D01*
X038958Y028145D02*
X038958Y027951D01*
X039248Y027951D01*
X039248Y028145D01*
X039103Y028048D02*
X039103Y027951D01*
X039248Y027850D02*
X039248Y027657D01*
X038958Y027657D01*
X038447Y027086D02*
X038133Y026773D01*
X038133Y026930D02*
X038447Y026930D01*
X038447Y026773D02*
X038133Y027086D01*
X038290Y027086D02*
X038290Y026773D01*
X038444Y026534D02*
X038444Y026292D01*
X038492Y026243D01*
X038589Y026243D01*
X038637Y026292D01*
X038637Y026534D01*
X038738Y026389D02*
X038884Y026389D01*
X038932Y026340D01*
X038932Y026292D01*
X038884Y026243D01*
X038787Y026243D01*
X038738Y026292D01*
X038738Y026389D01*
X038835Y026485D01*
X038932Y026534D01*
X012686Y021808D02*
X012686Y021614D01*
X012492Y021808D01*
X012444Y021808D01*
X012396Y021759D01*
X012396Y021662D01*
X012444Y021614D01*
X012686Y021513D02*
X012686Y021319D01*
X012396Y021319D01*
X012503Y019032D02*
X012551Y019032D01*
X012600Y018984D01*
X012648Y019032D01*
X012697Y019032D01*
X012745Y018984D01*
X012745Y018887D01*
X012697Y018838D01*
X012745Y018737D02*
X012745Y018544D01*
X012455Y018544D01*
X012503Y018838D02*
X012455Y018887D01*
X012455Y018984D01*
X012503Y019032D01*
X012600Y018984D02*
X012600Y018935D01*
X012619Y016571D02*
X012619Y016378D01*
X012474Y016523D01*
X012765Y016523D01*
X012765Y016277D02*
X012765Y016083D01*
X012474Y016083D01*
X012541Y013934D02*
X012637Y013934D01*
X012686Y013885D01*
X012686Y013788D01*
X012637Y013740D01*
X012541Y013740D02*
X012492Y013837D01*
X012492Y013885D01*
X012541Y013934D01*
X012396Y013934D02*
X012396Y013740D01*
X012541Y013740D01*
X012686Y013639D02*
X012686Y013445D01*
X012396Y013445D01*
X006387Y010425D02*
X006387Y010328D01*
X006338Y010279D01*
X006387Y010178D02*
X006096Y009985D01*
X006096Y010178D02*
X006387Y009985D01*
X006145Y010279D02*
X006096Y010328D01*
X006096Y010425D01*
X006145Y010473D01*
X006193Y010473D01*
X006242Y010425D01*
X006290Y010473D01*
X006338Y010473D01*
X006387Y010425D01*
X006242Y010425D02*
X006242Y010376D01*
X001676Y010894D02*
X001386Y010894D01*
X001386Y011039D01*
X001434Y011088D01*
X001531Y011088D01*
X001579Y011039D01*
X001579Y010894D01*
X001579Y010991D02*
X001676Y011088D01*
X001676Y011189D02*
X001676Y011382D01*
X001676Y011286D02*
X001386Y011286D01*
X001483Y011189D01*
X001434Y011484D02*
X001386Y011532D01*
X001386Y011629D01*
X001434Y011677D01*
X001628Y011484D01*
X001676Y011532D01*
X001676Y011629D01*
X001628Y011677D01*
X001434Y011677D01*
X001434Y011484D02*
X001628Y011484D01*
X001026Y011441D02*
X001026Y011248D01*
X001026Y011345D02*
X000736Y011345D01*
X000833Y011248D01*
X000881Y011147D02*
X000930Y011098D01*
X000930Y010953D01*
X001026Y010953D02*
X000736Y010953D01*
X000736Y011098D01*
X000785Y011147D01*
X000881Y011147D01*
X000930Y011050D02*
X001026Y011147D01*
X001026Y011543D02*
X001026Y011736D01*
X001026Y011639D02*
X000736Y011639D01*
X000833Y011543D01*
D13*
X015819Y027606D02*
X016134Y027606D01*
X016154Y027608D01*
X016173Y027616D01*
X016190Y027629D01*
X016202Y027645D01*
X016210Y027664D01*
X016213Y027684D01*
X016213Y028432D01*
X016211Y028445D01*
X016205Y028456D01*
X016196Y028464D01*
X016185Y028470D01*
X016173Y028472D01*
X015661Y028472D01*
X015635Y028469D01*
X015610Y028460D01*
X015588Y028446D01*
X015569Y028427D01*
X016213Y028427D01*
X016213Y028389D02*
X015549Y028389D01*
X015546Y028380D02*
X015543Y028354D01*
X015543Y027999D01*
X015547Y027964D01*
X015559Y027931D01*
X015578Y027901D01*
X015603Y027876D01*
X015633Y027857D01*
X015666Y027846D01*
X015701Y027842D01*
X015937Y027842D01*
X015976Y027960D01*
X015661Y027960D01*
X015661Y028354D01*
X016095Y028354D01*
X016095Y027724D01*
X015858Y027724D01*
X015819Y027606D01*
X015828Y027631D02*
X016192Y027631D01*
X016211Y027669D02*
X015840Y027669D01*
X015853Y027707D02*
X016213Y027707D01*
X016213Y027745D02*
X016095Y027745D01*
X016095Y027783D02*
X016213Y027783D01*
X016213Y027821D02*
X016095Y027821D01*
X016095Y027859D02*
X016213Y027859D01*
X016213Y027897D02*
X016095Y027897D01*
X016095Y027934D02*
X016213Y027934D01*
X016213Y027972D02*
X016095Y027972D01*
X016095Y028010D02*
X016213Y028010D01*
X016213Y028048D02*
X016095Y028048D01*
X016095Y028086D02*
X016213Y028086D01*
X016213Y028124D02*
X016095Y028124D01*
X016095Y028162D02*
X016213Y028162D01*
X016213Y028200D02*
X016095Y028200D01*
X016095Y028237D02*
X016213Y028237D01*
X016213Y028275D02*
X016095Y028275D01*
X016095Y028313D02*
X016213Y028313D01*
X016213Y028351D02*
X016095Y028351D01*
X016196Y028465D02*
X015623Y028465D01*
X015569Y028427D02*
X015555Y028405D01*
X015546Y028380D01*
X015543Y028351D02*
X015661Y028351D01*
X015661Y028313D02*
X015543Y028313D01*
X015543Y028275D02*
X015661Y028275D01*
X015661Y028237D02*
X015543Y028237D01*
X015543Y028200D02*
X015661Y028200D01*
X015661Y028162D02*
X015543Y028162D01*
X015543Y028124D02*
X015661Y028124D01*
X015661Y028086D02*
X015543Y028086D01*
X015543Y028048D02*
X015661Y028048D01*
X015661Y028010D02*
X015543Y028010D01*
X015546Y027972D02*
X015661Y027972D01*
X015582Y027897D02*
X015955Y027897D01*
X015968Y027934D02*
X015558Y027934D01*
X015630Y027859D02*
X015943Y027859D01*
X016373Y027934D02*
X016370Y027960D01*
X016370Y028354D01*
X016373Y028380D01*
X016382Y028405D01*
X016396Y028427D01*
X016415Y028446D01*
X016437Y028460D01*
X016462Y028469D01*
X016488Y028472D01*
X016921Y028472D01*
X016948Y028469D01*
X016973Y028460D01*
X016995Y028446D01*
X017014Y028427D01*
X016396Y028427D01*
X016376Y028389D02*
X017033Y028389D01*
X017036Y028380D02*
X017028Y028405D01*
X017014Y028427D01*
X017036Y028380D02*
X017039Y028354D01*
X017039Y027842D01*
X016921Y027842D01*
X016921Y028354D01*
X016488Y028354D01*
X016488Y027960D01*
X016803Y027960D01*
X016764Y027842D01*
X016488Y027842D01*
X016462Y027845D01*
X016437Y027854D01*
X016415Y027868D01*
X016396Y027886D01*
X016382Y027909D01*
X016373Y027934D01*
X016795Y027934D01*
X016782Y027897D02*
X016389Y027897D01*
X016429Y027859D02*
X016769Y027859D01*
X016921Y027859D02*
X017039Y027859D01*
X017039Y027897D02*
X016921Y027897D01*
X016921Y027934D02*
X017039Y027934D01*
X017039Y027972D02*
X016921Y027972D01*
X016921Y028010D02*
X017039Y028010D01*
X017039Y028048D02*
X016921Y028048D01*
X016921Y028086D02*
X017039Y028086D01*
X017039Y028124D02*
X016921Y028124D01*
X016921Y028162D02*
X017039Y028162D01*
X017039Y028200D02*
X016921Y028200D01*
X016921Y028237D02*
X017039Y028237D01*
X017039Y028275D02*
X016921Y028275D01*
X016921Y028313D02*
X017039Y028313D01*
X017039Y028351D02*
X016921Y028351D01*
X016959Y028465D02*
X016450Y028465D01*
X016488Y028351D02*
X016370Y028351D01*
X016370Y028313D02*
X016488Y028313D01*
X016488Y028275D02*
X016370Y028275D01*
X016370Y028237D02*
X016488Y028237D01*
X016488Y028200D02*
X016370Y028200D01*
X016370Y028162D02*
X016488Y028162D01*
X016488Y028124D02*
X016370Y028124D01*
X016370Y028086D02*
X016488Y028086D01*
X016488Y028048D02*
X016370Y028048D01*
X016370Y028010D02*
X016488Y028010D01*
X016488Y027972D02*
X016370Y027972D01*
X015347Y027972D02*
X015228Y027972D01*
X015228Y027934D02*
X015347Y027934D01*
X015347Y027897D02*
X015228Y027897D01*
X015228Y027859D02*
X015347Y027859D01*
X015347Y027842D02*
X015228Y027842D01*
X015228Y028354D01*
X014795Y028354D01*
X014795Y027842D01*
X014677Y027842D01*
X014677Y028314D01*
X014681Y028349D01*
X014693Y028383D01*
X014712Y028412D01*
X014737Y028437D01*
X014766Y028456D01*
X014800Y028468D01*
X014835Y028472D01*
X015228Y028472D01*
X015255Y028469D01*
X015280Y028460D01*
X015302Y028446D01*
X015321Y028427D01*
X014726Y028427D01*
X014697Y028389D02*
X015340Y028389D01*
X015344Y028380D02*
X015347Y028354D01*
X015347Y027842D01*
X015347Y028010D02*
X015228Y028010D01*
X015228Y028048D02*
X015347Y028048D01*
X015347Y028086D02*
X015228Y028086D01*
X015228Y028124D02*
X015347Y028124D01*
X015347Y028162D02*
X015228Y028162D01*
X015228Y028200D02*
X015347Y028200D01*
X015347Y028237D02*
X015228Y028237D01*
X015228Y028275D02*
X015347Y028275D01*
X015347Y028313D02*
X015228Y028313D01*
X015228Y028351D02*
X015347Y028351D01*
X015344Y028380D02*
X015335Y028405D01*
X015321Y028427D01*
X015266Y028465D02*
X014791Y028465D01*
X014795Y028351D02*
X014682Y028351D01*
X014677Y028313D02*
X014795Y028313D01*
X014795Y028275D02*
X014677Y028275D01*
X014677Y028237D02*
X014795Y028237D01*
X014795Y028200D02*
X014677Y028200D01*
X014677Y028162D02*
X014795Y028162D01*
X014795Y028124D02*
X014677Y028124D01*
X014677Y028086D02*
X014795Y028086D01*
X014795Y028048D02*
X014677Y028048D01*
X014677Y028010D02*
X014795Y028010D01*
X014795Y027972D02*
X014677Y027972D01*
X014677Y027934D02*
X014795Y027934D01*
X014795Y027897D02*
X014677Y027897D01*
X014677Y027859D02*
X014795Y027859D01*
X014480Y027859D02*
X014362Y027859D01*
X014362Y027842D02*
X014480Y027842D01*
X014480Y028354D01*
X014477Y028380D01*
X014469Y028405D01*
X014455Y028427D01*
X013837Y028427D01*
X013823Y028405D01*
X013814Y028380D01*
X013811Y028354D01*
X013811Y027960D01*
X013814Y027934D01*
X013823Y027909D01*
X013837Y027886D01*
X013856Y027868D01*
X013878Y027854D01*
X013903Y027845D01*
X013929Y027842D01*
X014205Y027842D01*
X014244Y027960D01*
X013929Y027960D01*
X013929Y028354D01*
X014362Y028354D01*
X014362Y027842D01*
X014362Y027897D02*
X014480Y027897D01*
X014480Y027934D02*
X014362Y027934D01*
X014362Y027972D02*
X014480Y027972D01*
X014480Y028010D02*
X014362Y028010D01*
X014362Y028048D02*
X014480Y028048D01*
X014480Y028086D02*
X014362Y028086D01*
X014362Y028124D02*
X014480Y028124D01*
X014480Y028162D02*
X014362Y028162D01*
X014362Y028200D02*
X014480Y028200D01*
X014480Y028237D02*
X014362Y028237D01*
X014362Y028275D02*
X014480Y028275D01*
X014480Y028313D02*
X014362Y028313D01*
X014362Y028351D02*
X014480Y028351D01*
X014474Y028389D02*
X013817Y028389D01*
X013811Y028351D02*
X013929Y028351D01*
X013929Y028313D02*
X013811Y028313D01*
X013811Y028275D02*
X013929Y028275D01*
X013929Y028237D02*
X013811Y028237D01*
X013811Y028200D02*
X013929Y028200D01*
X013929Y028162D02*
X013811Y028162D01*
X013811Y028124D02*
X013929Y028124D01*
X013929Y028086D02*
X013811Y028086D01*
X013811Y028048D02*
X013929Y028048D01*
X013929Y028010D02*
X013811Y028010D01*
X013811Y027972D02*
X013929Y027972D01*
X013814Y027934D02*
X014236Y027934D01*
X014223Y027897D02*
X013830Y027897D01*
X013870Y027859D02*
X014210Y027859D01*
X013614Y027859D02*
X013496Y027859D01*
X013496Y027897D02*
X013614Y027897D01*
X013614Y027934D02*
X013496Y027934D01*
X013496Y027972D02*
X013614Y027972D01*
X013614Y028010D02*
X013496Y028010D01*
X013496Y028048D02*
X013614Y028048D01*
X013614Y028086D02*
X013496Y028086D01*
X013496Y028124D02*
X013614Y028124D01*
X013614Y028162D02*
X013496Y028162D01*
X013496Y028200D02*
X013614Y028200D01*
X013614Y028237D02*
X013496Y028237D01*
X013496Y028275D02*
X013614Y028275D01*
X013614Y028313D02*
X013496Y028313D01*
X013496Y028351D02*
X013614Y028351D01*
X013614Y028389D02*
X013496Y028389D01*
X013496Y028427D02*
X013614Y028427D01*
X013614Y028465D02*
X013496Y028465D01*
X013496Y028503D02*
X013614Y028503D01*
X013614Y028540D02*
X013496Y028540D01*
X013496Y028578D02*
X013614Y028578D01*
X013614Y028590D02*
X013611Y028616D01*
X012633Y028616D01*
X012630Y028590D01*
X012630Y027802D01*
X012748Y027802D01*
X012748Y028590D01*
X013063Y028590D01*
X013063Y027802D01*
X013181Y027802D01*
X013181Y028590D01*
X013496Y028590D01*
X013496Y027802D01*
X013614Y027802D01*
X013614Y028590D01*
X013611Y028616D02*
X013603Y028641D01*
X013588Y028663D01*
X013570Y028682D01*
X013547Y028696D01*
X013522Y028705D01*
X013496Y028708D01*
X012748Y028708D01*
X012722Y028705D01*
X012697Y028696D01*
X012674Y028682D01*
X012656Y028663D01*
X012642Y028641D01*
X012633Y028616D01*
X012630Y028578D02*
X012748Y028578D01*
X012748Y028540D02*
X012630Y028540D01*
X012630Y028503D02*
X012748Y028503D01*
X012748Y028465D02*
X012630Y028465D01*
X012630Y028427D02*
X012748Y028427D01*
X012748Y028389D02*
X012630Y028389D01*
X012630Y028351D02*
X012748Y028351D01*
X012748Y028313D02*
X012630Y028313D01*
X012630Y028275D02*
X012748Y028275D01*
X012748Y028237D02*
X012630Y028237D01*
X012630Y028200D02*
X012748Y028200D01*
X012748Y028162D02*
X012630Y028162D01*
X012630Y028124D02*
X012748Y028124D01*
X012748Y028086D02*
X012630Y028086D01*
X012630Y028048D02*
X012748Y028048D01*
X012748Y028010D02*
X012630Y028010D01*
X012630Y027972D02*
X012748Y027972D01*
X012748Y027934D02*
X012630Y027934D01*
X012630Y027897D02*
X012748Y027897D01*
X012748Y027859D02*
X012630Y027859D01*
X012630Y027821D02*
X012748Y027821D01*
X013063Y027821D02*
X013181Y027821D01*
X013181Y027859D02*
X013063Y027859D01*
X013063Y027897D02*
X013181Y027897D01*
X013181Y027934D02*
X013063Y027934D01*
X013063Y027972D02*
X013181Y027972D01*
X013181Y028010D02*
X013063Y028010D01*
X013063Y028048D02*
X013181Y028048D01*
X013181Y028086D02*
X013063Y028086D01*
X013063Y028124D02*
X013181Y028124D01*
X013181Y028162D02*
X013063Y028162D01*
X013063Y028200D02*
X013181Y028200D01*
X013181Y028237D02*
X013063Y028237D01*
X013063Y028275D02*
X013181Y028275D01*
X013181Y028313D02*
X013063Y028313D01*
X013063Y028351D02*
X013181Y028351D01*
X013181Y028389D02*
X013063Y028389D01*
X013063Y028427D02*
X013181Y028427D01*
X013181Y028465D02*
X013063Y028465D01*
X013063Y028503D02*
X013181Y028503D01*
X013181Y028540D02*
X013063Y028540D01*
X013063Y028578D02*
X013181Y028578D01*
X013554Y028692D02*
X012690Y028692D01*
X012650Y028654D02*
X013594Y028654D01*
X013837Y028427D02*
X013856Y028446D01*
X013878Y028460D01*
X013903Y028469D01*
X013929Y028472D01*
X014362Y028472D01*
X014389Y028469D01*
X014414Y028460D01*
X014436Y028446D01*
X014455Y028427D01*
X014400Y028465D02*
X013891Y028465D01*
X013614Y027821D02*
X013496Y027821D01*
X017709Y027842D02*
X017709Y027960D01*
X018299Y027960D01*
X018299Y028236D01*
X017827Y028236D01*
X017801Y028238D01*
X017776Y028247D01*
X017753Y028261D01*
X017735Y028280D01*
X017720Y028302D01*
X017712Y028327D01*
X017709Y028354D01*
X017709Y028590D01*
X017712Y028616D01*
X018356Y028616D01*
X018339Y028590D02*
X017827Y028590D01*
X017827Y028354D01*
X018299Y028354D01*
X018320Y028351D01*
X018339Y028343D01*
X018355Y028331D01*
X018367Y028314D01*
X018375Y028295D01*
X018378Y028275D01*
X018378Y027921D01*
X018375Y027900D01*
X018367Y027881D01*
X018355Y027865D01*
X018339Y027852D01*
X018320Y027844D01*
X018299Y027842D01*
X017709Y027842D01*
X017709Y027859D02*
X018347Y027859D01*
X018374Y027897D02*
X017709Y027897D01*
X017709Y027934D02*
X018378Y027934D01*
X018378Y027972D02*
X018299Y027972D01*
X018299Y028010D02*
X018378Y028010D01*
X018378Y028048D02*
X018299Y028048D01*
X018299Y028086D02*
X018378Y028086D01*
X018378Y028124D02*
X018299Y028124D01*
X018299Y028162D02*
X018378Y028162D01*
X018378Y028200D02*
X018299Y028200D01*
X018378Y028237D02*
X017810Y028237D01*
X017739Y028275D02*
X018378Y028275D01*
X018368Y028313D02*
X017717Y028313D01*
X017709Y028351D02*
X018319Y028351D01*
X018339Y028590D02*
X018417Y028708D01*
X017827Y028708D01*
X017801Y028705D01*
X017776Y028696D01*
X017753Y028682D01*
X017735Y028663D01*
X017720Y028641D01*
X017712Y028616D01*
X017709Y028578D02*
X017827Y028578D01*
X017827Y028540D02*
X017709Y028540D01*
X017709Y028503D02*
X017827Y028503D01*
X017827Y028465D02*
X017709Y028465D01*
X017709Y028427D02*
X017827Y028427D01*
X017827Y028389D02*
X017709Y028389D01*
X017729Y028654D02*
X018381Y028654D01*
X018407Y028692D02*
X017769Y028692D01*
X018587Y028405D02*
X018601Y028427D01*
X018619Y028446D01*
X018642Y028460D01*
X018667Y028469D01*
X018693Y028472D01*
X019126Y028472D01*
X019087Y028354D01*
X018693Y028354D01*
X018693Y027960D01*
X019126Y027960D01*
X019126Y027842D01*
X018732Y027842D01*
X018697Y027846D01*
X018664Y027857D01*
X018634Y027876D01*
X018609Y027901D01*
X018590Y027931D01*
X018579Y027964D01*
X018575Y027999D01*
X018575Y028354D01*
X018578Y028380D01*
X018587Y028405D01*
X018581Y028389D02*
X019098Y028389D01*
X019111Y028427D02*
X018600Y028427D01*
X018655Y028465D02*
X019124Y028465D01*
X019329Y028389D02*
X019701Y028389D01*
X019677Y028354D02*
X019441Y028354D01*
X019441Y027842D01*
X019323Y027842D01*
X019323Y028354D01*
X019326Y028380D01*
X019335Y028405D01*
X019349Y028427D01*
X019367Y028446D01*
X019390Y028460D01*
X019415Y028469D01*
X019441Y028472D01*
X019756Y028472D01*
X019677Y028354D01*
X019726Y028427D02*
X019348Y028427D01*
X019403Y028465D02*
X019751Y028465D01*
X019886Y028405D02*
X019900Y028427D01*
X019919Y028446D01*
X019941Y028460D01*
X019966Y028469D01*
X019992Y028472D01*
X020465Y028472D01*
X020485Y028469D01*
X020504Y028461D01*
X020520Y028449D01*
X020533Y028432D01*
X020541Y028413D01*
X020543Y028393D01*
X020543Y028196D01*
X020541Y028176D01*
X020533Y028157D01*
X020520Y028140D01*
X020504Y028128D01*
X020485Y028120D01*
X020465Y028117D01*
X020150Y028117D01*
X020150Y028236D01*
X020425Y028236D01*
X020437Y028237D01*
X020543Y028237D01*
X020543Y028200D02*
X020150Y028200D01*
X020150Y028162D02*
X020535Y028162D01*
X020494Y028124D02*
X020150Y028124D01*
X019992Y028124D02*
X019874Y028124D01*
X019874Y028162D02*
X019992Y028162D01*
X019992Y028200D02*
X019874Y028200D01*
X019874Y028237D02*
X019992Y028237D01*
X019992Y028275D02*
X019874Y028275D01*
X019874Y028313D02*
X019992Y028313D01*
X019992Y028351D02*
X019874Y028351D01*
X019874Y028354D02*
X019877Y028380D01*
X019886Y028405D01*
X019880Y028389D02*
X020543Y028389D01*
X020543Y028351D02*
X020439Y028351D01*
X020437Y028352D02*
X020425Y028354D01*
X019992Y028354D01*
X019992Y027960D01*
X020465Y027960D01*
X020386Y027842D01*
X019992Y027842D01*
X019966Y027845D01*
X019941Y027854D01*
X019919Y027868D01*
X019900Y027886D01*
X019886Y027909D01*
X019877Y027934D01*
X019874Y027960D01*
X019874Y028354D01*
X019900Y028427D02*
X020535Y028427D01*
X020496Y028465D02*
X019954Y028465D01*
X019992Y028086D02*
X019874Y028086D01*
X019874Y028048D02*
X019992Y028048D01*
X019992Y028010D02*
X019874Y028010D01*
X019874Y027972D02*
X019992Y027972D01*
X019877Y027934D02*
X020448Y027934D01*
X020422Y027897D02*
X019893Y027897D01*
X019933Y027859D02*
X020397Y027859D01*
X020743Y027934D02*
X020740Y027960D01*
X020740Y028354D01*
X020743Y028380D01*
X020752Y028405D01*
X020766Y028427D01*
X020785Y028446D01*
X020807Y028460D01*
X020832Y028469D01*
X020858Y028472D01*
X021331Y028472D01*
X021351Y028469D01*
X021370Y028461D01*
X021386Y028449D01*
X021399Y028432D01*
X021407Y028413D01*
X021410Y028393D01*
X021410Y028196D01*
X021407Y028176D01*
X021399Y028157D01*
X021386Y028140D01*
X021370Y028128D01*
X021351Y028120D01*
X021331Y028117D01*
X021016Y028117D01*
X021016Y028236D01*
X021291Y028236D01*
X021304Y028237D01*
X021315Y028243D01*
X021323Y028252D01*
X021329Y028263D01*
X021331Y028275D01*
X021331Y028314D01*
X021329Y028326D01*
X021323Y028337D01*
X021315Y028346D01*
X021304Y028352D01*
X021291Y028354D01*
X020858Y028354D01*
X020858Y027960D01*
X021331Y027960D01*
X021252Y027842D01*
X020858Y027842D01*
X020832Y027845D01*
X020807Y027854D01*
X020785Y027868D01*
X020766Y027886D01*
X020752Y027909D01*
X020743Y027934D01*
X021314Y027934D01*
X021289Y027897D02*
X020760Y027897D01*
X020799Y027859D02*
X021263Y027859D01*
X021360Y028124D02*
X021016Y028124D01*
X021016Y028162D02*
X021401Y028162D01*
X021410Y028200D02*
X021016Y028200D01*
X020858Y028200D02*
X020740Y028200D01*
X020740Y028237D02*
X020858Y028237D01*
X020858Y028275D02*
X020740Y028275D01*
X020740Y028313D02*
X020858Y028313D01*
X020858Y028351D02*
X020740Y028351D01*
X020746Y028389D02*
X021410Y028389D01*
X021410Y028351D02*
X021305Y028351D01*
X021331Y028313D02*
X021410Y028313D01*
X021410Y028275D02*
X021331Y028275D01*
X021303Y028237D02*
X021410Y028237D01*
X021401Y028427D02*
X020766Y028427D01*
X020820Y028465D02*
X021362Y028465D01*
X021622Y028383D02*
X021610Y028349D01*
X021606Y028314D01*
X021606Y027842D01*
X021724Y027842D01*
X021724Y028354D01*
X022158Y028354D01*
X022158Y027842D01*
X022276Y027842D01*
X022276Y028354D01*
X022273Y028380D01*
X022264Y028405D01*
X022250Y028427D01*
X022231Y028446D01*
X022209Y028460D01*
X022184Y028469D01*
X022158Y028472D01*
X021764Y028472D01*
X021729Y028468D01*
X021696Y028456D01*
X021666Y028437D01*
X021641Y028412D01*
X021622Y028383D01*
X021626Y028389D02*
X022270Y028389D01*
X022276Y028351D02*
X022158Y028351D01*
X022158Y028313D02*
X022276Y028313D01*
X022276Y028275D02*
X022158Y028275D01*
X022158Y028237D02*
X022276Y028237D01*
X022276Y028200D02*
X022158Y028200D01*
X022158Y028162D02*
X022276Y028162D01*
X022276Y028124D02*
X022158Y028124D01*
X022158Y028086D02*
X022276Y028086D01*
X022276Y028048D02*
X022158Y028048D01*
X022158Y028010D02*
X022276Y028010D01*
X022276Y027972D02*
X022158Y027972D01*
X022158Y027934D02*
X022276Y027934D01*
X022276Y027897D02*
X022158Y027897D01*
X022158Y027859D02*
X022276Y027859D01*
X021724Y027859D02*
X021606Y027859D01*
X021606Y027897D02*
X021724Y027897D01*
X021724Y027934D02*
X021606Y027934D01*
X021606Y027972D02*
X021724Y027972D01*
X021724Y028010D02*
X021606Y028010D01*
X021606Y028048D02*
X021724Y028048D01*
X021724Y028086D02*
X021606Y028086D01*
X021606Y028124D02*
X021724Y028124D01*
X021724Y028162D02*
X021606Y028162D01*
X021606Y028200D02*
X021724Y028200D01*
X021724Y028237D02*
X021606Y028237D01*
X021606Y028275D02*
X021724Y028275D01*
X021724Y028313D02*
X021606Y028313D01*
X021611Y028351D02*
X021724Y028351D01*
X021655Y028427D02*
X022250Y028427D01*
X022196Y028465D02*
X021720Y028465D01*
X020858Y028162D02*
X020740Y028162D01*
X020740Y028124D02*
X020858Y028124D01*
X020858Y028086D02*
X020740Y028086D01*
X020740Y028048D02*
X020858Y028048D01*
X020858Y028010D02*
X020740Y028010D01*
X020740Y027972D02*
X020858Y027972D01*
X020543Y028275D02*
X020465Y028275D01*
X020465Y028314D01*
X020463Y028326D01*
X020457Y028337D01*
X020448Y028346D01*
X020437Y028352D01*
X020465Y028313D02*
X020543Y028313D01*
X020465Y028275D02*
X020463Y028263D01*
X020457Y028252D01*
X020448Y028243D01*
X020437Y028237D01*
X019441Y028237D02*
X019323Y028237D01*
X019323Y028200D02*
X019441Y028200D01*
X019441Y028162D02*
X019323Y028162D01*
X019323Y028124D02*
X019441Y028124D01*
X019441Y028086D02*
X019323Y028086D01*
X019323Y028048D02*
X019441Y028048D01*
X019441Y028010D02*
X019323Y028010D01*
X019323Y027972D02*
X019441Y027972D01*
X019441Y027934D02*
X019323Y027934D01*
X019323Y027897D02*
X019441Y027897D01*
X019441Y027859D02*
X019323Y027859D01*
X019126Y027859D02*
X018662Y027859D01*
X018614Y027897D02*
X019126Y027897D01*
X019126Y027934D02*
X018589Y027934D01*
X018578Y027972D02*
X018693Y027972D01*
X018693Y028010D02*
X018575Y028010D01*
X018575Y028048D02*
X018693Y028048D01*
X018693Y028086D02*
X018575Y028086D01*
X018575Y028124D02*
X018693Y028124D01*
X018693Y028162D02*
X018575Y028162D01*
X018575Y028200D02*
X018693Y028200D01*
X018693Y028237D02*
X018575Y028237D01*
X018575Y028275D02*
X018693Y028275D01*
X018693Y028313D02*
X018575Y028313D01*
X018575Y028351D02*
X018693Y028351D01*
X019323Y028351D02*
X019441Y028351D01*
X019441Y028313D02*
X019323Y028313D01*
X019323Y028275D02*
X019441Y028275D01*
X031075Y010243D02*
X036784Y010243D01*
X036784Y009377D01*
X031075Y009377D02*
X031075Y010243D01*
D14*
X037001Y013819D02*
X037287Y013819D01*
X037876Y013819D02*
X038162Y013819D01*
X038162Y014980D02*
X037876Y014980D01*
X037287Y014980D02*
X037001Y014980D01*
X028605Y026906D02*
X026025Y026906D01*
X026025Y028306D01*
X028605Y028306D01*
X028605Y026906D01*
D15*
X033370Y023171D02*
X033770Y023171D01*
X034440Y022321D02*
X034440Y022151D01*
X034610Y022151D01*
X037030Y021491D02*
X037030Y021091D01*
X038210Y022151D02*
X038380Y022151D01*
X038380Y022321D01*
X039050Y024431D02*
X039450Y024431D01*
X038210Y025761D02*
X038050Y025921D01*
X038210Y026091D02*
X038380Y026091D01*
X038380Y025921D01*
X035150Y026751D02*
X035150Y027151D01*
X034610Y026091D02*
X034440Y026091D01*
X034440Y025921D01*
X023773Y020511D02*
X023363Y020511D01*
X022713Y021691D02*
X022713Y021941D01*
X022463Y021941D01*
X021483Y022591D02*
X021483Y022991D01*
X019523Y023001D02*
X019523Y022601D01*
X017563Y022601D02*
X017563Y022991D01*
X017363Y021941D02*
X017113Y021941D01*
X017113Y021691D01*
X016453Y017761D02*
X016063Y017761D01*
X017113Y016591D02*
X017113Y016341D01*
X017363Y016341D01*
X018333Y015681D02*
X018333Y015281D01*
X020303Y015281D02*
X020303Y015681D01*
X022273Y015681D02*
X022273Y015291D01*
X022463Y016341D02*
X022713Y016341D01*
X022713Y016591D01*
X022543Y016681D02*
X022373Y016511D01*
X023373Y018531D02*
X023773Y018531D01*
X025743Y012119D02*
X025983Y012119D01*
X026003Y012139D01*
X026025Y012107D02*
X026005Y012099D01*
X025984Y012096D01*
X025963Y012099D01*
X025693Y012099D01*
X025693Y012089D01*
X025683Y012089D01*
X027003Y012089D01*
X026643Y012089D01*
X026613Y012119D01*
X026610Y012135D01*
X026603Y012149D01*
X026082Y012149D01*
X026104Y012166D02*
X026043Y012119D01*
X026025Y012107D01*
X026104Y012166D02*
X026172Y012201D01*
X026246Y012222D01*
X026323Y012229D01*
X026413Y012229D01*
X026422Y012228D01*
X026430Y012223D01*
X026437Y012217D01*
X026441Y012208D01*
X026443Y012199D01*
X026393Y012199D01*
X026383Y012198D01*
X026375Y012193D01*
X026368Y012187D01*
X026364Y012178D01*
X026363Y012169D01*
X026563Y012169D01*
X026578Y012167D01*
X026592Y012160D01*
X026603Y012149D01*
X026653Y012129D02*
X026943Y012129D01*
X027033Y012009D02*
X027083Y012009D01*
X027083Y011999D01*
X027103Y012009D01*
X027123Y012009D01*
X027123Y011939D01*
X027153Y011939D01*
X027153Y011919D01*
X027173Y011919D01*
X027173Y011299D01*
X026983Y011299D01*
X027003Y011299D01*
X027008Y011300D01*
X027013Y011304D01*
X027017Y011308D01*
X027018Y011314D01*
X027017Y011320D01*
X027013Y011325D01*
X027008Y011328D01*
X027003Y011329D01*
X027013Y011329D01*
X027034Y011332D01*
X027053Y011340D01*
X027070Y011352D01*
X027083Y011369D01*
X027091Y011388D01*
X027095Y011408D01*
X027093Y011429D01*
X027103Y011429D01*
X027103Y011839D01*
X027093Y011839D01*
X027093Y011949D01*
X027043Y011949D01*
X027043Y011969D01*
X027033Y011969D01*
X027033Y012009D01*
X027033Y011973D02*
X027123Y011973D01*
X027093Y011915D02*
X027173Y011915D01*
X027193Y011879D02*
X027193Y011359D01*
X027173Y011330D02*
X027019Y011330D01*
X027203Y011339D02*
X027205Y011314D01*
X027204Y011289D01*
X027199Y011265D01*
X027190Y011242D01*
X027179Y011220D01*
X027164Y011200D01*
X027147Y011182D01*
X027127Y011167D01*
X027105Y011155D01*
X027082Y011146D01*
X027058Y011141D01*
X027033Y011139D01*
X027008Y011154D02*
X025713Y011154D01*
X025667Y011154D01*
X025653Y011169D02*
X025713Y011109D01*
X025713Y011489D01*
X025723Y011499D01*
X025703Y011499D01*
X025633Y011569D01*
X025633Y011759D01*
X025733Y011859D01*
X025733Y011989D01*
X025633Y011989D01*
X025603Y012019D01*
X025603Y012029D01*
X025543Y011969D01*
X025543Y011379D01*
X025553Y011369D01*
X025553Y011259D01*
X025643Y011169D01*
X025653Y011169D01*
X025599Y011213D02*
X025713Y011213D01*
X027117Y011213D01*
X027103Y011199D02*
X027053Y011199D01*
X026973Y011119D01*
X026973Y011089D01*
X026983Y011079D01*
X025733Y011079D01*
X025713Y011099D01*
X025713Y011299D01*
X025723Y011309D01*
X025733Y011299D01*
X025733Y011309D01*
X026033Y011309D01*
X026073Y011269D01*
X026213Y011269D01*
X026223Y011279D01*
X027153Y011279D01*
X027153Y011249D01*
X027103Y011199D01*
X027153Y011271D02*
X026215Y011271D01*
X026203Y011339D02*
X026943Y011339D01*
X026943Y011349D01*
X026933Y011349D02*
X026203Y011349D01*
X026203Y011289D02*
X026181Y011280D01*
X026158Y011274D01*
X026135Y011272D01*
X026111Y011274D01*
X026088Y011279D01*
X026066Y011287D01*
X026046Y011299D01*
X026027Y011314D01*
X026011Y011331D01*
X025998Y011351D01*
X025989Y011373D01*
X025982Y011395D01*
X025979Y011419D01*
X025980Y011442D01*
X025984Y011466D01*
X025992Y011488D01*
X026003Y011509D01*
X026013Y011509D02*
X026013Y011499D01*
X025983Y011469D01*
X025983Y011409D01*
X025993Y011399D01*
X025993Y011359D01*
X026023Y011329D01*
X025783Y011329D01*
X025773Y011339D01*
X025773Y011439D01*
X025753Y011459D01*
X025823Y011459D01*
X025883Y011519D01*
X025883Y011529D01*
X025953Y011599D01*
X025953Y011719D01*
X025943Y011729D01*
X025943Y011739D01*
X025833Y011849D01*
X025763Y011849D01*
X025763Y011979D01*
X025753Y011989D01*
X026063Y011989D01*
X026083Y011969D01*
X026083Y011949D01*
X026023Y011889D01*
X026023Y011519D01*
X026013Y011509D01*
X026013Y011505D02*
X025869Y011505D01*
X025918Y011564D02*
X026023Y011564D01*
X026023Y011622D02*
X025953Y011622D01*
X025953Y011681D02*
X026023Y011681D01*
X026023Y011739D02*
X025942Y011739D01*
X025884Y011798D02*
X026023Y011798D01*
X026043Y011829D02*
X026043Y011499D01*
X025983Y011447D02*
X025765Y011447D01*
X025713Y011447D02*
X025543Y011447D01*
X025543Y011505D02*
X025696Y011505D01*
X025638Y011564D02*
X025543Y011564D01*
X025543Y011622D02*
X025633Y011622D01*
X025633Y011681D02*
X025543Y011681D01*
X025543Y011739D02*
X025633Y011739D01*
X025672Y011798D02*
X025543Y011798D01*
X025543Y011856D02*
X025730Y011856D01*
X025763Y011856D02*
X026023Y011856D01*
X026043Y011829D02*
X026053Y011829D01*
X026049Y011915D02*
X025763Y011915D01*
X025733Y011915D02*
X025543Y011915D01*
X025503Y011889D02*
X025503Y011329D01*
X025553Y011330D02*
X025713Y011330D01*
X025503Y011329D02*
X025504Y011301D01*
X025508Y011274D01*
X025515Y011247D01*
X025527Y011222D01*
X025541Y011198D01*
X025559Y011176D01*
X025579Y011157D01*
X025602Y011141D01*
X025627Y011129D01*
X025653Y011119D01*
X025716Y011096D02*
X026973Y011096D01*
X026953Y011049D02*
X026953Y011039D01*
X026893Y010979D01*
X026733Y010979D01*
X026733Y011019D01*
X026723Y011029D01*
X026723Y011059D01*
X026683Y011099D01*
X026673Y011099D01*
X026633Y011059D01*
X026713Y011059D01*
X026723Y011049D01*
X026953Y011049D01*
X026951Y011037D02*
X026723Y011037D01*
X026763Y011009D02*
X026963Y011009D01*
X027013Y011059D01*
X027013Y011029D01*
X027073Y010969D01*
X027073Y010899D01*
X027123Y010849D01*
X027123Y010759D01*
X027173Y010709D01*
X027173Y010409D01*
X027203Y010379D01*
X027203Y010369D01*
X027223Y010349D01*
X027223Y010329D01*
X027193Y010299D01*
X027103Y010299D01*
X027083Y010319D01*
X027063Y010319D01*
X027043Y010339D01*
X027043Y010389D01*
X027063Y010389D01*
X027093Y010419D01*
X027093Y010649D01*
X027063Y010679D01*
X027063Y010769D01*
X027013Y010819D01*
X027013Y010879D01*
X026953Y010939D01*
X026903Y010939D01*
X026903Y010669D01*
X026853Y010669D01*
X026843Y010679D01*
X026843Y010759D01*
X026813Y010789D01*
X026803Y010789D01*
X026673Y010919D01*
X026393Y010919D01*
X026383Y010929D01*
X026713Y010939D01*
X026713Y010959D01*
X026763Y011009D01*
X026733Y010979D02*
X027063Y010979D01*
X027073Y010920D02*
X026971Y010920D01*
X026953Y010909D02*
X026933Y010909D01*
X026933Y010579D01*
X026893Y010569D02*
X025803Y010569D01*
X025763Y010539D02*
X025753Y010549D01*
X025753Y010879D01*
X025763Y010919D02*
X025743Y010939D01*
X025743Y011029D01*
X025753Y011039D01*
X025763Y011039D01*
X026353Y011069D01*
X026333Y011069D01*
X026273Y011059D01*
X026133Y010919D01*
X025763Y010919D01*
X025761Y010920D02*
X026134Y010920D01*
X026183Y010920D02*
X025733Y010920D01*
X025733Y010919D02*
X025733Y010929D01*
X026183Y010929D01*
X026183Y010609D01*
X026453Y010609D01*
X026453Y010639D01*
X026583Y010639D01*
X026583Y010619D01*
X026893Y010619D01*
X026893Y010489D01*
X026863Y010489D01*
X026863Y010509D01*
X026843Y010509D01*
X026843Y010419D01*
X026773Y010419D01*
X026773Y010519D01*
X026763Y010519D01*
X026763Y010399D01*
X026733Y010399D01*
X026733Y009969D01*
X026783Y009969D01*
X026783Y009839D01*
X026823Y009839D01*
X026823Y009819D01*
X026683Y009819D01*
X026683Y009869D01*
X026623Y009869D01*
X026623Y009929D01*
X026603Y009929D01*
X026593Y009936D01*
X026586Y009945D01*
X026582Y009957D01*
X026582Y009968D01*
X026586Y009980D01*
X026593Y009989D01*
X026613Y010009D01*
X026643Y010009D01*
X026643Y010399D01*
X026633Y010409D01*
X026093Y010409D01*
X026053Y010369D01*
X026053Y010009D01*
X026083Y009979D01*
X026063Y009959D01*
X026063Y009859D01*
X026023Y009819D01*
X025883Y009819D01*
X025893Y009829D01*
X025893Y009869D01*
X025903Y009879D01*
X025903Y009909D01*
X025933Y009939D01*
X025933Y009959D01*
X025943Y009969D01*
X025943Y009979D01*
X025983Y010019D01*
X025983Y010409D01*
X025973Y010419D01*
X025913Y010419D01*
X025873Y010459D01*
X025853Y010459D01*
X025803Y010509D01*
X025803Y010889D01*
X025773Y010919D01*
X025733Y010919D01*
X025713Y010929D02*
X025713Y011039D01*
X025723Y011049D01*
X025683Y011049D01*
X025683Y011029D01*
X025663Y011029D01*
X025663Y010999D01*
X025643Y010999D01*
X025643Y010969D01*
X025633Y010969D01*
X025633Y010939D01*
X025613Y010939D01*
X025613Y010869D01*
X025583Y010839D01*
X025583Y010789D01*
X025573Y010779D01*
X025573Y010729D01*
X025533Y010689D01*
X025533Y010609D01*
X025513Y010589D01*
X025513Y010459D01*
X025533Y010439D01*
X025533Y010409D01*
X025503Y010379D01*
X025503Y010359D01*
X025483Y010339D01*
X025483Y010329D01*
X025503Y010309D01*
X025623Y010309D01*
X025623Y010319D01*
X025663Y010359D01*
X025653Y010359D01*
X025613Y010399D01*
X025613Y010769D01*
X025643Y010799D01*
X025643Y010859D01*
X025713Y010929D01*
X025704Y010920D02*
X025613Y010920D01*
X025593Y010889D02*
X025523Y010689D01*
X025533Y010686D02*
X025613Y010686D01*
X025613Y010628D02*
X025533Y010628D01*
X025493Y010639D02*
X025493Y010419D01*
X025518Y010394D02*
X025618Y010394D01*
X025643Y010419D02*
X025656Y010412D01*
X025667Y010401D01*
X025676Y010388D01*
X025681Y010374D01*
X025683Y010359D01*
X025681Y010344D01*
X025676Y010330D01*
X025667Y010317D01*
X025656Y010306D01*
X025643Y010299D01*
X025639Y010335D02*
X025483Y010335D01*
X025483Y010289D02*
X025469Y010300D01*
X025457Y010313D01*
X025449Y010328D01*
X025443Y010345D01*
X025442Y010362D01*
X025444Y010379D01*
X025450Y010396D01*
X025460Y010411D01*
X025472Y010423D01*
X025487Y010432D01*
X025503Y010439D01*
X025519Y010452D02*
X025613Y010452D01*
X025613Y010511D02*
X025513Y010511D01*
X025513Y010569D02*
X025613Y010569D01*
X025613Y010745D02*
X025573Y010745D01*
X025583Y010803D02*
X025643Y010803D01*
X025646Y010862D02*
X025606Y010862D01*
X025643Y010979D02*
X025713Y010979D01*
X025743Y010979D02*
X026193Y010979D01*
X026223Y010979D02*
X026243Y010979D01*
X026223Y010979D01*
X026223Y010739D01*
X026223Y010759D01*
X026353Y010889D01*
X026333Y010889D01*
X026243Y010979D01*
X026251Y011037D02*
X025751Y011037D01*
X025713Y011037D02*
X025683Y011037D01*
X025803Y010862D02*
X026183Y010862D01*
X026223Y010862D02*
X026326Y010862D01*
X026301Y010920D02*
X026223Y010920D01*
X026223Y010803D02*
X026267Y010803D01*
X026183Y010803D02*
X025803Y010803D01*
X025803Y010745D02*
X026183Y010745D01*
X026183Y010686D02*
X025803Y010686D01*
X025803Y010628D02*
X026183Y010628D01*
X026233Y010649D02*
X026453Y010649D01*
X026453Y010628D02*
X026583Y010628D01*
X026583Y010649D02*
X026803Y010649D01*
X026811Y010651D01*
X026817Y010655D01*
X026821Y010661D01*
X026823Y010669D01*
X026821Y010677D01*
X026817Y010683D01*
X026811Y010687D01*
X026803Y010689D01*
X026843Y010686D02*
X026903Y010686D01*
X026903Y010745D02*
X026843Y010745D01*
X026788Y010803D02*
X026903Y010803D01*
X026903Y010862D02*
X026730Y010862D01*
X026610Y010999D02*
X026612Y011014D01*
X026617Y011028D01*
X026626Y011041D01*
X026637Y011051D01*
X026651Y011058D01*
X026665Y011062D01*
X026681Y011062D01*
X026695Y011058D01*
X026709Y011051D01*
X026720Y011041D01*
X026729Y011028D01*
X026734Y011014D01*
X026736Y010999D01*
X026734Y010984D01*
X026729Y010970D01*
X026720Y010957D01*
X026709Y010947D01*
X026695Y010940D01*
X026681Y010936D01*
X026665Y010936D01*
X026651Y010940D01*
X026637Y010947D01*
X026626Y010957D01*
X026617Y010970D01*
X026612Y010984D01*
X026610Y010999D01*
X026563Y011059D02*
X026573Y011069D01*
X026563Y011059D02*
X026463Y011059D01*
X026446Y010999D02*
X026448Y011015D01*
X026454Y011030D01*
X026463Y011043D01*
X026475Y011054D01*
X026489Y011062D01*
X026505Y011066D01*
X026521Y011066D01*
X026537Y011062D01*
X026551Y011054D01*
X026563Y011043D01*
X026572Y011030D01*
X026578Y011015D01*
X026580Y010999D01*
X026578Y010983D01*
X026572Y010968D01*
X026563Y010955D01*
X026551Y010944D01*
X026537Y010936D01*
X026521Y010932D01*
X026505Y010932D01*
X026489Y010936D01*
X026475Y010944D01*
X026463Y010955D01*
X026454Y010968D01*
X026448Y010983D01*
X026446Y010999D01*
X026286Y010999D02*
X026288Y011015D01*
X026294Y011030D01*
X026303Y011043D01*
X026315Y011054D01*
X026329Y011062D01*
X026345Y011066D01*
X026361Y011066D01*
X026377Y011062D01*
X026391Y011054D01*
X026403Y011043D01*
X026412Y011030D01*
X026418Y011015D01*
X026420Y010999D01*
X026418Y010983D01*
X026412Y010968D01*
X026403Y010955D01*
X026391Y010944D01*
X026377Y010936D01*
X026361Y010932D01*
X026345Y010932D01*
X026329Y010936D01*
X026315Y010944D01*
X026303Y010955D01*
X026294Y010968D01*
X026288Y010983D01*
X026286Y010999D01*
X026391Y010920D02*
X026903Y010920D01*
X027013Y010862D02*
X027110Y010862D01*
X027123Y010803D02*
X027028Y010803D01*
X027063Y010745D02*
X027137Y010745D01*
X027173Y010759D02*
X027203Y010419D01*
X027188Y010394D02*
X027068Y010394D01*
X027053Y010439D02*
X027039Y010431D01*
X027026Y010421D01*
X027016Y010408D01*
X027009Y010393D01*
X027005Y010377D01*
X027004Y010361D01*
X027007Y010345D01*
X027013Y010329D01*
X027022Y010316D01*
X027034Y010304D01*
X027048Y010295D01*
X027063Y010290D01*
X027046Y010335D02*
X027223Y010335D01*
X027233Y010299D02*
X027245Y010309D01*
X027255Y010323D01*
X027261Y010338D01*
X027263Y010354D01*
X027262Y010370D01*
X027257Y010385D01*
X027248Y010399D01*
X027237Y010411D01*
X027223Y010419D01*
X027173Y010452D02*
X027093Y010452D01*
X027093Y010511D02*
X027173Y010511D01*
X027173Y010569D02*
X027093Y010569D01*
X027093Y010628D02*
X027173Y010628D01*
X027173Y010686D02*
X027063Y010686D01*
X026893Y010511D02*
X026773Y010511D01*
X026763Y010511D02*
X025803Y010511D01*
X025879Y010452D02*
X026763Y010452D01*
X026773Y010452D02*
X026843Y010452D01*
X026763Y010359D02*
X026753Y010359D01*
X026753Y010019D01*
X026733Y010043D02*
X026643Y010043D01*
X026613Y010019D02*
X026613Y010359D01*
X026083Y010359D01*
X026083Y010019D01*
X026093Y010019D01*
X026078Y009984D02*
X025948Y009984D01*
X025923Y010019D02*
X025909Y010015D01*
X025897Y010008D01*
X025887Y009997D01*
X025879Y009985D01*
X025875Y009971D01*
X025874Y009957D01*
X025877Y009943D01*
X025883Y009929D01*
X025920Y009926D02*
X026063Y009926D01*
X026103Y009930D02*
X026113Y009938D01*
X026121Y009948D01*
X026126Y009960D01*
X026128Y009973D01*
X026126Y009986D01*
X026121Y009999D01*
X026113Y010009D01*
X026053Y010043D02*
X025983Y010043D01*
X025943Y010039D02*
X025943Y010389D01*
X025913Y010389D01*
X025983Y010394D02*
X026078Y010394D01*
X026053Y010335D02*
X025983Y010335D01*
X025983Y010277D02*
X026053Y010277D01*
X026053Y010218D02*
X025983Y010218D01*
X025983Y010160D02*
X026053Y010160D01*
X026053Y010101D02*
X025983Y010101D01*
X026103Y009899D02*
X026107Y009884D01*
X026108Y009869D01*
X026105Y009854D01*
X026100Y009839D01*
X026092Y009826D01*
X026081Y009815D01*
X026068Y009807D01*
X026054Y009801D01*
X026038Y009798D01*
X026023Y009799D01*
X026033Y009779D02*
X026043Y009789D01*
X026033Y009779D02*
X025903Y009779D01*
X025883Y009769D02*
X025870Y009771D01*
X025859Y009776D01*
X025849Y009784D01*
X025842Y009794D01*
X025837Y009806D01*
X025836Y009818D01*
X025838Y009831D01*
X025844Y009842D01*
X025852Y009852D01*
X025863Y009859D01*
X025893Y009867D02*
X026063Y009867D01*
X026589Y009984D02*
X026733Y009984D01*
X026783Y010019D02*
X026794Y010010D01*
X026803Y009998D01*
X026809Y009985D01*
X026812Y009971D01*
X026812Y009957D01*
X026808Y009943D01*
X026802Y009930D01*
X026793Y009919D01*
X026783Y009926D02*
X026623Y009926D01*
X026683Y009867D02*
X026783Y009867D01*
X026813Y009889D02*
X026827Y009882D01*
X026841Y009873D01*
X026852Y009862D01*
X026861Y009849D01*
X026868Y009835D01*
X026873Y009819D01*
X026883Y009799D02*
X026875Y009792D01*
X026865Y009787D01*
X026854Y009785D01*
X026843Y009786D01*
X026833Y009789D01*
X026843Y009769D02*
X026863Y009789D01*
X026843Y009769D02*
X026713Y009769D01*
X026722Y009769D02*
X026705Y009767D01*
X026688Y009769D01*
X026671Y009774D01*
X026656Y009783D01*
X026643Y009794D01*
X026633Y009808D01*
X026626Y009824D01*
X026622Y009842D01*
X026623Y009859D01*
X026643Y010101D02*
X026733Y010101D01*
X026733Y010160D02*
X026643Y010160D01*
X026643Y010218D02*
X026733Y010218D01*
X026733Y010277D02*
X026643Y010277D01*
X026643Y010335D02*
X026733Y010335D01*
X026733Y010394D02*
X026643Y010394D01*
X026773Y010379D02*
X026799Y010384D01*
X026823Y010393D01*
X026846Y010405D01*
X026868Y010421D01*
X026886Y010439D01*
X026902Y010460D01*
X026915Y010483D01*
X026925Y010507D01*
X026931Y010533D01*
X026933Y010559D01*
X027173Y010759D02*
X027166Y010804D01*
X027155Y010849D01*
X027141Y010893D01*
X027123Y010935D01*
X027103Y010977D01*
X027079Y011016D01*
X027053Y011054D01*
X027023Y011089D01*
X027013Y011037D02*
X026991Y011037D01*
X026686Y011096D02*
X026670Y011096D01*
X026573Y010789D02*
X026533Y010699D01*
X026523Y010709D02*
X026573Y010789D01*
X026563Y010659D02*
X026557Y010671D01*
X026548Y010680D01*
X026537Y010687D01*
X026525Y010691D01*
X026511Y010691D01*
X026499Y010687D01*
X026488Y010680D01*
X026479Y010671D01*
X026473Y010659D01*
X026233Y010689D02*
X026243Y010721D01*
X026257Y010751D01*
X026274Y010780D01*
X026294Y010806D01*
X026317Y010830D01*
X026343Y010852D01*
X026371Y010870D01*
X026400Y010885D01*
X026432Y010897D01*
X026464Y010905D01*
X026497Y010909D01*
X026530Y010910D01*
X026564Y010907D01*
X026596Y010900D01*
X026628Y010889D01*
X026658Y010875D01*
X026687Y010858D01*
X026713Y010837D01*
X026737Y010814D01*
X026758Y010788D01*
X026776Y010760D01*
X026791Y010730D01*
X026803Y010699D01*
X027183Y010680D02*
X027190Y010636D01*
X027195Y010592D01*
X027197Y010548D01*
X027196Y010504D01*
X027193Y010460D01*
X027253Y010149D02*
X027262Y010166D01*
X027267Y010185D01*
X027269Y010204D01*
X027267Y010224D01*
X027262Y010242D01*
X027253Y010260D01*
X027241Y010275D01*
X027226Y010288D01*
X027209Y010297D01*
X027191Y010304D01*
X027172Y010307D01*
X027152Y010306D01*
X027133Y010302D01*
X027116Y010294D01*
X027100Y010283D01*
X027086Y010269D01*
X027075Y010253D01*
X027068Y010235D01*
X027064Y010216D01*
X027063Y010196D01*
X027067Y010177D01*
X027073Y010159D01*
X025633Y010439D02*
X025627Y010492D01*
X025625Y010546D01*
X025627Y010600D01*
X025632Y010654D01*
X025641Y010707D01*
X025654Y010759D01*
X025670Y010810D01*
X025690Y010860D01*
X025713Y010909D01*
X025713Y011271D02*
X026070Y011271D01*
X026022Y011330D02*
X025782Y011330D01*
X025773Y011388D02*
X025993Y011388D01*
X026043Y011489D02*
X026045Y011467D01*
X026050Y011446D01*
X026058Y011426D01*
X026069Y011407D01*
X026083Y011390D01*
X026100Y011376D01*
X026118Y011364D01*
X026138Y011356D01*
X026159Y011350D01*
X026181Y011348D01*
X026203Y011349D01*
X026423Y011459D02*
X026423Y011529D01*
X026533Y011529D02*
X026533Y011459D01*
X026623Y011459D02*
X026623Y011529D01*
X026733Y011529D02*
X026733Y011459D01*
X026933Y011359D02*
X026954Y011359D01*
X026974Y011363D01*
X026994Y011370D01*
X027012Y011381D01*
X027028Y011394D01*
X027041Y011410D01*
X027052Y011428D01*
X027059Y011448D01*
X027063Y011468D01*
X027063Y011489D01*
X027063Y011499D02*
X027063Y011829D01*
X027093Y011856D02*
X027173Y011856D01*
X027173Y011798D02*
X027103Y011798D01*
X027103Y011739D02*
X027173Y011739D01*
X027173Y011681D02*
X027103Y011681D01*
X027103Y011622D02*
X027173Y011622D01*
X027173Y011564D02*
X027103Y011564D01*
X027103Y011505D02*
X027173Y011505D01*
X027173Y011447D02*
X027103Y011447D01*
X027091Y011388D02*
X027173Y011388D01*
X026873Y011629D02*
X026875Y011637D01*
X026880Y011644D01*
X026887Y011648D01*
X026895Y011649D01*
X026903Y011646D01*
X026909Y011641D01*
X026913Y011633D01*
X026913Y011625D01*
X026909Y011617D01*
X026903Y011612D01*
X026895Y011609D01*
X026887Y011610D01*
X026880Y011614D01*
X026875Y011621D01*
X026873Y011629D01*
X026823Y011639D02*
X026825Y011652D01*
X026830Y011665D01*
X026839Y011676D01*
X026850Y011683D01*
X026863Y011688D01*
X026876Y011689D01*
X026890Y011686D01*
X026902Y011680D01*
X026912Y011671D01*
X026919Y011659D01*
X026923Y011646D01*
X026923Y011632D01*
X026919Y011619D01*
X026912Y011607D01*
X026902Y011598D01*
X026890Y011592D01*
X026876Y011589D01*
X026863Y011590D01*
X026850Y011595D01*
X026839Y011602D01*
X026830Y011613D01*
X026825Y011626D01*
X026823Y011639D01*
X026883Y011809D02*
X026623Y011809D01*
X026623Y011639D01*
X026533Y011639D01*
X026533Y011809D01*
X026573Y011809D01*
X026583Y011819D01*
X026583Y011689D01*
X026533Y011809D02*
X026253Y011809D01*
X026253Y011849D02*
X026883Y011849D01*
X026883Y011809D01*
X026903Y011969D02*
X026924Y011974D01*
X026945Y011976D01*
X026966Y011974D01*
X026986Y011970D01*
X027005Y011961D01*
X027023Y011950D01*
X027039Y011936D01*
X027052Y011919D01*
X027062Y011901D01*
X027069Y011881D01*
X027073Y011860D01*
X027073Y011839D01*
X027063Y011829D02*
X027066Y011848D01*
X027065Y011868D01*
X027062Y011887D01*
X027055Y011905D01*
X027045Y011922D01*
X027032Y011937D01*
X027017Y011949D01*
X027000Y011959D01*
X026982Y011965D01*
X026963Y011969D01*
X026943Y011969D01*
X026933Y011969D02*
X026903Y011969D01*
X026213Y011969D01*
X026193Y011969D01*
X026163Y011989D02*
X026503Y012199D01*
X026441Y012207D02*
X026196Y012207D01*
X026163Y011989D02*
X026083Y011999D01*
X026078Y011973D02*
X025763Y011973D01*
X025733Y011973D02*
X025547Y011973D01*
X025493Y011899D02*
X025495Y011927D01*
X025500Y011955D01*
X025509Y011981D01*
X025521Y012007D01*
X025536Y012031D01*
X025555Y012052D01*
X025575Y012071D01*
X025598Y012087D01*
X025623Y012101D01*
X025650Y012110D01*
X025677Y012117D01*
X025705Y012120D01*
X025733Y012119D01*
X025693Y012090D02*
X026641Y012090D01*
X026953Y012129D02*
X026982Y012127D01*
X027010Y012122D01*
X027038Y012113D01*
X027065Y012102D01*
X027089Y012087D01*
X027112Y012069D01*
X027133Y012048D01*
X027151Y012025D01*
X027166Y012001D01*
X027177Y011974D01*
X027186Y011946D01*
X027191Y011918D01*
X027193Y011889D01*
X026633Y012139D02*
X026602Y012167D01*
X026568Y012192D01*
X026533Y012213D01*
X026495Y012231D01*
X026456Y012246D01*
X026416Y012257D01*
X026375Y012265D01*
X026334Y012269D01*
X026292Y012269D01*
X026251Y012265D01*
X026210Y012257D01*
X026170Y012246D01*
X026131Y012231D01*
X026093Y012213D01*
X026058Y012192D01*
X026024Y012167D01*
X025993Y012139D01*
X026213Y011969D02*
X026191Y011971D01*
X026168Y011969D01*
X026146Y011964D01*
X026125Y011956D01*
X026106Y011944D01*
X026088Y011930D01*
X026073Y011913D01*
X026061Y011894D01*
X026052Y011873D01*
X026046Y011852D01*
X026043Y011829D01*
X026243Y011629D02*
X026245Y011634D01*
X026249Y011638D01*
X026254Y011639D01*
X026260Y011637D01*
X026263Y011632D01*
X026263Y011626D01*
X026260Y011621D01*
X026254Y011619D01*
X026249Y011620D01*
X026245Y011624D01*
X026243Y011629D01*
X026203Y011629D02*
X026205Y011642D01*
X026210Y011655D01*
X026219Y011666D01*
X026230Y011673D01*
X026243Y011678D01*
X026256Y011679D01*
X026270Y011676D01*
X026282Y011670D01*
X026292Y011661D01*
X026299Y011649D01*
X026303Y011636D01*
X026303Y011622D01*
X026299Y011609D01*
X026292Y011597D01*
X026282Y011588D01*
X026270Y011582D01*
X026256Y011579D01*
X026243Y011580D01*
X026230Y011585D01*
X026219Y011592D01*
X026210Y011603D01*
X026205Y011616D01*
X026203Y011629D01*
X025783Y011510D02*
X025759Y011514D01*
X025736Y011522D01*
X025714Y011533D01*
X025694Y011548D01*
X025677Y011566D01*
X025663Y011586D01*
X025652Y011608D01*
X025645Y011632D01*
X025641Y011656D01*
X025642Y011680D01*
X025646Y011705D01*
X025654Y011728D01*
X025665Y011750D01*
X025680Y011769D01*
X025698Y011787D01*
X025718Y011801D01*
X025740Y011812D01*
X025763Y011819D01*
X025773Y011819D02*
X025797Y011816D01*
X025820Y011810D01*
X025843Y011799D01*
X025863Y011786D01*
X025880Y011769D01*
X025895Y011750D01*
X025907Y011729D01*
X025915Y011706D01*
X025919Y011682D01*
X025920Y011658D01*
X025916Y011634D01*
X025909Y011611D01*
X025898Y011589D01*
X025884Y011569D01*
X025867Y011552D01*
X025848Y011538D01*
X025826Y011527D01*
X025803Y011519D01*
X025713Y011388D02*
X025543Y011388D01*
X025553Y011271D02*
X025713Y011271D01*
X025773Y010559D02*
X025770Y010537D01*
X025771Y010514D01*
X025776Y010491D01*
X025784Y010470D01*
X025796Y010450D01*
X025810Y010433D01*
X025827Y010417D01*
X025847Y010405D01*
X025868Y010396D01*
X025890Y010391D01*
X025913Y010389D01*
X027063Y010439D02*
X027062Y010499D01*
X027058Y010558D01*
X027050Y010617D01*
X027039Y010675D01*
X027025Y010733D01*
X027007Y010789D01*
X026987Y010845D01*
X026963Y010899D01*
X025663Y011089D02*
X025630Y011046D01*
X025600Y011000D01*
X025574Y010952D01*
X025551Y010903D01*
X025532Y010852D01*
X025517Y010800D01*
X025505Y010747D01*
X025497Y010693D01*
X025493Y010639D01*
X025493Y010169D02*
X025484Y010186D01*
X025479Y010204D01*
X025478Y010222D01*
X025481Y010241D01*
X025487Y010258D01*
X025496Y010274D01*
X025509Y010288D01*
X025524Y010299D01*
X025541Y010307D01*
X025559Y010311D01*
X025577Y010312D01*
X025596Y010309D01*
X025613Y010302D01*
X025629Y010292D01*
X025642Y010279D01*
X025652Y010264D01*
X025660Y010247D01*
X025664Y010228D01*
X025664Y010210D01*
X025660Y010192D01*
X025653Y010174D01*
X025642Y010159D01*
X026233Y010649D02*
X026226Y010650D01*
X026221Y010655D01*
X026218Y010661D01*
X026218Y010667D01*
X026221Y010673D01*
X026226Y010678D01*
X026233Y010679D01*
X014967Y010617D02*
X014467Y010617D01*
X014367Y010137D02*
X014367Y009877D01*
X014467Y009397D02*
X014597Y009397D01*
X014837Y009397D01*
X014967Y009397D01*
D16*
X010701Y012094D02*
X007551Y012094D01*
X012931Y025176D02*
X013081Y025176D01*
X013831Y025176D02*
X014081Y025176D01*
X014581Y025176D02*
X014831Y025176D01*
X014831Y027476D02*
X013831Y027476D01*
X013431Y027476D02*
X013331Y027476D01*
X013331Y027326D01*
X031232Y026023D02*
X031232Y024023D01*
X032482Y024023D01*
X032482Y026023D01*
X031232Y026023D01*
X033673Y027842D02*
X036390Y027842D01*
X036390Y029495D01*
X033673Y029495D01*
X033673Y027842D01*
D17*
X014831Y027476D02*
X014831Y026326D01*
X014831Y025176D01*
X014581Y025176D01*
X014581Y025426D01*
X014081Y025426D01*
X014081Y025176D01*
X013581Y025176D01*
X013581Y025426D01*
X013081Y025426D01*
X013081Y025176D01*
X012831Y025176D01*
X013831Y025176D01*
X014081Y025176D02*
X014581Y025176D01*
X014231Y026876D02*
X013431Y026876D01*
X013331Y027076D01*
X013431Y027076D01*
X013431Y027476D01*
X013331Y027476D02*
X013331Y027076D01*
X013431Y027076D02*
X014231Y027076D01*
X014231Y027476D01*
X014331Y027476D02*
X014331Y027076D01*
X014231Y026876D01*
X014231Y027076D02*
X014331Y027076D01*
X013831Y027476D02*
X013331Y027476D01*
X012831Y027476D01*
X012831Y026326D01*
X012831Y025176D01*
X028389Y011937D02*
X028659Y011937D01*
X028709Y011617D01*
X028959Y011517D02*
X029219Y011697D01*
X029409Y011517D01*
X029229Y011257D01*
X029339Y011007D02*
X029639Y010947D01*
X029639Y010687D01*
X029339Y010637D01*
X029239Y010367D02*
X029409Y010127D01*
X029219Y009937D01*
X028979Y010107D01*
X028879Y010047D01*
X028689Y010497D01*
X029239Y010367D02*
X029262Y010408D01*
X029283Y010451D01*
X029301Y010496D01*
X029316Y010541D01*
X029329Y010587D01*
X029339Y010634D01*
X029337Y011008D02*
X029322Y011060D01*
X029303Y011111D01*
X029281Y011161D01*
X029256Y011209D01*
X029227Y011256D01*
X028689Y010507D02*
X028722Y010525D01*
X028752Y010546D01*
X028781Y010570D01*
X028807Y010597D01*
X028829Y010626D01*
X028849Y010658D01*
X028866Y010691D01*
X028879Y010726D01*
X028888Y010762D01*
X028894Y010799D01*
X028896Y010836D01*
X028894Y010873D01*
X028889Y010910D01*
X028879Y010946D01*
X028867Y010981D01*
X028850Y011015D01*
X028831Y011046D01*
X028808Y011076D01*
X028782Y011103D01*
X028754Y011127D01*
X028723Y011148D01*
X028691Y011166D01*
X028657Y011181D01*
X028621Y011192D01*
X028585Y011200D01*
X028548Y011204D01*
X028510Y011204D01*
X028473Y011200D01*
X028437Y011192D01*
X028401Y011181D01*
X028367Y011166D01*
X028335Y011148D01*
X028304Y011127D01*
X028276Y011103D01*
X028250Y011076D01*
X028227Y011046D01*
X028208Y011015D01*
X028191Y010981D01*
X028179Y010946D01*
X028169Y010910D01*
X028164Y010873D01*
X028162Y010836D01*
X028164Y010799D01*
X028170Y010762D01*
X028179Y010726D01*
X028192Y010691D01*
X028209Y010658D01*
X028229Y010626D01*
X028251Y010597D01*
X028277Y010570D01*
X028306Y010546D01*
X028336Y010525D01*
X028369Y010507D01*
X028369Y010497D02*
X028169Y010047D01*
X028069Y010107D01*
X027829Y009937D01*
X027649Y010127D01*
X027809Y010367D01*
X027709Y010637D02*
X027409Y010687D01*
X027409Y010947D01*
X027709Y011007D01*
X027819Y011257D02*
X027639Y011517D01*
X027829Y011697D01*
X028089Y011517D01*
X028339Y011617D02*
X028389Y011937D01*
X028331Y011618D02*
X028281Y011605D01*
X028232Y011588D01*
X028184Y011569D01*
X028137Y011546D01*
X028092Y011521D01*
X027819Y011252D02*
X027792Y011205D01*
X027768Y011158D01*
X027747Y011109D01*
X027729Y011058D01*
X027715Y011007D01*
X027709Y010636D02*
X027722Y010580D01*
X027739Y010525D01*
X027760Y010472D01*
X027784Y010420D01*
X027812Y010370D01*
X028714Y011620D02*
X028766Y011606D01*
X028817Y011589D01*
X028867Y011569D01*
X028916Y011546D01*
X028963Y011519D01*
D18*
X026383Y012039D03*
D19*
X025643Y012034D03*
D20*
X038506Y028196D03*
X038801Y028196D03*
D21*
X038654Y028196D03*
D22*
X025189Y027271D02*
X025189Y026779D01*
X025189Y027271D02*
X023969Y027271D01*
X023536Y026838D01*
X023536Y026050D02*
X023969Y025617D01*
X025189Y025617D01*
X025189Y026110D01*
X025051Y026779D02*
X025025Y026827D01*
X024996Y026874D01*
X024963Y026919D01*
X024927Y026961D01*
X024888Y027000D01*
X024847Y027037D01*
X024803Y027070D01*
X024757Y027101D01*
X024708Y027127D01*
X024658Y027150D01*
X024606Y027170D01*
X024553Y027186D01*
X024499Y027198D01*
X024445Y027206D01*
X024390Y027210D01*
X024334Y027210D01*
X024279Y027206D01*
X024225Y027198D01*
X024171Y027186D01*
X024118Y027170D01*
X024066Y027150D01*
X024016Y027127D01*
X023967Y027101D01*
X023921Y027070D01*
X023877Y027037D01*
X023836Y027000D01*
X023797Y026961D01*
X023761Y026919D01*
X023728Y026874D01*
X023699Y026827D01*
X023673Y026779D01*
X023673Y026109D02*
X023699Y026061D01*
X023728Y026014D01*
X023761Y025969D01*
X023797Y025927D01*
X023836Y025888D01*
X023877Y025851D01*
X023921Y025818D01*
X023967Y025787D01*
X024016Y025761D01*
X024066Y025738D01*
X024118Y025718D01*
X024171Y025702D01*
X024225Y025690D01*
X024279Y025682D01*
X024334Y025678D01*
X024390Y025678D01*
X024445Y025682D01*
X024499Y025690D01*
X024553Y025702D01*
X024606Y025718D01*
X024658Y025738D01*
X024708Y025761D01*
X024757Y025787D01*
X024803Y025818D01*
X024847Y025851D01*
X024888Y025888D01*
X024927Y025927D01*
X024963Y025969D01*
X024996Y026014D01*
X025025Y026061D01*
X025051Y026109D01*
X015576Y027205D02*
X015336Y027205D01*
X015516Y027386D01*
X015516Y027025D01*
X015208Y027025D02*
X014968Y027386D01*
X015208Y027386D02*
X014968Y027025D01*
X005585Y012448D02*
X002588Y012448D01*
X002588Y011025D01*
X002218Y011025D01*
X002205Y011026D01*
X002192Y011031D01*
X002181Y011038D01*
X002171Y011048D01*
X002164Y011059D01*
X002159Y011072D01*
X002158Y011085D01*
X002158Y011085D01*
X002160Y011100D01*
X002165Y011114D01*
X002172Y011126D01*
X002183Y011137D01*
X002195Y011144D01*
X002209Y011149D01*
X002224Y011151D01*
X002285Y011151D01*
X002285Y011152D02*
X002302Y011154D01*
X002319Y011159D01*
X002334Y011167D01*
X002347Y011178D01*
X002358Y011191D01*
X002366Y011206D01*
X002371Y011223D01*
X002373Y011240D01*
X002373Y011251D01*
X002371Y011268D01*
X002366Y011285D01*
X002358Y011300D01*
X002347Y011313D01*
X002334Y011324D01*
X002319Y011332D01*
X002302Y011337D01*
X002285Y011339D01*
X002218Y011339D01*
X002204Y011341D01*
X002192Y011345D01*
X002180Y011352D01*
X002170Y011362D01*
X002163Y011374D01*
X002159Y011386D01*
X002157Y011400D01*
X002158Y011400D02*
X002160Y011415D01*
X002165Y011429D01*
X002172Y011441D01*
X002183Y011452D01*
X002195Y011459D01*
X002209Y011464D01*
X002224Y011466D01*
X002566Y011466D01*
X002610Y011979D02*
X003217Y011979D01*
X003239Y011977D01*
X003260Y011972D01*
X003280Y011964D01*
X003298Y011953D01*
X003315Y011939D01*
X003329Y011922D01*
X003340Y011904D01*
X003348Y011884D01*
X003353Y011863D01*
X003355Y011841D01*
X003355Y011825D01*
X003421Y010379D01*
X003422Y010379D02*
X003421Y010365D01*
X003417Y010351D01*
X003409Y010340D01*
X003399Y010330D01*
X003387Y010323D01*
X003374Y010319D01*
X003360Y010318D01*
X003346Y010321D01*
X003333Y010327D01*
X003323Y010335D01*
X003314Y010347D01*
X003308Y010359D01*
X003306Y010373D01*
X003217Y011709D01*
X003218Y011708D02*
X003215Y011727D01*
X003208Y011744D01*
X003199Y011760D01*
X003186Y011774D01*
X003171Y011785D01*
X003155Y011793D01*
X003137Y011798D01*
X003118Y011799D01*
X003100Y011797D01*
X003082Y011791D01*
X003066Y011782D01*
X003052Y011770D01*
X003040Y011755D01*
X003031Y011739D01*
X003026Y011721D01*
X003024Y011703D01*
X002936Y010362D01*
X002934Y010350D01*
X002928Y010339D01*
X002920Y010330D01*
X002910Y010323D01*
X002899Y010319D01*
X002887Y010318D01*
X002886Y010318D02*
X002610Y010318D01*
X002588Y011025D02*
X002588Y008944D01*
X002218Y008944D01*
X002218Y008943D02*
X002205Y008944D01*
X002192Y008949D01*
X002180Y008956D01*
X002170Y008966D01*
X002163Y008978D01*
X002158Y008991D01*
X002157Y009004D01*
X002158Y009004D02*
X002158Y009004D01*
X002160Y009019D01*
X002165Y009033D01*
X002172Y009045D01*
X002183Y009056D01*
X002195Y009063D01*
X002209Y009068D01*
X002224Y009070D01*
X002224Y009071D02*
X002285Y009071D01*
X002302Y009073D01*
X002319Y009078D01*
X002334Y009086D01*
X002347Y009097D01*
X002358Y009110D01*
X002366Y009125D01*
X002371Y009142D01*
X002373Y009159D01*
X002373Y009170D01*
X002371Y009187D01*
X002366Y009204D01*
X002358Y009219D01*
X002347Y009232D01*
X002334Y009243D01*
X002319Y009251D01*
X002302Y009256D01*
X002285Y009258D01*
X002218Y009258D01*
X002204Y009260D01*
X002192Y009264D01*
X002180Y009271D01*
X002170Y009281D01*
X002163Y009293D01*
X002159Y009305D01*
X002157Y009319D01*
X002158Y009319D02*
X002160Y009334D01*
X002165Y009348D01*
X002172Y009360D01*
X002183Y009371D01*
X002195Y009378D01*
X002209Y009383D01*
X002224Y009385D01*
X002566Y009385D01*
X003090Y008944D02*
X003112Y008946D01*
X003133Y008951D01*
X003153Y008959D01*
X003171Y008970D01*
X003188Y008984D01*
X003202Y009001D01*
X003213Y009019D01*
X003221Y009039D01*
X003226Y009060D01*
X003228Y009082D01*
X003228Y009314D01*
X003090Y008944D02*
X002588Y008944D01*
X003802Y010202D02*
X004382Y010202D01*
X004403Y010204D01*
X004423Y010209D01*
X004442Y010217D01*
X004460Y010227D01*
X004476Y010241D01*
X004490Y010257D01*
X004500Y010275D01*
X004508Y010294D01*
X004513Y010314D01*
X004515Y010335D01*
X004514Y010335D02*
X004597Y011919D01*
X004598Y011918D02*
X004597Y011932D01*
X004592Y011945D01*
X004584Y011956D01*
X004574Y011965D01*
X004561Y011971D01*
X004548Y011974D01*
X004534Y011973D01*
X004521Y011968D01*
X004510Y011960D01*
X004501Y011950D01*
X004495Y011937D01*
X004492Y011924D01*
X004426Y010699D01*
X004424Y010675D01*
X004419Y010651D01*
X004411Y010628D01*
X004399Y010607D01*
X004384Y010587D01*
X004367Y010570D01*
X004347Y010555D01*
X004326Y010543D01*
X004303Y010535D01*
X004279Y010530D01*
X004255Y010528D01*
X003907Y010528D01*
X003907Y010527D02*
X003883Y010529D01*
X003860Y010534D01*
X003838Y010542D01*
X003817Y010553D01*
X003798Y010568D01*
X003782Y010584D01*
X003767Y010603D01*
X003756Y010624D01*
X003748Y010646D01*
X003743Y010669D01*
X003741Y010693D01*
X003742Y010693D02*
X003742Y010721D01*
X003686Y011919D01*
X003684Y011932D01*
X003678Y011945D01*
X003669Y011956D01*
X003658Y011964D01*
X003645Y011969D01*
X003631Y011971D01*
X003617Y011969D01*
X003604Y011964D01*
X003593Y011956D01*
X003584Y011945D01*
X003578Y011932D01*
X003576Y011919D01*
X003659Y010346D01*
X003658Y010346D02*
X003660Y010323D01*
X003665Y010302D01*
X003674Y010281D01*
X003686Y010261D01*
X003700Y010244D01*
X003717Y010230D01*
X003737Y010218D01*
X003758Y010209D01*
X003779Y010204D01*
X003802Y010202D01*
X004752Y010379D02*
X004818Y011825D01*
X004818Y011841D01*
X004820Y011863D01*
X004825Y011884D01*
X004833Y011904D01*
X004844Y011922D01*
X004858Y011939D01*
X004875Y011953D01*
X004893Y011964D01*
X004913Y011972D01*
X004934Y011977D01*
X004956Y011979D01*
X005563Y011979D01*
X005149Y011703D02*
X005237Y010362D01*
X005238Y010362D02*
X005240Y010350D01*
X005246Y010339D01*
X005254Y010330D01*
X005264Y010323D01*
X005275Y010319D01*
X005287Y010318D01*
X005563Y010318D01*
X004868Y010373D02*
X004956Y011709D01*
X004955Y011709D02*
X004958Y011728D01*
X004965Y011745D01*
X004974Y011761D01*
X004987Y011775D01*
X005002Y011786D01*
X005018Y011794D01*
X005036Y011799D01*
X005055Y011800D01*
X005073Y011798D01*
X005091Y011792D01*
X005107Y011783D01*
X005121Y011771D01*
X005133Y011756D01*
X005142Y011740D01*
X005147Y011722D01*
X005149Y011704D01*
X005585Y011466D02*
X005955Y011466D01*
X005968Y011465D01*
X005981Y011460D01*
X005992Y011453D01*
X006002Y011443D01*
X006009Y011432D01*
X006014Y011419D01*
X006015Y011406D01*
X006016Y011405D02*
X006016Y011405D01*
X006015Y011405D02*
X006013Y011390D01*
X006008Y011376D01*
X006001Y011364D01*
X005990Y011353D01*
X005978Y011346D01*
X005964Y011341D01*
X005949Y011339D01*
X005889Y011339D01*
X005872Y011337D01*
X005855Y011332D01*
X005840Y011324D01*
X005827Y011313D01*
X005816Y011300D01*
X005808Y011285D01*
X005803Y011268D01*
X005801Y011251D01*
X005800Y011251D02*
X005800Y011240D01*
X005801Y011240D02*
X005803Y011223D01*
X005808Y011206D01*
X005816Y011191D01*
X005827Y011178D01*
X005840Y011167D01*
X005855Y011159D01*
X005872Y011154D01*
X005889Y011152D01*
X005889Y011151D02*
X005955Y011151D01*
X005955Y011152D02*
X005969Y011150D01*
X005981Y011146D01*
X005993Y011139D01*
X006003Y011129D01*
X006010Y011117D01*
X006014Y011105D01*
X006016Y011091D01*
X006015Y011091D02*
X006013Y011076D01*
X006008Y011062D01*
X006001Y011050D01*
X005990Y011039D01*
X005978Y011032D01*
X005964Y011027D01*
X005949Y011025D01*
X005949Y011024D02*
X005607Y011024D01*
X004868Y010373D02*
X004866Y010359D01*
X004860Y010347D01*
X004851Y010335D01*
X004841Y010327D01*
X004828Y010321D01*
X004814Y010318D01*
X004800Y010319D01*
X004787Y010323D01*
X004775Y010330D01*
X004765Y010340D01*
X004757Y010351D01*
X004753Y010365D01*
X004752Y010379D01*
X005585Y009385D02*
X005955Y009385D01*
X005955Y009386D02*
X005968Y009384D01*
X005981Y009380D01*
X005993Y009373D01*
X006003Y009363D01*
X006010Y009351D01*
X006015Y009338D01*
X006016Y009325D01*
X006016Y009324D01*
X006015Y009325D02*
X006013Y009310D01*
X006008Y009296D01*
X006001Y009284D01*
X005990Y009273D01*
X005978Y009266D01*
X005964Y009261D01*
X005949Y009259D01*
X005949Y009258D02*
X005889Y009258D01*
X005872Y009256D01*
X005855Y009251D01*
X005840Y009243D01*
X005827Y009232D01*
X005816Y009219D01*
X005808Y009204D01*
X005803Y009187D01*
X005801Y009170D01*
X005800Y009170D02*
X005800Y009159D01*
X005801Y009159D02*
X005803Y009142D01*
X005808Y009125D01*
X005816Y009110D01*
X005827Y009097D01*
X005840Y009086D01*
X005855Y009078D01*
X005872Y009073D01*
X005889Y009071D01*
X005955Y009071D01*
X005969Y009069D01*
X005981Y009065D01*
X005993Y009058D01*
X006003Y009048D01*
X006010Y009036D01*
X006014Y009024D01*
X006016Y009010D01*
X006015Y009010D02*
X006013Y008995D01*
X006008Y008981D01*
X006001Y008969D01*
X005990Y008958D01*
X005978Y008951D01*
X005964Y008946D01*
X005949Y008944D01*
X005580Y008944D01*
X005585Y008944D02*
X005088Y008944D01*
X005066Y008946D01*
X005044Y008951D01*
X005023Y008960D01*
X005004Y008971D01*
X004987Y008986D01*
X004972Y009003D01*
X004961Y009022D01*
X004952Y009043D01*
X004947Y009065D01*
X004945Y009087D01*
X004945Y009297D01*
X005585Y008944D02*
X005585Y012448D01*
D23*
X012405Y026090D02*
X012692Y026377D01*
X012692Y026449D01*
X012620Y026521D01*
X012477Y026521D01*
X012405Y026449D01*
X012405Y026090D02*
X012692Y026090D01*
X015155Y026120D02*
X015442Y026120D01*
X015299Y026120D02*
X015299Y026551D01*
X015155Y026407D01*
D24*
X027615Y009696D03*
X027615Y009686D03*
X027615Y009676D03*
X027615Y008366D03*
X027615Y008356D03*
X027615Y008346D03*
X027615Y008336D03*
X027615Y008326D03*
X027615Y008316D03*
X027615Y008306D03*
X027615Y008296D03*
D25*
X026555Y008376D03*
X026555Y008386D03*
X026555Y008396D03*
D26*
X026555Y008646D03*
X026155Y008906D03*
X026035Y008656D03*
X026055Y008646D03*
X026055Y009446D03*
X026555Y009446D03*
X026565Y009436D03*
X027585Y009516D03*
X028685Y009006D03*
X028825Y009516D03*
X027705Y008376D03*
D27*
X028170Y008376D03*
D28*
X027810Y008556D03*
X027710Y008556D03*
X027710Y008546D03*
X027730Y008816D03*
X028680Y008816D03*
X028650Y008476D03*
X028750Y008476D03*
X028610Y008376D03*
X029610Y009656D03*
X026540Y009116D03*
X025620Y009656D03*
D29*
X025935Y009346D03*
X025945Y009356D03*
X025955Y009366D03*
X025965Y009376D03*
X025975Y009386D03*
X025925Y009336D03*
X025905Y009306D03*
X026155Y008896D03*
X025955Y008726D03*
X025945Y008736D03*
X025935Y008746D03*
X025925Y008756D03*
X025915Y008766D03*
X026455Y008896D03*
X026655Y008726D03*
X026665Y008736D03*
X026675Y008746D03*
X026685Y008756D03*
X026695Y008776D03*
X026695Y009316D03*
X026685Y009326D03*
X026675Y009346D03*
X026665Y009356D03*
X026655Y009366D03*
X027545Y009496D03*
X027915Y009496D03*
X027725Y009136D03*
X027725Y009126D03*
X027725Y009116D03*
X027725Y009106D03*
X027725Y009096D03*
X027725Y009086D03*
X027725Y009076D03*
X027725Y009066D03*
X027725Y009056D03*
X027725Y009046D03*
X027725Y009036D03*
X027725Y009026D03*
X027725Y009016D03*
X027725Y009006D03*
X027725Y008996D03*
X027725Y008986D03*
X027725Y008976D03*
X027725Y008966D03*
X027725Y008956D03*
X027555Y008896D03*
X027535Y008906D03*
X027725Y008386D03*
X028625Y008516D03*
X028655Y008596D03*
X028745Y008376D03*
X028855Y008896D03*
X028875Y008906D03*
X028595Y009066D03*
X028555Y009236D03*
X028495Y009496D03*
X028865Y009496D03*
D30*
X029245Y008396D03*
X029245Y008386D03*
X029245Y008376D03*
X027125Y008586D03*
D31*
X028160Y008386D03*
D32*
X027810Y008546D03*
X027700Y008576D03*
X028620Y008386D03*
X028630Y008396D03*
X028640Y008416D03*
X028640Y008426D03*
X028650Y008446D03*
X028650Y008456D03*
X028750Y008506D03*
D33*
X028660Y008586D03*
X028750Y008386D03*
X028890Y008916D03*
X028790Y009076D03*
X028800Y009086D03*
X028810Y009106D03*
X028800Y009306D03*
X028790Y009316D03*
X028880Y009486D03*
X028900Y009476D03*
X028590Y009316D03*
X028480Y009486D03*
X028580Y009076D03*
X028460Y008926D03*
X028490Y008906D03*
X027950Y008926D03*
X027920Y008906D03*
X027810Y008606D03*
X027730Y008396D03*
X027520Y008916D03*
X027730Y009396D03*
X027930Y009486D03*
X027530Y009486D03*
X026740Y009236D03*
X026730Y009256D03*
X026720Y009276D03*
X026710Y009296D03*
X026700Y009306D03*
X026680Y009336D03*
X026380Y008956D03*
X026080Y008956D03*
X026080Y009136D03*
X025870Y009246D03*
X025880Y009266D03*
X025890Y009286D03*
X025900Y009296D03*
X025910Y009316D03*
X025920Y009326D03*
X025870Y008846D03*
X025880Y008826D03*
X025890Y008806D03*
X025900Y008786D03*
X025910Y008776D03*
X026690Y008766D03*
X026700Y008786D03*
X026710Y008796D03*
X026720Y008806D03*
X026720Y008816D03*
D34*
X028170Y008486D03*
X028150Y008396D03*
D35*
X027735Y008406D03*
X027715Y008506D03*
X027935Y008916D03*
X027965Y008936D03*
X027975Y008946D03*
X027505Y008926D03*
X027495Y008936D03*
X027485Y008946D03*
X027725Y009376D03*
X027725Y009386D03*
X027725Y009406D03*
X027725Y009416D03*
X027515Y009476D03*
X027495Y009466D03*
X027945Y009476D03*
X027955Y009466D03*
X027965Y009456D03*
X028445Y009456D03*
X028455Y009466D03*
X028465Y009476D03*
X028575Y009306D03*
X028565Y009286D03*
X028555Y009256D03*
X028555Y009226D03*
X028555Y009126D03*
X028565Y009096D03*
X028575Y009086D03*
X028685Y008996D03*
X028805Y009096D03*
X028815Y009116D03*
X028815Y009126D03*
X028825Y009136D03*
X028825Y009146D03*
X028825Y009156D03*
X028825Y009166D03*
X028825Y009176D03*
X028825Y009186D03*
X028825Y009206D03*
X028825Y009216D03*
X028825Y009226D03*
X028825Y009236D03*
X028825Y009246D03*
X028825Y009256D03*
X028815Y009266D03*
X028815Y009276D03*
X028805Y009296D03*
X028915Y009466D03*
X028925Y008946D03*
X028915Y008936D03*
X028905Y008926D03*
X028665Y008576D03*
X028745Y008406D03*
X028745Y008396D03*
X028475Y008916D03*
X026775Y008986D03*
X026775Y008996D03*
X026775Y009006D03*
X026775Y009016D03*
X026775Y009076D03*
X026775Y009086D03*
X026775Y009096D03*
X026775Y009106D03*
X026765Y009156D03*
X026765Y009166D03*
X026755Y009186D03*
X026755Y009196D03*
X026755Y009206D03*
X026745Y009216D03*
X026745Y009226D03*
X026735Y009246D03*
X026725Y009266D03*
X026715Y009286D03*
X026545Y009136D03*
X026385Y009136D03*
X026375Y009126D03*
X026365Y009106D03*
X026355Y009076D03*
X026355Y009066D03*
X026355Y009056D03*
X026355Y009036D03*
X026355Y009026D03*
X026355Y009016D03*
X026365Y008986D03*
X026365Y008976D03*
X026375Y008966D03*
X026065Y008976D03*
X026055Y008996D03*
X026055Y009006D03*
X026055Y009016D03*
X026055Y009076D03*
X026055Y009086D03*
X026065Y009116D03*
X026075Y009126D03*
X025865Y009226D03*
X025865Y009236D03*
X025875Y009256D03*
X025885Y009276D03*
X025855Y009216D03*
X025855Y009206D03*
X025845Y009196D03*
X025845Y009186D03*
X025845Y009176D03*
X025835Y009156D03*
X025835Y009146D03*
X025835Y009136D03*
X025825Y009066D03*
X025825Y009056D03*
X025825Y009046D03*
X025825Y009036D03*
X025825Y009026D03*
X025825Y009016D03*
X025835Y008946D03*
X025835Y008936D03*
X025845Y008916D03*
X025845Y008906D03*
X025845Y008896D03*
X025855Y008886D03*
X025855Y008876D03*
X025855Y008866D03*
X025865Y008856D03*
X025875Y008836D03*
X025885Y008816D03*
X025895Y008796D03*
X026725Y008826D03*
X026735Y008836D03*
X026735Y008846D03*
X026745Y008856D03*
X026745Y008866D03*
X026755Y008886D03*
X026755Y008896D03*
X026765Y008916D03*
X026765Y008926D03*
X026765Y008936D03*
D36*
X025900Y008406D03*
X028140Y008436D03*
X028140Y008446D03*
X028140Y008456D03*
D37*
X026955Y008406D03*
D38*
X028145Y008406D03*
X028145Y008416D03*
X028145Y008426D03*
X028165Y008496D03*
D39*
X027815Y008536D03*
X028635Y008406D03*
X028645Y008436D03*
X028745Y008516D03*
X028555Y009186D03*
X026535Y009106D03*
X026235Y008986D03*
D40*
X027120Y008576D03*
X029240Y008416D03*
X029240Y008406D03*
D41*
X028195Y008586D03*
X028185Y008576D03*
X028175Y008566D03*
X028175Y008556D03*
X026305Y008606D03*
X025875Y008416D03*
X026305Y009486D03*
D42*
X026980Y008416D03*
D43*
X026750Y008876D03*
X026760Y008906D03*
X026770Y008946D03*
X026770Y008956D03*
X026770Y008966D03*
X026770Y008976D03*
X026780Y009026D03*
X026780Y009036D03*
X026780Y009046D03*
X026780Y009056D03*
X026780Y009066D03*
X026770Y009116D03*
X026770Y009126D03*
X026770Y009136D03*
X026770Y009146D03*
X026760Y009176D03*
X026460Y009196D03*
X026370Y009116D03*
X026360Y009096D03*
X026360Y009086D03*
X026350Y009046D03*
X026360Y009006D03*
X026360Y008996D03*
X026240Y009136D03*
X026160Y009196D03*
X026060Y009106D03*
X026060Y009096D03*
X026050Y009066D03*
X026050Y009056D03*
X026050Y009046D03*
X026050Y009036D03*
X026050Y009026D03*
X026060Y008986D03*
X026070Y008966D03*
X025840Y008926D03*
X025830Y008956D03*
X025830Y008966D03*
X025830Y008976D03*
X025830Y008986D03*
X025830Y008996D03*
X025830Y009006D03*
X025830Y009076D03*
X025830Y009086D03*
X025830Y009096D03*
X025830Y009106D03*
X025830Y009116D03*
X025830Y009126D03*
X025840Y009166D03*
X026550Y008956D03*
X027440Y008996D03*
X027470Y008956D03*
X027660Y008606D03*
X027720Y008496D03*
X027730Y008486D03*
X027730Y008476D03*
X027740Y008466D03*
X027740Y008456D03*
X027740Y008446D03*
X027740Y008436D03*
X027740Y008426D03*
X027740Y008416D03*
X027600Y008436D03*
X027600Y008446D03*
X027600Y008456D03*
X027810Y008596D03*
X027980Y008956D03*
X027990Y008966D03*
X028000Y008976D03*
X028010Y008986D03*
X028400Y008986D03*
X028410Y008976D03*
X028420Y008966D03*
X028430Y008956D03*
X028440Y008946D03*
X028450Y008936D03*
X028560Y009106D03*
X028560Y009116D03*
X028560Y009266D03*
X028560Y009276D03*
X028570Y009296D03*
X028430Y009446D03*
X028420Y009436D03*
X028390Y009396D03*
X028020Y009396D03*
X028000Y009426D03*
X027990Y009436D03*
X027980Y009446D03*
X027490Y009456D03*
X027480Y009446D03*
X027470Y009436D03*
X027460Y009426D03*
X027450Y009416D03*
X028810Y009286D03*
X028830Y009196D03*
X028960Y009416D03*
X028950Y009426D03*
X028940Y009436D03*
X028930Y009446D03*
X028920Y009456D03*
X028950Y008966D03*
X028940Y008956D03*
X028660Y008566D03*
X028640Y008506D03*
X028540Y008446D03*
X028540Y008436D03*
X028750Y008416D03*
D44*
X026300Y008596D03*
X025860Y008426D03*
X026300Y009496D03*
D45*
X026995Y008426D03*
D46*
X026315Y008526D03*
X026245Y008956D03*
X026545Y009126D03*
X027395Y009076D03*
X027405Y009056D03*
X027415Y009036D03*
X027425Y009016D03*
X027435Y009006D03*
X027445Y008986D03*
X027455Y008976D03*
X027465Y008966D03*
X027385Y009286D03*
X027395Y009316D03*
X027405Y009346D03*
X027415Y009356D03*
X027415Y009366D03*
X027425Y009376D03*
X027425Y009386D03*
X027435Y009396D03*
X027445Y009406D03*
X027725Y009426D03*
X027725Y009366D03*
X028005Y009416D03*
X028015Y009406D03*
X028025Y009386D03*
X028035Y009376D03*
X028045Y009356D03*
X028055Y009336D03*
X028065Y009306D03*
X028075Y009126D03*
X028055Y009056D03*
X028045Y009046D03*
X028045Y009036D03*
X028035Y009026D03*
X028035Y009016D03*
X028025Y009006D03*
X028015Y008996D03*
X028335Y009126D03*
X028355Y009066D03*
X028365Y009046D03*
X028375Y009026D03*
X028385Y009006D03*
X028395Y008996D03*
X028555Y009216D03*
X028345Y009306D03*
X028355Y009336D03*
X028365Y009356D03*
X028375Y009376D03*
X028385Y009386D03*
X028395Y009406D03*
X028405Y009416D03*
X028415Y009426D03*
X028965Y009406D03*
X028975Y009396D03*
X028985Y009386D03*
X028985Y009376D03*
X028995Y009366D03*
X029005Y009346D03*
X029025Y009286D03*
X029015Y009076D03*
X029005Y009056D03*
X029005Y009046D03*
X028995Y009036D03*
X028985Y009016D03*
X028975Y009006D03*
X028975Y008996D03*
X028965Y008986D03*
X028955Y008976D03*
X028665Y008556D03*
X028665Y008546D03*
X028645Y008496D03*
X027815Y008586D03*
X027715Y008516D03*
X027595Y008526D03*
X027595Y008536D03*
X027595Y008546D03*
X027595Y008466D03*
X027595Y008426D03*
D47*
X027590Y008556D03*
X027810Y008576D03*
X028060Y009066D03*
X028060Y009076D03*
X028060Y009086D03*
X028070Y009096D03*
X028070Y009106D03*
X028070Y009116D03*
X028080Y009136D03*
X028080Y009146D03*
X028080Y009156D03*
X028080Y009166D03*
X028080Y009176D03*
X028080Y009186D03*
X028080Y009196D03*
X028080Y009206D03*
X028080Y009216D03*
X028080Y009226D03*
X028080Y009236D03*
X028080Y009246D03*
X028080Y009256D03*
X028080Y009266D03*
X028070Y009276D03*
X028070Y009286D03*
X028070Y009296D03*
X028060Y009316D03*
X028060Y009326D03*
X028050Y009346D03*
X028040Y009366D03*
X028330Y009266D03*
X028330Y009256D03*
X028330Y009246D03*
X028330Y009236D03*
X028330Y009226D03*
X028330Y009216D03*
X028330Y009206D03*
X028330Y009196D03*
X028330Y009186D03*
X028330Y009176D03*
X028330Y009166D03*
X028330Y009156D03*
X028330Y009146D03*
X028330Y009136D03*
X028340Y009116D03*
X028340Y009106D03*
X028340Y009096D03*
X028350Y009086D03*
X028350Y009076D03*
X028360Y009056D03*
X028370Y009036D03*
X028380Y009016D03*
X028340Y009276D03*
X028340Y009286D03*
X028340Y009296D03*
X028350Y009316D03*
X028350Y009326D03*
X028360Y009346D03*
X028370Y009366D03*
X029000Y009356D03*
X029010Y009336D03*
X029010Y009326D03*
X029020Y009316D03*
X029020Y009306D03*
X029020Y009296D03*
X029030Y009276D03*
X029030Y009266D03*
X029030Y009256D03*
X029030Y009246D03*
X029030Y009236D03*
X029030Y009226D03*
X029030Y009216D03*
X029040Y009206D03*
X029040Y009196D03*
X029030Y009186D03*
X029030Y009176D03*
X029030Y009166D03*
X029030Y009156D03*
X029030Y009146D03*
X029030Y009136D03*
X029030Y009126D03*
X029030Y009116D03*
X029020Y009106D03*
X029020Y009096D03*
X029020Y009086D03*
X029010Y009066D03*
X028990Y009026D03*
X028660Y008536D03*
X028540Y008536D03*
X028540Y008546D03*
X028530Y008456D03*
X028540Y008426D03*
X027420Y009026D03*
X027410Y009046D03*
X027400Y009066D03*
X027390Y009086D03*
X027390Y009096D03*
X027390Y009106D03*
X027380Y009116D03*
X027380Y009126D03*
X027380Y009136D03*
X027380Y009146D03*
X027380Y009156D03*
X027380Y009166D03*
X027380Y009176D03*
X027370Y009186D03*
X027370Y009196D03*
X027370Y009206D03*
X027370Y009216D03*
X027380Y009226D03*
X027380Y009236D03*
X027380Y009246D03*
X027380Y009256D03*
X027380Y009266D03*
X027380Y009276D03*
X027390Y009296D03*
X027390Y009306D03*
X027400Y009326D03*
X027400Y009336D03*
X026550Y008966D03*
X026250Y008966D03*
X026240Y009126D03*
D48*
X027115Y008566D03*
X029235Y008446D03*
X029235Y008436D03*
X029235Y008426D03*
D49*
X026305Y008586D03*
X025845Y008436D03*
D50*
X027010Y008436D03*
D51*
X025830Y008446D03*
D52*
X027025Y008446D03*
D53*
X025820Y008456D03*
X026300Y009516D03*
D54*
X027035Y008456D03*
D55*
X027110Y008556D03*
X029230Y008476D03*
X029230Y008466D03*
X029230Y008456D03*
D56*
X025810Y008466D03*
D57*
X027045Y008466D03*
D58*
X028190Y008466D03*
D59*
X028645Y008466D03*
X028745Y008486D03*
X028745Y008496D03*
X028555Y009196D03*
X027695Y008586D03*
X027685Y008596D03*
X027705Y008566D03*
X026545Y008976D03*
X026245Y008976D03*
X026235Y009116D03*
X025615Y009116D03*
X025615Y009126D03*
X025615Y009136D03*
X025615Y009146D03*
X025615Y009156D03*
X025615Y009166D03*
X025615Y009176D03*
X025615Y009186D03*
X025615Y009196D03*
X025615Y009206D03*
X025615Y009216D03*
X025615Y009226D03*
X025615Y009236D03*
X025615Y009246D03*
X025615Y009256D03*
X025615Y009266D03*
X025615Y009276D03*
X025615Y009286D03*
X025615Y009296D03*
X025615Y009306D03*
X025615Y009316D03*
X025615Y009326D03*
X025615Y009336D03*
X025615Y009346D03*
X025615Y009356D03*
X025615Y009366D03*
X025615Y009376D03*
X025615Y009386D03*
X025615Y009396D03*
X025615Y009406D03*
X025615Y009416D03*
X025615Y009426D03*
X025615Y009436D03*
X025615Y009446D03*
X025615Y009456D03*
X025615Y009466D03*
X025615Y009476D03*
X025615Y009486D03*
X025615Y009496D03*
X025615Y009506D03*
X025615Y009516D03*
X025615Y009526D03*
X025615Y009536D03*
X025615Y009546D03*
X025615Y009556D03*
X025615Y009566D03*
X025615Y009576D03*
X025615Y009586D03*
X025615Y009596D03*
X025615Y009606D03*
X025615Y009616D03*
X025615Y009626D03*
X025615Y009636D03*
X025615Y009646D03*
X025615Y009106D03*
X025615Y009096D03*
X025615Y009086D03*
X025615Y009076D03*
X025615Y009066D03*
X025615Y009056D03*
X025615Y009046D03*
X025615Y009036D03*
X025615Y009026D03*
X025615Y009016D03*
X025615Y009006D03*
X025615Y008996D03*
X025615Y008986D03*
X025615Y008976D03*
X025615Y008966D03*
X025615Y008956D03*
X025615Y008946D03*
X025615Y008936D03*
X025615Y008926D03*
X025615Y008916D03*
X025615Y008906D03*
X025615Y008896D03*
X025615Y008886D03*
X025615Y008876D03*
X025615Y008866D03*
X025615Y008856D03*
X025615Y008846D03*
X025615Y008836D03*
X025615Y008826D03*
X025615Y008816D03*
X025615Y008806D03*
X025615Y008796D03*
X025615Y008786D03*
X025615Y008776D03*
X025615Y008766D03*
X025615Y008756D03*
X025615Y008746D03*
X025615Y008736D03*
X025615Y008726D03*
X025615Y008716D03*
X029615Y008716D03*
X029615Y008726D03*
X029615Y008736D03*
X029615Y008746D03*
X029615Y008756D03*
X029615Y008766D03*
X029615Y008776D03*
X029615Y008786D03*
X029615Y008796D03*
X029615Y008806D03*
X029615Y008816D03*
X029615Y008826D03*
X029615Y008836D03*
X029615Y008846D03*
X029615Y008856D03*
X029615Y008866D03*
X029615Y008876D03*
X029615Y008886D03*
X029615Y008896D03*
X029615Y008906D03*
X029615Y008916D03*
X029615Y008926D03*
X029615Y008936D03*
X029615Y008946D03*
X029615Y008956D03*
X029615Y008966D03*
X029615Y008976D03*
X029615Y008986D03*
X029615Y008996D03*
X029615Y009006D03*
X029615Y009016D03*
X029615Y009026D03*
X029615Y009036D03*
X029615Y009046D03*
X029615Y009056D03*
X029615Y009066D03*
X029615Y009076D03*
X029615Y009086D03*
X029615Y009096D03*
X029615Y009106D03*
X029615Y009116D03*
X029615Y009126D03*
X029615Y009136D03*
X029615Y009146D03*
X029615Y009156D03*
X029615Y009166D03*
X029615Y009176D03*
X029615Y009186D03*
X029615Y009196D03*
X029615Y009206D03*
X029615Y009216D03*
X029615Y009226D03*
X029615Y009236D03*
X029615Y009246D03*
X029615Y009256D03*
X029615Y009266D03*
X029615Y009276D03*
X029615Y009286D03*
X029615Y009296D03*
X029615Y009306D03*
X029615Y009316D03*
X029615Y009326D03*
X029615Y009336D03*
X029615Y009346D03*
X029615Y009356D03*
X029615Y009366D03*
X029615Y009376D03*
X029615Y009386D03*
X029615Y009396D03*
X029615Y009406D03*
X029615Y009416D03*
X029615Y009426D03*
X029615Y009436D03*
X029615Y009446D03*
X029615Y009456D03*
X029615Y009466D03*
X029615Y009476D03*
X029615Y009486D03*
X029615Y009496D03*
X029615Y009506D03*
X029615Y009516D03*
X029615Y009526D03*
X029615Y009536D03*
X029615Y009546D03*
X029615Y009556D03*
X029615Y009566D03*
X029615Y009576D03*
X029615Y009586D03*
X029615Y009596D03*
X029615Y009606D03*
X029615Y009616D03*
X029615Y009626D03*
X029615Y009636D03*
X029615Y009646D03*
D60*
X028680Y009526D03*
X027730Y009526D03*
X026300Y009526D03*
X025800Y008476D03*
D61*
X027055Y008476D03*
D62*
X028175Y008476D03*
D63*
X025795Y008486D03*
D64*
X027065Y008486D03*
D65*
X027715Y008526D03*
X027715Y008536D03*
X027815Y008566D03*
X028535Y008556D03*
X028645Y008486D03*
X028555Y009206D03*
X028675Y009396D03*
X027725Y009436D03*
X027725Y009356D03*
X029605Y009666D03*
X025625Y009666D03*
D66*
X027105Y008546D03*
X029225Y008496D03*
X029225Y008486D03*
D67*
X025785Y008496D03*
D68*
X027070Y008496D03*
D69*
X026300Y008556D03*
X025780Y008506D03*
X027730Y009536D03*
X028680Y009536D03*
D70*
X027080Y008506D03*
D71*
X028165Y008506D03*
D72*
X027100Y008536D03*
X029220Y008526D03*
X029220Y008516D03*
X029220Y008506D03*
D73*
X028680Y008856D03*
X027730Y008856D03*
X026300Y009536D03*
X025770Y008516D03*
D74*
X027085Y008516D03*
X029205Y008586D03*
X029205Y008596D03*
X029205Y008606D03*
D75*
X028210Y008606D03*
X028160Y008516D03*
D76*
X025765Y008526D03*
D77*
X027090Y008526D03*
X029210Y008566D03*
X029210Y008576D03*
D78*
X028165Y008526D03*
D79*
X028610Y008526D03*
X026460Y008906D03*
X026070Y008636D03*
D80*
X025760Y008536D03*
X027730Y009546D03*
X028680Y009546D03*
D81*
X028680Y009566D03*
X028680Y009026D03*
X026460Y008936D03*
X026460Y009156D03*
X026160Y009156D03*
X025710Y008636D03*
X026120Y008616D03*
X026300Y008536D03*
D82*
X028170Y008536D03*
X028170Y008546D03*
X028200Y008596D03*
D83*
X029215Y008556D03*
X029215Y008546D03*
X029215Y008536D03*
D84*
X025755Y008546D03*
D85*
X026300Y008546D03*
X027730Y008846D03*
X028680Y008846D03*
D86*
X025745Y008556D03*
D87*
X025740Y008566D03*
X026300Y009546D03*
X027730Y009556D03*
X028680Y009556D03*
X028680Y009056D03*
D88*
X026305Y008566D03*
D89*
X025735Y008576D03*
X028685Y009046D03*
X028685Y009336D03*
D90*
X026305Y008576D03*
D91*
X025730Y008586D03*
D92*
X025725Y008596D03*
X025725Y008606D03*
X026135Y009476D03*
X026465Y009476D03*
X027725Y008836D03*
X028685Y008836D03*
X028685Y009346D03*
D93*
X027130Y008596D03*
D94*
X027135Y008606D03*
D95*
X026600Y008676D03*
X026590Y008666D03*
X026570Y008656D03*
X026460Y009186D03*
X026580Y009426D03*
X026160Y009186D03*
X026010Y009416D03*
X026020Y009426D03*
X026040Y009436D03*
X026020Y008666D03*
X027730Y009576D03*
X027870Y009516D03*
X028540Y009516D03*
X028680Y009576D03*
X028610Y009326D03*
X028530Y008886D03*
X028650Y008606D03*
X027880Y008886D03*
D96*
X028680Y009036D03*
X026460Y008946D03*
X026160Y008946D03*
X026160Y009146D03*
X025720Y008616D03*
D97*
X025705Y008646D03*
X025705Y008656D03*
X026155Y008926D03*
X026485Y008616D03*
X027725Y009566D03*
X028685Y009366D03*
D98*
X028195Y008616D03*
D99*
X028685Y009356D03*
X026465Y009146D03*
X026155Y008936D03*
X025715Y008626D03*
D100*
X025695Y008676D03*
X025695Y008686D03*
X026095Y008626D03*
X026515Y008626D03*
X026095Y009466D03*
X027615Y008876D03*
X027725Y009296D03*
X027725Y009306D03*
X028575Y008876D03*
X028685Y009016D03*
X028795Y008876D03*
D101*
X028200Y008626D03*
D102*
X026535Y008636D03*
X026465Y009176D03*
X026155Y009176D03*
X026075Y009456D03*
X026305Y009556D03*
X025685Y008706D03*
D103*
X028205Y008636D03*
D104*
X028210Y008646D03*
D105*
X028215Y008656D03*
X028215Y008666D03*
D106*
X027840Y008876D03*
X027730Y009146D03*
X027730Y009156D03*
X027730Y009166D03*
X027730Y009176D03*
X027730Y009186D03*
X027730Y009196D03*
X027730Y009206D03*
X027730Y009216D03*
X027730Y009226D03*
X027730Y009236D03*
X027730Y009246D03*
X027730Y009256D03*
X027730Y009266D03*
X027730Y009276D03*
X027730Y009286D03*
X026510Y009466D03*
X026460Y009166D03*
X026460Y008926D03*
X026160Y009166D03*
X025700Y008666D03*
D107*
X025995Y008686D03*
X026005Y008676D03*
X026615Y008686D03*
X026625Y008696D03*
X026635Y008706D03*
X026595Y009416D03*
X025995Y009406D03*
X025985Y009396D03*
X027565Y009506D03*
X027895Y009506D03*
X028515Y009506D03*
X028685Y009386D03*
X028765Y009326D03*
X028845Y009506D03*
X028555Y009246D03*
X028835Y008886D03*
X027575Y008886D03*
D108*
X028220Y008686D03*
X028220Y008676D03*
D109*
X028680Y008826D03*
X028680Y009376D03*
X027730Y008826D03*
X026460Y008916D03*
X026160Y008916D03*
X025690Y008696D03*
X026530Y009456D03*
D110*
X026610Y009406D03*
X026620Y009396D03*
X026630Y009386D03*
X026640Y009376D03*
X026650Y008716D03*
X025980Y008696D03*
X025970Y008706D03*
X025960Y008716D03*
X027900Y008896D03*
X028510Y008896D03*
X028770Y009066D03*
D111*
X028225Y008696D03*
D112*
X028230Y008706D03*
D113*
X028680Y008866D03*
X027730Y008866D03*
D114*
X026300Y009506D03*
M02*
