%
M48
M72
T01C0.0118
T02C0.0120
T03C0.0157
T04C0.0236
T05C0.0400
T06C0.0669
T07C0.1260
%
T01
X7591Y8905
X8181Y8550
X8693Y8787
X8890Y8137
X9323Y9180
X9973Y9043
X10413Y9058
X9815Y10617
X9382Y10421
X9362Y10991
X9008Y11169
X8850Y10834
X8417Y10637
X12276Y10519
X14599Y10007
X16449Y10007
X18378Y8314
X18693Y8157
X19303Y8373
X19717Y8472
X20228Y8984
X20465Y9180
X21016Y8787
X20701Y8550
X36291Y13787
X38142Y13787
X36331Y16897
X38339Y16936
X38772Y18787
X37709Y18787
X37394Y21385
X36764Y22921
X36095Y25795
X37669Y25795
X38673Y27291
X37354Y29299
X37039Y29062
X35366Y27291
X34264Y27625
X33831Y26897
X32158Y26956
X29913Y26424
X28221Y25795
X23732Y25795
X2118Y29062
X1134Y28629
T02
X13201Y22448
X14362Y22448
X15858Y22487
X16291Y22901
X17866Y22665
X18181Y22665
X18949Y22665
X18988Y21700
X18339Y21326
X17728Y21661
X17473Y21326
X15878Y21661
X15661Y19928
X15681Y19082
X14421Y19909
X13221Y19909
X15189Y17665
X14953Y16641
X16311Y16346
X16311Y16070
X16606Y16070
X16606Y16346
X18122Y16641
X18634Y16602
X18378Y17310
X19402Y17468
X19736Y17468
X20130Y17468
X20445Y17468
X21626Y17861
X21784Y17527
X21803Y17192
X22099Y16799
X21882Y15617
X21291Y15637
X21370Y14299
X19992Y14318
X19028Y14318
X18083Y14299
X18988Y15598
X19913Y15598
X22473Y18176
X22473Y18511
X23437Y19141
X23713Y18767
X23614Y18078
X23654Y17448
X23850Y16976
X24205Y16838
X24382Y16464
X24323Y16149
X23988Y16385
X23654Y16484
X24165Y17409
X24599Y17428
X26173Y17881
X26784Y18039
X26764Y18373
X25937Y19200
X25681Y19987
X25347Y19869
X26626Y20932
X26626Y21247
X26961Y21247
X26961Y20932
X25583Y21759
X24638Y22113
X23693Y21799
X23752Y21149
X23417Y21129
X23496Y20657
X23437Y20125
X23437Y19751
X23693Y19594
X22473Y20421
X22473Y20736
X22473Y21050
X21882Y21720
X21232Y21188
X21370Y20873
X20406Y21700
X20012Y20440
X21370Y18511
X25347Y15224
X25347Y14889
X25937Y14869
X26528Y14869
X26311Y15972
X25937Y16169
X27453Y16621
X27118Y17310
X28398Y17251
X28988Y17153
X28398Y16385
X28240Y15480
X28024Y15106
X27787Y15460
X29323Y14889
X30661Y15578
X30878Y15873
X31154Y15873
X31154Y16149
X30878Y16149
X31370Y15578
X32158Y14889
X32433Y15381
X32827Y15381
X31764Y16680
X31410Y16799
X30937Y17704
X30622Y18058
X31803Y19318
X32374Y19082
X33476Y17743
X34126Y17665
X34362Y17310
X34599Y16759
X35071Y17704
X36016Y18393
X35839Y18865
X35110Y19397
X34835Y20145
X34559Y20913
X34559Y21228
X34106Y21838
X33870Y22094
X33378Y22822
X33713Y23196
X33713Y23747
X35032Y22783
X35740Y23452
X35386Y22428
X35504Y21011
X35839Y20637
X36311Y20637
X36469Y20322
X36724Y20106
X37079Y21011
X38299Y21011
X37669Y19869
X37689Y18393
X38516Y14653
X36626Y14417
X35347Y14299
X35976Y12232
X35189Y11877
X36469Y10637
X37177Y10125
X37177Y9830
X37177Y9515
X38417Y9791
X38417Y10106
X38732Y10106
X38732Y9791
X37394Y10854
X37630Y11326
X35130Y8747
X35228Y8432
X35386Y8176
X34992Y8176
X34756Y8413
X34441Y8472
X34441Y8137
X34106Y8137
X33772Y8137
X33673Y8452
X33378Y8157
X33063Y8157
X32748Y8176
X33161Y8550
X34539Y8905
X32532Y10873
X32197Y10854
X32591Y11208
X32453Y11484
X33063Y11228
X32827Y12192
X32433Y12192
X31331Y12251
X31449Y11621
X31252Y11306
X30917Y11306
X30858Y10854
X30130Y10617
X29717Y11031
X30130Y11110
X30130Y11424
X29658Y11621
X29087Y11858
X28732Y12192
X28024Y12468
X26528Y10913
X26862Y10578
X27197Y10243
X27532Y9909
X28319Y9180
X27787Y8826
X29323Y9810
X26075Y11247
X25937Y11582
X25681Y11917
X24973Y11877
X24973Y11562
X24973Y11228
X24973Y10893
X23732Y9771
X24382Y9180
X24835Y9436
X25071Y8846
X25130Y8472
X22630Y9082
X22630Y9358
X22335Y9358
X22335Y9082
X19382Y10066
X19382Y10460
X19382Y10893
X18004Y9515
X23063Y13806
X23417Y14239
X24953Y13806
X24992Y12232
X30721Y13491
X30721Y13767
X31016Y13767
X31016Y13491
X31803Y20736
X31705Y21700
X32079Y22724
X31252Y22921
X31252Y23255
X30937Y23255
X30917Y22921
X32906Y21838
X36016Y24712
X36587Y24633
X36882Y24633
X36882Y24928
X36587Y24928
X37295Y23787
X37630Y22940
X37630Y22665
X37925Y22665
X37925Y22940
X39205Y25460
X37787Y26858
X34146Y26050
X33142Y25460
X31154Y26444
X30504Y25302
X30524Y24987
X31469Y27684
X32138Y27684
X31016Y29535
X22591Y21799
X21705Y22743
X21331Y23846
X19402Y23964
X15268Y24712
X14480Y14673
X5721Y10539
X5721Y10224
X5721Y9909
X2433Y9889
X2433Y10204
X2433Y10499
T03
X22453Y13846
T04
X12827Y23531
X13693Y13216
X29520Y23531
T05
X13331Y26326
X14331Y26326
T06
X7906Y11424
X7906Y10102
X10347Y10102
X10347Y11424
T07
X1508Y4791
X38161Y4791
X1508Y32940
X38161Y32921
M30
