G04 Layer_Color=65535*
%FSLAX25Y25*%
%MOIN*%
G70*
G01*
G75*
%ADD10C,0.00800*%
%ADD16C,0.00787*%
%ADD36C,0.00600*%
G36*
X112723Y49303D02*
X112786Y49295D01*
X112864Y49287D01*
X112950Y49279D01*
X113043Y49264D01*
X113247Y49217D01*
X113465Y49147D01*
X113575Y49100D01*
X113684Y49045D01*
X113785Y48983D01*
X113887Y48912D01*
X113895Y48905D01*
X113910Y48897D01*
X113934Y48873D01*
X113973Y48842D01*
X114012Y48803D01*
X114067Y48748D01*
X114121Y48694D01*
X114176Y48631D01*
X114238Y48553D01*
X114293Y48475D01*
X114356Y48381D01*
X114418Y48280D01*
X114473Y48178D01*
X114527Y48061D01*
X114621Y47811D01*
X113949Y47655D01*
Y47663D01*
X113942Y47679D01*
X113934Y47710D01*
X113918Y47749D01*
X113895Y47796D01*
X113871Y47850D01*
X113817Y47967D01*
X113746Y48100D01*
X113653Y48241D01*
X113551Y48366D01*
X113426Y48475D01*
X113410Y48483D01*
X113364Y48514D01*
X113293Y48553D01*
X113192Y48608D01*
X113075Y48655D01*
X112926Y48694D01*
X112762Y48725D01*
X112575Y48733D01*
X112520D01*
X112481Y48725D01*
X112426D01*
X112372Y48717D01*
X112231Y48694D01*
X112075Y48662D01*
X111911Y48608D01*
X111747Y48538D01*
X111591Y48444D01*
X111583D01*
X111575Y48428D01*
X111528Y48389D01*
X111458Y48327D01*
X111372Y48241D01*
X111286Y48131D01*
X111193Y48006D01*
X111107Y47850D01*
X111036Y47679D01*
Y47671D01*
X111029Y47655D01*
X111021Y47632D01*
X111013Y47592D01*
X110997Y47554D01*
X110989Y47499D01*
X110958Y47374D01*
X110927Y47225D01*
X110904Y47061D01*
X110888Y46882D01*
X110880Y46694D01*
Y46687D01*
Y46663D01*
Y46632D01*
Y46585D01*
X110888Y46530D01*
Y46460D01*
X110896Y46390D01*
X110904Y46312D01*
X110927Y46132D01*
X110958Y45937D01*
X111005Y45742D01*
X111067Y45554D01*
Y45546D01*
X111075Y45531D01*
X111091Y45507D01*
X111107Y45476D01*
X111146Y45382D01*
X111208Y45281D01*
X111294Y45156D01*
X111396Y45039D01*
X111513Y44921D01*
X111653Y44820D01*
X111661D01*
X111669Y44812D01*
X111692Y44797D01*
X111724Y44781D01*
X111810Y44750D01*
X111919Y44703D01*
X112044Y44664D01*
X112192Y44625D01*
X112356Y44594D01*
X112528Y44586D01*
X112583D01*
X112622Y44594D01*
X112669D01*
X112731Y44601D01*
X112864Y44625D01*
X113012Y44664D01*
X113176Y44726D01*
X113332Y44804D01*
X113489Y44914D01*
X113496Y44921D01*
X113504Y44929D01*
X113551Y44976D01*
X113621Y45054D01*
X113707Y45156D01*
X113793Y45296D01*
X113887Y45460D01*
X113965Y45663D01*
X114028Y45890D01*
X114707Y45718D01*
Y45710D01*
X114699Y45679D01*
X114683Y45640D01*
X114668Y45578D01*
X114637Y45515D01*
X114605Y45429D01*
X114574Y45343D01*
X114527Y45250D01*
X114426Y45039D01*
X114285Y44828D01*
X114129Y44625D01*
X114035Y44531D01*
X113934Y44445D01*
X113926Y44437D01*
X113910Y44429D01*
X113879Y44406D01*
X113832Y44375D01*
X113778Y44344D01*
X113715Y44304D01*
X113645Y44265D01*
X113559Y44226D01*
X113465Y44187D01*
X113364Y44148D01*
X113247Y44109D01*
X113129Y44078D01*
X112872Y44023D01*
X112731Y44016D01*
X112583Y44008D01*
X112505D01*
X112442Y44016D01*
X112372D01*
X112294Y44023D01*
X112200Y44039D01*
X112106Y44047D01*
X111888Y44094D01*
X111661Y44148D01*
X111442Y44234D01*
X111333Y44281D01*
X111232Y44344D01*
X111224Y44351D01*
X111208Y44359D01*
X111185Y44383D01*
X111146Y44406D01*
X111052Y44484D01*
X110943Y44594D01*
X110810Y44726D01*
X110685Y44898D01*
X110552Y45093D01*
X110443Y45320D01*
Y45328D01*
X110435Y45351D01*
X110419Y45382D01*
X110404Y45429D01*
X110380Y45492D01*
X110357Y45562D01*
X110333Y45640D01*
X110310Y45734D01*
X110286Y45827D01*
X110263Y45937D01*
X110216Y46171D01*
X110185Y46421D01*
X110177Y46694D01*
Y46702D01*
Y46733D01*
Y46773D01*
X110185Y46827D01*
Y46898D01*
X110193Y46983D01*
X110201Y47069D01*
X110216Y47171D01*
X110255Y47390D01*
X110302Y47624D01*
X110380Y47866D01*
X110482Y48092D01*
Y48100D01*
X110497Y48116D01*
X110513Y48147D01*
X110536Y48194D01*
X110568Y48241D01*
X110607Y48295D01*
X110708Y48428D01*
X110825Y48577D01*
X110974Y48725D01*
X111153Y48873D01*
X111349Y48998D01*
X111356D01*
X111372Y49014D01*
X111403Y49030D01*
X111450Y49045D01*
X111497Y49069D01*
X111559Y49100D01*
X111638Y49123D01*
X111716Y49155D01*
X111802Y49186D01*
X111895Y49209D01*
X112106Y49264D01*
X112341Y49295D01*
X112591Y49311D01*
X112669D01*
X112723Y49303D01*
D02*
G37*
G36*
X80476D02*
X80538Y49295D01*
X80616Y49287D01*
X80702Y49279D01*
X80796Y49264D01*
X80999Y49217D01*
X81218Y49147D01*
X81327Y49100D01*
X81436Y49045D01*
X81538Y48983D01*
X81639Y48912D01*
X81647Y48905D01*
X81663Y48897D01*
X81686Y48873D01*
X81725Y48842D01*
X81764Y48803D01*
X81819Y48748D01*
X81874Y48694D01*
X81928Y48631D01*
X81991Y48553D01*
X82046Y48475D01*
X82108Y48381D01*
X82170Y48280D01*
X82225Y48178D01*
X82280Y48061D01*
X82374Y47811D01*
X81702Y47655D01*
Y47663D01*
X81694Y47679D01*
X81686Y47710D01*
X81671Y47749D01*
X81647Y47796D01*
X81624Y47850D01*
X81569Y47967D01*
X81499Y48100D01*
X81405Y48241D01*
X81304Y48366D01*
X81179Y48475D01*
X81163Y48483D01*
X81116Y48514D01*
X81046Y48553D01*
X80944Y48608D01*
X80827Y48655D01*
X80679Y48694D01*
X80515Y48725D01*
X80327Y48733D01*
X80273D01*
X80234Y48725D01*
X80179D01*
X80124Y48717D01*
X79984Y48694D01*
X79827Y48662D01*
X79663Y48608D01*
X79500Y48538D01*
X79343Y48444D01*
X79335D01*
X79328Y48428D01*
X79281Y48389D01*
X79211Y48327D01*
X79125Y48241D01*
X79039Y48131D01*
X78945Y48006D01*
X78859Y47850D01*
X78789Y47679D01*
Y47671D01*
X78781Y47655D01*
X78773Y47632D01*
X78765Y47592D01*
X78750Y47554D01*
X78742Y47499D01*
X78711Y47374D01*
X78679Y47225D01*
X78656Y47061D01*
X78640Y46882D01*
X78633Y46694D01*
Y46687D01*
Y46663D01*
Y46632D01*
Y46585D01*
X78640Y46530D01*
Y46460D01*
X78648Y46390D01*
X78656Y46312D01*
X78679Y46132D01*
X78711Y45937D01*
X78758Y45742D01*
X78820Y45554D01*
Y45546D01*
X78828Y45531D01*
X78843Y45507D01*
X78859Y45476D01*
X78898Y45382D01*
X78961Y45281D01*
X79046Y45156D01*
X79148Y45039D01*
X79265Y44921D01*
X79406Y44820D01*
X79414D01*
X79421Y44812D01*
X79445Y44797D01*
X79476Y44781D01*
X79562Y44750D01*
X79671Y44703D01*
X79796Y44664D01*
X79945Y44625D01*
X80109Y44594D01*
X80281Y44586D01*
X80335D01*
X80374Y44594D01*
X80421D01*
X80484Y44601D01*
X80616Y44625D01*
X80765Y44664D01*
X80929Y44726D01*
X81085Y44804D01*
X81241Y44914D01*
X81249Y44921D01*
X81257Y44929D01*
X81304Y44976D01*
X81374Y45054D01*
X81460Y45156D01*
X81546Y45296D01*
X81639Y45460D01*
X81717Y45663D01*
X81780Y45890D01*
X82459Y45718D01*
Y45710D01*
X82452Y45679D01*
X82436Y45640D01*
X82420Y45578D01*
X82389Y45515D01*
X82358Y45429D01*
X82327Y45343D01*
X82280Y45250D01*
X82178Y45039D01*
X82038Y44828D01*
X81882Y44625D01*
X81788Y44531D01*
X81686Y44445D01*
X81678Y44437D01*
X81663Y44429D01*
X81632Y44406D01*
X81585Y44375D01*
X81530Y44344D01*
X81468Y44304D01*
X81397Y44265D01*
X81311Y44226D01*
X81218Y44187D01*
X81116Y44148D01*
X80999Y44109D01*
X80882Y44078D01*
X80624Y44023D01*
X80484Y44016D01*
X80335Y44008D01*
X80257D01*
X80195Y44016D01*
X80124D01*
X80046Y44023D01*
X79953Y44039D01*
X79859Y44047D01*
X79640Y44094D01*
X79414Y44148D01*
X79195Y44234D01*
X79086Y44281D01*
X78984Y44344D01*
X78976Y44351D01*
X78961Y44359D01*
X78937Y44383D01*
X78898Y44406D01*
X78804Y44484D01*
X78695Y44594D01*
X78562Y44726D01*
X78437Y44898D01*
X78305Y45093D01*
X78195Y45320D01*
Y45328D01*
X78187Y45351D01*
X78172Y45382D01*
X78156Y45429D01*
X78133Y45492D01*
X78109Y45562D01*
X78086Y45640D01*
X78062Y45734D01*
X78039Y45827D01*
X78016Y45937D01*
X77969Y46171D01*
X77938Y46421D01*
X77930Y46694D01*
Y46702D01*
Y46733D01*
Y46773D01*
X77938Y46827D01*
Y46898D01*
X77945Y46983D01*
X77953Y47069D01*
X77969Y47171D01*
X78008Y47390D01*
X78055Y47624D01*
X78133Y47866D01*
X78234Y48092D01*
Y48100D01*
X78250Y48116D01*
X78266Y48147D01*
X78289Y48194D01*
X78320Y48241D01*
X78359Y48295D01*
X78461Y48428D01*
X78578Y48577D01*
X78726Y48725D01*
X78906Y48873D01*
X79101Y48998D01*
X79109D01*
X79125Y49014D01*
X79156Y49030D01*
X79203Y49045D01*
X79250Y49069D01*
X79312Y49100D01*
X79390Y49123D01*
X79468Y49155D01*
X79554Y49186D01*
X79648Y49209D01*
X79859Y49264D01*
X80093Y49295D01*
X80343Y49311D01*
X80421D01*
X80476Y49303D01*
D02*
G37*
G36*
X94190Y47881D02*
X94300Y47866D01*
X94432Y47835D01*
X94573Y47796D01*
X94713Y47733D01*
X94854Y47647D01*
X94862D01*
X94870Y47639D01*
X94916Y47600D01*
X94979Y47546D01*
X95065Y47468D01*
X95151Y47374D01*
X95244Y47249D01*
X95330Y47116D01*
X95408Y46952D01*
Y46944D01*
X95416Y46929D01*
X95424Y46905D01*
X95440Y46874D01*
X95455Y46835D01*
X95471Y46780D01*
X95502Y46663D01*
X95533Y46515D01*
X95565Y46351D01*
X95588Y46171D01*
X95596Y45976D01*
Y45968D01*
Y45952D01*
Y45921D01*
Y45882D01*
X95588Y45827D01*
Y45773D01*
X95573Y45632D01*
X95541Y45476D01*
X95510Y45304D01*
X95455Y45125D01*
X95385Y44945D01*
Y44937D01*
X95377Y44921D01*
X95362Y44898D01*
X95346Y44867D01*
X95299Y44789D01*
X95237Y44687D01*
X95151Y44578D01*
X95049Y44461D01*
X94932Y44351D01*
X94792Y44250D01*
X94784D01*
X94776Y44242D01*
X94752Y44226D01*
X94721Y44211D01*
X94643Y44172D01*
X94542Y44133D01*
X94417Y44086D01*
X94284Y44047D01*
X94128Y44016D01*
X93971Y44008D01*
X93917D01*
X93862Y44016D01*
X93784Y44023D01*
X93698Y44039D01*
X93604Y44062D01*
X93503Y44094D01*
X93409Y44133D01*
X93401Y44140D01*
X93370Y44156D01*
X93323Y44187D01*
X93269Y44226D01*
X93198Y44273D01*
X93136Y44328D01*
X93066Y44398D01*
X93003Y44469D01*
Y42672D01*
X92370D01*
Y47811D01*
X92948D01*
Y47327D01*
X92956Y47343D01*
X92980Y47374D01*
X93026Y47421D01*
X93081Y47483D01*
X93144Y47554D01*
X93222Y47624D01*
X93308Y47694D01*
X93401Y47749D01*
X93417Y47757D01*
X93448Y47772D01*
X93503Y47796D01*
X93573Y47827D01*
X93667Y47850D01*
X93768Y47874D01*
X93885Y47889D01*
X94018Y47897D01*
X94096D01*
X94190Y47881D01*
D02*
G37*
G36*
X69175Y47889D02*
X69261Y47874D01*
X69354Y47842D01*
X69464Y47811D01*
X69581Y47757D01*
X69706Y47686D01*
X69479Y47108D01*
X69472Y47116D01*
X69440Y47132D01*
X69393Y47155D01*
X69339Y47179D01*
X69268Y47202D01*
X69190Y47225D01*
X69104Y47241D01*
X69019Y47249D01*
X68987D01*
X68948Y47241D01*
X68893Y47233D01*
X68839Y47218D01*
X68776Y47194D01*
X68714Y47163D01*
X68651Y47124D01*
X68644Y47116D01*
X68628Y47100D01*
X68597Y47069D01*
X68565Y47030D01*
X68526Y46983D01*
X68487Y46921D01*
X68456Y46851D01*
X68425Y46773D01*
X68417Y46757D01*
X68409Y46718D01*
X68394Y46648D01*
X68378Y46554D01*
X68355Y46444D01*
X68339Y46319D01*
X68331Y46187D01*
X68323Y46038D01*
Y44094D01*
X67691D01*
Y47811D01*
X68261D01*
Y47257D01*
X68269Y47265D01*
X68300Y47311D01*
X68339Y47382D01*
X68386Y47460D01*
X68448Y47546D01*
X68519Y47632D01*
X68581Y47710D01*
X68651Y47764D01*
X68659Y47772D01*
X68683Y47788D01*
X68722Y47803D01*
X68776Y47835D01*
X68831Y47858D01*
X68901Y47874D01*
X68979Y47889D01*
X69058Y47897D01*
X69112D01*
X69175Y47889D01*
D02*
G37*
G36*
X131772Y49240D02*
X131873Y49225D01*
X131991Y49201D01*
X132123Y49170D01*
X132256Y49123D01*
X132389Y49061D01*
X132397D01*
X132404Y49053D01*
X132451Y49030D01*
X132514Y48990D01*
X132592Y48936D01*
X132678Y48866D01*
X132772Y48780D01*
X132857Y48678D01*
X132936Y48569D01*
X132943Y48553D01*
X132967Y48514D01*
X132998Y48452D01*
X133029Y48374D01*
X133061Y48272D01*
X133092Y48163D01*
X133115Y48046D01*
X133123Y47913D01*
Y47897D01*
Y47858D01*
X133115Y47796D01*
X133099Y47717D01*
X133076Y47624D01*
X133045Y47522D01*
X133006Y47413D01*
X132943Y47311D01*
X132936Y47296D01*
X132912Y47265D01*
X132865Y47218D01*
X132811Y47155D01*
X132732Y47085D01*
X132647Y47015D01*
X132537Y46937D01*
X132412Y46874D01*
X132420D01*
X132436Y46866D01*
X132459D01*
X132490Y46851D01*
X132569Y46827D01*
X132670Y46780D01*
X132779Y46726D01*
X132896Y46648D01*
X133014Y46554D01*
X133115Y46437D01*
X133123Y46421D01*
X133154Y46374D01*
X133193Y46304D01*
X133248Y46210D01*
X133295Y46093D01*
X133334Y45952D01*
X133365Y45788D01*
X133373Y45609D01*
Y45601D01*
Y45578D01*
Y45546D01*
X133365Y45500D01*
X133357Y45437D01*
X133350Y45375D01*
X133334Y45296D01*
X133310Y45218D01*
X133256Y45039D01*
X133217Y44937D01*
X133162Y44843D01*
X133107Y44750D01*
X133045Y44656D01*
X132967Y44562D01*
X132881Y44469D01*
X132873Y44461D01*
X132857Y44445D01*
X132834Y44429D01*
X132795Y44398D01*
X132748Y44359D01*
X132686Y44320D01*
X132615Y44281D01*
X132545Y44242D01*
X132459Y44195D01*
X132365Y44156D01*
X132264Y44117D01*
X132155Y44078D01*
X132037Y44047D01*
X131912Y44031D01*
X131780Y44016D01*
X131647Y44008D01*
X131584D01*
X131537Y44016D01*
X131475Y44023D01*
X131413Y44031D01*
X131334Y44039D01*
X131256Y44055D01*
X131077Y44102D01*
X130889Y44180D01*
X130796Y44219D01*
X130710Y44273D01*
X130616Y44336D01*
X130530Y44406D01*
X130522Y44414D01*
X130514Y44422D01*
X130491Y44445D01*
X130460Y44476D01*
X130429Y44523D01*
X130389Y44570D01*
X130343Y44625D01*
X130304Y44687D01*
X130210Y44843D01*
X130132Y45023D01*
X130061Y45226D01*
X130038Y45336D01*
X130022Y45453D01*
X130655Y45538D01*
Y45531D01*
X130663Y45515D01*
Y45484D01*
X130678Y45453D01*
X130702Y45359D01*
X130741Y45242D01*
X130788Y45117D01*
X130850Y44984D01*
X130928Y44867D01*
X131014Y44765D01*
X131030Y44758D01*
X131061Y44726D01*
X131116Y44695D01*
X131194Y44648D01*
X131280Y44609D01*
X131389Y44570D01*
X131514Y44539D01*
X131647Y44531D01*
X131694D01*
X131725Y44539D01*
X131803Y44547D01*
X131905Y44570D01*
X132030Y44609D01*
X132155Y44656D01*
X132280Y44734D01*
X132397Y44836D01*
X132412Y44851D01*
X132443Y44890D01*
X132490Y44953D01*
X132553Y45046D01*
X132607Y45156D01*
X132654Y45289D01*
X132686Y45437D01*
X132701Y45601D01*
Y45609D01*
Y45617D01*
Y45640D01*
X132693Y45671D01*
X132686Y45749D01*
X132662Y45851D01*
X132631Y45960D01*
X132576Y46085D01*
X132506Y46202D01*
X132412Y46312D01*
X132397Y46327D01*
X132365Y46359D01*
X132303Y46398D01*
X132217Y46452D01*
X132115Y46507D01*
X131991Y46546D01*
X131858Y46577D01*
X131702Y46593D01*
X131631D01*
X131577Y46585D01*
X131514Y46577D01*
X131436Y46569D01*
X131350Y46554D01*
X131256Y46530D01*
X131327Y47085D01*
X131366D01*
X131397Y47077D01*
X131499D01*
X131569Y47085D01*
X131670Y47100D01*
X131780Y47124D01*
X131897Y47163D01*
X132022Y47210D01*
X132147Y47280D01*
X132162Y47288D01*
X132201Y47319D01*
X132248Y47374D01*
X132311Y47444D01*
X132373Y47530D01*
X132420Y47639D01*
X132459Y47772D01*
X132475Y47928D01*
Y47936D01*
Y47944D01*
Y47983D01*
X132459Y48046D01*
X132443Y48131D01*
X132420Y48217D01*
X132373Y48311D01*
X132318Y48413D01*
X132240Y48498D01*
X132233Y48506D01*
X132201Y48538D01*
X132147Y48577D01*
X132076Y48616D01*
X131991Y48662D01*
X131889Y48694D01*
X131772Y48725D01*
X131639Y48733D01*
X131577D01*
X131506Y48717D01*
X131428Y48702D01*
X131327Y48678D01*
X131225Y48631D01*
X131124Y48577D01*
X131022Y48498D01*
X131014Y48491D01*
X130983Y48460D01*
X130944Y48405D01*
X130897Y48327D01*
X130842Y48233D01*
X130796Y48116D01*
X130749Y47975D01*
X130718Y47811D01*
X130085Y47921D01*
Y47928D01*
X130093Y47952D01*
X130101Y47983D01*
X130108Y48022D01*
X130124Y48077D01*
X130140Y48139D01*
X130194Y48280D01*
X130257Y48436D01*
X130350Y48600D01*
X130460Y48756D01*
X130600Y48897D01*
X130608Y48905D01*
X130616Y48912D01*
X130639Y48928D01*
X130678Y48952D01*
X130718Y48975D01*
X130764Y49006D01*
X130882Y49076D01*
X131030Y49139D01*
X131210Y49194D01*
X131405Y49233D01*
X131514Y49248D01*
X131694D01*
X131772Y49240D01*
D02*
G37*
G36*
X97728Y47889D02*
X97830Y47881D01*
X97954Y47866D01*
X98080Y47842D01*
X98212Y47811D01*
X98337Y47764D01*
X98345D01*
X98353Y47757D01*
X98392Y47741D01*
X98454Y47710D01*
X98525Y47679D01*
X98603Y47624D01*
X98689Y47569D01*
X98767Y47499D01*
X98829Y47421D01*
X98837Y47413D01*
X98853Y47382D01*
X98884Y47335D01*
X98923Y47272D01*
X98954Y47194D01*
X98993Y47093D01*
X99024Y46983D01*
X99056Y46858D01*
X98439Y46773D01*
Y46788D01*
X98431Y46819D01*
X98415Y46874D01*
X98392Y46937D01*
X98361Y47007D01*
X98314Y47077D01*
X98259Y47155D01*
X98189Y47218D01*
X98181Y47225D01*
X98150Y47241D01*
X98103Y47272D01*
X98040Y47304D01*
X97962Y47327D01*
X97861Y47358D01*
X97751Y47374D01*
X97619Y47382D01*
X97548D01*
X97470Y47374D01*
X97377Y47366D01*
X97275Y47343D01*
X97174Y47319D01*
X97072Y47280D01*
X96994Y47233D01*
X96986Y47225D01*
X96963Y47210D01*
X96939Y47179D01*
X96908Y47140D01*
X96869Y47093D01*
X96846Y47030D01*
X96822Y46968D01*
X96814Y46898D01*
Y46890D01*
Y46874D01*
X96822Y46851D01*
Y46819D01*
X96846Y46749D01*
X96885Y46671D01*
X96892Y46663D01*
X96900Y46655D01*
X96947Y46616D01*
X96978Y46585D01*
X97017Y46562D01*
X97072Y46530D01*
X97127Y46507D01*
X97135D01*
X97150Y46499D01*
X97181Y46491D01*
X97236Y46476D01*
X97306Y46452D01*
X97408Y46421D01*
X97533Y46390D01*
X97603Y46366D01*
X97689Y46343D01*
X97697D01*
X97720Y46335D01*
X97751Y46327D01*
X97798Y46312D01*
X97853Y46296D01*
X97916Y46281D01*
X98056Y46241D01*
X98212Y46195D01*
X98369Y46140D01*
X98509Y46093D01*
X98571Y46070D01*
X98626Y46046D01*
X98642Y46038D01*
X98673Y46023D01*
X98720Y45999D01*
X98775Y45968D01*
X98845Y45921D01*
X98915Y45859D01*
X98978Y45796D01*
X99040Y45718D01*
X99048Y45710D01*
X99063Y45679D01*
X99087Y45632D01*
X99118Y45570D01*
X99150Y45492D01*
X99173Y45398D01*
X99189Y45296D01*
X99196Y45179D01*
Y45164D01*
Y45125D01*
X99189Y45062D01*
X99173Y44992D01*
X99150Y44898D01*
X99118Y44797D01*
X99071Y44695D01*
X99009Y44586D01*
X99001Y44570D01*
X98978Y44539D01*
X98931Y44492D01*
X98868Y44429D01*
X98798Y44359D01*
X98704Y44289D01*
X98595Y44219D01*
X98470Y44156D01*
X98454Y44148D01*
X98408Y44133D01*
X98337Y44109D01*
X98243Y44086D01*
X98126Y44055D01*
X97994Y44031D01*
X97845Y44016D01*
X97689Y44008D01*
X97619D01*
X97572Y44016D01*
X97509D01*
X97439Y44023D01*
X97275Y44047D01*
X97095Y44078D01*
X96916Y44133D01*
X96736Y44203D01*
X96658Y44250D01*
X96580Y44304D01*
X96572D01*
X96564Y44320D01*
X96517Y44359D01*
X96455Y44429D01*
X96377Y44531D01*
X96299Y44656D01*
X96221Y44812D01*
X96150Y44992D01*
X96104Y45203D01*
X96728Y45304D01*
Y45296D01*
Y45289D01*
X96736Y45242D01*
X96760Y45171D01*
X96783Y45085D01*
X96822Y44992D01*
X96869Y44898D01*
X96939Y44804D01*
X97017Y44719D01*
X97025Y44711D01*
X97064Y44687D01*
X97119Y44656D01*
X97189Y44625D01*
X97291Y44586D01*
X97400Y44554D01*
X97541Y44531D01*
X97689Y44523D01*
X97759D01*
X97837Y44531D01*
X97931Y44547D01*
X98040Y44562D01*
X98150Y44594D01*
X98251Y44640D01*
X98337Y44695D01*
X98345Y44703D01*
X98369Y44726D01*
X98408Y44765D01*
X98447Y44812D01*
X98478Y44875D01*
X98517Y44953D01*
X98540Y45031D01*
X98548Y45117D01*
Y45125D01*
Y45156D01*
X98540Y45187D01*
X98525Y45242D01*
X98501Y45289D01*
X98470Y45351D01*
X98423Y45406D01*
X98361Y45453D01*
X98353Y45460D01*
X98329Y45468D01*
X98290Y45484D01*
X98228Y45515D01*
X98142Y45538D01*
X98033Y45578D01*
X97962Y45601D01*
X97892Y45617D01*
X97806Y45640D01*
X97712Y45663D01*
X97705D01*
X97681Y45671D01*
X97650Y45679D01*
X97603Y45695D01*
X97541Y45710D01*
X97478Y45726D01*
X97330Y45773D01*
X97174Y45820D01*
X97009Y45867D01*
X96861Y45921D01*
X96799Y45945D01*
X96744Y45968D01*
X96736Y45976D01*
X96697Y45992D01*
X96650Y46023D01*
X96596Y46062D01*
X96525Y46109D01*
X96463Y46171D01*
X96393Y46241D01*
X96338Y46319D01*
X96330Y46327D01*
X96314Y46359D01*
X96299Y46405D01*
X96275Y46468D01*
X96244Y46538D01*
X96228Y46624D01*
X96213Y46718D01*
X96205Y46819D01*
Y46827D01*
Y46858D01*
X96213Y46913D01*
X96221Y46968D01*
X96228Y47038D01*
X96252Y47116D01*
X96275Y47202D01*
X96314Y47280D01*
X96322Y47288D01*
X96338Y47319D01*
X96361Y47358D01*
X96400Y47405D01*
X96439Y47460D01*
X96494Y47514D01*
X96557Y47577D01*
X96627Y47632D01*
X96635Y47639D01*
X96658Y47647D01*
X96689Y47671D01*
X96736Y47694D01*
X96791Y47725D01*
X96861Y47757D01*
X96939Y47788D01*
X97025Y47819D01*
X97041D01*
X97072Y47835D01*
X97119Y47842D01*
X97189Y47858D01*
X97275Y47874D01*
X97361Y47881D01*
X97462Y47897D01*
X97642D01*
X97728Y47889D01*
D02*
G37*
G36*
X90426Y44031D02*
Y44023D01*
X90418Y44008D01*
X90402Y43977D01*
X90387Y43930D01*
X90371Y43883D01*
X90348Y43828D01*
X90301Y43695D01*
X90238Y43555D01*
X90184Y43422D01*
X90129Y43289D01*
X90098Y43235D01*
X90074Y43188D01*
X90066Y43172D01*
X90043Y43141D01*
X90012Y43086D01*
X89965Y43016D01*
X89902Y42946D01*
X89840Y42867D01*
X89762Y42797D01*
X89684Y42735D01*
X89676Y42727D01*
X89645Y42711D01*
X89598Y42688D01*
X89535Y42664D01*
X89465Y42633D01*
X89371Y42610D01*
X89278Y42594D01*
X89168Y42586D01*
X89137D01*
X89098Y42594D01*
X89051D01*
X88989Y42602D01*
X88918Y42618D01*
X88762Y42664D01*
X88692Y43250D01*
X88700D01*
X88723Y43242D01*
X88762Y43235D01*
X88817Y43219D01*
X88926Y43196D01*
X89051Y43188D01*
X89090D01*
X89121Y43196D01*
X89176D01*
X89285Y43219D01*
X89340Y43235D01*
X89387Y43258D01*
X89395D01*
X89410Y43274D01*
X89434Y43289D01*
X89457Y43313D01*
X89527Y43375D01*
X89598Y43461D01*
Y43469D01*
X89606Y43485D01*
X89621Y43508D01*
X89645Y43555D01*
X89668Y43617D01*
X89699Y43695D01*
X89738Y43805D01*
X89785Y43930D01*
X89793Y43938D01*
X89801Y43969D01*
X89824Y44016D01*
X89848Y44086D01*
X88434Y47811D01*
X89106D01*
X89879Y45671D01*
Y45663D01*
X89887Y45656D01*
X89895Y45632D01*
X89902Y45601D01*
X89934Y45515D01*
X89973Y45406D01*
X90012Y45281D01*
X90059Y45132D01*
X90105Y44976D01*
X90152Y44812D01*
Y44820D01*
X90160Y44828D01*
Y44851D01*
X90176Y44883D01*
X90191Y44968D01*
X90223Y45070D01*
X90262Y45195D01*
X90308Y45336D01*
X90355Y45484D01*
X90410Y45640D01*
X91207Y47811D01*
X91831D01*
X90426Y44031D01*
D02*
G37*
G36*
X127648Y44094D02*
X126953D01*
X124961Y49225D01*
X125704D01*
X127031Y45500D01*
Y45492D01*
X127039Y45476D01*
X127047Y45453D01*
X127062Y45421D01*
X127086Y45336D01*
X127125Y45226D01*
X127172Y45093D01*
X127219Y44953D01*
X127304Y44656D01*
Y44664D01*
X127312Y44672D01*
X127320Y44695D01*
X127328Y44726D01*
X127351Y44812D01*
X127383Y44921D01*
X127422Y45046D01*
X127469Y45187D01*
X127523Y45343D01*
X127578Y45500D01*
X128968Y49225D01*
X129655D01*
X127648Y44094D01*
D02*
G37*
G36*
X136294Y49217D02*
X136348D01*
X136481Y49209D01*
X136630Y49186D01*
X136786Y49162D01*
X136942Y49123D01*
X137083Y49069D01*
X137090D01*
X137098Y49061D01*
X137145Y49037D01*
X137208Y48998D01*
X137286Y48952D01*
X137379Y48881D01*
X137473Y48795D01*
X137559Y48702D01*
X137645Y48584D01*
X137653Y48569D01*
X137676Y48530D01*
X137707Y48460D01*
X137747Y48374D01*
X137785Y48272D01*
X137817Y48163D01*
X137840Y48038D01*
X137848Y47905D01*
Y47889D01*
Y47850D01*
X137840Y47788D01*
X137825Y47702D01*
X137801Y47608D01*
X137770Y47507D01*
X137731Y47390D01*
X137668Y47280D01*
X137661Y47265D01*
X137637Y47233D01*
X137590Y47179D01*
X137536Y47116D01*
X137458Y47038D01*
X137364Y46968D01*
X137254Y46890D01*
X137122Y46819D01*
X137129D01*
X137145Y46812D01*
X137169Y46804D01*
X137200Y46796D01*
X137286Y46757D01*
X137387Y46710D01*
X137504Y46640D01*
X137621Y46562D01*
X137739Y46468D01*
X137840Y46351D01*
X137848Y46335D01*
X137879Y46296D01*
X137918Y46226D01*
X137973Y46132D01*
X138020Y46015D01*
X138059Y45890D01*
X138090Y45742D01*
X138098Y45578D01*
Y45562D01*
Y45515D01*
X138090Y45445D01*
X138082Y45359D01*
X138059Y45257D01*
X138035Y45140D01*
X137996Y45023D01*
X137942Y44906D01*
X137934Y44890D01*
X137918Y44851D01*
X137879Y44797D01*
X137840Y44726D01*
X137785Y44648D01*
X137723Y44570D01*
X137645Y44492D01*
X137567Y44422D01*
X137559Y44414D01*
X137528Y44398D01*
X137481Y44367D01*
X137411Y44328D01*
X137332Y44289D01*
X137231Y44250D01*
X137122Y44211D01*
X137004Y44172D01*
X136989D01*
X136942Y44156D01*
X136872Y44148D01*
X136778Y44133D01*
X136653Y44117D01*
X136512Y44109D01*
X136356Y44094D01*
X134224D01*
Y49225D01*
X136239D01*
X136294Y49217D01*
D02*
G37*
G36*
X124438Y48623D02*
X121408D01*
Y47046D01*
X124243D01*
Y46444D01*
X121408D01*
Y44695D01*
X124555D01*
Y44094D01*
X120729D01*
Y49225D01*
X124438D01*
Y48623D01*
D02*
G37*
G36*
X117643Y49217D02*
X117784Y49209D01*
X117940Y49194D01*
X118089Y49170D01*
X118214Y49147D01*
X118221D01*
X118237Y49139D01*
X118253D01*
X118284Y49123D01*
X118370Y49100D01*
X118471Y49061D01*
X118589Y49014D01*
X118713Y48952D01*
X118839Y48873D01*
X118963Y48780D01*
X118971D01*
X118979Y48764D01*
X119034Y48717D01*
X119104Y48639D01*
X119190Y48538D01*
X119291Y48413D01*
X119393Y48264D01*
X119487Y48092D01*
X119573Y47897D01*
Y47889D01*
X119580Y47874D01*
X119588Y47842D01*
X119604Y47803D01*
X119620Y47757D01*
X119635Y47694D01*
X119659Y47624D01*
X119674Y47546D01*
X119690Y47460D01*
X119713Y47366D01*
X119744Y47163D01*
X119768Y46937D01*
X119776Y46687D01*
Y46679D01*
Y46663D01*
Y46632D01*
Y46585D01*
X119768Y46538D01*
Y46476D01*
X119760Y46335D01*
X119744Y46179D01*
X119713Y45999D01*
X119682Y45820D01*
X119635Y45648D01*
Y45640D01*
X119627Y45624D01*
X119620Y45601D01*
X119612Y45570D01*
X119580Y45492D01*
X119541Y45382D01*
X119494Y45265D01*
X119432Y45140D01*
X119362Y45015D01*
X119284Y44898D01*
X119276Y44883D01*
X119245Y44851D01*
X119205Y44797D01*
X119143Y44726D01*
X119081Y44656D01*
X118995Y44578D01*
X118909Y44500D01*
X118815Y44429D01*
X118807Y44422D01*
X118768Y44406D01*
X118713Y44375D01*
X118643Y44336D01*
X118557Y44297D01*
X118456Y44258D01*
X118339Y44219D01*
X118206Y44180D01*
X118190D01*
X118143Y44164D01*
X118073Y44156D01*
X117972Y44140D01*
X117854Y44125D01*
X117714Y44109D01*
X117558Y44102D01*
X117386Y44094D01*
X115543D01*
Y49225D01*
X117511D01*
X117643Y49217D01*
D02*
G37*
G36*
X109490Y48623D02*
X106710D01*
Y47022D01*
X109115D01*
Y46421D01*
X106710D01*
Y44094D01*
X106030D01*
Y49225D01*
X109490D01*
Y48623D01*
D02*
G37*
G36*
X87817Y44094D02*
X87185D01*
Y49225D01*
X87817D01*
Y44094D01*
D02*
G37*
G36*
X84943Y47889D02*
X85052Y47881D01*
X85177Y47866D01*
X85310Y47850D01*
X85435Y47819D01*
X85552Y47780D01*
X85568Y47772D01*
X85599Y47764D01*
X85654Y47733D01*
X85716Y47702D01*
X85786Y47663D01*
X85865Y47616D01*
X85927Y47561D01*
X85990Y47499D01*
X85997Y47491D01*
X86013Y47468D01*
X86036Y47436D01*
X86068Y47382D01*
X86099Y47319D01*
X86130Y47249D01*
X86161Y47163D01*
X86185Y47069D01*
Y47061D01*
X86193Y47038D01*
X86200Y46999D01*
X86208Y46937D01*
Y46858D01*
X86216Y46757D01*
X86224Y46640D01*
Y46491D01*
Y45648D01*
Y45640D01*
Y45609D01*
Y45562D01*
Y45507D01*
Y45437D01*
Y45359D01*
X86232Y45179D01*
Y44984D01*
X86239Y44804D01*
X86247Y44719D01*
Y44648D01*
X86255Y44586D01*
X86263Y44531D01*
Y44523D01*
X86271Y44492D01*
X86279Y44445D01*
X86294Y44390D01*
X86318Y44328D01*
X86349Y44250D01*
X86419Y44094D01*
X85763D01*
X85755Y44102D01*
X85747Y44125D01*
X85732Y44172D01*
X85708Y44226D01*
X85685Y44297D01*
X85669Y44375D01*
X85654Y44461D01*
X85638Y44562D01*
X85623Y44547D01*
X85576Y44515D01*
X85513Y44461D01*
X85419Y44398D01*
X85318Y44320D01*
X85201Y44250D01*
X85084Y44187D01*
X84959Y44133D01*
X84943Y44125D01*
X84904Y44117D01*
X84842Y44094D01*
X84756Y44070D01*
X84646Y44047D01*
X84529Y44031D01*
X84404Y44016D01*
X84264Y44008D01*
X84209D01*
X84162Y44016D01*
X84115D01*
X84053Y44023D01*
X83920Y44047D01*
X83764Y44078D01*
X83615Y44133D01*
X83459Y44203D01*
X83326Y44304D01*
X83311Y44320D01*
X83272Y44359D01*
X83225Y44422D01*
X83162Y44515D01*
X83100Y44625D01*
X83053Y44750D01*
X83014Y44906D01*
X82998Y45070D01*
Y45085D01*
Y45117D01*
X83006Y45171D01*
X83014Y45234D01*
X83030Y45312D01*
X83045Y45398D01*
X83077Y45484D01*
X83116Y45570D01*
X83123Y45578D01*
X83139Y45609D01*
X83162Y45648D01*
X83201Y45702D01*
X83248Y45757D01*
X83311Y45820D01*
X83373Y45874D01*
X83444Y45929D01*
X83451Y45937D01*
X83483Y45952D01*
X83522Y45976D01*
X83576Y46007D01*
X83647Y46046D01*
X83717Y46077D01*
X83803Y46109D01*
X83896Y46140D01*
X83904D01*
X83936Y46148D01*
X83975Y46156D01*
X84037Y46171D01*
X84115Y46187D01*
X84217Y46202D01*
X84326Y46218D01*
X84459Y46234D01*
X84467D01*
X84490Y46241D01*
X84529D01*
X84584Y46249D01*
X84646Y46257D01*
X84717Y46265D01*
X84888Y46296D01*
X85068Y46327D01*
X85255Y46359D01*
X85435Y46405D01*
X85513Y46429D01*
X85584Y46452D01*
Y46460D01*
Y46476D01*
X85591Y46523D01*
Y46577D01*
Y46601D01*
Y46616D01*
Y46624D01*
Y46632D01*
Y46679D01*
X85584Y46749D01*
X85568Y46827D01*
X85544Y46913D01*
X85513Y47007D01*
X85474Y47085D01*
X85412Y47155D01*
X85404Y47163D01*
X85365Y47186D01*
X85310Y47225D01*
X85232Y47265D01*
X85131Y47304D01*
X85006Y47343D01*
X84857Y47366D01*
X84693Y47374D01*
X84623D01*
X84545Y47366D01*
X84443Y47358D01*
X84334Y47335D01*
X84232Y47311D01*
X84123Y47272D01*
X84037Y47218D01*
X84029Y47210D01*
X84006Y47186D01*
X83967Y47147D01*
X83920Y47093D01*
X83865Y47015D01*
X83818Y46921D01*
X83764Y46804D01*
X83725Y46671D01*
X83108Y46757D01*
Y46765D01*
X83116Y46773D01*
X83123Y46819D01*
X83147Y46890D01*
X83170Y46983D01*
X83209Y47085D01*
X83256Y47186D01*
X83311Y47296D01*
X83381Y47390D01*
X83389Y47397D01*
X83420Y47429D01*
X83459Y47475D01*
X83522Y47530D01*
X83600Y47585D01*
X83701Y47647D01*
X83811Y47710D01*
X83936Y47764D01*
X83943D01*
X83951Y47772D01*
X83975Y47780D01*
X83998Y47788D01*
X84076Y47803D01*
X84178Y47835D01*
X84303Y47858D01*
X84443Y47874D01*
X84607Y47889D01*
X84779Y47897D01*
X84857D01*
X84943Y47889D01*
D02*
G37*
G36*
X66894Y48623D02*
X64114D01*
Y47022D01*
X66519D01*
Y46421D01*
X64114D01*
Y44094D01*
X63434D01*
Y49225D01*
X66894D01*
Y48623D01*
D02*
G37*
G36*
X101571Y47889D02*
X101641Y47881D01*
X101711Y47874D01*
X101797Y47858D01*
X101891Y47835D01*
X102086Y47772D01*
X102188Y47733D01*
X102297Y47686D01*
X102398Y47624D01*
X102500Y47554D01*
X102602Y47475D01*
X102695Y47390D01*
X102703Y47382D01*
X102719Y47366D01*
X102742Y47335D01*
X102773Y47296D01*
X102812Y47249D01*
X102851Y47186D01*
X102898Y47108D01*
X102945Y47030D01*
X102984Y46937D01*
X103031Y46827D01*
X103070Y46718D01*
X103109Y46593D01*
X103140Y46460D01*
X103164Y46312D01*
X103179Y46163D01*
X103187Y45999D01*
Y45992D01*
Y45968D01*
Y45929D01*
Y45882D01*
X103179Y45820D01*
Y45749D01*
X103172Y45671D01*
X103164Y45585D01*
X103133Y45406D01*
X103094Y45218D01*
X103039Y45031D01*
X102969Y44867D01*
Y44859D01*
X102961Y44851D01*
X102929Y44797D01*
X102875Y44726D01*
X102805Y44633D01*
X102719Y44531D01*
X102609Y44429D01*
X102484Y44328D01*
X102336Y44234D01*
X102328D01*
X102320Y44226D01*
X102297Y44211D01*
X102266Y44203D01*
X102180Y44164D01*
X102070Y44125D01*
X101938Y44078D01*
X101789Y44047D01*
X101625Y44016D01*
X101446Y44008D01*
X101367D01*
X101313Y44016D01*
X101250Y44023D01*
X101172Y44031D01*
X101086Y44047D01*
X100993Y44070D01*
X100797Y44133D01*
X100688Y44172D01*
X100586Y44219D01*
X100477Y44273D01*
X100376Y44344D01*
X100274Y44422D01*
X100180Y44508D01*
X100173Y44515D01*
X100157Y44531D01*
X100134Y44562D01*
X100110Y44601D01*
X100071Y44656D01*
X100032Y44719D01*
X99985Y44789D01*
X99946Y44875D01*
X99899Y44976D01*
X99852Y45078D01*
X99813Y45203D01*
X99782Y45328D01*
X99751Y45468D01*
X99727Y45617D01*
X99712Y45781D01*
X99704Y45952D01*
Y45968D01*
Y45999D01*
X99712Y46054D01*
Y46124D01*
X99720Y46210D01*
X99735Y46304D01*
X99751Y46413D01*
X99774Y46530D01*
X99805Y46655D01*
X99845Y46780D01*
X99891Y46905D01*
X99946Y47030D01*
X100009Y47155D01*
X100087Y47272D01*
X100173Y47382D01*
X100274Y47483D01*
X100282Y47491D01*
X100297Y47499D01*
X100321Y47522D01*
X100360Y47546D01*
X100407Y47577D01*
X100461Y47616D01*
X100524Y47655D01*
X100602Y47694D01*
X100680Y47725D01*
X100766Y47764D01*
X100969Y47835D01*
X101196Y47881D01*
X101321Y47889D01*
X101446Y47897D01*
X101516D01*
X101571Y47889D01*
D02*
G37*
G36*
X75704D02*
X75766Y47881D01*
X75844Y47874D01*
X75923Y47858D01*
X76016Y47835D01*
X76204Y47772D01*
X76305Y47733D01*
X76407Y47679D01*
X76508Y47624D01*
X76610Y47554D01*
X76704Y47475D01*
X76797Y47382D01*
X76805Y47374D01*
X76821Y47358D01*
X76844Y47327D01*
X76875Y47288D01*
X76907Y47233D01*
X76946Y47171D01*
X76992Y47100D01*
X77039Y47015D01*
X77078Y46913D01*
X77125Y46812D01*
X77164Y46694D01*
X77203Y46562D01*
X77227Y46429D01*
X77250Y46281D01*
X77266Y46124D01*
X77274Y45952D01*
Y45945D01*
Y45913D01*
Y45859D01*
X77266Y45788D01*
X74501D01*
Y45781D01*
Y45765D01*
X74509Y45726D01*
Y45687D01*
X74517Y45632D01*
X74524Y45578D01*
X74556Y45437D01*
X74603Y45289D01*
X74657Y45132D01*
X74743Y44976D01*
X74845Y44843D01*
X74860Y44828D01*
X74899Y44797D01*
X74970Y44742D01*
X75056Y44687D01*
X75173Y44625D01*
X75305Y44570D01*
X75454Y44539D01*
X75618Y44523D01*
X75680D01*
X75743Y44531D01*
X75821Y44547D01*
X75915Y44570D01*
X76016Y44601D01*
X76118Y44640D01*
X76212Y44703D01*
X76219Y44711D01*
X76250Y44742D01*
X76297Y44781D01*
X76352Y44851D01*
X76415Y44929D01*
X76477Y45031D01*
X76539Y45156D01*
X76602Y45296D01*
X77250Y45210D01*
Y45203D01*
X77242Y45187D01*
X77235Y45156D01*
X77219Y45117D01*
X77203Y45070D01*
X77180Y45015D01*
X77117Y44883D01*
X77039Y44742D01*
X76946Y44594D01*
X76821Y44445D01*
X76680Y44320D01*
X76672D01*
X76665Y44304D01*
X76641Y44289D01*
X76602Y44273D01*
X76563Y44250D01*
X76516Y44219D01*
X76461Y44195D01*
X76391Y44164D01*
X76243Y44109D01*
X76055Y44055D01*
X75852Y44023D01*
X75618Y44008D01*
X75540D01*
X75485Y44016D01*
X75415Y44023D01*
X75337Y44031D01*
X75251Y44047D01*
X75149Y44070D01*
X74946Y44133D01*
X74837Y44172D01*
X74735Y44219D01*
X74626Y44273D01*
X74524Y44344D01*
X74423Y44422D01*
X74329Y44508D01*
X74322Y44515D01*
X74306Y44531D01*
X74282Y44562D01*
X74259Y44601D01*
X74220Y44648D01*
X74181Y44711D01*
X74134Y44789D01*
X74095Y44875D01*
X74048Y44968D01*
X74001Y45070D01*
X73962Y45187D01*
X73931Y45312D01*
X73900Y45445D01*
X73876Y45593D01*
X73861Y45749D01*
X73853Y45913D01*
Y45921D01*
Y45952D01*
Y46007D01*
X73861Y46070D01*
X73869Y46148D01*
X73876Y46241D01*
X73892Y46343D01*
X73915Y46452D01*
X73970Y46687D01*
X74009Y46804D01*
X74056Y46929D01*
X74111Y47046D01*
X74173Y47163D01*
X74243Y47272D01*
X74329Y47374D01*
X74337Y47382D01*
X74353Y47397D01*
X74376Y47421D01*
X74415Y47460D01*
X74462Y47499D01*
X74524Y47538D01*
X74587Y47585D01*
X74665Y47639D01*
X74751Y47686D01*
X74845Y47733D01*
X74946Y47772D01*
X75063Y47819D01*
X75181Y47850D01*
X75305Y47874D01*
X75438Y47889D01*
X75579Y47897D01*
X75649D01*
X75704Y47889D01*
D02*
G37*
G36*
X71721D02*
X71783Y47881D01*
X71861Y47874D01*
X71939Y47858D01*
X72033Y47835D01*
X72221Y47772D01*
X72322Y47733D01*
X72424Y47679D01*
X72525Y47624D01*
X72627Y47554D01*
X72720Y47475D01*
X72814Y47382D01*
X72822Y47374D01*
X72838Y47358D01*
X72861Y47327D01*
X72892Y47288D01*
X72923Y47233D01*
X72962Y47171D01*
X73009Y47100D01*
X73056Y47015D01*
X73095Y46913D01*
X73142Y46812D01*
X73181Y46694D01*
X73220Y46562D01*
X73244Y46429D01*
X73267Y46281D01*
X73283Y46124D01*
X73290Y45952D01*
Y45945D01*
Y45913D01*
Y45859D01*
X73283Y45788D01*
X70518D01*
Y45781D01*
Y45765D01*
X70526Y45726D01*
Y45687D01*
X70534Y45632D01*
X70541Y45578D01*
X70573Y45437D01*
X70619Y45289D01*
X70674Y45132D01*
X70760Y44976D01*
X70862Y44843D01*
X70877Y44828D01*
X70916Y44797D01*
X70987Y44742D01*
X71073Y44687D01*
X71190Y44625D01*
X71322Y44570D01*
X71471Y44539D01*
X71635Y44523D01*
X71697D01*
X71760Y44531D01*
X71838Y44547D01*
X71932Y44570D01*
X72033Y44601D01*
X72135Y44640D01*
X72228Y44703D01*
X72236Y44711D01*
X72267Y44742D01*
X72314Y44781D01*
X72369Y44851D01*
X72431Y44929D01*
X72494Y45031D01*
X72556Y45156D01*
X72619Y45296D01*
X73267Y45210D01*
Y45203D01*
X73259Y45187D01*
X73251Y45156D01*
X73236Y45117D01*
X73220Y45070D01*
X73197Y45015D01*
X73134Y44883D01*
X73056Y44742D01*
X72962Y44594D01*
X72838Y44445D01*
X72697Y44320D01*
X72689D01*
X72681Y44304D01*
X72658Y44289D01*
X72619Y44273D01*
X72580Y44250D01*
X72533Y44219D01*
X72478Y44195D01*
X72408Y44164D01*
X72260Y44109D01*
X72072Y44055D01*
X71869Y44023D01*
X71635Y44008D01*
X71557D01*
X71502Y44016D01*
X71432Y44023D01*
X71354Y44031D01*
X71268Y44047D01*
X71166Y44070D01*
X70963Y44133D01*
X70854Y44172D01*
X70752Y44219D01*
X70643Y44273D01*
X70541Y44344D01*
X70440Y44422D01*
X70346Y44508D01*
X70338Y44515D01*
X70323Y44531D01*
X70299Y44562D01*
X70276Y44601D01*
X70237Y44648D01*
X70198Y44711D01*
X70151Y44789D01*
X70112Y44875D01*
X70065Y44968D01*
X70018Y45070D01*
X69979Y45187D01*
X69948Y45312D01*
X69917Y45445D01*
X69893Y45593D01*
X69878Y45749D01*
X69870Y45913D01*
Y45921D01*
Y45952D01*
Y46007D01*
X69878Y46070D01*
X69885Y46148D01*
X69893Y46241D01*
X69909Y46343D01*
X69932Y46452D01*
X69987Y46687D01*
X70026Y46804D01*
X70073Y46929D01*
X70127Y47046D01*
X70190Y47163D01*
X70260Y47272D01*
X70346Y47374D01*
X70354Y47382D01*
X70370Y47397D01*
X70393Y47421D01*
X70432Y47460D01*
X70479Y47499D01*
X70541Y47538D01*
X70604Y47585D01*
X70682Y47639D01*
X70768Y47686D01*
X70862Y47733D01*
X70963Y47772D01*
X71080Y47819D01*
X71197Y47850D01*
X71322Y47874D01*
X71455Y47889D01*
X71596Y47897D01*
X71666D01*
X71721Y47889D01*
D02*
G37*
G36*
X86739Y41552D02*
X86825Y41544D01*
X86927Y41529D01*
X87036Y41513D01*
X87153Y41490D01*
X87060Y40943D01*
X87052D01*
X87028Y40951D01*
X86989Y40959D01*
X86942Y40967D01*
X86880D01*
X86818Y40974D01*
X86685Y40982D01*
X86638D01*
X86591Y40974D01*
X86528Y40967D01*
X86466Y40951D01*
X86396Y40927D01*
X86333Y40896D01*
X86279Y40857D01*
X86271Y40849D01*
X86263Y40834D01*
X86239Y40802D01*
X86224Y40756D01*
X86200Y40693D01*
X86177Y40607D01*
X86169Y40514D01*
X86161Y40396D01*
Y40061D01*
X86888D01*
Y39569D01*
X86169D01*
Y36343D01*
X85537D01*
Y39569D01*
X84982D01*
Y40061D01*
X85537D01*
Y40451D01*
Y40459D01*
Y40467D01*
Y40514D01*
X85544Y40576D01*
Y40662D01*
X85552Y40748D01*
X85568Y40842D01*
X85584Y40927D01*
X85607Y41006D01*
X85615Y41013D01*
X85623Y41045D01*
X85646Y41091D01*
X85677Y41146D01*
X85724Y41216D01*
X85779Y41279D01*
X85841Y41341D01*
X85919Y41404D01*
X85927Y41412D01*
X85966Y41427D01*
X86013Y41451D01*
X86091Y41482D01*
X86177Y41513D01*
X86294Y41537D01*
X86419Y41552D01*
X86568Y41560D01*
X86669D01*
X86739Y41552D01*
D02*
G37*
G36*
X112294Y40131D02*
X112403Y40115D01*
X112536Y40084D01*
X112676Y40045D01*
X112817Y39983D01*
X112958Y39897D01*
X112965D01*
X112973Y39889D01*
X113020Y39850D01*
X113083Y39795D01*
X113168Y39717D01*
X113254Y39623D01*
X113348Y39498D01*
X113434Y39366D01*
X113512Y39202D01*
Y39194D01*
X113520Y39178D01*
X113528Y39155D01*
X113543Y39123D01*
X113559Y39084D01*
X113575Y39030D01*
X113606Y38912D01*
X113637Y38764D01*
X113668Y38600D01*
X113692Y38421D01*
X113699Y38225D01*
Y38217D01*
Y38202D01*
Y38171D01*
Y38131D01*
X113692Y38077D01*
Y38022D01*
X113676Y37882D01*
X113645Y37725D01*
X113614Y37554D01*
X113559Y37374D01*
X113489Y37194D01*
Y37187D01*
X113481Y37171D01*
X113465Y37148D01*
X113450Y37116D01*
X113403Y37038D01*
X113340Y36937D01*
X113254Y36827D01*
X113153Y36710D01*
X113036Y36601D01*
X112895Y36499D01*
X112887D01*
X112879Y36491D01*
X112856Y36476D01*
X112825Y36460D01*
X112747Y36421D01*
X112645Y36382D01*
X112520Y36335D01*
X112387Y36296D01*
X112231Y36265D01*
X112075Y36257D01*
X112020D01*
X111966Y36265D01*
X111888Y36273D01*
X111802Y36288D01*
X111708Y36312D01*
X111606Y36343D01*
X111513Y36382D01*
X111505Y36390D01*
X111474Y36406D01*
X111427Y36437D01*
X111372Y36476D01*
X111302Y36523D01*
X111239Y36577D01*
X111169Y36648D01*
X111107Y36718D01*
Y34922D01*
X110474D01*
Y40061D01*
X111052D01*
Y39576D01*
X111060Y39592D01*
X111083Y39623D01*
X111130Y39670D01*
X111185Y39733D01*
X111247Y39803D01*
X111325Y39873D01*
X111411Y39943D01*
X111505Y39998D01*
X111521Y40006D01*
X111552Y40021D01*
X111606Y40045D01*
X111677Y40076D01*
X111770Y40100D01*
X111872Y40123D01*
X111989Y40139D01*
X112122Y40146D01*
X112200D01*
X112294Y40131D01*
D02*
G37*
G36*
X129483Y40139D02*
X129569Y40123D01*
X129663Y40092D01*
X129772Y40061D01*
X129890Y40006D01*
X130015Y39936D01*
X129788Y39358D01*
X129780Y39366D01*
X129749Y39381D01*
X129702Y39405D01*
X129648Y39428D01*
X129577Y39451D01*
X129499Y39475D01*
X129413Y39491D01*
X129327Y39498D01*
X129296D01*
X129257Y39491D01*
X129202Y39483D01*
X129148Y39467D01*
X129085Y39444D01*
X129023Y39412D01*
X128960Y39373D01*
X128952Y39366D01*
X128937Y39350D01*
X128906Y39319D01*
X128874Y39280D01*
X128835Y39233D01*
X128796Y39170D01*
X128765Y39100D01*
X128734Y39022D01*
X128726Y39006D01*
X128718Y38967D01*
X128702Y38897D01*
X128687Y38803D01*
X128663Y38694D01*
X128648Y38569D01*
X128640Y38436D01*
X128632Y38288D01*
Y36343D01*
X128000D01*
Y40061D01*
X128570D01*
Y39506D01*
X128577Y39514D01*
X128609Y39561D01*
X128648Y39631D01*
X128695Y39709D01*
X128757Y39795D01*
X128828Y39881D01*
X128890Y39959D01*
X128960Y40014D01*
X128968Y40021D01*
X128991Y40037D01*
X129031Y40053D01*
X129085Y40084D01*
X129140Y40108D01*
X129210Y40123D01*
X129288Y40139D01*
X129366Y40146D01*
X129421D01*
X129483Y40139D01*
D02*
G37*
G36*
X88864D02*
X88950Y40123D01*
X89043Y40092D01*
X89153Y40061D01*
X89270Y40006D01*
X89395Y39936D01*
X89168Y39358D01*
X89161Y39366D01*
X89129Y39381D01*
X89082Y39405D01*
X89028Y39428D01*
X88957Y39451D01*
X88879Y39475D01*
X88793Y39491D01*
X88708Y39498D01*
X88676D01*
X88637Y39491D01*
X88582Y39483D01*
X88528Y39467D01*
X88465Y39444D01*
X88403Y39412D01*
X88340Y39373D01*
X88333Y39366D01*
X88317Y39350D01*
X88286Y39319D01*
X88254Y39280D01*
X88216Y39233D01*
X88176Y39170D01*
X88145Y39100D01*
X88114Y39022D01*
X88106Y39006D01*
X88098Y38967D01*
X88083Y38897D01*
X88067Y38803D01*
X88044Y38694D01*
X88028Y38569D01*
X88020Y38436D01*
X88012Y38288D01*
Y36343D01*
X87380D01*
Y40061D01*
X87950D01*
Y39506D01*
X87958Y39514D01*
X87989Y39561D01*
X88028Y39631D01*
X88075Y39709D01*
X88137Y39795D01*
X88208Y39881D01*
X88270Y39959D01*
X88340Y40014D01*
X88348Y40021D01*
X88372Y40037D01*
X88411Y40053D01*
X88465Y40084D01*
X88520Y40108D01*
X88590Y40123D01*
X88668Y40139D01*
X88747Y40146D01*
X88801D01*
X88864Y40139D01*
D02*
G37*
G36*
X115832D02*
X115933Y40131D01*
X116058Y40115D01*
X116183Y40092D01*
X116316Y40061D01*
X116441Y40014D01*
X116449D01*
X116456Y40006D01*
X116496Y39990D01*
X116558Y39959D01*
X116628Y39928D01*
X116706Y39873D01*
X116792Y39819D01*
X116870Y39748D01*
X116933Y39670D01*
X116941Y39662D01*
X116956Y39631D01*
X116988Y39584D01*
X117026Y39522D01*
X117058Y39444D01*
X117097Y39342D01*
X117128Y39233D01*
X117159Y39108D01*
X116542Y39022D01*
Y39037D01*
X116534Y39069D01*
X116519Y39123D01*
X116496Y39186D01*
X116464Y39256D01*
X116417Y39326D01*
X116363Y39405D01*
X116292Y39467D01*
X116285Y39475D01*
X116253Y39491D01*
X116207Y39522D01*
X116144Y39553D01*
X116066Y39576D01*
X115964Y39608D01*
X115855Y39623D01*
X115722Y39631D01*
X115652D01*
X115574Y39623D01*
X115480Y39615D01*
X115379Y39592D01*
X115277Y39569D01*
X115176Y39529D01*
X115097Y39483D01*
X115090Y39475D01*
X115066Y39459D01*
X115043Y39428D01*
X115012Y39389D01*
X114972Y39342D01*
X114949Y39280D01*
X114926Y39217D01*
X114918Y39147D01*
Y39139D01*
Y39123D01*
X114926Y39100D01*
Y39069D01*
X114949Y38998D01*
X114988Y38920D01*
X114996Y38912D01*
X115004Y38905D01*
X115051Y38866D01*
X115082Y38834D01*
X115121Y38811D01*
X115176Y38780D01*
X115230Y38756D01*
X115238D01*
X115254Y38748D01*
X115285Y38741D01*
X115340Y38725D01*
X115410Y38702D01*
X115511Y38670D01*
X115636Y38639D01*
X115707Y38616D01*
X115793Y38592D01*
X115800D01*
X115824Y38585D01*
X115855Y38577D01*
X115902Y38561D01*
X115957Y38545D01*
X116019Y38530D01*
X116160Y38491D01*
X116316Y38444D01*
X116472Y38389D01*
X116613Y38342D01*
X116675Y38319D01*
X116730Y38296D01*
X116745Y38288D01*
X116777Y38272D01*
X116823Y38249D01*
X116878Y38217D01*
X116948Y38171D01*
X117019Y38108D01*
X117081Y38046D01*
X117144Y37968D01*
X117151Y37960D01*
X117167Y37929D01*
X117191Y37882D01*
X117222Y37819D01*
X117253Y37741D01*
X117277Y37647D01*
X117292Y37546D01*
X117300Y37429D01*
Y37413D01*
Y37374D01*
X117292Y37312D01*
X117277Y37241D01*
X117253Y37148D01*
X117222Y37046D01*
X117175Y36944D01*
X117113Y36835D01*
X117105Y36819D01*
X117081Y36788D01*
X117034Y36741D01*
X116972Y36679D01*
X116902Y36609D01*
X116808Y36538D01*
X116699Y36468D01*
X116574Y36406D01*
X116558Y36398D01*
X116511Y36382D01*
X116441Y36359D01*
X116347Y36335D01*
X116230Y36304D01*
X116097Y36281D01*
X115949Y36265D01*
X115793Y36257D01*
X115722D01*
X115675Y36265D01*
X115613D01*
X115543Y36273D01*
X115379Y36296D01*
X115199Y36327D01*
X115019Y36382D01*
X114840Y36452D01*
X114762Y36499D01*
X114683Y36554D01*
X114676D01*
X114668Y36569D01*
X114621Y36609D01*
X114559Y36679D01*
X114480Y36780D01*
X114402Y36905D01*
X114324Y37062D01*
X114254Y37241D01*
X114207Y37452D01*
X114832Y37554D01*
Y37546D01*
Y37538D01*
X114840Y37491D01*
X114863Y37421D01*
X114887Y37335D01*
X114926Y37241D01*
X114972Y37148D01*
X115043Y37054D01*
X115121Y36968D01*
X115129Y36960D01*
X115168Y36937D01*
X115222Y36905D01*
X115293Y36874D01*
X115394Y36835D01*
X115504Y36804D01*
X115644Y36780D01*
X115793Y36773D01*
X115863D01*
X115941Y36780D01*
X116035Y36796D01*
X116144Y36812D01*
X116253Y36843D01*
X116355Y36890D01*
X116441Y36944D01*
X116449Y36952D01*
X116472Y36976D01*
X116511Y37015D01*
X116550Y37062D01*
X116581Y37124D01*
X116620Y37202D01*
X116644Y37280D01*
X116652Y37366D01*
Y37374D01*
Y37405D01*
X116644Y37436D01*
X116628Y37491D01*
X116605Y37538D01*
X116574Y37600D01*
X116527Y37655D01*
X116464Y37702D01*
X116456Y37710D01*
X116433Y37718D01*
X116394Y37733D01*
X116332Y37764D01*
X116246Y37788D01*
X116136Y37827D01*
X116066Y37850D01*
X115996Y37866D01*
X115910Y37889D01*
X115816Y37913D01*
X115808D01*
X115785Y37921D01*
X115753Y37929D01*
X115707Y37944D01*
X115644Y37960D01*
X115582Y37975D01*
X115433Y38022D01*
X115277Y38069D01*
X115113Y38116D01*
X114965Y38171D01*
X114902Y38194D01*
X114848Y38217D01*
X114840Y38225D01*
X114801Y38241D01*
X114754Y38272D01*
X114699Y38311D01*
X114629Y38358D01*
X114566Y38421D01*
X114496Y38491D01*
X114441Y38569D01*
X114434Y38577D01*
X114418Y38608D01*
X114402Y38655D01*
X114379Y38717D01*
X114348Y38788D01*
X114332Y38873D01*
X114316Y38967D01*
X114309Y39069D01*
Y39077D01*
Y39108D01*
X114316Y39162D01*
X114324Y39217D01*
X114332Y39287D01*
X114356Y39366D01*
X114379Y39451D01*
X114418Y39529D01*
X114426Y39537D01*
X114441Y39569D01*
X114465Y39608D01*
X114504Y39654D01*
X114543Y39709D01*
X114598Y39764D01*
X114660Y39826D01*
X114730Y39881D01*
X114738Y39889D01*
X114762Y39897D01*
X114793Y39920D01*
X114840Y39943D01*
X114894Y39975D01*
X114965Y40006D01*
X115043Y40037D01*
X115129Y40068D01*
X115144D01*
X115176Y40084D01*
X115222Y40092D01*
X115293Y40108D01*
X115379Y40123D01*
X115465Y40131D01*
X115566Y40146D01*
X115746D01*
X115832Y40139D01*
D02*
G37*
G36*
X99329D02*
X99384D01*
X99438Y40131D01*
X99579Y40108D01*
X99735Y40068D01*
X99907Y40014D01*
X100071Y39936D01*
X100219Y39834D01*
X100227D01*
X100235Y39819D01*
X100282Y39779D01*
X100344Y39709D01*
X100423Y39615D01*
X100508Y39491D01*
X100586Y39342D01*
X100657Y39162D01*
X100712Y38967D01*
X100102Y38873D01*
Y38881D01*
X100094Y38889D01*
X100087Y38936D01*
X100063Y38998D01*
X100032Y39084D01*
X99985Y39178D01*
X99931Y39272D01*
X99868Y39358D01*
X99790Y39436D01*
X99782Y39444D01*
X99751Y39467D01*
X99704Y39498D01*
X99642Y39537D01*
X99563Y39569D01*
X99477Y39600D01*
X99368Y39623D01*
X99259Y39631D01*
X99212D01*
X99181Y39623D01*
X99095Y39615D01*
X98985Y39592D01*
X98861Y39545D01*
X98735Y39483D01*
X98603Y39405D01*
X98540Y39350D01*
X98486Y39287D01*
X98470Y39272D01*
X98462Y39248D01*
X98439Y39225D01*
X98415Y39186D01*
X98392Y39139D01*
X98369Y39084D01*
X98345Y39022D01*
X98314Y38952D01*
X98290Y38873D01*
X98267Y38780D01*
X98243Y38686D01*
X98220Y38577D01*
X98212Y38460D01*
X98197Y38335D01*
Y38202D01*
Y38194D01*
Y38171D01*
Y38131D01*
X98204Y38077D01*
Y38014D01*
X98212Y37944D01*
X98236Y37788D01*
X98267Y37608D01*
X98314Y37421D01*
X98384Y37257D01*
X98431Y37179D01*
X98478Y37108D01*
X98493Y37093D01*
X98532Y37054D01*
X98595Y36999D01*
X98681Y36944D01*
X98782Y36882D01*
X98915Y36827D01*
X99056Y36788D01*
X99134Y36780D01*
X99220Y36773D01*
X99282D01*
X99353Y36788D01*
X99438Y36804D01*
X99532Y36827D01*
X99642Y36866D01*
X99743Y36921D01*
X99837Y36999D01*
X99845Y37007D01*
X99876Y37046D01*
X99923Y37093D01*
X99970Y37171D01*
X100024Y37272D01*
X100079Y37390D01*
X100126Y37538D01*
X100157Y37702D01*
X100774Y37616D01*
Y37608D01*
X100766Y37585D01*
X100758Y37554D01*
X100751Y37514D01*
X100735Y37460D01*
X100719Y37397D01*
X100672Y37249D01*
X100602Y37093D01*
X100508Y36921D01*
X100391Y36765D01*
X100251Y36616D01*
X100243D01*
X100235Y36601D01*
X100212Y36585D01*
X100180Y36562D01*
X100134Y36531D01*
X100087Y36499D01*
X99970Y36437D01*
X99821Y36374D01*
X99642Y36312D01*
X99446Y36273D01*
X99337Y36265D01*
X99228Y36257D01*
X99157D01*
X99103Y36265D01*
X99040Y36273D01*
X98962Y36281D01*
X98884Y36296D01*
X98790Y36320D01*
X98595Y36374D01*
X98493Y36421D01*
X98392Y36468D01*
X98290Y36523D01*
X98197Y36585D01*
X98103Y36663D01*
X98009Y36749D01*
X98001Y36757D01*
X97986Y36773D01*
X97970Y36804D01*
X97939Y36843D01*
X97900Y36898D01*
X97861Y36960D01*
X97822Y37030D01*
X97783Y37116D01*
X97736Y37210D01*
X97697Y37319D01*
X97658Y37436D01*
X97619Y37569D01*
X97588Y37702D01*
X97572Y37858D01*
X97556Y38014D01*
X97548Y38186D01*
Y38194D01*
Y38210D01*
Y38249D01*
Y38288D01*
X97556Y38342D01*
Y38397D01*
X97572Y38545D01*
X97595Y38710D01*
X97634Y38881D01*
X97681Y39069D01*
X97744Y39241D01*
Y39248D01*
X97751Y39264D01*
X97767Y39287D01*
X97783Y39319D01*
X97830Y39397D01*
X97892Y39498D01*
X97978Y39608D01*
X98080Y39717D01*
X98204Y39826D01*
X98345Y39920D01*
X98353D01*
X98361Y39928D01*
X98384Y39943D01*
X98415Y39959D01*
X98501Y39990D01*
X98611Y40037D01*
X98735Y40076D01*
X98892Y40115D01*
X99056Y40139D01*
X99228Y40146D01*
X99290D01*
X99329Y40139D01*
D02*
G37*
G36*
X81702Y36343D02*
X81054D01*
X80468Y38561D01*
X80320Y39202D01*
X79562Y36343D01*
X78890D01*
X77773Y40061D01*
X78437D01*
X79023Y37913D01*
X79234Y37116D01*
Y37124D01*
X79242Y37140D01*
X79250Y37171D01*
X79257Y37194D01*
X79265Y37233D01*
X79273Y37272D01*
X79289Y37327D01*
X79304Y37390D01*
X79320Y37460D01*
X79343Y37546D01*
X79367Y37647D01*
X79398Y37757D01*
X79429Y37882D01*
X80023Y40061D01*
X80663D01*
X81226Y37897D01*
X81405Y37187D01*
X81616Y37905D01*
X82264Y40061D01*
X82873D01*
X81702Y36343D01*
D02*
G37*
G36*
X76532D02*
X75884D01*
X75298Y38561D01*
X75149Y39202D01*
X74392Y36343D01*
X73720D01*
X72603Y40061D01*
X73267D01*
X73853Y37913D01*
X74064Y37116D01*
Y37124D01*
X74072Y37140D01*
X74079Y37171D01*
X74087Y37194D01*
X74095Y37233D01*
X74103Y37272D01*
X74118Y37327D01*
X74134Y37390D01*
X74150Y37460D01*
X74173Y37546D01*
X74196Y37647D01*
X74228Y37757D01*
X74259Y37882D01*
X74853Y40061D01*
X75493D01*
X76055Y37897D01*
X76235Y37187D01*
X76446Y37905D01*
X77094Y40061D01*
X77703D01*
X76532Y36343D01*
D02*
G37*
G36*
X71362D02*
X70713D01*
X70127Y38561D01*
X69979Y39202D01*
X69222Y36343D01*
X68550D01*
X67433Y40061D01*
X68097D01*
X68683Y37913D01*
X68893Y37116D01*
Y37124D01*
X68901Y37140D01*
X68909Y37171D01*
X68917Y37194D01*
X68925Y37233D01*
X68933Y37272D01*
X68948Y37327D01*
X68964Y37390D01*
X68979Y37460D01*
X69003Y37546D01*
X69026Y37647D01*
X69058Y37757D01*
X69089Y37882D01*
X69682Y40061D01*
X70323D01*
X70885Y37897D01*
X71065Y37187D01*
X71276Y37905D01*
X71924Y40061D01*
X72533D01*
X71362Y36343D01*
D02*
G37*
G36*
X108529Y36281D02*
Y36273D01*
X108521Y36257D01*
X108506Y36226D01*
X108490Y36179D01*
X108475Y36132D01*
X108451Y36077D01*
X108404Y35945D01*
X108342Y35804D01*
X108287Y35671D01*
X108232Y35539D01*
X108201Y35484D01*
X108178Y35437D01*
X108170Y35421D01*
X108147Y35390D01*
X108115Y35335D01*
X108069Y35265D01*
X108006Y35195D01*
X107943Y35117D01*
X107865Y35047D01*
X107787Y34984D01*
X107780Y34976D01*
X107748Y34961D01*
X107701Y34937D01*
X107639Y34914D01*
X107569Y34883D01*
X107475Y34859D01*
X107381Y34844D01*
X107272Y34836D01*
X107241D01*
X107202Y34844D01*
X107155D01*
X107092Y34851D01*
X107022Y34867D01*
X106866Y34914D01*
X106796Y35500D01*
X106803D01*
X106827Y35492D01*
X106866Y35484D01*
X106920Y35468D01*
X107030Y35445D01*
X107155Y35437D01*
X107194D01*
X107225Y35445D01*
X107280D01*
X107389Y35468D01*
X107444Y35484D01*
X107491Y35507D01*
X107498D01*
X107514Y35523D01*
X107537Y35539D01*
X107561Y35562D01*
X107631Y35625D01*
X107701Y35710D01*
Y35718D01*
X107709Y35734D01*
X107725Y35757D01*
X107748Y35804D01*
X107772Y35867D01*
X107803Y35945D01*
X107842Y36054D01*
X107889Y36179D01*
X107897Y36187D01*
X107905Y36218D01*
X107928Y36265D01*
X107951Y36335D01*
X106538Y40061D01*
X107209D01*
X107983Y37921D01*
Y37913D01*
X107990Y37905D01*
X107998Y37882D01*
X108006Y37850D01*
X108037Y37764D01*
X108076Y37655D01*
X108115Y37530D01*
X108162Y37382D01*
X108209Y37226D01*
X108256Y37062D01*
Y37069D01*
X108264Y37077D01*
Y37101D01*
X108279Y37132D01*
X108295Y37218D01*
X108326Y37319D01*
X108365Y37444D01*
X108412Y37585D01*
X108459Y37733D01*
X108514Y37889D01*
X109310Y40061D01*
X109935D01*
X108529Y36281D01*
D02*
G37*
G36*
X122923Y36343D02*
X122205D01*
Y37062D01*
X122923D01*
Y36343D01*
D02*
G37*
G36*
X105921D02*
X105288D01*
Y41474D01*
X105921D01*
Y36343D01*
D02*
G37*
G36*
X103047Y40139D02*
X103156Y40131D01*
X103281Y40115D01*
X103414Y40100D01*
X103539Y40068D01*
X103656Y40029D01*
X103672Y40021D01*
X103703Y40014D01*
X103757Y39983D01*
X103820Y39951D01*
X103890Y39912D01*
X103968Y39865D01*
X104031Y39811D01*
X104093Y39748D01*
X104101Y39740D01*
X104117Y39717D01*
X104140Y39686D01*
X104171Y39631D01*
X104202Y39569D01*
X104234Y39498D01*
X104265Y39412D01*
X104288Y39319D01*
Y39311D01*
X104296Y39287D01*
X104304Y39248D01*
X104312Y39186D01*
Y39108D01*
X104320Y39006D01*
X104327Y38889D01*
Y38741D01*
Y37897D01*
Y37889D01*
Y37858D01*
Y37811D01*
Y37757D01*
Y37686D01*
Y37608D01*
X104335Y37429D01*
Y37233D01*
X104343Y37054D01*
X104351Y36968D01*
Y36898D01*
X104359Y36835D01*
X104367Y36780D01*
Y36773D01*
X104374Y36741D01*
X104382Y36694D01*
X104398Y36640D01*
X104421Y36577D01*
X104452Y36499D01*
X104523Y36343D01*
X103867D01*
X103859Y36351D01*
X103851Y36374D01*
X103835Y36421D01*
X103812Y36476D01*
X103789Y36546D01*
X103773Y36624D01*
X103757Y36710D01*
X103742Y36812D01*
X103726Y36796D01*
X103679Y36765D01*
X103617Y36710D01*
X103523Y36648D01*
X103421Y36569D01*
X103304Y36499D01*
X103187Y36437D01*
X103062Y36382D01*
X103047Y36374D01*
X103008Y36367D01*
X102945Y36343D01*
X102859Y36320D01*
X102750Y36296D01*
X102633Y36281D01*
X102508Y36265D01*
X102367Y36257D01*
X102313D01*
X102266Y36265D01*
X102219D01*
X102156Y36273D01*
X102023Y36296D01*
X101867Y36327D01*
X101719Y36382D01*
X101563Y36452D01*
X101430Y36554D01*
X101414Y36569D01*
X101375Y36609D01*
X101328Y36671D01*
X101266Y36765D01*
X101204Y36874D01*
X101157Y36999D01*
X101118Y37155D01*
X101102Y37319D01*
Y37335D01*
Y37366D01*
X101110Y37421D01*
X101118Y37483D01*
X101133Y37561D01*
X101149Y37647D01*
X101180Y37733D01*
X101219Y37819D01*
X101227Y37827D01*
X101242Y37858D01*
X101266Y37897D01*
X101305Y37952D01*
X101352Y38007D01*
X101414Y38069D01*
X101477Y38124D01*
X101547Y38178D01*
X101555Y38186D01*
X101586Y38202D01*
X101625Y38225D01*
X101680Y38256D01*
X101750Y38296D01*
X101821Y38327D01*
X101906Y38358D01*
X102000Y38389D01*
X102008D01*
X102039Y38397D01*
X102078Y38405D01*
X102141Y38421D01*
X102219Y38436D01*
X102320Y38452D01*
X102430Y38467D01*
X102562Y38483D01*
X102570D01*
X102594Y38491D01*
X102633D01*
X102687Y38499D01*
X102750Y38506D01*
X102820Y38514D01*
X102992Y38545D01*
X103172Y38577D01*
X103359Y38608D01*
X103539Y38655D01*
X103617Y38678D01*
X103687Y38702D01*
Y38710D01*
Y38725D01*
X103695Y38772D01*
Y38827D01*
Y38850D01*
Y38866D01*
Y38873D01*
Y38881D01*
Y38928D01*
X103687Y38998D01*
X103672Y39077D01*
X103648Y39162D01*
X103617Y39256D01*
X103578Y39334D01*
X103515Y39405D01*
X103507Y39412D01*
X103468Y39436D01*
X103414Y39475D01*
X103336Y39514D01*
X103234Y39553D01*
X103109Y39592D01*
X102961Y39615D01*
X102797Y39623D01*
X102726D01*
X102648Y39615D01*
X102547Y39608D01*
X102437Y39584D01*
X102336Y39561D01*
X102227Y39522D01*
X102141Y39467D01*
X102133Y39459D01*
X102110Y39436D01*
X102070Y39397D01*
X102023Y39342D01*
X101969Y39264D01*
X101922Y39170D01*
X101867Y39053D01*
X101828Y38920D01*
X101211Y39006D01*
Y39014D01*
X101219Y39022D01*
X101227Y39069D01*
X101250Y39139D01*
X101274Y39233D01*
X101313Y39334D01*
X101360Y39436D01*
X101414Y39545D01*
X101485Y39639D01*
X101493Y39647D01*
X101524Y39678D01*
X101563Y39725D01*
X101625Y39779D01*
X101703Y39834D01*
X101805Y39897D01*
X101914Y39959D01*
X102039Y40014D01*
X102047D01*
X102055Y40021D01*
X102078Y40029D01*
X102102Y40037D01*
X102180Y40053D01*
X102281Y40084D01*
X102406Y40108D01*
X102547Y40123D01*
X102711Y40139D01*
X102883Y40146D01*
X102961D01*
X103047Y40139D01*
D02*
G37*
G36*
X84295Y36343D02*
X83576D01*
Y37062D01*
X84295D01*
Y36343D01*
D02*
G37*
G36*
X125649Y40139D02*
X125719Y40131D01*
X125789Y40123D01*
X125875Y40108D01*
X125969Y40084D01*
X126164Y40021D01*
X126266Y39983D01*
X126375Y39936D01*
X126477Y39873D01*
X126578Y39803D01*
X126680Y39725D01*
X126773Y39639D01*
X126781Y39631D01*
X126797Y39615D01*
X126820Y39584D01*
X126851Y39545D01*
X126891Y39498D01*
X126930Y39436D01*
X126977Y39358D01*
X127023Y39280D01*
X127062Y39186D01*
X127109Y39077D01*
X127148Y38967D01*
X127187Y38842D01*
X127219Y38710D01*
X127242Y38561D01*
X127258Y38413D01*
X127266Y38249D01*
Y38241D01*
Y38217D01*
Y38178D01*
Y38131D01*
X127258Y38069D01*
Y37999D01*
X127250Y37921D01*
X127242Y37835D01*
X127211Y37655D01*
X127172Y37468D01*
X127117Y37280D01*
X127047Y37116D01*
Y37108D01*
X127039Y37101D01*
X127008Y37046D01*
X126953Y36976D01*
X126883Y36882D01*
X126797Y36780D01*
X126688Y36679D01*
X126563Y36577D01*
X126414Y36484D01*
X126406D01*
X126399Y36476D01*
X126375Y36460D01*
X126344Y36452D01*
X126258Y36413D01*
X126149Y36374D01*
X126016Y36327D01*
X125867Y36296D01*
X125704Y36265D01*
X125524Y36257D01*
X125446D01*
X125391Y36265D01*
X125329Y36273D01*
X125250Y36281D01*
X125165Y36296D01*
X125071Y36320D01*
X124876Y36382D01*
X124766Y36421D01*
X124665Y36468D01*
X124555Y36523D01*
X124454Y36593D01*
X124352Y36671D01*
X124259Y36757D01*
X124251Y36765D01*
X124235Y36780D01*
X124212Y36812D01*
X124188Y36851D01*
X124149Y36905D01*
X124110Y36968D01*
X124063Y37038D01*
X124024Y37124D01*
X123977Y37226D01*
X123931Y37327D01*
X123891Y37452D01*
X123860Y37577D01*
X123829Y37718D01*
X123806Y37866D01*
X123790Y38030D01*
X123782Y38202D01*
Y38217D01*
Y38249D01*
X123790Y38303D01*
Y38374D01*
X123798Y38460D01*
X123813Y38553D01*
X123829Y38663D01*
X123853Y38780D01*
X123884Y38905D01*
X123923Y39030D01*
X123970Y39155D01*
X124024Y39280D01*
X124087Y39405D01*
X124165Y39522D01*
X124251Y39631D01*
X124352Y39733D01*
X124360Y39740D01*
X124376Y39748D01*
X124399Y39772D01*
X124438Y39795D01*
X124485Y39826D01*
X124540Y39865D01*
X124602Y39904D01*
X124680Y39943D01*
X124758Y39975D01*
X124844Y40014D01*
X125047Y40084D01*
X125274Y40131D01*
X125399Y40139D01*
X125524Y40146D01*
X125594D01*
X125649Y40139D01*
D02*
G37*
G36*
X119674D02*
X119744Y40131D01*
X119815Y40123D01*
X119901Y40108D01*
X119994Y40084D01*
X120190Y40021D01*
X120291Y39983D01*
X120401Y39936D01*
X120502Y39873D01*
X120604Y39803D01*
X120705Y39725D01*
X120799Y39639D01*
X120807Y39631D01*
X120822Y39615D01*
X120846Y39584D01*
X120877Y39545D01*
X120916Y39498D01*
X120955Y39436D01*
X121002Y39358D01*
X121049Y39280D01*
X121088Y39186D01*
X121135Y39077D01*
X121174Y38967D01*
X121213Y38842D01*
X121244Y38710D01*
X121267Y38561D01*
X121283Y38413D01*
X121291Y38249D01*
Y38241D01*
Y38217D01*
Y38178D01*
Y38131D01*
X121283Y38069D01*
Y37999D01*
X121275Y37921D01*
X121267Y37835D01*
X121236Y37655D01*
X121197Y37468D01*
X121142Y37280D01*
X121072Y37116D01*
Y37108D01*
X121064Y37101D01*
X121033Y37046D01*
X120978Y36976D01*
X120908Y36882D01*
X120822Y36780D01*
X120713Y36679D01*
X120588Y36577D01*
X120440Y36484D01*
X120432D01*
X120424Y36476D01*
X120401Y36460D01*
X120369Y36452D01*
X120283Y36413D01*
X120174Y36374D01*
X120041Y36327D01*
X119893Y36296D01*
X119729Y36265D01*
X119549Y36257D01*
X119471D01*
X119416Y36265D01*
X119354Y36273D01*
X119276Y36281D01*
X119190Y36296D01*
X119096Y36320D01*
X118901Y36382D01*
X118792Y36421D01*
X118690Y36468D01*
X118581Y36523D01*
X118479Y36593D01*
X118378Y36671D01*
X118284Y36757D01*
X118276Y36765D01*
X118261Y36780D01*
X118237Y36812D01*
X118214Y36851D01*
X118175Y36905D01*
X118136Y36968D01*
X118089Y37038D01*
X118050Y37124D01*
X118003Y37226D01*
X117956Y37327D01*
X117917Y37452D01*
X117886Y37577D01*
X117854Y37718D01*
X117831Y37866D01*
X117815Y38030D01*
X117807Y38202D01*
Y38217D01*
Y38249D01*
X117815Y38303D01*
Y38374D01*
X117823Y38460D01*
X117839Y38553D01*
X117854Y38663D01*
X117878Y38780D01*
X117909Y38905D01*
X117948Y39030D01*
X117995Y39155D01*
X118050Y39280D01*
X118112Y39405D01*
X118190Y39522D01*
X118276Y39631D01*
X118378Y39733D01*
X118386Y39740D01*
X118401Y39748D01*
X118424Y39772D01*
X118464Y39795D01*
X118510Y39826D01*
X118565Y39865D01*
X118628Y39904D01*
X118706Y39943D01*
X118784Y39975D01*
X118870Y40014D01*
X119073Y40084D01*
X119299Y40131D01*
X119424Y40139D01*
X119549Y40146D01*
X119620D01*
X119674Y40139D01*
D02*
G37*
G36*
X95393D02*
X95455Y40131D01*
X95533Y40123D01*
X95612Y40108D01*
X95705Y40084D01*
X95893Y40021D01*
X95994Y39983D01*
X96096Y39928D01*
X96197Y39873D01*
X96299Y39803D01*
X96393Y39725D01*
X96486Y39631D01*
X96494Y39623D01*
X96510Y39608D01*
X96533Y39576D01*
X96564Y39537D01*
X96596Y39483D01*
X96635Y39420D01*
X96681Y39350D01*
X96728Y39264D01*
X96767Y39162D01*
X96814Y39061D01*
X96853Y38944D01*
X96892Y38811D01*
X96916Y38678D01*
X96939Y38530D01*
X96955Y38374D01*
X96963Y38202D01*
Y38194D01*
Y38163D01*
Y38108D01*
X96955Y38038D01*
X94190D01*
Y38030D01*
Y38014D01*
X94198Y37975D01*
Y37936D01*
X94206Y37882D01*
X94213Y37827D01*
X94245Y37686D01*
X94292Y37538D01*
X94346Y37382D01*
X94432Y37226D01*
X94534Y37093D01*
X94549Y37077D01*
X94588Y37046D01*
X94659Y36991D01*
X94745Y36937D01*
X94862Y36874D01*
X94994Y36819D01*
X95143Y36788D01*
X95307Y36773D01*
X95369D01*
X95432Y36780D01*
X95510Y36796D01*
X95604Y36819D01*
X95705Y36851D01*
X95807Y36890D01*
X95900Y36952D01*
X95908Y36960D01*
X95939Y36991D01*
X95986Y37030D01*
X96041Y37101D01*
X96104Y37179D01*
X96166Y37280D01*
X96228Y37405D01*
X96291Y37546D01*
X96939Y37460D01*
Y37452D01*
X96931Y37436D01*
X96924Y37405D01*
X96908Y37366D01*
X96892Y37319D01*
X96869Y37265D01*
X96807Y37132D01*
X96728Y36991D01*
X96635Y36843D01*
X96510Y36694D01*
X96369Y36569D01*
X96361D01*
X96354Y36554D01*
X96330Y36538D01*
X96291Y36523D01*
X96252Y36499D01*
X96205Y36468D01*
X96150Y36445D01*
X96080Y36413D01*
X95932Y36359D01*
X95744Y36304D01*
X95541Y36273D01*
X95307Y36257D01*
X95229D01*
X95174Y36265D01*
X95104Y36273D01*
X95026Y36281D01*
X94940Y36296D01*
X94838Y36320D01*
X94635Y36382D01*
X94526Y36421D01*
X94424Y36468D01*
X94315Y36523D01*
X94213Y36593D01*
X94112Y36671D01*
X94018Y36757D01*
X94011Y36765D01*
X93995Y36780D01*
X93971Y36812D01*
X93948Y36851D01*
X93909Y36898D01*
X93870Y36960D01*
X93823Y37038D01*
X93784Y37124D01*
X93737Y37218D01*
X93690Y37319D01*
X93651Y37436D01*
X93620Y37561D01*
X93589Y37694D01*
X93565Y37843D01*
X93550Y37999D01*
X93542Y38163D01*
Y38171D01*
Y38202D01*
Y38256D01*
X93550Y38319D01*
X93558Y38397D01*
X93565Y38491D01*
X93581Y38592D01*
X93604Y38702D01*
X93659Y38936D01*
X93698Y39053D01*
X93745Y39178D01*
X93800Y39295D01*
X93862Y39412D01*
X93932Y39522D01*
X94018Y39623D01*
X94026Y39631D01*
X94042Y39647D01*
X94065Y39670D01*
X94104Y39709D01*
X94151Y39748D01*
X94213Y39787D01*
X94276Y39834D01*
X94354Y39889D01*
X94440Y39936D01*
X94534Y39983D01*
X94635Y40021D01*
X94752Y40068D01*
X94870Y40100D01*
X94994Y40123D01*
X95127Y40139D01*
X95268Y40146D01*
X95338D01*
X95393Y40139D01*
D02*
G37*
G36*
X91410D02*
X91472Y40131D01*
X91550Y40123D01*
X91628Y40108D01*
X91722Y40084D01*
X91910Y40021D01*
X92011Y39983D01*
X92113Y39928D01*
X92214Y39873D01*
X92316Y39803D01*
X92409Y39725D01*
X92503Y39631D01*
X92511Y39623D01*
X92527Y39608D01*
X92550Y39576D01*
X92581Y39537D01*
X92612Y39483D01*
X92651Y39420D01*
X92698Y39350D01*
X92745Y39264D01*
X92784Y39162D01*
X92831Y39061D01*
X92870Y38944D01*
X92909Y38811D01*
X92933Y38678D01*
X92956Y38530D01*
X92972Y38374D01*
X92980Y38202D01*
Y38194D01*
Y38163D01*
Y38108D01*
X92972Y38038D01*
X90207D01*
Y38030D01*
Y38014D01*
X90215Y37975D01*
Y37936D01*
X90223Y37882D01*
X90230Y37827D01*
X90262Y37686D01*
X90308Y37538D01*
X90363Y37382D01*
X90449Y37226D01*
X90551Y37093D01*
X90566Y37077D01*
X90605Y37046D01*
X90676Y36991D01*
X90762Y36937D01*
X90879Y36874D01*
X91011Y36819D01*
X91160Y36788D01*
X91324Y36773D01*
X91386D01*
X91449Y36780D01*
X91527Y36796D01*
X91621Y36819D01*
X91722Y36851D01*
X91824Y36890D01*
X91917Y36952D01*
X91925Y36960D01*
X91956Y36991D01*
X92003Y37030D01*
X92058Y37101D01*
X92120Y37179D01*
X92183Y37280D01*
X92245Y37405D01*
X92308Y37546D01*
X92956Y37460D01*
Y37452D01*
X92948Y37436D01*
X92940Y37405D01*
X92925Y37366D01*
X92909Y37319D01*
X92886Y37265D01*
X92823Y37132D01*
X92745Y36991D01*
X92651Y36843D01*
X92527Y36694D01*
X92386Y36569D01*
X92378D01*
X92370Y36554D01*
X92347Y36538D01*
X92308Y36523D01*
X92269Y36499D01*
X92222Y36468D01*
X92167Y36445D01*
X92097Y36413D01*
X91949Y36359D01*
X91761Y36304D01*
X91558Y36273D01*
X91324Y36257D01*
X91246D01*
X91191Y36265D01*
X91121Y36273D01*
X91043Y36281D01*
X90957Y36296D01*
X90855Y36320D01*
X90652Y36382D01*
X90543Y36421D01*
X90441Y36468D01*
X90332Y36523D01*
X90230Y36593D01*
X90129Y36671D01*
X90035Y36757D01*
X90027Y36765D01*
X90012Y36780D01*
X89988Y36812D01*
X89965Y36851D01*
X89926Y36898D01*
X89887Y36960D01*
X89840Y37038D01*
X89801Y37124D01*
X89754Y37218D01*
X89707Y37319D01*
X89668Y37436D01*
X89637Y37561D01*
X89606Y37694D01*
X89582Y37843D01*
X89567Y37999D01*
X89559Y38163D01*
Y38171D01*
Y38202D01*
Y38256D01*
X89567Y38319D01*
X89574Y38397D01*
X89582Y38491D01*
X89598Y38592D01*
X89621Y38702D01*
X89676Y38936D01*
X89715Y39053D01*
X89762Y39178D01*
X89816Y39295D01*
X89879Y39412D01*
X89949Y39522D01*
X90035Y39623D01*
X90043Y39631D01*
X90059Y39647D01*
X90082Y39670D01*
X90121Y39709D01*
X90168Y39748D01*
X90230Y39787D01*
X90293Y39834D01*
X90371Y39889D01*
X90457Y39936D01*
X90551Y39983D01*
X90652Y40021D01*
X90769Y40068D01*
X90886Y40100D01*
X91011Y40123D01*
X91144Y40139D01*
X91285Y40146D01*
X91355D01*
X91410Y40139D01*
D02*
G37*
G36*
X131858D02*
X131912Y40131D01*
X131983Y40115D01*
X132131Y40076D01*
X132217Y40053D01*
X132303Y40014D01*
X132397Y39975D01*
X132490Y39920D01*
X132576Y39858D01*
X132670Y39787D01*
X132756Y39701D01*
X132834Y39608D01*
Y40061D01*
X133412D01*
Y36843D01*
Y36835D01*
Y36804D01*
Y36765D01*
Y36702D01*
X133404Y36632D01*
Y36554D01*
X133396Y36460D01*
X133388Y36367D01*
X133365Y36171D01*
X133334Y35968D01*
X133295Y35781D01*
X133264Y35695D01*
X133232Y35625D01*
Y35617D01*
X133224Y35609D01*
X133201Y35562D01*
X133154Y35500D01*
X133099Y35414D01*
X133021Y35320D01*
X132928Y35226D01*
X132811Y35133D01*
X132678Y35047D01*
X132670D01*
X132662Y35039D01*
X132639Y35031D01*
X132607Y35015D01*
X132529Y34976D01*
X132420Y34945D01*
X132280Y34906D01*
X132115Y34867D01*
X131936Y34844D01*
X131733Y34836D01*
X131670D01*
X131623Y34844D01*
X131569D01*
X131499Y34851D01*
X131350Y34875D01*
X131178Y34914D01*
X130999Y34961D01*
X130819Y35039D01*
X130655Y35140D01*
X130647D01*
X130639Y35156D01*
X130593Y35195D01*
X130530Y35265D01*
X130452Y35367D01*
X130382Y35492D01*
X130319Y35648D01*
X130280Y35828D01*
X130264Y35929D01*
Y36038D01*
X130874Y35952D01*
Y35937D01*
X130882Y35906D01*
X130897Y35859D01*
X130913Y35796D01*
X130944Y35726D01*
X130983Y35656D01*
X131030Y35593D01*
X131092Y35539D01*
X131100Y35531D01*
X131139Y35507D01*
X131186Y35484D01*
X131264Y35453D01*
X131350Y35414D01*
X131459Y35390D01*
X131592Y35367D01*
X131733Y35359D01*
X131803D01*
X131881Y35367D01*
X131983Y35382D01*
X132092Y35406D01*
X132201Y35437D01*
X132311Y35476D01*
X132404Y35539D01*
X132412Y35546D01*
X132443Y35570D01*
X132483Y35609D01*
X132537Y35664D01*
X132592Y35734D01*
X132639Y35812D01*
X132686Y35914D01*
X132725Y36023D01*
Y36031D01*
X132732Y36062D01*
X132740Y36116D01*
X132748Y36195D01*
X132764Y36304D01*
Y36374D01*
X132772Y36445D01*
Y36531D01*
Y36616D01*
Y36718D01*
Y36827D01*
X132764Y36819D01*
X132756Y36804D01*
X132732Y36780D01*
X132701Y36749D01*
X132654Y36718D01*
X132607Y36671D01*
X132490Y36585D01*
X132342Y36499D01*
X132162Y36421D01*
X132069Y36390D01*
X131967Y36367D01*
X131858Y36351D01*
X131748Y36343D01*
X131678D01*
X131623Y36351D01*
X131561Y36359D01*
X131483Y36374D01*
X131405Y36390D01*
X131311Y36413D01*
X131217Y36437D01*
X131124Y36476D01*
X131022Y36523D01*
X130928Y36577D01*
X130827Y36640D01*
X130733Y36710D01*
X130647Y36796D01*
X130561Y36890D01*
X130553Y36898D01*
X130546Y36913D01*
X130522Y36944D01*
X130499Y36991D01*
X130468Y37046D01*
X130429Y37108D01*
X130389Y37179D01*
X130350Y37265D01*
X130311Y37358D01*
X130272Y37460D01*
X130241Y37569D01*
X130202Y37686D01*
X130155Y37936D01*
X130147Y38077D01*
X130140Y38217D01*
Y38225D01*
Y38241D01*
Y38272D01*
Y38311D01*
X130147Y38358D01*
Y38413D01*
X130163Y38538D01*
X130186Y38694D01*
X130218Y38858D01*
X130264Y39030D01*
X130327Y39202D01*
Y39209D01*
X130335Y39225D01*
X130350Y39248D01*
X130366Y39280D01*
X130405Y39358D01*
X130468Y39459D01*
X130553Y39569D01*
X130647Y39686D01*
X130756Y39795D01*
X130889Y39897D01*
X130897D01*
X130905Y39904D01*
X130928Y39920D01*
X130952Y39936D01*
X131030Y39975D01*
X131131Y40021D01*
X131264Y40068D01*
X131405Y40108D01*
X131569Y40139D01*
X131748Y40146D01*
X131811D01*
X131858Y40139D01*
D02*
G37*
%LPC*%
G36*
X94034Y47405D02*
X93925D01*
X93893Y47397D01*
X93823Y47382D01*
X93721Y47358D01*
X93612Y47311D01*
X93495Y47241D01*
X93432Y47202D01*
X93370Y47147D01*
X93308Y47093D01*
X93253Y47022D01*
Y47015D01*
X93237Y47007D01*
X93222Y46983D01*
X93206Y46952D01*
X93183Y46913D01*
X93159Y46866D01*
X93128Y46812D01*
X93104Y46749D01*
X93073Y46671D01*
X93042Y46593D01*
X93019Y46499D01*
X92995Y46405D01*
X92980Y46296D01*
X92964Y46179D01*
X92948Y46062D01*
Y45929D01*
Y45921D01*
Y45898D01*
Y45859D01*
X92956Y45812D01*
Y45749D01*
X92964Y45687D01*
X92987Y45531D01*
X93019Y45351D01*
X93066Y45179D01*
X93136Y45015D01*
X93183Y44937D01*
X93230Y44867D01*
X93245Y44851D01*
X93284Y44812D01*
X93347Y44758D01*
X93425Y44695D01*
X93526Y44633D01*
X93651Y44578D01*
X93784Y44539D01*
X93854Y44531D01*
X93932Y44523D01*
X93971D01*
X94003Y44531D01*
X94081Y44539D01*
X94174Y44570D01*
X94292Y44609D01*
X94409Y44672D01*
X94526Y44758D01*
X94588Y44812D01*
X94643Y44875D01*
Y44883D01*
X94659Y44890D01*
X94674Y44914D01*
X94690Y44945D01*
X94713Y44984D01*
X94737Y45031D01*
X94768Y45085D01*
X94799Y45148D01*
X94823Y45218D01*
X94854Y45304D01*
X94877Y45390D01*
X94901Y45492D01*
X94916Y45601D01*
X94932Y45718D01*
X94948Y45843D01*
Y45976D01*
Y45984D01*
Y46007D01*
Y46046D01*
X94940Y46093D01*
Y46156D01*
X94932Y46226D01*
X94909Y46382D01*
X94877Y46554D01*
X94823Y46733D01*
X94752Y46898D01*
X94706Y46976D01*
X94651Y47046D01*
Y47054D01*
X94635Y47061D01*
X94596Y47100D01*
X94542Y47163D01*
X94456Y47225D01*
X94354Y47288D01*
X94237Y47350D01*
X94104Y47390D01*
X94034Y47405D01*
D02*
G37*
G36*
X136114Y48623D02*
X134904D01*
Y47061D01*
X136161D01*
X136255Y47069D01*
X136364Y47077D01*
X136474Y47085D01*
X136567Y47100D01*
X136653Y47116D01*
X136661Y47124D01*
X136692Y47132D01*
X136739Y47147D01*
X136802Y47179D01*
X136864Y47210D01*
X136926Y47257D01*
X136989Y47311D01*
X137044Y47374D01*
X137051Y47382D01*
X137067Y47405D01*
X137083Y47444D01*
X137114Y47499D01*
X137137Y47561D01*
X137153Y47639D01*
X137169Y47725D01*
X137176Y47827D01*
Y47835D01*
Y47874D01*
X137169Y47921D01*
X137161Y47983D01*
X137145Y48053D01*
X137122Y48124D01*
X137090Y48202D01*
X137051Y48280D01*
X137044Y48288D01*
X137028Y48311D01*
X136997Y48342D01*
X136958Y48389D01*
X136911Y48428D01*
X136848Y48475D01*
X136778Y48514D01*
X136700Y48545D01*
X136692D01*
X136653Y48561D01*
X136598Y48569D01*
X136520Y48584D01*
X136411Y48600D01*
X136278Y48608D01*
X136114Y48623D01*
D02*
G37*
G36*
X136255Y46460D02*
X134904D01*
Y44695D01*
X136356D01*
X136512Y44703D01*
X136583Y44711D01*
X136637Y44719D01*
X136645D01*
X136677Y44726D01*
X136723Y44734D01*
X136778Y44750D01*
X136903Y44789D01*
X137028Y44851D01*
X137036Y44859D01*
X137059Y44867D01*
X137083Y44890D01*
X137122Y44929D01*
X137169Y44968D01*
X137208Y45015D01*
X137254Y45078D01*
X137294Y45140D01*
X137301Y45148D01*
X137309Y45171D01*
X137325Y45210D01*
X137348Y45265D01*
X137364Y45328D01*
X137379Y45406D01*
X137387Y45484D01*
X137395Y45578D01*
Y45593D01*
Y45624D01*
X137387Y45679D01*
X137379Y45742D01*
X137356Y45820D01*
X137332Y45906D01*
X137294Y45992D01*
X137239Y46070D01*
X137231Y46077D01*
X137215Y46109D01*
X137176Y46140D01*
X137129Y46187D01*
X137075Y46241D01*
X137004Y46288D01*
X136926Y46335D01*
X136833Y46374D01*
X136817Y46382D01*
X136786Y46390D01*
X136723Y46405D01*
X136645Y46421D01*
X136536Y46437D01*
X136411Y46444D01*
X136255Y46460D01*
D02*
G37*
G36*
X117292Y48623D02*
X116222D01*
Y44695D01*
X117394D01*
X117480Y44703D01*
X117597Y44711D01*
X117722Y44719D01*
X117854Y44734D01*
X117979Y44758D01*
X118096Y44789D01*
X118112Y44797D01*
X118143Y44804D01*
X118198Y44828D01*
X118261Y44859D01*
X118339Y44898D01*
X118417Y44937D01*
X118487Y44992D01*
X118557Y45054D01*
X118565Y45062D01*
X118596Y45101D01*
X118643Y45156D01*
X118698Y45226D01*
X118753Y45320D01*
X118815Y45429D01*
X118877Y45562D01*
X118932Y45702D01*
Y45710D01*
X118940Y45718D01*
X118948Y45742D01*
X118956Y45773D01*
X118963Y45812D01*
X118979Y45859D01*
X119002Y45976D01*
X119026Y46124D01*
X119049Y46296D01*
X119065Y46483D01*
X119073Y46694D01*
Y46702D01*
Y46733D01*
Y46773D01*
Y46827D01*
X119065Y46898D01*
X119057Y46976D01*
X119049Y47061D01*
X119042Y47147D01*
X119010Y47350D01*
X118963Y47554D01*
X118893Y47749D01*
X118854Y47842D01*
X118807Y47928D01*
Y47936D01*
X118792Y47944D01*
X118784Y47967D01*
X118760Y47999D01*
X118706Y48077D01*
X118628Y48163D01*
X118534Y48264D01*
X118424Y48358D01*
X118300Y48444D01*
X118167Y48514D01*
X118151Y48522D01*
X118112Y48530D01*
X118050Y48545D01*
X117956Y48569D01*
X117831Y48592D01*
X117683Y48608D01*
X117503Y48616D01*
X117292Y48623D01*
D02*
G37*
G36*
X85584Y45960D02*
X85568Y45952D01*
X85544Y45945D01*
X85521Y45937D01*
X85482Y45921D01*
X85435Y45913D01*
X85388Y45898D01*
X85326Y45874D01*
X85255Y45859D01*
X85177Y45843D01*
X85099Y45820D01*
X85006Y45796D01*
X84904Y45781D01*
X84795Y45757D01*
X84677Y45742D01*
X84553Y45718D01*
X84537D01*
X84490Y45710D01*
X84420Y45695D01*
X84334Y45679D01*
X84154Y45640D01*
X84068Y45617D01*
X83998Y45593D01*
X83990D01*
X83975Y45578D01*
X83943Y45562D01*
X83912Y45538D01*
X83834Y45476D01*
X83756Y45382D01*
Y45375D01*
X83740Y45359D01*
X83732Y45336D01*
X83717Y45296D01*
X83686Y45203D01*
X83678Y45148D01*
X83670Y45085D01*
Y45078D01*
Y45046D01*
X83678Y45000D01*
X83693Y44937D01*
X83717Y44875D01*
X83748Y44804D01*
X83795Y44734D01*
X83858Y44664D01*
X83865Y44656D01*
X83896Y44640D01*
X83936Y44609D01*
X83998Y44586D01*
X84076Y44554D01*
X84178Y44523D01*
X84287Y44508D01*
X84420Y44500D01*
X84482D01*
X84545Y44508D01*
X84639Y44523D01*
X84732Y44539D01*
X84842Y44562D01*
X84951Y44601D01*
X85060Y44656D01*
X85076Y44664D01*
X85107Y44687D01*
X85162Y44719D01*
X85224Y44773D01*
X85287Y44828D01*
X85357Y44906D01*
X85427Y44992D01*
X85482Y45093D01*
X85490Y45101D01*
X85498Y45132D01*
X85513Y45179D01*
X85537Y45250D01*
X85552Y45343D01*
X85568Y45453D01*
X85576Y45578D01*
X85584Y45726D01*
Y45960D01*
D02*
G37*
G36*
X101532Y47374D02*
X101399D01*
X101367Y47366D01*
X101282Y47358D01*
X101172Y47327D01*
X101047Y47288D01*
X100915Y47225D01*
X100782Y47132D01*
X100719Y47077D01*
X100657Y47015D01*
X100641Y46999D01*
X100626Y46976D01*
X100610Y46952D01*
X100586Y46913D01*
X100563Y46866D01*
X100532Y46812D01*
X100508Y46749D01*
X100477Y46679D01*
X100446Y46601D01*
X100423Y46515D01*
X100399Y46413D01*
X100383Y46312D01*
X100368Y46195D01*
X100352Y46077D01*
Y45945D01*
Y45937D01*
Y45913D01*
Y45874D01*
X100360Y45827D01*
Y45773D01*
X100368Y45702D01*
X100391Y45546D01*
X100430Y45375D01*
X100477Y45195D01*
X100555Y45023D01*
X100602Y44945D01*
X100657Y44875D01*
X100672Y44859D01*
X100712Y44820D01*
X100782Y44765D01*
X100875Y44703D01*
X100985Y44633D01*
X101125Y44578D01*
X101274Y44539D01*
X101360Y44531D01*
X101446Y44523D01*
X101493D01*
X101524Y44531D01*
X101610Y44539D01*
X101719Y44570D01*
X101844Y44609D01*
X101977Y44672D01*
X102102Y44758D01*
X102164Y44812D01*
X102227Y44875D01*
Y44883D01*
X102242Y44890D01*
X102258Y44914D01*
X102273Y44945D01*
X102297Y44984D01*
X102328Y45031D01*
X102352Y45085D01*
X102383Y45148D01*
X102414Y45218D01*
X102437Y45296D01*
X102469Y45390D01*
X102492Y45492D01*
X102508Y45593D01*
X102523Y45710D01*
X102539Y45835D01*
Y45968D01*
Y45976D01*
Y45999D01*
Y46031D01*
X102531Y46085D01*
Y46140D01*
X102523Y46202D01*
X102500Y46359D01*
X102461Y46523D01*
X102406Y46702D01*
X102328Y46866D01*
X102219Y47015D01*
Y47022D01*
X102203Y47030D01*
X102164Y47069D01*
X102094Y47132D01*
X102008Y47194D01*
X101891Y47257D01*
X101758Y47319D01*
X101610Y47358D01*
X101532Y47374D01*
D02*
G37*
G36*
X75587Y47382D02*
X75548D01*
X75516Y47374D01*
X75431Y47366D01*
X75329Y47343D01*
X75212Y47311D01*
X75095Y47257D01*
X74970Y47186D01*
X74853Y47085D01*
X74837Y47069D01*
X74806Y47030D01*
X74759Y46968D01*
X74704Y46874D01*
X74650Y46765D01*
X74595Y46632D01*
X74556Y46476D01*
X74532Y46304D01*
X76610D01*
Y46312D01*
Y46327D01*
X76602Y46351D01*
Y46382D01*
X76586Y46468D01*
X76563Y46569D01*
X76532Y46679D01*
X76485Y46796D01*
X76438Y46913D01*
X76368Y47007D01*
Y47015D01*
X76352Y47022D01*
X76313Y47069D01*
X76243Y47124D01*
X76157Y47194D01*
X76040Y47265D01*
X75907Y47327D01*
X75758Y47366D01*
X75673Y47374D01*
X75587Y47382D01*
D02*
G37*
G36*
X71604D02*
X71565D01*
X71533Y47374D01*
X71447Y47366D01*
X71346Y47343D01*
X71229Y47311D01*
X71112Y47257D01*
X70987Y47186D01*
X70869Y47085D01*
X70854Y47069D01*
X70823Y47030D01*
X70776Y46968D01*
X70721Y46874D01*
X70666Y46765D01*
X70612Y46632D01*
X70573Y46476D01*
X70549Y46304D01*
X72627D01*
Y46312D01*
Y46327D01*
X72619Y46351D01*
Y46382D01*
X72603Y46468D01*
X72580Y46569D01*
X72549Y46679D01*
X72502Y46796D01*
X72455Y46913D01*
X72385Y47007D01*
Y47015D01*
X72369Y47022D01*
X72330Y47069D01*
X72260Y47124D01*
X72174Y47194D01*
X72057Y47265D01*
X71924Y47327D01*
X71775Y47366D01*
X71689Y47374D01*
X71604Y47382D01*
D02*
G37*
G36*
X112137Y39654D02*
X112028D01*
X111997Y39647D01*
X111927Y39631D01*
X111825Y39608D01*
X111716Y39561D01*
X111599Y39491D01*
X111536Y39451D01*
X111474Y39397D01*
X111411Y39342D01*
X111356Y39272D01*
Y39264D01*
X111341Y39256D01*
X111325Y39233D01*
X111310Y39202D01*
X111286Y39162D01*
X111263Y39116D01*
X111232Y39061D01*
X111208Y38998D01*
X111177Y38920D01*
X111146Y38842D01*
X111122Y38748D01*
X111099Y38655D01*
X111083Y38545D01*
X111067Y38428D01*
X111052Y38311D01*
Y38178D01*
Y38171D01*
Y38147D01*
Y38108D01*
X111060Y38061D01*
Y37999D01*
X111067Y37936D01*
X111091Y37780D01*
X111122Y37600D01*
X111169Y37429D01*
X111239Y37265D01*
X111286Y37187D01*
X111333Y37116D01*
X111349Y37101D01*
X111388Y37062D01*
X111450Y37007D01*
X111528Y36944D01*
X111630Y36882D01*
X111755Y36827D01*
X111888Y36788D01*
X111958Y36780D01*
X112036Y36773D01*
X112075D01*
X112106Y36780D01*
X112184Y36788D01*
X112278Y36819D01*
X112395Y36858D01*
X112512Y36921D01*
X112629Y37007D01*
X112692Y37062D01*
X112747Y37124D01*
Y37132D01*
X112762Y37140D01*
X112778Y37163D01*
X112794Y37194D01*
X112817Y37233D01*
X112840Y37280D01*
X112872Y37335D01*
X112903Y37397D01*
X112926Y37468D01*
X112958Y37554D01*
X112981Y37639D01*
X113004Y37741D01*
X113020Y37850D01*
X113036Y37968D01*
X113051Y38092D01*
Y38225D01*
Y38233D01*
Y38256D01*
Y38296D01*
X113043Y38342D01*
Y38405D01*
X113036Y38475D01*
X113012Y38631D01*
X112981Y38803D01*
X112926Y38983D01*
X112856Y39147D01*
X112809Y39225D01*
X112754Y39295D01*
Y39303D01*
X112739Y39311D01*
X112700Y39350D01*
X112645Y39412D01*
X112559Y39475D01*
X112458Y39537D01*
X112341Y39600D01*
X112208Y39639D01*
X112137Y39654D01*
D02*
G37*
G36*
X103687Y38210D02*
X103672Y38202D01*
X103648Y38194D01*
X103625Y38186D01*
X103586Y38171D01*
X103539Y38163D01*
X103492Y38147D01*
X103429Y38124D01*
X103359Y38108D01*
X103281Y38092D01*
X103203Y38069D01*
X103109Y38046D01*
X103008Y38030D01*
X102898Y38007D01*
X102781Y37991D01*
X102656Y37968D01*
X102640D01*
X102594Y37960D01*
X102523Y37944D01*
X102437Y37929D01*
X102258Y37889D01*
X102172Y37866D01*
X102102Y37843D01*
X102094D01*
X102078Y37827D01*
X102047Y37811D01*
X102016Y37788D01*
X101938Y37725D01*
X101859Y37632D01*
Y37624D01*
X101844Y37608D01*
X101836Y37585D01*
X101821Y37546D01*
X101789Y37452D01*
X101781Y37397D01*
X101774Y37335D01*
Y37327D01*
Y37296D01*
X101781Y37249D01*
X101797Y37187D01*
X101821Y37124D01*
X101852Y37054D01*
X101899Y36983D01*
X101961Y36913D01*
X101969Y36905D01*
X102000Y36890D01*
X102039Y36858D01*
X102102Y36835D01*
X102180Y36804D01*
X102281Y36773D01*
X102391Y36757D01*
X102523Y36749D01*
X102586D01*
X102648Y36757D01*
X102742Y36773D01*
X102836Y36788D01*
X102945Y36812D01*
X103054Y36851D01*
X103164Y36905D01*
X103179Y36913D01*
X103211Y36937D01*
X103265Y36968D01*
X103328Y37023D01*
X103390Y37077D01*
X103461Y37155D01*
X103531Y37241D01*
X103586Y37343D01*
X103593Y37350D01*
X103601Y37382D01*
X103617Y37429D01*
X103640Y37499D01*
X103656Y37593D01*
X103672Y37702D01*
X103679Y37827D01*
X103687Y37975D01*
Y38210D01*
D02*
G37*
G36*
X125610Y39623D02*
X125477D01*
X125446Y39615D01*
X125360Y39608D01*
X125250Y39576D01*
X125126Y39537D01*
X124993Y39475D01*
X124860Y39381D01*
X124797Y39326D01*
X124735Y39264D01*
X124719Y39248D01*
X124704Y39225D01*
X124688Y39202D01*
X124665Y39162D01*
X124641Y39116D01*
X124610Y39061D01*
X124587Y38998D01*
X124555Y38928D01*
X124524Y38850D01*
X124501Y38764D01*
X124477Y38663D01*
X124462Y38561D01*
X124446Y38444D01*
X124430Y38327D01*
Y38194D01*
Y38186D01*
Y38163D01*
Y38124D01*
X124438Y38077D01*
Y38022D01*
X124446Y37952D01*
X124469Y37796D01*
X124509Y37624D01*
X124555Y37444D01*
X124634Y37272D01*
X124680Y37194D01*
X124735Y37124D01*
X124751Y37108D01*
X124790Y37069D01*
X124860Y37015D01*
X124954Y36952D01*
X125063Y36882D01*
X125204Y36827D01*
X125352Y36788D01*
X125438Y36780D01*
X125524Y36773D01*
X125571D01*
X125602Y36780D01*
X125688Y36788D01*
X125797Y36819D01*
X125922Y36858D01*
X126055Y36921D01*
X126180Y37007D01*
X126242Y37062D01*
X126305Y37124D01*
Y37132D01*
X126321Y37140D01*
X126336Y37163D01*
X126352Y37194D01*
X126375Y37233D01*
X126406Y37280D01*
X126430Y37335D01*
X126461Y37397D01*
X126492Y37468D01*
X126516Y37546D01*
X126547Y37639D01*
X126570Y37741D01*
X126586Y37843D01*
X126602Y37960D01*
X126617Y38085D01*
Y38217D01*
Y38225D01*
Y38249D01*
Y38280D01*
X126609Y38335D01*
Y38389D01*
X126602Y38452D01*
X126578Y38608D01*
X126539Y38772D01*
X126485Y38952D01*
X126406Y39116D01*
X126297Y39264D01*
Y39272D01*
X126281Y39280D01*
X126242Y39319D01*
X126172Y39381D01*
X126086Y39444D01*
X125969Y39506D01*
X125836Y39569D01*
X125688Y39608D01*
X125610Y39623D01*
D02*
G37*
G36*
X119635D02*
X119502D01*
X119471Y39615D01*
X119385Y39608D01*
X119276Y39576D01*
X119151Y39537D01*
X119018Y39475D01*
X118885Y39381D01*
X118823Y39326D01*
X118760Y39264D01*
X118745Y39248D01*
X118729Y39225D01*
X118713Y39202D01*
X118690Y39162D01*
X118667Y39116D01*
X118635Y39061D01*
X118612Y38998D01*
X118581Y38928D01*
X118550Y38850D01*
X118526Y38764D01*
X118503Y38663D01*
X118487Y38561D01*
X118471Y38444D01*
X118456Y38327D01*
Y38194D01*
Y38186D01*
Y38163D01*
Y38124D01*
X118464Y38077D01*
Y38022D01*
X118471Y37952D01*
X118495Y37796D01*
X118534Y37624D01*
X118581Y37444D01*
X118659Y37272D01*
X118706Y37194D01*
X118760Y37124D01*
X118776Y37108D01*
X118815Y37069D01*
X118885Y37015D01*
X118979Y36952D01*
X119088Y36882D01*
X119229Y36827D01*
X119377Y36788D01*
X119463Y36780D01*
X119549Y36773D01*
X119596D01*
X119627Y36780D01*
X119713Y36788D01*
X119823Y36819D01*
X119948Y36858D01*
X120080Y36921D01*
X120205Y37007D01*
X120268Y37062D01*
X120330Y37124D01*
Y37132D01*
X120346Y37140D01*
X120361Y37163D01*
X120377Y37194D01*
X120401Y37233D01*
X120432Y37280D01*
X120455Y37335D01*
X120486Y37397D01*
X120518Y37468D01*
X120541Y37546D01*
X120572Y37639D01*
X120596Y37741D01*
X120611Y37843D01*
X120627Y37960D01*
X120643Y38085D01*
Y38217D01*
Y38225D01*
Y38249D01*
Y38280D01*
X120635Y38335D01*
Y38389D01*
X120627Y38452D01*
X120604Y38608D01*
X120564Y38772D01*
X120510Y38952D01*
X120432Y39116D01*
X120322Y39264D01*
Y39272D01*
X120307Y39280D01*
X120268Y39319D01*
X120197Y39381D01*
X120112Y39444D01*
X119994Y39506D01*
X119862Y39569D01*
X119713Y39608D01*
X119635Y39623D01*
D02*
G37*
G36*
X95276Y39631D02*
X95237D01*
X95205Y39623D01*
X95120Y39615D01*
X95018Y39592D01*
X94901Y39561D01*
X94784Y39506D01*
X94659Y39436D01*
X94542Y39334D01*
X94526Y39319D01*
X94495Y39280D01*
X94448Y39217D01*
X94393Y39123D01*
X94339Y39014D01*
X94284Y38881D01*
X94245Y38725D01*
X94221Y38553D01*
X96299D01*
Y38561D01*
Y38577D01*
X96291Y38600D01*
Y38631D01*
X96275Y38717D01*
X96252Y38819D01*
X96221Y38928D01*
X96174Y39045D01*
X96127Y39162D01*
X96057Y39256D01*
Y39264D01*
X96041Y39272D01*
X96002Y39319D01*
X95932Y39373D01*
X95846Y39444D01*
X95729Y39514D01*
X95596Y39576D01*
X95447Y39615D01*
X95362Y39623D01*
X95276Y39631D01*
D02*
G37*
G36*
X91293D02*
X91254D01*
X91222Y39623D01*
X91136Y39615D01*
X91035Y39592D01*
X90918Y39561D01*
X90801Y39506D01*
X90676Y39436D01*
X90558Y39334D01*
X90543Y39319D01*
X90512Y39280D01*
X90465Y39217D01*
X90410Y39123D01*
X90355Y39014D01*
X90301Y38881D01*
X90262Y38725D01*
X90238Y38553D01*
X92316D01*
Y38561D01*
Y38577D01*
X92308Y38600D01*
Y38631D01*
X92292Y38717D01*
X92269Y38819D01*
X92238Y38928D01*
X92191Y39045D01*
X92144Y39162D01*
X92074Y39256D01*
Y39264D01*
X92058Y39272D01*
X92019Y39319D01*
X91949Y39373D01*
X91863Y39444D01*
X91746Y39514D01*
X91613Y39576D01*
X91464Y39615D01*
X91378Y39623D01*
X91293Y39631D01*
D02*
G37*
G36*
X131873Y39623D02*
X131756D01*
X131725Y39615D01*
X131647Y39608D01*
X131545Y39584D01*
X131436Y39537D01*
X131311Y39475D01*
X131194Y39397D01*
X131131Y39342D01*
X131077Y39280D01*
X131061Y39264D01*
X131053Y39241D01*
X131030Y39217D01*
X131006Y39178D01*
X130983Y39139D01*
X130960Y39084D01*
X130936Y39022D01*
X130905Y38959D01*
X130882Y38881D01*
X130858Y38795D01*
X130835Y38710D01*
X130803Y38499D01*
X130788Y38264D01*
Y38256D01*
Y38233D01*
Y38194D01*
X130796Y38147D01*
Y38085D01*
X130803Y38014D01*
X130827Y37858D01*
X130858Y37686D01*
X130913Y37507D01*
X130983Y37343D01*
X131030Y37272D01*
X131077Y37202D01*
X131092Y37187D01*
X131131Y37148D01*
X131194Y37093D01*
X131280Y37038D01*
X131381Y36976D01*
X131506Y36921D01*
X131647Y36882D01*
X131725Y36874D01*
X131803Y36866D01*
X131842D01*
X131873Y36874D01*
X131959Y36882D01*
X132061Y36905D01*
X132170Y36944D01*
X132295Y37007D01*
X132412Y37085D01*
X132529Y37194D01*
Y37202D01*
X132545Y37210D01*
X132561Y37233D01*
X132576Y37257D01*
X132600Y37296D01*
X132623Y37335D01*
X132647Y37390D01*
X132678Y37452D01*
X132709Y37522D01*
X132732Y37600D01*
X132756Y37686D01*
X132779Y37780D01*
X132803Y37882D01*
X132811Y37991D01*
X132826Y38116D01*
Y38241D01*
Y38249D01*
Y38272D01*
Y38303D01*
X132818Y38350D01*
Y38413D01*
X132811Y38475D01*
X132787Y38631D01*
X132756Y38795D01*
X132701Y38967D01*
X132623Y39131D01*
X132576Y39202D01*
X132522Y39272D01*
Y39280D01*
X132506Y39287D01*
X132467Y39326D01*
X132404Y39381D01*
X132318Y39451D01*
X132217Y39514D01*
X132092Y39569D01*
X131951Y39608D01*
X131873Y39623D01*
D02*
G37*
%LPD*%
G54D10*
X127138Y100886D02*
X126948Y101267D01*
X126567Y101648D01*
X126186Y101838D01*
X125425D01*
X125044Y101648D01*
X124663Y101267D01*
X124472Y100886D01*
X124282Y100315D01*
Y99362D01*
X124472Y98791D01*
X124663Y98410D01*
X125044Y98029D01*
X125425Y97839D01*
X126186D01*
X126567Y98029D01*
X126948Y98410D01*
X127138Y98791D01*
X128262Y101838D02*
Y97839D01*
X130547D01*
X130985Y101838D02*
Y97839D01*
X133651Y101838D02*
X130985Y99172D01*
X131937Y100124D02*
X133651Y97839D01*
X134927Y101838D02*
X137022D01*
X135879Y100315D01*
X136451D01*
X136832Y100124D01*
X137022Y99934D01*
X137213Y99362D01*
Y98982D01*
X137022Y98410D01*
X136641Y98029D01*
X136070Y97839D01*
X135499D01*
X134927Y98029D01*
X134737Y98220D01*
X134546Y98601D01*
X138298Y100886D02*
Y101076D01*
X138488Y101457D01*
X138679Y101648D01*
X139060Y101838D01*
X139821D01*
X140202Y101648D01*
X140393Y101457D01*
X140583Y101076D01*
Y100696D01*
X140393Y100315D01*
X140012Y99743D01*
X138108Y97839D01*
X140774D01*
X141669Y101838D02*
Y97839D01*
X144335Y101838D02*
X141669Y99172D01*
X142621Y100124D02*
X144335Y97839D01*
X145230Y96506D02*
X148277D01*
X149934Y101838D02*
X149553Y101648D01*
X149172Y101267D01*
X148981Y100886D01*
X148791Y100315D01*
Y99362D01*
X148981Y98791D01*
X149172Y98410D01*
X149553Y98029D01*
X149934Y97839D01*
X150695D01*
X151076Y98029D01*
X151457Y98410D01*
X151647Y98791D01*
X151838Y99362D01*
Y100315D01*
X151647Y100886D01*
X151457Y101267D01*
X151076Y101648D01*
X150695Y101838D01*
X149934D01*
X152771D02*
Y98982D01*
X152962Y98410D01*
X153342Y98029D01*
X153914Y97839D01*
X154295D01*
X154866Y98029D01*
X155247Y98410D01*
X155437Y98982D01*
Y101838D01*
X157875D02*
Y97839D01*
X156542Y101838D02*
X159208D01*
X129782Y92738D02*
Y88739D01*
Y92738D02*
X132448Y88739D01*
Y92738D02*
Y88739D01*
X133553Y92738D02*
Y88739D01*
Y92738D02*
X135266D01*
X135838Y92548D01*
X136028Y92357D01*
X136219Y91976D01*
Y91596D01*
X136028Y91215D01*
X135838Y91024D01*
X135266Y90834D01*
X133553D01*
X134886D02*
X136219Y88739D01*
X139589Y92738D02*
X137114D01*
Y88739D01*
X139589D01*
X137114Y90834D02*
X138637D01*
X142922Y92167D02*
X142541Y92548D01*
X141970Y92738D01*
X141208D01*
X140637Y92548D01*
X140256Y92167D01*
Y91786D01*
X140446Y91405D01*
X140637Y91215D01*
X141018Y91024D01*
X142160Y90643D01*
X142541Y90453D01*
X142731Y90263D01*
X142922Y89882D01*
Y89310D01*
X142541Y88929D01*
X141970Y88739D01*
X141208D01*
X140637Y88929D01*
X140256Y89310D01*
X143817Y90643D02*
X145531D01*
X146102Y90834D01*
X146293Y91024D01*
X146483Y91405D01*
Y91976D01*
X146293Y92357D01*
X146102Y92548D01*
X145531Y92738D01*
X143817D01*
Y88739D01*
X147378Y92738D02*
X148330Y88739D01*
X149283Y92738D02*
X148330Y88739D01*
X149283Y92738D02*
X150235Y88739D01*
X151187Y92738D02*
X150235Y88739D01*
X153129Y92738D02*
X152748Y92548D01*
X152367Y92167D01*
X152177Y91786D01*
X151987Y91215D01*
Y90263D01*
X152177Y89691D01*
X152367Y89310D01*
X152748Y88929D01*
X153129Y88739D01*
X153891D01*
X154272Y88929D01*
X154653Y89310D01*
X154843Y89691D01*
X155034Y90263D01*
Y91215D01*
X154843Y91786D01*
X154653Y92167D01*
X154272Y92548D01*
X153891Y92738D01*
X153129D01*
X155967D02*
Y88739D01*
Y92738D02*
X158633Y88739D01*
Y92738D02*
Y88739D01*
G54D16*
X354329Y0D02*
Y196851D01*
X0Y0D02*
X354329D01*
X0Y196851D02*
X354329D01*
X0Y0D02*
Y196851D01*
G54D36*
X165382Y100739D02*
G03*
X165382Y100739I-2500J0D01*
G01*
Y91140D02*
G03*
X165382Y91140I-2500J0D01*
G01*
M02*
