G04 Layer_Color=128*
%FSLAX25Y25*%
%MOIN*%
G70*
G01*
G75*
%ADD16C,0.00787*%
%ADD152C,0.00200*%
G54D16*
X354329Y0D02*
Y196851D01*
X0Y0D02*
X354329D01*
X0Y196851D02*
X354329D01*
X0Y0D02*
Y196851D01*
G54D152*
X302171Y22138D02*
X302571D01*
X302371Y21937D02*
Y22337D01*
X195804Y109439D02*
X196204D01*
X196004Y109239D02*
Y109639D01*
X195705Y107740D02*
X196105D01*
X195905Y107540D02*
Y107940D01*
X299782Y95737D02*
X300182D01*
X299982Y95538D02*
Y95938D01*
X281832Y121554D02*
X282232D01*
X282032Y121353D02*
Y121754D01*
X264921Y77338D02*
X265321D01*
X265121Y77138D02*
Y77538D01*
X262753Y85468D02*
X263153D01*
X262953Y85268D02*
Y85668D01*
X243855Y94917D02*
X244255D01*
X244055Y94717D02*
Y95117D01*
X243805Y88668D02*
X244205D01*
X244005Y88468D02*
Y88868D01*
X242874Y83893D02*
X243274D01*
X243074Y83693D02*
Y84093D01*
X242874Y80588D02*
X243274D01*
X243074Y80388D02*
Y80788D01*
X244559Y112461D02*
X244959D01*
X244759Y112261D02*
Y112661D01*
X244559Y115361D02*
X244959D01*
X244759Y115161D02*
Y115561D01*
X205771Y86638D02*
X206171D01*
X205971Y86437D02*
Y86838D01*
X207803Y82418D02*
X208203D01*
X208003Y82218D02*
Y82618D01*
X172871Y95737D02*
X173271D01*
X173071Y95538D02*
Y95938D01*
X195271Y98338D02*
X195671D01*
X195471Y98137D02*
Y98537D01*
X206159Y105638D02*
X206559D01*
X206359Y105438D02*
Y105838D01*
X242971Y124437D02*
X243371D01*
X243171Y124238D02*
Y124637D01*
X245771Y98637D02*
X246171D01*
X245971Y98438D02*
Y98838D01*
X235771Y56638D02*
X236171D01*
X235971Y56437D02*
Y56837D01*
X223071Y48138D02*
X223471D01*
X223271Y47938D02*
Y48338D01*
X249771Y46237D02*
X250171D01*
X249971Y46038D02*
Y46437D01*
X221871Y32438D02*
X222271D01*
X222071Y32237D02*
Y32638D01*
X202554Y37067D02*
X202954D01*
X202754Y36867D02*
Y37266D01*
X252197Y25317D02*
X252597D01*
X252397Y25117D02*
Y25517D01*
X280659Y84737D02*
X281059D01*
X280859Y84538D02*
Y84938D01*
X279471Y85938D02*
X279871D01*
X279671Y85738D02*
Y86137D01*
X279571Y54537D02*
X279971D01*
X279771Y54338D02*
Y54738D01*
X234671Y20838D02*
X235071D01*
X234871Y20638D02*
Y21037D01*
X284359Y115237D02*
X284759D01*
X284559Y115038D02*
Y115437D01*
X258359Y101637D02*
X258759D01*
X258559Y101437D02*
Y101838D01*
X289759Y116437D02*
X290159D01*
X289959Y116237D02*
Y116638D01*
X267759Y115237D02*
X268159D01*
X267959Y115038D02*
Y115437D01*
X282159Y107837D02*
X282559D01*
X282359Y107638D02*
Y108037D01*
X257959Y96637D02*
X258359D01*
X258159Y96438D02*
Y96838D01*
X291559Y107638D02*
X291959D01*
X291759Y107438D02*
Y107837D01*
X265359Y93437D02*
X265759D01*
X265559Y93238D02*
Y93638D01*
X262159Y92838D02*
X262559D01*
X262359Y92637D02*
Y93037D01*
X292871Y103638D02*
X293271D01*
X293071Y103437D02*
Y103838D01*
X295759Y116037D02*
X296159D01*
X295959Y115838D02*
Y116237D01*
X258359Y99837D02*
X258759D01*
X258559Y99638D02*
Y100038D01*
X294359Y121037D02*
X294759D01*
X294559Y120837D02*
Y121238D01*
X267359Y87238D02*
X267759D01*
X267559Y87037D02*
Y87437D01*
X292759Y109637D02*
X293159D01*
X292959Y109438D02*
Y109837D01*
X292759Y100238D02*
X293159D01*
X292959Y100038D02*
Y100437D01*
X260159Y99837D02*
X260559D01*
X260359Y99638D02*
Y100038D01*
X291959Y121637D02*
X292359D01*
X292159Y121438D02*
Y121837D01*
X295979Y119341D02*
X296379D01*
X296180Y119141D02*
Y119541D01*
X289559Y119237D02*
X289959D01*
X289759Y119037D02*
Y119438D01*
X261959Y96637D02*
X262359D01*
X262159Y96438D02*
Y96838D01*
X286759Y106638D02*
X287159D01*
X286959Y106438D02*
Y106837D01*
X250359Y52237D02*
X250759D01*
X250559Y52038D02*
Y52438D01*
X318971Y80137D02*
X319371D01*
X319171Y79937D02*
Y80338D01*
X218471Y99638D02*
X218871D01*
X218671Y99437D02*
Y99837D01*
X242159Y90438D02*
X242559D01*
X242359Y90237D02*
Y90637D01*
X239359Y87037D02*
X239759D01*
X239559Y86838D02*
Y87238D01*
X218471Y97838D02*
X218871D01*
X218671Y97637D02*
Y98037D01*
X201171Y74238D02*
X201571D01*
X201371Y74037D02*
Y74437D01*
X191171Y47837D02*
X191571D01*
X191371Y47638D02*
Y48037D01*
X235759Y102838D02*
X236159D01*
X235959Y102638D02*
Y103038D01*
X305159Y119237D02*
X305559D01*
X305359Y119037D02*
Y119438D01*
X256959Y104838D02*
X257359D01*
X257159Y104638D02*
Y105037D01*
X262159Y111238D02*
X262559D01*
X262359Y111038D02*
Y111437D01*
X308571Y101437D02*
X308971D01*
X308771Y101237D02*
Y101637D01*
X259671Y113838D02*
X260071D01*
X259871Y113637D02*
Y114038D01*
X265359Y117638D02*
X265759D01*
X265559Y117438D02*
Y117838D01*
X301159Y103638D02*
X301559D01*
X301359Y103437D02*
Y103838D01*
X308559Y116437D02*
X308959D01*
X308759Y116237D02*
Y116638D01*
X295559Y113637D02*
X295959D01*
X295759Y113437D02*
Y113838D01*
X256671Y110637D02*
X257071D01*
X256871Y110438D02*
Y110837D01*
X254559Y105438D02*
X254959D01*
X254759Y105237D02*
Y105638D01*
X299129Y106742D02*
X299529D01*
X299329Y106542D02*
Y106942D01*
X307271Y99937D02*
X307671D01*
X307471Y99738D02*
Y100137D01*
X302279Y116191D02*
X302679D01*
X302479Y115991D02*
Y116391D01*
X262359Y102437D02*
X262759D01*
X262559Y102237D02*
Y102638D01*
X189671Y32638D02*
X190071D01*
X189871Y32438D02*
Y32838D01*
X201559Y16438D02*
X201959D01*
X201759Y16238D02*
Y16637D01*
X227359Y75238D02*
X227759D01*
X227559Y75037D02*
Y75437D01*
X232959Y75238D02*
X233359D01*
X233159Y75037D02*
Y75437D01*
X222959Y76837D02*
X223359D01*
X223159Y76638D02*
Y77038D01*
X168759Y48638D02*
X169159D01*
X168959Y48438D02*
Y48838D01*
X240559Y75238D02*
X240959D01*
X240759Y75037D02*
Y75437D01*
X236759Y75238D02*
X237159D01*
X236959Y75037D02*
Y75437D01*
X243359Y77038D02*
X243759D01*
X243559Y76837D02*
Y77237D01*
X281959Y92238D02*
X282359D01*
X282159Y92037D02*
Y92437D01*
X280559Y92238D02*
X280959D01*
X280759Y92037D02*
Y92437D01*
X283359Y94138D02*
X283759D01*
X283559Y93937D02*
Y94337D01*
X281959Y94138D02*
X282359D01*
X282159Y93937D02*
Y94337D01*
X280559Y94138D02*
X280959D01*
X280759Y93937D02*
Y94337D01*
X277159Y92738D02*
X277559D01*
X277359Y92537D02*
Y92937D01*
X275159Y92738D02*
X275559D01*
X275359Y92537D02*
Y92937D01*
X275159Y91537D02*
X275559D01*
X275359Y91338D02*
Y91738D01*
X277159Y91537D02*
X277559D01*
X277359Y91338D02*
Y91738D01*
X275159Y90338D02*
X275559D01*
X275359Y90137D02*
Y90538D01*
X275159Y87937D02*
X275559D01*
X275359Y87738D02*
Y88138D01*
X277159Y87937D02*
X277559D01*
X277359Y87738D02*
Y88138D01*
X277159Y86738D02*
X277559D01*
X277359Y86537D02*
Y86937D01*
X275159Y86738D02*
X275559D01*
X275359Y86537D02*
Y86937D01*
X202759Y50238D02*
X203159D01*
X202959Y50037D02*
Y50437D01*
X204759Y50037D02*
X205159D01*
X204959Y49837D02*
Y50238D01*
X202759Y51638D02*
X203159D01*
X202959Y51437D02*
Y51837D01*
X204759D02*
X205159D01*
X204959Y51638D02*
Y52038D01*
X202759Y53438D02*
X203159D01*
X202959Y53237D02*
Y53637D01*
X204759Y53438D02*
X205159D01*
X204959Y53237D02*
Y53637D01*
X202759Y54637D02*
X203159D01*
X202959Y54438D02*
Y54838D01*
X202759Y55838D02*
X203159D01*
X202959Y55638D02*
Y56037D01*
X204759Y55838D02*
X205159D01*
X204959Y55638D02*
Y56037D01*
X202559Y62037D02*
X202959D01*
X202759Y61838D02*
Y62238D01*
X204759Y63837D02*
X205159D01*
X204959Y63638D02*
Y64038D01*
X204759Y65038D02*
X205159D01*
X204959Y64837D02*
Y65237D01*
X206559Y70638D02*
X206959D01*
X206759Y70438D02*
Y70837D01*
X207759Y70638D02*
X208159D01*
X207959Y70438D02*
Y70837D01*
X208959Y70638D02*
X209359D01*
X209159Y70438D02*
Y70837D01*
X210159Y70638D02*
X210559D01*
X210359Y70438D02*
Y70837D01*
X221759D02*
X222159D01*
X221959Y70638D02*
Y71038D01*
X222959Y70837D02*
X223359D01*
X223159Y70638D02*
Y71038D01*
X224159Y70837D02*
X224559D01*
X224359Y70638D02*
Y71038D01*
X225359Y70837D02*
X225759D01*
X225559Y70638D02*
Y71038D01*
X230159Y70638D02*
X230559D01*
X230359Y70438D02*
Y70837D01*
X231359Y70638D02*
X231759D01*
X231559Y70438D02*
Y70837D01*
X232559Y70638D02*
X232959D01*
X232759Y70438D02*
Y70837D01*
X233759Y70638D02*
X234159D01*
X233959Y70438D02*
Y70837D01*
X236159Y70638D02*
X236559D01*
X236359Y70438D02*
Y70837D01*
X237359Y70638D02*
X237759D01*
X237559Y70438D02*
Y70837D01*
X242559Y70638D02*
X242959D01*
X242759Y70438D02*
Y70837D01*
X244359Y70638D02*
X244759D01*
X244559Y70438D02*
Y70837D01*
X247759Y70638D02*
X248159D01*
X247959Y70438D02*
Y70837D01*
X249159Y70638D02*
X249559D01*
X249359Y70438D02*
Y70837D01*
X255559Y70638D02*
X255959D01*
X255759Y70438D02*
Y70837D01*
Y68837D02*
X256159D01*
X255959Y68638D02*
Y69037D01*
X257559Y70638D02*
X257959D01*
X257759Y70438D02*
Y70837D01*
X259959Y68837D02*
X260359D01*
X260159Y68638D02*
Y69037D01*
X261159Y68837D02*
X261559D01*
X261359Y68638D02*
Y69037D01*
X257559Y68837D02*
X257959D01*
X257759Y68638D02*
Y69037D01*
X258759Y68837D02*
X259159D01*
X258959Y68638D02*
Y69037D01*
X270559Y68437D02*
X270959D01*
X270759Y68238D02*
Y68638D01*
X273759Y68837D02*
X274159D01*
X273959Y68638D02*
Y69037D01*
X273759Y70638D02*
X274159D01*
X273959Y70438D02*
Y70837D01*
X275159Y67437D02*
X275559D01*
X275359Y67238D02*
Y67637D01*
X277159Y67437D02*
X277559D01*
X277359Y67238D02*
Y67637D01*
X277159Y69837D02*
X277559D01*
X277359Y69638D02*
Y70038D01*
X275159Y72237D02*
X275559D01*
X275359Y72038D02*
Y72438D01*
X243359Y75238D02*
X243759D01*
X243559Y75037D02*
Y75437D01*
X222359Y130438D02*
X222759D01*
X222559Y130237D02*
Y130638D01*
X296759Y94037D02*
X297159D01*
X296959Y93837D02*
Y94238D01*
X323559Y108037D02*
X323959D01*
X323759Y107837D02*
Y108238D01*
X206159Y128638D02*
X206559D01*
X206359Y128437D02*
Y128838D01*
X206159Y130438D02*
X206559D01*
X206359Y130237D02*
Y130638D01*
X219559Y128638D02*
X219959D01*
X219759Y128437D02*
Y128838D01*
X307159Y63038D02*
X307559D01*
X307359Y62837D02*
Y63238D01*
X236559Y130438D02*
X236959D01*
X236759Y130237D02*
Y130638D01*
X194759Y122037D02*
X195159D01*
X194959Y121837D02*
Y122238D01*
X291959Y94037D02*
X292359D01*
X292159Y93837D02*
Y94238D01*
X222359Y128638D02*
X222759D01*
X222559Y128437D02*
Y128838D01*
X234159Y128638D02*
X234559D01*
X234359Y128437D02*
Y128838D01*
X255559Y128638D02*
X255959D01*
X255759Y128437D02*
Y128838D01*
X232159Y130438D02*
X232559D01*
X232359Y130237D02*
Y130638D01*
X229959Y128638D02*
X230359D01*
X230159Y128437D02*
Y128838D01*
X224559Y130438D02*
X224959D01*
X224759Y130237D02*
Y130638D01*
X224559Y128638D02*
X224959D01*
X224759Y128437D02*
Y128838D01*
X229959Y130438D02*
X230359D01*
X230159Y130237D02*
Y130638D01*
X284359Y125838D02*
X284759D01*
X284559Y125637D02*
Y126038D01*
X297359Y117838D02*
X297759D01*
X297559Y117638D02*
Y118037D01*
X287759Y121037D02*
X288159D01*
X287959Y120837D02*
Y121238D01*
X300159Y108637D02*
X300559D01*
X300359Y108438D02*
Y108837D01*
X309959Y111637D02*
X310359D01*
X310159Y111437D02*
Y111837D01*
X311559Y107638D02*
X311959D01*
X311759Y107438D02*
Y107837D01*
X283559Y106638D02*
X283959D01*
X283759Y106438D02*
Y106837D01*
X253359Y103638D02*
X253759D01*
X253559Y103437D02*
Y103838D01*
X206159Y114437D02*
X206559D01*
X206359Y114237D02*
Y114637D01*
X219559Y115038D02*
X219959D01*
X219759Y114838D02*
Y115237D01*
X205759Y110438D02*
X206159D01*
X205959Y110238D02*
Y110637D01*
X275159Y74638D02*
X275559D01*
X275359Y74437D02*
Y74837D01*
X275159Y73438D02*
X275559D01*
X275359Y73238D02*
Y73637D01*
X207559Y119237D02*
X207959D01*
X207759Y119037D02*
Y119438D01*
X217359Y103038D02*
X217759D01*
X217559Y102838D02*
Y103237D01*
X201959Y119237D02*
X202359D01*
X202159Y119037D02*
Y119438D01*
X194959Y114637D02*
X195359D01*
X195159Y114437D02*
Y114838D01*
X180559Y120638D02*
X180959D01*
X180759Y120438D02*
Y120837D01*
X185559Y120638D02*
X185959D01*
X185759Y120438D02*
Y120837D01*
X181159Y126437D02*
X181559D01*
X181359Y126237D02*
Y126637D01*
X195159Y119237D02*
X195559D01*
X195359Y119037D02*
Y119438D01*
X175559Y117438D02*
X175959D01*
X175759Y117237D02*
Y117638D01*
X171759Y127038D02*
X172159D01*
X171959Y126838D02*
Y127237D01*
Y122637D02*
X172359D01*
X172159Y122438D02*
Y122837D01*
X307159Y33037D02*
X307559D01*
X307359Y32838D02*
Y33237D01*
X307159Y29838D02*
X307559D01*
X307359Y29638D02*
Y30038D01*
X309559Y29838D02*
X309959D01*
X309759Y29638D02*
Y30038D01*
X309559Y23438D02*
X309959D01*
X309759Y23237D02*
Y23638D01*
X307159Y23438D02*
X307559D01*
X307359Y23237D02*
Y23638D01*
X307159Y20237D02*
X307559D01*
X307359Y20038D02*
Y20437D01*
X307159Y17038D02*
X307559D01*
X307359Y16838D02*
Y17237D01*
X180159Y28438D02*
X180559D01*
X180359Y28238D02*
Y28637D01*
X180159Y27237D02*
X180559D01*
X180359Y27038D02*
Y27437D01*
X180159Y26037D02*
X180559D01*
X180359Y25837D02*
Y26237D01*
X180159Y24837D02*
X180559D01*
X180359Y24637D02*
Y25038D01*
X180159Y23638D02*
X180559D01*
X180359Y23438D02*
Y23837D01*
X294359Y16438D02*
X294759D01*
X294559Y16238D02*
Y16637D01*
X294359Y14038D02*
X294759D01*
X294559Y13837D02*
Y14238D01*
X291159Y14038D02*
X291559D01*
X291359Y13837D02*
Y14238D01*
X284759Y14038D02*
X285159D01*
X284959Y13837D02*
Y14238D01*
X284759Y16438D02*
X285159D01*
X284959Y16238D02*
Y16637D01*
X278359Y14038D02*
X278759D01*
X278559Y13837D02*
Y14238D01*
X278359Y16438D02*
X278759D01*
X278559Y16238D02*
Y16637D01*
X268759Y14038D02*
X269159D01*
X268959Y13837D02*
Y14238D01*
X268759Y16438D02*
X269159D01*
X268959Y16238D02*
Y16637D01*
X252759Y14038D02*
X253159D01*
X252959Y13837D02*
Y14238D01*
X252759Y16438D02*
X253159D01*
X252959Y16238D02*
Y16637D01*
X246359Y14038D02*
X246759D01*
X246559Y13837D02*
Y14238D01*
X238359Y14038D02*
X238759D01*
X238559Y13837D02*
Y14238D01*
X238359Y15237D02*
X238759D01*
X238559Y15037D02*
Y15438D01*
X238359Y16438D02*
X238759D01*
X238559Y16238D02*
Y16637D01*
X235159Y14038D02*
X235559D01*
X235359Y13837D02*
Y14238D01*
X235159Y15237D02*
X235559D01*
X235359Y15037D02*
Y15438D01*
X235159Y16438D02*
X235559D01*
X235359Y16238D02*
Y16637D01*
X231959Y14038D02*
X232359D01*
X232159Y13837D02*
Y14238D01*
X231959Y15237D02*
X232359D01*
X232159Y15037D02*
Y15438D01*
X231959Y16438D02*
X232359D01*
X232159Y16238D02*
Y16637D01*
X228759Y14038D02*
X229159D01*
X228959Y13837D02*
Y14238D01*
X228759Y15237D02*
X229159D01*
X228959Y15037D02*
Y15438D01*
X228759Y16438D02*
X229159D01*
X228959Y16238D02*
Y16637D01*
X225559Y14038D02*
X225959D01*
X225759Y13837D02*
Y14238D01*
X225559Y15237D02*
X225959D01*
X225759Y15037D02*
Y15438D01*
X225559Y16438D02*
X225959D01*
X225759Y16238D02*
Y16637D01*
X222359Y14038D02*
X222759D01*
X222559Y13837D02*
Y14238D01*
X222359Y15237D02*
X222759D01*
X222559Y15037D02*
Y15438D01*
X222359Y16438D02*
X222759D01*
X222559Y16238D02*
Y16637D01*
X220759Y16438D02*
X221159D01*
X220959Y16238D02*
Y16637D01*
X219159Y16438D02*
X219559D01*
X219359Y16238D02*
Y16637D01*
X219159Y14038D02*
X219559D01*
X219359Y13837D02*
Y14238D01*
X219159Y15237D02*
X219559D01*
X219359Y15037D02*
Y15438D01*
X215959Y16438D02*
X216359D01*
X216159Y16238D02*
Y16637D01*
X215959Y14038D02*
X216359D01*
X216159Y13837D02*
Y14238D01*
X215959Y15237D02*
X216359D01*
X216159Y15037D02*
Y15438D01*
X212759Y16438D02*
X213159D01*
X212959Y16238D02*
Y16637D01*
X212759Y14038D02*
X213159D01*
X212959Y13837D02*
Y14238D01*
X212759Y15237D02*
X213159D01*
X212959Y15037D02*
Y15438D01*
X211159Y16438D02*
X211559D01*
X211359Y16238D02*
Y16637D01*
X209559Y16438D02*
X209959D01*
X209759Y16238D02*
Y16637D01*
X209559Y14038D02*
X209959D01*
X209759Y13837D02*
Y14238D01*
X209559Y15237D02*
X209959D01*
X209759Y15037D02*
Y15438D01*
X206359Y14038D02*
X206759D01*
X206559Y13837D02*
Y14238D01*
X203159Y14038D02*
X203559D01*
X203359Y13837D02*
Y14238D01*
X203159Y16438D02*
X203559D01*
X203359Y16238D02*
Y16637D01*
X203159Y15237D02*
X203559D01*
X203359Y15037D02*
Y15438D01*
X199959Y14038D02*
X200359D01*
X200159Y13837D02*
Y14238D01*
X198359Y16438D02*
X198759D01*
X198559Y16238D02*
Y16637D01*
X198359Y14038D02*
X198759D01*
X198559Y13837D02*
Y14238D01*
X196759Y14038D02*
X197159D01*
X196959Y13837D02*
Y14238D01*
X196759Y15237D02*
X197159D01*
X196959Y15037D02*
Y15438D01*
X193559Y16438D02*
X193959D01*
X193759Y16238D02*
Y16637D01*
X193559Y15237D02*
X193959D01*
X193759Y15037D02*
Y15438D01*
X191959Y16438D02*
X192359D01*
X192159Y16238D02*
Y16637D01*
X191959Y14038D02*
X192359D01*
X192159Y13837D02*
Y14238D01*
X190359Y14038D02*
X190759D01*
X190559Y13837D02*
Y14238D01*
X190359Y15237D02*
X190759D01*
X190559Y15037D02*
Y15438D01*
X188759Y14038D02*
X189159D01*
X188959Y13837D02*
Y14238D01*
X188759Y16438D02*
X189159D01*
X188959Y16238D02*
Y16637D01*
X187159Y16438D02*
X187559D01*
X187359Y16238D02*
Y16637D01*
X185559Y14038D02*
X185959D01*
X185759Y13837D02*
Y14238D01*
X185559Y16438D02*
X185959D01*
X185759Y16238D02*
Y16637D01*
X183959Y16438D02*
X184359D01*
X184159Y16238D02*
Y16637D01*
X183959Y15237D02*
X184359D01*
X184159Y15037D02*
Y15438D01*
X180159Y14838D02*
X180559D01*
X180359Y14638D02*
Y15037D01*
X180159Y16438D02*
X180559D01*
X180359Y16238D02*
Y16637D01*
X181359Y16438D02*
X181759D01*
X181559Y16238D02*
Y16637D01*
X180159Y18037D02*
X180559D01*
X180359Y17838D02*
Y18237D01*
X182559Y18037D02*
X182959D01*
X182759Y17838D02*
Y18237D01*
X180159Y19637D02*
X180559D01*
X180359Y19437D02*
Y19838D01*
X181359Y19637D02*
X181759D01*
X181559Y19437D02*
Y19838D01*
X180159Y21238D02*
X180559D01*
X180359Y21037D02*
Y21438D01*
X182559Y21238D02*
X182959D01*
X182759Y21037D02*
Y21438D01*
X182559Y24837D02*
X182959D01*
X182759Y24637D02*
Y25038D01*
X182559Y26037D02*
X182959D01*
X182759Y25837D02*
Y26237D01*
X182559Y27237D02*
X182959D01*
X182759Y27038D02*
Y27437D01*
X180159Y29838D02*
X180559D01*
X180359Y29638D02*
Y30038D01*
X180159Y31438D02*
X180559D01*
X180359Y31238D02*
Y31637D01*
X182559Y31438D02*
X182959D01*
X182759Y31238D02*
Y31637D01*
X180159Y32838D02*
X180559D01*
X180359Y32638D02*
Y33037D01*
X182559Y34238D02*
X182959D01*
X182759Y34038D02*
Y34438D01*
X180159Y34238D02*
X180559D01*
X180359Y34038D02*
Y34438D01*
X180159Y35838D02*
X180559D01*
X180359Y35638D02*
Y36037D01*
X180159Y37637D02*
X180559D01*
X180359Y37437D02*
Y37837D01*
X182559Y37637D02*
X182959D01*
X182759Y37437D02*
Y37837D01*
X180159Y39237D02*
X180559D01*
X180359Y39037D02*
Y39437D01*
X182559Y40837D02*
X182959D01*
X182759Y40637D02*
Y41037D01*
X189159Y41238D02*
X189559D01*
X189359Y41037D02*
Y41438D01*
X189159Y43238D02*
X189559D01*
X189359Y43038D02*
Y43437D01*
X190359Y43238D02*
X190759D01*
X190559Y43038D02*
Y43437D01*
X191559Y43238D02*
X191959D01*
X191759Y43038D02*
Y43437D01*
X192959Y42037D02*
X193359D01*
X193159Y41837D02*
Y42237D01*
X192959Y43238D02*
X193359D01*
X193159Y43038D02*
Y43437D01*
X206959Y18638D02*
X207359D01*
X207159Y18438D02*
Y18837D01*
X206359Y16438D02*
X206759D01*
X206559Y16238D02*
Y16637D01*
X206159Y19838D02*
X206559D01*
X206359Y19637D02*
Y20038D01*
X207959Y19838D02*
X208359D01*
X208159Y19637D02*
Y20038D01*
X207959Y21637D02*
X208359D01*
X208159Y21438D02*
Y21837D01*
X206159D02*
X206559D01*
X206359Y21637D02*
Y22038D01*
X206159Y24637D02*
X206559D01*
X206359Y24438D02*
Y24837D01*
X207959Y24637D02*
X208359D01*
X208159Y24438D02*
Y24837D01*
X206159Y26838D02*
X206559D01*
X206359Y26638D02*
Y27038D01*
X207959Y26838D02*
X208359D01*
X208159Y26638D02*
Y27038D01*
X206159Y28837D02*
X206559D01*
X206359Y28637D02*
Y29037D01*
X207959Y28837D02*
X208359D01*
X208159Y28637D02*
Y29037D01*
X206159Y30038D02*
X206559D01*
X206359Y29838D02*
Y30237D01*
X207959Y30038D02*
X208359D01*
X208159Y29838D02*
Y30237D01*
X194559Y43238D02*
X194959D01*
X194759Y43038D02*
Y43437D01*
X195759Y43238D02*
X196159D01*
X195959Y43038D02*
Y43437D01*
X197159Y43038D02*
X197559D01*
X197359Y42838D02*
Y43238D01*
X198359Y41837D02*
X198759D01*
X198559Y41638D02*
Y42037D01*
X198359Y43038D02*
X198759D01*
X198559Y42838D02*
Y43238D01*
X200759Y41837D02*
X201159D01*
X200959Y41638D02*
Y42037D01*
X199559Y41837D02*
X199959D01*
X199759Y41638D02*
Y42037D01*
X199559Y43038D02*
X199959D01*
X199759Y42838D02*
Y43238D01*
X200759Y43038D02*
X201159D01*
X200959Y42838D02*
Y43238D01*
X201959Y43038D02*
X202359D01*
X202159Y42838D02*
Y43238D01*
X203159Y43038D02*
X203559D01*
X203359Y42838D02*
Y43238D01*
X204359Y41238D02*
X204759D01*
X204559Y41037D02*
Y41438D01*
X205959Y40637D02*
X206359D01*
X206159Y40437D02*
Y40837D01*
X205959Y39437D02*
X206359D01*
X206159Y39237D02*
Y39638D01*
Y36437D02*
X206559D01*
X206359Y36237D02*
Y36637D01*
X206159Y38238D02*
X206559D01*
X206359Y38037D02*
Y38438D01*
X207959Y38238D02*
X208359D01*
X208159Y38037D02*
Y38438D01*
X207959Y36437D02*
X208359D01*
X208159Y36237D02*
Y36637D01*
X205959Y34238D02*
X206359D01*
X206159Y34038D02*
Y34438D01*
X207959D02*
X208359D01*
X208159Y34238D02*
Y34637D01*
X303159Y93037D02*
X303559D01*
X303359Y92838D02*
Y93238D01*
X303559Y95837D02*
X303959D01*
X303759Y95638D02*
Y96038D01*
X301759Y95837D02*
X302159D01*
X301959Y95638D02*
Y96038D01*
X301759Y97637D02*
X302159D01*
X301959Y97438D02*
Y97838D01*
X303359Y97637D02*
X303759D01*
X303559Y97438D02*
Y97838D01*
X305159Y97637D02*
X305559D01*
X305359Y97438D02*
Y97838D01*
X171759Y109637D02*
X172159D01*
X171959Y109438D02*
Y109837D01*
X171759Y108438D02*
X172159D01*
X171959Y108238D02*
Y108637D01*
X172959Y108438D02*
X173359D01*
X173159Y108238D02*
Y108637D01*
X171759Y104838D02*
X172159D01*
X171959Y104638D02*
Y105037D01*
X171759Y106037D02*
X172159D01*
X171959Y105838D02*
Y106237D01*
X172959Y106037D02*
X173359D01*
X173159Y105838D02*
Y106237D01*
X172959Y104838D02*
X173359D01*
X173159Y104638D02*
Y105037D01*
X171759Y100437D02*
X172159D01*
X171959Y100238D02*
Y100637D01*
X171759Y101637D02*
X172159D01*
X171959Y101437D02*
Y101838D01*
X172959Y101637D02*
X173359D01*
X173159Y101437D02*
Y101838D01*
X172959Y100437D02*
X173359D01*
X173159Y100238D02*
Y100637D01*
X175559Y101637D02*
X175959D01*
X175759Y101437D02*
Y101838D01*
X175559Y100437D02*
X175959D01*
X175759Y100238D02*
Y100637D01*
X170959Y86037D02*
X171359D01*
X171159Y85838D02*
Y86238D01*
X170959Y83637D02*
X171359D01*
X171159Y83438D02*
Y83837D01*
X170959Y81437D02*
X171359D01*
X171159Y81238D02*
Y81638D01*
X170959Y79238D02*
X171359D01*
X171159Y79037D02*
Y79438D01*
X173359Y79238D02*
X173759D01*
X173559Y79037D02*
Y79438D01*
X173359Y81437D02*
X173759D01*
X173559Y81238D02*
Y81638D01*
X175559Y81437D02*
X175959D01*
X175759Y81238D02*
Y81638D01*
X175559Y79238D02*
X175959D01*
X175759Y79037D02*
Y79438D01*
X177759Y81437D02*
X178159D01*
X177959Y81238D02*
Y81638D01*
X177759Y85838D02*
X178159D01*
X177959Y85637D02*
Y86037D01*
X179359Y85838D02*
X179759D01*
X179559Y85637D02*
Y86037D01*
X179359Y87837D02*
X179759D01*
X179559Y87638D02*
Y88038D01*
X177759Y87837D02*
X178159D01*
X177959Y87638D02*
Y88038D01*
X203359Y48838D02*
X203759D01*
X203559Y48638D02*
Y49038D01*
X201159Y48838D02*
X201559D01*
X201359Y48638D02*
Y49038D01*
X198559Y48838D02*
X198959D01*
X198759Y48638D02*
Y49038D01*
X199159Y51837D02*
X199559D01*
X199359Y51638D02*
Y52038D01*
X201559Y54238D02*
X201959D01*
X201759Y54037D02*
Y54438D01*
X202559Y57038D02*
X202959D01*
X202759Y56837D02*
Y57237D01*
X202559Y60037D02*
X202959D01*
X202759Y59838D02*
Y60237D01*
X202159Y63238D02*
X202559D01*
X202359Y63038D02*
Y63437D01*
X202159Y65838D02*
X202559D01*
X202359Y65637D02*
Y66037D01*
X202159Y68037D02*
X202559D01*
X202359Y67838D02*
Y68238D01*
X202159Y71637D02*
X202559D01*
X202359Y71438D02*
Y71838D01*
X205359Y69238D02*
X205759D01*
X205559Y69037D02*
Y69437D01*
X202959Y70638D02*
X203359D01*
X203159Y70438D02*
Y70837D01*
Y73037D02*
X203559D01*
X203359Y72838D02*
Y73238D01*
X203159Y75238D02*
X203559D01*
X203359Y75037D02*
Y75437D01*
X170759Y44038D02*
X171159D01*
X170959Y43837D02*
Y44238D01*
X173159Y44038D02*
X173559D01*
X173359Y43837D02*
Y44238D01*
X175559Y44038D02*
X175959D01*
X175759Y43837D02*
Y44238D01*
X178159Y41837D02*
X178559D01*
X178359Y41638D02*
Y42037D01*
X178159Y44038D02*
X178559D01*
X178359Y43837D02*
Y44238D01*
X180759Y44038D02*
X181159D01*
X180959Y43837D02*
Y44238D01*
X180759Y46237D02*
X181159D01*
X180959Y46038D02*
Y46437D01*
X183159Y46237D02*
X183559D01*
X183359Y46038D02*
Y46437D01*
X183159Y44038D02*
X183559D01*
X183359Y43837D02*
Y44238D01*
X185559Y44038D02*
X185959D01*
X185759Y43837D02*
Y44238D01*
X187559Y44038D02*
X187959D01*
X187759Y43837D02*
Y44238D01*
X187559Y46237D02*
X187959D01*
X187759Y46038D02*
Y46437D01*
X187559Y48438D02*
X187959D01*
X187759Y48237D02*
Y48638D01*
X187559Y50638D02*
X187959D01*
X187759Y50437D02*
Y50837D01*
X185359Y50638D02*
X185759D01*
X185559Y50437D02*
Y50837D01*
X183159Y50638D02*
X183559D01*
X183359Y50437D02*
Y50837D01*
X183159Y52838D02*
X183559D01*
X183359Y52637D02*
Y53038D01*
X183159Y55037D02*
X183559D01*
X183359Y54838D02*
Y55238D01*
X188159Y54037D02*
X188559D01*
X188359Y53838D02*
Y54238D01*
X188159Y56238D02*
X188559D01*
X188359Y56037D02*
Y56437D01*
X185359Y56837D02*
X185759D01*
X185559Y56638D02*
Y57038D01*
X185359Y59237D02*
X185759D01*
X185559Y59038D02*
Y59438D01*
X185359Y61437D02*
X185759D01*
X185559Y61238D02*
Y61638D01*
X187559Y61437D02*
X187959D01*
X187759Y61238D02*
Y61638D01*
X186359Y63638D02*
X186759D01*
X186559Y63437D02*
Y63837D01*
X188559Y63638D02*
X188959D01*
X188759Y63437D02*
Y63837D01*
X185359Y66438D02*
X185759D01*
X185559Y66237D02*
Y66637D01*
X187559Y66438D02*
X187959D01*
X187759Y66237D02*
Y66637D01*
X185359Y69037D02*
X185759D01*
X185559Y68837D02*
Y69238D01*
X187559Y69037D02*
X187959D01*
X187759Y68837D02*
Y69238D01*
X188359Y71237D02*
X188759D01*
X188559Y71038D02*
Y71438D01*
X185359Y71237D02*
X185759D01*
X185559Y71038D02*
Y71438D01*
X187359Y73238D02*
X187759D01*
X187559Y73037D02*
Y73438D01*
X189159Y75037D02*
X189559D01*
X189359Y74837D02*
Y75238D01*
X182959Y79438D02*
X183359D01*
X183159Y79238D02*
Y79637D01*
X182959Y82237D02*
X183359D01*
X183159Y82038D02*
Y82437D01*
X173959Y76638D02*
X174359D01*
X174159Y76437D02*
Y76837D01*
X179159Y60637D02*
X179559D01*
X179359Y60438D02*
Y60838D01*
X179159Y62837D02*
X179559D01*
X179359Y62638D02*
Y63038D01*
X180359Y66438D02*
X180759D01*
X180559Y66237D02*
Y66637D01*
X179959Y72838D02*
X180359D01*
X180159Y72637D02*
Y73037D01*
X181359Y74437D02*
X181759D01*
X181559Y74238D02*
Y74638D01*
X182759Y76038D02*
X183159D01*
X182959Y75837D02*
Y76237D01*
X178359Y70438D02*
X178759D01*
X178559Y70237D02*
Y70638D01*
X178359Y71637D02*
X178759D01*
X178559Y71438D02*
Y71838D01*
X176359Y68238D02*
X176759D01*
X176559Y68037D02*
Y68437D01*
X176359Y69437D02*
X176759D01*
X176559Y69238D02*
Y69638D01*
X172759Y68037D02*
X173159D01*
X172959Y67838D02*
Y68238D01*
X172759Y69238D02*
X173159D01*
X172959Y69037D02*
Y69437D01*
X172559Y74238D02*
X172959D01*
X172759Y74037D02*
Y74437D01*
X172559Y75437D02*
X172959D01*
X172759Y75238D02*
Y75638D01*
X247959Y103237D02*
X248359D01*
X248159Y103038D02*
Y103437D01*
X234159Y130438D02*
X234559D01*
X234359Y130237D02*
Y130638D01*
X275159Y77237D02*
X275559D01*
X275359Y77038D02*
Y77438D01*
X253959Y128638D02*
X254359D01*
X254159Y128437D02*
Y128838D01*
X243759Y128638D02*
X244159D01*
X243959Y128437D02*
Y128838D01*
X236559Y128638D02*
X236959D01*
X236759Y128437D02*
Y128838D01*
X247759Y128638D02*
X248159D01*
X247959Y128437D02*
Y128838D01*
X221759Y103038D02*
X222159D01*
X221959Y102838D02*
Y103237D01*
X303959Y105037D02*
X304359D01*
X304159Y104838D02*
Y105237D01*
X248559Y93837D02*
X248959D01*
X248759Y93638D02*
Y94037D01*
X310159Y114237D02*
X310559D01*
X310359Y114038D02*
Y114437D01*
X247359Y75238D02*
X247759D01*
X247559Y75037D02*
Y75437D01*
X253559Y99638D02*
X253959D01*
X253759Y99437D02*
Y99837D01*
X277159Y72237D02*
X277559D01*
X277359Y72038D02*
Y72438D01*
X169159Y52038D02*
X169559D01*
X169359Y51837D02*
Y52237D01*
X232159Y128638D02*
X232559D01*
X232359Y128437D02*
Y128838D01*
X229371Y112538D02*
X229771D01*
X229571Y112338D02*
Y112738D01*
X230071Y118737D02*
X230471D01*
X230271Y118537D02*
Y118938D01*
X220671Y83637D02*
X221071D01*
X220871Y83438D02*
Y83837D01*
X284459Y67338D02*
X284859D01*
X284659Y67137D02*
Y67537D01*
X211671Y58637D02*
X212071D01*
X211871Y58438D02*
Y58837D01*
X279159Y92238D02*
X279559D01*
X279359Y92037D02*
Y92437D01*
X289970Y94063D02*
X290370D01*
X290170Y93862D02*
Y94262D01*
X287769Y92501D02*
X288169D01*
X287969Y92301D02*
Y92702D01*
X276477Y79893D02*
X276877D01*
X276677Y79694D02*
Y80093D01*
X277159Y85537D02*
X277559D01*
X277359Y85338D02*
Y85738D01*
X277159Y90338D02*
X277559D01*
X277359Y90137D02*
Y90538D01*
X277159Y89138D02*
X277559D01*
X277359Y88937D02*
Y89337D01*
X167460Y122855D02*
X167860D01*
X167660Y122655D02*
Y123056D01*
X168871Y124137D02*
X169271D01*
X169071Y123937D02*
Y124337D01*
X184171Y80838D02*
X184571D01*
X184371Y80638D02*
Y81037D01*
X168871Y119738D02*
X169271D01*
X169071Y119537D02*
Y119938D01*
X278023Y129179D02*
X278423D01*
X278223Y128979D02*
Y129378D01*
X204471Y117037D02*
X204871D01*
X204671Y116838D02*
Y117237D01*
X263721Y129159D02*
X264121D01*
X263921Y128960D02*
Y129359D01*
X273347Y129218D02*
X273747D01*
X273547Y129018D02*
Y129419D01*
X282757Y129237D02*
X283157D01*
X282957Y129037D02*
Y129437D01*
X289551Y129104D02*
X289951D01*
X289751Y128903D02*
Y129304D01*
X184271Y87138D02*
X184671D01*
X184471Y86937D02*
Y87337D01*
X311597Y121453D02*
X311997D01*
X311797Y121254D02*
Y121653D01*
X197096Y122064D02*
X197496D01*
X197296Y121864D02*
Y122265D01*
X190871Y118338D02*
X191271D01*
X191071Y118138D02*
Y118537D01*
X199989Y124911D02*
X200389D01*
X200189Y124712D02*
Y125111D01*
X207426Y125073D02*
X207826D01*
X207626Y124873D02*
Y125273D01*
X219493Y129988D02*
X219893D01*
X219693Y129788D02*
Y130187D01*
X217843Y129589D02*
X218243D01*
X218043Y129390D02*
Y129789D01*
X213127Y129589D02*
X213527D01*
X213327Y129390D02*
Y129789D01*
X208549Y129532D02*
X208949D01*
X208749Y129332D02*
Y129732D01*
X203678Y129532D02*
X204078D01*
X203878Y129332D02*
Y129732D01*
X195730Y130117D02*
X196130D01*
X195930Y129918D02*
Y130317D01*
X191259Y128898D02*
X191659D01*
X191459Y128698D02*
Y129097D01*
X172671Y72137D02*
X173071D01*
X172871Y71938D02*
Y72338D01*
X168871Y128537D02*
X169271D01*
X169071Y128338D02*
Y128737D01*
X243171Y48438D02*
X243571D01*
X243371Y48237D02*
Y48638D01*
X243171Y50837D02*
X243571D01*
X243371Y50638D02*
Y51038D01*
X187371Y80838D02*
X187771D01*
X187571Y80638D02*
Y81037D01*
X238759Y51237D02*
X239159D01*
X238959Y51038D02*
Y51437D01*
X240771Y43637D02*
X241171D01*
X240971Y43437D02*
Y43837D01*
X238371Y34038D02*
X238771D01*
X238571Y33838D02*
Y34238D01*
X235971Y41238D02*
X236371D01*
X236171Y41037D02*
Y41438D01*
X233571Y38838D02*
X233971D01*
X233771Y38638D02*
Y39037D01*
X231171Y46038D02*
X231571D01*
X231371Y45838D02*
Y46237D01*
X235971Y48438D02*
X236371D01*
X236171Y48237D02*
Y48638D01*
X233571Y50837D02*
X233971D01*
X233771Y50638D02*
Y51038D01*
X231171Y50837D02*
X231571D01*
X231371Y50638D02*
Y51038D01*
X228771Y50837D02*
X229171D01*
X228971Y50638D02*
Y51038D01*
X231171Y48438D02*
X231571D01*
X231371Y48237D02*
Y48638D01*
X228771Y43637D02*
X229171D01*
X228971Y43437D02*
Y43837D01*
X231171Y38838D02*
X231571D01*
X231371Y38638D02*
Y39037D01*
X258759Y70638D02*
X259159D01*
X258959Y70438D02*
Y70837D01*
X246676Y69981D02*
X247076D01*
X246876Y69780D02*
Y70180D01*
X251489Y69981D02*
X251889D01*
X251689Y69780D02*
Y70180D01*
X234959Y70638D02*
X235359D01*
X235159Y70438D02*
Y70837D01*
X240471Y77038D02*
X240871D01*
X240671Y76837D02*
Y77237D01*
X232771Y77138D02*
X233171D01*
X232971Y76938D02*
Y77337D01*
X211359Y70638D02*
X211759D01*
X211559Y70438D02*
Y70837D01*
X204759Y54637D02*
X205159D01*
X204959Y54438D02*
Y54838D01*
X319018Y97642D02*
X319418D01*
X319218Y97443D02*
Y97843D01*
X247771Y124738D02*
X248171D01*
X247971Y124538D02*
Y124937D01*
X177471Y66637D02*
X177871D01*
X177671Y66438D02*
Y66838D01*
X167571Y115519D02*
X167971D01*
X167771Y115320D02*
Y115719D01*
X167312Y113043D02*
X167712D01*
X167512Y112844D02*
Y113243D01*
X167759Y103437D02*
X168159D01*
X167959Y103237D02*
Y103638D01*
X167359Y95638D02*
X167759D01*
X167559Y95438D02*
Y95837D01*
X167359Y94437D02*
X167759D01*
X167559Y94238D02*
Y94638D01*
X167759Y93238D02*
X168159D01*
X167959Y93037D02*
Y93437D01*
X182559Y32838D02*
X182959D01*
X182759Y32638D02*
Y33037D01*
X182559Y36037D02*
X182959D01*
X182759Y35838D02*
Y36237D01*
X187959Y41238D02*
X188359D01*
X188159Y41037D02*
Y41438D01*
X203171Y41848D02*
X203571D01*
X203371Y41647D02*
Y42048D01*
X207752Y42241D02*
X208152D01*
X207952Y42041D02*
Y42441D01*
X207312Y40560D02*
X207712D01*
X207512Y40361D02*
Y40760D01*
X207959Y32237D02*
X208359D01*
X208159Y32037D02*
Y32438D01*
X308152Y66755D02*
X308552D01*
X308352Y66554D02*
Y66954D01*
X283971Y72938D02*
X284371D01*
X284171Y72737D02*
Y73137D01*
X286971Y72938D02*
X287371D01*
X287171Y72737D02*
Y73137D01*
X289971Y72938D02*
X290371D01*
X290171Y72737D02*
Y73137D01*
X292971Y72938D02*
X293371D01*
X293171Y72737D02*
Y73137D01*
X295971Y75337D02*
X296371D01*
X296171Y75138D02*
Y75538D01*
X298971Y75337D02*
X299371D01*
X299171Y75138D02*
Y75538D01*
X308260Y44010D02*
X308660D01*
X308460Y43810D02*
Y44210D01*
X308071Y46938D02*
X308471D01*
X308271Y46738D02*
Y47137D01*
X307964Y48649D02*
X308364D01*
X308164Y48449D02*
Y48849D01*
X308071Y51337D02*
X308471D01*
X308271Y51138D02*
Y51538D01*
X308071Y55738D02*
X308471D01*
X308271Y55537D02*
Y55937D01*
X308071Y60137D02*
X308471D01*
X308271Y59938D02*
Y60338D01*
X308501Y62319D02*
X308901D01*
X308701Y62120D02*
Y62520D01*
X308117Y64240D02*
X308517D01*
X308317Y64040D02*
Y64441D01*
X288771Y67338D02*
X289171D01*
X288971Y67137D02*
Y67537D01*
X294871Y67338D02*
X295271D01*
X295071Y67137D02*
Y67537D01*
X296671Y67338D02*
X297071D01*
X296871Y67137D02*
Y67537D01*
X303871Y67338D02*
X304271D01*
X304071Y67137D02*
Y67537D01*
X303871Y64038D02*
X304271D01*
X304071Y63837D02*
Y64237D01*
X300871Y64038D02*
X301271D01*
X301071Y63837D02*
Y64237D01*
X297871Y64038D02*
X298271D01*
X298071Y63837D02*
Y64237D01*
X291871Y64038D02*
X292271D01*
X292071Y63837D02*
Y64237D01*
X296571Y59538D02*
X296971D01*
X296771Y59338D02*
Y59737D01*
X293571Y59538D02*
X293971D01*
X293771Y59338D02*
Y59737D01*
X290571Y59538D02*
X290971D01*
X290771Y59338D02*
Y59737D01*
X297171Y54838D02*
X297571D01*
X297371Y54637D02*
Y55037D01*
X296471Y51437D02*
X296871D01*
X296671Y51237D02*
Y51638D01*
X296459Y44238D02*
X296859D01*
X296659Y44038D02*
Y44438D01*
X296459Y34637D02*
X296859D01*
X296659Y34438D02*
Y34837D01*
X296459Y39437D02*
X296859D01*
X296659Y39237D02*
Y39638D01*
X296459Y41837D02*
X296859D01*
X296659Y41638D02*
Y42037D01*
X292471Y46637D02*
X292871D01*
X292671Y46437D02*
Y46837D01*
X292471Y34637D02*
X292871D01*
X292671Y34438D02*
Y34837D01*
X292471Y39437D02*
X292871D01*
X292671Y39237D02*
Y39638D01*
X279871Y48838D02*
X280271D01*
X280071Y48638D02*
Y49038D01*
X279471Y41638D02*
X279871D01*
X279671Y41438D02*
Y41837D01*
X279871Y30738D02*
X280271D01*
X280071Y30538D02*
Y30937D01*
X182559Y23638D02*
X182959D01*
X182759Y23438D02*
Y23837D01*
X243159Y16438D02*
X243559D01*
X243359Y16238D02*
Y16637D01*
X236759Y14038D02*
X237159D01*
X236959Y13837D02*
Y14238D01*
X233559Y14038D02*
X233959D01*
X233759Y13837D02*
Y14238D01*
X271959Y14038D02*
X272359D01*
X272159Y13837D02*
Y14238D01*
X255959Y14038D02*
X256359D01*
X256159Y13837D02*
Y14238D01*
X204759Y14038D02*
X205159D01*
X204959Y13837D02*
Y14238D01*
X183959Y14038D02*
X184359D01*
X184159Y13837D02*
Y14238D01*
X190359Y16438D02*
X190759D01*
X190559Y16238D02*
Y16637D01*
X195159Y16438D02*
X195559D01*
X195359Y16238D02*
Y16637D01*
X259159Y14038D02*
X259559D01*
X259359Y13837D02*
Y14238D01*
X307959Y38037D02*
X308359D01*
X308159Y37837D02*
Y38238D01*
X307853Y35215D02*
X308253D01*
X308053Y35015D02*
Y35416D01*
X309559Y33037D02*
X309959D01*
X309759Y32838D02*
Y33237D01*
X303959Y16438D02*
X304359D01*
X304159Y16238D02*
Y16637D01*
X297559Y16438D02*
X297959D01*
X297759Y16238D02*
Y16637D01*
X291159Y16438D02*
X291559D01*
X291359Y16238D02*
Y16637D01*
X281559Y16438D02*
X281959D01*
X281759Y16238D02*
Y16637D01*
X275159Y14038D02*
X275559D01*
X275359Y13837D02*
Y14238D01*
X265559Y16438D02*
X265959D01*
X265759Y16238D02*
Y16637D01*
X246359Y16438D02*
X246759D01*
X246559Y16238D02*
Y16637D01*
X243159Y14038D02*
X243559D01*
X243359Y13837D02*
Y14238D01*
X239959Y14038D02*
X240359D01*
X240159Y13837D02*
Y14238D01*
X223959Y14038D02*
X224359D01*
X224159Y13837D02*
Y14238D01*
X223959Y16438D02*
X224359D01*
X224159Y16238D02*
Y16637D01*
X214359Y14038D02*
X214759D01*
X214559Y13837D02*
Y14238D01*
X214359Y16438D02*
X214759D01*
X214559Y16238D02*
Y16637D01*
X201559Y14038D02*
X201959D01*
X201759Y13837D02*
Y14238D01*
X204759Y16438D02*
X205159D01*
X204959Y16238D02*
Y16637D01*
X207959Y16438D02*
X208359D01*
X208159Y16238D02*
Y16637D01*
X292344Y129199D02*
X292744D01*
X292544Y128998D02*
Y129399D01*
X220759Y14038D02*
X221159D01*
X220959Y13837D02*
Y14238D01*
X312459Y74338D02*
X312859D01*
X312659Y74138D02*
Y74537D01*
X319874Y113259D02*
X320274D01*
X320074Y113058D02*
Y113459D01*
X320058Y66755D02*
X320458D01*
X320258Y66554D02*
Y66954D01*
X322691Y68975D02*
X323091D01*
X322891Y68774D02*
Y69174D01*
X322636Y77071D02*
X323036D01*
X322836Y76872D02*
Y77271D01*
X322559Y79937D02*
X322959D01*
X322759Y79738D02*
Y80137D01*
X322559Y84338D02*
X322959D01*
X322759Y84137D02*
Y84538D01*
X315006Y93497D02*
X315406D01*
X315206Y93296D02*
Y93696D01*
X314493Y88103D02*
X314893D01*
X314693Y87903D02*
Y88304D01*
X314562Y91243D02*
X314962D01*
X314762Y91044D02*
Y91444D01*
X320496Y93279D02*
X320896D01*
X320696Y93080D02*
Y93480D01*
X317354Y91140D02*
X317754D01*
X317554Y90939D02*
Y91339D01*
X322559Y93138D02*
X322959D01*
X322759Y92937D02*
Y93338D01*
X322867Y95535D02*
X323267D01*
X323067Y95336D02*
Y95736D01*
X322691Y100988D02*
X323091D01*
X322891Y100788D02*
Y101189D01*
X320323Y109038D02*
X320723D01*
X320523Y108838D02*
Y109239D01*
X271559Y90237D02*
X271959D01*
X271759Y90038D02*
Y90438D01*
X321709Y102963D02*
X322109D01*
X321909Y102763D02*
Y103164D01*
X322807Y106648D02*
X323207D01*
X323007Y106448D02*
Y106848D01*
X320567Y116663D02*
X320967D01*
X320767Y116463D02*
Y116862D01*
X322662Y111614D02*
X323062D01*
X322862Y111414D02*
Y111813D01*
X322720Y116724D02*
X323120D01*
X322920Y116524D02*
Y116923D01*
X322691Y126829D02*
X323091D01*
X322891Y126628D02*
Y127029D01*
X320711Y129776D02*
X321111D01*
X320911Y129576D02*
Y129975D01*
X322659Y129757D02*
X323059D01*
X322859Y129558D02*
Y129957D01*
X186233Y130043D02*
X186633D01*
X186433Y129843D02*
Y130244D01*
X319796Y84894D02*
X320196D01*
X319996Y84693D02*
Y85093D01*
X167359Y101437D02*
X167759D01*
X167559Y101237D02*
Y101637D01*
X279598Y128770D02*
X279998D01*
X279798Y128570D02*
Y128971D01*
X245571Y36437D02*
X245971D01*
X245771Y36237D02*
Y36637D01*
X243171Y34038D02*
X243571D01*
X243371Y33838D02*
Y34238D01*
X235971Y46038D02*
X236371D01*
X236171Y45838D02*
Y46237D01*
X240771Y38838D02*
X241171D01*
X240971Y38638D02*
Y39037D01*
X240771Y36437D02*
X241171D01*
X240971Y36237D02*
Y36637D01*
X235971Y36437D02*
X236371D01*
X236171Y36237D02*
Y36637D01*
X195159Y14038D02*
X195559D01*
X195359Y13837D02*
Y14238D01*
X199959Y15237D02*
X200359D01*
X200159Y15037D02*
Y15438D01*
X174471Y81238D02*
X174871D01*
X174671Y81037D02*
Y81437D01*
X230359Y105037D02*
X230759D01*
X230559Y104838D02*
Y105237D01*
X231171Y34038D02*
X231571D01*
X231371Y33838D02*
Y34238D01*
X231171Y36437D02*
X231571D01*
X231371Y36237D02*
Y36637D01*
X242073Y128675D02*
X242473D01*
X242273Y128475D02*
Y128876D01*
X304829Y126265D02*
X305229D01*
X305029Y126065D02*
Y126464D01*
X230571Y124437D02*
X230971D01*
X230771Y124238D02*
Y124637D01*
X307439Y125490D02*
X307839D01*
X307639Y125291D02*
Y125690D01*
X308866Y122473D02*
X309266D01*
X309066Y122273D02*
Y122672D01*
X235959Y106438D02*
X236359D01*
X236159Y106237D02*
Y106638D01*
X182559Y14838D02*
X182959D01*
X182759Y14638D02*
Y15037D01*
X185559Y46237D02*
X185959D01*
X185759Y46038D02*
Y46437D01*
X231171Y43637D02*
X231571D01*
X231371Y43437D02*
Y43837D01*
X233571Y34038D02*
X233971D01*
X233771Y33838D02*
Y34238D01*
X184486Y129434D02*
X184886D01*
X184686Y129234D02*
Y129633D01*
X235971Y34038D02*
X236371D01*
X236171Y33838D02*
Y34238D01*
X181207Y129341D02*
X181607D01*
X181407Y129141D02*
Y129542D01*
X203171Y77538D02*
X203571D01*
X203371Y77337D02*
Y77737D01*
X304619Y129208D02*
X305019D01*
X304819Y129007D02*
Y129408D01*
X201471Y88638D02*
X201871D01*
X201671Y88437D02*
Y88837D01*
X203111Y122019D02*
X203511D01*
X203311Y121818D02*
Y122219D01*
X300971Y67338D02*
X301371D01*
X301171Y67137D02*
Y67537D01*
X207541Y121974D02*
X207941D01*
X207741Y121774D02*
Y122174D01*
X166959Y104838D02*
X167359D01*
X167159Y104638D02*
Y105037D01*
X240771Y46038D02*
X241171D01*
X240971Y45838D02*
Y46237D01*
X235971Y38838D02*
X236371D01*
X236171Y38638D02*
Y39037D01*
X245571Y38838D02*
X245971D01*
X245771Y38638D02*
Y39037D01*
X207871Y58637D02*
X208271D01*
X208071Y58438D02*
Y58837D01*
X298759Y118837D02*
X299159D01*
X298959Y118638D02*
Y119037D01*
X258537Y129551D02*
X258937D01*
X258737Y129350D02*
Y129751D01*
X316761Y84929D02*
X317161D01*
X316961Y84728D02*
Y85128D01*
X294098Y129235D02*
X294498D01*
X294298Y129034D02*
Y129435D01*
X177371Y129537D02*
X177771D01*
X177571Y129338D02*
Y129737D01*
X318739Y129796D02*
X319139D01*
X318939Y129595D02*
Y129996D01*
X322641Y123913D02*
X323041D01*
X322841Y123713D02*
Y124112D01*
X322662Y121977D02*
X323062D01*
X322862Y121777D02*
Y122178D01*
X320363Y119334D02*
X320763D01*
X320563Y119133D02*
Y119534D01*
X322587Y113578D02*
X322987D01*
X322787Y113379D02*
Y113778D01*
X260616Y128618D02*
X261016D01*
X260816Y128418D02*
Y128817D01*
X322620Y97695D02*
X323020D01*
X322820Y97496D02*
Y97895D01*
X322693Y89499D02*
X323093D01*
X322893Y89299D02*
Y89700D01*
X320607Y90447D02*
X321007D01*
X320807Y90247D02*
Y90648D01*
X317319Y93233D02*
X317719D01*
X317519Y93032D02*
Y93432D01*
X317214Y88383D02*
X317614D01*
X317414Y88182D02*
Y88582D01*
X320551Y87699D02*
X320951D01*
X320751Y87498D02*
Y87898D01*
X322797Y86987D02*
X323197D01*
X322997Y86787D02*
Y87186D01*
X322711Y73527D02*
X323111D01*
X322911Y73327D02*
Y73728D01*
X322720Y71974D02*
X323120D01*
X322920Y71775D02*
Y72175D01*
X323282Y67080D02*
X323682D01*
X323482Y66879D02*
Y67279D01*
X317683Y66755D02*
X318083D01*
X317883Y66554D02*
Y66954D01*
X315239Y66824D02*
X315639D01*
X315439Y66624D02*
Y67023D01*
X319833Y125776D02*
X320233D01*
X320033Y125575D02*
Y125976D01*
X320323Y104737D02*
X320723D01*
X320523Y104537D02*
Y104938D01*
X167534Y129581D02*
X167934D01*
X167734Y129382D02*
Y129781D01*
X217559Y14038D02*
X217959D01*
X217759Y13837D02*
Y14238D01*
X207959Y14038D02*
X208359D01*
X208159Y13837D02*
Y14238D01*
X206359Y15237D02*
X206759D01*
X206559Y15037D02*
Y15438D01*
X199959Y16438D02*
X200359D01*
X200159Y16238D02*
Y16637D01*
X196759Y16438D02*
X197159D01*
X196959Y16238D02*
Y16637D01*
X217559Y16438D02*
X217959D01*
X217759Y16238D02*
Y16637D01*
X227159Y16438D02*
X227559D01*
X227359Y16238D02*
Y16637D01*
X230359Y16438D02*
X230759D01*
X230559Y16238D02*
Y16637D01*
X230359Y14038D02*
X230759D01*
X230559Y13837D02*
Y14238D01*
X233559Y16438D02*
X233959D01*
X233759Y16238D02*
Y16637D01*
X215871Y65237D02*
X216271D01*
X216071Y65038D02*
Y65438D01*
X236759Y16438D02*
X237159D01*
X236959Y16238D02*
Y16637D01*
X239959Y16438D02*
X240359D01*
X240159Y16238D02*
Y16637D01*
X249559Y16438D02*
X249959D01*
X249759Y16238D02*
Y16637D01*
X255959Y16438D02*
X256359D01*
X256159Y16238D02*
Y16637D01*
X259159Y16438D02*
X259559D01*
X259359Y16238D02*
Y16637D01*
X311353Y103637D02*
X311753D01*
X311553Y103437D02*
Y103837D01*
X262359Y16438D02*
X262759D01*
X262559Y16238D02*
Y16637D01*
X262359Y14038D02*
X262759D01*
X262559Y13837D02*
Y14238D01*
X271959Y16438D02*
X272359D01*
X272159Y16238D02*
Y16637D01*
X265559Y14038D02*
X265959D01*
X265759Y13837D02*
Y14238D01*
X275159Y16438D02*
X275559D01*
X275359Y16238D02*
Y16637D01*
X299945Y93783D02*
X300345D01*
X300145Y93584D02*
Y93984D01*
X281559Y14038D02*
X281959D01*
X281759Y13837D02*
Y14238D01*
X301371Y89638D02*
X301771D01*
X301571Y89438D02*
Y89837D01*
X287959Y16438D02*
X288359D01*
X288159Y16238D02*
Y16637D01*
X287959Y14038D02*
X288359D01*
X288159Y13837D02*
Y14238D01*
X297559Y14038D02*
X297959D01*
X297759Y13837D02*
Y14238D01*
X295264Y92836D02*
X295664D01*
X295464Y92637D02*
Y93037D01*
X300759Y16438D02*
X301159D01*
X300959Y16238D02*
Y16637D01*
X300759Y14038D02*
X301159D01*
X300959Y13837D02*
Y14238D01*
X293815Y93727D02*
X294215D01*
X294015Y93528D02*
Y93928D01*
X303959Y14038D02*
X304359D01*
X304159Y13837D02*
Y14238D01*
X309559Y17038D02*
X309959D01*
X309759Y16838D02*
Y17237D01*
X291224Y92418D02*
X291624D01*
X291424Y92219D02*
Y92619D01*
X309559Y20237D02*
X309959D01*
X309759Y20038D02*
Y20437D01*
X309559Y26638D02*
X309959D01*
X309759Y26438D02*
Y26838D01*
X307159Y26638D02*
X307559D01*
X307359Y26438D02*
Y26838D01*
X227159Y14038D02*
X227559D01*
X227359Y13837D02*
Y14238D01*
X193559Y14038D02*
X193959D01*
X193759Y13837D02*
Y14238D01*
X187159Y14038D02*
X187559D01*
X187359Y13837D02*
Y14238D01*
X187159Y15237D02*
X187559D01*
X187359Y15037D02*
Y15438D01*
X207959Y17638D02*
X208359D01*
X208159Y17437D02*
Y17838D01*
X211159Y14038D02*
X211559D01*
X211359Y13837D02*
Y14238D01*
X182559Y16438D02*
X182959D01*
X182759Y16238D02*
Y16637D01*
X249559Y14038D02*
X249959D01*
X249759Y13837D02*
Y14238D01*
X286014Y93950D02*
X286414D01*
X286214Y93751D02*
Y94151D01*
X182559Y19637D02*
X182959D01*
X182759Y19437D02*
Y19838D01*
X182559Y22437D02*
X182959D01*
X182759Y22238D02*
Y22637D01*
X279159Y94138D02*
X279559D01*
X279359Y93937D02*
Y94337D01*
X277159Y93937D02*
X277559D01*
X277359Y93738D02*
Y94138D01*
X275159Y93937D02*
X275559D01*
X275359Y93738D02*
Y94138D01*
X277159Y74638D02*
X277559D01*
X277359Y74437D02*
Y74837D01*
X279871Y38838D02*
X280271D01*
X280071Y38638D02*
Y39037D01*
X275159Y85537D02*
X275559D01*
X275359Y85338D02*
Y85738D01*
X292471Y41837D02*
X292871D01*
X292671Y41638D02*
Y42037D01*
X292471Y37038D02*
X292871D01*
X292671Y36838D02*
Y37238D01*
X292471Y49038D02*
X292871D01*
X292671Y48838D02*
Y49237D01*
X275159Y89138D02*
X275559D01*
X275359Y88937D02*
Y89337D01*
X296459Y37038D02*
X296859D01*
X296659Y36838D02*
Y37238D01*
X296471Y46637D02*
X296871D01*
X296671Y46437D02*
Y46837D01*
X296471Y49038D02*
X296871D01*
X296671Y48838D02*
Y49237D01*
X299971Y45138D02*
X300371D01*
X300171Y44938D02*
Y45338D01*
X293759Y54838D02*
X294159D01*
X293959Y54637D02*
Y55037D01*
X174223Y128694D02*
X174623D01*
X174423Y128495D02*
Y128894D01*
X167682Y125923D02*
X168082D01*
X167882Y125723D02*
Y126122D01*
X287571Y59538D02*
X287971D01*
X287771Y59338D02*
Y59737D01*
X288859Y63937D02*
X289259D01*
X289059Y63737D02*
Y64138D01*
X294871Y64038D02*
X295271D01*
X295071Y63837D02*
Y64237D01*
X302671Y67338D02*
X303071D01*
X302871Y67137D02*
Y67537D01*
X297871Y67338D02*
X298271D01*
X298071Y67137D02*
Y67537D01*
X290571Y67338D02*
X290971D01*
X290771Y67137D02*
Y67537D01*
X267471Y83837D02*
X267871D01*
X267671Y83637D02*
Y84038D01*
X250830Y128874D02*
X251230D01*
X251030Y128674D02*
Y129074D01*
X298971Y72938D02*
X299371D01*
X299171Y72737D02*
Y73137D01*
X292971Y75337D02*
X293371D01*
X293171Y75138D02*
Y75538D01*
X289971Y75337D02*
X290371D01*
X290171Y75138D02*
Y75538D01*
X286971Y75337D02*
X287371D01*
X287171Y75138D02*
Y75538D01*
X283971Y75337D02*
X284371D01*
X284171Y75138D02*
Y75538D01*
X281471Y67338D02*
X281871D01*
X281671Y67137D02*
Y67537D01*
X196269Y42143D02*
X196669D01*
X196469Y41943D02*
Y42342D01*
X191629Y41963D02*
X192029D01*
X191829Y41763D02*
Y42162D01*
X268593Y129179D02*
X268993D01*
X268793Y128979D02*
Y129378D01*
X184164Y42311D02*
X184564D01*
X184364Y42112D02*
Y42511D01*
X182153Y42162D02*
X182553D01*
X182353Y41963D02*
Y42362D01*
X180159Y40837D02*
X180559D01*
X180359Y40637D02*
Y41037D01*
X182559Y39237D02*
X182959D01*
X182759Y39037D02*
Y39437D01*
X175471Y119837D02*
X175871D01*
X175671Y119638D02*
Y120037D01*
X176399Y42143D02*
X176799D01*
X176599Y41943D02*
Y42342D01*
X173336Y42090D02*
X173736D01*
X173536Y41890D02*
Y42290D01*
X169899Y41499D02*
X170299D01*
X170099Y41298D02*
Y41699D01*
X167359Y45638D02*
X167759D01*
X167559Y45437D02*
Y45838D01*
X167359Y47238D02*
X167759D01*
X167559Y47038D02*
Y47438D01*
X174271Y119837D02*
X174671D01*
X174471Y119638D02*
Y120037D01*
X172959Y109637D02*
X173359D01*
X173159Y109438D02*
Y109837D01*
X172471Y66637D02*
X172871D01*
X172671Y66438D02*
Y66838D01*
X167359Y98238D02*
X167759D01*
X167559Y98037D02*
Y98438D01*
X167534Y99962D02*
X167934D01*
X167734Y99761D02*
Y100162D01*
X169159Y111238D02*
X169559D01*
X169359Y111038D02*
Y111437D01*
X168864Y109607D02*
X169264D01*
X169064Y109406D02*
Y109807D01*
X167159Y106438D02*
X167559D01*
X167359Y106237D02*
Y106638D01*
X167756Y111269D02*
X168156D01*
X167956Y111070D02*
Y111469D01*
X168725Y113927D02*
X169125D01*
X168925Y113727D02*
Y114128D01*
X182559Y28438D02*
X182959D01*
X182759Y28238D02*
Y28637D01*
X182559Y29838D02*
X182959D01*
X182759Y29638D02*
Y30038D01*
X247171Y82237D02*
X247571D01*
X247371Y82038D02*
Y82437D01*
X169788Y130136D02*
X170188D01*
X169988Y129936D02*
Y130335D01*
X270719Y129140D02*
X271119D01*
X270919Y128940D02*
Y129341D01*
X172971Y129537D02*
X173371D01*
X173171Y129338D02*
Y129737D01*
X245571Y43637D02*
X245971D01*
X245771Y43437D02*
Y43837D01*
X203771Y58337D02*
X204171D01*
X203971Y58138D02*
Y58538D01*
X203771Y62738D02*
X204171D01*
X203971Y62537D02*
Y62937D01*
X277271Y63837D02*
X277671D01*
X277471Y63638D02*
Y64038D01*
X203771Y67137D02*
X204171D01*
X203971Y66938D02*
Y67338D01*
X239171Y77138D02*
X239571D01*
X239371Y76938D02*
Y77337D01*
X261159Y70638D02*
X261559D01*
X261359Y70438D02*
Y70837D01*
X241462Y70002D02*
X241862D01*
X241662Y69801D02*
Y70201D01*
X261171Y77538D02*
X261571D01*
X261371Y77337D02*
Y77737D01*
X228771Y34038D02*
X229171D01*
X228971Y33838D02*
Y34238D01*
X233571Y43637D02*
X233971D01*
X233771Y43437D02*
Y43837D01*
X228771Y48438D02*
X229171D01*
X228971Y48237D02*
Y48638D01*
X235971Y50837D02*
X236371D01*
X236171Y50638D02*
Y51038D01*
X233571Y48438D02*
X233971D01*
X233771Y48237D02*
Y48638D01*
X238371Y43637D02*
X238771D01*
X238571Y43437D02*
Y43837D01*
X238371Y48438D02*
X238771D01*
X238571Y48237D02*
Y48638D01*
X240771Y48438D02*
X241171D01*
X240971Y48237D02*
Y48638D01*
X240771Y50837D02*
X241171D01*
X240971Y50638D02*
Y51038D01*
X287531Y129179D02*
X287931D01*
X287731Y128979D02*
Y129378D01*
X238371Y38838D02*
X238771D01*
X238571Y38638D02*
Y39037D01*
X243171Y43637D02*
X243571D01*
X243371Y43437D02*
Y43837D01*
X243171Y38838D02*
X243571D01*
X243371Y38638D02*
Y39037D01*
X245571Y48438D02*
X245971D01*
X245771Y48237D02*
Y48638D01*
X244359Y44837D02*
X244759D01*
X244559Y44638D02*
Y45037D01*
X245571Y50837D02*
X245971D01*
X245771Y50638D02*
Y51038D01*
X310282Y66755D02*
X310682D01*
X310482Y66554D02*
Y66954D01*
X172671Y50937D02*
X173071D01*
X172871Y50738D02*
Y51138D01*
X176071Y51038D02*
X176471D01*
X176271Y50837D02*
Y51237D01*
X200103Y122088D02*
X200503D01*
X200303Y121888D02*
Y122287D01*
X189240Y129434D02*
X189640D01*
X189440Y129234D02*
Y129633D01*
X193993Y129413D02*
X194393D01*
X194193Y129214D02*
Y129613D01*
X198826Y129491D02*
X199226D01*
X199026Y129291D02*
Y129692D01*
X200904Y128823D02*
X201304D01*
X201104Y128623D02*
Y129024D01*
X210365Y129988D02*
X210765D01*
X210565Y129788D02*
Y130187D01*
X245908Y128803D02*
X246308D01*
X246108Y128603D02*
Y129002D01*
X203019Y125004D02*
X203419D01*
X203219Y124803D02*
Y125204D01*
X267471Y77538D02*
X267871D01*
X267671Y77337D02*
Y77737D01*
X311434Y115623D02*
X311834D01*
X311634Y115424D02*
Y115823D01*
X301911Y129159D02*
X302311D01*
X302111Y128960D02*
Y129359D01*
X299022Y129030D02*
X299422D01*
X299222Y128830D02*
Y129229D01*
X297039Y129199D02*
X297439D01*
X297239Y128998D02*
Y129399D01*
X236871Y65438D02*
X237271D01*
X237071Y65237D02*
Y65637D01*
X233671Y65438D02*
X234071D01*
X233871Y65237D02*
Y65637D01*
X215471Y42138D02*
X215871D01*
X215671Y41938D02*
Y42338D01*
X255959Y97838D02*
X256359D01*
X256159Y97637D02*
Y98037D01*
X250359Y95638D02*
X250759D01*
X250559Y95438D02*
Y95837D01*
X277159Y77237D02*
X277559D01*
X277359Y77038D02*
Y77438D01*
X275159Y69837D02*
X275559D01*
X275359Y69638D02*
Y70038D01*
X314423Y84859D02*
X314823D01*
X314623Y84658D02*
Y85058D01*
X196697Y128888D02*
X197097D01*
X196897Y128689D02*
Y129088D01*
X197159Y125038D02*
X197559D01*
X197359Y124838D02*
Y125238D01*
X207559Y22838D02*
X207959D01*
X207759Y22637D02*
Y23038D01*
X235971Y43637D02*
X236371D01*
X236171Y43437D02*
Y43837D01*
X216971Y20738D02*
X217371D01*
X217171Y20538D02*
Y20937D01*
X220071Y20738D02*
X220471D01*
X220271Y20538D02*
Y20937D01*
X223271Y20738D02*
X223671D01*
X223471Y20538D02*
Y20937D01*
X227271Y21238D02*
X227671D01*
X227471Y21037D02*
Y21438D01*
X242871Y20638D02*
X243271D01*
X243071Y20437D02*
Y20838D01*
X256971Y23038D02*
X257371D01*
X257171Y22838D02*
Y23237D01*
X245571Y34038D02*
X245971D01*
X245771Y33838D02*
Y34238D01*
X246771Y30838D02*
X247171D01*
X246971Y30637D02*
Y31038D01*
X240771Y34038D02*
X241171D01*
X240971Y33838D02*
Y34238D01*
X241571Y30838D02*
X241971D01*
X241771Y30637D02*
Y31038D01*
X230471Y65438D02*
X230871D01*
X230671Y65237D02*
Y65637D01*
X240071Y65438D02*
X240471D01*
X240271Y65237D02*
Y65637D01*
X243271Y65438D02*
X243671D01*
X243471Y65237D02*
Y65637D01*
X246471Y65438D02*
X246871D01*
X246671Y65237D02*
Y65637D01*
X249671Y65438D02*
X250071D01*
X249871Y65237D02*
Y65637D01*
X262271Y66137D02*
X262671D01*
X262471Y65938D02*
Y66338D01*
X260771Y48438D02*
X261171D01*
X260971Y48237D02*
Y48638D01*
X265571Y38037D02*
X265971D01*
X265771Y37837D02*
Y38238D01*
X279871Y34538D02*
X280271D01*
X280071Y34337D02*
Y34738D01*
X279871Y26438D02*
X280271D01*
X280071Y26237D02*
Y26638D01*
X182902Y99385D02*
X183302D01*
X183102Y99186D02*
Y99585D01*
X191396Y100655D02*
X191796D01*
X191596Y100455D02*
Y100856D01*
X215471Y45338D02*
X215871D01*
X215671Y45138D02*
Y45537D01*
X215471Y48638D02*
X215871D01*
X215671Y48438D02*
Y48838D01*
X218771Y56837D02*
X219171D01*
X218971Y56638D02*
Y57038D01*
X215871Y62837D02*
X216271D01*
X216071Y62638D02*
Y63038D01*
X227159Y101237D02*
X227559D01*
X227359Y101038D02*
Y101437D01*
X270671Y102737D02*
X271071D01*
X270871Y102538D02*
Y102937D01*
X298103Y89903D02*
X298503D01*
X298303Y89702D02*
Y90102D01*
X295355Y89395D02*
X295755D01*
X295555Y89196D02*
Y89596D01*
X285771Y89038D02*
X286171D01*
X285971Y88837D02*
Y89237D01*
X282873Y89521D02*
X283273D01*
X283073Y89320D02*
Y89720D01*
X280236Y89498D02*
X280636D01*
X280436Y89297D02*
Y89697D01*
X285659Y67338D02*
X286059D01*
X285859Y67137D02*
Y67537D01*
X287571Y67338D02*
X287971D01*
X287771Y67137D02*
Y67537D01*
X291771Y67338D02*
X292171D01*
X291971Y67137D02*
Y67537D01*
X293671Y67338D02*
X294071D01*
X293871Y67137D02*
Y67537D01*
X299771Y67338D02*
X300171D01*
X299971Y67137D02*
Y67537D01*
X312371Y71737D02*
X312771D01*
X312571Y71538D02*
Y71938D01*
X316659Y74037D02*
X317059D01*
X316859Y73838D02*
Y74238D01*
X303871Y30738D02*
X304271D01*
X304071Y30538D02*
Y30937D01*
X292471Y44238D02*
X292871D01*
X292671Y44038D02*
Y44438D01*
X303871Y45037D02*
X304271D01*
X304071Y44837D02*
Y45237D01*
X297471Y80338D02*
X297871D01*
X297671Y80137D02*
Y80537D01*
X275555Y53508D02*
X275955D01*
X275755Y53307D02*
Y53707D01*
X279871Y44537D02*
X280271D01*
X280071Y44337D02*
Y44737D01*
X230071Y115338D02*
X230471D01*
X230271Y115138D02*
Y115538D01*
X216271Y92338D02*
X216671D01*
X216471Y92137D02*
Y92537D01*
X193630Y99741D02*
X194030D01*
X193830Y99541D02*
Y99941D01*
X236159Y109037D02*
X236559D01*
X236359Y108837D02*
Y109238D01*
X241759Y102638D02*
X242159D01*
X241959Y102437D02*
Y102838D01*
X224759Y91838D02*
X225159D01*
X224959Y91637D02*
Y92037D01*
X232759Y102437D02*
X233159D01*
X232959Y102237D02*
Y102638D01*
X187071Y99537D02*
X187471D01*
X187271Y99338D02*
Y99738D01*
X216271Y96337D02*
X216671D01*
X216471Y96137D02*
Y96538D01*
X198071Y94638D02*
X198471D01*
X198271Y94437D02*
Y94837D01*
X240759Y98238D02*
X241159D01*
X240959Y98037D02*
Y98438D01*
X230159Y83837D02*
X230559D01*
X230359Y83637D02*
Y84038D01*
X232832Y87043D02*
X233231D01*
X233032Y86843D02*
Y87243D01*
X237771Y56638D02*
X238171D01*
X237971Y56437D02*
Y56837D01*
X229559Y96137D02*
X229959D01*
X229759Y95938D02*
Y96337D01*
X250271Y32438D02*
X250671D01*
X250471Y32237D02*
Y32638D01*
X181071Y106037D02*
X181471D01*
X181271Y105838D02*
Y106237D01*
X203079Y80843D02*
X203479D01*
X203279Y80643D02*
Y81043D01*
X211071Y110738D02*
X211471D01*
X211271Y110538D02*
Y110938D01*
X300188Y85066D02*
X300588D01*
X300388Y84866D02*
Y85267D01*
X296778Y85066D02*
X297178D01*
X296978Y84866D02*
Y85267D01*
X304400Y84123D02*
X304800D01*
X304600Y83924D02*
Y84324D01*
X304414Y85673D02*
X304814D01*
X304614Y85474D02*
Y85874D01*
X294110Y80660D02*
X294510D01*
X294310Y80461D02*
Y80861D01*
X292721Y77956D02*
X293121D01*
X292921Y77757D02*
Y78157D01*
X294054Y77956D02*
X294454D01*
X294254Y77757D02*
Y78157D01*
X292663Y80685D02*
X293063D01*
X292863Y80484D02*
Y80884D01*
X302371Y84451D02*
X302771D01*
X302571Y84250D02*
Y84650D01*
X307343Y84121D02*
X307743D01*
X307543Y83921D02*
Y84320D01*
X306199Y85673D02*
X306599D01*
X306399Y85474D02*
Y85874D01*
X307343Y88763D02*
X307743D01*
X307543Y88564D02*
Y88964D01*
X227271Y106237D02*
X227671D01*
X227471Y106037D02*
Y106438D01*
X233559Y124238D02*
X233959D01*
X233759Y124038D02*
Y124437D01*
X270627Y83893D02*
X271027D01*
X270827Y83693D02*
Y84093D01*
X227471Y80537D02*
X227871D01*
X227671Y80338D02*
Y80738D01*
X204959Y92238D02*
X205359D01*
X205159Y92037D02*
Y92437D01*
X232759Y81037D02*
X233159D01*
X232959Y80838D02*
Y81238D01*
X200771Y93138D02*
X201171D01*
X200971Y92937D02*
Y93338D01*
X216854Y90166D02*
X217254D01*
X217054Y89966D02*
Y90367D01*
X198671Y116037D02*
X199071D01*
X198871Y115838D02*
Y116237D01*
X251171Y124738D02*
X251571D01*
X251371Y124538D02*
Y124937D01*
X253371Y116937D02*
X253771D01*
X253571Y116737D02*
Y117138D01*
X290559Y109637D02*
X290959D01*
X290759Y109438D02*
Y109837D01*
X301959Y101038D02*
X302359D01*
X302159Y100838D02*
Y101237D01*
X311728Y113041D02*
X312128D01*
X311928Y112841D02*
Y113241D01*
X203079Y93441D02*
X203479D01*
X203279Y93241D02*
Y93641D01*
X182971Y110137D02*
X183371D01*
X183171Y109938D02*
Y110337D01*
X223159Y50037D02*
X223559D01*
X223359Y49837D02*
Y50238D01*
X239159Y121637D02*
X239559D01*
X239359Y121438D02*
Y121837D01*
X237703Y107238D02*
X238103D01*
X237903Y107037D02*
Y107438D01*
X220771Y85938D02*
X221171D01*
X220971Y85738D02*
Y86137D01*
X298071Y20437D02*
X298471D01*
X298271Y20237D02*
Y20638D01*
X223871Y114437D02*
X224271D01*
X224071Y114237D02*
Y114637D01*
X192671Y110137D02*
X193071D01*
X192871Y109938D02*
Y110337D01*
X234359Y117037D02*
X234759D01*
X234559Y116838D02*
Y117237D01*
X226671Y64337D02*
X227071D01*
X226871Y64138D02*
Y64538D01*
X286559Y115838D02*
X286959D01*
X286759Y115638D02*
Y116037D01*
X262159Y105838D02*
X262559D01*
X262359Y105638D02*
Y106037D01*
X241971Y93338D02*
X242371D01*
X242171Y93138D02*
Y93537D01*
X258359Y111238D02*
X258759D01*
X258559Y111038D02*
Y111437D01*
X268759Y121637D02*
X269159D01*
X268959Y121438D02*
Y121837D01*
X299959Y97838D02*
X300359D01*
X300159Y97637D02*
Y98037D01*
X269159Y88638D02*
X269559D01*
X269359Y88437D02*
Y88837D01*
X213571Y96137D02*
X213971D01*
X213771Y95938D02*
Y96337D01*
X251671Y105938D02*
X252071D01*
X251871Y105737D02*
Y106138D01*
X223071Y44238D02*
X223471D01*
X223271Y44038D02*
Y44438D01*
X221871Y44238D02*
X222271D01*
X222071Y44038D02*
Y44438D01*
X223071Y32438D02*
X223471D01*
X223271Y32237D02*
Y32638D01*
X289359Y88837D02*
X289759D01*
X289559Y88638D02*
Y89038D01*
X239254Y96767D02*
X239654D01*
X239454Y96566D02*
Y96966D01*
X233771Y56638D02*
X234171D01*
X233971Y56437D02*
Y56837D01*
X203079Y99741D02*
X203479D01*
X203279Y99541D02*
Y99941D01*
X308671Y113038D02*
X309071D01*
X308871Y112838D02*
Y113238D01*
X234454Y85366D02*
X234854D01*
X234654Y85167D02*
Y85567D01*
X251471Y32438D02*
X251871D01*
X251671Y32237D02*
Y32638D01*
X221871Y46237D02*
X222271D01*
X222071Y46038D02*
Y46437D01*
X223071Y46237D02*
X223471D01*
X223271Y46038D02*
Y46437D01*
X203071Y102937D02*
X203471D01*
X203271Y102737D02*
Y103138D01*
X201471Y102937D02*
X201871D01*
X201671Y102737D02*
Y103138D01*
X180971Y102838D02*
X181371D01*
X181171Y102638D02*
Y103038D01*
X274871Y126437D02*
X275271D01*
X275071Y126237D02*
Y126637D01*
X306959Y109837D02*
X307359D01*
X307159Y109637D02*
Y110038D01*
X183449Y117353D02*
X183849D01*
X183649Y117154D02*
Y117553D01*
X262559Y113637D02*
X262959D01*
X262759Y113437D02*
Y113838D01*
X290171Y21238D02*
X290571D01*
X290371Y21037D02*
Y21438D01*
X235559Y112437D02*
X235959D01*
X235759Y112238D02*
Y112637D01*
X257771Y80738D02*
X258171D01*
X257971Y80537D02*
Y80937D01*
X229671Y86838D02*
X230071D01*
X229871Y86638D02*
Y87037D01*
X224054Y83566D02*
X224454D01*
X224254Y83367D02*
Y83767D01*
X306871Y114538D02*
X307271D01*
X307071Y114338D02*
Y114737D01*
X199571Y75238D02*
X199971D01*
X199771Y75037D02*
Y75437D01*
X192271Y49837D02*
X192671D01*
X192471Y49637D02*
Y50037D01*
X300771Y117638D02*
X301171D01*
X300971Y117438D02*
Y117838D01*
X279959Y118438D02*
X280359D01*
X280159Y118237D02*
Y118638D01*
X241671Y56638D02*
X242071D01*
X241871Y56437D02*
Y56837D01*
X265959Y110637D02*
X266359D01*
X266159Y110438D02*
Y110837D01*
X291359Y114437D02*
X291759D01*
X291559Y114237D02*
Y114637D01*
X308959Y71838D02*
X309359D01*
X309159Y71637D02*
Y72038D01*
X308959Y70638D02*
X309359D01*
X309159Y70438D02*
Y70837D01*
X235859Y19637D02*
X236259D01*
X236059Y19437D02*
Y19838D01*
X290171Y25738D02*
X290571D01*
X290371Y25537D02*
Y25938D01*
X235959Y87437D02*
X236359D01*
X236159Y87238D02*
Y87638D01*
X259559Y98058D02*
X259959D01*
X259759Y97857D02*
Y98257D01*
X245671Y56638D02*
X246071D01*
X245871Y56437D02*
Y56837D01*
X239671Y56638D02*
X240071D01*
X239871Y56437D02*
Y56837D01*
X231871Y56638D02*
X232271D01*
X232071Y56437D02*
Y56837D01*
X221871Y48138D02*
X222271D01*
X222071Y47938D02*
Y48338D01*
X196771Y96737D02*
X197171D01*
X196971Y96538D02*
Y96938D01*
X308571Y106037D02*
X308971D01*
X308771Y105838D02*
Y106237D01*
X265359Y90237D02*
X265759D01*
X265559Y90038D02*
Y90438D01*
X209359Y96838D02*
X209759D01*
X209559Y96637D02*
Y97038D01*
X186071Y36737D02*
X186471D01*
X186271Y36538D02*
Y36937D01*
X303671Y111238D02*
X304071D01*
X303871Y111038D02*
Y111437D01*
X305428Y113041D02*
X305828D01*
X305628Y112841D02*
Y113241D01*
X270559Y108837D02*
X270959D01*
X270759Y108637D02*
Y109037D01*
X299129Y103593D02*
X299529D01*
X299329Y103393D02*
Y103793D01*
X270071Y99638D02*
X270471D01*
X270271Y99437D02*
Y99837D01*
X227071Y91537D02*
X227471D01*
X227271Y91338D02*
Y91738D01*
X264371Y20137D02*
X264771D01*
X264571Y19938D02*
Y20337D01*
X178671Y94138D02*
X179071D01*
X178871Y93937D02*
Y94337D01*
X186471Y96637D02*
X186871D01*
X186671Y96438D02*
Y96838D01*
X177671Y89737D02*
X178071D01*
X177871Y89538D02*
Y89938D01*
X214959Y53038D02*
X215359D01*
X215159Y52838D02*
Y53237D01*
X254959Y118638D02*
X255359D01*
X255159Y118438D02*
Y118837D01*
X232759Y96838D02*
X233159D01*
X232959Y96637D02*
Y97038D01*
X264328Y87043D02*
X264728D01*
X264528Y86843D02*
Y87243D01*
X302279Y106742D02*
X302679D01*
X302479Y106542D02*
Y106942D01*
X251729Y83893D02*
X252129D01*
X251929Y83693D02*
Y84093D01*
X253359Y107438D02*
X253759D01*
X253559Y107238D02*
Y107638D01*
X294171Y26638D02*
X294571D01*
X294371Y26438D02*
Y26838D01*
X282771Y41438D02*
X283171D01*
X282971Y41238D02*
Y41638D01*
X269971Y22038D02*
X270371D01*
X270171Y21837D02*
Y22238D01*
X299159Y114437D02*
X299559D01*
X299359Y114237D02*
Y114637D01*
X292559Y88837D02*
X292959D01*
X292759Y88638D02*
Y89038D01*
X240759Y88437D02*
X241159D01*
X240959Y88238D02*
Y88638D01*
X264559Y99837D02*
X264959D01*
X264759Y99638D02*
Y100038D01*
X235981Y83837D02*
X236381D01*
X236181Y83637D02*
Y84038D01*
X229871Y56638D02*
X230271D01*
X230071Y56437D02*
Y56837D01*
X190480Y90292D02*
X190880D01*
X190680Y90092D02*
Y90492D01*
X199929Y96591D02*
X200329D01*
X200129Y96391D02*
Y96791D01*
X223159Y52237D02*
X223559D01*
X223359Y52038D02*
Y52438D01*
X298559Y97038D02*
X298959D01*
X298759Y96838D02*
Y97237D01*
X270559Y87238D02*
X270959D01*
X270759Y87037D02*
Y87437D01*
X253449Y24073D02*
X253849D01*
X253649Y23874D02*
Y24273D01*
X258359Y93238D02*
X258759D01*
X258559Y93037D02*
Y93437D01*
X297159Y113437D02*
X297559D01*
X297359Y113238D02*
Y113637D01*
X253304D02*
X253704D01*
X253504Y113437D02*
Y113838D01*
X264328Y83893D02*
X264728D01*
X264528Y83693D02*
Y84093D01*
X196780Y90292D02*
X197179D01*
X196979Y90092D02*
Y90492D01*
X239359Y84038D02*
X239759D01*
X239559Y83837D02*
Y84237D01*
X215571Y98937D02*
X215971D01*
X215771Y98738D02*
Y99138D01*
X289680Y103593D02*
X290080D01*
X289880Y103393D02*
Y103793D01*
X202359Y97038D02*
X202759D01*
X202559Y96838D02*
Y97237D01*
X193630Y102890D02*
X194030D01*
X193830Y102690D02*
Y103090D01*
X303871Y117737D02*
X304271D01*
X304071Y117537D02*
Y117938D01*
X258559Y121037D02*
X258959D01*
X258759Y120837D02*
Y121238D01*
X257159Y120037D02*
X257559D01*
X257359Y119837D02*
Y120238D01*
X236959Y116237D02*
X237359D01*
X237159Y116037D02*
Y116437D01*
X270371Y105938D02*
X270771D01*
X270571Y105737D02*
Y106138D01*
X238959Y102437D02*
X239359D01*
X239159Y102237D02*
Y102638D01*
X251729Y77594D02*
X252129D01*
X251929Y77394D02*
Y77794D01*
X224154Y108967D02*
X224554D01*
X224354Y108766D02*
Y109167D01*
X193271Y96938D02*
X193671D01*
X193471Y96737D02*
Y97137D01*
X191371Y96637D02*
X191771D01*
X191571Y96438D02*
Y96838D01*
X209971Y80937D02*
X210371D01*
X210171Y80738D02*
Y81138D01*
X209971Y77438D02*
X210371D01*
X210171Y77237D02*
Y77637D01*
X198354Y85567D02*
X198754D01*
X198554Y85367D02*
Y85767D01*
X208785Y84248D02*
X209185D01*
X208985Y84048D02*
Y84448D01*
X209971Y86886D02*
X210371D01*
X210171Y86686D02*
Y87086D01*
X197373Y99485D02*
X197773D01*
X197573Y99285D02*
Y99685D01*
X246023Y105685D02*
X246423D01*
X246223Y105485D02*
Y105885D01*
X249173Y105685D02*
X249573D01*
X249373Y105485D02*
Y105885D01*
X240705Y110665D02*
X241106D01*
X240905Y110465D02*
Y110865D01*
X275959Y103437D02*
X276359D01*
X276159Y103237D02*
Y103638D01*
X275959Y101237D02*
X276359D01*
X276159Y101038D02*
Y101437D01*
X280359Y100038D02*
X280759D01*
X280559Y99837D02*
Y100238D01*
X277559Y102838D02*
X277959D01*
X277759Y102638D02*
Y103038D01*
X241159Y120381D02*
X241559D01*
X241359Y120181D02*
Y120581D01*
X241159Y116238D02*
X241559D01*
X241359Y116038D02*
Y116438D01*
X241159Y113438D02*
X241559D01*
X241359Y113238D02*
Y113638D01*
X262559Y116838D02*
X262959D01*
X262759Y116638D02*
Y117037D01*
X245471Y118537D02*
X245871D01*
X245671Y118338D02*
Y118737D01*
X251771Y109037D02*
X252171D01*
X251971Y108837D02*
Y109238D01*
X251729Y115389D02*
X252129D01*
X251929Y115189D02*
Y115589D01*
X248459Y111940D02*
X248859D01*
X248659Y111740D02*
Y112140D01*
X248459Y109090D02*
X248859D01*
X248659Y108890D02*
Y109290D01*
X244507Y103714D02*
X244907D01*
X244707Y103514D02*
Y103914D01*
X247005Y113815D02*
X247405D01*
X247205Y113615D02*
Y114015D01*
X196780Y102890D02*
X197179D01*
X196979Y102690D02*
Y103090D01*
M02*
