G04 Layer_Color=2752767*
%FSLAX25Y25*%
%MOIN*%
G70*
G01*
G75*
%ADD16C,0.00787*%
%ADD152C,0.00200*%
G54D16*
X354329Y0D02*
Y196851D01*
X0Y0D02*
X354329D01*
X0Y196851D02*
X354329D01*
X0Y0D02*
Y196851D01*
G54D152*
X295759Y97839D02*
Y97439D01*
X296559D01*
Y97839D01*
X296959D01*
Y98639D01*
X296559D01*
Y99039D01*
X295759D01*
Y98639D01*
X295359D01*
Y97839D01*
X295759D01*
X281386Y123145D02*
Y122745D01*
X282186D01*
Y123145D01*
X282586D01*
Y123945D01*
X282186D01*
Y124345D01*
X281386D01*
Y123945D01*
X280986D01*
Y123145D01*
X281386D01*
X264121Y78438D02*
Y78038D01*
X264921D01*
Y78438D01*
X265321D01*
Y79238D01*
X264921D01*
Y79638D01*
X264121D01*
Y79238D01*
X263721D01*
Y78438D01*
X264121D01*
X262559Y84737D02*
Y84338D01*
X263359D01*
Y84737D01*
X263759D01*
Y85537D01*
X263359D01*
Y85938D01*
X262559D01*
Y85537D01*
X262159D01*
Y84737D01*
X262559D01*
X242263Y99167D02*
Y98766D01*
X243062D01*
Y99167D01*
X243462D01*
Y99967D01*
X243062D01*
Y100366D01*
X242263D01*
Y99967D01*
X241863D01*
Y99167D01*
X242263D01*
X238559Y88038D02*
Y87638D01*
X239359D01*
Y88038D01*
X239759D01*
Y88837D01*
X239359D01*
Y89237D01*
X238559D01*
Y88837D01*
X238159D01*
Y88038D01*
X238559D01*
X243076Y83637D02*
Y83237D01*
X243876D01*
Y83637D01*
X244276D01*
Y84438D01*
X243876D01*
Y84838D01*
X243076D01*
Y84438D01*
X242676D01*
Y83637D01*
X243076D01*
X246371Y121938D02*
Y121537D01*
X247171D01*
Y121938D01*
X247571D01*
Y122738D01*
X247171D01*
Y123137D01*
X246371D01*
Y122738D01*
X245971D01*
Y121938D01*
X246371D01*
X250159Y112838D02*
Y112437D01*
X250959D01*
Y112838D01*
X251359D01*
Y113637D01*
X250959D01*
Y114038D01*
X250159D01*
Y113637D01*
X249759D01*
Y112838D01*
X250159D01*
X245971Y111238D02*
Y110837D01*
X246771D01*
Y111238D01*
X247171D01*
Y112038D01*
X246771D01*
Y112437D01*
X245971D01*
Y112038D01*
X245571D01*
Y111238D01*
X245971D01*
X246001Y114637D02*
Y114237D01*
X246801D01*
Y114637D01*
X247201D01*
Y115437D01*
X246801D01*
Y115838D01*
X246001D01*
Y115437D01*
X245601D01*
Y114637D01*
X246001D01*
X250048Y109890D02*
Y109490D01*
X250848D01*
Y109890D01*
X251248D01*
Y110690D01*
X250848D01*
Y111090D01*
X250048D01*
Y110690D01*
X249648D01*
Y109890D01*
X250048D01*
X202171Y84038D02*
Y83637D01*
X202971D01*
Y84038D01*
X203371D01*
Y84838D01*
X202971D01*
Y85237D01*
X202171D01*
Y84838D01*
X201771D01*
Y84038D01*
X202171D01*
X197371Y83148D02*
Y82748D01*
X198171D01*
Y83148D01*
X198571D01*
Y83947D01*
X198171D01*
Y84347D01*
X197371D01*
Y83947D01*
X196971D01*
Y83148D01*
X197371D01*
X202371Y37337D02*
Y36937D01*
X203171D01*
Y37337D01*
X203571D01*
Y38138D01*
X203171D01*
Y38537D01*
X202371D01*
Y38138D01*
X201971D01*
Y37337D01*
X202371D01*
X281471Y50138D02*
Y49738D01*
X282271D01*
Y50138D01*
X282671D01*
Y50937D01*
X282271D01*
Y51337D01*
X281471D01*
Y50937D01*
X281071D01*
Y50138D01*
X281471D01*
X237159Y19838D02*
Y19437D01*
X237959D01*
Y19838D01*
X238359D01*
Y20638D01*
X237959D01*
Y21037D01*
X237159D01*
Y20638D01*
X236759D01*
Y19838D01*
X237159D01*
X213559Y89038D02*
Y88638D01*
X214359D01*
Y89038D01*
X214759D01*
Y89837D01*
X214359D01*
Y90237D01*
X213559D01*
Y89837D01*
X213159D01*
Y89038D01*
X213559D01*
X240571Y94337D02*
Y93937D01*
X241371D01*
Y94337D01*
X241771D01*
Y95138D01*
X241371D01*
Y95538D01*
X240571D01*
Y95138D01*
X240171D01*
Y94337D01*
X240571D01*
X317559Y81238D02*
Y80838D01*
X318359D01*
Y81238D01*
X318759D01*
Y82038D01*
X318359D01*
Y82437D01*
X317559D01*
Y82038D01*
X317159D01*
Y81238D01*
X317559D01*
X189471Y29438D02*
Y29037D01*
X190271D01*
Y29438D01*
X190671D01*
Y30237D01*
X190271D01*
Y30637D01*
X189471D01*
Y30237D01*
X189071D01*
Y29438D01*
X189471D01*
X200159Y33037D02*
Y32638D01*
X200959D01*
Y33037D01*
X201359D01*
Y33838D01*
X200959D01*
Y34238D01*
X200159D01*
Y33838D01*
X199759D01*
Y33037D01*
X200159D01*
X202159Y115437D02*
Y115038D01*
X202959D01*
Y115437D01*
X203359D01*
Y116237D01*
X202959D01*
Y116638D01*
X202159D01*
Y116237D01*
X201759D01*
Y115437D01*
X202159D01*
X208159Y70038D02*
Y69638D01*
X208959D01*
Y70038D01*
X209359D01*
Y70837D01*
X208959D01*
Y71237D01*
X208159D01*
Y70837D01*
X207759D01*
Y70038D01*
X208159D01*
X261159Y69437D02*
Y69037D01*
X261959D01*
Y69437D01*
X262359D01*
Y70237D01*
X261959D01*
Y70638D01*
X261159D01*
Y70237D01*
X260759D01*
Y69437D01*
X261159D01*
X282759Y106037D02*
Y105638D01*
X283559D01*
Y106037D01*
X283959D01*
Y106837D01*
X283559D01*
Y107238D01*
X282759D01*
Y106837D01*
X282359D01*
Y106037D01*
X282759D01*
X269359Y97838D02*
Y97438D01*
X270159D01*
Y97838D01*
X270559D01*
Y98637D01*
X270159D01*
Y99037D01*
X269359D01*
Y98637D01*
X268959D01*
Y97838D01*
X269359D01*
X226109Y114488D02*
Y114087D01*
X226909D01*
Y114488D01*
X227309D01*
Y115287D01*
X226909D01*
Y115688D01*
X226109D01*
Y115287D01*
X225709D01*
Y114488D01*
X226109D01*
X174959Y79238D02*
Y78838D01*
X175759D01*
Y79238D01*
X176159D01*
Y80037D01*
X175759D01*
Y80437D01*
X174959D01*
Y80037D01*
X174559D01*
Y79238D01*
X174959D01*
Y60037D02*
Y59637D01*
X175759D01*
Y60037D01*
X176159D01*
Y60838D01*
X175759D01*
Y61238D01*
X174959D01*
Y60838D01*
X174559D01*
Y60037D01*
X174959D01*
X194159Y45638D02*
Y45237D01*
X194959D01*
Y45638D01*
X195359D01*
Y46437D01*
X194959D01*
Y46837D01*
X194159D01*
Y46437D01*
X193759D01*
Y45638D01*
X194159D01*
Y50437D02*
Y50037D01*
X194959D01*
Y50437D01*
X195359D01*
Y51237D01*
X194959D01*
Y51638D01*
X194159D01*
Y51237D01*
X193759D01*
Y50437D01*
X194159D01*
Y55238D02*
Y54838D01*
X194959D01*
Y55238D01*
X195359D01*
Y56037D01*
X194959D01*
Y56437D01*
X194159D01*
Y56037D01*
X193759D01*
Y55238D01*
X194159D01*
Y60037D02*
Y59637D01*
X194959D01*
Y60037D01*
X195359D01*
Y60838D01*
X194959D01*
Y61238D01*
X194159D01*
Y60838D01*
X193759D01*
Y60037D01*
X194159D01*
Y64837D02*
Y64438D01*
X194959D01*
Y64837D01*
X195359D01*
Y65637D01*
X194959D01*
Y66037D01*
X194159D01*
Y65637D01*
X193759D01*
Y64837D01*
X194159D01*
X187771Y69638D02*
Y69238D01*
X188571D01*
Y69638D01*
X188971D01*
Y70438D01*
X188571D01*
Y70837D01*
X187771D01*
Y70438D01*
X187371D01*
Y69638D01*
X187771D01*
X184571Y50437D02*
Y50037D01*
X185371D01*
Y50437D01*
X185771D01*
Y51237D01*
X185371D01*
Y51638D01*
X184571D01*
Y51237D01*
X184171D01*
Y50437D01*
X184571D01*
Y45638D02*
Y45237D01*
X185371D01*
Y45638D01*
X185771D01*
Y46437D01*
X185371D01*
Y46837D01*
X184571D01*
Y46437D01*
X184171D01*
Y45638D01*
X184571D01*
Y55238D02*
Y54838D01*
X185371D01*
Y55238D01*
X185771D01*
Y56037D01*
X185371D01*
Y56437D01*
X184571D01*
Y56037D01*
X184171D01*
Y55238D01*
X184571D01*
Y60037D02*
Y59637D01*
X185371D01*
Y60037D01*
X185771D01*
Y60838D01*
X185371D01*
Y61238D01*
X184571D01*
Y60838D01*
X184171D01*
Y60037D01*
X184571D01*
Y64837D02*
Y64438D01*
X185371D01*
Y64837D01*
X185771D01*
Y65637D01*
X185371D01*
Y66037D01*
X184571D01*
Y65637D01*
X184171D01*
Y64837D01*
X184571D01*
Y74437D02*
Y74037D01*
X185371D01*
Y74437D01*
X185771D01*
Y75238D01*
X185371D01*
Y75638D01*
X184571D01*
Y75238D01*
X184171D01*
Y74437D01*
X184571D01*
Y69638D02*
Y69238D01*
X185371D01*
Y69638D01*
X185771D01*
Y70438D01*
X185371D01*
Y70837D01*
X184571D01*
Y70438D01*
X184171D01*
Y69638D01*
X184571D01*
X178159Y63238D02*
Y62837D01*
X178959D01*
Y63238D01*
X179359D01*
Y64038D01*
X178959D01*
Y64438D01*
X178159D01*
Y64038D01*
X177759D01*
Y63238D01*
X178159D01*
Y66438D02*
Y66037D01*
X178959D01*
Y66438D01*
X179359D01*
Y67238D01*
X178959D01*
Y67637D01*
X178159D01*
Y67238D01*
X177759D01*
Y66438D01*
X178159D01*
Y69638D02*
Y69238D01*
X178959D01*
Y69638D01*
X179359D01*
Y70438D01*
X178959D01*
Y70837D01*
X178159D01*
Y70438D01*
X177759D01*
Y69638D01*
X178159D01*
X308159Y27837D02*
Y27437D01*
X308959D01*
Y27837D01*
X309359D01*
Y28637D01*
X308959D01*
Y29037D01*
X308159D01*
Y28637D01*
X307759D01*
Y27837D01*
X308159D01*
X308559Y15037D02*
Y14638D01*
X309359D01*
Y15037D01*
X309759D01*
Y15837D01*
X309359D01*
Y16238D01*
X308559D01*
Y15837D01*
X308159D01*
Y15037D01*
X308559D01*
X292559Y14838D02*
Y14437D01*
X293359D01*
Y14838D01*
X293759D01*
Y15638D01*
X293359D01*
Y16037D01*
X292559D01*
Y15638D01*
X292159D01*
Y14838D01*
X292559D01*
X289359D02*
Y14437D01*
X290159D01*
Y14838D01*
X290559D01*
Y15638D01*
X290159D01*
Y16037D01*
X289359D01*
Y15638D01*
X288959D01*
Y14838D01*
X289359D01*
X266959D02*
Y14437D01*
X267759D01*
Y14838D01*
X268159D01*
Y15638D01*
X267759D01*
Y16037D01*
X266959D01*
Y15638D01*
X266559D01*
Y14838D01*
X266959D01*
X260559D02*
Y14437D01*
X261359D01*
Y14838D01*
X261759D01*
Y15638D01*
X261359D01*
Y16037D01*
X260559D01*
Y15638D01*
X260159D01*
Y14838D01*
X260559D01*
X247759D02*
Y14437D01*
X248559D01*
Y14838D01*
X248959D01*
Y15638D01*
X248559D01*
Y16037D01*
X247759D01*
Y15638D01*
X247359D01*
Y14838D01*
X247759D01*
X244559D02*
Y14437D01*
X245359D01*
Y14838D01*
X245759D01*
Y15638D01*
X245359D01*
Y16037D01*
X244559D01*
Y15638D01*
X244159D01*
Y14838D01*
X244559D01*
X225359D02*
Y14437D01*
X226159D01*
Y14838D01*
X226559D01*
Y15638D01*
X226159D01*
Y16037D01*
X225359D01*
Y15638D01*
X224959D01*
Y14838D01*
X225359D01*
X209359D02*
Y14437D01*
X210159D01*
Y14838D01*
X210559D01*
Y15638D01*
X210159D01*
Y16037D01*
X209359D01*
Y15638D01*
X208959D01*
Y14838D01*
X209359D01*
X202959D02*
Y14437D01*
X203759D01*
Y14838D01*
X204159D01*
Y15638D01*
X203759D01*
Y16037D01*
X202959D01*
Y15638D01*
X202559D01*
Y14838D01*
X202959D01*
X193359D02*
Y14437D01*
X194159D01*
Y14838D01*
X194559D01*
Y15638D01*
X194159D01*
Y16037D01*
X193359D01*
Y15638D01*
X192959D01*
Y14838D01*
X193359D01*
X181159Y38838D02*
Y38438D01*
X181959D01*
Y38838D01*
X182359D01*
Y39638D01*
X181959D01*
Y40038D01*
X181159D01*
Y39638D01*
X180759D01*
Y38838D01*
X181159D01*
X250459Y35838D02*
Y35438D01*
X251259D01*
Y35838D01*
X251659D01*
Y36637D01*
X251259D01*
Y37038D01*
X250459D01*
Y36637D01*
X250059D01*
Y35838D01*
X250459D01*
X250959Y43837D02*
Y43437D01*
X251759D01*
Y43837D01*
X252159D01*
Y44638D01*
X251759D01*
Y45037D01*
X250959D01*
Y44638D01*
X250559D01*
Y43837D01*
X250959D01*
X253559Y40437D02*
Y40038D01*
X254359D01*
Y40437D01*
X254759D01*
Y41238D01*
X254359D01*
Y41638D01*
X253559D01*
Y41238D01*
X253159D01*
Y40437D01*
X253559D01*
X250759Y41238D02*
Y40837D01*
X251559D01*
Y41238D01*
X251959D01*
Y42037D01*
X251559D01*
Y42437D01*
X250759D01*
Y42037D01*
X250359D01*
Y41238D01*
X250759D01*
X214759Y74638D02*
Y74238D01*
X215559D01*
Y74638D01*
X215959D01*
Y75437D01*
X215559D01*
Y75837D01*
X214759D01*
Y75437D01*
X214359D01*
Y74638D01*
X214759D01*
X166859Y104737D02*
Y104338D01*
X167659D01*
Y104737D01*
X168059D01*
Y105537D01*
X167659D01*
Y105938D01*
X166859D01*
Y105537D01*
X166459D01*
Y104737D01*
X166859D01*
X267559Y66738D02*
Y66338D01*
X268359D01*
Y66738D01*
X268759D01*
Y67537D01*
X268359D01*
Y67937D01*
X267559D01*
Y67537D01*
X267159D01*
Y66738D01*
X267559D01*
X210571Y117037D02*
Y116638D01*
X211371D01*
Y117037D01*
X211771D01*
Y117838D01*
X211371D01*
Y118237D01*
X210571D01*
Y117838D01*
X210171D01*
Y117037D01*
X210571D01*
X192956Y119845D02*
Y119446D01*
X193756D01*
Y119845D01*
X194156D01*
Y120645D01*
X193756D01*
Y121045D01*
X192956D01*
Y120645D01*
X192556D01*
Y119845D01*
X192956D01*
X206971Y60037D02*
Y59637D01*
X207771D01*
Y60037D01*
X208171D01*
Y60838D01*
X207771D01*
Y61238D01*
X206971D01*
Y60838D01*
X206571D01*
Y60037D01*
X206971D01*
X253559Y101237D02*
Y100838D01*
X254359D01*
Y101237D01*
X254759D01*
Y102038D01*
X254359D01*
Y102437D01*
X253559D01*
Y102038D01*
X253159D01*
Y101237D01*
X253559D01*
X315877Y122383D02*
Y121984D01*
X316677D01*
Y122383D01*
X317077D01*
Y123184D01*
X316677D01*
Y123583D01*
X315877D01*
Y123184D01*
X315477D01*
Y122383D01*
X315877D01*
X267359Y48838D02*
Y48438D01*
X268159D01*
Y48838D01*
X268559D01*
Y49637D01*
X268159D01*
Y50037D01*
X267359D01*
Y49637D01*
X266959D01*
Y48838D01*
X267359D01*
X267059Y52438D02*
Y52038D01*
X267859D01*
Y52438D01*
X268259D01*
Y53237D01*
X267859D01*
Y53637D01*
X267059D01*
Y53237D01*
X266659D01*
Y52438D01*
X267059D01*
X214171Y31238D02*
Y30838D01*
X214971D01*
Y31238D01*
X215371D01*
Y32037D01*
X214971D01*
Y32438D01*
X214171D01*
Y32037D01*
X213771D01*
Y31238D01*
X214171D01*
X224671Y19737D02*
Y19338D01*
X225471D01*
Y19737D01*
X225871D01*
Y20538D01*
X225471D01*
Y20937D01*
X224671D01*
Y20538D01*
X224271D01*
Y19737D01*
X224671D01*
X218971Y21637D02*
Y21238D01*
X219771D01*
Y21637D01*
X220171D01*
Y22437D01*
X219771D01*
Y22838D01*
X218971D01*
Y22437D01*
X218571D01*
Y21637D01*
X218971D01*
X222571Y61238D02*
Y60838D01*
X223371D01*
Y61238D01*
X223771D01*
Y62037D01*
X223371D01*
Y62437D01*
X222571D01*
Y62037D01*
X222171D01*
Y61238D01*
X222571D01*
X310559Y100738D02*
Y100338D01*
X311359D01*
Y100738D01*
X311759D01*
Y101538D01*
X311359D01*
Y101937D01*
X310559D01*
Y101538D01*
X310159D01*
Y100738D01*
X310559D01*
X314359Y82038D02*
Y81638D01*
X315159D01*
Y82038D01*
X315559D01*
Y82837D01*
X315159D01*
Y83237D01*
X314359D01*
Y82837D01*
X313959D01*
Y82038D01*
X314359D01*
X273959Y85738D02*
Y85338D01*
X274759D01*
Y85738D01*
X275159D01*
Y86537D01*
X274759D01*
Y86937D01*
X273959D01*
Y86537D01*
X273559D01*
Y85738D01*
X273959D01*
X276277Y81646D02*
Y81245D01*
X277077D01*
Y81646D01*
X277477D01*
Y82446D01*
X277077D01*
Y82845D01*
X276277D01*
Y82446D01*
X275877D01*
Y81646D01*
X276277D01*
X265959Y84637D02*
Y84237D01*
X266759D01*
Y84637D01*
X267159D01*
Y85438D01*
X266759D01*
Y85838D01*
X265959D01*
Y85438D01*
X265559D01*
Y84637D01*
X265959D01*
X227359Y129037D02*
Y128638D01*
X228159D01*
Y129037D01*
X228559D01*
Y129838D01*
X228159D01*
Y130237D01*
X227359D01*
Y129838D01*
X226959D01*
Y129037D01*
X227359D01*
X179759Y122837D02*
Y122438D01*
X180559D01*
Y122837D01*
X180959D01*
Y123637D01*
X180559D01*
Y124038D01*
X179759D01*
Y123637D01*
X179359D01*
Y122837D01*
X179759D01*
X178614Y119469D02*
Y119070D01*
X179414D01*
Y119469D01*
X179814D01*
Y120270D01*
X179414D01*
Y120669D01*
X178614D01*
Y120270D01*
X178214D01*
Y119469D01*
X178614D01*
X178171Y112838D02*
Y112437D01*
X178971D01*
Y112838D01*
X179371D01*
Y113637D01*
X178971D01*
Y114038D01*
X178171D01*
Y113637D01*
X177771D01*
Y112838D01*
X178171D01*
X167559Y129838D02*
Y129437D01*
X168359D01*
Y129838D01*
X168759D01*
Y130638D01*
X168359D01*
Y131037D01*
X167559D01*
Y130638D01*
X167159D01*
Y129838D01*
X167559D01*
X187771Y64837D02*
Y64438D01*
X188571D01*
Y64837D01*
X188971D01*
Y65637D01*
X188571D01*
Y66037D01*
X187771D01*
Y65637D01*
X187371D01*
Y64837D01*
X187771D01*
X252859Y83538D02*
Y83138D01*
X253659D01*
Y83538D01*
X254059D01*
Y84338D01*
X253659D01*
Y84737D01*
X252859D01*
Y84338D01*
X252459D01*
Y83538D01*
X252859D01*
X259771Y88837D02*
Y88437D01*
X260571D01*
Y88837D01*
X260971D01*
Y89638D01*
X260571D01*
Y90038D01*
X259771D01*
Y89638D01*
X259371D01*
Y88837D01*
X259771D01*
X254971D02*
Y88437D01*
X255771D01*
Y88837D01*
X256171D01*
Y89638D01*
X255771D01*
Y90038D01*
X254971D01*
Y89638D01*
X254571D01*
Y88837D01*
X254971D01*
X257059Y83938D02*
Y83538D01*
X257859D01*
Y83938D01*
X258259D01*
Y84737D01*
X257859D01*
Y85137D01*
X257059D01*
Y84737D01*
X256659D01*
Y83938D01*
X257059D01*
X167559Y121037D02*
Y120638D01*
X168359D01*
Y121037D01*
X168759D01*
Y121837D01*
X168359D01*
Y122238D01*
X167559D01*
Y121837D01*
X167159D01*
Y121037D01*
X167559D01*
X275471Y62337D02*
Y61937D01*
X276271D01*
Y62337D01*
X276671D01*
Y63138D01*
X276271D01*
Y63538D01*
X275471D01*
Y63138D01*
X275071D01*
Y62337D01*
X275471D01*
X274459Y72502D02*
Y72102D01*
X275259D01*
Y72502D01*
X275659D01*
Y73303D01*
X275259D01*
Y73703D01*
X274459D01*
Y73303D01*
X274059D01*
Y72502D01*
X274459D01*
X214959Y85838D02*
Y85438D01*
X215759D01*
Y85838D01*
X216159D01*
Y86638D01*
X215759D01*
Y87037D01*
X214959D01*
Y86638D01*
X214559D01*
Y85838D01*
X214959D01*
X214559Y92238D02*
Y91838D01*
X215359D01*
Y92238D01*
X215759D01*
Y93037D01*
X215359D01*
Y93437D01*
X214559D01*
Y93037D01*
X214159D01*
Y92238D01*
X214559D01*
X228571Y26438D02*
Y26037D01*
X229371D01*
Y26438D01*
X229771D01*
Y27237D01*
X229371D01*
Y27637D01*
X228571D01*
Y27237D01*
X228171D01*
Y26438D01*
X228571D01*
X178171Y79238D02*
Y78838D01*
X178971D01*
Y79238D01*
X179371D01*
Y80037D01*
X178971D01*
Y80437D01*
X178171D01*
Y80037D01*
X177771D01*
Y79238D01*
X178171D01*
X213259Y117237D02*
Y116838D01*
X214059D01*
Y117237D01*
X214459D01*
Y118037D01*
X214059D01*
Y118438D01*
X213259D01*
Y118037D01*
X212859D01*
Y117237D01*
X213259D01*
X253959Y43338D02*
Y42937D01*
X254759D01*
Y43338D01*
X255159D01*
Y44137D01*
X254759D01*
Y44537D01*
X253959D01*
Y44137D01*
X253559D01*
Y43338D01*
X253959D01*
X254059Y47938D02*
Y47537D01*
X254859D01*
Y47938D01*
X255259D01*
Y48737D01*
X254859D01*
Y49137D01*
X254059D01*
Y48737D01*
X253659D01*
Y47938D01*
X254059D01*
X203959Y110038D02*
Y109637D01*
X204759D01*
Y110038D01*
X205159D01*
Y110837D01*
X204759D01*
Y111238D01*
X203959D01*
Y110837D01*
X203559D01*
Y110038D01*
X203959D01*
X255537Y129150D02*
Y128751D01*
X256337D01*
Y129150D01*
X256737D01*
Y129950D01*
X256337D01*
Y130350D01*
X255537D01*
Y129950D01*
X255137D01*
Y129150D01*
X255537D01*
X260721Y128760D02*
Y128359D01*
X261521D01*
Y128760D01*
X261921D01*
Y129560D01*
X261521D01*
Y129959D01*
X260721D01*
Y129560D01*
X260321D01*
Y128760D01*
X260721D01*
X279757Y128838D02*
Y128437D01*
X280557D01*
Y128838D01*
X280957D01*
Y129638D01*
X280557D01*
Y130037D01*
X279757D01*
Y129638D01*
X279357D01*
Y128838D01*
X279757D01*
X284531Y128779D02*
Y128378D01*
X285331D01*
Y128779D01*
X285731D01*
Y129578D01*
X285331D01*
Y129979D01*
X284531D01*
Y129578D01*
X284131D01*
Y128779D01*
X284531D01*
X294039Y128798D02*
Y128399D01*
X294839D01*
Y128798D01*
X295239D01*
Y129598D01*
X294839D01*
Y129999D01*
X294039D01*
Y129598D01*
X293639D01*
Y128798D01*
X294039D01*
X181059Y91537D02*
Y91137D01*
X181859D01*
Y91537D01*
X182259D01*
Y92338D01*
X181859D01*
Y92738D01*
X181059D01*
Y92338D01*
X180659D01*
Y91537D01*
X181059D01*
X298911Y128760D02*
Y128359D01*
X299711D01*
Y128760D01*
X300111D01*
Y129560D01*
X299711D01*
Y129959D01*
X298911D01*
Y129560D01*
X298511D01*
Y128760D01*
X298911D01*
X310481Y127323D02*
Y126924D01*
X311281D01*
Y127323D01*
X311681D01*
Y128123D01*
X311281D01*
Y128524D01*
X310481D01*
Y128123D01*
X310081D01*
Y127323D01*
X310481D01*
X307771Y122438D02*
Y122037D01*
X308571D01*
Y122438D01*
X308971D01*
Y123238D01*
X308571D01*
Y123637D01*
X307771D01*
Y123238D01*
X307371D01*
Y122438D01*
X307771D01*
X306757Y117672D02*
Y117271D01*
X307557D01*
Y117672D01*
X307957D01*
Y118472D01*
X307557D01*
Y118871D01*
X306757D01*
Y118472D01*
X306357D01*
Y117672D01*
X306757D01*
X311959Y116437D02*
Y116037D01*
X312759D01*
Y116437D01*
X313159D01*
Y117237D01*
X312759D01*
Y117638D01*
X311959D01*
Y117237D01*
X311559D01*
Y116437D01*
X311959D01*
X307559Y94037D02*
Y93638D01*
X308359D01*
Y94037D01*
X308759D01*
Y94837D01*
X308359D01*
Y95237D01*
X307559D01*
Y94837D01*
X307159D01*
Y94037D01*
X307559D01*
X182977Y94565D02*
Y94165D01*
X183777D01*
Y94565D01*
X184177D01*
Y95366D01*
X183777D01*
Y95766D01*
X182977D01*
Y95366D01*
X182577D01*
Y94565D01*
X182977D01*
X184459Y97338D02*
Y96938D01*
X185259D01*
Y97338D01*
X185659D01*
Y98137D01*
X185259D01*
Y98537D01*
X184459D01*
Y98137D01*
X184059D01*
Y97338D01*
X184459D01*
X223159Y129037D02*
Y128638D01*
X223959D01*
Y129037D01*
X224359D01*
Y129838D01*
X223959D01*
Y130237D01*
X223159D01*
Y129838D01*
X222759D01*
Y129037D01*
X223159D01*
X219518Y129171D02*
Y128770D01*
X220318D01*
Y129171D01*
X220718D01*
Y129971D01*
X220318D01*
Y130370D01*
X219518D01*
Y129971D01*
X219118D01*
Y129171D01*
X219518D01*
X178171Y55238D02*
Y54838D01*
X178971D01*
Y55238D01*
X179371D01*
Y56037D01*
X178971D01*
Y56437D01*
X178171D01*
Y56037D01*
X177771D01*
Y55238D01*
X178171D01*
Y84038D02*
Y83637D01*
X178971D01*
Y84038D01*
X179371D01*
Y84838D01*
X178971D01*
Y85237D01*
X178171D01*
Y84838D01*
X177771D01*
Y84038D01*
X178171D01*
X181371Y74437D02*
Y74037D01*
X182171D01*
Y74437D01*
X182571D01*
Y75238D01*
X182171D01*
Y75638D01*
X181371D01*
Y75238D01*
X180971D01*
Y74437D01*
X181371D01*
X205549Y129131D02*
Y128732D01*
X206349D01*
Y129131D01*
X206749D01*
Y129931D01*
X206349D01*
Y130332D01*
X205549D01*
Y129931D01*
X205149D01*
Y129131D01*
X205549D01*
X200678D02*
Y128732D01*
X201478D01*
Y129131D01*
X201878D01*
Y129931D01*
X201478D01*
Y130332D01*
X200678D01*
Y129931D01*
X200278D01*
Y129131D01*
X200678D01*
X190993Y129014D02*
Y128613D01*
X191793D01*
Y129014D01*
X192193D01*
Y129814D01*
X191793D01*
Y130213D01*
X190993D01*
Y129814D01*
X190593D01*
Y129014D01*
X190993D01*
X186240Y129034D02*
Y128633D01*
X187040D01*
Y129034D01*
X187440D01*
Y129833D01*
X187040D01*
Y130234D01*
X186240D01*
Y129833D01*
X185840D01*
Y129034D01*
X186240D01*
X298171Y26438D02*
Y26037D01*
X298971D01*
Y26438D01*
X299371D01*
Y27237D01*
X298971D01*
Y27637D01*
X298171D01*
Y27237D01*
X297771D01*
Y26438D01*
X298171D01*
X271771Y57638D02*
Y57237D01*
X272571D01*
Y57638D01*
X272971D01*
Y58438D01*
X272571D01*
Y58837D01*
X271771D01*
Y58438D01*
X271371D01*
Y57638D01*
X271771D01*
X269371Y45638D02*
Y45237D01*
X270171D01*
Y45638D01*
X270571D01*
Y46437D01*
X270171D01*
Y46837D01*
X269371D01*
Y46437D01*
X268971D01*
Y45638D01*
X269371D01*
X264571Y36037D02*
Y35638D01*
X265371D01*
Y36037D01*
X265771D01*
Y36838D01*
X265371D01*
Y37238D01*
X264571D01*
Y36838D01*
X264171D01*
Y36037D01*
X264571D01*
X260571Y65137D02*
Y64737D01*
X261371D01*
Y65137D01*
X261771D01*
Y65938D01*
X261371D01*
Y66338D01*
X260571D01*
Y65938D01*
X260171D01*
Y65137D01*
X260571D01*
X259771Y57638D02*
Y57237D01*
X260571D01*
Y57638D01*
X260971D01*
Y58438D01*
X260571D01*
Y58837D01*
X259771D01*
Y58438D01*
X259371D01*
Y57638D01*
X259771D01*
X178171Y50437D02*
Y50037D01*
X178971D01*
Y50437D01*
X179371D01*
Y51237D01*
X178971D01*
Y51638D01*
X178171D01*
Y51237D01*
X177771D01*
Y50437D01*
X178171D01*
X253659Y38438D02*
Y38037D01*
X254459D01*
Y38438D01*
X254859D01*
Y39237D01*
X254459D01*
Y39638D01*
X253659D01*
Y39237D01*
X253259D01*
Y38438D01*
X253659D01*
X247871Y28938D02*
Y28537D01*
X248671D01*
Y28938D01*
X249071D01*
Y29737D01*
X248671D01*
Y30138D01*
X247871D01*
Y29737D01*
X247471D01*
Y28938D01*
X247871D01*
X242183Y26856D02*
Y26456D01*
X242983D01*
Y26856D01*
X243383D01*
Y27656D01*
X242983D01*
Y28056D01*
X242183D01*
Y27656D01*
X241783D01*
Y26856D01*
X242183D01*
X197371Y88837D02*
Y88437D01*
X198171D01*
Y88837D01*
X198571D01*
Y89638D01*
X198171D01*
Y90038D01*
X197371D01*
Y89638D01*
X196971D01*
Y88837D01*
X197371D01*
X246708Y26122D02*
Y25721D01*
X247508D01*
Y26122D01*
X247908D01*
Y26921D01*
X247508D01*
Y27321D01*
X246708D01*
Y26921D01*
X246308D01*
Y26122D01*
X246708D01*
X187771Y79238D02*
Y78838D01*
X188571D01*
Y79238D01*
X188971D01*
Y80037D01*
X188571D01*
Y80437D01*
X187771D01*
Y80037D01*
X187371D01*
Y79238D01*
X187771D01*
X298171Y31238D02*
Y30838D01*
X298971D01*
Y31238D01*
X299371D01*
Y32037D01*
X298971D01*
Y32438D01*
X298171D01*
Y32037D01*
X297771D01*
Y31238D01*
X298171D01*
X251659Y59338D02*
Y58938D01*
X252459D01*
Y59338D01*
X252859D01*
Y60137D01*
X252459D01*
Y60537D01*
X251659D01*
Y60137D01*
X251259D01*
Y59338D01*
X251659D01*
X192571Y79238D02*
Y78838D01*
X193371D01*
Y79238D01*
X193771D01*
Y80037D01*
X193371D01*
Y80437D01*
X192571D01*
Y80037D01*
X192171D01*
Y79238D01*
X192571D01*
X222571Y71438D02*
Y71038D01*
X223371D01*
Y71438D01*
X223771D01*
Y72237D01*
X223371D01*
Y72637D01*
X222571D01*
Y72237D01*
X222171D01*
Y71438D01*
X222571D01*
X259771Y76837D02*
Y76437D01*
X260571D01*
Y76837D01*
X260971D01*
Y77637D01*
X260571D01*
Y78038D01*
X259771D01*
Y77637D01*
X259371D01*
Y76837D01*
X259771D01*
X264459Y68338D02*
Y67937D01*
X265259D01*
Y68338D01*
X265659D01*
Y69138D01*
X265259D01*
Y69538D01*
X264459D01*
Y69138D01*
X264059D01*
Y68338D01*
X264459D01*
X238462Y69602D02*
Y69201D01*
X239262D01*
Y69602D01*
X239662D01*
Y70402D01*
X239262D01*
Y70802D01*
X238462D01*
Y70402D01*
X238062D01*
Y69602D01*
X238462D01*
X192571Y84038D02*
Y83637D01*
X193371D01*
Y84038D01*
X193771D01*
Y84838D01*
X193371D01*
Y85237D01*
X192571D01*
Y84838D01*
X192171D01*
Y84038D01*
X192571D01*
X243676Y69581D02*
Y69181D01*
X244476D01*
Y69581D01*
X244876D01*
Y70381D01*
X244476D01*
Y70780D01*
X243676D01*
Y70381D01*
X243276D01*
Y69581D01*
X243676D01*
X253959Y69238D02*
Y68837D01*
X254759D01*
Y69238D01*
X255159D01*
Y70038D01*
X254759D01*
Y70438D01*
X253959D01*
Y70038D01*
X253559D01*
Y69238D01*
X253959D01*
X248489Y69581D02*
Y69181D01*
X249289D01*
Y69581D01*
X249689D01*
Y70381D01*
X249289D01*
Y70780D01*
X248489D01*
Y70381D01*
X248089D01*
Y69581D01*
X248489D01*
X245371Y57638D02*
Y57237D01*
X246171D01*
Y57638D01*
X246571D01*
Y58438D01*
X246171D01*
Y58837D01*
X245371D01*
Y58438D01*
X244971D01*
Y57638D01*
X245371D01*
X247871Y64538D02*
Y64138D01*
X248671D01*
Y64538D01*
X249071D01*
Y65338D01*
X248671D01*
Y65737D01*
X247871D01*
Y65338D01*
X247471D01*
Y64538D01*
X247871D01*
X244671D02*
Y64138D01*
X245471D01*
Y64538D01*
X245871D01*
Y65338D01*
X245471D01*
Y65737D01*
X244671D01*
Y65338D01*
X244271D01*
Y64538D01*
X244671D01*
X235071D02*
Y64138D01*
X235871D01*
Y64538D01*
X236271D01*
Y65338D01*
X235871D01*
Y65737D01*
X235071D01*
Y65338D01*
X234671D01*
Y64538D01*
X235071D01*
X233959Y69437D02*
Y69037D01*
X234759D01*
Y69437D01*
X235159D01*
Y70237D01*
X234759D01*
Y70638D01*
X233959D01*
Y70237D01*
X233559D01*
Y69437D01*
X233959D01*
X209371Y60037D02*
Y59637D01*
X210171D01*
Y60037D01*
X210571D01*
Y60838D01*
X210171D01*
Y61238D01*
X209371D01*
Y60838D01*
X208971D01*
Y60037D01*
X209371D01*
X187771Y84038D02*
Y83637D01*
X188571D01*
Y84038D01*
X188971D01*
Y84838D01*
X188571D01*
Y85237D01*
X187771D01*
Y84838D01*
X187371D01*
Y84038D01*
X187771D01*
X209371Y64837D02*
Y64438D01*
X210171D01*
Y64837D01*
X210571D01*
Y65637D01*
X210171D01*
Y66037D01*
X209371D01*
Y65637D01*
X208971D01*
Y64837D01*
X209371D01*
X200559Y50437D02*
Y50037D01*
X201359D01*
Y50437D01*
X201759D01*
Y51237D01*
X201359D01*
Y51638D01*
X200559D01*
Y51237D01*
X200159D01*
Y50437D01*
X200559D01*
X206971Y45638D02*
Y45237D01*
X207771D01*
Y45638D01*
X208171D01*
Y46437D01*
X207771D01*
Y46837D01*
X206971D01*
Y46437D01*
X206571D01*
Y45638D01*
X206971D01*
X264571Y40837D02*
Y40437D01*
X265371D01*
Y40837D01*
X265771D01*
Y41638D01*
X265371D01*
Y42037D01*
X264571D01*
Y41638D01*
X264171D01*
Y40837D01*
X264571D01*
X305465Y100190D02*
Y99791D01*
X306265D01*
Y100190D01*
X306665D01*
Y100990D01*
X306265D01*
Y101391D01*
X305465D01*
Y100990D01*
X305065D01*
Y100190D01*
X305465D01*
X207112Y37361D02*
Y36961D01*
X207912D01*
Y37361D01*
X208312D01*
Y38160D01*
X207912D01*
Y38561D01*
X207112D01*
Y38160D01*
X206712D01*
Y37361D01*
X207112D01*
X197371Y69638D02*
Y69238D01*
X198171D01*
Y69638D01*
X198571D01*
Y70438D01*
X198171D01*
Y70837D01*
X197371D01*
Y70438D01*
X196971D01*
Y69638D01*
X197371D01*
Y74437D02*
Y74037D01*
X198171D01*
Y74437D01*
X198571D01*
Y75238D01*
X198171D01*
Y75638D01*
X197371D01*
Y75238D01*
X196971D01*
Y74437D01*
X197371D01*
X218971Y26438D02*
Y26037D01*
X219771D01*
Y26438D01*
X220171D01*
Y27237D01*
X219771D01*
Y27637D01*
X218971D01*
Y27237D01*
X218571D01*
Y26438D01*
X218971D01*
X223771D02*
Y26037D01*
X224571D01*
Y26438D01*
X224971D01*
Y27237D01*
X224571D01*
Y27637D01*
X223771D01*
Y27237D01*
X223371D01*
Y26438D01*
X223771D01*
X218271Y19737D02*
Y19338D01*
X219071D01*
Y19737D01*
X219471D01*
Y20538D01*
X219071D01*
Y20937D01*
X218271D01*
Y20538D01*
X217871D01*
Y19737D01*
X218271D01*
X166959Y110238D02*
Y109837D01*
X167759D01*
Y110238D01*
X168159D01*
Y111038D01*
X167759D01*
Y111437D01*
X166959D01*
Y111038D01*
X166559D01*
Y110238D01*
X166959D01*
X178959Y110038D02*
Y109637D01*
X179759D01*
Y110038D01*
X180159D01*
Y110837D01*
X179759D01*
Y111238D01*
X178959D01*
Y110837D01*
X178559D01*
Y110038D01*
X178959D01*
X167159Y107638D02*
Y107238D01*
X167959D01*
Y107638D01*
X168359D01*
Y108438D01*
X167959D01*
Y108837D01*
X167159D01*
Y108438D01*
X166759D01*
Y107638D01*
X167159D01*
X166559Y98438D02*
Y98037D01*
X167359D01*
Y98438D01*
X167759D01*
Y99238D01*
X167359D01*
Y99638D01*
X166559D01*
Y99238D01*
X166159D01*
Y98438D01*
X166559D01*
X171259Y67637D02*
Y67238D01*
X172059D01*
Y67637D01*
X172459D01*
Y68437D01*
X172059D01*
Y68837D01*
X171259D01*
Y68437D01*
X170859D01*
Y67637D01*
X171259D01*
X170659Y61838D02*
Y61437D01*
X171459D01*
Y61838D01*
X171859D01*
Y62638D01*
X171459D01*
Y63038D01*
X170659D01*
Y62638D01*
X170259D01*
Y61838D01*
X170659D01*
X168738Y58558D02*
Y58158D01*
X169538D01*
Y58558D01*
X169938D01*
Y59359D01*
X169538D01*
Y59759D01*
X168738D01*
Y59359D01*
X168338D01*
Y58558D01*
X168738D01*
X181371Y69638D02*
Y69238D01*
X182171D01*
Y69638D01*
X182571D01*
Y70438D01*
X182171D01*
Y70837D01*
X181371D01*
Y70438D01*
X180971D01*
Y69638D01*
X181371D01*
X173399Y41743D02*
Y41342D01*
X174199D01*
Y41743D01*
X174599D01*
Y42542D01*
X174199D01*
Y42943D01*
X173399D01*
Y42542D01*
X172999D01*
Y41743D01*
X173399D01*
X181159Y35638D02*
Y35238D01*
X181959D01*
Y35638D01*
X182359D01*
Y36437D01*
X181959D01*
Y36838D01*
X181159D01*
Y36437D01*
X180759D01*
Y35638D01*
X181159D01*
X183911Y41781D02*
Y41381D01*
X184711D01*
Y41781D01*
X185111D01*
Y42581D01*
X184711D01*
Y42981D01*
X183911D01*
Y42581D01*
X183511D01*
Y41781D01*
X183911D01*
X188629Y41763D02*
Y41363D01*
X189429D01*
Y41763D01*
X189829D01*
Y42562D01*
X189429D01*
Y42963D01*
X188629D01*
Y42562D01*
X188229D01*
Y41763D01*
X188629D01*
X200171Y41447D02*
Y41047D01*
X200971D01*
Y41447D01*
X201371D01*
Y42248D01*
X200971D01*
Y42647D01*
X200171D01*
Y42248D01*
X199771D01*
Y41447D01*
X200171D01*
X209371Y31238D02*
Y30838D01*
X210171D01*
Y31238D01*
X210571D01*
Y32037D01*
X210171D01*
Y32438D01*
X209371D01*
Y32037D01*
X208971D01*
Y31238D01*
X209371D01*
X218971D02*
Y30838D01*
X219771D01*
Y31238D01*
X220171D01*
Y32037D01*
X219771D01*
Y32438D01*
X218971D01*
Y32037D01*
X218571D01*
Y31238D01*
X218971D01*
X214071Y45937D02*
Y45537D01*
X214871D01*
Y45937D01*
X215271D01*
Y46738D01*
X214871D01*
Y47137D01*
X214071D01*
Y46738D01*
X213671D01*
Y45937D01*
X214071D01*
X211771Y43837D02*
Y43437D01*
X212571D01*
Y43837D01*
X212971D01*
Y44638D01*
X212571D01*
Y45037D01*
X211771D01*
Y44638D01*
X211371D01*
Y43837D01*
X211771D01*
X209371Y40837D02*
Y40437D01*
X210171D01*
Y40837D01*
X210571D01*
Y41638D01*
X210171D01*
Y42037D01*
X209371D01*
Y41638D01*
X208971D01*
Y40837D01*
X209371D01*
X204752Y41840D02*
Y41440D01*
X205552D01*
Y41840D01*
X205952D01*
Y42641D01*
X205552D01*
Y43040D01*
X204752D01*
Y42641D01*
X204352D01*
Y41840D01*
X204752D01*
X206871Y33437D02*
Y33037D01*
X207671D01*
Y33437D01*
X208071D01*
Y34238D01*
X207671D01*
Y34637D01*
X206871D01*
Y34238D01*
X206471D01*
Y33437D01*
X206871D01*
Y29037D02*
Y28637D01*
X207671D01*
Y29037D01*
X208071D01*
Y29838D01*
X207671D01*
Y30237D01*
X206871D01*
Y29838D01*
X206471D01*
Y29037D01*
X206871D01*
X283771Y81638D02*
Y81238D01*
X284571D01*
Y81638D01*
X284971D01*
Y82437D01*
X284571D01*
Y82837D01*
X283771D01*
Y82437D01*
X283371D01*
Y81638D01*
X283771D01*
X285271Y74338D02*
Y73937D01*
X286071D01*
Y74338D01*
X286471D01*
Y75138D01*
X286071D01*
Y75538D01*
X285271D01*
Y75138D01*
X284871D01*
Y74338D01*
X285271D01*
X294271D02*
Y73937D01*
X295071D01*
Y74338D01*
X295471D01*
Y75138D01*
X295071D01*
Y75538D01*
X294271D01*
Y75138D01*
X293871D01*
Y74338D01*
X294271D01*
X300059Y77538D02*
Y77138D01*
X300859D01*
Y77538D01*
X301259D01*
Y78338D01*
X300859D01*
Y78737D01*
X300059D01*
Y78338D01*
X299659D01*
Y77538D01*
X300059D01*
X310959Y68437D02*
Y68037D01*
X311759D01*
Y68437D01*
X312159D01*
Y69238D01*
X311759D01*
Y69638D01*
X310959D01*
Y69238D01*
X310559D01*
Y68437D01*
X310959D01*
X305259Y67338D02*
Y66938D01*
X306059D01*
Y67338D01*
X306459D01*
Y68138D01*
X306059D01*
Y68537D01*
X305259D01*
Y68138D01*
X304859D01*
Y67338D01*
X305259D01*
X190971Y45638D02*
Y45237D01*
X191771D01*
Y45638D01*
X192171D01*
Y46437D01*
X191771D01*
Y46837D01*
X190971D01*
Y46437D01*
X190571D01*
Y45638D01*
X190971D01*
X262171Y31238D02*
Y30838D01*
X262971D01*
Y31238D01*
X263371D01*
Y32037D01*
X262971D01*
Y32438D01*
X262171D01*
Y32037D01*
X261771D01*
Y31238D01*
X262171D01*
X197371Y79238D02*
Y78838D01*
X198171D01*
Y79238D01*
X198571D01*
Y80037D01*
X198171D01*
Y80437D01*
X197371D01*
Y80037D01*
X196971D01*
Y79238D01*
X197371D01*
X289659Y41137D02*
Y40738D01*
X290459D01*
Y41137D01*
X290859D01*
Y41938D01*
X290459D01*
Y42338D01*
X289659D01*
Y41938D01*
X289259D01*
Y41137D01*
X289659D01*
X290971Y55238D02*
Y54838D01*
X291771D01*
Y55238D01*
X292171D01*
Y56037D01*
X291771D01*
Y56437D01*
X290971D01*
Y56037D01*
X290571D01*
Y55238D01*
X290971D01*
X286171Y50437D02*
Y50037D01*
X286971D01*
Y50437D01*
X287371D01*
Y51237D01*
X286971D01*
Y51638D01*
X286171D01*
Y51237D01*
X285771D01*
Y50437D01*
X286171D01*
X206471Y48237D02*
Y47837D01*
X207271D01*
Y48237D01*
X207671D01*
Y49038D01*
X207271D01*
Y49437D01*
X206471D01*
Y49038D01*
X206071D01*
Y48237D01*
X206471D01*
X276571Y31238D02*
Y30838D01*
X277371D01*
Y31238D01*
X277771D01*
Y32037D01*
X277371D01*
Y32438D01*
X276571D01*
Y32037D01*
X276171D01*
Y31238D01*
X276571D01*
X271771Y26438D02*
Y26037D01*
X272571D01*
Y26438D01*
X272971D01*
Y27237D01*
X272571D01*
Y27637D01*
X271771D01*
Y27237D01*
X271371D01*
Y26438D01*
X271771D01*
X274359Y28438D02*
Y28038D01*
X275159D01*
Y28438D01*
X275559D01*
Y29237D01*
X275159D01*
Y29638D01*
X274359D01*
Y29237D01*
X273959D01*
Y28438D01*
X274359D01*
X280171Y45638D02*
Y45237D01*
X280971D01*
Y45638D01*
X281371D01*
Y46437D01*
X280971D01*
Y46837D01*
X280171D01*
Y46437D01*
X279771D01*
Y45638D01*
X280171D01*
Y27637D02*
Y27237D01*
X280971D01*
Y27637D01*
X281371D01*
Y28438D01*
X280971D01*
Y28837D01*
X280171D01*
Y28438D01*
X279771D01*
Y27637D01*
X280171D01*
X195059Y92137D02*
Y91738D01*
X195859D01*
Y92137D01*
X196259D01*
Y92937D01*
X195859D01*
Y93338D01*
X195059D01*
Y92937D01*
X194659D01*
Y92137D01*
X195059D01*
X307059Y39538D02*
Y39138D01*
X307859D01*
Y39538D01*
X308259D01*
Y40337D01*
X307859D01*
Y40738D01*
X307059D01*
Y40337D01*
X306659D01*
Y39538D01*
X307059D01*
X302971Y31238D02*
Y30838D01*
X303771D01*
Y31238D01*
X304171D01*
Y32037D01*
X303771D01*
Y32438D01*
X302971D01*
Y32037D01*
X302571D01*
Y31238D01*
X302971D01*
X186959Y14838D02*
Y14437D01*
X187759D01*
Y14838D01*
X188159D01*
Y15638D01*
X187759D01*
Y16037D01*
X186959D01*
Y15638D01*
X186559D01*
Y14838D01*
X186959D01*
X307759Y34837D02*
Y34438D01*
X308559D01*
Y34837D01*
X308959D01*
Y35638D01*
X308559D01*
Y36037D01*
X307759D01*
Y35638D01*
X307359D01*
Y34837D01*
X307759D01*
X308159Y31038D02*
Y30637D01*
X308959D01*
Y31038D01*
X309359D01*
Y31837D01*
X308959D01*
Y32237D01*
X308159D01*
Y31837D01*
X307759D01*
Y31038D01*
X308159D01*
Y24637D02*
Y24238D01*
X308959D01*
Y24637D01*
X309359D01*
Y25438D01*
X308959D01*
Y25837D01*
X308159D01*
Y25438D01*
X307759D01*
Y24637D01*
X308159D01*
X302159Y14838D02*
Y14437D01*
X302959D01*
Y14838D01*
X303359D01*
Y15638D01*
X302959D01*
Y16037D01*
X302159D01*
Y15638D01*
X301759D01*
Y14838D01*
X302159D01*
X298959D02*
Y14437D01*
X299759D01*
Y14838D01*
X300159D01*
Y15638D01*
X299759D01*
Y16037D01*
X298959D01*
Y15638D01*
X298559D01*
Y14838D01*
X298959D01*
X286159D02*
Y14437D01*
X286959D01*
Y14838D01*
X287359D01*
Y15638D01*
X286959D01*
Y16037D01*
X286159D01*
Y15638D01*
X285759D01*
Y14838D01*
X286159D01*
X282959D02*
Y14437D01*
X283759D01*
Y14838D01*
X284159D01*
Y15638D01*
X283759D01*
Y16037D01*
X282959D01*
Y15638D01*
X282559D01*
Y14838D01*
X282959D01*
X273359D02*
Y14437D01*
X274159D01*
Y14838D01*
X274559D01*
Y15638D01*
X274159D01*
Y16037D01*
X273359D01*
Y15638D01*
X272959D01*
Y14838D01*
X273359D01*
X263759D02*
Y14437D01*
X264559D01*
Y14838D01*
X264959D01*
Y15638D01*
X264559D01*
Y16037D01*
X263759D01*
Y15638D01*
X263359D01*
Y14838D01*
X263759D01*
X257359D02*
Y14437D01*
X258159D01*
Y14838D01*
X258559D01*
Y15638D01*
X258159D01*
Y16037D01*
X257359D01*
Y15638D01*
X256959D01*
Y14838D01*
X257359D01*
X254159D02*
Y14437D01*
X254959D01*
Y14838D01*
X255359D01*
Y15638D01*
X254959D01*
Y16037D01*
X254159D01*
Y15638D01*
X253759D01*
Y14838D01*
X254159D01*
X241359D02*
Y14437D01*
X242159D01*
Y14838D01*
X242559D01*
Y15638D01*
X242159D01*
Y16037D01*
X241359D01*
Y15638D01*
X240959D01*
Y14838D01*
X241359D01*
X234959D02*
Y14437D01*
X235759D01*
Y14838D01*
X236159D01*
Y15638D01*
X235759D01*
Y16037D01*
X234959D01*
Y15638D01*
X234559D01*
Y14838D01*
X234959D01*
X228559D02*
Y14437D01*
X229359D01*
Y14838D01*
X229759D01*
Y15638D01*
X229359D01*
Y16037D01*
X228559D01*
Y15638D01*
X228159D01*
Y14838D01*
X228559D01*
X222159D02*
Y14437D01*
X222959D01*
Y14838D01*
X223359D01*
Y15638D01*
X222959D01*
Y16037D01*
X222159D01*
Y15638D01*
X221759D01*
Y14838D01*
X222159D01*
X289344Y128798D02*
Y128399D01*
X290144D01*
Y128798D01*
X290544D01*
Y129598D01*
X290144D01*
Y129999D01*
X289344D01*
Y129598D01*
X288944D01*
Y128798D01*
X289344D01*
X212559Y14838D02*
Y14437D01*
X213359D01*
Y14838D01*
X213759D01*
Y15638D01*
X213359D01*
Y16037D01*
X212559D01*
Y15638D01*
X212159D01*
Y14838D01*
X212559D01*
X181371Y64837D02*
Y64438D01*
X182171D01*
Y64837D01*
X182571D01*
Y65637D01*
X182171D01*
Y66037D01*
X181371D01*
Y65637D01*
X180971D01*
Y64837D01*
X181371D01*
X187771Y88837D02*
Y88437D01*
X188571D01*
Y88837D01*
X188971D01*
Y89638D01*
X188571D01*
Y90038D01*
X187771D01*
Y89638D01*
X187371D01*
Y88837D01*
X187771D01*
X195308Y34172D02*
Y33771D01*
X196108D01*
Y34172D01*
X196508D01*
Y34971D01*
X196108D01*
Y35372D01*
X195308D01*
Y34971D01*
X194908D01*
Y34172D01*
X195308D01*
X290671Y37837D02*
Y37437D01*
X291471D01*
Y37837D01*
X291871D01*
Y38638D01*
X291471D01*
Y39037D01*
X290671D01*
Y38638D01*
X290271D01*
Y37837D01*
X290671D01*
X178520Y125507D02*
Y125108D01*
X179320D01*
Y125507D01*
X179720D01*
Y126307D01*
X179320D01*
Y126707D01*
X178520D01*
Y126307D01*
X178120D01*
Y125507D01*
X178520D01*
X310959Y71637D02*
Y71237D01*
X311759D01*
Y71637D01*
X312159D01*
Y72438D01*
X311759D01*
Y72838D01*
X310959D01*
Y72438D01*
X310559D01*
Y71637D01*
X310959D01*
X315649Y117672D02*
Y117271D01*
X316449D01*
Y117672D01*
X316849D01*
Y118472D01*
X316449D01*
Y118871D01*
X315649D01*
Y118472D01*
X315249D01*
Y117672D01*
X315649D01*
X322359Y85537D02*
Y85137D01*
X323159D01*
Y85537D01*
X323559D01*
Y86338D01*
X323159D01*
Y86738D01*
X322359D01*
Y86338D01*
X321959D01*
Y85537D01*
X322359D01*
X314459Y94037D02*
Y93638D01*
X315259D01*
Y94037D01*
X315659D01*
Y94837D01*
X315259D01*
Y95237D01*
X314459D01*
Y94837D01*
X314059D01*
Y94037D01*
X314459D01*
X313559Y89438D02*
Y89038D01*
X314359D01*
Y89438D01*
X314759D01*
Y90237D01*
X314359D01*
Y90637D01*
X313559D01*
Y90237D01*
X313159D01*
Y89438D01*
X313559D01*
X317496Y92879D02*
Y92479D01*
X318296D01*
Y92879D01*
X318696D01*
Y93679D01*
X318296D01*
Y94080D01*
X317496D01*
Y93679D01*
X317096D01*
Y92879D01*
X317496D01*
X322359Y89938D02*
Y89538D01*
X323159D01*
Y89938D01*
X323559D01*
Y90737D01*
X323159D01*
Y91137D01*
X322359D01*
Y90737D01*
X321959D01*
Y89938D01*
X322359D01*
X318859Y107938D02*
Y107537D01*
X319659D01*
Y107938D01*
X320059D01*
Y108738D01*
X319659D01*
Y109137D01*
X318859D01*
Y108738D01*
X318459D01*
Y107938D01*
X318859D01*
X269371Y88837D02*
Y88437D01*
X270171D01*
Y88837D01*
X270571D01*
Y89638D01*
X270171D01*
Y90038D01*
X269371D01*
Y89638D01*
X268971D01*
Y88837D01*
X269371D01*
X322607Y103447D02*
Y103048D01*
X323407D01*
Y103447D01*
X323807D01*
Y104247D01*
X323407D01*
Y104648D01*
X322607D01*
Y104247D01*
X322207D01*
Y103447D01*
X322607D01*
X322462Y108414D02*
Y108013D01*
X323262D01*
Y108414D01*
X323662D01*
Y109213D01*
X323262D01*
Y109614D01*
X322462D01*
Y109213D01*
X322062D01*
Y108414D01*
X322462D01*
X322520Y113523D02*
Y113124D01*
X323320D01*
Y113523D01*
X323720D01*
Y114323D01*
X323320D01*
Y114724D01*
X322520D01*
Y114323D01*
X322120D01*
Y113523D01*
X322520D01*
X198571Y109238D02*
Y108837D01*
X199371D01*
Y109238D01*
X199771D01*
Y110038D01*
X199371D01*
Y110438D01*
X198571D01*
Y110038D01*
X198171D01*
Y109238D01*
X198571D01*
X318859Y118938D02*
Y118537D01*
X319659D01*
Y118938D01*
X320059D01*
Y119738D01*
X319659D01*
Y120138D01*
X318859D01*
Y119738D01*
X318459D01*
Y118938D01*
X318859D01*
X322462Y118778D02*
Y118377D01*
X323262D01*
Y118778D01*
X323662D01*
Y119578D01*
X323262D01*
Y119977D01*
X322462D01*
Y119578D01*
X322062D01*
Y118778D01*
X322462D01*
X251059Y129138D02*
Y128737D01*
X251859D01*
Y129138D01*
X252259D01*
Y129938D01*
X251859D01*
Y130338D01*
X251059D01*
Y129938D01*
X250659D01*
Y129138D01*
X251059D01*
X313959Y97438D02*
Y97038D01*
X314759D01*
Y97438D01*
X315159D01*
Y98238D01*
X314759D01*
Y98637D01*
X313959D01*
Y98238D01*
X313559D01*
Y97438D01*
X313959D01*
X271659Y120238D02*
Y119837D01*
X272459D01*
Y120238D01*
X272859D01*
Y121037D01*
X272459D01*
Y121438D01*
X271659D01*
Y121037D01*
X271259D01*
Y120238D01*
X271659D01*
X283259Y52938D02*
Y52538D01*
X284059D01*
Y52938D01*
X284459D01*
Y53737D01*
X284059D01*
Y54137D01*
X283259D01*
Y53737D01*
X282859D01*
Y52938D01*
X283259D01*
X181486Y129034D02*
Y128633D01*
X182286D01*
Y129034D01*
X182686D01*
Y129833D01*
X182286D01*
Y130234D01*
X181486D01*
Y129833D01*
X181086D01*
Y129034D01*
X181486D01*
X306659Y75037D02*
Y74638D01*
X307459D01*
Y75037D01*
X307859D01*
Y75837D01*
X307459D01*
Y76237D01*
X306659D01*
Y75837D01*
X306259D01*
Y75037D01*
X306659D01*
X250459Y97737D02*
Y97338D01*
X251259D01*
Y97737D01*
X251659D01*
Y98537D01*
X251259D01*
Y98937D01*
X250459D01*
Y98537D01*
X250059D01*
Y97737D01*
X250459D01*
X249959Y101538D02*
Y101137D01*
X250759D01*
Y101538D01*
X251159D01*
Y102338D01*
X250759D01*
Y102737D01*
X249959D01*
Y102338D01*
X249559D01*
Y101538D01*
X249959D01*
X245459Y102638D02*
Y102237D01*
X246259D01*
Y102638D01*
X246659D01*
Y103437D01*
X246259D01*
Y103838D01*
X245459D01*
Y103437D01*
X245059D01*
Y102638D01*
X245459D01*
X192351Y91492D02*
Y91092D01*
X193151D01*
Y91492D01*
X193551D01*
Y92291D01*
X193151D01*
Y92691D01*
X192351D01*
Y92291D01*
X191951D01*
Y91492D01*
X192351D01*
X298459Y98438D02*
Y98037D01*
X299259D01*
Y98438D01*
X299659D01*
Y99238D01*
X299259D01*
Y99638D01*
X298459D01*
Y99238D01*
X298059D01*
Y98438D01*
X298459D01*
X263059Y81337D02*
Y80937D01*
X263859D01*
Y81337D01*
X264259D01*
Y82138D01*
X263859D01*
Y82538D01*
X263059D01*
Y82138D01*
X262659D01*
Y81337D01*
X263059D01*
X283771Y122438D02*
Y122037D01*
X284571D01*
Y122438D01*
X284971D01*
Y123238D01*
X284571D01*
Y123637D01*
X283771D01*
Y123238D01*
X283371D01*
Y122438D01*
X283771D01*
X202171Y93638D02*
Y93238D01*
X202971D01*
Y93638D01*
X203371D01*
Y94437D01*
X202971D01*
Y94837D01*
X202171D01*
Y94437D01*
X201771D01*
Y93638D01*
X202171D01*
X181371Y79238D02*
Y78838D01*
X182171D01*
Y79238D01*
X182571D01*
Y80037D01*
X182171D01*
Y80437D01*
X181371D01*
Y80037D01*
X180971D01*
Y79238D01*
X181371D01*
X269371Y40837D02*
Y40437D01*
X270171D01*
Y40837D01*
X270571D01*
Y41638D01*
X270171D01*
Y42037D01*
X269371D01*
Y41638D01*
X268971D01*
Y40837D01*
X269371D01*
X174959Y84038D02*
Y83637D01*
X175759D01*
Y84038D01*
X176159D01*
Y84838D01*
X175759D01*
Y85237D01*
X174959D01*
Y84838D01*
X174559D01*
Y84038D01*
X174959D01*
X177609Y106837D02*
Y106438D01*
X178409D01*
Y106837D01*
X178809D01*
Y107638D01*
X178409D01*
Y108037D01*
X177609D01*
Y107638D01*
X177209D01*
Y106837D01*
X177609D01*
X187771Y117638D02*
Y117237D01*
X188571D01*
Y117638D01*
X188971D01*
Y118438D01*
X188571D01*
Y118837D01*
X187771D01*
Y118438D01*
X187371D01*
Y117638D01*
X187771D01*
X181371Y55238D02*
Y54838D01*
X182171D01*
Y55238D01*
X182571D01*
Y56037D01*
X182171D01*
Y56437D01*
X181371D01*
Y56037D01*
X180971D01*
Y55238D01*
X181371D01*
X188359Y108738D02*
Y108337D01*
X189159D01*
Y108738D01*
X189559D01*
Y109537D01*
X189159D01*
Y109938D01*
X188359D01*
Y109537D01*
X187959D01*
Y108738D01*
X188359D01*
X190971Y50437D02*
Y50037D01*
X191771D01*
Y50437D01*
X192171D01*
Y51237D01*
X191771D01*
Y51638D01*
X190971D01*
Y51237D01*
X190571D01*
Y50437D01*
X190971D01*
X272259Y44638D02*
Y44238D01*
X273059D01*
Y44638D01*
X273459D01*
Y45437D01*
X273059D01*
Y45838D01*
X272259D01*
Y45437D01*
X271859D01*
Y44638D01*
X272259D01*
X242971Y38438D02*
Y38037D01*
X243771D01*
Y38438D01*
X244171D01*
Y39237D01*
X243771D01*
Y39638D01*
X242971D01*
Y39237D01*
X242571D01*
Y38438D01*
X242971D01*
X240571Y40837D02*
Y40437D01*
X241371D01*
Y40837D01*
X241771D01*
Y41638D01*
X241371D01*
Y42037D01*
X240571D01*
Y41638D01*
X240171D01*
Y40837D01*
X240571D01*
X238171Y31238D02*
Y30838D01*
X238971D01*
Y31238D01*
X239371D01*
Y32037D01*
X238971D01*
Y32438D01*
X238171D01*
Y32037D01*
X237771D01*
Y31238D01*
X238171D01*
Y33637D02*
Y33237D01*
X238971D01*
Y33637D01*
X239371D01*
Y34438D01*
X238971D01*
Y34837D01*
X238171D01*
Y34438D01*
X237771D01*
Y33637D01*
X238171D01*
X192571Y74437D02*
Y74037D01*
X193371D01*
Y74437D01*
X193771D01*
Y75238D01*
X193371D01*
Y75638D01*
X192571D01*
Y75238D01*
X192171D01*
Y74437D01*
X192571D01*
X178171Y60037D02*
Y59637D01*
X178971D01*
Y60037D01*
X179371D01*
Y60838D01*
X178971D01*
Y61238D01*
X178171D01*
Y60838D01*
X177771D01*
Y60037D01*
X178171D01*
X294271Y71938D02*
Y71538D01*
X295071D01*
Y71938D01*
X295471D01*
Y72737D01*
X295071D01*
Y73137D01*
X294271D01*
Y72737D01*
X293871D01*
Y71938D01*
X294271D01*
X285271D02*
Y71538D01*
X286071D01*
Y71938D01*
X286471D01*
Y72737D01*
X286071D01*
Y73137D01*
X285271D01*
Y72737D01*
X284871D01*
Y71938D01*
X285271D01*
X181371Y50437D02*
Y50037D01*
X182171D01*
Y50437D01*
X182571D01*
Y51237D01*
X182171D01*
Y51638D01*
X181371D01*
Y51237D01*
X180971D01*
Y50437D01*
X181371D01*
Y45638D02*
Y45237D01*
X182171D01*
Y45638D01*
X182571D01*
Y46437D01*
X182171D01*
Y46837D01*
X181371D01*
Y46437D01*
X180971D01*
Y45638D01*
X181371D01*
X186382Y30088D02*
Y29688D01*
X187182D01*
Y30088D01*
X187582D01*
Y30887D01*
X187182D01*
Y31288D01*
X186382D01*
Y30887D01*
X185982D01*
Y30088D01*
X186382D01*
X187771Y60037D02*
Y59637D01*
X188571D01*
Y60037D01*
X188971D01*
Y60838D01*
X188571D01*
Y61238D01*
X187771D01*
Y60838D01*
X187371D01*
Y60037D01*
X187771D01*
X190971Y64837D02*
Y64438D01*
X191771D01*
Y64837D01*
X192171D01*
Y65637D01*
X191771D01*
Y66037D01*
X190971D01*
Y65637D01*
X190571D01*
Y64837D01*
X190971D01*
X197371D02*
Y64438D01*
X198171D01*
Y64837D01*
X198571D01*
Y65637D01*
X198171D01*
Y66037D01*
X197371D01*
Y65637D01*
X196971D01*
Y64837D01*
X197371D01*
Y50437D02*
Y50037D01*
X198171D01*
Y50437D01*
X198571D01*
Y51237D01*
X198171D01*
Y51638D01*
X197371D01*
Y51237D01*
X196971D01*
Y50437D01*
X197371D01*
X202171Y88837D02*
Y88437D01*
X202971D01*
Y88837D01*
X203371D01*
Y89638D01*
X202971D01*
Y90038D01*
X202171D01*
Y89638D01*
X201771D01*
Y88837D01*
X202171D01*
X250171D02*
Y88437D01*
X250971D01*
Y88837D01*
X251371D01*
Y89638D01*
X250971D01*
Y90038D01*
X250171D01*
Y89638D01*
X249771D01*
Y88837D01*
X250171D01*
X199459Y91537D02*
Y91137D01*
X200259D01*
Y91537D01*
X200659D01*
Y92338D01*
X200259D01*
Y92738D01*
X199459D01*
Y92338D01*
X199059D01*
Y91537D01*
X199459D01*
X202171Y79238D02*
Y78838D01*
X202971D01*
Y79238D01*
X203371D01*
Y80037D01*
X202971D01*
Y80437D01*
X202171D01*
Y80037D01*
X201771D01*
Y79238D01*
X202171D01*
X178171Y74437D02*
Y74037D01*
X178971D01*
Y74437D01*
X179371D01*
Y75238D01*
X178971D01*
Y75638D01*
X178171D01*
Y75238D01*
X177771D01*
Y74437D01*
X178171D01*
X182971Y84038D02*
Y83637D01*
X183771D01*
Y84038D01*
X184171D01*
Y84838D01*
X183771D01*
Y85237D01*
X182971D01*
Y84838D01*
X182571D01*
Y84038D01*
X182971D01*
Y88837D02*
Y88437D01*
X183771D01*
Y88837D01*
X184171D01*
Y89638D01*
X183771D01*
Y90038D01*
X182971D01*
Y89638D01*
X182571D01*
Y88837D01*
X182971D01*
X302971Y36037D02*
Y35638D01*
X303771D01*
Y36037D01*
X304171D01*
Y36838D01*
X303771D01*
Y37238D01*
X302971D01*
Y36838D01*
X302571D01*
Y36037D01*
X302971D01*
X230971Y98438D02*
Y98037D01*
X231771D01*
Y98438D01*
X232171D01*
Y99238D01*
X231771D01*
Y99638D01*
X230971D01*
Y99238D01*
X230571D01*
Y98438D01*
X230971D01*
Y45638D02*
Y45237D01*
X231771D01*
Y45638D01*
X232171D01*
Y46437D01*
X231771D01*
Y46837D01*
X230971D01*
Y46437D01*
X230571D01*
Y45638D01*
X230971D01*
Y40837D02*
Y40437D01*
X231771D01*
Y40837D01*
X232171D01*
Y41638D01*
X231771D01*
Y42037D01*
X230971D01*
Y41638D01*
X230571D01*
Y40837D01*
X230971D01*
X237759Y96337D02*
Y95938D01*
X238559D01*
Y96337D01*
X238959D01*
Y97137D01*
X238559D01*
Y97537D01*
X237759D01*
Y97137D01*
X237359D01*
Y96337D01*
X237759D01*
X302971Y122438D02*
Y122037D01*
X303771D01*
Y122438D01*
X304171D01*
Y123238D01*
X303771D01*
Y123637D01*
X302971D01*
Y123238D01*
X302571D01*
Y122438D01*
X302971D01*
X295799Y113647D02*
Y113248D01*
X296599D01*
Y113647D01*
X296999D01*
Y114447D01*
X296599D01*
Y114848D01*
X295799D01*
Y114447D01*
X295399D01*
Y113647D01*
X295799D01*
X269559Y73137D02*
Y72737D01*
X270359D01*
Y73137D01*
X270759D01*
Y73937D01*
X270359D01*
Y74338D01*
X269559D01*
Y73937D01*
X269159D01*
Y73137D01*
X269559D01*
X302971Y45638D02*
Y45237D01*
X303771D01*
Y45638D01*
X304171D01*
Y46437D01*
X303771D01*
Y46837D01*
X302971D01*
Y46437D01*
X302571D01*
Y45638D01*
X302971D01*
X269187Y69370D02*
Y68970D01*
X269987D01*
Y69370D01*
X270387D01*
Y70170D01*
X269987D01*
Y70569D01*
X269187D01*
Y70170D01*
X268787D01*
Y69370D01*
X269187D01*
X235771Y108037D02*
Y107638D01*
X236571D01*
Y108037D01*
X236971D01*
Y108837D01*
X236571D01*
Y109238D01*
X235771D01*
Y108837D01*
X235371D01*
Y108037D01*
X235771D01*
X243059Y129037D02*
Y128638D01*
X243859D01*
Y129037D01*
X244259D01*
Y129838D01*
X243859D01*
Y130237D01*
X243059D01*
Y129838D01*
X242659D01*
Y129037D01*
X243059D01*
X264571Y88837D02*
Y88437D01*
X265371D01*
Y88837D01*
X265771D01*
Y89638D01*
X265371D01*
Y90038D01*
X264571D01*
Y89638D01*
X264171D01*
Y88837D01*
X264571D01*
X175159Y92037D02*
Y91637D01*
X175959D01*
Y92037D01*
X176359D01*
Y92838D01*
X175959D01*
Y93238D01*
X175159D01*
Y92838D01*
X174759D01*
Y92037D01*
X175159D01*
X233371Y76837D02*
Y76437D01*
X234171D01*
Y76837D01*
X234571D01*
Y77637D01*
X234171D01*
Y78038D01*
X233371D01*
Y77637D01*
X232971D01*
Y76837D01*
X233371D01*
X177559Y100487D02*
Y100087D01*
X178359D01*
Y100487D01*
X178759D01*
Y101287D01*
X178359D01*
Y101688D01*
X177559D01*
Y101287D01*
X177159D01*
Y100487D01*
X177559D01*
X173359Y51837D02*
Y51437D01*
X174159D01*
Y51837D01*
X174559D01*
Y52637D01*
X174159D01*
Y53038D01*
X173359D01*
Y52637D01*
X172959D01*
Y51837D01*
X173359D01*
X239659Y98537D02*
Y98137D01*
X240459D01*
Y98537D01*
X240859D01*
Y99338D01*
X240459D01*
Y99738D01*
X239659D01*
Y99338D01*
X239259D01*
Y98537D01*
X239659D01*
X187771Y45638D02*
Y45237D01*
X188571D01*
Y45638D01*
X188971D01*
Y46437D01*
X188571D01*
Y46837D01*
X187771D01*
Y46437D01*
X187371D01*
Y45638D01*
X187771D01*
X300959Y54438D02*
Y54037D01*
X301759D01*
Y54438D01*
X302159D01*
Y55238D01*
X301759D01*
Y55638D01*
X300959D01*
Y55238D01*
X300559D01*
Y54438D01*
X300959D01*
X231759Y129138D02*
Y128737D01*
X232559D01*
Y129138D01*
X232959D01*
Y129938D01*
X232559D01*
Y130338D01*
X231759D01*
Y129938D01*
X231359D01*
Y129138D01*
X231759D01*
X234959Y103838D02*
Y103437D01*
X235759D01*
Y103838D01*
X236159D01*
Y104638D01*
X235759D01*
Y105037D01*
X234959D01*
Y104638D01*
X234559D01*
Y103838D01*
X234959D01*
X235771Y98438D02*
Y98037D01*
X236571D01*
Y98438D01*
X236971D01*
Y99238D01*
X236571D01*
Y99638D01*
X235771D01*
Y99238D01*
X235371D01*
Y98438D01*
X235771D01*
X233371Y31238D02*
Y30838D01*
X234171D01*
Y31238D01*
X234571D01*
Y32037D01*
X234171D01*
Y32438D01*
X233371D01*
Y32037D01*
X232971D01*
Y31238D01*
X233371D01*
X222571Y66637D02*
Y66237D01*
X223371D01*
Y66637D01*
X223771D01*
Y67437D01*
X223371D01*
Y67838D01*
X222571D01*
Y67437D01*
X222171D01*
Y66637D01*
X222571D01*
X230971Y108037D02*
Y107638D01*
X231771D01*
Y108037D01*
X232171D01*
Y108837D01*
X231771D01*
Y109238D01*
X230971D01*
Y108837D01*
X230571D01*
Y108037D01*
X230971D01*
X235771Y36037D02*
Y35638D01*
X236571D01*
Y36037D01*
X236971D01*
Y36838D01*
X236571D01*
Y37238D01*
X235771D01*
Y36838D01*
X235371D01*
Y36037D01*
X235771D01*
X202171Y74437D02*
Y74037D01*
X202971D01*
Y74437D01*
X203371D01*
Y75238D01*
X202971D01*
Y75638D01*
X202171D01*
Y75238D01*
X201771D01*
Y74437D01*
X202171D01*
X206971Y91237D02*
Y90838D01*
X207771D01*
Y91237D01*
X208171D01*
Y92037D01*
X207771D01*
Y92437D01*
X206971D01*
Y92037D01*
X206571D01*
Y91237D01*
X206971D01*
X197371Y55238D02*
Y54838D01*
X198171D01*
Y55238D01*
X198571D01*
Y56037D01*
X198171D01*
Y56437D01*
X197371D01*
Y56037D01*
X196971D01*
Y55238D01*
X197371D01*
X190959Y60037D02*
Y59637D01*
X191759D01*
Y60037D01*
X192159D01*
Y60838D01*
X191759D01*
Y61238D01*
X190959D01*
Y60838D01*
X190559D01*
Y60037D01*
X190959D01*
X187771Y55238D02*
Y54838D01*
X188571D01*
Y55238D01*
X188971D01*
Y56037D01*
X188571D01*
Y56437D01*
X187771D01*
Y56037D01*
X187371D01*
Y55238D01*
X187771D01*
X286471Y86137D02*
Y85738D01*
X287271D01*
Y86137D01*
X287671D01*
Y86937D01*
X287271D01*
Y87337D01*
X286471D01*
Y86937D01*
X286071D01*
Y86137D01*
X286471D01*
X288271Y71938D02*
Y71538D01*
X289071D01*
Y71938D01*
X289471D01*
Y72737D01*
X289071D01*
Y73137D01*
X288271D01*
Y72737D01*
X287871D01*
Y71938D01*
X288271D01*
X297271D02*
Y71538D01*
X298071D01*
Y71938D01*
X298471D01*
Y72737D01*
X298071D01*
Y73137D01*
X297271D01*
Y72737D01*
X296871D01*
Y71938D01*
X297271D01*
X181371Y60037D02*
Y59637D01*
X182171D01*
Y60037D01*
X182571D01*
Y60838D01*
X182171D01*
Y61238D01*
X181371D01*
Y60838D01*
X180971D01*
Y60037D01*
X181371D01*
X206971Y117037D02*
Y116638D01*
X207771D01*
Y117037D01*
X208171D01*
Y117838D01*
X207771D01*
Y118237D01*
X206971D01*
Y117838D01*
X206571D01*
Y117037D01*
X206971D01*
X183759Y14838D02*
Y14437D01*
X184559D01*
Y14838D01*
X184959D01*
Y15638D01*
X184559D01*
Y16037D01*
X183759D01*
Y15638D01*
X183359D01*
Y14838D01*
X183759D01*
X240571Y45638D02*
Y45237D01*
X241371D01*
Y45638D01*
X241771D01*
Y46437D01*
X241371D01*
Y46837D01*
X240571D01*
Y46437D01*
X240171D01*
Y45638D01*
X240571D01*
X238171Y38438D02*
Y38037D01*
X238971D01*
Y38438D01*
X239371D01*
Y39237D01*
X238971D01*
Y39638D01*
X238171D01*
Y39237D01*
X237771D01*
Y38438D01*
X238171D01*
X240571Y36037D02*
Y35638D01*
X241371D01*
Y36037D01*
X241771D01*
Y36838D01*
X241371D01*
Y37238D01*
X240571D01*
Y36838D01*
X240171D01*
Y36037D01*
X240571D01*
X235771Y45638D02*
Y45237D01*
X236571D01*
Y45638D01*
X236971D01*
Y46437D01*
X236571D01*
Y46837D01*
X235771D01*
Y46437D01*
X235371D01*
Y45638D01*
X235771D01*
X242971Y31238D02*
Y30838D01*
X243771D01*
Y31238D01*
X244171D01*
Y32037D01*
X243771D01*
Y32438D01*
X242971D01*
Y32037D01*
X242571D01*
Y31238D01*
X242971D01*
X299459Y117737D02*
Y117338D01*
X300259D01*
Y117737D01*
X300659D01*
Y118537D01*
X300259D01*
Y118938D01*
X299459D01*
Y118537D01*
X299059D01*
Y117737D01*
X299459D01*
X267059Y120837D02*
Y120438D01*
X267859D01*
Y120837D01*
X268259D01*
Y121637D01*
X267859D01*
Y122037D01*
X267059D01*
Y121637D01*
X266659D01*
Y120837D01*
X267059D01*
X274171Y122438D02*
Y122037D01*
X274971D01*
Y122438D01*
X275371D01*
Y123238D01*
X274971D01*
Y123637D01*
X274171D01*
Y123238D01*
X273771D01*
Y122438D01*
X274171D01*
X276659Y120238D02*
Y119837D01*
X277459D01*
Y120238D01*
X277859D01*
Y121037D01*
X277459D01*
Y121438D01*
X276659D01*
Y121037D01*
X276259D01*
Y120238D01*
X276659D01*
X272759Y75638D02*
Y75238D01*
X273559D01*
Y75638D01*
X273959D01*
Y76437D01*
X273559D01*
Y76837D01*
X272759D01*
Y76437D01*
X272359D01*
Y75638D01*
X272759D01*
X192571Y88837D02*
Y88437D01*
X193371D01*
Y88837D01*
X193771D01*
Y89638D01*
X193371D01*
Y90038D01*
X192571D01*
Y89638D01*
X192171D01*
Y88837D01*
X192571D01*
X317559Y83637D02*
Y83237D01*
X318359D01*
Y83637D01*
X318759D01*
Y84438D01*
X318359D01*
Y84838D01*
X317559D01*
Y84438D01*
X317159D01*
Y83637D01*
X317559D01*
X187771Y74437D02*
Y74037D01*
X188571D01*
Y74437D01*
X188971D01*
Y75238D01*
X188571D01*
Y75638D01*
X187771D01*
Y75238D01*
X187371D01*
Y74437D01*
X187771D01*
X237350Y26856D02*
Y26456D01*
X238150D01*
Y26856D01*
X238550D01*
Y27656D01*
X238150D01*
Y28056D01*
X237350D01*
Y27656D01*
X236950D01*
Y26856D01*
X237350D01*
X271359Y50437D02*
Y50037D01*
X272159D01*
Y50437D01*
X272559D01*
Y51237D01*
X272159D01*
Y51638D01*
X271359D01*
Y51237D01*
X270959D01*
Y50437D01*
X271359D01*
X283059Y29037D02*
Y28637D01*
X283859D01*
Y29037D01*
X284259D01*
Y29838D01*
X283859D01*
Y30237D01*
X283059D01*
Y29838D01*
X282659D01*
Y29037D01*
X283059D01*
X240571Y82837D02*
Y82437D01*
X241371D01*
Y82837D01*
X241771D01*
Y83637D01*
X241371D01*
Y84038D01*
X240571D01*
Y83637D01*
X240171D01*
Y82837D01*
X240571D01*
X199434Y29625D02*
Y29225D01*
X200234D01*
Y29625D01*
X200634D01*
Y30424D01*
X200234D01*
Y30825D01*
X199434D01*
Y30424D01*
X199034D01*
Y29625D01*
X199434D01*
X247659Y99638D02*
Y99238D01*
X248459D01*
Y99638D01*
X248859D01*
Y100437D01*
X248459D01*
Y100838D01*
X247659D01*
Y100437D01*
X247259D01*
Y99638D01*
X247659D01*
X304559Y74837D02*
Y74437D01*
X305359D01*
Y74837D01*
X305759D01*
Y75638D01*
X305359D01*
Y76038D01*
X304559D01*
Y75638D01*
X304159D01*
Y74837D01*
X304559D01*
X282759Y55738D02*
Y55338D01*
X283559D01*
Y55738D01*
X283959D01*
Y56537D01*
X283559D01*
Y56937D01*
X282759D01*
Y56537D01*
X282359D01*
Y55738D01*
X282759D01*
X190971Y55238D02*
Y54838D01*
X191771D01*
Y55238D01*
X192171D01*
Y56037D01*
X191771D01*
Y56437D01*
X190971D01*
Y56037D01*
X190571D01*
Y55238D01*
X190971D01*
X187771Y50437D02*
Y50037D01*
X188571D01*
Y50437D01*
X188971D01*
Y51237D01*
X188571D01*
Y51638D01*
X187771D01*
Y51237D01*
X187371D01*
Y50437D01*
X187771D01*
X246559Y129138D02*
Y128737D01*
X247359D01*
Y129138D01*
X247759D01*
Y129938D01*
X247359D01*
Y130338D01*
X246559D01*
Y129938D01*
X246159D01*
Y129138D01*
X246559D01*
X315739Y129395D02*
Y128996D01*
X316539D01*
Y129395D01*
X316939D01*
Y130195D01*
X316539D01*
Y130596D01*
X315739D01*
Y130195D01*
X315339D01*
Y129395D01*
X315739D01*
X317371Y127237D02*
Y126838D01*
X318171D01*
Y127237D01*
X318571D01*
Y128038D01*
X318171D01*
Y128437D01*
X317371D01*
Y128038D01*
X316971D01*
Y127237D01*
X317371D01*
X322491Y123628D02*
Y123229D01*
X323291D01*
Y123628D01*
X323691D01*
Y124428D01*
X323291D01*
Y124829D01*
X322491D01*
Y124428D01*
X322091D01*
Y123628D01*
X322491D01*
X319459Y101737D02*
Y101338D01*
X320259D01*
Y101737D01*
X320659D01*
Y102538D01*
X320259D01*
Y102937D01*
X319459D01*
Y102538D01*
X319059D01*
Y101737D01*
X319459D01*
X322491Y97789D02*
Y97388D01*
X323291D01*
Y97789D01*
X323691D01*
Y98589D01*
X323291D01*
Y98988D01*
X322491D01*
Y98589D01*
X322091D01*
Y97789D01*
X322491D01*
X322359Y94337D02*
Y93937D01*
X323159D01*
Y94337D01*
X323559D01*
Y95138D01*
X323159D01*
Y95538D01*
X322359D01*
Y95138D01*
X321959D01*
Y94337D01*
X322359D01*
X317607Y90048D02*
Y89648D01*
X318407D01*
Y90048D01*
X318807D01*
Y90847D01*
X318407D01*
Y91247D01*
X317607D01*
Y90847D01*
X317207D01*
Y90048D01*
X317607D01*
X319959Y78038D02*
Y77637D01*
X320759D01*
Y78038D01*
X321159D01*
Y78838D01*
X320759D01*
Y79238D01*
X319959D01*
Y78838D01*
X319559D01*
Y78038D01*
X319959D01*
X322359Y81138D02*
Y80738D01*
X323159D01*
Y81138D01*
X323559D01*
Y81937D01*
X323159D01*
Y82337D01*
X322359D01*
Y81937D01*
X321959D01*
Y81138D01*
X322359D01*
X322436Y73871D02*
Y73471D01*
X323236D01*
Y73871D01*
X323636D01*
Y74672D01*
X323236D01*
Y75072D01*
X322436D01*
Y74672D01*
X322036D01*
Y73871D01*
X322436D01*
X265593Y128779D02*
Y128378D01*
X266393D01*
Y128779D01*
X266793D01*
Y129578D01*
X266393D01*
Y129979D01*
X265593D01*
Y129578D01*
X265193D01*
Y128779D01*
X265593D01*
X320282Y66680D02*
Y66280D01*
X321082D01*
Y66680D01*
X321482D01*
Y67479D01*
X321082D01*
Y67879D01*
X320282D01*
Y67479D01*
X319882D01*
Y66680D01*
X320282D01*
X315159Y70038D02*
Y69638D01*
X315959D01*
Y70038D01*
X316359D01*
Y70837D01*
X315959D01*
Y71237D01*
X315159D01*
Y70837D01*
X314759D01*
Y70038D01*
X315159D01*
X318359Y114137D02*
Y113737D01*
X319159D01*
Y114137D01*
X319559D01*
Y114937D01*
X319159D01*
Y115338D01*
X318359D01*
Y114937D01*
X317959D01*
Y114137D01*
X318359D01*
X315953Y111212D02*
Y110811D01*
X316753D01*
Y111212D01*
X317153D01*
Y112012D01*
X316753D01*
Y112411D01*
X315953D01*
Y112012D01*
X315553D01*
Y111212D01*
X315953D01*
X311059Y90838D02*
Y90438D01*
X311859D01*
Y90838D01*
X312259D01*
Y91637D01*
X311859D01*
Y92037D01*
X311059D01*
Y91637D01*
X310659D01*
Y90838D01*
X311059D01*
X254759Y56537D02*
Y56138D01*
X255559D01*
Y56537D01*
X255959D01*
Y57337D01*
X255559D01*
Y57737D01*
X254759D01*
Y57337D01*
X254359D01*
Y56537D01*
X254759D01*
X178171Y45638D02*
Y45237D01*
X178971D01*
Y45638D01*
X179371D01*
Y46437D01*
X178971D01*
Y46837D01*
X178171D01*
Y46437D01*
X177771D01*
Y45638D01*
X178171D01*
X291271Y74338D02*
Y73937D01*
X292071D01*
Y74338D01*
X292471D01*
Y75138D01*
X292071D01*
Y75538D01*
X291271D01*
Y75138D01*
X290871D01*
Y74338D01*
X291271D01*
X288571Y76837D02*
Y76437D01*
X289371D01*
Y76837D01*
X289771D01*
Y77637D01*
X289371D01*
Y78038D01*
X288571D01*
Y77637D01*
X288171D01*
Y76837D01*
X288571D01*
X288271Y74338D02*
Y73937D01*
X289071D01*
Y74338D01*
X289471D01*
Y75138D01*
X289071D01*
Y75538D01*
X288271D01*
Y75138D01*
X287871D01*
Y74338D01*
X288271D01*
X223771Y21637D02*
Y21238D01*
X224571D01*
Y21637D01*
X224971D01*
Y22437D01*
X224571D01*
Y22838D01*
X223771D01*
Y22437D01*
X223371D01*
Y21637D01*
X223771D01*
X228571D02*
Y21238D01*
X229371D01*
Y21637D01*
X229771D01*
Y22437D01*
X229371D01*
Y22838D01*
X228571D01*
Y22437D01*
X228171D01*
Y21637D01*
X228571D01*
X188951Y34297D02*
Y33898D01*
X189751D01*
Y34297D01*
X190151D01*
Y35098D01*
X189751D01*
Y35497D01*
X188951D01*
Y35098D01*
X188551D01*
Y34297D01*
X188951D01*
X178059Y93537D02*
Y93138D01*
X178859D01*
Y93537D01*
X179259D01*
Y94337D01*
X178859D01*
Y94737D01*
X178059D01*
Y94337D01*
X177659D01*
Y93537D01*
X178059D01*
X177559Y96237D02*
Y95837D01*
X178359D01*
Y96237D01*
X178759D01*
Y97038D01*
X178359D01*
Y97438D01*
X177559D01*
Y97038D01*
X177159D01*
Y96237D01*
X177559D01*
X316257Y104903D02*
Y104504D01*
X317057D01*
Y104903D01*
X317457D01*
Y105703D01*
X317057D01*
Y106104D01*
X316257D01*
Y105703D01*
X315857D01*
Y104903D01*
X316257D01*
X206159Y14838D02*
Y14437D01*
X206959D01*
Y14838D01*
X207359D01*
Y15638D01*
X206959D01*
Y16037D01*
X206159D01*
Y15638D01*
X205759D01*
Y14838D01*
X206159D01*
X199759D02*
Y14437D01*
X200559D01*
Y14838D01*
X200959D01*
Y15638D01*
X200559D01*
Y16037D01*
X199759D01*
Y15638D01*
X199359D01*
Y14838D01*
X199759D01*
X196559D02*
Y14437D01*
X197359D01*
Y14838D01*
X197759D01*
Y15638D01*
X197359D01*
Y16037D01*
X196559D01*
Y15638D01*
X196159D01*
Y14838D01*
X196559D01*
X215759D02*
Y14437D01*
X216559D01*
Y14838D01*
X216959D01*
Y15638D01*
X216559D01*
Y16037D01*
X215759D01*
Y15638D01*
X215359D01*
Y14838D01*
X215759D01*
X218959D02*
Y14437D01*
X219759D01*
Y14838D01*
X220159D01*
Y15638D01*
X219759D01*
Y16037D01*
X218959D01*
Y15638D01*
X218559D01*
Y14838D01*
X218959D01*
X231759D02*
Y14437D01*
X232559D01*
Y14838D01*
X232959D01*
Y15638D01*
X232559D01*
Y16037D01*
X231759D01*
Y15638D01*
X231359D01*
Y14838D01*
X231759D01*
X238159D02*
Y14437D01*
X238959D01*
Y14838D01*
X239359D01*
Y15638D01*
X238959D01*
Y16037D01*
X238159D01*
Y15638D01*
X237759D01*
Y14838D01*
X238159D01*
X250959D02*
Y14437D01*
X251759D01*
Y14838D01*
X252159D01*
Y15638D01*
X251759D01*
Y16037D01*
X250959D01*
Y15638D01*
X250559D01*
Y14838D01*
X250959D01*
X309721Y104980D02*
Y104579D01*
X310521D01*
Y104980D01*
X310921D01*
Y105780D01*
X310521D01*
Y106179D01*
X309721D01*
Y105780D01*
X309321D01*
Y104980D01*
X309721D01*
X270159Y14838D02*
Y14437D01*
X270959D01*
Y14838D01*
X271359D01*
Y15638D01*
X270959D01*
Y16037D01*
X270159D01*
Y15638D01*
X269759D01*
Y14838D01*
X270159D01*
X302359Y98238D02*
Y97838D01*
X303159D01*
Y98238D01*
X303559D01*
Y99037D01*
X303159D01*
Y99437D01*
X302359D01*
Y99037D01*
X301959D01*
Y98238D01*
X302359D01*
X276559Y14838D02*
Y14437D01*
X277359D01*
Y14838D01*
X277759D01*
Y15638D01*
X277359D01*
Y16037D01*
X276559D01*
Y15638D01*
X276159D01*
Y14838D01*
X276559D01*
X279759D02*
Y14437D01*
X280559D01*
Y14838D01*
X280959D01*
Y15638D01*
X280559D01*
Y16037D01*
X279759D01*
Y15638D01*
X279359D01*
Y14838D01*
X279759D01*
X302159Y94238D02*
Y93837D01*
X302959D01*
Y94238D01*
X303359D01*
Y95038D01*
X302959D01*
Y95438D01*
X302159D01*
Y95038D01*
X301759D01*
Y94238D01*
X302159D01*
X295759Y14838D02*
Y14437D01*
X296559D01*
Y14838D01*
X296959D01*
Y15638D01*
X296559D01*
Y16037D01*
X295759D01*
Y15638D01*
X295359D01*
Y14838D01*
X295759D01*
X308159Y18237D02*
Y17838D01*
X308959D01*
Y18237D01*
X309359D01*
Y19038D01*
X308959D01*
Y19437D01*
X308159D01*
Y19038D01*
X307759D01*
Y18237D01*
X308159D01*
X254971Y112838D02*
Y112437D01*
X255771D01*
Y112838D01*
X256171D01*
Y113637D01*
X255771D01*
Y114038D01*
X254971D01*
Y113637D01*
X254571D01*
Y112838D01*
X254971D01*
X190159Y14838D02*
Y14437D01*
X190959D01*
Y14838D01*
X191359D01*
Y15638D01*
X190959D01*
Y16037D01*
X190159D01*
Y15638D01*
X189759D01*
Y14838D01*
X190159D01*
X181159Y16037D02*
Y15638D01*
X181959D01*
Y16037D01*
X182359D01*
Y16838D01*
X181959D01*
Y17237D01*
X181159D01*
Y16838D01*
X180759D01*
Y16037D01*
X181159D01*
Y19238D02*
Y18837D01*
X181959D01*
Y19238D01*
X182359D01*
Y20038D01*
X181959D01*
Y20437D01*
X181159D01*
Y20038D01*
X180759D01*
Y19238D01*
X181159D01*
X275759Y76638D02*
Y76237D01*
X276559D01*
Y76638D01*
X276959D01*
Y77438D01*
X276559D01*
Y77838D01*
X275759D01*
Y77438D01*
X275359D01*
Y76638D01*
X275759D01*
X280671Y31637D02*
Y31238D01*
X281471D01*
Y31637D01*
X281871D01*
Y32438D01*
X281471D01*
Y32838D01*
X280671D01*
Y32438D01*
X280271D01*
Y31637D01*
X280671D01*
X280171Y35737D02*
Y35337D01*
X280971D01*
Y35737D01*
X281371D01*
Y36538D01*
X280971D01*
Y36937D01*
X280171D01*
Y36538D01*
X279771D01*
Y35737D01*
X280171D01*
X276571Y26438D02*
Y26037D01*
X277371D01*
Y26438D01*
X277771D01*
Y27237D01*
X277371D01*
Y27637D01*
X276571D01*
Y27237D01*
X276171D01*
Y26438D01*
X276571D01*
X290671Y44438D02*
Y44038D01*
X291471D01*
Y44438D01*
X291871D01*
Y45237D01*
X291471D01*
Y45638D01*
X290671D01*
Y45237D01*
X290271D01*
Y44438D01*
X290671D01*
X283559Y43938D02*
Y43538D01*
X284359D01*
Y43938D01*
X284759D01*
Y44737D01*
X284359D01*
Y45138D01*
X283559D01*
Y44737D01*
X283159D01*
Y43938D01*
X283559D01*
X289559Y34438D02*
Y34038D01*
X290359D01*
Y34438D01*
X290759D01*
Y35238D01*
X290359D01*
Y35638D01*
X289559D01*
Y35238D01*
X289159D01*
Y34438D01*
X289559D01*
X289359Y49637D02*
Y49237D01*
X290159D01*
Y49637D01*
X290559D01*
Y50437D01*
X290159D01*
Y50837D01*
X289359D01*
Y50437D01*
X288959D01*
Y49637D01*
X289359D01*
X197371Y45638D02*
Y45237D01*
X198171D01*
Y45638D01*
X198571D01*
Y46437D01*
X198171D01*
Y46837D01*
X197371D01*
Y46437D01*
X196971D01*
Y45638D01*
X197371D01*
X288759Y52938D02*
Y52538D01*
X289559D01*
Y52938D01*
X289959D01*
Y53737D01*
X289559D01*
Y54137D01*
X288759D01*
Y53737D01*
X288359D01*
Y52938D01*
X288759D01*
X297871Y37437D02*
Y37038D01*
X298671D01*
Y37437D01*
X299071D01*
Y38238D01*
X298671D01*
Y38638D01*
X297871D01*
Y38238D01*
X297471D01*
Y37437D01*
X297871D01*
X299759Y40538D02*
Y40137D01*
X300559D01*
Y40538D01*
X300959D01*
Y41337D01*
X300559D01*
Y41737D01*
X299759D01*
Y41337D01*
X299359D01*
Y40538D01*
X299759D01*
X303659Y41938D02*
Y41537D01*
X304459D01*
Y41938D01*
X304859D01*
Y42737D01*
X304459D01*
Y43137D01*
X303659D01*
Y42737D01*
X303259D01*
Y41938D01*
X303659D01*
X259671Y28938D02*
Y28537D01*
X260471D01*
Y28938D01*
X260871D01*
Y29737D01*
X260471D01*
Y30138D01*
X259671D01*
Y29737D01*
X259271D01*
Y28938D01*
X259671D01*
X257371Y26438D02*
Y26037D01*
X258171D01*
Y26438D01*
X258571D01*
Y27237D01*
X258171D01*
Y27637D01*
X257371D01*
Y27237D01*
X256971D01*
Y26438D01*
X257371D01*
X255604Y24881D02*
Y24480D01*
X256404D01*
Y24881D01*
X256804D01*
Y25681D01*
X256404D01*
Y26081D01*
X255604D01*
Y25681D01*
X255204D01*
Y24881D01*
X255604D01*
X288859Y58538D02*
Y58138D01*
X289659D01*
Y58538D01*
X290059D01*
Y59338D01*
X289659D01*
Y59737D01*
X288859D01*
Y59338D01*
X288459D01*
Y58538D01*
X288859D01*
X266971Y81638D02*
Y81238D01*
X267771D01*
Y81638D01*
X268171D01*
Y82437D01*
X267771D01*
Y82837D01*
X266971D01*
Y82437D01*
X266571D01*
Y81638D01*
X266971D01*
X307871Y52538D02*
Y52138D01*
X308671D01*
Y52538D01*
X309071D01*
Y53338D01*
X308671D01*
Y53737D01*
X307871D01*
Y53338D01*
X307471D01*
Y52538D01*
X307871D01*
Y48138D02*
Y47738D01*
X308671D01*
Y48138D01*
X309071D01*
Y48937D01*
X308671D01*
Y49338D01*
X307871D01*
Y48937D01*
X307471D01*
Y48138D01*
X307871D01*
X307859Y43738D02*
Y43338D01*
X308659D01*
Y43738D01*
X309059D01*
Y44537D01*
X308659D01*
Y44938D01*
X307859D01*
Y44537D01*
X307459D01*
Y43738D01*
X307859D01*
X297559Y75538D02*
Y75138D01*
X298359D01*
Y75538D01*
X298759D01*
Y76337D01*
X298359D01*
Y76737D01*
X297559D01*
Y76337D01*
X297159D01*
Y75538D01*
X297559D01*
X297659Y78838D02*
Y78438D01*
X298459D01*
Y78838D01*
X298859D01*
Y79637D01*
X298459D01*
Y80037D01*
X297659D01*
Y79637D01*
X297259D01*
Y78838D01*
X297659D01*
X283771Y76837D02*
Y76437D01*
X284571D01*
Y76837D01*
X284971D01*
Y77637D01*
X284571D01*
Y78038D01*
X283771D01*
Y77637D01*
X283371D01*
Y76837D01*
X283771D01*
X301159Y74837D02*
Y74437D01*
X301959D01*
Y74837D01*
X302359D01*
Y75638D01*
X301959D01*
Y76038D01*
X301159D01*
Y75638D01*
X300759D01*
Y74837D01*
X301159D01*
X288571Y81638D02*
Y81238D01*
X289371D01*
Y81638D01*
X289771D01*
Y82437D01*
X289371D01*
Y82837D01*
X288571D01*
Y82437D01*
X288171D01*
Y81638D01*
X288571D01*
X286259Y78938D02*
Y78537D01*
X287059D01*
Y78938D01*
X287459D01*
Y79738D01*
X287059D01*
Y80137D01*
X286259D01*
Y79738D01*
X285859D01*
Y78938D01*
X286259D01*
X278571Y65137D02*
Y64737D01*
X279371D01*
Y65137D01*
X279771D01*
Y65938D01*
X279371D01*
Y66338D01*
X278571D01*
Y65938D01*
X278171D01*
Y65137D01*
X278571D01*
X216771Y41137D02*
Y40738D01*
X217571D01*
Y41137D01*
X217971D01*
Y41938D01*
X217571D01*
Y42338D01*
X216771D01*
Y41938D01*
X216371D01*
Y41137D01*
X216771D01*
Y44337D02*
Y43938D01*
X217571D01*
Y44337D01*
X217971D01*
Y45138D01*
X217571D01*
Y45537D01*
X216771D01*
Y45138D01*
X216371D01*
Y44337D01*
X216771D01*
X218971Y40837D02*
Y40437D01*
X219771D01*
Y40837D01*
X220171D01*
Y41638D01*
X219771D01*
Y42037D01*
X218971D01*
Y41638D01*
X218571D01*
Y40837D01*
X218971D01*
X223771D02*
Y40437D01*
X224571D01*
Y40837D01*
X224971D01*
Y41638D01*
X224571D01*
Y42037D01*
X223771D01*
Y41638D01*
X223371D01*
Y40837D01*
X223771D01*
X253771Y109238D02*
Y108837D01*
X254571D01*
Y109238D01*
X254971D01*
Y110038D01*
X254571D01*
Y110438D01*
X253771D01*
Y110038D01*
X253371D01*
Y109238D01*
X253771D01*
X209371Y50437D02*
Y50037D01*
X210171D01*
Y50437D01*
X210571D01*
Y51237D01*
X210171D01*
Y51638D01*
X209371D01*
Y51237D01*
X208971D01*
Y50437D01*
X209371D01*
X203571Y45338D02*
Y44938D01*
X204371D01*
Y45338D01*
X204771D01*
Y46137D01*
X204371D01*
Y46538D01*
X203571D01*
Y46137D01*
X203171D01*
Y45338D01*
X203571D01*
X193269Y41743D02*
Y41342D01*
X194069D01*
Y41743D01*
X194469D01*
Y42542D01*
X194069D01*
Y42943D01*
X193269D01*
Y42542D01*
X192869D01*
Y41743D01*
X193269D01*
X178159Y40837D02*
Y40437D01*
X178959D01*
Y40837D01*
X179359D01*
Y41638D01*
X178959D01*
Y42037D01*
X178159D01*
Y41638D01*
X177759D01*
Y40837D01*
X178159D01*
X182971Y112838D02*
Y112437D01*
X183771D01*
Y112838D01*
X184171D01*
Y113637D01*
X183771D01*
Y114038D01*
X182971D01*
Y113637D01*
X182571D01*
Y112838D01*
X182971D01*
X166359Y116838D02*
Y116437D01*
X167159D01*
Y116838D01*
X167559D01*
Y117638D01*
X167159D01*
Y118037D01*
X166359D01*
Y117638D01*
X165959D01*
Y116838D01*
X166359D01*
X180259Y115937D02*
Y115538D01*
X181059D01*
Y115937D01*
X181459D01*
Y116737D01*
X181059D01*
Y117138D01*
X180259D01*
Y116737D01*
X179859D01*
Y115937D01*
X180259D01*
X270347Y128819D02*
Y128419D01*
X271147D01*
Y128819D01*
X271547D01*
Y129619D01*
X271147D01*
Y130018D01*
X270347D01*
Y129619D01*
X269947D01*
Y128819D01*
X270347D01*
X304959Y49237D02*
Y48838D01*
X305759D01*
Y49237D01*
X306159D01*
Y50037D01*
X305759D01*
Y50437D01*
X304959D01*
Y50037D01*
X304559D01*
Y49237D01*
X304959D01*
X303759Y77538D02*
Y77138D01*
X304559D01*
Y77538D01*
X304959D01*
Y78338D01*
X304559D01*
Y78737D01*
X303759D01*
Y78338D01*
X303359D01*
Y77538D01*
X303759D01*
X307559Y60838D02*
Y60438D01*
X308359D01*
Y60838D01*
X308759D01*
Y61638D01*
X308359D01*
Y62037D01*
X307559D01*
Y61638D01*
X307159D01*
Y60838D01*
X307559D01*
X209559Y55838D02*
Y55437D01*
X210359D01*
Y55838D01*
X210759D01*
Y56638D01*
X210359D01*
Y57038D01*
X209559D01*
Y56638D01*
X209159D01*
Y55838D01*
X209559D01*
X221471Y19737D02*
Y19338D01*
X222271D01*
Y19737D01*
X222671D01*
Y20538D01*
X222271D01*
Y20937D01*
X221471D01*
Y20538D01*
X221071D01*
Y19737D01*
X221471D01*
X185878Y124893D02*
Y124494D01*
X186678D01*
Y124893D01*
X187078D01*
Y125694D01*
X186678D01*
Y126093D01*
X185878D01*
Y125694D01*
X185478D01*
Y124893D01*
X185878D01*
X242971Y105638D02*
Y105237D01*
X243771D01*
Y105638D01*
X244171D01*
Y106438D01*
X243771D01*
Y106837D01*
X242971D01*
Y106438D01*
X242571D01*
Y105638D01*
X242971D01*
X263271Y37738D02*
Y37337D01*
X264071D01*
Y37738D01*
X264471D01*
Y38537D01*
X264071D01*
Y38938D01*
X263271D01*
Y38537D01*
X262871D01*
Y37738D01*
X263271D01*
X293371Y19238D02*
Y18837D01*
X294171D01*
Y19238D01*
X294571D01*
Y20038D01*
X294171D01*
Y20437D01*
X293371D01*
Y20038D01*
X292971D01*
Y19238D01*
X293371D01*
X317371Y98438D02*
Y98037D01*
X318171D01*
Y98438D01*
X318571D01*
Y99238D01*
X318171D01*
Y99638D01*
X317371D01*
Y99238D01*
X316971D01*
Y98438D01*
X317371D01*
X264571Y122438D02*
Y122037D01*
X265371D01*
Y122438D01*
X265771D01*
Y123238D01*
X265371D01*
Y123637D01*
X264571D01*
Y123238D01*
X264171D01*
Y122438D01*
X264571D01*
X200559Y55238D02*
Y54838D01*
X201359D01*
Y55238D01*
X201759D01*
Y56037D01*
X201359D01*
Y56437D01*
X200559D01*
Y56037D01*
X200159D01*
Y55238D01*
X200559D01*
Y60037D02*
Y59637D01*
X201359D01*
Y60037D01*
X201759D01*
Y60838D01*
X201359D01*
Y61238D01*
X200559D01*
Y60838D01*
X200159D01*
Y60037D01*
X200559D01*
X202159Y63837D02*
Y63437D01*
X202959D01*
Y63837D01*
X203359D01*
Y64638D01*
X202959D01*
Y65038D01*
X202159D01*
Y64638D01*
X201759D01*
Y63837D01*
X202159D01*
Y67838D02*
Y67437D01*
X202959D01*
Y67838D01*
X203359D01*
Y68638D01*
X202959D01*
Y69037D01*
X202159D01*
Y68638D01*
X201759D01*
Y67838D01*
X202159D01*
X210759Y72838D02*
Y72438D01*
X211559D01*
Y72838D01*
X211959D01*
Y73637D01*
X211559D01*
Y74037D01*
X210759D01*
Y73637D01*
X210359D01*
Y72838D01*
X210759D01*
X211159Y70038D02*
Y69638D01*
X211959D01*
Y70038D01*
X212359D01*
Y70837D01*
X211959D01*
Y71237D01*
X211159D01*
Y70837D01*
X210759D01*
Y70038D01*
X211159D01*
X206971Y64837D02*
Y64438D01*
X207771D01*
Y64837D01*
X208171D01*
Y65637D01*
X207771D01*
Y66037D01*
X206971D01*
Y65637D01*
X206571D01*
Y64837D01*
X206971D01*
X238171Y76837D02*
Y76437D01*
X238971D01*
Y76837D01*
X239371D01*
Y77637D01*
X238971D01*
Y78038D01*
X238171D01*
Y77637D01*
X237771D01*
Y76837D01*
X238171D01*
X242759Y77038D02*
Y76638D01*
X243559D01*
Y77038D01*
X243959D01*
Y77838D01*
X243559D01*
Y78237D01*
X242759D01*
Y77838D01*
X242359D01*
Y77038D01*
X242759D01*
X241471Y64538D02*
Y64138D01*
X242271D01*
Y64538D01*
X242671D01*
Y65338D01*
X242271D01*
Y65737D01*
X241471D01*
Y65338D01*
X241071D01*
Y64538D01*
X241471D01*
X245371Y62437D02*
Y62037D01*
X246171D01*
Y62437D01*
X246571D01*
Y63238D01*
X246171D01*
Y63638D01*
X245371D01*
Y63238D01*
X244971D01*
Y62437D01*
X245371D01*
X258157Y69432D02*
Y69033D01*
X258957D01*
Y69432D01*
X259357D01*
Y70232D01*
X258957D01*
Y70632D01*
X258157D01*
Y70232D01*
X257757D01*
Y69432D01*
X258157D01*
X209959Y47638D02*
Y47238D01*
X210759D01*
Y47638D01*
X211159D01*
Y48438D01*
X210759D01*
Y48838D01*
X209959D01*
Y48438D01*
X209559D01*
Y47638D01*
X209959D01*
X197371Y60037D02*
Y59637D01*
X198171D01*
Y60037D01*
X198571D01*
Y60838D01*
X198171D01*
Y61238D01*
X197371D01*
Y60838D01*
X196971D01*
Y60037D01*
X197371D01*
X269371Y122438D02*
Y122037D01*
X270171D01*
Y122438D01*
X270571D01*
Y123238D01*
X270171D01*
Y123637D01*
X269371D01*
Y123238D01*
X268971D01*
Y122438D01*
X269371D01*
X278971D02*
Y122037D01*
X279771D01*
Y122438D01*
X280171D01*
Y123238D01*
X279771D01*
Y123637D01*
X278971D01*
Y123238D01*
X278571D01*
Y122438D01*
X278971D01*
X233371Y38438D02*
Y38037D01*
X234171D01*
Y38438D01*
X234571D01*
Y39237D01*
X234171D01*
Y39638D01*
X233371D01*
Y39237D01*
X232971D01*
Y38438D01*
X233371D01*
X286171Y55238D02*
Y54838D01*
X286971D01*
Y55238D01*
X287371D01*
Y56037D01*
X286971D01*
Y56437D01*
X286171D01*
Y56037D01*
X285771D01*
Y55238D01*
X286171D01*
X240571Y28837D02*
Y28438D01*
X241371D01*
Y28837D01*
X241771D01*
Y29638D01*
X241371D01*
Y30038D01*
X240571D01*
Y29638D01*
X240171D01*
Y28837D01*
X240571D01*
X275023Y128779D02*
Y128378D01*
X275823D01*
Y128779D01*
X276223D01*
Y129578D01*
X275823D01*
Y129979D01*
X275023D01*
Y129578D01*
X274623D01*
Y128779D01*
X275023D01*
X290971Y31238D02*
Y30838D01*
X291771D01*
Y31238D01*
X292171D01*
Y32037D01*
X291771D01*
Y32438D01*
X290971D01*
Y32037D01*
X290571D01*
Y31238D01*
X290971D01*
X242971Y33637D02*
Y33237D01*
X243771D01*
Y33637D01*
X244171D01*
Y34438D01*
X243771D01*
Y34837D01*
X242971D01*
Y34438D01*
X242571D01*
Y33637D01*
X242971D01*
X235771Y28837D02*
Y28438D01*
X236571D01*
Y28837D01*
X236971D01*
Y29638D01*
X236571D01*
Y30038D01*
X235771D01*
Y29638D01*
X235371D01*
Y28837D01*
X235771D01*
X253459Y35337D02*
Y34938D01*
X254259D01*
Y35337D01*
X254659D01*
Y36138D01*
X254259D01*
Y36538D01*
X253459D01*
Y36138D01*
X253059D01*
Y35337D01*
X253459D01*
X245371Y40837D02*
Y40437D01*
X246171D01*
Y40837D01*
X246571D01*
Y41638D01*
X246171D01*
Y42037D01*
X245371D01*
Y41638D01*
X244971D01*
Y40837D01*
X245371D01*
X250459Y49237D02*
Y48838D01*
X251259D01*
Y49237D01*
X251659D01*
Y50037D01*
X251259D01*
Y50437D01*
X250459D01*
Y50037D01*
X250059D01*
Y49237D01*
X250459D01*
X245371Y36037D02*
Y35638D01*
X246171D01*
Y36037D01*
X246571D01*
Y36838D01*
X246171D01*
Y37238D01*
X245371D01*
Y36838D01*
X244971D01*
Y36037D01*
X245371D01*
X190971Y69638D02*
Y69238D01*
X191771D01*
Y69638D01*
X192171D01*
Y70438D01*
X191771D01*
Y70837D01*
X190971D01*
Y70438D01*
X190571D01*
Y69638D01*
X190971D01*
X230971Y36037D02*
Y35638D01*
X231771D01*
Y36037D01*
X232171D01*
Y36838D01*
X231771D01*
Y37238D01*
X230971D01*
Y36838D01*
X230571D01*
Y36037D01*
X230971D01*
X254971Y76837D02*
Y76437D01*
X255771D01*
Y76837D01*
X256171D01*
Y77637D01*
X255771D01*
Y78038D01*
X254971D01*
Y77637D01*
X254571D01*
Y76837D01*
X254971D01*
X228571Y31238D02*
Y30838D01*
X229371D01*
Y31238D01*
X229771D01*
Y32037D01*
X229371D01*
Y32438D01*
X228571D01*
Y32037D01*
X228171D01*
Y31238D01*
X228571D01*
X264571Y45638D02*
Y45237D01*
X265371D01*
Y45638D01*
X265771D01*
Y46437D01*
X265371D01*
Y46837D01*
X264571D01*
Y46437D01*
X264171D01*
Y45638D01*
X264571D01*
X233371Y33637D02*
Y33237D01*
X234171D01*
Y33637D01*
X234571D01*
Y34438D01*
X234171D01*
Y34837D01*
X233371D01*
Y34438D01*
X232971D01*
Y33637D01*
X233371D01*
X308159Y21438D02*
Y21037D01*
X308959D01*
Y21438D01*
X309359D01*
Y22238D01*
X308959D01*
Y22637D01*
X308159D01*
Y22238D01*
X307759D01*
Y21438D01*
X308159D01*
X259771Y62437D02*
Y62037D01*
X260571D01*
Y62437D01*
X260971D01*
Y63238D01*
X260571D01*
Y63638D01*
X259771D01*
Y63238D01*
X259371D01*
Y62437D01*
X259771D01*
X265559Y64237D02*
Y63837D01*
X266359D01*
Y64237D01*
X266759D01*
Y65038D01*
X266359D01*
Y65438D01*
X265559D01*
Y65038D01*
X265159D01*
Y64237D01*
X265559D01*
X195826Y129092D02*
Y128691D01*
X196626D01*
Y129092D01*
X197026D01*
Y129892D01*
X196626D01*
Y130291D01*
X195826D01*
Y129892D01*
X195426D01*
Y129092D01*
X195826D01*
X210127Y129190D02*
Y128789D01*
X210927D01*
Y129190D01*
X211327D01*
Y129990D01*
X210927D01*
Y130389D01*
X210127D01*
Y129990D01*
X209727D01*
Y129190D01*
X210127D01*
X214843D02*
Y128789D01*
X215643D01*
Y129190D01*
X216043D01*
Y129990D01*
X215643D01*
Y130389D01*
X214843D01*
Y129990D01*
X214443D01*
Y129190D01*
X214843D01*
X192571Y122438D02*
Y122037D01*
X193371D01*
Y122438D01*
X193771D01*
Y123238D01*
X193371D01*
Y123637D01*
X192571D01*
Y123238D01*
X192171D01*
Y122438D01*
X192571D01*
X190167D02*
Y122037D01*
X190967D01*
Y122438D01*
X191367D01*
Y123238D01*
X190967D01*
Y123637D01*
X190167D01*
Y123238D01*
X189767D01*
Y122438D01*
X190167D01*
X186359Y86437D02*
Y86037D01*
X187159D01*
Y86437D01*
X187559D01*
Y87238D01*
X187159D01*
Y87638D01*
X186359D01*
Y87238D01*
X185959D01*
Y86437D01*
X186359D01*
X184605Y115933D02*
Y115533D01*
X185405D01*
Y115933D01*
X185805D01*
Y116733D01*
X185405D01*
Y117132D01*
X184605D01*
Y116733D01*
X184205D01*
Y115933D01*
X184605D01*
X186659Y94837D02*
Y94437D01*
X187459D01*
Y94837D01*
X187859D01*
Y95638D01*
X187459D01*
Y96038D01*
X186659D01*
Y95638D01*
X186259D01*
Y94837D01*
X186659D01*
X310785Y94567D02*
Y94166D01*
X311585D01*
Y94567D01*
X311985D01*
Y95367D01*
X311585D01*
Y95767D01*
X310785D01*
Y95367D01*
X310385D01*
Y94567D01*
X310785D01*
X247771Y76837D02*
Y76437D01*
X248571D01*
Y76837D01*
X248971D01*
Y77637D01*
X248571D01*
Y78038D01*
X247771D01*
Y77637D01*
X247371D01*
Y76837D01*
X247771D01*
X311459Y121137D02*
Y120738D01*
X312259D01*
Y121137D01*
X312659D01*
Y121938D01*
X312259D01*
Y122337D01*
X311459D01*
Y121938D01*
X311059D01*
Y121137D01*
X311459D01*
X302971Y127237D02*
Y126838D01*
X303771D01*
Y127237D01*
X304171D01*
Y128038D01*
X303771D01*
Y128437D01*
X302971D01*
Y128038D01*
X302571D01*
Y127237D01*
X302971D01*
X250959Y45838D02*
Y45437D01*
X251759D01*
Y45838D01*
X252159D01*
Y46637D01*
X251759D01*
Y47038D01*
X250959D01*
Y46637D01*
X250559D01*
Y45838D01*
X250959D01*
X254159Y51237D02*
Y50837D01*
X254959D01*
Y51237D01*
X255359D01*
Y52038D01*
X254959D01*
Y52438D01*
X254159D01*
Y52038D01*
X253759D01*
Y51237D01*
X254159D01*
X250659Y38938D02*
Y38537D01*
X251459D01*
Y38938D01*
X251859D01*
Y39737D01*
X251459D01*
Y40137D01*
X250659D01*
Y39737D01*
X250259D01*
Y38938D01*
X250659D01*
X251559Y51038D02*
Y50638D01*
X252359D01*
Y51038D01*
X252759D01*
Y51837D01*
X252359D01*
Y52237D01*
X251559D01*
Y51837D01*
X251159D01*
Y51038D01*
X251559D01*
X206971Y74437D02*
Y74037D01*
X207771D01*
Y74437D01*
X208171D01*
Y75238D01*
X207771D01*
Y75638D01*
X206971D01*
Y75238D01*
X206571D01*
Y74437D01*
X206971D01*
X211159Y97438D02*
Y97038D01*
X211959D01*
Y97438D01*
X212359D01*
Y98238D01*
X211959D01*
Y98637D01*
X211159D01*
Y98238D01*
X210759D01*
Y97438D01*
X211159D01*
X175159Y129638D02*
Y129237D01*
X175959D01*
Y129638D01*
X176359D01*
Y130438D01*
X175959D01*
Y130838D01*
X175159D01*
Y130438D01*
X174759D01*
Y129638D01*
X175159D01*
X169159Y53637D02*
Y53237D01*
X169959D01*
Y53637D01*
X170359D01*
Y54438D01*
X169959D01*
Y54838D01*
X169159D01*
Y54438D01*
X168759D01*
Y53637D01*
X169159D01*
X179879Y97601D02*
Y97201D01*
X180679D01*
Y97601D01*
X181079D01*
Y98400D01*
X180679D01*
Y98800D01*
X179879D01*
Y98400D01*
X179479D01*
Y97601D01*
X179879D01*
X192571Y100838D02*
Y100437D01*
X193371D01*
Y100838D01*
X193771D01*
Y101637D01*
X193371D01*
Y102038D01*
X192571D01*
Y101637D01*
X192171D01*
Y100838D01*
X192571D01*
X212871Y25337D02*
Y24938D01*
X213671D01*
Y25337D01*
X214071D01*
Y26138D01*
X213671D01*
Y26537D01*
X212871D01*
Y26138D01*
X212471D01*
Y25337D01*
X212871D01*
X226759Y105237D02*
Y104838D01*
X227559D01*
Y105237D01*
X227959D01*
Y106037D01*
X227559D01*
Y106438D01*
X226759D01*
Y106037D01*
X226359D01*
Y105237D01*
X226759D01*
X272059Y103638D02*
Y103237D01*
X272859D01*
Y103638D01*
X273259D01*
Y104437D01*
X272859D01*
Y104838D01*
X272059D01*
Y104437D01*
X271659D01*
Y103638D01*
X272059D01*
X295159Y88238D02*
Y87837D01*
X295959D01*
Y88238D01*
X296359D01*
Y89038D01*
X295959D01*
Y89438D01*
X295159D01*
Y89038D01*
X294759D01*
Y88238D01*
X295159D01*
X285871Y58538D02*
Y58138D01*
X286671D01*
Y58538D01*
X287071D01*
Y59338D01*
X286671D01*
Y59737D01*
X285871D01*
Y59338D01*
X285471D01*
Y58538D01*
X285871D01*
X291859D02*
Y58138D01*
X292659D01*
Y58538D01*
X293059D01*
Y59338D01*
X292659D01*
Y59737D01*
X291859D01*
Y59338D01*
X291459D01*
Y58538D01*
X291859D01*
X294871D02*
Y58138D01*
X295671D01*
Y58538D01*
X296071D01*
Y59338D01*
X295671D01*
Y59737D01*
X294871D01*
Y59338D01*
X294471D01*
Y58538D01*
X294871D01*
X297871D02*
Y58138D01*
X298671D01*
Y58538D01*
X299071D01*
Y59338D01*
X298671D01*
Y59737D01*
X297871D01*
Y59338D01*
X297471D01*
Y58538D01*
X297871D01*
X302171Y63038D02*
Y62638D01*
X302971D01*
Y63038D01*
X303371D01*
Y63837D01*
X302971D01*
Y64237D01*
X302171D01*
Y63837D01*
X301771D01*
Y63038D01*
X302171D01*
X299171D02*
Y62638D01*
X299971D01*
Y63038D01*
X300371D01*
Y63837D01*
X299971D01*
Y64237D01*
X299171D01*
Y63837D01*
X298771D01*
Y63038D01*
X299171D01*
X296171D02*
Y62638D01*
X296971D01*
Y63038D01*
X297371D01*
Y63837D01*
X296971D01*
Y64237D01*
X296171D01*
Y63837D01*
X295771D01*
Y63038D01*
X296171D01*
X293171D02*
Y62638D01*
X293971D01*
Y63038D01*
X294371D01*
Y63837D01*
X293971D01*
Y64237D01*
X293171D01*
Y63837D01*
X292771D01*
Y63038D01*
X293171D01*
X290171D02*
Y62638D01*
X290971D01*
Y63038D01*
X291371D01*
Y63837D01*
X290971D01*
Y64237D01*
X290171D01*
Y63837D01*
X289771D01*
Y63038D01*
X290171D01*
X287171D02*
Y62638D01*
X287971D01*
Y63038D01*
X288371D01*
Y63837D01*
X287971D01*
Y64237D01*
X287171D01*
Y63837D01*
X286771D01*
Y63038D01*
X287171D01*
X317551Y87299D02*
Y86898D01*
X318351D01*
Y87299D01*
X318751D01*
Y88099D01*
X318351D01*
Y88499D01*
X317551D01*
Y88099D01*
X317151D01*
Y87299D01*
X317551D01*
X294759Y48638D02*
Y48237D01*
X295559D01*
Y48638D01*
X295959D01*
Y49437D01*
X295559D01*
Y49837D01*
X294759D01*
Y49437D01*
X294359D01*
Y48638D01*
X294759D01*
X291271Y71938D02*
Y71538D01*
X292071D01*
Y71938D01*
X292471D01*
Y72737D01*
X292071D01*
Y73137D01*
X291271D01*
Y72737D01*
X290871D01*
Y71938D01*
X291271D01*
X272143Y54351D02*
Y53951D01*
X272943D01*
Y54351D01*
X273343D01*
Y55151D01*
X272943D01*
Y55550D01*
X272143D01*
Y55151D01*
X271743D01*
Y54351D01*
X272143D01*
X210571Y19138D02*
Y18737D01*
X211371D01*
Y19138D01*
X211771D01*
Y19938D01*
X211371D01*
Y20337D01*
X210571D01*
Y19938D01*
X210171D01*
Y19138D01*
X210571D01*
X235771Y83138D02*
Y82737D01*
X236571D01*
Y83138D01*
X236971D01*
Y83938D01*
X236571D01*
Y84338D01*
X235771D01*
Y83938D01*
X235371D01*
Y83138D01*
X235771D01*
X266971Y19737D02*
Y19338D01*
X267771D01*
Y19737D01*
X268171D01*
Y20538D01*
X267771D01*
Y20937D01*
X266971D01*
Y20538D01*
X266571D01*
Y19737D01*
X266971D01*
X232259Y84237D02*
Y83837D01*
X233059D01*
Y84237D01*
X233459D01*
Y85037D01*
X233059D01*
Y85438D01*
X232259D01*
Y85037D01*
X231859D01*
Y84237D01*
X232259D01*
X233271Y86437D02*
Y86037D01*
X234071D01*
Y86437D01*
X234471D01*
Y87238D01*
X234071D01*
Y87638D01*
X233271D01*
Y87238D01*
X232871D01*
Y86437D01*
X233271D01*
X289559Y89638D02*
Y89237D01*
X290359D01*
Y89638D01*
X290759D01*
Y90438D01*
X290359D01*
Y90838D01*
X289559D01*
Y90438D01*
X289159D01*
Y89638D01*
X289559D01*
X301971Y19038D02*
Y18638D01*
X302771D01*
Y19038D01*
X303171D01*
Y19838D01*
X302771D01*
Y20237D01*
X301971D01*
Y19838D01*
X301571D01*
Y19038D01*
X301971D01*
X244559Y92838D02*
Y92437D01*
X245359D01*
Y92838D01*
X245759D01*
Y93638D01*
X245359D01*
Y94037D01*
X244559D01*
Y93638D01*
X244159D01*
Y92838D01*
X244559D01*
X233571Y56638D02*
Y56238D01*
X234371D01*
Y56638D01*
X234771D01*
Y57437D01*
X234371D01*
Y57837D01*
X233571D01*
Y57437D01*
X233171D01*
Y56638D01*
X233571D01*
X229871Y95638D02*
Y95237D01*
X230671D01*
Y95638D01*
X231071D01*
Y96438D01*
X230671D01*
Y96838D01*
X229871D01*
Y96438D01*
X229471D01*
Y95638D01*
X229871D01*
X241471Y56638D02*
Y56238D01*
X242271D01*
Y56638D01*
X242671D01*
Y57437D01*
X242271D01*
Y57837D01*
X241471D01*
Y57437D01*
X241071D01*
Y56638D01*
X241471D01*
X247972Y33500D02*
Y33099D01*
X248772D01*
Y33500D01*
X249172D01*
Y34299D01*
X248772D01*
Y34699D01*
X247972D01*
Y34299D01*
X247572D01*
Y33500D01*
X247972D01*
X180871Y102437D02*
Y102038D01*
X181671D01*
Y102437D01*
X182071D01*
Y103237D01*
X181671D01*
Y103638D01*
X180871D01*
Y103237D01*
X180471D01*
Y102437D01*
X180871D01*
X204771Y103138D02*
Y102737D01*
X205571D01*
Y103138D01*
X205971D01*
Y103937D01*
X205571D01*
Y104338D01*
X204771D01*
Y103937D01*
X204371D01*
Y103138D01*
X204771D01*
X236759Y116237D02*
Y115838D01*
X237559D01*
Y116237D01*
X237959D01*
Y117037D01*
X237559D01*
Y117438D01*
X236759D01*
Y117037D01*
X236359D01*
Y116237D01*
X236759D01*
X273071Y106037D02*
Y105638D01*
X273871D01*
Y106037D01*
X274271D01*
Y106837D01*
X273871D01*
Y107238D01*
X273071D01*
Y106837D01*
X272671D01*
Y106037D01*
X273071D01*
X222359Y80238D02*
Y79838D01*
X223159D01*
Y80238D01*
X223559D01*
Y81037D01*
X223159D01*
Y81437D01*
X222359D01*
Y81037D01*
X221959D01*
Y80238D01*
X222359D01*
X220871Y58237D02*
Y57837D01*
X221671D01*
Y58237D01*
X222071D01*
Y59038D01*
X221671D01*
Y59438D01*
X220871D01*
Y59038D01*
X220471D01*
Y58237D01*
X220871D01*
X220859Y87037D02*
Y86638D01*
X221659D01*
Y87037D01*
X222059D01*
Y87837D01*
X221659D01*
Y88238D01*
X220859D01*
Y87837D01*
X220459D01*
Y87037D01*
X220859D01*
X228359Y62437D02*
Y62037D01*
X229159D01*
Y62437D01*
X229559D01*
Y63238D01*
X229159D01*
Y63638D01*
X228359D01*
Y63238D01*
X227959D01*
Y62437D01*
X228359D01*
X226571Y97938D02*
Y97537D01*
X227371D01*
Y97938D01*
X227771D01*
Y98738D01*
X227371D01*
Y99138D01*
X226571D01*
Y98738D01*
X226171D01*
Y97938D01*
X226571D01*
X217371Y76837D02*
Y76437D01*
X218171D01*
Y76837D01*
X218571D01*
Y77637D01*
X218171D01*
Y78038D01*
X217371D01*
Y77637D01*
X216971D01*
Y76837D01*
X217371D01*
X251559Y64837D02*
Y64438D01*
X252359D01*
Y64837D01*
X252759D01*
Y65637D01*
X252359D01*
Y66037D01*
X251559D01*
Y65637D01*
X251159D01*
Y64837D01*
X251559D01*
X210471Y110337D02*
Y109938D01*
X211271D01*
Y110337D01*
X211671D01*
Y111137D01*
X211271D01*
Y111538D01*
X210471D01*
Y111137D01*
X210071D01*
Y110337D01*
X210471D01*
X180871Y105638D02*
Y105237D01*
X181671D01*
Y105638D01*
X182071D01*
Y106438D01*
X181671D01*
Y106837D01*
X180871D01*
Y106438D01*
X180471D01*
Y105638D01*
X180871D01*
X216359Y71637D02*
Y71237D01*
X217159D01*
Y71637D01*
X217559D01*
Y72438D01*
X217159D01*
Y72838D01*
X216359D01*
Y72438D01*
X215959D01*
Y71637D01*
X216359D01*
Y69638D02*
Y69238D01*
X217159D01*
Y69638D01*
X217559D01*
Y70438D01*
X217159D01*
Y70837D01*
X216359D01*
Y70438D01*
X215959D01*
Y69638D01*
X216359D01*
X288271Y22138D02*
Y21737D01*
X289071D01*
Y22138D01*
X289471D01*
Y22938D01*
X289071D01*
Y23337D01*
X288271D01*
Y22938D01*
X287871D01*
Y22138D01*
X288271D01*
X236571Y122837D02*
Y122438D01*
X237371D01*
Y122837D01*
X237771D01*
Y123637D01*
X237371D01*
Y124038D01*
X236571D01*
Y123637D01*
X236171D01*
Y122837D01*
X236571D01*
X305959Y71038D02*
Y70638D01*
X306759D01*
Y71038D01*
X307159D01*
Y71838D01*
X306759D01*
Y72237D01*
X305959D01*
Y71838D01*
X305559D01*
Y71038D01*
X305959D01*
X291371Y24938D02*
Y24538D01*
X292171D01*
Y24938D01*
X292571D01*
Y25738D01*
X292171D01*
Y26138D01*
X291371D01*
Y25738D01*
X290971D01*
Y24938D01*
X291371D01*
X235671Y87638D02*
Y87238D01*
X236471D01*
Y87638D01*
X236871D01*
Y88437D01*
X236471D01*
Y88837D01*
X235671D01*
Y88437D01*
X235271D01*
Y87638D01*
X235671D01*
X207759Y96637D02*
Y96237D01*
X208559D01*
Y96637D01*
X208959D01*
Y97438D01*
X208559D01*
Y97838D01*
X207759D01*
Y97438D01*
X207359D01*
Y96637D01*
X207759D01*
X185871Y37337D02*
Y36937D01*
X186671D01*
Y37337D01*
X187071D01*
Y38138D01*
X186671D01*
Y38537D01*
X185871D01*
Y38138D01*
X185471D01*
Y37337D01*
X185871D01*
X277571Y104237D02*
Y103838D01*
X278371D01*
Y104237D01*
X278771D01*
Y105037D01*
X278371D01*
Y105438D01*
X277571D01*
Y105037D01*
X277171D01*
Y104237D01*
X277571D01*
X252771Y122837D02*
Y122438D01*
X253571D01*
Y122837D01*
X253971D01*
Y123637D01*
X253571D01*
Y124038D01*
X252771D01*
Y123637D01*
X252371D01*
Y122837D01*
X252771D01*
X237571Y56638D02*
Y56238D01*
X238371D01*
Y56638D01*
X238771D01*
Y57437D01*
X238371D01*
Y57837D01*
X237571D01*
Y57437D01*
X237171D01*
Y56638D01*
X237571D01*
X230059Y90737D02*
Y90338D01*
X230859D01*
Y90737D01*
X231259D01*
Y91537D01*
X230859D01*
Y91938D01*
X230059D01*
Y91537D01*
X229659D01*
Y90737D01*
X230059D01*
X213159Y51237D02*
Y50837D01*
X213959D01*
Y51237D01*
X214359D01*
Y52038D01*
X213959D01*
Y52438D01*
X213159D01*
Y52038D01*
X212759D01*
Y51237D01*
X213159D01*
X281971Y39538D02*
Y39138D01*
X282771D01*
Y39538D01*
X283171D01*
Y40337D01*
X282771D01*
Y40738D01*
X281971D01*
Y40337D01*
X281571D01*
Y39538D01*
X281971D01*
X272571Y21637D02*
Y21238D01*
X273371D01*
Y21637D01*
X273771D01*
Y22437D01*
X273371D01*
Y22838D01*
X272571D01*
Y22437D01*
X272171D01*
Y21637D01*
X272571D01*
X292359Y89638D02*
Y89237D01*
X293159D01*
Y89638D01*
X293559D01*
Y90438D01*
X293159D01*
Y90838D01*
X292359D01*
Y90438D01*
X291959D01*
Y89638D01*
X292359D01*
X243359Y88038D02*
Y87638D01*
X244159D01*
Y88038D01*
X244559D01*
Y88837D01*
X244159D01*
Y89237D01*
X243359D01*
Y88837D01*
X242959D01*
Y88038D01*
X243359D01*
X229671Y56638D02*
Y56238D01*
X230471D01*
Y56638D01*
X230871D01*
Y57437D01*
X230471D01*
Y57837D01*
X229671D01*
Y57437D01*
X229271D01*
Y56638D01*
X229671D01*
X243559Y48138D02*
Y47738D01*
X244359D01*
Y48138D01*
X244759D01*
Y48937D01*
X244359D01*
Y49338D01*
X243559D01*
Y48937D01*
X243159D01*
Y48138D01*
X243559D01*
X225759Y51237D02*
Y50837D01*
X226559D01*
Y51237D01*
X226959D01*
Y52038D01*
X226559D01*
Y52438D01*
X225759D01*
Y52038D01*
X225359D01*
Y51237D01*
X225759D01*
X224759Y91838D02*
Y91438D01*
X225559D01*
Y91838D01*
X225959D01*
Y92637D01*
X225559D01*
Y93037D01*
X224759D01*
Y92637D01*
X224359D01*
Y91838D01*
X224759D01*
X279859Y82837D02*
Y82437D01*
X280659D01*
Y82837D01*
X281059D01*
Y83637D01*
X280659D01*
Y84038D01*
X279859D01*
Y83637D01*
X279459D01*
Y82837D01*
X279859D01*
X252705Y26395D02*
Y25995D01*
X253505D01*
Y26395D01*
X253905D01*
Y27194D01*
X253505D01*
Y27595D01*
X252705D01*
Y27194D01*
X252305D01*
Y26395D01*
X252705D01*
X231759Y117237D02*
Y116838D01*
X232559D01*
Y117237D01*
X232959D01*
Y118037D01*
X232559D01*
Y118438D01*
X231759D01*
Y118037D01*
X231359D01*
Y117237D01*
X231759D01*
X257771Y118737D02*
Y118338D01*
X258571D01*
Y118737D01*
X258971D01*
Y119537D01*
X258571D01*
Y119938D01*
X257771D01*
Y119537D01*
X257371D01*
Y118737D01*
X257771D01*
X222871Y109637D02*
Y109238D01*
X223671D01*
Y109637D01*
X224071D01*
Y110438D01*
X223671D01*
Y110837D01*
X222871D01*
Y110438D01*
X222471D01*
Y109637D01*
X222871D01*
X193571Y95138D02*
Y94737D01*
X194371D01*
Y95138D01*
X194771D01*
Y95938D01*
X194371D01*
Y96337D01*
X193571D01*
Y95938D01*
X193171D01*
Y95138D01*
X193571D01*
X190971Y95038D02*
Y94638D01*
X191771D01*
Y95038D01*
X192171D01*
Y95837D01*
X191771D01*
Y96237D01*
X190971D01*
Y95837D01*
X190571D01*
Y95038D01*
X190971D01*
X209171Y82038D02*
Y81638D01*
X209971D01*
Y82038D01*
X210371D01*
Y82837D01*
X209971D01*
Y83237D01*
X209171D01*
Y82837D01*
X208771D01*
Y82038D01*
X209171D01*
Y78537D02*
Y78137D01*
X209971D01*
Y78537D01*
X210371D01*
Y79338D01*
X209971D01*
Y79738D01*
X209171D01*
Y79338D01*
X208771D01*
Y78537D01*
X209171D01*
Y87986D02*
Y87586D01*
X209971D01*
Y87986D01*
X210371D01*
Y88786D01*
X209971D01*
Y89186D01*
X209171D01*
Y88786D01*
X208771D01*
Y87986D01*
X209171D01*
Y84837D02*
Y84437D01*
X209971D01*
Y84837D01*
X210371D01*
Y85637D01*
X209971D01*
Y86037D01*
X209171D01*
Y85637D01*
X208771D01*
Y84837D01*
X209171D01*
X246114Y105065D02*
Y104665D01*
X246914D01*
Y105065D01*
X247314D01*
Y105865D01*
X246914D01*
Y106265D01*
X246114D01*
Y105865D01*
X245714D01*
Y105065D01*
X246114D01*
X248873Y106785D02*
Y106385D01*
X249673D01*
Y106785D01*
X250073D01*
Y107585D01*
X249673D01*
Y107985D01*
X248873D01*
Y107585D01*
X248473D01*
Y106785D01*
X248873D01*
X242074Y109934D02*
Y109534D01*
X242874D01*
Y109934D01*
X243274D01*
Y110734D01*
X242874D01*
Y111134D01*
X242074D01*
Y110734D01*
X241674D01*
Y109934D01*
X242074D01*
X242771Y112493D02*
Y112093D01*
X243571D01*
Y112493D01*
X243971D01*
Y113293D01*
X243571D01*
Y113693D01*
X242771D01*
Y113293D01*
X242371D01*
Y112493D01*
X242771D01*
Y115138D02*
Y114738D01*
X243571D01*
Y115138D01*
X243971D01*
Y115938D01*
X243571D01*
Y116338D01*
X242771D01*
Y115938D01*
X242371D01*
Y115138D01*
X242771D01*
X207071Y86738D02*
Y86338D01*
X207871D01*
Y86738D01*
X208271D01*
Y87537D01*
X207871D01*
Y87937D01*
X207071D01*
Y87537D01*
X206671D01*
Y86738D01*
X207071D01*
M02*
