G04 Layer_Color=128*
%FSLAX25Y25*%
%MOIN*%
G70*
G01*
G75*
%ADD16C,0.00787*%
%ADD37R,0.08000X0.03200*%
%ADD38R,0.03200X0.08000*%
%ADD39R,0.03200X0.03200*%
%ADD40R,0.04724X0.05512*%
%ADD41R,0.03740X0.02165*%
%ADD42R,0.02165X0.02165*%
%ADD43R,0.02165X0.03740*%
%ADD44R,0.02362X0.02362*%
%ADD45R,0.18189X0.07087*%
%ADD46O,0.01102X0.03543*%
%ADD47O,0.03543X0.01102*%
%ADD48R,0.20669X0.20669*%
%ADD49R,0.01693X0.01929*%
%ADD50R,0.01772X0.02323*%
%ADD51R,0.01713X0.02323*%
%ADD52R,0.02362X0.01969*%
%ADD53R,0.05118X0.02756*%
%ADD54R,0.05118X0.04134*%
%ADD55C,0.01772*%
%ADD56C,0.01929*%
%ADD57R,0.02200X0.02000*%
%ADD58R,0.02000X0.02200*%
%ADD59R,0.01378X0.02559*%
%ADD60R,0.02559X0.01378*%
%ADD61R,0.01102X0.02953*%
%ADD62R,0.03673X0.01800*%
%ADD64R,0.02760X0.02560*%
%ADD65R,0.04000X0.05000*%
%ADD66R,0.06700X0.07100*%
%ADD67R,0.02000X0.02800*%
%ADD68R,0.03000X0.03200*%
%ADD69R,0.03200X0.03000*%
%ADD70R,0.05000X0.04000*%
%ADD71R,0.04731X0.02962*%
%ADD72R,0.07874X0.03150*%
%ADD74R,0.02362X0.00984*%
%ADD75R,0.03150X0.01378*%
%ADD76R,0.05118X0.06102*%
%ADD77C,0.07480*%
%ADD79R,0.05118X0.05118*%
%ADD80R,0.24803X0.09055*%
%ADD81R,0.02953X0.01102*%
%ADD146R,0.00669X0.02165*%
%ADD147C,0.01102*%
%ADD148R,0.07480X0.07480*%
G54D16*
X354329Y0D02*
Y196851D01*
X0Y0D02*
X354329D01*
X0Y196851D02*
X354329D01*
X0Y0D02*
Y196851D01*
G54D37*
X221868Y15473D02*
D03*
X233768D02*
D03*
X222168Y69774D02*
D03*
X185568Y129574D02*
D03*
X197568D02*
D03*
X245768Y15473D02*
D03*
X257768D02*
D03*
X269768D02*
D03*
X281768D02*
D03*
X293768D02*
D03*
X234168Y69774D02*
D03*
X246168D02*
D03*
X258168D02*
D03*
X293568Y93173D02*
D03*
X305568D02*
D03*
X209568Y129574D02*
D03*
X221568D02*
D03*
X233568D02*
D03*
X245568D02*
D03*
X257568D02*
D03*
X269568D02*
D03*
X281568D02*
D03*
X293568D02*
D03*
X305568D02*
D03*
G54D38*
X203968Y52473D02*
D03*
X168468Y61974D02*
D03*
Y73974D02*
D03*
Y85974D02*
D03*
Y97974D02*
D03*
Y109974D02*
D03*
X308368Y35074D02*
D03*
Y47074D02*
D03*
X322768Y81073D02*
D03*
Y111373D02*
D03*
G54D39*
X203968Y69774D02*
D03*
X181668Y15473D02*
D03*
X308368D02*
D03*
Y66673D02*
D03*
X322768D02*
D03*
X168468Y129574D02*
D03*
X322768D02*
D03*
X168468Y42173D02*
D03*
X181668D02*
D03*
X207168D02*
D03*
Y15473D02*
D03*
X276368Y69774D02*
D03*
Y93173D02*
D03*
X322768D02*
D03*
G54D40*
X201904Y31497D02*
D03*
Y22836D02*
D03*
X195605D02*
D03*
Y31497D02*
D03*
G54D41*
X283012Y80097D02*
D03*
G54D42*
X287343D02*
D03*
X290492D02*
D03*
X297185D02*
D03*
X300335D02*
D03*
X303484D02*
D03*
Y58837D02*
D03*
X285295D02*
D03*
X288327D02*
D03*
X291398D02*
D03*
X294429D02*
D03*
X297500D02*
D03*
X300532D02*
D03*
G54D43*
X293642Y79309D02*
D03*
X282224Y59624D02*
D03*
G54D44*
X303484Y63364D02*
D03*
X300532D02*
D03*
X297500D02*
D03*
X294429D02*
D03*
X291398D02*
D03*
X288327D02*
D03*
X285295D02*
D03*
X282224Y66711D02*
D03*
X285295D02*
D03*
X288327D02*
D03*
X291398D02*
D03*
X294429D02*
D03*
X297500D02*
D03*
X300532D02*
D03*
X303484D02*
D03*
X195032Y157136D02*
D03*
Y150443D02*
D03*
G54D45*
X292618Y72419D02*
D03*
G54D46*
X226128Y56849D02*
D03*
X228096D02*
D03*
X230065D02*
D03*
X232033D02*
D03*
X234002D02*
D03*
X235970D02*
D03*
X237939D02*
D03*
X239907D02*
D03*
X241876D02*
D03*
X243844D02*
D03*
X245813D02*
D03*
X247781D02*
D03*
Y29684D02*
D03*
X245813D02*
D03*
X243844D02*
D03*
X241876D02*
D03*
X239907D02*
D03*
X237939D02*
D03*
X235970D02*
D03*
X234002D02*
D03*
X232033D02*
D03*
X230065D02*
D03*
X228096D02*
D03*
X226128D02*
D03*
G54D47*
X250537Y54093D02*
D03*
Y52125D02*
D03*
Y50156D02*
D03*
Y48188D02*
D03*
Y46219D02*
D03*
Y44251D02*
D03*
Y42282D02*
D03*
Y40314D02*
D03*
Y38345D02*
D03*
Y36377D02*
D03*
Y34408D02*
D03*
Y32440D02*
D03*
X223372D02*
D03*
Y34408D02*
D03*
Y36377D02*
D03*
Y38345D02*
D03*
Y40314D02*
D03*
Y42282D02*
D03*
Y44251D02*
D03*
Y46219D02*
D03*
Y48188D02*
D03*
Y50156D02*
D03*
Y52125D02*
D03*
Y54093D02*
D03*
G54D48*
X236954Y43266D02*
D03*
G54D49*
X282968Y46066D02*
D03*
Y36066D02*
D03*
Y27966D02*
D03*
G54D50*
X280054Y44275D02*
D03*
Y47858D02*
D03*
Y34275D02*
D03*
Y37858D02*
D03*
Y26175D02*
D03*
Y29758D02*
D03*
G54D51*
X277151Y44275D02*
D03*
Y47858D02*
D03*
Y34275D02*
D03*
Y37858D02*
D03*
Y26175D02*
D03*
Y29758D02*
D03*
G54D52*
X289142Y35067D02*
D03*
Y38217D02*
D03*
Y41366D02*
D03*
Y44516D02*
D03*
Y47666D02*
D03*
X300166D02*
D03*
Y44516D02*
D03*
Y41366D02*
D03*
Y38217D02*
D03*
Y35067D02*
D03*
G54D53*
X294654Y49241D02*
D03*
Y33492D02*
D03*
G54D54*
Y44221D02*
D03*
Y38512D02*
D03*
G54D55*
X280432Y125640D02*
D03*
Y97293D02*
D03*
X283581Y113041D02*
D03*
Y109892D02*
D03*
X286731Y119341D02*
D03*
Y116191D02*
D03*
Y113041D02*
D03*
Y109892D02*
D03*
Y106742D02*
D03*
Y103593D02*
D03*
X289880Y122490D02*
D03*
Y119341D02*
D03*
Y116191D02*
D03*
Y113041D02*
D03*
Y109892D02*
D03*
Y106742D02*
D03*
Y103593D02*
D03*
Y100443D02*
D03*
X293030Y122490D02*
D03*
Y119341D02*
D03*
Y116191D02*
D03*
Y113041D02*
D03*
Y109892D02*
D03*
Y106742D02*
D03*
Y103593D02*
D03*
Y100443D02*
D03*
X296180Y122490D02*
D03*
Y119341D02*
D03*
Y116191D02*
D03*
Y106742D02*
D03*
Y103593D02*
D03*
Y100443D02*
D03*
X299329Y122490D02*
D03*
Y119341D02*
D03*
Y116191D02*
D03*
Y106742D02*
D03*
Y103593D02*
D03*
Y100443D02*
D03*
X302479Y122490D02*
D03*
Y119341D02*
D03*
Y116191D02*
D03*
Y113041D02*
D03*
Y109892D02*
D03*
Y106742D02*
D03*
Y103593D02*
D03*
Y100443D02*
D03*
X305628Y122490D02*
D03*
Y119341D02*
D03*
Y116191D02*
D03*
Y113041D02*
D03*
Y109892D02*
D03*
Y106742D02*
D03*
Y103593D02*
D03*
Y100443D02*
D03*
X308778Y119341D02*
D03*
Y116191D02*
D03*
Y113041D02*
D03*
Y109892D02*
D03*
Y106742D02*
D03*
Y103593D02*
D03*
X311928Y113041D02*
D03*
Y109892D02*
D03*
X315077Y125640D02*
D03*
Y97293D02*
D03*
G54D56*
X184381Y106040D02*
D03*
Y102890D02*
D03*
Y99741D02*
D03*
Y96591D02*
D03*
Y93441D02*
D03*
Y90292D02*
D03*
Y87142D02*
D03*
Y83992D02*
D03*
Y80843D02*
D03*
Y77693D02*
D03*
X187531Y106040D02*
D03*
Y102890D02*
D03*
Y99741D02*
D03*
Y96591D02*
D03*
Y93441D02*
D03*
Y90292D02*
D03*
Y87142D02*
D03*
Y83992D02*
D03*
Y80843D02*
D03*
Y77693D02*
D03*
X190680Y106040D02*
D03*
Y102890D02*
D03*
Y99741D02*
D03*
Y96591D02*
D03*
Y93441D02*
D03*
Y90292D02*
D03*
Y87142D02*
D03*
Y83992D02*
D03*
Y80843D02*
D03*
Y77693D02*
D03*
X193830Y106040D02*
D03*
Y102890D02*
D03*
Y99741D02*
D03*
Y96591D02*
D03*
Y93441D02*
D03*
Y90292D02*
D03*
Y87142D02*
D03*
Y83992D02*
D03*
Y80843D02*
D03*
Y77693D02*
D03*
X196979Y106040D02*
D03*
Y102890D02*
D03*
Y99741D02*
D03*
Y96591D02*
D03*
Y93441D02*
D03*
Y90292D02*
D03*
Y87142D02*
D03*
Y83992D02*
D03*
Y80843D02*
D03*
Y77693D02*
D03*
X200129Y106040D02*
D03*
Y102890D02*
D03*
Y99741D02*
D03*
Y96591D02*
D03*
Y93441D02*
D03*
Y90292D02*
D03*
Y87142D02*
D03*
Y83992D02*
D03*
Y80843D02*
D03*
Y77693D02*
D03*
X203279Y106040D02*
D03*
Y102890D02*
D03*
Y99741D02*
D03*
Y96591D02*
D03*
Y93441D02*
D03*
Y90292D02*
D03*
Y87142D02*
D03*
Y83992D02*
D03*
Y80843D02*
D03*
Y77693D02*
D03*
X206428Y106040D02*
D03*
Y102890D02*
D03*
Y99741D02*
D03*
Y96591D02*
D03*
Y93441D02*
D03*
Y90292D02*
D03*
Y87142D02*
D03*
Y83992D02*
D03*
Y80843D02*
D03*
Y77693D02*
D03*
X209578Y106040D02*
D03*
Y102890D02*
D03*
Y99741D02*
D03*
Y96591D02*
D03*
Y93441D02*
D03*
Y90292D02*
D03*
Y87142D02*
D03*
Y83992D02*
D03*
Y80843D02*
D03*
Y77693D02*
D03*
X212728Y106040D02*
D03*
Y102890D02*
D03*
Y99741D02*
D03*
Y96591D02*
D03*
Y93441D02*
D03*
Y90292D02*
D03*
Y87142D02*
D03*
Y83992D02*
D03*
Y80843D02*
D03*
Y77693D02*
D03*
X267677Y118539D02*
D03*
X264528D02*
D03*
X261378D02*
D03*
X258228D02*
D03*
X255079D02*
D03*
X251929D02*
D03*
X248780D02*
D03*
X245630D02*
D03*
X242480D02*
D03*
X239331D02*
D03*
X236181D02*
D03*
X233032D02*
D03*
X229882D02*
D03*
X270827Y115389D02*
D03*
X267677D02*
D03*
X264528D02*
D03*
X261378D02*
D03*
X258228D02*
D03*
X255079D02*
D03*
X251929D02*
D03*
X248780D02*
D03*
X245630D02*
D03*
X242480D02*
D03*
X239331D02*
D03*
X236181D02*
D03*
X233032D02*
D03*
X229882D02*
D03*
X270827Y112240D02*
D03*
X267677D02*
D03*
X264528D02*
D03*
X261378D02*
D03*
X258228D02*
D03*
X255079D02*
D03*
X251929D02*
D03*
X248780D02*
D03*
X245630D02*
D03*
X242480D02*
D03*
X239331D02*
D03*
X236181D02*
D03*
X233032D02*
D03*
X229882D02*
D03*
X270827Y109090D02*
D03*
X267677D02*
D03*
X264528D02*
D03*
X261378D02*
D03*
X258228D02*
D03*
X255079D02*
D03*
X251929D02*
D03*
X248780D02*
D03*
X245630D02*
D03*
X242480D02*
D03*
X239331D02*
D03*
X236181D02*
D03*
X233032D02*
D03*
X229882D02*
D03*
X270827Y105941D02*
D03*
X267677D02*
D03*
X264528D02*
D03*
X261378D02*
D03*
X258228D02*
D03*
X255079D02*
D03*
X251929D02*
D03*
X248780D02*
D03*
X245630D02*
D03*
X242480D02*
D03*
X239331D02*
D03*
X236181D02*
D03*
X233032D02*
D03*
X229882D02*
D03*
X270827Y102791D02*
D03*
X267677D02*
D03*
X264528D02*
D03*
X261378D02*
D03*
X258228D02*
D03*
X242480D02*
D03*
X239331D02*
D03*
X236181D02*
D03*
X233032D02*
D03*
X229882D02*
D03*
X270827Y99641D02*
D03*
X267677D02*
D03*
X264528D02*
D03*
X261378D02*
D03*
X258228D02*
D03*
X242480D02*
D03*
X239331D02*
D03*
X236181D02*
D03*
X233032D02*
D03*
X229882D02*
D03*
X270827Y96492D02*
D03*
X267677D02*
D03*
X264528D02*
D03*
X261378D02*
D03*
X258228D02*
D03*
X242480D02*
D03*
X239331D02*
D03*
X236181D02*
D03*
X233032D02*
D03*
X229882D02*
D03*
X270827Y93342D02*
D03*
X267677D02*
D03*
X264528D02*
D03*
X261378D02*
D03*
X258228D02*
D03*
X242480D02*
D03*
X239331D02*
D03*
X236181D02*
D03*
X233032D02*
D03*
X229882D02*
D03*
X270827Y90193D02*
D03*
X267677D02*
D03*
X264528D02*
D03*
X261378D02*
D03*
X258228D02*
D03*
X255079D02*
D03*
X251929D02*
D03*
X248780D02*
D03*
X245630D02*
D03*
X242480D02*
D03*
X239331D02*
D03*
X236181D02*
D03*
X233032D02*
D03*
X229882D02*
D03*
X270827Y87043D02*
D03*
X267677D02*
D03*
X264528D02*
D03*
X261378D02*
D03*
X258228D02*
D03*
X255079D02*
D03*
X251929D02*
D03*
X248780D02*
D03*
X245630D02*
D03*
X242480D02*
D03*
X239331D02*
D03*
X236181D02*
D03*
X233032D02*
D03*
X229882D02*
D03*
X270827Y83893D02*
D03*
X267677D02*
D03*
X264528D02*
D03*
X261378D02*
D03*
X258228D02*
D03*
X255079D02*
D03*
X251929D02*
D03*
X248780D02*
D03*
X245630D02*
D03*
X242480D02*
D03*
X239331D02*
D03*
X236181D02*
D03*
X233032D02*
D03*
X229882D02*
D03*
X270827Y80744D02*
D03*
X267677D02*
D03*
X264528D02*
D03*
X261378D02*
D03*
X258228D02*
D03*
X255079D02*
D03*
X251929D02*
D03*
X248780D02*
D03*
X245630D02*
D03*
X242480D02*
D03*
X239331D02*
D03*
X236181D02*
D03*
X233032D02*
D03*
X229882D02*
D03*
X270827Y77594D02*
D03*
X267677D02*
D03*
X264528D02*
D03*
X261378D02*
D03*
X258228D02*
D03*
X255079D02*
D03*
X251929D02*
D03*
X248780D02*
D03*
X245630D02*
D03*
X242480D02*
D03*
X239331D02*
D03*
X236181D02*
D03*
X233032D02*
D03*
X229882D02*
D03*
G54D57*
X318454Y80167D02*
D03*
X315054D02*
D03*
X261454Y124767D02*
D03*
X264854D02*
D03*
X262454Y65566D02*
D03*
X265854D02*
D03*
X220854Y86766D02*
D03*
X224254D02*
D03*
X220854Y91466D02*
D03*
X224254D02*
D03*
X220854Y76467D02*
D03*
X224254D02*
D03*
X220754Y124667D02*
D03*
X224154D02*
D03*
X199354Y37067D02*
D03*
X202754D02*
D03*
X176054Y93866D02*
D03*
X172654D02*
D03*
X177554Y54667D02*
D03*
X180954D02*
D03*
X220854Y97966D02*
D03*
X224254D02*
D03*
X176054Y89767D02*
D03*
X172654D02*
D03*
X176154Y74766D02*
D03*
X172754D02*
D03*
X239854Y124767D02*
D03*
X243254D02*
D03*
X231954Y23666D02*
D03*
X235354D02*
D03*
X239654Y24466D02*
D03*
X243054D02*
D03*
X262654Y55167D02*
D03*
X266054D02*
D03*
X262654Y51467D02*
D03*
X266054D02*
D03*
X262654Y45066D02*
D03*
X266054D02*
D03*
X262654Y41366D02*
D03*
X266054D02*
D03*
X262654Y34866D02*
D03*
X266054D02*
D03*
X262654Y31266D02*
D03*
X266054D02*
D03*
X290554Y54167D02*
D03*
X293954D02*
D03*
X297354D02*
D03*
X300754D02*
D03*
X283754D02*
D03*
X287154D02*
D03*
X235354Y20467D02*
D03*
X231954D02*
D03*
X215654Y48066D02*
D03*
X219054D02*
D03*
X258154Y48267D02*
D03*
X261554D02*
D03*
X215654Y44866D02*
D03*
X219054D02*
D03*
X215654Y41666D02*
D03*
X219054D02*
D03*
X258154Y38166D02*
D03*
X261554D02*
D03*
X243054Y20066D02*
D03*
X239654D02*
D03*
X249854Y24466D02*
D03*
X246454D02*
D03*
X282554Y40966D02*
D03*
X279154D02*
D03*
Y54167D02*
D03*
X275754D02*
D03*
X254754Y124767D02*
D03*
X258154D02*
D03*
X271654D02*
D03*
X268254D02*
D03*
X220854Y94666D02*
D03*
X224254D02*
D03*
X186354Y29366D02*
D03*
X189754D02*
D03*
X215654Y52767D02*
D03*
X219054D02*
D03*
X215654Y55967D02*
D03*
X219054D02*
D03*
X224154Y121066D02*
D03*
X220754D02*
D03*
X176054Y108967D02*
D03*
X172654D02*
D03*
X176054Y105266D02*
D03*
X172654D02*
D03*
X224259Y102237D02*
D03*
X220859D02*
D03*
X234154Y124467D02*
D03*
X230754D02*
D03*
X224254Y83566D02*
D03*
X220854D02*
D03*
X251354Y124767D02*
D03*
X247954D02*
D03*
X172754Y71566D02*
D03*
X176154D02*
D03*
X177502Y157718D02*
D03*
X174102D02*
D03*
X146454Y111851D02*
D03*
X143054D02*
D03*
X146482Y106737D02*
D03*
X143082D02*
D03*
X134581Y126218D02*
D03*
X131181D02*
D03*
X133149Y103315D02*
D03*
X136549D02*
D03*
X132881Y120387D02*
D03*
X136281D02*
D03*
X313254Y40988D02*
D03*
X316654D02*
D03*
X168702Y157718D02*
D03*
X165302D02*
D03*
X186502Y157718D02*
D03*
X183102D02*
D03*
X143117Y116820D02*
D03*
X146517D02*
D03*
G54D58*
X292354Y85066D02*
D03*
Y88467D02*
D03*
X289154D02*
D03*
Y85066D02*
D03*
X227454Y65066D02*
D03*
Y61667D02*
D03*
X290354Y21666D02*
D03*
Y25067D02*
D03*
X302354D02*
D03*
Y21666D02*
D03*
X261654Y23866D02*
D03*
Y20467D02*
D03*
X186254Y36066D02*
D03*
Y32667D02*
D03*
X172554Y97767D02*
D03*
Y101166D02*
D03*
X304054Y54066D02*
D03*
Y50666D02*
D03*
Y43867D02*
D03*
Y47267D02*
D03*
X277454Y59667D02*
D03*
Y63067D02*
D03*
X285954Y85066D02*
D03*
Y88467D02*
D03*
X301954Y85066D02*
D03*
Y88467D02*
D03*
X298754Y85066D02*
D03*
Y88467D02*
D03*
X295554Y85066D02*
D03*
Y88467D02*
D03*
X316754Y76867D02*
D03*
Y73466D02*
D03*
X249854Y61667D02*
D03*
Y65066D02*
D03*
X246654Y61667D02*
D03*
Y65066D02*
D03*
X243454Y61667D02*
D03*
Y65066D02*
D03*
X240254Y61667D02*
D03*
Y65066D02*
D03*
X237054Y61667D02*
D03*
Y65066D02*
D03*
X233854Y61667D02*
D03*
Y65066D02*
D03*
X230654Y61667D02*
D03*
Y65066D02*
D03*
X257154Y25866D02*
D03*
Y22467D02*
D03*
X217154Y20166D02*
D03*
Y23566D02*
D03*
X227454Y20666D02*
D03*
Y24067D02*
D03*
X223554Y20166D02*
D03*
Y23566D02*
D03*
X220354Y20166D02*
D03*
Y23566D02*
D03*
X258054Y54966D02*
D03*
Y51566D02*
D03*
Y44967D02*
D03*
Y41567D02*
D03*
Y31367D02*
D03*
Y34767D02*
D03*
X271754Y51166D02*
D03*
Y47767D02*
D03*
Y41166D02*
D03*
Y37767D02*
D03*
Y32067D02*
D03*
Y28666D02*
D03*
X304054Y33566D02*
D03*
Y30167D02*
D03*
X176154Y97767D02*
D03*
Y101166D02*
D03*
X189854Y36066D02*
D03*
Y32667D02*
D03*
X217654Y121167D02*
D03*
Y124566D02*
D03*
X217454Y117766D02*
D03*
Y114366D02*
D03*
X221954Y114166D02*
D03*
Y117567D02*
D03*
X265749Y139052D02*
D03*
Y142453D02*
D03*
X190198Y163433D02*
D03*
Y166833D02*
D03*
X195528Y163433D02*
D03*
Y166833D02*
D03*
X200859Y156667D02*
D03*
Y153267D02*
D03*
Y163433D02*
D03*
Y166833D02*
D03*
X184867Y163433D02*
D03*
Y166833D02*
D03*
X255995Y166834D02*
D03*
Y163434D02*
D03*
X281033Y176834D02*
D03*
Y173434D02*
D03*
X301033Y176834D02*
D03*
Y173434D02*
D03*
X311033Y176834D02*
D03*
Y173434D02*
D03*
X234902Y166834D02*
D03*
Y163434D02*
D03*
X250964Y166834D02*
D03*
Y163434D02*
D03*
X239933Y166834D02*
D03*
Y163434D02*
D03*
X108794Y185920D02*
D03*
Y189320D02*
D03*
Y180320D02*
D03*
Y176920D02*
D03*
X163503Y23976D02*
D03*
Y20576D02*
D03*
X125145Y109883D02*
D03*
Y113283D02*
D03*
X125279Y120387D02*
D03*
Y123787D02*
D03*
X125145Y103315D02*
D03*
Y99915D02*
D03*
X168702Y163370D02*
D03*
Y166770D02*
D03*
X163302D02*
D03*
Y163370D02*
D03*
X179502D02*
D03*
Y166770D02*
D03*
X174102D02*
D03*
Y163370D02*
D03*
G54D59*
X280435Y84896D02*
D03*
X283073D02*
D03*
Y88637D02*
D03*
X280435D02*
D03*
G54D60*
X308284Y74385D02*
D03*
Y71748D02*
D03*
X312024D02*
D03*
Y74385D02*
D03*
G54D61*
X196407Y50206D02*
D03*
X194439D02*
D03*
X192470D02*
D03*
X190502D02*
D03*
Y55127D02*
D03*
X192470D02*
D03*
X194439D02*
D03*
X196407D02*
D03*
Y62806D02*
D03*
X194439D02*
D03*
X192470D02*
D03*
X190502D02*
D03*
Y67727D02*
D03*
X192470D02*
D03*
X194439D02*
D03*
X196407D02*
D03*
G54D62*
X265746Y20098D02*
D03*
Y24035D02*
D03*
X271362Y22066D02*
D03*
G54D64*
X189554Y25916D02*
D03*
Y20216D02*
D03*
G54D65*
X216754Y63367D02*
D03*
X223154D02*
D03*
X198854Y116466D02*
D03*
X192454D02*
D03*
X211054Y116367D02*
D03*
X204654D02*
D03*
G54D66*
X307542Y87067D02*
D03*
X316566D02*
D03*
G54D67*
X191923Y58867D02*
D03*
X187985D02*
D03*
X194785D02*
D03*
X198723D02*
D03*
G54D68*
X178349Y125054D02*
D03*
X172949D02*
D03*
G54D69*
X174654Y85966D02*
D03*
Y80567D02*
D03*
G54D70*
X183649Y117353D02*
D03*
Y123753D02*
D03*
X173804Y113567D02*
D03*
Y119966D02*
D03*
X209954Y63666D02*
D03*
Y57266D02*
D03*
G54D71*
X212959Y121606D02*
D03*
Y125670D02*
D03*
G54D72*
X191696Y122161D02*
D03*
Y125113D02*
D03*
G54D74*
X200544Y145408D02*
D03*
Y141471D02*
D03*
X195032Y143439D02*
D03*
G54D75*
X96240Y174781D02*
D03*
Y177340D02*
D03*
Y179899D02*
D03*
X102933D02*
D03*
Y177340D02*
D03*
Y174781D02*
D03*
G54D76*
X152701Y133608D02*
D03*
Y164907D02*
D03*
X134984Y133608D02*
D03*
Y164907D02*
D03*
X102933D02*
D03*
Y133608D02*
D03*
X120650Y164907D02*
D03*
Y133608D02*
D03*
G54D77*
X338672Y40988D02*
D03*
G54D79*
X154868Y23976D02*
D03*
Y33976D02*
D03*
Y43976D02*
D03*
Y53976D02*
D03*
X57230Y23976D02*
D03*
Y33976D02*
D03*
Y43976D02*
D03*
Y53976D02*
D03*
G54D80*
X218660Y136977D02*
D03*
Y160599D02*
D03*
G54D81*
X119489Y185242D02*
D03*
Y183273D02*
D03*
Y181305D02*
D03*
Y179336D02*
D03*
X114568D02*
D03*
Y181305D02*
D03*
Y183273D02*
D03*
Y185242D02*
D03*
G54D146*
X298323Y20515D02*
D03*
X296354D02*
D03*
X294386D02*
D03*
Y26618D02*
D03*
X296354D02*
D03*
X298323D02*
D03*
G54D147*
X132612Y113820D02*
D03*
Y109883D02*
D03*
X134581Y113820D02*
D03*
Y111851D02*
D03*
Y109883D02*
D03*
X136549Y113820D02*
D03*
Y111851D02*
D03*
Y109883D02*
D03*
G54D148*
X349498Y51814D02*
D03*
X327845D02*
D03*
Y30161D02*
D03*
X349498D02*
D03*
M02*
