G04 Layer_Color=2752767*
%FSLAX25Y25*%
%MOIN*%
G70*
G01*
G75*
%ADD16C,0.00787*%
%ADD152C,0.00200*%
G54D16*
X354329Y0D02*
Y196851D01*
X0Y0D02*
X354329D01*
X0Y196851D02*
X354329D01*
X0Y0D02*
Y196851D01*
G54D152*
X293659Y97439D02*
X294059D01*
X294459Y97839D01*
X294859Y97439D01*
X295259D01*
Y97839D01*
X294859Y98239D01*
X295259Y98639D01*
Y99039D01*
X294859D01*
X294459Y98639D01*
X294059Y99039D01*
X293659D01*
Y98639D01*
X294059Y98239D01*
X293659Y97839D01*
Y97439D01*
X282188Y123947D02*
X282588D01*
X282988Y124347D01*
X283388Y123947D01*
X283788D01*
Y124347D01*
X283388Y124747D01*
X283788Y125147D01*
Y125547D01*
X283388D01*
X282988Y125147D01*
X282588Y125547D01*
X282188D01*
Y125147D01*
X282588Y124747D01*
X282188Y124347D01*
Y123947D01*
X265321Y78038D02*
X265721D01*
X266121Y78438D01*
X266521Y78038D01*
X266921D01*
Y78438D01*
X266521Y78838D01*
X266921Y79238D01*
Y79638D01*
X266521D01*
X266121Y79238D01*
X265721Y79638D01*
X265321D01*
Y79238D01*
X265721Y78838D01*
X265321Y78438D01*
Y78038D01*
X262159Y87337D02*
X262559D01*
X262959Y87738D01*
X263359Y87337D01*
X263759D01*
Y87738D01*
X263359Y88138D01*
X263759Y88538D01*
Y88937D01*
X263359D01*
X262959Y88538D01*
X262559Y88937D01*
X262159D01*
Y88538D01*
X262559Y88138D01*
X262159Y87738D01*
Y87337D01*
X243462Y98766D02*
X243863D01*
X244263Y99167D01*
X244662Y98766D01*
X245062D01*
Y99167D01*
X244662Y99567D01*
X245062Y99967D01*
Y100366D01*
X244662D01*
X244263Y99967D01*
X243863Y100366D01*
X243462D01*
Y99967D01*
X243863Y99567D01*
X243462Y99167D01*
Y98766D01*
X238159Y86037D02*
X238559D01*
X238959Y86437D01*
X239359Y86037D01*
X239759D01*
Y86437D01*
X239359Y86838D01*
X239759Y87238D01*
Y87638D01*
X239359D01*
X238959Y87238D01*
X238559Y87638D01*
X238159D01*
Y87238D01*
X238559Y86838D01*
X238159Y86437D01*
Y86037D01*
X242676Y81188D02*
X243076D01*
X243476Y81588D01*
X243876Y81188D01*
X244276D01*
Y81588D01*
X243876Y81988D01*
X244276Y82388D01*
Y82788D01*
X243876D01*
X243476Y82388D01*
X243076Y82788D01*
X242676D01*
Y82388D01*
X243076Y81988D01*
X242676Y81588D01*
Y81188D01*
X248062Y122238D02*
X248462D01*
X248862Y122637D01*
X249262Y122238D01*
X249662D01*
Y122637D01*
X249262Y123038D01*
X249662Y123438D01*
Y123837D01*
X249262D01*
X248862Y123438D01*
X248462Y123837D01*
X248062D01*
Y123438D01*
X248462Y123038D01*
X248062Y122637D01*
Y122238D01*
X248609Y113637D02*
X249009D01*
X249409Y114038D01*
X249809Y113637D01*
X250209D01*
Y114038D01*
X249809Y114437D01*
X250209Y114838D01*
Y115237D01*
X249809D01*
X249409Y114838D01*
X249009Y115237D01*
X248609D01*
Y114838D01*
X249009Y114437D01*
X248609Y114038D01*
Y113637D01*
X247271Y110837D02*
X247671D01*
X248071Y111238D01*
X248471Y110837D01*
X248871D01*
Y111238D01*
X248471Y111637D01*
X248871Y112038D01*
Y112437D01*
X248471D01*
X248071Y112038D01*
X247671Y112437D01*
X247271D01*
Y112038D01*
X247671Y111637D01*
X247271Y111238D01*
Y110837D01*
X240671Y114738D02*
X241071D01*
X241471Y115138D01*
X241871Y114738D01*
X242271D01*
Y115138D01*
X241871Y115538D01*
X242271Y115938D01*
Y116338D01*
X241871D01*
X241471Y115938D01*
X241071Y116338D01*
X240671D01*
Y115938D01*
X241071Y115538D01*
X240671Y115138D01*
Y114738D01*
X244116Y115723D02*
X244516D01*
X244916Y116122D01*
X245316Y115723D01*
X245716D01*
Y116122D01*
X245316Y116523D01*
X245716Y116922D01*
Y117323D01*
X245316D01*
X244916Y116922D01*
X244516Y117323D01*
X244116D01*
Y116922D01*
X244516Y116523D01*
X244116Y116122D01*
Y115723D01*
X247053Y109129D02*
X247453D01*
X247853Y109529D01*
X248253Y109129D01*
X248653D01*
Y109529D01*
X248253Y109929D01*
X248653Y110329D01*
Y110729D01*
X248253D01*
X247853Y110329D01*
X247453Y110729D01*
X247053D01*
Y110329D01*
X247453Y109929D01*
X247053Y109529D01*
Y109129D01*
X204371Y87437D02*
X204771D01*
X205171Y87837D01*
X205571Y87437D01*
X205971D01*
Y87837D01*
X205571Y88238D01*
X205971Y88638D01*
Y89038D01*
X205571D01*
X205171Y88638D01*
X204771Y89038D01*
X204371D01*
Y88638D01*
X204771Y88238D01*
X204371Y87837D01*
Y87437D01*
X203159Y124038D02*
X203559D01*
X203959Y124437D01*
X204359Y124038D01*
X204759D01*
Y124437D01*
X204359Y124838D01*
X204759Y125238D01*
Y125637D01*
X204359D01*
X203959Y125238D01*
X203559Y125637D01*
X203159D01*
Y125238D01*
X203559Y124838D01*
X203159Y124437D01*
Y124038D01*
X248959Y94437D02*
X249359D01*
X249759Y94837D01*
X250159Y94437D01*
X250559D01*
Y94837D01*
X250159Y95237D01*
X250559Y95638D01*
Y96038D01*
X250159D01*
X249759Y95638D01*
X249359Y96038D01*
X248959D01*
Y95638D01*
X249359Y95237D01*
X248959Y94837D01*
Y94437D01*
X256159Y61238D02*
X256559D01*
X256959Y61638D01*
X257359Y61238D01*
X257759D01*
Y61638D01*
X257359Y62037D01*
X257759Y62437D01*
Y62837D01*
X257359D01*
X256959Y62437D01*
X256559Y62837D01*
X256159D01*
Y62437D01*
X256559Y62037D01*
X256159Y61638D01*
Y61238D01*
X248759D02*
X249159D01*
X249559Y61638D01*
X249959Y61238D01*
X250359D01*
Y61638D01*
X249959Y62037D01*
X250359Y62437D01*
Y62837D01*
X249959D01*
X249559Y62437D01*
X249159Y62837D01*
X248759D01*
Y62437D01*
X249159Y62037D01*
X248759Y61638D01*
Y61238D01*
X297759Y21037D02*
X298159D01*
X298559Y21438D01*
X298959Y21037D01*
X299359D01*
Y21438D01*
X298959Y21837D01*
X299359Y22238D01*
Y22637D01*
X298959D01*
X298559Y22238D01*
X298159Y22637D01*
X297759D01*
Y22238D01*
X298159Y21837D01*
X297759Y21438D01*
Y21037D01*
X174559Y58038D02*
X174959D01*
X175359Y58438D01*
X175759Y58038D01*
X176159D01*
Y58438D01*
X175759Y58837D01*
X176159Y59237D01*
Y59637D01*
X175759D01*
X175359Y59237D01*
X174959Y59637D01*
X174559D01*
Y59237D01*
X174959Y58837D01*
X174559Y58438D01*
Y58038D01*
Y61238D02*
X174959D01*
X175359Y61638D01*
X175759Y61238D01*
X176159D01*
Y61638D01*
X175759Y62037D01*
X176159Y62437D01*
Y62837D01*
X175759D01*
X175359Y62437D01*
X174959Y62837D01*
X174559D01*
Y62437D01*
X174959Y62037D01*
X174559Y61638D01*
Y61238D01*
Y64438D02*
X174959D01*
X175359Y64837D01*
X175759Y64438D01*
X176159D01*
Y64837D01*
X175759Y65237D01*
X176159Y65637D01*
Y66037D01*
X175759D01*
X175359Y65637D01*
X174959Y66037D01*
X174559D01*
Y65637D01*
X174959Y65237D01*
X174559Y64837D01*
Y64438D01*
Y62837D02*
X174959D01*
X175359Y63238D01*
X175759Y62837D01*
X176159D01*
Y63238D01*
X175759Y63638D01*
X176159Y64038D01*
Y64438D01*
X175759D01*
X175359Y64038D01*
X174959Y64438D01*
X174559D01*
Y64038D01*
X174959Y63638D01*
X174559Y63238D01*
Y62837D01*
Y69238D02*
X174959D01*
X175359Y69638D01*
X175759Y69238D01*
X176159D01*
Y69638D01*
X175759Y70038D01*
X176159Y70438D01*
Y70837D01*
X175759D01*
X175359Y70438D01*
X174959Y70837D01*
X174559D01*
Y70438D01*
X174959Y70038D01*
X174559Y69638D01*
Y69238D01*
Y67637D02*
X174959D01*
X175359Y68037D01*
X175759Y67637D01*
X176159D01*
Y68037D01*
X175759Y68437D01*
X176159Y68837D01*
Y69238D01*
X175759D01*
X175359Y68837D01*
X174959Y69238D01*
X174559D01*
Y68837D01*
X174959Y68437D01*
X174559Y68037D01*
Y67637D01*
Y72438D02*
X174959D01*
X175359Y72838D01*
X175759Y72438D01*
X176159D01*
Y72838D01*
X175759Y73238D01*
X176159Y73637D01*
Y74037D01*
X175759D01*
X175359Y73637D01*
X174959Y74037D01*
X174559D01*
Y73637D01*
X174959Y73238D01*
X174559Y72838D01*
Y72438D01*
Y75638D02*
X174959D01*
X175359Y76038D01*
X175759Y75638D01*
X176159D01*
Y76038D01*
X175759Y76437D01*
X176159Y76837D01*
Y77237D01*
X175759D01*
X175359Y76837D01*
X174959Y77237D01*
X174559D01*
Y76837D01*
X174959Y76437D01*
X174559Y76038D01*
Y75638D01*
Y77237D02*
X174959D01*
X175359Y77637D01*
X175759Y77237D01*
X176159D01*
Y77637D01*
X175759Y78038D01*
X176159Y78438D01*
Y78838D01*
X175759D01*
X175359Y78438D01*
X174959Y78838D01*
X174559D01*
Y78438D01*
X174959Y78038D01*
X174559Y77637D01*
Y77237D01*
Y80437D02*
X174959D01*
X175359Y80838D01*
X175759Y80437D01*
X176159D01*
Y80838D01*
X175759Y81238D01*
X176159Y81638D01*
Y82038D01*
X175759D01*
X175359Y81638D01*
X174959Y82038D01*
X174559D01*
Y81638D01*
X174959Y81238D01*
X174559Y80838D01*
Y80437D01*
Y82038D02*
X174959D01*
X175359Y82437D01*
X175759Y82038D01*
X176159D01*
Y82437D01*
X175759Y82837D01*
X176159Y83237D01*
Y83637D01*
X175759D01*
X175359Y83237D01*
X174959Y83637D01*
X174559D01*
Y83237D01*
X174959Y82837D01*
X174559Y82437D01*
Y82038D01*
X172959Y83637D02*
X173359D01*
X173759Y84038D01*
X174159Y83637D01*
X174559D01*
Y84038D01*
X174159Y84438D01*
X174559Y84838D01*
Y85237D01*
X174159D01*
X173759Y84838D01*
X173359Y85237D01*
X172959D01*
Y84838D01*
X173359Y84438D01*
X172959Y84038D01*
Y83637D01*
X203371Y51638D02*
X203771D01*
X204171Y52038D01*
X204571Y51638D01*
X204971D01*
Y52038D01*
X204571Y52438D01*
X204971Y52838D01*
Y53237D01*
X204571D01*
X204171Y52838D01*
X203771Y53237D01*
X203371D01*
Y52838D01*
X203771Y52438D01*
X203371Y52038D01*
Y51638D01*
Y53237D02*
X203771D01*
X204171Y53637D01*
X204571Y53237D01*
X204971D01*
Y53637D01*
X204571Y54037D01*
X204971Y54438D01*
Y54838D01*
X204571D01*
X204171Y54438D01*
X203771Y54838D01*
X203371D01*
Y54438D01*
X203771Y54037D01*
X203371Y53637D01*
Y53237D01*
Y56437D02*
X203771D01*
X204171Y56837D01*
X204571Y56437D01*
X204971D01*
Y56837D01*
X204571Y57237D01*
X204971Y57638D01*
Y58038D01*
X204571D01*
X204171Y57638D01*
X203771Y58038D01*
X203371D01*
Y57638D01*
X203771Y57237D01*
X203371Y56837D01*
Y56437D01*
Y58038D02*
X203771D01*
X204171Y58438D01*
X204571Y58038D01*
X204971D01*
Y58438D01*
X204571Y58837D01*
X204971Y59237D01*
Y59637D01*
X204571D01*
X204171Y59237D01*
X203771Y59637D01*
X203371D01*
Y59237D01*
X203771Y58837D01*
X203371Y58438D01*
Y58038D01*
X196959Y42037D02*
X197359D01*
X197759Y42437D01*
X198159Y42037D01*
X198559D01*
Y42437D01*
X198159Y42838D01*
X198559Y43238D01*
Y43637D01*
X198159D01*
X197759Y43238D01*
X197359Y43637D01*
X196959D01*
Y43238D01*
X197359Y42838D01*
X196959Y42437D01*
Y42037D01*
X200159Y46837D02*
X200559D01*
X200959Y47238D01*
X201359Y46837D01*
X201759D01*
Y47238D01*
X201359Y47638D01*
X201759Y48037D01*
Y48438D01*
X201359D01*
X200959Y48037D01*
X200559Y48438D01*
X200159D01*
Y48037D01*
X200559Y47638D01*
X200159Y47238D01*
Y46837D01*
Y48438D02*
X200559D01*
X200959Y48838D01*
X201359Y48438D01*
X201759D01*
Y48838D01*
X201359Y49237D01*
X201759Y49637D01*
Y50037D01*
X201359D01*
X200959Y49637D01*
X200559Y50037D01*
X200159D01*
Y49637D01*
X200559Y49237D01*
X200159Y48838D01*
Y48438D01*
Y51638D02*
X200559D01*
X200959Y52038D01*
X201359Y51638D01*
X201759D01*
Y52038D01*
X201359Y52438D01*
X201759Y52838D01*
Y53237D01*
X201359D01*
X200959Y52838D01*
X200559Y53237D01*
X200159D01*
Y52838D01*
X200559Y52438D01*
X200159Y52038D01*
Y51638D01*
Y53237D02*
X200559D01*
X200959Y53637D01*
X201359Y53237D01*
X201759D01*
Y53637D01*
X201359Y54037D01*
X201759Y54438D01*
Y54838D01*
X201359D01*
X200959Y54438D01*
X200559Y54838D01*
X200159D01*
Y54438D01*
X200559Y54037D01*
X200159Y53637D01*
Y53237D01*
Y56437D02*
X200559D01*
X200959Y56837D01*
X201359Y56437D01*
X201759D01*
Y56837D01*
X201359Y57237D01*
X201759Y57638D01*
Y58038D01*
X201359D01*
X200959Y57638D01*
X200559Y58038D01*
X200159D01*
Y57638D01*
X200559Y57237D01*
X200159Y56837D01*
Y56437D01*
Y58038D02*
X200559D01*
X200959Y58438D01*
X201359Y58038D01*
X201759D01*
Y58438D01*
X201359Y58837D01*
X201759Y59237D01*
Y59637D01*
X201359D01*
X200959Y59237D01*
X200559Y59637D01*
X200159D01*
Y59237D01*
X200559Y58837D01*
X200159Y58438D01*
Y58038D01*
X200171Y61238D02*
X200571D01*
X200971Y61638D01*
X201371Y61238D01*
X201771D01*
Y61638D01*
X201371Y62037D01*
X201771Y62437D01*
Y62837D01*
X201371D01*
X200971Y62437D01*
X200571Y62837D01*
X200171D01*
Y62437D01*
X200571Y62037D01*
X200171Y61638D01*
Y61238D01*
X195359Y37238D02*
X195759D01*
X196159Y37637D01*
X196559Y37238D01*
X196959D01*
Y37637D01*
X196559Y38037D01*
X196959Y38438D01*
Y38838D01*
X196559D01*
X196159Y38438D01*
X195759Y38838D01*
X195359D01*
Y38438D01*
X195759Y38037D01*
X195359Y37637D01*
Y37238D01*
Y38838D02*
X195759D01*
X196159Y39237D01*
X196559Y38838D01*
X196959D01*
Y39237D01*
X196559Y39638D01*
X196959Y40038D01*
Y40437D01*
X196559D01*
X196159Y40038D01*
X195759Y40437D01*
X195359D01*
Y40038D01*
X195759Y39638D01*
X195359Y39237D01*
Y38838D01*
Y40437D02*
X195759D01*
X196159Y40837D01*
X196559Y40437D01*
X196959D01*
Y40837D01*
X196559Y41238D01*
X196959Y41638D01*
Y42037D01*
X196559D01*
X196159Y41638D01*
X195759Y42037D01*
X195359D01*
Y41638D01*
X195759Y41238D01*
X195359Y40837D01*
Y40437D01*
Y42037D02*
X195759D01*
X196159Y42437D01*
X196559Y42037D01*
X196959D01*
Y42437D01*
X196559Y42838D01*
X196959Y43238D01*
Y43637D01*
X196559D01*
X196159Y43238D01*
X195759Y43637D01*
X195359D01*
Y43238D01*
X195759Y42838D01*
X195359Y42437D01*
Y42037D01*
X196971Y43637D02*
X197371D01*
X197771Y44038D01*
X198171Y43637D01*
X198571D01*
Y44038D01*
X198171Y44438D01*
X198571Y44837D01*
Y45237D01*
X198171D01*
X197771Y44837D01*
X197371Y45237D01*
X196971D01*
Y44837D01*
X197371Y44438D01*
X196971Y44038D01*
Y43637D01*
X196959Y48438D02*
X197359D01*
X197759Y48838D01*
X198159Y48438D01*
X198559D01*
Y48838D01*
X198159Y49237D01*
X198559Y49637D01*
Y50037D01*
X198159D01*
X197759Y49637D01*
X197359Y50037D01*
X196959D01*
Y49637D01*
X197359Y49237D01*
X196959Y48838D01*
Y48438D01*
Y46837D02*
X197359D01*
X197759Y47238D01*
X198159Y46837D01*
X198559D01*
Y47238D01*
X198159Y47638D01*
X198559Y48037D01*
Y48438D01*
X198159D01*
X197759Y48037D01*
X197359Y48438D01*
X196959D01*
Y48037D01*
X197359Y47638D01*
X196959Y47238D01*
Y46837D01*
X196971Y61238D02*
X197371D01*
X197771Y61638D01*
X198171Y61238D01*
X198571D01*
Y61638D01*
X198171Y62037D01*
X198571Y62437D01*
Y62837D01*
X198171D01*
X197771Y62437D01*
X197371Y62837D01*
X196971D01*
Y62437D01*
X197371Y62037D01*
X196971Y61638D01*
Y61238D01*
Y62837D02*
X197371D01*
X197771Y63238D01*
X198171Y62837D01*
X198571D01*
Y63238D01*
X198171Y63638D01*
X198571Y64038D01*
Y64438D01*
X198171D01*
X197771Y64038D01*
X197371Y64438D01*
X196971D01*
Y64038D01*
X197371Y63638D01*
X196971Y63238D01*
Y62837D01*
X193759Y43637D02*
X194159D01*
X194559Y44038D01*
X194959Y43637D01*
X195359D01*
Y44038D01*
X194959Y44438D01*
X195359Y44837D01*
Y45237D01*
X194959D01*
X194559Y44837D01*
X194159Y45237D01*
X193759D01*
Y44837D01*
X194159Y44438D01*
X193759Y44038D01*
Y43637D01*
Y61238D02*
X194159D01*
X194559Y61638D01*
X194959Y61238D01*
X195359D01*
Y61638D01*
X194959Y62037D01*
X195359Y62437D01*
Y62837D01*
X194959D01*
X194559Y62437D01*
X194159Y62837D01*
X193759D01*
Y62437D01*
X194159Y62037D01*
X193759Y61638D01*
Y61238D01*
Y62837D02*
X194159D01*
X194559Y63238D01*
X194959Y62837D01*
X195359D01*
Y63238D01*
X194959Y63638D01*
X195359Y64038D01*
Y64438D01*
X194959D01*
X194559Y64038D01*
X194159Y64438D01*
X193759D01*
Y64038D01*
X194159Y63638D01*
X193759Y63238D01*
Y62837D01*
X193746Y67637D02*
X194146D01*
X194546Y68037D01*
X194946Y67637D01*
X195346D01*
Y68037D01*
X194946Y68437D01*
X195346Y68837D01*
Y69238D01*
X194946D01*
X194546Y68837D01*
X194146Y69238D01*
X193746D01*
Y68837D01*
X194146Y68437D01*
X193746Y68037D01*
Y67637D01*
Y66037D02*
X194146D01*
X194546Y66438D01*
X194946Y66037D01*
X195346D01*
Y66438D01*
X194946Y66838D01*
X195346Y67238D01*
Y67637D01*
X194946D01*
X194546Y67238D01*
X194146Y67637D01*
X193746D01*
Y67238D01*
X194146Y66838D01*
X193746Y66438D01*
Y66037D01*
X184159Y38838D02*
X184559D01*
X184959Y39237D01*
X185359Y38838D01*
X185759D01*
Y39237D01*
X185359Y39638D01*
X185759Y40038D01*
Y40437D01*
X185359D01*
X184959Y40038D01*
X184559Y40437D01*
X184159D01*
Y40038D01*
X184559Y39638D01*
X184159Y39237D01*
Y38838D01*
X180959Y40437D02*
X181359D01*
X181759Y40837D01*
X182159Y40437D01*
X182559D01*
Y40837D01*
X182159Y41238D01*
X182559Y41638D01*
Y42037D01*
X182159D01*
X181759Y41638D01*
X181359Y42037D01*
X180959D01*
Y41638D01*
X181359Y41238D01*
X180959Y40837D01*
Y40437D01*
X185759D02*
X186159D01*
X186559Y40837D01*
X186959Y40437D01*
X187359D01*
Y40837D01*
X186959Y41238D01*
X187359Y41638D01*
Y42037D01*
X186959D01*
X186559Y41638D01*
X186159Y42037D01*
X185759D01*
Y41638D01*
X186159Y41238D01*
X185759Y40837D01*
Y40437D01*
X190559Y38838D02*
X190959D01*
X191359Y39237D01*
X191759Y38838D01*
X192159D01*
Y39237D01*
X191759Y39638D01*
X192159Y40038D01*
Y40437D01*
X191759D01*
X191359Y40038D01*
X190959Y40437D01*
X190559D01*
Y40038D01*
X190959Y39638D01*
X190559Y39237D01*
Y38838D01*
Y40437D02*
X190959D01*
X191359Y40837D01*
X191759Y40437D01*
X192159D01*
Y40837D01*
X191759Y41238D01*
X192159Y41638D01*
Y42037D01*
X191759D01*
X191359Y41638D01*
X190959Y42037D01*
X190559D01*
Y41638D01*
X190959Y41238D01*
X190559Y40837D01*
Y40437D01*
Y42037D02*
X190959D01*
X191359Y42437D01*
X191759Y42037D01*
X192159D01*
Y42437D01*
X191759Y42838D01*
X192159Y43238D01*
Y43637D01*
X191759D01*
X191359Y43238D01*
X190959Y43637D01*
X190559D01*
Y43238D01*
X190959Y42838D01*
X190559Y42437D01*
Y42037D01*
Y43637D02*
X190959D01*
X191359Y44038D01*
X191759Y43637D01*
X192159D01*
Y44038D01*
X191759Y44438D01*
X192159Y44837D01*
Y45237D01*
X191759D01*
X191359Y44837D01*
X190959Y45237D01*
X190559D01*
Y44837D01*
X190959Y44438D01*
X190559Y44038D01*
Y43637D01*
Y46837D02*
X190959D01*
X191359Y47238D01*
X191759Y46837D01*
X192159D01*
Y47238D01*
X191759Y47638D01*
X192159Y48037D01*
Y48438D01*
X191759D01*
X191359Y48037D01*
X190959Y48438D01*
X190559D01*
Y48037D01*
X190959Y47638D01*
X190559Y47238D01*
Y46837D01*
Y48438D02*
X190959D01*
X191359Y48838D01*
X191759Y48438D01*
X192159D01*
Y48838D01*
X191759Y49237D01*
X192159Y49637D01*
Y50037D01*
X191759D01*
X191359Y49637D01*
X190959Y50037D01*
X190559D01*
Y49637D01*
X190959Y49237D01*
X190559Y48838D01*
Y48438D01*
X193746D02*
X194146D01*
X194546Y48838D01*
X194946Y48438D01*
X195346D01*
Y48838D01*
X194946Y49237D01*
X195346Y49637D01*
Y50037D01*
X194946D01*
X194546Y49637D01*
X194146Y50037D01*
X193746D01*
Y49637D01*
X194146Y49237D01*
X193746Y48838D01*
Y48438D01*
Y46837D02*
X194146D01*
X194546Y47238D01*
X194946Y46837D01*
X195346D01*
Y47238D01*
X194946Y47638D01*
X195346Y48037D01*
Y48438D01*
X194946D01*
X194546Y48037D01*
X194146Y48438D01*
X193746D01*
Y48037D01*
X194146Y47638D01*
X193746Y47238D01*
Y46837D01*
X190571Y53237D02*
X190971D01*
X191371Y53637D01*
X191771Y53237D01*
X192171D01*
Y53637D01*
X191771Y54037D01*
X192171Y54438D01*
Y54838D01*
X191771D01*
X191371Y54438D01*
X190971Y54838D01*
X190571D01*
Y54438D01*
X190971Y54037D01*
X190571Y53637D01*
Y53237D01*
Y51638D02*
X190971D01*
X191371Y52038D01*
X191771Y51638D01*
X192171D01*
Y52038D01*
X191771Y52438D01*
X192171Y52838D01*
Y53237D01*
X191771D01*
X191371Y52838D01*
X190971Y53237D01*
X190571D01*
Y52838D01*
X190971Y52438D01*
X190571Y52038D01*
Y51638D01*
X193771Y53237D02*
X194171D01*
X194571Y53637D01*
X194971Y53237D01*
X195371D01*
Y53637D01*
X194971Y54037D01*
X195371Y54438D01*
Y54838D01*
X194971D01*
X194571Y54438D01*
X194171Y54838D01*
X193771D01*
Y54438D01*
X194171Y54037D01*
X193771Y53637D01*
Y53237D01*
Y51638D02*
X194171D01*
X194571Y52038D01*
X194971Y51638D01*
X195371D01*
Y52038D01*
X194971Y52438D01*
X195371Y52838D01*
Y53237D01*
X194971D01*
X194571Y52838D01*
X194171Y53237D01*
X193771D01*
Y52838D01*
X194171Y52438D01*
X193771Y52038D01*
Y51638D01*
X196959Y53237D02*
X197359D01*
X197759Y53637D01*
X198159Y53237D01*
X198559D01*
Y53637D01*
X198159Y54037D01*
X198559Y54438D01*
Y54838D01*
X198159D01*
X197759Y54438D01*
X197359Y54838D01*
X196959D01*
Y54438D01*
X197359Y54037D01*
X196959Y53637D01*
Y53237D01*
Y51638D02*
X197359D01*
X197759Y52038D01*
X198159Y51638D01*
X198559D01*
Y52038D01*
X198159Y52438D01*
X198559Y52838D01*
Y53237D01*
X198159D01*
X197759Y52838D01*
X197359Y53237D01*
X196959D01*
Y52838D01*
X197359Y52438D01*
X196959Y52038D01*
Y51638D01*
X190559Y56437D02*
X190959D01*
X191359Y56837D01*
X191759Y56437D01*
X192159D01*
Y56837D01*
X191759Y57237D01*
X192159Y57638D01*
Y58038D01*
X191759D01*
X191359Y57638D01*
X190959Y58038D01*
X190559D01*
Y57638D01*
X190959Y57237D01*
X190559Y56837D01*
Y56437D01*
Y58038D02*
X190959D01*
X191359Y58438D01*
X191759Y58038D01*
X192159D01*
Y58438D01*
X191759Y58837D01*
X192159Y59237D01*
Y59637D01*
X191759D01*
X191359Y59237D01*
X190959Y59637D01*
X190559D01*
Y59237D01*
X190959Y58837D01*
X190559Y58438D01*
Y58038D01*
X193759Y56437D02*
X194159D01*
X194559Y56837D01*
X194959Y56437D01*
X195359D01*
Y56837D01*
X194959Y57237D01*
X195359Y57638D01*
Y58038D01*
X194959D01*
X194559Y57638D01*
X194159Y58038D01*
X193759D01*
Y57638D01*
X194159Y57237D01*
X193759Y56837D01*
Y56437D01*
Y58038D02*
X194159D01*
X194559Y58438D01*
X194959Y58038D01*
X195359D01*
Y58438D01*
X194959Y58837D01*
X195359Y59237D01*
Y59637D01*
X194959D01*
X194559Y59237D01*
X194159Y59637D01*
X193759D01*
Y59237D01*
X194159Y58837D01*
X193759Y58438D01*
Y58038D01*
X196959Y56437D02*
X197359D01*
X197759Y56837D01*
X198159Y56437D01*
X198559D01*
Y56837D01*
X198159Y57237D01*
X198559Y57638D01*
Y58038D01*
X198159D01*
X197759Y57638D01*
X197359Y58038D01*
X196959D01*
Y57638D01*
X197359Y57237D01*
X196959Y56837D01*
Y56437D01*
Y58038D02*
X197359D01*
X197759Y58438D01*
X198159Y58038D01*
X198559D01*
Y58438D01*
X198159Y58837D01*
X198559Y59237D01*
Y59637D01*
X198159D01*
X197759Y59237D01*
X197359Y59637D01*
X196959D01*
Y59237D01*
X197359Y58837D01*
X196959Y58438D01*
Y58038D01*
X190559Y61238D02*
X190959D01*
X191359Y61638D01*
X191759Y61238D01*
X192159D01*
Y61638D01*
X191759Y62037D01*
X192159Y62437D01*
Y62837D01*
X191759D01*
X191359Y62437D01*
X190959Y62837D01*
X190559D01*
Y62437D01*
X190959Y62037D01*
X190559Y61638D01*
Y61238D01*
Y62837D02*
X190959D01*
X191359Y63238D01*
X191759Y62837D01*
X192159D01*
Y63238D01*
X191759Y63638D01*
X192159Y64038D01*
Y64438D01*
X191759D01*
X191359Y64038D01*
X190959Y64438D01*
X190559D01*
Y64038D01*
X190959Y63638D01*
X190559Y63238D01*
Y62837D01*
Y66037D02*
X190959D01*
X191359Y66438D01*
X191759Y66037D01*
X192159D01*
Y66438D01*
X191759Y66838D01*
X192159Y67238D01*
Y67637D01*
X191759D01*
X191359Y67238D01*
X190959Y67637D01*
X190559D01*
Y67238D01*
X190959Y66838D01*
X190559Y66438D01*
Y66037D01*
Y67637D02*
X190959D01*
X191359Y68037D01*
X191759Y67637D01*
X192159D01*
Y68037D01*
X191759Y68437D01*
X192159Y68837D01*
Y69238D01*
X191759D01*
X191359Y68837D01*
X190959Y69238D01*
X190559D01*
Y68837D01*
X190959Y68437D01*
X190559Y68037D01*
Y67637D01*
X187346Y43637D02*
X187746D01*
X188146Y44038D01*
X188546Y43637D01*
X188946D01*
Y44038D01*
X188546Y44438D01*
X188946Y44837D01*
Y45237D01*
X188546D01*
X188146Y44837D01*
X187746Y45237D01*
X187346D01*
Y44837D01*
X187746Y44438D01*
X187346Y44038D01*
Y43637D01*
Y46837D02*
X187746D01*
X188146Y47238D01*
X188546Y46837D01*
X188946D01*
Y47238D01*
X188546Y47638D01*
X188946Y48037D01*
Y48438D01*
X188546D01*
X188146Y48037D01*
X187746Y48438D01*
X187346D01*
Y48037D01*
X187746Y47638D01*
X187346Y47238D01*
Y46837D01*
Y48438D02*
X187746D01*
X188146Y48838D01*
X188546Y48438D01*
X188946D01*
Y48838D01*
X188546Y49237D01*
X188946Y49637D01*
Y50037D01*
X188546D01*
X188146Y49637D01*
X187746Y50037D01*
X187346D01*
Y49637D01*
X187746Y49237D01*
X187346Y48838D01*
Y48438D01*
Y51638D02*
X187746D01*
X188146Y52038D01*
X188546Y51638D01*
X188946D01*
Y52038D01*
X188546Y52438D01*
X188946Y52838D01*
Y53237D01*
X188546D01*
X188146Y52838D01*
X187746Y53237D01*
X187346D01*
Y52838D01*
X187746Y52438D01*
X187346Y52038D01*
Y51638D01*
Y53237D02*
X187746D01*
X188146Y53637D01*
X188546Y53237D01*
X188946D01*
Y53637D01*
X188546Y54037D01*
X188946Y54438D01*
Y54838D01*
X188546D01*
X188146Y54438D01*
X187746Y54838D01*
X187346D01*
Y54438D01*
X187746Y54037D01*
X187346Y53637D01*
Y53237D01*
X187359Y58038D02*
X187759D01*
X188159Y58438D01*
X188559Y58038D01*
X188959D01*
Y58438D01*
X188559Y58837D01*
X188959Y59237D01*
Y59637D01*
X188559D01*
X188159Y59237D01*
X187759Y59637D01*
X187359D01*
Y59237D01*
X187759Y58837D01*
X187359Y58438D01*
Y58038D01*
Y56437D02*
X187759D01*
X188159Y56837D01*
X188559Y56437D01*
X188959D01*
Y56837D01*
X188559Y57237D01*
X188959Y57638D01*
Y58038D01*
X188559D01*
X188159Y57638D01*
X187759Y58038D01*
X187359D01*
Y57638D01*
X187759Y57237D01*
X187359Y56837D01*
Y56437D01*
Y66037D02*
X187759D01*
X188159Y66438D01*
X188559Y66037D01*
X188959D01*
Y66438D01*
X188559Y66838D01*
X188959Y67238D01*
Y67637D01*
X188559D01*
X188159Y67238D01*
X187759Y67637D01*
X187359D01*
Y67238D01*
X187759Y66838D01*
X187359Y66438D01*
Y66037D01*
Y67637D02*
X187759D01*
X188159Y68037D01*
X188559Y67637D01*
X188959D01*
Y68037D01*
X188559Y68437D01*
X188959Y68837D01*
Y69238D01*
X188559D01*
X188159Y68837D01*
X187759Y69238D01*
X187359D01*
Y68837D01*
X187759Y68437D01*
X187359Y68037D01*
Y67637D01*
Y70837D02*
X187759D01*
X188159Y71237D01*
X188559Y70837D01*
X188959D01*
Y71237D01*
X188559Y71637D01*
X188959Y72038D01*
Y72438D01*
X188559D01*
X188159Y72038D01*
X187759Y72438D01*
X187359D01*
Y72038D01*
X187759Y71637D01*
X187359Y71237D01*
Y70837D01*
Y72438D02*
X187759D01*
X188159Y72838D01*
X188559Y72438D01*
X188959D01*
Y72838D01*
X188559Y73238D01*
X188959Y73637D01*
Y74037D01*
X188559D01*
X188159Y73637D01*
X187759Y74037D01*
X187359D01*
Y73637D01*
X187759Y73238D01*
X187359Y72838D01*
Y72438D01*
X184159Y51638D02*
X184559D01*
X184959Y52038D01*
X185359Y51638D01*
X185759D01*
Y52038D01*
X185359Y52438D01*
X185759Y52838D01*
Y53237D01*
X185359D01*
X184959Y52838D01*
X184559Y53237D01*
X184159D01*
Y52838D01*
X184559Y52438D01*
X184159Y52038D01*
Y51638D01*
Y48438D02*
X184559D01*
X184959Y48838D01*
X185359Y48438D01*
X185759D01*
Y48838D01*
X185359Y49237D01*
X185759Y49637D01*
Y50037D01*
X185359D01*
X184959Y49637D01*
X184559Y50037D01*
X184159D01*
Y49637D01*
X184559Y49237D01*
X184159Y48838D01*
Y48438D01*
Y46837D02*
X184559D01*
X184959Y47238D01*
X185359Y46837D01*
X185759D01*
Y47238D01*
X185359Y47638D01*
X185759Y48037D01*
Y48438D01*
X185359D01*
X184959Y48037D01*
X184559Y48438D01*
X184159D01*
Y48037D01*
X184559Y47638D01*
X184159Y47238D01*
Y46837D01*
Y43637D02*
X184559D01*
X184959Y44038D01*
X185359Y43637D01*
X185759D01*
Y44038D01*
X185359Y44438D01*
X185759Y44837D01*
Y45237D01*
X185359D01*
X184959Y44837D01*
X184559Y45237D01*
X184159D01*
Y44837D01*
X184559Y44438D01*
X184159Y44038D01*
Y43637D01*
Y56437D02*
X184559D01*
X184959Y56837D01*
X185359Y56437D01*
X185759D01*
Y56837D01*
X185359Y57237D01*
X185759Y57638D01*
Y58038D01*
X185359D01*
X184959Y57638D01*
X184559Y58038D01*
X184159D01*
Y57638D01*
X184559Y57237D01*
X184159Y56837D01*
Y56437D01*
Y53237D02*
X184559D01*
X184959Y53637D01*
X185359Y53237D01*
X185759D01*
Y53637D01*
X185359Y54037D01*
X185759Y54438D01*
Y54838D01*
X185359D01*
X184959Y54438D01*
X184559Y54838D01*
X184159D01*
Y54438D01*
X184559Y54037D01*
X184159Y53637D01*
Y53237D01*
Y61238D02*
X184559D01*
X184959Y61638D01*
X185359Y61238D01*
X185759D01*
Y61638D01*
X185359Y62037D01*
X185759Y62437D01*
Y62837D01*
X185359D01*
X184959Y62437D01*
X184559Y62837D01*
X184159D01*
Y62437D01*
X184559Y62037D01*
X184159Y61638D01*
Y61238D01*
Y58038D02*
X184559D01*
X184959Y58438D01*
X185359Y58038D01*
X185759D01*
Y58438D01*
X185359Y58837D01*
X185759Y59237D01*
Y59637D01*
X185359D01*
X184959Y59237D01*
X184559Y59637D01*
X184159D01*
Y59237D01*
X184559Y58837D01*
X184159Y58438D01*
Y58038D01*
X187359Y62837D02*
X187759D01*
X188159Y63238D01*
X188559Y62837D01*
X188959D01*
Y63238D01*
X188559Y63638D01*
X188959Y64038D01*
Y64438D01*
X188559D01*
X188159Y64038D01*
X187759Y64438D01*
X187359D01*
Y64038D01*
X187759Y63638D01*
X187359Y63238D01*
Y62837D01*
X184159D02*
X184559D01*
X184959Y63238D01*
X185359Y62837D01*
X185759D01*
Y63238D01*
X185359Y63638D01*
X185759Y64038D01*
Y64438D01*
X185359D01*
X184959Y64038D01*
X184559Y64438D01*
X184159D01*
Y64038D01*
X184559Y63638D01*
X184159Y63238D01*
Y62837D01*
Y67637D02*
X184559D01*
X184959Y68037D01*
X185359Y67637D01*
X185759D01*
Y68037D01*
X185359Y68437D01*
X185759Y68837D01*
Y69238D01*
X185359D01*
X184959Y68837D01*
X184559Y69238D01*
X184159D01*
Y68837D01*
X184559Y68437D01*
X184159Y68037D01*
Y67637D01*
Y66037D02*
X184559D01*
X184959Y66438D01*
X185359Y66037D01*
X185759D01*
Y66438D01*
X185359Y66838D01*
X185759Y67238D01*
Y67637D01*
X185359D01*
X184959Y67238D01*
X184559Y67637D01*
X184159D01*
Y67238D01*
X184559Y66838D01*
X184159Y66438D01*
Y66037D01*
Y72438D02*
X184559D01*
X184959Y72838D01*
X185359Y72438D01*
X185759D01*
Y72838D01*
X185359Y73238D01*
X185759Y73637D01*
Y74037D01*
X185359D01*
X184959Y73637D01*
X184559Y74037D01*
X184159D01*
Y73637D01*
X184559Y73238D01*
X184159Y72838D01*
Y72438D01*
Y70837D02*
X184559D01*
X184959Y71237D01*
X185359Y70837D01*
X185759D01*
Y71237D01*
X185359Y71637D01*
X185759Y72038D01*
Y72438D01*
X185359D01*
X184959Y72038D01*
X184559Y72438D01*
X184159D01*
Y72038D01*
X184559Y71637D01*
X184159Y71237D01*
Y70837D01*
Y75638D02*
X184559D01*
X184959Y76038D01*
X185359Y75638D01*
X185759D01*
Y76038D01*
X185359Y76437D01*
X185759Y76837D01*
Y77237D01*
X185359D01*
X184959Y76837D01*
X184559Y77237D01*
X184159D01*
Y76837D01*
X184559Y76437D01*
X184159Y76038D01*
Y75638D01*
Y77237D02*
X184559D01*
X184959Y77637D01*
X185359Y77237D01*
X185759D01*
Y77637D01*
X185359Y78038D01*
X185759Y78438D01*
Y78838D01*
X185359D01*
X184959Y78438D01*
X184559Y78838D01*
X184159D01*
Y78438D01*
X184559Y78038D01*
X184159Y77637D01*
Y77237D01*
X180959Y42037D02*
X181359D01*
X181759Y42437D01*
X182159Y42037D01*
X182559D01*
Y42437D01*
X182159Y42838D01*
X182559Y43238D01*
Y43637D01*
X182159D01*
X181759Y43238D01*
X181359Y43637D01*
X180959D01*
Y43238D01*
X181359Y42838D01*
X180959Y42437D01*
Y42037D01*
Y43637D02*
X181359D01*
X181759Y44038D01*
X182159Y43637D01*
X182559D01*
Y44038D01*
X182159Y44438D01*
X182559Y44837D01*
Y45237D01*
X182159D01*
X181759Y44837D01*
X181359Y45237D01*
X180959D01*
Y44837D01*
X181359Y44438D01*
X180959Y44038D01*
Y43637D01*
Y46837D02*
X181359D01*
X181759Y47238D01*
X182159Y46837D01*
X182559D01*
Y47238D01*
X182159Y47638D01*
X182559Y48037D01*
Y48438D01*
X182159D01*
X181759Y48037D01*
X181359Y48438D01*
X180959D01*
Y48037D01*
X181359Y47638D01*
X180959Y47238D01*
Y46837D01*
Y48438D02*
X181359D01*
X181759Y48838D01*
X182159Y48438D01*
X182559D01*
Y48838D01*
X182159Y49237D01*
X182559Y49637D01*
Y50037D01*
X182159D01*
X181759Y49637D01*
X181359Y50037D01*
X180959D01*
Y49637D01*
X181359Y49237D01*
X180959Y48838D01*
Y48438D01*
Y51638D02*
X181359D01*
X181759Y52038D01*
X182159Y51638D01*
X182559D01*
Y52038D01*
X182159Y52438D01*
X182559Y52838D01*
Y53237D01*
X182159D01*
X181759Y52838D01*
X181359Y53237D01*
X180959D01*
Y52838D01*
X181359Y52438D01*
X180959Y52038D01*
Y51638D01*
Y53237D02*
X181359D01*
X181759Y53637D01*
X182159Y53237D01*
X182559D01*
Y53637D01*
X182159Y54037D01*
X182559Y54438D01*
Y54838D01*
X182159D01*
X181759Y54438D01*
X181359Y54838D01*
X180959D01*
Y54438D01*
X181359Y54037D01*
X180959Y53637D01*
Y53237D01*
Y56437D02*
X181359D01*
X181759Y56837D01*
X182159Y56437D01*
X182559D01*
Y56837D01*
X182159Y57237D01*
X182559Y57638D01*
Y58038D01*
X182159D01*
X181759Y57638D01*
X181359Y58038D01*
X180959D01*
Y57638D01*
X181359Y57237D01*
X180959Y56837D01*
Y56437D01*
Y66037D02*
X181359D01*
X181759Y66438D01*
X182159Y66037D01*
X182559D01*
Y66438D01*
X182159Y66838D01*
X182559Y67238D01*
Y67637D01*
X182159D01*
X181759Y67238D01*
X181359Y67637D01*
X180959D01*
Y67238D01*
X181359Y66838D01*
X180959Y66438D01*
Y66037D01*
Y62837D02*
X181359D01*
X181759Y63238D01*
X182159Y62837D01*
X182559D01*
Y63238D01*
X182159Y63638D01*
X182559Y64038D01*
Y64438D01*
X182159D01*
X181759Y64038D01*
X181359Y64438D01*
X180959D01*
Y64038D01*
X181359Y63638D01*
X180959Y63238D01*
Y62837D01*
Y58038D02*
X181359D01*
X181759Y58438D01*
X182159Y58038D01*
X182559D01*
Y58438D01*
X182159Y58837D01*
X182559Y59237D01*
Y59637D01*
X182159D01*
X181759Y59237D01*
X181359Y59637D01*
X180959D01*
Y59237D01*
X181359Y58837D01*
X180959Y58438D01*
Y58038D01*
Y61238D02*
X181359D01*
X181759Y61638D01*
X182159Y61238D01*
X182559D01*
Y61638D01*
X182159Y62037D01*
X182559Y62437D01*
Y62837D01*
X182159D01*
X181759Y62437D01*
X181359Y62837D01*
X180959D01*
Y62437D01*
X181359Y62037D01*
X180959Y61638D01*
Y61238D01*
X187359D02*
X187759D01*
X188159Y61638D01*
X188559Y61238D01*
X188959D01*
Y61638D01*
X188559Y62037D01*
X188959Y62437D01*
Y62837D01*
X188559D01*
X188159Y62437D01*
X187759Y62837D01*
X187359D01*
Y62437D01*
X187759Y62037D01*
X187359Y61638D01*
Y61238D01*
X180959Y67637D02*
X181359D01*
X181759Y68037D01*
X182159Y67637D01*
X182559D01*
Y68037D01*
X182159Y68437D01*
X182559Y68837D01*
Y69238D01*
X182159D01*
X181759Y68837D01*
X181359Y69238D01*
X180959D01*
Y68837D01*
X181359Y68437D01*
X180959Y68037D01*
Y67637D01*
Y70837D02*
X181359D01*
X181759Y71237D01*
X182159Y70837D01*
X182559D01*
Y71237D01*
X182159Y71637D01*
X182559Y72038D01*
Y72438D01*
X182159D01*
X181759Y72038D01*
X181359Y72438D01*
X180959D01*
Y72038D01*
X181359Y71637D01*
X180959Y71237D01*
Y70837D01*
Y72438D02*
X181359D01*
X181759Y72838D01*
X182159Y72438D01*
X182559D01*
Y72838D01*
X182159Y73238D01*
X182559Y73637D01*
Y74037D01*
X182159D01*
X181759Y73637D01*
X181359Y74037D01*
X180959D01*
Y73637D01*
X181359Y73238D01*
X180959Y72838D01*
Y72438D01*
Y75638D02*
X181359D01*
X181759Y76038D01*
X182159Y75638D01*
X182559D01*
Y76038D01*
X182159Y76437D01*
X182559Y76837D01*
Y77237D01*
X182159D01*
X181759Y76837D01*
X181359Y77237D01*
X180959D01*
Y76837D01*
X181359Y76437D01*
X180959Y76038D01*
Y75638D01*
Y77237D02*
X181359D01*
X181759Y77637D01*
X182159Y77237D01*
X182559D01*
Y77637D01*
X182159Y78038D01*
X182559Y78438D01*
Y78838D01*
X182159D01*
X181759Y78438D01*
X181359Y78838D01*
X180959D01*
Y78438D01*
X181359Y78038D01*
X180959Y77637D01*
Y77237D01*
Y80437D02*
X181359D01*
X181759Y80838D01*
X182159Y80437D01*
X182559D01*
Y80838D01*
X182159Y81238D01*
X182559Y81638D01*
Y82038D01*
X182159D01*
X181759Y81638D01*
X181359Y82038D01*
X180959D01*
Y81638D01*
X181359Y81238D01*
X180959Y80838D01*
Y80437D01*
X177759Y43637D02*
X178159D01*
X178559Y44038D01*
X178959Y43637D01*
X179359D01*
Y44038D01*
X178959Y44438D01*
X179359Y44837D01*
Y45237D01*
X178959D01*
X178559Y44837D01*
X178159Y45237D01*
X177759D01*
Y44837D01*
X178159Y44438D01*
X177759Y44038D01*
Y43637D01*
Y42037D02*
X178159D01*
X178559Y42437D01*
X178959Y42037D01*
X179359D01*
Y42437D01*
X178959Y42838D01*
X179359Y43238D01*
Y43637D01*
X178959D01*
X178559Y43238D01*
X178159Y43637D01*
X177759D01*
Y43238D01*
X178159Y42838D01*
X177759Y42437D01*
Y42037D01*
Y48438D02*
X178159D01*
X178559Y48838D01*
X178959Y48438D01*
X179359D01*
Y48838D01*
X178959Y49237D01*
X179359Y49637D01*
Y50037D01*
X178959D01*
X178559Y49637D01*
X178159Y50037D01*
X177759D01*
Y49637D01*
X178159Y49237D01*
X177759Y48838D01*
Y48438D01*
Y46837D02*
X178159D01*
X178559Y47238D01*
X178959Y46837D01*
X179359D01*
Y47238D01*
X178959Y47638D01*
X179359Y48037D01*
Y48438D01*
X178959D01*
X178559Y48037D01*
X178159Y48438D01*
X177759D01*
Y48037D01*
X178159Y47638D01*
X177759Y47238D01*
Y46837D01*
Y51638D02*
X178159D01*
X178559Y52038D01*
X178959Y51638D01*
X179359D01*
Y52038D01*
X178959Y52438D01*
X179359Y52838D01*
Y53237D01*
X178959D01*
X178559Y52838D01*
X178159Y53237D01*
X177759D01*
Y52838D01*
X178159Y52438D01*
X177759Y52038D01*
Y51638D01*
Y53237D02*
X178159D01*
X178559Y53637D01*
X178959Y53237D01*
X179359D01*
Y53637D01*
X178959Y54037D01*
X179359Y54438D01*
Y54838D01*
X178959D01*
X178559Y54438D01*
X178159Y54838D01*
X177759D01*
Y54438D01*
X178159Y54037D01*
X177759Y53637D01*
Y53237D01*
Y56437D02*
X178159D01*
X178559Y56837D01*
X178959Y56437D01*
X179359D01*
Y56837D01*
X178959Y57237D01*
X179359Y57638D01*
Y58038D01*
X178959D01*
X178559Y57638D01*
X178159Y58038D01*
X177759D01*
Y57638D01*
X178159Y57237D01*
X177759Y56837D01*
Y56437D01*
Y58038D02*
X178159D01*
X178559Y58438D01*
X178959Y58038D01*
X179359D01*
Y58438D01*
X178959Y58837D01*
X179359Y59237D01*
Y59637D01*
X178959D01*
X178559Y59237D01*
X178159Y59637D01*
X177759D01*
Y59237D01*
X178159Y58837D01*
X177759Y58438D01*
Y58038D01*
Y61238D02*
X178159D01*
X178559Y61638D01*
X178959Y61238D01*
X179359D01*
Y61638D01*
X178959Y62037D01*
X179359Y62437D01*
Y62837D01*
X178959D01*
X178559Y62437D01*
X178159Y62837D01*
X177759D01*
Y62437D01*
X178159Y62037D01*
X177759Y61638D01*
Y61238D01*
Y67637D02*
X178159D01*
X178559Y68037D01*
X178959Y67637D01*
X179359D01*
Y68037D01*
X178959Y68437D01*
X179359Y68837D01*
Y69238D01*
X178959D01*
X178559Y68837D01*
X178159Y69238D01*
X177759D01*
Y68837D01*
X178159Y68437D01*
X177759Y68037D01*
Y67637D01*
Y70837D02*
X178159D01*
X178559Y71237D01*
X178959Y70837D01*
X179359D01*
Y71237D01*
X178959Y71637D01*
X179359Y72038D01*
Y72438D01*
X178959D01*
X178559Y72038D01*
X178159Y72438D01*
X177759D01*
Y72038D01*
X178159Y71637D01*
X177759Y71237D01*
Y70837D01*
Y72438D02*
X178159D01*
X178559Y72838D01*
X178959Y72438D01*
X179359D01*
Y72838D01*
X178959Y73238D01*
X179359Y73637D01*
Y74037D01*
X178959D01*
X178559Y73637D01*
X178159Y74037D01*
X177759D01*
Y73637D01*
X178159Y73238D01*
X177759Y72838D01*
Y72438D01*
Y75638D02*
X178159D01*
X178559Y76038D01*
X178959Y75638D01*
X179359D01*
Y76038D01*
X178959Y76437D01*
X179359Y76837D01*
Y77237D01*
X178959D01*
X178559Y76837D01*
X178159Y77237D01*
X177759D01*
Y76837D01*
X178159Y76437D01*
X177759Y76038D01*
Y75638D01*
Y77237D02*
X178159D01*
X178559Y77637D01*
X178959Y77237D01*
X179359D01*
Y77637D01*
X178959Y78038D01*
X179359Y78438D01*
Y78838D01*
X178959D01*
X178559Y78438D01*
X178159Y78838D01*
X177759D01*
Y78438D01*
X178159Y78038D01*
X177759Y77637D01*
Y77237D01*
X305559Y21438D02*
X305959D01*
X306359Y21837D01*
X306759Y21438D01*
X307159D01*
Y21837D01*
X306759Y22238D01*
X307159Y22637D01*
Y23038D01*
X306759D01*
X306359Y22637D01*
X305959Y23038D01*
X305559D01*
Y22637D01*
X305959Y22238D01*
X305559Y21837D01*
Y21438D01*
X220971Y117237D02*
X221371D01*
X221771Y117638D01*
X222171Y117237D01*
X222571D01*
Y117638D01*
X222171Y118037D01*
X222571Y118438D01*
Y118837D01*
X222171D01*
X221771Y118438D01*
X221371Y118837D01*
X220971D01*
Y118438D01*
X221371Y118037D01*
X220971Y117638D01*
Y117237D01*
X225771Y112437D02*
X226171D01*
X226571Y112838D01*
X226971Y112437D01*
X227371D01*
Y112838D01*
X226971Y113238D01*
X227371Y113637D01*
Y114038D01*
X226971D01*
X226571Y113637D01*
X226171Y114038D01*
X225771D01*
Y113637D01*
X226171Y113238D01*
X225771Y112838D01*
Y112437D01*
Y122037D02*
X226171D01*
X226571Y122438D01*
X226971Y122037D01*
X227371D01*
Y122438D01*
X226971Y122837D01*
X227371Y123238D01*
Y123637D01*
X226971D01*
X226571Y123238D01*
X226171Y123637D01*
X225771D01*
Y123238D01*
X226171Y122837D01*
X225771Y122438D01*
Y122037D01*
X196159Y29037D02*
X196559D01*
X196959Y29438D01*
X197359Y29037D01*
X197759D01*
Y29438D01*
X197359Y29838D01*
X197759Y30237D01*
Y30637D01*
X197359D01*
X196959Y30237D01*
X196559Y30637D01*
X196159D01*
Y30237D01*
X196559Y29838D01*
X196159Y29438D01*
Y29037D01*
X288171Y102838D02*
X288571D01*
X288971Y103237D01*
X289371Y102838D01*
X289771D01*
Y103237D01*
X289371Y103638D01*
X289771Y104037D01*
Y104437D01*
X289371D01*
X288971Y104037D01*
X288571Y104437D01*
X288171D01*
Y104037D01*
X288571Y103638D01*
X288171Y103237D01*
Y102838D01*
X317381Y75547D02*
X317781D01*
X318181Y75947D01*
X318581Y75547D01*
X318981D01*
Y75947D01*
X318581Y76348D01*
X318981Y76748D01*
Y77148D01*
X318581D01*
X318181Y76748D01*
X317781Y77148D01*
X317381D01*
Y76748D01*
X317781Y76348D01*
X317381Y75947D01*
Y75547D01*
X215970Y36612D02*
X216370D01*
X216770Y37012D01*
X217170Y36612D01*
X217570D01*
Y37012D01*
X217170Y37413D01*
X217570Y37813D01*
Y38212D01*
X217170D01*
X216770Y37813D01*
X216370Y38212D01*
X215970D01*
Y37813D01*
X216370Y37413D01*
X215970Y37012D01*
Y36612D01*
X215141Y23496D02*
X215541D01*
X215941Y23897D01*
X216341Y23496D01*
X216741D01*
Y23897D01*
X216341Y24296D01*
X216741Y24697D01*
Y25096D01*
X216341D01*
X215941Y24697D01*
X215541Y25096D01*
X215141D01*
Y24697D01*
X215541Y24296D01*
X215141Y23897D01*
Y23496D01*
X256359Y29037D02*
X256759D01*
X257159Y29438D01*
X257559Y29037D01*
X257959D01*
Y29438D01*
X257559Y29838D01*
X257959Y30237D01*
Y30637D01*
X257559D01*
X257159Y30237D01*
X256759Y30637D01*
X256359D01*
Y30237D01*
X256759Y29838D01*
X256359Y29438D01*
Y29037D01*
X259371Y40437D02*
X259771D01*
X260171Y40837D01*
X260571Y40437D01*
X260971D01*
Y40837D01*
X260571Y41238D01*
X260971Y41638D01*
Y42037D01*
X260571D01*
X260171Y41638D01*
X259771Y42037D01*
X259371D01*
Y41638D01*
X259771Y41238D01*
X259371Y40837D01*
Y40437D01*
X254571D02*
X254971D01*
X255371Y40837D01*
X255771Y40437D01*
X256171D01*
Y40837D01*
X255771Y41238D01*
X256171Y41638D01*
Y42037D01*
X255771D01*
X255371Y41638D01*
X254971Y42037D01*
X254571D01*
Y41638D01*
X254971Y41238D01*
X254571Y40837D01*
Y40437D01*
X177771Y102838D02*
X178171D01*
X178571Y103237D01*
X178971Y102838D01*
X179371D01*
Y103237D01*
X178971Y103638D01*
X179371Y104037D01*
Y104437D01*
X178971D01*
X178571Y104037D01*
X178171Y104437D01*
X177771D01*
Y104037D01*
X178171Y103638D01*
X177771Y103237D01*
Y102838D01*
X256907Y43448D02*
X257307D01*
X257707Y43848D01*
X258107Y43448D01*
X258507D01*
Y43848D01*
X258107Y44247D01*
X258507Y44647D01*
Y45048D01*
X258107D01*
X257707Y44647D01*
X257307Y45048D01*
X256907D01*
Y44647D01*
X257307Y44247D01*
X256907Y43848D01*
Y43448D01*
X292971Y107638D02*
X293371D01*
X293771Y108037D01*
X294171Y107638D01*
X294571D01*
Y108037D01*
X294171Y108438D01*
X294571Y108837D01*
Y109238D01*
X294171D01*
X293771Y108837D01*
X293371Y109238D01*
X292971D01*
Y108837D01*
X293371Y108438D01*
X292971Y108037D01*
Y107638D01*
Y102838D02*
X293371D01*
X293771Y103237D01*
X294171Y102838D01*
X294571D01*
Y103237D01*
X294171Y103638D01*
X294571Y104037D01*
Y104437D01*
X294171D01*
X293771Y104037D01*
X293371Y104437D01*
X292971D01*
Y104037D01*
X293371Y103638D01*
X292971Y103237D01*
Y102838D01*
X296216Y105102D02*
X296616D01*
X297016Y105501D01*
X297416Y105102D01*
X297816D01*
Y105501D01*
X297416Y105902D01*
X297816Y106301D01*
Y106702D01*
X297416D01*
X297016Y106301D01*
X296616Y106702D01*
X296216D01*
Y106301D01*
X296616Y105902D01*
X296216Y105501D01*
Y105102D01*
X303367Y103093D02*
X303767D01*
X304167Y103492D01*
X304567Y103093D01*
X304967D01*
Y103492D01*
X304567Y103893D01*
X304967Y104293D01*
Y104692D01*
X304567D01*
X304167Y104293D01*
X303767Y104692D01*
X303367D01*
Y104293D01*
X303767Y103893D01*
X303367Y103492D01*
Y103093D01*
X189668Y23565D02*
X190068D01*
X190468Y23966D01*
X190868Y23565D01*
X191268D01*
Y23966D01*
X190868Y24365D01*
X191268Y24766D01*
Y25166D01*
X190868D01*
X190468Y24766D01*
X190068Y25166D01*
X189668D01*
Y24766D01*
X190068Y24365D01*
X189668Y23966D01*
Y23565D01*
X292971Y93238D02*
X293371D01*
X293771Y93638D01*
X294171Y93238D01*
X294571D01*
Y93638D01*
X294171Y94037D01*
X294571Y94437D01*
Y94837D01*
X294171D01*
X293771Y94437D01*
X293371Y94837D01*
X292971D01*
Y94437D01*
X293371Y94037D01*
X292971Y93638D01*
Y93238D01*
X225771D02*
X226171D01*
X226571Y93638D01*
X226971Y93238D01*
X227371D01*
Y93638D01*
X226971Y94037D01*
X227371Y94437D01*
Y94837D01*
X226971D01*
X226571Y94437D01*
X226171Y94837D01*
X225771D01*
Y94437D01*
X226171Y94037D01*
X225771Y93638D01*
Y93238D01*
X230571D02*
X230971D01*
X231371Y93638D01*
X231771Y93238D01*
X232171D01*
Y93638D01*
X231771Y94037D01*
X232171Y94437D01*
Y94837D01*
X231771D01*
X231371Y94437D01*
X230971Y94837D01*
X230571D01*
Y94437D01*
X230971Y94037D01*
X230571Y93638D01*
Y93238D01*
X273771Y88437D02*
X274171D01*
X274571Y88837D01*
X274971Y88437D01*
X275371D01*
Y88837D01*
X274971Y89237D01*
X275371Y89638D01*
Y90038D01*
X274971D01*
X274571Y89638D01*
X274171Y90038D01*
X273771D01*
Y89638D01*
X274171Y89237D01*
X273771Y88837D01*
Y88437D01*
X229159Y117037D02*
X229559D01*
X229959Y117438D01*
X230359Y117037D01*
X230759D01*
Y117438D01*
X230359Y117838D01*
X230759Y118237D01*
Y118638D01*
X230359D01*
X229959Y118237D01*
X229559Y118638D01*
X229159D01*
Y118237D01*
X229559Y117838D01*
X229159Y117438D01*
Y117037D01*
X223494Y114829D02*
X223894D01*
X224294Y115228D01*
X224694Y114829D01*
X225094D01*
Y115228D01*
X224694Y115629D01*
X225094Y116028D01*
Y116428D01*
X224694D01*
X224294Y116028D01*
X223894Y116428D01*
X223494D01*
Y116028D01*
X223894Y115629D01*
X223494Y115228D01*
Y114829D01*
X223702Y118902D02*
X224102D01*
X224502Y119301D01*
X224902Y118902D01*
X225302D01*
Y119301D01*
X224902Y119702D01*
X225302Y120101D01*
Y120501D01*
X224902D01*
X224502Y120101D01*
X224102Y120501D01*
X223702D01*
Y120101D01*
X224102Y119702D01*
X223702Y119301D01*
Y118902D01*
X268971Y78838D02*
X269371D01*
X269771Y79238D01*
X270171Y78838D01*
X270571D01*
Y79238D01*
X270171Y79637D01*
X270571Y80037D01*
Y80437D01*
X270171D01*
X269771Y80037D01*
X269371Y80437D01*
X268971D01*
Y80037D01*
X269371Y79637D01*
X268971Y79238D01*
Y78838D01*
Y83637D02*
X269371D01*
X269771Y84038D01*
X270171Y83637D01*
X270571D01*
Y84038D01*
X270171Y84438D01*
X270571Y84838D01*
Y85237D01*
X270171D01*
X269771Y84838D01*
X269371Y85237D01*
X268971D01*
Y84838D01*
X269371Y84438D01*
X268971Y84038D01*
Y83637D01*
X187371Y21238D02*
X187771D01*
X188171Y21637D01*
X188571Y21238D01*
X188971D01*
Y21637D01*
X188571Y22038D01*
X188971Y22437D01*
Y22838D01*
X188571D01*
X188171Y22437D01*
X187771Y22838D01*
X187371D01*
Y22437D01*
X187771Y22038D01*
X187371Y21637D01*
Y21238D01*
X297771Y59637D02*
X298171D01*
X298571Y60037D01*
X298971Y59637D01*
X299371D01*
Y60037D01*
X298971Y60438D01*
X299371Y60838D01*
Y61238D01*
X298971D01*
X298571Y60838D01*
X298171Y61238D01*
X297771D01*
Y60838D01*
X298171Y60438D01*
X297771Y60037D01*
Y59637D01*
X238475Y126081D02*
X238875D01*
X239275Y126480D01*
X239675Y126081D01*
X240075D01*
Y126480D01*
X239675Y126881D01*
X240075Y127280D01*
Y127681D01*
X239675D01*
X239275Y127280D01*
X238875Y127681D01*
X238475D01*
Y127280D01*
X238875Y126881D01*
X238475Y126480D01*
Y126081D01*
X250832Y81139D02*
X251232D01*
X251632Y81539D01*
X252032Y81139D01*
X252432D01*
Y81539D01*
X252032Y81940D01*
X252432Y82340D01*
Y82740D01*
X252032D01*
X251632Y82340D01*
X251232Y82740D01*
X250832D01*
Y82340D01*
X251232Y81940D01*
X250832Y81539D01*
Y81139D01*
X244412Y73822D02*
X244812D01*
X245212Y74222D01*
X245612Y73822D01*
X246012D01*
Y74222D01*
X245612Y74622D01*
X246012Y75023D01*
Y75423D01*
X245612D01*
X245212Y75023D01*
X244812Y75423D01*
X244412D01*
Y75023D01*
X244812Y74622D01*
X244412Y74222D01*
Y73822D01*
X187391Y25466D02*
X187791D01*
X188191Y25866D01*
X188591Y25466D01*
X188991D01*
Y25866D01*
X188591Y26265D01*
X188991Y26665D01*
Y27066D01*
X188591D01*
X188191Y26665D01*
X187791Y27066D01*
X187391D01*
Y26665D01*
X187791Y26265D01*
X187391Y25866D01*
Y25466D01*
X237359Y103437D02*
X237759D01*
X238159Y103838D01*
X238559Y103437D01*
X238959D01*
Y103838D01*
X238559Y104237D01*
X238959Y104638D01*
Y105037D01*
X238559D01*
X238159Y104638D01*
X237759Y105037D01*
X237359D01*
Y104638D01*
X237759Y104237D01*
X237359Y103838D01*
Y103437D01*
X235371Y78838D02*
X235771D01*
X236171Y79238D01*
X236571Y78838D01*
X236971D01*
Y79238D01*
X236571Y79637D01*
X236971Y80037D01*
Y80437D01*
X236571D01*
X236171Y80037D01*
X235771Y80437D01*
X235371D01*
Y80037D01*
X235771Y79637D01*
X235371Y79238D01*
Y78838D01*
X220971Y102838D02*
X221371D01*
X221771Y103237D01*
X222171Y102838D01*
X222571D01*
Y103237D01*
X222171Y103638D01*
X222571Y104037D01*
Y104437D01*
X222171D01*
X221771Y104037D01*
X221371Y104437D01*
X220971D01*
Y104037D01*
X221371Y103638D01*
X220971Y103237D01*
Y102838D01*
Y98037D02*
X221371D01*
X221771Y98438D01*
X222171Y98037D01*
X222571D01*
Y98438D01*
X222171Y98838D01*
X222571Y99238D01*
Y99638D01*
X222171D01*
X221771Y99238D01*
X221371Y99638D01*
X220971D01*
Y99238D01*
X221371Y98838D01*
X220971Y98438D01*
Y98037D01*
Y93238D02*
X221371D01*
X221771Y93638D01*
X222171Y93238D01*
X222571D01*
Y93638D01*
X222171Y94037D01*
X222571Y94437D01*
Y94837D01*
X222171D01*
X221771Y94437D01*
X221371Y94837D01*
X220971D01*
Y94437D01*
X221371Y94037D01*
X220971Y93638D01*
Y93238D01*
X240171Y122037D02*
X240571D01*
X240971Y122438D01*
X241371Y122037D01*
X241771D01*
Y122438D01*
X241371Y122837D01*
X241771Y123238D01*
Y123637D01*
X241371D01*
X240971Y123238D01*
X240571Y123637D01*
X240171D01*
Y123238D01*
X240571Y122837D01*
X240171Y122438D01*
Y122037D01*
X238959Y114237D02*
X239359D01*
X239759Y114637D01*
X240159Y114237D01*
X240559D01*
Y114637D01*
X240159Y115038D01*
X240559Y115437D01*
Y115838D01*
X240159D01*
X239759Y115437D01*
X239359Y115838D01*
X238959D01*
Y115437D01*
X239359Y115038D01*
X238959Y114637D01*
Y114237D01*
X238059Y118737D02*
X238459D01*
X238859Y119138D01*
X239259Y118737D01*
X239659D01*
Y119138D01*
X239259Y119537D01*
X239659Y119938D01*
Y120337D01*
X239259D01*
X238859Y119938D01*
X238459Y120337D01*
X238059D01*
Y119938D01*
X238459Y119537D01*
X238059Y119138D01*
Y118737D01*
X220971Y45237D02*
X221371D01*
X221771Y45638D01*
X222171Y45237D01*
X222571D01*
Y45638D01*
X222171Y46038D01*
X222571Y46437D01*
Y46837D01*
X222171D01*
X221771Y46437D01*
X221371Y46837D01*
X220971D01*
Y46437D01*
X221371Y46038D01*
X220971Y45638D01*
Y45237D01*
X223494Y43655D02*
X223894D01*
X224294Y44054D01*
X224694Y43655D01*
X225094D01*
Y44054D01*
X224694Y44455D01*
X225094Y44855D01*
Y45254D01*
X224694D01*
X224294Y44855D01*
X223894Y45254D01*
X223494D01*
Y44855D01*
X223894Y44455D01*
X223494Y44054D01*
Y43655D01*
X246859Y117037D02*
X247259D01*
X247659Y117438D01*
X248059Y117037D01*
X248459D01*
Y117438D01*
X248059Y117838D01*
X248459Y118237D01*
Y118638D01*
X248059D01*
X247659Y118237D01*
X247259Y118638D01*
X246859D01*
Y118237D01*
X247259Y117838D01*
X246859Y117438D01*
Y117037D01*
X265536Y74927D02*
X265936D01*
X266336Y75327D01*
X266736Y74927D01*
X267136D01*
Y75327D01*
X266736Y75726D01*
X267136Y76126D01*
Y76526D01*
X266736D01*
X266336Y76126D01*
X265936Y76526D01*
X265536D01*
Y76126D01*
X265936Y75726D01*
X265536Y75327D01*
Y74927D01*
X195671Y117237D02*
X196071D01*
X196471Y117638D01*
X196871Y117237D01*
X197271D01*
Y117638D01*
X196871Y118037D01*
X197271Y118438D01*
Y118837D01*
X196871D01*
X196471Y118438D01*
X196071Y118837D01*
X195671D01*
Y118438D01*
X196071Y118037D01*
X195671Y117638D01*
Y117237D01*
X272359Y28238D02*
X272759D01*
X273159Y28637D01*
X273559Y28238D01*
X273959D01*
Y28637D01*
X273559Y29037D01*
X273959Y29438D01*
Y29838D01*
X273559D01*
X273159Y29438D01*
X272759Y29838D01*
X272359D01*
Y29438D01*
X272759Y29037D01*
X272359Y28637D01*
Y28238D01*
X287759Y40238D02*
X288159D01*
X288559Y40637D01*
X288959Y40238D01*
X289359D01*
Y40637D01*
X288959Y41037D01*
X289359Y41438D01*
Y41837D01*
X288959D01*
X288559Y41438D01*
X288159Y41837D01*
X287759D01*
Y41438D01*
X288159Y41037D01*
X287759Y40637D01*
Y40238D01*
X307159Y73037D02*
X307559D01*
X307959Y73438D01*
X308359Y73037D01*
X308759D01*
Y73438D01*
X308359Y73838D01*
X308759Y74238D01*
Y74638D01*
X308359D01*
X307959Y74238D01*
X307559Y74638D01*
X307159D01*
Y74238D01*
X307559Y73838D01*
X307159Y73438D01*
Y73037D01*
X251937Y75340D02*
X252337D01*
X252737Y75740D01*
X253137Y75340D01*
X253537D01*
Y75740D01*
X253137Y76140D01*
X253537Y76540D01*
Y76941D01*
X253137D01*
X252737Y76540D01*
X252337Y76941D01*
X251937D01*
Y76540D01*
X252337Y76140D01*
X251937Y75740D01*
Y75340D01*
X249771Y74037D02*
X250171D01*
X250571Y74437D01*
X250971Y74037D01*
X251371D01*
Y74437D01*
X250971Y74837D01*
X251371Y75238D01*
Y75638D01*
X250971D01*
X250571Y75238D01*
X250171Y75638D01*
X249771D01*
Y75238D01*
X250171Y74837D01*
X249771Y74437D01*
Y74037D01*
X192171Y117237D02*
X192571D01*
X192971Y117638D01*
X193371Y117237D01*
X193771D01*
Y117638D01*
X193371Y118037D01*
X193771Y118438D01*
Y118837D01*
X193371D01*
X192971Y118438D01*
X192571Y118837D01*
X192171D01*
Y118438D01*
X192571Y118037D01*
X192171Y117638D01*
Y117237D01*
X275684Y53387D02*
X276084D01*
X276484Y53787D01*
X276884Y53387D01*
X277284D01*
Y53787D01*
X276884Y54188D01*
X277284Y54588D01*
Y54988D01*
X276884D01*
X276484Y54588D01*
X276084Y54988D01*
X275684D01*
Y54588D01*
X276084Y54188D01*
X275684Y53787D01*
Y53387D01*
X255940Y50958D02*
X256340D01*
X256740Y51358D01*
X257140Y50958D01*
X257540D01*
Y51358D01*
X257140Y51758D01*
X257540Y52157D01*
Y52557D01*
X257140D01*
X256740Y52157D01*
X256340Y52557D01*
X255940D01*
Y52157D01*
X256340Y51758D01*
X255940Y51358D01*
Y50958D01*
X259371Y35638D02*
X259771D01*
X260171Y36037D01*
X260571Y35638D01*
X260971D01*
Y36037D01*
X260571Y36437D01*
X260971Y36838D01*
Y37238D01*
X260571D01*
X260171Y36838D01*
X259771Y37238D01*
X259371D01*
Y36838D01*
X259771Y36437D01*
X259371Y36037D01*
Y35638D01*
X259392Y46415D02*
X259792D01*
X260192Y46815D01*
X260592Y46415D01*
X260992D01*
Y46815D01*
X260592Y47216D01*
X260992Y47616D01*
Y48015D01*
X260592D01*
X260192Y47616D01*
X259792Y48015D01*
X259392D01*
Y47616D01*
X259792Y47216D01*
X259392Y46815D01*
Y46415D01*
X255159Y58837D02*
X255559D01*
X255959Y59237D01*
X256359Y58837D01*
X256759D01*
Y59237D01*
X256359Y59637D01*
X256759Y60037D01*
Y60438D01*
X256359D01*
X255959Y60037D01*
X255559Y60438D01*
X255159D01*
Y60037D01*
X255559Y59637D01*
X255159Y59237D01*
Y58837D01*
X254571Y78838D02*
X254971D01*
X255371Y79238D01*
X255771Y78838D01*
X256171D01*
Y79238D01*
X255771Y79637D01*
X256171Y80037D01*
Y80437D01*
X255771D01*
X255371Y80037D01*
X254971Y80437D01*
X254571D01*
Y80037D01*
X254971Y79637D01*
X254571Y79238D01*
Y78838D01*
X172971D02*
X173371D01*
X173771Y79238D01*
X174171Y78838D01*
X174571D01*
Y79238D01*
X174171Y79637D01*
X174571Y80037D01*
Y80437D01*
X174171D01*
X173771Y80037D01*
X173371Y80437D01*
X172971D01*
Y80037D01*
X173371Y79637D01*
X172971Y79238D01*
Y78838D01*
X242072Y50950D02*
X242472D01*
X242872Y51350D01*
X243272Y50950D01*
X243672D01*
Y51350D01*
X243272Y51750D01*
X243672Y52150D01*
Y52551D01*
X243272D01*
X242872Y52150D01*
X242472Y52551D01*
X242072D01*
Y52150D01*
X242472Y51750D01*
X242072Y51350D01*
Y50950D01*
X283416Y17766D02*
X283816D01*
X284216Y18167D01*
X284616Y17766D01*
X285016D01*
Y18167D01*
X284616Y18566D01*
X285016Y18967D01*
Y19366D01*
X284616D01*
X284216Y18967D01*
X283816Y19366D01*
X283416D01*
Y18967D01*
X283816Y18566D01*
X283416Y18167D01*
Y17766D01*
X267759Y22238D02*
X268159D01*
X268559Y22637D01*
X268959Y22238D01*
X269359D01*
Y22637D01*
X268959Y23038D01*
X269359Y23438D01*
Y23837D01*
X268959D01*
X268559Y23438D01*
X268159Y23837D01*
X267759D01*
Y23438D01*
X268159Y23038D01*
X267759Y22637D01*
Y22238D01*
X266779Y28190D02*
X267179D01*
X267579Y28591D01*
X267979Y28190D01*
X268379D01*
Y28591D01*
X267979Y28991D01*
X268379Y29390D01*
Y29790D01*
X267979D01*
X267579Y29390D01*
X267179Y29790D01*
X266779D01*
Y29390D01*
X267179Y28991D01*
X266779Y28591D01*
Y28190D01*
X271818Y33022D02*
X272218D01*
X272618Y33422D01*
X273018Y33022D01*
X273418D01*
Y33422D01*
X273018Y33823D01*
X273418Y34222D01*
Y34622D01*
X273018D01*
X272618Y34222D01*
X272218Y34622D01*
X271818D01*
Y34222D01*
X272218Y33823D01*
X271818Y33422D01*
Y33022D01*
X228196Y46659D02*
X228596D01*
X228996Y47058D01*
X229396Y46659D01*
X229796D01*
Y47058D01*
X229396Y47458D01*
X229796Y47859D01*
Y48259D01*
X229396D01*
X228996Y47859D01*
X228596Y48259D01*
X228196D01*
Y47859D01*
X228596Y47458D01*
X228196Y47058D01*
Y46659D01*
X250359Y29037D02*
X250759D01*
X251159Y29438D01*
X251559Y29037D01*
X251959D01*
Y29438D01*
X251559Y29838D01*
X251959Y30237D01*
Y30637D01*
X251559D01*
X251159Y30237D01*
X250759Y30637D01*
X250359D01*
Y30237D01*
X250759Y29838D01*
X250359Y29438D01*
Y29037D01*
X297771Y54838D02*
X298171D01*
X298571Y55238D01*
X298971Y54838D01*
X299371D01*
Y55238D01*
X298971Y55638D01*
X299371Y56037D01*
Y56437D01*
X298971D01*
X298571Y56037D01*
X298171Y56437D01*
X297771D01*
Y56037D01*
X298171Y55638D01*
X297771Y55238D01*
Y54838D01*
X234954Y51020D02*
X235354D01*
X235754Y51420D01*
X236154Y51020D01*
X236554D01*
Y51420D01*
X236154Y51819D01*
X236554Y52219D01*
Y52619D01*
X236154D01*
X235754Y52219D01*
X235354Y52619D01*
X234954D01*
Y52219D01*
X235354Y51819D01*
X234954Y51420D01*
Y51020D01*
X268971Y102838D02*
X269371D01*
X269771Y103237D01*
X270171Y102838D01*
X270571D01*
Y103237D01*
X270171Y103638D01*
X270571Y104037D01*
Y104437D01*
X270171D01*
X269771Y104037D01*
X269371Y104437D01*
X268971D01*
Y104037D01*
X269371Y103638D01*
X268971Y103237D01*
Y102838D01*
X259371Y83637D02*
X259771D01*
X260171Y84038D01*
X260571Y83637D01*
X260971D01*
Y84038D01*
X260571Y84438D01*
X260971Y84838D01*
Y85237D01*
X260571D01*
X260171Y84838D01*
X259771Y85237D01*
X259371D01*
Y84838D01*
X259771Y84438D01*
X259371Y84038D01*
Y83637D01*
X273771Y102838D02*
X274171D01*
X274571Y103237D01*
X274971Y102838D01*
X275371D01*
Y103237D01*
X274971Y103638D01*
X275371Y104037D01*
Y104437D01*
X274971D01*
X274571Y104037D01*
X274171Y104437D01*
X273771D01*
Y104037D01*
X274171Y103638D01*
X273771Y103237D01*
Y102838D01*
X317312Y70232D02*
X317712D01*
X318112Y70632D01*
X318512Y70232D01*
X318912D01*
Y70632D01*
X318512Y71033D01*
X318912Y71433D01*
Y71833D01*
X318512D01*
X318112Y71433D01*
X317712Y71833D01*
X317312D01*
Y71433D01*
X317712Y71033D01*
X317312Y70632D01*
Y70232D01*
X258426Y71337D02*
X258826D01*
X259226Y71737D01*
X259626Y71337D01*
X260026D01*
Y71737D01*
X259626Y72136D01*
X260026Y72536D01*
Y72936D01*
X259626D01*
X259226Y72536D01*
X258826Y72936D01*
X258426D01*
Y72536D01*
X258826Y72136D01*
X258426Y71737D01*
Y71337D01*
X251039Y71474D02*
X251439D01*
X251839Y71874D01*
X252239Y71474D01*
X252639D01*
Y71874D01*
X252239Y72275D01*
X252639Y72675D01*
Y73075D01*
X252239D01*
X251839Y72675D01*
X251439Y73075D01*
X251039D01*
Y72675D01*
X251439Y72275D01*
X251039Y71874D01*
Y71474D01*
X238199Y65330D02*
X238599D01*
X238999Y65731D01*
X239399Y65330D01*
X239799D01*
Y65731D01*
X239399Y66131D01*
X239799Y66531D01*
Y66931D01*
X239399D01*
X238999Y66531D01*
X238599Y66931D01*
X238199D01*
Y66531D01*
X238599Y66131D01*
X238199Y65731D01*
Y65330D01*
X211392Y79908D02*
X211792D01*
X212192Y80308D01*
X212592Y79908D01*
X212992D01*
Y80308D01*
X212592Y80708D01*
X212992Y81107D01*
Y81507D01*
X212592D01*
X212192Y81107D01*
X211792Y81507D01*
X211392D01*
Y81107D01*
X211792Y80708D01*
X211392Y80308D01*
Y79908D01*
X212871Y81337D02*
X213271D01*
X213671Y81738D01*
X214071Y81337D01*
X214471D01*
Y81738D01*
X214071Y82138D01*
X214471Y82538D01*
Y82938D01*
X214071D01*
X213671Y82538D01*
X213271Y82938D01*
X212871D01*
Y82538D01*
X213271Y82138D01*
X212871Y81738D01*
Y81337D01*
X211371Y74037D02*
X211771D01*
X212171Y74437D01*
X212571Y74037D01*
X212971D01*
Y74437D01*
X212571Y74837D01*
X212971Y75238D01*
Y75638D01*
X212571D01*
X212171Y75238D01*
X211771Y75638D01*
X211371D01*
Y75238D01*
X211771Y74837D01*
X211371Y74437D01*
Y74037D01*
X268959Y99437D02*
X269359D01*
X269759Y99837D01*
X270159Y99437D01*
X270559D01*
Y99837D01*
X270159Y100238D01*
X270559Y100637D01*
Y101038D01*
X270159D01*
X269759Y100637D01*
X269359Y101038D01*
X268959D01*
Y100637D01*
X269359Y100238D01*
X268959Y99837D01*
Y99437D01*
X264171Y98037D02*
X264571D01*
X264971Y98438D01*
X265371Y98037D01*
X265771D01*
Y98438D01*
X265371Y98838D01*
X265771Y99238D01*
Y99638D01*
X265371D01*
X264971Y99238D01*
X264571Y99638D01*
X264171D01*
Y99238D01*
X264571Y98838D01*
X264171Y98438D01*
Y98037D01*
X283371Y102838D02*
X283771D01*
X284171Y103237D01*
X284571Y102838D01*
X284971D01*
Y103237D01*
X284571Y103638D01*
X284971Y104037D01*
Y104437D01*
X284571D01*
X284171Y104037D01*
X283771Y104437D01*
X283371D01*
Y104037D01*
X283771Y103638D01*
X283371Y103237D01*
Y102838D01*
X278571Y98037D02*
X278971D01*
X279371Y98438D01*
X279771Y98037D01*
X280171D01*
Y98438D01*
X279771Y98838D01*
X280171Y99238D01*
Y99638D01*
X279771D01*
X279371Y99238D01*
X278971Y99638D01*
X278571D01*
Y99238D01*
X278971Y98838D01*
X278571Y98438D01*
Y98037D01*
X283371D02*
X283771D01*
X284171Y98438D01*
X284571Y98037D01*
X284971D01*
Y98438D01*
X284571Y98838D01*
X284971Y99238D01*
Y99638D01*
X284571D01*
X284171Y99238D01*
X283771Y99638D01*
X283371D01*
Y99238D01*
X283771Y98838D01*
X283371Y98438D01*
Y98037D01*
X225771Y45237D02*
X226171D01*
X226571Y45638D01*
X226971Y45237D01*
X227371D01*
Y45638D01*
X226971Y46038D01*
X227371Y46437D01*
Y46837D01*
X226971D01*
X226571Y46437D01*
X226171Y46837D01*
X225771D01*
Y46437D01*
X226171Y46038D01*
X225771Y45638D01*
Y45237D01*
X312272Y111377D02*
X312672D01*
X313072Y111776D01*
X313472Y111377D01*
X313872D01*
Y111776D01*
X313472Y112177D01*
X313872Y112576D01*
Y112977D01*
X313472D01*
X313072Y112576D01*
X312672Y112977D01*
X312272D01*
Y112576D01*
X312672Y112177D01*
X312272Y111776D01*
Y111377D01*
X184159Y22038D02*
X184559D01*
X184959Y22437D01*
X185359Y22038D01*
X185759D01*
Y22437D01*
X185359Y22838D01*
X185759Y23237D01*
Y23638D01*
X185359D01*
X184959Y23237D01*
X184559Y23638D01*
X184159D01*
Y23237D01*
X184559Y22838D01*
X184159Y22437D01*
Y22038D01*
X300329Y52352D02*
X300729D01*
X301129Y52753D01*
X301529Y52352D01*
X301929D01*
Y52753D01*
X301529Y53153D01*
X301929Y53553D01*
Y53952D01*
X301529D01*
X301129Y53553D01*
X300729Y53952D01*
X300329D01*
Y53553D01*
X300729Y53153D01*
X300329Y52753D01*
Y52352D01*
X187371Y122037D02*
X187771D01*
X188171Y122438D01*
X188571Y122037D01*
X188971D01*
Y122438D01*
X188571Y122837D01*
X188971Y123238D01*
Y123637D01*
X188571D01*
X188171Y123238D01*
X187771Y123637D01*
X187371D01*
Y123238D01*
X187771Y122837D01*
X187371Y122438D01*
Y122037D01*
X167859Y97938D02*
X168259D01*
X168659Y98338D01*
X169059Y97938D01*
X169459D01*
Y98338D01*
X169059Y98738D01*
X169459Y99138D01*
Y99537D01*
X169059D01*
X168659Y99138D01*
X168259Y99537D01*
X167859D01*
Y99138D01*
X168259Y98738D01*
X167859Y98338D01*
Y97938D01*
Y93138D02*
X168259D01*
X168659Y93537D01*
X169059Y93138D01*
X169459D01*
Y93537D01*
X169059Y93937D01*
X169459Y94337D01*
Y94737D01*
X169059D01*
X168659Y94337D01*
X168259Y94737D01*
X167859D01*
Y94337D01*
X168259Y93937D01*
X167859Y93537D01*
Y93138D01*
Y83538D02*
X168259D01*
X168659Y83938D01*
X169059Y83538D01*
X169459D01*
Y83938D01*
X169059Y84338D01*
X169459Y84737D01*
Y85137D01*
X169059D01*
X168659Y84737D01*
X168259Y85137D01*
X167859D01*
Y84737D01*
X168259Y84338D01*
X167859Y83938D01*
Y83538D01*
Y69138D02*
X168259D01*
X168659Y69538D01*
X169059Y69138D01*
X169459D01*
Y69538D01*
X169059Y69937D01*
X169459Y70337D01*
Y70737D01*
X169059D01*
X168659Y70337D01*
X168259Y70737D01*
X167859D01*
Y70337D01*
X168259Y69937D01*
X167859Y69538D01*
Y69138D01*
Y64438D02*
X168259D01*
X168659Y64837D01*
X169059Y64438D01*
X169459D01*
Y64837D01*
X169059Y65237D01*
X169459Y65637D01*
Y66037D01*
X169059D01*
X168659Y65637D01*
X168259Y66037D01*
X167859D01*
Y65637D01*
X168259Y65237D01*
X167859Y64837D01*
Y64438D01*
X207159Y53637D02*
X207559D01*
X207959Y54037D01*
X208359Y53637D01*
X208759D01*
Y54037D01*
X208359Y54438D01*
X208759Y54838D01*
Y55238D01*
X208359D01*
X207959Y54838D01*
X207559Y55238D01*
X207159D01*
Y54838D01*
X207559Y54438D01*
X207159Y54037D01*
Y53637D01*
X302571Y69238D02*
X302971D01*
X303371Y69638D01*
X303771Y69238D01*
X304171D01*
Y69638D01*
X303771Y70038D01*
X304171Y70438D01*
Y70837D01*
X303771D01*
X303371Y70438D01*
X302971Y70837D01*
X302571D01*
Y70438D01*
X302971Y70038D01*
X302571Y69638D01*
Y69238D01*
X287371Y84237D02*
X287771D01*
X288171Y84637D01*
X288571Y84237D01*
X288971D01*
Y84637D01*
X288571Y85037D01*
X288971Y85438D01*
Y85838D01*
X288571D01*
X288171Y85438D01*
X287771Y85838D01*
X287371D01*
Y85438D01*
X287771Y85037D01*
X287371Y84637D01*
Y84237D01*
X307371Y54838D02*
X307771D01*
X308171Y55238D01*
X308571Y54838D01*
X308971D01*
Y55238D01*
X308571Y55638D01*
X308971Y56037D01*
Y56437D01*
X308571D01*
X308171Y56037D01*
X307771Y56437D01*
X307371D01*
Y56037D01*
X307771Y55638D01*
X307371Y55238D01*
Y54838D01*
X306959Y57437D02*
X307359D01*
X307759Y57837D01*
X308159Y57437D01*
X308559D01*
Y57837D01*
X308159Y58237D01*
X308559Y58637D01*
Y59038D01*
X308159D01*
X307759Y58637D01*
X307359Y59038D01*
X306959D01*
Y58637D01*
X307359Y58237D01*
X306959Y57837D01*
Y57437D01*
X289560Y66159D02*
X289960D01*
X290360Y66559D01*
X290760Y66159D01*
X291160D01*
Y66559D01*
X290760Y66960D01*
X291160Y67360D01*
Y67760D01*
X290760D01*
X290360Y67360D01*
X289960Y67760D01*
X289560D01*
Y67360D01*
X289960Y66960D01*
X289560Y66559D01*
Y66159D01*
X297771Y64438D02*
X298171D01*
X298571Y64837D01*
X298971Y64438D01*
X299371D01*
Y64837D01*
X298971Y65237D01*
X299371Y65637D01*
Y66037D01*
X298971D01*
X298571Y65637D01*
X298171Y66037D01*
X297771D01*
Y65637D01*
X298171Y65237D01*
X297771Y64837D01*
Y64438D01*
X280655Y55251D02*
X281055D01*
X281455Y55651D01*
X281855Y55251D01*
X282255D01*
Y55651D01*
X281855Y56051D01*
X282255Y56451D01*
Y56852D01*
X281855D01*
X281455Y56451D01*
X281055Y56852D01*
X280655D01*
Y56451D01*
X281055Y56051D01*
X280655Y55651D01*
Y55251D01*
X253359Y31837D02*
X253759D01*
X254159Y32237D01*
X254559Y31837D01*
X254959D01*
Y32237D01*
X254559Y32638D01*
X254959Y33037D01*
Y33437D01*
X254559D01*
X254159Y33037D01*
X253759Y33437D01*
X253359D01*
Y33037D01*
X253759Y32638D01*
X253359Y32237D01*
Y31837D01*
X264171Y30838D02*
X264571D01*
X264971Y31238D01*
X265371Y30838D01*
X265771D01*
Y31238D01*
X265371Y31637D01*
X265771Y32037D01*
Y32438D01*
X265371D01*
X264971Y32037D01*
X264571Y32438D01*
X264171D01*
Y32037D01*
X264571Y31637D01*
X264171Y31238D01*
Y30838D01*
X263159Y22437D02*
X263559D01*
X263959Y22838D01*
X264359Y22437D01*
X264759D01*
Y22838D01*
X264359Y23237D01*
X264759Y23638D01*
Y24037D01*
X264359D01*
X263959Y23638D01*
X263559Y24037D01*
X263159D01*
Y23638D01*
X263559Y23237D01*
X263159Y22838D01*
Y22437D01*
X259959Y25438D02*
X260359D01*
X260759Y25837D01*
X261159Y25438D01*
X261559D01*
Y25837D01*
X261159Y26237D01*
X261559Y26638D01*
Y27038D01*
X261159D01*
X260759Y26638D01*
X260359Y27038D01*
X259959D01*
Y26638D01*
X260359Y26237D01*
X259959Y25837D01*
Y25438D01*
X300122Y47934D02*
X300522D01*
X300922Y48335D01*
X301322Y47934D01*
X301722D01*
Y48335D01*
X301322Y48735D01*
X301722Y49134D01*
Y49534D01*
X301322D01*
X300922Y49134D01*
X300522Y49534D01*
X300122D01*
Y49134D01*
X300522Y48735D01*
X300122Y48335D01*
Y47934D01*
X273771Y45237D02*
X274171D01*
X274571Y45638D01*
X274971Y45237D01*
X275371D01*
Y45638D01*
X274971Y46038D01*
X275371Y46437D01*
Y46837D01*
X274971D01*
X274571Y46437D01*
X274171Y46837D01*
X273771D01*
Y46437D01*
X274171Y46038D01*
X273771Y45638D01*
Y45237D01*
X280359Y20437D02*
X280759D01*
X281159Y20838D01*
X281559Y20437D01*
X281959D01*
Y20838D01*
X281559Y21238D01*
X281959Y21637D01*
Y22038D01*
X281559D01*
X281159Y21637D01*
X280759Y22038D01*
X280359D01*
Y21637D01*
X280759Y21238D01*
X280359Y20838D01*
Y20437D01*
X288171Y54838D02*
X288571D01*
X288971Y55238D01*
X289371Y54838D01*
X289771D01*
Y55238D01*
X289371Y55638D01*
X289771Y56037D01*
Y56437D01*
X289371D01*
X288971Y56037D01*
X288571Y56437D01*
X288171D01*
Y56037D01*
X288571Y55638D01*
X288171Y55238D01*
Y54838D01*
X287420Y28466D02*
X287820D01*
X288220Y28866D01*
X288620Y28466D01*
X289020D01*
Y28866D01*
X288620Y29267D01*
X289020Y29667D01*
Y30066D01*
X288620D01*
X288220Y29667D01*
X287820Y30066D01*
X287420D01*
Y29667D01*
X287820Y29267D01*
X287420Y28866D01*
Y28466D01*
X276513Y45588D02*
X276913D01*
X277313Y45987D01*
X277713Y45588D01*
X278113D01*
Y45987D01*
X277713Y46387D01*
X278113Y46788D01*
Y47188D01*
X277713D01*
X277313Y46788D01*
X276913Y47188D01*
X276513D01*
Y46788D01*
X276913Y46387D01*
X276513Y45987D01*
Y45588D01*
X259660Y19377D02*
X260060D01*
X260460Y19778D01*
X260860Y19377D01*
X261260D01*
Y19778D01*
X260860Y20177D01*
X261260Y20577D01*
Y20978D01*
X260860D01*
X260460Y20577D01*
X260060Y20978D01*
X259660D01*
Y20577D01*
X260060Y20177D01*
X259660Y19778D01*
Y19377D01*
X259371Y93238D02*
X259771D01*
X260171Y93638D01*
X260571Y93238D01*
X260971D01*
Y93638D01*
X260571Y94037D01*
X260971Y94437D01*
Y94837D01*
X260571D01*
X260171Y94437D01*
X259771Y94837D01*
X259371D01*
Y94437D01*
X259771Y94037D01*
X259371Y93638D01*
Y93238D01*
X273771Y98037D02*
X274171D01*
X274571Y98438D01*
X274971Y98037D01*
X275371D01*
Y98438D01*
X274971Y98838D01*
X275371Y99238D01*
Y99638D01*
X274971D01*
X274571Y99238D01*
X274171Y99638D01*
X273771D01*
Y99238D01*
X274171Y98838D01*
X273771Y98438D01*
Y98037D01*
X304126Y108340D02*
X304526D01*
X304926Y108739D01*
X305326Y108340D01*
X305726D01*
Y108739D01*
X305326Y109140D01*
X305726Y109539D01*
Y109940D01*
X305326D01*
X304926Y109539D01*
X304526Y109940D01*
X304126D01*
Y109539D01*
X304526Y109140D01*
X304126Y108739D01*
Y108340D01*
X266559Y12837D02*
X266959D01*
X267359Y13238D01*
X267759Y12837D01*
X268159D01*
Y13238D01*
X267759Y13637D01*
X268159Y14038D01*
Y14437D01*
X267759D01*
X267359Y14038D01*
X266959Y14437D01*
X266559D01*
Y14038D01*
X266959Y13637D01*
X266559Y13238D01*
Y12837D01*
X305101Y64968D02*
X305501D01*
X305901Y65368D01*
X306301Y64968D01*
X306701D01*
Y65368D01*
X306301Y65768D01*
X306701Y66167D01*
Y66567D01*
X306301D01*
X305901Y66167D01*
X305501Y66567D01*
X305101D01*
Y66167D01*
X305501Y65768D01*
X305101Y65368D01*
Y64968D01*
X269859Y19632D02*
X270259D01*
X270659Y20031D01*
X271059Y19632D01*
X271459D01*
Y20031D01*
X271059Y20432D01*
X271459Y20831D01*
Y21231D01*
X271059D01*
X270659Y20831D01*
X270259Y21231D01*
X269859D01*
Y20831D01*
X270259Y20432D01*
X269859Y20031D01*
Y19632D01*
X254571Y98037D02*
X254971D01*
X255371Y98438D01*
X255771Y98037D01*
X256171D01*
Y98438D01*
X255771Y98838D01*
X256171Y99238D01*
Y99638D01*
X255771D01*
X255371Y99238D01*
X254971Y99638D01*
X254571D01*
Y99238D01*
X254971Y98838D01*
X254571Y98438D01*
Y98037D01*
X283371Y35638D02*
X283771D01*
X284171Y36037D01*
X284571Y35638D01*
X284971D01*
Y36037D01*
X284571Y36437D01*
X284971Y36838D01*
Y37238D01*
X284571D01*
X284171Y36838D01*
X283771Y37238D01*
X283371D01*
Y36838D01*
X283771Y36437D01*
X283371Y36037D01*
Y35638D01*
X291217Y48900D02*
X291617D01*
X292017Y49301D01*
X292417Y48900D01*
X292817D01*
Y49301D01*
X292417Y49700D01*
X292817Y50100D01*
Y50501D01*
X292417D01*
X292017Y50100D01*
X291617Y50501D01*
X291217D01*
Y50100D01*
X291617Y49700D01*
X291217Y49301D01*
Y48900D01*
X169359Y43837D02*
X169759D01*
X170159Y44238D01*
X170559Y43837D01*
X170959D01*
Y44238D01*
X170559Y44638D01*
X170959Y45037D01*
Y45437D01*
X170559D01*
X170159Y45037D01*
X169759Y45437D01*
X169359D01*
Y45037D01*
X169759Y44638D01*
X169359Y44238D01*
Y43837D01*
X305369Y82107D02*
X305769D01*
X306169Y82507D01*
X306569Y82107D01*
X306969D01*
Y82507D01*
X306569Y82907D01*
X306969Y83306D01*
Y83706D01*
X306569D01*
X306169Y83306D01*
X305769Y83706D01*
X305369D01*
Y83306D01*
X305769Y82907D01*
X305369Y82507D01*
Y82107D01*
X313170Y72303D02*
X313570D01*
X313970Y72703D01*
X314370Y72303D01*
X314770D01*
Y72703D01*
X314370Y73103D01*
X314770Y73504D01*
Y73904D01*
X314370D01*
X313970Y73504D01*
X313570Y73904D01*
X313170D01*
Y73504D01*
X313570Y73103D01*
X313170Y72703D01*
Y72303D01*
X321771Y69238D02*
X322171D01*
X322571Y69638D01*
X322971Y69238D01*
X323371D01*
Y69638D01*
X322971Y70038D01*
X323371Y70438D01*
Y70837D01*
X322971D01*
X322571Y70438D01*
X322171Y70837D01*
X321771D01*
Y70438D01*
X322171Y70038D01*
X321771Y69638D01*
Y69238D01*
X192171Y112437D02*
X192571D01*
X192971Y112838D01*
X193371Y112437D01*
X193771D01*
Y112838D01*
X193371Y113238D01*
X193771Y113637D01*
Y114038D01*
X193371D01*
X192971Y113637D01*
X192571Y114038D01*
X192171D01*
Y113637D01*
X192571Y113238D01*
X192171Y112838D01*
Y112437D01*
X307371Y83637D02*
X307771D01*
X308171Y84038D01*
X308571Y83637D01*
X308971D01*
Y84038D01*
X308571Y84438D01*
X308971Y84838D01*
Y85237D01*
X308571D01*
X308171Y84838D01*
X307771Y85237D01*
X307371D01*
Y84838D01*
X307771Y84438D01*
X307371Y84038D01*
Y83637D01*
Y78838D02*
X307771D01*
X308171Y79238D01*
X308571Y78838D01*
X308971D01*
Y79238D01*
X308571Y79637D01*
X308971Y80037D01*
Y80437D01*
X308571D01*
X308171Y80037D01*
X307771Y80437D01*
X307371D01*
Y80037D01*
X307771Y79637D01*
X307371Y79238D01*
Y78838D01*
X294759Y116037D02*
X295159D01*
X295559Y116437D01*
X295959Y116037D01*
X296359D01*
Y116437D01*
X295959Y116838D01*
X296359Y117237D01*
Y117638D01*
X295959D01*
X295559Y117237D01*
X295159Y117638D01*
X294759D01*
Y117237D01*
X295159Y116838D01*
X294759Y116437D01*
Y116037D01*
X283371Y30838D02*
X283771D01*
X284171Y31238D01*
X284571Y30838D01*
X284971D01*
Y31238D01*
X284571Y31637D01*
X284971Y32037D01*
Y32438D01*
X284571D01*
X284171Y32037D01*
X283771Y32438D01*
X283371D01*
Y32037D01*
X283771Y31637D01*
X283371Y31238D01*
Y30838D01*
X268837Y50484D02*
X269237D01*
X269637Y50884D01*
X270037Y50484D01*
X270437D01*
Y50884D01*
X270037Y51284D01*
X270437Y51683D01*
Y52083D01*
X270037D01*
X269637Y51683D01*
X269237Y52083D01*
X268837D01*
Y51683D01*
X269237Y51284D01*
X268837Y50884D01*
Y50484D01*
X202559Y29037D02*
X202959D01*
X203359Y29438D01*
X203759Y29037D01*
X204159D01*
Y29438D01*
X203759Y29838D01*
X204159Y30237D01*
Y30637D01*
X203759D01*
X203359Y30237D01*
X202959Y30637D01*
X202559D01*
Y30237D01*
X202959Y29838D01*
X202559Y29438D01*
Y29037D01*
X318559Y84838D02*
X318959D01*
X319359Y85237D01*
X319759Y84838D01*
X320159D01*
Y85237D01*
X319759Y85637D01*
X320159Y86037D01*
Y86437D01*
X319759D01*
X319359Y86037D01*
X318959Y86437D01*
X318559D01*
Y86037D01*
X318959Y85637D01*
X318559Y85237D01*
Y84838D01*
X260702Y80885D02*
X261102D01*
X261502Y81286D01*
X261902Y80885D01*
X262302D01*
Y81286D01*
X261902Y81686D01*
X262302Y82086D01*
Y82486D01*
X261902D01*
X261502Y82086D01*
X261102Y82486D01*
X260702D01*
Y82086D01*
X261102Y81686D01*
X260702Y81286D01*
Y80885D01*
X305714Y62018D02*
X306114D01*
X306514Y62418D01*
X306914Y62018D01*
X307314D01*
Y62418D01*
X306914Y62818D01*
X307314Y63218D01*
Y63617D01*
X306914D01*
X306514Y63218D01*
X306114Y63617D01*
X305714D01*
Y63218D01*
X306114Y62818D01*
X305714Y62418D01*
Y62018D01*
X271542Y38960D02*
X271942D01*
X272342Y39360D01*
X272742Y38960D01*
X273142D01*
Y39360D01*
X272742Y39759D01*
X273142Y40159D01*
Y40560D01*
X272742D01*
X272342Y40159D01*
X271942Y40560D01*
X271542D01*
Y40159D01*
X271942Y39759D01*
X271542Y39360D01*
Y38960D01*
X280931Y87905D02*
X281331D01*
X281731Y88305D01*
X282131Y87905D01*
X282531D01*
Y88305D01*
X282131Y88705D01*
X282531Y89104D01*
Y89504D01*
X282131D01*
X281731Y89104D01*
X281331Y89504D01*
X280931D01*
Y89104D01*
X281331Y88705D01*
X280931Y88305D01*
Y87905D01*
X268971Y107638D02*
X269371D01*
X269771Y108037D01*
X270171Y107638D01*
X270571D01*
Y108037D01*
X270171Y108438D01*
X270571Y108837D01*
Y109238D01*
X270171D01*
X269771Y108837D01*
X269371Y109238D01*
X268971D01*
Y108837D01*
X269371Y108438D01*
X268971Y108037D01*
Y107638D01*
X283371D02*
X283771D01*
X284171Y108037D01*
X284571Y107638D01*
X284971D01*
Y108037D01*
X284571Y108438D01*
X284971Y108837D01*
Y109238D01*
X284571D01*
X284171Y108837D01*
X283771Y109238D01*
X283371D01*
Y108837D01*
X283771Y108438D01*
X283371Y108037D01*
Y107638D01*
X255359Y118037D02*
X255759D01*
X256159Y118438D01*
X256559Y118037D01*
X256959D01*
Y118438D01*
X256559Y118837D01*
X256959Y119237D01*
Y119638D01*
X256559D01*
X256159Y119237D01*
X255759Y119638D01*
X255359D01*
Y119237D01*
X255759Y118837D01*
X255359Y118438D01*
Y118037D01*
X255709Y116568D02*
X256109D01*
X256509Y116967D01*
X256909Y116568D01*
X257309D01*
Y116967D01*
X256909Y117367D01*
X257309Y117768D01*
Y118167D01*
X256909D01*
X256509Y117768D01*
X256109Y118167D01*
X255709D01*
Y117768D01*
X256109Y117367D01*
X255709Y116967D01*
Y116568D01*
X257709Y112423D02*
X258109D01*
X258509Y112822D01*
X258909Y112423D01*
X259309D01*
Y112822D01*
X258909Y113223D01*
X259309Y113622D01*
Y114023D01*
X258909D01*
X258509Y113622D01*
X258109Y114023D01*
X257709D01*
Y113622D01*
X258109Y113223D01*
X257709Y112822D01*
Y112423D01*
X292924Y111353D02*
X293324D01*
X293724Y111752D01*
X294124Y111353D01*
X294524D01*
Y111752D01*
X294124Y112153D01*
X294524Y112552D01*
Y112952D01*
X294124D01*
X293724Y112552D01*
X293324Y112952D01*
X292924D01*
Y112552D01*
X293324Y112153D01*
X292924Y111752D01*
Y111353D01*
X273771Y107638D02*
X274171D01*
X274571Y108037D01*
X274971Y107638D01*
X275371D01*
Y108037D01*
X274971Y108438D01*
X275371Y108837D01*
Y109238D01*
X274971D01*
X274571Y108837D01*
X274171Y109238D01*
X273771D01*
Y108837D01*
X274171Y108438D01*
X273771Y108037D01*
Y107638D01*
X269914Y109878D02*
X270314D01*
X270714Y110277D01*
X271114Y109878D01*
X271514D01*
Y110277D01*
X271114Y110678D01*
X271514Y111077D01*
Y111477D01*
X271114D01*
X270714Y111077D01*
X270314Y111477D01*
X269914D01*
Y111077D01*
X270314Y110678D01*
X269914Y110277D01*
Y109878D01*
X264904D02*
X265304D01*
X265704Y110277D01*
X266104Y109878D01*
X266504D01*
Y110277D01*
X266104Y110678D01*
X266504Y111077D01*
Y111477D01*
X266104D01*
X265704Y111077D01*
X265304Y111477D01*
X264904D01*
Y111077D01*
X265304Y110678D01*
X264904Y110277D01*
Y109878D01*
X296359Y123038D02*
X296759D01*
X297159Y123438D01*
X297559Y123038D01*
X297959D01*
Y123438D01*
X297559Y123837D01*
X297959Y124238D01*
Y124637D01*
X297559D01*
X297159Y124238D01*
X296759Y124637D01*
X296359D01*
Y124238D01*
X296759Y123837D01*
X296359Y123438D01*
Y123038D01*
X296149Y115953D02*
X296549D01*
X296949Y116352D01*
X297349Y115953D01*
X297749D01*
Y116352D01*
X297349Y116753D01*
X297749Y117153D01*
Y117552D01*
X297349D01*
X296949Y117153D01*
X296549Y117552D01*
X296149D01*
Y117153D01*
X296549Y116753D01*
X296149Y116352D01*
Y115953D01*
X288489Y110337D02*
X288889D01*
X289289Y110738D01*
X289689Y110337D01*
X290089D01*
Y110738D01*
X289689Y111137D01*
X290089Y111538D01*
Y111937D01*
X289689D01*
X289289Y111538D01*
X288889Y111937D01*
X288489D01*
Y111538D01*
X288889Y111137D01*
X288489Y110738D01*
Y110337D01*
X287234D02*
X287634D01*
X288034Y110738D01*
X288434Y110337D01*
X288834D01*
Y110738D01*
X288434Y111137D01*
X288834Y111538D01*
Y111937D01*
X288434D01*
X288034Y111538D01*
X287634Y111937D01*
X287234D01*
Y111538D01*
X287634Y111137D01*
X287234Y110738D01*
Y110337D01*
X257609Y123248D02*
X258009D01*
X258409Y123647D01*
X258809Y123248D01*
X259209D01*
Y123647D01*
X258809Y124048D01*
X259209Y124448D01*
Y124847D01*
X258809D01*
X258409Y124448D01*
X258009Y124847D01*
X257609D01*
Y124448D01*
X258009Y124048D01*
X257609Y123647D01*
Y123248D01*
X258644Y124242D02*
X259044D01*
X259444Y124643D01*
X259844Y124242D01*
X260244D01*
Y124643D01*
X259844Y125042D01*
X260244Y125443D01*
Y125842D01*
X259844D01*
X259444Y125443D01*
X259044Y125842D01*
X258644D01*
Y125443D01*
X259044Y125042D01*
X258644Y124643D01*
Y124242D01*
X259874Y125007D02*
X260274D01*
X260674Y125408D01*
X261074Y125007D01*
X261474D01*
Y125408D01*
X261074Y125807D01*
X261474Y126207D01*
Y126608D01*
X261074D01*
X260674Y126207D01*
X260274Y126608D01*
X259874D01*
Y126207D01*
X260274Y125807D01*
X259874Y125408D01*
Y125007D01*
X261144Y125612D02*
X261544D01*
X261944Y126013D01*
X262344Y125612D01*
X262744D01*
Y126013D01*
X262344Y126412D01*
X262744Y126813D01*
Y127213D01*
X262344D01*
X261944Y126813D01*
X261544Y127213D01*
X261144D01*
Y126813D01*
X261544Y126412D01*
X261144Y126013D01*
Y125612D01*
X290449Y125653D02*
X290849D01*
X291249Y126052D01*
X291649Y125653D01*
X292049D01*
Y126052D01*
X291649Y126453D01*
X292049Y126853D01*
Y127252D01*
X291649D01*
X291249Y126853D01*
X290849Y127252D01*
X290449D01*
Y126853D01*
X290849Y126453D01*
X290449Y126052D01*
Y125653D01*
X288859D02*
X289259D01*
X289659Y126052D01*
X290059Y125653D01*
X290459D01*
Y126052D01*
X290059Y126453D01*
X290459Y126853D01*
Y127252D01*
X290059D01*
X289659Y126853D01*
X289259Y127252D01*
X288859D01*
Y126853D01*
X289259Y126453D01*
X288859Y126052D01*
Y125653D01*
X287564Y125598D02*
X287964D01*
X288364Y125997D01*
X288764Y125598D01*
X289164D01*
Y125997D01*
X288764Y126398D01*
X289164Y126797D01*
Y127198D01*
X288764D01*
X288364Y126797D01*
X287964Y127198D01*
X287564D01*
Y126797D01*
X287964Y126398D01*
X287564Y125997D01*
Y125598D01*
X286069Y125577D02*
X286469D01*
X286869Y125978D01*
X287269Y125577D01*
X287669D01*
Y125978D01*
X287269Y126377D01*
X287669Y126778D01*
Y127178D01*
X287269D01*
X286869Y126778D01*
X286469Y127178D01*
X286069D01*
Y126778D01*
X286469Y126377D01*
X286069Y125978D01*
Y125577D01*
X262564Y125847D02*
X262964D01*
X263364Y126248D01*
X263764Y125847D01*
X264164D01*
Y126248D01*
X263764Y126647D01*
X264164Y127048D01*
Y127447D01*
X263764D01*
X263364Y127048D01*
X262964Y127447D01*
X262564D01*
Y127048D01*
X262964Y126647D01*
X262564Y126248D01*
Y125847D01*
X266719Y125703D02*
X267119D01*
X267519Y126102D01*
X267919Y125703D01*
X268319D01*
Y126102D01*
X267919Y126503D01*
X268319Y126902D01*
Y127303D01*
X267919D01*
X267519Y126902D01*
X267119Y127303D01*
X266719D01*
Y126902D01*
X267119Y126503D01*
X266719Y126102D01*
Y125703D01*
X269499Y125678D02*
X269899D01*
X270299Y126077D01*
X270699Y125678D01*
X271099D01*
Y126077D01*
X270699Y126478D01*
X271099Y126877D01*
Y127278D01*
X270699D01*
X270299Y126877D01*
X269899Y127278D01*
X269499D01*
Y126877D01*
X269899Y126478D01*
X269499Y126077D01*
Y125678D01*
X270894Y125647D02*
X271294D01*
X271694Y126048D01*
X272094Y125647D01*
X272494D01*
Y126048D01*
X272094Y126447D01*
X272494Y126848D01*
Y127248D01*
X272094D01*
X271694Y126848D01*
X271294Y127248D01*
X270894D01*
Y126848D01*
X271294Y126447D01*
X270894Y126048D01*
Y125647D01*
X273669Y125663D02*
X274069D01*
X274469Y126063D01*
X274869Y125663D01*
X275269D01*
Y126063D01*
X274869Y126462D01*
X275269Y126863D01*
Y127262D01*
X274869D01*
X274469Y126863D01*
X274069Y127262D01*
X273669D01*
Y126863D01*
X274069Y126462D01*
X273669Y126063D01*
Y125663D01*
X281904Y125622D02*
X282304D01*
X282704Y126023D01*
X283104Y125622D01*
X283504D01*
Y126023D01*
X283104Y126423D01*
X283504Y126822D01*
Y127223D01*
X283104D01*
X282704Y126822D01*
X282304Y127223D01*
X281904D01*
Y126822D01*
X282304Y126423D01*
X281904Y126023D01*
Y125622D01*
X254571Y102838D02*
X254971D01*
X255371Y103237D01*
X255771Y102838D01*
X256171D01*
Y103237D01*
X255771Y103638D01*
X256171Y104037D01*
Y104437D01*
X255771D01*
X255371Y104037D01*
X254971Y104437D01*
X254571D01*
Y104037D01*
X254971Y103638D01*
X254571Y103237D01*
Y102838D01*
X276464Y125668D02*
X276864D01*
X277264Y126067D01*
X277664Y125668D01*
X278064D01*
Y126067D01*
X277664Y126468D01*
X278064Y126867D01*
Y127268D01*
X277664D01*
X277264Y126867D01*
X276864Y127268D01*
X276464D01*
Y126867D01*
X276864Y126468D01*
X276464Y126067D01*
Y125668D01*
X279144Y125647D02*
X279544D01*
X279944Y126048D01*
X280344Y125647D01*
X280744D01*
Y126048D01*
X280344Y126447D01*
X280744Y126848D01*
Y127248D01*
X280344D01*
X279944Y126848D01*
X279544Y127248D01*
X279144D01*
Y126848D01*
X279544Y126447D01*
X279144Y126048D01*
Y125647D01*
X247759Y40437D02*
X248159D01*
X248559Y40837D01*
X248959Y40437D01*
X249359D01*
Y40837D01*
X248959Y41238D01*
X249359Y41638D01*
Y42037D01*
X248959D01*
X248559Y41638D01*
X248159Y42037D01*
X247759D01*
Y41638D01*
X248159Y41238D01*
X247759Y40837D01*
Y40437D01*
X264777Y71613D02*
X265177D01*
X265577Y72013D01*
X265977Y71613D01*
X266377D01*
Y72013D01*
X265977Y72413D01*
X266377Y72812D01*
Y73212D01*
X265977D01*
X265577Y72812D01*
X265177Y73212D01*
X264777D01*
Y72812D01*
X265177Y72413D01*
X264777Y72013D01*
Y71613D01*
X270921Y80932D02*
X271321D01*
X271721Y81332D01*
X272121Y80932D01*
X272521D01*
Y81332D01*
X272121Y81732D01*
X272521Y82133D01*
Y82533D01*
X272121D01*
X271721Y82133D01*
X271321Y82533D01*
X270921D01*
Y82133D01*
X271321Y81732D01*
X270921Y81332D01*
Y80932D01*
X192191Y25466D02*
X192591D01*
X192991Y25866D01*
X193391Y25466D01*
X193791D01*
Y25866D01*
X193391Y26265D01*
X193791Y26665D01*
Y27066D01*
X193391D01*
X192991Y26665D01*
X192591Y27066D01*
X192191D01*
Y26665D01*
X192591Y26265D01*
X192191Y25866D01*
Y25466D01*
X194707Y18801D02*
X195107D01*
X195507Y19202D01*
X195907Y18801D01*
X196307D01*
Y19202D01*
X195907Y19602D01*
X196307Y20001D01*
Y20402D01*
X195907D01*
X195507Y20001D01*
X195107Y20402D01*
X194707D01*
Y20001D01*
X195107Y19602D01*
X194707Y19202D01*
Y18801D01*
X254571Y93238D02*
X254971D01*
X255371Y93638D01*
X255771Y93238D01*
X256171D01*
Y93638D01*
X255771Y94037D01*
X256171Y94437D01*
Y94837D01*
X255771D01*
X255371Y94437D01*
X254971Y94837D01*
X254571D01*
Y94437D01*
X254971Y94037D01*
X254571Y93638D01*
Y93238D01*
X249771Y78838D02*
X250171D01*
X250571Y79238D01*
X250971Y78838D01*
X251371D01*
Y79238D01*
X250971Y79637D01*
X251371Y80037D01*
Y80437D01*
X250971D01*
X250571Y80037D01*
X250171Y80437D01*
X249771D01*
Y80037D01*
X250171Y79637D01*
X249771Y79238D01*
Y78838D01*
X273771Y93238D02*
X274171D01*
X274571Y93638D01*
X274971Y93238D01*
X275371D01*
Y93638D01*
X274971Y94037D01*
X275371Y94437D01*
Y94837D01*
X274971D01*
X274571Y94437D01*
X274171Y94837D01*
X273771D01*
Y94437D01*
X274171Y94037D01*
X273771Y93638D01*
Y93238D01*
X254571Y74037D02*
X254971D01*
X255371Y74437D01*
X255771Y74037D01*
X256171D01*
Y74437D01*
X255771Y74837D01*
X256171Y75238D01*
Y75638D01*
X255771D01*
X255371Y75238D01*
X254971Y75638D01*
X254571D01*
Y75238D01*
X254971Y74837D01*
X254571Y74437D01*
Y74037D01*
X174559Y66037D02*
X174959D01*
X175359Y66438D01*
X175759Y66037D01*
X176159D01*
Y66438D01*
X175759Y66838D01*
X176159Y67238D01*
Y67637D01*
X175759D01*
X175359Y67238D01*
X174959Y67637D01*
X174559D01*
Y67238D01*
X174959Y66838D01*
X174559Y66438D01*
Y66037D01*
X177771Y64438D02*
X178171D01*
X178571Y64837D01*
X178971Y64438D01*
X179371D01*
Y64837D01*
X178971Y65237D01*
X179371Y65637D01*
Y66037D01*
X178971D01*
X178571Y65637D01*
X178171Y66037D01*
X177771D01*
Y65637D01*
X178171Y65237D01*
X177771Y64837D01*
Y64438D01*
X220971Y112437D02*
X221371D01*
X221771Y112838D01*
X222171Y112437D01*
X222571D01*
Y112838D01*
X222171Y113238D01*
X222571Y113637D01*
Y114038D01*
X222171D01*
X221771Y113637D01*
X221371Y114038D01*
X220971D01*
Y113637D01*
X221371Y113238D01*
X220971Y112838D01*
Y112437D01*
X301158Y37786D02*
X301558D01*
X301958Y38186D01*
X302358Y37786D01*
X302758D01*
Y38186D01*
X302358Y38587D01*
X302758Y38987D01*
Y39386D01*
X302358D01*
X301958Y38987D01*
X301558Y39386D01*
X301158D01*
Y38987D01*
X301558Y38587D01*
X301158Y38186D01*
Y37786D01*
X230571Y88437D02*
X230971D01*
X231371Y88837D01*
X231771Y88437D01*
X232171D01*
Y88837D01*
X231771Y89237D01*
X232171Y89638D01*
Y90038D01*
X231771D01*
X231371Y89638D01*
X230971Y90038D01*
X230571D01*
Y89638D01*
X230971Y89237D01*
X230571Y88837D01*
Y88437D01*
X191759Y29037D02*
X192159D01*
X192559Y29438D01*
X192959Y29037D01*
X193359D01*
Y29438D01*
X192959Y29838D01*
X193359Y30237D01*
Y30637D01*
X192959D01*
X192559Y30237D01*
X192159Y30637D01*
X191759D01*
Y30237D01*
X192159Y29838D01*
X191759Y29438D01*
Y29037D01*
X291669Y110913D02*
X292069D01*
X292469Y111312D01*
X292869Y110913D01*
X293269D01*
Y111312D01*
X292869Y111713D01*
X293269Y112112D01*
Y112513D01*
X292869D01*
X292469Y112112D01*
X292069Y112513D01*
X291669D01*
Y112112D01*
X292069Y111713D01*
X291669Y111312D01*
Y110913D01*
X293969Y112248D02*
X294369D01*
X294769Y112647D01*
X295169Y112248D01*
X295569D01*
Y112647D01*
X295169Y113048D01*
X295569Y113447D01*
Y113847D01*
X295169D01*
X294769Y113447D01*
X294369Y113847D01*
X293969D01*
Y113447D01*
X294369Y113048D01*
X293969Y112647D01*
Y112248D01*
X296344Y119998D02*
X296744D01*
X297144Y120397D01*
X297544Y119998D01*
X297944D01*
Y120397D01*
X297544Y120798D01*
X297944Y121197D01*
Y121598D01*
X297544D01*
X297144Y121197D01*
X296744Y121598D01*
X296344D01*
Y121197D01*
X296744Y120798D01*
X296344Y120397D01*
Y119998D01*
X295639Y121458D02*
X296039D01*
X296439Y121858D01*
X296839Y121458D01*
X297239D01*
Y121858D01*
X296839Y122257D01*
X297239Y122658D01*
Y123057D01*
X296839D01*
X296439Y122658D01*
X296039Y123057D01*
X295639D01*
Y122658D01*
X296039Y122257D01*
X295639Y121858D01*
Y121458D01*
X184560Y19008D02*
X184960D01*
X185360Y19409D01*
X185760Y19008D01*
X186160D01*
Y19409D01*
X185760Y19808D01*
X186160Y20209D01*
Y20608D01*
X185760D01*
X185360Y20209D01*
X184960Y20608D01*
X184560D01*
Y20209D01*
X184960Y19808D01*
X184560Y19409D01*
Y19008D01*
X303574Y118349D02*
X303974D01*
X304374Y118748D01*
X304774Y118349D01*
X305174D01*
Y118748D01*
X304774Y119149D01*
X305174Y119548D01*
Y119948D01*
X304774D01*
X304374Y119548D01*
X303974Y119948D01*
X303574D01*
Y119548D01*
X303974Y119149D01*
X303574Y118748D01*
Y118349D01*
X242893Y119108D02*
X243293D01*
X243693Y119509D01*
X244093Y119108D01*
X244493D01*
Y119509D01*
X244093Y119908D01*
X244493Y120308D01*
Y120709D01*
X244093D01*
X243693Y120308D01*
X243293Y120709D01*
X242893D01*
Y120308D01*
X243293Y119908D01*
X242893Y119509D01*
Y119108D01*
X244971Y126838D02*
X245371D01*
X245771Y127237D01*
X246171Y126838D01*
X246571D01*
Y127237D01*
X246171Y127638D01*
X246571Y128038D01*
Y128437D01*
X246171D01*
X245771Y128038D01*
X245371Y128437D01*
X244971D01*
Y128038D01*
X245371Y127638D01*
X244971Y127237D01*
Y126838D01*
X277151Y19693D02*
X277551D01*
X277951Y20094D01*
X278351Y19693D01*
X278751D01*
Y20094D01*
X278351Y20493D01*
X278751Y20893D01*
Y21294D01*
X278351D01*
X277951Y20893D01*
X277551Y21294D01*
X277151D01*
Y20893D01*
X277551Y20493D01*
X277151Y20094D01*
Y19693D01*
X279343Y59601D02*
X279743D01*
X280143Y60000D01*
X280543Y59601D01*
X280943D01*
Y60000D01*
X280543Y60400D01*
X280943Y60800D01*
Y61200D01*
X280543D01*
X280143Y60800D01*
X279743Y61200D01*
X279343D01*
Y60800D01*
X279743Y60400D01*
X279343Y60000D01*
Y59601D01*
X233021Y119937D02*
X233421D01*
X233821Y120336D01*
X234221Y119937D01*
X234621D01*
Y120336D01*
X234221Y120737D01*
X234621Y121136D01*
Y121537D01*
X234221D01*
X233821Y121136D01*
X233421Y121537D01*
X233021D01*
Y121136D01*
X233421Y120737D01*
X233021Y120336D01*
Y119937D01*
X225771Y107638D02*
X226171D01*
X226571Y108037D01*
X226971Y107638D01*
X227371D01*
Y108037D01*
X226971Y108438D01*
X227371Y108837D01*
Y109238D01*
X226971D01*
X226571Y108837D01*
X226171Y109238D01*
X225771D01*
Y108837D01*
X226171Y108438D01*
X225771Y108037D01*
Y107638D01*
X227982Y114966D02*
X228382D01*
X228782Y115366D01*
X229182Y114966D01*
X229582D01*
Y115366D01*
X229182Y115767D01*
X229582Y116166D01*
Y116567D01*
X229182D01*
X228782Y116166D01*
X228382Y116567D01*
X227982D01*
Y116166D01*
X228382Y115767D01*
X227982Y115366D01*
Y114966D01*
X228051Y120421D02*
X228451D01*
X228851Y120820D01*
X229251Y120421D01*
X229651D01*
Y120820D01*
X229251Y121221D01*
X229651Y121621D01*
Y122020D01*
X229251D01*
X228851Y121621D01*
X228451Y122020D01*
X228051D01*
Y121621D01*
X228451Y121221D01*
X228051Y120820D01*
Y120421D01*
X303574Y113447D02*
X303974D01*
X304374Y113847D01*
X304774Y113447D01*
X305174D01*
Y113847D01*
X304774Y114248D01*
X305174Y114647D01*
Y115048D01*
X304774D01*
X304374Y114647D01*
X303974Y115048D01*
X303574D01*
Y114647D01*
X303974Y114248D01*
X303574Y113847D01*
Y113447D01*
X230571Y122037D02*
X230971D01*
X231371Y122438D01*
X231771Y122037D01*
X232171D01*
Y122438D01*
X231771Y122837D01*
X232171Y123238D01*
Y123637D01*
X231771D01*
X231371Y123238D01*
X230971Y123637D01*
X230571D01*
Y123238D01*
X230971Y122837D01*
X230571Y122438D01*
Y122037D01*
X220971Y83637D02*
X221371D01*
X221771Y84038D01*
X222171Y83637D01*
X222571D01*
Y84038D01*
X222171Y84438D01*
X222571Y84838D01*
Y85237D01*
X222171D01*
X221771Y84838D01*
X221371Y85237D01*
X220971D01*
Y84838D01*
X221371Y84438D01*
X220971Y84038D01*
Y83637D01*
X240171Y88437D02*
X240571D01*
X240971Y88837D01*
X241371Y88437D01*
X241771D01*
Y88837D01*
X241371Y89237D01*
X241771Y89638D01*
Y90038D01*
X241371D01*
X240971Y89638D01*
X240571Y90038D01*
X240171D01*
Y89638D01*
X240571Y89237D01*
X240171Y88837D01*
Y88437D01*
X232331Y125252D02*
X232731D01*
X233131Y125653D01*
X233531Y125252D01*
X233931D01*
Y125653D01*
X233531Y126052D01*
X233931Y126453D01*
Y126853D01*
X233531D01*
X233131Y126453D01*
X232731Y126853D01*
X232331D01*
Y126453D01*
X232731Y126052D01*
X232331Y125653D01*
Y125252D01*
X294749Y122662D02*
X295149D01*
X295549Y123063D01*
X295949Y122662D01*
X296349D01*
Y123063D01*
X295949Y123462D01*
X296349Y123863D01*
Y124262D01*
X295949D01*
X295549Y123863D01*
X295149Y124262D01*
X294749D01*
Y123863D01*
X295149Y123462D01*
X294749Y123063D01*
Y122662D01*
X283059Y110187D02*
X283459D01*
X283859Y110588D01*
X284259Y110187D01*
X284659D01*
Y110588D01*
X284259Y110987D01*
X284659Y111388D01*
Y111787D01*
X284259D01*
X283859Y111388D01*
X283459Y111787D01*
X283059D01*
Y111388D01*
X283459Y110987D01*
X283059Y110588D01*
Y110187D01*
X279099D02*
X279499D01*
X279899Y110588D01*
X280299Y110187D01*
X280699D01*
Y110588D01*
X280299Y110987D01*
X280699Y111388D01*
Y111787D01*
X280299D01*
X279899Y111388D01*
X279499Y111787D01*
X279099D01*
Y111388D01*
X279499Y110987D01*
X279099Y110588D01*
Y110187D01*
X300606Y42412D02*
X301006D01*
X301406Y42812D01*
X301806Y42412D01*
X302206D01*
Y42812D01*
X301806Y43211D01*
X302206Y43611D01*
Y44012D01*
X301806D01*
X301406Y43611D01*
X301006Y44012D01*
X300606D01*
Y43611D01*
X301006Y43211D01*
X300606Y42812D01*
Y42412D01*
X294945Y42066D02*
X295345D01*
X295745Y42467D01*
X296145Y42066D01*
X296545D01*
Y42467D01*
X296145Y42867D01*
X296545Y43266D01*
Y43666D01*
X296145D01*
X295745Y43266D01*
X295345Y43666D01*
X294945D01*
Y43266D01*
X295345Y42867D01*
X294945Y42467D01*
Y42066D01*
X225771Y83637D02*
X226171D01*
X226571Y84038D01*
X226971Y83637D01*
X227371D01*
Y84038D01*
X226971Y84438D01*
X227371Y84838D01*
Y85237D01*
X226971D01*
X226571Y84838D01*
X226171Y85237D01*
X225771D01*
Y84838D01*
X226171Y84438D01*
X225771Y84038D01*
Y83637D01*
X294392Y52560D02*
X294792D01*
X295192Y52960D01*
X295592Y52560D01*
X295992D01*
Y52960D01*
X295592Y53360D01*
X295992Y53759D01*
Y54159D01*
X295592D01*
X295192Y53759D01*
X294792Y54159D01*
X294392D01*
Y53759D01*
X294792Y53360D01*
X294392Y52960D01*
Y52560D01*
X199194Y18870D02*
X199594D01*
X199994Y19271D01*
X200394Y18870D01*
X200794D01*
Y19271D01*
X200394Y19670D01*
X200794Y20071D01*
Y20470D01*
X200394D01*
X199994Y20071D01*
X199594Y20470D01*
X199194D01*
Y20071D01*
X199594Y19670D01*
X199194Y19271D01*
Y18870D01*
X190358D02*
X190758D01*
X191158Y19271D01*
X191558Y18870D01*
X191958D01*
Y19271D01*
X191558Y19670D01*
X191958Y20071D01*
Y20470D01*
X191558D01*
X191158Y20071D01*
X190758Y20470D01*
X190358D01*
Y20071D01*
X190758Y19670D01*
X190358Y19271D01*
Y18870D01*
X192171Y21238D02*
X192571D01*
X192971Y21637D01*
X193371Y21238D01*
X193771D01*
Y21637D01*
X193371Y22038D01*
X193771Y22437D01*
Y22838D01*
X193371D01*
X192971Y22437D01*
X192571Y22838D01*
X192171D01*
Y22437D01*
X192571Y22038D01*
X192171Y21637D01*
Y21238D01*
X194362Y23565D02*
X194762D01*
X195162Y23966D01*
X195562Y23565D01*
X195962D01*
Y23966D01*
X195562Y24365D01*
X195962Y24766D01*
Y25166D01*
X195562D01*
X195162Y24766D01*
X194762Y25166D01*
X194362D01*
Y24766D01*
X194762Y24365D01*
X194362Y23966D01*
Y23565D01*
X196971Y21238D02*
X197371D01*
X197771Y21637D01*
X198171Y21238D01*
X198571D01*
Y21637D01*
X198171Y22038D01*
X198571Y22437D01*
Y22838D01*
X198171D01*
X197771Y22437D01*
X197371Y22838D01*
X196971D01*
Y22437D01*
X197371Y22038D01*
X196971Y21637D01*
Y21238D01*
X196991Y25466D02*
X197391D01*
X197791Y25866D01*
X198191Y25466D01*
X198591D01*
Y25866D01*
X198191Y26265D01*
X198591Y26665D01*
Y27066D01*
X198191D01*
X197791Y26665D01*
X197391Y27066D01*
X196991D01*
Y26665D01*
X197391Y26265D01*
X196991Y25866D01*
Y25466D01*
X187371Y112437D02*
X187771D01*
X188171Y112838D01*
X188571Y112437D01*
X188971D01*
Y112838D01*
X188571Y113238D01*
X188971Y113637D01*
Y114038D01*
X188571D01*
X188171Y113637D01*
X187771Y114038D01*
X187371D01*
Y113637D01*
X187771Y113238D01*
X187371Y112838D01*
Y112437D01*
X277809Y125653D02*
X278209D01*
X278609Y126052D01*
X279009Y125653D01*
X279409D01*
Y126052D01*
X279009Y126453D01*
X279409Y126853D01*
Y127252D01*
X279009D01*
X278609Y126853D01*
X278209Y127252D01*
X277809D01*
Y126853D01*
X278209Y126453D01*
X277809Y126052D01*
Y125653D01*
X182571Y122037D02*
X182971D01*
X183371Y122438D01*
X183771Y122037D01*
X184171D01*
Y122438D01*
X183771Y122837D01*
X184171Y123238D01*
Y123637D01*
X183771D01*
X183371Y123238D01*
X182971Y123637D01*
X182571D01*
Y123238D01*
X182971Y122837D01*
X182571Y122438D01*
Y122037D01*
X280519Y125637D02*
X280919D01*
X281319Y126038D01*
X281719Y125637D01*
X282119D01*
Y126038D01*
X281719Y126437D01*
X282119Y126838D01*
Y127237D01*
X281719D01*
X281319Y126838D01*
X280919Y127237D01*
X280519D01*
Y126838D01*
X280919Y126437D01*
X280519Y126038D01*
Y125637D01*
X283259D02*
X283659D01*
X284059Y126038D01*
X284459Y125637D01*
X284859D01*
Y126038D01*
X284459Y126437D01*
X284859Y126838D01*
Y127237D01*
X284459D01*
X284059Y126838D01*
X283659Y127237D01*
X283259D01*
Y126838D01*
X283659Y126437D01*
X283259Y126038D01*
Y125637D01*
X284599Y125622D02*
X284999D01*
X285399Y126023D01*
X285799Y125622D01*
X286199D01*
Y126023D01*
X285799Y126423D01*
X286199Y126822D01*
Y127223D01*
X285799D01*
X285399Y126822D01*
X284999Y127223D01*
X284599D01*
Y126822D01*
X284999Y126423D01*
X284599Y126023D01*
Y125622D01*
X275054Y125653D02*
X275454D01*
X275854Y126052D01*
X276254Y125653D01*
X276654D01*
Y126052D01*
X276254Y126453D01*
X276654Y126853D01*
Y127252D01*
X276254D01*
X275854Y126853D01*
X275454Y127252D01*
X275054D01*
Y126853D01*
X275454Y126453D01*
X275054Y126052D01*
Y125653D01*
X272269Y125647D02*
X272669D01*
X273069Y126048D01*
X273469Y125647D01*
X273869D01*
Y126048D01*
X273469Y126447D01*
X273869Y126848D01*
Y127248D01*
X273469D01*
X273069Y126848D01*
X272669Y127248D01*
X272269D01*
Y126848D01*
X272669Y126447D01*
X272269Y126048D01*
Y125647D01*
X268114Y125678D02*
X268514D01*
X268914Y126077D01*
X269314Y125678D01*
X269714D01*
Y126077D01*
X269314Y126478D01*
X269714Y126877D01*
Y127278D01*
X269314D01*
X268914Y126877D01*
X268514Y127278D01*
X268114D01*
Y126877D01*
X268514Y126478D01*
X268114Y126077D01*
Y125678D01*
X265284Y125773D02*
X265684D01*
X266084Y126172D01*
X266484Y125773D01*
X266884D01*
Y126172D01*
X266484Y126573D01*
X266884Y126972D01*
Y127373D01*
X266484D01*
X266084Y126972D01*
X265684Y127373D01*
X265284D01*
Y126972D01*
X265684Y126573D01*
X265284Y126172D01*
Y125773D01*
X263949Y125832D02*
X264349D01*
X264749Y126233D01*
X265149Y125832D01*
X265549D01*
Y126233D01*
X265149Y126632D01*
X265549Y127032D01*
Y127433D01*
X265149D01*
X264749Y127032D01*
X264349Y127433D01*
X263949D01*
Y127032D01*
X264349Y126632D01*
X263949Y126233D01*
Y125832D01*
X291839Y125188D02*
X292239D01*
X292639Y125587D01*
X293039Y125188D01*
X293439D01*
Y125587D01*
X293039Y125988D01*
X293439Y126388D01*
Y126787D01*
X293039D01*
X292639Y126388D01*
X292239Y126787D01*
X291839D01*
Y126388D01*
X292239Y125988D01*
X291839Y125587D01*
Y125188D01*
X256879Y122057D02*
X257279D01*
X257679Y122458D01*
X258079Y122057D01*
X258479D01*
Y122458D01*
X258079Y122857D01*
X258479Y123258D01*
Y123658D01*
X258079D01*
X257679Y123258D01*
X257279Y123658D01*
X256879D01*
Y123258D01*
X257279Y122857D01*
X256879Y122458D01*
Y122057D01*
X256229Y120788D02*
X256629D01*
X257029Y121187D01*
X257429Y120788D01*
X257829D01*
Y121187D01*
X257429Y121588D01*
X257829Y121987D01*
Y122388D01*
X257429D01*
X257029Y121987D01*
X256629Y122388D01*
X256229D01*
Y121987D01*
X256629Y121588D01*
X256229Y121187D01*
Y120788D01*
X255599Y119508D02*
X255999D01*
X256399Y119907D01*
X256799Y119508D01*
X257199D01*
Y119907D01*
X256799Y120308D01*
X257199Y120707D01*
Y121107D01*
X256799D01*
X256399Y120707D01*
X255999Y121107D01*
X255599D01*
Y120707D01*
X255999Y120308D01*
X255599Y119907D01*
Y119508D01*
X295999Y114708D02*
X296399D01*
X296799Y115108D01*
X297199Y114708D01*
X297599D01*
Y115108D01*
X297199Y115507D01*
X297599Y115908D01*
Y116307D01*
X297199D01*
X296799Y115908D01*
X296399Y116307D01*
X295999D01*
Y115908D01*
X296399Y115507D01*
X295999Y115108D01*
Y114708D01*
X296549Y118607D02*
X296949D01*
X297349Y119008D01*
X297749Y118607D01*
X298149D01*
Y119008D01*
X297749Y119407D01*
X298149Y119808D01*
Y120208D01*
X297749D01*
X297349Y119808D01*
X296949Y120208D01*
X296549D01*
Y119808D01*
X296949Y119407D01*
X296549Y119008D01*
Y118607D01*
X293174Y124398D02*
X293574D01*
X293974Y124797D01*
X294374Y124398D01*
X294774D01*
Y124797D01*
X294374Y125198D01*
X294774Y125598D01*
Y125997D01*
X294374D01*
X293974Y125598D01*
X293574Y125997D01*
X293174D01*
Y125598D01*
X293574Y125198D01*
X293174Y124797D01*
Y124398D01*
X263369Y109857D02*
X263769D01*
X264169Y110257D01*
X264569Y109857D01*
X264969D01*
Y110257D01*
X264569Y110658D01*
X264969Y111057D01*
Y111458D01*
X264569D01*
X264169Y111057D01*
X263769Y111458D01*
X263369D01*
Y111057D01*
X263769Y110658D01*
X263369Y110257D01*
Y109857D01*
X268249D02*
X268649D01*
X269049Y110257D01*
X269449Y109857D01*
X269849D01*
Y110257D01*
X269449Y110658D01*
X269849Y111057D01*
Y111458D01*
X269449D01*
X269049Y111057D01*
X268649Y111458D01*
X268249D01*
Y111057D01*
X268649Y110658D01*
X268249Y110257D01*
Y109857D01*
X273649Y109802D02*
X274049D01*
X274449Y110203D01*
X274849Y109802D01*
X275249D01*
Y110203D01*
X274849Y110602D01*
X275249Y111003D01*
Y111402D01*
X274849D01*
X274449Y111003D01*
X274049Y111402D01*
X273649D01*
Y111003D01*
X274049Y110602D01*
X273649Y110203D01*
Y109802D01*
X275164Y109837D02*
X275564D01*
X275964Y110238D01*
X276364Y109837D01*
X276764D01*
Y110238D01*
X276364Y110637D01*
X276764Y111038D01*
Y111437D01*
X276364D01*
X275964Y111038D01*
X275564Y111437D01*
X275164D01*
Y111038D01*
X275564Y110637D01*
X275164Y110238D01*
Y109837D01*
X259944Y110547D02*
X260344D01*
X260744Y110948D01*
X261144Y110547D01*
X261544D01*
Y110948D01*
X261144Y111347D01*
X261544Y111748D01*
Y112147D01*
X261144D01*
X260744Y111748D01*
X260344Y112147D01*
X259944D01*
Y111748D01*
X260344Y111347D01*
X259944Y110948D01*
Y110547D01*
X258714Y111318D02*
X259114D01*
X259514Y111717D01*
X259914Y111318D01*
X260314D01*
Y111717D01*
X259914Y112118D01*
X260314Y112517D01*
Y112917D01*
X259914D01*
X259514Y112517D01*
X259114Y112917D01*
X258714D01*
Y112517D01*
X259114Y112118D01*
X258714Y111717D01*
Y111318D01*
X256789Y113608D02*
X257189D01*
X257589Y114007D01*
X257989Y113608D01*
X258389D01*
Y114007D01*
X257989Y114408D01*
X258389Y114807D01*
Y115208D01*
X257989D01*
X257589Y114807D01*
X257189Y115208D01*
X256789D01*
Y114807D01*
X257189Y114408D01*
X256789Y114007D01*
Y113608D01*
X256034Y115007D02*
X256434D01*
X256834Y115408D01*
X257234Y115007D01*
X257634D01*
Y115408D01*
X257234Y115807D01*
X257634Y116208D01*
Y116607D01*
X257234D01*
X256834Y116208D01*
X256434Y116607D01*
X256034D01*
Y116208D01*
X256434Y115807D01*
X256034Y115408D01*
Y115007D01*
X264171Y107638D02*
X264571D01*
X264971Y108037D01*
X265371Y107638D01*
X265771D01*
Y108037D01*
X265371Y108438D01*
X265771Y108837D01*
Y109238D01*
X265371D01*
X264971Y108837D01*
X264571Y109238D01*
X264171D01*
Y108837D01*
X264571Y108438D01*
X264171Y108037D01*
Y107638D01*
X278571D02*
X278971D01*
X279371Y108037D01*
X279771Y107638D01*
X280171D01*
Y108037D01*
X279771Y108438D01*
X280171Y108837D01*
Y109238D01*
X279771D01*
X279371Y108837D01*
X278971Y109238D01*
X278571D01*
Y108837D01*
X278971Y108438D01*
X278571Y108037D01*
Y107638D01*
X288171D02*
X288571D01*
X288971Y108037D01*
X289371Y107638D01*
X289771D01*
Y108037D01*
X289371Y108438D01*
X289771Y108837D01*
Y109238D01*
X289371D01*
X288971Y108837D01*
X288571Y109238D01*
X288171D01*
Y108837D01*
X288571Y108438D01*
X288171Y108037D01*
Y107638D01*
X259371D02*
X259771D01*
X260171Y108037D01*
X260571Y107638D01*
X260971D01*
Y108037D01*
X260571Y108438D01*
X260971Y108837D01*
Y109238D01*
X260571D01*
X260171Y108837D01*
X259771Y109238D01*
X259371D01*
Y108837D01*
X259771Y108438D01*
X259371Y108037D01*
Y107638D01*
X304886Y52974D02*
X305286D01*
X305686Y53373D01*
X306086Y52974D01*
X306486D01*
Y53373D01*
X306086Y53773D01*
X306486Y54173D01*
Y54574D01*
X306086D01*
X305686Y54173D01*
X305286Y54574D01*
X304886D01*
Y54173D01*
X305286Y53773D01*
X304886Y53373D01*
Y52974D01*
X259371Y78838D02*
X259771D01*
X260171Y79238D01*
X260571Y78838D01*
X260971D01*
Y79238D01*
X260571Y79637D01*
X260971Y80037D01*
Y80437D01*
X260571D01*
X260171Y80037D01*
X259771Y80437D01*
X259371D01*
Y80037D01*
X259771Y79637D01*
X259371Y79238D01*
Y78838D01*
X271111Y73536D02*
X271511D01*
X271911Y73936D01*
X272311Y73536D01*
X272711D01*
Y73936D01*
X272311Y74335D01*
X272711Y74735D01*
Y75135D01*
X272311D01*
X271911Y74735D01*
X271511Y75135D01*
X271111D01*
Y74735D01*
X271511Y74335D01*
X271111Y73936D01*
Y73536D01*
X299359Y100038D02*
X299759D01*
X300159Y100437D01*
X300559Y100038D01*
X300959D01*
Y100437D01*
X300559Y100838D01*
X300959Y101237D01*
Y101637D01*
X300559D01*
X300159Y101237D01*
X299759Y101637D01*
X299359D01*
Y101237D01*
X299759Y100838D01*
X299359Y100437D01*
Y100038D01*
X296285Y109244D02*
X296685D01*
X297085Y109643D01*
X297485Y109244D01*
X297885D01*
Y109643D01*
X297485Y110044D01*
X297885Y110443D01*
Y110844D01*
X297485D01*
X297085Y110443D01*
X296685Y110844D01*
X296285D01*
Y110443D01*
X296685Y110044D01*
X296285Y109643D01*
Y109244D01*
X195671Y112437D02*
X196071D01*
X196471Y112838D01*
X196871Y112437D01*
X197271D01*
Y112838D01*
X196871Y113238D01*
X197271Y113637D01*
Y114038D01*
X196871D01*
X196471Y113637D01*
X196071Y114038D01*
X195671D01*
Y113637D01*
X196071Y113238D01*
X195671Y112838D01*
Y112437D01*
X314896Y89492D02*
X315296D01*
X315696Y89893D01*
X316096Y89492D01*
X316496D01*
Y89893D01*
X316096Y90293D01*
X316496Y90693D01*
Y91092D01*
X316096D01*
X315696Y90693D01*
X315296Y91092D01*
X314896D01*
Y90693D01*
X315296Y90293D01*
X314896Y89893D01*
Y89492D01*
X313101Y87283D02*
X313501D01*
X313901Y87683D01*
X314301Y87283D01*
X314701D01*
Y87683D01*
X314301Y88083D01*
X314701Y88484D01*
Y88884D01*
X314301D01*
X313901Y88484D01*
X313501Y88884D01*
X313101D01*
Y88484D01*
X313501Y88083D01*
X313101Y87683D01*
Y87283D01*
X312963Y67471D02*
X313363D01*
X313763Y67870D01*
X314163Y67471D01*
X314563D01*
Y67870D01*
X314163Y68270D01*
X314563Y68670D01*
Y69071D01*
X314163D01*
X313763Y68670D01*
X313363Y69071D01*
X312963D01*
Y68670D01*
X313363Y68270D01*
X312963Y67870D01*
Y67471D01*
X319359Y81837D02*
X319759D01*
X320159Y82237D01*
X320559Y81837D01*
X320959D01*
Y82237D01*
X320559Y82638D01*
X320959Y83038D01*
Y83438D01*
X320559D01*
X320159Y83038D01*
X319759Y83438D01*
X319359D01*
Y83038D01*
X319759Y82638D01*
X319359Y82237D01*
Y81837D01*
X232814Y114690D02*
X233214D01*
X233614Y115091D01*
X234014Y114690D01*
X234414D01*
Y115091D01*
X234014Y115490D01*
X234414Y115891D01*
Y116290D01*
X234014D01*
X233614Y115891D01*
X233214Y116290D01*
X232814D01*
Y115891D01*
X233214Y115490D01*
X232814Y115091D01*
Y114690D01*
X249359Y58837D02*
X249759D01*
X250159Y59237D01*
X250559Y58837D01*
X250959D01*
Y59237D01*
X250559Y59637D01*
X250959Y60037D01*
Y60438D01*
X250559D01*
X250159Y60037D01*
X249759Y60438D01*
X249359D01*
Y60037D01*
X249759Y59637D01*
X249359Y59237D01*
Y58837D01*
X263759Y51038D02*
X264159D01*
X264559Y51437D01*
X264959Y51038D01*
X265359D01*
Y51437D01*
X264959Y51837D01*
X265359Y52237D01*
Y52637D01*
X264959D01*
X264559Y52237D01*
X264159Y52637D01*
X263759D01*
Y52237D01*
X264159Y51837D01*
X263759Y51437D01*
Y51038D01*
X288171Y35638D02*
X288571D01*
X288971Y36037D01*
X289371Y35638D01*
X289771D01*
Y36037D01*
X289371Y36437D01*
X289771Y36838D01*
Y37238D01*
X289371D01*
X288971Y36838D01*
X288571Y37238D01*
X288171D01*
Y36838D01*
X288571Y36437D01*
X288171Y36037D01*
Y35638D01*
X221423Y23496D02*
X221823D01*
X222223Y23897D01*
X222623Y23496D01*
X223023D01*
Y23897D01*
X222623Y24296D01*
X223023Y24697D01*
Y25096D01*
X222623D01*
X222223Y24697D01*
X221823Y25096D01*
X221423D01*
Y24697D01*
X221823Y24296D01*
X221423Y23897D01*
Y23496D01*
X225980D02*
X226380D01*
X226780Y23897D01*
X227180Y23496D01*
X227580D01*
Y23897D01*
X227180Y24296D01*
X227580Y24697D01*
Y25096D01*
X227180D01*
X226780Y24697D01*
X226380Y25096D01*
X225980D01*
Y24697D01*
X226380Y24296D01*
X225980Y23897D01*
Y23496D01*
X218738Y47003D02*
X219138D01*
X219538Y47403D01*
X219938Y47003D01*
X220338D01*
Y47403D01*
X219938Y47804D01*
X220338Y48204D01*
Y48603D01*
X219938D01*
X219538Y48204D01*
X219138Y48603D01*
X218738D01*
Y48204D01*
X219138Y47804D01*
X218738Y47403D01*
Y47003D01*
X192171Y35638D02*
X192571D01*
X192971Y36037D01*
X193371Y35638D01*
X193771D01*
Y36037D01*
X193371Y36437D01*
X193771Y36838D01*
Y37238D01*
X193371D01*
X192971Y36838D01*
X192571Y37238D01*
X192171D01*
Y36838D01*
X192571Y36437D01*
X192171Y36037D01*
Y35638D01*
X196971D02*
X197371D01*
X197771Y36037D01*
X198171Y35638D01*
X198571D01*
Y36037D01*
X198171Y36437D01*
X198571Y36838D01*
Y37238D01*
X198171D01*
X197771Y36838D01*
X197371Y37238D01*
X196971D01*
Y36838D01*
X197371Y36437D01*
X196971Y36037D01*
Y35638D01*
X254571Y21238D02*
X254971D01*
X255371Y21637D01*
X255771Y21238D01*
X256171D01*
Y21637D01*
X255771Y22038D01*
X256171Y22437D01*
Y22838D01*
X255771D01*
X255371Y22437D01*
X254971Y22838D01*
X254571D01*
Y22437D01*
X254971Y22038D01*
X254571Y21637D01*
Y21238D01*
X252420Y18801D02*
X252820D01*
X253220Y19202D01*
X253620Y18801D01*
X254020D01*
Y19202D01*
X253620Y19602D01*
X254020Y20001D01*
Y20402D01*
X253620D01*
X253220Y20001D01*
X252820Y20402D01*
X252420D01*
Y20001D01*
X252820Y19602D01*
X252420Y19202D01*
Y18801D01*
X268971Y35638D02*
X269371D01*
X269771Y36037D01*
X270171Y35638D01*
X270571D01*
Y36037D01*
X270171Y36437D01*
X270571Y36838D01*
Y37238D01*
X270171D01*
X269771Y36838D01*
X269371Y37238D01*
X268971D01*
Y36838D01*
X269371Y36437D01*
X268971Y36037D01*
Y35638D01*
X256907Y38546D02*
X257307D01*
X257707Y38945D01*
X258107Y38546D01*
X258507D01*
Y38945D01*
X258107Y39345D01*
X258507Y39746D01*
Y40145D01*
X258107D01*
X257707Y39746D01*
X257307Y40145D01*
X256907D01*
Y39746D01*
X257307Y39345D01*
X256907Y38945D01*
Y38546D01*
X274087Y19656D02*
X274487D01*
X274887Y20055D01*
X275287Y19656D01*
X275687D01*
Y20055D01*
X275287Y20456D01*
X275687Y20855D01*
Y21256D01*
X275287D01*
X274887Y20855D01*
X274487Y21256D01*
X274087D01*
Y20855D01*
X274487Y20456D01*
X274087Y20055D01*
Y19656D01*
X261256Y43586D02*
X261656D01*
X262056Y43986D01*
X262456Y43586D01*
X262856D01*
Y43986D01*
X262456Y44385D01*
X262856Y44785D01*
Y45186D01*
X262456D01*
X262056Y44785D01*
X261656Y45186D01*
X261256D01*
Y44785D01*
X261656Y44385D01*
X261256Y43986D01*
Y43586D01*
X290959Y28438D02*
X291359D01*
X291759Y28837D01*
X292159Y28438D01*
X292559D01*
Y28837D01*
X292159Y29237D01*
X292559Y29638D01*
Y30038D01*
X292159D01*
X291759Y29638D01*
X291359Y30038D01*
X290959D01*
Y29638D01*
X291359Y29237D01*
X290959Y28837D01*
Y28438D01*
X201771Y21238D02*
X202171D01*
X202571Y21637D01*
X202971Y21238D01*
X203371D01*
Y21637D01*
X202971Y22038D01*
X203371Y22437D01*
Y22838D01*
X202971D01*
X202571Y22437D01*
X202171Y22838D01*
X201771D01*
Y22437D01*
X202171Y22038D01*
X201771Y21637D01*
Y21238D01*
X296492Y101235D02*
X296892D01*
X297292Y101636D01*
X297692Y101235D01*
X298092D01*
Y101636D01*
X297692Y102035D01*
X298092Y102436D01*
Y102836D01*
X297692D01*
X297292Y102436D01*
X296892Y102836D01*
X296492D01*
Y102436D01*
X296892Y102035D01*
X296492Y101636D01*
Y101235D01*
X302193Y82521D02*
X302593D01*
X302993Y82920D01*
X303393Y82521D01*
X303793D01*
Y82920D01*
X303393Y83320D01*
X303793Y83720D01*
Y84121D01*
X303393D01*
X302993Y83720D01*
X302593Y84121D01*
X302193D01*
Y83720D01*
X302593Y83320D01*
X302193Y82920D01*
Y82521D01*
X305990Y86456D02*
X306390D01*
X306790Y86856D01*
X307190Y86456D01*
X307590D01*
Y86856D01*
X307190Y87256D01*
X307590Y87656D01*
Y88055D01*
X307190D01*
X306790Y87656D01*
X306390Y88055D01*
X305990D01*
Y87656D01*
X306390Y87256D01*
X305990Y86856D01*
Y86456D01*
X294759Y95237D02*
X295159D01*
X295559Y95638D01*
X295959Y95237D01*
X296359D01*
Y95638D01*
X295959Y96038D01*
X296359Y96438D01*
Y96838D01*
X295959D01*
X295559Y96438D01*
X295159Y96838D01*
X294759D01*
Y96438D01*
X295159Y96038D01*
X294759Y95638D01*
Y95237D01*
X200230Y23565D02*
X200630D01*
X201030Y23966D01*
X201430Y23565D01*
X201830D01*
Y23966D01*
X201430Y24365D01*
X201830Y24766D01*
Y25166D01*
X201430D01*
X201030Y24766D01*
X200630Y25166D01*
X200230D01*
Y24766D01*
X200630Y24365D01*
X200230Y23966D01*
Y23565D01*
X259371Y98037D02*
X259771D01*
X260171Y98438D01*
X260571Y98037D01*
X260971D01*
Y98438D01*
X260571Y98838D01*
X260971Y99238D01*
Y99638D01*
X260571D01*
X260171Y99238D01*
X259771Y99638D01*
X259371D01*
Y99238D01*
X259771Y98838D01*
X259371Y98438D01*
Y98037D01*
X283830Y92323D02*
X284230D01*
X284630Y92724D01*
X285030Y92323D01*
X285430D01*
Y92724D01*
X285030Y93124D01*
X285430Y93524D01*
Y93923D01*
X285030D01*
X284630Y93524D01*
X284230Y93923D01*
X283830D01*
Y93524D01*
X284230Y93124D01*
X283830Y92724D01*
Y92323D01*
X256907Y18733D02*
X257307D01*
X257707Y19132D01*
X258107Y18733D01*
X258507D01*
Y19132D01*
X258107Y19533D01*
X258507Y19932D01*
Y20333D01*
X258107D01*
X257707Y19932D01*
X257307Y20333D01*
X256907D01*
Y19932D01*
X257307Y19533D01*
X256907Y19132D01*
Y18733D01*
X231502Y18043D02*
X231902D01*
X232302Y18442D01*
X232702Y18043D01*
X233102D01*
Y18442D01*
X232702Y18843D01*
X233102Y19242D01*
Y19643D01*
X232702D01*
X232302Y19242D01*
X231902Y19643D01*
X231502D01*
Y19242D01*
X231902Y18843D01*
X231502Y18442D01*
Y18043D01*
X278571Y50037D02*
X278971D01*
X279371Y50437D01*
X279771Y50037D01*
X280171D01*
Y50437D01*
X279771Y50837D01*
X280171Y51237D01*
Y51638D01*
X279771D01*
X279371Y51237D01*
X278971Y51638D01*
X278571D01*
Y51237D01*
X278971Y50837D01*
X278571Y50437D01*
Y50037D01*
X276444Y48417D02*
X276844D01*
X277244Y48818D01*
X277644Y48417D01*
X278044D01*
Y48818D01*
X277644Y49218D01*
X278044Y49617D01*
Y50017D01*
X277644D01*
X277244Y49617D01*
X276844Y50017D01*
X276444D01*
Y49617D01*
X276844Y49218D01*
X276444Y48818D01*
Y48417D01*
X235371Y93238D02*
X235771D01*
X236171Y93638D01*
X236571Y93238D01*
X236971D01*
Y93638D01*
X236571Y94037D01*
X236971Y94437D01*
Y94837D01*
X236571D01*
X236171Y94437D01*
X235771Y94837D01*
X235371D01*
Y94437D01*
X235771Y94037D01*
X235371Y93638D01*
Y93238D01*
X259371Y102838D02*
X259771D01*
X260171Y103237D01*
X260571Y102838D01*
X260971D01*
Y103237D01*
X260571Y103638D01*
X260971Y104037D01*
Y104437D01*
X260571D01*
X260171Y104037D01*
X259771Y104437D01*
X259371D01*
Y104037D01*
X259771Y103638D01*
X259371Y103237D01*
Y102838D01*
X274925Y90736D02*
X275325D01*
X275725Y91136D01*
X276125Y90736D01*
X276525D01*
Y91136D01*
X276125Y91536D01*
X276525Y91935D01*
Y92335D01*
X276125D01*
X275725Y91935D01*
X275325Y92335D01*
X274925D01*
Y91935D01*
X275325Y91536D01*
X274925Y91136D01*
Y90736D01*
X292971Y40437D02*
X293371D01*
X293771Y40837D01*
X294171Y40437D01*
X294571D01*
Y40837D01*
X294171Y41238D01*
X294571Y41638D01*
Y42037D01*
X294171D01*
X293771Y41638D01*
X293371Y42037D01*
X292971D01*
Y41638D01*
X293371Y41238D01*
X292971Y40837D01*
Y40437D01*
X276444Y38201D02*
X276844D01*
X277244Y38601D01*
X277644Y38201D01*
X278044D01*
Y38601D01*
X277644Y39000D01*
X278044Y39401D01*
Y39801D01*
X277644D01*
X277244Y39401D01*
X276844Y39801D01*
X276444D01*
Y39401D01*
X276844Y39000D01*
X276444Y38601D01*
Y38201D01*
X287159Y88238D02*
X287559D01*
X287959Y88638D01*
X288359Y88238D01*
X288759D01*
Y88638D01*
X288359Y89038D01*
X288759Y89438D01*
Y89837D01*
X288359D01*
X287959Y89438D01*
X287559Y89837D01*
X287159D01*
Y89438D01*
X287559Y89038D01*
X287159Y88638D01*
Y88238D01*
X276651Y41998D02*
X277051D01*
X277451Y42397D01*
X277851Y41998D01*
X278251D01*
Y42397D01*
X277851Y42797D01*
X278251Y43198D01*
Y43597D01*
X277851D01*
X277451Y43198D01*
X277051Y43597D01*
X276651D01*
Y43198D01*
X277051Y42797D01*
X276651Y42397D01*
Y41998D01*
X234359Y117838D02*
X234759D01*
X235159Y118237D01*
X235559Y117838D01*
X235959D01*
Y118237D01*
X235559Y118638D01*
X235959Y119037D01*
Y119438D01*
X235559D01*
X235159Y119037D01*
X234759Y119438D01*
X234359D01*
Y119037D01*
X234759Y118638D01*
X234359Y118237D01*
Y117838D01*
X296394Y33299D02*
X296794D01*
X297194Y33698D01*
X297594Y33299D01*
X297994D01*
Y33698D01*
X297594Y34099D01*
X297994Y34499D01*
Y34898D01*
X297594D01*
X297194Y34499D01*
X296794Y34898D01*
X296394D01*
Y34499D01*
X296794Y34099D01*
X296394Y33698D01*
Y33299D01*
X297771Y40437D02*
X298171D01*
X298571Y40837D01*
X298971Y40437D01*
X299371D01*
Y40837D01*
X298971Y41238D01*
X299371Y41638D01*
Y42037D01*
X298971D01*
X298571Y41638D01*
X298171Y42037D01*
X297771D01*
Y41638D01*
X298171Y41238D01*
X297771Y40837D01*
Y40437D01*
Y50037D02*
X298171D01*
X298571Y50437D01*
X298971Y50037D01*
X299371D01*
Y50437D01*
X298971Y50837D01*
X299371Y51237D01*
Y51638D01*
X298971D01*
X298571Y51237D01*
X298171Y51638D01*
X297771D01*
Y51237D01*
X298171Y50837D01*
X297771Y50437D01*
Y50037D01*
X305093Y42204D02*
X305493D01*
X305893Y42605D01*
X306293Y42204D01*
X306693D01*
Y42605D01*
X306293Y43005D01*
X306693Y43404D01*
Y43804D01*
X306293D01*
X305893Y43404D01*
X305493Y43804D01*
X305093D01*
Y43404D01*
X305493Y43005D01*
X305093Y42605D01*
Y42204D01*
X292971Y59637D02*
X293371D01*
X293771Y60037D01*
X294171Y59637D01*
X294571D01*
Y60037D01*
X294171Y60438D01*
X294571Y60838D01*
Y61238D01*
X294171D01*
X293771Y60838D01*
X293371Y61238D01*
X292971D01*
Y60838D01*
X293371Y60438D01*
X292971Y60037D01*
Y59637D01*
X225771Y117237D02*
X226171D01*
X226571Y117638D01*
X226971Y117237D01*
X227371D01*
Y117638D01*
X226971Y118037D01*
X227371Y118438D01*
Y118837D01*
X226971D01*
X226571Y118438D01*
X226171Y118837D01*
X225771D01*
Y118438D01*
X226171Y118037D01*
X225771Y117638D01*
Y117237D01*
X292971Y64438D02*
X293371D01*
X293771Y64837D01*
X294171Y64438D01*
X294571D01*
Y64837D01*
X294171Y65237D01*
X294571Y65637D01*
Y66037D01*
X294171D01*
X293771Y65637D01*
X293371Y66037D01*
X292971D01*
Y65637D01*
X293371Y65237D01*
X292971Y64837D01*
Y64438D01*
X273771Y50037D02*
X274171D01*
X274571Y50437D01*
X274971Y50037D01*
X275371D01*
Y50437D01*
X274971Y50837D01*
X275371Y51237D01*
Y51638D01*
X274971D01*
X274571Y51237D01*
X274171Y51638D01*
X273771D01*
Y51237D01*
X274171Y50837D01*
X273771Y50437D01*
Y50037D01*
X285901Y66435D02*
X286301D01*
X286701Y66835D01*
X287101Y66435D01*
X287501D01*
Y66835D01*
X287101Y67235D01*
X287501Y67636D01*
Y68036D01*
X287101D01*
X286701Y67636D01*
X286301Y68036D01*
X285901D01*
Y67636D01*
X286301Y67235D01*
X285901Y66835D01*
Y66435D01*
X293702Y68437D02*
X294102D01*
X294502Y68837D01*
X294902Y68437D01*
X295302D01*
Y68837D01*
X294902Y69238D01*
X295302Y69638D01*
Y70038D01*
X294902D01*
X294502Y69638D01*
X294102Y70038D01*
X293702D01*
Y69638D01*
X294102Y69238D01*
X293702Y68837D01*
Y68437D01*
X307164Y62915D02*
X307564D01*
X307964Y63314D01*
X308364Y62915D01*
X308764D01*
Y63314D01*
X308364Y63714D01*
X308764Y64114D01*
Y64514D01*
X308364D01*
X307964Y64114D01*
X307564Y64514D01*
X307164D01*
Y64114D01*
X307564Y63714D01*
X307164Y63314D01*
Y62915D01*
X264171Y83637D02*
X264571D01*
X264971Y84038D01*
X265371Y83637D01*
X265771D01*
Y84038D01*
X265371Y84438D01*
X265771Y84838D01*
Y85237D01*
X265371D01*
X264971Y84838D01*
X264571Y85237D01*
X264171D01*
Y84838D01*
X264571Y84438D01*
X264171Y84038D01*
Y83637D01*
X305359Y46237D02*
X305759D01*
X306159Y46637D01*
X306559Y46237D01*
X306959D01*
Y46637D01*
X306559Y47038D01*
X306959Y47438D01*
Y47837D01*
X306559D01*
X306159Y47438D01*
X305759Y47837D01*
X305359D01*
Y47438D01*
X305759Y47038D01*
X305359Y46637D01*
Y46237D01*
X298949Y69128D02*
X299349D01*
X299749Y69528D01*
X300149Y69128D01*
X300549D01*
Y69528D01*
X300149Y69928D01*
X300549Y70328D01*
Y70727D01*
X300149D01*
X299749Y70328D01*
X299349Y70727D01*
X298949D01*
Y70328D01*
X299349Y69928D01*
X298949Y69528D01*
Y69128D01*
X300329Y72856D02*
X300729D01*
X301129Y73255D01*
X301529Y72856D01*
X301929D01*
Y73255D01*
X301529Y73655D01*
X301929Y74055D01*
Y74455D01*
X301529D01*
X301129Y74055D01*
X300729Y74455D01*
X300329D01*
Y74055D01*
X300729Y73655D01*
X300329Y73255D01*
Y72856D01*
X283371Y83637D02*
X283771D01*
X284171Y84038D01*
X284571Y83637D01*
X284971D01*
Y84038D01*
X284571Y84438D01*
X284971Y84838D01*
Y85237D01*
X284571D01*
X284171Y84838D01*
X283771Y85237D01*
X283371D01*
Y84838D01*
X283771Y84438D01*
X283371Y84038D01*
Y83637D01*
X305093Y57529D02*
X305493D01*
X305893Y57929D01*
X306293Y57529D01*
X306693D01*
Y57929D01*
X306293Y58329D01*
X306693Y58729D01*
Y59130D01*
X306293D01*
X305893Y58729D01*
X305493Y59130D01*
X305093D01*
Y58729D01*
X305493Y58329D01*
X305093Y57929D01*
Y57529D01*
X302571Y59637D02*
X302971D01*
X303371Y60037D01*
X303771Y59637D01*
X304171D01*
Y60037D01*
X303771Y60438D01*
X304171Y60838D01*
Y61238D01*
X303771D01*
X303371Y60838D01*
X302971Y61238D01*
X302571D01*
Y60838D01*
X302971Y60438D01*
X302571Y60037D01*
Y59637D01*
X307371Y69238D02*
X307771D01*
X308171Y69638D01*
X308571Y69238D01*
X308971D01*
Y69638D01*
X308571Y70038D01*
X308971Y70438D01*
Y70837D01*
X308571D01*
X308171Y70438D01*
X307771Y70837D01*
X307371D01*
Y70438D01*
X307771Y70038D01*
X307371Y69638D01*
Y69238D01*
X211206Y36682D02*
X211606D01*
X212006Y37082D01*
X212406Y36682D01*
X212806D01*
Y37082D01*
X212406Y37481D01*
X212806Y37881D01*
Y38282D01*
X212406D01*
X212006Y37881D01*
X211606Y38282D01*
X211206D01*
Y37881D01*
X211606Y37481D01*
X211206Y37082D01*
Y36682D01*
X168751Y41721D02*
X169151D01*
X169551Y42121D01*
X169951Y41721D01*
X170351D01*
Y42121D01*
X169951Y42522D01*
X170351Y42922D01*
Y43321D01*
X169951D01*
X169551Y42922D01*
X169151Y43321D01*
X168751D01*
Y42922D01*
X169151Y42522D01*
X168751Y42121D01*
Y41721D01*
X166759Y48838D02*
X167159D01*
X167559Y49237D01*
X167959Y48838D01*
X168359D01*
Y49237D01*
X167959Y49637D01*
X168359Y50037D01*
Y50437D01*
X167959D01*
X167559Y50037D01*
X167159Y50437D01*
X166759D01*
Y50037D01*
X167159Y49637D01*
X166759Y49237D01*
Y48838D01*
X167859Y55037D02*
X168259D01*
X168659Y55437D01*
X169059Y55037D01*
X169459D01*
Y55437D01*
X169059Y55838D01*
X169459Y56238D01*
Y56638D01*
X169059D01*
X168659Y56238D01*
X168259Y56638D01*
X167859D01*
Y56238D01*
X168259Y55838D01*
X167859Y55437D01*
Y55037D01*
X168359Y60438D02*
X168759D01*
X169159Y60838D01*
X169559Y60438D01*
X169959D01*
Y60838D01*
X169559Y61238D01*
X169959Y61638D01*
Y62037D01*
X169559D01*
X169159Y61638D01*
X168759Y62037D01*
X168359D01*
Y61638D01*
X168759Y61238D01*
X168359Y60838D01*
Y60438D01*
X167859Y73838D02*
X168259D01*
X168659Y74238D01*
X169059Y73838D01*
X169459D01*
Y74238D01*
X169059Y74638D01*
X169459Y75037D01*
Y75437D01*
X169059D01*
X168659Y75037D01*
X168259Y75437D01*
X167859D01*
Y75037D01*
X168259Y74638D01*
X167859Y74238D01*
Y73838D01*
Y78838D02*
X168259D01*
X168659Y79238D01*
X169059Y78838D01*
X169459D01*
Y79238D01*
X169059Y79637D01*
X169459Y80037D01*
Y80437D01*
X169059D01*
X168659Y80037D01*
X168259Y80437D01*
X167859D01*
Y80037D01*
X168259Y79637D01*
X167859Y79238D01*
Y78838D01*
Y88337D02*
X168259D01*
X168659Y88737D01*
X169059Y88337D01*
X169459D01*
Y88737D01*
X169059Y89138D01*
X169459Y89538D01*
Y89938D01*
X169059D01*
X168659Y89538D01*
X168259Y89938D01*
X167859D01*
Y89538D01*
X168259Y89138D01*
X167859Y88737D01*
Y88337D01*
X257321Y81002D02*
X257721D01*
X258121Y81401D01*
X258521Y81002D01*
X258921D01*
Y81401D01*
X258521Y81801D01*
X258921Y82201D01*
Y82601D01*
X258521D01*
X258121Y82201D01*
X257721Y82601D01*
X257321D01*
Y82201D01*
X257721Y81801D01*
X257321Y81401D01*
Y81002D01*
X222528Y36336D02*
X222928D01*
X223328Y36737D01*
X223728Y36336D01*
X224128D01*
Y36737D01*
X223728Y37137D01*
X224128Y37536D01*
Y37936D01*
X223728D01*
X223328Y37536D01*
X222928Y37936D01*
X222528D01*
Y37536D01*
X222928Y37137D01*
X222528Y36737D01*
Y36336D01*
X254571Y83637D02*
X254971D01*
X255371Y84038D01*
X255771Y83637D01*
X256171D01*
Y84038D01*
X255771Y84438D01*
X256171Y84838D01*
Y85237D01*
X255771D01*
X255371Y84838D01*
X254971Y85237D01*
X254571D01*
Y84838D01*
X254971Y84438D01*
X254571Y84038D01*
Y83637D01*
X230571Y78838D02*
X230971D01*
X231371Y79238D01*
X231771Y78838D01*
X232171D01*
Y79238D01*
X231771Y79637D01*
X232171Y80037D01*
Y80437D01*
X231771D01*
X231371Y80037D01*
X230971Y80437D01*
X230571D01*
Y80037D01*
X230971Y79637D01*
X230571Y79238D01*
Y78838D01*
Y102838D02*
X230971D01*
X231371Y103237D01*
X231771Y102838D01*
X232171D01*
Y103237D01*
X231771Y103638D01*
X232171Y104037D01*
Y104437D01*
X231771D01*
X231371Y104037D01*
X230971Y104437D01*
X230571D01*
Y104037D01*
X230971Y103638D01*
X230571Y103237D01*
Y102838D01*
X188559Y36437D02*
X188959D01*
X189359Y36838D01*
X189759Y36437D01*
X190159D01*
Y36838D01*
X189759Y37238D01*
X190159Y37637D01*
Y38037D01*
X189759D01*
X189359Y37637D01*
X188959Y38037D01*
X188559D01*
Y37637D01*
X188959Y37238D01*
X188559Y36838D01*
Y36437D01*
X288171Y98037D02*
X288571D01*
X288971Y98438D01*
X289371Y98037D01*
X289771D01*
Y98438D01*
X289371Y98838D01*
X289771Y99238D01*
Y99638D01*
X289371D01*
X288971Y99238D01*
X288571Y99638D01*
X288171D01*
Y99238D01*
X288571Y98838D01*
X288171Y98438D01*
Y98037D01*
X264171Y102838D02*
X264571D01*
X264971Y103237D01*
X265371Y102838D01*
X265771D01*
Y103237D01*
X265371Y103638D01*
X265771Y104037D01*
Y104437D01*
X265371D01*
X264971Y104037D01*
X264571Y104437D01*
X264171D01*
Y104037D01*
X264571Y103638D01*
X264171Y103237D01*
Y102838D01*
X171971Y126838D02*
X172371D01*
X172771Y127237D01*
X173171Y126838D01*
X173571D01*
Y127237D01*
X173171Y127638D01*
X173571Y128038D01*
Y128437D01*
X173171D01*
X172771Y128038D01*
X172371Y128437D01*
X171971D01*
Y128038D01*
X172371Y127638D01*
X171971Y127237D01*
Y126838D01*
X264171Y93238D02*
X264571D01*
X264971Y93638D01*
X265371Y93238D01*
X265771D01*
Y93638D01*
X265371Y94037D01*
X265771Y94437D01*
Y94837D01*
X265371D01*
X264971Y94437D01*
X264571Y94837D01*
X264171D01*
Y94437D01*
X264571Y94037D01*
X264171Y93638D01*
Y93238D01*
X268971D02*
X269371D01*
X269771Y93638D01*
X270171Y93238D01*
X270571D01*
Y93638D01*
X270171Y94037D01*
X270571Y94437D01*
Y94837D01*
X270171D01*
X269771Y94437D01*
X269371Y94837D01*
X268971D01*
Y94437D01*
X269371Y94037D01*
X268971Y93638D01*
Y93238D01*
X249658Y66091D02*
X250058D01*
X250458Y66491D01*
X250858Y66091D01*
X251258D01*
Y66491D01*
X250858Y66891D01*
X251258Y67291D01*
Y67690D01*
X250858D01*
X250458Y67291D01*
X250058Y67690D01*
X249658D01*
Y67291D01*
X250058Y66891D01*
X249658Y66491D01*
Y66091D01*
X225771Y102838D02*
X226171D01*
X226571Y103237D01*
X226971Y102838D01*
X227371D01*
Y103237D01*
X226971Y103638D01*
X227371Y104037D01*
Y104437D01*
X226971D01*
X226571Y104037D01*
X226171Y104437D01*
X225771D01*
Y104037D01*
X226171Y103638D01*
X225771Y103237D01*
Y102838D01*
X240171Y117237D02*
X240571D01*
X240971Y117638D01*
X241371Y117237D01*
X241771D01*
Y117638D01*
X241371Y118037D01*
X241771Y118438D01*
Y118837D01*
X241371D01*
X240971Y118438D01*
X240571Y118837D01*
X240171D01*
Y118438D01*
X240571Y118037D01*
X240171Y117638D01*
Y117237D01*
X231848Y43102D02*
X232248D01*
X232648Y43501D01*
X233048Y43102D01*
X233448D01*
Y43501D01*
X233048Y43902D01*
X233448Y44302D01*
Y44701D01*
X233048D01*
X232648Y44302D01*
X232248Y44701D01*
X231848D01*
Y44302D01*
X232248Y43902D01*
X231848Y43501D01*
Y43102D01*
X238689Y46659D02*
X239089D01*
X239489Y47058D01*
X239889Y46659D01*
X240289D01*
Y47058D01*
X239889Y47458D01*
X240289Y47859D01*
Y48259D01*
X239889D01*
X239489Y47859D01*
X239089Y48259D01*
X238689D01*
Y47859D01*
X239089Y47458D01*
X238689Y47058D01*
Y46659D01*
X220759Y51237D02*
X221159D01*
X221559Y51638D01*
X221959Y51237D01*
X222359D01*
Y51638D01*
X221959Y52038D01*
X222359Y52438D01*
Y52838D01*
X221959D01*
X221559Y52438D01*
X221159Y52838D01*
X220759D01*
Y52438D01*
X221159Y52038D01*
X220759Y51638D01*
Y51237D01*
X222742Y46727D02*
X223142D01*
X223542Y47128D01*
X223942Y46727D01*
X224342D01*
Y47128D01*
X223942Y47528D01*
X224342Y47927D01*
Y48327D01*
X223942D01*
X223542Y47927D01*
X223142Y48327D01*
X222742D01*
Y47927D01*
X223142Y47528D01*
X222742Y47128D01*
Y46727D01*
X238268Y42963D02*
X238668D01*
X239068Y43363D01*
X239468Y42963D01*
X239868D01*
Y43363D01*
X239468Y43764D01*
X239868Y44164D01*
Y44563D01*
X239468D01*
X239068Y44164D01*
X238668Y44563D01*
X238268D01*
Y44164D01*
X238668Y43764D01*
X238268Y43363D01*
Y42963D01*
X273771Y40437D02*
X274171D01*
X274571Y40837D01*
X274971Y40437D01*
X275371D01*
Y40837D01*
X274971Y41238D01*
X275371Y41638D01*
Y42037D01*
X274971D01*
X274571Y41638D01*
X274171Y42037D01*
X273771D01*
Y41638D01*
X274171Y41238D01*
X273771Y40837D01*
Y40437D01*
Y35638D02*
X274171D01*
X274571Y36037D01*
X274971Y35638D01*
X275371D01*
Y36037D01*
X274971Y36437D01*
X275371Y36838D01*
Y37238D01*
X274971D01*
X274571Y36838D01*
X274171Y37238D01*
X273771D01*
Y36838D01*
X274171Y36437D01*
X273771Y36037D01*
Y35638D01*
X268971Y30838D02*
X269371D01*
X269771Y31238D01*
X270171Y30838D01*
X270571D01*
Y31238D01*
X270171Y31637D01*
X270571Y32037D01*
Y32438D01*
X270171D01*
X269771Y32037D01*
X269371Y32438D01*
X268971D01*
Y32037D01*
X269371Y31637D01*
X268971Y31238D01*
Y30838D01*
X276720Y28122D02*
X277120D01*
X277520Y28521D01*
X277920Y28122D01*
X278320D01*
Y28521D01*
X277920Y28921D01*
X278320Y29322D01*
Y29722D01*
X277920D01*
X277520Y29322D01*
X277120Y29722D01*
X276720D01*
Y29322D01*
X277120Y28921D01*
X276720Y28521D01*
Y28122D01*
X293495Y29640D02*
X293895D01*
X294295Y30040D01*
X294695Y29640D01*
X295095D01*
Y30040D01*
X294695Y30441D01*
X295095Y30841D01*
Y31240D01*
X294695D01*
X294295Y30841D01*
X293895Y31240D01*
X293495D01*
Y30841D01*
X293895Y30441D01*
X293495Y30040D01*
Y29640D01*
X243169Y42963D02*
X243569D01*
X243969Y43363D01*
X244369Y42963D01*
X244769D01*
Y43363D01*
X244369Y43764D01*
X244769Y44164D01*
Y44563D01*
X244369D01*
X243969Y44164D01*
X243569Y44563D01*
X243169D01*
Y44164D01*
X243569Y43764D01*
X243169Y43363D01*
Y42963D01*
X245859Y46938D02*
X246259D01*
X246659Y47337D01*
X247059Y46938D01*
X247459D01*
Y47337D01*
X247059Y47738D01*
X247459Y48138D01*
Y48537D01*
X247059D01*
X246659Y48138D01*
X246259Y48537D01*
X245859D01*
Y48138D01*
X246259Y47738D01*
X245859Y47337D01*
Y46938D01*
X245359Y28438D02*
X245759D01*
X246159Y28837D01*
X246559Y28438D01*
X246959D01*
Y28837D01*
X246559Y29237D01*
X246959Y29638D01*
Y30038D01*
X246559D01*
X246159Y29638D01*
X245759Y30038D01*
X245359D01*
Y29638D01*
X245759Y29237D01*
X245359Y28837D01*
Y28438D01*
X172971Y50037D02*
X173371D01*
X173771Y50437D01*
X174171Y50037D01*
X174571D01*
Y50437D01*
X174171Y50837D01*
X174571Y51237D01*
Y51638D01*
X174171D01*
X173771Y51237D01*
X173371Y51638D01*
X172971D01*
Y51237D01*
X173371Y50837D01*
X172971Y50437D01*
Y50037D01*
X262759Y58837D02*
X263159D01*
X263559Y59237D01*
X263959Y58837D01*
X264359D01*
Y59237D01*
X263959Y59637D01*
X264359Y60037D01*
Y60438D01*
X263959D01*
X263559Y60037D01*
X263159Y60438D01*
X262759D01*
Y60037D01*
X263159Y59637D01*
X262759Y59237D01*
Y58837D01*
X203129Y18870D02*
X203529D01*
X203929Y19271D01*
X204329Y18870D01*
X204729D01*
Y19271D01*
X204329Y19670D01*
X204729Y20071D01*
Y20470D01*
X204329D01*
X203929Y20071D01*
X203529Y20470D01*
X203129D01*
Y20071D01*
X203529Y19670D01*
X203129Y19271D01*
Y18870D01*
X201791Y25466D02*
X202191D01*
X202591Y25866D01*
X202991Y25466D01*
X203391D01*
Y25866D01*
X202991Y26265D01*
X203391Y26665D01*
Y27066D01*
X202991D01*
X202591Y26665D01*
X202191Y27066D01*
X201791D01*
Y26665D01*
X202191Y26265D01*
X201791Y25866D01*
Y25466D01*
X249559Y120837D02*
X249959D01*
X250359Y121238D01*
X250759Y120837D01*
X251159D01*
Y121238D01*
X250759Y121637D01*
X251159Y122037D01*
Y122438D01*
X250759D01*
X250359Y122037D01*
X249959Y122438D01*
X249559D01*
Y122037D01*
X249959Y121637D01*
X249559Y121238D01*
Y120837D01*
X246159Y124538D02*
X246559D01*
X246959Y124937D01*
X247359Y124538D01*
X247759D01*
Y124937D01*
X247359Y125338D01*
X247759Y125738D01*
Y126137D01*
X247359D01*
X246959Y125738D01*
X246559Y126137D01*
X246159D01*
Y125738D01*
X246559Y125338D01*
X246159Y124937D01*
Y124538D01*
X293159Y90838D02*
X293559D01*
X293959Y91237D01*
X294359Y90838D01*
X294759D01*
Y91237D01*
X294359Y91637D01*
X294759Y92037D01*
Y92437D01*
X294359D01*
X293959Y92037D01*
X293559Y92437D01*
X293159D01*
Y92037D01*
X293559Y91637D01*
X293159Y91237D01*
Y90838D01*
X174559Y70837D02*
X174959D01*
X175359Y71237D01*
X175759Y70837D01*
X176159D01*
Y71237D01*
X175759Y71637D01*
X176159Y72038D01*
Y72438D01*
X175759D01*
X175359Y72038D01*
X174959Y72438D01*
X174559D01*
Y72038D01*
X174959Y71637D01*
X174559Y71237D01*
Y70837D01*
Y74037D02*
X174959D01*
X175359Y74437D01*
X175759Y74037D01*
X176159D01*
Y74437D01*
X175759Y74837D01*
X176159Y75238D01*
Y75638D01*
X175759D01*
X175359Y75238D01*
X174959Y75638D01*
X174559D01*
Y75238D01*
X174959Y74837D01*
X174559Y74437D01*
Y74037D01*
X189767Y119781D02*
X190167D01*
X190567Y120182D01*
X190967Y119781D01*
X191367D01*
Y120182D01*
X190967Y120581D01*
X191367Y120982D01*
Y121381D01*
X190967D01*
X190567Y120982D01*
X190167Y121381D01*
X189767D01*
Y120982D01*
X190167Y120581D01*
X189767Y120182D01*
Y119781D01*
X311582Y117589D02*
X311982D01*
X312382Y117990D01*
X312782Y117589D01*
X313182D01*
Y117990D01*
X312782Y118389D01*
X313182Y118790D01*
Y119190D01*
X312782D01*
X312382Y118790D01*
X311982Y119190D01*
X311582D01*
Y118790D01*
X311982Y118389D01*
X311582Y117990D01*
Y117589D01*
X309373Y118280D02*
X309773D01*
X310173Y118679D01*
X310573Y118280D01*
X310973D01*
Y118679D01*
X310573Y119079D01*
X310973Y119480D01*
Y119879D01*
X310573D01*
X310173Y119480D01*
X309773Y119879D01*
X309373D01*
Y119480D01*
X309773Y119079D01*
X309373Y118679D01*
Y118280D01*
X308959Y113033D02*
X309359D01*
X309759Y113434D01*
X310159Y113033D01*
X310559D01*
Y113434D01*
X310159Y113833D01*
X310559Y114234D01*
Y114634D01*
X310159D01*
X309759Y114234D01*
X309359Y114634D01*
X308959D01*
Y114234D01*
X309359Y113833D01*
X308959Y113434D01*
Y113033D01*
X233097Y47003D02*
X233497D01*
X233897Y47403D01*
X234297Y47003D01*
X234697D01*
Y47403D01*
X234297Y47804D01*
X234697Y48204D01*
Y48603D01*
X234297D01*
X233897Y48204D01*
X233497Y48603D01*
X233097D01*
Y48204D01*
X233497Y47804D01*
X233097Y47403D01*
Y47003D01*
X228559Y29037D02*
X228959D01*
X229359Y29438D01*
X229759Y29037D01*
X230159D01*
Y29438D01*
X229759Y29838D01*
X230159Y30237D01*
Y30637D01*
X229759D01*
X229359Y30237D01*
X228959Y30637D01*
X228559D01*
Y30237D01*
X228959Y29838D01*
X228559Y29438D01*
Y29037D01*
X293959Y50437D02*
X294359D01*
X294759Y50837D01*
X295159Y50437D01*
X295559D01*
Y50837D01*
X295159Y51237D01*
X295559Y51638D01*
Y52038D01*
X295159D01*
X294759Y51638D01*
X294359Y52038D01*
X293959D01*
Y51638D01*
X294359Y51237D01*
X293959Y50837D01*
Y50437D01*
X177759Y80437D02*
X178159D01*
X178559Y80838D01*
X178959Y80437D01*
X179359D01*
Y80838D01*
X178959Y81238D01*
X179359Y81638D01*
Y82038D01*
X178959D01*
X178559Y81638D01*
X178159Y82038D01*
X177759D01*
Y81638D01*
X178159Y81238D01*
X177759Y80838D01*
Y80437D01*
X176159Y83637D02*
X176559D01*
X176959Y84038D01*
X177359Y83637D01*
X177759D01*
Y84038D01*
X177359Y84438D01*
X177759Y84838D01*
Y85237D01*
X177359D01*
X176959Y84838D01*
X176559Y85237D01*
X176159D01*
Y84838D01*
X176559Y84438D01*
X176159Y84038D01*
Y83637D01*
X177759Y82038D02*
X178159D01*
X178559Y82437D01*
X178959Y82038D01*
X179359D01*
Y82437D01*
X178959Y82837D01*
X179359Y83237D01*
Y83637D01*
X178959D01*
X178559Y83237D01*
X178159Y83637D01*
X177759D01*
Y83237D01*
X178159Y82837D01*
X177759Y82437D01*
Y82038D01*
X249059Y90237D02*
X249459D01*
X249859Y90637D01*
X250259Y90237D01*
X250659D01*
Y90637D01*
X250259Y91037D01*
X250659Y91438D01*
Y91838D01*
X250259D01*
X249859Y91438D01*
X249459Y91838D01*
X249059D01*
Y91438D01*
X249459Y91037D01*
X249059Y90637D01*
Y90237D01*
X206559Y76638D02*
X206959D01*
X207359Y77038D01*
X207759Y76638D01*
X208159D01*
Y77038D01*
X207759Y77438D01*
X208159Y77838D01*
Y78237D01*
X207759D01*
X207359Y77838D01*
X206959Y78237D01*
X206559D01*
Y77838D01*
X206959Y77438D01*
X206559Y77038D01*
Y76638D01*
X278571Y40437D02*
X278971D01*
X279371Y40837D01*
X279771Y40437D01*
X280171D01*
Y40837D01*
X279771Y41238D01*
X280171Y41638D01*
Y42037D01*
X279771D01*
X279371Y41638D01*
X278971Y42037D01*
X278571D01*
Y41638D01*
X278971Y41238D01*
X278571Y40837D01*
Y40437D01*
X192171Y98937D02*
X192571D01*
X192971Y99338D01*
X193371Y98937D01*
X193771D01*
Y99338D01*
X193371Y99738D01*
X193771Y100137D01*
Y100538D01*
X193371D01*
X192971Y100137D01*
X192571Y100538D01*
X192171D01*
Y100137D01*
X192571Y99738D01*
X192171Y99338D01*
Y98937D01*
X182571Y102038D02*
X182971D01*
X183371Y102437D01*
X183771Y102038D01*
X184171D01*
Y102437D01*
X183771Y102838D01*
X184171Y103237D01*
Y103638D01*
X183771D01*
X183371Y103237D01*
X182971Y103638D01*
X182571D01*
Y103237D01*
X182971Y102838D01*
X182571Y102437D01*
Y102038D01*
X265559Y61238D02*
X265959D01*
X266359Y61638D01*
X266759Y61238D01*
X267159D01*
Y61638D01*
X266759Y62037D01*
X267159Y62437D01*
Y62837D01*
X266759D01*
X266359Y62437D01*
X265959Y62837D01*
X265559D01*
Y62437D01*
X265959Y62037D01*
X265559Y61638D01*
Y61238D01*
X295773Y66159D02*
X296173D01*
X296573Y66559D01*
X296973Y66159D01*
X297373D01*
Y66559D01*
X296973Y66960D01*
X297373Y67360D01*
Y67760D01*
X296973D01*
X296573Y67360D01*
X296173Y67760D01*
X295773D01*
Y67360D01*
X296173Y66960D01*
X295773Y66559D01*
Y66159D01*
X302262Y65675D02*
X302662D01*
X303062Y66075D01*
X303462Y65675D01*
X303862D01*
Y66075D01*
X303462Y66475D01*
X303862Y66875D01*
Y67276D01*
X303462D01*
X303062Y66875D01*
X302662Y67276D01*
X302262D01*
Y66875D01*
X302662Y66475D01*
X302262Y66075D01*
Y65675D01*
X217759Y70638D02*
X218159D01*
X218559Y71038D01*
X218959Y70638D01*
X219359D01*
Y71038D01*
X218959Y71438D01*
X219359Y71838D01*
Y72237D01*
X218959D01*
X218559Y71838D01*
X218159Y72237D01*
X217759D01*
Y71838D01*
X218159Y71438D01*
X217759Y71038D01*
Y70638D01*
Y71838D02*
X218159D01*
X218559Y72237D01*
X218959Y71838D01*
X219359D01*
Y72237D01*
X218959Y72637D01*
X219359Y73037D01*
Y73438D01*
X218959D01*
X218559Y73037D01*
X218159Y73438D01*
X217759D01*
Y73037D01*
X218159Y72637D01*
X217759Y72237D01*
Y71838D01*
X240171Y102838D02*
X240571D01*
X240971Y103237D01*
X241371Y102838D01*
X241771D01*
Y103237D01*
X241371Y103638D01*
X241771Y104037D01*
Y104437D01*
X241371D01*
X240971Y104037D01*
X240571Y104437D01*
X240171D01*
Y104037D01*
X240571Y103638D01*
X240171Y103237D01*
Y102838D01*
Y107638D02*
X240571D01*
X240971Y108037D01*
X241371Y107638D01*
X241771D01*
Y108037D01*
X241371Y108438D01*
X241771Y108837D01*
Y109238D01*
X241371D01*
X240971Y108837D01*
X240571Y109238D01*
X240171D01*
Y108837D01*
X240571Y108438D01*
X240171Y108037D01*
Y107638D01*
X188359Y91838D02*
X188759D01*
X189159Y92238D01*
X189559Y91838D01*
X189959D01*
Y92238D01*
X189559Y92637D01*
X189959Y93037D01*
Y93437D01*
X189559D01*
X189159Y93037D01*
X188759Y93437D01*
X188359D01*
Y93037D01*
X188759Y92637D01*
X188359Y92238D01*
Y91838D01*
X188871Y94638D02*
X189271D01*
X189671Y95038D01*
X190071Y94638D01*
X190471D01*
Y95038D01*
X190071Y95438D01*
X190471Y95837D01*
Y96237D01*
X190071D01*
X189671Y95837D01*
X189271Y96237D01*
X188871D01*
Y95837D01*
X189271Y95438D01*
X188871Y95038D01*
Y94638D01*
X210371Y81638D02*
X210771D01*
X211171Y82038D01*
X211571Y81638D01*
X211971D01*
Y82038D01*
X211571Y82437D01*
X211971Y82837D01*
Y83237D01*
X211571D01*
X211171Y82837D01*
X210771Y83237D01*
X210371D01*
Y82837D01*
X210771Y82437D01*
X210371Y82038D01*
Y81638D01*
Y78137D02*
X210771D01*
X211171Y78537D01*
X211571Y78137D01*
X211971D01*
Y78537D01*
X211571Y78938D01*
X211971Y79338D01*
Y79738D01*
X211571D01*
X211171Y79338D01*
X210771Y79738D01*
X210371D01*
Y79338D01*
X210771Y78938D01*
X210371Y78537D01*
Y78137D01*
Y87586D02*
X210771D01*
X211171Y87986D01*
X211571Y87586D01*
X211971D01*
Y87986D01*
X211571Y88386D01*
X211971Y88786D01*
Y89186D01*
X211571D01*
X211171Y88786D01*
X210771Y89186D01*
X210371D01*
Y88786D01*
X210771Y88386D01*
X210371Y87986D01*
Y87586D01*
Y84437D02*
X210771D01*
X211171Y84837D01*
X211571Y84437D01*
X211971D01*
Y84837D01*
X211571Y85237D01*
X211971Y85637D01*
Y86037D01*
X211571D01*
X211171Y85637D01*
X210771Y86037D01*
X210371D01*
Y85637D01*
X210771Y85237D01*
X210371Y84837D01*
Y84437D01*
X247434Y103956D02*
X247834D01*
X248234Y104357D01*
X248634Y103956D01*
X249034D01*
Y104357D01*
X248634Y104756D01*
X249034Y105157D01*
Y105556D01*
X248634D01*
X248234Y105157D01*
X247834Y105556D01*
X247434D01*
Y105157D01*
X247834Y104756D01*
X247434Y104357D01*
Y103956D01*
X250073Y106385D02*
X250473D01*
X250873Y106785D01*
X251273Y106385D01*
X251673D01*
Y106785D01*
X251273Y107185D01*
X251673Y107585D01*
Y107985D01*
X251273D01*
X250873Y107585D01*
X250473Y107985D01*
X250073D01*
Y107585D01*
X250473Y107185D01*
X250073Y106785D01*
Y106385D01*
X243274Y109534D02*
X243674D01*
X244074Y109934D01*
X244474Y109534D01*
X244874D01*
Y109934D01*
X244474Y110334D01*
X244874Y110734D01*
Y111134D01*
X244474D01*
X244074Y110734D01*
X243674Y111134D01*
X243274D01*
Y110734D01*
X243674Y110334D01*
X243274Y109934D01*
Y109534D01*
X240671Y112093D02*
X241071D01*
X241471Y112493D01*
X241871Y112093D01*
X242271D01*
Y112493D01*
X241871Y112893D01*
X242271Y113293D01*
Y113693D01*
X241871D01*
X241471Y113293D01*
X241071Y113693D01*
X240671D01*
Y113293D01*
X241071Y112893D01*
X240671Y112493D01*
Y112093D01*
M02*
