G04 Layer_Color=32896*
%FSLAX25Y25*%
%MOIN*%
G70*
G01*
G75*
%ADD10C,0.00800*%
%ADD16C,0.00787*%
%ADD24C,0.00400*%
%ADD26C,0.01000*%
%ADD34C,0.04000*%
%ADD35C,0.01200*%
%ADD36C,0.00600*%
%ADD83C,0.00500*%
%ADD85C,0.00900*%
%ADD149C,0.00100*%
%ADD150C,0.00098*%
%ADD151C,0.00700*%
G36*
X165965Y100216D02*
X166043Y100211D01*
X166190Y100182D01*
X166253Y100167D01*
X166317Y100148D01*
X166370Y100123D01*
X166419Y100104D01*
X166463Y100079D01*
X166502Y100060D01*
X166536Y100035D01*
X166566Y100021D01*
X166585Y100006D01*
X166600Y99991D01*
X166610Y99987D01*
X166614Y99982D01*
X166663Y99933D01*
X166702Y99884D01*
X166776Y99772D01*
X166829Y99660D01*
X166868Y99547D01*
X166897Y99450D01*
X166902Y99406D01*
X166912Y99367D01*
X166917Y99338D01*
X166922Y99313D01*
Y99299D01*
Y99294D01*
X166517Y99250D01*
X166507Y99357D01*
X166488Y99450D01*
X166463Y99528D01*
X166429Y99596D01*
X166400Y99650D01*
X166370Y99689D01*
X166351Y99708D01*
X166346Y99718D01*
X166278Y99777D01*
X166205Y99821D01*
X166127Y99850D01*
X166053Y99874D01*
X165990Y99884D01*
X165941Y99889D01*
X165921Y99894D01*
X165892D01*
X165795Y99889D01*
X165707Y99869D01*
X165634Y99845D01*
X165570Y99816D01*
X165521Y99782D01*
X165482Y99757D01*
X165463Y99738D01*
X165453Y99733D01*
X165394Y99669D01*
X165355Y99601D01*
X165326Y99538D01*
X165302Y99474D01*
X165292Y99420D01*
X165287Y99377D01*
X165282Y99347D01*
Y99342D01*
Y99338D01*
X165292Y99255D01*
X165312Y99167D01*
X165341Y99089D01*
X165375Y99015D01*
X165409Y98952D01*
X165438Y98903D01*
X165448Y98884D01*
X165458Y98869D01*
X165468Y98864D01*
Y98859D01*
X165507Y98810D01*
X165551Y98757D01*
X165599Y98703D01*
X165658Y98649D01*
X165775Y98537D01*
X165892Y98425D01*
X166000Y98332D01*
X166048Y98288D01*
X166092Y98254D01*
X166127Y98220D01*
X166151Y98201D01*
X166170Y98186D01*
X166175Y98181D01*
X166292Y98079D01*
X166400Y97986D01*
X166488Y97903D01*
X166561Y97834D01*
X166619Y97776D01*
X166658Y97732D01*
X166683Y97703D01*
X166693Y97698D01*
Y97693D01*
X166756Y97615D01*
X166805Y97542D01*
X166854Y97469D01*
X166888Y97405D01*
X166917Y97347D01*
X166937Y97307D01*
X166946Y97278D01*
X166951Y97273D01*
Y97268D01*
X166966Y97220D01*
X166981Y97171D01*
X166985Y97127D01*
X166990Y97088D01*
X166995Y97054D01*
Y97024D01*
Y97005D01*
Y97000D01*
X164872D01*
Y97376D01*
X166449D01*
X166395Y97454D01*
X166341Y97517D01*
X166317Y97547D01*
X166297Y97566D01*
X166288Y97581D01*
X166283Y97586D01*
X166258Y97610D01*
X166234Y97634D01*
X166170Y97693D01*
X166092Y97761D01*
X166019Y97830D01*
X165946Y97893D01*
X165887Y97942D01*
X165863Y97961D01*
X165843Y97976D01*
X165834Y97986D01*
X165829Y97991D01*
X165751Y98059D01*
X165682Y98118D01*
X165614Y98176D01*
X165556Y98230D01*
X165502Y98283D01*
X165453Y98327D01*
X165404Y98371D01*
X165365Y98410D01*
X165331Y98444D01*
X165302Y98474D01*
X165258Y98518D01*
X165233Y98547D01*
X165224Y98557D01*
X165160Y98635D01*
X165102Y98703D01*
X165058Y98771D01*
X165024Y98830D01*
X164994Y98879D01*
X164975Y98913D01*
X164965Y98937D01*
X164960Y98947D01*
X164931Y99015D01*
X164911Y99084D01*
X164897Y99147D01*
X164887Y99206D01*
X164882Y99255D01*
X164877Y99294D01*
Y99318D01*
Y99328D01*
X164882Y99396D01*
X164887Y99464D01*
X164921Y99586D01*
X164965Y99694D01*
X165014Y99787D01*
X165063Y99860D01*
X165087Y99889D01*
X165107Y99918D01*
X165126Y99938D01*
X165141Y99952D01*
X165146Y99957D01*
X165150Y99962D01*
X165204Y100006D01*
X165258Y100050D01*
X165316Y100084D01*
X165380Y100113D01*
X165502Y100157D01*
X165619Y100187D01*
X165673Y100201D01*
X165721Y100206D01*
X165765Y100211D01*
X165804Y100216D01*
X165839Y100221D01*
X165883D01*
X165965Y100216D01*
D02*
G37*
G36*
X308024Y82200D02*
X309071D01*
Y81761D01*
X308024D01*
Y80708D01*
X307580D01*
Y81761D01*
X306532D01*
Y82200D01*
X307580D01*
Y83247D01*
X308024D01*
Y82200D01*
D02*
G37*
G54D10*
X272450Y178866D02*
Y175819D01*
X272640Y175247D01*
X272831Y175057D01*
X273212Y174866D01*
X273593D01*
X273973Y175057D01*
X274164Y175247D01*
X274354Y175819D01*
Y176200D01*
X271041Y178866D02*
X268946D01*
X270089Y177342D01*
X269517D01*
X269136Y177152D01*
X268946Y176961D01*
X268756Y176390D01*
Y176009D01*
X268946Y175438D01*
X269327Y175057D01*
X269898Y174866D01*
X270469D01*
X271041Y175057D01*
X271231Y175247D01*
X271422Y175628D01*
X266718Y178866D02*
X267289Y178675D01*
X267670Y178104D01*
X267861Y177152D01*
Y176581D01*
X267670Y175628D01*
X267289Y175057D01*
X266718Y174866D01*
X266337D01*
X265766Y175057D01*
X265385Y175628D01*
X265194Y176581D01*
Y177152D01*
X265385Y178104D01*
X265766Y178675D01*
X266337Y178866D01*
X266718D01*
X264299Y178104D02*
X263918Y178294D01*
X263347Y178866D01*
Y174866D01*
X133353Y176871D02*
X130306D01*
X129735Y176681D01*
X129545Y176490D01*
X129354Y176109D01*
Y175728D01*
X129545Y175347D01*
X129735Y175157D01*
X130306Y174967D01*
X130687D01*
X133353Y178280D02*
Y180375D01*
X131830Y179232D01*
Y179804D01*
X131640Y180184D01*
X131449Y180375D01*
X130878Y180565D01*
X130497D01*
X129926Y180375D01*
X129545Y179994D01*
X129354Y179423D01*
Y178851D01*
X129545Y178280D01*
X129735Y178090D01*
X130116Y177899D01*
X132592Y181460D02*
X132782Y181841D01*
X133353Y182413D01*
X129354D01*
X133353Y185536D02*
X133163Y184964D01*
X132592Y184583D01*
X131640Y184393D01*
X131068D01*
X130116Y184583D01*
X129545Y184964D01*
X129354Y185536D01*
Y185917D01*
X129545Y186488D01*
X130116Y186869D01*
X131068Y187059D01*
X131640D01*
X132592Y186869D01*
X133163Y186488D01*
X133353Y185917D01*
Y185536D01*
X324075Y179890D02*
Y176843D01*
X324265Y176271D01*
X324456Y176081D01*
X324836Y175891D01*
X325217D01*
X325598Y176081D01*
X325789Y176271D01*
X325979Y176843D01*
Y177224D01*
X322666Y179890D02*
X320571D01*
X321713Y178366D01*
X321142D01*
X320761Y178176D01*
X320571Y177985D01*
X320380Y177414D01*
Y177033D01*
X320571Y176462D01*
X320952Y176081D01*
X321523Y175891D01*
X322094D01*
X322666Y176081D01*
X322856Y176271D01*
X323046Y176652D01*
X319485Y179128D02*
X319104Y179318D01*
X318533Y179890D01*
Y175891D01*
X316552Y179128D02*
X316172Y179318D01*
X315600Y179890D01*
Y175891D01*
X116299Y91042D02*
X113252D01*
X112681Y90851D01*
X112490Y90661D01*
X112300Y90280D01*
Y89899D01*
X112490Y89518D01*
X112681Y89328D01*
X113252Y89138D01*
X113633D01*
X116299Y92451D02*
Y94546D01*
X114776Y93403D01*
Y93975D01*
X114585Y94355D01*
X114395Y94546D01*
X113823Y94736D01*
X113443D01*
X112871Y94546D01*
X112490Y94165D01*
X112300Y93594D01*
Y93022D01*
X112490Y92451D01*
X112681Y92261D01*
X113062Y92070D01*
X115537Y95631D02*
X115728Y96012D01*
X116299Y96584D01*
X112300D01*
X115347Y98755D02*
X115537D01*
X115918Y98945D01*
X116109Y99135D01*
X116299Y99516D01*
Y100278D01*
X116109Y100659D01*
X115918Y100849D01*
X115537Y101040D01*
X115156D01*
X114776Y100849D01*
X114204Y100468D01*
X112300Y98564D01*
Y101230D01*
X181050Y138466D02*
Y135419D01*
X181240Y134847D01*
X181431Y134657D01*
X181812Y134467D01*
X182193D01*
X182573Y134657D01*
X182764Y134847D01*
X182954Y135419D01*
Y135800D01*
X179641Y138466D02*
X177546D01*
X178689Y136942D01*
X178117D01*
X177736Y136752D01*
X177546Y136561D01*
X177356Y135990D01*
Y135609D01*
X177546Y135038D01*
X177927Y134657D01*
X178498Y134467D01*
X179069D01*
X179641Y134657D01*
X179831Y134847D01*
X180022Y135228D01*
X176461Y137704D02*
X176080Y137894D01*
X175508Y138466D01*
Y134467D01*
X173147Y138466D02*
X171052D01*
X172195Y136942D01*
X171623D01*
X171243Y136752D01*
X171052Y136561D01*
X170862Y135990D01*
Y135609D01*
X171052Y135038D01*
X171433Y134657D01*
X172004Y134467D01*
X172576D01*
X173147Y134657D01*
X173337Y134847D01*
X173528Y135228D01*
X160753Y98247D02*
X156945D01*
X156230Y98009D01*
X155992Y97771D01*
X155754Y97295D01*
Y96819D01*
X155992Y96343D01*
X156230Y96105D01*
X156945Y95867D01*
X157421D01*
X158135Y99532D02*
Y101675D01*
X158373Y102389D01*
X158611Y102627D01*
X159087Y102865D01*
X159801D01*
X160277Y102627D01*
X160515Y102389D01*
X160753Y101675D01*
Y99532D01*
X155754D01*
X159801Y103984D02*
X160039Y104460D01*
X160753Y105174D01*
X155754D01*
X262154Y136571D02*
X259106D01*
X258535Y136381D01*
X258345Y136190D01*
X258154Y135809D01*
Y135428D01*
X258345Y135047D01*
X258535Y134857D01*
X259106Y134667D01*
X259487D01*
X260059Y137599D02*
Y139313D01*
X260249Y139884D01*
X260440Y140075D01*
X260820Y140265D01*
X261392D01*
X261773Y140075D01*
X261963Y139884D01*
X262154Y139313D01*
Y137599D01*
X258154D01*
X261201Y141351D02*
X261392D01*
X261773Y141541D01*
X261963Y141732D01*
X262154Y142113D01*
Y142874D01*
X261963Y143255D01*
X261773Y143446D01*
X261392Y143636D01*
X261011D01*
X260630Y143446D01*
X260059Y143065D01*
X258154Y141160D01*
Y143826D01*
X262854Y150371D02*
X259806D01*
X259235Y150180D01*
X259045Y149990D01*
X258854Y149609D01*
Y149228D01*
X259045Y148847D01*
X259235Y148657D01*
X259806Y148467D01*
X260187D01*
X260759Y151399D02*
Y153113D01*
X260949Y153684D01*
X261140Y153875D01*
X261520Y154065D01*
X262092D01*
X262473Y153875D01*
X262663Y153684D01*
X262854Y153113D01*
Y151399D01*
X258854D01*
X262854Y155341D02*
Y157436D01*
X261330Y156293D01*
Y156865D01*
X261140Y157246D01*
X260949Y157436D01*
X260378Y157626D01*
X259997D01*
X259426Y157436D01*
X259045Y157055D01*
X258854Y156484D01*
Y155913D01*
X259045Y155341D01*
X259235Y155151D01*
X259616Y154960D01*
X86850Y132607D02*
Y129560D01*
X87040Y128988D01*
X87231Y128798D01*
X87612Y128607D01*
X87993D01*
X88374Y128798D01*
X88564Y128988D01*
X88754Y129560D01*
Y129940D01*
X85822Y130512D02*
X84108D01*
X83536Y130702D01*
X83346Y130893D01*
X83156Y131274D01*
Y131845D01*
X83346Y132226D01*
X83536Y132416D01*
X84108Y132607D01*
X85822D01*
Y128607D01*
X80356Y132607D02*
X82261Y129940D01*
X79404D01*
X80356Y132607D02*
Y128607D01*
X169054Y135266D02*
Y131266D01*
X166388Y135266D02*
X169054Y132600D01*
X168102Y133552D02*
X166388Y131266D01*
X165112Y135266D02*
X163017D01*
X164160Y133742D01*
X163589D01*
X163208Y133552D01*
X163017Y133361D01*
X162827Y132790D01*
Y132409D01*
X163017Y131838D01*
X163398Y131457D01*
X163970Y131266D01*
X164541D01*
X165112Y131457D01*
X165303Y131647D01*
X165493Y132028D01*
X160790Y135266D02*
X161361Y135075D01*
X161742Y134504D01*
X161932Y133552D01*
Y132981D01*
X161742Y132028D01*
X161361Y131457D01*
X160790Y131266D01*
X160409D01*
X159837Y131457D01*
X159456Y132028D01*
X159266Y132981D01*
Y133552D01*
X159456Y134504D01*
X159837Y135075D01*
X160409Y135266D01*
X160790D01*
X158371Y134504D02*
X157990Y134694D01*
X157419Y135266D01*
Y131266D01*
X115954Y128137D02*
Y124137D01*
X113288Y128137D02*
X115954Y125471D01*
X115002Y126423D02*
X113288Y124137D01*
X112012Y128137D02*
X109917D01*
X111060Y126613D01*
X110489D01*
X110108Y126423D01*
X109917Y126232D01*
X109727Y125661D01*
Y125280D01*
X109917Y124709D01*
X110298Y124328D01*
X110870Y124137D01*
X111441D01*
X112012Y124328D01*
X112203Y124518D01*
X112393Y124899D01*
X107689Y128137D02*
X108261Y127946D01*
X108642Y127375D01*
X108832Y126423D01*
Y125851D01*
X108642Y124899D01*
X108261Y124328D01*
X107689Y124137D01*
X107309D01*
X106737Y124328D01*
X106356Y124899D01*
X106166Y125851D01*
Y126423D01*
X106356Y127375D01*
X106737Y127946D01*
X107309Y128137D01*
X107689D01*
X103367D02*
X105271Y125471D01*
X102414D01*
X103367Y128137D02*
Y124137D01*
X312554Y157451D02*
X308554D01*
X312554D02*
Y159165D01*
X312363Y159736D01*
X312173Y159926D01*
X311792Y160117D01*
X311411D01*
X311030Y159926D01*
X310840Y159736D01*
X310649Y159165D01*
Y157451D01*
Y158784D02*
X308554Y160117D01*
X311792Y161012D02*
X311982Y161393D01*
X312554Y161964D01*
X308554D01*
X312554Y165087D02*
X312363Y164516D01*
X311792Y164135D01*
X310840Y163945D01*
X310268D01*
X309316Y164135D01*
X308745Y164516D01*
X308554Y165087D01*
Y165468D01*
X308745Y166039D01*
X309316Y166420D01*
X310268Y166611D01*
X310840D01*
X311792Y166420D01*
X312363Y166039D01*
X312554Y165468D01*
Y165087D01*
Y169410D02*
X309887Y167506D01*
Y170362D01*
X312554Y169410D02*
X308554D01*
X303053Y157266D02*
X299054D01*
X303053D02*
Y158981D01*
X302863Y159552D01*
X302673Y159742D01*
X302292Y159933D01*
X301911D01*
X301530Y159742D01*
X301340Y159552D01*
X301149Y158981D01*
Y157266D01*
Y158600D02*
X299054Y159933D01*
X302292Y160828D02*
X302482Y161208D01*
X303053Y161780D01*
X299054D01*
X303053Y164903D02*
X302863Y164332D01*
X302292Y163951D01*
X301340Y163760D01*
X300768D01*
X299816Y163951D01*
X299245Y164332D01*
X299054Y164903D01*
Y165284D01*
X299245Y165855D01*
X299816Y166236D01*
X300768Y166427D01*
X301340D01*
X302292Y166236D01*
X302863Y165855D01*
X303053Y165284D01*
Y164903D01*
Y169607D02*
Y167702D01*
X301340Y167512D01*
X301530Y167702D01*
X301720Y168274D01*
Y168845D01*
X301530Y169416D01*
X301149Y169797D01*
X300578Y169988D01*
X300197D01*
X299626Y169797D01*
X299245Y169416D01*
X299054Y168845D01*
Y168274D01*
X299245Y167702D01*
X299435Y167512D01*
X299816Y167322D01*
X282954Y157266D02*
X278954D01*
X282954D02*
Y158981D01*
X282763Y159552D01*
X282573Y159742D01*
X282192Y159933D01*
X281811D01*
X281430Y159742D01*
X281240Y159552D01*
X281049Y158981D01*
Y157266D01*
Y158600D02*
X278954Y159933D01*
X282192Y160828D02*
X282382Y161208D01*
X282954Y161780D01*
X278954D01*
X282954Y164903D02*
X282763Y164332D01*
X282192Y163951D01*
X281240Y163760D01*
X280668D01*
X279716Y163951D01*
X279145Y164332D01*
X278954Y164903D01*
Y165284D01*
X279145Y165855D01*
X279716Y166236D01*
X280668Y166427D01*
X281240D01*
X282192Y166236D01*
X282763Y165855D01*
X282954Y165284D01*
Y164903D01*
Y169988D02*
X278954Y168083D01*
X282954Y167322D02*
Y169988D01*
G54D16*
X354329Y0D02*
Y196851D01*
X0Y0D02*
X354329D01*
X0Y196851D02*
X354329D01*
X0Y0D02*
Y196851D01*
G54D24*
X201116Y27560D02*
G03*
X201116Y27560I-394J0D01*
G01*
X225359Y58438D02*
G03*
X225359Y58438I-400J0D01*
G01*
X298759Y18438D02*
G03*
X298759Y18438I-400J0D01*
G01*
X287759Y33637D02*
G03*
X287759Y33637I-400J0D01*
G01*
X196998Y48533D02*
X197391Y48926D01*
X196998Y61133D02*
X197391Y61526D01*
X120769Y186226D02*
X121162Y185832D01*
G54D26*
X4831Y133505D02*
X63886D01*
X4831Y90198D02*
Y133505D01*
Y90198D02*
X63886D01*
Y133505D01*
X266033Y191921D02*
X316033D01*
X266033Y181921D02*
Y191921D01*
Y181921D02*
X316033D01*
Y191921D01*
X156582Y170039D02*
X160182Y166439D01*
X98482Y170039D02*
X156582D01*
X95982Y167539D02*
X98482Y170039D01*
X95982Y123039D02*
Y167539D01*
Y123039D02*
X100332Y127389D01*
X91632D02*
X95982Y123039D01*
X65818Y105323D02*
X111318D01*
X72018D02*
Y118523D01*
X77518Y105323D02*
Y118523D01*
X83018Y105323D02*
Y118523D01*
X88518Y105323D02*
Y118523D01*
X94018Y105323D02*
Y118523D01*
X99518Y105323D02*
Y118523D01*
X105218Y105323D02*
Y118523D01*
X111318Y105323D02*
Y118523D01*
X65818Y105323D02*
Y118523D01*
X111318D01*
X188271Y22138D02*
X190871D01*
X73584Y134915D02*
X93584D01*
Y144915D01*
X73584D02*
X93584D01*
X73584Y134915D02*
Y144915D01*
X236531Y148197D02*
X256531D01*
Y158197D01*
X236531D02*
X256531D01*
X236531Y148197D02*
Y158197D01*
Y134440D02*
X256531D01*
Y144439D01*
X236531D02*
X256531D01*
X236531Y134440D02*
Y144439D01*
X153505Y107055D02*
Y127055D01*
Y107055D02*
X163505D01*
Y127055D01*
X153505D02*
X163505D01*
X162304Y140831D02*
X182304D01*
Y150831D01*
X162304D02*
X182304D01*
X162304Y140831D02*
Y150831D01*
X33898Y45336D02*
Y40766D01*
X34183Y39909D01*
X34469Y39623D01*
X35040Y39338D01*
X35612D01*
X36183Y39623D01*
X36469Y39909D01*
X36754Y40766D01*
Y41337D01*
X31784Y45336D02*
X28642D01*
X30356Y43051D01*
X29499D01*
X28927Y42765D01*
X28642Y42480D01*
X28356Y41623D01*
Y41051D01*
X28642Y40194D01*
X29213Y39623D01*
X30070Y39338D01*
X30927D01*
X31784Y39623D01*
X32070Y39909D01*
X32355Y40480D01*
X25300Y45336D02*
X26157Y45051D01*
X26728Y44194D01*
X27014Y42765D01*
Y41908D01*
X26728Y40480D01*
X26157Y39623D01*
X25300Y39338D01*
X24728D01*
X23871Y39623D01*
X23300Y40480D01*
X23014Y41908D01*
Y42765D01*
X23300Y44194D01*
X23871Y45051D01*
X24728Y45336D01*
X25300D01*
X21386Y43908D02*
Y44194D01*
X21101Y44765D01*
X20815Y45051D01*
X20244Y45336D01*
X19101D01*
X18530Y45051D01*
X18244Y44765D01*
X17958Y44194D01*
Y43622D01*
X18244Y43051D01*
X18815Y42194D01*
X21672Y39338D01*
X17673D01*
X65343Y147389D02*
Y142819D01*
X65629Y141962D01*
X65915Y141676D01*
X66486Y141391D01*
X67057D01*
X67629Y141676D01*
X67914Y141962D01*
X68200Y142819D01*
Y143390D01*
X63230Y147389D02*
X60088D01*
X61801Y145104D01*
X60944D01*
X60373Y144818D01*
X60088Y144533D01*
X59802Y143676D01*
Y143105D01*
X60088Y142247D01*
X60659Y141676D01*
X61516Y141391D01*
X62373D01*
X63230Y141676D01*
X63515Y141962D01*
X63801Y142533D01*
X56745Y147389D02*
X57602Y147104D01*
X58174Y146247D01*
X58459Y144818D01*
Y143961D01*
X58174Y142533D01*
X57602Y141676D01*
X56745Y141391D01*
X56174D01*
X55317Y141676D01*
X54746Y142533D01*
X54460Y143961D01*
Y144818D01*
X54746Y146247D01*
X55317Y147104D01*
X56174Y147389D01*
X56745D01*
X49690D02*
X52546D01*
X52832Y144818D01*
X52546Y145104D01*
X51689Y145390D01*
X50832D01*
X49975Y145104D01*
X49404Y144533D01*
X49118Y143676D01*
Y143105D01*
X49404Y142247D01*
X49975Y141676D01*
X50832Y141391D01*
X51689D01*
X52546Y141676D01*
X52832Y141962D01*
X53118Y142533D01*
X343398Y65536D02*
Y60966D01*
X343684Y60109D01*
X343969Y59823D01*
X344540Y59538D01*
X345112D01*
X345683Y59823D01*
X345969Y60109D01*
X346254Y60966D01*
Y61537D01*
X341284Y65536D02*
X338142D01*
X339856Y63251D01*
X338999D01*
X338427Y62965D01*
X338142Y62680D01*
X337856Y61823D01*
Y61251D01*
X338142Y60395D01*
X338713Y59823D01*
X339570Y59538D01*
X340427D01*
X341284Y59823D01*
X341570Y60109D01*
X341855Y60680D01*
X334800Y65536D02*
X335657Y65251D01*
X336228Y64394D01*
X336514Y62965D01*
Y62108D01*
X336228Y60680D01*
X335657Y59823D01*
X334800Y59538D01*
X334228D01*
X333371Y59823D01*
X332800Y60680D01*
X332514Y62108D01*
Y62965D01*
X332800Y64394D01*
X333371Y65251D01*
X334228Y65536D01*
X334800D01*
X329744D02*
X330601Y65251D01*
X330886Y64679D01*
Y64108D01*
X330601Y63537D01*
X330029Y63251D01*
X328887Y62965D01*
X328030Y62680D01*
X327458Y62108D01*
X327173Y61537D01*
Y60680D01*
X327458Y60109D01*
X327744Y59823D01*
X328601Y59538D01*
X329744D01*
X330601Y59823D01*
X330886Y60109D01*
X331172Y60680D01*
Y61537D01*
X330886Y62108D01*
X330315Y62680D01*
X329458Y62965D01*
X328315Y63251D01*
X327744Y63537D01*
X327458Y64108D01*
Y64679D01*
X327744Y65251D01*
X328601Y65536D01*
X329744D01*
X44101Y86874D02*
X44672Y87446D01*
X45529Y87731D01*
X46672D01*
X47529Y87446D01*
X48100Y86874D01*
Y86303D01*
X47814Y85732D01*
X47529Y85446D01*
X46957Y85160D01*
X45243Y84589D01*
X44672Y84303D01*
X44387Y84018D01*
X44101Y83447D01*
Y82590D01*
X44672Y82018D01*
X45529Y81732D01*
X46672D01*
X47529Y82018D01*
X48100Y82590D01*
X42758Y85732D02*
Y79733D01*
Y84875D02*
X42187Y85446D01*
X41616Y85732D01*
X40759D01*
X40187Y85446D01*
X39616Y84875D01*
X39331Y84018D01*
Y83447D01*
X39616Y82590D01*
X40187Y82018D01*
X40759Y81732D01*
X41616D01*
X42187Y82018D01*
X42758Y82590D01*
X38045Y84018D02*
X34617D01*
Y84589D01*
X34903Y85160D01*
X35188Y85446D01*
X35760Y85732D01*
X36617D01*
X37188Y85446D01*
X37759Y84875D01*
X38045Y84018D01*
Y83447D01*
X37759Y82590D01*
X37188Y82018D01*
X36617Y81732D01*
X35760D01*
X35188Y82018D01*
X34617Y82590D01*
X29904Y85732D02*
Y81732D01*
Y84875D02*
X30475Y85446D01*
X31047Y85732D01*
X31903D01*
X32475Y85446D01*
X33046Y84875D01*
X33332Y84018D01*
Y83447D01*
X33046Y82590D01*
X32475Y82018D01*
X31903Y81732D01*
X31047D01*
X30475Y82018D01*
X29904Y82590D01*
X28304Y87731D02*
Y81732D01*
X25448Y85732D02*
X28304Y82875D01*
X27162Y84018D02*
X25162Y81732D01*
X24219Y84018D02*
X20792D01*
Y84589D01*
X21077Y85160D01*
X21363Y85446D01*
X21934Y85732D01*
X22791D01*
X23362Y85446D01*
X23934Y84875D01*
X24219Y84018D01*
Y83447D01*
X23934Y82590D01*
X23362Y82018D01*
X22791Y81732D01*
X21934D01*
X21363Y82018D01*
X20792Y82590D01*
X19506Y85732D02*
Y81732D01*
Y84018D02*
X19220Y84875D01*
X18649Y85446D01*
X18078Y85732D01*
X17221D01*
X320442Y183890D02*
X318443D01*
X319443D01*
Y189889D01*
X320442Y188889D01*
G54D34*
X308559Y40038D02*
Y42037D01*
G54D35*
X135858Y171921D02*
X205858D01*
Y191921D01*
X138858D02*
X205858D01*
X135858Y188921D02*
X138858Y191921D01*
X135858Y171921D02*
Y188921D01*
X210995Y171921D02*
X260995D01*
Y191921D01*
X213995D02*
X260995D01*
X210995Y188921D02*
X213995Y191921D01*
X210995Y171921D02*
Y188921D01*
G54D36*
X190454Y58867D02*
G03*
X190454Y58867I-500J0D01*
G01*
X197254D02*
G03*
X197254Y58867I-500J0D01*
G01*
X185954Y60866D02*
X193954D01*
X185954Y56867D02*
Y60866D01*
Y56867D02*
X193954D01*
Y60866D01*
X192754Y56867D02*
X200754D01*
Y60866D01*
X192754D02*
X200754D01*
X192754Y56867D02*
Y60866D01*
X24682Y149651D02*
X92482D01*
Y196851D01*
X24682D02*
X92482D01*
X24682Y149651D02*
Y196851D01*
X247654Y161791D02*
X245154D01*
X247654D02*
Y162862D01*
X247535Y163219D01*
X247416Y163338D01*
X247178Y163457D01*
X246940D01*
X246702Y163338D01*
X246583Y163219D01*
X246464Y162862D01*
Y161791D01*
Y162624D02*
X245154Y163457D01*
X247178Y164016D02*
X247297Y164254D01*
X247654Y164611D01*
X245154D01*
X247654Y166563D02*
X247535Y166206D01*
X247178Y165968D01*
X246583Y165849D01*
X246226D01*
X245630Y165968D01*
X245273Y166206D01*
X245154Y166563D01*
Y166801D01*
X245273Y167158D01*
X245630Y167396D01*
X246226Y167516D01*
X246583D01*
X247178Y167396D01*
X247535Y167158D01*
X247654Y166801D01*
Y166563D01*
X247178Y168075D02*
X247297Y168313D01*
X247654Y168670D01*
X245154D01*
X262054Y161070D02*
X259554D01*
X262054D02*
Y162141D01*
X261935Y162498D01*
X261816Y162617D01*
X261578Y162736D01*
X261340D01*
X261102Y162617D01*
X260983Y162498D01*
X260864Y162141D01*
Y161070D01*
Y161903D02*
X259554Y162736D01*
X261578Y163296D02*
X261697Y163534D01*
X262054Y163891D01*
X259554D01*
X262054Y165843D02*
X261935Y165486D01*
X261578Y165248D01*
X260983Y165129D01*
X260626D01*
X260030Y165248D01*
X259673Y165486D01*
X259554Y165843D01*
Y166081D01*
X259673Y166438D01*
X260030Y166676D01*
X260626Y166795D01*
X260983D01*
X261578Y166676D01*
X261935Y166438D01*
X262054Y166081D01*
Y165843D01*
X261459Y167473D02*
X261578D01*
X261816Y167592D01*
X261935Y167711D01*
X262054Y167949D01*
Y168426D01*
X261935Y168664D01*
X261816Y168783D01*
X261578Y168902D01*
X261340D01*
X261102Y168783D01*
X260745Y168545D01*
X259554Y167354D01*
Y169021D01*
X266189Y161267D02*
X263690D01*
X266189D02*
Y162338D01*
X266070Y162695D01*
X265951Y162814D01*
X265713Y162933D01*
X265475D01*
X265237Y162814D01*
X265118Y162695D01*
X264999Y162338D01*
Y161267D01*
Y162100D02*
X263690Y162933D01*
X265713Y163492D02*
X265832Y163730D01*
X266189Y164087D01*
X263690D01*
X266189Y166039D02*
X266070Y165682D01*
X265713Y165444D01*
X265118Y165325D01*
X264761D01*
X264166Y165444D01*
X263809Y165682D01*
X263690Y166039D01*
Y166277D01*
X263809Y166634D01*
X264166Y166873D01*
X264761Y166991D01*
X265118D01*
X265713Y166873D01*
X266070Y166634D01*
X266189Y166277D01*
Y166039D01*
Y168146D02*
X266070Y167789D01*
X265832Y167670D01*
X265594D01*
X265356Y167789D01*
X265237Y168027D01*
X265118Y168503D01*
X264999Y168860D01*
X264761Y169098D01*
X264523Y169217D01*
X264166D01*
X263928Y169098D01*
X263809Y168979D01*
X263690Y168622D01*
Y168146D01*
X263809Y167789D01*
X263928Y167670D01*
X264166Y167551D01*
X264523D01*
X264761Y167670D01*
X264999Y167908D01*
X265118Y168265D01*
X265237Y168741D01*
X265356Y168979D01*
X265594Y169098D01*
X265832D01*
X266070Y168979D01*
X266189Y168622D01*
Y168146D01*
G54D83*
X283602Y77734D02*
G03*
X283602Y77734I-591J0D01*
G01*
X225144Y56023D02*
G03*
X225144Y56023I-946J0D01*
G01*
X192354Y19266D02*
Y34966D01*
Y19266D02*
X205054D01*
Y34966D01*
X192354D02*
X205054D01*
X280059Y56671D02*
Y82262D01*
Y56671D02*
X305650D01*
Y82262D01*
X280059D02*
X305650D01*
X282007Y85927D02*
X282991Y83171D01*
X282007Y85927D02*
X283976D01*
X282991Y83171D02*
X283976Y85927D01*
X251029Y29192D02*
Y57341D01*
X222880Y29192D02*
X251029D01*
X222880D02*
Y57341D01*
X251029D01*
X225088Y62733D02*
X226072Y59977D01*
X225088Y62733D02*
X227057D01*
X226072Y59977D02*
X227057Y62733D01*
X275291Y50004D02*
X284818D01*
Y42129D02*
Y50004D01*
X275291Y42129D02*
X284818D01*
X275291D02*
Y50004D01*
X282896Y41719D02*
X283881Y38963D01*
X281912D02*
X283881D01*
X281912D02*
X282896Y41719D01*
X275291Y40004D02*
X284818D01*
Y32129D02*
Y40004D01*
X275291Y32129D02*
X284818D01*
X275291D02*
Y40004D01*
X283133Y31547D02*
X284118Y28791D01*
X282149D02*
X284118D01*
X282149D02*
X283133Y31547D01*
X275291Y31904D02*
X284818D01*
Y24029D02*
Y31904D01*
X275291Y24029D02*
X284818D01*
X275291D02*
Y31904D01*
X283197Y23404D02*
X284182Y20648D01*
X282213D02*
X284182D01*
X282213D02*
X283197Y23404D01*
X288355Y32508D02*
Y50225D01*
Y32508D02*
X300954D01*
Y50225D01*
X288355D02*
X300954D01*
X284314Y34122D02*
X287070Y35107D01*
X284314Y34122D02*
Y36091D01*
X287070Y35107D01*
X274920Y127215D02*
X320589D01*
X274920Y95718D02*
Y127215D01*
Y95718D02*
X320589D01*
Y127215D01*
X274920Y123671D02*
X278463Y127215D01*
X178673Y71985D02*
Y111748D01*
Y71985D02*
X218436D01*
Y111748D01*
X178673D02*
X218436D01*
X178673Y107418D02*
X183003Y111748D01*
X226535Y121885D02*
X274173D01*
X226535Y74248D02*
Y121885D01*
Y74248D02*
X274173D01*
Y121885D01*
X271102Y121767D02*
X274134Y118736D01*
X312754Y82367D02*
X320754D01*
X312754Y77966D02*
Y82367D01*
Y77966D02*
X320754D01*
Y82367D01*
X290154Y90767D02*
X294554D01*
Y82766D02*
Y90767D01*
X290154Y82766D02*
X294554D01*
X290154D02*
Y90767D01*
X286954Y82766D02*
Y90767D01*
Y82766D02*
X291354D01*
Y90767D01*
X286954D02*
X291354D01*
X225254Y59367D02*
Y67366D01*
Y59367D02*
X229654D01*
Y67366D01*
X225254D02*
X229654D01*
X278565Y82436D02*
X284943D01*
Y91097D01*
X278565D02*
X284943D01*
X278565Y82436D02*
Y91097D01*
X305824Y69878D02*
Y76256D01*
Y69878D02*
X314485D01*
Y76256D01*
X305824D02*
X314485D01*
X292554Y19366D02*
Y27367D01*
X288154D02*
X292554D01*
X288154Y19366D02*
Y27367D01*
Y19366D02*
X292554D01*
X300154D02*
Y27367D01*
Y19366D02*
X304554D01*
Y27367D01*
X300154D02*
X304554D01*
X259454Y18167D02*
Y26166D01*
Y18167D02*
X263854D01*
Y26166D01*
X259454D02*
X263854D01*
X259154Y122566D02*
X267154D01*
Y126967D01*
X259154D02*
X267154D01*
X259154Y122566D02*
Y126967D01*
X260154Y63367D02*
X268154D01*
Y67766D01*
X260154D02*
X268154D01*
X260154Y63367D02*
Y67766D01*
X189117Y57200D02*
X197791D01*
X189117Y48133D02*
Y57200D01*
Y48133D02*
X197791D01*
Y57200D01*
X196305Y48101D02*
X197290Y45345D01*
X195321D02*
X197290D01*
X195321D02*
X196305Y48101D01*
X189117Y69801D02*
X197791D01*
X189117Y60733D02*
Y69801D01*
Y60733D02*
X197791D01*
Y69801D01*
X196305Y60701D02*
X197290Y57945D01*
X195321D02*
X197290D01*
X195321D02*
X196305Y60701D01*
X226554Y84566D02*
Y88967D01*
X218554Y84566D02*
X226554D01*
X218554D02*
Y88967D01*
X226554D01*
Y89267D02*
Y93666D01*
X218554Y89267D02*
X226554D01*
X218554D02*
Y93666D01*
X226554D01*
X184054Y30367D02*
Y38366D01*
Y30367D02*
X188454D01*
Y38366D01*
X184054D02*
X188454D01*
X218554Y74266D02*
X226554D01*
Y78667D01*
X218554D02*
X226554D01*
X218554Y74266D02*
Y78667D01*
X218454Y122467D02*
X226454D01*
Y126866D01*
X218454D02*
X226454D01*
X218454Y122467D02*
Y126866D01*
X197054Y34866D02*
X205054D01*
Y39266D01*
X197054D02*
X205054D01*
X197054Y34866D02*
Y39266D01*
X174754Y95467D02*
Y103466D01*
X170354D02*
X174754D01*
X170354Y95467D02*
Y103466D01*
Y95467D02*
X174754D01*
X170354Y96066D02*
X178354D01*
X170354Y91667D02*
Y96066D01*
Y91667D02*
X178354D01*
Y96066D01*
X175254Y52466D02*
X183254D01*
Y56867D01*
X175254D02*
X183254D01*
X175254Y52466D02*
Y56867D01*
X218554Y95767D02*
X226554D01*
Y100166D01*
X218554D02*
X226554D01*
X218554Y95767D02*
Y100166D01*
X170354Y91966D02*
X178354D01*
X170354Y87567D02*
Y91966D01*
Y87567D02*
X178354D01*
Y91966D01*
X170454Y72566D02*
Y76967D01*
X178454D01*
Y72566D02*
Y76967D01*
X170454Y72566D02*
X178454D01*
X237554Y122566D02*
X245554D01*
Y126967D01*
X237554D02*
X245554D01*
X237554Y122566D02*
Y126967D01*
X301854Y48366D02*
Y56366D01*
Y48366D02*
X306254D01*
Y56366D01*
X301854D02*
X306254D01*
X229654Y21466D02*
X237654D01*
Y25866D01*
X229654D02*
X237654D01*
X229654Y21466D02*
Y25866D01*
X237354Y22266D02*
X245354D01*
Y26667D01*
X237354D02*
X245354D01*
X237354Y22266D02*
Y26667D01*
X260354Y52966D02*
X268354D01*
Y57367D01*
X260354D02*
X268354D01*
X260354Y52966D02*
Y57367D01*
Y49266D02*
X268354D01*
Y53667D01*
X260354D02*
X268354D01*
X260354Y49266D02*
Y53667D01*
Y42867D02*
X268354D01*
Y47267D01*
X260354D02*
X268354D01*
X260354Y42867D02*
Y47267D01*
Y39167D02*
X268354D01*
Y43567D01*
X260354D02*
X268354D01*
X260354Y39167D02*
Y43567D01*
Y32667D02*
X268354D01*
Y37067D01*
X260354D02*
X268354D01*
X260354Y32667D02*
Y37067D01*
Y29067D02*
X268354D01*
Y33467D01*
X260354D02*
X268354D01*
X260354Y29067D02*
Y33467D01*
X187979Y20704D02*
Y25429D01*
Y20704D02*
X188964D01*
Y19917D02*
Y20704D01*
Y19917D02*
X190145D01*
Y20704D01*
X191129D01*
Y25429D01*
X190145D02*
X191129D01*
X190145D02*
Y26216D01*
X188964D02*
X190145D01*
X188964Y25429D02*
Y26216D01*
X187979Y25429D02*
X188964D01*
X191129Y20704D02*
Y25429D01*
X187979D02*
X191129D01*
X187979Y20704D02*
Y25429D01*
Y20704D02*
X191129D01*
X213554Y59667D02*
X226354D01*
Y67067D01*
X213554D02*
X226354D01*
X213554Y59667D02*
Y67067D01*
X288254Y51967D02*
X296254D01*
Y56366D01*
X288254D02*
X296254D01*
X288254Y51967D02*
Y56366D01*
X295054Y51967D02*
X303054D01*
Y56366D01*
X295054D02*
X303054D01*
X295054Y51967D02*
Y56366D01*
X306254Y41567D02*
Y49567D01*
X301854D02*
X306254D01*
X301854Y41567D02*
Y49567D01*
Y41567D02*
X306254D01*
X279654Y57367D02*
Y65367D01*
X275254D02*
X279654D01*
X275254Y57367D02*
Y65367D01*
Y57367D02*
X279654D01*
X281454Y51967D02*
X289454D01*
Y56366D01*
X281454D02*
X289454D01*
X281454Y51967D02*
Y56366D01*
X288154Y82766D02*
Y90767D01*
X283754D02*
X288154D01*
X283754Y82766D02*
Y90767D01*
Y82766D02*
X288154D01*
X229654Y22667D02*
X237654D01*
X229654Y18267D02*
Y22667D01*
Y18267D02*
X237654D01*
Y22667D01*
X304154Y82766D02*
Y90767D01*
X299754D02*
X304154D01*
X299754Y82766D02*
Y90767D01*
Y82766D02*
X304154D01*
X300954D02*
Y90767D01*
X296554D02*
X300954D01*
X296554Y82766D02*
Y90767D01*
Y82766D02*
X300954D01*
X297754D02*
Y90767D01*
X293354D02*
X297754D01*
X293354Y82766D02*
Y90767D01*
Y82766D02*
X297754D01*
X314554Y71166D02*
Y79167D01*
Y71166D02*
X318954D01*
Y79167D01*
X314554D02*
X318954D01*
X252054Y59367D02*
Y67366D01*
X247654D02*
X252054D01*
X247654Y59367D02*
Y67366D01*
Y59367D02*
X252054D01*
X248854D02*
Y67366D01*
X244454D02*
X248854D01*
X244454Y59367D02*
Y67366D01*
Y59367D02*
X248854D01*
X245654D02*
Y67366D01*
X241254D02*
X245654D01*
X241254Y59367D02*
Y67366D01*
Y59367D02*
X245654D01*
X242454D02*
Y67366D01*
X238054D02*
X242454D01*
X238054Y59367D02*
Y67366D01*
Y59367D02*
X242454D01*
X239254D02*
Y67366D01*
X234854D02*
X239254D01*
X234854Y59367D02*
Y67366D01*
Y59367D02*
X239254D01*
X236054D02*
Y67366D01*
X231654D02*
X236054D01*
X231654Y59367D02*
Y67366D01*
Y59367D02*
X236054D01*
X232854D02*
Y67366D01*
X228454D02*
X232854D01*
X228454Y59367D02*
Y67366D01*
Y59367D02*
X232854D01*
X213354Y45867D02*
X221354D01*
Y50266D01*
X213354D02*
X221354D01*
X213354Y45867D02*
Y50266D01*
X255854Y46066D02*
X263854D01*
Y50467D01*
X255854D02*
X263854D01*
X255854Y46066D02*
Y50467D01*
X213354Y42667D02*
X221354D01*
Y47067D01*
X213354D02*
X221354D01*
X213354Y42667D02*
Y47067D01*
Y39467D02*
X221354D01*
Y43867D01*
X213354D02*
X221354D01*
X213354Y39467D02*
Y43867D01*
X255854Y35967D02*
X263854D01*
Y40367D01*
X255854D02*
X263854D01*
X255854Y35967D02*
Y40367D01*
X254954Y20166D02*
Y28166D01*
Y20166D02*
X259354D01*
Y28166D01*
X254954D02*
X259354D01*
X219354Y17866D02*
Y25866D01*
X214954D02*
X219354D01*
X214954Y17866D02*
Y25866D01*
Y17866D02*
X219354D01*
X237354Y22266D02*
X245354D01*
X237354Y17866D02*
Y22266D01*
Y17866D02*
X245354D01*
Y22266D01*
X229654Y18367D02*
Y26366D01*
X225254D02*
X229654D01*
X225254Y18367D02*
Y26366D01*
Y18367D02*
X229654D01*
X225754Y17866D02*
Y25866D01*
X221354D02*
X225754D01*
X221354Y17866D02*
Y25866D01*
Y17866D02*
X225754D01*
X222554D02*
Y25866D01*
X218154D02*
X222554D01*
X218154Y17866D02*
Y25866D01*
Y17866D02*
X222554D01*
X244154Y26667D02*
X252154D01*
X244154Y22266D02*
Y26667D01*
Y22266D02*
X252154D01*
Y26667D01*
X255854Y49266D02*
Y57266D01*
Y49266D02*
X260254D01*
Y57266D01*
X255854D02*
X260254D01*
X255854Y39266D02*
Y47267D01*
Y39266D02*
X260254D01*
Y47267D01*
X255854D02*
X260254D01*
Y29067D02*
Y37067D01*
X255854D02*
X260254D01*
X255854Y29067D02*
Y37067D01*
Y29067D02*
X260254D01*
X269554Y45467D02*
Y53466D01*
Y45467D02*
X273954D01*
Y53466D01*
X269554D02*
X273954D01*
X269554Y35467D02*
Y43466D01*
Y35467D02*
X273954D01*
Y43466D01*
X269554D02*
X273954D01*
X269554Y26366D02*
Y34367D01*
Y26366D02*
X273954D01*
Y34367D01*
X269554D02*
X273954D01*
X276854Y43167D02*
X284854D01*
X276854Y38767D02*
Y43167D01*
Y38767D02*
X284854D01*
Y43167D01*
X301854Y27867D02*
Y35866D01*
Y27867D02*
X306254D01*
Y35866D01*
X301854D02*
X306254D01*
X273454Y56366D02*
X281454D01*
X273454Y51967D02*
Y56366D01*
Y51967D02*
X281454D01*
Y56366D01*
X252454Y122566D02*
X260454D01*
Y126967D01*
X252454D02*
X260454D01*
X252454Y122566D02*
Y126967D01*
X265954D02*
X273954D01*
X265954Y122566D02*
Y126967D01*
Y122566D02*
X273954D01*
Y126967D01*
X218554Y92466D02*
X226554D01*
Y96867D01*
X218554D02*
X226554D01*
X218554Y92466D02*
Y96867D01*
X184054Y27167D02*
X192054D01*
Y31567D01*
X184054D02*
X192054D01*
X184054Y27167D02*
Y31567D01*
X213354Y50567D02*
X221354D01*
Y54966D01*
X213354D02*
X221354D01*
X213354Y50567D02*
Y54966D01*
Y53767D02*
X221354D01*
Y58166D01*
X213354D02*
X221354D01*
X213354Y53767D02*
Y58166D01*
X218454Y123266D02*
X226454D01*
X218454Y118867D02*
Y123266D01*
Y118867D02*
X226454D01*
Y123266D01*
X170354Y111167D02*
X178354D01*
X170354Y106766D02*
Y111167D01*
Y106766D02*
X178354D01*
Y111167D01*
X170354Y107466D02*
X178354D01*
X170354Y103067D02*
Y107466D01*
Y103067D02*
X178354D01*
Y107466D01*
X170249Y127854D02*
X181049D01*
X170249Y122254D02*
Y127854D01*
Y122254D02*
X181049D01*
Y127854D01*
X171854Y77867D02*
Y88666D01*
Y77867D02*
X177454D01*
Y88666D01*
X171854D02*
X177454D01*
X187349Y114154D02*
Y126953D01*
X179949D02*
X187349D01*
X179949Y114154D02*
Y126953D01*
Y114154D02*
X187349D01*
X189254Y120167D02*
X202054D01*
X189254Y112767D02*
Y120167D01*
Y112767D02*
X202054D01*
Y120167D01*
X177504Y110366D02*
Y123167D01*
X170104D02*
X177504D01*
X170104Y110366D02*
Y123167D01*
Y110366D02*
X177504D01*
X201454Y120066D02*
X214254D01*
X201454Y112666D02*
Y120066D01*
Y112666D02*
X214254D01*
Y120066D01*
X206254Y54066D02*
Y66866D01*
Y54066D02*
X213654D01*
Y66866D01*
X206254D02*
X213654D01*
X218559Y104437D02*
X226559D01*
X218559Y100038D02*
Y104437D01*
Y100038D02*
X226559D01*
Y104437D01*
X228454Y126666D02*
X236454D01*
X228454Y122266D02*
Y126666D01*
Y122266D02*
X236454D01*
Y126666D01*
X218554Y85767D02*
X226554D01*
X218554Y81366D02*
Y85767D01*
Y81366D02*
X226554D01*
Y85767D01*
X245654Y126967D02*
X253654D01*
X245654Y122566D02*
Y126967D01*
Y122566D02*
X253654D01*
Y126967D01*
X178354Y95467D02*
Y103466D01*
X173954D02*
X178354D01*
X173954Y95467D02*
Y103466D01*
Y95467D02*
X178354D01*
X187654Y30367D02*
Y38366D01*
Y30367D02*
X192054D01*
Y38366D01*
X187654D02*
X192054D01*
X170454Y69367D02*
X178454D01*
Y73766D01*
X170454D02*
X178454D01*
X170454Y69367D02*
Y73766D01*
X219854Y118867D02*
Y126866D01*
X215454D02*
X219854D01*
X215454Y118867D02*
Y126866D01*
Y118867D02*
X219854D01*
X215254Y112066D02*
Y120066D01*
Y112066D02*
X219654D01*
Y120066D01*
X215254D02*
X219654D01*
X224154Y111866D02*
Y119867D01*
X219754D02*
X224154D01*
X219754Y111866D02*
Y119867D01*
Y111866D02*
X224154D01*
X171802Y159918D02*
X179802D01*
X171802Y155518D02*
Y159918D01*
Y155518D02*
X179802D01*
Y159918D01*
X267949Y136752D02*
Y144753D01*
X263549D02*
X267949D01*
X263549Y136752D02*
Y144753D01*
Y136752D02*
X267949D01*
X131441Y129572D02*
X156244D01*
X131441D02*
Y136462D01*
X129866D02*
X131441D01*
X129866D02*
Y162053D01*
X131441D01*
Y168942D01*
X156244D01*
Y162053D02*
Y168942D01*
Y162053D02*
X157819D01*
Y136462D02*
Y162053D01*
X156244Y136462D02*
X157819D01*
X156244Y129572D02*
Y136462D01*
X322924Y25240D02*
X354420D01*
X322924D02*
Y56736D01*
X354420D01*
Y25240D02*
Y56736D01*
X39908Y3937D02*
Y74016D01*
X159002D01*
Y3937D02*
Y74016D01*
X39908Y3937D02*
X159002D01*
X228109Y165520D02*
X232046D01*
X218660Y168079D02*
X228109Y165520D01*
X209211D02*
X218660Y168079D01*
X205274Y165520D02*
X209211D01*
X205274Y132056D02*
Y165520D01*
Y132056D02*
X232046D01*
Y165520D01*
X124193Y129572D02*
Y136462D01*
X125768D01*
Y162053D01*
X124193D02*
X125768D01*
X124193D02*
Y168942D01*
X99390D02*
X124193D01*
X99390Y162053D02*
Y168942D01*
X97815Y162053D02*
X99390D01*
X97815Y136462D02*
Y162053D01*
Y136462D02*
X99390D01*
Y129572D02*
Y136462D01*
Y129572D02*
X124193D01*
X192398Y161133D02*
Y169133D01*
X187998D02*
X192398D01*
X187998Y161133D02*
Y169133D01*
Y161133D02*
X192398D01*
X197728D02*
Y169133D01*
X193328D02*
X197728D01*
X193328Y161133D02*
Y169133D01*
Y161133D02*
X197728D01*
X140754Y114051D02*
X148754D01*
X140754Y109651D02*
Y114051D01*
Y109651D02*
X148754D01*
Y114051D01*
X140782Y108938D02*
X148782D01*
X140782Y104537D02*
Y108938D01*
Y104537D02*
X148782D01*
Y108938D01*
X128881Y128418D02*
X136881D01*
X128881Y124018D02*
Y128418D01*
Y124018D02*
X136881D01*
Y128418D01*
X130849Y101115D02*
X138849D01*
Y105515D01*
X130849D02*
X138849D01*
X130849Y101115D02*
Y105515D01*
X130581Y118187D02*
X138581D01*
Y122587D01*
X130581D02*
X138581D01*
X130581Y118187D02*
Y122587D01*
X198659Y150967D02*
Y158967D01*
Y150967D02*
X203059D01*
Y158967D01*
X198659D02*
X203059D01*
Y161133D02*
Y169133D01*
X198659D02*
X203059D01*
X198659Y161133D02*
Y169133D01*
Y161133D02*
X203059D01*
X187067D02*
Y169133D01*
X182667D02*
X187067D01*
X182667Y161133D02*
Y169133D01*
Y161133D02*
X187067D01*
X253795Y161134D02*
Y169134D01*
Y161134D02*
X258195D01*
Y169134D01*
X253795D02*
X258195D01*
X278833Y171134D02*
Y179134D01*
Y171134D02*
X283233D01*
Y179134D01*
X278833D02*
X283233D01*
X298833Y171134D02*
Y179134D01*
Y171134D02*
X303233D01*
Y179134D01*
X298833D02*
X303233D01*
X308833Y171134D02*
Y179134D01*
Y171134D02*
X313233D01*
Y179134D01*
X308833D02*
X313233D01*
X232702Y161134D02*
Y169134D01*
Y161134D02*
X237102D01*
Y169134D01*
X232702D02*
X237102D01*
X248764Y161134D02*
Y169134D01*
Y161134D02*
X253164D01*
Y169134D01*
X248764D02*
X253164D01*
X237733Y161134D02*
Y169134D01*
Y161134D02*
X242133D01*
Y169134D01*
X237733D02*
X242133D01*
X112495Y177952D02*
Y186626D01*
Y177952D02*
X121562D01*
Y186626D01*
X112495D02*
X121562D01*
X121594Y185140D02*
X124350Y186124D01*
Y184155D02*
Y186124D01*
X121594Y185140D02*
X124350Y184155D01*
X310954Y38787D02*
X318954D01*
Y43187D01*
X310954D02*
X318954D01*
X310954Y38787D02*
Y43187D01*
X110994Y183620D02*
Y191620D01*
X106594D02*
X110994D01*
X106594Y183620D02*
Y191620D01*
Y183620D02*
X110994D01*
X106594Y174620D02*
Y182620D01*
Y174620D02*
X110994D01*
Y182620D01*
X106594D02*
X110994D01*
X163002Y159918D02*
X171002D01*
X163002Y155518D02*
Y159918D01*
Y155518D02*
X171002D01*
Y159918D01*
X180802Y159918D02*
X188802D01*
X180802Y155518D02*
Y159918D01*
Y155518D02*
X188802D01*
Y159918D01*
X161303Y18276D02*
Y26276D01*
Y18276D02*
X165703D01*
Y26276D01*
X161303D02*
X165703D01*
X127345Y107583D02*
Y115583D01*
X122945D02*
X127345D01*
X122945Y107583D02*
Y115583D01*
Y107583D02*
X127345D01*
X127479Y118087D02*
Y126087D01*
X123079D02*
X127479D01*
X123079Y118087D02*
Y126087D01*
Y118087D02*
X127479D01*
X122945Y97615D02*
Y105615D01*
Y97615D02*
X127345D01*
Y105615D01*
X122945D02*
X127345D01*
X140817Y114620D02*
X148817D01*
Y119020D01*
X140817D02*
X148817D01*
X140817Y114620D02*
Y119020D01*
X170902Y161070D02*
Y169070D01*
X166502D02*
X170902D01*
X166502Y161070D02*
Y169070D01*
Y161070D02*
X170902D01*
X161102D02*
Y169070D01*
Y161070D02*
X165502D01*
Y169070D01*
X161102D02*
X165502D01*
X181702Y161070D02*
Y169070D01*
X177302D02*
X181702D01*
X177302Y161070D02*
Y169070D01*
Y161070D02*
X181702D01*
X171902D02*
Y169070D01*
Y161070D02*
X176302D01*
Y169070D01*
X171902D02*
X176302D01*
X187669Y154171D02*
X187788Y154409D01*
X188026Y154647D01*
X188264Y154766D01*
X188740D01*
X188978Y154647D01*
X189216Y154409D01*
X189335Y154171D01*
X189454Y153814D01*
Y153219D01*
X189335Y152862D01*
X189216Y152624D01*
X188978Y152386D01*
X188740Y152267D01*
X188264D01*
X188026Y152386D01*
X187788Y152624D01*
X187669Y152862D01*
X186729Y154766D02*
X185419D01*
X186134Y153814D01*
X185777D01*
X185538Y153695D01*
X185419Y153576D01*
X185301Y153219D01*
Y152981D01*
X185419Y152624D01*
X185658Y152386D01*
X186015Y152267D01*
X186372D01*
X186729Y152386D01*
X186848Y152505D01*
X186967Y152743D01*
X184741Y154290D02*
X184503Y154409D01*
X184146Y154766D01*
Y152267D01*
X182194Y154766D02*
X182551Y154647D01*
X182789Y154290D01*
X182908Y153695D01*
Y153338D01*
X182789Y152743D01*
X182551Y152386D01*
X182194Y152267D01*
X181956D01*
X181599Y152386D01*
X181361Y152743D01*
X181242Y153338D01*
Y153695D01*
X181361Y154290D01*
X181599Y154647D01*
X181956Y154766D01*
X182194D01*
X168464Y153871D02*
X168583Y154109D01*
X168821Y154347D01*
X169059Y154466D01*
X169535D01*
X169773Y154347D01*
X170011Y154109D01*
X170130Y153871D01*
X170249Y153514D01*
Y152919D01*
X170130Y152562D01*
X170011Y152324D01*
X169773Y152086D01*
X169535Y151967D01*
X169059D01*
X168821Y152086D01*
X168583Y152324D01*
X168464Y152562D01*
X167524Y154466D02*
X166215D01*
X166929Y153514D01*
X166572D01*
X166333Y153395D01*
X166215Y153276D01*
X166095Y152919D01*
Y152681D01*
X166215Y152324D01*
X166453Y152086D01*
X166810Y151967D01*
X167167D01*
X167524Y152086D01*
X167643Y152205D01*
X167762Y152443D01*
X165536Y153990D02*
X165298Y154109D01*
X164941Y154466D01*
Y151967D01*
X162275Y154466D02*
X163465D01*
X163584Y153395D01*
X163465Y153514D01*
X163108Y153633D01*
X162751D01*
X162394Y153514D01*
X162156Y153276D01*
X162037Y152919D01*
Y152681D01*
X162156Y152324D01*
X162394Y152086D01*
X162751Y151967D01*
X163108D01*
X163465Y152086D01*
X163584Y152205D01*
X163703Y152443D01*
X187754Y142867D02*
X185254D01*
X187754D02*
Y143700D01*
X187635Y144057D01*
X187397Y144295D01*
X187159Y144414D01*
X186802Y144533D01*
X186206D01*
X185849Y144414D01*
X185611Y144295D01*
X185373Y144057D01*
X185254Y143700D01*
Y142867D01*
X187754Y145330D02*
Y146640D01*
X186802Y145925D01*
Y146282D01*
X186683Y146520D01*
X186564Y146640D01*
X186206Y146759D01*
X185968D01*
X185611Y146640D01*
X185373Y146402D01*
X185254Y146044D01*
Y145687D01*
X185373Y145330D01*
X185492Y145211D01*
X185730Y145092D01*
X187754Y148032D02*
X187635Y147675D01*
X187278Y147437D01*
X186683Y147318D01*
X186326D01*
X185730Y147437D01*
X185373Y147675D01*
X185254Y148032D01*
Y148270D01*
X185373Y148627D01*
X185730Y148865D01*
X186326Y148984D01*
X186683D01*
X187278Y148865D01*
X187635Y148627D01*
X187754Y148270D01*
Y148032D01*
X186921Y151091D02*
X186564Y150972D01*
X186326Y150734D01*
X186206Y150377D01*
Y150258D01*
X186326Y149901D01*
X186564Y149663D01*
X186921Y149544D01*
X187040D01*
X187397Y149663D01*
X187635Y149901D01*
X187754Y150258D01*
Y150377D01*
X187635Y150734D01*
X187397Y150972D01*
X186921Y151091D01*
X186326D01*
X185730Y150972D01*
X185373Y150734D01*
X185254Y150377D01*
Y150139D01*
X185373Y149782D01*
X185611Y149663D01*
X229454Y170666D02*
Y168166D01*
Y170666D02*
X228383D01*
X228026Y170547D01*
X227907Y170428D01*
X227788Y170190D01*
Y169952D01*
X227907Y169714D01*
X228026Y169595D01*
X228383Y169476D01*
X229454D01*
X228621D02*
X227788Y168166D01*
X227229Y170190D02*
X226991Y170309D01*
X226634Y170666D01*
Y168166D01*
X224682Y170666D02*
X225039Y170547D01*
X225277Y170190D01*
X225396Y169595D01*
Y169238D01*
X225277Y168643D01*
X225039Y168286D01*
X224682Y168166D01*
X224444D01*
X224086Y168286D01*
X223848Y168643D01*
X223729Y169238D01*
Y169595D01*
X223848Y170190D01*
X224086Y170547D01*
X224444Y170666D01*
X224682D01*
X222932D02*
X221623D01*
X222337Y169714D01*
X221980D01*
X221742Y169595D01*
X221623Y169476D01*
X221504Y169119D01*
Y168881D01*
X221623Y168524D01*
X221861Y168286D01*
X222218Y168166D01*
X222575D01*
X222932Y168286D01*
X223051Y168405D01*
X223170Y168643D01*
X179854Y154566D02*
Y152067D01*
Y154566D02*
X178783D01*
X178426Y154447D01*
X178307Y154328D01*
X178188Y154090D01*
Y153852D01*
X178307Y153614D01*
X178426Y153495D01*
X178783Y153376D01*
X179854D01*
X179021D02*
X178188Y152067D01*
X177391Y154566D02*
X176081D01*
X176795Y153614D01*
X176438D01*
X176200Y153495D01*
X176081Y153376D01*
X175962Y153019D01*
Y152781D01*
X176081Y152424D01*
X176319Y152186D01*
X176676Y152067D01*
X177033D01*
X177391Y152186D01*
X177510Y152305D01*
X177629Y152543D01*
X175284Y153971D02*
Y154090D01*
X175165Y154328D01*
X175046Y154447D01*
X174808Y154566D01*
X174332D01*
X174094Y154447D01*
X173975Y154328D01*
X173856Y154090D01*
Y153852D01*
X173975Y153614D01*
X174213Y153257D01*
X175403Y152067D01*
X173737D01*
X173058Y153971D02*
Y154090D01*
X172939Y154328D01*
X172820Y154447D01*
X172582Y154566D01*
X172106D01*
X171868Y154447D01*
X171749Y154328D01*
X171630Y154090D01*
Y153852D01*
X171749Y153614D01*
X171987Y153257D01*
X173177Y152067D01*
X171511D01*
X191754Y142867D02*
X189254D01*
X191754D02*
Y143938D01*
X191635Y144295D01*
X191516Y144414D01*
X191278Y144533D01*
X191040D01*
X190802Y144414D01*
X190683Y144295D01*
X190564Y143938D01*
Y142867D01*
Y143700D02*
X189254Y144533D01*
X191754Y145330D02*
Y146640D01*
X190802Y145925D01*
Y146282D01*
X190683Y146520D01*
X190564Y146640D01*
X190207Y146759D01*
X189969D01*
X189611Y146640D01*
X189373Y146402D01*
X189254Y146044D01*
Y145687D01*
X189373Y145330D01*
X189492Y145211D01*
X189730Y145092D01*
X191754Y147556D02*
Y148865D01*
X190802Y148151D01*
Y148508D01*
X190683Y148746D01*
X190564Y148865D01*
X190207Y148984D01*
X189969D01*
X189611Y148865D01*
X189373Y148627D01*
X189254Y148270D01*
Y147913D01*
X189373Y147556D01*
X189492Y147437D01*
X189730Y147318D01*
X191754Y150258D02*
X191635Y149901D01*
X191278Y149663D01*
X190683Y149544D01*
X190325D01*
X189730Y149663D01*
X189373Y149901D01*
X189254Y150258D01*
Y150496D01*
X189373Y150853D01*
X189730Y151091D01*
X190325Y151210D01*
X190683D01*
X191278Y151091D01*
X191635Y150853D01*
X191754Y150496D01*
Y150258D01*
G54D85*
X161259Y145352D02*
X158593D01*
X159926Y146685D02*
Y144019D01*
G54D149*
X283607Y43488D02*
G03*
X283607Y43488I-502J0D01*
G01*
Y33488D02*
G03*
X283607Y33488I-502J0D01*
G01*
Y25388D02*
G03*
X283607Y25388I-502J0D01*
G01*
X298454Y22973D02*
G03*
X298454Y22973I-100J0D01*
G01*
X181468Y42173D02*
X207168D01*
Y15574D02*
Y42173D01*
X203968Y50073D02*
Y69774D01*
X276368D01*
Y93173D01*
X322768D01*
Y93224D02*
Y129574D01*
X168468D02*
X322768D01*
X168468Y42173D02*
Y129574D01*
Y42173D02*
X181668D01*
Y15473D02*
Y42173D01*
Y15473D02*
X308368D01*
Y66673D01*
X322768D01*
Y93173D01*
X222880Y55865D02*
Y57341D01*
X224356D01*
X249553D02*
X251029D01*
Y55865D02*
Y57341D01*
Y29192D02*
Y30668D01*
X249553Y29192D02*
X251029D01*
X222880D02*
X224356D01*
X222880D02*
Y30668D01*
X274920Y123671D02*
X278443Y127195D01*
X178673Y71985D02*
Y111748D01*
Y71985D02*
X218436D01*
Y111748D01*
X178673D02*
X218436D01*
X178673Y107418D02*
X182905Y111650D01*
X278723Y83341D02*
X279510Y82554D01*
X305942Y75311D02*
X306729Y76098D01*
X299898Y25929D02*
X300095D01*
Y21204D02*
Y25929D01*
X299898Y21204D02*
X300095D01*
X292614D02*
X292811D01*
X292614D02*
Y25929D01*
X292811D01*
G54D150*
X130644Y107914D02*
Y115788D01*
Y107914D02*
X138518D01*
Y115788D01*
X130644D02*
X138518D01*
X193064Y142160D02*
Y144719D01*
Y142160D02*
X195426D01*
Y139502D02*
Y142160D01*
Y139502D02*
X200150D01*
Y140191D01*
X202513D01*
Y146687D01*
X200150D02*
X202513D01*
X200150D02*
Y147376D01*
X195426D02*
X200150D01*
X195426Y144719D02*
Y147376D01*
X193064Y144719D02*
X195426D01*
X93878Y173305D02*
Y181376D01*
Y173305D02*
X96142D01*
Y172222D02*
Y173305D01*
Y172222D02*
X103032D01*
Y173305D01*
X105295D01*
Y181376D01*
X103032D02*
X105295D01*
X103032D02*
Y182458D01*
X96142D02*
X103032D01*
X96142Y181376D02*
Y182458D01*
X93878Y181376D02*
X96142D01*
X192670Y148475D02*
Y159105D01*
X197395D01*
Y148475D02*
Y159105D01*
X192670Y148475D02*
X197395D01*
G54D151*
X164340Y9209D02*
X164625Y9066D01*
X164911Y8781D01*
X165054Y8495D01*
Y7924D01*
X164911Y7638D01*
X164625Y7352D01*
X164340Y7209D01*
X163911Y7067D01*
X163197D01*
X162768Y7209D01*
X162483Y7352D01*
X162197Y7638D01*
X162054Y7924D01*
Y8495D01*
X162197Y8781D01*
X162483Y9066D01*
X162768Y9209D01*
X165054Y10337D02*
Y11908D01*
X163911Y11051D01*
Y11480D01*
X163768Y11766D01*
X163625Y11908D01*
X163197Y12051D01*
X162911D01*
X162483Y11908D01*
X162197Y11623D01*
X162054Y11194D01*
Y10766D01*
X162197Y10337D01*
X162340Y10194D01*
X162626Y10052D01*
X165054Y13579D02*
X164911Y13151D01*
X164482Y12865D01*
X163768Y12722D01*
X163340D01*
X162626Y12865D01*
X162197Y13151D01*
X162054Y13579D01*
Y13865D01*
X162197Y14294D01*
X162626Y14579D01*
X163340Y14722D01*
X163768D01*
X164482Y14579D01*
X164911Y14294D01*
X165054Y13865D01*
Y13579D01*
X164625Y17107D02*
X164911Y16964D01*
X165054Y16536D01*
Y16250D01*
X164911Y15822D01*
X164482Y15536D01*
X163768Y15393D01*
X163054D01*
X162483Y15536D01*
X162197Y15822D01*
X162054Y16250D01*
Y16393D01*
X162197Y16822D01*
X162483Y17107D01*
X162911Y17250D01*
X163054D01*
X163483Y17107D01*
X163768Y16822D01*
X163911Y16393D01*
Y16250D01*
X163768Y15822D01*
X163483Y15536D01*
X163054Y15393D01*
X80889Y109225D02*
X81174Y109082D01*
X81460Y108797D01*
X81603Y108511D01*
Y107940D01*
X81460Y107654D01*
X81174Y107368D01*
X80889Y107225D01*
X80460Y107082D01*
X79746D01*
X79317Y107225D01*
X79032Y107368D01*
X78746Y107654D01*
X78603Y107940D01*
Y108511D01*
X78746Y108797D01*
X79032Y109082D01*
X79317Y109225D01*
X81603Y110353D02*
Y111924D01*
X80460Y111067D01*
Y111496D01*
X80317Y111782D01*
X80174Y111924D01*
X79746Y112067D01*
X79460D01*
X79032Y111924D01*
X78746Y111639D01*
X78603Y111210D01*
Y110782D01*
X78746Y110353D01*
X78889Y110210D01*
X79175Y110068D01*
X81031Y112739D02*
X81174Y113024D01*
X81603Y113453D01*
X78603D01*
X80889Y115081D02*
X81031D01*
X81317Y115224D01*
X81460Y115366D01*
X81603Y115652D01*
Y116223D01*
X81460Y116509D01*
X81317Y116652D01*
X81031Y116795D01*
X80746D01*
X80460Y116652D01*
X80032Y116366D01*
X78603Y114938D01*
Y116938D01*
X86431Y109225D02*
X86717Y109082D01*
X87003Y108797D01*
X87146Y108511D01*
Y107940D01*
X87003Y107654D01*
X86717Y107368D01*
X86431Y107225D01*
X86003Y107082D01*
X85289D01*
X84860Y107225D01*
X84575Y107368D01*
X84289Y107654D01*
X84146Y107940D01*
Y108511D01*
X84289Y108797D01*
X84575Y109082D01*
X84860Y109225D01*
X87146Y110353D02*
Y111924D01*
X86003Y111067D01*
Y111496D01*
X85860Y111782D01*
X85717Y111924D01*
X85289Y112067D01*
X85003D01*
X84575Y111924D01*
X84289Y111639D01*
X84146Y111210D01*
Y110782D01*
X84289Y110353D01*
X84432Y110210D01*
X84718Y110068D01*
X86574Y112739D02*
X86717Y113024D01*
X87146Y113453D01*
X84146D01*
X87146Y116366D02*
X85146Y114938D01*
Y117080D01*
X87146Y116366D02*
X84146D01*
X69640Y109225D02*
X69925Y109082D01*
X70211Y108797D01*
X70354Y108511D01*
Y107940D01*
X70211Y107654D01*
X69925Y107368D01*
X69640Y107225D01*
X69211Y107082D01*
X68497D01*
X68068Y107225D01*
X67783Y107368D01*
X67497Y107654D01*
X67354Y107940D01*
Y108511D01*
X67497Y108797D01*
X67783Y109082D01*
X68068Y109225D01*
X70354Y110353D02*
Y111924D01*
X69211Y111067D01*
Y111496D01*
X69068Y111782D01*
X68925Y111924D01*
X68497Y112067D01*
X68211D01*
X67783Y111924D01*
X67497Y111639D01*
X67354Y111210D01*
Y110782D01*
X67497Y110353D01*
X67640Y110210D01*
X67926Y110068D01*
X69782Y112739D02*
X69925Y113024D01*
X70354Y113453D01*
X67354D01*
X69925Y116652D02*
X70211Y116509D01*
X70354Y116081D01*
Y115795D01*
X70211Y115366D01*
X69782Y115081D01*
X69068Y114938D01*
X68354D01*
X67783Y115081D01*
X67497Y115366D01*
X67354Y115795D01*
Y115938D01*
X67497Y116366D01*
X67783Y116652D01*
X68211Y116795D01*
X68354D01*
X68783Y116652D01*
X69068Y116366D01*
X69211Y115938D01*
Y115795D01*
X69068Y115366D01*
X68783Y115081D01*
X68354Y114938D01*
X149240Y102023D02*
X149382Y102308D01*
X149668Y102594D01*
X149954Y102737D01*
X150525D01*
X150811Y102594D01*
X151096Y102308D01*
X151239Y102023D01*
X151382Y101594D01*
Y100880D01*
X151239Y100452D01*
X151096Y100166D01*
X150811Y99880D01*
X150525Y99738D01*
X149954D01*
X149668Y99880D01*
X149382Y100166D01*
X149240Y100452D01*
X148111Y102737D02*
X146540D01*
X147397Y101594D01*
X146969D01*
X146683Y101451D01*
X146540Y101309D01*
X146397Y100880D01*
Y100594D01*
X146540Y100166D01*
X146826Y99880D01*
X147254Y99738D01*
X147683D01*
X148111Y99880D01*
X148254Y100023D01*
X148397Y100309D01*
X145726Y102166D02*
X145440Y102308D01*
X145012Y102737D01*
Y99738D01*
X141670Y101737D02*
X141813Y101309D01*
X142098Y101023D01*
X142527Y100880D01*
X142669D01*
X143098Y101023D01*
X143384Y101309D01*
X143526Y101737D01*
Y101880D01*
X143384Y102308D01*
X143098Y102594D01*
X142669Y102737D01*
X142527D01*
X142098Y102594D01*
X141813Y102308D01*
X141670Y101737D01*
Y101023D01*
X141813Y100309D01*
X142098Y99880D01*
X142527Y99738D01*
X142812D01*
X143241Y99880D01*
X143384Y100166D01*
X201892Y134452D02*
X202035Y134737D01*
X202320Y135023D01*
X202606Y135166D01*
X203177D01*
X203463Y135023D01*
X203749Y134737D01*
X203891Y134452D01*
X204034Y134023D01*
Y133309D01*
X203891Y132881D01*
X203749Y132595D01*
X203463Y132309D01*
X203177Y132167D01*
X202606D01*
X202320Y132309D01*
X202035Y132595D01*
X201892Y132881D01*
X200764Y135166D02*
X199193D01*
X200049Y134023D01*
X199621D01*
X199335Y133880D01*
X199193Y133738D01*
X199050Y133309D01*
Y133024D01*
X199193Y132595D01*
X199478Y132309D01*
X199907Y132167D01*
X200335D01*
X200764Y132309D01*
X200906Y132452D01*
X201049Y132738D01*
X198236Y134452D02*
Y134595D01*
X198093Y134880D01*
X197950Y135023D01*
X197664Y135166D01*
X197093D01*
X196807Y135023D01*
X196665Y134880D01*
X196522Y134595D01*
Y134309D01*
X196665Y134023D01*
X196950Y133595D01*
X198378Y132167D01*
X196379D01*
X195422Y135166D02*
X193851D01*
X194708Y134023D01*
X194279D01*
X193994Y133880D01*
X193851Y133738D01*
X193708Y133309D01*
Y133024D01*
X193851Y132595D01*
X194136Y132309D01*
X194565Y132167D01*
X194993D01*
X195422Y132309D01*
X195565Y132452D01*
X195707Y132738D01*
X120740Y108109D02*
X121025Y107966D01*
X121311Y107680D01*
X121454Y107395D01*
Y106824D01*
X121311Y106538D01*
X121025Y106252D01*
X120740Y106109D01*
X120311Y105966D01*
X119597D01*
X119168Y106109D01*
X118883Y106252D01*
X118597Y106538D01*
X118454Y106824D01*
Y107395D01*
X118597Y107680D01*
X118883Y107966D01*
X119168Y108109D01*
X121454Y109237D02*
Y110808D01*
X120311Y109951D01*
Y110380D01*
X120168Y110666D01*
X120025Y110808D01*
X119597Y110951D01*
X119311D01*
X118883Y110808D01*
X118597Y110523D01*
X118454Y110094D01*
Y109666D01*
X118597Y109237D01*
X118740Y109094D01*
X119026Y108952D01*
X121454Y111908D02*
Y113479D01*
X120311Y112622D01*
Y113051D01*
X120168Y113336D01*
X120025Y113479D01*
X119597Y113622D01*
X119311D01*
X118883Y113479D01*
X118597Y113194D01*
X118454Y112765D01*
Y112337D01*
X118597Y111908D01*
X118740Y111765D01*
X119026Y111623D01*
X121454Y115150D02*
X121311Y114722D01*
X120882Y114436D01*
X120168Y114293D01*
X119740D01*
X119026Y114436D01*
X118597Y114722D01*
X118454Y115150D01*
Y115436D01*
X118597Y115864D01*
X119026Y116150D01*
X119740Y116293D01*
X120168D01*
X120882Y116150D01*
X121311Y115864D01*
X121454Y115436D01*
Y115150D01*
X120740Y120230D02*
X121025Y120087D01*
X121311Y119801D01*
X121454Y119516D01*
Y118944D01*
X121311Y118659D01*
X121025Y118373D01*
X120740Y118230D01*
X120311Y118087D01*
X119597D01*
X119168Y118230D01*
X118883Y118373D01*
X118597Y118659D01*
X118454Y118944D01*
Y119516D01*
X118597Y119801D01*
X118883Y120087D01*
X119168Y120230D01*
X121454Y121358D02*
Y122929D01*
X120311Y122072D01*
Y122501D01*
X120168Y122786D01*
X120025Y122929D01*
X119597Y123072D01*
X119311D01*
X118883Y122929D01*
X118597Y122643D01*
X118454Y122215D01*
Y121787D01*
X118597Y121358D01*
X118740Y121215D01*
X119026Y121072D01*
X121454Y124029D02*
Y125600D01*
X120311Y124743D01*
Y125172D01*
X120168Y125457D01*
X120025Y125600D01*
X119597Y125743D01*
X119311D01*
X118883Y125600D01*
X118597Y125314D01*
X118454Y124886D01*
Y124457D01*
X118597Y124029D01*
X118740Y123886D01*
X119026Y123743D01*
X120882Y126414D02*
X121025Y126700D01*
X121454Y127128D01*
X118454D01*
X120740Y95509D02*
X121025Y95366D01*
X121311Y95081D01*
X121454Y94795D01*
Y94223D01*
X121311Y93938D01*
X121025Y93652D01*
X120740Y93509D01*
X120311Y93366D01*
X119597D01*
X119168Y93509D01*
X118883Y93652D01*
X118597Y93938D01*
X118454Y94223D01*
Y94795D01*
X118597Y95081D01*
X118883Y95366D01*
X119168Y95509D01*
X121454Y96637D02*
Y98208D01*
X120311Y97351D01*
Y97780D01*
X120168Y98066D01*
X120025Y98208D01*
X119597Y98351D01*
X119311D01*
X118883Y98208D01*
X118597Y97923D01*
X118454Y97494D01*
Y97066D01*
X118597Y96637D01*
X118740Y96494D01*
X119026Y96352D01*
X121454Y99308D02*
Y100879D01*
X120311Y100022D01*
Y100451D01*
X120168Y100736D01*
X120025Y100879D01*
X119597Y101022D01*
X119311D01*
X118883Y100879D01*
X118597Y100594D01*
X118454Y100165D01*
Y99737D01*
X118597Y99308D01*
X118740Y99165D01*
X119026Y99023D01*
X120740Y101836D02*
X120882D01*
X121168Y101979D01*
X121311Y102122D01*
X121454Y102408D01*
Y102979D01*
X121311Y103264D01*
X121168Y103407D01*
X120882Y103550D01*
X120597D01*
X120311Y103407D01*
X119883Y103122D01*
X118454Y101693D01*
Y103693D01*
X120612Y175052D02*
X120755Y175337D01*
X121040Y175623D01*
X121326Y175766D01*
X121897D01*
X122183Y175623D01*
X122469Y175337D01*
X122611Y175052D01*
X122754Y174623D01*
Y173909D01*
X122611Y173481D01*
X122469Y173195D01*
X122183Y172909D01*
X121897Y172766D01*
X121326D01*
X121040Y172909D01*
X120755Y173195D01*
X120612Y173481D01*
X119484Y175766D02*
X117912D01*
X118770Y174623D01*
X118341D01*
X118055Y174480D01*
X117912Y174338D01*
X117770Y173909D01*
Y173624D01*
X117912Y173195D01*
X118198Y172909D01*
X118627Y172766D01*
X119055D01*
X119484Y172909D01*
X119626Y173052D01*
X119769Y173338D01*
X116813Y175766D02*
X115242D01*
X116099Y174623D01*
X115670D01*
X115384Y174480D01*
X115242Y174338D01*
X115099Y173909D01*
Y173624D01*
X115242Y173195D01*
X115527Y172909D01*
X115956Y172766D01*
X116384D01*
X116813Y172909D01*
X116956Y173052D01*
X117098Y173338D01*
X112714Y175766D02*
X114142D01*
X114285Y174480D01*
X114142Y174623D01*
X113713Y174766D01*
X113285D01*
X112856Y174623D01*
X112571Y174338D01*
X112428Y173909D01*
Y173624D01*
X112571Y173195D01*
X112856Y172909D01*
X113285Y172766D01*
X113713D01*
X114142Y172909D01*
X114285Y173052D01*
X114427Y173338D01*
X104540Y185881D02*
X104825Y185739D01*
X105111Y185453D01*
X105254Y185167D01*
Y184596D01*
X105111Y184310D01*
X104825Y184025D01*
X104540Y183882D01*
X104111Y183739D01*
X103397D01*
X102969Y183882D01*
X102683Y184025D01*
X102397Y184310D01*
X102254Y184596D01*
Y185167D01*
X102397Y185453D01*
X102683Y185739D01*
X102969Y185881D01*
X105254Y187010D02*
Y188581D01*
X104111Y187724D01*
Y188152D01*
X103968Y188438D01*
X103825Y188581D01*
X103397Y188724D01*
X103111D01*
X102683Y188581D01*
X102397Y188295D01*
X102254Y187867D01*
Y187438D01*
X102397Y187010D01*
X102540Y186867D01*
X102826Y186724D01*
X104825Y191109D02*
X105111Y190966D01*
X105254Y190538D01*
Y190252D01*
X105111Y189823D01*
X104682Y189538D01*
X103968Y189395D01*
X103254D01*
X102683Y189538D01*
X102397Y189823D01*
X102254Y190252D01*
Y190395D01*
X102397Y190823D01*
X102683Y191109D01*
X103111Y191252D01*
X103254D01*
X103683Y191109D01*
X103968Y190823D01*
X104111Y190395D01*
Y190252D01*
X103968Y189823D01*
X103683Y189538D01*
X103254Y189395D01*
X105254Y192194D02*
Y193765D01*
X104111Y192908D01*
Y193337D01*
X103968Y193623D01*
X103825Y193765D01*
X103397Y193908D01*
X103111D01*
X102683Y193765D01*
X102397Y193480D01*
X102254Y193051D01*
Y192623D01*
X102397Y192194D01*
X102540Y192051D01*
X102826Y191909D01*
X318512Y47252D02*
X318655Y47537D01*
X318940Y47823D01*
X319226Y47966D01*
X319797D01*
X320083Y47823D01*
X320369Y47537D01*
X320512Y47252D01*
X320654Y46823D01*
Y46109D01*
X320512Y45681D01*
X320369Y45395D01*
X320083Y45109D01*
X319797Y44967D01*
X319226D01*
X318940Y45109D01*
X318655Y45395D01*
X318512Y45681D01*
X316241Y47966D02*
X317669Y45966D01*
X315527D01*
X316241Y47966D02*
Y44967D01*
X314141Y47966D02*
X314570Y47823D01*
X314856Y47395D01*
X314998Y46681D01*
Y46252D01*
X314856Y45538D01*
X314570Y45109D01*
X314141Y44967D01*
X313856D01*
X313427Y45109D01*
X313142Y45538D01*
X312999Y46252D01*
Y46681D01*
X313142Y47395D01*
X313427Y47823D01*
X313856Y47966D01*
X314141D01*
X312328Y47395D02*
X312042Y47537D01*
X311613Y47966D01*
Y44967D01*
X98954Y184723D02*
X98811Y184438D01*
X98525Y184152D01*
X98240Y184009D01*
X97811Y183867D01*
X97097D01*
X96668Y184009D01*
X96383Y184152D01*
X96097Y184438D01*
X95954Y184723D01*
Y185295D01*
X96097Y185581D01*
X96383Y185866D01*
X96668Y186009D01*
X97097Y186152D01*
X97811D01*
X98240Y186009D01*
X98525Y185866D01*
X98811Y185581D01*
X98954Y185295D01*
Y184723D01*
X96526Y185152D02*
X95669Y186009D01*
X98954Y187137D02*
Y188708D01*
X97811Y187851D01*
Y188280D01*
X97668Y188566D01*
X97525Y188708D01*
X97097Y188851D01*
X96811D01*
X96383Y188708D01*
X96097Y188423D01*
X95954Y187994D01*
Y187566D01*
X96097Y187137D01*
X96240Y186994D01*
X96526Y186852D01*
X98954Y190379D02*
X98811Y189951D01*
X98382Y189665D01*
X97668Y189523D01*
X97240D01*
X96526Y189665D01*
X96097Y189951D01*
X95954Y190379D01*
Y190665D01*
X96097Y191094D01*
X96526Y191379D01*
X97240Y191522D01*
X97668D01*
X98382Y191379D01*
X98811Y191094D01*
X98954Y190665D01*
Y190379D01*
Y192908D02*
X98811Y192479D01*
X98525Y192336D01*
X98240D01*
X97954Y192479D01*
X97811Y192765D01*
X97668Y193336D01*
X97525Y193764D01*
X97240Y194050D01*
X96954Y194193D01*
X96526D01*
X96240Y194050D01*
X96097Y193907D01*
X95954Y193479D01*
Y192908D01*
X96097Y192479D01*
X96240Y192336D01*
X96526Y192193D01*
X96954D01*
X97240Y192336D01*
X97525Y192622D01*
X97668Y193050D01*
X97811Y193622D01*
X97954Y193907D01*
X98240Y194050D01*
X98525D01*
X98811Y193907D01*
X98954Y193479D01*
Y192908D01*
X193635Y140966D02*
X193921Y140823D01*
X194206Y140537D01*
X194349Y140252D01*
X194492Y139823D01*
Y139109D01*
X194349Y138681D01*
X194206Y138395D01*
X193921Y138109D01*
X193635Y137967D01*
X193063D01*
X192778Y138109D01*
X192492Y138395D01*
X192349Y138681D01*
X192207Y139109D01*
Y139823D01*
X192349Y140252D01*
X192492Y140537D01*
X192778Y140823D01*
X193063Y140966D01*
X193635D01*
X193206Y138538D02*
X192349Y137681D01*
X191221Y140966D02*
X189650D01*
X190507Y139823D01*
X190078D01*
X189793Y139681D01*
X189650Y139538D01*
X189507Y139109D01*
Y138823D01*
X189650Y138395D01*
X189936Y138109D01*
X190364Y137967D01*
X190793D01*
X191221Y138109D01*
X191364Y138252D01*
X191507Y138538D01*
X187979Y140966D02*
X188407Y140823D01*
X188693Y140395D01*
X188836Y139681D01*
Y139252D01*
X188693Y138538D01*
X188407Y138109D01*
X187979Y137967D01*
X187693D01*
X187265Y138109D01*
X186979Y138538D01*
X186836Y139252D01*
Y139681D01*
X186979Y140395D01*
X187265Y140823D01*
X187693Y140966D01*
X187979D01*
X184308Y139966D02*
X184451Y139538D01*
X184737Y139252D01*
X185165Y139109D01*
X185308D01*
X185737Y139252D01*
X186022Y139538D01*
X186165Y139966D01*
Y140109D01*
X186022Y140537D01*
X185737Y140823D01*
X185308Y140966D01*
X185165D01*
X184737Y140823D01*
X184451Y140537D01*
X184308Y139966D01*
Y139252D01*
X184451Y138538D01*
X184737Y138109D01*
X185165Y137967D01*
X185451D01*
X185879Y138109D01*
X186022Y138395D01*
X272554Y136866D02*
X269554D01*
X272554D02*
Y138152D01*
X272411Y138581D01*
X272268Y138723D01*
X271982Y138866D01*
X271697D01*
X271411Y138723D01*
X271268Y138581D01*
X271125Y138152D01*
Y136866D01*
Y137866D02*
X269554Y138866D01*
X271982Y139537D02*
X272125Y139823D01*
X272554Y140252D01*
X269554D01*
X272554Y142594D02*
X272411Y142165D01*
X271982Y141880D01*
X271268Y141737D01*
X270840D01*
X270126Y141880D01*
X269697Y142165D01*
X269554Y142594D01*
Y142879D01*
X269697Y143308D01*
X270126Y143594D01*
X270840Y143737D01*
X271268D01*
X271982Y143594D01*
X272411Y143308D01*
X272554Y142879D01*
Y142594D01*
Y145265D02*
X272411Y144836D01*
X271982Y144551D01*
X271268Y144408D01*
X270840D01*
X270126Y144551D01*
X269697Y144836D01*
X269554Y145265D01*
Y145550D01*
X269697Y145979D01*
X270126Y146265D01*
X270840Y146407D01*
X271268D01*
X271982Y146265D01*
X272411Y145979D01*
X272554Y145550D01*
Y145265D01*
X92689Y107082D02*
X89689D01*
X92689D02*
Y108368D01*
X92546Y108797D01*
X92403Y108939D01*
X92117Y109082D01*
X91831D01*
X91546Y108939D01*
X91403Y108797D01*
X91260Y108368D01*
Y107082D01*
Y108082D02*
X89689Y109082D01*
X92689Y110039D02*
Y111610D01*
X91546Y110753D01*
Y111182D01*
X91403Y111467D01*
X91260Y111610D01*
X90832Y111753D01*
X90546D01*
X90118Y111610D01*
X89832Y111325D01*
X89689Y110896D01*
Y110468D01*
X89832Y110039D01*
X89975Y109896D01*
X90260Y109753D01*
X92117Y112424D02*
X92260Y112710D01*
X92689Y113138D01*
X89689D01*
X92689Y116338D02*
Y114909D01*
X91403Y114767D01*
X91546Y114909D01*
X91689Y115338D01*
Y115766D01*
X91546Y116195D01*
X91260Y116481D01*
X90832Y116623D01*
X90546D01*
X90118Y116481D01*
X89832Y116195D01*
X89689Y115766D01*
Y115338D01*
X89832Y114909D01*
X89975Y114767D01*
X90260Y114624D01*
X109317Y107082D02*
X106318D01*
X109317D02*
Y108368D01*
X109174Y108797D01*
X109031Y108939D01*
X108746Y109082D01*
X108460D01*
X108174Y108939D01*
X108032Y108797D01*
X107889Y108368D01*
Y107082D01*
Y108082D02*
X106318Y109082D01*
X109317Y110039D02*
Y111610D01*
X108174Y110753D01*
Y111182D01*
X108032Y111467D01*
X107889Y111610D01*
X107460Y111753D01*
X107175D01*
X106746Y111610D01*
X106460Y111325D01*
X106318Y110896D01*
Y110468D01*
X106460Y110039D01*
X106603Y109896D01*
X106889Y109753D01*
X108746Y112424D02*
X108888Y112710D01*
X109317Y113138D01*
X106318D01*
X109317Y116623D02*
X106318Y115195D01*
X109317Y114624D02*
Y116623D01*
X76060Y107082D02*
X73061D01*
X76060D02*
Y108368D01*
X75917Y108797D01*
X75774Y108939D01*
X75489Y109082D01*
X75203D01*
X74917Y108939D01*
X74774Y108797D01*
X74632Y108368D01*
Y107082D01*
Y108082D02*
X73061Y109082D01*
X76060Y110039D02*
Y111610D01*
X74917Y110753D01*
Y111182D01*
X74774Y111467D01*
X74632Y111610D01*
X74203Y111753D01*
X73918D01*
X73489Y111610D01*
X73203Y111325D01*
X73061Y110896D01*
Y110468D01*
X73203Y110039D01*
X73346Y109896D01*
X73632Y109753D01*
X75346Y112567D02*
X75489D01*
X75774Y112710D01*
X75917Y112853D01*
X76060Y113138D01*
Y113710D01*
X75917Y113995D01*
X75774Y114138D01*
X75489Y114281D01*
X75203D01*
X74917Y114138D01*
X74489Y113853D01*
X73061Y112424D01*
Y114424D01*
X75060Y116952D02*
X74632Y116809D01*
X74346Y116523D01*
X74203Y116095D01*
Y115952D01*
X74346Y115524D01*
X74632Y115238D01*
X75060Y115095D01*
X75203D01*
X75631Y115238D01*
X75917Y115524D01*
X76060Y115952D01*
Y116095D01*
X75917Y116523D01*
X75631Y116809D01*
X75060Y116952D01*
X74346D01*
X73632Y116809D01*
X73203Y116523D01*
X73061Y116095D01*
Y115809D01*
X73203Y115381D01*
X73489Y115238D01*
X148834Y123566D02*
Y120566D01*
Y123566D02*
X147549D01*
X147120Y123423D01*
X146978Y123280D01*
X146835Y122995D01*
Y122709D01*
X146978Y122423D01*
X147120Y122281D01*
X147549Y122138D01*
X148834D01*
X147835D02*
X146835Y120566D01*
X145878Y123566D02*
X144307D01*
X145164Y122423D01*
X144735D01*
X144449Y122281D01*
X144307Y122138D01*
X144164Y121709D01*
Y121423D01*
X144307Y120995D01*
X144592Y120709D01*
X145021Y120566D01*
X145449D01*
X145878Y120709D01*
X146021Y120852D01*
X146163Y121138D01*
X143207Y123566D02*
X141636D01*
X142493Y122423D01*
X142064D01*
X141779Y122281D01*
X141636Y122138D01*
X141493Y121709D01*
Y121423D01*
X141636Y120995D01*
X141921Y120709D01*
X142350Y120566D01*
X142779D01*
X143207Y120709D01*
X143350Y120852D01*
X143493Y121138D01*
X140822Y122995D02*
X140536Y123137D01*
X140108Y123566D01*
Y120566D01*
X139811Y93038D02*
Y90039D01*
Y93038D02*
X138525D01*
X138097Y92896D01*
X137954Y92753D01*
X137811Y92467D01*
Y92181D01*
X137954Y91896D01*
X138097Y91753D01*
X138525Y91610D01*
X139811D01*
X138811D02*
X137811Y90039D01*
X136854Y93038D02*
X135283D01*
X136140Y91896D01*
X135712D01*
X135426Y91753D01*
X135283Y91610D01*
X135140Y91182D01*
Y90896D01*
X135283Y90468D01*
X135569Y90182D01*
X135997Y90039D01*
X136426D01*
X136854Y90182D01*
X136997Y90325D01*
X137140Y90610D01*
X134183Y93038D02*
X132612D01*
X133469Y91896D01*
X133041D01*
X132755Y91753D01*
X132612Y91610D01*
X132469Y91182D01*
Y90896D01*
X132612Y90468D01*
X132898Y90182D01*
X133326Y90039D01*
X133755D01*
X134183Y90182D01*
X134326Y90325D01*
X134469Y90610D01*
X131655Y92324D02*
Y92467D01*
X131513Y92753D01*
X131370Y92896D01*
X131084Y93038D01*
X130513D01*
X130227Y92896D01*
X130084Y92753D01*
X129941Y92467D01*
Y92181D01*
X130084Y91896D01*
X130370Y91467D01*
X131798Y90039D01*
X129799D01*
X147820Y128101D02*
Y125101D01*
Y128101D02*
X146534D01*
X146106Y127958D01*
X145963Y127815D01*
X145820Y127529D01*
Y127243D01*
X145963Y126958D01*
X146106Y126815D01*
X146534Y126672D01*
X147820D01*
X146820D02*
X145820Y125101D01*
X144863Y128101D02*
X143292D01*
X144149Y126958D01*
X143720D01*
X143435Y126815D01*
X143292Y126672D01*
X143149Y126244D01*
Y125958D01*
X143292Y125530D01*
X143578Y125244D01*
X144006Y125101D01*
X144435D01*
X144863Y125244D01*
X145006Y125387D01*
X145149Y125672D01*
X142192Y128101D02*
X140621D01*
X141478Y126958D01*
X141050D01*
X140764Y126815D01*
X140621Y126672D01*
X140478Y126244D01*
Y125958D01*
X140621Y125530D01*
X140907Y125244D01*
X141335Y125101D01*
X141764D01*
X142192Y125244D01*
X142335Y125387D01*
X142478Y125672D01*
X139093Y128101D02*
X139521Y127958D01*
X139664Y127672D01*
Y127386D01*
X139521Y127101D01*
X139236Y126958D01*
X138664Y126815D01*
X138236Y126672D01*
X137950Y126387D01*
X137808Y126101D01*
Y125672D01*
X137950Y125387D01*
X138093Y125244D01*
X138522Y125101D01*
X139093D01*
X139521Y125244D01*
X139664Y125387D01*
X139807Y125672D01*
Y126101D01*
X139664Y126387D01*
X139379Y126672D01*
X138950Y126815D01*
X138379Y126958D01*
X138093Y127101D01*
X137950Y127386D01*
Y127672D01*
X138093Y127958D01*
X138522Y128101D01*
X139093D01*
X151782Y93038D02*
Y90039D01*
Y93038D02*
X150496D01*
X150068Y92896D01*
X149925Y92753D01*
X149782Y92467D01*
Y92181D01*
X149925Y91896D01*
X150068Y91753D01*
X150496Y91610D01*
X151782D01*
X150782D02*
X149782Y90039D01*
X148825Y93038D02*
X147254D01*
X148111Y91896D01*
X147683D01*
X147397Y91753D01*
X147254Y91610D01*
X147111Y91182D01*
Y90896D01*
X147254Y90468D01*
X147540Y90182D01*
X147968Y90039D01*
X148397D01*
X148825Y90182D01*
X148968Y90325D01*
X149111Y90610D01*
X144726Y93038D02*
X146154D01*
X146297Y91753D01*
X146154Y91896D01*
X145726Y92039D01*
X145298D01*
X144869Y91896D01*
X144583Y91610D01*
X144441Y91182D01*
Y90896D01*
X144583Y90468D01*
X144869Y90182D01*
X145298Y90039D01*
X145726D01*
X146154Y90182D01*
X146297Y90325D01*
X146440Y90610D01*
X143769Y92467D02*
X143484Y92610D01*
X143055Y93038D01*
Y90039D01*
X151654Y98166D02*
Y95166D01*
Y98166D02*
X150369D01*
X149940Y98023D01*
X149798Y97880D01*
X149655Y97595D01*
Y97309D01*
X149798Y97023D01*
X149940Y96881D01*
X150369Y96738D01*
X151654D01*
X150654D02*
X149655Y95166D01*
X148698Y98166D02*
X147127D01*
X147984Y97023D01*
X147555D01*
X147270Y96881D01*
X147127Y96738D01*
X146984Y96309D01*
Y96023D01*
X147127Y95595D01*
X147412Y95309D01*
X147841Y95166D01*
X148269D01*
X148698Y95309D01*
X148841Y95452D01*
X148984Y95738D01*
X144599Y98166D02*
X146027D01*
X146170Y96881D01*
X146027Y97023D01*
X145598Y97166D01*
X145170D01*
X144741Y97023D01*
X144456Y96738D01*
X144313Y96309D01*
Y96023D01*
X144456Y95595D01*
X144741Y95309D01*
X145170Y95166D01*
X145598D01*
X146027Y95309D01*
X146170Y95452D01*
X146313Y95738D01*
X143499Y97452D02*
Y97595D01*
X143356Y97880D01*
X143213Y98023D01*
X142928Y98166D01*
X142356D01*
X142071Y98023D01*
X141928Y97880D01*
X141785Y97595D01*
Y97309D01*
X141928Y97023D01*
X142213Y96595D01*
X143642Y95166D01*
X141642D01*
X122654Y190966D02*
Y187967D01*
Y190966D02*
X121369D01*
X120940Y190823D01*
X120798Y190680D01*
X120655Y190395D01*
Y190109D01*
X120798Y189823D01*
X120940Y189681D01*
X121369Y189538D01*
X122654D01*
X121654D02*
X120655Y187967D01*
X119698Y190966D02*
X118127D01*
X118984Y189823D01*
X118555D01*
X118270Y189681D01*
X118127Y189538D01*
X117984Y189109D01*
Y188823D01*
X118127Y188395D01*
X118412Y188109D01*
X118841Y187967D01*
X119269D01*
X119698Y188109D01*
X119841Y188252D01*
X119983Y188538D01*
X115599Y190537D02*
X115742Y190823D01*
X116170Y190966D01*
X116456D01*
X116884Y190823D01*
X117170Y190395D01*
X117313Y189681D01*
Y188966D01*
X117170Y188395D01*
X116884Y188109D01*
X116456Y187967D01*
X116313D01*
X115884Y188109D01*
X115599Y188395D01*
X115456Y188823D01*
Y188966D01*
X115599Y189395D01*
X115884Y189681D01*
X116313Y189823D01*
X116456D01*
X116884Y189681D01*
X117170Y189395D01*
X117313Y188966D01*
X114799Y190395D02*
X114513Y190537D01*
X114085Y190966D01*
Y187967D01*
X103774Y107082D02*
X100775D01*
X103774D02*
Y108368D01*
X103631Y108797D01*
X103489Y108939D01*
X103203Y109082D01*
X102917D01*
X102631Y108939D01*
X102489Y108797D01*
X102346Y108368D01*
Y107082D01*
Y108082D02*
X100775Y109082D01*
X103774Y110039D02*
Y111610D01*
X102631Y110753D01*
Y111182D01*
X102489Y111467D01*
X102346Y111610D01*
X101917Y111753D01*
X101632D01*
X101203Y111610D01*
X100918Y111325D01*
X100775Y110896D01*
Y110468D01*
X100918Y110039D01*
X101060Y109896D01*
X101346Y109753D01*
X103346Y114138D02*
X103631Y113995D01*
X103774Y113567D01*
Y113281D01*
X103631Y112853D01*
X103203Y112567D01*
X102489Y112424D01*
X101775D01*
X101203Y112567D01*
X100918Y112853D01*
X100775Y113281D01*
Y113424D01*
X100918Y113853D01*
X101203Y114138D01*
X101632Y114281D01*
X101775D01*
X102203Y114138D01*
X102489Y113853D01*
X102631Y113424D01*
Y113281D01*
X102489Y112853D01*
X102203Y112567D01*
X101775Y112424D01*
X103060Y115081D02*
X103203D01*
X103489Y115224D01*
X103631Y115366D01*
X103774Y115652D01*
Y116223D01*
X103631Y116509D01*
X103489Y116652D01*
X103203Y116795D01*
X102917D01*
X102631Y116652D01*
X102203Y116366D01*
X100775Y114938D01*
Y116938D01*
X97747Y107476D02*
X94748D01*
X97747D02*
Y108762D01*
X97604Y109190D01*
X97461Y109333D01*
X97176Y109476D01*
X96890D01*
X96604Y109333D01*
X96461Y109190D01*
X96319Y108762D01*
Y107476D01*
Y108476D02*
X94748Y109476D01*
X97747Y110433D02*
Y112004D01*
X96604Y111147D01*
Y111576D01*
X96461Y111861D01*
X96319Y112004D01*
X95890Y112147D01*
X95605D01*
X95176Y112004D01*
X94890Y111718D01*
X94748Y111290D01*
Y110862D01*
X94890Y110433D01*
X95033Y110290D01*
X95319Y110147D01*
X97319Y114532D02*
X97604Y114389D01*
X97747Y113961D01*
Y113675D01*
X97604Y113247D01*
X97176Y112961D01*
X96461Y112818D01*
X95747D01*
X95176Y112961D01*
X94890Y113247D01*
X94748Y113675D01*
Y113818D01*
X94890Y114246D01*
X95176Y114532D01*
X95605Y114675D01*
X95747D01*
X96176Y114532D01*
X96461Y114246D01*
X96604Y113818D01*
Y113675D01*
X96461Y113247D01*
X96176Y112961D01*
X95747Y112818D01*
X97747Y115618D02*
Y117189D01*
X96604Y116332D01*
Y116760D01*
X96461Y117046D01*
X96319Y117189D01*
X95890Y117332D01*
X95605D01*
X95176Y117189D01*
X94890Y116903D01*
X94748Y116475D01*
Y116046D01*
X94890Y115618D01*
X95033Y115475D01*
X95319Y115332D01*
X139544Y98166D02*
Y96023D01*
X139402Y95595D01*
X139116Y95309D01*
X138688Y95166D01*
X138402D01*
X137973Y95309D01*
X137688Y95595D01*
X137545Y96023D01*
Y98166D01*
X136431D02*
X134860D01*
X135717Y97023D01*
X135288D01*
X135003Y96881D01*
X134860Y96738D01*
X134717Y96309D01*
Y96023D01*
X134860Y95595D01*
X135145Y95309D01*
X135574Y95166D01*
X136002D01*
X136431Y95309D01*
X136574Y95452D01*
X136716Y95738D01*
X133189Y98166D02*
X133617Y98023D01*
X133903Y97595D01*
X134046Y96881D01*
Y96452D01*
X133903Y95738D01*
X133617Y95309D01*
X133189Y95166D01*
X132903D01*
X132475Y95309D01*
X132189Y95738D01*
X132046Y96452D01*
Y96881D01*
X132189Y97595D01*
X132475Y98023D01*
X132903Y98166D01*
X133189D01*
X131232Y97452D02*
Y97595D01*
X131089Y97880D01*
X130946Y98023D01*
X130661Y98166D01*
X130089D01*
X129804Y98023D01*
X129661Y97880D01*
X129518Y97595D01*
Y97309D01*
X129661Y97023D01*
X129946Y96595D01*
X131375Y95166D01*
X129375D01*
M02*
