G04 Layer_Physical_Order=1*
G04 Layer_Color=255*
%FSLAX25Y25*%
%MOIN*%
G70*
G01*
G75*
%ADD10C,0.00800*%
%ADD11C,0.03000*%
%ADD12R,0.20561X1.95232*%
%ADD13R,2.11840X0.13288*%
%ADD14R,0.12178X0.19455*%
%ADD15R,0.06857X0.53228*%
%ADD16C,0.00787*%
%ADD17C,0.06000*%
%ADD18R,0.06000X0.06000*%
%ADD19C,0.11800*%
%ADD20C,0.21654*%
%ADD21C,0.01200*%
%ADD22C,0.01600*%
%ADD23C,0.02000*%
G54D10*
X156468Y33976D02*
G03*
X156468Y33976I-1600J0D01*
G01*
Y43976D02*
G03*
X156468Y43976I-1600J0D01*
G01*
X162378Y25114D02*
G03*
X162378Y22839I-1125J-1137D01*
G01*
D02*
G03*
X165103Y23976I1125J1137D01*
G01*
D02*
G03*
X162378Y25114I-1600J0D01*
G01*
X165182Y91140D02*
G03*
X165182Y91140I-2300J0D01*
G01*
Y100739D02*
G03*
X165182Y100739I-2300J0D01*
G01*
X174254Y90867D02*
G03*
X174254Y90867I-1600J0D01*
G01*
X150354Y106738D02*
G03*
X150354Y106738I-1600J0D01*
G01*
X148054Y109979D02*
G03*
X148054Y109979I-1600J0D01*
G01*
X162305Y122055D02*
G03*
X162305Y122055I-3800J0D01*
G01*
X144658Y176921D02*
G03*
X140618Y180714I-3800J0D01*
G01*
X139877Y173250D02*
G03*
X144658Y176921I981J3671D01*
G01*
X164658D02*
G03*
X164658Y176921I-3800J0D01*
G01*
X171104Y145831D02*
G03*
X171104Y145831I-3800J0D01*
G01*
X175702Y169039D02*
G03*
X175702Y169039I-1600J0D01*
G01*
X154658Y186921D02*
G03*
X154658Y186921I-3800J0D01*
G01*
X164658D02*
G03*
X164658Y186921I-3800J0D01*
G01*
X174658D02*
G03*
X174658Y186921I-3800J0D01*
G01*
X184702Y155718D02*
G03*
X184702Y155718I-1600J0D01*
G01*
X188101D02*
G03*
X188101Y155718I-1600J0D01*
G01*
X191798Y161168D02*
G03*
X191798Y161168I-1600J0D01*
G01*
X184658Y186921D02*
G03*
X184658Y186921I-3800J0D01*
G01*
X191998Y169098D02*
G03*
X191998Y169098I-1800J0D01*
G01*
X197328Y168998D02*
G03*
X197328Y168998I-1800J0D01*
G01*
X194658Y186921D02*
G03*
X194658Y186921I-3800J0D01*
G01*
X245331Y139439D02*
G03*
X245331Y139439I-3800J0D01*
G01*
X204740Y145408D02*
G03*
X204740Y145408I-1600J0D01*
G01*
X245331Y153197D02*
G03*
X245331Y153197I-3800J0D01*
G01*
X255331Y139439D02*
G03*
X255331Y139439I-3800J0D01*
G01*
Y153197D02*
G03*
X255331Y153197I-3800J0D01*
G01*
X202459Y161333D02*
G03*
X202459Y161333I-1600J0D01*
G01*
X241733Y161034D02*
G03*
X241733Y161034I-1800J0D01*
G01*
X252764Y161134D02*
G03*
X252764Y161134I-1800J0D01*
G01*
X265149Y139052D02*
G03*
X265149Y139052I-1600J0D01*
G01*
X204658Y176921D02*
G03*
X204658Y176921I-3800J0D01*
G01*
X229795D02*
G03*
X229795Y176921I-3800J0D01*
G01*
X232563Y168081D02*
G03*
X232563Y168081I-1600J0D01*
G01*
X239795Y176921D02*
G03*
X239795Y176921I-3800J0D01*
G01*
X245364Y166834D02*
G03*
X245364Y166834I-1600J0D01*
G01*
X204658Y186921D02*
G03*
X204658Y186921I-3800J0D01*
G01*
X229795D02*
G03*
X229795Y186921I-3800J0D01*
G01*
X239795D02*
G03*
X239795Y186921I-3800J0D01*
G01*
X249795Y176921D02*
G03*
X249795Y176921I-3800J0D01*
G01*
X259795D02*
G03*
X259795Y176921I-3800J0D01*
G01*
X249795Y186921D02*
G03*
X249795Y186921I-3800J0D01*
G01*
X284833D02*
G03*
X284833Y186921I-3800J0D01*
G01*
X294833D02*
G03*
X294833Y186921I-3800J0D01*
G01*
X259795D02*
G03*
X259795Y186921I-3800J0D01*
G01*
X304833D02*
G03*
X304833Y186921I-3800J0D01*
G01*
X314833D02*
G03*
X314833Y186921I-3800J0D01*
G01*
X145091Y33391D02*
X153379D01*
X144913Y33891D02*
X153270D01*
X144735Y34391D02*
X153323D01*
X153434Y16220D02*
Y33266D01*
X150811Y20485D02*
X153467Y16168D01*
X146433Y29622D02*
X148462Y24977D01*
X150811Y20485D01*
X144732Y34397D02*
X146433Y29622D01*
X147934Y26185D02*
Y105365D01*
X143369Y39279D02*
X144732Y34397D01*
X144595Y34890D02*
X153555D01*
X148934Y24074D02*
Y105149D01*
X149434Y23117D02*
Y105290D01*
X148434Y25041D02*
Y105171D01*
X153434Y34686D02*
Y43266D01*
X149030Y23890D02*
X159654D01*
X148769Y24390D02*
X159706D01*
X148507Y24891D02*
X159939D01*
X148282Y25390D02*
X160503D01*
X153467Y16168D02*
X156417Y12046D01*
X149814Y22390D02*
X161040D01*
X149292Y23391D02*
X159763D01*
X149553Y22891D02*
X160077D01*
X145447Y32390D02*
X154656D01*
X145269Y32890D02*
X153693D01*
X144455Y35390D02*
X154120D01*
X153934Y15514D02*
Y32677D01*
X154434Y14816D02*
Y32436D01*
X153934Y35276D02*
Y42677D01*
X154434Y35517D02*
Y42436D01*
X142350Y44245D02*
X143369Y39279D01*
X142331Y44390D02*
X153323D01*
X142264Y44890D02*
X153555D01*
X142628Y42891D02*
X153693D01*
X142731Y42390D02*
X154656D01*
X142423Y43891D02*
X153270D01*
X142525Y43391D02*
X153379D01*
X141518Y90891D02*
X160595D01*
X141518Y91391D02*
X160596D01*
X141517Y105391D02*
X147892D01*
X141517Y100891D02*
X160587D01*
X141680Y49269D02*
X142350Y44245D01*
X141519Y51163D02*
X141680Y49269D01*
X142197Y45390D02*
X154120D01*
X141518Y91891D02*
X160708D01*
X141518Y92391D02*
X160952D01*
X141518Y92891D02*
X161391D01*
X141518Y93391D02*
X162410D01*
X141518Y89390D02*
X161388D01*
X141518Y88890D02*
X162400D01*
X141518Y90390D02*
X160707D01*
X141518Y89890D02*
X160951D01*
X141517Y101391D02*
X160676D01*
X141517Y101891D02*
X160891D01*
X141517Y102391D02*
X161281D01*
X141517Y102891D02*
X162069D01*
X141517Y99391D02*
X161019D01*
X141517Y98891D02*
X161513D01*
X141517Y100391D02*
X160608D01*
X141517Y99891D02*
X160744D01*
X161434Y8168D02*
Y22387D01*
X156417Y12046D02*
X159626Y8168D01*
X160934D02*
Y22408D01*
X162934Y8168D02*
Y22481D01*
X163434Y8168D02*
Y22378D01*
X161934Y8168D02*
Y22529D01*
X161464Y22390D02*
X163291D01*
X155934Y12721D02*
Y32783D01*
X156434Y12026D02*
Y33649D01*
X154934Y14118D02*
Y32378D01*
X155434Y13419D02*
Y32480D01*
X160434Y8168D02*
Y22601D01*
X162434Y8168D02*
Y22786D01*
X159934Y8168D02*
Y23069D01*
X159626Y8168D02*
X184624D01*
X159441Y8390D02*
X184847D01*
X159028Y8890D02*
X185347D01*
X158614Y9391D02*
X185847D01*
X164434Y8168D02*
Y22675D01*
X164934Y8168D02*
Y23261D01*
X163934Y8168D02*
Y22436D01*
X171434Y8168D02*
Y89831D01*
X171934Y8168D02*
Y89438D01*
X164934Y24692D02*
Y90101D01*
X173434Y8168D02*
Y89469D01*
X173934Y8168D02*
Y89907D01*
X172434Y8168D02*
Y89282D01*
X172934Y8168D02*
Y89291D01*
X155934Y35169D02*
Y42783D01*
X156434Y34304D02*
Y43649D01*
X154934Y35575D02*
Y42378D01*
X155434Y35473D02*
Y42480D01*
X162434Y25167D02*
Y88884D01*
X162001Y25390D02*
X162755D01*
X162934Y25472D02*
Y88840D01*
X163434Y25575D02*
Y88907D01*
X160934Y25545D02*
Y89916D01*
X161434Y25566D02*
Y89352D01*
X160934Y92363D02*
Y99515D01*
X161434Y92927D02*
Y98952D01*
X161934Y93235D02*
Y98643D01*
Y25424D02*
Y89044D01*
X162434Y93396D02*
Y98483D01*
X162934Y93439D02*
Y98440D01*
X163934Y25517D02*
Y89094D01*
X164434Y25278D02*
Y89442D01*
X164813Y89890D02*
X171387D01*
X164376Y89390D02*
X172037D01*
X165168Y90891D02*
X171054D01*
X165057Y90390D02*
X171127D01*
X165168Y91391D02*
X171143D01*
X165056Y91891D02*
X171425D01*
X163934Y93185D02*
Y98694D01*
X163434Y93372D02*
Y98506D01*
X164934Y92178D02*
Y99701D01*
X164434Y92837D02*
Y99042D01*
X164812Y92391D02*
X172167D01*
X141517Y106391D02*
X147192D01*
X141517Y106890D02*
X147161D01*
X141517Y107390D02*
X147293D01*
X146434Y29618D02*
Y108379D01*
X146934Y28474D02*
Y108453D01*
X145434Y32426D02*
Y108746D01*
X145934Y31022D02*
Y108466D01*
X142434Y43834D02*
Y173464D01*
X142934Y41399D02*
Y173739D01*
X141516Y131275D02*
X141519Y51163D01*
X141934Y47361D02*
Y173277D01*
X144434Y35465D02*
Y175637D01*
X144934Y33830D02*
Y109478D01*
X143434Y39046D02*
Y174128D01*
X143934Y37256D02*
Y174691D01*
X147434Y27330D02*
Y105834D01*
X141517Y105891D02*
X147397D01*
X141517Y107890D02*
X147644D01*
X150434Y21205D02*
Y183145D01*
X150934Y20284D02*
Y183122D01*
X147434Y107643D02*
Y108714D01*
X149934Y22161D02*
Y105658D01*
X151934Y18658D02*
Y183277D01*
X152434Y17846D02*
Y183464D01*
X149934Y107819D02*
Y183235D01*
X151434Y19471D02*
Y183165D01*
X152934Y17033D02*
Y183739D01*
X153434Y44686D02*
Y184128D01*
X153934Y45276D02*
Y184691D01*
X154434Y45516D02*
Y185637D01*
X141517Y109890D02*
X144856D01*
X141517Y110390D02*
X144908D01*
X141517Y110890D02*
X145139D01*
X141517Y111390D02*
X145701D01*
X141517Y108390D02*
X146261D01*
X147934Y108113D02*
Y109372D01*
X141517Y109390D02*
X144966D01*
X141517Y108890D02*
X145281D01*
X144934Y110479D02*
Y195657D01*
X145434Y111212D02*
Y195657D01*
X145934Y111492D02*
Y195657D01*
X147434Y111243D02*
Y185272D01*
X147934Y110586D02*
Y184494D01*
X146434Y111579D02*
Y195657D01*
X146934Y111505D02*
Y195657D01*
X141517Y120890D02*
X154888D01*
X141517Y120390D02*
X155089D01*
X141517Y121890D02*
X154708D01*
X141517Y121390D02*
X154763D01*
X141517Y118891D02*
X156401D01*
X141517Y118391D02*
X157499D01*
X141517Y119890D02*
X155382D01*
X141517Y119390D02*
X155795D01*
X148434Y108306D02*
Y183995D01*
X141517Y122390D02*
X154720D01*
X141517Y122890D02*
X154798D01*
X141517Y123390D02*
X154947D01*
X148934Y108328D02*
Y183644D01*
X149434Y108187D02*
Y183398D01*
X154934Y123356D02*
Y195657D01*
X166934Y8168D02*
Y142049D01*
X165934Y8168D02*
Y142286D01*
X166434Y8168D02*
Y142131D01*
X168434Y8168D02*
Y142203D01*
X168934Y8168D02*
Y142398D01*
X167434Y8168D02*
Y142033D01*
X167934Y8168D02*
Y142083D01*
X169934Y8168D02*
Y143088D01*
X170434Y8168D02*
Y143676D01*
X165434Y8168D02*
Y142522D01*
X169434Y8168D02*
Y142684D01*
X174934Y8168D02*
Y167673D01*
X175434Y8168D02*
Y168154D01*
X170934Y8168D02*
Y144708D01*
X174434Y8168D02*
Y167474D01*
X181434Y8168D02*
Y183165D01*
X181934Y8168D02*
Y154624D01*
X180434Y8168D02*
Y183145D01*
X180934Y8168D02*
Y183122D01*
X183434Y8168D02*
Y154153D01*
X183934Y8168D02*
Y154352D01*
X182434Y8168D02*
Y154264D01*
X182934Y8168D02*
Y154127D01*
X176934Y8168D02*
Y195657D01*
X177434Y8168D02*
Y185272D01*
X175934Y8168D02*
Y195657D01*
X176434Y8168D02*
Y195657D01*
X178934Y8168D02*
Y183644D01*
X179934Y8168D02*
Y183235D01*
X177934Y8168D02*
Y184494D01*
X178434Y8168D02*
Y183995D01*
X157934Y10212D02*
Y118298D01*
X158434Y9608D02*
Y118256D01*
X156934Y11421D02*
Y118595D01*
X157434Y10817D02*
Y118409D01*
X158934Y9004D02*
Y118279D01*
X159434Y8399D02*
Y118370D01*
X159934Y24884D02*
Y118534D01*
X160434Y25352D02*
Y118781D01*
X155934Y45169D02*
Y119256D01*
X156434Y44304D02*
Y118869D01*
X154934Y45575D02*
Y120754D01*
X155434Y45473D02*
Y119816D01*
X160934Y101962D02*
Y119133D01*
X161434Y102526D02*
Y119635D01*
X161934Y123691D02*
Y173277D01*
Y102835D02*
Y120419D01*
X164934Y101777D02*
Y142860D01*
X173434Y92264D02*
Y167585D01*
X163934Y102784D02*
Y144074D01*
X164434Y102436D02*
Y143340D01*
X184434Y8168D02*
Y154833D01*
X184934Y8478D02*
Y155391D01*
X173934Y91826D02*
Y167448D01*
X185434Y8978D02*
Y154525D01*
X163434Y102972D02*
Y174128D01*
X171434Y91902D02*
Y183165D01*
X162434Y102995D02*
Y173464D01*
X162934Y103038D02*
Y173739D01*
X171934Y92295D02*
Y183277D01*
X179434Y8168D02*
Y183398D01*
X172434Y92451D02*
Y183464D01*
X172934Y92442D02*
Y167945D01*
X143478Y38890D02*
X348343D01*
X143347Y39391D02*
X348489D01*
X143244Y39891D02*
X348634D01*
X144036Y36891D02*
X347731D01*
X143897Y37391D02*
X347908D01*
X143757Y37890D02*
X348053D01*
X143617Y38390D02*
X348198D01*
X142064Y46391D02*
X349959D01*
X142130Y45891D02*
X349959D01*
X141930Y47390D02*
X349959D01*
X141997Y46891D02*
X349959D01*
X143141Y40391D02*
X348779D01*
X143039Y40890D02*
X348924D01*
X142936Y41390D02*
X349070D01*
X142833Y41890D02*
X349215D01*
X141585Y50390D02*
X349959D01*
X141627Y49891D02*
X349959D01*
X141519Y51390D02*
X349959D01*
X141542Y50890D02*
X349959D01*
X141797Y48390D02*
X349959D01*
X141864Y47890D02*
X349959D01*
X141669Y49391D02*
X349959D01*
X141730Y48891D02*
X349959D01*
X141519Y54391D02*
X349959D01*
X141519Y53891D02*
X349959D01*
X141519Y55391D02*
X349959D01*
X141519Y54891D02*
X349959D01*
X141519Y52390D02*
X349959D01*
X141519Y51890D02*
X349959D01*
X141519Y53391D02*
X349959D01*
X141519Y52890D02*
X349959D01*
X141518Y65891D02*
X349959D01*
X141518Y66891D02*
X349959D01*
X141518Y66391D02*
X349959D01*
X141519Y64390D02*
X349959D01*
X141519Y63890D02*
X349959D01*
X141518Y65390D02*
X349959D01*
X141518Y64890D02*
X349959D01*
X141518Y69890D02*
X349959D01*
X141518Y69390D02*
X349959D01*
X141518Y70890D02*
X349959D01*
X141518Y70390D02*
X349959D01*
X141518Y67891D02*
X349959D01*
X141518Y67391D02*
X349959D01*
X141518Y68891D02*
X349959D01*
X141518Y68391D02*
X349959D01*
X141519Y58390D02*
X349959D01*
X141519Y57890D02*
X349959D01*
X141519Y59390D02*
X349959D01*
X141519Y58890D02*
X349959D01*
X141519Y56391D02*
X349959D01*
X141519Y55891D02*
X349959D01*
X141519Y57390D02*
X349959D01*
X141519Y56890D02*
X349959D01*
X141519Y62391D02*
X349959D01*
X141519Y61891D02*
X349959D01*
X141519Y63390D02*
X349959D01*
X141519Y62890D02*
X349959D01*
X141519Y60391D02*
X349959D01*
X141519Y59891D02*
X349959D01*
X141519Y61391D02*
X349959D01*
X141519Y60891D02*
X349959D01*
X156546Y11891D02*
X188347D01*
X156171Y12391D02*
X188847D01*
X155813Y12890D02*
X189347D01*
X158201Y9890D02*
X186347D01*
X157787Y10390D02*
X186847D01*
X157373Y10891D02*
X187347D01*
X156960Y11390D02*
X187847D01*
X154739Y14390D02*
X337104D01*
X154381Y14890D02*
X337419D01*
X154023Y15391D02*
X337734D01*
X153665Y15890D02*
X338049D01*
X184624Y8168D02*
X189624Y13168D01*
X304624D01*
X155455Y13390D02*
X336474D01*
X155097Y13891D02*
X336789D01*
X152099Y18391D02*
X339499D01*
X151791Y18891D02*
X339767D01*
X151484Y19390D02*
X340035D01*
X151176Y19891D02*
X340303D01*
X153330Y16390D02*
X338363D01*
X153022Y16891D02*
X338678D01*
X152714Y17391D02*
X338963D01*
X152407Y17890D02*
X339231D01*
X150869Y20391D02*
X340571D01*
X150599Y20890D02*
X340840D01*
X150337Y21391D02*
X341108D01*
X150076Y21891D02*
X341376D01*
X163715Y22390D02*
X341644D01*
X164678Y22891D02*
X341912D01*
X164992Y23391D02*
X342180D01*
X165101Y23890D02*
X342422D01*
X147845Y26390D02*
X343546D01*
X147626Y26891D02*
X343771D01*
X147408Y27391D02*
X343995D01*
X147189Y27891D02*
X344220D01*
X165049Y24390D02*
X342647D01*
X164816Y24891D02*
X342872D01*
X164252Y25390D02*
X343096D01*
X148063Y25890D02*
X343321D01*
X146159Y30391D02*
X345340D01*
X145981Y30891D02*
X345524D01*
X145803Y31391D02*
X345708D01*
X145625Y31890D02*
X345892D01*
X146971Y28390D02*
X344445D01*
X146752Y28890D02*
X344669D01*
X146534Y29390D02*
X344894D01*
X146337Y29890D02*
X345119D01*
X155080Y32390D02*
X346076D01*
X156043Y32890D02*
X346259D01*
X155617Y35390D02*
X347179D01*
X144316Y35890D02*
X347363D01*
X156357Y33391D02*
X346444D01*
X156466Y33891D02*
X346627D01*
X156414Y34391D02*
X346811D01*
X156181Y34890D02*
X346995D01*
X144176Y36391D02*
X347547D01*
X155080Y42390D02*
X349360D01*
X156043Y42891D02*
X349505D01*
X155617Y45390D02*
X349959D01*
X156357Y43391D02*
X349651D01*
X156466Y43891D02*
X349796D01*
X156414Y44390D02*
X349941D01*
X156181Y44890D02*
X349959D01*
X141518Y73391D02*
X349959D01*
X141518Y74391D02*
X349959D01*
X141518Y73891D02*
X349959D01*
X141518Y71890D02*
X349959D01*
X141518Y71390D02*
X349959D01*
X141518Y72891D02*
X349959D01*
X141518Y72391D02*
X349959D01*
X141518Y77390D02*
X349959D01*
X141518Y76890D02*
X349959D01*
X141518Y78391D02*
X349959D01*
X141518Y77890D02*
X349959D01*
X141518Y75390D02*
X349959D01*
X141518Y74891D02*
X349959D01*
X141518Y76390D02*
X349959D01*
X141518Y75890D02*
X349959D01*
X141518Y80891D02*
X351212D01*
X141518Y81391D02*
X351712D01*
X141518Y81890D02*
X352212D01*
X141518Y82390D02*
X352377D01*
X141518Y79391D02*
X349959D01*
X141518Y78891D02*
X349959D01*
X141518Y79891D02*
X350212D01*
X141518Y80391D02*
X350712D01*
X141518Y85391D02*
X352377D01*
X141518Y84891D02*
X352377D01*
X141518Y86391D02*
X352377D01*
X141518Y85891D02*
X352377D01*
X141518Y83390D02*
X352377D01*
X141518Y82890D02*
X352377D01*
X141518Y84390D02*
X352377D01*
X141518Y83890D02*
X352377D01*
X141518Y94390D02*
X352377D01*
X141518Y93891D02*
X352377D01*
X141518Y95390D02*
X352377D01*
X141518Y94890D02*
X352377D01*
X141518Y87391D02*
X352377D01*
X141518Y86891D02*
X352377D01*
X141518Y88390D02*
X352377D01*
X141518Y87890D02*
X352377D01*
X141517Y98391D02*
X352377D01*
X141517Y97891D02*
X352377D01*
X141517Y103891D02*
X352377D01*
X141517Y103391D02*
X352377D01*
X141517Y96390D02*
X352377D01*
X141517Y95890D02*
X352377D01*
X141517Y97391D02*
X352377D01*
X141517Y96890D02*
X352377D01*
X141517Y112891D02*
X352377D01*
X141517Y112390D02*
X352377D01*
X141517Y113891D02*
X352377D01*
X141517Y113391D02*
X352377D01*
X141517Y104891D02*
X352377D01*
X141517Y104391D02*
X352377D01*
X141517Y111890D02*
X352377D01*
X146647Y108390D02*
X352377D01*
X141517Y116391D02*
X352377D01*
X141517Y116891D02*
X352749D01*
X141517Y117891D02*
X353135D01*
X141517Y117391D02*
X353135D01*
X141517Y114891D02*
X352377D01*
X141517Y114391D02*
X352377D01*
X141517Y115891D02*
X352377D01*
X141517Y115391D02*
X352377D01*
X185934Y9477D02*
Y154222D01*
X186434Y9978D02*
Y154119D01*
X186934Y10477D02*
Y154178D01*
X187434Y10977D02*
Y154419D01*
X187934Y11478D02*
Y155008D01*
X189934Y13168D02*
Y159589D01*
X190434Y13168D02*
Y159585D01*
X188434Y11977D02*
Y168737D01*
X188934Y12477D02*
Y160186D01*
X189434Y12978D02*
Y159761D01*
X190934Y13168D02*
Y159747D01*
X192434Y13168D02*
Y183464D01*
X192934Y13168D02*
Y183739D01*
X191434Y13168D02*
Y160152D01*
X191934Y13168D02*
Y168625D01*
X173272Y89390D02*
X352377D01*
X163364Y88890D02*
X352377D01*
X173142Y92391D02*
X352377D01*
X173884Y91891D02*
X352377D01*
X174182Y90390D02*
X352377D01*
X173922Y89890D02*
X352377D01*
X174166Y91391D02*
X352377D01*
X174254Y90891D02*
X352377D01*
X193434Y13168D02*
Y184128D01*
X164373Y92891D02*
X352377D01*
X164251Y98891D02*
X352377D01*
X163354Y93391D02*
X352377D01*
X194934Y13168D02*
Y167299D01*
X195434Y13168D02*
Y167201D01*
X193934Y13168D02*
Y168162D01*
X194434Y13168D02*
Y167569D01*
X164873Y101891D02*
X352377D01*
X164745Y99391D02*
X352377D01*
X163695Y102891D02*
X352377D01*
X164483Y102391D02*
X352377D01*
X165155Y100391D02*
X352377D01*
X165020Y99891D02*
X352377D01*
X165088Y101391D02*
X352377D01*
X165177Y100891D02*
X352377D01*
X149864Y107890D02*
X352377D01*
X149616Y105391D02*
X352377D01*
X147942Y109390D02*
X352377D01*
X147627Y108890D02*
X352377D01*
X150316Y106391D02*
X352377D01*
X150111Y105891D02*
X352377D01*
X150215Y107390D02*
X352377D01*
X150347Y106890D02*
X352377D01*
X148000Y110390D02*
X352377D01*
X148052Y109890D02*
X352377D01*
X147207Y111390D02*
X352377D01*
X147769Y110890D02*
X352377D01*
X160608Y118891D02*
X353135D01*
X159510Y118391D02*
X353135D01*
X161628Y119890D02*
X353135D01*
X161214Y119390D02*
X353135D01*
X162122Y120890D02*
X353135D01*
X161921Y120390D02*
X353135D01*
X161832Y123890D02*
X353135D01*
X162062Y123390D02*
X353135D01*
X162301Y121890D02*
X353135D01*
X162246Y121390D02*
X353135D01*
X162212Y122890D02*
X353135D01*
X162290Y122390D02*
X353135D01*
X132377Y137519D02*
X133877Y136019D01*
X132377Y137519D02*
Y161019D01*
X132434Y137462D02*
Y161076D01*
X133934Y136019D02*
Y162519D01*
X134434Y136019D02*
Y162519D01*
X132934Y136962D02*
Y161576D01*
X133434Y136462D02*
Y162076D01*
X135934Y136019D02*
Y162519D01*
X136434Y136019D02*
Y162519D01*
X134934Y136019D02*
Y162519D01*
X135434Y136019D02*
Y162519D01*
X137934Y136019D02*
Y162519D01*
X138434Y136019D02*
Y162576D01*
X136934Y136019D02*
Y162519D01*
X137434Y136019D02*
Y162519D01*
X139377Y133414D02*
Y135121D01*
Y133414D02*
X141516Y131275D01*
X133877Y136019D02*
X138479D01*
X139377Y135121D01*
X141517Y123890D02*
X155177D01*
X141517Y124390D02*
X155507D01*
X141517Y124890D02*
X155975D01*
X141517Y125391D02*
X156684D01*
X138934Y135564D02*
Y163076D01*
X139434Y133358D02*
Y163576D01*
X132377Y142891D02*
X164897D01*
X132377Y142391D02*
X165690D01*
X140934Y131858D02*
Y173122D01*
X141434Y131358D02*
Y173165D01*
X139934Y132858D02*
Y173235D01*
X140434Y132358D02*
Y173145D01*
X132377Y145390D02*
X163530D01*
X132377Y145890D02*
X163504D01*
X132377Y146390D02*
X163545D01*
X132377Y161019D02*
X133877Y162519D01*
X138377D01*
X139877Y164019D02*
Y173250D01*
X138377Y162519D02*
X139877Y164019D01*
X141377Y181398D02*
Y183121D01*
X140618Y180714D02*
X141377Y181398D01*
X141934Y180566D02*
Y183121D01*
X142262Y173390D02*
X159453D01*
X141434Y180677D02*
Y183121D01*
X141377D02*
X144658D01*
X132377Y146890D02*
X163655D01*
X132377Y147390D02*
X163839D01*
X132377Y147890D02*
X164111D01*
X132377Y148390D02*
X164496D01*
X132377Y143891D02*
X164037D01*
X132377Y143391D02*
X164391D01*
X132377Y144890D02*
X163622D01*
X132377Y144390D02*
X163787D01*
X132377Y148890D02*
X165051D01*
X132377Y149390D02*
X165974D01*
X139877Y168391D02*
X172639D01*
X139877Y167891D02*
X172987D01*
X139877Y168891D02*
X172509D01*
X139877Y169390D02*
X172541D01*
X139877Y169890D02*
X172747D01*
X139877Y170390D02*
X173245D01*
X158434Y125854D02*
Y173995D01*
X143692Y174390D02*
X158023D01*
X143150Y173890D02*
X158566D01*
X159934Y125576D02*
Y173235D01*
X160434Y125329D02*
Y173145D01*
X158934Y125831D02*
Y173644D01*
X159434Y125740D02*
Y173398D01*
X144336Y175391D02*
X157380D01*
X144070Y174890D02*
X157646D01*
X144621Y176391D02*
X157095D01*
X144515Y175891D02*
X157200D01*
X157434Y125701D02*
Y175272D01*
X157934Y125812D02*
Y174494D01*
X144658Y176891D02*
X157058D01*
X144629Y177391D02*
X157087D01*
X160934Y124977D02*
Y173122D01*
X161434Y124475D02*
Y173165D01*
X163934Y147587D02*
Y174691D01*
X170934Y146953D02*
Y183122D01*
X164434Y148322D02*
Y175637D01*
X168934Y149263D02*
Y183644D01*
X169434Y148977D02*
Y183398D01*
X167934Y149578D02*
Y184494D01*
X168434Y149459D02*
Y183995D01*
X169934Y148573D02*
Y183235D01*
X170434Y147985D02*
Y183145D01*
X172934Y170133D02*
Y183739D01*
X173434Y170493D02*
Y184128D01*
X143934Y179152D02*
Y183121D01*
X143746Y179391D02*
X157969D01*
X143434Y179715D02*
Y183121D01*
X143229Y179891D02*
X158486D01*
X144434Y178206D02*
Y183121D01*
X144532Y177891D02*
X157184D01*
X144362Y178391D02*
X157353D01*
X144108Y178891D02*
X157608D01*
X142434Y180379D02*
Y183121D01*
X142934Y180104D02*
Y183121D01*
X144658Y183890D02*
X148566D01*
X144658Y183390D02*
X149453D01*
X158434Y179848D02*
Y183995D01*
X153150Y183890D02*
X158566D01*
X144658Y184390D02*
X148023D01*
X153692D02*
X158023D01*
X142409Y180391D02*
X159307D01*
X159934Y180607D02*
Y183235D01*
X152262Y183390D02*
X159453D01*
X160434Y180698D02*
Y183145D01*
X161434Y180677D02*
Y183165D01*
X161934Y180566D02*
Y183277D01*
X160934Y180721D02*
Y183122D01*
X162262Y183390D02*
X169453D01*
X158934Y180199D02*
Y183644D01*
X162934Y180104D02*
Y183739D01*
X159434Y180445D02*
Y183398D01*
X162434Y180379D02*
Y183464D01*
X163434Y179715D02*
Y184128D01*
X163150Y183890D02*
X168566D01*
X163692Y184390D02*
X168023D01*
X173692D02*
X178023D01*
X144658Y186890D02*
X147058D01*
X144658Y187390D02*
X147087D01*
X144658Y187891D02*
X147184D01*
X144658Y185390D02*
X147380D01*
X144658Y184890D02*
X147646D01*
X144658Y186390D02*
X147095D01*
X144658Y185890D02*
X147200D01*
X144658Y183121D02*
Y190721D01*
Y188391D02*
X147353D01*
X144658Y188891D02*
X147608D01*
X154434Y188206D02*
Y195657D01*
X155434Y124294D02*
Y195657D01*
X147434Y188570D02*
Y195657D01*
X153934Y189152D02*
Y195657D01*
X154336Y185390D02*
X157380D01*
X154070Y184890D02*
X157646D01*
X154621Y186390D02*
X157095D01*
X154515Y185890D02*
X157200D01*
X157434Y178570D02*
Y185272D01*
X157934Y179349D02*
Y184494D01*
X154658Y186890D02*
X157058D01*
X154629Y187390D02*
X157087D01*
X155934Y124854D02*
Y195657D01*
X154532Y187891D02*
X157184D01*
X154362Y188391D02*
X157353D01*
X154108Y188891D02*
X157608D01*
X156434Y125241D02*
Y195657D01*
X156934Y125515D02*
Y195657D01*
X157434Y188570D02*
Y195657D01*
X142434Y190721D02*
Y195657D01*
X142934Y190721D02*
Y195657D01*
X141377Y190721D02*
Y195657D01*
Y190721D02*
X144658D01*
Y189391D02*
X147969D01*
X144658Y189891D02*
X148486D01*
X143434Y190721D02*
Y195657D01*
X144658Y190391D02*
X149307D01*
X143934Y190721D02*
Y195657D01*
X144434Y190721D02*
Y195657D01*
X141434Y190721D02*
Y195657D01*
X141934Y190721D02*
Y195657D01*
X147934Y189349D02*
Y195657D01*
X148434Y189848D02*
Y195657D01*
X148934Y190199D02*
Y195657D01*
X149434Y190445D02*
Y195657D01*
X149934Y190608D02*
Y195657D01*
X151934Y190566D02*
Y195657D01*
X150434Y190698D02*
Y195657D01*
X150934Y190721D02*
Y195657D01*
X153746Y189391D02*
X157969D01*
X153229Y189891D02*
X158486D01*
X152434Y190379D02*
Y195657D01*
X152409Y190391D02*
X159307D01*
X153434Y189715D02*
Y195657D01*
X157934Y189349D02*
Y195657D01*
X151434Y190677D02*
Y195657D01*
X152934Y190104D02*
Y195657D01*
X158434Y189848D02*
Y195657D01*
X158934Y190199D02*
Y195657D01*
X159434Y190445D02*
Y195657D01*
X159934Y190608D02*
Y195657D01*
X164434Y178206D02*
Y185637D01*
X163934Y179152D02*
Y184691D01*
X164336Y185390D02*
X167380D01*
X164621Y186390D02*
X167095D01*
X164515Y185890D02*
X167200D01*
X164658Y186890D02*
X167058D01*
X164629Y187390D02*
X167087D01*
X164934Y148801D02*
Y195657D01*
X164532Y187891D02*
X167183D01*
X164434Y188206D02*
Y195657D01*
X164362Y188391D02*
X167353D01*
X165434Y149139D02*
Y195657D01*
X165934Y149375D02*
Y195657D01*
X166434Y149530D02*
Y195657D01*
X166934Y149613D02*
Y195657D01*
X167434Y149628D02*
Y185272D01*
X173934Y170630D02*
Y184691D01*
X164070Y184890D02*
X167646D01*
X174070D02*
X177646D01*
X174434Y170604D02*
Y185637D01*
X174336Y185390D02*
X177380D01*
X174621Y186390D02*
X177095D01*
X174515Y185890D02*
X177200D01*
X174532Y187891D02*
X177183D01*
X174434Y188206D02*
Y195657D01*
X174362Y188391D02*
X177353D01*
X174934Y170405D02*
Y195657D01*
X175434Y169924D02*
Y195657D01*
X174658Y186890D02*
X177058D01*
X174629Y187390D02*
X177087D01*
X162434Y190379D02*
Y195657D01*
X162409Y190391D02*
X169307D01*
X160934Y190721D02*
Y195657D01*
X161934Y190566D02*
Y195657D01*
X164108Y188891D02*
X167608D01*
X163746Y189391D02*
X167969D01*
X162934Y190104D02*
Y195657D01*
X163229Y189891D02*
X168486D01*
X163434Y189715D02*
Y195657D01*
X163934Y189152D02*
Y195657D01*
X160434Y190698D02*
Y195657D01*
X161434Y190677D02*
Y195657D01*
X167434Y188570D02*
Y195657D01*
X167934Y189349D02*
Y195657D01*
X168434Y189848D02*
Y195657D01*
X168934Y190199D02*
Y195657D01*
X169434Y190445D02*
Y195657D01*
X169934Y190608D02*
Y195657D01*
X170934Y190721D02*
Y195657D01*
X171434Y190677D02*
Y195657D01*
X174108Y188891D02*
X177608D01*
X173746Y189391D02*
X177969D01*
X171934Y190566D02*
Y195657D01*
X173229Y189891D02*
X178486D01*
X172934Y190104D02*
Y195657D01*
X173434Y189715D02*
Y195657D01*
X170434Y190698D02*
Y195657D01*
X172434Y190379D02*
Y195657D01*
X173934Y189152D02*
Y195657D01*
X177434Y188570D02*
Y195657D01*
X177934Y189349D02*
Y195657D01*
X178434Y189848D02*
Y195657D01*
X132377Y138891D02*
X237771D01*
X132377Y139391D02*
X237731D01*
X132377Y139891D02*
X237758D01*
X132506Y137390D02*
X238331D01*
X133006Y136890D02*
X238713D01*
X132377Y138391D02*
X237878D01*
X132377Y137891D02*
X238061D01*
X132377Y150891D02*
X238511D01*
X132377Y150391D02*
X238968D01*
X132377Y151891D02*
X237962D01*
X132377Y151391D02*
X238188D01*
X132377Y140391D02*
X237852D01*
X132377Y140891D02*
X238019D01*
X132377Y141391D02*
X238270D01*
X132377Y141891D02*
X238627D01*
X140901Y131890D02*
X353135D01*
X141401Y131391D02*
X353135D01*
X139901Y132890D02*
X353135D01*
X140401Y132390D02*
X353135D01*
X141516Y129891D02*
X353135D01*
X141516Y129391D02*
X353135D01*
X141516Y130891D02*
X353135D01*
X141516Y130391D02*
X353135D01*
X138608Y135890D02*
X240173D01*
X139108Y135390D02*
X353135D01*
X133506Y136390D02*
X239263D01*
X132377Y149890D02*
X239658D01*
X139377Y133890D02*
X353135D01*
X139401Y133390D02*
X353135D01*
X139377Y134890D02*
X353135D01*
X139377Y134390D02*
X353135D01*
X132377Y156391D02*
X181650D01*
X132377Y156890D02*
X182013D01*
X132377Y159890D02*
X189234D01*
X132377Y154891D02*
X181732D01*
X132377Y154391D02*
X182209D01*
X132377Y155891D02*
X181511D01*
X132377Y155391D02*
X181535D01*
X132377Y160890D02*
X188622D01*
X132377Y160390D02*
X188799D01*
X132749Y161390D02*
X188613D01*
X133249Y161890D02*
X188770D01*
X133749Y162390D02*
X189166D01*
X138749Y162891D02*
X200493D01*
X139877Y167391D02*
X189629D01*
X139877Y166891D02*
X229894D01*
X132377Y157890D02*
X353135D01*
X132377Y157390D02*
X353135D01*
X132377Y158890D02*
X353135D01*
X132377Y158390D02*
X353135D01*
X132377Y152891D02*
X237743D01*
X132377Y152391D02*
X237817D01*
X132377Y153391D02*
X237736D01*
X132377Y153891D02*
X237795D01*
X132377Y159390D02*
X239199D01*
X139249Y163391D02*
X352377D01*
X139877Y164391D02*
X352377D01*
X139749Y163891D02*
X352377D01*
X139877Y165391D02*
X243075D01*
X139877Y164891D02*
X352377D01*
X139877Y166391D02*
X242227D01*
X139877Y165891D02*
X242472D01*
X168918Y142391D02*
X239137D01*
X170571Y143891D02*
X202632D01*
X169711Y142891D02*
X239940D01*
X170986Y144890D02*
X201626D01*
X170820Y144390D02*
X201905D01*
X171078Y145390D02*
X201540D01*
X171104Y145890D02*
X201615D01*
X171063Y146390D02*
X201877D01*
X170953Y146890D02*
X202539D01*
X183995Y154391D02*
X185608D01*
X187394D02*
X237923D01*
X184471Y154891D02*
X185131D01*
X187870D02*
X238129D01*
X141517Y126891D02*
X353135D01*
X141517Y126391D02*
X353135D01*
X141516Y127891D02*
X353135D01*
X141516Y127391D02*
X353135D01*
X161035Y124890D02*
X353135D01*
X161502Y124390D02*
X353135D01*
X141517Y125891D02*
X353135D01*
X160325Y125391D02*
X353135D01*
X141516Y128891D02*
X353135D01*
X141516Y128391D02*
X353135D01*
X168633Y149390D02*
X353135D01*
X169557Y148890D02*
X353135D01*
X170769Y147390D02*
X353135D01*
X170217Y143391D02*
X353135D01*
X170112Y148390D02*
X353135D01*
X170497Y147890D02*
X353135D01*
X184553Y156391D02*
X185049D01*
X184190Y156890D02*
X185412D01*
X189434Y162574D02*
Y167468D01*
X190934Y162588D02*
Y167456D01*
X191434Y162183D02*
Y167790D01*
X189934Y162746D02*
Y167318D01*
X190434Y162750D02*
Y167314D01*
X175564Y168391D02*
X188543D01*
X175216Y167891D02*
X188863D01*
X175456Y169890D02*
X188581D01*
X174958Y170390D02*
X188944D01*
X175695Y168891D02*
X188410D01*
X188934Y162150D02*
Y167816D01*
X175663Y169390D02*
X188421D01*
X191985Y168891D02*
X193731D01*
X188067Y155391D02*
X238428D01*
X188091Y155891D02*
X238850D01*
X187952Y156391D02*
X239472D01*
X187589Y156890D02*
X240638D01*
X191596Y160390D02*
X199566D01*
X191161Y159890D02*
X200167D01*
X191782Y161390D02*
X199260D01*
X191773Y160890D02*
X199321D01*
X190766Y167391D02*
X194719D01*
X191229Y162390D02*
X199658D01*
X191532Y167891D02*
X194109D01*
X191451Y170390D02*
X194387D01*
X191853Y168391D02*
X193834D01*
X191625Y161890D02*
X199359D01*
X191974Y169390D02*
X193772D01*
X191814Y169890D02*
X193965D01*
X139877Y170890D02*
X190030D01*
X164515Y175891D02*
X197200D01*
X164336Y175391D02*
X197380D01*
X164658Y176891D02*
X197058D01*
X164621Y176391D02*
X197095D01*
X164629Y177391D02*
X197087D01*
X164532Y177891D02*
X197184D01*
X181934Y156812D02*
Y183277D01*
X164362Y178391D02*
X197353D01*
X164108Y178891D02*
X197608D01*
X182434Y157172D02*
Y183464D01*
X183934Y157084D02*
Y184691D01*
X182934Y157309D02*
Y183739D01*
X183434Y157283D02*
Y184128D01*
X139877Y171890D02*
X352377D01*
X139877Y171390D02*
X352377D01*
X139877Y172890D02*
X352377D01*
X139877Y172390D02*
X352377D01*
X163150Y173890D02*
X198566D01*
X162262Y173390D02*
X199453D01*
X164070Y174890D02*
X197646D01*
X163692Y174390D02*
X198023D01*
X140814Y180891D02*
X349624D01*
X141369Y181391D02*
X349624D01*
X141377Y182390D02*
X349624D01*
X141377Y182890D02*
X349624D01*
X163746Y179391D02*
X197969D01*
X163229Y179891D02*
X198486D01*
X162409Y180391D02*
X199307D01*
X141377Y181890D02*
X349624D01*
X173150Y183890D02*
X178566D01*
X172263Y183390D02*
X179453D01*
X172409Y190391D02*
X179307D01*
X179434Y190445D02*
Y195657D01*
X184070Y184890D02*
X187646D01*
X183746Y189391D02*
X187969D01*
X179934Y190608D02*
Y195657D01*
X180434Y190698D02*
Y195657D01*
X178934Y190199D02*
Y195657D01*
X181934Y190566D02*
Y195657D01*
X180934Y190721D02*
Y195657D01*
X181434Y190677D02*
Y195657D01*
X183434Y189715D02*
Y195657D01*
X183934Y189152D02*
Y195657D01*
X182434Y190379D02*
Y195657D01*
X182934Y190104D02*
Y195657D01*
X182263Y183390D02*
X189453D01*
X141377Y190891D02*
X349625D01*
X141377Y191391D02*
X349625D01*
X141377Y191891D02*
X349625D01*
X183692Y184390D02*
X188023D01*
X183150Y183890D02*
X188566D01*
X183229Y189891D02*
X188486D01*
X182409Y190391D02*
X189307D01*
X141377Y194390D02*
X349625D01*
X141377Y194890D02*
X349625D01*
X141377Y195390D02*
X349625D01*
X141377Y195657D02*
X349625D01*
X141377Y192391D02*
X349625D01*
X141377Y192891D02*
X349625D01*
X141377Y193391D02*
X349625D01*
X141377Y193891D02*
X349625D01*
X187934Y156428D02*
Y184494D01*
X188434Y169460D02*
Y183995D01*
X188934Y170381D02*
Y183644D01*
X189434Y170729D02*
Y183398D01*
X190934Y170741D02*
Y183122D01*
X189934Y170879D02*
Y183235D01*
X190434Y170883D02*
Y183145D01*
X184434Y156603D02*
Y185637D01*
X184934Y156045D02*
Y195657D01*
X185434Y156911D02*
Y195657D01*
X184336Y185390D02*
X187380D01*
X185934Y157214D02*
Y195657D01*
X187434Y157017D02*
Y185272D01*
X186434Y157317D02*
Y195657D01*
X186934Y157258D02*
Y195657D01*
X191934Y169571D02*
Y183277D01*
X191434Y170406D02*
Y183165D01*
X190365Y170890D02*
X352377D01*
X192262Y183390D02*
X199453D01*
X193692Y184390D02*
X198023D01*
X193150Y183890D02*
X198566D01*
X193934Y169835D02*
Y184691D01*
X194336Y185390D02*
X197380D01*
X194070Y184890D02*
X197646D01*
X194434Y170428D02*
Y185637D01*
X194934Y170697D02*
Y195657D01*
X195434Y170796D02*
Y195657D01*
X194515Y185890D02*
X197200D01*
X184532Y187891D02*
X187183D01*
X184515Y185890D02*
X187200D01*
X184362Y188391D02*
X187353D01*
X184108Y188891D02*
X187608D01*
X184658Y186890D02*
X187058D01*
X184621Y186390D02*
X187095D01*
X184629Y187390D02*
X187087D01*
X190434Y190698D02*
Y195657D01*
X184434Y188206D02*
Y195657D01*
X187434Y188570D02*
Y195657D01*
X187934Y189349D02*
Y195657D01*
X188434Y189848D02*
Y195657D01*
X188934Y190199D02*
Y195657D01*
X189434Y190445D02*
Y195657D01*
X189934Y190608D02*
Y195657D01*
X190934Y190721D02*
Y195657D01*
X194362Y188391D02*
X197353D01*
X194108Y188891D02*
X197608D01*
X193746Y189391D02*
X197969D01*
X193229Y189891D02*
X198486D01*
X194658Y186890D02*
X197058D01*
X194621Y186390D02*
X197095D01*
X194629Y187390D02*
X197087D01*
X194532Y187891D02*
X197184D01*
X192434Y190379D02*
Y195657D01*
X192409Y190391D02*
X199307D01*
X191434Y190677D02*
Y195657D01*
X191934Y190566D02*
Y195657D01*
X193934Y189152D02*
Y195657D01*
X194434Y188206D02*
Y195657D01*
X192934Y190104D02*
Y195657D01*
X193434Y189715D02*
Y195657D01*
X203434Y13168D02*
Y143835D01*
X202434Y13168D02*
Y143972D01*
X202934Y13168D02*
Y143821D01*
X238434Y13168D02*
Y137237D01*
X238934Y13168D02*
Y136665D01*
X203934Y13168D02*
Y144019D01*
X237934Y13168D02*
Y138212D01*
X200934Y13168D02*
Y159735D01*
X201434Y13168D02*
Y159840D01*
X199934Y13168D02*
Y160027D01*
X200434Y13168D02*
Y159790D01*
X201934Y13168D02*
Y144356D01*
X204434Y13168D02*
Y144467D01*
X237934Y140667D02*
Y151970D01*
X238434Y141642D02*
Y150994D01*
X240934Y13168D02*
Y135687D01*
X241434Y13168D02*
Y135641D01*
X239934Y13168D02*
Y135991D01*
X240434Y13168D02*
Y135801D01*
X241934Y13168D02*
Y135661D01*
X242434Y13168D02*
Y135749D01*
X242934Y13168D02*
Y135908D01*
X242889Y135890D02*
X250173D01*
X239434Y13168D02*
Y136270D01*
X243434Y13168D02*
Y136151D01*
X243799Y136390D02*
X249263D01*
X243934Y13168D02*
Y136496D01*
X244434Y13168D02*
Y136988D01*
X244435Y141891D02*
X248627D01*
X244349Y136890D02*
X248712D01*
X238934Y142214D02*
Y150422D01*
X239434Y142609D02*
Y150027D01*
X239934Y142888D02*
Y149748D01*
X240434Y143078D02*
Y149558D01*
X240934Y143193D02*
Y149444D01*
X241434Y143238D02*
Y149398D01*
X238434Y155400D02*
Y160037D01*
X238934Y155972D02*
Y159537D01*
X201551Y159890D02*
X238543D01*
X239434Y156366D02*
Y159305D01*
X239934Y156645D02*
Y159234D01*
X240434Y156835D02*
Y159306D01*
X240934Y156950D02*
Y159539D01*
X241434Y156996D02*
Y160042D01*
X242934Y142971D02*
Y149665D01*
X243122Y142891D02*
X249940D01*
X241934Y143218D02*
Y149418D01*
X242434Y143131D02*
Y149506D01*
X243934Y142383D02*
Y150254D01*
X243925Y142391D02*
X249137D01*
X243434Y142728D02*
Y149908D01*
X243404Y149890D02*
X249658D01*
X242423Y156890D02*
X250638D01*
X241322Y159890D02*
X249663D01*
X240666Y159390D02*
X250518D01*
X244434Y141891D02*
Y150745D01*
X244093Y150391D02*
X248969D01*
X244211Y155891D02*
X248850D01*
X243590Y156391D02*
X249472D01*
X244934Y13168D02*
Y137750D01*
X245001Y137891D02*
X248061D01*
X244731Y137390D02*
X248330D01*
X249434Y13168D02*
Y136270D01*
X249934Y13168D02*
Y135991D01*
X248434Y13168D02*
Y137237D01*
X248934Y13168D02*
Y136665D01*
X245291Y138891D02*
X247771D01*
X245183Y138391D02*
X247878D01*
X245210Y140391D02*
X247852D01*
X245043Y140891D02*
X248019D01*
X245330Y139391D02*
X247731D01*
X247934Y13168D02*
Y138212D01*
X245304Y139891D02*
X247758D01*
X247934Y140667D02*
Y151970D01*
X251434Y13168D02*
Y135641D01*
X251934Y13168D02*
Y135661D01*
X250434Y13168D02*
Y135801D01*
X250934Y13168D02*
Y135687D01*
X253434Y13168D02*
Y136151D01*
X253934Y13168D02*
Y136496D01*
X252434Y13168D02*
Y135749D01*
X252934Y13168D02*
Y135908D01*
X254434Y13168D02*
Y136988D01*
X254934Y13168D02*
Y137750D01*
Y141129D02*
Y151507D01*
X255291Y138891D02*
X261957D01*
X255183Y138391D02*
X262092D01*
X255330Y139391D02*
X261985D01*
X255304Y139891D02*
X262186D01*
X244934Y141129D02*
Y151507D01*
X244792Y141391D02*
X248270D01*
X244874Y151391D02*
X248187D01*
X244551Y150891D02*
X248511D01*
X248434Y141642D02*
Y150994D01*
X248934Y142214D02*
Y150422D01*
X249434Y142609D02*
Y150027D01*
X249934Y142888D02*
Y149748D01*
X245138Y154391D02*
X247923D01*
X245099Y151891D02*
X247962D01*
X244932Y154891D02*
X248129D01*
X244634Y155391D02*
X248428D01*
X245318Y152891D02*
X247743D01*
X245244Y152391D02*
X247817D01*
X245326Y153391D02*
X247736D01*
X245267Y153891D02*
X247795D01*
X250434Y143078D02*
Y149558D01*
X250934Y143193D02*
Y149444D01*
X251434Y143238D02*
Y149398D01*
X251934Y143218D02*
Y149418D01*
X253434Y142728D02*
Y149908D01*
X253934Y142383D02*
Y150254D01*
X252434Y143131D02*
Y149506D01*
X252934Y142971D02*
Y149665D01*
X249934Y156645D02*
Y159658D01*
X250434Y156835D02*
Y159414D01*
X250934Y156950D02*
Y159335D01*
X252434Y156888D02*
Y160096D01*
X254434Y141891D02*
Y150745D01*
X251434Y156996D02*
Y159397D01*
X251934Y156975D02*
Y159618D01*
X196934Y13168D02*
Y167875D01*
X195934Y13168D02*
Y167245D01*
X196434Y13168D02*
Y167443D01*
X198934Y13168D02*
Y173644D01*
X199434Y13168D02*
Y160605D01*
X197934Y13168D02*
Y174494D01*
X198434Y13168D02*
Y173995D01*
X205434Y13168D02*
Y195657D01*
X205934Y13168D02*
Y195657D01*
X197434Y13168D02*
Y175272D01*
X204934Y13168D02*
Y195657D01*
X207434Y13168D02*
Y195657D01*
X207934Y13168D02*
Y195657D01*
X206434Y13168D02*
Y195657D01*
X206934Y13168D02*
Y195657D01*
X213434Y13168D02*
Y195657D01*
X220434Y13168D02*
Y195657D01*
X212434Y13168D02*
Y195657D01*
X212934Y13168D02*
Y195657D01*
X222434Y13168D02*
Y175594D01*
X226434Y13168D02*
Y173147D01*
X220934Y13168D02*
Y195657D01*
X221934Y13168D02*
Y195657D01*
X209434Y13168D02*
Y195657D01*
X209934Y13168D02*
Y195657D01*
X208434Y13168D02*
Y195657D01*
X208934Y13168D02*
Y195657D01*
X211434Y13168D02*
Y195657D01*
X211934Y13168D02*
Y195657D01*
X210434Y13168D02*
Y195657D01*
X210934Y13168D02*
Y195657D01*
X201934Y146459D02*
Y160148D01*
X202434Y146844D02*
Y161053D01*
Y161613D02*
Y173464D01*
X203934Y146797D02*
Y174691D01*
X204434Y146349D02*
Y175637D01*
X202934Y146995D02*
Y173739D01*
X203434Y146981D02*
Y174128D01*
X214934Y13168D02*
Y195657D01*
X215434Y13168D02*
Y195657D01*
X213934Y13168D02*
Y195657D01*
X214434Y13168D02*
Y195657D01*
X216934Y13168D02*
Y195657D01*
X217434Y13168D02*
Y195657D01*
X215934Y13168D02*
Y195657D01*
X216434Y13168D02*
Y195657D01*
X223934Y13168D02*
Y173729D01*
X202152Y160390D02*
X238252D01*
X202397Y160890D02*
X238138D01*
X202458Y161390D02*
X238168D01*
X225434Y13168D02*
Y173163D01*
X225934Y13168D02*
Y173122D01*
X224434Y13168D02*
Y173457D01*
X224934Y13168D02*
Y173272D01*
X218934Y13168D02*
Y195657D01*
X219434Y13168D02*
Y195657D01*
X217934Y13168D02*
Y195657D01*
X218434Y13168D02*
Y195657D01*
X222934Y13168D02*
Y174669D01*
X223434Y13168D02*
Y174114D01*
X219934Y13168D02*
Y195657D01*
X221434Y13168D02*
Y195657D01*
X230434Y13168D02*
Y166571D01*
X229434Y13168D02*
Y167610D01*
X229934Y13168D02*
Y166856D01*
X231934Y13168D02*
Y166809D01*
X232434Y13168D02*
Y167451D01*
X230934Y13168D02*
Y166481D01*
X231434Y13168D02*
Y166552D01*
X233934Y13168D02*
Y173729D01*
X234434Y13168D02*
Y173457D01*
X232934Y13168D02*
Y174669D01*
X233434Y13168D02*
Y174114D01*
X235934Y13168D02*
Y173122D01*
X236434Y13168D02*
Y173147D01*
X234934Y13168D02*
Y173272D01*
X235434Y13168D02*
Y173163D01*
X245934Y13168D02*
Y173122D01*
X246434Y13168D02*
Y173147D01*
X236934Y13168D02*
Y173239D01*
X245434Y13168D02*
Y173163D01*
X256434Y13168D02*
Y173147D01*
X256934Y13168D02*
Y173239D01*
X246934Y13168D02*
Y173239D01*
X255934Y13168D02*
Y173122D01*
X257434Y13168D02*
Y173405D01*
X257934Y13168D02*
Y173654D01*
X237434Y13168D02*
Y173405D01*
X247434Y13168D02*
Y173405D01*
X260934Y13168D02*
Y195657D01*
X261434Y13168D02*
Y195657D01*
X258434Y13168D02*
Y174008D01*
X258934Y13168D02*
Y174513D01*
X226934Y13168D02*
Y173239D01*
X242934Y156728D02*
Y165466D01*
X242434Y156888D02*
Y165945D01*
X244434Y155648D02*
Y165382D01*
X244934Y154887D02*
Y165743D01*
X243434Y156486D02*
Y165269D01*
X243934Y156140D02*
Y165243D01*
X228434Y13168D02*
Y174008D01*
X228934Y13168D02*
Y174513D01*
X227434Y13168D02*
Y173405D01*
X227934Y13168D02*
Y173654D01*
X237934Y154424D02*
Y173654D01*
X247934Y154424D02*
Y173654D01*
X241934Y156975D02*
Y195657D01*
X248434Y155400D02*
Y174008D01*
X241614Y160390D02*
X249325D01*
X241727Y160890D02*
X249181D01*
X241697Y161390D02*
X249183D01*
X254934Y154887D02*
Y173272D01*
X255434Y13168D02*
Y173163D01*
X249434Y156366D02*
Y160186D01*
X254434Y155648D02*
Y173457D01*
X248934Y155972D02*
Y174513D01*
X253934Y156140D02*
Y173729D01*
X252934Y156728D02*
Y174669D01*
X253434Y156486D02*
Y174114D01*
X260434Y13168D02*
Y195657D01*
X261934Y13168D02*
Y195657D01*
X259434Y13168D02*
Y175306D01*
X259934Y13168D02*
Y195657D01*
X262934Y13168D02*
Y137575D01*
X262434Y13168D02*
Y137905D01*
X255001Y137891D02*
X262449D01*
X264434Y13168D02*
Y137720D01*
X264934Y13168D02*
Y138252D01*
X263434Y13168D02*
Y137457D01*
X263934Y13168D02*
Y137500D01*
X278434Y13168D02*
Y184149D01*
X278934Y13168D02*
Y183753D01*
X255210Y140391D02*
X262672D01*
X280434Y13168D02*
Y183169D01*
X280934Y13168D02*
Y183123D01*
X279434Y13168D02*
Y183474D01*
X279934Y13168D02*
Y183284D01*
X253799Y136390D02*
X353135D01*
X252889Y135890D02*
X353135D01*
X254731Y137390D02*
X353135D01*
X254349Y136890D02*
X353135D01*
X265006Y138391D02*
X353135D01*
X264649Y137891D02*
X353135D01*
X265113Y139391D02*
X353135D01*
X265141Y138891D02*
X353135D01*
X264426Y140391D02*
X353135D01*
X264912Y139891D02*
X353135D01*
X254792Y141391D02*
X353135D01*
X255043Y140891D02*
X353135D01*
X282434Y13168D02*
Y183389D01*
X282934Y13168D02*
Y183632D01*
X281434Y13168D02*
Y183143D01*
X281934Y13168D02*
Y183230D01*
X254932Y154891D02*
X353135D01*
X254211Y155891D02*
X353135D01*
X254634Y155391D02*
X353135D01*
X255326Y153391D02*
X353135D01*
X255318Y152891D02*
X353135D01*
X255138Y154391D02*
X353135D01*
X255267Y153891D02*
X353135D01*
X251410Y159390D02*
X353135D01*
X252423Y156890D02*
X353135D01*
X252598Y161890D02*
X353135D01*
X252265Y159890D02*
X353135D01*
X252603Y160390D02*
X353135D01*
X253590Y156391D02*
X353135D01*
X252746Y161390D02*
X353135D01*
X252748Y160890D02*
X353135D01*
X204375Y144390D02*
X353135D01*
X203648Y143891D02*
X353135D01*
X204666Y145890D02*
X353135D01*
X204654Y144890D02*
X353135D01*
X253925Y142391D02*
X353135D01*
X254435Y141891D02*
X353135D01*
X204740Y145390D02*
X353135D01*
X253121Y142891D02*
X353135D01*
X203742Y146890D02*
X353135D01*
X204403Y146390D02*
X353135D01*
X254093Y150391D02*
X353135D01*
X253404Y149890D02*
X353135D01*
X254874Y151391D02*
X353135D01*
X254551Y150891D02*
X353135D01*
X255244Y152391D02*
X353135D01*
X255099Y151891D02*
X353135D01*
X299934Y13168D02*
Y183284D01*
X289434Y13168D02*
Y183474D01*
X299434Y13168D02*
Y183474D01*
X304624Y13168D02*
X307124Y10667D01*
X309434Y10666D02*
Y183474D01*
X300434Y13168D02*
Y183169D01*
X300934Y13168D02*
Y183123D01*
X293934Y13168D02*
Y184468D01*
X297934Y13168D02*
Y184721D01*
X288934Y13168D02*
Y183753D01*
X293434Y13168D02*
Y183977D01*
X308434Y10667D02*
Y184149D01*
X308934Y10666D02*
Y183753D01*
X298434Y13168D02*
Y184149D01*
X298934Y13168D02*
Y183753D01*
X306401Y11390D02*
X335215D01*
X305901Y11891D02*
X335530D01*
X305401Y12391D02*
X335844D01*
X304901Y12890D02*
X336159D01*
X310934Y10665D02*
Y183123D01*
X307124Y10667D02*
X334741Y10650D01*
X306901Y10891D02*
X334900D01*
X334845Y10803D02*
X338790Y17067D01*
X311434Y10665D02*
Y183143D01*
X311934Y10665D02*
Y183230D01*
X309934Y10666D02*
Y183284D01*
X310434Y10665D02*
Y183169D01*
X313434Y10663D02*
Y183977D01*
X313934Y10663D02*
Y184468D01*
X312434Y10664D02*
Y183389D01*
X312934Y10664D02*
Y183632D01*
X290934Y13168D02*
Y183123D01*
X291434Y13168D02*
Y183143D01*
X289934Y13168D02*
Y183284D01*
X290434Y13168D02*
Y183169D01*
X301434Y13168D02*
Y183143D01*
X301934Y13168D02*
Y183230D01*
X291934Y13168D02*
Y183230D01*
X292434Y13168D02*
Y183389D01*
X288434Y13168D02*
Y184149D01*
X292934Y13168D02*
Y183632D01*
X283434Y13168D02*
Y183977D01*
X283934Y13168D02*
Y184468D01*
X303434Y13168D02*
Y183977D01*
X303934Y13168D02*
Y184468D01*
X302434Y13168D02*
Y183389D01*
X302934Y13168D02*
Y183632D01*
X338790Y17067D02*
X342288Y23592D01*
X345323Y30344D01*
X347879Y37292D01*
X349944Y44401D01*
X349959Y44458D02*
Y79637D01*
X352377Y82056D01*
Y116519D01*
X353135Y117277D01*
X349934Y44366D02*
Y180358D01*
X350434Y80113D02*
Y179858D01*
X350934Y80613D02*
Y179358D01*
X351434Y81113D02*
Y178858D01*
X351934Y81613D02*
Y178358D01*
X352434Y116576D02*
Y162962D01*
X352934Y117076D02*
Y162462D01*
X353135Y117277D02*
Y162261D01*
X272934Y13168D02*
Y195657D01*
X271934Y13168D02*
Y195657D01*
X272434Y13168D02*
Y195657D01*
X274434Y13168D02*
Y195657D01*
X274934Y13168D02*
Y195657D01*
X273434Y13168D02*
Y195657D01*
X273934Y13168D02*
Y195657D01*
X266434Y13168D02*
Y195657D01*
X266934Y13168D02*
Y195657D01*
X265434Y13168D02*
Y195657D01*
X265934Y13168D02*
Y195657D01*
X270934Y13168D02*
Y195657D01*
X271434Y13168D02*
Y195657D01*
X267434Y13168D02*
Y195657D01*
X270434Y13168D02*
Y195657D01*
X305934Y11858D02*
Y195657D01*
X306434Y11358D02*
Y195657D01*
X275434Y13168D02*
Y195657D01*
X304934Y12858D02*
Y195657D01*
X307934Y10667D02*
Y184721D01*
X314434Y10663D02*
Y185228D01*
X306934Y10858D02*
Y195657D01*
X307434Y10667D02*
Y185700D01*
X315434Y10662D02*
Y195657D01*
X315934Y10662D02*
Y195657D01*
X305434Y12358D02*
Y195657D01*
X314934Y10663D02*
Y195657D01*
X317434Y10661D02*
Y195657D01*
X317934Y10661D02*
Y195657D01*
X316434Y10662D02*
Y195657D01*
X316934Y10661D02*
Y195657D01*
X269934Y13168D02*
Y195657D01*
X275934Y13168D02*
Y195657D01*
X268934Y13168D02*
Y195657D01*
X269434Y13168D02*
Y195657D01*
X277434Y13168D02*
Y185700D01*
X277934Y13168D02*
Y184721D01*
X276434Y13168D02*
Y195657D01*
X276934Y13168D02*
Y195657D01*
X262434Y140200D02*
Y195657D01*
X262934Y140530D02*
Y195657D01*
X263434Y140648D02*
Y195657D01*
X263934Y140605D02*
Y195657D01*
X267934Y13168D02*
Y195657D01*
X268434Y13168D02*
Y195657D01*
X264434Y140385D02*
Y195657D01*
X264934Y139853D02*
Y195657D01*
X286434Y13168D02*
Y195657D01*
X287434Y13168D02*
Y185700D01*
X284434Y13168D02*
Y185228D01*
X285934Y13168D02*
Y195657D01*
X297434Y13168D02*
Y185700D01*
X304434Y13168D02*
Y185228D01*
X287934Y13168D02*
Y184721D01*
X294434Y13168D02*
Y185228D01*
X286934Y13168D02*
Y195657D01*
X294934Y13168D02*
Y195657D01*
X284934Y13168D02*
Y195657D01*
X285434Y13168D02*
Y195657D01*
X296434Y13168D02*
Y195657D01*
X296934Y13168D02*
Y195657D01*
X295434Y13168D02*
Y195657D01*
X295934Y13168D02*
Y195657D01*
X324434Y10657D02*
Y195657D01*
X323434Y10657D02*
Y195657D01*
X323934Y10657D02*
Y195657D01*
X325934Y10656D02*
Y195657D01*
X326434Y10655D02*
Y195657D01*
X324934Y10656D02*
Y195657D01*
X325434Y10656D02*
Y195657D01*
X320434Y10659D02*
Y195657D01*
X320934Y10659D02*
Y195657D01*
X319434Y10660D02*
Y195657D01*
X319934Y10659D02*
Y195657D01*
X322434Y10658D02*
Y195657D01*
X322934Y10657D02*
Y195657D01*
X321434Y10659D02*
Y195657D01*
X321934Y10658D02*
Y195657D01*
X331934Y10652D02*
Y195657D01*
X332434Y10651D02*
Y195657D01*
X330934Y10652D02*
Y195657D01*
X331434Y10652D02*
Y195657D01*
X333934Y10650D02*
Y195657D01*
X334434Y10650D02*
Y195657D01*
X332934Y10651D02*
Y195657D01*
X333434Y10651D02*
Y195657D01*
X327934Y10654D02*
Y195657D01*
X328434Y10654D02*
Y195657D01*
X326934Y10655D02*
Y195657D01*
X327434Y10655D02*
Y195657D01*
X329934Y10653D02*
Y195657D01*
X330434Y10653D02*
Y195657D01*
X328934Y10654D02*
Y195657D01*
X329434Y10653D02*
Y195657D01*
X337934Y15709D02*
Y195657D01*
X338434Y16503D02*
Y195657D01*
X338934Y17337D02*
Y195657D01*
X339434Y18270D02*
Y195657D01*
X339934Y19202D02*
Y195657D01*
X340434Y20135D02*
Y195657D01*
X340934Y21067D02*
Y195657D01*
X341434Y22000D02*
Y195657D01*
X318434Y10660D02*
Y195657D01*
X318934Y10660D02*
Y195657D01*
X334934Y10945D02*
Y195657D01*
X335434Y11739D02*
Y195657D01*
X335934Y12533D02*
Y195657D01*
X336434Y13327D02*
Y195657D01*
X336934Y14121D02*
Y195657D01*
X337434Y14915D02*
Y195657D01*
X345934Y32007D02*
Y195657D01*
X346434Y33366D02*
Y195657D01*
X346934Y34725D02*
Y195657D01*
X347434Y36083D02*
Y195657D01*
X347934Y37483D02*
Y195657D01*
X348434Y39204D02*
Y195657D01*
X348934Y40925D02*
Y195657D01*
X349434Y42645D02*
Y195657D01*
X341934Y22932D02*
Y195657D01*
X342434Y23917D02*
Y195657D01*
X342934Y25030D02*
Y195657D01*
X343434Y26142D02*
Y195657D01*
X343934Y27255D02*
Y195657D01*
X344434Y28367D02*
Y195657D01*
X344934Y29480D02*
Y195657D01*
X345434Y30648D02*
Y195657D01*
X199434Y162061D02*
Y173398D01*
X199934Y162639D02*
Y173235D01*
X200434Y162876D02*
Y173145D01*
X201434Y162826D02*
Y173165D01*
X201934Y162518D02*
Y173277D01*
X200934Y162931D02*
Y173122D01*
X204336Y175391D02*
X222517D01*
X204515Y175891D02*
X222337D01*
X204362Y178391D02*
X222490D01*
X204108Y178891D02*
X222745D01*
X204658Y176891D02*
X222195D01*
X204621Y176391D02*
X222232D01*
X204629Y177391D02*
X222224D01*
X204532Y177891D02*
X222321D01*
X196947Y167891D02*
X229375D01*
X196338Y167391D02*
X229520D01*
X197223Y168391D02*
X229394D01*
X197285Y169390D02*
X230045D01*
X202359Y161890D02*
X238349D01*
X202060Y162390D02*
X238749D01*
X197325Y168891D02*
X229584D01*
X227399Y173390D02*
X234590D01*
X203150Y173890D02*
X223703D01*
X202262Y173390D02*
X224590D01*
X204070Y174890D02*
X222783D01*
X203692Y174390D02*
X223160D01*
X228287Y173890D02*
X233703D01*
X229207Y174890D02*
X232783D01*
X228829Y174390D02*
X233160D01*
X199934Y180607D02*
Y183235D01*
X200434Y180698D02*
Y183145D01*
X200934Y180721D02*
Y183122D01*
X203746Y179391D02*
X223106D01*
X203229Y179891D02*
X223623D01*
X201434Y180677D02*
Y183165D01*
X201934Y180566D02*
Y183277D01*
X198434Y179848D02*
Y183995D01*
X198934Y180199D02*
Y183644D01*
X199434Y180445D02*
Y183398D01*
X202434Y180379D02*
Y183464D01*
X202934Y180104D02*
Y183739D01*
X223434Y179729D02*
Y184114D01*
X203150Y183890D02*
X223703D01*
X223934Y180114D02*
Y183729D01*
X202409Y180391D02*
X224444D01*
X225434Y180680D02*
Y183163D01*
X225934Y180721D02*
Y183122D01*
X226434Y180696D02*
Y183147D01*
X228883Y179391D02*
X233106D01*
X228366Y179891D02*
X233623D01*
X226934Y180603D02*
Y183239D01*
X227546Y180391D02*
X234444D01*
X224434Y180386D02*
Y183457D01*
X224934Y180570D02*
Y183272D01*
X202262Y183390D02*
X224590D01*
X227399D02*
X234590D01*
X227934Y180189D02*
Y183654D01*
X228434Y179835D02*
Y184008D01*
X227434Y180438D02*
Y183405D01*
X228287Y183890D02*
X233703D01*
X229434Y168552D02*
Y175306D01*
X229473Y175391D02*
X232517D01*
X238434Y162032D02*
Y174008D01*
X238934Y162532D02*
Y174513D01*
X239434Y162764D02*
Y175306D01*
X232033Y166891D02*
X242165D01*
X229758Y176391D02*
X232232D01*
X229652Y175891D02*
X232337D01*
X229795Y176891D02*
X232195D01*
X229766Y177391D02*
X232224D01*
X232434Y168710D02*
Y175594D01*
X239795Y176891D02*
X242195D01*
X239758Y176391D02*
X242232D01*
X232407Y167391D02*
X242264D01*
X232552Y167891D02*
X242562D01*
X232533Y168391D02*
X243392D01*
X237400Y173390D02*
X244590D01*
X244934Y167926D02*
Y173272D01*
X243934Y168425D02*
Y173729D01*
X244434Y168287D02*
Y173457D01*
X238829Y174390D02*
X243160D01*
X238287Y173890D02*
X243703D01*
X239473Y175391D02*
X242517D01*
X239207Y174890D02*
X242783D01*
X242434Y167724D02*
Y175594D01*
X242934Y168202D02*
Y174669D01*
X239652Y175891D02*
X242337D01*
X243434Y168400D02*
Y174114D01*
X229669Y177891D02*
X232320D01*
X229499Y178391D02*
X232490D01*
X229245Y178891D02*
X232745D01*
X235434Y180680D02*
Y183163D01*
X239766Y177391D02*
X242224D01*
X239669Y177891D02*
X242320D01*
X235934Y180721D02*
Y183122D01*
X236434Y180696D02*
Y183147D01*
X233434Y179729D02*
Y184114D01*
X233934Y180114D02*
Y183729D01*
X234434Y180386D02*
Y183457D01*
X234934Y180570D02*
Y183272D01*
X237934Y180189D02*
Y183654D01*
X238434Y179835D02*
Y184008D01*
X236934Y180603D02*
Y183239D01*
X237434Y180438D02*
Y183405D01*
X239245Y178891D02*
X242745D01*
X238883Y179391D02*
X243106D01*
X238366Y179891D02*
X243623D01*
X237546Y180391D02*
X244444D01*
X239499Y178391D02*
X242490D01*
X245434Y180680D02*
Y183163D01*
X245934Y180721D02*
Y183122D01*
X246434Y180696D02*
Y183147D01*
X243934Y180114D02*
Y183729D01*
X244434Y180386D02*
Y183457D01*
X238287Y183890D02*
X243703D01*
X237400Y183390D02*
X244590D01*
X247434Y180438D02*
Y183405D01*
X247934Y180189D02*
Y183654D01*
X244934Y180570D02*
Y183272D01*
X246934Y180603D02*
Y183239D01*
X197434Y178570D02*
Y185272D01*
X197934Y179349D02*
Y184494D01*
X203434Y179715D02*
Y184128D01*
X203934Y179152D02*
Y184691D01*
X204434Y178206D02*
Y185637D01*
X204658Y186890D02*
X222195D01*
X204621Y186390D02*
X222232D01*
X196434Y170554D02*
Y195657D01*
X196934Y170122D02*
Y195657D01*
X195934Y170752D02*
Y195657D01*
X204629Y187390D02*
X222224D01*
X204532Y187891D02*
X222321D01*
X197434Y188570D02*
Y195657D01*
X204434Y188206D02*
Y195657D01*
X222934Y179174D02*
Y184669D01*
X203692Y184390D02*
X223160D01*
X204336Y185390D02*
X222517D01*
X204070Y184890D02*
X222783D01*
X228934Y179330D02*
Y184513D01*
X229434Y178537D02*
Y185306D01*
X229207Y184890D02*
X232783D01*
X228829Y184390D02*
X233160D01*
X204515Y185890D02*
X222337D01*
X204362Y188391D02*
X222490D01*
X204108Y188891D02*
X222745D01*
X222434Y188249D02*
Y195657D01*
Y178249D02*
Y185594D01*
X229434Y188537D02*
Y195657D01*
X229245Y188891D02*
X232745D01*
X197934Y189349D02*
Y195657D01*
X198434Y189848D02*
Y195657D01*
X198934Y190199D02*
Y195657D01*
X199434Y190445D02*
Y195657D01*
X199934Y190608D02*
Y195657D01*
X203746Y189391D02*
X223106D01*
X200434Y190698D02*
Y195657D01*
X200934Y190721D02*
Y195657D01*
X202434Y190379D02*
Y195657D01*
X202934Y190104D02*
Y195657D01*
X201434Y190677D02*
Y195657D01*
X201934Y190566D02*
Y195657D01*
X203934Y189152D02*
Y195657D01*
X222934Y189174D02*
Y195657D01*
X203434Y189715D02*
Y195657D01*
X223434Y189729D02*
Y195657D01*
X203229Y189891D02*
X223623D01*
X223934Y190114D02*
Y195657D01*
X202409Y190391D02*
X224444D01*
X224934Y190570D02*
Y195657D01*
X228883Y189391D02*
X233106D01*
X228366Y189891D02*
X233623D01*
X225434Y190680D02*
Y195657D01*
X227546Y190391D02*
X234444D01*
X224434Y190386D02*
Y195657D01*
X226934Y190603D02*
Y195657D01*
X225934Y190721D02*
Y195657D01*
X226434Y190696D02*
Y195657D01*
X228434Y189835D02*
Y195657D01*
X228934Y189330D02*
Y195657D01*
X227434Y190438D02*
Y195657D01*
X227934Y190189D02*
Y195657D01*
X229473Y185390D02*
X232517D01*
X229758Y186390D02*
X232232D01*
X229652Y185890D02*
X232337D01*
X232434Y178249D02*
Y185594D01*
X239434Y178537D02*
Y185306D01*
X232934Y179174D02*
Y184669D01*
X238934Y179330D02*
Y184513D01*
X229934Y169306D02*
Y195657D01*
X229795Y186890D02*
X232195D01*
X229766Y187390D02*
X232224D01*
X229669Y187891D02*
X232320D01*
X230434Y169591D02*
Y195657D01*
X231934Y169352D02*
Y195657D01*
X230934Y169680D02*
Y195657D01*
X231434Y169610D02*
Y195657D01*
X239207Y184890D02*
X242783D01*
X238829Y184390D02*
X243160D01*
X239652Y185890D02*
X242337D01*
X239473Y185390D02*
X242517D01*
X242434Y178249D02*
Y185594D01*
X242934Y179174D02*
Y184669D01*
X239758Y186390D02*
X242232D01*
X243434Y179729D02*
Y184114D01*
X239795Y186890D02*
X242195D01*
X239766Y187390D02*
X242224D01*
X239669Y187891D02*
X242320D01*
X240934Y162530D02*
Y195657D01*
X241434Y162027D02*
Y195657D01*
X239934Y162834D02*
Y195657D01*
X240434Y162763D02*
Y195657D01*
X232434Y188249D02*
Y195657D01*
X229499Y188391D02*
X232490D01*
X232934Y189174D02*
Y195657D01*
X233434Y189729D02*
Y195657D01*
X233934Y190114D02*
Y195657D01*
X234434Y190386D02*
Y195657D01*
X234934Y190570D02*
Y195657D01*
X235434Y190680D02*
Y195657D01*
X236934Y190603D02*
Y195657D01*
X237434Y190438D02*
Y195657D01*
X235934Y190721D02*
Y195657D01*
X236434Y190696D02*
Y195657D01*
X238934Y189330D02*
Y195657D01*
X239434Y188537D02*
Y195657D01*
X237934Y190189D02*
Y195657D01*
X238434Y189835D02*
Y195657D01*
X239245Y188891D02*
X242745D01*
X238883Y189391D02*
X243106D01*
X238366Y189891D02*
X243623D01*
X237546Y190391D02*
X244444D01*
X242434Y188249D02*
Y195657D01*
X239499Y188391D02*
X242490D01*
X242934Y189174D02*
Y195657D01*
X243434Y189729D02*
Y195657D01*
X243934Y190114D02*
Y195657D01*
X244434Y190386D02*
Y195657D01*
X244934Y190570D02*
Y195657D01*
X245434Y190680D02*
Y195657D01*
X246934Y190603D02*
Y195657D01*
X247434Y190438D02*
Y195657D01*
X245934Y190721D02*
Y195657D01*
X246434Y190696D02*
Y195657D01*
X241516Y161890D02*
X249331D01*
X241116Y162390D02*
X249675D01*
X201225Y162891D02*
X250569D01*
X248287Y173890D02*
X253703D01*
X247399Y173390D02*
X254590D01*
X249207Y174890D02*
X252783D01*
X248829Y174390D02*
X253160D01*
X249434Y162083D02*
Y175306D01*
X249652Y175891D02*
X252337D01*
X249473Y175391D02*
X252517D01*
X249758Y176391D02*
X252232D01*
X252434Y162173D02*
Y175594D01*
X249795Y176891D02*
X252195D01*
X249766Y177391D02*
X252224D01*
X245056Y165891D02*
X352377D01*
X244454Y165391D02*
X352377D01*
X244966Y167891D02*
X352377D01*
X245264Y167391D02*
X352377D01*
X251359Y162891D02*
X352506D01*
X252253Y162390D02*
X353006D01*
X245363Y166891D02*
X352377D01*
X245301Y166391D02*
X352377D01*
X231882Y169390D02*
X352377D01*
X232343Y168891D02*
X352377D01*
X196669Y170390D02*
X352377D01*
X197092Y169890D02*
X352377D01*
X244136Y168391D02*
X352377D01*
X258287Y173890D02*
X352377D01*
X257400Y173390D02*
X352377D01*
X248934Y179330D02*
Y184513D01*
X248883Y179391D02*
X253106D01*
X248434Y179835D02*
Y184008D01*
X248829Y184390D02*
X253160D01*
X249669Y177891D02*
X252321D01*
X249499Y178391D02*
X252490D01*
X249245Y178891D02*
X252745D01*
X252934Y179174D02*
Y184669D01*
X249434Y178537D02*
Y185306D01*
X249207Y184890D02*
X252783D01*
X249652Y185890D02*
X252337D01*
X249473Y185390D02*
X252517D01*
X249758Y186390D02*
X252232D01*
X252434Y178249D02*
Y185594D01*
X249795Y186890D02*
X252195D01*
X249766Y187390D02*
X252224D01*
X248366Y179891D02*
X253623D01*
X247546Y180391D02*
X254444D01*
X254934Y180570D02*
Y183272D01*
X255434Y180680D02*
Y183163D01*
X256934Y180603D02*
Y183239D01*
X257546Y180391D02*
X349901D01*
X255934Y180721D02*
Y183122D01*
X256434Y180696D02*
Y183147D01*
X253434Y179729D02*
Y184114D01*
X253934Y180114D02*
Y183729D01*
X248287Y183890D02*
X253703D01*
X247399Y183390D02*
X254590D01*
X254434Y180386D02*
Y183457D01*
X257934Y180189D02*
Y183654D01*
X257434Y180438D02*
Y183405D01*
X257400Y183390D02*
X279628D01*
X282437D02*
X289628D01*
X258287Y183890D02*
X278741D01*
X283325D02*
X288741D01*
X292437Y183390D02*
X299628D01*
X302437D02*
X309628D01*
X312437D02*
X349624D01*
X313325Y183890D02*
X349624D01*
X258934Y179330D02*
Y184513D01*
X259434Y178537D02*
Y185306D01*
X258434Y179835D02*
Y184008D01*
X258829Y184390D02*
X278198D01*
X293325Y183890D02*
X298741D01*
X303325D02*
X308741D01*
X283867Y184390D02*
X288198D01*
X303867D02*
X308198D01*
X259207Y174890D02*
X352377D01*
X258829Y174390D02*
X352377D01*
X259652Y175891D02*
X352377D01*
X259473Y175391D02*
X352377D01*
X259758Y176391D02*
X352377D01*
Y163019D02*
X353135Y162261D01*
X259766Y177391D02*
X352377D01*
X259795Y176891D02*
X352377D01*
X259245Y178891D02*
X351401D01*
X259499Y178391D02*
X351901D01*
X258366Y179891D02*
X350401D01*
X258883Y179391D02*
X350901D01*
X259669Y177891D02*
X352377D01*
Y163019D02*
Y177915D01*
X313867Y184390D02*
X349624D01*
X349624Y180667D02*
X352377Y177915D01*
X259473Y185390D02*
X277555D01*
X259207Y184890D02*
X277821D01*
X259758Y186390D02*
X277270D01*
X259652Y185890D02*
X277375D01*
X284511Y185390D02*
X287555D01*
X284244Y184890D02*
X287821D01*
X284795Y186390D02*
X287270D01*
X284690Y185890D02*
X287375D01*
X259795Y186890D02*
X277233D01*
X259766Y187390D02*
X277262D01*
X284804D02*
X287262D01*
X284707Y187891D02*
X287358D01*
X284833Y186890D02*
X287233D01*
X294795Y186390D02*
X297270D01*
X294833Y186890D02*
X297233D01*
X294804Y187390D02*
X297262D01*
X294245Y184890D02*
X297821D01*
X293867Y184390D02*
X298198D01*
X294690Y185890D02*
X297375D01*
X294511Y185390D02*
X297555D01*
X304244Y184890D02*
X307821D01*
X314245D02*
X349624D01*
X304511Y185390D02*
X307555D01*
X314511D02*
X349624D01*
X304795Y186390D02*
X307270D01*
X304690Y185890D02*
X307375D01*
X304833Y186890D02*
X307233D01*
X304804Y187390D02*
X307262D01*
X314690Y185890D02*
X349625D01*
X314795Y186390D02*
X349625D01*
X314833Y186890D02*
X349625D01*
X314804Y187390D02*
X349625D01*
X249245Y188891D02*
X252745D01*
X248883Y189391D02*
X253106D01*
X249934Y162611D02*
Y195657D01*
X250434Y162855D02*
Y195657D01*
X249669Y187891D02*
X252321D01*
X249499Y188391D02*
X252490D01*
X250934Y162934D02*
Y195657D01*
X251434Y162872D02*
Y195657D01*
X248934Y189330D02*
Y195657D01*
X249434Y188537D02*
Y195657D01*
X251934Y162651D02*
Y195657D01*
X252434Y188249D02*
Y195657D01*
X252934Y189174D02*
Y195657D01*
X258934Y189330D02*
Y195657D01*
X259669Y187891D02*
X277358D01*
X259499Y188391D02*
X277528D01*
X259245Y188891D02*
X277783D01*
X284537Y188391D02*
X287528D01*
X284283Y188891D02*
X287783D01*
X283921Y189391D02*
X288144D01*
X277434Y188143D02*
Y195657D01*
X259434Y188537D02*
Y195657D01*
X277934Y189121D02*
Y195657D01*
X284434Y188615D02*
Y195657D01*
X287434Y188143D02*
Y195657D01*
X283934Y189375D02*
Y195657D01*
X287934Y189121D02*
Y195657D01*
X248434Y189835D02*
Y195657D01*
X248366Y189891D02*
X253623D01*
X247934Y190189D02*
Y195657D01*
X247546Y190391D02*
X254444D01*
X253434Y189729D02*
Y195657D01*
X258883Y189391D02*
X278144D01*
X253934Y190114D02*
Y195657D01*
X254434Y190386D02*
Y195657D01*
X254934Y190570D02*
Y195657D01*
X255434Y190680D02*
Y195657D01*
X255934Y190721D02*
Y195657D01*
X256434Y190696D02*
Y195657D01*
X257934Y190189D02*
Y195657D01*
X258434Y189835D02*
Y195657D01*
X256934Y190603D02*
Y195657D01*
X257434Y190438D02*
Y195657D01*
X278434Y189694D02*
Y195657D01*
X258366Y189891D02*
X278661D01*
X278934Y190089D02*
Y195657D01*
X257546Y190391D02*
X279482D01*
X283404Y189891D02*
X288661D01*
X282583Y190391D02*
X289482D01*
X279934Y190559D02*
Y195657D01*
X280434Y190674D02*
Y195657D01*
X279434Y190369D02*
Y195657D01*
X281934Y190613D02*
Y195657D01*
X280934Y190720D02*
Y195657D01*
X281434Y190700D02*
Y195657D01*
X283434Y189866D02*
Y195657D01*
X288434Y189694D02*
Y195657D01*
X282434Y190454D02*
Y195657D01*
X282934Y190211D02*
Y195657D01*
X294537Y188391D02*
X297528D01*
X294283Y188891D02*
X297783D01*
X293921Y189391D02*
X298144D01*
X294707Y187891D02*
X297358D01*
X297434Y188143D02*
Y195657D01*
X304707Y187891D02*
X307358D01*
X294434Y188615D02*
Y195657D01*
X297934Y189121D02*
Y195657D01*
X293434Y189866D02*
Y195657D01*
X293934Y189375D02*
Y195657D01*
X303934Y189375D02*
Y195657D01*
X304434Y188615D02*
Y195657D01*
X298434Y189694D02*
Y195657D01*
X303434Y189866D02*
Y195657D01*
X304537Y188391D02*
X307528D01*
X304283Y188891D02*
X307783D01*
X303921Y189391D02*
X308144D01*
X303404Y189891D02*
X308661D01*
X314707Y187891D02*
X349625D01*
X314537Y188391D02*
X349625D01*
X314283Y188891D02*
X349625D01*
X313921Y189391D02*
X349625D01*
X307434Y188143D02*
Y195657D01*
X307934Y189121D02*
Y195657D01*
X308434Y189694D02*
Y195657D01*
X314434Y188615D02*
Y195657D01*
X349624Y180667D02*
X349625Y195657D01*
X313434Y189866D02*
Y195657D01*
X313934Y189375D02*
Y195657D01*
X288934Y190089D02*
Y195657D01*
X289434Y190369D02*
Y195657D01*
X290434Y190674D02*
Y195657D01*
X290934Y190720D02*
Y195657D01*
X293404Y189891D02*
X298661D01*
X292583Y190391D02*
X299482D01*
X291434Y190700D02*
Y195657D01*
X291934Y190613D02*
Y195657D01*
X292934Y190211D02*
Y195657D01*
X298934Y190089D02*
Y195657D01*
X289934Y190559D02*
Y195657D01*
X292434Y190454D02*
Y195657D01*
X299434Y190369D02*
Y195657D01*
X299934Y190559D02*
Y195657D01*
X300434Y190674D02*
Y195657D01*
X300934Y190720D02*
Y195657D01*
X302934Y190211D02*
Y195657D01*
X302584Y190391D02*
X309482D01*
X301434Y190700D02*
Y195657D01*
X301934Y190613D02*
Y195657D01*
X308934Y190089D02*
Y195657D01*
X313404Y189891D02*
X349625D01*
X309434Y190369D02*
Y195657D01*
X312583Y190391D02*
X349625D01*
X302434Y190454D02*
Y195657D01*
X309934Y190559D02*
Y195657D01*
X310434Y190674D02*
Y195657D01*
X310934Y190720D02*
Y195657D01*
X312434Y190454D02*
Y195657D01*
X312934Y190211D02*
Y195657D01*
X311434Y190700D02*
Y195657D01*
X311934Y190613D02*
Y195657D01*
X13934Y1194D02*
Y195657D01*
X13434Y1194D02*
Y195657D01*
X14934Y1194D02*
Y195657D01*
X14434Y1194D02*
Y195657D01*
X4434Y1194D02*
Y195657D01*
X3934Y1194D02*
Y195657D01*
X6434Y1194D02*
Y195657D01*
X4934Y1194D02*
Y195657D01*
X21934Y1194D02*
Y195657D01*
X17934Y1194D02*
Y195657D01*
X22934Y1194D02*
Y195657D01*
X22434Y1194D02*
Y195657D01*
X15934Y1194D02*
Y195657D01*
X15434Y1194D02*
Y195657D01*
X17434Y1194D02*
Y195657D01*
X16434Y1194D02*
Y195657D01*
X16934Y1194D02*
Y195657D01*
X21434Y1194D02*
Y195657D01*
X20934Y1194D02*
Y195657D01*
X23934Y1194D02*
Y195657D01*
X23434Y1194D02*
Y195657D01*
X18934Y1194D02*
Y195657D01*
X18434Y1194D02*
Y195657D01*
X20434Y1194D02*
Y195657D01*
X19434Y1194D02*
Y195657D01*
X19934Y1194D02*
Y195657D01*
X1194Y43391D02*
X55630D01*
X1194Y43891D02*
X55630D01*
X1194Y42390D02*
X56416D01*
X1194Y42891D02*
X55916D01*
X1194Y44390D02*
X55630D01*
X1194Y44890D02*
X55744D01*
X24934Y1194D02*
Y195657D01*
X24434Y1194D02*
Y195657D01*
X1194Y45390D02*
X56244D01*
X54434Y1194D02*
Y151548D01*
X53934Y1194D02*
Y152048D01*
X55434Y1194D02*
Y150751D01*
X54934Y1194D02*
Y151048D01*
X51934Y1194D02*
Y154048D01*
X25934Y1194D02*
Y195657D01*
X53434Y1194D02*
Y152548D01*
X52434Y1194D02*
Y153548D01*
X52934Y1194D02*
Y153048D01*
X56434Y1194D02*
Y42376D01*
X55934Y1194D02*
Y42872D01*
X57434Y1194D02*
Y42376D01*
X56934Y1194D02*
Y42376D01*
X59434Y1194D02*
Y150751D01*
X58934Y1194D02*
Y150751D01*
X61434Y1194D02*
Y150751D01*
X59934Y1194D02*
Y150751D01*
X60934Y1194D02*
Y150751D01*
X55630Y43176D02*
X56430Y42376D01*
X55630Y43176D02*
Y44776D01*
X56430Y45576D01*
X55934Y45080D02*
Y150751D01*
X25434Y1194D02*
Y195657D01*
X56434Y45576D02*
Y150751D01*
X57934Y45576D02*
Y150751D01*
X56934Y45576D02*
Y150751D01*
X57434Y45576D02*
Y150751D01*
X57934Y1194D02*
Y42376D01*
X56430D02*
X58030D01*
X58434Y1194D02*
Y42780D01*
X58030Y42376D02*
X58830Y43176D01*
X58030Y45576D02*
X58830Y44776D01*
X56430Y45576D02*
X58030D01*
X60434Y1194D02*
Y150751D01*
X58434Y45172D02*
Y150751D01*
X58830Y43176D02*
Y44776D01*
X27934Y1194D02*
Y195657D01*
X27434Y1194D02*
Y195657D01*
X28934Y1194D02*
Y195657D01*
X28434Y1194D02*
Y195657D01*
X12434Y1194D02*
Y195657D01*
X11934Y1194D02*
Y195657D01*
X26934Y1194D02*
Y195657D01*
X12934Y1194D02*
Y195657D01*
X26434Y1194D02*
Y195657D01*
X32434Y1194D02*
Y195657D01*
X31934Y1194D02*
Y195657D01*
X33434Y1194D02*
Y195657D01*
X32934Y1194D02*
Y195657D01*
X29934Y1194D02*
Y195657D01*
X29434Y1194D02*
Y195657D01*
X31434Y1194D02*
Y195657D01*
X30434Y1194D02*
Y195657D01*
X30934Y1194D02*
Y195657D01*
X5434Y1194D02*
Y195657D01*
X3434Y1194D02*
Y195657D01*
X6934Y1194D02*
Y195657D01*
X5934Y1194D02*
Y195657D01*
X1434Y1194D02*
Y195657D01*
X1194Y1194D02*
Y195657D01*
X2934Y1194D02*
Y195657D01*
X1934Y1194D02*
Y195657D01*
X2434Y1194D02*
Y195657D01*
X10434Y1194D02*
Y195657D01*
X9934Y1194D02*
Y195657D01*
X11434Y1194D02*
Y195657D01*
X10934Y1194D02*
Y195657D01*
X7934Y1194D02*
Y195657D01*
X7434Y1194D02*
Y195657D01*
X9434Y1194D02*
Y195657D01*
X8434Y1194D02*
Y195657D01*
X8934Y1194D02*
Y195657D01*
X45934Y1194D02*
Y195657D01*
X45434Y1194D02*
Y195657D01*
X46934Y1194D02*
Y195657D01*
X46434Y1194D02*
Y195657D01*
X43434Y1194D02*
Y195657D01*
X42934Y1194D02*
Y195657D01*
X44934Y1194D02*
Y195657D01*
X43934Y1194D02*
Y195657D01*
X44434Y1194D02*
Y195657D01*
X50434Y1194D02*
Y195657D01*
X49934Y1194D02*
Y195657D01*
X51434Y1194D02*
Y195657D01*
X50934Y1194D02*
Y195657D01*
X47934Y1194D02*
Y195657D01*
X47434Y1194D02*
Y195657D01*
X49434Y1194D02*
Y195657D01*
X48434Y1194D02*
Y195657D01*
X48934Y1194D02*
Y195657D01*
X36934Y1194D02*
Y195657D01*
X36434Y1194D02*
Y195657D01*
X37934Y1194D02*
Y195657D01*
X37434Y1194D02*
Y195657D01*
X34434Y1194D02*
Y195657D01*
X33934Y1194D02*
Y195657D01*
X35934Y1194D02*
Y195657D01*
X34934Y1194D02*
Y195657D01*
X35434Y1194D02*
Y195657D01*
X41434Y1194D02*
Y195657D01*
X40934Y1194D02*
Y195657D01*
X42434Y1194D02*
Y195657D01*
X41934Y1194D02*
Y195657D01*
X38934Y1194D02*
Y195657D01*
X38434Y1194D02*
Y195657D01*
X40434Y1194D02*
Y195657D01*
X39434Y1194D02*
Y195657D01*
X39934Y1194D02*
Y195657D01*
X1194Y24390D02*
X145454D01*
X1194Y24891D02*
X145454D01*
X1194Y23391D02*
X145454D01*
X1194Y23890D02*
X145454D01*
X1194Y26891D02*
X145454D01*
X1194Y27391D02*
X145454D01*
X1194Y25390D02*
X145454D01*
X1194Y26390D02*
X145454D01*
X1194Y25890D02*
X145454D01*
X1194Y19891D02*
X145454D01*
X1194Y20391D02*
X145454D01*
X1194Y18891D02*
X145454D01*
X1194Y19390D02*
X145454D01*
X1194Y22390D02*
X145454D01*
X1194Y22891D02*
X145454D01*
X1194Y20890D02*
X145454D01*
X1194Y21891D02*
X145454D01*
X1194Y21391D02*
X145454D01*
X1194Y33391D02*
X145454D01*
X1194Y33891D02*
X145454D01*
X1194Y32390D02*
X145454D01*
X1194Y32890D02*
X145454D01*
X1194Y35890D02*
X145454D01*
X1194Y36391D02*
X145454D01*
X1194Y34391D02*
X145454D01*
X1194Y35390D02*
X145454D01*
X1194Y34890D02*
X145454D01*
X1194Y28890D02*
X145454D01*
X1194Y29390D02*
X145454D01*
X1194Y27891D02*
X145454D01*
X1194Y28390D02*
X145454D01*
X1194Y31391D02*
X145454D01*
X1194Y31890D02*
X145454D01*
X1194Y29890D02*
X145454D01*
X1194Y30891D02*
X145454D01*
X1194Y30391D02*
X145454D01*
X1194Y6391D02*
X145454D01*
X1194Y6891D02*
X145454D01*
X1194Y5390D02*
X145454D01*
X1194Y5891D02*
X145454D01*
X1194Y8890D02*
X145454D01*
X1194Y9391D02*
X145454D01*
X1194Y7390D02*
X145454D01*
X1194Y8390D02*
X145454D01*
X1194Y7891D02*
X145454D01*
X1194Y1891D02*
X145454D01*
X1194Y2390D02*
X145454D01*
X1194Y1194D02*
X145454D01*
X1194Y1390D02*
X145454D01*
X1194Y4391D02*
X145454D01*
X1194Y4891D02*
X145454D01*
X1194Y2891D02*
X145454D01*
X1194Y3890D02*
X145454D01*
X1194Y3390D02*
X145454D01*
X1194Y15391D02*
X145454D01*
X1194Y15890D02*
X145454D01*
X1194Y14390D02*
X145454D01*
X1194Y14890D02*
X145454D01*
X1194Y17890D02*
X145454D01*
X1194Y18391D02*
X145454D01*
X1194Y16390D02*
X145454D01*
X1194Y17391D02*
X145454D01*
X1194Y16891D02*
X145454D01*
X1194Y10891D02*
X145454D01*
X1194Y11390D02*
X145454D01*
X1194Y9890D02*
X145454D01*
X1194Y10390D02*
X145454D01*
X1194Y13390D02*
X145454D01*
X1194Y13891D02*
X145454D01*
X1194Y11891D02*
X145454D01*
X1194Y12890D02*
X145454D01*
X1194Y12391D02*
X145454D01*
X1194Y45891D02*
X145454D01*
X1194Y46391D02*
X145454D01*
X1194Y41390D02*
X145454D01*
X1194Y41890D02*
X145454D01*
X1194Y48390D02*
X145454D01*
X1194Y48891D02*
X145454D01*
X1194Y46891D02*
X145454D01*
X1194Y47890D02*
X145454D01*
X1194Y47390D02*
X145454D01*
X1194Y37890D02*
X145454D01*
X1194Y38390D02*
X145454D01*
X1194Y36891D02*
X145454D01*
X1194Y37391D02*
X145454D01*
X1194Y40391D02*
X145454D01*
X1194Y40890D02*
X145454D01*
X1194Y38890D02*
X145454D01*
X1194Y39891D02*
X145454D01*
X1194Y39391D02*
X145454D01*
X1194Y54891D02*
X145454D01*
X1194Y55391D02*
X145454D01*
X1194Y53891D02*
X145454D01*
X1194Y54391D02*
X145454D01*
X1194Y66391D02*
X145454D01*
X1194Y66891D02*
X145454D01*
X1194Y55891D02*
X145454D01*
X1194Y65891D02*
X145454D01*
X1194Y56391D02*
X145454D01*
X1194Y50390D02*
X145454D01*
X1194Y50890D02*
X145454D01*
X1194Y49391D02*
X145454D01*
X1194Y49891D02*
X145454D01*
X1194Y52890D02*
X145454D01*
X1194Y53391D02*
X145454D01*
X1194Y51390D02*
X145454D01*
X1194Y52390D02*
X145454D01*
X1194Y51890D02*
X145454D01*
X58044Y42390D02*
X145454D01*
X58544Y42891D02*
X145454D01*
X58830Y43391D02*
X145454D01*
X58830Y43891D02*
X145454D01*
X61934Y1194D02*
Y150753D01*
X58830Y44390D02*
X145454D01*
X63434Y1194D02*
Y152253D01*
X62434Y1194D02*
Y151253D01*
X62934Y1194D02*
Y151753D01*
X1194Y56890D02*
X145454D01*
X1194Y57390D02*
X145454D01*
X58716Y44890D02*
X145454D01*
X58216Y45390D02*
X145454D01*
X1194Y59390D02*
X145454D01*
X1194Y59891D02*
X145454D01*
X1194Y57890D02*
X145454D01*
X1194Y58890D02*
X145454D01*
X1194Y58390D02*
X145454D01*
X1194Y67391D02*
X145454D01*
X1194Y67891D02*
X145454D01*
X1194Y64890D02*
X145454D01*
X1194Y65390D02*
X145454D01*
X1194Y69890D02*
X145454D01*
X1194Y70390D02*
X145454D01*
X1194Y68391D02*
X145454D01*
X1194Y69390D02*
X145454D01*
X1194Y68891D02*
X145454D01*
X1194Y61391D02*
X145454D01*
X1194Y61891D02*
X145454D01*
X1194Y60391D02*
X145454D01*
X1194Y60891D02*
X145454D01*
X1194Y63890D02*
X145454D01*
X1194Y64390D02*
X145454D01*
X1194Y62391D02*
X145454D01*
X1194Y63390D02*
X145454D01*
X1194Y62890D02*
X145454D01*
X1194Y105891D02*
X110495D01*
X1194Y106391D02*
X110495D01*
X1194Y104891D02*
X110556D01*
X1194Y105391D02*
X110495D01*
X1194Y108390D02*
X110495D01*
X1194Y108890D02*
X110635D01*
X1194Y106890D02*
X110495D01*
X1194Y107890D02*
X110495D01*
X1194Y107390D02*
X110495D01*
X1194Y104391D02*
X111056D01*
X1194Y109390D02*
X111135D01*
X1194Y103391D02*
X112056D01*
X1194Y103891D02*
X111556D01*
X1194Y111390D02*
X127252D01*
X1194Y113391D02*
X112056D01*
X1194Y109890D02*
X111635D01*
X1194Y110390D02*
X112135D01*
X1194Y110890D02*
X126752D01*
X1194Y115891D02*
X110495D01*
X1194Y116391D02*
X110495D01*
X1194Y114891D02*
X110556D01*
X1194Y115391D02*
X110495D01*
X1194Y118391D02*
X110495D01*
X1194Y118891D02*
X110635D01*
X1194Y116891D02*
X110495D01*
X1194Y117891D02*
X110495D01*
X1194Y117391D02*
X110495D01*
X1194Y119390D02*
X111135D01*
X1194Y119890D02*
X111635D01*
X1194Y113891D02*
X111556D01*
X1194Y114391D02*
X111056D01*
X1194Y123890D02*
X132981D01*
X1194Y124390D02*
X132981D01*
X1194Y120390D02*
X112135D01*
X1194Y123390D02*
X132981D01*
X1194Y122890D02*
X133350D01*
X1194Y136890D02*
X75909D01*
X1194Y137390D02*
X75409D01*
X1194Y133890D02*
X105233D01*
X1194Y136390D02*
X76409D01*
X1194Y139391D02*
X74784D01*
X1194Y139891D02*
X74784D01*
X1194Y137891D02*
X74909D01*
X1194Y138891D02*
X74784D01*
X1194Y138391D02*
X74784D01*
X1194Y131890D02*
X106050D01*
X1194Y132390D02*
X105550D01*
X1194Y124890D02*
X133012D01*
X1194Y125391D02*
X133512D01*
X1194Y134890D02*
X105616D01*
X1194Y135390D02*
X106116D01*
X1194Y132890D02*
X105233D01*
X1194Y134390D02*
X105233D01*
X1194Y133390D02*
X105233D01*
X1194Y151391D02*
X54592D01*
X1194Y151891D02*
X54092D01*
X55232Y150751D02*
X61932D01*
X1194Y150891D02*
X55092D01*
X1194Y153391D02*
X52592D01*
X1194Y153891D02*
X52092D01*
X63072Y151891D02*
X74092D01*
X1194Y152891D02*
X53092D01*
X1194Y152391D02*
X53592D01*
X1194Y141391D02*
X74784D01*
X1194Y141891D02*
X74859D01*
X1194Y140391D02*
X74784D01*
X1194Y140891D02*
X74784D01*
X1194Y142391D02*
X75359D01*
X1194Y142891D02*
X75859D01*
X1194Y143391D02*
X76359D01*
X62572Y151391D02*
X74592D01*
X62072Y150891D02*
X75092D01*
X1194Y155391D02*
X51882D01*
X1194Y155891D02*
X51882D01*
X1194Y154391D02*
X51882D01*
X1194Y154891D02*
X51882D01*
X1194Y157890D02*
X51882D01*
X1194Y158390D02*
X51882D01*
X1194Y156391D02*
X51882D01*
X1194Y157390D02*
X51882D01*
X1194Y156890D02*
X51882D01*
X1194Y159890D02*
X51882D01*
X1194Y160390D02*
X51882D01*
X1194Y158890D02*
X51882D01*
X1194Y159390D02*
X51882D01*
X1194Y162390D02*
X53472D01*
X1194Y162891D02*
X53972D01*
X1194Y160890D02*
X51972D01*
X1194Y161390D02*
X52472D01*
X1194Y161890D02*
X52972D01*
X1194Y181391D02*
X107194D01*
X1194Y181890D02*
X107194D01*
X1194Y163391D02*
X54472D01*
X1194Y163891D02*
X54972D01*
X1194Y183890D02*
X107194D01*
X1194Y184390D02*
X107194D01*
X1194Y182390D02*
X107194D01*
X1194Y183390D02*
X107194D01*
X1194Y182890D02*
X107194D01*
X1194Y184890D02*
X107546D01*
X1194Y186390D02*
X137058D01*
X1194Y175391D02*
X137058D01*
X1194Y180891D02*
X107624D01*
X1194Y189891D02*
X137058D01*
X1194Y190391D02*
X137058D01*
X1194Y186890D02*
X137058D01*
X1194Y189391D02*
X137058D01*
X1194Y188891D02*
X137058D01*
X51882Y154101D02*
X55232Y150751D01*
X51882Y154101D02*
Y160801D01*
X52434Y161353D02*
Y195657D01*
X52934Y161853D02*
Y195657D01*
X51934Y160853D02*
Y195657D01*
X53434Y162353D02*
Y195657D01*
X53934Y162853D02*
Y195657D01*
X54434Y163353D02*
Y195657D01*
X54934Y163853D02*
Y195657D01*
X61932Y150751D02*
X65282Y154101D01*
X62192Y163891D02*
X74972D01*
X63192Y162891D02*
X73972D01*
X62692Y163391D02*
X74472D01*
X61932Y164151D02*
X65282Y160801D01*
X51882D02*
X55232Y164151D01*
X63434Y162648D02*
Y195657D01*
X62434Y163648D02*
Y195657D01*
X62934Y163148D02*
Y195657D01*
X58434Y164151D02*
Y195657D01*
X57934Y164151D02*
Y195657D01*
X59434Y164151D02*
Y195657D01*
X58934Y164151D02*
Y195657D01*
X55934Y164151D02*
Y195657D01*
X55434Y164151D02*
Y195657D01*
X57434Y164151D02*
Y195657D01*
X56434Y164151D02*
Y195657D01*
X56934Y164151D02*
Y195657D01*
X1194Y187891D02*
X137058D01*
X1194Y188391D02*
X137058D01*
X55232Y164151D02*
X61932D01*
X1194Y187390D02*
X137058D01*
X60434Y164151D02*
Y195657D01*
X59934Y164151D02*
Y195657D01*
X61934Y164148D02*
Y195657D01*
X60934Y164151D02*
Y195657D01*
X61434Y164151D02*
Y195657D01*
X1194Y94390D02*
X145454D01*
X1194Y94890D02*
X145454D01*
X1194Y93391D02*
X145454D01*
X1194Y93891D02*
X145454D01*
X1194Y96890D02*
X145454D01*
X1194Y97391D02*
X145454D01*
X1194Y95390D02*
X145454D01*
X1194Y96390D02*
X145454D01*
X1194Y95890D02*
X145454D01*
X1194Y89890D02*
X145454D01*
X1194Y90390D02*
X145454D01*
X1194Y88890D02*
X145454D01*
X1194Y89390D02*
X145454D01*
X1194Y92391D02*
X145454D01*
X1194Y92891D02*
X145454D01*
X1194Y90891D02*
X145454D01*
X1194Y91891D02*
X145454D01*
X1194Y91391D02*
X145454D01*
X1194Y111890D02*
X145454D01*
X1194Y112390D02*
X145454D01*
X1194Y102391D02*
X145454D01*
X1194Y102891D02*
X145454D01*
X1194Y121890D02*
X145454D01*
X1194Y122390D02*
X145454D01*
X1194Y112891D02*
X145454D01*
X1194Y121390D02*
X145454D01*
X1194Y120890D02*
X145454D01*
X1194Y98891D02*
X145454D01*
X1194Y99391D02*
X145454D01*
X1194Y97891D02*
X145454D01*
X1194Y98391D02*
X145454D01*
X1194Y101391D02*
X145454D01*
X1194Y101891D02*
X145454D01*
X1194Y99891D02*
X145454D01*
X1194Y100891D02*
X145454D01*
X1194Y100391D02*
X145454D01*
X1194Y76390D02*
X145454D01*
X1194Y76890D02*
X145454D01*
X1194Y75390D02*
X145454D01*
X1194Y75890D02*
X145454D01*
X1194Y78891D02*
X145454D01*
X1194Y79391D02*
X145454D01*
X1194Y77390D02*
X145454D01*
X1194Y78391D02*
X145454D01*
X1194Y77890D02*
X145454D01*
X1194Y71890D02*
X145454D01*
X1194Y72391D02*
X145454D01*
X1194Y70890D02*
X145454D01*
X1194Y71390D02*
X145454D01*
X1194Y74391D02*
X145454D01*
X1194Y74891D02*
X145454D01*
X1194Y72891D02*
X145454D01*
X1194Y73891D02*
X145454D01*
X1194Y73391D02*
X145454D01*
X1194Y85391D02*
X145454D01*
X1194Y85891D02*
X145454D01*
X1194Y84390D02*
X145454D01*
X1194Y84891D02*
X145454D01*
X1194Y87890D02*
X145454D01*
X1194Y88390D02*
X145454D01*
X1194Y86391D02*
X145454D01*
X1194Y87391D02*
X145454D01*
X1194Y86891D02*
X145454D01*
X1194Y80891D02*
X145454D01*
X1194Y81391D02*
X145454D01*
X1194Y79891D02*
X145454D01*
X1194Y80391D02*
X145454D01*
X1194Y83390D02*
X145454D01*
X1194Y83890D02*
X145454D01*
X1194Y81890D02*
X145454D01*
X1194Y82890D02*
X145454D01*
X1194Y82390D02*
X145454D01*
X1194Y174390D02*
X137689D01*
X1194Y174890D02*
X137189D01*
X1194Y173390D02*
X138689D01*
X1194Y173890D02*
X138189D01*
X1194Y177391D02*
X137058D01*
X1194Y177891D02*
X137058D01*
X1194Y175891D02*
X137058D01*
X1194Y176891D02*
X137058D01*
X1194Y176391D02*
X137058D01*
X1194Y169890D02*
X145454D01*
X1194Y170390D02*
X145454D01*
X1194Y168891D02*
X145454D01*
X1194Y169390D02*
X145454D01*
X1194Y172390D02*
X145454D01*
X1194Y172890D02*
X145454D01*
X1194Y170890D02*
X145454D01*
X1194Y171890D02*
X145454D01*
X1194Y171390D02*
X145454D01*
X1194Y179391D02*
X137627D01*
X1194Y179891D02*
X138127D01*
X1194Y178391D02*
X137058D01*
X1194Y178891D02*
X137127D01*
X1194Y190891D02*
X145454D01*
X1194Y191391D02*
X145454D01*
X1194Y180391D02*
X138627D01*
X1194Y185890D02*
X137058D01*
X1194Y185390D02*
X137058D01*
X1194Y192891D02*
X145454D01*
X1194Y193391D02*
X145454D01*
X1194Y191891D02*
X145454D01*
X1194Y192391D02*
X145454D01*
X1194Y195390D02*
X145454D01*
X1194Y195657D02*
X145454D01*
X1194Y193891D02*
X145454D01*
X1194Y194890D02*
X145454D01*
X1194Y194390D02*
X145454D01*
X1194Y131391D02*
X145454D01*
X1194Y135890D02*
X145454D01*
X1194Y130391D02*
X145454D01*
X1194Y130891D02*
X145454D01*
X1194Y145390D02*
X145454D01*
X1194Y145890D02*
X145454D01*
X1194Y143891D02*
X145454D01*
X1194Y144890D02*
X145454D01*
X1194Y144390D02*
X145454D01*
X1194Y126891D02*
X145454D01*
X1194Y127391D02*
X145454D01*
X1194Y125891D02*
X145454D01*
X1194Y126391D02*
X145454D01*
X1194Y129391D02*
X145454D01*
X1194Y129891D02*
X145454D01*
X1194Y127891D02*
X145454D01*
X1194Y128891D02*
X145454D01*
X1194Y128391D02*
X145454D01*
X1194Y165391D02*
X145454D01*
X1194Y165891D02*
X145454D01*
X1194Y164391D02*
X145454D01*
X1194Y164891D02*
X145454D01*
X1194Y167891D02*
X145454D01*
X1194Y168391D02*
X145454D01*
X1194Y166391D02*
X145454D01*
X1194Y167391D02*
X145454D01*
X1194Y166891D02*
X145454D01*
X1194Y147390D02*
X145454D01*
X1194Y147890D02*
X145454D01*
X1194Y146390D02*
X145454D01*
X1194Y146890D02*
X145454D01*
X1194Y149890D02*
X145454D01*
X1194Y150391D02*
X145454D01*
X1194Y148390D02*
X145454D01*
X1194Y149390D02*
X145454D01*
X1194Y148890D02*
X145454D01*
X78434Y1194D02*
Y136116D01*
X77934Y1194D02*
Y136116D01*
X79434Y1194D02*
Y136116D01*
X78934Y1194D02*
Y136116D01*
X75934Y1194D02*
Y136865D01*
X75434Y1194D02*
Y137365D01*
X77434Y1194D02*
Y136116D01*
X76434Y1194D02*
Y136365D01*
X76934Y1194D02*
Y136116D01*
X80434Y1194D02*
Y136116D01*
X79934Y1194D02*
Y136116D01*
X86934Y1194D02*
Y136116D01*
X86434Y1194D02*
Y136365D01*
X81434Y1194D02*
Y137066D01*
X80934Y1194D02*
Y136566D01*
X85934Y1194D02*
Y136865D01*
X81934Y1194D02*
Y137566D01*
X85434Y1194D02*
Y137365D01*
X87934Y1194D02*
Y136116D01*
X87434Y1194D02*
Y136116D01*
X88934Y1194D02*
Y136116D01*
X88434Y1194D02*
Y136116D01*
X89934Y1194D02*
Y136116D01*
X89434Y1194D02*
Y136116D01*
X91434Y1194D02*
Y137066D01*
X90434Y1194D02*
Y136116D01*
X90934Y1194D02*
Y136566D01*
X106934Y1194D02*
Y131808D01*
X106434Y1194D02*
Y131808D01*
X107434Y1194D02*
Y131808D01*
X110495Y108751D02*
X112395Y110651D01*
X105434Y1194D02*
Y132506D01*
X91934Y1194D02*
Y137566D01*
X108434Y1194D02*
Y132309D01*
X105934Y1194D02*
Y132006D01*
X107934Y1194D02*
Y131809D01*
X112434Y1194D02*
Y103051D01*
X111934Y1194D02*
Y103512D01*
X113434Y1194D02*
Y103051D01*
X112934Y1194D02*
Y103051D01*
X110495Y104951D02*
X112395Y103051D01*
X110495Y104951D02*
Y108751D01*
X110934Y1194D02*
Y104512D01*
Y109190D02*
Y114512D01*
X111434Y1194D02*
Y104012D01*
X114434Y1194D02*
Y103051D01*
X113934Y1194D02*
Y103051D01*
X115434Y1194D02*
Y103051D01*
X114934Y1194D02*
Y103051D01*
X115934Y1194D02*
Y103051D01*
X112395D02*
X116195D01*
X117434Y1194D02*
Y104290D01*
X116434Y1194D02*
Y103290D01*
X116934Y1194D02*
Y103790D01*
X112934Y110651D02*
Y113051D01*
X112434Y110651D02*
Y113051D01*
X113934Y110651D02*
Y113051D01*
X113434Y110651D02*
Y113051D01*
X110495Y114951D02*
Y118751D01*
X112395Y120651D01*
X111434Y109690D02*
Y114012D01*
X111934Y110190D02*
Y113512D01*
X110495Y114951D02*
X112395Y113051D01*
X114934Y110651D02*
Y113051D01*
X112395Y110651D02*
X116195D01*
X115934D02*
Y113051D01*
X115434Y110651D02*
Y113051D01*
X112395D02*
X116195D01*
X112395Y120651D02*
X116195D01*
X116934Y109912D02*
Y113790D01*
X114434Y110651D02*
Y113051D01*
X116434Y110412D02*
Y113290D01*
X74934Y1194D02*
Y137865D01*
X74434Y1194D02*
Y151548D01*
X82934Y1194D02*
Y151753D01*
X82434Y1194D02*
Y151253D01*
X73434Y1194D02*
Y152548D01*
X72934Y1194D02*
Y153048D01*
X83934Y1194D02*
Y152753D01*
X73934Y1194D02*
Y152048D01*
X83434Y1194D02*
Y152253D01*
X84934Y1194D02*
Y137865D01*
X84434Y1194D02*
Y153253D01*
X92934Y1194D02*
Y195657D01*
X92434Y1194D02*
Y195657D01*
X93934Y1194D02*
Y195657D01*
X93434Y1194D02*
Y195657D01*
X95434Y1194D02*
Y195657D01*
X94434Y1194D02*
Y195657D01*
X94934Y1194D02*
Y195657D01*
X64434Y1194D02*
Y153253D01*
X63934Y1194D02*
Y152753D01*
X65434Y1194D02*
Y195657D01*
X64934Y1194D02*
Y153753D01*
X66434Y1194D02*
Y195657D01*
X65934Y1194D02*
Y195657D01*
X67934Y1194D02*
Y195657D01*
X66934Y1194D02*
Y195657D01*
X67434Y1194D02*
Y195657D01*
X71434Y1194D02*
Y195657D01*
X70934Y1194D02*
Y195657D01*
X72434Y1194D02*
Y153548D01*
X71934Y1194D02*
Y154048D01*
X68934Y1194D02*
Y195657D01*
X68434Y1194D02*
Y195657D01*
X70434Y1194D02*
Y195657D01*
X69434Y1194D02*
Y195657D01*
X69934Y1194D02*
Y195657D01*
X98934Y1194D02*
Y195657D01*
X98434Y1194D02*
Y195657D01*
X99934Y1194D02*
Y195657D01*
X99434Y1194D02*
Y195657D01*
X96434Y1194D02*
Y195657D01*
X95934Y1194D02*
Y195657D01*
X97934Y1194D02*
Y195657D01*
X96934Y1194D02*
Y195657D01*
X97434Y1194D02*
Y195657D01*
X103434Y1194D02*
Y195657D01*
X102934Y1194D02*
Y195657D01*
X104434Y1194D02*
Y195657D01*
X103934Y1194D02*
Y195657D01*
X100934Y1194D02*
Y195657D01*
X100434Y1194D02*
Y195657D01*
X102434Y1194D02*
Y195657D01*
X101434Y1194D02*
Y195657D01*
X101934Y1194D02*
Y195657D01*
X108934Y1194D02*
Y180520D01*
X104934Y1194D02*
Y195657D01*
X109934Y1194D02*
Y180860D01*
X109434Y1194D02*
Y180520D01*
X110434Y1194D02*
Y195657D01*
X110934Y119190D02*
Y195657D01*
X111434Y119690D02*
Y195657D01*
X111934Y120190D02*
Y195657D01*
X112434Y120651D02*
Y195657D01*
X115934Y120651D02*
Y195657D01*
X115434Y120651D02*
Y195657D01*
X116934Y119912D02*
Y195657D01*
X116434Y120412D02*
Y195657D01*
X113434Y120651D02*
Y195657D01*
X112934Y120651D02*
Y195657D01*
X114934Y120651D02*
Y195657D01*
X113934Y120651D02*
Y195657D01*
X114434Y120651D02*
Y195657D01*
X116195Y103051D02*
X118095Y104951D01*
X117456Y109390D02*
X126545D01*
X117934Y1194D02*
Y104790D01*
X118095Y104951D02*
Y108751D01*
X116195Y110651D02*
X118095Y108751D01*
X116456Y110390D02*
X126545D01*
X117934Y108912D02*
Y114790D01*
X117434Y109412D02*
Y114290D01*
X116956Y109890D02*
X126545D01*
X116535Y103391D02*
X145454D01*
X117035Y103891D02*
X145454D01*
X117535Y104391D02*
X145454D01*
X118035Y104891D02*
X145454D01*
X118095Y107890D02*
X145454D01*
X117956Y108890D02*
X126737D01*
X118095Y105391D02*
X145454D01*
X118095Y106391D02*
X145454D01*
X118095Y105891D02*
X145454D01*
X116535Y113391D02*
X145454D01*
X117035Y113891D02*
X145454D01*
X117535Y114391D02*
X145454D01*
X118035Y114891D02*
X145454D01*
X116195Y113051D02*
X118095Y114951D01*
X116195Y120651D02*
X118095Y118751D01*
Y114951D02*
Y118751D01*
Y115891D02*
X145454D01*
X118095Y115391D02*
X145454D01*
X118095Y117391D02*
X145454D01*
X118095Y117891D02*
X145454D01*
X118095Y116391D02*
X145454D01*
X118095Y116891D02*
X145454D01*
X116956Y119890D02*
X145454D01*
X116456Y120390D02*
X145454D01*
X118095Y118391D02*
X145454D01*
X117456Y119390D02*
X145454D01*
X117956Y118891D02*
X145454D01*
X127934Y1194D02*
Y108283D01*
X127434Y1194D02*
Y108283D01*
X128934Y1194D02*
Y108283D01*
X128434Y1194D02*
Y108283D01*
X126934Y1194D02*
Y108693D01*
X126545Y109083D02*
X127345Y108283D01*
X129934Y1194D02*
Y108283D01*
X127345D02*
X128945D01*
X129434Y1194D02*
Y108283D01*
X118095Y106890D02*
X145454D01*
X118095Y107390D02*
X145454D01*
X130434Y1194D02*
Y108283D01*
X128982D02*
X130582D01*
X133934Y1194D02*
Y122459D01*
X130934Y1194D02*
Y108635D01*
X145454Y1194D02*
Y108579D01*
X144934Y1194D02*
Y109099D01*
X145434Y1194D02*
Y108599D01*
X118095Y108390D02*
X127237D01*
X126545Y109083D02*
Y110683D01*
X130582Y108283D02*
X131382Y109083D01*
Y110683D01*
X126545D02*
X127345Y111483D01*
X128945D01*
X144854Y109179D02*
Y110779D01*
X128982Y111483D02*
X130582D01*
X131382Y110683D01*
X130690Y108390D02*
X145454D01*
X131190Y108890D02*
X145142D01*
X144854Y109179D02*
X145454Y108579D01*
X131382Y109390D02*
X144854D01*
X131174Y110890D02*
X144966D01*
X130674Y111390D02*
X145454D01*
X131382Y109890D02*
X144854D01*
X131382Y110390D02*
X144854D01*
Y110779D02*
X145454Y111379D01*
X121434Y1194D02*
Y195657D01*
X120934Y1194D02*
Y195657D01*
X122434Y1194D02*
Y195657D01*
X121934Y1194D02*
Y195657D01*
X118934Y1194D02*
Y195657D01*
X118434Y1194D02*
Y195657D01*
X120434Y1194D02*
Y195657D01*
X119434Y1194D02*
Y195657D01*
X119934Y1194D02*
Y195657D01*
X125934Y1194D02*
Y195657D01*
X125434Y1194D02*
Y195657D01*
X131934Y1194D02*
Y195657D01*
X126434Y1194D02*
Y195657D01*
X123434Y1194D02*
Y195657D01*
X122934Y1194D02*
Y195657D01*
X124934Y1194D02*
Y195657D01*
X123934Y1194D02*
Y195657D01*
X124434Y1194D02*
Y195657D01*
X128934Y111483D02*
Y195657D01*
X128434Y111483D02*
Y195657D01*
X129934Y111483D02*
Y195657D01*
X129434Y111483D02*
Y195657D01*
X117934Y118912D02*
Y195657D01*
X117434Y119412D02*
Y195657D01*
X126934Y111072D02*
Y195657D01*
X127434Y111483D02*
Y195657D01*
X127934Y111483D02*
Y195657D01*
X132981Y123259D02*
Y124859D01*
X133781Y125659D01*
X133434Y1194D02*
Y122806D01*
X132981Y123259D02*
X133781Y122459D01*
X130934Y111130D02*
Y195657D01*
X130434Y111483D02*
Y195657D01*
X132934Y1194D02*
Y195657D01*
X131434Y1194D02*
Y195657D01*
X132434Y1194D02*
Y195657D01*
X134934Y1194D02*
Y122459D01*
X134434Y1194D02*
Y122459D01*
X135934Y1194D02*
Y123013D01*
X135434Y1194D02*
Y122513D01*
X136934Y1194D02*
Y195657D01*
X136434Y1194D02*
Y195657D01*
X138434Y1194D02*
Y173645D01*
X137434Y1194D02*
Y174645D01*
X137934Y1194D02*
Y174145D01*
X139934Y1194D02*
Y173121D01*
X139434Y1194D02*
Y173121D01*
X142434Y1194D02*
Y173121D01*
X140934Y1194D02*
Y173121D01*
X142934Y1194D02*
Y173298D01*
X138934Y1194D02*
Y173145D01*
X144434Y1194D02*
Y174798D01*
X143434Y1194D02*
Y173798D01*
X143934Y1194D02*
Y174298D01*
X135381Y122459D02*
X136181Y123259D01*
X133781Y122459D02*
X135381D01*
X136181Y123259D02*
Y124859D01*
X135381Y125659D02*
X136181Y124859D01*
X135934Y125106D02*
Y195657D01*
X133434Y125313D02*
Y195657D01*
X141934Y1194D02*
Y173121D01*
X140434Y1194D02*
Y173121D01*
X141434Y1194D02*
Y173121D01*
X135812Y122890D02*
X145454D01*
X136181Y123390D02*
X145454D01*
X136181Y123890D02*
X145454D01*
X136181Y124390D02*
X145454D01*
X136150Y124890D02*
X145454D01*
X135650Y125391D02*
X145454D01*
X144934Y110859D02*
Y195657D01*
X145434Y111359D02*
Y195657D01*
X145454Y111379D02*
Y195657D01*
X74784Y138015D02*
X76684Y136116D01*
X74784Y138015D02*
Y141815D01*
X76684Y143716D01*
X75934Y142966D02*
Y150751D01*
X74934Y141966D02*
Y151048D01*
X75434Y142466D02*
Y150751D01*
X76434Y143466D02*
Y150751D01*
X76934Y143716D02*
Y150751D01*
X77934Y143716D02*
Y150751D01*
X80484Y136116D02*
X82384Y138015D01*
X76684Y136116D02*
X80484D01*
X80759Y136390D02*
X86409D01*
X80484Y143716D02*
X82384Y141815D01*
X78934Y143716D02*
Y150751D01*
X78434Y143716D02*
Y150751D01*
X80434Y143716D02*
Y150751D01*
X79434Y143716D02*
Y150751D01*
X79934Y143716D02*
Y150751D01*
X65282Y155391D02*
X71882D01*
X65282Y155891D02*
X71882D01*
X65282Y154391D02*
X71882D01*
X65282Y154891D02*
X71882D01*
X65282Y158390D02*
X71882D01*
X65282Y158890D02*
X71882D01*
X65282Y156391D02*
X71882D01*
X65282Y157890D02*
X71882D01*
X65282Y156890D02*
X71882D01*
X75232Y150751D02*
X81932D01*
X63572Y152391D02*
X73592D01*
X77434Y143716D02*
Y150751D01*
X76684Y143716D02*
X80484D01*
X64072Y152891D02*
X73092D01*
X64572Y153391D02*
X72592D01*
X71882Y154101D02*
X75232Y150751D01*
X65282Y157390D02*
X71882D01*
X65072Y153891D02*
X72092D01*
X81259Y136890D02*
X85909D01*
X81759Y137390D02*
X85409D01*
X86684Y136116D02*
X90484D01*
X82259Y137891D02*
X84909D01*
X82384Y138015D02*
Y141815D01*
Y138391D02*
X84784D01*
Y138015D02*
X86684Y136116D01*
X84784Y138015D02*
Y141815D01*
X90484Y136116D02*
X92384Y138015D01*
X105233Y132708D02*
X106133Y131808D01*
X105233Y132708D02*
Y134508D01*
X107933Y131808D02*
X108833Y132708D01*
X106133Y131808D02*
X107933D01*
X105233Y134508D02*
X106133Y135408D01*
X92384Y138015D02*
Y141815D01*
X108833Y132708D02*
Y134508D01*
X106133Y135408D02*
X107933D01*
X108833Y134508D01*
X82384Y139891D02*
X84784D01*
X82384Y140391D02*
X84784D01*
X82384Y138891D02*
X84784D01*
X82384Y139391D02*
X84784D01*
X81434Y142765D02*
Y150751D01*
X80934Y143265D02*
Y150751D01*
X82384Y140891D02*
X84784D01*
X81934Y142265D02*
Y150753D01*
X82384Y141391D02*
X84784D01*
X81309Y142891D02*
X85859D01*
X80809Y143391D02*
X86359D01*
X82309Y141891D02*
X84859D01*
X81809Y142391D02*
X85359D01*
X84784Y141815D02*
X86684Y143716D01*
X81932Y150751D02*
X85282Y154101D01*
X90484Y143716D02*
X92384Y141815D01*
X84934Y141966D02*
Y153753D01*
X86684Y143716D02*
X90484D01*
X65282Y154101D02*
Y160801D01*
Y160390D02*
X71882D01*
X65282Y159390D02*
X71882D01*
X65282Y159890D02*
X71882D01*
X64434Y161648D02*
Y195657D01*
X63934Y162148D02*
Y195657D01*
X71882Y154101D02*
Y160801D01*
X64934Y161148D02*
Y195657D01*
X71934Y160853D02*
Y195657D01*
X64192Y161890D02*
X72972D01*
X63692Y162390D02*
X73472D01*
X65192Y160890D02*
X71972D01*
X64692Y161390D02*
X72472D01*
X71882Y160801D02*
X75232Y164151D01*
X72434Y161353D02*
Y195657D01*
X81932Y164151D02*
X85282Y160801D01*
X72934Y161853D02*
Y195657D01*
X73434Y162353D02*
Y195657D01*
X76934Y164151D02*
Y195657D01*
X76434Y164151D02*
Y195657D01*
X77934Y164151D02*
Y195657D01*
X77434Y164151D02*
Y195657D01*
X73934Y162853D02*
Y195657D01*
X74434Y163353D02*
Y195657D01*
X74934Y163853D02*
Y195657D01*
X75434Y164151D02*
Y195657D01*
X75934Y164151D02*
Y195657D01*
X78434Y164151D02*
Y195657D01*
X75232Y164151D02*
X81932D01*
X79934D02*
Y195657D01*
X79434Y164151D02*
Y195657D01*
X80434Y164151D02*
Y195657D01*
X78934Y164151D02*
Y195657D01*
X81934Y164148D02*
Y195657D01*
X80934Y164151D02*
Y195657D01*
X81434Y164151D02*
Y195657D01*
X88934Y143716D02*
Y195657D01*
X88434Y143716D02*
Y195657D01*
X90934Y143265D02*
Y195657D01*
X89434Y143716D02*
Y195657D01*
X85434Y142466D02*
Y195657D01*
X85934Y142966D02*
Y195657D01*
X86434Y143466D02*
Y195657D01*
X86934Y143716D02*
Y195657D01*
X87434Y143716D02*
Y195657D01*
X107434Y135408D02*
Y181080D01*
X106934Y135408D02*
Y195657D01*
X108434Y134906D02*
Y180520D01*
X107934Y135406D02*
Y180580D01*
X91934Y142265D02*
Y195657D01*
X91434Y142765D02*
Y195657D01*
X105434Y134709D02*
Y195657D01*
X105934Y135209D02*
Y195657D01*
X106434Y135408D02*
Y195657D01*
X83434Y162648D02*
Y195657D01*
X82934Y163148D02*
Y195657D01*
X85282Y154101D02*
Y160801D01*
X83934Y162148D02*
Y195657D01*
X84434Y161648D02*
Y195657D01*
X82434Y163648D02*
Y195657D01*
X89934Y143716D02*
Y195657D01*
X84934Y161148D02*
Y195657D01*
X87934Y143716D02*
Y195657D01*
X107194Y182939D02*
Y184539D01*
X107994Y185339D01*
X107194Y181320D02*
X107994Y180520D01*
X107194Y181320D02*
Y182920D01*
X90434Y143716D02*
Y195657D01*
X107434Y184779D02*
Y195657D01*
X107934Y185279D02*
Y195657D01*
X108434Y185339D02*
Y195657D01*
X108934Y185339D02*
Y195657D01*
X82072Y150891D02*
X145454D01*
X82572Y151391D02*
X145454D01*
X83072Y151891D02*
X145454D01*
X83572Y152391D02*
X145454D01*
X84072Y152891D02*
X145454D01*
X84572Y153391D02*
X145454D01*
X85072Y153891D02*
X145454D01*
X85282Y154891D02*
X145454D01*
X85282Y154391D02*
X145454D01*
X90759Y136390D02*
X145454D01*
X91259Y136890D02*
X145454D01*
X91759Y137390D02*
X145454D01*
X92259Y137891D02*
X145454D01*
X91309Y142891D02*
X145454D01*
X90809Y143391D02*
X145454D01*
X92384Y140391D02*
X145454D01*
X91809Y142391D02*
X145454D01*
X92309Y141891D02*
X145454D01*
X85192Y160890D02*
X145454D01*
X84692Y161390D02*
X145454D01*
X85282Y159890D02*
X145454D01*
X85282Y160390D02*
X145454D01*
X82692Y163391D02*
X145454D01*
X82192Y163891D02*
X145454D01*
X84192Y161890D02*
X145454D01*
X83192Y162891D02*
X145454D01*
X83692Y162390D02*
X145454D01*
X85282Y156391D02*
X145454D01*
X85282Y156890D02*
X145454D01*
X85282Y155391D02*
X145454D01*
X85282Y155891D02*
X145454D01*
X85282Y158890D02*
X145454D01*
X85282Y159390D02*
X145454D01*
X85282Y157390D02*
X145454D01*
X85282Y158390D02*
X145454D01*
X85282Y157890D02*
X145454D01*
X108016Y131890D02*
X145454D01*
X108516Y132390D02*
X145454D01*
X133781Y125659D02*
X135381D01*
X108833Y133390D02*
X145454D01*
X108833Y133890D02*
X145454D01*
X108833Y134390D02*
X145454D01*
X142758Y173121D02*
X144658Y175021D01*
X137058D02*
X138958Y173121D01*
X142758D01*
X107950Y135390D02*
X145454D01*
X92384Y138391D02*
X145454D01*
X108833Y132890D02*
X145454D01*
X108450Y134890D02*
X145454D01*
X92384Y140891D02*
X145454D01*
X92384Y141391D02*
X145454D01*
X92384Y138891D02*
X145454D01*
X92384Y139891D02*
X145454D01*
X92384Y139391D02*
X145454D01*
X143027Y173390D02*
X145454D01*
X143527Y173890D02*
X145454D01*
X144027Y174390D02*
X145454D01*
X144527Y174890D02*
X145454D01*
X137058Y175021D02*
Y178821D01*
X107994Y180520D02*
X109594D01*
X144658Y175021D02*
Y178821D01*
Y175891D02*
X145454D01*
X144658Y175391D02*
X145454D01*
X144658Y177391D02*
X145454D01*
X144658Y177891D02*
X145454D01*
X144658Y176391D02*
X145454D01*
X144658Y176891D02*
X145454D01*
X143589Y179891D02*
X145454D01*
X143089Y180391D02*
X145454D01*
X144658Y178391D02*
X145454D01*
X144089Y179391D02*
X145454D01*
X144589Y178891D02*
X145454D01*
X109594Y180520D02*
X110394Y181320D01*
Y182920D01*
X137434Y179198D02*
Y183121D01*
X138434Y180198D02*
Y183121D01*
X134434Y125659D02*
Y195657D01*
X133934Y125659D02*
Y195657D01*
X135434Y125606D02*
Y195657D01*
X134934Y125659D02*
Y195657D01*
X137934Y179698D02*
Y183121D01*
X109965Y180891D02*
X145454D01*
X110394Y181391D02*
X145454D01*
X137058Y178821D02*
X138958Y180721D01*
X142758D01*
X110394Y181890D02*
X145454D01*
X110394Y182390D02*
X145454D01*
X138934Y180698D02*
Y183121D01*
X139434Y180721D02*
Y183121D01*
X110394Y182890D02*
X145454D01*
X110394Y182939D02*
Y184539D01*
X110043Y184890D02*
X137058D01*
X110394Y183390D02*
X137058D01*
X110394Y184390D02*
X137058D01*
X109434Y185339D02*
Y195657D01*
X107994Y185339D02*
X109594D01*
X137058Y183121D02*
Y190721D01*
X109934Y184999D02*
Y195657D01*
X109594Y185339D02*
X110394Y184539D01*
X137058Y183121D02*
X144658D01*
X110394Y183890D02*
X137058D01*
X137934Y190721D02*
Y195657D01*
X137058Y190721D02*
X144658D01*
X138434D02*
Y195657D01*
X137434Y190721D02*
Y195657D01*
X139934Y190721D02*
Y195657D01*
X138934Y190721D02*
Y195657D01*
X139434Y190721D02*
Y195657D01*
X142934Y180545D02*
Y183121D01*
X142434Y180721D02*
Y183121D01*
X143934Y179545D02*
Y183121D01*
X143434Y180045D02*
Y183121D01*
X140434Y180721D02*
Y183121D01*
X139934Y180721D02*
Y183121D01*
X141934Y180721D02*
Y183121D01*
X140934Y180721D02*
Y183121D01*
X141434Y180721D02*
Y183121D01*
X142758Y180721D02*
X144658Y178821D01*
X144434Y179045D02*
Y183121D01*
X144658Y183390D02*
X145454D01*
X144658Y183890D02*
X145454D01*
X144658Y183121D02*
Y190721D01*
Y185890D02*
X145454D01*
X144658Y184390D02*
X145454D01*
X144658Y185390D02*
X145454D01*
X144658Y184890D02*
X145454D01*
X143434Y190721D02*
Y195657D01*
X142934Y190721D02*
Y195657D01*
X144434Y190721D02*
Y195657D01*
X143934Y190721D02*
Y195657D01*
X140934Y190721D02*
Y195657D01*
X140434Y190721D02*
Y195657D01*
X142434Y190721D02*
Y195657D01*
X141434Y190721D02*
Y195657D01*
X141934Y190721D02*
Y195657D01*
X144658Y187390D02*
X145454D01*
X144658Y187891D02*
X145454D01*
X144658Y186390D02*
X145454D01*
X144658Y186890D02*
X145454D01*
X144658Y189891D02*
X145454D01*
X144658Y190391D02*
X145454D01*
X144658Y188391D02*
X145454D01*
X144658Y189391D02*
X145454D01*
X144658Y188891D02*
X145454D01*
G54D11*
X162882Y100739D02*
D03*
Y91140D02*
D03*
G54D12*
X343239Y98425D02*
D03*
G54D13*
X247600Y7453D02*
D03*
G54D14*
X151853Y17311D02*
D03*
G54D15*
X144946Y27423D02*
D03*
G54D16*
X354329Y0D02*
Y196851D01*
X0Y0D02*
X354329D01*
X0Y196851D02*
X354329D01*
X0Y0D02*
Y196851D01*
G54D17*
X114295Y116851D02*
D03*
Y106851D02*
D03*
X281033Y186921D02*
D03*
X291033D02*
D03*
X301033D02*
D03*
X311033D02*
D03*
X271033D02*
D03*
X200858Y176921D02*
D03*
Y186921D02*
D03*
X190858Y176921D02*
D03*
Y186921D02*
D03*
X180858Y176921D02*
D03*
Y186921D02*
D03*
X170858Y176921D02*
D03*
Y186921D02*
D03*
X160858Y176921D02*
D03*
Y186921D02*
D03*
X150858Y176921D02*
D03*
Y186921D02*
D03*
X140858Y176921D02*
D03*
X255995D02*
D03*
Y186921D02*
D03*
X245995Y176921D02*
D03*
Y186921D02*
D03*
X235995Y176921D02*
D03*
Y186921D02*
D03*
X225995Y176921D02*
D03*
Y186921D02*
D03*
X215995Y176921D02*
D03*
X88584Y139916D02*
D03*
X78584D02*
D03*
X251531Y153197D02*
D03*
X241531D02*
D03*
X251531Y139439D02*
D03*
X241531D02*
D03*
X158505Y112055D02*
D03*
Y122055D02*
D03*
X177304Y145831D02*
D03*
X167304D02*
D03*
G54D18*
X140858Y186921D02*
D03*
X215995D02*
D03*
G54D19*
X38582Y157451D02*
D03*
X58582D02*
D03*
X78582D02*
D03*
G54D20*
X11811Y11811D02*
D03*
X11811Y185040D02*
D03*
X342518D02*
D03*
X342518Y11811D02*
D03*
G54D21*
X100410Y122520D02*
D03*
Y121319D02*
D03*
Y120120D02*
D03*
Y118920D02*
D03*
Y117719D02*
D03*
Y116519D02*
D03*
Y123720D02*
D03*
Y124919D02*
D03*
Y115320D02*
D03*
X99210Y124919D02*
D03*
Y115320D02*
D03*
X98010D02*
D03*
X96810D02*
D03*
X95610D02*
D03*
X94410D02*
D03*
X93210D02*
D03*
X72810Y124919D02*
D03*
X74010D02*
D03*
X75210D02*
D03*
X76410D02*
D03*
X77610D02*
D03*
X78810D02*
D03*
X80010D02*
D03*
X81210D02*
D03*
X82410D02*
D03*
X83610D02*
D03*
X84810D02*
D03*
X86010D02*
D03*
X87210D02*
D03*
X88410D02*
D03*
X89610D02*
D03*
X90810D02*
D03*
X92010D02*
D03*
X93210D02*
D03*
X94410D02*
D03*
X80210Y121019D02*
D03*
X95610Y124919D02*
D03*
X96810D02*
D03*
X98010D02*
D03*
X97410Y117920D02*
D03*
X96010Y117620D02*
D03*
X99630Y62780D02*
D03*
X99555Y64250D02*
D03*
X99540Y65586D02*
D03*
X102295Y60590D02*
D03*
X104910Y66896D02*
D03*
X104475Y65760D02*
D03*
X103995Y64535D02*
D03*
X102890Y61845D02*
D03*
X102800Y63326D02*
D03*
X102235Y64581D02*
D03*
X101800Y65760D02*
D03*
X101395Y66926D02*
D03*
X99025Y66975D02*
D03*
X97660Y66991D02*
D03*
X96215Y62796D02*
D03*
X96130Y64196D02*
D03*
X96185Y65540D02*
D03*
Y66966D02*
D03*
X94010Y62995D02*
D03*
X93995Y64296D02*
D03*
X94055Y65631D02*
D03*
X93585Y67040D02*
D03*
X86715Y62315D02*
D03*
X85450Y62641D02*
D03*
X85095Y63876D02*
D03*
X85830Y64965D02*
D03*
X87055Y65336D02*
D03*
X91945Y66910D02*
D03*
X90630Y63011D02*
D03*
X90605Y64325D02*
D03*
X90615Y65626D02*
D03*
X90645Y66896D02*
D03*
X88690Y61671D02*
D03*
X88470Y62950D02*
D03*
X88525Y64261D02*
D03*
X88470Y65556D02*
D03*
X88200Y66835D02*
D03*
X86950Y67176D02*
D03*
X85640Y67071D02*
D03*
X83300Y62181D02*
D03*
X83270Y63465D02*
D03*
X83285Y64806D02*
D03*
X83300Y66131D02*
D03*
X77820Y68676D02*
D03*
X76630Y69046D02*
D03*
X75330Y68910D02*
D03*
X74315Y68076D02*
D03*
X74375Y66736D02*
D03*
X73700Y62890D02*
D03*
X74875Y62375D02*
D03*
X76140Y62240D02*
D03*
X77350Y62611D02*
D03*
X75375Y65926D02*
D03*
X76630Y65540D02*
D03*
X77775Y64981D02*
D03*
X78070Y63656D02*
D03*
X82475Y67190D02*
D03*
X81150Y66835D02*
D03*
X79925Y62391D02*
D03*
X79955Y69016D02*
D03*
X79925Y63731D02*
D03*
Y65026D02*
D03*
X79885Y66290D02*
D03*
X79910Y67646D02*
D03*
X96810Y121720D02*
D03*
X75488Y86248D02*
D03*
X74194Y79507D02*
D03*
X67184Y78364D02*
D03*
X68058Y79204D02*
D03*
X69083Y79861D02*
D03*
X77220Y87559D02*
D03*
X76009Y87424D02*
D03*
X74833Y87308D02*
D03*
X73706Y86853D02*
D03*
X72731Y86231D02*
D03*
X71689Y85659D02*
D03*
X71605Y82449D02*
D03*
X70445Y82617D02*
D03*
X70344Y83811D02*
D03*
X70899Y84820D02*
D03*
X74732Y85324D02*
D03*
X74126Y84332D02*
D03*
X73673Y80616D02*
D03*
X73538Y83240D02*
D03*
X70092Y80498D02*
D03*
X73067Y82147D02*
D03*
X95510Y121619D02*
D03*
X72429Y81020D02*
D03*
X71168Y80970D02*
D03*
X71807Y79944D02*
D03*
X73589Y78414D02*
D03*
X71151Y78869D02*
D03*
X70428Y77894D02*
D03*
X69504Y77069D02*
D03*
X67318Y76262D02*
D03*
X68545Y76398D02*
D03*
X92110Y117920D02*
D03*
X90710Y117620D02*
D03*
X91510Y121720D02*
D03*
X83958Y80321D02*
D03*
X90210Y121619D02*
D03*
X83558Y77320D02*
D03*
X94451Y81288D02*
D03*
X93051D02*
D03*
X95351Y80089D02*
D03*
Y78689D02*
D03*
X95338Y77488D02*
D03*
Y76288D02*
D03*
X79885Y80461D02*
D03*
X78585Y80361D02*
D03*
X80785Y79561D02*
D03*
X83158Y78921D02*
D03*
X77685Y79461D02*
D03*
X81085Y78260D02*
D03*
X79885D02*
D03*
X78685D02*
D03*
X77485D02*
D03*
X77885Y76960D02*
D03*
X80485Y76661D02*
D03*
X79085Y76360D02*
D03*
X86558Y76221D02*
D03*
X85158Y76320D02*
D03*
X92251Y80189D02*
D03*
X90951Y81089D02*
D03*
Y79888D02*
D03*
X90963Y78689D02*
D03*
X90951Y77488D02*
D03*
Y76288D02*
D03*
X88558Y76320D02*
D03*
X87758Y77421D02*
D03*
X88158Y78921D02*
D03*
X87658Y80221D02*
D03*
X86658Y81221D02*
D03*
X94810Y118219D02*
D03*
X85258Y81221D02*
D03*
X97710Y120819D02*
D03*
X94610Y120720D02*
D03*
X98010Y119519D02*
D03*
X67160Y87950D02*
D03*
X68560Y89750D02*
D03*
X97997Y102620D02*
D03*
Y103820D02*
D03*
X98010Y105019D02*
D03*
Y106420D02*
D03*
X97110Y107620D02*
D03*
X95710D02*
D03*
X94910Y106519D02*
D03*
X93610Y107420D02*
D03*
Y106219D02*
D03*
Y102620D02*
D03*
Y103820D02*
D03*
X93623Y105019D02*
D03*
X89610Y103120D02*
D03*
X88210Y102820D02*
D03*
X89010Y106920D02*
D03*
X87710Y106819D02*
D03*
X87010Y103419D02*
D03*
X89910Y106019D02*
D03*
X86810Y105920D02*
D03*
X90210Y104719D02*
D03*
X89010D02*
D03*
X87810D02*
D03*
X86610D02*
D03*
X83910Y102820D02*
D03*
Y104219D02*
D03*
X83810Y105719D02*
D03*
Y107120D02*
D03*
Y108319D02*
D03*
X83823Y109520D02*
D03*
X83810Y110720D02*
D03*
Y111919D02*
D03*
X65910Y95520D02*
D03*
X64810Y96820D02*
D03*
X65810Y97919D02*
D03*
X66910Y98919D02*
D03*
X70160Y88551D02*
D03*
X71210Y95520D02*
D03*
X72710Y95020D02*
D03*
X104110Y90020D02*
D03*
Y91220D02*
D03*
X104123Y92419D02*
D03*
Y93819D02*
D03*
X87910Y90320D02*
D03*
X89310Y90219D02*
D03*
X96910D02*
D03*
X95210Y92620D02*
D03*
X103223Y95020D02*
D03*
X101823D02*
D03*
X101023Y93919D02*
D03*
X99723Y90020D02*
D03*
Y91220D02*
D03*
X99735Y92419D02*
D03*
X99723Y93620D02*
D03*
Y94819D02*
D03*
X97710Y95120D02*
D03*
X97310Y93620D02*
D03*
X97210Y91919D02*
D03*
X96010Y91420D02*
D03*
X94410D02*
D03*
X92110Y95020D02*
D03*
X92510Y93419D02*
D03*
X92910Y91919D02*
D03*
X93210Y90320D02*
D03*
X91310D02*
D03*
X90510Y91420D02*
D03*
X90910Y92919D02*
D03*
X90410Y94219D02*
D03*
X89410Y95219D02*
D03*
X88010D02*
D03*
X72510Y92519D02*
D03*
X71010D02*
D03*
X70410Y90920D02*
D03*
X71610Y89920D02*
D03*
X72810Y90619D02*
D03*
X73710Y91519D02*
D03*
X74610Y92620D02*
D03*
X73710Y93720D02*
D03*
X75610Y93620D02*
D03*
X86310Y91320D02*
D03*
X86710Y94319D02*
D03*
X85910Y92919D02*
D03*
X84410Y90219D02*
D03*
Y91420D02*
D03*
X84423Y92620D02*
D03*
Y94020D02*
D03*
X76710Y94719D02*
D03*
X77710Y95719D02*
D03*
X83523Y95219D02*
D03*
X82123D02*
D03*
X81323Y94120D02*
D03*
X80023Y90219D02*
D03*
Y91420D02*
D03*
X80035Y92620D02*
D03*
X80023Y93819D02*
D03*
Y95020D02*
D03*
X80010Y100220D02*
D03*
Y99019D02*
D03*
Y97820D02*
D03*
Y96520D02*
D03*
X78710Y96820D02*
D03*
X77810Y97820D02*
D03*
X76910Y98820D02*
D03*
X68510Y97119D02*
D03*
X81210Y117719D02*
D03*
Y118920D02*
D03*
Y120120D02*
D03*
X79210Y117719D02*
D03*
Y118920D02*
D03*
Y120120D02*
D03*
X78210Y121019D02*
D03*
X77210Y120120D02*
D03*
Y118920D02*
D03*
Y117719D02*
D03*
X72910Y110619D02*
D03*
X70710D02*
D03*
X66710Y106120D02*
D03*
X74910Y117719D02*
D03*
Y118920D02*
D03*
Y120120D02*
D03*
X75610Y121119D02*
D03*
X74210D02*
D03*
X75610Y100320D02*
D03*
X73610Y97220D02*
D03*
X74910Y95719D02*
D03*
Y97019D02*
D03*
Y98320D02*
D03*
X72610Y98119D02*
D03*
X68110Y100320D02*
D03*
X69910D02*
D03*
X69610Y98419D02*
D03*
X71110Y98519D02*
D03*
X71810Y100320D02*
D03*
X73710D02*
D03*
X66410Y107920D02*
D03*
X66610Y109420D02*
D03*
X86410Y117719D02*
D03*
X84010Y118920D02*
D03*
Y117719D02*
D03*
X85210D02*
D03*
X73510Y109019D02*
D03*
X73410Y102719D02*
D03*
X70110Y109119D02*
D03*
X71710Y102419D02*
D03*
X70510Y102620D02*
D03*
X69310Y103019D02*
D03*
X68210Y103719D02*
D03*
X67310Y104620D02*
D03*
X68910Y104820D02*
D03*
X69410Y106219D02*
D03*
X69810Y107620D02*
D03*
X71110Y107519D02*
D03*
X72510D02*
D03*
X74010Y107620D02*
D03*
X74210Y106319D02*
D03*
X74810Y103419D02*
D03*
X74610Y104920D02*
D03*
X75710Y104320D02*
D03*
X76410Y105319D02*
D03*
X76910Y106620D02*
D03*
X77110Y107920D02*
D03*
X79510Y102820D02*
D03*
Y104219D02*
D03*
X79410Y105719D02*
D03*
Y111919D02*
D03*
Y110720D02*
D03*
Y107120D02*
D03*
Y108319D02*
D03*
X79423Y109520D02*
D03*
X76810Y109319D02*
D03*
X76310Y110619D02*
D03*
X75610Y111619D02*
D03*
X73710Y122619D02*
D03*
X72510D02*
D03*
X68910D02*
D03*
X70110D02*
D03*
X71310D02*
D03*
Y121420D02*
D03*
Y120220D02*
D03*
Y119019D02*
D03*
Y117819D02*
D03*
X67210Y110819D02*
D03*
X74410Y112520D02*
D03*
X73110Y113020D02*
D03*
X96810Y119519D02*
D03*
X71910Y112020D02*
D03*
X68110Y111720D02*
D03*
X70310Y113020D02*
D03*
X71610Y113219D02*
D03*
X69110Y112520D02*
D03*
X92010Y115320D02*
D03*
X90810D02*
D03*
X89610D02*
D03*
X88410D02*
D03*
X87210D02*
D03*
X86010D02*
D03*
X84810D02*
D03*
X83610D02*
D03*
X82410D02*
D03*
X81210D02*
D03*
X80010D02*
D03*
X78810D02*
D03*
X77610D02*
D03*
X76410D02*
D03*
X75210D02*
D03*
X74010D02*
D03*
X72810D02*
D03*
X71610D02*
D03*
X70410D02*
D03*
X69210D02*
D03*
X68010D02*
D03*
X66810D02*
D03*
X95610Y119519D02*
D03*
X66810Y116519D02*
D03*
Y117719D02*
D03*
Y118920D02*
D03*
Y120120D02*
D03*
Y121319D02*
D03*
Y122520D02*
D03*
Y123720D02*
D03*
Y124919D02*
D03*
X68010D02*
D03*
X69210D02*
D03*
X70410D02*
D03*
X71610D02*
D03*
X94410Y119519D02*
D03*
X89510Y118219D02*
D03*
X92410Y120819D02*
D03*
X89310Y120720D02*
D03*
X92710Y119519D02*
D03*
X91510D02*
D03*
X90310D02*
D03*
X89110D02*
D03*
X87610Y118920D02*
D03*
Y117719D02*
D03*
X84010Y122520D02*
D03*
Y121319D02*
D03*
X84023Y120120D02*
D03*
X193559Y86838D02*
D03*
X213359Y26438D02*
D03*
X223559D02*
D03*
X213759Y16637D02*
D03*
X233359Y16438D02*
D03*
X223759D02*
D03*
X213359Y59637D02*
D03*
X244159Y62037D02*
D03*
X230159D02*
D03*
X234759D02*
D03*
X240159D02*
D03*
X226559Y63437D02*
D03*
X212959Y62037D02*
D03*
X217359D02*
D03*
X219759D02*
D03*
X223159D02*
D03*
X225559Y60637D02*
D03*
X217359Y56638D02*
D03*
X222759D02*
D03*
X228359Y58038D02*
D03*
X232759D02*
D03*
X237959D02*
D03*
X242559D02*
D03*
X173759Y58837D02*
D03*
Y60438D02*
D03*
Y62037D02*
D03*
X175359Y60438D02*
D03*
X173759Y63638D02*
D03*
Y65237D02*
D03*
Y66838D02*
D03*
Y71637D02*
D03*
Y68437D02*
D03*
Y70038D02*
D03*
Y74837D02*
D03*
Y73238D02*
D03*
Y76437D02*
D03*
Y78038D02*
D03*
X175359Y79637D02*
D03*
X173759Y81238D02*
D03*
Y82837D02*
D03*
X204159Y55638D02*
D03*
X202571Y52438D02*
D03*
Y54037D02*
D03*
Y55638D02*
D03*
Y57237D02*
D03*
X202559Y58837D02*
D03*
X199371Y47638D02*
D03*
X199359Y49237D02*
D03*
Y50837D02*
D03*
Y52438D02*
D03*
Y54037D02*
D03*
Y55638D02*
D03*
X199346Y58837D02*
D03*
X199359Y57237D02*
D03*
X199384Y60438D02*
D03*
X199359Y62037D02*
D03*
X194571Y41238D02*
D03*
X194559Y42838D02*
D03*
X196159Y44438D02*
D03*
X196171Y46038D02*
D03*
Y47638D02*
D03*
X196159Y49237D02*
D03*
Y50837D02*
D03*
Y55638D02*
D03*
X197784Y60438D02*
D03*
X196184D02*
D03*
X196159Y62037D02*
D03*
X196171Y63638D02*
D03*
X196159Y65237D02*
D03*
X192959Y46038D02*
D03*
X192946Y44438D02*
D03*
X192959Y42838D02*
D03*
X194559Y46038D02*
D03*
Y50837D02*
D03*
Y55638D02*
D03*
X194571Y60438D02*
D03*
X192946Y62037D02*
D03*
X192959Y63638D02*
D03*
X192946Y68437D02*
D03*
Y66838D02*
D03*
X194559Y65237D02*
D03*
X192946D02*
D03*
X183359Y39638D02*
D03*
X180159Y41238D02*
D03*
X184959D02*
D03*
X189759Y39638D02*
D03*
Y41238D02*
D03*
Y42838D02*
D03*
X189746Y46038D02*
D03*
X189759Y44438D02*
D03*
X189771Y47638D02*
D03*
X189759Y49237D02*
D03*
X192946D02*
D03*
X192959Y47638D02*
D03*
Y50837D02*
D03*
Y55638D02*
D03*
X189759Y50837D02*
D03*
Y55638D02*
D03*
X189771Y54037D02*
D03*
Y52438D02*
D03*
X192971Y54037D02*
D03*
Y52438D02*
D03*
X196159Y54037D02*
D03*
Y52438D02*
D03*
X189746Y58837D02*
D03*
X189759Y57237D02*
D03*
X192946Y58837D02*
D03*
X192959Y57237D02*
D03*
X196146Y58837D02*
D03*
X196159Y57237D02*
D03*
X191371Y60438D02*
D03*
X189759D02*
D03*
X189746Y62037D02*
D03*
X189759Y63638D02*
D03*
Y65237D02*
D03*
X191371D02*
D03*
X189759Y66838D02*
D03*
Y68437D02*
D03*
X191371Y70038D02*
D03*
X189759D02*
D03*
X188146Y42838D02*
D03*
X186546D02*
D03*
Y44438D02*
D03*
Y46038D02*
D03*
X186559Y47638D02*
D03*
X186546Y49237D02*
D03*
X186559Y50837D02*
D03*
X186546Y52438D02*
D03*
Y54037D02*
D03*
X186559Y55638D02*
D03*
Y57237D02*
D03*
X186546Y58837D02*
D03*
X186559Y60438D02*
D03*
X186546Y62037D02*
D03*
X186559Y63638D02*
D03*
Y65237D02*
D03*
Y66838D02*
D03*
Y68437D02*
D03*
Y70038D02*
D03*
X188171D02*
D03*
X186559Y71637D02*
D03*
Y73238D02*
D03*
Y74837D02*
D03*
X188159D02*
D03*
X184959Y42838D02*
D03*
X183359D02*
D03*
X184971Y50837D02*
D03*
Y46038D02*
D03*
X183359Y52438D02*
D03*
X183371Y50837D02*
D03*
X183359Y49237D02*
D03*
X183371Y47638D02*
D03*
X183359Y46038D02*
D03*
Y44438D02*
D03*
X184971Y55638D02*
D03*
X183359Y57237D02*
D03*
X183371Y55638D02*
D03*
X183359Y54037D02*
D03*
X184971Y60438D02*
D03*
X183346Y62037D02*
D03*
X183359Y60438D02*
D03*
X183346Y58837D02*
D03*
X183359Y63638D02*
D03*
Y65237D02*
D03*
X184971D02*
D03*
X183359Y68437D02*
D03*
Y66838D02*
D03*
X184971Y74837D02*
D03*
Y70038D02*
D03*
X183359Y73238D02*
D03*
Y71637D02*
D03*
Y70038D02*
D03*
Y74837D02*
D03*
Y76437D02*
D03*
Y78038D02*
D03*
X180159Y74837D02*
D03*
X180171Y42838D02*
D03*
X180159Y44438D02*
D03*
Y46038D02*
D03*
X180171Y47638D02*
D03*
X180159Y49237D02*
D03*
X180171Y50837D02*
D03*
X180159Y52438D02*
D03*
Y54037D02*
D03*
X180171Y55638D02*
D03*
X180159Y57237D02*
D03*
X180146Y58837D02*
D03*
X180159Y60438D02*
D03*
Y63638D02*
D03*
X180146Y62037D02*
D03*
X180159Y65237D02*
D03*
Y66838D02*
D03*
Y68437D02*
D03*
Y70038D02*
D03*
Y71637D02*
D03*
Y73238D02*
D03*
Y76437D02*
D03*
Y78038D02*
D03*
Y79637D02*
D03*
Y81238D02*
D03*
X176946Y44438D02*
D03*
X176959Y41238D02*
D03*
X176946Y42838D02*
D03*
Y49237D02*
D03*
X176959Y46038D02*
D03*
X176946Y47638D02*
D03*
X176959Y50837D02*
D03*
X176946Y54037D02*
D03*
Y52438D02*
D03*
Y57237D02*
D03*
X176959Y55638D02*
D03*
Y60438D02*
D03*
X176946Y58837D02*
D03*
Y62037D02*
D03*
X176959Y65237D02*
D03*
X178559Y63638D02*
D03*
X176959D02*
D03*
Y66838D02*
D03*
Y68437D02*
D03*
X178559Y66838D02*
D03*
X176959Y70038D02*
D03*
Y74837D02*
D03*
Y71637D02*
D03*
Y73238D02*
D03*
Y76437D02*
D03*
Y79637D02*
D03*
Y78038D02*
D03*
Y82837D02*
D03*
X301016Y122727D02*
D03*
X255759Y113238D02*
D03*
X301016Y113127D02*
D03*
X244185Y125826D02*
D03*
X216383Y86004D02*
D03*
X300902Y108077D02*
D03*
X229875Y125689D02*
D03*
X276868Y106076D02*
D03*
X264971Y41238D02*
D03*
X286601Y101174D02*
D03*
X277337Y101108D02*
D03*
X281902Y101242D02*
D03*
X173771Y94037D02*
D03*
X178401Y97703D02*
D03*
X178517Y101136D02*
D03*
X295492Y105330D02*
D03*
X307280Y104412D02*
D03*
X300902Y103277D02*
D03*
X298618Y95872D02*
D03*
X291359Y96637D02*
D03*
X297359Y94037D02*
D03*
X281835Y96207D02*
D03*
X279284Y93455D02*
D03*
X277108Y70869D02*
D03*
X279418Y74524D02*
D03*
X236171Y84438D02*
D03*
X231371D02*
D03*
X277672Y80515D02*
D03*
X277874Y87480D02*
D03*
X285359Y86437D02*
D03*
X178631Y120586D02*
D03*
X250888Y83922D02*
D03*
X168971Y122837D02*
D03*
X181771Y74837D02*
D03*
X269550Y74391D02*
D03*
X295492Y100530D02*
D03*
X205962Y118983D02*
D03*
X211643Y116188D02*
D03*
X254718Y65000D02*
D03*
X205992Y107533D02*
D03*
X179957Y90312D02*
D03*
X308171Y127638D02*
D03*
X307916Y117770D02*
D03*
X184527Y93862D02*
D03*
X186229Y97703D02*
D03*
X218155Y122623D02*
D03*
X190347Y126450D02*
D03*
X188171Y118037D02*
D03*
X195671Y126599D02*
D03*
X185062Y87248D02*
D03*
X277830Y56628D02*
D03*
X253372Y51666D02*
D03*
X260354Y51933D02*
D03*
X264971Y36437D02*
D03*
X178571Y50837D02*
D03*
X256057Y46095D02*
D03*
X264784Y46497D02*
D03*
X187348Y81511D02*
D03*
X246959Y34438D02*
D03*
X246525Y51600D02*
D03*
X245771Y46038D02*
D03*
X197771Y50837D02*
D03*
X243359Y41037D02*
D03*
X239208Y51666D02*
D03*
X189759Y78237D02*
D03*
X232092Y51733D02*
D03*
X178571Y60438D02*
D03*
X197771Y55638D02*
D03*
X248259Y30038D02*
D03*
X244059D02*
D03*
X193559Y82638D02*
D03*
X259951Y74458D02*
D03*
X239208Y72377D02*
D03*
X254983Y70026D02*
D03*
X233159Y26438D02*
D03*
X246860Y70094D02*
D03*
X245771Y65237D02*
D03*
X233703Y66602D02*
D03*
X230883Y75532D02*
D03*
X227953Y72528D02*
D03*
X212759Y72038D02*
D03*
X209595Y83162D02*
D03*
X209759Y75037D02*
D03*
X200959Y55638D02*
D03*
X207371Y46038D02*
D03*
X277136Y96408D02*
D03*
X178571Y46038D02*
D03*
X196159Y71838D02*
D03*
X183359Y26438D02*
D03*
X304185Y77526D02*
D03*
X238159Y29838D02*
D03*
X188171Y46038D02*
D03*
X183371Y36437D02*
D03*
X192971Y41238D02*
D03*
X202571Y46038D02*
D03*
X210006Y51398D02*
D03*
X216971Y41238D02*
D03*
X212171D02*
D03*
X202571D02*
D03*
X292959Y73125D02*
D03*
X298205Y78034D02*
D03*
X308171Y46038D02*
D03*
Y50837D02*
D03*
X192971Y60438D02*
D03*
X289011Y61674D02*
D03*
X303371Y46038D02*
D03*
X288078Y31997D02*
D03*
X284171Y46038D02*
D03*
X293771D02*
D03*
X293717Y36428D02*
D03*
X288971Y46038D02*
D03*
X271559Y23038D02*
D03*
X279620Y36966D02*
D03*
X278159Y23038D02*
D03*
X254617Y13844D02*
D03*
X306159Y31637D02*
D03*
X199419Y13953D02*
D03*
X207371Y17237D02*
D03*
X308559Y34038D02*
D03*
Y31637D02*
D03*
X283371Y80238D02*
D03*
X270787Y16025D02*
D03*
X260171Y17237D02*
D03*
X255371D02*
D03*
X210032Y13953D02*
D03*
X178631Y125385D02*
D03*
X205992Y102476D02*
D03*
X196559Y107438D02*
D03*
X193911Y108060D02*
D03*
X196359Y100437D02*
D03*
X317617Y112681D02*
D03*
X317759Y118037D02*
D03*
X317771Y127638D02*
D03*
X181771Y60438D02*
D03*
X182341Y128878D02*
D03*
X183371Y113238D02*
D03*
X216373Y103665D02*
D03*
X211703Y104379D02*
D03*
Y109139D02*
D03*
X216432Y110179D02*
D03*
X258004Y96678D02*
D03*
X267469Y96475D02*
D03*
X262770Y96408D02*
D03*
X178559Y70038D02*
D03*
X181771Y46038D02*
D03*
X271967Y96475D02*
D03*
X298571Y46038D02*
D03*
X303371Y41238D02*
D03*
X178631Y115786D02*
D03*
X178571Y113238D02*
D03*
X178517Y110735D02*
D03*
X172759Y105638D02*
D03*
X267671Y101174D02*
D03*
X272101D02*
D03*
X181771Y50837D02*
D03*
X255759Y125238D02*
D03*
X295492Y110129D02*
D03*
X197771Y46038D02*
D03*
X301016Y117927D02*
D03*
X272168Y110641D02*
D03*
X262569Y110775D02*
D03*
X257870Y101174D02*
D03*
X269771Y46038D02*
D03*
X245759Y33138D02*
D03*
X240971Y46038D02*
D03*
X236171D02*
D03*
X190994Y84234D02*
D03*
X221771Y108438D02*
D03*
X192359Y75638D02*
D03*
X193559Y81238D02*
D03*
X178571Y79637D02*
D03*
Y55638D02*
D03*
Y84438D02*
D03*
X188171Y65237D02*
D03*
X197759D02*
D03*
X204096Y92263D02*
D03*
X211703Y98133D02*
D03*
X205759Y94309D02*
D03*
X210432Y90488D02*
D03*
X204323Y80818D02*
D03*
X202571Y36437D02*
D03*
X219759D02*
D03*
X213959D02*
D03*
X221771Y89237D02*
D03*
X226571D02*
D03*
X231371Y108438D02*
D03*
X277405Y110641D02*
D03*
X290763Y110506D02*
D03*
X291502Y101242D02*
D03*
X270226Y68839D02*
D03*
X300996Y127954D02*
D03*
X240971Y94037D02*
D03*
X264971Y89237D02*
D03*
X236076Y125826D02*
D03*
X231371Y113238D02*
D03*
X273385Y67033D02*
D03*
X211759Y29838D02*
D03*
X308171Y122837D02*
D03*
X304571Y127838D02*
D03*
X236171Y108438D02*
D03*
X181771Y70038D02*
D03*
X303371Y50837D02*
D03*
X234440Y129913D02*
D03*
X280962Y106009D02*
D03*
X236171Y98838D02*
D03*
X286131Y110573D02*
D03*
X281835Y110707D02*
D03*
X236171Y89237D02*
D03*
X243659Y34238D02*
D03*
X221619Y78016D02*
D03*
X231371Y46038D02*
D03*
Y98838D02*
D03*
X211762Y123416D02*
D03*
X216402Y92155D02*
D03*
X210961Y93797D02*
D03*
X191371Y46038D02*
D03*
Y50837D02*
D03*
X189759Y71637D02*
D03*
X188171Y50837D02*
D03*
X285869Y82845D02*
D03*
X181771Y79637D02*
D03*
Y55638D02*
D03*
Y65237D02*
D03*
X178571Y74837D02*
D03*
X175359Y84438D02*
D03*
X226571Y98838D02*
D03*
X290965Y106076D02*
D03*
X269771Y89237D02*
D03*
X236171Y41238D02*
D03*
X295606Y124779D02*
D03*
X267402Y110707D02*
D03*
X192971Y122837D02*
D03*
X303371Y55638D02*
D03*
X172780Y120678D02*
D03*
Y115878D02*
D03*
X236038Y25653D02*
D03*
X193759Y90637D02*
D03*
X187007Y104413D02*
D03*
X190070Y97557D02*
D03*
X317559Y110038D02*
D03*
X205962Y113034D02*
D03*
X191140Y87493D02*
D03*
X196294Y96342D02*
D03*
X205992Y97478D02*
D03*
X317617Y123177D02*
D03*
X269771Y41238D02*
D03*
X178517Y105936D02*
D03*
X171359Y101237D02*
D03*
X202571Y17237D02*
D03*
X197771D02*
D03*
X205358Y14119D02*
D03*
X218171Y14063D02*
D03*
X236171Y17237D02*
D03*
X262981Y17537D02*
D03*
X276214Y16793D02*
D03*
X300902Y98476D02*
D03*
X280959Y16637D02*
D03*
X282789Y13953D02*
D03*
X308959Y37137D02*
D03*
X268978Y13898D02*
D03*
X261880Y13844D02*
D03*
X193205Y14119D02*
D03*
X192971Y17237D02*
D03*
X188171D02*
D03*
X233708Y13898D02*
D03*
X240311Y13734D02*
D03*
X288481Y93321D02*
D03*
X248454Y13844D02*
D03*
X286937Y96140D02*
D03*
X276351Y13844D02*
D03*
X306159Y34038D02*
D03*
X303759Y31637D02*
D03*
X181559Y24837D02*
D03*
X279371Y31637D02*
D03*
X286601Y106076D02*
D03*
X277052Y83899D02*
D03*
X279371Y46038D02*
D03*
X274571Y31637D02*
D03*
X285959Y28837D02*
D03*
X284171Y41238D02*
D03*
X288971Y50837D02*
D03*
X284171D02*
D03*
X188171Y55638D02*
D03*
Y60438D02*
D03*
X172780Y125478D02*
D03*
X168971Y127638D02*
D03*
X286546Y59659D02*
D03*
X283088Y76566D02*
D03*
X290635Y88214D02*
D03*
X207391Y26265D02*
D03*
X212171Y46038D02*
D03*
X216971D02*
D03*
X221771Y41238D02*
D03*
X226571D02*
D03*
X249659Y103537D02*
D03*
X182341Y124079D02*
D03*
X262367Y106277D02*
D03*
X182341Y119279D02*
D03*
X197771Y41238D02*
D03*
X188171D02*
D03*
X183371D02*
D03*
X172759Y110637D02*
D03*
X178571Y41238D02*
D03*
X173771D02*
D03*
X172771Y113238D02*
D03*
X216402Y116306D02*
D03*
X169267Y104483D02*
D03*
X169518Y113355D02*
D03*
X169853Y119379D02*
D03*
X173771Y55638D02*
D03*
X260171Y89237D02*
D03*
X250259Y33737D02*
D03*
X255371Y89237D02*
D03*
X236171Y113238D02*
D03*
X216359Y51837D02*
D03*
X184576Y108158D02*
D03*
X216373Y97746D02*
D03*
X307598Y111250D02*
D03*
X267201Y106076D02*
D03*
X262770Y101242D02*
D03*
X191371Y55638D02*
D03*
X295585Y130379D02*
D03*
X200959Y50837D02*
D03*
X200759Y67238D02*
D03*
X205159Y62837D02*
D03*
X200959Y60438D02*
D03*
X216048Y79559D02*
D03*
X213098Y77851D02*
D03*
X216249Y72711D02*
D03*
X225988Y72238D02*
D03*
X226520Y77545D02*
D03*
X240971Y65237D02*
D03*
X264650Y69826D02*
D03*
X245451Y78619D02*
D03*
X272168Y106210D02*
D03*
X231371Y41238D02*
D03*
X225043Y51863D02*
D03*
X233159Y29838D02*
D03*
X240971Y41238D02*
D03*
X264759Y57237D02*
D03*
X245771Y41238D02*
D03*
X185159Y28238D02*
D03*
X173771Y46038D02*
D03*
X218559Y59637D02*
D03*
X261934Y64890D02*
D03*
X312051Y109342D02*
D03*
X211673Y129572D02*
D03*
X218155Y128551D02*
D03*
X205962Y126599D02*
D03*
X268873Y62802D02*
D03*
X196459Y122637D02*
D03*
X222720Y126711D02*
D03*
X250502Y44361D02*
D03*
X311892Y115226D02*
D03*
X312369Y122381D02*
D03*
X312971Y127638D02*
D03*
X176171Y114838D02*
D03*
X176347Y124963D02*
D03*
X176171Y119638D02*
D03*
X221559Y29838D02*
D03*
X176959Y81238D02*
D03*
X283641Y63197D02*
D03*
X192987Y94494D02*
D03*
G54D22*
X190198Y161168D02*
D03*
X263549Y139052D02*
D03*
X162882Y100739D02*
D03*
Y91140D02*
D03*
X161252Y23976D02*
D03*
X163503D02*
D03*
X129782Y109883D02*
D03*
X128145D02*
D03*
X108794Y183739D02*
D03*
Y182120D02*
D03*
X243764Y166834D02*
D03*
X230963Y168081D02*
D03*
X174102Y169039D02*
D03*
X183102Y155718D02*
D03*
X203140Y145408D02*
D03*
X57230Y43976D02*
D03*
X154868Y33976D02*
D03*
Y43976D02*
D03*
X172654Y90867D02*
D03*
X146454Y109979D02*
D03*
X134581Y124059D02*
D03*
X186501Y155718D02*
D03*
X200859Y161333D02*
D03*
X148754Y106738D02*
D03*
G54D23*
X195528Y168998D02*
D03*
X239933Y161034D02*
D03*
X190198Y169098D02*
D03*
X107033Y133608D02*
D03*
X250964Y161134D02*
D03*
M02*
