G04 Layer_Color=128*
%FSLAX25Y25*%
%MOIN*%
G70*
G01*
G75*
%ADD16C,0.00787*%
%ADD152C,0.00200*%
G54D16*
X354329Y0D02*
Y196851D01*
X0Y0D02*
X354329D01*
X0Y196851D02*
X354329D01*
X0Y0D02*
Y196851D01*
G54D152*
X100210Y122520D02*
X100610D01*
X100410Y122319D02*
Y122720D01*
X100210Y121319D02*
X100610D01*
X100410Y121119D02*
Y121519D01*
X100210Y120120D02*
X100610D01*
X100410Y119920D02*
Y120319D01*
X100210Y118920D02*
X100610D01*
X100410Y118719D02*
Y119120D01*
X100210Y117719D02*
X100610D01*
X100410Y117519D02*
Y117920D01*
X100210Y116519D02*
X100610D01*
X100410Y116320D02*
Y116719D01*
X100210Y123720D02*
X100610D01*
X100410Y123520D02*
Y123919D01*
X100210Y124919D02*
X100610D01*
X100410Y124720D02*
Y125119D01*
X100210Y115320D02*
X100610D01*
X100410Y115120D02*
Y115519D01*
X99010Y124919D02*
X99410D01*
X99210Y124720D02*
Y125119D01*
X99010Y115320D02*
X99410D01*
X99210Y115120D02*
Y115519D01*
X97810Y115320D02*
X98210D01*
X98010Y115120D02*
Y115519D01*
X96610Y115320D02*
X97010D01*
X96810Y115120D02*
Y115519D01*
X95410Y115320D02*
X95810D01*
X95610Y115120D02*
Y115519D01*
X94210Y115320D02*
X94610D01*
X94410Y115120D02*
Y115519D01*
X93010Y115320D02*
X93410D01*
X93210Y115120D02*
Y115519D01*
X72610Y124919D02*
X73010D01*
X72810Y124720D02*
Y125119D01*
X73810Y124919D02*
X74210D01*
X74010Y124720D02*
Y125119D01*
X75010Y124919D02*
X75410D01*
X75210Y124720D02*
Y125119D01*
X76210Y124919D02*
X76610D01*
X76410Y124720D02*
Y125119D01*
X77410Y124919D02*
X77810D01*
X77610Y124720D02*
Y125119D01*
X78610Y124919D02*
X79010D01*
X78810Y124720D02*
Y125119D01*
X79810Y124919D02*
X80210D01*
X80010Y124720D02*
Y125119D01*
X81010Y124919D02*
X81410D01*
X81210Y124720D02*
Y125119D01*
X82210Y124919D02*
X82610D01*
X82410Y124720D02*
Y125119D01*
X83410Y124919D02*
X83810D01*
X83610Y124720D02*
Y125119D01*
X84610Y124919D02*
X85010D01*
X84810Y124720D02*
Y125119D01*
X85810Y124919D02*
X86210D01*
X86010Y124720D02*
Y125119D01*
X87010Y124919D02*
X87410D01*
X87210Y124720D02*
Y125119D01*
X88210Y124919D02*
X88610D01*
X88410Y124720D02*
Y125119D01*
X89410Y124919D02*
X89810D01*
X89610Y124720D02*
Y125119D01*
X90610Y124919D02*
X91010D01*
X90810Y124720D02*
Y125119D01*
X91810Y124919D02*
X92210D01*
X92010Y124720D02*
Y125119D01*
X93010Y124919D02*
X93410D01*
X93210Y124720D02*
Y125119D01*
X94210Y124919D02*
X94610D01*
X94410Y124720D02*
Y125119D01*
X80010Y121019D02*
X80410D01*
X80210Y120819D02*
Y121220D01*
X95410Y124919D02*
X95810D01*
X95610Y124720D02*
Y125119D01*
X96610Y124919D02*
X97010D01*
X96810Y124720D02*
Y125119D01*
X97810Y124919D02*
X98210D01*
X98010Y124720D02*
Y125119D01*
X97210Y117920D02*
X97610D01*
X97410Y117719D02*
Y118120D01*
X95810Y117620D02*
X96210D01*
X96010Y117420D02*
Y117819D01*
X99430Y62780D02*
X99830D01*
X99630Y62581D02*
Y62981D01*
X99355Y64250D02*
X99755D01*
X99555Y64051D02*
Y64451D01*
X99340Y65586D02*
X99740D01*
X99540Y65386D02*
Y65785D01*
X102095Y60590D02*
X102495D01*
X102295Y60391D02*
Y60790D01*
X104710Y66896D02*
X105110D01*
X104910Y66695D02*
Y67096D01*
X104275Y65760D02*
X104675D01*
X104475Y65561D02*
Y65961D01*
X103795Y64535D02*
X104195D01*
X103995Y64336D02*
Y64736D01*
X102690Y61845D02*
X103090D01*
X102890Y61646D02*
Y62046D01*
X102600Y63326D02*
X103000D01*
X102800Y63125D02*
Y63525D01*
X102035Y64581D02*
X102435D01*
X102235Y64381D02*
Y64780D01*
X101600Y65760D02*
X102000D01*
X101800Y65561D02*
Y65961D01*
X101195Y66926D02*
X101595D01*
X101395Y66725D02*
Y67125D01*
X98825Y66975D02*
X99225D01*
X99025Y66776D02*
Y67176D01*
X97460Y66991D02*
X97860D01*
X97660Y66790D02*
Y67190D01*
X96015Y62796D02*
X96415D01*
X96215Y62595D02*
Y62995D01*
X95930Y64196D02*
X96330D01*
X96130Y63995D02*
Y64395D01*
X95985Y65540D02*
X96385D01*
X96185Y65341D02*
Y65741D01*
X95985Y66966D02*
X96385D01*
X96185Y66765D02*
Y67165D01*
X93810Y62995D02*
X94210D01*
X94010Y62796D02*
Y63196D01*
X93795Y64296D02*
X94195D01*
X93995Y64095D02*
Y64495D01*
X93855Y65631D02*
X94255D01*
X94055Y65430D02*
Y65830D01*
X93385Y67040D02*
X93785D01*
X93585Y66840D02*
Y67241D01*
X86515Y62315D02*
X86915D01*
X86715Y62116D02*
Y62515D01*
X85250Y62641D02*
X85650D01*
X85450Y62441D02*
Y62840D01*
X84895Y63876D02*
X85295D01*
X85095Y63675D02*
Y64075D01*
X85630Y64965D02*
X86030D01*
X85830Y64766D02*
Y65166D01*
X86855Y65336D02*
X87255D01*
X87055Y65136D02*
Y65535D01*
X91745Y66910D02*
X92145D01*
X91945Y66711D02*
Y67111D01*
X90430Y63011D02*
X90830D01*
X90630Y62810D02*
Y63210D01*
X90405Y64325D02*
X90805D01*
X90605Y64126D02*
Y64526D01*
X90415Y65626D02*
X90815D01*
X90615Y65425D02*
Y65825D01*
X90445Y66896D02*
X90845D01*
X90645Y66695D02*
Y67096D01*
X88490Y61671D02*
X88890D01*
X88690Y61471D02*
Y61870D01*
X88270Y62950D02*
X88670D01*
X88470Y62751D02*
Y63151D01*
X88325Y64261D02*
X88725D01*
X88525Y64060D02*
Y64460D01*
X88270Y65556D02*
X88670D01*
X88470Y65355D02*
Y65755D01*
X88000Y66835D02*
X88400D01*
X88200Y66636D02*
Y67036D01*
X86750Y67176D02*
X87150D01*
X86950Y66975D02*
Y67375D01*
X85440Y67071D02*
X85840D01*
X85640Y66870D02*
Y67270D01*
X83100Y62181D02*
X83500D01*
X83300Y61980D02*
Y62380D01*
X83070Y63465D02*
X83470D01*
X83270Y63266D02*
Y63665D01*
X83085Y64806D02*
X83485D01*
X83285Y64605D02*
Y65005D01*
X83100Y66131D02*
X83500D01*
X83300Y65930D02*
Y66330D01*
X77620Y68676D02*
X78020D01*
X77820Y68476D02*
Y68875D01*
X76430Y69046D02*
X76830D01*
X76630Y68845D02*
Y69245D01*
X75130Y68910D02*
X75530D01*
X75330Y68711D02*
Y69111D01*
X74115Y68076D02*
X74515D01*
X74315Y67875D02*
Y68275D01*
X74175Y66736D02*
X74575D01*
X74375Y66536D02*
Y66935D01*
X73500Y62890D02*
X73900D01*
X73700Y62691D02*
Y63090D01*
X74675Y62375D02*
X75075D01*
X74875Y62176D02*
Y62576D01*
X75940Y62240D02*
X76340D01*
X76140Y62041D02*
Y62441D01*
X77150Y62611D02*
X77550D01*
X77350Y62410D02*
Y62810D01*
X75175Y65926D02*
X75575D01*
X75375Y65725D02*
Y66126D01*
X76430Y65540D02*
X76830D01*
X76630Y65341D02*
Y65741D01*
X77575Y64981D02*
X77975D01*
X77775Y64780D02*
Y65180D01*
X77870Y63656D02*
X78270D01*
X78070Y63455D02*
Y63855D01*
X82275Y67190D02*
X82675D01*
X82475Y66991D02*
Y67391D01*
X80950Y66835D02*
X81350D01*
X81150Y66636D02*
Y67036D01*
X79725Y62391D02*
X80125D01*
X79925Y62191D02*
Y62590D01*
X79755Y69016D02*
X80155D01*
X79955Y68815D02*
Y69216D01*
X79725Y63731D02*
X80125D01*
X79925Y63530D02*
Y63930D01*
X79725Y65026D02*
X80125D01*
X79925Y64825D02*
Y65225D01*
X79685Y66290D02*
X80085D01*
X79885Y66091D02*
Y66491D01*
X79710Y67646D02*
X80110D01*
X79910Y67445D02*
Y67845D01*
X96610Y121720D02*
X97010D01*
X96810Y121519D02*
Y121920D01*
X75288Y86248D02*
X75688D01*
X75488Y86049D02*
Y86449D01*
X73994Y79507D02*
X74394D01*
X74194Y79308D02*
Y79707D01*
X66984Y78364D02*
X67384D01*
X67184Y78163D02*
Y78563D01*
X67858Y79204D02*
X68258D01*
X68058Y79005D02*
Y79404D01*
X68883Y79861D02*
X69283D01*
X69083Y79660D02*
Y80060D01*
X77020Y87559D02*
X77420D01*
X77220Y87359D02*
Y87760D01*
X75809Y87424D02*
X76209D01*
X76009Y87225D02*
Y87625D01*
X74633Y87308D02*
X75033D01*
X74833Y87107D02*
Y87507D01*
X73506Y86853D02*
X73906D01*
X73706Y86654D02*
Y87054D01*
X72531Y86231D02*
X72931D01*
X72731Y86032D02*
Y86431D01*
X71489Y85659D02*
X71889D01*
X71689Y85460D02*
Y85860D01*
X71405Y82449D02*
X71805D01*
X71605Y82249D02*
Y82648D01*
X70245Y82617D02*
X70645D01*
X70445Y82418D02*
Y82818D01*
X70144Y83811D02*
X70544D01*
X70344Y83610D02*
Y84010D01*
X70699Y84820D02*
X71099D01*
X70899Y84619D02*
Y85019D01*
X74532Y85324D02*
X74932D01*
X74732Y85123D02*
Y85523D01*
X73926Y84332D02*
X74326D01*
X74126Y84131D02*
Y84531D01*
X73473Y80616D02*
X73873D01*
X73673Y80417D02*
Y80817D01*
X73338Y83240D02*
X73738D01*
X73538Y83039D02*
Y83439D01*
X69892Y80498D02*
X70292D01*
X70092Y80299D02*
Y80699D01*
X72867Y82147D02*
X73267D01*
X73067Y81946D02*
Y82346D01*
X95310Y121619D02*
X95710D01*
X95510Y121420D02*
Y121819D01*
X72229Y81020D02*
X72629D01*
X72429Y80821D02*
Y81221D01*
X70968Y80970D02*
X71368D01*
X71168Y80769D02*
Y81169D01*
X71607Y79944D02*
X72007D01*
X71807Y79744D02*
Y80145D01*
X73389Y78414D02*
X73789D01*
X73589Y78215D02*
Y78614D01*
X70951Y78869D02*
X71351D01*
X71151Y78668D02*
Y79068D01*
X70228Y77894D02*
X70628D01*
X70428Y77693D02*
Y78093D01*
X69304Y77069D02*
X69704D01*
X69504Y76869D02*
Y77270D01*
X67118Y76262D02*
X67518D01*
X67318Y76063D02*
Y76463D01*
X68345Y76398D02*
X68745D01*
X68545Y76197D02*
Y76597D01*
X91910Y117920D02*
X92310D01*
X92110Y117719D02*
Y118120D01*
X90510Y117620D02*
X90910D01*
X90710Y117420D02*
Y117819D01*
X91310Y121720D02*
X91710D01*
X91510Y121519D02*
Y121920D01*
X83758Y80321D02*
X84158D01*
X83958Y80120D02*
Y80520D01*
X90010Y121619D02*
X90410D01*
X90210Y121420D02*
Y121819D01*
X83358Y77320D02*
X83758D01*
X83558Y77121D02*
Y77521D01*
X94251Y81288D02*
X94651D01*
X94451Y81089D02*
Y81489D01*
X92851Y81288D02*
X93251D01*
X93051Y81089D02*
Y81489D01*
X95151Y80089D02*
X95551D01*
X95351Y79888D02*
Y80288D01*
X95151Y78689D02*
X95551D01*
X95351Y78488D02*
Y78888D01*
X95138Y77488D02*
X95538D01*
X95338Y77289D02*
Y77688D01*
X95138Y76288D02*
X95538D01*
X95338Y76089D02*
Y76489D01*
X79685Y80461D02*
X80085D01*
X79885Y80260D02*
Y80660D01*
X78385Y80361D02*
X78785D01*
X78585Y80160D02*
Y80560D01*
X80585Y79561D02*
X80985D01*
X80785Y79361D02*
Y79760D01*
X82958Y78921D02*
X83358D01*
X83158Y78720D02*
Y79120D01*
X77485Y79461D02*
X77885D01*
X77685Y79260D02*
Y79660D01*
X80885Y78260D02*
X81285D01*
X81085Y78061D02*
Y78461D01*
X79685Y78260D02*
X80085D01*
X79885Y78061D02*
Y78461D01*
X78485Y78260D02*
X78885D01*
X78685Y78061D02*
Y78461D01*
X77285Y78260D02*
X77685D01*
X77485Y78061D02*
Y78461D01*
X77685Y76960D02*
X78085D01*
X77885Y76761D02*
Y77161D01*
X80285Y76661D02*
X80685D01*
X80485Y76460D02*
Y76860D01*
X78885Y76360D02*
X79285D01*
X79085Y76161D02*
Y76560D01*
X86358Y76221D02*
X86758D01*
X86558Y76020D02*
Y76420D01*
X84958Y76320D02*
X85358D01*
X85158Y76121D02*
Y76521D01*
X92051Y80189D02*
X92451D01*
X92251Y79988D02*
Y80388D01*
X90751Y81089D02*
X91151D01*
X90951Y80888D02*
Y81288D01*
X90751Y79888D02*
X91151D01*
X90951Y79689D02*
Y80089D01*
X90763Y78689D02*
X91163D01*
X90963Y78488D02*
Y78888D01*
X90751Y77488D02*
X91151D01*
X90951Y77289D02*
Y77688D01*
X90751Y76288D02*
X91151D01*
X90951Y76089D02*
Y76489D01*
X88358Y76320D02*
X88758D01*
X88558Y76121D02*
Y76521D01*
X87558Y77421D02*
X87958D01*
X87758Y77220D02*
Y77621D01*
X87958Y78921D02*
X88358D01*
X88158Y78720D02*
Y79120D01*
X87458Y80221D02*
X87858D01*
X87658Y80020D02*
Y80421D01*
X86458Y81221D02*
X86858D01*
X86658Y81020D02*
Y81420D01*
X94610Y118219D02*
X95010D01*
X94810Y118019D02*
Y118420D01*
X85058Y81221D02*
X85458D01*
X85258Y81020D02*
Y81420D01*
X97510Y120819D02*
X97910D01*
X97710Y120619D02*
Y121019D01*
X94410Y120720D02*
X94810D01*
X94610Y120519D02*
Y120920D01*
X97810Y119519D02*
X98210D01*
X98010Y119319D02*
Y119720D01*
X66960Y87950D02*
X67360D01*
X67160Y87751D02*
Y88151D01*
X68360Y89750D02*
X68760D01*
X68560Y89551D02*
Y89951D01*
X97797Y102620D02*
X98197D01*
X97997Y102419D02*
Y102820D01*
X97797Y103820D02*
X98197D01*
X97997Y103620D02*
Y104019D01*
X97810Y105019D02*
X98210D01*
X98010Y104820D02*
Y105219D01*
X97810Y106420D02*
X98210D01*
X98010Y106219D02*
Y106620D01*
X96910Y107620D02*
X97310D01*
X97110Y107420D02*
Y107819D01*
X95510Y107620D02*
X95910D01*
X95710Y107420D02*
Y107819D01*
X94710Y106519D02*
X95110D01*
X94910Y106319D02*
Y106720D01*
X93410Y107420D02*
X93810D01*
X93610Y107220D02*
Y107620D01*
X93410Y106219D02*
X93810D01*
X93610Y106019D02*
Y106420D01*
X93410Y102620D02*
X93810D01*
X93610Y102419D02*
Y102820D01*
X93410Y103820D02*
X93810D01*
X93610Y103620D02*
Y104019D01*
X93423Y105019D02*
X93823D01*
X93623Y104820D02*
Y105219D01*
X89410Y103120D02*
X89810D01*
X89610Y102919D02*
Y103320D01*
X88010Y102820D02*
X88410D01*
X88210Y102620D02*
Y103019D01*
X88810Y106920D02*
X89210D01*
X89010Y106720D02*
Y107120D01*
X87510Y106819D02*
X87910D01*
X87710Y106620D02*
Y107019D01*
X86810Y103419D02*
X87210D01*
X87010Y103219D02*
Y103620D01*
X89710Y106019D02*
X90110D01*
X89910Y105819D02*
Y106219D01*
X86610Y105920D02*
X87010D01*
X86810Y105719D02*
Y106120D01*
X90010Y104719D02*
X90410D01*
X90210Y104519D02*
Y104920D01*
X88810Y104719D02*
X89210D01*
X89010Y104519D02*
Y104920D01*
X87610Y104719D02*
X88010D01*
X87810Y104519D02*
Y104920D01*
X86410Y104719D02*
X86810D01*
X86610Y104519D02*
Y104920D01*
X83710Y102820D02*
X84110D01*
X83910Y102620D02*
Y103019D01*
X83710Y104219D02*
X84110D01*
X83910Y104019D02*
Y104420D01*
X83610Y105719D02*
X84010D01*
X83810Y105519D02*
Y105920D01*
X83610Y107120D02*
X84010D01*
X83810Y106920D02*
Y107319D01*
X83610Y108319D02*
X84010D01*
X83810Y108119D02*
Y108519D01*
X83623Y109520D02*
X84023D01*
X83823Y109319D02*
Y109720D01*
X83610Y110720D02*
X84010D01*
X83810Y110520D02*
Y110919D01*
X83610Y111919D02*
X84010D01*
X83810Y111720D02*
Y112119D01*
X65710Y95520D02*
X66110D01*
X65910Y95319D02*
Y95719D01*
X64610Y96820D02*
X65010D01*
X64810Y96619D02*
Y97019D01*
X65610Y97919D02*
X66010D01*
X65810Y97720D02*
Y98119D01*
X66710Y98919D02*
X67110D01*
X66910Y98720D02*
Y99120D01*
X69960Y88551D02*
X70360D01*
X70160Y88350D02*
Y88750D01*
X71010Y95520D02*
X71410D01*
X71210Y95319D02*
Y95719D01*
X72510Y95020D02*
X72910D01*
X72710Y94819D02*
Y95219D01*
X103910Y90020D02*
X104310D01*
X104110Y89820D02*
Y90219D01*
X103910Y91220D02*
X104310D01*
X104110Y91019D02*
Y91420D01*
X103923Y92419D02*
X104323D01*
X104123Y92220D02*
Y92620D01*
X103923Y93819D02*
X104323D01*
X104123Y93620D02*
Y94020D01*
X87710Y90320D02*
X88110D01*
X87910Y90119D02*
Y90519D01*
X89110Y90219D02*
X89510D01*
X89310Y90020D02*
Y90420D01*
X96710Y90219D02*
X97110D01*
X96910Y90020D02*
Y90420D01*
X95010Y92620D02*
X95410D01*
X95210Y92419D02*
Y92819D01*
X103023Y95020D02*
X103423D01*
X103223Y94819D02*
Y95219D01*
X101623Y95020D02*
X102023D01*
X101823Y94819D02*
Y95219D01*
X100823Y93919D02*
X101223D01*
X101023Y93720D02*
Y94120D01*
X99523Y90020D02*
X99923D01*
X99723Y89820D02*
Y90219D01*
X99523Y91220D02*
X99923D01*
X99723Y91019D02*
Y91420D01*
X99535Y92419D02*
X99935D01*
X99735Y92220D02*
Y92620D01*
X99523Y93620D02*
X99923D01*
X99723Y93419D02*
Y93819D01*
X99523Y94819D02*
X99923D01*
X99723Y94620D02*
Y95020D01*
X97510Y95120D02*
X97910D01*
X97710Y94920D02*
Y95319D01*
X97110Y93620D02*
X97510D01*
X97310Y93419D02*
Y93819D01*
X97010Y91919D02*
X97410D01*
X97210Y91720D02*
Y92119D01*
X95810Y91420D02*
X96210D01*
X96010Y91220D02*
Y91619D01*
X94210Y91420D02*
X94610D01*
X94410Y91220D02*
Y91619D01*
X91910Y95020D02*
X92310D01*
X92110Y94819D02*
Y95219D01*
X92310Y93419D02*
X92710D01*
X92510Y93220D02*
Y93620D01*
X92710Y91919D02*
X93110D01*
X92910Y91720D02*
Y92119D01*
X93010Y90320D02*
X93410D01*
X93210Y90119D02*
Y90519D01*
X91110Y90320D02*
X91510D01*
X91310Y90119D02*
Y90519D01*
X90310Y91420D02*
X90710D01*
X90510Y91220D02*
Y91619D01*
X90710Y92919D02*
X91110D01*
X90910Y92720D02*
Y93120D01*
X90210Y94219D02*
X90610D01*
X90410Y94020D02*
Y94419D01*
X89210Y95219D02*
X89610D01*
X89410Y95020D02*
Y95420D01*
X87810Y95219D02*
X88210D01*
X88010Y95020D02*
Y95420D01*
X72310Y92519D02*
X72710D01*
X72510Y92320D02*
Y92720D01*
X70810Y92519D02*
X71210D01*
X71010Y92320D02*
Y92720D01*
X70210Y90920D02*
X70610D01*
X70410Y90719D02*
Y91119D01*
X71410Y89920D02*
X71810D01*
X71610Y89719D02*
Y90119D01*
X72610Y90619D02*
X73010D01*
X72810Y90420D02*
Y90820D01*
X73510Y91519D02*
X73910D01*
X73710Y91320D02*
Y91720D01*
X74410Y92620D02*
X74810D01*
X74610Y92419D02*
Y92819D01*
X73510Y93720D02*
X73910D01*
X73710Y93520D02*
Y93919D01*
X75410Y93620D02*
X75810D01*
X75610Y93419D02*
Y93819D01*
X86110Y91320D02*
X86510D01*
X86310Y91119D02*
Y91519D01*
X86510Y94319D02*
X86910D01*
X86710Y94120D02*
Y94520D01*
X85710Y92919D02*
X86110D01*
X85910Y92720D02*
Y93120D01*
X84210Y90219D02*
X84610D01*
X84410Y90020D02*
Y90420D01*
X84210Y91420D02*
X84610D01*
X84410Y91220D02*
Y91619D01*
X84223Y92620D02*
X84623D01*
X84423Y92419D02*
Y92819D01*
X84223Y94020D02*
X84623D01*
X84423Y93819D02*
Y94219D01*
X76510Y94719D02*
X76910D01*
X76710Y94520D02*
Y94920D01*
X77510Y95719D02*
X77910D01*
X77710Y95520D02*
Y95920D01*
X83323Y95219D02*
X83723D01*
X83523Y95020D02*
Y95420D01*
X81923Y95219D02*
X82323D01*
X82123Y95020D02*
Y95420D01*
X81123Y94120D02*
X81523D01*
X81323Y93919D02*
Y94319D01*
X79823Y90219D02*
X80223D01*
X80023Y90020D02*
Y90420D01*
X79823Y91420D02*
X80223D01*
X80023Y91220D02*
Y91619D01*
X79835Y92620D02*
X80235D01*
X80035Y92419D02*
Y92819D01*
X79823Y93819D02*
X80223D01*
X80023Y93620D02*
Y94020D01*
X79823Y95020D02*
X80223D01*
X80023Y94819D02*
Y95219D01*
X79810Y100220D02*
X80210D01*
X80010Y100020D02*
Y100419D01*
X79810Y99019D02*
X80210D01*
X80010Y98820D02*
Y99220D01*
X79810Y97820D02*
X80210D01*
X80010Y97619D02*
Y98019D01*
X79810Y96520D02*
X80210D01*
X80010Y96320D02*
Y96719D01*
X78510Y96820D02*
X78910D01*
X78710Y96619D02*
Y97019D01*
X77610Y97820D02*
X78010D01*
X77810Y97619D02*
Y98019D01*
X76710Y98820D02*
X77110D01*
X76910Y98620D02*
Y99019D01*
X68310Y97119D02*
X68710D01*
X68510Y96920D02*
Y97320D01*
X81010Y117719D02*
X81410D01*
X81210Y117519D02*
Y117920D01*
X81010Y118920D02*
X81410D01*
X81210Y118719D02*
Y119120D01*
X81010Y120120D02*
X81410D01*
X81210Y119920D02*
Y120319D01*
X79010Y117719D02*
X79410D01*
X79210Y117519D02*
Y117920D01*
X79010Y118920D02*
X79410D01*
X79210Y118719D02*
Y119120D01*
X79010Y120120D02*
X79410D01*
X79210Y119920D02*
Y120319D01*
X78010Y121019D02*
X78410D01*
X78210Y120819D02*
Y121220D01*
X77010Y120120D02*
X77410D01*
X77210Y119920D02*
Y120319D01*
X77010Y118920D02*
X77410D01*
X77210Y118719D02*
Y119120D01*
X77010Y117719D02*
X77410D01*
X77210Y117519D02*
Y117920D01*
X72710Y110619D02*
X73110D01*
X72910Y110419D02*
Y110819D01*
X70510Y110619D02*
X70910D01*
X70710Y110419D02*
Y110819D01*
X66510Y106120D02*
X66910D01*
X66710Y105920D02*
Y106319D01*
X74710Y117719D02*
X75110D01*
X74910Y117519D02*
Y117920D01*
X74710Y118920D02*
X75110D01*
X74910Y118719D02*
Y119120D01*
X74710Y120120D02*
X75110D01*
X74910Y119920D02*
Y120319D01*
X75410Y121119D02*
X75810D01*
X75610Y120920D02*
Y121319D01*
X74010Y121119D02*
X74410D01*
X74210Y120920D02*
Y121319D01*
X75410Y100320D02*
X75810D01*
X75610Y100119D02*
Y100520D01*
X73410Y97220D02*
X73810D01*
X73610Y97019D02*
Y97420D01*
X74710Y95719D02*
X75110D01*
X74910Y95520D02*
Y95920D01*
X74710Y97019D02*
X75110D01*
X74910Y96820D02*
Y97220D01*
X74710Y98320D02*
X75110D01*
X74910Y98119D02*
Y98519D01*
X72410Y98119D02*
X72810D01*
X72610Y97919D02*
Y98320D01*
X67910Y100320D02*
X68310D01*
X68110Y100119D02*
Y100520D01*
X69710Y100320D02*
X70110D01*
X69910Y100119D02*
Y100520D01*
X69410Y98419D02*
X69810D01*
X69610Y98220D02*
Y98620D01*
X70910Y98519D02*
X71310D01*
X71110Y98320D02*
Y98720D01*
X71610Y100320D02*
X72010D01*
X71810Y100119D02*
Y100520D01*
X73510Y100320D02*
X73910D01*
X73710Y100119D02*
Y100520D01*
X66210Y107920D02*
X66610D01*
X66410Y107720D02*
Y108119D01*
Y109420D02*
X66810D01*
X66610Y109220D02*
Y109619D01*
X86210Y117719D02*
X86610D01*
X86410Y117519D02*
Y117920D01*
X83810Y118920D02*
X84210D01*
X84010Y118719D02*
Y119120D01*
X83810Y117719D02*
X84210D01*
X84010Y117519D02*
Y117920D01*
X85010Y117719D02*
X85410D01*
X85210Y117519D02*
Y117920D01*
X73310Y109019D02*
X73710D01*
X73510Y108819D02*
Y109220D01*
X73210Y102719D02*
X73610D01*
X73410Y102520D02*
Y102919D01*
X69910Y109119D02*
X70310D01*
X70110Y108920D02*
Y109319D01*
X71510Y102419D02*
X71910D01*
X71710Y102219D02*
Y102620D01*
X70310D02*
X70710D01*
X70510Y102419D02*
Y102820D01*
X69110Y103019D02*
X69510D01*
X69310Y102820D02*
Y103219D01*
X68010Y103719D02*
X68410D01*
X68210Y103519D02*
Y103919D01*
X67110Y104620D02*
X67510D01*
X67310Y104420D02*
Y104820D01*
X68710D02*
X69110D01*
X68910Y104620D02*
Y105019D01*
X69210Y106219D02*
X69610D01*
X69410Y106019D02*
Y106420D01*
X69610Y107620D02*
X70010D01*
X69810Y107420D02*
Y107819D01*
X70910Y107519D02*
X71310D01*
X71110Y107319D02*
Y107720D01*
X72310Y107519D02*
X72710D01*
X72510Y107319D02*
Y107720D01*
X73810Y107620D02*
X74210D01*
X74010Y107420D02*
Y107819D01*
Y106319D02*
X74410D01*
X74210Y106120D02*
Y106519D01*
X74610Y103419D02*
X75010D01*
X74810Y103219D02*
Y103620D01*
X74410Y104920D02*
X74810D01*
X74610Y104719D02*
Y105120D01*
X75510Y104320D02*
X75910D01*
X75710Y104120D02*
Y104519D01*
X76210Y105319D02*
X76610D01*
X76410Y105120D02*
Y105519D01*
X76710Y106620D02*
X77110D01*
X76910Y106420D02*
Y106819D01*
Y107920D02*
X77310D01*
X77110Y107720D02*
Y108119D01*
X79310Y102820D02*
X79710D01*
X79510Y102620D02*
Y103019D01*
X79310Y104219D02*
X79710D01*
X79510Y104019D02*
Y104420D01*
X79210Y105719D02*
X79610D01*
X79410Y105519D02*
Y105920D01*
X79210Y111919D02*
X79610D01*
X79410Y111720D02*
Y112119D01*
X79210Y110720D02*
X79610D01*
X79410Y110520D02*
Y110919D01*
X79210Y107120D02*
X79610D01*
X79410Y106920D02*
Y107319D01*
X79210Y108319D02*
X79610D01*
X79410Y108119D02*
Y108519D01*
X79223Y109520D02*
X79623D01*
X79423Y109319D02*
Y109720D01*
X76610Y109319D02*
X77010D01*
X76810Y109119D02*
Y109520D01*
X76110Y110619D02*
X76510D01*
X76310Y110419D02*
Y110819D01*
X75410Y111619D02*
X75810D01*
X75610Y111419D02*
Y111820D01*
X73510Y122619D02*
X73910D01*
X73710Y122420D02*
Y122819D01*
X72310Y122619D02*
X72710D01*
X72510Y122420D02*
Y122819D01*
X68710Y122619D02*
X69110D01*
X68910Y122420D02*
Y122819D01*
X69910Y122619D02*
X70310D01*
X70110Y122420D02*
Y122819D01*
X71110Y122619D02*
X71510D01*
X71310Y122420D02*
Y122819D01*
X71110Y121420D02*
X71510D01*
X71310Y121220D02*
Y121619D01*
X71110Y120220D02*
X71510D01*
X71310Y120019D02*
Y120420D01*
X71110Y119019D02*
X71510D01*
X71310Y118819D02*
Y119220D01*
X71110Y117819D02*
X71510D01*
X71310Y117620D02*
Y118019D01*
X67010Y110819D02*
X67410D01*
X67210Y110619D02*
Y111020D01*
X74210Y112520D02*
X74610D01*
X74410Y112320D02*
Y112720D01*
X72910Y113020D02*
X73310D01*
X73110Y112820D02*
Y113219D01*
X96610Y119519D02*
X97010D01*
X96810Y119319D02*
Y119720D01*
X71710Y112020D02*
X72110D01*
X71910Y111820D02*
Y112220D01*
X67910Y111720D02*
X68310D01*
X68110Y111520D02*
Y111919D01*
X70110Y113020D02*
X70510D01*
X70310Y112820D02*
Y113219D01*
X71410D02*
X71810D01*
X71610Y113020D02*
Y113419D01*
X68910Y112520D02*
X69310D01*
X69110Y112320D02*
Y112720D01*
X91810Y115320D02*
X92210D01*
X92010Y115120D02*
Y115519D01*
X90610Y115320D02*
X91010D01*
X90810Y115120D02*
Y115519D01*
X89410Y115320D02*
X89810D01*
X89610Y115120D02*
Y115519D01*
X88210Y115320D02*
X88610D01*
X88410Y115120D02*
Y115519D01*
X87010Y115320D02*
X87410D01*
X87210Y115120D02*
Y115519D01*
X85810Y115320D02*
X86210D01*
X86010Y115120D02*
Y115519D01*
X84610Y115320D02*
X85010D01*
X84810Y115120D02*
Y115519D01*
X83410Y115320D02*
X83810D01*
X83610Y115120D02*
Y115519D01*
X82210Y115320D02*
X82610D01*
X82410Y115120D02*
Y115519D01*
X81010Y115320D02*
X81410D01*
X81210Y115120D02*
Y115519D01*
X79810Y115320D02*
X80210D01*
X80010Y115120D02*
Y115519D01*
X78610Y115320D02*
X79010D01*
X78810Y115120D02*
Y115519D01*
X77410Y115320D02*
X77810D01*
X77610Y115120D02*
Y115519D01*
X76210Y115320D02*
X76610D01*
X76410Y115120D02*
Y115519D01*
X75010Y115320D02*
X75410D01*
X75210Y115120D02*
Y115519D01*
X73810Y115320D02*
X74210D01*
X74010Y115120D02*
Y115519D01*
X72610Y115320D02*
X73010D01*
X72810Y115120D02*
Y115519D01*
X71410Y115320D02*
X71810D01*
X71610Y115120D02*
Y115519D01*
X70210Y115320D02*
X70610D01*
X70410Y115120D02*
Y115519D01*
X69010Y115320D02*
X69410D01*
X69210Y115120D02*
Y115519D01*
X67810Y115320D02*
X68210D01*
X68010Y115120D02*
Y115519D01*
X66610Y115320D02*
X67010D01*
X66810Y115120D02*
Y115519D01*
X95410Y119519D02*
X95810D01*
X95610Y119319D02*
Y119720D01*
X66610Y116519D02*
X67010D01*
X66810Y116320D02*
Y116719D01*
X66610Y117719D02*
X67010D01*
X66810Y117519D02*
Y117920D01*
X66610Y118920D02*
X67010D01*
X66810Y118719D02*
Y119120D01*
X66610Y120120D02*
X67010D01*
X66810Y119920D02*
Y120319D01*
X66610Y121319D02*
X67010D01*
X66810Y121119D02*
Y121519D01*
X66610Y122520D02*
X67010D01*
X66810Y122319D02*
Y122720D01*
X66610Y123720D02*
X67010D01*
X66810Y123520D02*
Y123919D01*
X66610Y124919D02*
X67010D01*
X66810Y124720D02*
Y125119D01*
X67810Y124919D02*
X68210D01*
X68010Y124720D02*
Y125119D01*
X69010Y124919D02*
X69410D01*
X69210Y124720D02*
Y125119D01*
X70210Y124919D02*
X70610D01*
X70410Y124720D02*
Y125119D01*
X71410Y124919D02*
X71810D01*
X71610Y124720D02*
Y125119D01*
X94210Y119519D02*
X94610D01*
X94410Y119319D02*
Y119720D01*
X89310Y118219D02*
X89710D01*
X89510Y118019D02*
Y118420D01*
X92210Y120819D02*
X92610D01*
X92410Y120619D02*
Y121019D01*
X89110Y120720D02*
X89510D01*
X89310Y120519D02*
Y120920D01*
X92510Y119519D02*
X92910D01*
X92710Y119319D02*
Y119720D01*
X91310Y119519D02*
X91710D01*
X91510Y119319D02*
Y119720D01*
X90110Y119519D02*
X90510D01*
X90310Y119319D02*
Y119720D01*
X88910Y119519D02*
X89310D01*
X89110Y119319D02*
Y119720D01*
X87410Y118920D02*
X87810D01*
X87610Y118719D02*
Y119120D01*
X87410Y117719D02*
X87810D01*
X87610Y117519D02*
Y117920D01*
X83810Y122520D02*
X84210D01*
X84010Y122319D02*
Y122720D01*
X83810Y121319D02*
X84210D01*
X84010Y121119D02*
Y121519D01*
X83823Y120120D02*
X84223D01*
X84023Y119920D02*
Y120319D01*
X193359Y86838D02*
X193759D01*
X193559Y86638D02*
Y87037D01*
X213159Y26438D02*
X213559D01*
X213359Y26237D02*
Y26638D01*
X223359Y26438D02*
X223759D01*
X223559Y26237D02*
Y26638D01*
X213559Y16637D02*
X213959D01*
X213759Y16438D02*
Y16838D01*
X233159Y16438D02*
X233559D01*
X233359Y16238D02*
Y16637D01*
X223559Y16438D02*
X223959D01*
X223759Y16238D02*
Y16637D01*
X213159Y59637D02*
X213559D01*
X213359Y59438D02*
Y59838D01*
X243959Y62037D02*
X244359D01*
X244159Y61838D02*
Y62238D01*
X229959Y62037D02*
X230359D01*
X230159Y61838D02*
Y62238D01*
X234559Y62037D02*
X234959D01*
X234759Y61838D02*
Y62238D01*
X239959Y62037D02*
X240359D01*
X240159Y61838D02*
Y62238D01*
X226359Y63437D02*
X226759D01*
X226559Y63238D02*
Y63638D01*
X212759Y62037D02*
X213159D01*
X212959Y61838D02*
Y62238D01*
X217159Y62037D02*
X217559D01*
X217359Y61838D02*
Y62238D01*
X219559Y62037D02*
X219959D01*
X219759Y61838D02*
Y62238D01*
X222959Y62037D02*
X223359D01*
X223159Y61838D02*
Y62238D01*
X225359Y60637D02*
X225759D01*
X225559Y60438D02*
Y60838D01*
X217159Y56638D02*
X217559D01*
X217359Y56437D02*
Y56837D01*
X222559Y56638D02*
X222959D01*
X222759Y56437D02*
Y56837D01*
X228159Y58038D02*
X228559D01*
X228359Y57837D02*
Y58237D01*
X232559Y58038D02*
X232959D01*
X232759Y57837D02*
Y58237D01*
X237759Y58038D02*
X238159D01*
X237959Y57837D02*
Y58237D01*
X242359Y58038D02*
X242759D01*
X242559Y57837D02*
Y58237D01*
X173559Y58837D02*
X173959D01*
X173759Y58637D02*
Y59038D01*
X173559Y60438D02*
X173959D01*
X173759Y60237D02*
Y60637D01*
X173559Y62037D02*
X173959D01*
X173759Y61838D02*
Y62238D01*
X175159Y60438D02*
X175559D01*
X175359Y60237D02*
Y60637D01*
X173559Y63638D02*
X173959D01*
X173759Y63437D02*
Y63837D01*
X173559Y65237D02*
X173959D01*
X173759Y65038D02*
Y65438D01*
X173559Y66838D02*
X173959D01*
X173759Y66637D02*
Y67037D01*
X173559Y71637D02*
X173959D01*
X173759Y71438D02*
Y71838D01*
X173559Y68437D02*
X173959D01*
X173759Y68238D02*
Y68638D01*
X173559Y70038D02*
X173959D01*
X173759Y69837D02*
Y70237D01*
X173559Y74837D02*
X173959D01*
X173759Y74638D02*
Y75037D01*
X173559Y73238D02*
X173959D01*
X173759Y73037D02*
Y73438D01*
X173559Y76437D02*
X173959D01*
X173759Y76237D02*
Y76638D01*
X173559Y78038D02*
X173959D01*
X173759Y77838D02*
Y78237D01*
X175159Y79637D02*
X175559D01*
X175359Y79438D02*
Y79838D01*
X173559Y81238D02*
X173959D01*
X173759Y81037D02*
Y81437D01*
X173559Y82837D02*
X173959D01*
X173759Y82638D02*
Y83038D01*
X203959Y55638D02*
X204359D01*
X204159Y55437D02*
Y55838D01*
X202371Y52438D02*
X202771D01*
X202571Y52237D02*
Y52637D01*
X202371Y54037D02*
X202771D01*
X202571Y53838D02*
Y54238D01*
X202371Y55638D02*
X202771D01*
X202571Y55437D02*
Y55838D01*
X202371Y57237D02*
X202771D01*
X202571Y57038D02*
Y57437D01*
X202359Y58837D02*
X202759D01*
X202559Y58637D02*
Y59038D01*
X199171Y47638D02*
X199571D01*
X199371Y47438D02*
Y47837D01*
X199159Y49237D02*
X199559D01*
X199359Y49038D02*
Y49437D01*
X199159Y50837D02*
X199559D01*
X199359Y50638D02*
Y51038D01*
X199159Y52438D02*
X199559D01*
X199359Y52237D02*
Y52637D01*
X199159Y54037D02*
X199559D01*
X199359Y53838D02*
Y54238D01*
X199159Y55638D02*
X199559D01*
X199359Y55437D02*
Y55838D01*
X199146Y58837D02*
X199546D01*
X199346Y58637D02*
Y59038D01*
X199159Y57237D02*
X199559D01*
X199359Y57038D02*
Y57437D01*
X199184Y60438D02*
X199584D01*
X199384Y60237D02*
Y60637D01*
X199159Y62037D02*
X199559D01*
X199359Y61838D02*
Y62238D01*
X194371Y41238D02*
X194771D01*
X194571Y41037D02*
Y41438D01*
X194359Y42838D02*
X194759D01*
X194559Y42638D02*
Y43038D01*
X195959Y44438D02*
X196359D01*
X196159Y44238D02*
Y44638D01*
X195971Y46038D02*
X196371D01*
X196171Y45838D02*
Y46237D01*
X195971Y47638D02*
X196371D01*
X196171Y47438D02*
Y47837D01*
X195959Y49237D02*
X196359D01*
X196159Y49038D02*
Y49437D01*
X195959Y50837D02*
X196359D01*
X196159Y50638D02*
Y51038D01*
X195959Y55638D02*
X196359D01*
X196159Y55437D02*
Y55838D01*
X197584Y60438D02*
X197984D01*
X197784Y60237D02*
Y60637D01*
X195984Y60438D02*
X196384D01*
X196184Y60237D02*
Y60637D01*
X195959Y62037D02*
X196359D01*
X196159Y61838D02*
Y62238D01*
X195971Y63638D02*
X196371D01*
X196171Y63437D02*
Y63837D01*
X195959Y65237D02*
X196359D01*
X196159Y65038D02*
Y65438D01*
X192759Y46038D02*
X193159D01*
X192959Y45838D02*
Y46237D01*
X192746Y44438D02*
X193146D01*
X192946Y44238D02*
Y44638D01*
X192759Y42838D02*
X193159D01*
X192959Y42638D02*
Y43038D01*
X194359Y46038D02*
X194759D01*
X194559Y45838D02*
Y46237D01*
X194359Y50837D02*
X194759D01*
X194559Y50638D02*
Y51038D01*
X194359Y55638D02*
X194759D01*
X194559Y55437D02*
Y55838D01*
X194371Y60438D02*
X194771D01*
X194571Y60237D02*
Y60637D01*
X192746Y62037D02*
X193146D01*
X192946Y61838D02*
Y62238D01*
X192759Y63638D02*
X193159D01*
X192959Y63437D02*
Y63837D01*
X192746Y68437D02*
X193146D01*
X192946Y68238D02*
Y68638D01*
X192746Y66838D02*
X193146D01*
X192946Y66637D02*
Y67037D01*
X194359Y65237D02*
X194759D01*
X194559Y65038D02*
Y65438D01*
X192746Y65237D02*
X193146D01*
X192946Y65038D02*
Y65438D01*
X183159Y39638D02*
X183559D01*
X183359Y39437D02*
Y39838D01*
X179959Y41238D02*
X180359D01*
X180159Y41037D02*
Y41438D01*
X184759Y41238D02*
X185159D01*
X184959Y41037D02*
Y41438D01*
X189559Y39638D02*
X189959D01*
X189759Y39437D02*
Y39838D01*
X189559Y41238D02*
X189959D01*
X189759Y41037D02*
Y41438D01*
X189559Y42838D02*
X189959D01*
X189759Y42638D02*
Y43038D01*
X189546Y46038D02*
X189946D01*
X189746Y45838D02*
Y46237D01*
X189559Y44438D02*
X189959D01*
X189759Y44238D02*
Y44638D01*
X189571Y47638D02*
X189971D01*
X189771Y47438D02*
Y47837D01*
X189559Y49237D02*
X189959D01*
X189759Y49038D02*
Y49437D01*
X192746Y49237D02*
X193146D01*
X192946Y49038D02*
Y49437D01*
X192759Y47638D02*
X193159D01*
X192959Y47438D02*
Y47837D01*
X192759Y50837D02*
X193159D01*
X192959Y50638D02*
Y51038D01*
X192759Y55638D02*
X193159D01*
X192959Y55437D02*
Y55838D01*
X189559Y50837D02*
X189959D01*
X189759Y50638D02*
Y51038D01*
X189559Y55638D02*
X189959D01*
X189759Y55437D02*
Y55838D01*
X189571Y54037D02*
X189971D01*
X189771Y53838D02*
Y54238D01*
X189571Y52438D02*
X189971D01*
X189771Y52237D02*
Y52637D01*
X192771Y54037D02*
X193171D01*
X192971Y53838D02*
Y54238D01*
X192771Y52438D02*
X193171D01*
X192971Y52237D02*
Y52637D01*
X195959Y54037D02*
X196359D01*
X196159Y53838D02*
Y54238D01*
X195959Y52438D02*
X196359D01*
X196159Y52237D02*
Y52637D01*
X189546Y58837D02*
X189946D01*
X189746Y58637D02*
Y59038D01*
X189559Y57237D02*
X189959D01*
X189759Y57038D02*
Y57437D01*
X192746Y58837D02*
X193146D01*
X192946Y58637D02*
Y59038D01*
X192759Y57237D02*
X193159D01*
X192959Y57038D02*
Y57437D01*
X195946Y58837D02*
X196346D01*
X196146Y58637D02*
Y59038D01*
X195959Y57237D02*
X196359D01*
X196159Y57038D02*
Y57437D01*
X191171Y60438D02*
X191571D01*
X191371Y60237D02*
Y60637D01*
X189559Y60438D02*
X189959D01*
X189759Y60237D02*
Y60637D01*
X189546Y62037D02*
X189946D01*
X189746Y61838D02*
Y62238D01*
X189559Y63638D02*
X189959D01*
X189759Y63437D02*
Y63837D01*
X189559Y65237D02*
X189959D01*
X189759Y65038D02*
Y65438D01*
X191171Y65237D02*
X191571D01*
X191371Y65038D02*
Y65438D01*
X189559Y66838D02*
X189959D01*
X189759Y66637D02*
Y67037D01*
X189559Y68437D02*
X189959D01*
X189759Y68238D02*
Y68638D01*
X191171Y70038D02*
X191571D01*
X191371Y69837D02*
Y70237D01*
X189559Y70038D02*
X189959D01*
X189759Y69837D02*
Y70237D01*
X187946Y42838D02*
X188346D01*
X188146Y42638D02*
Y43038D01*
X186346Y42838D02*
X186746D01*
X186546Y42638D02*
Y43038D01*
X186346Y44438D02*
X186746D01*
X186546Y44238D02*
Y44638D01*
X186346Y46038D02*
X186746D01*
X186546Y45838D02*
Y46237D01*
X186359Y47638D02*
X186759D01*
X186559Y47438D02*
Y47837D01*
X186346Y49237D02*
X186746D01*
X186546Y49038D02*
Y49437D01*
X186359Y50837D02*
X186759D01*
X186559Y50638D02*
Y51038D01*
X186346Y52438D02*
X186746D01*
X186546Y52237D02*
Y52637D01*
X186346Y54037D02*
X186746D01*
X186546Y53838D02*
Y54238D01*
X186359Y55638D02*
X186759D01*
X186559Y55437D02*
Y55838D01*
X186359Y57237D02*
X186759D01*
X186559Y57038D02*
Y57437D01*
X186346Y58837D02*
X186746D01*
X186546Y58637D02*
Y59038D01*
X186359Y60438D02*
X186759D01*
X186559Y60237D02*
Y60637D01*
X186346Y62037D02*
X186746D01*
X186546Y61838D02*
Y62238D01*
X186359Y63638D02*
X186759D01*
X186559Y63437D02*
Y63837D01*
X186359Y65237D02*
X186759D01*
X186559Y65038D02*
Y65438D01*
X186359Y66838D02*
X186759D01*
X186559Y66637D02*
Y67037D01*
X186359Y68437D02*
X186759D01*
X186559Y68238D02*
Y68638D01*
X186359Y70038D02*
X186759D01*
X186559Y69837D02*
Y70237D01*
X187971Y70038D02*
X188371D01*
X188171Y69837D02*
Y70237D01*
X186359Y71637D02*
X186759D01*
X186559Y71438D02*
Y71838D01*
X186359Y73238D02*
X186759D01*
X186559Y73037D02*
Y73438D01*
X186359Y74837D02*
X186759D01*
X186559Y74638D02*
Y75037D01*
X187959Y74837D02*
X188359D01*
X188159Y74638D02*
Y75037D01*
X184759Y42838D02*
X185159D01*
X184959Y42638D02*
Y43038D01*
X183159Y42838D02*
X183559D01*
X183359Y42638D02*
Y43038D01*
X184771Y50837D02*
X185171D01*
X184971Y50638D02*
Y51038D01*
X184771Y46038D02*
X185171D01*
X184971Y45838D02*
Y46237D01*
X183159Y52438D02*
X183559D01*
X183359Y52237D02*
Y52637D01*
X183171Y50837D02*
X183571D01*
X183371Y50638D02*
Y51038D01*
X183159Y49237D02*
X183559D01*
X183359Y49038D02*
Y49437D01*
X183171Y47638D02*
X183571D01*
X183371Y47438D02*
Y47837D01*
X183159Y46038D02*
X183559D01*
X183359Y45838D02*
Y46237D01*
X183159Y44438D02*
X183559D01*
X183359Y44238D02*
Y44638D01*
X184771Y55638D02*
X185171D01*
X184971Y55437D02*
Y55838D01*
X183159Y57237D02*
X183559D01*
X183359Y57038D02*
Y57437D01*
X183171Y55638D02*
X183571D01*
X183371Y55437D02*
Y55838D01*
X183159Y54037D02*
X183559D01*
X183359Y53838D02*
Y54238D01*
X184771Y60438D02*
X185171D01*
X184971Y60237D02*
Y60637D01*
X183146Y62037D02*
X183546D01*
X183346Y61838D02*
Y62238D01*
X183159Y60438D02*
X183559D01*
X183359Y60237D02*
Y60637D01*
X183146Y58837D02*
X183546D01*
X183346Y58637D02*
Y59038D01*
X183159Y63638D02*
X183559D01*
X183359Y63437D02*
Y63837D01*
X183159Y65237D02*
X183559D01*
X183359Y65038D02*
Y65438D01*
X184771Y65237D02*
X185171D01*
X184971Y65038D02*
Y65438D01*
X183159Y68437D02*
X183559D01*
X183359Y68238D02*
Y68638D01*
X183159Y66838D02*
X183559D01*
X183359Y66637D02*
Y67037D01*
X184771Y74837D02*
X185171D01*
X184971Y74638D02*
Y75037D01*
X184771Y70038D02*
X185171D01*
X184971Y69837D02*
Y70237D01*
X183159Y73238D02*
X183559D01*
X183359Y73037D02*
Y73438D01*
X183159Y71637D02*
X183559D01*
X183359Y71438D02*
Y71838D01*
X183159Y70038D02*
X183559D01*
X183359Y69837D02*
Y70237D01*
X183159Y74837D02*
X183559D01*
X183359Y74638D02*
Y75037D01*
X183159Y76437D02*
X183559D01*
X183359Y76237D02*
Y76638D01*
X183159Y78038D02*
X183559D01*
X183359Y77838D02*
Y78237D01*
X179959Y74837D02*
X180359D01*
X180159Y74638D02*
Y75037D01*
X179971Y42838D02*
X180371D01*
X180171Y42638D02*
Y43038D01*
X179959Y44438D02*
X180359D01*
X180159Y44238D02*
Y44638D01*
X179959Y46038D02*
X180359D01*
X180159Y45838D02*
Y46237D01*
X179971Y47638D02*
X180371D01*
X180171Y47438D02*
Y47837D01*
X179959Y49237D02*
X180359D01*
X180159Y49038D02*
Y49437D01*
X179971Y50837D02*
X180371D01*
X180171Y50638D02*
Y51038D01*
X179959Y52438D02*
X180359D01*
X180159Y52237D02*
Y52637D01*
X179959Y54037D02*
X180359D01*
X180159Y53838D02*
Y54238D01*
X179971Y55638D02*
X180371D01*
X180171Y55437D02*
Y55838D01*
X179959Y57237D02*
X180359D01*
X180159Y57038D02*
Y57437D01*
X179946Y58837D02*
X180346D01*
X180146Y58637D02*
Y59038D01*
X179959Y60438D02*
X180359D01*
X180159Y60237D02*
Y60637D01*
X179959Y63638D02*
X180359D01*
X180159Y63437D02*
Y63837D01*
X179946Y62037D02*
X180346D01*
X180146Y61838D02*
Y62238D01*
X179959Y65237D02*
X180359D01*
X180159Y65038D02*
Y65438D01*
X179959Y66838D02*
X180359D01*
X180159Y66637D02*
Y67037D01*
X179959Y68437D02*
X180359D01*
X180159Y68238D02*
Y68638D01*
X179959Y70038D02*
X180359D01*
X180159Y69837D02*
Y70237D01*
X179959Y71637D02*
X180359D01*
X180159Y71438D02*
Y71838D01*
X179959Y73238D02*
X180359D01*
X180159Y73037D02*
Y73438D01*
X179959Y76437D02*
X180359D01*
X180159Y76237D02*
Y76638D01*
X179959Y78038D02*
X180359D01*
X180159Y77838D02*
Y78237D01*
X179959Y79637D02*
X180359D01*
X180159Y79438D02*
Y79838D01*
X179959Y81238D02*
X180359D01*
X180159Y81037D02*
Y81437D01*
X176746Y44438D02*
X177146D01*
X176946Y44238D02*
Y44638D01*
X176759Y41238D02*
X177159D01*
X176959Y41037D02*
Y41438D01*
X176746Y42838D02*
X177146D01*
X176946Y42638D02*
Y43038D01*
X176746Y49237D02*
X177146D01*
X176946Y49038D02*
Y49437D01*
X176759Y46038D02*
X177159D01*
X176959Y45838D02*
Y46237D01*
X176746Y47638D02*
X177146D01*
X176946Y47438D02*
Y47837D01*
X176759Y50837D02*
X177159D01*
X176959Y50638D02*
Y51038D01*
X176746Y54037D02*
X177146D01*
X176946Y53838D02*
Y54238D01*
X176746Y52438D02*
X177146D01*
X176946Y52237D02*
Y52637D01*
X176746Y57237D02*
X177146D01*
X176946Y57038D02*
Y57437D01*
X176759Y55638D02*
X177159D01*
X176959Y55437D02*
Y55838D01*
X176759Y60438D02*
X177159D01*
X176959Y60237D02*
Y60637D01*
X176746Y58837D02*
X177146D01*
X176946Y58637D02*
Y59038D01*
X176746Y62037D02*
X177146D01*
X176946Y61838D02*
Y62238D01*
X176759Y65237D02*
X177159D01*
X176959Y65038D02*
Y65438D01*
X178359Y63638D02*
X178759D01*
X178559Y63437D02*
Y63837D01*
X176759Y63638D02*
X177159D01*
X176959Y63437D02*
Y63837D01*
X176759Y66838D02*
X177159D01*
X176959Y66637D02*
Y67037D01*
X176759Y68437D02*
X177159D01*
X176959Y68238D02*
Y68638D01*
X178359Y66838D02*
X178759D01*
X178559Y66637D02*
Y67037D01*
X176759Y70038D02*
X177159D01*
X176959Y69837D02*
Y70237D01*
X176759Y74837D02*
X177159D01*
X176959Y74638D02*
Y75037D01*
X176759Y71637D02*
X177159D01*
X176959Y71438D02*
Y71838D01*
X176759Y73238D02*
X177159D01*
X176959Y73037D02*
Y73438D01*
X176759Y76437D02*
X177159D01*
X176959Y76237D02*
Y76638D01*
X176759Y79637D02*
X177159D01*
X176959Y79438D02*
Y79838D01*
X176759Y78038D02*
X177159D01*
X176959Y77838D02*
Y78237D01*
X176759Y82837D02*
X177159D01*
X176959Y82638D02*
Y83038D01*
X300816Y122727D02*
X301216D01*
X301016Y122527D02*
Y122926D01*
X255559Y113238D02*
X255959D01*
X255759Y113038D02*
Y113437D01*
X300816Y113127D02*
X301216D01*
X301016Y112926D02*
Y113327D01*
X243985Y125826D02*
X244385D01*
X244185Y125626D02*
Y126025D01*
X216183Y86004D02*
X216583D01*
X216383Y85804D02*
Y86203D01*
X300702Y108077D02*
X301102D01*
X300902Y107877D02*
Y108276D01*
X229675Y125689D02*
X230075D01*
X229875Y125488D02*
Y125889D01*
X276668Y106076D02*
X277068D01*
X276868Y105876D02*
Y106275D01*
X264771Y41238D02*
X265171D01*
X264971Y41037D02*
Y41438D01*
X286401Y101174D02*
X286801D01*
X286601Y100975D02*
Y101374D01*
X277137Y101108D02*
X277537D01*
X277337Y100908D02*
Y101307D01*
X281702Y101242D02*
X282102D01*
X281902Y101042D02*
Y101443D01*
X173571Y94037D02*
X173971D01*
X173771Y93837D02*
Y94238D01*
X178201Y97703D02*
X178601D01*
X178401Y97504D02*
Y97904D01*
X178317Y101136D02*
X178717D01*
X178517Y100935D02*
Y101336D01*
X295292Y105330D02*
X295692D01*
X295492Y105130D02*
Y105529D01*
X307080Y104412D02*
X307480D01*
X307280Y104212D02*
Y104613D01*
X300702Y103277D02*
X301102D01*
X300902Y103077D02*
Y103477D01*
X298418Y95872D02*
X298818D01*
X298618Y95671D02*
Y96071D01*
X291159Y96637D02*
X291559D01*
X291359Y96438D02*
Y96838D01*
X297159Y94037D02*
X297559D01*
X297359Y93837D02*
Y94238D01*
X281635Y96207D02*
X282035D01*
X281835Y96008D02*
Y96408D01*
X279084Y93455D02*
X279484D01*
X279284Y93256D02*
Y93656D01*
X276908Y70869D02*
X277308D01*
X277108Y70670D02*
Y71070D01*
X279218Y74524D02*
X279618D01*
X279418Y74325D02*
Y74725D01*
X235971Y84438D02*
X236371D01*
X236171Y84237D02*
Y84637D01*
X231171Y84438D02*
X231571D01*
X231371Y84237D02*
Y84637D01*
X277472Y80515D02*
X277872D01*
X277672Y80316D02*
Y80716D01*
X277674Y87480D02*
X278074D01*
X277874Y87280D02*
Y87681D01*
X285159Y86437D02*
X285559D01*
X285359Y86238D02*
Y86638D01*
X178431Y120586D02*
X178831D01*
X178631Y120386D02*
Y120785D01*
X250688Y83922D02*
X251088D01*
X250888Y83723D02*
Y84123D01*
X168771Y122837D02*
X169171D01*
X168971Y122637D02*
Y123038D01*
X181571Y74837D02*
X181971D01*
X181771Y74638D02*
Y75037D01*
X269350Y74391D02*
X269750D01*
X269550Y74190D02*
Y74590D01*
X295292Y100530D02*
X295692D01*
X295492Y100329D02*
Y100730D01*
X205762Y118983D02*
X206162D01*
X205962Y118783D02*
Y119184D01*
X211443Y116188D02*
X211843D01*
X211643Y115988D02*
Y116387D01*
X254518Y65000D02*
X254918D01*
X254718Y64799D02*
Y65200D01*
X205792Y107533D02*
X206192D01*
X205992Y107333D02*
Y107732D01*
X179757Y90312D02*
X180157D01*
X179957Y90113D02*
Y90513D01*
X307971Y127638D02*
X308371D01*
X308171Y127437D02*
Y127838D01*
X307716Y117770D02*
X308116D01*
X307916Y117569D02*
Y117970D01*
X184327Y93862D02*
X184727D01*
X184527Y93661D02*
Y94061D01*
X186029Y97703D02*
X186429D01*
X186229Y97504D02*
Y97904D01*
X217955Y122623D02*
X218355D01*
X218155Y122423D02*
Y122822D01*
X190147Y126450D02*
X190547D01*
X190347Y126250D02*
Y126649D01*
X187971Y118037D02*
X188371D01*
X188171Y117838D02*
Y118237D01*
X195471Y126599D02*
X195871D01*
X195671Y126399D02*
Y126798D01*
X184862Y87248D02*
X185262D01*
X185062Y87049D02*
Y87449D01*
X277630Y56628D02*
X278030D01*
X277830Y56428D02*
Y56827D01*
X253172Y51666D02*
X253572D01*
X253372Y51467D02*
Y51867D01*
X260154Y51933D02*
X260554D01*
X260354Y51732D02*
Y52132D01*
X264771Y36437D02*
X265171D01*
X264971Y36237D02*
Y36637D01*
X178371Y50837D02*
X178771D01*
X178571Y50638D02*
Y51038D01*
X255857Y46095D02*
X256257D01*
X256057Y45895D02*
Y46295D01*
X264584Y46497D02*
X264984D01*
X264784Y46297D02*
Y46698D01*
X187148Y81511D02*
X187548D01*
X187348Y81312D02*
Y81712D01*
X246759Y34438D02*
X247159D01*
X246959Y34238D02*
Y34637D01*
X246325Y51600D02*
X246725D01*
X246525Y51399D02*
Y51799D01*
X245571Y46038D02*
X245971D01*
X245771Y45838D02*
Y46237D01*
X197571Y50837D02*
X197971D01*
X197771Y50638D02*
Y51038D01*
X243159Y41037D02*
X243559D01*
X243359Y40837D02*
Y41238D01*
X239008Y51666D02*
X239408D01*
X239208Y51467D02*
Y51867D01*
X189559Y78237D02*
X189959D01*
X189759Y78038D02*
Y78438D01*
X231892Y51733D02*
X232292D01*
X232092Y51534D02*
Y51933D01*
X178371Y60438D02*
X178771D01*
X178571Y60237D02*
Y60637D01*
X197571Y55638D02*
X197971D01*
X197771Y55437D02*
Y55838D01*
X248059Y30038D02*
X248459D01*
X248259Y29838D02*
Y30237D01*
X243859Y30038D02*
X244259D01*
X244059Y29838D02*
Y30237D01*
X193359Y82638D02*
X193759D01*
X193559Y82437D02*
Y82837D01*
X259751Y74458D02*
X260151D01*
X259951Y74257D02*
Y74657D01*
X239008Y72377D02*
X239408D01*
X239208Y72176D02*
Y72576D01*
X254783Y70026D02*
X255183D01*
X254983Y69827D02*
Y70227D01*
X232959Y26438D02*
X233359D01*
X233159Y26237D02*
Y26638D01*
X246660Y70094D02*
X247060D01*
X246860Y69893D02*
Y70293D01*
X245571Y65237D02*
X245971D01*
X245771Y65038D02*
Y65438D01*
X233503Y66602D02*
X233903D01*
X233703Y66403D02*
Y66803D01*
X230683Y75532D02*
X231083D01*
X230883Y75331D02*
Y75731D01*
X227753Y72528D02*
X228153D01*
X227953Y72329D02*
Y72729D01*
X212559Y72038D02*
X212959D01*
X212759Y71838D02*
Y72237D01*
X209395Y83162D02*
X209795D01*
X209595Y82963D02*
Y83363D01*
X209559Y75037D02*
X209959D01*
X209759Y74837D02*
Y75238D01*
X200759Y55638D02*
X201159D01*
X200959Y55437D02*
Y55838D01*
X207171Y46038D02*
X207571D01*
X207371Y45838D02*
Y46237D01*
X276936Y96408D02*
X277336D01*
X277136Y96209D02*
Y96609D01*
X178371Y46038D02*
X178771D01*
X178571Y45838D02*
Y46237D01*
X195959Y71838D02*
X196359D01*
X196159Y71637D02*
Y72038D01*
X183159Y26438D02*
X183559D01*
X183359Y26237D02*
Y26638D01*
X303985Y77526D02*
X304385D01*
X304185Y77325D02*
Y77725D01*
X237959Y29838D02*
X238359D01*
X238159Y29638D02*
Y30038D01*
X187971Y46038D02*
X188371D01*
X188171Y45838D02*
Y46237D01*
X183171Y36437D02*
X183571D01*
X183371Y36237D02*
Y36637D01*
X192771Y41238D02*
X193171D01*
X192971Y41037D02*
Y41438D01*
X202371Y46038D02*
X202771D01*
X202571Y45838D02*
Y46237D01*
X209806Y51398D02*
X210206D01*
X210006Y51199D02*
Y51599D01*
X216771Y41238D02*
X217171D01*
X216971Y41037D02*
Y41438D01*
X211971Y41238D02*
X212371D01*
X212171Y41037D02*
Y41438D01*
X202371Y41238D02*
X202771D01*
X202571Y41037D02*
Y41438D01*
X292759Y73125D02*
X293159D01*
X292959Y72926D02*
Y73326D01*
X298005Y78034D02*
X298405D01*
X298205Y77833D02*
Y78233D01*
X307971Y46038D02*
X308371D01*
X308171Y45838D02*
Y46237D01*
X307971Y50837D02*
X308371D01*
X308171Y50638D02*
Y51038D01*
X192771Y60438D02*
X193171D01*
X192971Y60237D02*
Y60637D01*
X288811Y61674D02*
X289211D01*
X289011Y61475D02*
Y61875D01*
X303171Y46038D02*
X303571D01*
X303371Y45838D02*
Y46237D01*
X287878Y31997D02*
X288278D01*
X288078Y31798D02*
Y32197D01*
X283971Y46038D02*
X284371D01*
X284171Y45838D02*
Y46237D01*
X293571Y46038D02*
X293971D01*
X293771Y45838D02*
Y46237D01*
X293517Y36428D02*
X293917D01*
X293717Y36228D02*
Y36628D01*
X288771Y46038D02*
X289171D01*
X288971Y45838D02*
Y46237D01*
X271359Y23038D02*
X271759D01*
X271559Y22838D02*
Y23237D01*
X279420Y36966D02*
X279820D01*
X279620Y36766D02*
Y37165D01*
X277959Y23038D02*
X278359D01*
X278159Y22838D02*
Y23237D01*
X254417Y13844D02*
X254817D01*
X254617Y13644D02*
Y14043D01*
X305959Y31637D02*
X306359D01*
X306159Y31438D02*
Y31837D01*
X199219Y13953D02*
X199619D01*
X199419Y13754D02*
Y14153D01*
X207171Y17237D02*
X207571D01*
X207371Y17038D02*
Y17437D01*
X308359Y34038D02*
X308759D01*
X308559Y33838D02*
Y34238D01*
X308359Y31637D02*
X308759D01*
X308559Y31438D02*
Y31837D01*
X283171Y80238D02*
X283571D01*
X283371Y80037D02*
Y80437D01*
X270587Y16025D02*
X270987D01*
X270787Y15825D02*
Y16226D01*
X259971Y17237D02*
X260371D01*
X260171Y17038D02*
Y17437D01*
X255171Y17237D02*
X255571D01*
X255371Y17038D02*
Y17437D01*
X209832Y13953D02*
X210232D01*
X210032Y13754D02*
Y14153D01*
X178431Y125385D02*
X178831D01*
X178631Y125186D02*
Y125585D01*
X205792Y102476D02*
X206192D01*
X205992Y102276D02*
Y102675D01*
X196359Y107438D02*
X196759D01*
X196559Y107238D02*
Y107638D01*
X193711Y108060D02*
X194111D01*
X193911Y107860D02*
Y108259D01*
X196159Y100437D02*
X196559D01*
X196359Y100238D02*
Y100637D01*
X317417Y112681D02*
X317817D01*
X317617Y112481D02*
Y112882D01*
X317559Y118037D02*
X317959D01*
X317759Y117838D02*
Y118237D01*
X317571Y127638D02*
X317971D01*
X317771Y127437D02*
Y127838D01*
X181571Y60438D02*
X181971D01*
X181771Y60237D02*
Y60637D01*
X182141Y128878D02*
X182541D01*
X182341Y128679D02*
Y129078D01*
X183171Y113238D02*
X183571D01*
X183371Y113038D02*
Y113437D01*
X216173Y103665D02*
X216573D01*
X216373Y103465D02*
Y103866D01*
X211503Y104379D02*
X211903D01*
X211703Y104180D02*
Y104579D01*
X211503Y109139D02*
X211903D01*
X211703Y108939D02*
Y109338D01*
X216232Y110179D02*
X216632D01*
X216432Y109979D02*
Y110380D01*
X257804Y96678D02*
X258204D01*
X258004Y96478D02*
Y96877D01*
X267269Y96475D02*
X267669D01*
X267469Y96276D02*
Y96675D01*
X262570Y96408D02*
X262970D01*
X262770Y96209D02*
Y96609D01*
X178359Y70038D02*
X178759D01*
X178559Y69837D02*
Y70237D01*
X181571Y46038D02*
X181971D01*
X181771Y45838D02*
Y46237D01*
X271767Y96475D02*
X272167D01*
X271967Y96276D02*
Y96675D01*
X298371Y46038D02*
X298771D01*
X298571Y45838D02*
Y46237D01*
X303171Y41238D02*
X303571D01*
X303371Y41037D02*
Y41438D01*
X178431Y115786D02*
X178831D01*
X178631Y115585D02*
Y115986D01*
X178371Y113238D02*
X178771D01*
X178571Y113038D02*
Y113437D01*
X178317Y110735D02*
X178717D01*
X178517Y110536D02*
Y110935D01*
X172559Y105638D02*
X172959D01*
X172759Y105438D02*
Y105838D01*
X267471Y101174D02*
X267871D01*
X267671Y100975D02*
Y101374D01*
X271901Y101174D02*
X272301D01*
X272101Y100975D02*
Y101374D01*
X181571Y50837D02*
X181971D01*
X181771Y50638D02*
Y51038D01*
X255559Y125238D02*
X255959D01*
X255759Y125038D02*
Y125437D01*
X295292Y110129D02*
X295692D01*
X295492Y109930D02*
Y110329D01*
X197571Y46038D02*
X197971D01*
X197771Y45838D02*
Y46237D01*
X300816Y117927D02*
X301216D01*
X301016Y117727D02*
Y118126D01*
X271968Y110641D02*
X272368D01*
X272168Y110441D02*
Y110840D01*
X262369Y110775D02*
X262769D01*
X262569Y110574D02*
Y110975D01*
X257670Y101174D02*
X258070D01*
X257870Y100975D02*
Y101374D01*
X269571Y46038D02*
X269971D01*
X269771Y45838D02*
Y46237D01*
X245559Y33138D02*
X245959D01*
X245759Y32937D02*
Y33338D01*
X240771Y46038D02*
X241171D01*
X240971Y45838D02*
Y46237D01*
X235971Y46038D02*
X236371D01*
X236171Y45838D02*
Y46237D01*
X190794Y84234D02*
X191194D01*
X190994Y84035D02*
Y84434D01*
X221571Y108438D02*
X221971D01*
X221771Y108238D02*
Y108637D01*
X192159Y75638D02*
X192559D01*
X192359Y75437D02*
Y75837D01*
X193359Y81238D02*
X193759D01*
X193559Y81037D02*
Y81437D01*
X178371Y79637D02*
X178771D01*
X178571Y79438D02*
Y79838D01*
X178371Y55638D02*
X178771D01*
X178571Y55437D02*
Y55838D01*
X178371Y84438D02*
X178771D01*
X178571Y84237D02*
Y84637D01*
X187971Y65237D02*
X188371D01*
X188171Y65038D02*
Y65438D01*
X197559Y65237D02*
X197959D01*
X197759Y65038D02*
Y65438D01*
X203896Y92263D02*
X204296D01*
X204096Y92062D02*
Y92462D01*
X211503Y98133D02*
X211903D01*
X211703Y97934D02*
Y98334D01*
X205559Y94309D02*
X205959D01*
X205759Y94108D02*
Y94508D01*
X210232Y90488D02*
X210632D01*
X210432Y90289D02*
Y90689D01*
X204123Y80818D02*
X204523D01*
X204323Y80617D02*
Y81018D01*
X202371Y36437D02*
X202771D01*
X202571Y36237D02*
Y36637D01*
X219559Y36437D02*
X219959D01*
X219759Y36237D02*
Y36637D01*
X213759Y36437D02*
X214159D01*
X213959Y36237D02*
Y36637D01*
X221571Y89237D02*
X221971D01*
X221771Y89038D02*
Y89438D01*
X226371Y89237D02*
X226771D01*
X226571Y89038D02*
Y89438D01*
X231171Y108438D02*
X231571D01*
X231371Y108238D02*
Y108637D01*
X277205Y110641D02*
X277605D01*
X277405Y110441D02*
Y110840D01*
X290563Y110506D02*
X290963D01*
X290763Y110307D02*
Y110706D01*
X291302Y101242D02*
X291702D01*
X291502Y101042D02*
Y101443D01*
X270026Y68839D02*
X270426D01*
X270226Y68638D02*
Y69038D01*
X300796Y127954D02*
X301196D01*
X300996Y127754D02*
Y128155D01*
X240771Y94037D02*
X241171D01*
X240971Y93837D02*
Y94238D01*
X264771Y89237D02*
X265171D01*
X264971Y89038D02*
Y89438D01*
X235876Y125826D02*
X236276D01*
X236076Y125626D02*
Y126025D01*
X231171Y113238D02*
X231571D01*
X231371Y113038D02*
Y113437D01*
X273185Y67033D02*
X273585D01*
X273385Y66834D02*
Y67234D01*
X211559Y29838D02*
X211959D01*
X211759Y29638D02*
Y30038D01*
X307971Y122837D02*
X308371D01*
X308171Y122637D02*
Y123038D01*
X304371Y127838D02*
X304771D01*
X304571Y127638D02*
Y128038D01*
X235971Y108438D02*
X236371D01*
X236171Y108238D02*
Y108637D01*
X181571Y70038D02*
X181971D01*
X181771Y69837D02*
Y70237D01*
X303171Y50837D02*
X303571D01*
X303371Y50638D02*
Y51038D01*
X234240Y129913D02*
X234640D01*
X234440Y129713D02*
Y130113D01*
X280762Y106009D02*
X281162D01*
X280962Y105808D02*
Y106209D01*
X235971Y98838D02*
X236371D01*
X236171Y98637D02*
Y99037D01*
X285931Y110573D02*
X286331D01*
X286131Y110373D02*
Y110774D01*
X281635Y110707D02*
X282035D01*
X281835Y110508D02*
Y110907D01*
X235971Y89237D02*
X236371D01*
X236171Y89038D02*
Y89438D01*
X243459Y34238D02*
X243859D01*
X243659Y34038D02*
Y34438D01*
X221419Y78016D02*
X221819D01*
X221619Y77816D02*
Y78215D01*
X231171Y46038D02*
X231571D01*
X231371Y45838D02*
Y46237D01*
X231171Y98838D02*
X231571D01*
X231371Y98637D02*
Y99037D01*
X211562Y123416D02*
X211962D01*
X211762Y123215D02*
Y123616D01*
X216202Y92155D02*
X216602D01*
X216402Y91954D02*
Y92355D01*
X210761Y93797D02*
X211161D01*
X210961Y93598D02*
Y93998D01*
X191171Y46038D02*
X191571D01*
X191371Y45838D02*
Y46237D01*
X191171Y50837D02*
X191571D01*
X191371Y50638D02*
Y51038D01*
X189559Y71637D02*
X189959D01*
X189759Y71438D02*
Y71838D01*
X187971Y50837D02*
X188371D01*
X188171Y50638D02*
Y51038D01*
X285669Y82845D02*
X286069D01*
X285869Y82644D02*
Y83044D01*
X181571Y79637D02*
X181971D01*
X181771Y79438D02*
Y79838D01*
X181571Y55638D02*
X181971D01*
X181771Y55437D02*
Y55838D01*
X181571Y65237D02*
X181971D01*
X181771Y65038D02*
Y65438D01*
X178371Y74837D02*
X178771D01*
X178571Y74638D02*
Y75037D01*
X175159Y84438D02*
X175559D01*
X175359Y84237D02*
Y84637D01*
X226371Y98838D02*
X226771D01*
X226571Y98637D02*
Y99037D01*
X290765Y106076D02*
X291165D01*
X290965Y105876D02*
Y106275D01*
X269571Y89237D02*
X269971D01*
X269771Y89038D02*
Y89438D01*
X235971Y41238D02*
X236371D01*
X236171Y41037D02*
Y41438D01*
X295406Y124779D02*
X295806D01*
X295606Y124580D02*
Y124979D01*
X267202Y110707D02*
X267602D01*
X267402Y110508D02*
Y110907D01*
X192771Y122837D02*
X193171D01*
X192971Y122637D02*
Y123038D01*
X303171Y55638D02*
X303571D01*
X303371Y55437D02*
Y55838D01*
X172580Y120678D02*
X172980D01*
X172780Y120478D02*
Y120879D01*
X172580Y115878D02*
X172980D01*
X172780Y115679D02*
Y116078D01*
X235838Y25653D02*
X236238D01*
X236038Y25453D02*
Y25853D01*
X193559Y90637D02*
X193959D01*
X193759Y90438D02*
Y90838D01*
X186807Y104413D02*
X187207D01*
X187007Y104214D02*
Y104613D01*
X189870Y97557D02*
X190270D01*
X190070Y97357D02*
Y97758D01*
X317359Y110038D02*
X317759D01*
X317559Y109837D02*
Y110238D01*
X205762Y113034D02*
X206162D01*
X205962Y112835D02*
Y113234D01*
X190940Y87493D02*
X191340D01*
X191140Y87292D02*
Y87692D01*
X196094Y96342D02*
X196494D01*
X196294Y96141D02*
Y96542D01*
X205792Y97478D02*
X206192D01*
X205992Y97278D02*
Y97679D01*
X317417Y123177D02*
X317817D01*
X317617Y122977D02*
Y123377D01*
X269571Y41238D02*
X269971D01*
X269771Y41037D02*
Y41438D01*
X178317Y105936D02*
X178717D01*
X178517Y105736D02*
Y106135D01*
X171159Y101237D02*
X171559D01*
X171359Y101038D02*
Y101437D01*
X202371Y17237D02*
X202771D01*
X202571Y17038D02*
Y17437D01*
X197571Y17237D02*
X197971D01*
X197771Y17038D02*
Y17437D01*
X205158Y14119D02*
X205558D01*
X205358Y13918D02*
Y14319D01*
X217971Y14063D02*
X218371D01*
X218171Y13863D02*
Y14264D01*
X235971Y17237D02*
X236371D01*
X236171Y17038D02*
Y17437D01*
X262781Y17537D02*
X263181D01*
X262981Y17337D02*
Y17738D01*
X276014Y16793D02*
X276414D01*
X276214Y16592D02*
Y16993D01*
X300702Y98476D02*
X301102D01*
X300902Y98277D02*
Y98677D01*
X280759Y16637D02*
X281159D01*
X280959Y16438D02*
Y16838D01*
X282589Y13953D02*
X282989D01*
X282789Y13754D02*
Y14153D01*
X308759Y37137D02*
X309159D01*
X308959Y36937D02*
Y37337D01*
X268778Y13898D02*
X269178D01*
X268978Y13699D02*
Y14098D01*
X261680Y13844D02*
X262080D01*
X261880Y13644D02*
Y14043D01*
X193005Y14119D02*
X193405D01*
X193205Y13918D02*
Y14319D01*
X192771Y17237D02*
X193171D01*
X192971Y17038D02*
Y17437D01*
X187971Y17237D02*
X188371D01*
X188171Y17038D02*
Y17437D01*
X233508Y13898D02*
X233908D01*
X233708Y13699D02*
Y14098D01*
X240111Y13734D02*
X240511D01*
X240311Y13533D02*
Y13934D01*
X288281Y93321D02*
X288681D01*
X288481Y93120D02*
Y93520D01*
X248254Y13844D02*
X248654D01*
X248454Y13644D02*
Y14043D01*
X286737Y96140D02*
X287137D01*
X286937Y95941D02*
Y96341D01*
X276151Y13844D02*
X276551D01*
X276351Y13644D02*
Y14043D01*
X305959Y34038D02*
X306359D01*
X306159Y33838D02*
Y34238D01*
X303559Y31637D02*
X303959D01*
X303759Y31438D02*
Y31837D01*
X181359Y24837D02*
X181759D01*
X181559Y24637D02*
Y25038D01*
X279171Y31637D02*
X279571D01*
X279371Y31438D02*
Y31837D01*
X286401Y106076D02*
X286801D01*
X286601Y105876D02*
Y106275D01*
X276852Y83899D02*
X277252D01*
X277052Y83700D02*
Y84100D01*
X279171Y46038D02*
X279571D01*
X279371Y45838D02*
Y46237D01*
X274371Y31637D02*
X274771D01*
X274571Y31438D02*
Y31837D01*
X285759Y28837D02*
X286159D01*
X285959Y28637D02*
Y29037D01*
X283971Y41238D02*
X284371D01*
X284171Y41037D02*
Y41438D01*
X288771Y50837D02*
X289171D01*
X288971Y50638D02*
Y51038D01*
X283971Y50837D02*
X284371D01*
X284171Y50638D02*
Y51038D01*
X187971Y55638D02*
X188371D01*
X188171Y55437D02*
Y55838D01*
X187971Y60438D02*
X188371D01*
X188171Y60237D02*
Y60637D01*
X172580Y125478D02*
X172980D01*
X172780Y125278D02*
Y125679D01*
X168771Y127638D02*
X169171D01*
X168971Y127437D02*
Y127838D01*
X286346Y59659D02*
X286746D01*
X286546Y59460D02*
Y59860D01*
X282888Y76566D02*
X283288D01*
X283088Y76367D02*
Y76767D01*
X290435Y88214D02*
X290835D01*
X290635Y88015D02*
Y88415D01*
X207191Y26265D02*
X207591D01*
X207391Y26065D02*
Y26465D01*
X211971Y46038D02*
X212371D01*
X212171Y45838D02*
Y46237D01*
X216771Y46038D02*
X217171D01*
X216971Y45838D02*
Y46237D01*
X221571Y41238D02*
X221971D01*
X221771Y41037D02*
Y41438D01*
X226371Y41238D02*
X226771D01*
X226571Y41037D02*
Y41438D01*
X249459Y103537D02*
X249859D01*
X249659Y103338D02*
Y103737D01*
X182141Y124079D02*
X182541D01*
X182341Y123879D02*
Y124278D01*
X262167Y106277D02*
X262567D01*
X262367Y106077D02*
Y106476D01*
X182141Y119279D02*
X182541D01*
X182341Y119079D02*
Y119478D01*
X197571Y41238D02*
X197971D01*
X197771Y41037D02*
Y41438D01*
X187971Y41238D02*
X188371D01*
X188171Y41037D02*
Y41438D01*
X183171Y41238D02*
X183571D01*
X183371Y41037D02*
Y41438D01*
X172559Y110637D02*
X172959D01*
X172759Y110438D02*
Y110837D01*
X178371Y41238D02*
X178771D01*
X178571Y41037D02*
Y41438D01*
X173571Y41238D02*
X173971D01*
X173771Y41037D02*
Y41438D01*
X172571Y113238D02*
X172971D01*
X172771Y113038D02*
Y113437D01*
X216202Y116306D02*
X216602D01*
X216402Y116106D02*
Y116507D01*
X169067Y104483D02*
X169467D01*
X169267Y104283D02*
Y104683D01*
X169318Y113355D02*
X169718D01*
X169518Y113154D02*
Y113555D01*
X169653Y119379D02*
X170053D01*
X169853Y119179D02*
Y119580D01*
X173571Y55638D02*
X173971D01*
X173771Y55437D02*
Y55838D01*
X259971Y89237D02*
X260371D01*
X260171Y89038D02*
Y89438D01*
X250059Y33737D02*
X250459D01*
X250259Y33538D02*
Y33937D01*
X255171Y89237D02*
X255571D01*
X255371Y89038D02*
Y89438D01*
X235971Y113238D02*
X236371D01*
X236171Y113038D02*
Y113437D01*
X216159Y51837D02*
X216559D01*
X216359Y51638D02*
Y52038D01*
X184376Y108158D02*
X184776D01*
X184576Y107957D02*
Y108358D01*
X216173Y97746D02*
X216573D01*
X216373Y97546D02*
Y97947D01*
X307398Y111250D02*
X307798D01*
X307598Y111050D02*
Y111451D01*
X267001Y106076D02*
X267401D01*
X267201Y105876D02*
Y106275D01*
X262570Y101242D02*
X262970D01*
X262770Y101042D02*
Y101443D01*
X191171Y55638D02*
X191571D01*
X191371Y55437D02*
Y55838D01*
X295385Y130379D02*
X295785D01*
X295585Y130180D02*
Y130579D01*
X200759Y50837D02*
X201159D01*
X200959Y50638D02*
Y51038D01*
X200559Y67238D02*
X200959D01*
X200759Y67037D02*
Y67437D01*
X204959Y62837D02*
X205359D01*
X205159Y62638D02*
Y63038D01*
X200759Y60438D02*
X201159D01*
X200959Y60237D02*
Y60637D01*
X215848Y79559D02*
X216248D01*
X216048Y79360D02*
Y79760D01*
X212898Y77851D02*
X213298D01*
X213098Y77652D02*
Y78052D01*
X216049Y72711D02*
X216449D01*
X216249Y72512D02*
Y72912D01*
X225788Y72238D02*
X226188D01*
X225988Y72039D02*
Y72439D01*
X226320Y77545D02*
X226720D01*
X226520Y77346D02*
Y77745D01*
X240771Y65237D02*
X241171D01*
X240971Y65038D02*
Y65438D01*
X264450Y69826D02*
X264850D01*
X264650Y69626D02*
Y70025D01*
X245251Y78619D02*
X245651D01*
X245451Y78420D02*
Y78820D01*
X271968Y106210D02*
X272368D01*
X272168Y106009D02*
Y106410D01*
X231171Y41238D02*
X231571D01*
X231371Y41037D02*
Y41438D01*
X224843Y51863D02*
X225243D01*
X225043Y51664D02*
Y52064D01*
X232959Y29838D02*
X233359D01*
X233159Y29638D02*
Y30038D01*
X240771Y41238D02*
X241171D01*
X240971Y41037D02*
Y41438D01*
X264559Y57237D02*
X264959D01*
X264759Y57038D02*
Y57437D01*
X245571Y41238D02*
X245971D01*
X245771Y41037D02*
Y41438D01*
X184959Y28238D02*
X185359D01*
X185159Y28038D02*
Y28438D01*
X173571Y46038D02*
X173971D01*
X173771Y45838D02*
Y46237D01*
X218359Y59637D02*
X218759D01*
X218559Y59438D02*
Y59838D01*
X261734Y64890D02*
X262134D01*
X261934Y64689D02*
Y65089D01*
X311851Y109342D02*
X312251D01*
X312051Y109142D02*
Y109541D01*
X211473Y129572D02*
X211873D01*
X211673Y129373D02*
Y129772D01*
X217955Y128551D02*
X218355D01*
X218155Y128350D02*
Y128751D01*
X205762Y126599D02*
X206162D01*
X205962Y126399D02*
Y126798D01*
X268673Y62802D02*
X269073D01*
X268873Y62603D02*
Y63003D01*
X196259Y122637D02*
X196659D01*
X196459Y122438D02*
Y122837D01*
X222520Y126711D02*
X222920D01*
X222720Y126512D02*
Y126911D01*
X250302Y44361D02*
X250702D01*
X250502Y44161D02*
Y44561D01*
X311692Y115226D02*
X312092D01*
X311892Y115025D02*
Y115426D01*
X312169Y122381D02*
X312569D01*
X312369Y122181D02*
Y122582D01*
X312771Y127638D02*
X313171D01*
X312971Y127437D02*
Y127838D01*
X175971Y114838D02*
X176371D01*
X176171Y114637D02*
Y115038D01*
X176147Y124963D02*
X176547D01*
X176347Y124764D02*
Y125163D01*
X175971Y119638D02*
X176371D01*
X176171Y119438D02*
Y119837D01*
X221359Y29838D02*
X221759D01*
X221559Y29638D02*
Y30038D01*
X176759Y81238D02*
X177159D01*
X176959Y81037D02*
Y81437D01*
X283441Y63197D02*
X283841D01*
X283641Y62998D02*
Y63398D01*
X192787Y94494D02*
X193187D01*
X192987Y94293D02*
Y94693D01*
M02*
