G04 Layer_Physical_Order=5*
G04 Layer_Color=16737945*
%FSLAX25Y25*%
%MOIN*%
G70*
G01*
G75*
%ADD10C,0.00800*%
%ADD12R,0.20561X1.95232*%
%ADD13R,2.11840X0.13288*%
%ADD14R,0.12178X0.19455*%
%ADD16C,0.00787*%
%ADD17C,0.06000*%
%ADD18R,0.06000X0.06000*%
%ADD19C,0.11800*%
%ADD20C,0.21654*%
%ADD23C,0.02000*%
%ADD25R,0.06857X0.42467*%
%ADD27C,0.02000*%
%ADD30C,0.00695*%
%ADD31C,0.00550*%
G54D10*
X156468Y33976D02*
G03*
X156468Y33976I-1600J0D01*
G01*
Y43976D02*
G03*
X156468Y43976I-1600J0D01*
G01*
X162378Y22839D02*
G03*
X165103Y23976I1125J1137D01*
G01*
X162378Y25114D02*
G03*
X162378Y22839I-1125J-1137D01*
G01*
X165103Y23976D02*
G03*
X162378Y25114I-1600J0D01*
G01*
X188071Y37738D02*
G03*
X188071Y37738I-1800J0D01*
G01*
X204571D02*
G03*
X204571Y37738I-1800J0D01*
G01*
X207846Y88898D02*
G03*
X207776Y85364I-374J-1761D01*
G01*
X208439Y83837D02*
G03*
X209150Y80687I1132J-1400D01*
G01*
X207776Y85364D02*
G03*
X208439Y83837I1795J-127D01*
G01*
X209150Y80687D02*
G03*
X211371Y78938I421J-1750D01*
G01*
Y82437D02*
G03*
X210703Y83837I-1800J0D01*
G01*
Y83837D02*
G03*
X211371Y85237I-1132J1400D01*
G01*
Y78938D02*
G03*
X209993Y80687I-1800J0D01*
G01*
D02*
G03*
X211371Y82437I-421J1750D01*
G01*
X215359Y51638D02*
G03*
X215359Y51638I-1800J0D01*
G01*
X211371Y85237D02*
G03*
X210443Y86812I-1800J0D01*
G01*
Y86812D02*
G03*
X211371Y88386I-872J1575D01*
G01*
X164482Y91140D02*
G03*
X164482Y91140I-1600J0D01*
G01*
X174254Y90867D02*
G03*
X174254Y90867I-1600J0D01*
G01*
X164482Y100739D02*
G03*
X164482Y100739I-1600J0D01*
G01*
X192623Y96731D02*
G03*
X192719Y94244I-1252J-1293D01*
G01*
D02*
G03*
X195771Y95538I1252J1293D01*
G01*
D02*
G03*
X192623Y96731I-1800J0D01*
G01*
X180447Y104437D02*
G03*
X183071Y102838I825J-1600D01*
G01*
X211371Y88386D02*
G03*
X207846Y88898I-1800J0D01*
G01*
X209959Y97038D02*
G03*
X209959Y97038I-1800J0D01*
G01*
X215759Y89438D02*
G03*
X215759Y89438I-1800J0D01*
G01*
X218559Y72038D02*
G03*
X214959Y72038I-1800J0D01*
G01*
X218559D02*
G03*
X214959Y72038I-1800J0D01*
G01*
Y70038D02*
G03*
X218559Y70038I1800J0D01*
G01*
X227959Y51638D02*
G03*
X227959Y51638I-1800J0D01*
G01*
X223071Y58637D02*
G03*
X223071Y58637I-1800J0D01*
G01*
X231871Y57038D02*
G03*
X231871Y57038I-1800J0D01*
G01*
X214959Y70038D02*
G03*
X218559Y70038I1800J0D01*
G01*
X230559Y62837D02*
G03*
X230559Y62837I-1800J0D01*
G01*
X235771Y57038D02*
G03*
X235771Y57038I-1800J0D01*
G01*
X239771D02*
G03*
X239771Y57038I-1800J0D01*
G01*
X219571Y77237D02*
G03*
X219571Y77237I-1800J0D01*
G01*
X224559Y80638D02*
G03*
X224559Y80638I-1800J0D01*
G01*
X223059Y87437D02*
G03*
X223059Y87437I-1800J0D01*
G01*
X226959Y92238D02*
G03*
X226959Y92238I-1800J0D01*
G01*
X234335Y88511D02*
G03*
X231955Y86294I-663J-1673D01*
G01*
X232259Y91137D02*
G03*
X232259Y91137I-1800J0D01*
G01*
X237971Y83538D02*
G03*
X237971Y83538I-1800J0D01*
G01*
X234459Y84637D02*
G03*
X234375Y85181I-1800J0D01*
G01*
X231955Y86294D02*
G03*
X234459Y84637I703J-1657D01*
G01*
X234375Y85181D02*
G03*
X235408Y86364I-703J1657D01*
G01*
D02*
G03*
X237660Y87191I663J1673D01*
G01*
X237370Y89284D02*
G03*
X234335Y88511I-1299J-1246D01*
G01*
X228771Y98338D02*
G03*
X228771Y98338I-1800J0D01*
G01*
X232071Y96038D02*
G03*
X232071Y96038I-1800J0D01*
G01*
X139913Y173241D02*
G03*
X144658Y176921I945J3681D01*
G01*
D02*
G03*
X140760Y180720I-3800J0D01*
G01*
X150354Y106738D02*
G03*
X150354Y106738I-1600J0D01*
G01*
X148054Y109979D02*
G03*
X148054Y109979I-1600J0D01*
G01*
X162305Y122055D02*
G03*
X162305Y122055I-3800J0D01*
G01*
X171104Y145831D02*
G03*
X171104Y145831I-3800J0D01*
G01*
X183071Y102838D02*
G03*
X182096Y104437I-1800J0D01*
G01*
D02*
G03*
X183071Y106037I-825J1600D01*
G01*
D02*
G03*
X180447Y104437I-1800J0D01*
G01*
X184702Y155718D02*
G03*
X184702Y155718I-1600J0D01*
G01*
X188101D02*
G03*
X188101Y155718I-1600J0D01*
G01*
X191798Y161168D02*
G03*
X191798Y161168I-1600J0D01*
G01*
X175702Y169039D02*
G03*
X175702Y169039I-1600J0D01*
G01*
X164658Y176921D02*
G03*
X164658Y176921I-3800J0D01*
G01*
X191998Y169098D02*
G03*
X191998Y169098I-1800J0D01*
G01*
X154658Y186921D02*
G03*
X154658Y186921I-3800J0D01*
G01*
X164658D02*
G03*
X164658Y186921I-3800J0D01*
G01*
X174658D02*
G03*
X174658Y186921I-3800J0D01*
G01*
X184658D02*
G03*
X184658Y186921I-3800J0D01*
G01*
X194658D02*
G03*
X194658Y186921I-3800J0D01*
G01*
X206971Y103537D02*
G03*
X206971Y103537I-1800J0D01*
G01*
X225071Y110038D02*
G03*
X225071Y110038I-1800J0D01*
G01*
X212671Y110738D02*
G03*
X212671Y110738I-1800J0D01*
G01*
X233959Y117638D02*
G03*
X233959Y117638I-1800J0D01*
G01*
X238959Y116638D02*
G03*
X238959Y116638I-1800J0D01*
G01*
X204740Y145408D02*
G03*
X204740Y145408I-1600J0D01*
G01*
X202459Y161333D02*
G03*
X202459Y161333I-1600J0D01*
G01*
X197328Y168998D02*
G03*
X197328Y168998I-1800J0D01*
G01*
X232563Y168081D02*
G03*
X232563Y168081I-1600J0D01*
G01*
X238771Y123238D02*
G03*
X238771Y123238I-1800J0D01*
G01*
X204658Y176921D02*
G03*
X204658Y176921I-3800J0D01*
G01*
Y186921D02*
G03*
X204658Y186921I-3800J0D01*
G01*
X229795Y176921D02*
G03*
X229795Y176921I-3800J0D01*
G01*
X239795D02*
G03*
X239795Y176921I-3800J0D01*
G01*
X229795Y186921D02*
G03*
X229795Y186921I-3800J0D01*
G01*
X239795D02*
G03*
X239795Y186921I-3800J0D01*
G01*
X250172Y33900D02*
G03*
X250172Y33900I-1800J0D01*
G01*
X269171Y20137D02*
G03*
X269171Y20137I-1800J0D01*
G01*
X274771Y22038D02*
G03*
X274771Y22038I-1800J0D01*
G01*
X245759Y48537D02*
G03*
X245759Y48537I-1800J0D01*
G01*
X243671Y57038D02*
G03*
X243671Y57038I-1800J0D01*
G01*
X253759Y65237D02*
G03*
X253759Y65237I-1800J0D01*
G01*
X266321Y78838D02*
G03*
X266321Y78838I-1800J0D01*
G01*
X284171Y39937D02*
G03*
X284171Y39937I-1800J0D01*
G01*
X283671Y50538D02*
G03*
X283671Y50538I-1800J0D01*
G01*
X304171Y19437D02*
G03*
X304171Y19437I-1800J0D01*
G01*
X290471Y22537D02*
G03*
X290471Y22537I-1800J0D01*
G01*
X293571Y25337D02*
G03*
X293571Y25337I-1800J0D01*
G01*
X319759Y81638D02*
G03*
X319759Y81638I-1800J0D01*
G01*
X237660Y87191D02*
G03*
X240759Y88437I1299J1246D01*
G01*
D02*
G03*
X237370Y89284I-1800J0D01*
G01*
X245276Y84038D02*
G03*
X245276Y84038I-1800J0D01*
G01*
X245559Y88437D02*
G03*
X245559Y88437I-1800J0D01*
G01*
X242771Y94737D02*
G03*
X242771Y94737I-1800J0D01*
G01*
X244462Y99567D02*
G03*
X244462Y99567I-1800J0D01*
G01*
X246759Y93238D02*
G03*
X246759Y93238I-1800J0D01*
G01*
X241950Y114215D02*
G03*
X241648Y111934I1221J-1322D01*
G01*
Y111934D02*
G03*
X244274Y110334I826J-1600D01*
G01*
X244902Y116033D02*
G03*
X241950Y114215I-1730J-496D01*
G01*
X245331Y139439D02*
G03*
X245331Y139439I-3800J0D01*
G01*
X244274Y110334D02*
G03*
X243997Y111294I-1800J0D01*
G01*
X244576Y111768D02*
G03*
X248171Y111637I1795J-130D01*
G01*
X243997Y111294D02*
G03*
X244576Y111768I-826J1600D01*
G01*
X248171Y111637D02*
G03*
X246978Y113332I-1800J0D01*
G01*
X247484Y106982D02*
G03*
X248314Y105465I-970J-1516D01*
G01*
X249210Y108984D02*
G03*
X247484Y106982I63J-1799D01*
G01*
X248303Y105668D02*
G03*
X251073Y107185I970J1516D01*
G01*
D02*
G03*
X250511Y108491I-1800J0D01*
G01*
X250511D02*
G03*
X252248Y110290I-63J1799D01*
G01*
D02*
G03*
X251535Y111725I-1800J0D01*
G01*
X246978Y113332D02*
G03*
X248201Y115038I-576J1705D01*
G01*
X249472Y111803D02*
G03*
X249210Y108984I976J-1512D01*
G01*
X251535Y111725D02*
G03*
X252359Y113238I-976J1512D01*
G01*
D02*
G03*
X249472Y111803I-1800J0D01*
G01*
X248201Y115038D02*
G03*
X244902Y116033I-1800J0D01*
G01*
X248571Y122337D02*
G03*
X248571Y122337I-1800J0D01*
G01*
X254971Y123238D02*
G03*
X254971Y123238I-1800J0D01*
G01*
X255331Y139439D02*
G03*
X255331Y139439I-3800J0D01*
G01*
X241733Y161034D02*
G03*
X241733Y161034I-1800J0D01*
G01*
X245331Y153197D02*
G03*
X245331Y153197I-3800J0D01*
G01*
X245364Y166834D02*
G03*
X245364Y166834I-1600J0D01*
G01*
X249795Y176921D02*
G03*
X249795Y176921I-3800J0D01*
G01*
Y186921D02*
G03*
X249795Y186921I-3800J0D01*
G01*
X255331Y153197D02*
G03*
X255331Y153197I-3800J0D01*
G01*
X252764Y161134D02*
G03*
X252764Y161134I-1800J0D01*
G01*
X264759Y85137D02*
G03*
X264759Y85137I-1800J0D01*
G01*
X291359Y91169D02*
G03*
X291359Y88906I-1400J-1131D01*
G01*
D02*
G03*
X294559Y90038I1400J1131D01*
G01*
D02*
G03*
X291359Y91169I-1800J0D01*
G01*
X297959Y98239D02*
G03*
X297959Y98239I-1800J0D01*
G01*
X259971Y119138D02*
G03*
X259971Y119138I-1800J0D01*
G01*
X275271Y106438D02*
G03*
X275271Y106438I-1800J0D01*
G01*
X279771Y104638D02*
G03*
X279771Y104638I-1800J0D01*
G01*
X283586Y123545D02*
G03*
X283586Y123545I-1800J0D01*
G01*
X265149Y139052D02*
G03*
X265149Y139052I-1600J0D01*
G01*
X259795Y176921D02*
G03*
X259795Y176921I-3800J0D01*
G01*
Y186921D02*
G03*
X259795Y186921I-3800J0D01*
G01*
X284833D02*
G03*
X284833Y186921I-3800J0D01*
G01*
X294833D02*
G03*
X294833Y186921I-3800J0D01*
G01*
X304833D02*
G03*
X304833Y186921I-3800J0D01*
G01*
X314833D02*
G03*
X314833Y186921I-3800J0D01*
G01*
X146469Y29533D02*
X148498Y24888D01*
X150847Y20396D02*
X153503Y16079D01*
X148498Y24888D02*
X150847Y20396D01*
X145095Y33391D02*
X153379D01*
X145451Y32390D02*
X154656D01*
X145273Y32890D02*
X153693D01*
X155434Y13380D02*
Y32480D01*
X155934Y12682D02*
Y32783D01*
X156434Y11984D02*
Y33649D01*
X153934Y15476D02*
Y32677D01*
X153434Y16190D02*
Y33266D01*
X154934Y14079D02*
Y32378D01*
X154434Y14777D02*
Y32436D01*
X143405Y39190D02*
X144769Y34308D01*
X144917Y33891D02*
X153270D01*
X144769Y34308D02*
X146469Y29533D01*
X144746Y34391D02*
X153323D01*
X142386Y44156D02*
X143405Y39190D01*
X144606Y34890D02*
X153555D01*
X144466Y35390D02*
X154120D01*
X153434Y34686D02*
Y43266D01*
X155934Y35169D02*
Y42783D01*
X156434Y34304D02*
Y43649D01*
X154434Y35517D02*
Y42436D01*
X153934Y35276D02*
Y42677D01*
X154934Y35575D02*
Y42378D01*
X155434Y35473D02*
Y42480D01*
X153503Y16079D02*
X156453Y11957D01*
X156508Y11891D02*
X188472D01*
X156453Y11957D02*
X159662Y8078D01*
X149804Y22390D02*
X161040D01*
X149542Y22891D02*
X160077D01*
X156143Y12391D02*
X188972D01*
X155785Y12890D02*
X189472D01*
X159404Y8390D02*
X184972D01*
X158990Y8890D02*
X185472D01*
X158577Y9391D02*
X185972D01*
X158163Y9890D02*
X186472D01*
X157749Y10390D02*
X186972D01*
X157336Y10891D02*
X187472D01*
X156922Y11390D02*
X187972D01*
X143908Y37391D02*
X184505D01*
X144187Y36391D02*
X185077D01*
X144047Y36891D02*
X184683D01*
X143768Y37890D02*
X184478D01*
X143629Y38390D02*
X184594D01*
X143489Y38890D02*
X184889D01*
X143364Y39391D02*
X185559D01*
X149020Y23890D02*
X159654D01*
X149281Y23391D02*
X159763D01*
X148758Y24390D02*
X159706D01*
X148497Y24891D02*
X159939D01*
X148279Y25390D02*
X160503D01*
X141555Y51074D02*
X141716Y49180D01*
X142386Y44156D01*
X141554Y78391D02*
X207856D01*
X141554Y78891D02*
X207772D01*
X141554Y79391D02*
X207829D01*
X141554Y79891D02*
X208044D01*
X141554Y81890D02*
X207856D01*
X142543Y43391D02*
X153379D01*
X142748Y42390D02*
X154656D01*
X142646Y42891D02*
X153693D01*
X142440Y43891D02*
X153270D01*
X142355Y44390D02*
X153323D01*
X142288Y44890D02*
X153555D01*
X142221Y45390D02*
X154120D01*
X141554Y86891D02*
X205688D01*
X141554Y86391D02*
X205834D01*
X141554Y87391D02*
X205689D01*
X141554Y87890D02*
X205836D01*
X141554Y89390D02*
X172037D01*
X141554Y88390D02*
X206179D01*
X141554Y88890D02*
X207063D01*
X141554Y82390D02*
X207772D01*
X141554Y82890D02*
X207829D01*
X141554Y83390D02*
X208044D01*
X141554Y85391D02*
X207038D01*
X141554Y85891D02*
X206173D01*
X141554Y84390D02*
X207983D01*
X141554Y84891D02*
X207805D01*
X141555Y53391D02*
X213150D01*
X141554Y68391D02*
X216033D01*
X141554Y68891D02*
X215371D01*
X141554Y70390D02*
X214959D01*
X141554Y70890D02*
X214959D01*
X141554Y69390D02*
X215079D01*
X141554Y69890D02*
X214965D01*
X141571Y50890D02*
X211921D01*
X141655Y49891D02*
X213125D01*
X141613Y50390D02*
X212261D01*
X141555Y51390D02*
X211776D01*
X141555Y51890D02*
X211777D01*
X141555Y52390D02*
X211924D01*
X141555Y52890D02*
X212266D01*
X141554Y77890D02*
X208107D01*
X141554Y76890D02*
X216005D01*
X141554Y77390D02*
X208651D01*
X141554Y81391D02*
X208107D01*
X141554Y83890D02*
X208377D01*
X141554Y80391D02*
X208509D01*
X141554Y80891D02*
X208651D01*
X141554Y71390D02*
X214959D01*
X141554Y71890D02*
X214959D01*
X141554Y72391D02*
X214994D01*
X141554Y72891D02*
X215174D01*
X141554Y73391D02*
X215572D01*
X141554Y75890D02*
X216577D01*
X141554Y76390D02*
X216183D01*
X160934Y8078D02*
Y22408D01*
X161434Y8078D02*
Y22387D01*
X161934Y8078D02*
Y22529D01*
X159934Y8078D02*
Y23069D01*
X159662Y8078D02*
X184660D01*
X160434D02*
Y22601D01*
X164434Y8078D02*
Y22675D01*
X184660Y8078D02*
X189660Y13079D01*
X164934Y8078D02*
Y23261D01*
X162934Y8078D02*
Y22481D01*
X162434Y8078D02*
Y22786D01*
X163434Y8078D02*
Y22378D01*
X163934Y8078D02*
Y22436D01*
X171434Y8078D02*
Y89831D01*
X172434Y8078D02*
Y89282D01*
X171934Y8078D02*
Y89438D01*
X172934Y8078D02*
Y89291D01*
X184934Y8353D02*
Y36532D01*
X173434Y8078D02*
Y89469D01*
X185434Y8852D02*
Y36144D01*
X186434Y9853D02*
Y35945D01*
X185934Y9352D02*
Y35969D01*
X186934Y10352D02*
Y36064D01*
X187434Y10853D02*
Y36364D01*
X201434Y13079D02*
Y36532D01*
X187934Y11353D02*
Y37049D01*
X203934Y13079D02*
Y36364D01*
X204434Y13079D02*
Y37049D01*
X211934Y13079D02*
Y50862D01*
X202434Y13079D02*
Y35969D01*
X201934Y13079D02*
Y36144D01*
X202934Y13079D02*
Y35945D01*
X203434Y13079D02*
Y36064D01*
X214434Y13079D02*
Y50065D01*
X214934Y13079D02*
Y50477D01*
X216934Y13079D02*
Y68246D01*
X212934Y13079D02*
Y49949D01*
X212434Y13079D02*
Y50232D01*
X213434Y13079D02*
Y49842D01*
X213934Y13079D02*
Y49877D01*
X207934Y13079D02*
Y78189D01*
X208934Y13079D02*
Y77254D01*
X208434Y13079D02*
Y77542D01*
X206434Y13079D02*
Y85666D01*
X205934Y13079D02*
Y86201D01*
X207434Y13079D02*
Y85338D01*
X206934Y13079D02*
Y85419D01*
X215434Y13079D02*
Y68818D01*
X216434Y13079D02*
Y68267D01*
X215934Y13079D02*
Y68437D01*
X209434Y13079D02*
Y77143D01*
X209934Y13079D02*
Y77175D01*
X210434Y13079D02*
Y77358D01*
X210934Y13079D02*
Y77762D01*
X161464Y22390D02*
X163291D01*
X162001Y25390D02*
X162755D01*
X187465Y36391D02*
X201577D01*
X186984Y39391D02*
X202059D01*
X188038Y37391D02*
X201005D01*
X187860Y36891D02*
X201183D01*
X188065Y37890D02*
X200978D01*
X187949Y38390D02*
X201094D01*
X187654Y38890D02*
X201389D01*
X210434Y80517D02*
Y80858D01*
X161934Y25424D02*
Y89850D01*
X162934Y25472D02*
Y89540D01*
X162434Y25167D02*
Y89603D01*
X163434Y25575D02*
Y89638D01*
X173272Y89390D02*
X208078D01*
X207934Y79686D02*
Y81689D01*
X208434Y80333D02*
Y81042D01*
X210934Y80113D02*
Y81262D01*
X207934Y83186D02*
Y84488D01*
X210934Y83613D02*
Y84061D01*
Y86412D02*
Y87211D01*
X210492Y77390D02*
X215978D01*
X211035Y77890D02*
X216094D01*
X214959Y70038D02*
Y72038D01*
X217434Y73706D02*
Y75469D01*
X216434Y73808D02*
Y76032D01*
X211286Y78391D02*
X216389D01*
X216934Y73829D02*
Y75644D01*
X211371Y78891D02*
X217059D01*
X211302Y87890D02*
X213038D01*
X211065Y89390D02*
X212159D01*
X210560Y89890D02*
X212217D01*
X211371Y88390D02*
X212495D01*
X211299Y88890D02*
X212244D01*
X212434Y53043D02*
Y88480D01*
X214434Y53210D02*
Y87701D01*
X214934Y52798D02*
Y87925D01*
X213434Y53433D02*
Y87716D01*
X212934Y53326D02*
Y87958D01*
X213934Y53398D02*
Y87638D01*
X215434Y73256D02*
Y88407D01*
X146434Y29630D02*
Y108379D01*
X147434Y27323D02*
Y105834D01*
X146934Y28468D02*
Y108453D01*
X144934Y33842D02*
Y109478D01*
X145934Y31034D02*
Y108466D01*
X145434Y32438D02*
Y108746D01*
X149934Y22141D02*
Y105658D01*
X158434Y9562D02*
Y118256D01*
X158934Y8958D02*
Y118279D01*
X148434Y25034D02*
Y105171D01*
X147934Y26179D02*
Y105365D01*
X148934Y24054D02*
Y105149D01*
X149434Y23097D02*
Y105290D01*
X144434Y35505D02*
Y175637D01*
X150934Y20253D02*
Y183122D01*
X150434Y21184D02*
Y183145D01*
X142434Y43921D02*
Y173464D01*
X142934Y41485D02*
Y173739D01*
X143434Y39086D02*
Y174128D01*
X143934Y37296D02*
Y174691D01*
X156934Y11376D02*
Y118595D01*
X157934Y10167D02*
Y118298D01*
X157434Y10771D02*
Y118409D01*
X151434Y19441D02*
Y183165D01*
X151934Y18628D02*
Y183277D01*
X152434Y17815D02*
Y183464D01*
X152934Y17002D02*
Y183739D01*
X159434Y8354D02*
Y118370D01*
X164434Y25278D02*
Y90752D01*
X159934Y24884D02*
Y118534D01*
X160434Y25352D02*
Y118781D01*
X160934Y25545D02*
Y119133D01*
X163934Y25517D02*
Y89934D01*
X161434Y25566D02*
Y90458D01*
X167934Y8078D02*
Y142083D01*
X173934Y8078D02*
Y89907D01*
X168434Y8078D02*
Y142203D01*
X166434Y8078D02*
Y142131D01*
X165934Y8078D02*
Y142286D01*
X167434Y8078D02*
Y142033D01*
X166934Y8078D02*
Y142049D01*
X169934Y8078D02*
Y143088D01*
X170434Y8078D02*
Y143676D01*
X170934Y8078D02*
Y144708D01*
X165434Y8078D02*
Y142522D01*
X164934Y24692D02*
Y142860D01*
X168934Y8078D02*
Y142398D01*
X169434Y8078D02*
Y142684D01*
X176434Y8078D02*
Y195657D01*
X177434Y8078D02*
Y185272D01*
X176934Y8078D02*
Y195657D01*
X174434Y8078D02*
Y167474D01*
X174934Y8078D02*
Y167673D01*
X175434Y8078D02*
Y168154D01*
X175934Y8078D02*
Y195657D01*
X141554Y90891D02*
X161301D01*
X141554Y90390D02*
X161468D01*
X141554Y91391D02*
X161302D01*
X141554Y91891D02*
X161469D01*
X141553Y99891D02*
X161525D01*
X141554Y92391D02*
X161884D01*
X141553Y99391D02*
X162021D01*
X161434Y91821D02*
Y100057D01*
X141554Y89890D02*
X161882D01*
X163934Y92345D02*
Y99534D01*
X162434Y92676D02*
Y99203D01*
X161934Y92429D02*
Y99450D01*
X162934Y92739D02*
Y99140D01*
X163434Y92641D02*
Y99237D01*
X141934Y47541D02*
Y173277D01*
X153434Y44686D02*
Y184128D01*
X153934Y45276D02*
Y184691D01*
X141553Y100891D02*
X161289D01*
X141552Y131186D02*
X141555Y51074D01*
X141553Y100391D02*
X161320D01*
X141553Y101391D02*
X161421D01*
X155434Y45473D02*
Y119816D01*
X156434Y44304D02*
Y118869D01*
X155934Y45169D02*
Y119256D01*
X154934Y45575D02*
Y120754D01*
X154434Y45516D02*
Y185637D01*
X164434Y91527D02*
Y100352D01*
Y101126D02*
Y143340D01*
X163882Y89890D02*
X171387D01*
X164295Y91891D02*
X171425D01*
X163879Y92391D02*
X172167D01*
X141554Y94890D02*
X189656D01*
X141554Y93891D02*
X190451D01*
X141554Y94390D02*
X189907D01*
X164296Y90390D02*
X171127D01*
X173922Y89890D02*
X208583D01*
X164462Y90891D02*
X171054D01*
X164462Y91391D02*
X171143D01*
X174182Y90390D02*
X212432D01*
X174254Y90891D02*
X212896D01*
X141553Y95390D02*
X189572D01*
X141553Y95890D02*
X189629D01*
X141553Y96390D02*
X189844D01*
X141553Y96890D02*
X190309D01*
X141553Y97391D02*
X206394D01*
X141553Y97891D02*
X206574D01*
X141553Y98391D02*
X206972D01*
X171434Y91902D02*
Y183165D01*
X173934Y91826D02*
Y167448D01*
X173434Y92264D02*
Y167585D01*
X171934Y92295D02*
Y183277D01*
X172934Y92442D02*
Y167945D01*
X172434Y92451D02*
Y183464D01*
X181934Y8078D02*
Y101164D01*
X182434Y8078D02*
Y101464D01*
X182934Y8078D02*
Y102149D01*
X180434Y8078D02*
Y101244D01*
X179934Y8078D02*
Y101632D01*
X181434Y8078D02*
Y101045D01*
X180934Y8078D02*
Y101069D01*
X183434Y8078D02*
Y154153D01*
X190434Y13079D02*
Y93901D01*
X189934Y13079D02*
Y94353D01*
X186434Y39530D02*
Y154119D01*
X186934Y39411D02*
Y154178D01*
X191434Y13079D02*
Y93639D01*
X190934Y13079D02*
Y93691D01*
X177934Y8078D02*
Y184494D01*
X178934Y8078D02*
Y183644D01*
X178434Y8078D02*
Y183995D01*
X183934Y8078D02*
Y154352D01*
X179434Y8078D02*
Y183398D01*
X184434Y8078D02*
Y154833D01*
X184934Y38943D02*
Y155391D01*
X188434Y11852D02*
Y168737D01*
X189434Y12853D02*
Y159761D01*
X188934Y12353D02*
Y160186D01*
X185934Y39506D02*
Y154222D01*
X185434Y39331D02*
Y154525D01*
X187434Y39111D02*
Y154419D01*
X187934Y38426D02*
Y155008D01*
X193934Y13079D02*
Y93738D01*
X194434Y13079D02*
Y93798D01*
X194934Y13079D02*
Y94017D01*
X191934Y13079D02*
Y93728D01*
X192434Y13079D02*
Y93985D01*
X193434Y13079D02*
Y93819D01*
X192934Y13079D02*
Y94066D01*
X195434Y13079D02*
Y94489D01*
X204934Y13079D02*
Y101753D01*
X211434Y13079D02*
Y109028D01*
X203934Y39111D02*
Y102230D01*
X203434Y39411D02*
Y103066D01*
X205434Y13079D02*
Y101757D01*
X204434Y38426D02*
Y101895D01*
X197934Y13079D02*
Y174494D01*
X198934Y13079D02*
Y173644D01*
X198434Y13079D02*
Y173995D01*
X195934Y13079D02*
Y167245D01*
X196434Y13079D02*
Y167443D01*
X196934Y13079D02*
Y167875D01*
X197434Y13079D02*
Y175272D01*
X199434Y13079D02*
Y160605D01*
X200434Y13079D02*
Y159790D01*
X199934Y13079D02*
Y160027D01*
X200934Y13079D02*
Y159735D01*
X201434Y38943D02*
Y159840D01*
X202434Y39506D02*
Y143972D01*
X201934Y39331D02*
Y144356D01*
X192292Y93891D02*
X193245D01*
X192434Y96890D02*
X192784D01*
X195556Y96390D02*
X206479D01*
X195159Y96890D02*
X206365D01*
X205934Y88074D02*
Y101907D01*
X206934Y88856D02*
Y95718D01*
X206434Y88609D02*
Y96521D01*
X195736Y95890D02*
X206771D01*
X206434Y97554D02*
Y102255D01*
X195765Y95390D02*
X207433D01*
X206934Y98357D02*
Y103174D01*
X189934Y96522D02*
Y159589D01*
X190434Y96974D02*
Y159585D01*
X192434Y96890D02*
Y183464D01*
X190934Y97184D02*
Y159747D01*
X191434Y97236D02*
Y160152D01*
X191934Y97147D02*
Y168625D01*
X192934Y97009D02*
Y183739D01*
X202934Y39530D02*
Y143821D01*
X195434Y96586D02*
Y167201D01*
X193934Y97337D02*
Y168162D01*
X193434Y97256D02*
Y184128D01*
X194934Y97058D02*
Y167299D01*
X194434Y97277D02*
Y167569D01*
X207434Y88937D02*
Y95390D01*
X207934Y89135D02*
Y95252D01*
X208434Y89782D02*
Y95259D01*
X208934Y90070D02*
Y95413D01*
X209434Y90181D02*
Y95767D01*
X210934Y89562D02*
Y108939D01*
X211934Y52413D02*
Y109285D01*
X209934Y97333D02*
Y109201D01*
X209434Y98308D02*
Y109653D01*
X209934Y90149D02*
Y96742D01*
X210434Y89966D02*
Y108991D01*
X212434Y90395D02*
Y109845D01*
X213434Y91159D02*
Y195657D01*
X212934Y90918D02*
Y195657D01*
X207934Y98823D02*
Y195657D01*
X207434Y98685D02*
Y195657D01*
X208934Y98662D02*
Y195657D01*
X208434Y98816D02*
Y195657D01*
X215934Y73638D02*
Y195657D01*
X216934Y78831D02*
Y195657D01*
X216434Y78443D02*
Y195657D01*
X214434Y91174D02*
Y195657D01*
X213934Y91237D02*
Y195657D01*
X215434Y90468D02*
Y195657D01*
X214934Y90950D02*
Y195657D01*
X150850Y20391D02*
X232905D01*
X151465Y19390D02*
X232905D01*
X151157Y19891D02*
X232905D01*
X150065Y21891D02*
X232905D01*
X150588Y20890D02*
X232905D01*
X150327Y21391D02*
X232905D01*
X152080Y18391D02*
X232905D01*
X152696Y17391D02*
X232905D01*
X152388Y17890D02*
X232905D01*
X151773Y18891D02*
X232905D01*
X163715Y22390D02*
X232905D01*
X164678Y22891D02*
X232905D01*
X164992Y23391D02*
X247534D01*
X148060Y25890D02*
X247555D01*
X147842Y26390D02*
X247555D01*
X147623Y26891D02*
X247680D01*
X156043Y32890D02*
X246881D01*
X156181Y34890D02*
X246869D01*
X155080Y32390D02*
X247390D01*
X155617Y35390D02*
X247363D01*
X165101Y23890D02*
X247534D01*
X165049Y24390D02*
X247534D01*
X164816Y24891D02*
X247555D01*
X156466Y33891D02*
X246572D01*
X156414Y34391D02*
X246640D01*
X164252Y25390D02*
X247555D01*
X156357Y33391D02*
X246645D01*
X147405Y27391D02*
X248181D01*
X153311Y16390D02*
X338456D01*
X153003Y16891D02*
X338770D01*
X147186Y27891D02*
X248682D01*
X146968Y28390D02*
X249184D01*
X146749Y28890D02*
X249685D01*
X146531Y29390D02*
X250187D01*
X189660Y13079D02*
X304660D01*
X155427Y13390D02*
X336566D01*
X155069Y13891D02*
X336881D01*
X154711Y14390D02*
X337196D01*
X154353Y14890D02*
X337511D01*
X153995Y15391D02*
X337826D01*
X153637Y15890D02*
X338141D01*
X146342Y29890D02*
X250688D01*
X146163Y30391D02*
X251189D01*
X145985Y30891D02*
X251691D01*
X145807Y31391D02*
X252192D01*
X145629Y31890D02*
X252694D01*
X144327Y35890D02*
X255755D01*
X143262Y39891D02*
X255755D01*
X204538Y37391D02*
X255755D01*
X203965Y36391D02*
X255755D01*
X204360Y36891D02*
X255755D01*
X204154Y38890D02*
X255755D01*
X203484Y39391D02*
X255755D01*
X204565Y37890D02*
X255755D01*
X204449Y38390D02*
X255755D01*
X141555Y56391D02*
X228392D01*
X141555Y55391D02*
X229345D01*
X141555Y55891D02*
X228684D01*
X141555Y57890D02*
X219634D01*
X141555Y58390D02*
X219488D01*
X141555Y56890D02*
X220838D01*
X141555Y57390D02*
X219973D01*
X141821Y48390D02*
X242165D01*
X141888Y47890D02*
X242279D01*
X141754Y48891D02*
X242194D01*
X214857Y50390D02*
X224861D01*
X214851Y52890D02*
X224867D01*
X213992Y49891D02*
X225725D01*
X213967Y53391D02*
X225750D01*
X141555Y62391D02*
X227015D01*
X141555Y61391D02*
X227688D01*
X141555Y61891D02*
X227228D01*
X141555Y62890D02*
X226959D01*
X141555Y63390D02*
X227046D01*
X141555Y63890D02*
X227299D01*
X141554Y64390D02*
X227849D01*
X141555Y58890D02*
X219489D01*
X141555Y59390D02*
X219636D01*
X141555Y59891D02*
X219979D01*
X141555Y60391D02*
X220863D01*
X142954Y41390D02*
X255755D01*
X143159Y40391D02*
X255755D01*
X143056Y40890D02*
X255755D01*
X142088Y46391D02*
X255755D01*
X142021Y46891D02*
X243232D01*
X142851Y41890D02*
X255755D01*
X142155Y45891D02*
X255755D01*
X156357Y43391D02*
X255755D01*
X155080Y42390D02*
X255755D01*
X156043Y42891D02*
X255755D01*
X156181Y44890D02*
X255755D01*
X155617Y45390D02*
X255755D01*
X156466Y43891D02*
X255755D01*
X156414Y44390D02*
X255755D01*
X141554Y65390D02*
X250165D01*
X141554Y65891D02*
X250281D01*
X141554Y66391D02*
X250576D01*
X141554Y66891D02*
X251246D01*
X141554Y67391D02*
X271829D01*
X141554Y67891D02*
X272329D01*
X141554Y73891D02*
X278329D01*
X141698Y49391D02*
X242374D01*
X141955Y47390D02*
X242571D01*
X141555Y53891D02*
X258329D01*
X141555Y54391D02*
X258829D01*
X141554Y64890D02*
X250192D01*
X141555Y54891D02*
X259329D01*
X141555Y60891D02*
X265329D01*
X224434Y13079D02*
Y51121D01*
X224934Y13079D02*
Y50318D01*
X215342Y51390D02*
X224376D01*
X215341Y51890D02*
X224377D01*
X215196Y50890D02*
X224521D01*
X215194Y52390D02*
X224524D01*
X227434Y13079D02*
Y50367D01*
X227934Y13079D02*
Y51342D01*
X229934Y13079D02*
Y55243D01*
X225934Y13079D02*
Y49852D01*
X225434Y13079D02*
Y49990D01*
X226434Y13079D02*
Y49859D01*
X226934Y13079D02*
Y50013D01*
X220434Y13079D02*
Y57044D01*
X221434Y13079D02*
Y56845D01*
X220934Y13079D02*
Y56869D01*
X217434Y13079D02*
Y68369D01*
X217934Y13079D02*
Y68674D01*
X219934Y13079D02*
Y57432D01*
X218434Y13079D02*
Y69380D01*
X221934Y13079D02*
Y56964D01*
X222434Y13079D02*
Y57264D01*
X222934Y13079D02*
Y57949D01*
X228434Y13079D02*
Y56289D01*
X227934Y51933D02*
Y61237D01*
X229434Y13079D02*
Y55354D01*
X228934Y13079D02*
Y55642D01*
X232905Y17217D02*
Y23316D01*
X232934Y13079D02*
Y17217D01*
X232905D02*
X259903Y17217D01*
X232905Y23316D02*
X247534D01*
X226592Y49891D02*
X242772D01*
X227457Y50390D02*
X255755D01*
X227796Y50890D02*
X255755D01*
X235434Y13079D02*
Y17217D01*
X236434Y13079D02*
Y17217D01*
X235934Y13079D02*
Y17217D01*
X233934Y13079D02*
Y17217D01*
X233434Y13079D02*
Y17217D01*
X234934Y13079D02*
Y17217D01*
X234434Y13079D02*
Y17217D01*
X230434Y13079D02*
Y55274D01*
X230934Y13079D02*
Y55458D01*
X231434Y13079D02*
Y55862D01*
X232934Y23316D02*
Y55566D01*
X232434Y13079D02*
Y56101D01*
X227942Y51390D02*
X255829D01*
X227941Y51890D02*
X256329D01*
X235434Y23316D02*
Y55989D01*
X236934Y23316D02*
Y55566D01*
X236434Y23316D02*
Y56101D01*
X233934Y23316D02*
Y55238D01*
X233434Y23316D02*
Y55319D01*
X234434Y23316D02*
Y55298D01*
X234934Y23316D02*
Y55517D01*
X231751Y56391D02*
X232292D01*
X230798Y55391D02*
X233245D01*
X231459Y55891D02*
X232584D01*
X221705Y56890D02*
X228277D01*
X222569Y57390D02*
X228306D01*
X231656Y57890D02*
X232386D01*
X222909D02*
X228486D01*
X235765Y56890D02*
X236177D01*
X235359Y55891D02*
X236584D01*
X235651Y56391D02*
X236292D01*
X231865Y56890D02*
X232177D01*
X231836Y57390D02*
X232206D01*
X235736D02*
X236206D01*
X235556Y57890D02*
X236386D01*
X227434Y52908D02*
Y61619D01*
X218559Y70038D02*
Y72038D01*
X223054Y58390D02*
X228884D01*
X228434Y57786D02*
Y61067D01*
X231259Y58390D02*
X232784D01*
X228934Y58433D02*
Y61046D01*
X229434Y58721D02*
Y61169D01*
X229934Y58832D02*
Y61475D01*
X230434Y58801D02*
Y62180D01*
X227794Y52390D02*
X256829D01*
X227451Y52890D02*
X257329D01*
X226567Y53391D02*
X257829D01*
X223054Y58890D02*
X263329D01*
X222906Y59390D02*
X263829D01*
X222564Y59891D02*
X264329D01*
X221680Y60391D02*
X264829D01*
X235158Y58390D02*
X236784D01*
X234698Y55391D02*
X237245D01*
X229829Y61391D02*
X265829D01*
X230290Y61891D02*
X266329D01*
X230502Y62391D02*
X266829D01*
X230558Y62890D02*
X267329D01*
X217485Y68391D02*
X272829D01*
X218146Y68891D02*
X273329D01*
X218438Y69390D02*
X273829D01*
X218553Y69890D02*
X274329D01*
X218524Y72391D02*
X276829D01*
X218344Y72891D02*
X277329D01*
X217946Y73391D02*
X277829D01*
X229669Y64390D02*
X250371D01*
X230472Y63390D02*
X267829D01*
X230219Y63890D02*
X250765D01*
X218559Y70390D02*
X274829D01*
X218559Y70890D02*
X275329D01*
X218559Y71390D02*
X275829D01*
X218559Y71890D02*
X276329D01*
X217934Y73401D02*
Y75445D01*
X211313Y79391D02*
X221461D01*
X210634Y80391D02*
X220976D01*
X211098Y79891D02*
X221121D01*
X210492Y80891D02*
X220977D01*
X218934Y13079D02*
Y75864D01*
X219434Y13079D02*
Y76549D01*
X222434Y60011D02*
Y78867D01*
X218434Y72695D02*
Y75564D01*
X221434Y60430D02*
Y79418D01*
X218484Y78891D02*
X222325D01*
X221934Y60311D02*
Y79037D01*
X217434Y79006D02*
Y195657D01*
X218934Y78611D02*
Y195657D01*
X218434Y78911D02*
Y195657D01*
X211035Y81391D02*
X221124D01*
X217934Y79030D02*
Y195657D01*
X211286Y81890D02*
X221466D01*
X211371Y82390D02*
X222350D01*
X219934Y59843D02*
Y86219D01*
X220934Y60406D02*
Y85667D01*
X220434Y60231D02*
Y85837D01*
X221434Y81857D02*
Y85646D01*
X219434Y77926D02*
Y195657D01*
X221934Y82238D02*
Y85769D01*
X222434Y82408D02*
Y86075D01*
X141554Y75390D02*
X278455D01*
X141554Y74391D02*
X278455D01*
X141554Y74891D02*
X278455D01*
X219449Y77890D02*
X262991D01*
X219154Y78391D02*
X262777D01*
X218965Y75890D02*
X278455D01*
X219360Y76390D02*
X278455D01*
X222934Y59326D02*
Y78846D01*
X223434Y13079D02*
Y78969D01*
X223934Y13079D02*
Y79274D01*
X223192Y78891D02*
X262722D01*
X224057Y79391D02*
X262808D01*
X219538Y76890D02*
X278455D01*
X219565Y77390D02*
X263451D01*
X223934Y82001D02*
Y90918D01*
X224051Y81890D02*
X235445D01*
X222934Y82429D02*
Y86780D01*
X223434Y82306D02*
Y91721D01*
X223167Y82390D02*
X234784D01*
X211313Y82890D02*
X232225D01*
X224434Y52154D02*
Y79980D01*
X224396Y79891D02*
X263060D01*
X224934Y52957D02*
Y90452D01*
X224542Y80391D02*
X263610D01*
X224434Y81295D02*
Y90590D01*
X224541Y80891D02*
X278455D01*
X224394Y81391D02*
X278455D01*
X210573Y86891D02*
X219544D01*
X210953Y86391D02*
X219795D01*
X174166Y91391D02*
X223570D01*
X173884Y91891D02*
X223393D01*
X173142Y92391D02*
X223365D01*
X141554Y92891D02*
X223481D01*
X141554Y93391D02*
X223777D01*
X211071Y87391D02*
X219459D01*
X211248Y85891D02*
X220339D01*
X214879Y87890D02*
X219517D01*
X215423Y88390D02*
X219732D01*
X215674Y88890D02*
X220196D01*
X215021Y90891D02*
X223965D01*
X219934Y88657D02*
Y195657D01*
X220934Y89208D02*
Y195657D01*
X220434Y89038D02*
Y195657D01*
X194698Y93891D02*
X224446D01*
X221434Y89229D02*
Y195657D01*
X209744Y97891D02*
X225228D01*
X209346Y98391D02*
X225172D01*
X221934Y89106D02*
Y108832D01*
X222934Y88095D02*
Y108269D01*
X222434Y88801D02*
Y108444D01*
X223434Y92754D02*
Y108245D01*
X223934Y93557D02*
Y108364D01*
X224434Y93885D02*
Y108664D01*
X224934Y94024D02*
Y109349D01*
X211160Y84390D02*
X230876D01*
X211098Y83390D02*
X231361D01*
X210766Y83890D02*
X231021D01*
X215758Y89390D02*
X230025D01*
X215701Y89890D02*
X229161D01*
X211338Y84891D02*
X230877D01*
X211365Y85391D02*
X231024D01*
X222179Y85891D02*
X231366D01*
X222723Y86391D02*
X231928D01*
X222974Y86891D02*
X231872D01*
X223058Y87391D02*
X231958D01*
X223001Y87890D02*
X232211D01*
X222786Y88390D02*
X232761D01*
X222321Y88890D02*
X234486D01*
X141553Y98891D02*
X225258D01*
X195359Y94390D02*
X229545D01*
X195651Y94890D02*
X228884D01*
X163743Y99391D02*
X225512D01*
X164238Y99891D02*
X226061D01*
X164444Y100391D02*
X241062D01*
X164475Y100891D02*
X241443D01*
X215486Y90390D02*
X228821D01*
X208885Y95390D02*
X228592D01*
X209953Y96890D02*
X225901D01*
X209924Y97391D02*
X225441D01*
X209546Y95890D02*
X228477D01*
X209838Y96390D02*
X228506D01*
X230434Y63495D02*
Y89338D01*
X231434Y58213D02*
Y83318D01*
X230934Y58617D02*
Y84121D01*
X229934Y64201D02*
Y89416D01*
X229434Y64506D02*
Y89657D01*
X230934Y85154D02*
Y89402D01*
X231434Y85957D02*
Y89625D01*
X231934Y13079D02*
Y82990D01*
X232434Y57974D02*
Y82852D01*
X232934Y58509D02*
Y82859D01*
X233434Y58756D02*
Y83013D01*
X233934Y58837D02*
Y83368D01*
X233957Y83390D02*
X234377D01*
X225434Y53285D02*
Y90459D01*
X226434Y53416D02*
Y90968D01*
X226934Y53262D02*
Y91942D01*
X225934Y53424D02*
Y90613D01*
X227434Y64056D02*
Y96598D01*
X227934Y64438D02*
Y96817D01*
X228434Y64608D02*
Y97289D01*
X228934Y64629D02*
Y90180D01*
X231934Y87309D02*
Y90107D01*
X232434Y88145D02*
Y115859D01*
X232934Y88480D02*
Y116013D01*
X233434Y88622D02*
Y116367D01*
X233934Y88618D02*
Y117342D01*
X234434Y58777D02*
Y83065D01*
X233092Y82890D02*
X234492D01*
X234434Y84009D02*
Y84342D01*
X234441Y84891D02*
X234984D01*
X234742Y85391D02*
X242289D01*
X235434Y58086D02*
Y81895D01*
X235934Y23316D02*
Y81753D01*
X236434Y57974D02*
Y81757D01*
X234934Y58558D02*
Y82230D01*
Y84845D02*
Y85555D01*
X236898Y81890D02*
X278455D01*
X235202Y85891D02*
X261325D01*
X230892Y89390D02*
X234884D01*
X234434Y88786D02*
Y173457D01*
X234934Y89433D02*
Y173272D01*
X235434Y85180D02*
Y86354D01*
X235934Y85322D02*
Y86243D01*
X236434Y85318D02*
Y86274D01*
Y89801D02*
Y114990D01*
X235434Y89721D02*
Y116121D01*
X236798Y86391D02*
X261667D01*
X236934Y89617D02*
Y114852D01*
X226353Y90891D02*
X228676D01*
X226747Y91391D02*
X228677D01*
X226925Y91891D02*
X228824D01*
X226434Y93507D02*
Y96619D01*
X225934Y93862D02*
Y96866D01*
X226836Y92891D02*
X230050D01*
X226934Y92533D02*
Y96538D01*
X228934Y92095D02*
Y94832D01*
X226952Y92391D02*
X229167D01*
X229434Y92618D02*
Y94444D01*
X229934Y92860D02*
Y94269D01*
X228042Y96890D02*
X228686D01*
X230434Y92937D02*
Y94245D01*
X230934Y92874D02*
Y94364D01*
X225434Y94016D02*
Y97401D01*
Y99274D02*
Y173163D01*
X225934Y99809D02*
Y173122D01*
X226434Y100056D02*
Y173147D01*
X226934Y100137D02*
Y173239D01*
X227434Y100077D02*
Y173405D01*
X228934Y97243D02*
Y174513D01*
X228502Y97391D02*
X229084D01*
X229434Y97631D02*
Y167610D01*
X227934Y99858D02*
Y173654D01*
X228434Y99386D02*
Y174008D01*
X230434Y97830D02*
Y117121D01*
X229934Y97806D02*
Y166856D01*
X231434Y92650D02*
Y94664D01*
X231751Y92391D02*
X243371D01*
X230867Y92891D02*
X243193D01*
X230998Y94390D02*
X239205D01*
X231659Y94890D02*
X239178D01*
X226541Y93391D02*
X239777D01*
X225871Y93891D02*
X239383D01*
X231757Y89890D02*
X237896D01*
X232096Y90390D02*
X288194D01*
X232242Y90891D02*
X288374D01*
X231934Y92168D02*
Y95349D01*
X231951Y95390D02*
X239294D01*
X232241Y91391D02*
X288772D01*
X232094Y91891D02*
X243765D01*
X230934Y97711D02*
Y116318D01*
X228715Y97891D02*
X242006D01*
X228431Y99391D02*
X240871D01*
X227881Y99891D02*
X240892D01*
X228771Y98391D02*
X241300D01*
X228684Y98891D02*
X240994D01*
X235934Y89832D02*
Y115318D01*
X232065Y95890D02*
X239589D01*
X232036Y96390D02*
X240259D01*
X231934Y96726D02*
Y115852D01*
X231434Y97411D02*
Y115990D01*
X231856Y96890D02*
X294966D01*
X231458Y97391D02*
X294571D01*
X138515Y135930D02*
X139413Y135032D01*
Y133326D02*
X141552Y131186D01*
X139413Y133326D02*
Y135032D01*
X132413Y137430D02*
X133913Y135930D01*
X138515D01*
X136434D02*
Y162430D01*
X141553Y109390D02*
X144966D01*
X141553Y108390D02*
X146261D01*
X141553Y108890D02*
X145281D01*
X141553Y109890D02*
X144856D01*
X141553Y110390D02*
X144908D01*
X141553Y110890D02*
X145139D01*
X141553Y111390D02*
X145701D01*
X136934Y135930D02*
Y162430D01*
X137934Y135930D02*
Y162430D01*
X137434Y135930D02*
Y162430D01*
X134434Y135930D02*
Y162430D01*
X133934Y135930D02*
Y162430D01*
X135934Y135930D02*
Y162430D01*
X134934Y135930D02*
Y162430D01*
X140434Y132305D02*
Y173145D01*
X140934Y131805D02*
Y173122D01*
X141434Y131305D02*
Y173165D01*
X138434Y135930D02*
Y162451D01*
X138934Y135511D02*
Y162951D01*
X139434Y133305D02*
Y163451D01*
X139934Y132805D02*
Y173235D01*
X141553Y106391D02*
X147192D01*
X141553Y105391D02*
X147892D01*
X141553Y105891D02*
X147397D01*
X141553Y106890D02*
X147161D01*
X141553Y107390D02*
X147293D01*
X141553Y107890D02*
X147644D01*
X141553Y118391D02*
X157499D01*
X141553Y101891D02*
X161771D01*
X141553Y102391D02*
X179528D01*
X141553Y102891D02*
X179472D01*
X141553Y103391D02*
X179558D01*
X141553Y103891D02*
X179812D01*
X141553Y104391D02*
X180361D01*
X141553Y104891D02*
X179884D01*
X141553Y122390D02*
X154720D01*
X141553Y122890D02*
X154798D01*
X141553Y123390D02*
X154947D01*
X141553Y123890D02*
X155177D01*
X141553Y124390D02*
X155507D01*
X141553Y124890D02*
X155975D01*
X141553Y125391D02*
X156684D01*
X141553Y119890D02*
X155382D01*
X141553Y118891D02*
X156401D01*
X141553Y119390D02*
X155795D01*
X141553Y121390D02*
X154763D01*
X141553Y121890D02*
X154708D01*
X141553Y120390D02*
X155089D01*
X141553Y120890D02*
X154888D01*
X132413Y145390D02*
X163530D01*
X132413Y144390D02*
X163787D01*
X132413Y144890D02*
X163622D01*
X132413Y145890D02*
X163504D01*
X132413Y146390D02*
X163545D01*
X132413Y146890D02*
X163655D01*
X132413Y147390D02*
X163839D01*
X132934Y136909D02*
Y161451D01*
X133434Y136409D02*
Y161951D01*
X135434Y135930D02*
Y162430D01*
X132413Y137430D02*
Y160930D01*
X132434Y137409D02*
Y160951D01*
X133913Y162430D02*
X138413D01*
X132413Y160930D02*
X133913Y162430D01*
X138413D02*
X139913Y163930D01*
Y173241D01*
X140760Y180720D02*
X141413Y181309D01*
Y183121D01*
X144658D01*
X142934Y180104D02*
Y183121D01*
X142262Y173390D02*
X159453D01*
X143150Y173890D02*
X158566D01*
X141934Y180566D02*
Y183121D01*
X141434Y180677D02*
Y183121D01*
X142409Y180391D02*
X159307D01*
X142434Y180379D02*
Y183121D01*
X132413Y149390D02*
X165974D01*
X132413Y154391D02*
X182209D01*
X132413Y154891D02*
X181732D01*
X132413Y155391D02*
X181535D01*
X132413Y155891D02*
X181511D01*
X132413Y156391D02*
X181650D01*
X132413Y156890D02*
X182013D01*
X132413Y143391D02*
X164391D01*
X132413Y142391D02*
X165690D01*
X132413Y142891D02*
X164897D01*
X132413Y143891D02*
X164037D01*
X132413Y147890D02*
X164111D01*
X132413Y148390D02*
X164496D01*
X132413Y148890D02*
X165051D01*
X132413Y160890D02*
X188622D01*
X132413Y159890D02*
X189234D01*
X132413Y160390D02*
X188799D01*
X132874Y161390D02*
X188613D01*
X133374Y161890D02*
X188770D01*
X133874Y162390D02*
X189166D01*
X139913Y167391D02*
X189629D01*
X139913Y168891D02*
X172509D01*
X139913Y167891D02*
X172987D01*
X139913Y168391D02*
X172639D01*
X139913Y169390D02*
X172541D01*
X139913Y169890D02*
X172747D01*
X139913Y170390D02*
X173245D01*
X139913Y170890D02*
X190030D01*
X147434Y107643D02*
Y108714D01*
X147934Y108113D02*
Y109372D01*
X159934Y125576D02*
Y173235D01*
X160434Y125329D02*
Y173145D01*
X161434Y101421D02*
Y119635D01*
X161934Y102028D02*
Y120419D01*
X163934Y101944D02*
Y144074D01*
X160934Y124977D02*
Y173122D01*
X161434Y124475D02*
Y173165D01*
X161934Y123691D02*
Y173277D01*
X149934Y107819D02*
Y183235D01*
X162434Y102275D02*
Y173464D01*
X157434Y125701D02*
Y175272D01*
X158434Y125854D02*
Y173995D01*
X157934Y125812D02*
Y174494D01*
X159434Y125740D02*
Y173398D01*
X158934Y125831D02*
Y173644D01*
X162934Y102338D02*
Y173739D01*
X163434Y102241D02*
Y174128D01*
X170934Y146953D02*
Y183122D01*
X163934Y147587D02*
Y174691D01*
X164434Y148322D02*
Y175637D01*
X170434Y147985D02*
Y183145D01*
X169934Y148573D02*
Y183235D01*
X149616Y105391D02*
X179592D01*
X164343Y101391D02*
X180201D01*
X163993Y101891D02*
X179741D01*
X150111Y105891D02*
X179477D01*
X150316Y106391D02*
X179506D01*
X150347Y106890D02*
X179686D01*
X150215Y107390D02*
X180084D01*
X179934Y104043D02*
Y104832D01*
X182934Y103526D02*
Y105349D01*
X182434Y104211D02*
Y104664D01*
X182934Y106726D02*
Y154127D01*
X179934Y107243D02*
Y183235D01*
X181934Y107711D02*
Y154624D01*
X180434Y107631D02*
Y183145D01*
X180934Y107806D02*
Y183122D01*
X181434Y107830D02*
Y183165D01*
X181934Y156812D02*
Y183277D01*
X182434Y107411D02*
Y154264D01*
X183995Y154391D02*
X185608D01*
X184471Y154891D02*
X185131D01*
X184553Y156391D02*
X185049D01*
X184190Y156890D02*
X185412D01*
X144336Y175391D02*
X157380D01*
X143692Y174390D02*
X158023D01*
X144070Y174890D02*
X157646D01*
X144362Y178391D02*
X157353D01*
X144108Y178891D02*
X157608D01*
X143746Y179391D02*
X157969D01*
X143229Y179891D02*
X158486D01*
X144515Y175891D02*
X157200D01*
X175695Y168891D02*
X188410D01*
X144658Y176891D02*
X157058D01*
X144629Y177391D02*
X157087D01*
X144621Y176391D02*
X157095D01*
X144532Y177891D02*
X157184D01*
X143934Y179152D02*
Y183121D01*
X144434Y178206D02*
Y183121D01*
X143434Y179715D02*
Y183121D01*
X144658Y183390D02*
X149453D01*
X152262D02*
X159453D01*
X159434Y180445D02*
Y183398D01*
X159934Y180607D02*
Y183235D01*
X161434Y180677D02*
Y183165D01*
X161934Y180566D02*
Y183277D01*
X160934Y180721D02*
Y183122D01*
X160434Y180698D02*
Y183145D01*
X172263Y183390D02*
X179453D01*
X162262D02*
X169453D01*
X188934Y162150D02*
Y167816D01*
X189934Y162746D02*
Y167318D01*
X189434Y162574D02*
Y167468D01*
X175564Y168391D02*
X188543D01*
X175663Y169390D02*
X188421D01*
X190434Y162750D02*
Y167314D01*
X175216Y167891D02*
X188863D01*
X190934Y162588D02*
Y167456D01*
X190766Y167391D02*
X194719D01*
X191434Y162183D02*
Y167790D01*
X191985Y168891D02*
X193731D01*
X191974Y169390D02*
X193772D01*
X191532Y167891D02*
X194109D01*
X191853Y168391D02*
X193834D01*
X175456Y169890D02*
X188581D01*
X174958Y170390D02*
X188944D01*
X182263Y183390D02*
X189453D01*
X189434Y170729D02*
Y183398D01*
X164658Y176891D02*
X197058D01*
X164629Y177391D02*
X197087D01*
X191934Y169571D02*
Y183277D01*
X191814Y169890D02*
X193965D01*
X191451Y170390D02*
X194387D01*
X190434Y170883D02*
Y183145D01*
X189934Y170879D02*
Y183235D01*
X190934Y170741D02*
Y183122D01*
X191434Y170406D02*
Y183165D01*
X144658Y184890D02*
X147646D01*
X144658Y183890D02*
X148566D01*
X144658Y184390D02*
X148023D01*
X144658Y186890D02*
X147058D01*
X144658Y185390D02*
X147380D01*
X144658Y186390D02*
X147095D01*
X148434Y108306D02*
Y183995D01*
X149434Y108187D02*
Y183398D01*
X148934Y108328D02*
Y183644D01*
X147434Y111243D02*
Y185272D01*
X144658Y185890D02*
X147200D01*
X147934Y110586D02*
Y184494D01*
X154658Y186890D02*
X157058D01*
X144934Y110479D02*
Y195657D01*
X145934Y111492D02*
Y195657D01*
X145434Y111212D02*
Y195657D01*
X144658Y183121D02*
Y190721D01*
X146434Y111579D02*
Y195657D01*
X144658Y187390D02*
X147087D01*
X146934Y111505D02*
Y195657D01*
X154934Y123356D02*
Y195657D01*
X155934Y124854D02*
Y195657D01*
X155434Y124294D02*
Y195657D01*
X156434Y125241D02*
Y195657D01*
X154629Y187390D02*
X157087D01*
X156934Y125515D02*
Y195657D01*
X157434Y178570D02*
Y185272D01*
X158434Y179848D02*
Y183995D01*
X157934Y179349D02*
Y184494D01*
X153692Y184390D02*
X158023D01*
X154070Y184890D02*
X157646D01*
X158934Y180199D02*
Y183644D01*
X153150Y183890D02*
X158566D01*
X162934Y180104D02*
Y183739D01*
X163434Y179715D02*
Y184128D01*
X163934Y179152D02*
Y184691D01*
X162434Y180379D02*
Y183464D01*
X164070Y184890D02*
X167646D01*
X163150Y183890D02*
X168566D01*
X163692Y184390D02*
X168023D01*
X154336Y185390D02*
X157380D01*
X164434Y178206D02*
Y185637D01*
X154515Y185890D02*
X157200D01*
X154621Y186390D02*
X157095D01*
X164336Y185390D02*
X167380D01*
X164515Y185890D02*
X167200D01*
X164934Y148801D02*
Y195657D01*
X165934Y149375D02*
Y195657D01*
X165434Y149139D02*
Y195657D01*
X164658Y186890D02*
X167058D01*
X164629Y187390D02*
X167087D01*
X164621Y186390D02*
X167095D01*
X164532Y187891D02*
X167183D01*
X143934Y190721D02*
Y195657D01*
X144658Y188891D02*
X147608D01*
X144434Y190721D02*
Y195657D01*
X141434Y190721D02*
Y195657D01*
X141413Y190721D02*
Y195657D01*
Y190721D02*
X144658D01*
X141934D02*
Y195657D01*
X144658Y187891D02*
X147184D01*
X144658Y188391D02*
X147353D01*
X144658Y189391D02*
X147969D01*
X144658Y189891D02*
X148486D01*
X144658Y190391D02*
X149307D01*
X153434Y189715D02*
Y195657D01*
X152934Y190104D02*
Y195657D01*
X147434Y188570D02*
Y195657D01*
X148434Y189848D02*
Y195657D01*
X147934Y189349D02*
Y195657D01*
X142934Y190721D02*
Y195657D01*
X142434Y190721D02*
Y195657D01*
X148934Y190199D02*
Y195657D01*
X143434Y190721D02*
Y195657D01*
X149434Y190445D02*
Y195657D01*
X152434Y190379D02*
Y195657D01*
X151934Y190566D02*
Y195657D01*
X150434Y190698D02*
Y195657D01*
X149934Y190608D02*
Y195657D01*
X151434Y190677D02*
Y195657D01*
X150934Y190721D02*
Y195657D01*
X154434Y188206D02*
Y195657D01*
X154532Y187891D02*
X157184D01*
X154362Y188391D02*
X157353D01*
X154108Y188891D02*
X157608D01*
X153746Y189391D02*
X157969D01*
X153229Y189891D02*
X158486D01*
X152409Y190391D02*
X159307D01*
X164362Y188391D02*
X167353D01*
X164108Y188891D02*
X167608D01*
X163746Y189391D02*
X167969D01*
X158934Y190199D02*
Y195657D01*
X158434Y189848D02*
Y195657D01*
X163229Y189891D02*
X168486D01*
X162409Y190391D02*
X169307D01*
X153934Y189152D02*
Y195657D01*
X157934Y189349D02*
Y195657D01*
X157434Y188570D02*
Y195657D01*
X159934Y190608D02*
Y195657D01*
X159434Y190445D02*
Y195657D01*
X160934Y190721D02*
Y195657D01*
X160434Y190698D02*
Y195657D01*
X163434Y189715D02*
Y195657D01*
X164434Y188206D02*
Y195657D01*
X163934Y189152D02*
Y195657D01*
X161934Y190566D02*
Y195657D01*
X161434Y190677D02*
Y195657D01*
X162934Y190104D02*
Y195657D01*
X162434Y190379D02*
Y195657D01*
X168434Y149459D02*
Y183995D01*
X169434Y148977D02*
Y183398D01*
X168934Y149263D02*
Y183644D01*
X172934Y170133D02*
Y183739D01*
X167934Y149578D02*
Y184494D01*
X173150Y183890D02*
X178566D01*
X173434Y170493D02*
Y184128D01*
X182434Y157172D02*
Y183464D01*
X183434Y157283D02*
Y184128D01*
X183934Y157084D02*
Y184691D01*
X173934Y170630D02*
Y184691D01*
X174070Y184890D02*
X177646D01*
X182934Y157309D02*
Y183739D01*
X173692Y184390D02*
X178023D01*
X166434Y149530D02*
Y195657D01*
X167434Y149628D02*
Y185272D01*
X166934Y149613D02*
Y195657D01*
X174434Y170604D02*
Y185637D01*
X174336Y185390D02*
X177380D01*
X174515Y185890D02*
X177200D01*
X174934Y170405D02*
Y195657D01*
X184434Y156603D02*
Y185637D01*
X175434Y169924D02*
Y195657D01*
X174658Y186890D02*
X177058D01*
X174629Y187390D02*
X177087D01*
X174621Y186390D02*
X177095D01*
X184070Y184890D02*
X187646D01*
X183150Y183890D02*
X188566D01*
X183692Y184390D02*
X188023D01*
X184621Y186390D02*
X187095D01*
X184658Y186890D02*
X187058D01*
X184336Y185390D02*
X187380D01*
X184515Y185890D02*
X187200D01*
X187434Y157017D02*
Y185272D01*
X188434Y169460D02*
Y183995D01*
X187934Y156428D02*
Y184494D01*
X188934Y170381D02*
Y183644D01*
X193934Y169835D02*
Y184691D01*
X194434Y170428D02*
Y185637D01*
X194658Y186890D02*
X197058D01*
X184934Y156045D02*
Y195657D01*
X185934Y157214D02*
Y195657D01*
X185434Y156911D02*
Y195657D01*
X186934Y157258D02*
Y195657D01*
X186434Y157317D02*
Y195657D01*
X184629Y187390D02*
X187087D01*
X184532Y187891D02*
X187183D01*
X194934Y170697D02*
Y195657D01*
X196934Y170122D02*
Y195657D01*
X196434Y170554D02*
Y195657D01*
X195434Y170796D02*
Y195657D01*
X194629Y187390D02*
X197087D01*
X195934Y170752D02*
Y195657D01*
X167434Y188570D02*
Y195657D01*
X168434Y189848D02*
Y195657D01*
X167934Y189349D02*
Y195657D01*
X170934Y190721D02*
Y195657D01*
X170434Y190698D02*
Y195657D01*
X171934Y190566D02*
Y195657D01*
X171434Y190677D02*
Y195657D01*
X174532Y187891D02*
X177183D01*
X174362Y188391D02*
X177353D01*
X174108Y188891D02*
X177608D01*
X173746Y189391D02*
X177969D01*
X172434Y190379D02*
Y195657D01*
X173229Y189891D02*
X178486D01*
X172409Y190391D02*
X179307D01*
X173434Y189715D02*
Y195657D01*
X174434Y188206D02*
Y195657D01*
X173934Y189152D02*
Y195657D01*
X169434Y190445D02*
Y195657D01*
X168934Y190199D02*
Y195657D01*
X172934Y190104D02*
Y195657D01*
X169934Y190608D02*
Y195657D01*
X177434Y188570D02*
Y195657D01*
X178434Y189848D02*
Y195657D01*
X177934Y189349D02*
Y195657D01*
X179434Y190445D02*
Y195657D01*
X178934Y190199D02*
Y195657D01*
X180434Y190698D02*
Y195657D01*
X179934Y190608D02*
Y195657D01*
X183434Y189715D02*
Y195657D01*
X183746Y189391D02*
X187969D01*
X183229Y189891D02*
X188486D01*
X181434Y190677D02*
Y195657D01*
X180934Y190721D02*
Y195657D01*
X182409Y190391D02*
X189307D01*
X181934Y190566D02*
Y195657D01*
X184434Y188206D02*
Y195657D01*
X184362Y188391D02*
X187353D01*
X194434Y188206D02*
Y195657D01*
X187434Y188570D02*
Y195657D01*
X183934Y189152D02*
Y195657D01*
X184108Y188891D02*
X187608D01*
X193934Y189152D02*
Y195657D01*
X182934Y190104D02*
Y195657D01*
X188434Y189848D02*
Y195657D01*
X187934Y189349D02*
Y195657D01*
X188934Y190199D02*
Y195657D01*
X182434Y190379D02*
Y195657D01*
X189934Y190608D02*
Y195657D01*
X189434Y190445D02*
Y195657D01*
X192434Y190379D02*
Y195657D01*
X193434Y189715D02*
Y195657D01*
X192934Y190104D02*
Y195657D01*
X190934Y190721D02*
Y195657D01*
X190434Y190698D02*
Y195657D01*
X191934Y190566D02*
Y195657D01*
X191434Y190677D02*
Y195657D01*
X141553Y111890D02*
X209489D01*
X141553Y112390D02*
X210159D01*
X141553Y112891D02*
X241371D01*
X141553Y115891D02*
X231725D01*
X141553Y114891D02*
X236725D01*
X141553Y115391D02*
X235861D01*
X147942Y109390D02*
X209677D01*
X146647Y108390D02*
X222545D01*
X147627Y108890D02*
X221884D01*
X148000Y110390D02*
X209105D01*
X147769Y110890D02*
X209078D01*
X148052Y109890D02*
X209283D01*
X147207Y111390D02*
X209194D01*
X141553Y117391D02*
X230376D01*
X141553Y116391D02*
X230861D01*
X141553Y116891D02*
X230521D01*
X141553Y117891D02*
X230377D01*
X159510Y118391D02*
X230524D01*
X160608Y118891D02*
X230867D01*
X161035Y124890D02*
X236259D01*
X161214Y119390D02*
X231750D01*
X162301Y121890D02*
X235777D01*
X162290Y122390D02*
X235383D01*
X162212Y122890D02*
X235205D01*
X162062Y123390D02*
X235178D01*
X161832Y123890D02*
X235294D01*
X161502Y124390D02*
X235589D01*
X141553Y113891D02*
X241673D01*
X141553Y114391D02*
X241784D01*
X141553Y125891D02*
X353135D01*
X141552Y127391D02*
X353135D01*
X141552Y127891D02*
X353135D01*
X141553Y126391D02*
X353135D01*
X141552Y126891D02*
X353135D01*
X141553Y113391D02*
X241441D01*
X149864Y107890D02*
X247617D01*
X161628Y119890D02*
X256536D01*
X162122Y120890D02*
X245701D01*
X162246Y121390D02*
X245241D01*
X161921Y120390D02*
X256879D01*
X160325Y125391D02*
X353135D01*
X139848Y132890D02*
X353135D01*
X140848Y131890D02*
X353135D01*
X140348Y132390D02*
X353135D01*
X139413Y134390D02*
X353135D01*
X139413Y134890D02*
X353135D01*
X139413Y133390D02*
X353135D01*
X139413Y133890D02*
X353135D01*
X141552Y129391D02*
X353135D01*
X141552Y128391D02*
X353135D01*
X141552Y128891D02*
X353135D01*
X141552Y130891D02*
X353135D01*
X141348Y131391D02*
X353135D01*
X141552Y129891D02*
X353135D01*
X141552Y130391D02*
X353135D01*
X132413Y138891D02*
X237771D01*
X132413Y137891D02*
X238061D01*
X132413Y138391D02*
X237878D01*
X132413Y139391D02*
X237731D01*
X132413Y139891D02*
X237758D01*
X132413Y140391D02*
X237852D01*
X132413Y141891D02*
X238627D01*
X132413Y140891D02*
X238019D01*
X132953Y136890D02*
X238713D01*
X132453Y137390D02*
X238331D01*
X170820Y144390D02*
X201905D01*
X170986Y144890D02*
X201626D01*
X132413Y141391D02*
X238270D01*
X170571Y143891D02*
X202632D01*
X132413Y151391D02*
X238188D01*
X132413Y150391D02*
X238968D01*
X132413Y150891D02*
X238511D01*
X132413Y153391D02*
X237736D01*
X132413Y153891D02*
X237795D01*
X132413Y151891D02*
X237962D01*
X132413Y152391D02*
X237817D01*
X171078Y145390D02*
X201540D01*
X171104Y145890D02*
X201615D01*
X171063Y146390D02*
X201877D01*
X170953Y146890D02*
X202539D01*
X138874Y162891D02*
X200493D01*
X132413Y152891D02*
X237743D01*
X139913Y166891D02*
X229894D01*
X133453Y136390D02*
X239263D01*
X139055Y135390D02*
X353135D01*
X138555Y135890D02*
X240173D01*
X168633Y149390D02*
X353135D01*
X132413Y149890D02*
X239658D01*
X132413Y157390D02*
X353135D01*
X132413Y157890D02*
X353135D01*
X168918Y142391D02*
X239137D01*
X169711Y142891D02*
X239940D01*
X170217Y143391D02*
X353135D01*
X170112Y148390D02*
X353135D01*
X169557Y148890D02*
X353135D01*
X170769Y147390D02*
X353135D01*
X170497Y147890D02*
X353135D01*
X132413Y159390D02*
X239199D01*
X132413Y158390D02*
X353135D01*
X132413Y158890D02*
X353135D01*
X139913Y164391D02*
X352413D01*
X139913Y164891D02*
X352413D01*
X139374Y163391D02*
X352413D01*
X139874Y163891D02*
X352413D01*
X139913Y166391D02*
X242227D01*
X139913Y165391D02*
X243075D01*
X139913Y165891D02*
X242472D01*
X139913Y172390D02*
X352413D01*
X139913Y172890D02*
X352413D01*
X139913Y171390D02*
X352413D01*
X139913Y171890D02*
X352413D01*
X183071Y102891D02*
X203492D01*
X182802Y101891D02*
X204445D01*
X183015Y102391D02*
X203784D01*
X182984Y103391D02*
X203377D01*
X182731Y103891D02*
X203406D01*
X182181Y104391D02*
X203586D01*
X182659Y104891D02*
X203984D01*
X212065Y109390D02*
X221592D01*
X212460Y109890D02*
X221477D01*
X212638Y110390D02*
X221506D01*
X212665Y110890D02*
X221686D01*
X212549Y111390D02*
X222084D01*
X203434Y104009D02*
Y143835D01*
X203934Y104845D02*
Y144019D01*
X204434Y105180D02*
Y144467D01*
X230434Y118154D02*
Y166571D01*
X230934Y118957D02*
Y166481D01*
X233457Y116391D02*
X235376D01*
X232592Y115891D02*
X235521D01*
X233796Y116891D02*
X235377D01*
X235434Y117154D02*
Y122301D01*
X231434Y119285D02*
Y166552D01*
X233942Y117391D02*
X235524D01*
X233941Y117891D02*
X235866D01*
X182951Y105391D02*
X244716D01*
X182342Y101391D02*
X352413D01*
X205898Y101891D02*
X352413D01*
X183065Y105891D02*
X244765D01*
X183036Y106391D02*
X244970D01*
X182856Y106890D02*
X245415D01*
X182458Y107390D02*
X247485D01*
X206965Y103391D02*
X276673D01*
X206559Y102391D02*
X352413D01*
X206851Y102891D02*
X277538D01*
X206756Y104391D02*
X245071D01*
X206359Y104891D02*
X244809D01*
X206936Y103891D02*
X245643D01*
X223998Y108390D02*
X247936D01*
X225036Y110390D02*
X240675D01*
X224659Y108890D02*
X241399D01*
X224951Y109390D02*
X240941D01*
X224856Y110890D02*
X240762D01*
X224459Y111390D02*
X241016D01*
X212254Y111890D02*
X241569D01*
X211584Y112390D02*
X241443D01*
X235934Y117957D02*
Y121766D01*
X225065Y109890D02*
X240729D01*
X233794Y118391D02*
X236750D01*
X236434Y118285D02*
Y121519D01*
X233451Y118891D02*
X256388D01*
X232567Y119390D02*
X256389D01*
X191161Y159890D02*
X200167D01*
X187394Y154391D02*
X237923D01*
X187870Y154891D02*
X238129D01*
X191773Y160890D02*
X199321D01*
X191625Y161890D02*
X199359D01*
X191596Y160390D02*
X199566D01*
X191229Y162390D02*
X199658D01*
X201934Y146459D02*
Y160148D01*
X231934Y119423D02*
Y166809D01*
X202434Y146844D02*
Y161053D01*
X191782Y161390D02*
X199260D01*
X196338Y167391D02*
X229520D01*
X200434Y162876D02*
Y173145D01*
X199934Y162639D02*
Y173235D01*
X196947Y167891D02*
X229375D01*
X197223Y168391D02*
X229394D01*
X197325Y168891D02*
X229584D01*
X197285Y169390D02*
X230045D01*
X232434Y119416D02*
Y167451D01*
X235934Y124709D02*
Y173122D01*
X235434Y124174D02*
Y173163D01*
X200934Y162931D02*
Y173122D01*
X201434Y162826D02*
Y173165D01*
X236434Y124956D02*
Y173147D01*
X188067Y155391D02*
X238428D01*
X203648Y143891D02*
X353135D01*
X188091Y155891D02*
X238850D01*
X201551Y159890D02*
X238543D01*
X202152Y160390D02*
X238252D01*
X187952Y156391D02*
X239472D01*
X187589Y156890D02*
X240638D01*
X204375Y144390D02*
X353135D01*
X204654Y144890D02*
X353135D01*
X204403Y146390D02*
X353135D01*
X203742Y146890D02*
X353135D01*
X204740Y145390D02*
X353135D01*
X204666Y145890D02*
X353135D01*
X202397Y160890D02*
X238138D01*
X202359Y161890D02*
X238349D01*
X202060Y162390D02*
X238749D01*
X201225Y162891D02*
X250569D01*
X197092Y169890D02*
X352413D01*
X196669Y170390D02*
X352413D01*
X190365Y170890D02*
X352413D01*
X202458Y161390D02*
X238168D01*
X232033Y166891D02*
X242165D01*
X232407Y167391D02*
X242264D01*
X232552Y167891D02*
X242562D01*
X232533Y168391D02*
X243392D01*
X232343Y168891D02*
X352413D01*
X231882Y169390D02*
X352413D01*
X163692Y174390D02*
X198023D01*
X162262Y173390D02*
X199453D01*
X163150Y173890D02*
X198566D01*
X164336Y175391D02*
X197380D01*
X164070Y174890D02*
X197646D01*
X164108Y178891D02*
X197608D01*
X199434Y162061D02*
Y173398D01*
X201934Y162518D02*
Y173277D01*
X202434Y161613D02*
Y173464D01*
X164621Y176391D02*
X197095D01*
X164532Y177891D02*
X197184D01*
X164515Y175891D02*
X197200D01*
X164362Y178391D02*
X197353D01*
X197434Y178570D02*
Y185272D01*
X163746Y179391D02*
X197969D01*
X197934Y179349D02*
Y184494D01*
X163229Y179891D02*
X198486D01*
X198434Y179848D02*
Y183995D01*
X162409Y180391D02*
X199307D01*
X198934Y180199D02*
Y183644D01*
X199434Y180445D02*
Y183398D01*
X201934Y180566D02*
Y183277D01*
X202434Y180379D02*
Y183464D01*
X200434Y180698D02*
Y183145D01*
X199934Y180607D02*
Y183235D01*
X200934Y180721D02*
Y183122D01*
X201434Y180677D02*
Y183165D01*
X202934Y146995D02*
Y173739D01*
X203434Y146981D02*
Y174128D01*
X203934Y146797D02*
Y174691D01*
X203692Y174390D02*
X223160D01*
X204070Y174890D02*
X222783D01*
X202262Y173390D02*
X224590D01*
X203150Y173890D02*
X223703D01*
X204434Y146349D02*
Y175637D01*
X204336Y175391D02*
X222517D01*
X204515Y175891D02*
X222337D01*
X204658Y176891D02*
X222195D01*
X204629Y177391D02*
X222224D01*
X204621Y176391D02*
X222232D01*
X204532Y177891D02*
X222321D01*
X202934Y180104D02*
Y183739D01*
X202409Y180391D02*
X224444D01*
X141413Y181890D02*
X349660D01*
X141413Y182390D02*
X349660D01*
X140949Y180891D02*
X349660D01*
X141413Y181391D02*
X349660D01*
X204434Y178206D02*
Y185637D01*
X204362Y178391D02*
X222490D01*
X204108Y178891D02*
X222745D01*
X203434Y179715D02*
Y184128D01*
X203934Y179152D02*
Y184691D01*
X203746Y179391D02*
X223106D01*
X203229Y179891D02*
X223623D01*
X193692Y184390D02*
X198023D01*
X192262Y183390D02*
X199453D01*
X193150Y183890D02*
X198566D01*
X194070Y184890D02*
X197646D01*
X193746Y189391D02*
X197969D01*
X193229Y189891D02*
X198486D01*
X192409Y190391D02*
X199307D01*
X194621Y186390D02*
X197095D01*
X194336Y185390D02*
X197380D01*
X194515Y185890D02*
X197200D01*
X194532Y187891D02*
X197184D01*
X194362Y188391D02*
X197353D01*
X194108Y188891D02*
X197608D01*
X197934Y189349D02*
Y195657D01*
X197434Y188570D02*
Y195657D01*
X198934Y190199D02*
Y195657D01*
X198434Y189848D02*
Y195657D01*
X199934Y190608D02*
Y195657D01*
X199434Y190445D02*
Y195657D01*
X200934Y190721D02*
Y195657D01*
X200434Y190698D02*
Y195657D01*
X203434Y189715D02*
Y195657D01*
X204434Y188206D02*
Y195657D01*
X203934Y189152D02*
Y195657D01*
X201934Y190566D02*
Y195657D01*
X201434Y190677D02*
Y195657D01*
X202934Y190104D02*
Y195657D01*
X202434Y190379D02*
Y195657D01*
X203150Y183890D02*
X223703D01*
X141413Y182890D02*
X349660D01*
X202262Y183390D02*
X224590D01*
X204070Y184890D02*
X222783D01*
X204108Y188891D02*
X222745D01*
X203692Y184390D02*
X223160D01*
X203746Y189391D02*
X223106D01*
X204621Y186390D02*
X222232D01*
X204336Y185390D02*
X222517D01*
X204515Y185890D02*
X222337D01*
X204658Y186890D02*
X222195D01*
X204629Y187390D02*
X222224D01*
X204532Y187891D02*
X222321D01*
X204362Y188391D02*
X222490D01*
X141413Y193891D02*
X349660D01*
X141413Y192891D02*
X349660D01*
X141413Y193391D02*
X349660D01*
X141413Y195390D02*
X349660D01*
X141413Y195657D02*
X349660D01*
X141413Y194390D02*
X349660D01*
X141413Y194890D02*
X349660D01*
X203229Y189891D02*
X223623D01*
X202409Y190391D02*
X224444D01*
X141413Y191891D02*
X349660D01*
X141413Y192391D02*
X349660D01*
X141413Y190891D02*
X349660D01*
X141413Y191391D02*
X349660D01*
X222434Y111631D02*
Y175594D01*
X223434Y111830D02*
Y174114D01*
X222934Y111806D02*
Y174669D01*
X223434Y179729D02*
Y184114D01*
X222934Y179174D02*
Y184669D01*
X223934Y180114D02*
Y183729D01*
Y111711D02*
Y173729D01*
X224934Y110726D02*
Y173272D01*
X224434Y111411D02*
Y173457D01*
X228434Y179835D02*
Y184008D01*
X228934Y179330D02*
Y184513D01*
X229434Y168552D02*
Y175306D01*
Y178537D02*
Y185306D01*
X205934Y105168D02*
Y195657D01*
X206934Y103901D02*
Y195657D01*
X206434Y104820D02*
Y195657D01*
X205434Y105318D02*
Y195657D01*
X204934Y105322D02*
Y195657D01*
X209934Y112274D02*
Y195657D01*
X209434Y111821D02*
Y195657D01*
X211934Y112190D02*
Y195657D01*
X221934Y111243D02*
Y195657D01*
X212434Y111630D02*
Y195657D01*
X210934Y112536D02*
Y195657D01*
X210434Y112484D02*
Y195657D01*
X222434Y178249D02*
Y185594D01*
X211434Y112447D02*
Y195657D01*
X228829Y174390D02*
X233160D01*
X227399Y173390D02*
X234590D01*
X228287Y173890D02*
X233703D01*
X229652Y175891D02*
X232337D01*
X229669Y177891D02*
X232320D01*
X229207Y174890D02*
X232783D01*
X229473Y175391D02*
X232517D01*
X232934Y119262D02*
Y174669D01*
X233934Y117933D02*
Y173729D01*
X233434Y118907D02*
Y174114D01*
X229795Y176891D02*
X232195D01*
X229766Y177391D02*
X232224D01*
X232434Y168710D02*
Y175594D01*
X229758Y176391D02*
X232232D01*
X229934Y169306D02*
Y195657D01*
X230934Y169680D02*
Y195657D01*
X230434Y169591D02*
Y195657D01*
X229499Y178391D02*
X232490D01*
X229245Y178891D02*
X232745D01*
X228883Y179391D02*
X233106D01*
X228366Y179891D02*
X233623D01*
X231434Y169610D02*
Y195657D01*
X231934Y169352D02*
Y195657D01*
X232934Y179174D02*
Y184669D01*
X232434Y178249D02*
Y185594D01*
X233934Y180114D02*
Y183729D01*
X233434Y179729D02*
Y184114D01*
X224434Y180386D02*
Y183457D01*
X225434Y180680D02*
Y183163D01*
X224934Y180570D02*
Y183272D01*
X225934Y180721D02*
Y183122D01*
X224934Y190570D02*
Y195657D01*
X226434Y180696D02*
Y183147D01*
X226934Y180603D02*
Y183239D01*
X227434Y180438D02*
Y183405D01*
X227934Y180189D02*
Y183654D01*
X229795Y186890D02*
X232195D01*
X229766Y187390D02*
X232224D01*
X229758Y186390D02*
X232232D01*
X229669Y187891D02*
X232320D01*
X222434Y188249D02*
Y195657D01*
X223434Y189729D02*
Y195657D01*
X222934Y189174D02*
Y195657D01*
X224434Y190386D02*
Y195657D01*
X223934Y190114D02*
Y195657D01*
X225934Y190721D02*
Y195657D01*
X225434Y190680D02*
Y195657D01*
X228434Y189835D02*
Y195657D01*
X229434Y188537D02*
Y195657D01*
X228934Y189330D02*
Y195657D01*
X226934Y190603D02*
Y195657D01*
X226434Y190696D02*
Y195657D01*
X227934Y190189D02*
Y195657D01*
X227434Y190438D02*
Y195657D01*
X228287Y183890D02*
X233703D01*
X227546Y180391D02*
X234444D01*
X227399Y183390D02*
X234590D01*
X229473Y185390D02*
X232517D01*
X229499Y188391D02*
X232490D01*
X228829Y184390D02*
X233160D01*
X229207Y184890D02*
X232783D01*
X234434Y180386D02*
Y183457D01*
X236934Y180603D02*
Y183239D01*
X234934Y180570D02*
Y183272D01*
X235434Y180680D02*
Y183163D01*
X229652Y185890D02*
X232337D01*
X235934Y180721D02*
Y183122D01*
X236434Y180696D02*
Y183147D01*
X232434Y188249D02*
Y195657D01*
X229245Y188891D02*
X232745D01*
X228883Y189391D02*
X233106D01*
X232934Y189174D02*
Y195657D01*
X228366Y189891D02*
X233623D01*
X227546Y190391D02*
X234444D01*
X233434Y189729D02*
Y195657D01*
X234434Y190386D02*
Y195657D01*
X233934Y190114D02*
Y195657D01*
X235434Y190680D02*
Y195657D01*
X234934Y190570D02*
Y195657D01*
X236434Y190696D02*
Y195657D01*
X235934Y190721D02*
Y195657D01*
X238434Y13079D02*
Y17217D01*
X238934Y13079D02*
Y17217D01*
X239434Y13079D02*
Y17217D01*
X236934Y13079D02*
Y17217D01*
X237934Y13079D02*
Y17217D01*
X237434Y13079D02*
Y17217D01*
X241934Y13079D02*
Y17217D01*
X242934Y13079D02*
Y17217D01*
X242434Y13079D02*
Y17217D01*
X240434Y13079D02*
Y17217D01*
X239934Y13079D02*
Y17217D01*
X241434Y13079D02*
Y17217D01*
X240934Y13079D02*
Y17217D01*
X243434Y13079D02*
Y17217D01*
X243934Y13079D02*
Y17217D01*
X244434Y13079D02*
Y17217D01*
X243934Y23316D02*
Y46738D01*
X243434Y23316D02*
Y46816D01*
X244934Y13079D02*
Y17217D01*
Y23316D02*
Y47025D01*
X245434Y13079D02*
Y17217D01*
X245934Y13079D02*
Y17217D01*
X246434Y13079D02*
Y17217D01*
X246934Y13079D02*
Y17217D01*
X245434Y23316D02*
Y47507D01*
X247434Y13079D02*
Y17217D01*
X247534Y23316D02*
Y24500D01*
X249934Y13079D02*
Y17217D01*
X250934Y13079D02*
Y17217D01*
X250434Y13079D02*
Y17217D01*
X248434Y13079D02*
Y17217D01*
X247934Y13079D02*
Y17217D01*
X249434Y13079D02*
Y17217D01*
X248934Y13079D02*
Y17217D01*
X253434Y13079D02*
Y17217D01*
X254434Y13079D02*
Y17217D01*
X253934Y13079D02*
Y17217D01*
X251934Y13079D02*
Y17217D01*
X251434Y13079D02*
Y17217D01*
X252934Y13079D02*
Y17217D01*
X252434Y13079D02*
Y17217D01*
X255934Y13079D02*
Y17217D01*
X256934Y13079D02*
Y17217D01*
X256434Y13079D02*
Y17217D01*
X254934Y13079D02*
Y17217D01*
X253934Y23316D02*
Y24295D01*
X255434Y13079D02*
Y17217D01*
X254705Y23316D02*
X273555Y42167D01*
X257434Y13079D02*
Y17217D01*
X258434Y13079D02*
Y17217D01*
X257934Y13079D02*
Y17217D01*
X259434Y13079D02*
Y17217D01*
X258934Y13079D02*
Y17217D01*
X259934Y13079D02*
Y17248D01*
X259903Y17217D02*
X279803Y36716D01*
X247434Y23316D02*
Y32363D01*
X247555Y24499D02*
Y26766D01*
X247934Y27145D02*
Y32153D01*
X248434Y27643D02*
Y32101D01*
X248934Y28142D02*
Y32190D01*
X249353Y32390D02*
X253195D01*
X249434Y28640D02*
Y32447D01*
X253434Y23316D02*
Y23796D01*
X253089Y23316D02*
X254705D01*
X254434D02*
Y24795D01*
X253089Y23391D02*
X254779D01*
X254934Y23546D02*
Y25295D01*
X253529Y23890D02*
X255279D01*
X255434Y24046D02*
Y25796D01*
X242434Y23316D02*
Y47580D01*
X244434Y23316D02*
Y46801D01*
X242934Y23316D02*
Y47058D01*
X244685Y46891D02*
X255755D01*
X245346Y47390D02*
X255755D01*
X245544Y49391D02*
X255755D01*
X246934Y23316D02*
Y32816D01*
X249862Y32890D02*
X253696D01*
X249934Y29139D02*
Y33006D01*
X250098Y33391D02*
X254198D01*
X250172Y33891D02*
X254699D01*
X250103Y34391D02*
X255201D01*
X249874Y34890D02*
X255702D01*
X254029Y24390D02*
X255779D01*
X254529Y24891D02*
X256279D01*
X255934Y24545D02*
Y26296D01*
X255029Y25390D02*
X256779D01*
X256434Y25045D02*
Y26796D01*
X255529Y25890D02*
X257279D01*
X256029Y26390D02*
X257779D01*
X256934Y25545D02*
Y27296D01*
X257434Y26046D02*
Y27795D01*
X257934Y26546D02*
Y28295D01*
X256529Y26891D02*
X258279D01*
X257029Y27391D02*
X258779D01*
X257529Y27891D02*
X259279D01*
X258029Y28390D02*
X259779D01*
X247555Y26766D02*
X255755Y34944D01*
X258434Y27046D02*
Y28795D01*
X253089Y23450D02*
X261855Y32217D01*
X245753Y48390D02*
X255755D01*
X245724Y48891D02*
X255755D01*
X249380Y35390D02*
X255755D01*
X245638Y47890D02*
X255755D01*
X258934Y27545D02*
Y29296D01*
X259434Y28045D02*
Y29796D01*
X259934Y28545D02*
Y30296D01*
X258529Y28890D02*
X260279D01*
X259029Y29390D02*
X260779D01*
X259529Y29890D02*
X261279D01*
X260029Y30391D02*
X261779D01*
X260434Y13079D02*
Y17738D01*
X260934Y13079D02*
Y18227D01*
X261434Y13079D02*
Y18718D01*
X261934Y13079D02*
Y19207D01*
X262121Y19390D02*
X265734D01*
X261101Y18391D02*
X266938D01*
X261611Y18891D02*
X266073D01*
X267934Y13079D02*
Y18428D01*
X268434Y13079D02*
Y18685D01*
X268934Y13079D02*
Y19245D01*
X266434Y13079D02*
Y18601D01*
X265934Y13079D02*
Y19054D01*
X267434Y13079D02*
Y18339D01*
X266934Y13079D02*
Y18391D01*
X262934Y13079D02*
Y20187D01*
X263434Y13079D02*
Y20677D01*
X263934Y13079D02*
Y21167D01*
X262434Y13079D02*
Y19697D01*
X262631Y19891D02*
X265588D01*
X263142Y20391D02*
X265589D01*
X263652Y20890D02*
X265736D01*
X264434Y13079D02*
Y21657D01*
X264934Y13079D02*
Y22147D01*
X265434Y13079D02*
Y22637D01*
X264162Y21391D02*
X266079D01*
X265934Y21222D02*
Y23127D01*
X266434Y21674D02*
Y23617D01*
X268434Y21590D02*
Y25577D01*
X269434Y13079D02*
Y26557D01*
X268664Y21391D02*
X271292D01*
X268934Y21030D02*
Y26067D01*
X269153Y20391D02*
X272245D01*
X269006Y20890D02*
X271584D01*
X273434Y13079D02*
Y20298D01*
X273934Y13079D02*
Y20517D01*
X274434Y13079D02*
Y20989D01*
X271934Y13079D02*
Y20566D01*
X271434Y13079D02*
Y21101D01*
X272934Y13079D02*
Y20238D01*
X272434Y13079D02*
Y20320D01*
X275434Y13079D02*
Y32436D01*
X275934Y13079D02*
Y32926D01*
X276434Y13079D02*
Y33416D01*
X269934Y13079D02*
Y27047D01*
X270434Y13079D02*
Y27536D01*
X270934Y13079D02*
Y28027D01*
X274934Y13079D02*
Y31946D01*
X278934Y13079D02*
Y35866D01*
X279434Y13079D02*
Y36356D01*
X280434Y13079D02*
Y49454D01*
X276934Y13079D02*
Y33906D01*
X277434Y13079D02*
Y34396D01*
X277934Y13079D02*
Y34886D01*
X278434Y13079D02*
Y35376D01*
X260434Y29046D02*
Y30795D01*
X260934Y29546D02*
Y31295D01*
X261434Y30046D02*
Y31795D01*
X260529Y30891D02*
X262279D01*
X261029Y31391D02*
X262779D01*
X261529Y31890D02*
X263279D01*
X261855Y32890D02*
X264279D01*
X266934Y21884D02*
Y24107D01*
X264672Y21891D02*
X266963D01*
X267934Y21847D02*
Y25087D01*
X267434Y21936D02*
Y24597D01*
X261855Y32390D02*
X263779D01*
X267780Y21891D02*
X271177D01*
X265183Y22390D02*
X271206D01*
X261855Y36891D02*
X268279D01*
X261855Y37391D02*
X268779D01*
X261855Y37890D02*
X269279D01*
X261855Y38390D02*
X269779D01*
X261855Y38890D02*
X270279D01*
X261855Y39391D02*
X270779D01*
X261855Y39891D02*
X271279D01*
X261855Y33391D02*
X264779D01*
X261855Y33891D02*
X265279D01*
X261855Y34391D02*
X265779D01*
X261855Y34890D02*
X266279D01*
X261855Y35390D02*
X266779D01*
X261855Y35890D02*
X267279D01*
X261855Y36391D02*
X267779D01*
X265693Y22891D02*
X271386D01*
X266203Y23391D02*
X271784D01*
X261855Y40391D02*
X271779D01*
X261855Y40890D02*
X272279D01*
X261855Y41390D02*
X272779D01*
X261855Y41890D02*
X273279D01*
X261855Y42390D02*
X273555D01*
X271434Y22974D02*
Y28516D01*
X271934Y23509D02*
Y29006D01*
X274434Y23086D02*
Y31456D01*
X272434Y23756D02*
Y29496D01*
X272934Y23837D02*
Y29986D01*
X273434Y23777D02*
Y30476D01*
X273934Y23558D02*
Y30966D01*
X261855Y47390D02*
X273555D01*
X261855Y46391D02*
X273555D01*
X261855Y46891D02*
X273555D01*
X261855Y48891D02*
X273555D01*
X261855Y49391D02*
X273555D01*
X261855Y47890D02*
X273555D01*
X261855Y48390D02*
X273555D01*
X261855Y43891D02*
X273555D01*
X261855Y42891D02*
X273555D01*
X261855Y43391D02*
X273555D01*
X261855Y45390D02*
X273555D01*
X261855Y45891D02*
X273555D01*
X261855Y44390D02*
X273555D01*
X261855Y44890D02*
X273555D01*
X238934Y23316D02*
Y55517D01*
X240434Y23316D02*
Y55954D01*
X239434Y23316D02*
Y55989D01*
X237434Y23316D02*
Y55319D01*
X237934Y23316D02*
Y55238D01*
X238434Y23316D02*
Y55298D01*
X240934Y23316D02*
Y55501D01*
X241934Y23316D02*
Y55239D01*
X241434Y23316D02*
Y55291D01*
X242434Y49495D02*
Y55328D01*
X242934Y50018D02*
Y55585D01*
X243434Y50259D02*
Y56145D01*
X239934Y23316D02*
Y86925D01*
X245934Y23316D02*
Y91725D01*
X246434Y23316D02*
Y92207D01*
X243934Y50337D02*
Y82297D01*
X244434Y50274D02*
Y82514D01*
X244934Y50050D02*
Y82983D01*
X245434Y49568D02*
Y87780D01*
X246934Y34983D02*
Y103715D01*
X249434Y35352D02*
Y105392D01*
X249934Y34793D02*
Y105511D01*
X247434Y35436D02*
Y103918D01*
X247934Y35646D02*
Y104359D01*
X248934Y35609D02*
Y105417D01*
X248434Y35698D02*
Y105592D01*
X251434Y30635D02*
Y63516D01*
X251934Y31133D02*
Y63438D01*
X252434Y31632D02*
Y63502D01*
X245146Y49891D02*
X255755D01*
Y34944D02*
Y51316D01*
X261855Y49891D02*
X273555D01*
X261855Y32217D02*
Y49891D01*
X261934Y30545D02*
Y49970D01*
X262434Y31045D02*
Y50469D01*
X262934Y31545D02*
Y50969D01*
X262355Y50390D02*
X273555D01*
X263434Y32046D02*
Y51469D01*
X262855Y50890D02*
X273555D01*
X263355Y51390D02*
X273555D01*
X250434Y29638D02*
Y64280D01*
X252934Y32131D02*
Y63725D01*
X250934Y30136D02*
Y63757D01*
X253434Y32629D02*
Y64207D01*
X253934Y33128D02*
Y121607D01*
X254434Y33626D02*
Y121955D01*
X254934Y34125D02*
Y122874D01*
X255434Y34624D02*
Y173163D01*
X255755Y51316D02*
X278455Y74016D01*
X255934Y51495D02*
Y173122D01*
X256934Y52495D02*
Y117830D01*
X256434Y51995D02*
Y118666D01*
X257934Y53496D02*
Y117353D01*
X257434Y52996D02*
Y117495D01*
X239651Y56391D02*
X240192D01*
X238698Y55391D02*
X241145D01*
X239359Y55891D02*
X240484D01*
X236934Y58509D02*
Y81907D01*
X237434Y58756D02*
Y82255D01*
X239556Y57890D02*
X240286D01*
X239159Y58390D02*
X240684D01*
X239765Y56890D02*
X240077D01*
X239736Y57390D02*
X240106D01*
X242434Y58747D02*
Y82569D01*
X241934Y58836D02*
Y83108D01*
X243434Y57930D02*
Y82238D01*
X242934Y58490D02*
Y82321D01*
X238934Y58558D02*
Y86638D01*
X239434Y58086D02*
Y86702D01*
X240434Y58122D02*
Y87407D01*
X237934Y58837D02*
Y83174D01*
X238434Y58777D02*
Y86716D01*
X240934Y58574D02*
Y92938D01*
X241434Y58784D02*
Y92998D01*
X250434Y66195D02*
Y105810D01*
X250934Y66718D02*
Y106492D01*
X253434Y66268D02*
Y121457D01*
X251434Y66960D02*
Y108785D01*
X251934Y67037D02*
Y109275D01*
X252934Y66750D02*
Y121453D01*
X252434Y66974D02*
Y121595D01*
X242598Y55391D02*
X259829D01*
X243259Y55891D02*
X260329D01*
X243551Y56391D02*
X260829D01*
X243665Y56890D02*
X261329D01*
X243636Y57390D02*
X261829D01*
X243456Y57890D02*
X262329D01*
X243058Y58390D02*
X262829D01*
X253153Y63890D02*
X268329D01*
X253547Y64390D02*
X268829D01*
X253725Y64890D02*
X269329D01*
X253752Y65390D02*
X269829D01*
X253636Y65891D02*
X270329D01*
X253341Y66391D02*
X270829D01*
X252671Y66891D02*
X271329D01*
X258434Y53996D02*
Y117357D01*
X258934Y54496D02*
Y117507D01*
X259434Y54996D02*
Y117855D01*
X259934Y55496D02*
Y118774D01*
X260934Y56495D02*
Y195657D01*
X260434Y55996D02*
Y195657D01*
X261434Y56995D02*
Y84181D01*
X262434Y57995D02*
Y83416D01*
X261934Y57495D02*
Y83658D01*
X262934Y58495D02*
Y77988D01*
Y79688D02*
Y83338D01*
X263434Y58995D02*
Y77403D01*
X263934Y32546D02*
Y51969D01*
X264434Y33046D02*
Y52469D01*
X264934Y33546D02*
Y52969D01*
X265434Y34045D02*
Y53470D01*
X265934Y34545D02*
Y53970D01*
X263855Y51890D02*
X273555D01*
X264355Y52390D02*
X273555D01*
X266434Y35045D02*
Y54470D01*
X266934Y35546D02*
Y54970D01*
X267434Y36046D02*
Y55470D01*
X267934Y36546D02*
Y55970D01*
X268434Y37045D02*
Y56470D01*
X268355Y56391D02*
X273555D01*
X268934Y37545D02*
Y56969D01*
X269434Y38045D02*
Y57469D01*
X269934Y38546D02*
Y57969D01*
X270434Y39046D02*
Y58469D01*
X264434Y59996D02*
Y77040D01*
X263934Y59496D02*
Y77137D01*
X264934Y60496D02*
Y77086D01*
X265434Y60996D02*
Y77287D01*
X270934Y39546D02*
Y58969D01*
X271434Y40045D02*
Y59469D01*
X271934Y40545D02*
Y59970D01*
X272434Y41045D02*
Y60470D01*
X272934Y41546D02*
Y60970D01*
X273555Y42167D02*
Y59117D01*
X273434Y42046D02*
Y61470D01*
X265855Y53891D02*
X273555D01*
X264855Y52890D02*
X273555D01*
X265355Y53391D02*
X273555D01*
X267355Y55391D02*
X273555D01*
X267855Y55891D02*
X273555D01*
X266355Y54391D02*
X273555D01*
X266855Y54891D02*
X273555D01*
X279803Y36716D02*
Y56219D01*
Y49891D02*
X280192D01*
X279934Y13079D02*
Y56351D01*
X279803Y50890D02*
X280106D01*
X268855Y56890D02*
X273555D01*
X279803Y51390D02*
X280286D01*
X280434Y51622D02*
Y56851D01*
X270355Y58390D02*
X273555D01*
X269355Y57390D02*
X273555D01*
X269855Y57890D02*
X273555D01*
X270855Y58890D02*
X273555D01*
X271355Y59390D02*
X273838D01*
X271855Y59891D02*
X274354D01*
X272355Y60391D02*
X274869D01*
X273934Y59484D02*
Y61970D01*
X274434Y59969D02*
Y62470D01*
X274934Y60454D02*
Y62969D01*
X272855Y60891D02*
X275385D01*
X275434Y60939D02*
Y63469D01*
X273355Y61391D02*
X275901D01*
X275934Y61423D02*
Y63969D01*
X265934Y61496D02*
Y77724D01*
X271934Y67496D02*
Y105501D01*
X266934Y62495D02*
Y195657D01*
X263434Y80273D02*
Y83401D01*
X263934Y80540D02*
Y83624D01*
X264434Y80636D02*
Y84106D01*
X264934Y80590D02*
Y138252D01*
X272434Y67996D02*
Y104966D01*
X273855Y61891D02*
X276416D01*
X272934Y68496D02*
Y104719D01*
X273434Y68995D02*
Y104638D01*
X273934Y69495D02*
Y104698D01*
X274434Y69995D02*
Y104917D01*
X274934Y70495D02*
Y105389D01*
X266434Y61996D02*
Y195657D01*
X267934Y63495D02*
Y195657D01*
X267434Y62995D02*
Y195657D01*
X265934Y79953D02*
Y195657D01*
X265434Y80389D02*
Y195657D01*
X268934Y64495D02*
Y195657D01*
X268434Y63995D02*
Y195657D01*
X269434Y64995D02*
Y195657D01*
X270434Y65996D02*
Y195657D01*
X269934Y65496D02*
Y195657D01*
X271434Y66996D02*
Y195657D01*
X270934Y66496D02*
Y195657D01*
X275934Y71495D02*
Y195657D01*
X275434Y70995D02*
Y195657D01*
X276434Y61908D02*
Y64469D01*
X274355Y62391D02*
X276932D01*
X274855Y62890D02*
X277448D01*
X275355Y63390D02*
X277963D01*
X275855Y63890D02*
X278479D01*
X276355Y64390D02*
X278994D01*
X276855Y64890D02*
X279510D01*
X276934Y62393D02*
Y64969D01*
X277434Y62878D02*
Y65469D01*
X277934Y63363D02*
Y65970D01*
X278434Y63847D02*
Y66470D01*
X278934Y64332D02*
Y66970D01*
X277355Y65390D02*
X280026D01*
X279434Y64817D02*
Y67470D01*
X266264Y78391D02*
X278455D01*
X265591Y77390D02*
X278455D01*
X266051Y77890D02*
X278455D01*
X265981Y79891D02*
X278455D01*
X265432Y80391D02*
X278455D01*
X266320Y78891D02*
X278455D01*
X266234Y79391D02*
X278455D01*
X276434Y71996D02*
Y103701D01*
X279934Y65302D02*
Y67970D01*
X276934Y72496D02*
Y103166D01*
X277934Y73496D02*
Y102838D01*
X277434Y72996D02*
Y102919D01*
X278455Y74016D02*
Y86717D01*
X278434Y73996D02*
Y102898D01*
X266714Y23890D02*
X287484D01*
X269009Y19390D02*
X300572D01*
X267224Y24390D02*
X290241D01*
X268244Y25390D02*
X289972D01*
X267734Y24891D02*
X290028D01*
X268755Y25890D02*
X290058D01*
X274651Y21391D02*
X287284D01*
X269154Y19891D02*
X300629D01*
X274359Y20890D02*
X287945D01*
X274736Y22390D02*
X286877D01*
X274556Y22891D02*
X286906D01*
X274765Y21891D02*
X286992D01*
X274159Y23391D02*
X287086D01*
X279803Y38390D02*
X281451D01*
X269265Y26390D02*
X290312D01*
X269775Y26891D02*
X290861D01*
X279803Y39891D02*
X280572D01*
X279803Y40391D02*
X280629D01*
X279803Y38890D02*
X280907D01*
X279803Y39391D02*
X280657D01*
X282434Y13079D02*
Y38139D01*
X282934Y13079D02*
Y38228D01*
X283434Y13079D02*
Y38485D01*
X281434Y13079D02*
Y38401D01*
X280934Y13079D02*
Y38854D01*
X281934Y13079D02*
Y38191D01*
X267805Y18391D02*
X300907D01*
X260080Y17391D02*
X339047D01*
X260590Y17890D02*
X301451D01*
X268669Y18891D02*
X300657D01*
X270285Y27391D02*
X344071D01*
X270796Y27891D02*
X344296D01*
X271306Y28390D02*
X344521D01*
X273698Y20391D02*
X300844D01*
X271816Y28890D02*
X344745D01*
X272326Y29390D02*
X344970D01*
X272837Y29890D02*
X345195D01*
X273347Y30391D02*
X345409D01*
X273857Y30891D02*
X345592D01*
X274367Y31391D02*
X345776D01*
X274878Y31890D02*
X345960D01*
X275388Y32390D02*
X346144D01*
X275898Y32890D02*
X346328D01*
X276408Y33391D02*
X346512D01*
X276919Y33891D02*
X346696D01*
X277429Y34391D02*
X346880D01*
X277939Y34890D02*
X347064D01*
X278450Y35390D02*
X347248D01*
X278960Y35890D02*
X347432D01*
X279470Y36391D02*
X347616D01*
X279803Y36891D02*
X347800D01*
X279803Y37391D02*
X347970D01*
X279803Y37890D02*
X348115D01*
X283292Y38390D02*
X348260D01*
X279803Y40890D02*
X280844D01*
X279803Y41390D02*
X281309D01*
X279803Y41890D02*
X349277D01*
X279803Y42390D02*
X349422D01*
X279803Y42891D02*
X349567D01*
X279803Y43391D02*
X349713D01*
X279803Y43891D02*
X349858D01*
X281434Y41474D02*
Y48791D01*
X283434Y41390D02*
X349132D01*
X281934Y41684D02*
Y48739D01*
X279803Y46891D02*
X349959D01*
X282434Y41736D02*
Y48828D01*
X279803Y47390D02*
X349959D01*
X279803Y47890D02*
X349959D01*
X280934Y41021D02*
Y49001D01*
X279803Y48891D02*
X281145D01*
X279803Y49391D02*
X280484D01*
X279803Y51890D02*
X280684D01*
X280934Y52074D02*
Y57351D01*
X279803Y56219D02*
X288800Y65216D01*
X282934Y41647D02*
Y49085D01*
X283434Y41390D02*
Y49645D01*
Y51430D02*
Y59851D01*
X281434Y52284D02*
Y57851D01*
X281934Y52336D02*
Y58351D01*
X282434Y52247D02*
Y58851D01*
X282934Y51990D02*
Y59351D01*
X279803Y45891D02*
X349959D01*
X279803Y44890D02*
X349959D01*
X279803Y45390D02*
X349959D01*
X279803Y52390D02*
X349959D01*
X279803Y52890D02*
X349959D01*
X279803Y46391D02*
X349959D01*
X279803Y48390D02*
X349959D01*
X283259Y49391D02*
X349959D01*
X279803Y44390D02*
X349959D01*
X282598Y48891D02*
X349959D01*
X283456Y51390D02*
X349959D01*
X283059Y51890D02*
X349959D01*
X283551Y49891D02*
X349959D01*
X283636Y50890D02*
X349959D01*
X279803Y54391D02*
X349959D01*
X279803Y53391D02*
X349959D01*
X279803Y53891D02*
X349959D01*
X279803Y55891D02*
X349959D01*
X279974Y56391D02*
X349959D01*
X279803Y54891D02*
X349959D01*
X279803Y55391D02*
X349959D01*
X281474Y57890D02*
X349959D01*
X280474Y56890D02*
X349959D01*
X280974Y57390D02*
X349959D01*
X282974Y59390D02*
X349959D01*
X283474Y59891D02*
X349959D01*
X281974Y58390D02*
X349959D01*
X282474Y58890D02*
X349959D01*
X288934Y13079D02*
Y20757D01*
X289434Y13079D02*
Y20907D01*
X289934Y13079D02*
Y21255D01*
X287434Y13079D02*
Y21230D01*
X286934Y13079D02*
Y22065D01*
X288434Y13079D02*
Y20753D01*
X287934Y13079D02*
Y20895D01*
X292434Y13079D02*
Y23664D01*
X292934Y13079D02*
Y23964D01*
X293434Y13079D02*
Y24649D01*
X290434Y13079D02*
Y22174D01*
X290934Y13079D02*
Y23744D01*
X291934Y13079D02*
Y23545D01*
X291434Y13079D02*
Y23569D01*
X285934Y13079D02*
Y62351D01*
X286434Y13079D02*
Y62851D01*
X293934Y13079D02*
Y65216D01*
X283934Y13079D02*
Y39045D01*
X284434Y13079D02*
Y60851D01*
X284934Y13079D02*
Y61351D01*
X285434Y13079D02*
Y61851D01*
X296434Y13079D02*
Y65216D01*
X297434Y13079D02*
Y65216D01*
X296934Y13079D02*
Y65216D01*
X294934Y13079D02*
Y65216D01*
X294434Y13079D02*
Y65216D01*
X295934Y13079D02*
Y65216D01*
X295434Y13079D02*
Y65216D01*
X301934Y13079D02*
Y17691D01*
X304660Y13079D02*
X307160Y10578D01*
X302434Y13079D02*
Y17639D01*
X302934Y13079D02*
Y17728D01*
X301434Y13079D02*
Y17901D01*
X303292Y17890D02*
X339315D01*
X303434Y13079D02*
Y17985D01*
X307160Y10578D02*
X334881Y10714D01*
X306848Y10891D02*
X334992D01*
X334881Y10714D02*
X338826Y16978D01*
X306348Y11390D02*
X335307D01*
X305848Y11891D02*
X335622D01*
X305348Y12391D02*
X335936D01*
X304848Y12890D02*
X336251D01*
X297934Y13079D02*
Y65216D01*
X298934Y13079D02*
Y65216D01*
X298434Y13079D02*
Y65216D01*
X299934Y13079D02*
Y65216D01*
X299434Y13079D02*
Y65216D01*
X300434Y13079D02*
Y65216D01*
X300934Y13079D02*
Y18354D01*
X303934Y13079D02*
Y18545D01*
X338826Y16978D02*
X342324Y23503D01*
X303836Y18391D02*
X339583D01*
X304086Y18891D02*
X339851D01*
X304171Y19390D02*
X340119D01*
X304113Y19891D02*
X340387D01*
X286934Y23009D02*
Y63351D01*
X289398Y20890D02*
X301309D01*
X283934Y40830D02*
Y60351D01*
X287434Y23845D02*
Y63851D01*
X289859Y23890D02*
X290701D01*
X303898Y20391D02*
X340655D01*
X303434Y20890D02*
X340923D01*
X290059Y21391D02*
X341191D01*
X290351Y21891D02*
X341459D01*
X290434Y22901D02*
Y24132D01*
X290465Y22390D02*
X341728D01*
X290436Y22891D02*
X341996D01*
X287934Y24180D02*
Y64351D01*
X289934Y23820D02*
Y65216D01*
X289434Y24168D02*
Y65216D01*
X288434Y24322D02*
Y64851D01*
X288934Y24318D02*
Y65216D01*
X288800D02*
X300605D01*
X290434Y26543D02*
Y65216D01*
X292934Y26711D02*
Y65216D01*
X293434Y26026D02*
Y65216D01*
X300934Y20522D02*
Y65579D01*
X291434Y27106D02*
Y65216D01*
X290934Y26931D02*
Y65216D01*
X292434Y27011D02*
Y65216D01*
X291934Y27130D02*
Y65216D01*
X290256Y23391D02*
X342264D01*
X292842Y23890D02*
X342498D01*
X292681Y26891D02*
X343847D01*
X283836Y38890D02*
X348405D01*
X284086Y39391D02*
X348551D01*
X284171Y39891D02*
X348696D01*
X284113Y40391D02*
X348841D01*
X293302Y24390D02*
X342723D01*
X293515Y24891D02*
X342948D01*
X342324Y23503D02*
X345359Y30255D01*
X293571Y25390D02*
X343172D01*
X293484Y25890D02*
X343397D01*
X293231Y26390D02*
X343622D01*
X345359Y30255D02*
X347915Y37203D01*
X283898Y40890D02*
X348986D01*
X283665Y50390D02*
X349959D01*
X283974Y60391D02*
X349959D01*
X285474Y61891D02*
X349959D01*
X285974Y62391D02*
X349959D01*
X284474Y60891D02*
X349959D01*
X284974Y61391D02*
X349959D01*
X286974Y63390D02*
X349959D01*
X347915Y37203D02*
X349959Y44238D01*
X286474Y62890D02*
X349959D01*
X288474Y64890D02*
X349959D01*
X300763Y65390D02*
X349959D01*
X287474Y63890D02*
X349959D01*
X287974Y64390D02*
X349959D01*
X277855Y65891D02*
X280541D01*
X278355Y66391D02*
X281057D01*
X278855Y66891D02*
X281573D01*
X279355Y67391D02*
X282088D01*
X279855Y67891D02*
X282604D01*
X280355Y68391D02*
X283120D01*
X280434Y65787D02*
Y68470D01*
X280934Y66272D02*
Y68970D01*
X281434Y66756D02*
Y69469D01*
X280855Y68891D02*
X283635D01*
X281934Y67241D02*
Y69969D01*
X281355Y69390D02*
X284151D01*
X281855Y69890D02*
X284667D01*
X282434Y67726D02*
Y70469D01*
X273555Y59117D02*
X285080Y70292D01*
X261855Y49891D02*
X282735Y70770D01*
X282934Y68211D02*
Y122159D01*
X283434Y68696D02*
Y122822D01*
X283934Y69180D02*
Y184468D01*
X284434Y69665D02*
Y185228D01*
X284934Y70150D02*
Y195657D01*
X295934Y70292D02*
Y96453D01*
X294934Y70292D02*
Y96920D01*
X293434Y70292D02*
Y88369D01*
X293934Y70292D02*
Y88674D01*
X294434Y70292D02*
Y89380D01*
X295434Y70292D02*
Y96591D01*
X301434Y20974D02*
Y66131D01*
X301934Y21184D02*
Y66682D01*
X302434Y21236D02*
Y67233D01*
X302124Y66891D02*
X349959D01*
X302577Y67391D02*
X349959D01*
X301217Y65891D02*
X349959D01*
X301670Y66391D02*
X349959D01*
X302934Y21147D02*
Y67784D01*
X303434Y20890D02*
Y68336D01*
X303934Y20330D02*
Y68887D01*
X303938Y68891D02*
X349959D01*
X304391Y69390D02*
X349959D01*
X303031Y67891D02*
X349959D01*
X303484Y68391D02*
X349959D01*
X298434Y70292D02*
Y184149D01*
X285080Y70292D02*
X298905Y70292D01*
X302168Y73554D01*
X296434Y70292D02*
Y96460D01*
X296934Y70292D02*
Y96615D01*
X297434Y70292D02*
Y96969D01*
X297934Y70292D02*
Y97944D01*
X305434Y12305D02*
Y69516D01*
X306434Y11305D02*
Y69516D01*
X305934Y11805D02*
Y69516D01*
X304434Y13079D02*
Y69438D01*
X300605Y65216D02*
X304505Y69516D01*
X310205D01*
X304934Y12805D02*
Y69516D01*
X282735Y70770D02*
Y86717D01*
X282355Y70390D02*
X299004D01*
X288934Y70292D02*
Y88557D01*
X282735Y70890D02*
X299504D01*
X282735Y71390D02*
X300004D01*
X282735Y71890D02*
X300504D01*
X282735Y72391D02*
X301004D01*
X291934Y70292D02*
Y88437D01*
X292934Y70292D02*
Y88246D01*
X292434Y70292D02*
Y88267D01*
X289934Y70292D02*
Y88238D01*
X289434Y70292D02*
Y88316D01*
X290434Y70292D02*
Y88301D01*
X290934Y70292D02*
Y88525D01*
X287434Y70292D02*
Y185700D01*
X288434Y70292D02*
Y89080D01*
X287934Y70292D02*
Y184721D01*
X285934Y70292D02*
Y195657D01*
X285434Y70292D02*
Y195657D01*
X286934Y70292D02*
Y195657D01*
X286434Y70292D02*
Y195657D01*
X291434Y70292D02*
Y88819D01*
X299434Y70820D02*
Y183474D01*
X298934Y70320D02*
Y183753D01*
X300434Y71820D02*
Y183169D01*
X299934Y71320D02*
Y183284D01*
X300934Y72320D02*
Y183123D01*
X301434Y72821D02*
Y183143D01*
X282735Y72891D02*
X301504D01*
X282735Y73391D02*
X302004D01*
X282735Y73891D02*
X349959D01*
X282735Y75390D02*
X349959D01*
X282735Y75890D02*
X349959D01*
X282735Y74391D02*
X349959D01*
X282735Y74891D02*
X349959D01*
X302168Y73554D02*
X310205D01*
X282735Y76390D02*
X349959D01*
X282735Y76890D02*
X349959D01*
X282735Y78391D02*
X349959D01*
X282735Y78891D02*
X349959D01*
X282735Y77390D02*
X349959D01*
X282735Y77890D02*
X349959D01*
X301934Y73321D02*
Y183230D01*
X302434Y73554D02*
Y183389D01*
X302934Y73554D02*
Y183632D01*
X282735Y80391D02*
X316661D01*
X282735Y80891D02*
X316321D01*
X282735Y79391D02*
X349959D01*
X282735Y79891D02*
X317525D01*
X305434Y73554D02*
Y195657D01*
X306434Y73554D02*
Y195657D01*
X305934Y73554D02*
Y195657D01*
X303434Y73554D02*
Y183977D01*
X303934Y73554D02*
Y184468D01*
X304434Y73554D02*
Y185228D01*
X304934Y73554D02*
Y195657D01*
X307434Y10580D02*
Y69516D01*
X308434Y10585D02*
Y69516D01*
X307934Y10582D02*
Y69516D01*
X309434Y10590D02*
Y69516D01*
X308934Y10587D02*
Y69516D01*
X309934Y10592D02*
Y69516D01*
X310934Y10597D02*
Y183123D01*
X316434Y10624D02*
Y80680D01*
X317434Y10629D02*
Y79916D01*
X316934Y10626D02*
Y80158D01*
X317934Y10631D02*
Y79838D01*
X318434Y10634D02*
Y79901D01*
X318934Y10636D02*
Y80125D01*
X319434Y10639D02*
Y80607D01*
X310434Y10594D02*
Y183169D01*
X311434Y10599D02*
Y183143D01*
X311934Y10602D02*
Y183230D01*
X312434Y10604D02*
Y183389D01*
X312934Y10607D02*
Y183632D01*
X313434Y10609D02*
Y183977D01*
X313934Y10612D02*
Y184468D01*
X314434Y10614D02*
Y185228D01*
X315434Y10619D02*
Y195657D01*
X314934Y10616D02*
Y195657D01*
X319934Y10641D02*
Y195657D01*
X315934Y10621D02*
Y195657D01*
X320934Y10646D02*
Y195657D01*
X320434Y10643D02*
Y195657D01*
X328434Y10683D02*
Y195657D01*
X329434Y10687D02*
Y195657D01*
X328934Y10685D02*
Y195657D01*
X330434Y10692D02*
Y195657D01*
X329934Y10690D02*
Y195657D01*
X331434Y10697D02*
Y195657D01*
X330934Y10695D02*
Y195657D01*
X331934Y10700D02*
Y195657D01*
X332934Y10705D02*
Y195657D01*
X332434Y10702D02*
Y195657D01*
X333934Y10709D02*
Y195657D01*
X333434Y10707D02*
Y195657D01*
X334934Y10799D02*
Y195657D01*
X334434Y10712D02*
Y195657D01*
X321434Y10648D02*
Y195657D01*
X322434Y10653D02*
Y195657D01*
X321934Y10651D02*
Y195657D01*
X323434Y10658D02*
Y195657D01*
X322934Y10656D02*
Y195657D01*
X324434Y10663D02*
Y195657D01*
X323934Y10661D02*
Y195657D01*
X324934Y10665D02*
Y195657D01*
X325934Y10670D02*
Y195657D01*
X325434Y10668D02*
Y195657D01*
X326934Y10675D02*
Y195657D01*
X326434Y10673D02*
Y195657D01*
X327934Y10680D02*
Y195657D01*
X327434Y10678D02*
Y195657D01*
X306934Y10805D02*
Y69516D01*
X307434Y73554D02*
Y185700D01*
X306934Y73554D02*
Y195657D01*
X308434Y73554D02*
Y184149D01*
X307934Y73554D02*
Y184721D01*
X309434Y73554D02*
Y183474D01*
X308934Y73554D02*
Y183753D01*
X335434Y11593D02*
Y195657D01*
X336434Y13181D02*
Y195657D01*
X335934Y12387D02*
Y195657D01*
X310205Y69516D02*
Y73554D01*
X309934D02*
Y183284D01*
X336934Y13975D02*
Y195657D01*
X337434Y14769D02*
Y195657D01*
X338434Y16357D02*
Y195657D01*
X337934Y15563D02*
Y195657D01*
X339434Y18114D02*
Y195657D01*
X338934Y17181D02*
Y195657D01*
X340434Y19978D02*
Y195657D01*
X339934Y19046D02*
Y195657D01*
X340934Y20911D02*
Y195657D01*
X341934Y22776D02*
Y195657D01*
X341434Y21844D02*
Y195657D01*
X342934Y24861D02*
Y195657D01*
X342434Y23748D02*
Y195657D01*
X343934Y27086D02*
Y195657D01*
X343434Y25973D02*
Y195657D01*
X310205Y70890D02*
X349959D01*
X310205Y69890D02*
X349959D01*
X310205Y70390D02*
X349959D01*
X310205Y72391D02*
X349959D01*
X310205Y72891D02*
X349959D01*
X310205Y71390D02*
X349959D01*
X310205Y71890D02*
X349959D01*
Y44238D02*
Y79637D01*
X310205Y73391D02*
X349959D01*
Y79637D02*
X352413Y82092D01*
X318392Y79891D02*
X350212D01*
X319257Y80391D02*
X350712D01*
X319596Y80891D02*
X351212D01*
X351434Y81113D02*
Y178805D01*
X344434Y28198D02*
Y195657D01*
X345434Y30461D02*
Y195657D01*
X344934Y29311D02*
Y195657D01*
X346434Y33179D02*
Y195657D01*
X345934Y31820D02*
Y195657D01*
X347434Y35897D02*
Y195657D01*
X346934Y34538D02*
Y195657D01*
X347934Y37270D02*
Y195657D01*
X348934Y40712D02*
Y195657D01*
X348434Y38991D02*
Y195657D01*
X349934Y44154D02*
Y180305D01*
X349434Y42433D02*
Y195657D01*
X350934Y80613D02*
Y179305D01*
X350434Y80113D02*
Y179805D01*
X236934Y85168D02*
Y86458D01*
X237358Y84891D02*
X241891D01*
X237434Y84820D02*
Y86862D01*
X237459Y86891D02*
X238038D01*
X237934Y83901D02*
Y86957D01*
X237965Y83390D02*
X241796D01*
X237936Y83890D02*
X241682D01*
X237756Y84390D02*
X241711D01*
X240434Y89468D02*
Y93019D01*
X240758Y88390D02*
X241959D01*
X240701Y88890D02*
X242017D01*
X237434Y89395D02*
Y114859D01*
X239934Y89950D02*
Y93266D01*
X237934Y89918D02*
Y115013D01*
X238434Y90159D02*
Y115367D01*
X238934Y90237D02*
Y116342D01*
X239434Y90174D02*
Y93801D01*
Y95674D02*
Y136270D01*
X239934Y96209D02*
Y135991D01*
X241934Y84967D02*
Y93217D01*
Y96258D02*
Y97920D01*
X240934Y96537D02*
Y99063D01*
X240434Y96456D02*
Y135801D01*
X241434Y96477D02*
Y98251D01*
X240934Y100070D02*
Y109402D01*
X237851Y82890D02*
X242089D01*
X237559Y82390D02*
X242750D01*
X239879Y86891D02*
X242839D01*
X240674Y87890D02*
X242044D01*
X240486Y89390D02*
X242232D01*
X240423Y87391D02*
X242295D01*
X240021Y89890D02*
X242696D01*
X242434Y85506D02*
Y87218D01*
X242934Y85754D02*
Y86837D01*
X243934Y85778D02*
Y86646D01*
X243434Y85837D02*
Y86667D01*
X243934Y90229D02*
Y91758D01*
X242434Y89657D02*
Y93689D01*
X242165Y93391D02*
X243165D01*
X242560Y93891D02*
X243281D01*
X242434Y95786D02*
Y97781D01*
X242738Y94390D02*
X243577D01*
X242934Y90038D02*
Y97787D01*
X243434Y90208D02*
Y92280D01*
Y94195D02*
Y97940D01*
X243934Y94718D02*
Y98293D01*
X242765Y94890D02*
X244246D01*
X243934Y100840D02*
Y109282D01*
X238457Y115391D02*
X241377D01*
X237592Y114891D02*
X241492D01*
X238796Y115891D02*
X241406D01*
X236934Y118423D02*
Y121438D01*
X237434Y118416D02*
Y121498D01*
X238941Y116891D02*
X241984D01*
X237934Y118262D02*
Y121717D01*
X241434Y100882D02*
Y108865D01*
X242434Y101352D02*
Y108535D01*
X241934Y101213D02*
Y108617D01*
X241434Y111804D02*
Y112421D01*
Y113365D02*
Y115066D01*
X238942Y116391D02*
X241586D01*
X238434Y124286D02*
Y137237D01*
Y117908D02*
Y122189D01*
X238934Y116933D02*
Y136665D01*
X237934Y124758D02*
Y138212D01*
X239434Y142609D02*
Y150027D01*
X240434Y143078D02*
Y149558D01*
X239934Y142888D02*
Y149748D01*
X240934Y111267D02*
Y135687D01*
X241434Y116010D02*
Y135641D01*
X241934Y116845D02*
Y135661D01*
X241434Y143238D02*
Y149398D01*
X240934Y143193D02*
Y149444D01*
X241934Y143218D02*
Y149418D01*
X242434Y143131D02*
Y149506D01*
X238165Y121890D02*
X245028D01*
X238451Y117891D02*
X256873D01*
X237567Y118391D02*
X256534D01*
X238560Y122390D02*
X244972D01*
X238738Y122890D02*
X245058D01*
X238649Y123890D02*
X245861D01*
X238354Y124390D02*
X251789D01*
X242934Y101346D02*
Y108594D01*
X243434Y101193D02*
Y108812D01*
X238765Y123390D02*
X245311D01*
X243549Y108890D02*
X248698D01*
X238794Y117391D02*
X257738D01*
X242434Y117180D02*
Y135749D01*
X237684Y124890D02*
X252459D01*
X242934Y117322D02*
Y135908D01*
Y142971D02*
Y149665D01*
X242889Y135890D02*
X250173D01*
X243122Y142891D02*
X249940D01*
X243434Y117318D02*
Y136151D01*
X243799Y136390D02*
X249263D01*
X243934Y117168D02*
Y136496D01*
X243434Y142728D02*
Y149908D01*
X243934Y142383D02*
Y150254D01*
X243925Y142391D02*
X249137D01*
X243404Y149890D02*
X249658D01*
X244434Y85561D02*
Y86769D01*
X244934Y85092D02*
Y87075D01*
Y89801D02*
Y91438D01*
X244434Y90106D02*
Y91516D01*
Y94959D02*
Y99249D01*
X244934Y95037D02*
Y104603D01*
X244218Y109890D02*
X245938D01*
X245434Y89095D02*
Y91501D01*
X246434Y94268D02*
Y103667D01*
X245934Y94750D02*
Y103761D01*
X245434Y94974D02*
Y104025D01*
X245934Y107169D02*
Y109891D01*
X246434Y107264D02*
Y109839D01*
X246934Y107216D02*
Y109928D01*
X244434Y99884D02*
Y111611D01*
X244162Y111390D02*
X244588D01*
X244273Y110390D02*
X245073D01*
X244186Y110890D02*
X244734D01*
X244934Y106328D02*
Y110554D01*
X245434Y106905D02*
Y110101D01*
X247434Y107013D02*
Y110185D01*
X247934Y108388D02*
Y110745D01*
X247434Y113090D02*
Y113564D01*
X247934Y112530D02*
Y114094D01*
X244006Y109390D02*
X248889D01*
X246805Y109890D02*
X248693D01*
X247669Y110390D02*
X248651D01*
X248009Y110890D02*
X248751D01*
X248154Y111390D02*
X249023D01*
X248313Y105391D02*
X249129D01*
X250934Y107877D02*
Y108557D01*
X248934Y108953D02*
Y109316D01*
X247664Y112891D02*
X248793D01*
X248153Y111890D02*
X249365D01*
X248006Y112390D02*
X248971D01*
X247127Y113391D02*
X248765D01*
X247788Y113891D02*
X248881D01*
X248081Y114391D02*
X249177D01*
X248434Y108777D02*
Y121649D01*
X248934Y111265D02*
Y112462D01*
X251934Y111305D02*
Y112077D01*
X248934Y114013D02*
Y136665D01*
X244756Y116391D02*
X245214D01*
X245434Y116556D02*
Y121132D01*
X245934Y116776D02*
Y120744D01*
X244434Y116820D02*
Y136988D01*
X244349Y136890D02*
X248712D01*
X249434Y114643D02*
Y136270D01*
X248195Y114891D02*
X249846D01*
X249934Y114926D02*
Y135991D01*
X246934Y116757D02*
Y120545D01*
X246434Y116837D02*
Y120569D01*
X247434Y116511D02*
Y120664D01*
X247934Y115981D02*
Y120964D01*
X244934Y116081D02*
Y137750D01*
X244731Y137390D02*
X248330D01*
X245001Y137891D02*
X248061D01*
X245183Y138391D02*
X247878D01*
X245043Y140891D02*
X248019D01*
X244792Y141391D02*
X248270D01*
X244435Y141891D02*
X248627D01*
X245291Y138891D02*
X247771D01*
X248434Y123026D02*
Y137237D01*
X247934Y123711D02*
Y138212D01*
X245330Y139391D02*
X247731D01*
X245304Y139891D02*
X247758D01*
X245210Y140391D02*
X247852D01*
X249434Y142609D02*
Y150027D01*
X250434Y115033D02*
Y135801D01*
X247842Y120890D02*
X257763D01*
X248515Y121890D02*
X251977D01*
X248484Y122890D02*
X251405D01*
X248231Y123390D02*
X251378D01*
X248571Y122390D02*
X251583D01*
X247681Y123890D02*
X251494D01*
X250934Y114998D02*
Y135687D01*
X251934Y114399D02*
Y121930D01*
X251434Y114810D02*
Y122766D01*
Y123709D02*
Y135641D01*
X251934Y124545D02*
Y135661D01*
X252434Y124880D02*
Y135749D01*
X249934Y142888D02*
Y149748D01*
X250434Y143078D02*
Y149558D01*
X251434Y143238D02*
Y149398D01*
X250934Y143193D02*
Y149444D01*
X251934Y143218D02*
Y149418D01*
X252434Y143131D02*
Y149506D01*
X253934Y124868D02*
Y136496D01*
X254434Y124520D02*
Y136988D01*
X254934Y123601D02*
Y137750D01*
X252934Y125022D02*
Y135908D01*
Y142971D02*
Y149665D01*
X253434Y125018D02*
Y136151D01*
Y142728D02*
Y149908D01*
X237934Y140667D02*
Y151970D01*
X238934Y142214D02*
Y150422D01*
X238434Y141642D02*
Y150994D01*
Y155400D02*
Y160037D01*
X238934Y155972D02*
Y159537D01*
X239434Y156366D02*
Y159305D01*
X239934Y156645D02*
Y159234D01*
X243434Y156486D02*
Y165269D01*
X240434Y156835D02*
Y159306D01*
X240934Y156950D02*
Y159539D01*
X241434Y156996D02*
Y160042D01*
X242934Y156728D02*
Y165466D01*
X236934Y125037D02*
Y173239D01*
X237434Y124977D02*
Y173405D01*
X237934Y154424D02*
Y173654D01*
X238434Y162032D02*
Y174008D01*
X238934Y162532D02*
Y174513D01*
X239434Y162764D02*
Y175306D01*
X239934Y162834D02*
Y195657D01*
X241434Y162027D02*
Y195657D01*
X242434Y156888D02*
Y165945D01*
X241934Y156975D02*
Y195657D01*
X240934Y162530D02*
Y195657D01*
X240434Y162763D02*
Y195657D01*
X242934Y168202D02*
Y174669D01*
X242434Y167724D02*
Y175594D01*
X244434Y141891D02*
Y150745D01*
X244093Y150391D02*
X248969D01*
X244551Y150891D02*
X248511D01*
X244211Y155891D02*
X248850D01*
X243590Y156391D02*
X249472D01*
X242423Y156890D02*
X250638D01*
X244934Y141129D02*
Y151507D01*
X244874Y151391D02*
X248187D01*
X245099Y151891D02*
X247962D01*
X245244Y152391D02*
X247817D01*
X245138Y154391D02*
X247923D01*
X244932Y154891D02*
X248129D01*
X244634Y155391D02*
X248428D01*
X241614Y160390D02*
X249325D01*
X240666Y159390D02*
X250518D01*
X241322Y159890D02*
X249663D01*
X241727Y160890D02*
X249181D01*
X241697Y161390D02*
X249183D01*
X241516Y161890D02*
X249331D01*
X241116Y162390D02*
X249675D01*
X243934Y156140D02*
Y165243D01*
X244434Y155648D02*
Y165382D01*
X244934Y154887D02*
Y165743D01*
X244434Y168287D02*
Y173457D01*
X243434Y168400D02*
Y174114D01*
X244934Y167926D02*
Y173272D01*
X239434Y178537D02*
Y185306D01*
X239473Y175391D02*
X242517D01*
X239245Y178891D02*
X242745D01*
X237434Y180438D02*
Y183405D01*
X237934Y180189D02*
Y183654D01*
X238434Y179835D02*
Y184008D01*
X238934Y179330D02*
Y184513D01*
X239795Y176891D02*
X242195D01*
X239652Y175891D02*
X242337D01*
X239758Y176391D02*
X242232D01*
X239766Y177391D02*
X242224D01*
X239669Y177891D02*
X242320D01*
X239499Y178391D02*
X242490D01*
X239473Y185390D02*
X242517D01*
X238934Y189330D02*
Y195657D01*
X239499Y188391D02*
X242490D01*
X239434Y188537D02*
Y195657D01*
X237434Y190438D02*
Y195657D01*
X236934Y190603D02*
Y195657D01*
X238434Y189835D02*
Y195657D01*
X237934Y190189D02*
Y195657D01*
X239758Y186390D02*
X242232D01*
X242434Y178249D02*
Y185594D01*
X239652Y185890D02*
X242337D01*
X239795Y186890D02*
X242195D01*
X239766Y187390D02*
X242224D01*
X239669Y187891D02*
X242320D01*
X242434Y188249D02*
Y195657D01*
X238829Y174390D02*
X243160D01*
X237400Y173390D02*
X244590D01*
X238287Y173890D02*
X243703D01*
X238366Y179891D02*
X243623D01*
X238287Y183890D02*
X243703D01*
X237546Y180391D02*
X244444D01*
X237400Y183390D02*
X244590D01*
X239207Y174890D02*
X242783D01*
X243934Y168425D02*
Y173729D01*
X238883Y179391D02*
X243106D01*
X243934Y180114D02*
Y183729D01*
X244934Y180570D02*
Y183272D01*
X244434Y180386D02*
Y183457D01*
X239207Y184890D02*
X242783D01*
X238829Y184390D02*
X243160D01*
X239245Y188891D02*
X242745D01*
X238883Y189391D02*
X243106D01*
X238366Y189891D02*
X243623D01*
X237546Y190391D02*
X244444D01*
X242934Y179174D02*
Y184669D01*
X243434Y179729D02*
Y184114D01*
X242934Y189174D02*
Y195657D01*
X243934Y190114D02*
Y195657D01*
X243434Y189729D02*
Y195657D01*
X244934Y190570D02*
Y195657D01*
X244434Y190386D02*
Y195657D01*
X245934Y123931D02*
Y173122D01*
X247934Y140667D02*
Y151970D01*
X246434Y124106D02*
Y173147D01*
X245318Y152891D02*
X247743D01*
X245326Y153391D02*
X247736D01*
X248434Y141642D02*
Y150994D01*
X245267Y153891D02*
X247795D01*
X248934Y142214D02*
Y150422D01*
X249934Y156645D02*
Y159658D01*
X249434Y156366D02*
Y160186D01*
X250934Y156950D02*
Y159335D01*
X250434Y156835D02*
Y159414D01*
X251434Y156996D02*
Y159397D01*
X251934Y156975D02*
Y159618D01*
X245434Y123543D02*
Y173163D01*
X246934Y124130D02*
Y173239D01*
X247434Y124011D02*
Y173405D01*
X247934Y154424D02*
Y173654D01*
X248434Y155400D02*
Y174008D01*
X248934Y155972D02*
Y174513D01*
X249434Y162083D02*
Y175306D01*
X249934Y162611D02*
Y195657D01*
X251934Y162651D02*
Y195657D01*
X250434Y162855D02*
Y195657D01*
X249434Y178537D02*
Y185306D01*
X250934Y162934D02*
Y195657D01*
X249795Y176891D02*
X252195D01*
X251434Y162872D02*
Y195657D01*
X253934Y142383D02*
Y150254D01*
Y156140D02*
Y173729D01*
X252434Y156888D02*
Y160096D01*
X247399Y173390D02*
X254590D01*
X248287Y173890D02*
X253703D01*
X256434Y119609D02*
Y173147D01*
X256934Y120445D02*
Y173239D01*
X257434Y120780D02*
Y173405D01*
X254434Y141891D02*
Y150745D01*
Y155648D02*
Y173457D01*
X254934Y141129D02*
Y151507D01*
Y154887D02*
Y173272D01*
X249473Y175391D02*
X252517D01*
X248829Y174390D02*
X253160D01*
X249207Y174890D02*
X252783D01*
X249652Y175891D02*
X252337D01*
X249669Y177891D02*
X252321D01*
X249499Y178391D02*
X252490D01*
X249245Y178891D02*
X252745D01*
X252434Y162173D02*
Y175594D01*
X253434Y156486D02*
Y174114D01*
X252934Y156728D02*
Y174669D01*
X249758Y176391D02*
X252232D01*
X249766Y177391D02*
X252224D01*
X252934Y179174D02*
Y184669D01*
X252434Y178249D02*
Y185594D01*
X247434Y180438D02*
Y183405D01*
X247934Y180189D02*
Y183654D01*
X248434Y179835D02*
Y184008D01*
X245934Y180721D02*
Y183122D01*
X245434Y180680D02*
Y183163D01*
X246434Y180696D02*
Y183147D01*
X246934Y180603D02*
Y183239D01*
X248934Y179330D02*
Y184513D01*
X249207Y184890D02*
X252783D01*
X249473Y185390D02*
X252517D01*
X249795Y186890D02*
X252195D01*
X249766Y187390D02*
X252224D01*
X249652Y185890D02*
X252337D01*
X249758Y186390D02*
X252232D01*
X247434Y190438D02*
Y195657D01*
X248434Y189835D02*
Y195657D01*
X247934Y190189D02*
Y195657D01*
X245934Y190721D02*
Y195657D01*
X245434Y190680D02*
Y195657D01*
X246934Y190603D02*
Y195657D01*
X246434Y190696D02*
Y195657D01*
X249669Y187891D02*
X252321D01*
X249499Y188391D02*
X252490D01*
X252434Y188249D02*
Y195657D01*
X249434Y188537D02*
Y195657D01*
X248934Y189330D02*
Y195657D01*
X249245Y188891D02*
X252745D01*
X252934Y189174D02*
Y195657D01*
X248883Y179391D02*
X253106D01*
X248366Y179891D02*
X253623D01*
X253434Y179729D02*
Y184114D01*
X253934Y180114D02*
Y183729D01*
X248287Y183890D02*
X253703D01*
X247546Y180391D02*
X254444D01*
X247399Y183390D02*
X254590D01*
X254434Y180386D02*
Y183457D01*
X254934Y180570D02*
Y183272D01*
X257434Y180438D02*
Y183405D01*
X255934Y180721D02*
Y183122D01*
X255434Y180680D02*
Y183163D01*
X256434Y180696D02*
Y183147D01*
X256934Y180603D02*
Y183239D01*
X248883Y189391D02*
X253106D01*
X248829Y184390D02*
X253160D01*
X253434Y189729D02*
Y195657D01*
X248366Y189891D02*
X253623D01*
X253934Y190114D02*
Y195657D01*
X247546Y190391D02*
X254444D01*
X254434Y190386D02*
Y195657D01*
X254934Y190570D02*
Y195657D01*
X257934Y190189D02*
Y195657D01*
X257434Y190438D02*
Y195657D01*
X255934Y190721D02*
Y195657D01*
X255434Y190680D02*
Y195657D01*
X256934Y190603D02*
Y195657D01*
X256434Y190696D02*
Y195657D01*
X245061Y84891D02*
X261176D01*
X244202Y82390D02*
X278455D01*
X244863Y82890D02*
X278455D01*
X244663Y85391D02*
X261177D01*
X244679Y86891D02*
X262551D01*
X244821Y89890D02*
X288165D01*
X245241Y84390D02*
X261322D01*
X245155Y83390D02*
X262526D01*
X245270Y83890D02*
X261661D01*
X245501Y88890D02*
X288572D01*
X245286Y89390D02*
X288279D01*
X245474Y87890D02*
X352413D01*
X245558Y88390D02*
X289232D01*
X244025Y98391D02*
X294365D01*
X243319Y97891D02*
X294393D01*
X244331Y98891D02*
X294481D01*
X247386Y103891D02*
X276334D01*
X247958Y104391D02*
X276188D01*
X244454Y99391D02*
X294775D01*
X244433Y99891D02*
X295443D01*
X250524Y105891D02*
X271757D01*
X248220Y104891D02*
X272551D01*
X249417Y105391D02*
X272007D01*
X250888Y106391D02*
X271672D01*
X251049Y106890D02*
X271729D01*
X251061Y107390D02*
X271944D01*
X250929Y107890D02*
X272409D01*
X242649Y95390D02*
X352413D01*
X245223Y87391D02*
X352413D01*
X245671Y94890D02*
X352413D01*
X244263Y100391D02*
X352413D01*
X243882Y100891D02*
X352413D01*
X242354Y95890D02*
X352413D01*
X241684Y96390D02*
X352413D01*
X246725Y92891D02*
X352413D01*
X246153Y91891D02*
X352413D01*
X246547Y92391D02*
X352413D01*
X246341Y94390D02*
X352413D01*
X250609Y108390D02*
X352413D01*
X246752Y93391D02*
X352413D01*
X246636Y93891D02*
X352413D01*
X251872Y111390D02*
X352413D01*
X251580Y108890D02*
X352413D01*
X252007Y109390D02*
X352413D01*
X251271Y114891D02*
X352413D01*
X248166Y115391D02*
X352413D01*
X251753Y111890D02*
X352413D01*
X251941Y114391D02*
X352413D01*
X252145Y110890D02*
X352413D01*
X252203Y109890D02*
X352413D01*
X252245Y110390D02*
X352413D01*
X252352Y113391D02*
X352413D01*
X252236Y113891D02*
X352413D01*
X252147Y112390D02*
X352413D01*
X252325Y112891D02*
X352413D01*
X247986Y115891D02*
X352413D01*
X247588Y116391D02*
X352413D01*
X244359Y116891D02*
X352874D01*
X254554Y124390D02*
X280197D01*
X253884Y124890D02*
X280590D01*
X254365Y121890D02*
X281076D01*
X252889Y135890D02*
X353135D01*
X254965Y123390D02*
X279992D01*
X254760Y122390D02*
X280404D01*
X254938Y122890D02*
X280109D01*
X255183Y138391D02*
X262092D01*
X255291Y138891D02*
X261957D01*
X254849Y123890D02*
X280019D01*
X255001Y137891D02*
X262449D01*
X245301Y166391D02*
X352413D01*
X244454Y165391D02*
X352413D01*
X245056Y165891D02*
X352413D01*
X244966Y167891D02*
X352413D01*
X244136Y168391D02*
X352413D01*
X245363Y166891D02*
X352413D01*
X245264Y167391D02*
X352413D01*
X255330Y139391D02*
X261985D01*
X255304Y139891D02*
X262186D01*
X255210Y140391D02*
X262672D01*
X252253Y162390D02*
X352953D01*
X251359Y162891D02*
X352453D01*
X255043Y140891D02*
X353135D01*
X254792Y141391D02*
X353135D01*
X254349Y136890D02*
X353135D01*
X248302Y121390D02*
X353135D01*
X253799Y136390D02*
X353135D01*
X253404Y149890D02*
X353135D01*
X254093Y150391D02*
X353135D01*
X253925Y142391D02*
X353135D01*
X253121Y142891D02*
X353135D01*
X254551Y150891D02*
X353135D01*
X254731Y137390D02*
X353135D01*
X254435Y141891D02*
X353135D01*
X255244Y152391D02*
X353135D01*
X255318Y152891D02*
X353135D01*
X254874Y151391D02*
X353135D01*
X255099Y151891D02*
X353135D01*
X252265Y159890D02*
X353135D01*
X252423Y156890D02*
X353135D01*
X251410Y159390D02*
X353135D01*
X252746Y161390D02*
X353135D01*
X252598Y161890D02*
X353135D01*
X252603Y160390D02*
X353135D01*
X252748Y160890D02*
X353135D01*
X255138Y154391D02*
X353135D01*
X255326Y153391D02*
X353135D01*
X255267Y153891D02*
X353135D01*
X254211Y155891D02*
X353135D01*
X253590Y156391D02*
X353135D01*
X254932Y154891D02*
X353135D01*
X254634Y155391D02*
X353135D01*
X263393Y83390D02*
X278455D01*
X264258Y83890D02*
X278455D01*
X264594Y85891D02*
X278455D01*
X264252Y86391D02*
X278455D01*
X264597Y84390D02*
X278455D01*
X264741Y85391D02*
X278455D01*
X264742Y84891D02*
X278455D01*
Y86717D02*
X282735D01*
X290685Y88390D02*
X292033D01*
X291146Y91391D02*
X291572D01*
X263934Y86651D02*
Y137500D01*
X279434Y86717D02*
Y103589D01*
X264434Y86169D02*
Y137720D01*
X262934Y86937D02*
Y137575D01*
X262434Y86859D02*
Y137905D01*
X278934Y86717D02*
Y103117D01*
X263434Y86874D02*
Y137457D01*
X280434Y86717D02*
Y122356D01*
X281434Y86717D02*
Y121779D01*
X280934Y86717D02*
Y121959D01*
X281934Y86717D02*
Y121751D01*
X282434Y86717D02*
Y121866D01*
X294434Y90695D02*
Y97723D01*
X282735Y81391D02*
X316176D01*
X282735Y81890D02*
X316177D01*
X282735Y82390D02*
X316324D01*
X282735Y82890D02*
X316667D01*
X282735Y83390D02*
X317550D01*
X282735Y84390D02*
X352413D01*
X282735Y85391D02*
X352413D01*
X319742Y81391D02*
X351712D01*
X319741Y81890D02*
X352212D01*
X319594Y82390D02*
X352413D01*
X282735Y83890D02*
X352413D01*
X282735Y84891D02*
X352413D01*
X319251Y82890D02*
X352413D01*
X318367Y83390D02*
X352413D01*
X263368Y86891D02*
X352413D01*
X282735Y85891D02*
X352413D01*
X282735Y86391D02*
X352413D01*
X294344Y90891D02*
X352413D01*
X293946Y91391D02*
X352413D01*
X293485Y88390D02*
X352413D01*
X294146Y88890D02*
X352413D01*
X294553Y89890D02*
X352413D01*
X294438Y89390D02*
X352413D01*
Y82092D02*
Y116430D01*
X297746Y97391D02*
X352413D01*
X297925Y97891D02*
X352413D01*
X294524Y90390D02*
X352413D01*
X297351Y96890D02*
X352413D01*
X274392Y104891D02*
X276189D01*
X278405Y102891D02*
X352413D01*
X274936Y105391D02*
X276336D01*
X275186Y105891D02*
X276679D01*
X275271Y106391D02*
X277563D01*
X279264Y105891D02*
X352413D01*
X278380Y106391D02*
X352413D01*
X296874Y99891D02*
X352413D01*
X297952Y98391D02*
X352413D01*
X297837Y98891D02*
X352413D01*
X279754Y104391D02*
X352413D01*
X279606Y105391D02*
X352413D01*
X279269Y103391D02*
X352413D01*
X279609Y103891D02*
X352413D01*
X258434Y120918D02*
Y174008D01*
X258934Y120768D02*
Y174513D01*
X257400Y173390D02*
X352413D01*
X257934Y120922D02*
Y173654D01*
X258287Y173890D02*
X352413D01*
X258829Y174390D02*
X352413D01*
X275213Y106890D02*
X352413D01*
X274998Y107390D02*
X352413D01*
X274534Y107890D02*
X352413D01*
X259809Y118391D02*
X353135D01*
X258605Y117391D02*
X353135D01*
X259469Y117891D02*
X353135D01*
X259464Y120390D02*
X353135D01*
X258580Y120890D02*
X353135D01*
X259953Y119390D02*
X353135D01*
X259806Y119890D02*
X353135D01*
X297542Y99391D02*
X352413D01*
X279753Y104891D02*
X352413D01*
Y116430D02*
X353135Y117152D01*
X283167Y122390D02*
X353135D01*
X283463Y122890D02*
X353135D01*
X259954Y118891D02*
X353135D01*
X282495Y121890D02*
X353135D01*
X265006Y138391D02*
X353135D01*
X282981Y124890D02*
X353135D01*
X264649Y137891D02*
X353135D01*
X264912Y139891D02*
X353135D01*
X264426Y140391D02*
X353135D01*
X265141Y138891D02*
X353135D01*
X265113Y139391D02*
X353135D01*
X352434Y116451D02*
Y162909D01*
X353135Y117152D02*
Y162208D01*
X352934Y116951D02*
Y162409D01*
X283375Y124390D02*
X353135D01*
X352413Y162930D02*
X353135Y162208D01*
X283579Y123390D02*
X353135D01*
X283552Y123890D02*
X353135D01*
X258934Y179330D02*
Y184513D01*
X259434Y120420D02*
Y175306D01*
X257934Y180189D02*
Y183654D01*
X258434Y179835D02*
Y184008D01*
X261934Y86617D02*
Y195657D01*
X277934Y106437D02*
Y184721D01*
X277434Y106356D02*
Y185700D01*
X259434Y178537D02*
Y185306D01*
X259934Y119501D02*
Y195657D01*
X262934Y140530D02*
Y195657D01*
X262434Y140200D02*
Y195657D01*
X261434Y86094D02*
Y195657D01*
X272434Y107909D02*
Y195657D01*
X271934Y107374D02*
Y195657D01*
X263934Y140605D02*
Y195657D01*
X263434Y140648D02*
Y195657D01*
X264934Y139853D02*
Y195657D01*
X264434Y140385D02*
Y195657D01*
X274934Y107486D02*
Y195657D01*
X276934Y106109D02*
Y195657D01*
X276434Y105574D02*
Y195657D01*
X273434Y108237D02*
Y195657D01*
X272934Y108156D02*
Y195657D01*
X274434Y107958D02*
Y195657D01*
X273934Y108177D02*
Y195657D01*
X259499Y178391D02*
X351848D01*
X259207Y174890D02*
X352413D01*
X259473Y175391D02*
X352413D01*
X258366Y179891D02*
X350348D01*
X257546Y180391D02*
X349848D01*
X259245Y178891D02*
X351348D01*
X258883Y179391D02*
X350848D01*
X280934Y125131D02*
Y183123D01*
X259652Y175891D02*
X352413D01*
X281434Y125310D02*
Y183143D01*
X259766Y177391D02*
X352413D01*
X259669Y177891D02*
X352348D01*
X259758Y176391D02*
X352413D01*
X259795Y176891D02*
X352413D01*
X278934Y106158D02*
Y183753D01*
X279934Y86717D02*
Y183284D01*
X279434Y105686D02*
Y183474D01*
X280434Y124734D02*
Y183169D01*
X278434Y106377D02*
Y184149D01*
X281934Y125339D02*
Y183230D01*
X288434Y90995D02*
Y184149D01*
X289434Y91760D02*
Y183474D01*
X288934Y91518D02*
Y183753D01*
X282434Y125224D02*
Y183389D01*
X282934Y124931D02*
Y183632D01*
X289934Y91837D02*
Y183284D01*
X283434Y124267D02*
Y183977D01*
X258829Y184390D02*
X278198D01*
X257400Y183390D02*
X279628D01*
X258287Y183890D02*
X278741D01*
X259207Y184890D02*
X277821D01*
X259245Y188891D02*
X277783D01*
X258883Y189391D02*
X278144D01*
X258366Y189891D02*
X278661D01*
X259758Y186390D02*
X277270D01*
X259473Y185390D02*
X277555D01*
X259652Y185890D02*
X277375D01*
X259795Y186890D02*
X277233D01*
X259766Y187390D02*
X277262D01*
X259669Y187891D02*
X277358D01*
X259499Y188391D02*
X277528D01*
X259434Y188537D02*
Y195657D01*
X277934Y189121D02*
Y195657D01*
X277434Y188143D02*
Y195657D01*
X258934Y189330D02*
Y195657D01*
X258434Y189835D02*
Y195657D01*
X257546Y190391D02*
X279482D01*
X278434Y189694D02*
Y195657D01*
X278934Y190089D02*
Y195657D01*
X279934Y190559D02*
Y195657D01*
X279434Y190369D02*
Y195657D01*
X280934Y190720D02*
Y195657D01*
X280434Y190674D02*
Y195657D01*
X281934Y190613D02*
Y195657D01*
X281434Y190700D02*
Y195657D01*
X283867Y184390D02*
X288198D01*
X282437Y183390D02*
X289628D01*
X283325Y183890D02*
X288741D01*
X284244Y184890D02*
X287821D01*
X284283Y188891D02*
X287783D01*
X283921Y189391D02*
X288144D01*
X283404Y189891D02*
X288661D01*
X284795Y186390D02*
X287270D01*
X284511Y185390D02*
X287555D01*
X284690Y185890D02*
X287375D01*
X284833Y186890D02*
X287233D01*
X284804Y187390D02*
X287262D01*
X284707Y187891D02*
X287358D01*
X284537Y188391D02*
X287528D01*
X283934Y189375D02*
Y195657D01*
X284434Y188615D02*
Y195657D01*
X282934Y190211D02*
Y195657D01*
X282434Y190454D02*
Y195657D01*
X282583Y190391D02*
X289482D01*
X283434Y189866D02*
Y195657D01*
X287434Y188143D02*
Y195657D01*
X288434Y189694D02*
Y195657D01*
X287934Y189121D02*
Y195657D01*
X289434Y190369D02*
Y195657D01*
X288934Y190089D02*
Y195657D01*
X290434Y190674D02*
Y195657D01*
X289934Y190559D02*
Y195657D01*
X290934Y91550D02*
Y183123D01*
X291434Y91256D02*
Y183143D01*
X291934Y91638D02*
Y183230D01*
X290434Y91774D02*
Y183169D01*
X292434Y91808D02*
Y183389D01*
X292437Y183390D02*
X299628D01*
X292934Y91829D02*
Y183632D01*
X293434Y91706D02*
Y183977D01*
X293934Y91401D02*
Y184468D01*
X297934Y98534D02*
Y184721D01*
X294245Y184890D02*
X297821D01*
X294434Y98755D02*
Y185228D01*
X293325Y183890D02*
X298741D01*
X293867Y184390D02*
X298198D01*
X294934Y99558D02*
Y195657D01*
X294511Y185390D02*
X297555D01*
X295434Y99887D02*
Y195657D01*
X294833Y186890D02*
X297233D01*
X294804Y187390D02*
X297262D01*
X294690Y185890D02*
X297375D01*
X294795Y186390D02*
X297270D01*
X296434Y100018D02*
Y195657D01*
X297434Y99509D02*
Y185700D01*
X296934Y99863D02*
Y195657D01*
X295934Y100025D02*
Y195657D01*
X304833Y186890D02*
X307233D01*
X304804Y187390D02*
X307262D01*
X303325Y183890D02*
X308741D01*
X312437Y183390D02*
X349660D01*
X302437D02*
X309628D01*
X304511Y185390D02*
X307555D01*
X304690Y185890D02*
X307375D01*
X303867Y184390D02*
X308198D01*
X304244Y184890D02*
X307821D01*
X351934Y81613D02*
Y178305D01*
X352413Y162930D02*
Y177825D01*
X349660Y180578D02*
X352413Y177825D01*
X314245Y184890D02*
X349660D01*
X314511Y185390D02*
X349660D01*
X313325Y183890D02*
X349660D01*
X313867Y184390D02*
X349660D01*
X314690Y185890D02*
X349660D01*
X316434Y82595D02*
Y195657D01*
X314795Y186390D02*
X349660D01*
X304795D02*
X307270D01*
X314833Y186890D02*
X349660D01*
X314804Y187390D02*
X349660D01*
X316934Y83118D02*
Y195657D01*
X319434Y82668D02*
Y195657D01*
X318934Y83150D02*
Y195657D01*
X317934Y83437D02*
Y195657D01*
X317434Y83359D02*
Y195657D01*
X349660Y180578D02*
Y195657D01*
X318434Y83374D02*
Y195657D01*
X293434Y189866D02*
Y195657D01*
X293404Y189891D02*
X298661D01*
X292583Y190391D02*
X299482D01*
X291434Y190700D02*
Y195657D01*
X290934Y190720D02*
Y195657D01*
X292434Y190454D02*
Y195657D01*
X291934Y190613D02*
Y195657D01*
X294707Y187891D02*
X297358D01*
X294537Y188391D02*
X297528D01*
X297434Y188143D02*
Y195657D01*
X294434Y188615D02*
Y195657D01*
X293934Y189375D02*
Y195657D01*
X294283Y188891D02*
X297783D01*
X293921Y189391D02*
X298144D01*
X297934Y189121D02*
Y195657D01*
X298934Y190089D02*
Y195657D01*
X298434Y189694D02*
Y195657D01*
X299434Y190369D02*
Y195657D01*
X292934Y190211D02*
Y195657D01*
X300434Y190674D02*
Y195657D01*
X299934Y190559D02*
Y195657D01*
X302934Y190211D02*
Y195657D01*
X303934Y189375D02*
Y195657D01*
X303434Y189866D02*
Y195657D01*
X301434Y190700D02*
Y195657D01*
X300934Y190720D02*
Y195657D01*
X302434Y190454D02*
Y195657D01*
X301934Y190613D02*
Y195657D01*
X304707Y187891D02*
X307358D01*
X304537Y188391D02*
X307528D01*
X304283Y188891D02*
X307783D01*
X303921Y189391D02*
X308144D01*
X308434Y189694D02*
Y195657D01*
X303404Y189891D02*
X308661D01*
X302584Y190391D02*
X309482D01*
X314283Y188891D02*
X349660D01*
X314707Y187891D02*
X349660D01*
X314537Y188391D02*
X349660D01*
X313921Y189391D02*
X349660D01*
X308934Y190089D02*
Y195657D01*
X313404Y189891D02*
X349660D01*
X312583Y190391D02*
X349660D01*
X304434Y188615D02*
Y195657D01*
X307934Y189121D02*
Y195657D01*
X307434Y188143D02*
Y195657D01*
X309934Y190559D02*
Y195657D01*
X309434Y190369D02*
Y195657D01*
X310934Y190720D02*
Y195657D01*
X310434Y190674D02*
Y195657D01*
X313434Y189866D02*
Y195657D01*
X314434Y188615D02*
Y195657D01*
X313934Y189375D02*
Y195657D01*
X311934Y190613D02*
Y195657D01*
X311434Y190700D02*
Y195657D01*
X312934Y190211D02*
Y195657D01*
X312434Y190454D02*
Y195657D01*
X13934Y1194D02*
Y195657D01*
X13434Y1194D02*
Y195657D01*
X14934Y1194D02*
Y195657D01*
X14434Y1194D02*
Y195657D01*
X4434Y1194D02*
Y195657D01*
X3934Y1194D02*
Y195657D01*
X6434Y1194D02*
Y195657D01*
X4934Y1194D02*
Y195657D01*
X21934Y1194D02*
Y195657D01*
X17934Y1194D02*
Y195657D01*
X22934Y1194D02*
Y195657D01*
X22434Y1194D02*
Y195657D01*
X15934Y1194D02*
Y195657D01*
X15434Y1194D02*
Y195657D01*
X17434Y1194D02*
Y195657D01*
X16434Y1194D02*
Y195657D01*
X16934Y1194D02*
Y195657D01*
X21434Y1194D02*
Y195657D01*
X20934Y1194D02*
Y195657D01*
X23934Y1194D02*
Y195657D01*
X23434Y1194D02*
Y195657D01*
X18934Y1194D02*
Y195657D01*
X18434Y1194D02*
Y195657D01*
X20434Y1194D02*
Y195657D01*
X19434Y1194D02*
Y195657D01*
X19934Y1194D02*
Y195657D01*
X1194Y43391D02*
X55630D01*
X1194Y43891D02*
X55630D01*
X1194Y42390D02*
X56416D01*
X1194Y42891D02*
X55916D01*
X1194Y44390D02*
X55630D01*
X1194Y44890D02*
X55744D01*
X24934Y1194D02*
Y195657D01*
X24434Y1194D02*
Y195657D01*
X1194Y45390D02*
X56244D01*
X54434Y1194D02*
Y151548D01*
X53934Y1194D02*
Y152048D01*
X55434Y1194D02*
Y150751D01*
X54934Y1194D02*
Y151048D01*
X51934Y1194D02*
Y154048D01*
X25934Y1194D02*
Y195657D01*
X53434Y1194D02*
Y152548D01*
X52434Y1194D02*
Y153548D01*
X52934Y1194D02*
Y153048D01*
X56434Y1194D02*
Y42376D01*
X55934Y1194D02*
Y42872D01*
X57434Y1194D02*
Y42376D01*
X56934Y1194D02*
Y42376D01*
X59434Y1194D02*
Y150751D01*
X58934Y1194D02*
Y150751D01*
X61434Y1194D02*
Y150751D01*
X59934Y1194D02*
Y150751D01*
X60934Y1194D02*
Y150751D01*
X55630Y43176D02*
X56430Y42376D01*
X55630Y43176D02*
Y44776D01*
X56430Y45576D01*
X55934Y45080D02*
Y150751D01*
X25434Y1194D02*
Y195657D01*
X56434Y45576D02*
Y150751D01*
X57934Y45576D02*
Y150751D01*
X56934Y45576D02*
Y150751D01*
X57434Y45576D02*
Y150751D01*
X57934Y1194D02*
Y42376D01*
X56430D02*
X58030D01*
X58434Y1194D02*
Y42780D01*
X58030Y42376D02*
X58830Y43176D01*
X58030Y45576D02*
X58830Y44776D01*
X56430Y45576D02*
X58030D01*
X60434Y1194D02*
Y150751D01*
X58434Y45172D02*
Y150751D01*
X58830Y43176D02*
Y44776D01*
X27934Y1194D02*
Y195657D01*
X27434Y1194D02*
Y195657D01*
X28934Y1194D02*
Y195657D01*
X28434Y1194D02*
Y195657D01*
X12434Y1194D02*
Y195657D01*
X11934Y1194D02*
Y195657D01*
X26934Y1194D02*
Y195657D01*
X12934Y1194D02*
Y195657D01*
X26434Y1194D02*
Y195657D01*
X32434Y1194D02*
Y195657D01*
X31934Y1194D02*
Y195657D01*
X33434Y1194D02*
Y195657D01*
X32934Y1194D02*
Y195657D01*
X29934Y1194D02*
Y195657D01*
X29434Y1194D02*
Y195657D01*
X31434Y1194D02*
Y195657D01*
X30434Y1194D02*
Y195657D01*
X30934Y1194D02*
Y195657D01*
X5434Y1194D02*
Y195657D01*
X3434Y1194D02*
Y195657D01*
X6934Y1194D02*
Y195657D01*
X5934Y1194D02*
Y195657D01*
X1434Y1194D02*
Y195657D01*
X1194Y1194D02*
Y195657D01*
X2934Y1194D02*
Y195657D01*
X1934Y1194D02*
Y195657D01*
X2434Y1194D02*
Y195657D01*
X10434Y1194D02*
Y195657D01*
X9934Y1194D02*
Y195657D01*
X11434Y1194D02*
Y195657D01*
X10934Y1194D02*
Y195657D01*
X7934Y1194D02*
Y195657D01*
X7434Y1194D02*
Y195657D01*
X9434Y1194D02*
Y195657D01*
X8434Y1194D02*
Y195657D01*
X8934Y1194D02*
Y195657D01*
X45934Y1194D02*
Y195657D01*
X45434Y1194D02*
Y195657D01*
X46934Y1194D02*
Y195657D01*
X46434Y1194D02*
Y195657D01*
X43434Y1194D02*
Y195657D01*
X42934Y1194D02*
Y195657D01*
X44934Y1194D02*
Y195657D01*
X43934Y1194D02*
Y195657D01*
X44434Y1194D02*
Y195657D01*
X50434Y1194D02*
Y195657D01*
X49934Y1194D02*
Y195657D01*
X51434Y1194D02*
Y195657D01*
X50934Y1194D02*
Y195657D01*
X47934Y1194D02*
Y195657D01*
X47434Y1194D02*
Y195657D01*
X49434Y1194D02*
Y195657D01*
X48434Y1194D02*
Y195657D01*
X48934Y1194D02*
Y195657D01*
X36934Y1194D02*
Y195657D01*
X36434Y1194D02*
Y195657D01*
X37934Y1194D02*
Y195657D01*
X37434Y1194D02*
Y195657D01*
X34434Y1194D02*
Y195657D01*
X33934Y1194D02*
Y195657D01*
X35934Y1194D02*
Y195657D01*
X34934Y1194D02*
Y195657D01*
X35434Y1194D02*
Y195657D01*
X41434Y1194D02*
Y195657D01*
X40934Y1194D02*
Y195657D01*
X42434Y1194D02*
Y195657D01*
X41934Y1194D02*
Y195657D01*
X38934Y1194D02*
Y195657D01*
X38434Y1194D02*
Y195657D01*
X40434Y1194D02*
Y195657D01*
X39434Y1194D02*
Y195657D01*
X39934Y1194D02*
Y195657D01*
X1194Y24390D02*
X145454D01*
X1194Y24891D02*
X145454D01*
X1194Y23391D02*
X145454D01*
X1194Y23890D02*
X145454D01*
X1194Y26891D02*
X145454D01*
X1194Y27391D02*
X145454D01*
X1194Y25390D02*
X145454D01*
X1194Y26390D02*
X145454D01*
X1194Y25890D02*
X145454D01*
X1194Y19891D02*
X145454D01*
X1194Y20391D02*
X145454D01*
X1194Y18891D02*
X145454D01*
X1194Y19390D02*
X145454D01*
X1194Y22390D02*
X145454D01*
X1194Y22891D02*
X145454D01*
X1194Y20890D02*
X145454D01*
X1194Y21891D02*
X145454D01*
X1194Y21391D02*
X145454D01*
X1194Y33391D02*
X145454D01*
X1194Y33891D02*
X145454D01*
X1194Y32390D02*
X145454D01*
X1194Y32890D02*
X145454D01*
X1194Y35890D02*
X145454D01*
X1194Y36391D02*
X145454D01*
X1194Y34391D02*
X145454D01*
X1194Y35390D02*
X145454D01*
X1194Y34890D02*
X145454D01*
X1194Y28890D02*
X145454D01*
X1194Y29390D02*
X145454D01*
X1194Y27891D02*
X145454D01*
X1194Y28390D02*
X145454D01*
X1194Y31391D02*
X145454D01*
X1194Y31890D02*
X145454D01*
X1194Y29890D02*
X145454D01*
X1194Y30891D02*
X145454D01*
X1194Y30391D02*
X145454D01*
X1194Y6391D02*
X145454D01*
X1194Y6891D02*
X145454D01*
X1194Y5390D02*
X145454D01*
X1194Y5891D02*
X145454D01*
X1194Y8890D02*
X145454D01*
X1194Y9391D02*
X145454D01*
X1194Y7390D02*
X145454D01*
X1194Y8390D02*
X145454D01*
X1194Y7891D02*
X145454D01*
X1194Y1891D02*
X145454D01*
X1194Y2390D02*
X145454D01*
X1194Y1194D02*
X145454D01*
X1194Y1390D02*
X145454D01*
X1194Y4391D02*
X145454D01*
X1194Y4891D02*
X145454D01*
X1194Y2891D02*
X145454D01*
X1194Y3890D02*
X145454D01*
X1194Y3390D02*
X145454D01*
X1194Y15391D02*
X145454D01*
X1194Y15890D02*
X145454D01*
X1194Y14390D02*
X145454D01*
X1194Y14890D02*
X145454D01*
X1194Y17890D02*
X145454D01*
X1194Y18391D02*
X145454D01*
X1194Y16390D02*
X145454D01*
X1194Y17391D02*
X145454D01*
X1194Y16891D02*
X145454D01*
X1194Y10891D02*
X145454D01*
X1194Y11390D02*
X145454D01*
X1194Y9890D02*
X145454D01*
X1194Y10390D02*
X145454D01*
X1194Y13390D02*
X145454D01*
X1194Y13891D02*
X145454D01*
X1194Y11891D02*
X145454D01*
X1194Y12890D02*
X145454D01*
X1194Y12391D02*
X145454D01*
X1194Y45891D02*
X145454D01*
X1194Y46391D02*
X145454D01*
X1194Y41390D02*
X145454D01*
X1194Y41890D02*
X145454D01*
X1194Y48390D02*
X145454D01*
X1194Y48891D02*
X145454D01*
X1194Y46891D02*
X145454D01*
X1194Y47890D02*
X145454D01*
X1194Y47390D02*
X145454D01*
X1194Y37890D02*
X145454D01*
X1194Y38390D02*
X145454D01*
X1194Y36891D02*
X145454D01*
X1194Y37391D02*
X145454D01*
X1194Y40391D02*
X145454D01*
X1194Y40890D02*
X145454D01*
X1194Y38890D02*
X145454D01*
X1194Y39891D02*
X145454D01*
X1194Y39391D02*
X145454D01*
X1194Y54891D02*
X145454D01*
X1194Y55391D02*
X145454D01*
X1194Y53891D02*
X145454D01*
X1194Y54391D02*
X145454D01*
X1194Y66391D02*
X145454D01*
X1194Y66891D02*
X145454D01*
X1194Y55891D02*
X145454D01*
X1194Y65891D02*
X145454D01*
X1194Y56391D02*
X145454D01*
X1194Y50390D02*
X145454D01*
X1194Y50890D02*
X145454D01*
X1194Y49391D02*
X145454D01*
X1194Y49891D02*
X145454D01*
X1194Y52890D02*
X145454D01*
X1194Y53391D02*
X145454D01*
X1194Y51390D02*
X145454D01*
X1194Y52390D02*
X145454D01*
X1194Y51890D02*
X145454D01*
X58044Y42390D02*
X145454D01*
X58544Y42891D02*
X145454D01*
X58830Y43391D02*
X145454D01*
X58830Y43891D02*
X145454D01*
X61934Y1194D02*
Y150753D01*
X58830Y44390D02*
X145454D01*
X63434Y1194D02*
Y152253D01*
X62434Y1194D02*
Y151253D01*
X62934Y1194D02*
Y151753D01*
X1194Y56890D02*
X145454D01*
X1194Y57390D02*
X145454D01*
X58716Y44890D02*
X145454D01*
X58216Y45390D02*
X145454D01*
X1194Y59390D02*
X145454D01*
X1194Y59891D02*
X145454D01*
X1194Y57890D02*
X145454D01*
X1194Y58890D02*
X145454D01*
X1194Y58390D02*
X145454D01*
X1194Y67391D02*
X145454D01*
X1194Y67891D02*
X145454D01*
X1194Y64890D02*
X145454D01*
X1194Y65390D02*
X145454D01*
X1194Y69890D02*
X145454D01*
X1194Y70390D02*
X145454D01*
X1194Y68391D02*
X145454D01*
X1194Y69390D02*
X145454D01*
X1194Y68891D02*
X145454D01*
X1194Y61391D02*
X145454D01*
X1194Y61891D02*
X145454D01*
X1194Y60391D02*
X145454D01*
X1194Y60891D02*
X145454D01*
X1194Y63890D02*
X145454D01*
X1194Y64390D02*
X145454D01*
X1194Y62391D02*
X145454D01*
X1194Y63390D02*
X145454D01*
X1194Y62890D02*
X145454D01*
X1194Y105891D02*
X110495D01*
X1194Y106391D02*
X110495D01*
X1194Y104891D02*
X110556D01*
X1194Y105391D02*
X110495D01*
X1194Y108390D02*
X110495D01*
X1194Y108890D02*
X110635D01*
X1194Y106890D02*
X110495D01*
X1194Y107890D02*
X110495D01*
X1194Y107390D02*
X110495D01*
X1194Y104391D02*
X111056D01*
X1194Y109390D02*
X111135D01*
X1194Y103391D02*
X112056D01*
X1194Y103891D02*
X111556D01*
X1194Y111390D02*
X127252D01*
X1194Y113391D02*
X112056D01*
X1194Y109890D02*
X111635D01*
X1194Y110390D02*
X112135D01*
X1194Y110890D02*
X126752D01*
X1194Y115891D02*
X110495D01*
X1194Y116391D02*
X110495D01*
X1194Y114891D02*
X110556D01*
X1194Y115391D02*
X110495D01*
X1194Y118391D02*
X110495D01*
X1194Y118891D02*
X110635D01*
X1194Y116891D02*
X110495D01*
X1194Y117891D02*
X110495D01*
X1194Y117391D02*
X110495D01*
X1194Y119390D02*
X111135D01*
X1194Y119890D02*
X111635D01*
X1194Y113891D02*
X111556D01*
X1194Y114391D02*
X111056D01*
X1194Y123890D02*
X132981D01*
X1194Y124390D02*
X132981D01*
X1194Y120390D02*
X112135D01*
X1194Y123390D02*
X132981D01*
X1194Y122890D02*
X133350D01*
X1194Y136890D02*
X75909D01*
X1194Y137390D02*
X75409D01*
X1194Y133890D02*
X105233D01*
X1194Y136390D02*
X76409D01*
X1194Y139391D02*
X74784D01*
X1194Y139891D02*
X74784D01*
X1194Y137891D02*
X74909D01*
X1194Y138891D02*
X74784D01*
X1194Y138391D02*
X74784D01*
X1194Y131890D02*
X106050D01*
X1194Y132390D02*
X105550D01*
X1194Y124890D02*
X133012D01*
X1194Y125391D02*
X133512D01*
X1194Y134890D02*
X105616D01*
X1194Y135390D02*
X106116D01*
X1194Y132890D02*
X105233D01*
X1194Y134390D02*
X105233D01*
X1194Y133390D02*
X105233D01*
X1194Y151391D02*
X54592D01*
X1194Y151891D02*
X54092D01*
X55232Y150751D02*
X61932D01*
X1194Y150891D02*
X55092D01*
X1194Y153391D02*
X52592D01*
X1194Y153891D02*
X52092D01*
X63072Y151891D02*
X74092D01*
X1194Y152891D02*
X53092D01*
X1194Y152391D02*
X53592D01*
X1194Y141391D02*
X74784D01*
X1194Y141891D02*
X74859D01*
X1194Y140391D02*
X74784D01*
X1194Y140891D02*
X74784D01*
X1194Y142391D02*
X75359D01*
X1194Y142891D02*
X75859D01*
X1194Y143391D02*
X76359D01*
X62572Y151391D02*
X74592D01*
X62072Y150891D02*
X75092D01*
X1194Y155391D02*
X51882D01*
X1194Y155891D02*
X51882D01*
X1194Y154391D02*
X51882D01*
X1194Y154891D02*
X51882D01*
X1194Y157890D02*
X51882D01*
X1194Y158390D02*
X51882D01*
X1194Y156391D02*
X51882D01*
X1194Y157390D02*
X51882D01*
X1194Y156890D02*
X51882D01*
X1194Y159890D02*
X51882D01*
X1194Y160390D02*
X51882D01*
X1194Y158890D02*
X51882D01*
X1194Y159390D02*
X51882D01*
X1194Y162390D02*
X53472D01*
X1194Y162891D02*
X53972D01*
X1194Y160890D02*
X51972D01*
X1194Y161390D02*
X52472D01*
X1194Y161890D02*
X52972D01*
X1194Y181391D02*
X107194D01*
X1194Y181890D02*
X107194D01*
X1194Y163391D02*
X54472D01*
X1194Y163891D02*
X54972D01*
X1194Y183890D02*
X107194D01*
X1194Y184390D02*
X107194D01*
X1194Y182390D02*
X107194D01*
X1194Y183390D02*
X107194D01*
X1194Y182890D02*
X107194D01*
X1194Y184890D02*
X107546D01*
X1194Y186390D02*
X137058D01*
X1194Y175391D02*
X137058D01*
X1194Y180891D02*
X107624D01*
X1194Y189891D02*
X137058D01*
X1194Y190391D02*
X137058D01*
X1194Y186890D02*
X137058D01*
X1194Y189391D02*
X137058D01*
X1194Y188891D02*
X137058D01*
X51882Y154101D02*
X55232Y150751D01*
X51882Y154101D02*
Y160801D01*
X52434Y161353D02*
Y195657D01*
X52934Y161853D02*
Y195657D01*
X51934Y160853D02*
Y195657D01*
X53434Y162353D02*
Y195657D01*
X53934Y162853D02*
Y195657D01*
X54434Y163353D02*
Y195657D01*
X54934Y163853D02*
Y195657D01*
X61932Y150751D02*
X65282Y154101D01*
X62192Y163891D02*
X74972D01*
X63192Y162891D02*
X73972D01*
X62692Y163391D02*
X74472D01*
X61932Y164151D02*
X65282Y160801D01*
X51882D02*
X55232Y164151D01*
X63434Y162648D02*
Y195657D01*
X62434Y163648D02*
Y195657D01*
X62934Y163148D02*
Y195657D01*
X58434Y164151D02*
Y195657D01*
X57934Y164151D02*
Y195657D01*
X59434Y164151D02*
Y195657D01*
X58934Y164151D02*
Y195657D01*
X55934Y164151D02*
Y195657D01*
X55434Y164151D02*
Y195657D01*
X57434Y164151D02*
Y195657D01*
X56434Y164151D02*
Y195657D01*
X56934Y164151D02*
Y195657D01*
X1194Y187891D02*
X137058D01*
X1194Y188391D02*
X137058D01*
X55232Y164151D02*
X61932D01*
X1194Y187390D02*
X137058D01*
X60434Y164151D02*
Y195657D01*
X59934Y164151D02*
Y195657D01*
X61934Y164148D02*
Y195657D01*
X60934Y164151D02*
Y195657D01*
X61434Y164151D02*
Y195657D01*
X1194Y94390D02*
X145454D01*
X1194Y94890D02*
X145454D01*
X1194Y93391D02*
X145454D01*
X1194Y93891D02*
X145454D01*
X1194Y96890D02*
X145454D01*
X1194Y97391D02*
X145454D01*
X1194Y95390D02*
X145454D01*
X1194Y96390D02*
X145454D01*
X1194Y95890D02*
X145454D01*
X1194Y89890D02*
X145454D01*
X1194Y90390D02*
X145454D01*
X1194Y88890D02*
X145454D01*
X1194Y89390D02*
X145454D01*
X1194Y92391D02*
X145454D01*
X1194Y92891D02*
X145454D01*
X1194Y90891D02*
X145454D01*
X1194Y91891D02*
X145454D01*
X1194Y91391D02*
X145454D01*
X1194Y111890D02*
X145454D01*
X1194Y112390D02*
X145454D01*
X1194Y102391D02*
X145454D01*
X1194Y102891D02*
X145454D01*
X1194Y121890D02*
X145454D01*
X1194Y122390D02*
X145454D01*
X1194Y112891D02*
X145454D01*
X1194Y121390D02*
X145454D01*
X1194Y120890D02*
X145454D01*
X1194Y98891D02*
X145454D01*
X1194Y99391D02*
X145454D01*
X1194Y97891D02*
X145454D01*
X1194Y98391D02*
X145454D01*
X1194Y101391D02*
X145454D01*
X1194Y101891D02*
X145454D01*
X1194Y99891D02*
X145454D01*
X1194Y100891D02*
X145454D01*
X1194Y100391D02*
X145454D01*
X1194Y76390D02*
X145454D01*
X1194Y76890D02*
X145454D01*
X1194Y75390D02*
X145454D01*
X1194Y75890D02*
X145454D01*
X1194Y78891D02*
X145454D01*
X1194Y79391D02*
X145454D01*
X1194Y77390D02*
X145454D01*
X1194Y78391D02*
X145454D01*
X1194Y77890D02*
X145454D01*
X1194Y71890D02*
X145454D01*
X1194Y72391D02*
X145454D01*
X1194Y70890D02*
X145454D01*
X1194Y71390D02*
X145454D01*
X1194Y74391D02*
X145454D01*
X1194Y74891D02*
X145454D01*
X1194Y72891D02*
X145454D01*
X1194Y73891D02*
X145454D01*
X1194Y73391D02*
X145454D01*
X1194Y85391D02*
X145454D01*
X1194Y85891D02*
X145454D01*
X1194Y84390D02*
X145454D01*
X1194Y84891D02*
X145454D01*
X1194Y87890D02*
X145454D01*
X1194Y88390D02*
X145454D01*
X1194Y86391D02*
X145454D01*
X1194Y87391D02*
X145454D01*
X1194Y86891D02*
X145454D01*
X1194Y80891D02*
X145454D01*
X1194Y81391D02*
X145454D01*
X1194Y79891D02*
X145454D01*
X1194Y80391D02*
X145454D01*
X1194Y83390D02*
X145454D01*
X1194Y83890D02*
X145454D01*
X1194Y81890D02*
X145454D01*
X1194Y82890D02*
X145454D01*
X1194Y82390D02*
X145454D01*
X1194Y174390D02*
X137689D01*
X1194Y174890D02*
X137189D01*
X1194Y173390D02*
X138689D01*
X1194Y173890D02*
X138189D01*
X1194Y177391D02*
X137058D01*
X1194Y177891D02*
X137058D01*
X1194Y175891D02*
X137058D01*
X1194Y176891D02*
X137058D01*
X1194Y176391D02*
X137058D01*
X1194Y169890D02*
X145454D01*
X1194Y170390D02*
X145454D01*
X1194Y168891D02*
X145454D01*
X1194Y169390D02*
X145454D01*
X1194Y172390D02*
X145454D01*
X1194Y172890D02*
X145454D01*
X1194Y170890D02*
X145454D01*
X1194Y171890D02*
X145454D01*
X1194Y171390D02*
X145454D01*
X1194Y179391D02*
X137627D01*
X1194Y179891D02*
X138127D01*
X1194Y178391D02*
X137058D01*
X1194Y178891D02*
X137127D01*
X1194Y190891D02*
X145454D01*
X1194Y191391D02*
X145454D01*
X1194Y180391D02*
X138627D01*
X1194Y185890D02*
X137058D01*
X1194Y185390D02*
X137058D01*
X1194Y192891D02*
X145454D01*
X1194Y193391D02*
X145454D01*
X1194Y191891D02*
X145454D01*
X1194Y192391D02*
X145454D01*
X1194Y195390D02*
X145454D01*
X1194Y195657D02*
X145454D01*
X1194Y193891D02*
X145454D01*
X1194Y194890D02*
X145454D01*
X1194Y194390D02*
X145454D01*
X1194Y131391D02*
X145454D01*
X1194Y135890D02*
X145454D01*
X1194Y130391D02*
X145454D01*
X1194Y130891D02*
X145454D01*
X1194Y145390D02*
X145454D01*
X1194Y145890D02*
X145454D01*
X1194Y143891D02*
X145454D01*
X1194Y144890D02*
X145454D01*
X1194Y144390D02*
X145454D01*
X1194Y126891D02*
X145454D01*
X1194Y127391D02*
X145454D01*
X1194Y125891D02*
X145454D01*
X1194Y126391D02*
X145454D01*
X1194Y129391D02*
X145454D01*
X1194Y129891D02*
X145454D01*
X1194Y127891D02*
X145454D01*
X1194Y128891D02*
X145454D01*
X1194Y128391D02*
X145454D01*
X1194Y165391D02*
X145454D01*
X1194Y165891D02*
X145454D01*
X1194Y164391D02*
X145454D01*
X1194Y164891D02*
X145454D01*
X1194Y167891D02*
X145454D01*
X1194Y168391D02*
X145454D01*
X1194Y166391D02*
X145454D01*
X1194Y167391D02*
X145454D01*
X1194Y166891D02*
X145454D01*
X1194Y147390D02*
X145454D01*
X1194Y147890D02*
X145454D01*
X1194Y146390D02*
X145454D01*
X1194Y146890D02*
X145454D01*
X1194Y149890D02*
X145454D01*
X1194Y150391D02*
X145454D01*
X1194Y148390D02*
X145454D01*
X1194Y149390D02*
X145454D01*
X1194Y148890D02*
X145454D01*
X78434Y1194D02*
Y136116D01*
X77934Y1194D02*
Y136116D01*
X79434Y1194D02*
Y136116D01*
X78934Y1194D02*
Y136116D01*
X75934Y1194D02*
Y136865D01*
X75434Y1194D02*
Y137365D01*
X77434Y1194D02*
Y136116D01*
X76434Y1194D02*
Y136365D01*
X76934Y1194D02*
Y136116D01*
X80434Y1194D02*
Y136116D01*
X79934Y1194D02*
Y136116D01*
X86934Y1194D02*
Y136116D01*
X86434Y1194D02*
Y136365D01*
X81434Y1194D02*
Y137066D01*
X80934Y1194D02*
Y136566D01*
X85934Y1194D02*
Y136865D01*
X81934Y1194D02*
Y137566D01*
X85434Y1194D02*
Y137365D01*
X87934Y1194D02*
Y136116D01*
X87434Y1194D02*
Y136116D01*
X88934Y1194D02*
Y136116D01*
X88434Y1194D02*
Y136116D01*
X89934Y1194D02*
Y136116D01*
X89434Y1194D02*
Y136116D01*
X91434Y1194D02*
Y137066D01*
X90434Y1194D02*
Y136116D01*
X90934Y1194D02*
Y136566D01*
X106934Y1194D02*
Y131808D01*
X106434Y1194D02*
Y131808D01*
X107434Y1194D02*
Y131808D01*
X110495Y108751D02*
X112395Y110651D01*
X105434Y1194D02*
Y132506D01*
X91934Y1194D02*
Y137566D01*
X108434Y1194D02*
Y132309D01*
X105934Y1194D02*
Y132006D01*
X107934Y1194D02*
Y131809D01*
X112434Y1194D02*
Y103051D01*
X111934Y1194D02*
Y103512D01*
X113434Y1194D02*
Y103051D01*
X112934Y1194D02*
Y103051D01*
X110495Y104951D02*
X112395Y103051D01*
X110495Y104951D02*
Y108751D01*
X110934Y1194D02*
Y104512D01*
Y109190D02*
Y114512D01*
X111434Y1194D02*
Y104012D01*
X114434Y1194D02*
Y103051D01*
X113934Y1194D02*
Y103051D01*
X115434Y1194D02*
Y103051D01*
X114934Y1194D02*
Y103051D01*
X115934Y1194D02*
Y103051D01*
X112395D02*
X116195D01*
X117434Y1194D02*
Y104290D01*
X116434Y1194D02*
Y103290D01*
X116934Y1194D02*
Y103790D01*
X112934Y110651D02*
Y113051D01*
X112434Y110651D02*
Y113051D01*
X113934Y110651D02*
Y113051D01*
X113434Y110651D02*
Y113051D01*
X110495Y114951D02*
Y118751D01*
X112395Y120651D01*
X111434Y109690D02*
Y114012D01*
X111934Y110190D02*
Y113512D01*
X110495Y114951D02*
X112395Y113051D01*
X114934Y110651D02*
Y113051D01*
X112395Y110651D02*
X116195D01*
X115934D02*
Y113051D01*
X115434Y110651D02*
Y113051D01*
X112395D02*
X116195D01*
X112395Y120651D02*
X116195D01*
X116934Y109912D02*
Y113790D01*
X114434Y110651D02*
Y113051D01*
X116434Y110412D02*
Y113290D01*
X74934Y1194D02*
Y137865D01*
X74434Y1194D02*
Y151548D01*
X82934Y1194D02*
Y151753D01*
X82434Y1194D02*
Y151253D01*
X73434Y1194D02*
Y152548D01*
X72934Y1194D02*
Y153048D01*
X83934Y1194D02*
Y152753D01*
X73934Y1194D02*
Y152048D01*
X83434Y1194D02*
Y152253D01*
X84934Y1194D02*
Y137865D01*
X84434Y1194D02*
Y153253D01*
X92934Y1194D02*
Y195657D01*
X92434Y1194D02*
Y195657D01*
X93934Y1194D02*
Y195657D01*
X93434Y1194D02*
Y195657D01*
X95434Y1194D02*
Y195657D01*
X94434Y1194D02*
Y195657D01*
X94934Y1194D02*
Y195657D01*
X64434Y1194D02*
Y153253D01*
X63934Y1194D02*
Y152753D01*
X65434Y1194D02*
Y195657D01*
X64934Y1194D02*
Y153753D01*
X66434Y1194D02*
Y195657D01*
X65934Y1194D02*
Y195657D01*
X67934Y1194D02*
Y195657D01*
X66934Y1194D02*
Y195657D01*
X67434Y1194D02*
Y195657D01*
X71434Y1194D02*
Y195657D01*
X70934Y1194D02*
Y195657D01*
X72434Y1194D02*
Y153548D01*
X71934Y1194D02*
Y154048D01*
X68934Y1194D02*
Y195657D01*
X68434Y1194D02*
Y195657D01*
X70434Y1194D02*
Y195657D01*
X69434Y1194D02*
Y195657D01*
X69934Y1194D02*
Y195657D01*
X98934Y1194D02*
Y195657D01*
X98434Y1194D02*
Y195657D01*
X99934Y1194D02*
Y195657D01*
X99434Y1194D02*
Y195657D01*
X96434Y1194D02*
Y195657D01*
X95934Y1194D02*
Y195657D01*
X97934Y1194D02*
Y195657D01*
X96934Y1194D02*
Y195657D01*
X97434Y1194D02*
Y195657D01*
X103434Y1194D02*
Y195657D01*
X102934Y1194D02*
Y195657D01*
X104434Y1194D02*
Y195657D01*
X103934Y1194D02*
Y195657D01*
X100934Y1194D02*
Y195657D01*
X100434Y1194D02*
Y195657D01*
X102434Y1194D02*
Y195657D01*
X101434Y1194D02*
Y195657D01*
X101934Y1194D02*
Y195657D01*
X108934Y1194D02*
Y180520D01*
X104934Y1194D02*
Y195657D01*
X109934Y1194D02*
Y180860D01*
X109434Y1194D02*
Y180520D01*
X110434Y1194D02*
Y195657D01*
X110934Y119190D02*
Y195657D01*
X111434Y119690D02*
Y195657D01*
X111934Y120190D02*
Y195657D01*
X112434Y120651D02*
Y195657D01*
X115934Y120651D02*
Y195657D01*
X115434Y120651D02*
Y195657D01*
X116934Y119912D02*
Y195657D01*
X116434Y120412D02*
Y195657D01*
X113434Y120651D02*
Y195657D01*
X112934Y120651D02*
Y195657D01*
X114934Y120651D02*
Y195657D01*
X113934Y120651D02*
Y195657D01*
X114434Y120651D02*
Y195657D01*
X116195Y103051D02*
X118095Y104951D01*
X117456Y109390D02*
X126545D01*
X117934Y1194D02*
Y104790D01*
X118095Y104951D02*
Y108751D01*
X116195Y110651D02*
X118095Y108751D01*
X116456Y110390D02*
X126545D01*
X117934Y108912D02*
Y114790D01*
X117434Y109412D02*
Y114290D01*
X116956Y109890D02*
X126545D01*
X116535Y103391D02*
X145454D01*
X117035Y103891D02*
X145454D01*
X117535Y104391D02*
X145454D01*
X118035Y104891D02*
X145454D01*
X118095Y107890D02*
X145454D01*
X117956Y108890D02*
X126737D01*
X118095Y105391D02*
X145454D01*
X118095Y106391D02*
X145454D01*
X118095Y105891D02*
X145454D01*
X116535Y113391D02*
X145454D01*
X117035Y113891D02*
X145454D01*
X117535Y114391D02*
X145454D01*
X118035Y114891D02*
X145454D01*
X116195Y113051D02*
X118095Y114951D01*
X116195Y120651D02*
X118095Y118751D01*
Y114951D02*
Y118751D01*
Y115891D02*
X145454D01*
X118095Y115391D02*
X145454D01*
X118095Y117391D02*
X145454D01*
X118095Y117891D02*
X145454D01*
X118095Y116391D02*
X145454D01*
X118095Y116891D02*
X145454D01*
X116956Y119890D02*
X145454D01*
X116456Y120390D02*
X145454D01*
X118095Y118391D02*
X145454D01*
X117456Y119390D02*
X145454D01*
X117956Y118891D02*
X145454D01*
X127934Y1194D02*
Y108283D01*
X127434Y1194D02*
Y108283D01*
X128934Y1194D02*
Y108283D01*
X128434Y1194D02*
Y108283D01*
X126934Y1194D02*
Y108693D01*
X126545Y109083D02*
X127345Y108283D01*
X129934Y1194D02*
Y108283D01*
X127345D02*
X128945D01*
X129434Y1194D02*
Y108283D01*
X118095Y106890D02*
X145454D01*
X118095Y107390D02*
X145454D01*
X130434Y1194D02*
Y108283D01*
X128982D02*
X130582D01*
X133934Y1194D02*
Y122459D01*
X130934Y1194D02*
Y108635D01*
X145454Y1194D02*
Y108579D01*
X144934Y1194D02*
Y109099D01*
X145434Y1194D02*
Y108599D01*
X118095Y108390D02*
X127237D01*
X126545Y109083D02*
Y110683D01*
X130582Y108283D02*
X131382Y109083D01*
Y110683D01*
X126545D02*
X127345Y111483D01*
X128945D01*
X144854Y109179D02*
Y110779D01*
X128982Y111483D02*
X130582D01*
X131382Y110683D01*
X130690Y108390D02*
X145454D01*
X131190Y108890D02*
X145142D01*
X144854Y109179D02*
X145454Y108579D01*
X131382Y109390D02*
X144854D01*
X131174Y110890D02*
X144966D01*
X130674Y111390D02*
X145454D01*
X131382Y109890D02*
X144854D01*
X131382Y110390D02*
X144854D01*
Y110779D02*
X145454Y111379D01*
X121434Y1194D02*
Y195657D01*
X120934Y1194D02*
Y195657D01*
X122434Y1194D02*
Y195657D01*
X121934Y1194D02*
Y195657D01*
X118934Y1194D02*
Y195657D01*
X118434Y1194D02*
Y195657D01*
X120434Y1194D02*
Y195657D01*
X119434Y1194D02*
Y195657D01*
X119934Y1194D02*
Y195657D01*
X125934Y1194D02*
Y195657D01*
X125434Y1194D02*
Y195657D01*
X131934Y1194D02*
Y195657D01*
X126434Y1194D02*
Y195657D01*
X123434Y1194D02*
Y195657D01*
X122934Y1194D02*
Y195657D01*
X124934Y1194D02*
Y195657D01*
X123934Y1194D02*
Y195657D01*
X124434Y1194D02*
Y195657D01*
X128934Y111483D02*
Y195657D01*
X128434Y111483D02*
Y195657D01*
X129934Y111483D02*
Y195657D01*
X129434Y111483D02*
Y195657D01*
X117934Y118912D02*
Y195657D01*
X117434Y119412D02*
Y195657D01*
X126934Y111072D02*
Y195657D01*
X127434Y111483D02*
Y195657D01*
X127934Y111483D02*
Y195657D01*
X132981Y123259D02*
Y124859D01*
X133781Y125659D01*
X133434Y1194D02*
Y122806D01*
X132981Y123259D02*
X133781Y122459D01*
X130934Y111130D02*
Y195657D01*
X130434Y111483D02*
Y195657D01*
X132934Y1194D02*
Y195657D01*
X131434Y1194D02*
Y195657D01*
X132434Y1194D02*
Y195657D01*
X134934Y1194D02*
Y122459D01*
X134434Y1194D02*
Y122459D01*
X135934Y1194D02*
Y123013D01*
X135434Y1194D02*
Y122513D01*
X136934Y1194D02*
Y195657D01*
X136434Y1194D02*
Y195657D01*
X138434Y1194D02*
Y173645D01*
X137434Y1194D02*
Y174645D01*
X137934Y1194D02*
Y174145D01*
X139934Y1194D02*
Y173121D01*
X139434Y1194D02*
Y173121D01*
X142434Y1194D02*
Y173121D01*
X140934Y1194D02*
Y173121D01*
X142934Y1194D02*
Y173298D01*
X138934Y1194D02*
Y173145D01*
X144434Y1194D02*
Y174798D01*
X143434Y1194D02*
Y173798D01*
X143934Y1194D02*
Y174298D01*
X135381Y122459D02*
X136181Y123259D01*
X133781Y122459D02*
X135381D01*
X136181Y123259D02*
Y124859D01*
X135381Y125659D02*
X136181Y124859D01*
X135934Y125106D02*
Y195657D01*
X133434Y125313D02*
Y195657D01*
X141934Y1194D02*
Y173121D01*
X140434Y1194D02*
Y173121D01*
X141434Y1194D02*
Y173121D01*
X135812Y122890D02*
X145454D01*
X136181Y123390D02*
X145454D01*
X136181Y123890D02*
X145454D01*
X136181Y124390D02*
X145454D01*
X136150Y124890D02*
X145454D01*
X135650Y125391D02*
X145454D01*
X144934Y110859D02*
Y195657D01*
X145434Y111359D02*
Y195657D01*
X145454Y111379D02*
Y195657D01*
X74784Y138015D02*
X76684Y136116D01*
X74784Y138015D02*
Y141815D01*
X76684Y143716D01*
X75934Y142966D02*
Y150751D01*
X74934Y141966D02*
Y151048D01*
X75434Y142466D02*
Y150751D01*
X76434Y143466D02*
Y150751D01*
X76934Y143716D02*
Y150751D01*
X77934Y143716D02*
Y150751D01*
X80484Y136116D02*
X82384Y138015D01*
X76684Y136116D02*
X80484D01*
X80759Y136390D02*
X86409D01*
X80484Y143716D02*
X82384Y141815D01*
X78934Y143716D02*
Y150751D01*
X78434Y143716D02*
Y150751D01*
X80434Y143716D02*
Y150751D01*
X79434Y143716D02*
Y150751D01*
X79934Y143716D02*
Y150751D01*
X65282Y155391D02*
X71882D01*
X65282Y155891D02*
X71882D01*
X65282Y154391D02*
X71882D01*
X65282Y154891D02*
X71882D01*
X65282Y158390D02*
X71882D01*
X65282Y158890D02*
X71882D01*
X65282Y156391D02*
X71882D01*
X65282Y157890D02*
X71882D01*
X65282Y156890D02*
X71882D01*
X75232Y150751D02*
X81932D01*
X63572Y152391D02*
X73592D01*
X77434Y143716D02*
Y150751D01*
X76684Y143716D02*
X80484D01*
X64072Y152891D02*
X73092D01*
X64572Y153391D02*
X72592D01*
X71882Y154101D02*
X75232Y150751D01*
X65282Y157390D02*
X71882D01*
X65072Y153891D02*
X72092D01*
X81259Y136890D02*
X85909D01*
X81759Y137390D02*
X85409D01*
X86684Y136116D02*
X90484D01*
X82259Y137891D02*
X84909D01*
X82384Y138015D02*
Y141815D01*
Y138391D02*
X84784D01*
Y138015D02*
X86684Y136116D01*
X84784Y138015D02*
Y141815D01*
X90484Y136116D02*
X92384Y138015D01*
X105233Y132708D02*
X106133Y131808D01*
X105233Y132708D02*
Y134508D01*
X107933Y131808D02*
X108833Y132708D01*
X106133Y131808D02*
X107933D01*
X105233Y134508D02*
X106133Y135408D01*
X92384Y138015D02*
Y141815D01*
X108833Y132708D02*
Y134508D01*
X106133Y135408D02*
X107933D01*
X108833Y134508D01*
X82384Y139891D02*
X84784D01*
X82384Y140391D02*
X84784D01*
X82384Y138891D02*
X84784D01*
X82384Y139391D02*
X84784D01*
X81434Y142765D02*
Y150751D01*
X80934Y143265D02*
Y150751D01*
X82384Y140891D02*
X84784D01*
X81934Y142265D02*
Y150753D01*
X82384Y141391D02*
X84784D01*
X81309Y142891D02*
X85859D01*
X80809Y143391D02*
X86359D01*
X82309Y141891D02*
X84859D01*
X81809Y142391D02*
X85359D01*
X84784Y141815D02*
X86684Y143716D01*
X81932Y150751D02*
X85282Y154101D01*
X90484Y143716D02*
X92384Y141815D01*
X84934Y141966D02*
Y153753D01*
X86684Y143716D02*
X90484D01*
X65282Y154101D02*
Y160801D01*
Y160390D02*
X71882D01*
X65282Y159390D02*
X71882D01*
X65282Y159890D02*
X71882D01*
X64434Y161648D02*
Y195657D01*
X63934Y162148D02*
Y195657D01*
X71882Y154101D02*
Y160801D01*
X64934Y161148D02*
Y195657D01*
X71934Y160853D02*
Y195657D01*
X64192Y161890D02*
X72972D01*
X63692Y162390D02*
X73472D01*
X65192Y160890D02*
X71972D01*
X64692Y161390D02*
X72472D01*
X71882Y160801D02*
X75232Y164151D01*
X72434Y161353D02*
Y195657D01*
X81932Y164151D02*
X85282Y160801D01*
X72934Y161853D02*
Y195657D01*
X73434Y162353D02*
Y195657D01*
X76934Y164151D02*
Y195657D01*
X76434Y164151D02*
Y195657D01*
X77934Y164151D02*
Y195657D01*
X77434Y164151D02*
Y195657D01*
X73934Y162853D02*
Y195657D01*
X74434Y163353D02*
Y195657D01*
X74934Y163853D02*
Y195657D01*
X75434Y164151D02*
Y195657D01*
X75934Y164151D02*
Y195657D01*
X78434Y164151D02*
Y195657D01*
X75232Y164151D02*
X81932D01*
X79934D02*
Y195657D01*
X79434Y164151D02*
Y195657D01*
X80434Y164151D02*
Y195657D01*
X78934Y164151D02*
Y195657D01*
X81934Y164148D02*
Y195657D01*
X80934Y164151D02*
Y195657D01*
X81434Y164151D02*
Y195657D01*
X88934Y143716D02*
Y195657D01*
X88434Y143716D02*
Y195657D01*
X90934Y143265D02*
Y195657D01*
X89434Y143716D02*
Y195657D01*
X85434Y142466D02*
Y195657D01*
X85934Y142966D02*
Y195657D01*
X86434Y143466D02*
Y195657D01*
X86934Y143716D02*
Y195657D01*
X87434Y143716D02*
Y195657D01*
X107434Y135408D02*
Y181080D01*
X106934Y135408D02*
Y195657D01*
X108434Y134906D02*
Y180520D01*
X107934Y135406D02*
Y180580D01*
X91934Y142265D02*
Y195657D01*
X91434Y142765D02*
Y195657D01*
X105434Y134709D02*
Y195657D01*
X105934Y135209D02*
Y195657D01*
X106434Y135408D02*
Y195657D01*
X83434Y162648D02*
Y195657D01*
X82934Y163148D02*
Y195657D01*
X85282Y154101D02*
Y160801D01*
X83934Y162148D02*
Y195657D01*
X84434Y161648D02*
Y195657D01*
X82434Y163648D02*
Y195657D01*
X89934Y143716D02*
Y195657D01*
X84934Y161148D02*
Y195657D01*
X87934Y143716D02*
Y195657D01*
X107194Y182939D02*
Y184539D01*
X107994Y185339D01*
X107194Y181320D02*
X107994Y180520D01*
X107194Y181320D02*
Y182920D01*
X90434Y143716D02*
Y195657D01*
X107434Y184779D02*
Y195657D01*
X107934Y185279D02*
Y195657D01*
X108434Y185339D02*
Y195657D01*
X108934Y185339D02*
Y195657D01*
X82072Y150891D02*
X145454D01*
X82572Y151391D02*
X145454D01*
X83072Y151891D02*
X145454D01*
X83572Y152391D02*
X145454D01*
X84072Y152891D02*
X145454D01*
X84572Y153391D02*
X145454D01*
X85072Y153891D02*
X145454D01*
X85282Y154891D02*
X145454D01*
X85282Y154391D02*
X145454D01*
X90759Y136390D02*
X145454D01*
X91259Y136890D02*
X145454D01*
X91759Y137390D02*
X145454D01*
X92259Y137891D02*
X145454D01*
X91309Y142891D02*
X145454D01*
X90809Y143391D02*
X145454D01*
X92384Y140391D02*
X145454D01*
X91809Y142391D02*
X145454D01*
X92309Y141891D02*
X145454D01*
X85192Y160890D02*
X145454D01*
X84692Y161390D02*
X145454D01*
X85282Y159890D02*
X145454D01*
X85282Y160390D02*
X145454D01*
X82692Y163391D02*
X145454D01*
X82192Y163891D02*
X145454D01*
X84192Y161890D02*
X145454D01*
X83192Y162891D02*
X145454D01*
X83692Y162390D02*
X145454D01*
X85282Y156391D02*
X145454D01*
X85282Y156890D02*
X145454D01*
X85282Y155391D02*
X145454D01*
X85282Y155891D02*
X145454D01*
X85282Y158890D02*
X145454D01*
X85282Y159390D02*
X145454D01*
X85282Y157390D02*
X145454D01*
X85282Y158390D02*
X145454D01*
X85282Y157890D02*
X145454D01*
X108016Y131890D02*
X145454D01*
X108516Y132390D02*
X145454D01*
X133781Y125659D02*
X135381D01*
X108833Y133390D02*
X145454D01*
X108833Y133890D02*
X145454D01*
X108833Y134390D02*
X145454D01*
X142758Y173121D02*
X144658Y175021D01*
X137058D02*
X138958Y173121D01*
X142758D01*
X107950Y135390D02*
X145454D01*
X92384Y138391D02*
X145454D01*
X108833Y132890D02*
X145454D01*
X108450Y134890D02*
X145454D01*
X92384Y140891D02*
X145454D01*
X92384Y141391D02*
X145454D01*
X92384Y138891D02*
X145454D01*
X92384Y139891D02*
X145454D01*
X92384Y139391D02*
X145454D01*
X143027Y173390D02*
X145454D01*
X143527Y173890D02*
X145454D01*
X144027Y174390D02*
X145454D01*
X144527Y174890D02*
X145454D01*
X137058Y175021D02*
Y178821D01*
X107994Y180520D02*
X109594D01*
X144658Y175021D02*
Y178821D01*
Y175891D02*
X145454D01*
X144658Y175391D02*
X145454D01*
X144658Y177391D02*
X145454D01*
X144658Y177891D02*
X145454D01*
X144658Y176391D02*
X145454D01*
X144658Y176891D02*
X145454D01*
X143589Y179891D02*
X145454D01*
X143089Y180391D02*
X145454D01*
X144658Y178391D02*
X145454D01*
X144089Y179391D02*
X145454D01*
X144589Y178891D02*
X145454D01*
X109594Y180520D02*
X110394Y181320D01*
Y182920D01*
X137434Y179198D02*
Y183121D01*
X138434Y180198D02*
Y183121D01*
X134434Y125659D02*
Y195657D01*
X133934Y125659D02*
Y195657D01*
X135434Y125606D02*
Y195657D01*
X134934Y125659D02*
Y195657D01*
X137934Y179698D02*
Y183121D01*
X109965Y180891D02*
X145454D01*
X110394Y181391D02*
X145454D01*
X137058Y178821D02*
X138958Y180721D01*
X142758D01*
X110394Y181890D02*
X145454D01*
X110394Y182390D02*
X145454D01*
X138934Y180698D02*
Y183121D01*
X139434Y180721D02*
Y183121D01*
X110394Y182890D02*
X145454D01*
X110394Y182939D02*
Y184539D01*
X110043Y184890D02*
X137058D01*
X110394Y183390D02*
X137058D01*
X110394Y184390D02*
X137058D01*
X109434Y185339D02*
Y195657D01*
X107994Y185339D02*
X109594D01*
X137058Y183121D02*
Y190721D01*
X109934Y184999D02*
Y195657D01*
X109594Y185339D02*
X110394Y184539D01*
X137058Y183121D02*
X144658D01*
X110394Y183890D02*
X137058D01*
X137934Y190721D02*
Y195657D01*
X137058Y190721D02*
X144658D01*
X138434D02*
Y195657D01*
X137434Y190721D02*
Y195657D01*
X139934Y190721D02*
Y195657D01*
X138934Y190721D02*
Y195657D01*
X139434Y190721D02*
Y195657D01*
X142934Y180545D02*
Y183121D01*
X142434Y180721D02*
Y183121D01*
X143934Y179545D02*
Y183121D01*
X143434Y180045D02*
Y183121D01*
X140434Y180721D02*
Y183121D01*
X139934Y180721D02*
Y183121D01*
X141934Y180721D02*
Y183121D01*
X140934Y180721D02*
Y183121D01*
X141434Y180721D02*
Y183121D01*
X142758Y180721D02*
X144658Y178821D01*
X144434Y179045D02*
Y183121D01*
X144658Y183390D02*
X145454D01*
X144658Y183890D02*
X145454D01*
X144658Y183121D02*
Y190721D01*
Y185890D02*
X145454D01*
X144658Y184390D02*
X145454D01*
X144658Y185390D02*
X145454D01*
X144658Y184890D02*
X145454D01*
X143434Y190721D02*
Y195657D01*
X142934Y190721D02*
Y195657D01*
X144434Y190721D02*
Y195657D01*
X143934Y190721D02*
Y195657D01*
X140934Y190721D02*
Y195657D01*
X140434Y190721D02*
Y195657D01*
X142434Y190721D02*
Y195657D01*
X141434Y190721D02*
Y195657D01*
X141934Y190721D02*
Y195657D01*
X144658Y187390D02*
X145454D01*
X144658Y187891D02*
X145454D01*
X144658Y186390D02*
X145454D01*
X144658Y186890D02*
X145454D01*
X144658Y189891D02*
X145454D01*
X144658Y190391D02*
X145454D01*
X144658Y188391D02*
X145454D01*
X144658Y189391D02*
X145454D01*
X144658Y188891D02*
X145454D01*
G54D12*
X343239Y98425D02*
D03*
G54D13*
X247600Y7453D02*
D03*
G54D14*
X151853Y17311D02*
D03*
G54D16*
X354329Y0D02*
Y196851D01*
X0Y0D02*
X354329D01*
X0Y196851D02*
X354329D01*
X0Y0D02*
Y196851D01*
G54D17*
X271033Y186921D02*
D03*
X190858Y176921D02*
D03*
X180858D02*
D03*
X170858D02*
D03*
X150858D02*
D03*
X215995D02*
D03*
X158505Y112055D02*
D03*
X177304Y145831D02*
D03*
G54D18*
X215995Y186921D02*
D03*
G54D19*
X38582Y157451D02*
D03*
G54D20*
X11811Y11811D02*
D03*
X11811Y185040D02*
D03*
X342518D02*
D03*
X342518Y11811D02*
D03*
G54D23*
X264521Y78838D02*
D03*
X242663Y99567D02*
D03*
X238959Y88437D02*
D03*
X202571Y84438D02*
D03*
X197771Y83548D02*
D03*
X237559Y20237D02*
D03*
X317959Y81638D02*
D03*
X189871Y29838D02*
D03*
X200559Y33437D02*
D03*
X202559Y115838D02*
D03*
X208559Y70438D02*
D03*
X261559Y69837D02*
D03*
X283159Y106438D02*
D03*
X269759Y98238D02*
D03*
X226509Y114887D02*
D03*
X175359Y79637D02*
D03*
Y60438D02*
D03*
X194559Y46038D02*
D03*
Y50837D02*
D03*
Y55638D02*
D03*
Y60438D02*
D03*
Y65237D02*
D03*
X188171Y70038D02*
D03*
X184971Y50837D02*
D03*
Y46038D02*
D03*
Y55638D02*
D03*
Y60438D02*
D03*
Y65237D02*
D03*
Y74837D02*
D03*
Y70038D02*
D03*
X178559Y63638D02*
D03*
Y66838D02*
D03*
Y70038D02*
D03*
X308559Y28238D02*
D03*
X308959Y15438D02*
D03*
X292959Y15237D02*
D03*
X289759D02*
D03*
X267359D02*
D03*
X260959D02*
D03*
X248159D02*
D03*
X244959D02*
D03*
X225759D02*
D03*
X209759D02*
D03*
X203359D02*
D03*
X193759D02*
D03*
X181559Y39237D02*
D03*
X250859Y36237D02*
D03*
X251359Y44238D02*
D03*
X253959Y40837D02*
D03*
X251159Y41638D02*
D03*
X215159Y75037D02*
D03*
X167259Y105138D02*
D03*
X267959Y67137D02*
D03*
X210971Y117438D02*
D03*
X193356Y120246D02*
D03*
X207371Y60438D02*
D03*
X253959Y101637D02*
D03*
X316277Y122784D02*
D03*
X267759Y49237D02*
D03*
X267459Y52838D02*
D03*
X214571Y31637D02*
D03*
X225071Y20137D02*
D03*
X219371Y22038D02*
D03*
X222971Y61638D02*
D03*
X310959Y101137D02*
D03*
X314759Y82437D02*
D03*
X274359Y86137D02*
D03*
X276677Y82046D02*
D03*
X266359Y85037D02*
D03*
X227759Y129437D02*
D03*
X180159Y123238D02*
D03*
X179014Y119869D02*
D03*
X178571Y113238D02*
D03*
X167959Y130237D02*
D03*
X188171Y65237D02*
D03*
X253259Y83938D02*
D03*
X260171Y89237D02*
D03*
X255371D02*
D03*
X257459Y84338D02*
D03*
X167959Y121438D02*
D03*
X275871Y62738D02*
D03*
X274859Y72903D02*
D03*
X215359Y86238D02*
D03*
X214959Y92637D02*
D03*
X228971Y26838D02*
D03*
X178571Y79637D02*
D03*
X213659Y117638D02*
D03*
X254359Y43738D02*
D03*
X254459Y48338D02*
D03*
X204359Y110438D02*
D03*
X255937Y129551D02*
D03*
X261121Y129159D02*
D03*
X280157Y129237D02*
D03*
X284931Y129179D02*
D03*
X294439Y129199D02*
D03*
X181459Y91938D02*
D03*
X299311Y129159D02*
D03*
X310881Y127724D02*
D03*
X308171Y122837D02*
D03*
X307157Y118071D02*
D03*
X312359Y116838D02*
D03*
X307959Y94437D02*
D03*
X183377Y94965D02*
D03*
X184859Y97737D02*
D03*
X223559Y129437D02*
D03*
X219918Y129570D02*
D03*
X178571Y55638D02*
D03*
Y84438D02*
D03*
X181771Y74837D02*
D03*
X205949Y129532D02*
D03*
X201078D02*
D03*
X191393Y129413D02*
D03*
X186640Y129434D02*
D03*
X298571Y26838D02*
D03*
X272171Y58038D02*
D03*
X269771Y46038D02*
D03*
X264971Y36437D02*
D03*
X260971Y65538D02*
D03*
X260171Y58038D02*
D03*
X178571Y50837D02*
D03*
X254059Y38838D02*
D03*
X248271Y29337D02*
D03*
X242583Y27257D02*
D03*
X197771Y89237D02*
D03*
X247108Y26522D02*
D03*
X188171Y79637D02*
D03*
X298571Y31637D02*
D03*
X252059Y59737D02*
D03*
X192971Y79637D02*
D03*
X222971Y71838D02*
D03*
X260171Y77237D02*
D03*
X264859Y68738D02*
D03*
X238862Y70002D02*
D03*
X192971Y84438D02*
D03*
X244076Y69981D02*
D03*
X254359Y69638D02*
D03*
X248889Y69981D02*
D03*
X245771Y58038D02*
D03*
X248271Y64938D02*
D03*
X245071D02*
D03*
X235471D02*
D03*
X234359Y69837D02*
D03*
X209771Y60438D02*
D03*
X188171Y84438D02*
D03*
X209771Y65237D02*
D03*
X200959Y50837D02*
D03*
X207371Y46038D02*
D03*
X264971Y41238D02*
D03*
X305865Y100591D02*
D03*
X207512Y37760D02*
D03*
X197771Y70038D02*
D03*
Y74837D02*
D03*
X219371Y26838D02*
D03*
X224171D02*
D03*
X218671Y20137D02*
D03*
X167359Y110637D02*
D03*
X179359Y110438D02*
D03*
X167559Y108037D02*
D03*
X166959Y98838D02*
D03*
X171659Y68037D02*
D03*
X171059Y62238D02*
D03*
X169138Y58959D02*
D03*
X181771Y70038D02*
D03*
X173799Y42143D02*
D03*
X181559Y36037D02*
D03*
X184311Y42182D02*
D03*
X189029Y42162D02*
D03*
X200571Y41848D02*
D03*
X209771Y31637D02*
D03*
X219371D02*
D03*
X214471Y46338D02*
D03*
X212171Y44238D02*
D03*
X209771Y41238D02*
D03*
X205152Y42241D02*
D03*
X207271Y33838D02*
D03*
Y29438D02*
D03*
X284171Y82038D02*
D03*
X285671Y74738D02*
D03*
X294671D02*
D03*
X300459Y77938D02*
D03*
X311359Y68837D02*
D03*
X305659Y67738D02*
D03*
X191371Y46038D02*
D03*
X262571Y31637D02*
D03*
X197771Y79637D02*
D03*
X290059Y41537D02*
D03*
X291371Y55638D02*
D03*
X286571Y50837D02*
D03*
X206871Y48638D02*
D03*
X276971Y31637D02*
D03*
X272171Y26838D02*
D03*
X274759Y28837D02*
D03*
X280571Y46038D02*
D03*
Y28038D02*
D03*
X195459Y92537D02*
D03*
X307459Y39937D02*
D03*
X303371Y31637D02*
D03*
X187359Y15237D02*
D03*
X308159Y35238D02*
D03*
X308559Y31438D02*
D03*
Y25038D02*
D03*
X302559Y15237D02*
D03*
X299359D02*
D03*
X286559D02*
D03*
X283359D02*
D03*
X273759D02*
D03*
X264159D02*
D03*
X257759D02*
D03*
X254559D02*
D03*
X241759D02*
D03*
X235359D02*
D03*
X228959D02*
D03*
X222559D02*
D03*
X289744Y129199D02*
D03*
X212959Y15237D02*
D03*
X181771Y65237D02*
D03*
X188171Y89237D02*
D03*
X195708Y34571D02*
D03*
X291071Y38238D02*
D03*
X178920Y125908D02*
D03*
X311359Y72038D02*
D03*
X316049Y118071D02*
D03*
X322759Y85938D02*
D03*
X314859Y94437D02*
D03*
X313959Y89837D02*
D03*
X317896Y93279D02*
D03*
X322759Y90338D02*
D03*
X319259Y108337D02*
D03*
X269771Y89237D02*
D03*
X323007Y103848D02*
D03*
X322862Y108814D02*
D03*
X322920Y113924D02*
D03*
X198971Y109637D02*
D03*
X319259Y119337D02*
D03*
X322862Y119177D02*
D03*
X251459Y129537D02*
D03*
X314359Y97838D02*
D03*
X272059Y120638D02*
D03*
X283659Y53338D02*
D03*
X181886Y129434D02*
D03*
X307059Y75437D02*
D03*
X250859Y98137D02*
D03*
X250359Y101937D02*
D03*
X245859Y103038D02*
D03*
X192751Y91891D02*
D03*
X298859Y98838D02*
D03*
X263459Y81738D02*
D03*
X284171Y122837D02*
D03*
X202571Y94037D02*
D03*
X181771Y79637D02*
D03*
X269771Y41238D02*
D03*
X175359Y84438D02*
D03*
X178009Y107238D02*
D03*
X188171Y118037D02*
D03*
X181771Y55638D02*
D03*
X188759Y109137D02*
D03*
X191371Y50837D02*
D03*
X272659Y45037D02*
D03*
X243371Y38838D02*
D03*
X240971Y41238D02*
D03*
X238571Y31637D02*
D03*
Y34038D02*
D03*
X192971Y74837D02*
D03*
X178571Y60438D02*
D03*
X294671Y72338D02*
D03*
X285671D02*
D03*
X181771Y50837D02*
D03*
Y46038D02*
D03*
X186782Y30487D02*
D03*
X188171Y60438D02*
D03*
X191371Y65237D02*
D03*
X197771D02*
D03*
Y50837D02*
D03*
X202571Y89237D02*
D03*
X250571D02*
D03*
X199859Y91938D02*
D03*
X202571Y79637D02*
D03*
X178571Y74837D02*
D03*
X183371Y84438D02*
D03*
Y89237D02*
D03*
X303371Y36437D02*
D03*
X231371Y98838D02*
D03*
Y46038D02*
D03*
Y41238D02*
D03*
X238159Y96737D02*
D03*
X303371Y122837D02*
D03*
X296199Y114048D02*
D03*
X269959Y73537D02*
D03*
X303371Y46038D02*
D03*
X269587Y69770D02*
D03*
X236171Y108438D02*
D03*
X243459Y129437D02*
D03*
X264971Y89237D02*
D03*
X175559Y92437D02*
D03*
X233771Y77237D02*
D03*
X177959Y100888D02*
D03*
X173759Y52237D02*
D03*
X240059Y98937D02*
D03*
X188171Y46038D02*
D03*
X301359Y54838D02*
D03*
X232159Y129537D02*
D03*
X235359Y104237D02*
D03*
X236171Y98838D02*
D03*
X233771Y31637D02*
D03*
X222971Y67037D02*
D03*
X231371Y108438D02*
D03*
X236171Y36437D02*
D03*
X202571Y74837D02*
D03*
X207371Y91637D02*
D03*
X197771Y55638D02*
D03*
X191359Y60438D02*
D03*
X188171Y55638D02*
D03*
X286871Y86537D02*
D03*
X288671Y72338D02*
D03*
X297671D02*
D03*
X181771Y60438D02*
D03*
X207371Y117438D02*
D03*
X184159Y15237D02*
D03*
X240971Y46038D02*
D03*
X238571Y38838D02*
D03*
X240971Y36437D02*
D03*
X236171Y46038D02*
D03*
X243371Y31637D02*
D03*
X299859Y118138D02*
D03*
X267459Y121238D02*
D03*
X274571Y122837D02*
D03*
X277059Y120638D02*
D03*
X273159Y76038D02*
D03*
X192971Y89237D02*
D03*
X317959Y84038D02*
D03*
X188171Y74837D02*
D03*
X237750Y27257D02*
D03*
X271759Y50837D02*
D03*
X283459Y29438D02*
D03*
X240971Y83237D02*
D03*
X199834Y30024D02*
D03*
X248059Y100038D02*
D03*
X304959Y75238D02*
D03*
X283159Y56138D02*
D03*
X191371Y55638D02*
D03*
X188171Y50837D02*
D03*
X246959Y129537D02*
D03*
X316139Y129796D02*
D03*
X317771Y127638D02*
D03*
X322891Y124029D02*
D03*
X319859Y102137D02*
D03*
X322891Y98189D02*
D03*
X322759Y94737D02*
D03*
X318007Y90447D02*
D03*
X320359Y78438D02*
D03*
X322759Y81537D02*
D03*
X322836Y74272D02*
D03*
X265993Y129179D02*
D03*
X320682Y67080D02*
D03*
X315559Y70438D02*
D03*
X318759Y114538D02*
D03*
X316353Y111611D02*
D03*
X311459Y91237D02*
D03*
X255159Y56937D02*
D03*
X178571Y46038D02*
D03*
X291671Y74738D02*
D03*
X288971Y77237D02*
D03*
X288671Y74738D02*
D03*
X224171Y22038D02*
D03*
X228971D02*
D03*
X189351Y34697D02*
D03*
X178459Y93937D02*
D03*
X177959Y96637D02*
D03*
X316657Y105304D02*
D03*
X206559Y15237D02*
D03*
X200159D02*
D03*
X196959D02*
D03*
X216159D02*
D03*
X219359D02*
D03*
X232159D02*
D03*
X238559D02*
D03*
X251359D02*
D03*
X310121Y105379D02*
D03*
X270559Y15237D02*
D03*
X302759Y98637D02*
D03*
X276959Y15237D02*
D03*
X280159D02*
D03*
X302559Y94638D02*
D03*
X296159Y15237D02*
D03*
X308559Y18638D02*
D03*
X255371Y113238D02*
D03*
X190559Y15237D02*
D03*
X181559Y16438D02*
D03*
Y19637D02*
D03*
X276159Y77038D02*
D03*
X281071Y32037D02*
D03*
X280571Y36138D02*
D03*
X276971Y26838D02*
D03*
X291071Y44837D02*
D03*
X283959Y44337D02*
D03*
X289959Y34837D02*
D03*
X289759Y50037D02*
D03*
X197771Y46038D02*
D03*
X289159Y53338D02*
D03*
X298271Y37837D02*
D03*
X300159Y40938D02*
D03*
X304059Y42338D02*
D03*
X260071Y29337D02*
D03*
X257771Y26838D02*
D03*
X256004Y25280D02*
D03*
X289259Y58938D02*
D03*
X267371Y82038D02*
D03*
X308271Y52938D02*
D03*
Y48537D02*
D03*
X308259Y44137D02*
D03*
X297959Y75937D02*
D03*
X298059Y79238D02*
D03*
X284171Y77237D02*
D03*
X301559Y75238D02*
D03*
X288971Y82038D02*
D03*
X286659Y79338D02*
D03*
X278971Y65538D02*
D03*
X217171Y41537D02*
D03*
Y44737D02*
D03*
X219371Y41238D02*
D03*
X224171D02*
D03*
X254171Y109637D02*
D03*
X209771Y50837D02*
D03*
X203971Y45737D02*
D03*
X193669Y42143D02*
D03*
X178559Y41238D02*
D03*
X183371Y113238D02*
D03*
X166759Y117237D02*
D03*
X180659Y116338D02*
D03*
X270747Y129218D02*
D03*
X305359Y49637D02*
D03*
X304159Y77938D02*
D03*
X307959Y61238D02*
D03*
X209959Y56238D02*
D03*
X221871Y20137D02*
D03*
X186278Y125294D02*
D03*
X243371Y106037D02*
D03*
X263671Y38138D02*
D03*
X293771Y19637D02*
D03*
X317771Y98838D02*
D03*
X264971Y122837D02*
D03*
X200959Y55638D02*
D03*
Y60438D02*
D03*
X202559Y64237D02*
D03*
Y68238D02*
D03*
X211159Y73238D02*
D03*
X211559Y70438D02*
D03*
X207371Y65237D02*
D03*
X238571Y77237D02*
D03*
X243159Y77438D02*
D03*
X241871Y64938D02*
D03*
X245771Y62837D02*
D03*
X258557Y69832D02*
D03*
X210359Y48037D02*
D03*
X197771Y60438D02*
D03*
X269771Y122837D02*
D03*
X279371D02*
D03*
X233771Y38838D02*
D03*
X286571Y55638D02*
D03*
X240971Y29237D02*
D03*
X275423Y129179D02*
D03*
X291371Y31637D02*
D03*
X243371Y34038D02*
D03*
X236171Y29237D02*
D03*
X253859Y35737D02*
D03*
X245771Y41238D02*
D03*
X250859Y49637D02*
D03*
X245771Y36437D02*
D03*
X191371Y70038D02*
D03*
X231371Y36437D02*
D03*
X255371Y77237D02*
D03*
X228971Y31637D02*
D03*
X264971Y46038D02*
D03*
X233771Y34038D02*
D03*
X308559Y21837D02*
D03*
X260171Y62837D02*
D03*
X265959Y64638D02*
D03*
X196226Y129491D02*
D03*
X210527Y129589D02*
D03*
X215243D02*
D03*
X192971Y122837D02*
D03*
X190567D02*
D03*
X186759Y86838D02*
D03*
X185005Y116332D02*
D03*
X187059Y95237D02*
D03*
X311185Y94967D02*
D03*
X248171Y77237D02*
D03*
X311859Y121537D02*
D03*
X303371Y127638D02*
D03*
X251359Y46237D02*
D03*
X254559Y51638D02*
D03*
X251059Y39338D02*
D03*
X251959Y51437D02*
D03*
X207371Y74837D02*
D03*
X211559Y97838D02*
D03*
X175559Y130037D02*
D03*
X169559Y54037D02*
D03*
X180279Y98001D02*
D03*
X192971Y101237D02*
D03*
X213271Y25738D02*
D03*
X227159Y105638D02*
D03*
X272459Y104037D02*
D03*
X295559Y88638D02*
D03*
X286271Y58938D02*
D03*
X292259D02*
D03*
X295271D02*
D03*
X298271D02*
D03*
X302571Y63437D02*
D03*
X299571D02*
D03*
X296571D02*
D03*
X293571D02*
D03*
X290571D02*
D03*
X287571D02*
D03*
X317951Y87699D02*
D03*
X295159Y49038D02*
D03*
X291671Y72338D02*
D03*
X272543Y54751D02*
D03*
X210971Y19537D02*
D03*
X267371Y20137D02*
D03*
X302371Y19437D02*
D03*
X244959Y93238D02*
D03*
X233971Y57038D02*
D03*
X241871D02*
D03*
X248372Y33900D02*
D03*
X181271Y102838D02*
D03*
X237159Y116638D02*
D03*
X210871Y110738D02*
D03*
X181271Y106037D02*
D03*
X216759Y72038D02*
D03*
Y70038D02*
D03*
X306359Y71438D02*
D03*
X237971Y57038D02*
D03*
X272971Y22038D02*
D03*
X243759Y88437D02*
D03*
X230071Y57038D02*
D03*
X280259Y83237D02*
D03*
X253105Y26794D02*
D03*
X232159Y117638D02*
D03*
X193971Y95538D02*
D03*
X191371Y95438D02*
D03*
X209571Y82437D02*
D03*
Y78938D02*
D03*
Y88386D02*
D03*
Y85237D02*
D03*
X249273Y107185D02*
D03*
X242474Y110334D02*
D03*
G54D25*
X144946Y22043D02*
D03*
G54D27*
X216759Y70038D02*
Y72038D01*
G54D30*
X253176Y26866D02*
Y27664D01*
X258671Y33160D01*
X237894Y20038D02*
X257542D01*
X276640Y39135D01*
X276669D01*
Y57720D01*
X276671Y57723D01*
Y57737D02*
X286971Y68037D01*
X303164Y71438D02*
X306359D01*
X299764Y68037D02*
X303164Y71438D01*
X286971Y68037D02*
X299764D01*
X276671Y57723D02*
Y57737D01*
X280259Y72125D02*
Y83237D01*
X258671Y50538D02*
X280259Y72125D01*
X258671Y33160D02*
Y50538D01*
X253105Y26794D02*
X253176Y26866D01*
G54D31*
X237659Y20038D02*
X237894D01*
X237559Y20237D02*
X237659D01*
Y20038D02*
Y20237D01*
M02*
