G04 Layer_Color=128*
%FSLAX25Y25*%
%MOIN*%
G70*
G01*
G75*
%ADD16C,0.00787*%
%ADD152C,0.00200*%
G54D16*
X354329Y0D02*
Y196851D01*
X0Y0D02*
X354329D01*
X0Y196851D02*
X354329D01*
X0Y0D02*
Y196851D01*
G54D152*
X112545Y116851D02*
X116045D01*
X114295Y115101D02*
Y118601D01*
X112545Y106851D02*
X116045D01*
X114295Y105101D02*
Y108601D01*
X279283Y186921D02*
X282783D01*
X281033Y185171D02*
Y188671D01*
X289283Y186921D02*
X292783D01*
X291033Y185171D02*
Y188671D01*
X299283Y186921D02*
X302783D01*
X301033Y185171D02*
Y188671D01*
X309283Y186921D02*
X312783D01*
X311033Y185171D02*
Y188671D01*
X269283Y186921D02*
X272783D01*
X271033Y185171D02*
Y188671D01*
X199008Y176921D02*
X202708D01*
X200858Y175071D02*
Y178771D01*
X199008Y186921D02*
X202708D01*
X200858Y185071D02*
Y188771D01*
X189008Y176921D02*
X192708D01*
X190858Y175071D02*
Y178771D01*
X189008Y186921D02*
X192708D01*
X190858Y185071D02*
Y188771D01*
X179008Y176921D02*
X182708D01*
X180858Y175071D02*
Y178771D01*
X179008Y186921D02*
X182708D01*
X180858Y185071D02*
Y188771D01*
X169008Y176921D02*
X172708D01*
X170858Y175071D02*
Y178771D01*
X169008Y186921D02*
X172708D01*
X170858Y185071D02*
Y188771D01*
X159008Y176921D02*
X162708D01*
X160858Y175071D02*
Y178771D01*
X159008Y186921D02*
X162708D01*
X160858Y185071D02*
Y188771D01*
X149008Y176921D02*
X152708D01*
X150858Y175071D02*
Y178771D01*
X149008Y186921D02*
X152708D01*
X150858Y185071D02*
Y188771D01*
X139008Y176921D02*
X142708D01*
X140858Y175071D02*
Y178771D01*
X139008Y186921D02*
X142708D01*
X140858Y185071D02*
Y188771D01*
X35782Y157451D02*
X41382D01*
X38582Y154651D02*
Y160251D01*
X55782Y157451D02*
X61382D01*
X58582Y154651D02*
Y160251D01*
X75782Y157451D02*
X81382D01*
X78582Y154651D02*
Y160251D01*
X254145Y176921D02*
X257845D01*
X255995Y175071D02*
Y178771D01*
X254145Y186921D02*
X257845D01*
X255995Y185071D02*
Y188771D01*
X244145Y176921D02*
X247845D01*
X245995Y175071D02*
Y178771D01*
X244145Y186921D02*
X247845D01*
X245995Y185071D02*
Y188771D01*
X234145Y176921D02*
X237845D01*
X235995Y175071D02*
Y178771D01*
X234145Y186921D02*
X237845D01*
X235995Y185071D02*
Y188771D01*
X224145Y176921D02*
X227845D01*
X225995Y175071D02*
Y178771D01*
X224145Y186921D02*
X227845D01*
X225995Y185071D02*
Y188771D01*
X214145Y176921D02*
X217845D01*
X215995Y175071D02*
Y178771D01*
X214145Y186921D02*
X217845D01*
X215995Y185071D02*
Y188771D01*
X5118Y11811D02*
X18504D01*
X11811Y5118D02*
Y18504D01*
X5118Y185040D02*
X18504D01*
X11811Y178347D02*
Y191733D01*
X335825Y185040D02*
X349211D01*
X342518Y178347D02*
Y191733D01*
X335825Y11811D02*
X349211D01*
X342518Y5118D02*
Y18504D01*
X86834Y139916D02*
X90334D01*
X88584Y138165D02*
Y141665D01*
X76834Y139916D02*
X80334D01*
X78584Y138165D02*
Y141665D01*
X249781Y153197D02*
X253281D01*
X251531Y151447D02*
Y154947D01*
X239781Y153197D02*
X243281D01*
X241531Y151447D02*
Y154947D01*
X249781Y139439D02*
X253281D01*
X251531Y137689D02*
Y141190D01*
X239781Y139439D02*
X243281D01*
X241531Y137689D02*
Y141190D01*
X156755Y112055D02*
X160255D01*
X158505Y110305D02*
Y113805D01*
X156755Y122055D02*
X160255D01*
X158505Y120305D02*
Y123805D01*
X175554Y145831D02*
X179054D01*
X177304Y144081D02*
Y147581D01*
X165554Y145831D02*
X169054D01*
X167304Y144081D02*
Y147581D01*
X189798Y161168D02*
X190598D01*
X190198Y160768D02*
Y161568D01*
X194928Y168998D02*
X196128D01*
X195528Y168398D02*
Y169598D01*
X263149Y139052D02*
X263949D01*
X263549Y138653D02*
Y139453D01*
X239333Y161034D02*
X240533D01*
X239933Y160434D02*
Y161634D01*
X162482Y100739D02*
X163282D01*
X162882Y100339D02*
Y101139D01*
X162482Y91140D02*
X163282D01*
X162882Y90740D02*
Y91540D01*
X160852Y23976D02*
X161652D01*
X161252Y23576D02*
Y24376D01*
X163103Y23976D02*
X163903D01*
X163503Y23576D02*
Y24376D01*
X129382Y109883D02*
X130182D01*
X129782Y109483D02*
Y110283D01*
X127745Y109883D02*
X128545D01*
X128145Y109483D02*
Y110283D01*
X108394Y183739D02*
X109194D01*
X108794Y183339D02*
Y184139D01*
X108394Y182120D02*
X109194D01*
X108794Y181720D02*
Y182520D01*
X189598Y169098D02*
X190798D01*
X190198Y168498D02*
Y169698D01*
X243364Y166834D02*
X244164D01*
X243764Y166434D02*
Y167234D01*
X230563Y168081D02*
X231363D01*
X230963Y167681D02*
Y168481D01*
X106433Y133608D02*
X107633D01*
X107033Y133008D02*
Y134208D01*
X173702Y169039D02*
X174502D01*
X174102Y168639D02*
Y169439D01*
X182702Y155718D02*
X183502D01*
X183102Y155318D02*
Y156118D01*
X202740Y145408D02*
X203540D01*
X203140Y145008D02*
Y145808D01*
X56830Y43976D02*
X57630D01*
X57230Y43576D02*
Y44376D01*
X154468Y33976D02*
X155268D01*
X154868Y33576D02*
Y34376D01*
X154468Y43976D02*
X155268D01*
X154868Y43576D02*
Y44376D01*
X172254Y90867D02*
X173054D01*
X172654Y90466D02*
Y91267D01*
X146054Y109979D02*
X146854D01*
X146454Y109579D02*
Y110379D01*
X134181Y124059D02*
X134981D01*
X134581Y123659D02*
Y124459D01*
X186101Y155718D02*
X186901D01*
X186501Y155318D02*
Y156118D01*
X200459Y161333D02*
X201259D01*
X200859Y160933D02*
Y161733D01*
X148354Y106738D02*
X149154D01*
X148754Y106339D02*
Y107139D01*
X250364Y161134D02*
X251564D01*
X250964Y160534D02*
Y161734D01*
M02*
