G04 Layer_Color=8388736*
%FSLAX25Y25*%
%MOIN*%
G70*
G01*
G75*
%ADD16C,0.00787*%
%ADD94C,0.03500*%
%ADD95C,0.06500*%
%ADD96R,0.06500X0.06500*%
%ADD97C,0.12400*%
%ADD98C,0.22154*%
%ADD99C,0.02100*%
G54D16*
X354329Y0D02*
Y196851D01*
X0Y0D02*
X354329D01*
X0Y196851D02*
X354329D01*
X0Y0D02*
Y196851D01*
G54D94*
X162882Y100739D02*
D03*
Y91140D02*
D03*
G54D95*
X114295Y116851D02*
D03*
Y106851D02*
D03*
X281033Y186921D02*
D03*
X291033D02*
D03*
X301033D02*
D03*
X311033D02*
D03*
X271033D02*
D03*
X200858Y176921D02*
D03*
Y186921D02*
D03*
X190858Y176921D02*
D03*
Y186921D02*
D03*
X180858Y176921D02*
D03*
Y186921D02*
D03*
X170858Y176921D02*
D03*
Y186921D02*
D03*
X160858Y176921D02*
D03*
Y186921D02*
D03*
X150858Y176921D02*
D03*
Y186921D02*
D03*
X140858Y176921D02*
D03*
X255995D02*
D03*
Y186921D02*
D03*
X245995Y176921D02*
D03*
Y186921D02*
D03*
X235995Y176921D02*
D03*
Y186921D02*
D03*
X225995Y176921D02*
D03*
Y186921D02*
D03*
X215995Y176921D02*
D03*
X88584Y139916D02*
D03*
X78584D02*
D03*
X251531Y153197D02*
D03*
X241531D02*
D03*
X251531Y139439D02*
D03*
X241531D02*
D03*
X158505Y112055D02*
D03*
Y122055D02*
D03*
X177304Y145831D02*
D03*
X167304D02*
D03*
G54D96*
X140858Y186921D02*
D03*
X215995D02*
D03*
G54D97*
X38582Y157451D02*
D03*
X58582D02*
D03*
X78582D02*
D03*
G54D98*
X11811Y11811D02*
D03*
X11811Y185040D02*
D03*
X342518D02*
D03*
X342518Y11811D02*
D03*
G54D99*
X162882Y100739D02*
D03*
Y91140D02*
D03*
M02*
