G04 Layer_Color=2752767*
%FSLAX25Y25*%
%MOIN*%
G70*
G01*
G75*
%ADD16C,0.00787*%
%ADD152C,0.00200*%
%ADD153C,0.00267*%
G54D16*
X354329Y0D02*
Y196851D01*
X0Y0D02*
X354329D01*
X0Y196851D02*
X354329D01*
X0Y0D02*
Y196851D01*
G54D152*
X113495Y116051D02*
Y117651D01*
X115095D01*
Y116051D01*
X113495D01*
Y106051D02*
Y107651D01*
X115095D01*
Y106051D01*
X113495D01*
X280233Y186121D02*
Y187721D01*
X281833D01*
Y186121D01*
X280233D01*
X290233D02*
Y187721D01*
X291833D01*
Y186121D01*
X290233D01*
X300233D02*
Y187721D01*
X301833D01*
Y186121D01*
X300233D01*
X310233D02*
Y187721D01*
X311833D01*
Y186121D01*
X310233D01*
X270233D02*
Y187721D01*
X271833D01*
Y186121D01*
X270233D01*
X38582Y156651D02*
X37782Y158251D01*
X39382D01*
X38582Y156651D01*
X58582D02*
X57782Y158251D01*
X59382D01*
X58582Y156651D01*
X78582D02*
X77782Y158251D01*
X79382D01*
X78582Y156651D01*
X11811Y11011D02*
X12211Y11411D01*
X12611D01*
X12211Y11811D01*
X12611Y12211D01*
X12211D01*
X11811Y12611D01*
X11411Y12211D01*
X11011D01*
X11411Y11811D01*
X11011Y11411D01*
X11411D01*
X11811Y11011D01*
X11811Y184240D02*
X12211Y184640D01*
X12611D01*
X12211Y185040D01*
X12611Y185440D01*
X12211D01*
X11811Y185840D01*
X11411Y185440D01*
X11011D01*
X11411Y185040D01*
X11011Y184640D01*
X11411D01*
X11811Y184240D01*
X342518D02*
X342918Y184640D01*
X343318D01*
X342918Y185040D01*
X343318Y185440D01*
X342918D01*
X342518Y185840D01*
X342118Y185440D01*
X341718D01*
X342118Y185040D01*
X341718Y184640D01*
X342118D01*
X342518Y184240D01*
X342518Y11011D02*
X342918Y11411D01*
X343318D01*
X342918Y11811D01*
X343318Y12211D01*
X342918D01*
X342518Y12611D01*
X342118Y12211D01*
X341718D01*
X342118Y11811D01*
X341718Y11411D01*
X342118D01*
X342518Y11011D01*
X87784Y139116D02*
Y140716D01*
X89384D01*
Y139116D01*
X87784D01*
X77784D02*
Y140716D01*
X79384D01*
Y139116D01*
X77784D01*
X250731Y152397D02*
Y153997D01*
X252331D01*
Y152397D01*
X250731D01*
X240731D02*
Y153997D01*
X242331D01*
Y152397D01*
X240731D01*
X250731Y138639D02*
Y140240D01*
X252331D01*
Y138639D01*
X250731D01*
X240731D02*
Y140240D01*
X242331D01*
Y138639D01*
X240731D01*
X157705Y111255D02*
Y112855D01*
X159305D01*
Y111255D01*
X157705D01*
Y121255D02*
Y122855D01*
X159305D01*
Y121255D01*
X157705D01*
X176504Y145031D02*
Y146631D01*
X178104D01*
Y145031D01*
X176504D01*
X166504D02*
Y146631D01*
X168104D01*
Y145031D01*
X166504D01*
X189398Y160368D02*
X189798Y161168D01*
X189398Y161968D01*
X190198Y161568D01*
X190998Y161968D01*
X190598Y161168D01*
X190998Y160368D01*
X190198Y160768D01*
X189398Y160368D01*
X195128Y168598D02*
Y168198D01*
X195928D01*
Y168598D01*
X196328D01*
Y169398D01*
X195928D01*
Y169798D01*
X195128D01*
Y169398D01*
X194728D01*
Y168598D01*
X195128D01*
X262749Y138252D02*
X263149Y139052D01*
X262749Y139852D01*
X263549Y139453D01*
X264349Y139852D01*
X263949Y139052D01*
X264349Y138252D01*
X263549Y138653D01*
X262749Y138252D01*
X239533Y160634D02*
Y160234D01*
X240333D01*
Y160634D01*
X240733D01*
Y161434D01*
X240333D01*
Y161834D01*
X239533D01*
Y161434D01*
X239133D01*
Y160634D01*
X239533D01*
X162082Y99939D02*
X162482Y100739D01*
X162082Y101539D01*
X162882Y101139D01*
X163682Y101539D01*
X163282Y100739D01*
X163682Y99939D01*
X162882Y100339D01*
X162082Y99939D01*
Y90339D02*
X162482Y91140D01*
X162082Y91940D01*
X162882Y91540D01*
X163682Y91940D01*
X163282Y91140D01*
X163682Y90339D01*
X162882Y90740D01*
X162082Y90339D01*
X160452Y23176D02*
X160852Y23976D01*
X160452Y24776D01*
X161252Y24376D01*
X162052Y24776D01*
X161652Y23976D01*
X162052Y23176D01*
X161252Y23576D01*
X160452Y23176D01*
X162703D02*
X163103Y23976D01*
X162703Y24776D01*
X163503Y24376D01*
X164303Y24776D01*
X163903Y23976D01*
X164303Y23176D01*
X163503Y23576D01*
X162703Y23176D01*
X128982Y109083D02*
X129382Y109883D01*
X128982Y110683D01*
X129782Y110283D01*
X130582Y110683D01*
X130182Y109883D01*
X130582Y109083D01*
X129782Y109483D01*
X128982Y109083D01*
X127345D02*
X127745Y109883D01*
X127345Y110683D01*
X128145Y110283D01*
X128945Y110683D01*
X128545Y109883D01*
X128945Y109083D01*
X128145Y109483D01*
X127345Y109083D01*
X107994Y182939D02*
X108394Y183739D01*
X107994Y184539D01*
X108794Y184139D01*
X109594Y184539D01*
X109194Y183739D01*
X109594Y182939D01*
X108794Y183339D01*
X107994Y182939D01*
Y181320D02*
X108394Y182120D01*
X107994Y182920D01*
X108794Y182520D01*
X109594Y182920D01*
X109194Y182120D01*
X109594Y181320D01*
X108794Y181720D01*
X107994Y181320D01*
X189798Y168698D02*
Y168298D01*
X190598D01*
Y168698D01*
X190998D01*
Y169498D01*
X190598D01*
Y169898D01*
X189798D01*
Y169498D01*
X189398D01*
Y168698D01*
X189798D01*
X242964Y166034D02*
X243364Y166834D01*
X242964Y167634D01*
X243764Y167234D01*
X244564Y167634D01*
X244164Y166834D01*
X244564Y166034D01*
X243764Y166434D01*
X242964Y166034D01*
X230163Y167281D02*
X230563Y168081D01*
X230163Y168881D01*
X230963Y168481D01*
X231763Y168881D01*
X231363Y168081D01*
X231763Y167281D01*
X230963Y167681D01*
X230163Y167281D01*
X106633Y133208D02*
Y132808D01*
X107433D01*
Y133208D01*
X107833D01*
Y134008D01*
X107433D01*
Y134408D01*
X106633D01*
Y134008D01*
X106233D01*
Y133208D01*
X106633D01*
X173302Y168239D02*
X173702Y169039D01*
X173302Y169839D01*
X174102Y169439D01*
X174902Y169839D01*
X174502Y169039D01*
X174902Y168239D01*
X174102Y168639D01*
X173302Y168239D01*
X182302Y154918D02*
X182702Y155718D01*
X182302Y156518D01*
X183102Y156118D01*
X183902Y156518D01*
X183502Y155718D01*
X183902Y154918D01*
X183102Y155318D01*
X182302Y154918D01*
X202340Y144608D02*
X202740Y145408D01*
X202340Y146208D01*
X203140Y145808D01*
X203940Y146208D01*
X203540Y145408D01*
X203940Y144608D01*
X203140Y145008D01*
X202340Y144608D01*
X56430Y43176D02*
X56830Y43976D01*
X56430Y44776D01*
X57230Y44376D01*
X58030Y44776D01*
X57630Y43976D01*
X58030Y43176D01*
X57230Y43576D01*
X56430Y43176D01*
X154068Y33176D02*
X154468Y33976D01*
X154068Y34776D01*
X154868Y34376D01*
X155668Y34776D01*
X155268Y33976D01*
X155668Y33176D01*
X154868Y33576D01*
X154068Y33176D01*
Y43176D02*
X154468Y43976D01*
X154068Y44776D01*
X154868Y44376D01*
X155668Y44776D01*
X155268Y43976D01*
X155668Y43176D01*
X154868Y43576D01*
X154068Y43176D01*
X171854Y90066D02*
X172254Y90867D01*
X171854Y91667D01*
X172654Y91267D01*
X173454Y91667D01*
X173054Y90867D01*
X173454Y90066D01*
X172654Y90466D01*
X171854Y90066D01*
X145654Y109179D02*
X146054Y109979D01*
X145654Y110779D01*
X146454Y110379D01*
X147254Y110779D01*
X146854Y109979D01*
X147254Y109179D01*
X146454Y109579D01*
X145654Y109179D01*
X133781Y123259D02*
X134181Y124059D01*
X133781Y124859D01*
X134581Y124459D01*
X135381Y124859D01*
X134981Y124059D01*
X135381Y123259D01*
X134581Y123659D01*
X133781Y123259D01*
X185701Y154918D02*
X186101Y155718D01*
X185701Y156518D01*
X186501Y156118D01*
X187301Y156518D01*
X186901Y155718D01*
X187301Y154918D01*
X186501Y155318D01*
X185701Y154918D01*
X200059Y160533D02*
X200459Y161333D01*
X200059Y162133D01*
X200859Y161733D01*
X201659Y162133D01*
X201259Y161333D01*
X201659Y160533D01*
X200859Y160933D01*
X200059Y160533D01*
X147954Y105938D02*
X148354Y106738D01*
X147954Y107538D01*
X148754Y107139D01*
X149554Y107538D01*
X149154Y106738D01*
X149554Y105938D01*
X148754Y106339D01*
X147954Y105938D01*
X250564Y160734D02*
Y160334D01*
X251364D01*
Y160734D01*
X251764D01*
Y161534D01*
X251364D01*
Y161934D01*
X250564D01*
Y161534D01*
X250164D01*
Y160734D01*
X250564D01*
G54D153*
X201658Y176921D02*
G03*
X201658Y176921I-800J0D01*
G01*
Y186921D02*
G03*
X201658Y186921I-800J0D01*
G01*
X191658Y176921D02*
G03*
X191658Y176921I-800J0D01*
G01*
Y186921D02*
G03*
X191658Y186921I-800J0D01*
G01*
X181658Y176921D02*
G03*
X181658Y176921I-800J0D01*
G01*
Y186921D02*
G03*
X181658Y186921I-800J0D01*
G01*
X171658Y176921D02*
G03*
X171658Y176921I-800J0D01*
G01*
Y186921D02*
G03*
X171658Y186921I-800J0D01*
G01*
X161658Y176921D02*
G03*
X161658Y176921I-800J0D01*
G01*
Y186921D02*
G03*
X161658Y186921I-800J0D01*
G01*
X151658Y176921D02*
G03*
X151658Y176921I-800J0D01*
G01*
Y186921D02*
G03*
X151658Y186921I-800J0D01*
G01*
X141658Y176921D02*
G03*
X141658Y176921I-800J0D01*
G01*
Y186921D02*
G03*
X141658Y186921I-800J0D01*
G01*
X256795Y176921D02*
G03*
X256795Y176921I-800J0D01*
G01*
Y186921D02*
G03*
X256795Y186921I-800J0D01*
G01*
X246795Y176921D02*
G03*
X246795Y176921I-800J0D01*
G01*
Y186921D02*
G03*
X246795Y186921I-800J0D01*
G01*
X236795Y176921D02*
G03*
X236795Y176921I-800J0D01*
G01*
Y186921D02*
G03*
X236795Y186921I-800J0D01*
G01*
X226795Y176921D02*
G03*
X226795Y176921I-800J0D01*
G01*
Y186921D02*
G03*
X226795Y186921I-800J0D01*
G01*
X216795Y176921D02*
G03*
X216795Y176921I-800J0D01*
G01*
Y186921D02*
G03*
X216795Y186921I-800J0D01*
G01*
M02*
