G04 Layer_Color=128*
%FSLAX25Y25*%
%MOIN*%
G70*
G01*
G75*
%ADD16C,0.00787*%
%ADD152C,0.00200*%
G54D16*
X354329Y0D02*
Y196851D01*
X0Y0D02*
X354329D01*
X0Y196851D02*
X354329D01*
X0Y0D02*
Y196851D01*
G54D152*
X298633Y94889D02*
X299033D01*
X298833Y94689D02*
Y95089D01*
X280632Y121404D02*
X281032D01*
X280832Y121203D02*
Y121604D01*
X263721Y77338D02*
X264121D01*
X263921Y77138D02*
Y77538D01*
X261059Y85137D02*
X261459D01*
X261259Y84938D02*
Y85338D01*
X242462Y97767D02*
X242863D01*
X242663Y97566D02*
Y97966D01*
X240959Y86738D02*
X241359D01*
X241159Y86537D02*
Y86937D01*
X244559Y111261D02*
X244959D01*
X244759Y111061D02*
Y111461D01*
X244559Y114161D02*
X244959D01*
X244759Y113961D02*
Y114361D01*
X205771Y87837D02*
X206171D01*
X205971Y87638D02*
Y88038D01*
X239671Y55437D02*
X240071D01*
X239871Y55238D02*
Y55638D01*
X224271Y48138D02*
X224671D01*
X224471Y47938D02*
Y48338D01*
X225471Y48138D02*
X225871D01*
X225671Y47938D02*
Y48338D01*
X224371Y32438D02*
X224771D01*
X224571Y32237D02*
Y32638D01*
X225471Y32438D02*
X225871D01*
X225671Y32237D02*
Y32638D01*
X224271Y44238D02*
X224671D01*
X224471Y44038D02*
Y44438D01*
X214959Y51837D02*
X215359D01*
X215159Y51638D02*
Y52038D01*
X253449Y25317D02*
X253849D01*
X253649Y25117D02*
Y25517D01*
X280659Y85938D02*
X281059D01*
X280859Y85738D02*
Y86137D01*
X281471Y41438D02*
X281871D01*
X281671Y41238D02*
Y41638D01*
X279571Y53338D02*
X279971D01*
X279771Y53137D02*
Y53537D01*
X234671Y19637D02*
X235071D01*
X234871Y19437D02*
Y19838D01*
X307759Y71838D02*
X308159D01*
X307959Y71637D02*
Y72038D01*
X258359Y102838D02*
X258759D01*
X258559Y102638D02*
Y103038D01*
X262359Y104638D02*
X262759D01*
X262559Y104437D02*
Y104838D01*
X288559Y115237D02*
X288959D01*
X288759Y115038D02*
Y115437D01*
X265359Y94638D02*
X265759D01*
X265559Y94437D02*
Y94837D01*
X291671Y103537D02*
X292071D01*
X291871Y103338D02*
Y103737D01*
X258559Y104437D02*
X258959D01*
X258759Y104237D02*
Y104638D01*
X291159Y120837D02*
X291559D01*
X291359Y120638D02*
Y121037D01*
X293159Y118037D02*
X293559D01*
X293359Y117838D02*
Y118237D01*
X263959Y98238D02*
X264359D01*
X264159Y98037D02*
Y98438D01*
X249159Y52237D02*
X249559D01*
X249359Y52038D02*
Y52438D01*
X208959Y95638D02*
X209359D01*
X209159Y95438D02*
Y95837D01*
X186071Y35537D02*
X186471D01*
X186271Y35337D02*
Y35737D01*
X197959Y96637D02*
X198359D01*
X198159Y96438D02*
Y96838D01*
X197619Y103730D02*
X198019D01*
X197819Y103530D02*
Y103930D01*
X235559Y111238D02*
X235959D01*
X235759Y111038D02*
Y111437D01*
X302371Y111137D02*
X302771D01*
X302571Y110938D02*
Y111337D01*
X263159Y103237D02*
X263559D01*
X263359Y103038D02*
Y103437D01*
X292559Y114437D02*
X292959D01*
X292759Y114237D02*
Y114637D01*
X189671Y31438D02*
X190071D01*
X189871Y31238D02*
Y31637D01*
X175359Y94037D02*
X175759D01*
X175559Y93837D02*
Y94238D01*
X176159Y96637D02*
X176559D01*
X176359Y96438D02*
Y96838D01*
X190159Y109037D02*
X190559D01*
X190359Y108837D02*
Y109238D01*
X186959Y109037D02*
X187359D01*
X187159Y108837D02*
Y109238D01*
X178759Y118237D02*
X179159D01*
X178959Y118037D02*
Y118438D01*
X186359Y118037D02*
X186759D01*
X186559Y117838D02*
Y118237D01*
X180359Y114637D02*
X180759D01*
X180559Y114437D02*
Y114838D01*
X180359Y118037D02*
X180759D01*
X180559Y117838D02*
Y118237D01*
X181559Y113238D02*
X181959D01*
X181759Y113038D02*
Y113437D01*
X183159Y114838D02*
X183559D01*
X183359Y114637D02*
Y115038D01*
X177759Y108837D02*
X178159D01*
X177959Y108637D02*
Y109037D01*
X176159Y107238D02*
X176559D01*
X176359Y107037D02*
Y107438D01*
X176759Y113238D02*
X177159D01*
X176959Y113038D02*
Y113437D01*
X189959Y103638D02*
X190359D01*
X190159Y103437D02*
Y103838D01*
X189959Y106838D02*
X190359D01*
X190159Y106638D02*
Y107038D01*
X185159Y103638D02*
X185559D01*
X185359Y103437D02*
Y103838D01*
X185159Y106838D02*
X185559D01*
X185359Y106638D02*
Y107038D01*
X278259Y93338D02*
X278659D01*
X278459Y93138D02*
Y93537D01*
X276159Y89737D02*
X276559D01*
X276359Y89538D02*
Y89938D01*
X276159Y87337D02*
X276559D01*
X276359Y87138D02*
Y87537D01*
X203759Y55238D02*
X204159D01*
X203959Y55037D02*
Y55437D01*
X203859Y50937D02*
X204259D01*
X204059Y50738D02*
Y51138D01*
X204759Y68037D02*
X205159D01*
X204959Y67838D02*
Y68238D01*
X206559Y68837D02*
X206959D01*
X206759Y68638D02*
Y69037D01*
X207759Y68837D02*
X208159D01*
X207959Y68638D02*
Y69037D01*
X208959Y68837D02*
X209359D01*
X209159Y68638D02*
Y69037D01*
X210159Y68837D02*
X210559D01*
X210359Y68638D02*
Y69037D01*
X221759Y69638D02*
X222159D01*
X221959Y69437D02*
Y69837D01*
X222959Y69638D02*
X223359D01*
X223159Y69437D02*
Y69837D01*
X224159Y69638D02*
X224559D01*
X224359Y69437D02*
Y69837D01*
X225359Y69638D02*
X225759D01*
X225559Y69437D02*
Y69837D01*
X230159Y69437D02*
X230559D01*
X230359Y69238D02*
Y69638D01*
X231359Y69437D02*
X231759D01*
X231559Y69238D02*
Y69638D01*
X232559Y69437D02*
X232959D01*
X232759Y69238D02*
Y69638D01*
X236159Y69437D02*
X236559D01*
X236359Y69238D02*
Y69638D01*
X272159Y68837D02*
X272559D01*
X272359Y68638D02*
Y69037D01*
X272159Y70638D02*
X272559D01*
X272359Y70438D02*
Y70837D01*
X275159Y68638D02*
X275559D01*
X275359Y68437D02*
Y68837D01*
X277159Y68638D02*
X277559D01*
X277359Y68437D02*
Y68837D01*
X277159Y71038D02*
X277559D01*
X277359Y70837D02*
Y71237D01*
X221359Y129437D02*
X221759D01*
X221559Y129237D02*
Y129638D01*
X282759Y120238D02*
X283159D01*
X282959Y120037D02*
Y120438D01*
X283759Y121238D02*
X284159D01*
X283959Y121037D02*
Y121438D01*
X297159D02*
X297559D01*
X297359Y121238D02*
Y121637D01*
X284559Y106037D02*
X284959D01*
X284759Y105838D02*
Y106237D01*
X308359Y29838D02*
X308759D01*
X308559Y29638D02*
Y30038D01*
X310359Y15438D02*
X310759D01*
X310559Y15237D02*
Y15638D01*
X294359Y15237D02*
X294759D01*
X294559Y15037D02*
Y15438D01*
X268759Y15237D02*
X269159D01*
X268959Y15037D02*
Y15438D01*
X262359Y15237D02*
X262759D01*
X262559Y15037D02*
Y15438D01*
X249559Y15237D02*
X249959D01*
X249759Y15037D02*
Y15438D01*
X246359Y15237D02*
X246759D01*
X246559Y15037D02*
Y15438D01*
X220759Y15237D02*
X221159D01*
X220959Y15037D02*
Y15438D01*
X217559Y15237D02*
X217959D01*
X217759Y15037D02*
Y15438D01*
X204759Y15237D02*
X205159D01*
X204959Y15037D02*
Y15438D01*
X195159Y15237D02*
X195559D01*
X195359Y15037D02*
Y15438D01*
X181359Y14838D02*
X181759D01*
X181559Y14638D02*
Y15037D01*
X181359Y18037D02*
X181759D01*
X181559Y17838D02*
Y18237D01*
X181359Y29838D02*
X181759D01*
X181559Y29638D02*
Y30038D01*
X181359Y31438D02*
X181759D01*
X181559Y31238D02*
Y31637D01*
X181359Y32838D02*
X181759D01*
X181559Y32638D02*
Y33037D01*
X181359Y34238D02*
X181759D01*
X181559Y34038D02*
Y34438D01*
X181359Y40837D02*
X181759D01*
X181559Y40637D02*
Y41037D01*
X186959Y42237D02*
X187359D01*
X187159Y42037D02*
Y42437D01*
X207159Y25837D02*
X207559D01*
X207359Y25638D02*
Y26037D01*
X207159Y27837D02*
X207559D01*
X207359Y27637D02*
Y28038D01*
X205959Y32237D02*
X206359D01*
X206159Y32037D02*
Y32438D01*
X283359Y92937D02*
X283759D01*
X283559Y92738D02*
Y93138D01*
X276159Y92137D02*
X276559D01*
X276359Y91938D02*
Y92338D01*
X276159Y94638D02*
X276559D01*
X276359Y94437D02*
Y94837D01*
X246159Y88837D02*
X246559D01*
X246359Y88638D02*
Y89038D01*
X267559Y96438D02*
X267959D01*
X267759Y96237D02*
Y96637D01*
X287959Y94238D02*
X288359D01*
X288159Y94037D02*
Y94437D01*
X245759Y100437D02*
X246159D01*
X245959Y100238D02*
Y100637D01*
X200359Y99638D02*
X200759D01*
X200559Y99437D02*
Y99837D01*
X246959Y107438D02*
X247359D01*
X247159Y107238D02*
Y107638D01*
X205959Y95638D02*
X206359D01*
X206159Y95438D02*
Y95837D01*
X205559Y97237D02*
X205959D01*
X205759Y97038D02*
Y97438D01*
X210159Y99037D02*
X210559D01*
X210359Y98838D02*
Y99238D01*
X211559Y96237D02*
X211959D01*
X211759Y96038D02*
Y96438D01*
X208159Y99037D02*
X208559D01*
X208359Y98838D02*
Y99238D01*
X212559Y99037D02*
X212959D01*
X212759Y98838D02*
Y99238D01*
X218759Y95038D02*
X219159D01*
X218959Y94837D02*
Y95237D01*
X220959Y95038D02*
X221359D01*
X221159Y94837D02*
Y95237D01*
X220959Y92838D02*
X221359D01*
X221159Y92637D02*
Y93037D01*
X223159Y95038D02*
X223559D01*
X223359Y94837D02*
Y95237D01*
X220959Y82038D02*
X221359D01*
X221159Y81837D02*
Y82237D01*
X225359Y82437D02*
X225759D01*
X225559Y82237D02*
Y82638D01*
X220559Y77237D02*
X220959D01*
X220759Y77038D02*
Y77438D01*
X247959Y89737D02*
X248359D01*
X248159Y89538D02*
Y89938D01*
X216559Y80838D02*
X216959D01*
X216759Y80638D02*
Y81037D01*
X273959Y91838D02*
X274359D01*
X274159Y91637D02*
Y92037D01*
X221459Y104638D02*
X221859D01*
X221659Y104437D02*
Y104838D01*
X219859Y102937D02*
X220259D01*
X220059Y102737D02*
Y103138D01*
X216759Y104537D02*
X217159D01*
X216959Y104338D02*
Y104737D01*
X214959Y102838D02*
X215359D01*
X215159Y102638D02*
Y103038D01*
X210859Y102937D02*
X211259D01*
X211059Y102737D02*
Y103138D01*
X208059Y104638D02*
X208459D01*
X208259Y104437D02*
Y104838D01*
X221059Y109537D02*
X221459D01*
X221259Y109337D02*
Y109738D01*
X218159Y109438D02*
X218559D01*
X218359Y109238D02*
Y109637D01*
X213159Y104737D02*
X213559D01*
X213359Y104537D02*
Y104938D01*
X254959Y94037D02*
X255359D01*
X255159Y93837D02*
Y94238D01*
X232559Y112838D02*
X232959D01*
X232759Y112637D02*
Y113038D01*
X235159Y119037D02*
X235559D01*
X235359Y118837D02*
Y119237D01*
X234859Y96788D02*
X235259D01*
X235059Y96588D02*
Y96987D01*
X253559Y34038D02*
X253959D01*
X253759Y33838D02*
Y34238D01*
X235559Y90637D02*
X235959D01*
X235759Y90438D02*
Y90838D01*
X243959Y91237D02*
X244359D01*
X244159Y91037D02*
Y91438D01*
X228659Y88587D02*
X229059D01*
X228859Y88388D02*
Y88788D01*
X232309Y90688D02*
X232709D01*
X232509Y90487D02*
Y90887D01*
X233709Y98787D02*
X234109D01*
X233909Y98588D02*
Y98988D01*
X237659Y101338D02*
X238059D01*
X237859Y101137D02*
Y101538D01*
X234259Y89388D02*
X234659D01*
X234459Y89188D02*
Y89587D01*
X237959Y98687D02*
X238359D01*
X238159Y98488D02*
Y98887D01*
X250959Y104237D02*
X251359D01*
X251159Y104037D02*
Y104437D01*
X215359Y110438D02*
X215759D01*
X215559Y110238D02*
Y110637D01*
X212959Y110438D02*
X213359D01*
X213159Y110238D02*
Y110637D01*
X219859Y111137D02*
X220259D01*
X220059Y110938D02*
Y111337D01*
X229427Y124803D02*
X229827D01*
X229627Y124603D02*
Y125004D01*
X239259Y124838D02*
X239659D01*
X239459Y124637D02*
Y125038D01*
X234159Y101237D02*
X234559D01*
X234359Y101038D02*
Y101437D01*
X248759Y123337D02*
X249159D01*
X248959Y123137D02*
Y123538D01*
X190371Y53237D02*
X190771D01*
X190571Y53038D02*
Y53438D01*
X211889Y124948D02*
X212289D01*
X212089Y124748D02*
Y125147D01*
X255412Y58944D02*
X255812D01*
X255612Y58745D02*
Y59145D01*
X249244Y21117D02*
X249644D01*
X249444Y20918D02*
Y21317D01*
X242871Y19437D02*
X243271D01*
X243071Y19238D02*
Y19637D01*
X216809Y24415D02*
X217209D01*
X217009Y24215D02*
Y24614D01*
X220006Y24415D02*
X220406D01*
X220206Y24215D02*
Y24614D01*
X227271Y20038D02*
X227671D01*
X227471Y19838D02*
Y20237D01*
X211366Y49468D02*
X211766D01*
X211566Y49268D02*
Y49668D01*
X253282Y21673D02*
X253682D01*
X253482Y21473D02*
Y21872D01*
X251817Y18743D02*
X252217D01*
X252017Y18542D02*
Y18943D01*
X255341Y27097D02*
X255741D01*
X255541Y26897D02*
Y27297D01*
X199971Y53237D02*
X200371D01*
X200171Y53038D02*
Y53438D01*
X228821Y59461D02*
X229221D01*
X229021Y59262D02*
Y59662D01*
X226460Y59531D02*
X226860D01*
X226660Y59330D02*
Y59730D01*
X224317Y59553D02*
X224717D01*
X224517Y59354D02*
Y59754D01*
X180771Y53237D02*
X181171D01*
X180971Y53038D02*
Y53438D01*
X277159Y73438D02*
X277559D01*
X277359Y73238D02*
Y73637D01*
X276477Y78693D02*
X276877D01*
X276677Y78493D02*
Y78894D01*
X285771Y87837D02*
X286171D01*
X285971Y87638D02*
Y88038D01*
X179759Y128038D02*
X180159D01*
X179959Y127838D02*
Y128237D01*
X175971Y110837D02*
X176371D01*
X176171Y110637D02*
Y111038D01*
X219171Y84438D02*
X219571D01*
X219371Y84237D02*
Y84637D01*
X250371Y86838D02*
X250771D01*
X250571Y86638D02*
Y87037D01*
X247971Y86838D02*
X248371D01*
X248171Y86638D02*
Y87037D01*
X234771Y37637D02*
X235171D01*
X234971Y37437D02*
Y37837D01*
X244371Y37637D02*
X244771D01*
X244571Y37437D02*
Y37837D01*
X224904Y35087D02*
X225304D01*
X225104Y34887D02*
Y35287D01*
X227069Y28179D02*
X227469D01*
X227269Y27979D02*
Y28378D01*
X209571Y115638D02*
X209971D01*
X209771Y115437D02*
Y115838D01*
X223048Y28229D02*
X223448D01*
X223248Y28030D02*
Y28429D01*
X216706Y28229D02*
X217106D01*
X216906Y28030D02*
Y28429D01*
X167159Y51237D02*
X167559D01*
X167359Y51038D02*
Y51437D01*
X262521Y129159D02*
X262921D01*
X262721Y128960D02*
Y129359D01*
X291144Y129199D02*
X291544D01*
X291344Y128998D02*
Y129399D01*
X295839Y129199D02*
X296239D01*
X296039Y128998D02*
Y129399D01*
X300711Y129159D02*
X301111D01*
X300911Y128960D02*
Y129359D01*
X195372Y124660D02*
X195772D01*
X195572Y124460D02*
Y124859D01*
X192908Y124637D02*
X193308D01*
X193108Y124437D02*
Y124838D01*
X201144Y124925D02*
X201544D01*
X201344Y124725D02*
Y125126D01*
X185571Y58038D02*
X185971D01*
X185771Y57837D02*
Y58237D01*
X195171Y58038D02*
X195571D01*
X195371Y57837D02*
Y58237D01*
X190371Y58038D02*
X190771D01*
X190571Y57837D02*
Y58237D01*
X216643Y129589D02*
X217043D01*
X216843Y129390D02*
Y129789D01*
X190371Y62837D02*
X190771D01*
X190571Y62638D02*
Y63038D01*
X185571Y62837D02*
X185971D01*
X185771Y62638D02*
Y63038D01*
X211927Y129589D02*
X212327D01*
X212127Y129390D02*
Y129789D01*
X202478Y129532D02*
X202878D01*
X202678Y129332D02*
Y129732D01*
X185571Y82038D02*
X185971D01*
X185771Y81837D02*
Y82237D01*
X197626Y129491D02*
X198026D01*
X197826Y129291D02*
Y129692D01*
X209694Y27817D02*
X210094D01*
X209894Y27617D02*
Y28018D01*
X175971Y53237D02*
X176371D01*
X176171Y53038D02*
Y53438D01*
X172671Y49738D02*
X173071D01*
X172871Y49538D02*
Y49937D01*
X254428Y30882D02*
X254828D01*
X254628Y30683D02*
Y31082D01*
X233360Y28179D02*
X233760D01*
X233560Y27979D02*
Y28378D01*
X230730Y28282D02*
X231130D01*
X230930Y28082D02*
Y28482D01*
X249825Y30514D02*
X250225D01*
X250025Y30314D02*
Y30714D01*
X269684Y54927D02*
X270084D01*
X269884Y54726D02*
Y55127D01*
X282919Y23336D02*
X283319D01*
X283119Y23135D02*
Y23536D01*
X285235Y32669D02*
X285635D01*
X285435Y32469D02*
Y32868D01*
X283386Y32596D02*
X283786D01*
X283586Y32397D02*
Y32796D01*
X290621Y27872D02*
X291021D01*
X290821Y27672D02*
Y28071D01*
X241971Y40038D02*
X242371D01*
X242171Y39838D02*
Y40238D01*
X285769Y22148D02*
X286169D01*
X285969Y21948D02*
Y22347D01*
X283829Y20009D02*
X284229D01*
X284029Y19809D02*
Y20210D01*
X262825Y26147D02*
X263225D01*
X263025Y25947D02*
Y26346D01*
X239571Y35238D02*
X239971D01*
X239771Y35037D02*
Y35438D01*
X237171Y35238D02*
X237571D01*
X237371Y35037D02*
Y35438D01*
X190371Y77237D02*
X190771D01*
X190571Y77038D02*
Y77438D01*
X232371Y50837D02*
X232771D01*
X232571Y50638D02*
Y51038D01*
X231159Y52237D02*
X231559D01*
X231359Y52038D02*
Y52438D01*
X229971Y37637D02*
X230371D01*
X230171Y37437D02*
Y37837D01*
X230471Y64237D02*
X230871D01*
X230671Y64038D02*
Y64438D01*
X240262Y70002D02*
X240662D01*
X240462Y69801D02*
Y70201D01*
X259959Y70638D02*
X260359D01*
X260159Y70438D02*
Y70837D01*
X250289Y69981D02*
X250689D01*
X250489Y69780D02*
Y70180D01*
X238403Y60636D02*
X238803D01*
X238603Y60435D02*
Y60835D01*
X249671Y64237D02*
X250071D01*
X249871Y64038D02*
Y64438D01*
X243271Y64237D02*
X243671D01*
X243471Y64038D02*
Y64438D01*
X239619Y62547D02*
X240019D01*
X239819Y62348D02*
Y62748D01*
X240071Y64237D02*
X240471D01*
X240271Y64038D02*
Y64438D01*
X236871Y64237D02*
X237271D01*
X237071Y64038D02*
Y64438D01*
X227359Y76837D02*
X227759D01*
X227559Y76638D02*
Y77038D01*
X227380Y70636D02*
X227780D01*
X227580Y70437D02*
Y70837D01*
X204771Y72438D02*
X205171D01*
X204971Y72237D02*
Y72637D01*
X214371Y79637D02*
X214771D01*
X214571Y79438D02*
Y79838D01*
X214371Y82038D02*
X214771D01*
X214571Y81837D02*
Y82237D01*
X205359Y70638D02*
X205759D01*
X205559Y70438D02*
Y70837D01*
X204159Y70638D02*
X204559D01*
X204359Y70438D02*
Y70837D01*
X203771Y52737D02*
X204171D01*
X203971Y52538D02*
Y52938D01*
X213509Y39057D02*
X213909D01*
X213709Y38857D02*
Y39257D01*
X241971Y44837D02*
X242371D01*
X242171Y44638D02*
Y45037D01*
X239571Y47238D02*
X239971D01*
X239771Y47038D02*
Y47438D01*
X241971Y35238D02*
X242371D01*
X242171Y35037D02*
Y35438D01*
X244371Y35238D02*
X244771D01*
X244571Y35037D02*
Y35438D01*
X195171Y72438D02*
X195571D01*
X195371Y72237D02*
Y72637D01*
X234771Y35238D02*
X235171D01*
X234971Y35037D02*
Y35438D01*
X232371Y35238D02*
X232771D01*
X232571Y35037D02*
Y35438D01*
X224904Y38232D02*
X225304D01*
X225104Y38032D02*
Y38432D01*
X223203Y24363D02*
X223603D01*
X223403Y24162D02*
Y24563D01*
X220676Y38438D02*
X221076D01*
X220876Y38238D02*
Y38638D01*
X220625Y35138D02*
X221025D01*
X220825Y34938D02*
Y35339D01*
X177471Y65438D02*
X177871D01*
X177671Y65237D02*
Y65637D01*
X168919Y116507D02*
X169319D01*
X169119Y116307D02*
Y116708D01*
X190371Y86838D02*
X190771D01*
X190571Y86638D02*
Y87037D01*
X168725Y112727D02*
X169125D01*
X168925Y112528D02*
Y112927D01*
X170959Y103237D02*
X171359D01*
X171159Y103038D02*
Y103437D01*
X171171Y58038D02*
X171571D01*
X171371Y57837D02*
Y58237D01*
X185571Y48438D02*
X185971D01*
X185771Y48237D02*
Y48638D01*
X171383Y42189D02*
X171783D01*
X171583Y41989D02*
Y42390D01*
X175199Y42143D02*
X175599D01*
X175399Y41943D02*
Y42342D01*
X180953Y42162D02*
X181353D01*
X181153Y41963D02*
Y42362D01*
X185711Y42182D02*
X186111D01*
X185911Y41982D02*
Y42382D01*
X190429Y41963D02*
X190829D01*
X190629Y41763D02*
Y42162D01*
X195069Y42143D02*
X195469D01*
X195269Y41943D02*
Y42342D01*
X216912Y35241D02*
X217312D01*
X217112Y35041D02*
Y35441D01*
X215471Y47438D02*
X215871D01*
X215671Y47238D02*
Y47638D01*
X215471Y40938D02*
X215871D01*
X215671Y40738D02*
Y41137D01*
X207071Y35438D02*
X207471D01*
X207271Y35238D02*
Y35638D01*
X201971Y41848D02*
X202371D01*
X202171Y41647D02*
Y42048D01*
X204927Y43736D02*
X205327D01*
X205127Y43536D02*
Y43935D01*
X283971Y74138D02*
X284371D01*
X284171Y73937D02*
Y74338D01*
X286971Y74138D02*
X287371D01*
X287171Y73937D02*
Y74338D01*
X292971Y71737D02*
X293371D01*
X293171Y71538D02*
Y71938D01*
X183286Y129434D02*
X183686D01*
X183486Y129234D02*
Y129633D01*
X298971Y71737D02*
X299371D01*
X299171Y71538D02*
Y71938D01*
X308071Y45737D02*
X308471D01*
X308271Y45537D02*
Y45937D01*
X303871Y62837D02*
X304271D01*
X304071Y62638D02*
Y63038D01*
X297871Y62837D02*
X298271D01*
X298071Y62638D02*
Y63038D01*
X288859Y62738D02*
X289259D01*
X289059Y62537D02*
Y62937D01*
X296571Y58337D02*
X296971D01*
X296771Y58138D02*
Y58538D01*
X258113Y25275D02*
X258513D01*
X258313Y25076D02*
Y25475D01*
X257558Y28499D02*
X257958D01*
X257758Y28299D02*
Y28699D01*
X266440Y28497D02*
X266840D01*
X266640Y28297D02*
Y28697D01*
X296471Y50238D02*
X296871D01*
X296671Y50037D02*
Y50437D01*
X296471Y45437D02*
X296871D01*
X296671Y45237D02*
Y45638D01*
X296459Y38238D02*
X296859D01*
X296659Y38037D02*
Y38438D01*
X296459Y40637D02*
X296859D01*
X296659Y40437D02*
Y40837D01*
X296459Y43038D02*
X296859D01*
X296659Y42838D02*
Y43238D01*
X307159Y15438D02*
X307559D01*
X307359Y15237D02*
Y15638D01*
X286478Y19631D02*
X286878D01*
X286678Y19431D02*
Y19830D01*
X288260Y32669D02*
X288660D01*
X288460Y32469D02*
Y32868D01*
X180771Y48438D02*
X181171D01*
X180971Y48237D02*
Y48638D01*
X289725Y32620D02*
X290125D01*
X289925Y32421D02*
Y32820D01*
X292471Y47837D02*
X292871D01*
X292671Y47638D02*
Y48037D01*
X292471Y45437D02*
X292871D01*
X292671Y45237D02*
Y45638D01*
X292471Y40637D02*
X292871D01*
X292671Y40437D02*
Y40837D01*
X282761Y48829D02*
X283161D01*
X282961Y48630D02*
Y49029D01*
X284250Y24723D02*
X284650D01*
X284450Y24522D02*
Y24923D01*
X286478Y24430D02*
X286878D01*
X286678Y24230D02*
Y24631D01*
X289227Y27968D02*
X289627D01*
X289427Y27768D02*
Y28168D01*
X281486Y24602D02*
X281886D01*
X281686Y24403D02*
Y24803D01*
X279871Y25238D02*
X280271D01*
X280071Y25038D02*
Y25438D01*
X290046Y18544D02*
X290446D01*
X290246Y18345D02*
Y18744D01*
X256971Y21837D02*
X257371D01*
X257171Y21637D02*
Y22038D01*
X305369Y37826D02*
X305769D01*
X305569Y37626D02*
Y38026D01*
X303871Y29537D02*
X304271D01*
X304071Y29337D02*
Y29737D01*
X276904Y18274D02*
X277304D01*
X277104Y18075D02*
Y18474D01*
X185559Y15237D02*
X185959D01*
X185759Y15037D02*
Y15438D01*
X188759Y15237D02*
X189159D01*
X188959Y15037D02*
Y15438D01*
X307959Y36838D02*
X308359D01*
X308159Y36637D02*
Y37038D01*
X308359Y26638D02*
X308759D01*
X308559Y26438D02*
Y26838D01*
X308359Y17038D02*
X308759D01*
X308559Y16838D02*
Y17237D01*
X303959Y15237D02*
X304359D01*
X304159Y15037D02*
Y15438D01*
X300759Y15237D02*
X301159D01*
X300959Y15037D02*
Y15438D01*
X297559Y15237D02*
X297959D01*
X297759Y15037D02*
Y15438D01*
X287959Y15237D02*
X288359D01*
X288159Y15037D02*
Y15438D01*
X281559Y15237D02*
X281959D01*
X281759Y15037D02*
Y15438D01*
X271959Y15237D02*
X272359D01*
X272159Y15037D02*
Y15438D01*
X265559Y15237D02*
X265959D01*
X265759Y15037D02*
Y15438D01*
X259159Y15237D02*
X259559D01*
X259359Y15037D02*
Y15438D01*
X255959Y15237D02*
X256359D01*
X256159Y15037D02*
Y15438D01*
X243159Y15237D02*
X243559D01*
X243359Y15037D02*
Y15438D01*
X322691Y125628D02*
X323091D01*
X322891Y125428D02*
Y125829D01*
X227159Y15237D02*
X227559D01*
X227359Y15037D02*
Y15438D01*
X213252Y19620D02*
X213652D01*
X213452Y19420D02*
Y19819D01*
X276823Y129179D02*
X277223D01*
X277023Y128979D02*
Y129378D01*
X285427Y39393D02*
X285827D01*
X285627Y39193D02*
Y39592D01*
X285907Y37543D02*
X286307D01*
X286107Y37343D02*
Y37743D01*
X168615Y44616D02*
X169015D01*
X168815Y44416D02*
Y44816D01*
X319222Y69775D02*
X319622D01*
X319422Y69576D02*
Y69976D01*
X322720Y70775D02*
X323120D01*
X322920Y70574D02*
Y70974D01*
X322559Y83138D02*
X322959D01*
X322759Y82938D02*
Y83337D01*
X319351Y87699D02*
X319751D01*
X319551Y87498D02*
Y87898D01*
X319296Y93279D02*
X319696D01*
X319496Y93080D02*
Y93480D01*
X322559Y91938D02*
X322959D01*
X322759Y91738D02*
Y92137D01*
X271559Y91438D02*
X271959D01*
X271759Y91237D02*
Y91637D01*
X322662Y110414D02*
X323062D01*
X322862Y110213D02*
Y110614D01*
X317539Y129796D02*
X317939D01*
X317739Y129595D02*
Y129996D01*
X265854Y59727D02*
X266254D01*
X266054Y59526D02*
Y59926D01*
X180771Y82038D02*
X181171D01*
X180971Y81837D02*
Y82237D01*
X187971Y115638D02*
X188371D01*
X188171Y115437D02*
Y115838D01*
X195171Y86838D02*
X195571D01*
X195371Y86638D02*
Y87037D01*
X261014Y72246D02*
X261414D01*
X261214Y72047D02*
Y72447D01*
X243171Y46038D02*
X243571D01*
X243371Y45838D02*
Y46237D01*
X262864Y72247D02*
X263264D01*
X263064Y72048D02*
Y72448D01*
X243171Y36437D02*
X243571D01*
X243371Y36237D02*
Y36637D01*
X238371Y46038D02*
X238771D01*
X238571Y45838D02*
Y46237D01*
X239571Y40038D02*
X239971D01*
X239771Y39838D02*
Y40238D01*
X234771Y40038D02*
X235171D01*
X234971Y39838D02*
Y40238D01*
X190371Y82038D02*
X190771D01*
X190571Y81837D02*
Y82237D01*
X195171Y82038D02*
X195571D01*
X195371Y81837D02*
Y82237D01*
X313889Y69693D02*
X314289D01*
X314089Y69494D02*
Y69893D01*
X195171Y77237D02*
X195571D01*
X195371Y77038D02*
Y77438D01*
X190371Y67637D02*
X190771D01*
X190571Y67437D02*
Y67838D01*
X195171Y67637D02*
X195571D01*
X195371Y67437D02*
Y67838D01*
X245571Y84438D02*
X245971D01*
X245771Y84237D02*
Y84637D01*
X199971Y77237D02*
X200371D01*
X200171Y77038D02*
Y77438D01*
X204771Y82038D02*
X205171D01*
X204971Y81837D02*
Y82237D01*
X270987Y69770D02*
X271387D01*
X271187Y69569D02*
Y69969D01*
X178359Y77438D02*
X178759D01*
X178559Y77237D02*
Y77637D01*
X185571Y53237D02*
X185971D01*
X185771Y53038D02*
Y53438D01*
X233571Y46038D02*
X233971D01*
X233771Y45838D02*
Y46237D01*
X233571Y36437D02*
X233971D01*
X233771Y36237D02*
Y36637D01*
X289245Y44028D02*
X289645D01*
X289445Y43828D02*
Y44227D01*
X299611Y22256D02*
X300011D01*
X299811Y22057D02*
Y22456D01*
X216771Y86838D02*
X217171D01*
X216971Y86638D02*
Y87037D01*
X174159Y55838D02*
X174559D01*
X174359Y55638D02*
Y56037D01*
X171559Y54838D02*
X171959D01*
X171759Y54637D02*
Y55037D01*
X288140Y44603D02*
X288540D01*
X288340Y44403D02*
Y44804D01*
X285259Y47462D02*
X285659D01*
X285459Y47262D02*
Y47662D01*
X284346Y48518D02*
X284746D01*
X284546Y48318D02*
Y48717D01*
X280147Y22899D02*
X280547D01*
X280347Y22700D02*
Y23099D01*
X280226Y19850D02*
X280626D01*
X280426Y19650D02*
Y20051D01*
X281557Y129237D02*
X281957D01*
X281757Y129037D02*
Y129437D01*
X229971Y35238D02*
X230371D01*
X230171Y35037D02*
Y35438D01*
X229971Y40038D02*
X230371D01*
X230171Y39838D02*
Y40238D01*
X228771Y46038D02*
X229171D01*
X228971Y45838D02*
Y46237D01*
X224559Y76038D02*
X224959D01*
X224759Y75837D02*
Y76237D01*
X199971Y86838D02*
X200371D01*
X200171Y86638D02*
Y87037D01*
X195171Y62837D02*
X195571D01*
X195371Y62638D02*
Y63038D01*
X209757Y67090D02*
X210157D01*
X209957Y66891D02*
Y67291D01*
X190371Y72438D02*
X190771D01*
X190571Y72237D02*
Y72637D01*
X247971Y72438D02*
X248371D01*
X248171Y72237D02*
Y72637D01*
X238371Y36437D02*
X238771D01*
X238571Y36237D02*
Y36637D01*
X298759Y120037D02*
X299159D01*
X298959Y119837D02*
Y120238D01*
X246059Y124738D02*
X246459D01*
X246259Y124538D02*
Y124937D01*
X189282Y118849D02*
X189682D01*
X189482Y118649D02*
Y119049D01*
X257337Y129551D02*
X257737D01*
X257537Y129350D02*
Y129751D01*
X185571Y67637D02*
X185971D01*
X185771Y67437D02*
Y67838D01*
X286331Y129179D02*
X286731D01*
X286531Y128979D02*
Y129378D01*
X322662Y120777D02*
X323062D01*
X322862Y120578D02*
Y120977D01*
X322720Y115524D02*
X323120D01*
X322920Y115323D02*
Y115724D01*
X322807Y105447D02*
X323207D01*
X323007Y105247D02*
Y105648D01*
X322691Y99788D02*
X323091D01*
X322891Y99589D02*
Y99989D01*
X319407Y90447D02*
X319807D01*
X319607Y90247D02*
Y90648D01*
X322559Y78737D02*
X322959D01*
X322759Y78537D02*
Y78938D01*
X322636Y75871D02*
X323036D01*
X322836Y75671D02*
Y76072D01*
X322082Y67080D02*
X322482D01*
X322282Y66879D02*
Y67279D01*
X316671Y72838D02*
X317071D01*
X316871Y72637D02*
Y73037D01*
X169959Y45437D02*
X170359D01*
X170159Y45237D02*
Y45638D01*
X168691Y42342D02*
X169091D01*
X168891Y42142D02*
Y42542D01*
X257558Y60909D02*
X257958D01*
X257758Y60710D02*
Y61110D01*
X287756Y37543D02*
X288156D01*
X287956Y37343D02*
Y37743D01*
X289125Y37543D02*
X289525D01*
X289325Y37343D02*
Y37743D01*
X284370Y40497D02*
X284770D01*
X284570Y40297D02*
Y40698D01*
X286747Y38888D02*
X287147D01*
X286947Y38688D02*
Y39088D01*
X288212Y38888D02*
X288612D01*
X288412Y38688D02*
Y39088D01*
X289389Y38888D02*
X289789D01*
X289589Y38688D02*
Y39088D01*
X319017Y76626D02*
X319417D01*
X319217Y76427D02*
Y76827D01*
X216971Y19537D02*
X217371D01*
X217171Y19338D02*
Y19737D01*
X259182Y19891D02*
X259582D01*
X259382Y19691D02*
Y20090D01*
X261955Y28668D02*
X262355D01*
X262155Y28468D02*
Y28868D01*
X273871Y19534D02*
X274271D01*
X274071Y19334D02*
Y19735D01*
X268764Y17990D02*
X269164D01*
X268964Y17790D02*
Y18191D01*
X175971Y103638D02*
X176371D01*
X176171Y103437D02*
Y103838D01*
X247580Y60567D02*
X247980D01*
X247780Y60366D02*
Y60767D01*
X285188Y25949D02*
X285588D01*
X285388Y25749D02*
Y26149D01*
X303871Y66137D02*
X304271D01*
X304071Y65938D02*
Y66338D01*
X207959Y15237D02*
X208359D01*
X208159Y15037D02*
Y15438D01*
X201559Y15237D02*
X201959D01*
X201759Y15037D02*
Y15438D01*
X209746Y23589D02*
X210146D01*
X209946Y23390D02*
Y23789D01*
X198359Y15237D02*
X198759D01*
X198559Y15037D02*
Y15438D01*
X211159Y15237D02*
X211559D01*
X211359Y15037D02*
Y15438D01*
X214359Y15237D02*
X214759D01*
X214559Y15037D02*
Y15438D01*
X223959Y15237D02*
X224359D01*
X224159Y15037D02*
Y15438D01*
X230359Y15237D02*
X230759D01*
X230559Y15037D02*
Y15438D01*
X233559Y15237D02*
X233959D01*
X233759Y15037D02*
Y15438D01*
X236759Y15237D02*
X237159D01*
X236959Y15037D02*
Y15438D01*
X215871Y64038D02*
X216271D01*
X216071Y63837D02*
Y64237D01*
X239959Y15237D02*
X240359D01*
X240159Y15037D02*
Y15438D01*
X252759Y15237D02*
X253159D01*
X252959Y15037D02*
Y15438D01*
X275159Y15237D02*
X275559D01*
X275359Y15037D02*
Y15438D01*
X278359Y15237D02*
X278759D01*
X278559Y15037D02*
Y15438D01*
X272153Y61971D02*
X272553D01*
X272353Y61772D02*
Y62172D01*
X302343Y90609D02*
X302743D01*
X302543Y90408D02*
Y90808D01*
X284759Y15237D02*
X285159D01*
X284959Y15037D02*
Y15438D01*
X298671Y88538D02*
X299071D01*
X298871Y88337D02*
Y88737D01*
X291159Y15237D02*
X291559D01*
X291359Y15037D02*
Y15438D01*
X308359Y23438D02*
X308759D01*
X308559Y23237D02*
Y23638D01*
X308359Y33037D02*
X308759D01*
X308559Y32838D02*
Y33237D01*
X255460Y18822D02*
X255860D01*
X255660Y18621D02*
Y19022D01*
X175971Y77237D02*
X176371D01*
X176171Y77038D02*
Y77438D01*
X191959Y15237D02*
X192359D01*
X192159Y15037D02*
Y15438D01*
X185571Y77237D02*
X185971D01*
X185771Y77038D02*
Y77438D01*
X180771Y77237D02*
X181171D01*
X180971Y77038D02*
Y77438D01*
X261955Y19069D02*
X262355D01*
X262155Y18868D02*
Y19268D01*
X276900Y20208D02*
X277300D01*
X277100Y20008D02*
Y20407D01*
X305369Y33393D02*
X305769D01*
X305569Y33193D02*
Y33593D01*
X310199Y24602D02*
X310599D01*
X310399Y24403D02*
Y24803D01*
X181359Y21238D02*
X181759D01*
X181559Y21037D02*
Y21438D01*
X247779Y18702D02*
X248179D01*
X247979Y18503D02*
Y18902D01*
X259934Y22424D02*
X260334D01*
X260134Y22224D02*
Y22625D01*
X276904Y23075D02*
X277304D01*
X277104Y22874D02*
Y23275D01*
X279430Y75107D02*
X279830D01*
X279630Y74906D02*
Y75306D01*
X204927Y48535D02*
X205327D01*
X205127Y48335D02*
Y48735D01*
X279871Y33338D02*
X280271D01*
X280071Y33138D02*
Y33538D01*
X279471Y40437D02*
X279871D01*
X279671Y40238D02*
Y40637D01*
X279871Y43338D02*
X280271D01*
X280071Y43137D02*
Y43538D01*
X281344Y43402D02*
X281744D01*
X281544Y43202D02*
Y43602D01*
X276477Y83645D02*
X276877D01*
X276677Y83446D02*
Y83846D01*
X271615Y24602D02*
X272015D01*
X271815Y24403D02*
Y24803D01*
X287828Y27334D02*
X288228D01*
X288028Y27134D02*
Y27534D01*
X287180Y45443D02*
X287580D01*
X287380Y45243D02*
Y45643D01*
X292471Y43038D02*
X292871D01*
X292671Y42838D02*
Y43238D01*
X292471Y35838D02*
X292871D01*
X292671Y35638D02*
Y36037D01*
X286219Y46404D02*
X286619D01*
X286419Y46205D02*
Y46604D01*
X286795Y32693D02*
X287195D01*
X286995Y32493D02*
Y32893D01*
X267393Y129179D02*
X267793D01*
X267593Y128979D02*
Y129378D01*
X296459Y35838D02*
X296859D01*
X296659Y35638D02*
Y36037D01*
X296471Y47837D02*
X296871D01*
X296671Y47638D02*
Y48037D01*
X171771Y129537D02*
X172171D01*
X171971Y129338D02*
Y129737D01*
X266440Y23697D02*
X266840D01*
X266640Y23497D02*
Y23898D01*
X267061Y26068D02*
X267461D01*
X267261Y25868D02*
Y26267D01*
X168871Y127338D02*
X169271D01*
X169071Y127137D02*
Y127538D01*
X290559Y58337D02*
X290959D01*
X290759Y58138D02*
Y58538D01*
X168871Y122938D02*
X169271D01*
X169071Y122738D02*
Y123137D01*
X293559Y58337D02*
X293959D01*
X293759Y58138D02*
Y58538D01*
X291871Y62837D02*
X292271D01*
X292071Y62638D02*
Y63038D01*
X294871Y62837D02*
X295271D01*
X295071Y62638D02*
Y63038D01*
X300871Y62837D02*
X301271D01*
X301071Y62638D02*
Y63038D01*
X308071Y58938D02*
X308471D01*
X308271Y58737D02*
Y59137D01*
X308071Y50138D02*
X308471D01*
X308271Y49937D02*
Y50337D01*
X298971Y74138D02*
X299371D01*
X299171Y73937D02*
Y74338D01*
X292971Y74138D02*
X293371D01*
X293171Y73937D02*
Y74338D01*
X289971Y71737D02*
X290371D01*
X290171Y71538D02*
Y71938D01*
X289971Y74138D02*
X290371D01*
X290171Y73937D02*
Y74338D01*
X286971Y71737D02*
X287371D01*
X287171Y71538D02*
Y71938D01*
X283971Y71737D02*
X284371D01*
X284171Y71538D02*
Y71938D01*
X308071Y54537D02*
X308471D01*
X308271Y54338D02*
Y54738D01*
X207071Y31038D02*
X207471D01*
X207271Y30838D02*
Y31238D01*
X207312Y39360D02*
X207712D01*
X207512Y39160D02*
Y39560D01*
X206552Y42241D02*
X206952D01*
X206752Y42041D02*
Y42441D01*
X209849Y35241D02*
X210249D01*
X210049Y35041D02*
Y35441D01*
X209952Y38851D02*
X210352D01*
X210152Y38651D02*
Y39050D01*
X215471Y44137D02*
X215871D01*
X215671Y43938D02*
Y44337D01*
X220418Y41789D02*
X220818D01*
X220618Y41589D02*
Y41989D01*
X182771Y123937D02*
X183171D01*
X182971Y123738D02*
Y124137D01*
X217015Y38592D02*
X217415D01*
X217215Y38392D02*
Y38792D01*
X216912Y31839D02*
X217312D01*
X217112Y31639D02*
Y32039D01*
X213149Y32199D02*
X213549D01*
X213349Y31999D02*
Y32399D01*
X213200Y35603D02*
X213600D01*
X213400Y35403D02*
Y35803D01*
X181359Y37637D02*
X181759D01*
X181559Y37437D02*
Y37837D01*
X172759Y47038D02*
X173159D01*
X172959Y46837D02*
Y47238D01*
X212159Y116237D02*
X212559D01*
X212359Y116037D02*
Y116437D01*
X170359Y49437D02*
X170759D01*
X170559Y49237D02*
Y49637D01*
X180771Y110837D02*
X181171D01*
X180971Y110637D02*
Y111038D01*
X172471Y65438D02*
X172871D01*
X172671Y65237D02*
Y65637D01*
X170359Y108637D02*
X170759D01*
X170559Y108438D02*
Y108837D01*
X168871Y118537D02*
X169271D01*
X169071Y118338D02*
Y118737D01*
X213200Y28591D02*
X213600D01*
X213400Y28390D02*
Y28791D01*
X213303Y24054D02*
X213703D01*
X213503Y23854D02*
Y24253D01*
X247971Y84438D02*
X248371D01*
X248171Y84237D02*
Y84637D01*
X223271Y19537D02*
X223671D01*
X223471Y19338D02*
Y19737D01*
X220071Y19537D02*
X220471D01*
X220271Y19338D02*
Y19737D01*
X219851Y28179D02*
X220251D01*
X220051Y27979D02*
Y28378D01*
X227224Y24363D02*
X227624D01*
X227424Y24162D02*
Y24563D01*
X259971Y86838D02*
X260371D01*
X260171Y86638D02*
Y87037D01*
X257571Y86838D02*
X257971D01*
X257771Y86638D02*
Y87037D01*
X243826Y30705D02*
X244226D01*
X244026Y30505D02*
Y30904D01*
X232371Y40038D02*
X232771D01*
X232571Y39838D02*
Y40238D01*
X237171Y40038D02*
X237571D01*
X237371Y39838D02*
Y40238D01*
X252771Y86838D02*
X253171D01*
X252971Y86638D02*
Y87037D01*
X255171Y86838D02*
X255571D01*
X255371Y86638D02*
Y87037D01*
X244371Y40038D02*
X244771D01*
X244571Y39838D02*
Y40238D01*
X244359Y51038D02*
X244759D01*
X244559Y50837D02*
Y51237D01*
X237171Y47238D02*
X237571D01*
X237371Y47038D02*
Y47438D01*
X214371Y115638D02*
X214771D01*
X214571Y115437D02*
Y115838D01*
X232371Y47238D02*
X232771D01*
X232571Y47038D02*
Y47438D01*
X229971Y47238D02*
X230371D01*
X230171Y47038D02*
Y47438D01*
X232371Y44837D02*
X232771D01*
X232571Y44638D02*
Y45037D01*
X237171Y44837D02*
X237571D01*
X237371Y44638D02*
Y45037D01*
X234771Y44837D02*
X235171D01*
X234971Y44638D02*
Y45037D01*
X239571Y44837D02*
X239971D01*
X239771Y44638D02*
Y45037D01*
X167359Y96838D02*
X167759D01*
X167559Y96637D02*
Y97038D01*
X277305Y66220D02*
X277705D01*
X277505Y66021D02*
Y66421D01*
X203771Y57138D02*
X204171D01*
X203971Y56937D02*
Y57337D01*
X203771Y61537D02*
X204171D01*
X203971Y61338D02*
Y61738D01*
X203771Y65938D02*
X204171D01*
X203971Y65737D02*
Y66137D01*
X211359Y68837D02*
X211759D01*
X211559Y68638D02*
Y69037D01*
X209571Y72438D02*
X209971D01*
X209771Y72237D02*
Y72637D01*
X211971Y79648D02*
X212371D01*
X212171Y79448D02*
Y79848D01*
X209757Y62291D02*
X210157D01*
X209957Y62090D02*
Y62490D01*
X272147Y129218D02*
X272547D01*
X272347Y129018D02*
Y129419D01*
X214371Y72438D02*
X214771D01*
X214571Y72237D02*
Y72637D01*
X233571Y72438D02*
X233971D01*
X233771Y72237D02*
Y72637D01*
X233671Y64237D02*
X234071D01*
X233871Y64038D02*
Y64438D01*
X237297Y62463D02*
X237697D01*
X237497Y62264D02*
Y62664D01*
X234945Y62393D02*
X235345D01*
X235145Y62194D02*
Y62594D01*
X241724Y62602D02*
X242124D01*
X241924Y62401D02*
Y62801D01*
X246471Y64237D02*
X246871D01*
X246671Y64038D02*
Y64438D01*
X245488Y60567D02*
X245888D01*
X245688Y60366D02*
Y60767D01*
X241264Y60520D02*
X241664D01*
X241464Y60321D02*
Y60720D01*
X235897Y60497D02*
X236297D01*
X236097Y60298D02*
Y60698D01*
X231407Y60663D02*
X231807D01*
X231607Y60464D02*
Y60864D01*
X233822Y60598D02*
X234222D01*
X234022Y60399D02*
Y60799D01*
X245476Y69981D02*
X245876D01*
X245676Y69780D02*
Y70180D01*
X256559Y69837D02*
X256959D01*
X256759Y69638D02*
Y70038D01*
X258208Y72119D02*
X258608D01*
X258408Y71920D02*
Y72320D01*
X264844Y72246D02*
X265244D01*
X265044Y72047D02*
Y72447D01*
X253304Y62045D02*
X253704D01*
X253504Y61844D02*
Y62244D01*
X252128Y54694D02*
X252528D01*
X252328Y54495D02*
Y54895D01*
X253304Y57244D02*
X253704D01*
X253504Y57045D02*
Y57445D01*
X311159Y70438D02*
X311559D01*
X311359Y70237D02*
Y70638D01*
X232371Y37637D02*
X232771D01*
X232571Y37437D02*
Y37837D01*
X227571Y46038D02*
X227971D01*
X227771Y45838D02*
Y46237D01*
X227959Y52838D02*
X228359D01*
X228159Y52637D02*
Y53038D01*
X229971Y50837D02*
X230371D01*
X230171Y50638D02*
Y51038D01*
X234771Y47238D02*
X235171D01*
X234971Y47038D02*
Y47438D01*
X229971Y44837D02*
X230371D01*
X230171Y44638D02*
Y45037D01*
X296459Y33437D02*
X296859D01*
X296659Y33237D02*
Y33637D01*
X237559Y51237D02*
X237959D01*
X237759Y51038D02*
Y51437D01*
X243348Y60421D02*
X243748D01*
X243548Y60220D02*
Y60620D01*
X240559Y52838D02*
X240959D01*
X240759Y52637D02*
Y53038D01*
X261955Y23868D02*
X262355D01*
X262155Y23668D02*
Y24069D01*
X264092Y22978D02*
X264492D01*
X264292Y22779D02*
Y23178D01*
X246710Y28800D02*
X247110D01*
X246910Y28600D02*
Y29000D01*
X291921Y27521D02*
X292321D01*
X292121Y27321D02*
Y27722D01*
X195171Y48438D02*
X195571D01*
X195371Y48237D02*
Y48638D01*
X286366Y27079D02*
X286766D01*
X286566Y26878D02*
Y27279D01*
X241971Y47238D02*
X242371D01*
X242171Y47038D02*
Y47438D01*
X246359Y52838D02*
X246759D01*
X246559Y52637D02*
Y53038D01*
X244496Y27920D02*
X244896D01*
X244696Y27720D02*
Y28120D01*
X237171Y37637D02*
X237571D01*
X237371Y37437D02*
Y37837D01*
X239571Y37637D02*
X239971D01*
X239771Y37437D02*
Y37837D01*
X241971Y37637D02*
X242371D01*
X242171Y37437D02*
Y37837D01*
X304775Y22940D02*
X305175D01*
X304975Y22739D02*
Y23140D01*
X176071Y49837D02*
X176471D01*
X176271Y49637D02*
Y50037D01*
X211671Y57437D02*
X212071D01*
X211871Y57237D02*
Y57638D01*
X245839Y20683D02*
X246239D01*
X246039Y20482D02*
Y20883D01*
X256481Y62828D02*
X256881D01*
X256681Y62629D02*
Y63029D01*
X258953Y63516D02*
X259353D01*
X259153Y63317D02*
Y63717D01*
X257086Y66672D02*
X257486D01*
X257286Y66471D02*
Y66872D01*
X269684Y59727D02*
X270084D01*
X269884Y59526D02*
Y59926D01*
X204471Y115838D02*
X204871D01*
X204671Y115638D02*
Y116037D01*
X172671Y70938D02*
X173071D01*
X172871Y70737D02*
Y71137D01*
X188040Y129434D02*
X188440D01*
X188240Y129234D02*
Y129633D01*
X192793Y129413D02*
X193193D01*
X192993Y129214D02*
Y129613D01*
X207349Y129532D02*
X207749D01*
X207549Y129332D02*
Y129732D01*
X180771Y62837D02*
X181171D01*
X180971Y62638D02*
Y63038D01*
X180771Y58038D02*
X181171D01*
X180971Y57837D02*
Y58237D01*
X175971Y58038D02*
X176371D01*
X176171Y57837D02*
Y58237D01*
X205851Y124925D02*
X206251D01*
X206051Y124725D02*
Y125126D01*
X190999Y124660D02*
X191399D01*
X191199Y124460D02*
Y124859D01*
X217950Y124904D02*
X218350D01*
X218150Y124704D02*
Y125103D01*
X222035Y124892D02*
X222435D01*
X222235Y124692D02*
Y125092D01*
X185571Y91637D02*
X185971D01*
X185771Y91438D02*
Y91838D01*
X199971Y82038D02*
X200371D01*
X200171Y81837D02*
Y82237D01*
X180771Y72438D02*
X181171D01*
X180971Y72237D02*
Y72637D01*
X185571Y72438D02*
X185971D01*
X185771Y72237D02*
Y72637D01*
X305571Y125238D02*
X305971D01*
X305771Y125038D02*
Y125437D01*
X308359Y20237D02*
X308759D01*
X308559Y20038D02*
Y20437D01*
X207871Y57437D02*
X208271D01*
X208071Y57237D02*
Y57638D01*
X275159Y71038D02*
X275559D01*
X275359Y70837D02*
Y71237D01*
X277159Y75837D02*
X277559D01*
X277359Y75638D02*
Y76038D01*
X248759Y91438D02*
X249159D01*
X248959Y91237D02*
Y91637D01*
X253759Y96838D02*
X254159D01*
X253959Y96637D02*
Y97038D01*
X292459Y50238D02*
X292859D01*
X292659Y50037D02*
Y50437D01*
X196482Y123038D02*
X196882D01*
X196682Y122838D02*
Y123239D01*
X262271Y64938D02*
X262671D01*
X262471Y64737D02*
Y65137D01*
X261971Y48937D02*
X262371D01*
X262171Y48737D02*
Y49137D01*
X261971Y37538D02*
X262371D01*
X262171Y37337D02*
Y37738D01*
X279871Y37637D02*
X280271D01*
X280071Y37437D02*
Y37837D01*
X279871Y29537D02*
X280271D01*
X280071Y29337D02*
Y29737D01*
X181464Y99385D02*
X181864D01*
X181664Y99186D02*
Y99585D01*
X191396Y102013D02*
X191796D01*
X191596Y101813D02*
Y102213D01*
X215871Y61638D02*
X216271D01*
X216071Y61437D02*
Y61838D01*
X224759Y103638D02*
X225159D01*
X224959Y103437D02*
Y103838D01*
X270759Y104037D02*
X271159D01*
X270959Y103838D02*
Y104237D01*
X301371Y88437D02*
X301771D01*
X301571Y88238D02*
Y88638D01*
X296881Y89903D02*
X297281D01*
X297081Y89702D02*
Y90102D01*
X295355Y90684D02*
X295755D01*
X295555Y90484D02*
Y90885D01*
X282873Y88174D02*
X283273D01*
X283073Y87973D02*
Y88374D01*
X280236Y87915D02*
X280636D01*
X280436Y87714D02*
Y88115D01*
X277271Y62638D02*
X277671D01*
X277471Y62437D02*
Y62837D01*
X287571Y58337D02*
X287971D01*
X287771Y58138D02*
Y58538D01*
X281471Y66137D02*
X281871D01*
X281671Y65938D02*
Y66338D01*
X311259Y74338D02*
X311659D01*
X311459Y74138D02*
Y74537D01*
X292471Y33437D02*
X292871D01*
X292671Y33237D02*
Y33637D01*
X292471Y38238D02*
X292871D01*
X292671Y38037D02*
Y38438D01*
X293759Y53637D02*
X294159D01*
X293959Y53438D02*
Y53838D01*
X297171Y53637D02*
X297571D01*
X297371Y53438D02*
Y53838D01*
X299971Y43938D02*
X300371D01*
X300171Y43738D02*
Y44137D01*
X275672Y54751D02*
X276072D01*
X275872Y54550D02*
Y54950D01*
X279871Y47638D02*
X280271D01*
X280071Y47438D02*
Y47837D01*
X224759Y90637D02*
X225159D01*
X224959Y90438D02*
Y90838D01*
X224359Y52237D02*
X224759D01*
X224559Y52038D02*
Y52438D01*
X232759Y103638D02*
X233159D01*
X232959Y103437D02*
Y103838D01*
X199959Y97838D02*
X200359D01*
X200159Y97637D02*
Y98037D01*
X265571Y20137D02*
X265971D01*
X265771Y19938D02*
Y20337D01*
X235971Y86238D02*
X236371D01*
X236171Y86037D02*
Y86437D01*
X302171Y20738D02*
X302571D01*
X302371Y20538D02*
Y20937D01*
X243171Y93338D02*
X243571D01*
X243371Y93138D02*
Y93537D01*
X244690Y87306D02*
X245090D01*
X244890Y87106D02*
Y87506D01*
X292559Y87638D02*
X292959D01*
X292759Y87437D02*
Y87837D01*
X227471Y89938D02*
X227871D01*
X227671Y89737D02*
Y90137D01*
X237771Y55437D02*
X238171D01*
X237971Y55238D02*
Y55638D01*
X228071Y99537D02*
X228471D01*
X228271Y99338D02*
Y99738D01*
X233771Y55437D02*
X234171D01*
X233971Y55238D02*
Y55638D01*
X241671Y55437D02*
X242071D01*
X241871Y55238D02*
Y55638D01*
X217971Y66537D02*
X218371D01*
X218171Y66338D02*
Y66738D01*
X179471Y106037D02*
X179871D01*
X179671Y105838D02*
Y106237D01*
X179471Y102838D02*
X179871D01*
X179671Y102638D02*
Y103038D01*
X202271Y101937D02*
X202671D01*
X202471Y101737D02*
Y102137D01*
X215771Y77237D02*
X216171D01*
X215971Y77038D02*
Y77438D01*
X298728Y85066D02*
X299128D01*
X298928Y84866D02*
Y85267D01*
X298728Y83802D02*
X299128D01*
X298928Y83601D02*
Y84001D01*
X300336Y83802D02*
X300736D01*
X300536Y83601D02*
Y84001D01*
X296864Y83802D02*
X297264D01*
X297064Y83601D02*
Y84001D01*
X295388Y83802D02*
X295788D01*
X295588Y83601D02*
Y84001D01*
X295388Y85066D02*
X295788D01*
X295588Y84866D02*
Y85267D01*
X294110Y79408D02*
X294510D01*
X294310Y79207D02*
Y79607D01*
X292736Y79408D02*
X293136D01*
X292936Y79207D02*
Y79607D01*
X302371Y85786D02*
X302771D01*
X302571Y85585D02*
Y85985D01*
X306021Y84121D02*
X306421D01*
X306221Y83921D02*
Y84320D01*
X305883Y88763D02*
X306283D01*
X306083Y88564D02*
Y88964D01*
X304546Y88763D02*
X304946D01*
X304746Y88564D02*
Y88964D01*
X228959Y106237D02*
X229359D01*
X229159Y106037D02*
Y106438D01*
X237559Y104638D02*
X237959D01*
X237759Y104437D02*
Y104838D01*
X236959Y115038D02*
X237359D01*
X237159Y114838D02*
Y115237D01*
X224771Y110038D02*
X225171D01*
X224971Y109837D02*
Y110238D01*
X254171Y116138D02*
X254571D01*
X254371Y115937D02*
Y116338D01*
X184471Y110137D02*
X184871D01*
X184671Y109938D02*
Y110337D01*
X228171Y86838D02*
X228571D01*
X228371Y86638D02*
Y87037D01*
X192671Y108738D02*
X193071D01*
X192871Y108537D02*
Y108938D01*
X183371Y118638D02*
X183771D01*
X183571Y118438D02*
Y118837D01*
X227871Y64337D02*
X228271D01*
X228071Y64138D02*
Y64538D01*
X239959Y109137D02*
X240359D01*
X240159Y108938D02*
Y109337D01*
X237159Y113238D02*
X237559D01*
X237359Y113038D02*
Y113437D01*
X285759Y107238D02*
X286159D01*
X285959Y107037D02*
Y107438D01*
X317759Y80137D02*
X318159D01*
X317959Y79937D02*
Y80338D01*
X213571Y97338D02*
X213971D01*
X213771Y97137D02*
Y97537D01*
X248571Y46237D02*
X248971D01*
X248771Y46038D02*
Y46437D01*
X225471Y44238D02*
X225871D01*
X225671Y44038D02*
Y44438D01*
X289359Y87638D02*
X289759D01*
X289559Y87437D02*
Y87837D01*
X232871Y88337D02*
X233271D01*
X233071Y88138D02*
Y88538D01*
X252771Y66537D02*
X253171D01*
X252971Y66338D02*
Y66738D01*
X248671Y32438D02*
X249071D01*
X248871Y32237D02*
Y32638D01*
X219471Y66537D02*
X219871D01*
X219671Y66338D02*
Y66738D01*
X224271Y46237D02*
X224671D01*
X224471Y46038D02*
Y46437D01*
X225471Y46237D02*
X225871D01*
X225671Y46038D02*
Y46437D01*
X209071Y110738D02*
X209471D01*
X209271Y110538D02*
Y110938D01*
X200771Y101937D02*
X201171D01*
X200971Y101737D02*
Y102137D01*
X297871Y106638D02*
X298271D01*
X298071Y106438D02*
Y106837D01*
X255959Y101237D02*
X256359D01*
X256159Y101038D02*
Y101437D01*
X276071Y126437D02*
X276471D01*
X276271Y126237D02*
Y126637D01*
X306959Y111038D02*
X307359D01*
X307159Y110837D02*
Y111238D01*
X290171Y22437D02*
X290571D01*
X290371Y22238D02*
Y22637D01*
X239159Y123038D02*
X239559D01*
X239359Y122837D02*
Y123238D01*
X259071Y80738D02*
X259471D01*
X259271Y80537D02*
Y80937D01*
X221959Y50037D02*
X222359D01*
X222159Y49837D02*
Y50238D01*
X228471Y97137D02*
X228871D01*
X228671Y96938D02*
Y97338D01*
X307759Y70638D02*
X308159D01*
X307959Y70438D02*
Y70837D01*
X235859Y20838D02*
X236259D01*
X236059Y20638D02*
Y21037D01*
X290171Y24538D02*
X290571D01*
X290371Y24338D02*
Y24737D01*
X289559Y120438D02*
X289959D01*
X289759Y120238D02*
Y120638D01*
X258559Y106837D02*
X258959D01*
X258759Y106638D02*
Y107037D01*
X245671Y55437D02*
X246071D01*
X245871Y55238D02*
Y55638D01*
X235771Y55437D02*
X236171D01*
X235971Y55238D02*
Y55638D01*
X231871Y55437D02*
X232271D01*
X232071Y55238D02*
Y55638D01*
X311771Y111837D02*
X312171D01*
X311971Y111637D02*
Y112038D01*
X305359Y111837D02*
X305759D01*
X305559Y111637D02*
Y112038D01*
X289359Y109637D02*
X289759D01*
X289559Y109438D02*
Y109837D01*
X303159Y101038D02*
X303559D01*
X303359Y100838D02*
Y101237D01*
X298071Y104237D02*
X298471D01*
X298271Y104037D02*
Y104437D01*
X271371Y99638D02*
X271771D01*
X271571Y99437D02*
Y99837D01*
X251171Y122738D02*
X251571D01*
X251371Y122538D02*
Y122938D01*
X198671Y117438D02*
X199071D01*
X198871Y117237D02*
Y117638D01*
X293159Y120438D02*
X293559D01*
X293359Y120238D02*
Y120638D01*
X255759Y106638D02*
X256159D01*
X255959Y106438D02*
Y106837D01*
X292759Y107638D02*
X293159D01*
X292959Y107438D02*
Y107837D01*
X256759Y99638D02*
X257159D01*
X256959Y99437D02*
Y99837D01*
X230159Y85037D02*
X230559D01*
X230359Y84838D02*
Y85237D01*
X176071Y89737D02*
X176471D01*
X176271Y89538D02*
Y89938D01*
X202571Y35638D02*
X202971D01*
X202771Y35438D02*
Y35838D01*
X294759Y109238D02*
X295159D01*
X294959Y109037D02*
Y109438D01*
X265559Y104638D02*
X265959D01*
X265759Y104437D02*
Y104838D01*
X271171Y22038D02*
X271571D01*
X271371Y21837D02*
Y22238D01*
X261759Y107438D02*
X262159D01*
X261959Y107238D02*
Y107638D01*
X290759Y116838D02*
X291159D01*
X290959Y116638D02*
Y117037D01*
X237371Y84438D02*
X237771D01*
X237571Y84237D02*
Y84637D01*
X229871Y55437D02*
X230271D01*
X230071Y55238D02*
Y55638D01*
X212159Y89837D02*
X212559D01*
X212359Y89638D02*
Y90038D01*
X262159Y94037D02*
X262559D01*
X262359Y93837D02*
Y94238D01*
X279471Y84737D02*
X279871D01*
X279671Y84538D02*
Y84938D01*
X252121Y24073D02*
X252521D01*
X252321Y23874D02*
Y24273D01*
X295759Y117237D02*
X296159D01*
X295959Y117037D02*
Y117438D01*
X260159Y106837D02*
X260559D01*
X260359Y106638D02*
Y107037D01*
X288371Y103537D02*
X288771D01*
X288571Y103338D02*
Y103737D01*
X223871Y113038D02*
X224271D01*
X224071Y112838D02*
Y113238D01*
X233559Y117638D02*
X233959D01*
X233759Y117438D02*
Y117838D01*
X255971Y120337D02*
X256371D01*
X256171Y120138D02*
Y120537D01*
X271671Y106037D02*
X272071D01*
X271871Y105838D02*
Y106237D01*
Y83837D02*
X272271D01*
X272071Y83637D02*
Y84038D01*
X251771Y75638D02*
X252171D01*
X251971Y75437D02*
Y75837D01*
X225971Y80537D02*
X226371D01*
X226171Y80338D02*
Y80738D01*
X194471Y96938D02*
X194871D01*
X194671Y96737D02*
Y97137D01*
X190171Y96637D02*
X190571D01*
X190371Y96438D02*
Y96838D01*
X208771Y80937D02*
X209171D01*
X208971Y80738D02*
Y81138D01*
X208771Y77438D02*
X209171D01*
X208971Y77237D02*
Y77637D01*
X210871Y87686D02*
X211271D01*
X211071Y87486D02*
Y87886D01*
X210871Y84637D02*
X211271D01*
X211071Y84437D02*
Y84837D01*
X249173Y104485D02*
X249573D01*
X249373Y104285D02*
Y104685D01*
X241159Y115038D02*
X241559D01*
X241359Y114838D02*
Y115238D01*
X241159Y112238D02*
X241559D01*
X241359Y112038D02*
Y112438D01*
X241159Y107934D02*
X241559D01*
X241359Y107734D02*
Y108134D01*
X241159Y117838D02*
X241559D01*
X241359Y117638D02*
Y118037D01*
X241959Y104638D02*
X242359D01*
X242159Y104437D02*
Y104838D01*
X245278Y106950D02*
X245678D01*
X245478Y106750D02*
Y107150D01*
X245759Y108916D02*
X246159D01*
X245959Y108716D02*
Y109116D01*
X245471Y121137D02*
X245871D01*
X245671Y120938D02*
Y121337D01*
X244359Y117037D02*
X244759D01*
X244559Y116838D02*
Y117237D01*
X263759Y118037D02*
X264159D01*
X263959Y117838D02*
Y118237D01*
X236959Y102838D02*
X237359D01*
X237159Y102638D02*
Y103038D01*
X239559Y104838D02*
X239959D01*
X239759Y104638D02*
Y105037D01*
X248459Y113140D02*
X248859D01*
X248659Y112940D02*
Y113340D01*
X248459Y110290D02*
X248859D01*
X248659Y110090D02*
Y110490D01*
X243276Y82337D02*
X243676D01*
X243476Y82138D02*
Y82538D01*
M02*
