G04 Layer_Color=16711935*
%FSLAX25Y25*%
%MOIN*%
G70*
G01*
G75*
%ADD16C,0.00787*%
%ADD95C,0.06500*%
%ADD96R,0.06500X0.06500*%
%ADD97C,0.12400*%
%ADD98C,0.22154*%
%ADD99C,0.02100*%
%ADD100R,0.08500X0.03700*%
%ADD101R,0.03700X0.08500*%
%ADD102R,0.03700X0.03700*%
%ADD103R,0.05224X0.06012*%
%ADD104R,0.04240X0.02665*%
%ADD105R,0.02665X0.02665*%
%ADD106R,0.02665X0.04240*%
%ADD107R,0.02862X0.02862*%
%ADD108R,0.18689X0.07587*%
%ADD109O,0.01602X0.04043*%
%ADD110O,0.04043X0.01602*%
%ADD111R,0.21169X0.21169*%
%ADD112R,0.02193X0.02429*%
%ADD113R,0.02272X0.02823*%
%ADD114R,0.02213X0.02823*%
%ADD115R,0.02862X0.02469*%
%ADD116R,0.05618X0.03256*%
%ADD117R,0.05618X0.04634*%
%ADD118C,0.02272*%
%ADD119C,0.02429*%
%ADD120R,0.02700X0.02500*%
%ADD121R,0.02500X0.02700*%
%ADD122R,0.01878X0.03059*%
%ADD123R,0.03059X0.01878*%
%ADD124R,0.01602X0.03453*%
%ADD125R,0.04173X0.02300*%
%ADD126R,0.01563X0.03059*%
%ADD127R,0.03260X0.03060*%
%ADD128R,0.04500X0.05500*%
%ADD129R,0.07200X0.07600*%
%ADD130R,0.02500X0.03300*%
%ADD131R,0.03500X0.03700*%
%ADD132R,0.03700X0.03500*%
%ADD133R,0.05500X0.04500*%
%ADD134R,0.05231X0.03462*%
%ADD135R,0.08374X0.03650*%
%ADD136C,0.00984*%
%ADD137R,0.02756X0.01378*%
%ADD138R,0.03543X0.01772*%
%ADD139R,0.05512X0.06496*%
%ADD140C,0.08071*%
%ADD141R,0.08374X0.08374*%
%ADD142R,0.05512X0.05512*%
%ADD143R,0.02756X0.02756*%
%ADD144R,0.25197X0.09449*%
%ADD145R,0.03453X0.01602*%
G36*
X324408Y131421D02*
X324446Y131412D01*
X324482Y131397D01*
X324516Y131376D01*
X324546Y131351D01*
X324571Y131321D01*
X324592Y131287D01*
X324607Y131251D01*
X324616Y131213D01*
X324619Y131174D01*
Y121373D01*
X324616Y121334D01*
X324607Y121296D01*
X324592Y121260D01*
X324571Y121226D01*
X324546Y121196D01*
X324516Y121171D01*
X324482Y121150D01*
X324446Y121135D01*
X324408Y121126D01*
X324368Y121123D01*
X321168D01*
X321129Y121126D01*
X321091Y121135D01*
X321055Y121150D01*
X321021Y121171D01*
X320991Y121196D01*
X320966Y121226D01*
X320945Y121260D01*
X320930Y121296D01*
X320921Y121334D01*
X320918Y121373D01*
Y127723D01*
X314568D01*
X314529Y127726D01*
X314491Y127735D01*
X314455Y127750D01*
X314421Y127771D01*
X314391Y127796D01*
X314366Y127826D01*
X314345Y127860D01*
X314330Y127896D01*
X314321Y127934D01*
X314318Y127973D01*
Y131174D01*
X314321Y131213D01*
X314330Y131251D01*
X314345Y131287D01*
X314366Y131321D01*
X314391Y131351D01*
X314421Y131376D01*
X314455Y131397D01*
X314491Y131412D01*
X314529Y131421D01*
X314568Y131424D01*
X324368D01*
X324408Y131421D01*
D02*
G37*
G36*
X176708D02*
X176746Y131412D01*
X176782Y131397D01*
X176816Y131376D01*
X176846Y131351D01*
X176871Y131321D01*
X176892Y131287D01*
X176907Y131251D01*
X176916Y131213D01*
X176919Y131174D01*
Y127973D01*
X176916Y127934D01*
X176907Y127896D01*
X176892Y127860D01*
X176871Y127826D01*
X176846Y127796D01*
X176816Y127771D01*
X176782Y127750D01*
X176746Y127735D01*
X176708Y127726D01*
X176668Y127723D01*
X170319D01*
Y121373D01*
X170316Y121334D01*
X170307Y121296D01*
X170292Y121260D01*
X170271Y121226D01*
X170246Y121196D01*
X170216Y121171D01*
X170182Y121150D01*
X170146Y121135D01*
X170108Y121126D01*
X170068Y121123D01*
X166868D01*
X166829Y121126D01*
X166791Y121135D01*
X166754Y121150D01*
X166721Y121171D01*
X166691Y121196D01*
X166665Y121226D01*
X166645Y121260D01*
X166630Y121296D01*
X166621Y121334D01*
X166618Y121373D01*
Y131174D01*
X166621Y131213D01*
X166630Y131251D01*
X166645Y131287D01*
X166665Y131321D01*
X166691Y131351D01*
X166721Y131376D01*
X166754Y131397D01*
X166791Y131412D01*
X166829Y131421D01*
X166868Y131424D01*
X176668D01*
X176708Y131421D01*
D02*
G37*
G36*
X324408Y101721D02*
X324446Y101712D01*
X324482Y101697D01*
X324516Y101676D01*
X324546Y101651D01*
X324571Y101621D01*
X324592Y101587D01*
X324607Y101551D01*
X324616Y101513D01*
X324619Y101473D01*
Y87173D01*
X324616Y87134D01*
X324607Y87096D01*
X324592Y87060D01*
X324571Y87026D01*
X324546Y86996D01*
X324516Y86971D01*
X324482Y86950D01*
X324446Y86935D01*
X324408Y86926D01*
X324368Y86923D01*
X321168D01*
X321129Y86926D01*
X321091Y86935D01*
X321055Y86950D01*
X321021Y86971D01*
X320991Y86996D01*
X320966Y87026D01*
X320945Y87060D01*
X320930Y87096D01*
X320921Y87134D01*
X320918Y87173D01*
Y91323D01*
X314568D01*
X314529Y91326D01*
X314491Y91335D01*
X314455Y91350D01*
X314421Y91371D01*
X314391Y91396D01*
X314366Y91426D01*
X314345Y91460D01*
X314330Y91496D01*
X314321Y91534D01*
X314318Y91574D01*
Y94774D01*
X314321Y94813D01*
X314330Y94851D01*
X314345Y94887D01*
X314366Y94921D01*
X314391Y94951D01*
X314421Y94976D01*
X314455Y94997D01*
X314491Y95012D01*
X314529Y95021D01*
X314568Y95024D01*
X320918D01*
Y101473D01*
X320921Y101513D01*
X320930Y101551D01*
X320945Y101587D01*
X320966Y101621D01*
X320991Y101651D01*
X321021Y101676D01*
X321055Y101697D01*
X321091Y101712D01*
X321129Y101721D01*
X321168Y101724D01*
X324368D01*
X324408Y101721D01*
D02*
G37*
G36*
X284608Y95021D02*
X284646Y95012D01*
X284682Y94997D01*
X284716Y94976D01*
X284746Y94951D01*
X284771Y94921D01*
X284792Y94887D01*
X284807Y94851D01*
X284816Y94813D01*
X284819Y94774D01*
Y91574D01*
X284816Y91534D01*
X284807Y91496D01*
X284792Y91460D01*
X284771Y91426D01*
X284746Y91396D01*
X284716Y91371D01*
X284682Y91350D01*
X284646Y91335D01*
X284608Y91326D01*
X284568Y91323D01*
X278219D01*
Y84974D01*
X278216Y84934D01*
X278207Y84896D01*
X278192Y84860D01*
X278171Y84826D01*
X278146Y84796D01*
X278116Y84771D01*
X278082Y84750D01*
X278046Y84735D01*
X278008Y84726D01*
X277968Y84723D01*
X274768D01*
X274729Y84726D01*
X274691Y84735D01*
X274655Y84750D01*
X274621Y84771D01*
X274591Y84796D01*
X274566Y84826D01*
X274545Y84860D01*
X274530Y84896D01*
X274521Y84934D01*
X274518Y84974D01*
Y94774D01*
X274521Y94813D01*
X274530Y94851D01*
X274545Y94887D01*
X274566Y94921D01*
X274591Y94951D01*
X274621Y94976D01*
X274655Y94997D01*
X274691Y95012D01*
X274729Y95021D01*
X274768Y95024D01*
X284568D01*
X284608Y95021D01*
D02*
G37*
G36*
X278008Y78221D02*
X278046Y78212D01*
X278082Y78197D01*
X278116Y78176D01*
X278146Y78151D01*
X278171Y78121D01*
X278192Y78087D01*
X278207Y78051D01*
X278216Y78013D01*
X278219Y77974D01*
Y68173D01*
X278216Y68134D01*
X278207Y68096D01*
X278192Y68060D01*
X278171Y68026D01*
X278146Y67996D01*
X278116Y67971D01*
X278082Y67950D01*
X278046Y67935D01*
X278008Y67926D01*
X277968Y67923D01*
X268168D01*
X268129Y67926D01*
X268091Y67935D01*
X268055Y67950D01*
X268021Y67971D01*
X267991Y67996D01*
X267966Y68026D01*
X267945Y68060D01*
X267930Y68096D01*
X267921Y68134D01*
X267918Y68173D01*
Y71373D01*
X267921Y71413D01*
X267930Y71451D01*
X267945Y71487D01*
X267966Y71521D01*
X267991Y71551D01*
X268021Y71576D01*
X268055Y71597D01*
X268091Y71612D01*
X268129Y71621D01*
X268168Y71624D01*
X274518D01*
Y77974D01*
X274521Y78013D01*
X274530Y78051D01*
X274545Y78087D01*
X274566Y78121D01*
X274591Y78151D01*
X274621Y78176D01*
X274655Y78197D01*
X274691Y78212D01*
X274729Y78221D01*
X274768Y78224D01*
X277968D01*
X278008Y78221D01*
D02*
G37*
G36*
X324408Y75121D02*
X324446Y75112D01*
X324482Y75097D01*
X324516Y75076D01*
X324546Y75051D01*
X324571Y75021D01*
X324592Y74987D01*
X324607Y74951D01*
X324616Y74913D01*
X324619Y74874D01*
Y65074D01*
X324616Y65034D01*
X324607Y64996D01*
X324592Y64960D01*
X324571Y64926D01*
X324546Y64896D01*
X324516Y64871D01*
X324482Y64850D01*
X324446Y64835D01*
X324408Y64826D01*
X324368Y64823D01*
X314568D01*
X314529Y64826D01*
X314491Y64835D01*
X314455Y64850D01*
X314421Y64871D01*
X314391Y64896D01*
X314366Y64926D01*
X314345Y64960D01*
X314330Y64996D01*
X314321Y65034D01*
X314318Y65074D01*
Y68274D01*
X314321Y68313D01*
X314330Y68351D01*
X314345Y68387D01*
X314366Y68421D01*
X314391Y68451D01*
X314421Y68476D01*
X314455Y68497D01*
X314491Y68512D01*
X314529Y68521D01*
X314568Y68524D01*
X320918D01*
Y74874D01*
X320921Y74913D01*
X320930Y74951D01*
X320945Y74987D01*
X320966Y75021D01*
X320991Y75051D01*
X321021Y75076D01*
X321055Y75097D01*
X321091Y75112D01*
X321129Y75121D01*
X321168Y75124D01*
X324368D01*
X324408Y75121D01*
D02*
G37*
G36*
X212208Y71621D02*
X212246Y71612D01*
X212282Y71597D01*
X212316Y71576D01*
X212346Y71551D01*
X212371Y71521D01*
X212392Y71487D01*
X212407Y71451D01*
X212416Y71413D01*
X212419Y71373D01*
Y68173D01*
X212416Y68134D01*
X212407Y68096D01*
X212392Y68060D01*
X212371Y68026D01*
X212346Y67996D01*
X212316Y67971D01*
X212282Y67950D01*
X212246Y67935D01*
X212208Y67926D01*
X212168Y67923D01*
X205819D01*
Y61523D01*
X205816Y61484D01*
X205807Y61446D01*
X205792Y61410D01*
X205771Y61376D01*
X205746Y61346D01*
X205716Y61321D01*
X205682Y61300D01*
X205646Y61285D01*
X205608Y61276D01*
X205568Y61273D01*
X202368D01*
X202329Y61276D01*
X202291Y61285D01*
X202255Y61300D01*
X202221Y61321D01*
X202191Y61346D01*
X202166Y61376D01*
X202145Y61410D01*
X202130Y61446D01*
X202121Y61484D01*
X202118Y61523D01*
Y71373D01*
X202121Y71413D01*
X202130Y71451D01*
X202145Y71487D01*
X202166Y71521D01*
X202191Y71551D01*
X202221Y71576D01*
X202255Y71597D01*
X202291Y71612D01*
X202329Y71621D01*
X202368Y71624D01*
X212168D01*
X212208Y71621D01*
D02*
G37*
G36*
X311608Y68521D02*
X311646Y68512D01*
X311682Y68497D01*
X311716Y68476D01*
X311746Y68451D01*
X311771Y68421D01*
X311792Y68387D01*
X311807Y68351D01*
X311816Y68313D01*
X311819Y68274D01*
Y65074D01*
X311816Y65034D01*
X311807Y64996D01*
X311792Y64960D01*
X311771Y64926D01*
X311746Y64896D01*
X311716Y64871D01*
X311682Y64850D01*
X311646Y64835D01*
X311608Y64826D01*
X311568Y64823D01*
X310219D01*
Y58373D01*
X310216Y58334D01*
X310207Y58296D01*
X310192Y58260D01*
X310171Y58226D01*
X310146Y58196D01*
X310116Y58171D01*
X310082Y58150D01*
X310046Y58135D01*
X310008Y58126D01*
X309968Y58123D01*
X306768D01*
X306729Y58126D01*
X306691Y58135D01*
X306655Y58150D01*
X306621Y58171D01*
X306591Y58196D01*
X306565Y58226D01*
X306545Y58260D01*
X306530Y58296D01*
X306521Y58334D01*
X306518Y58373D01*
Y68274D01*
X306521Y68313D01*
X306530Y68351D01*
X306545Y68387D01*
X306565Y68421D01*
X306591Y68451D01*
X306621Y68476D01*
X306655Y68497D01*
X306691Y68512D01*
X306729Y68521D01*
X306768Y68524D01*
X311568D01*
X311608Y68521D01*
D02*
G37*
G36*
X170108Y50721D02*
X170146Y50712D01*
X170182Y50697D01*
X170216Y50676D01*
X170246Y50651D01*
X170271Y50621D01*
X170292Y50587D01*
X170307Y50551D01*
X170316Y50513D01*
X170319Y50473D01*
Y44024D01*
X176868D01*
X176908Y44021D01*
X176946Y44012D01*
X176982Y43997D01*
X177016Y43976D01*
X177046Y43951D01*
X177071Y43921D01*
X177092Y43887D01*
X177107Y43851D01*
X177116Y43813D01*
X177119Y43773D01*
Y40573D01*
X177116Y40534D01*
X177107Y40496D01*
X177092Y40460D01*
X177071Y40426D01*
X177046Y40396D01*
X177016Y40371D01*
X176982Y40350D01*
X176946Y40335D01*
X176908Y40326D01*
X176868Y40323D01*
X166868D01*
X166829Y40326D01*
X166791Y40335D01*
X166754Y40350D01*
X166721Y40371D01*
X166691Y40396D01*
X166665Y40426D01*
X166645Y40460D01*
X166630Y40496D01*
X166621Y40534D01*
X166618Y40573D01*
Y50473D01*
X166621Y50513D01*
X166630Y50551D01*
X166645Y50587D01*
X166665Y50621D01*
X166691Y50651D01*
X166721Y50676D01*
X166754Y50697D01*
X166791Y50712D01*
X166829Y50721D01*
X166868Y50724D01*
X170068D01*
X170108Y50721D01*
D02*
G37*
G36*
X208808Y44021D02*
X208846Y44012D01*
X208882Y43997D01*
X208916Y43976D01*
X208946Y43951D01*
X208971Y43921D01*
X208992Y43887D01*
X209007Y43851D01*
X209016Y43813D01*
X209019Y43773D01*
Y34073D01*
X209016Y34034D01*
X209007Y33996D01*
X208992Y33960D01*
X208971Y33926D01*
X208946Y33896D01*
X208916Y33871D01*
X208882Y33850D01*
X208846Y33835D01*
X208808Y33826D01*
X208768Y33823D01*
X205568D01*
X205529Y33826D01*
X205491Y33835D01*
X205454Y33850D01*
X205421Y33871D01*
X205391Y33896D01*
X205365Y33926D01*
X205345Y33960D01*
X205330Y33996D01*
X205321Y34034D01*
X205318Y34073D01*
Y40323D01*
X198868D01*
X198829Y40326D01*
X198791Y40335D01*
X198755Y40350D01*
X198721Y40371D01*
X198691Y40396D01*
X198665Y40426D01*
X198645Y40460D01*
X198630Y40496D01*
X198621Y40534D01*
X198618Y40573D01*
Y43773D01*
X198621Y43813D01*
X198630Y43851D01*
X198645Y43887D01*
X198665Y43921D01*
X198691Y43951D01*
X198721Y43976D01*
X198755Y43997D01*
X198791Y44012D01*
X198829Y44021D01*
X198868Y44024D01*
X208768D01*
X208808Y44021D01*
D02*
G37*
G36*
X190008D02*
X190046Y44012D01*
X190082Y43997D01*
X190116Y43976D01*
X190146Y43951D01*
X190171Y43921D01*
X190192Y43887D01*
X190207Y43851D01*
X190216Y43813D01*
X190219Y43773D01*
Y40573D01*
X190216Y40534D01*
X190207Y40496D01*
X190192Y40460D01*
X190171Y40426D01*
X190146Y40396D01*
X190116Y40371D01*
X190082Y40350D01*
X190046Y40335D01*
X190008Y40326D01*
X189968Y40323D01*
X183519D01*
Y33874D01*
X183516Y33834D01*
X183507Y33796D01*
X183492Y33760D01*
X183471Y33726D01*
X183446Y33696D01*
X183416Y33671D01*
X183382Y33650D01*
X183346Y33635D01*
X183308Y33626D01*
X183268Y33623D01*
X180068D01*
X180029Y33626D01*
X179991Y33635D01*
X179955Y33650D01*
X179921Y33671D01*
X179891Y33696D01*
X179866Y33726D01*
X179845Y33760D01*
X179830Y33796D01*
X179821Y33834D01*
X179818Y33874D01*
Y43773D01*
X179821Y43813D01*
X179830Y43851D01*
X179845Y43887D01*
X179866Y43921D01*
X179891Y43951D01*
X179921Y43976D01*
X179955Y43997D01*
X179991Y44012D01*
X180029Y44021D01*
X180068Y44024D01*
X189968D01*
X190008Y44021D01*
D02*
G37*
G36*
X310008Y23971D02*
X310046Y23962D01*
X310082Y23947D01*
X310116Y23926D01*
X310146Y23901D01*
X310171Y23871D01*
X310192Y23837D01*
X310207Y23801D01*
X310216Y23763D01*
X310219Y23723D01*
Y13873D01*
X310216Y13834D01*
X310207Y13796D01*
X310192Y13760D01*
X310171Y13726D01*
X310146Y13696D01*
X310116Y13671D01*
X310082Y13650D01*
X310046Y13635D01*
X310008Y13626D01*
X309968Y13623D01*
X300168D01*
X300129Y13626D01*
X300091Y13635D01*
X300055Y13650D01*
X300021Y13671D01*
X299991Y13696D01*
X299966Y13726D01*
X299945Y13760D01*
X299930Y13796D01*
X299921Y13834D01*
X299918Y13873D01*
Y17074D01*
X299921Y17113D01*
X299930Y17151D01*
X299945Y17187D01*
X299966Y17221D01*
X299991Y17251D01*
X300021Y17276D01*
X300055Y17297D01*
X300091Y17312D01*
X300129Y17321D01*
X300168Y17324D01*
X306518D01*
Y23723D01*
X306521Y23763D01*
X306530Y23801D01*
X306545Y23837D01*
X306565Y23871D01*
X306591Y23901D01*
X306621Y23926D01*
X306655Y23947D01*
X306691Y23962D01*
X306729Y23971D01*
X306768Y23974D01*
X309968D01*
X310008Y23971D01*
D02*
G37*
G36*
X208808Y24021D02*
X208846Y24012D01*
X208882Y23997D01*
X208916Y23976D01*
X208946Y23951D01*
X208971Y23921D01*
X208992Y23887D01*
X209007Y23851D01*
X209016Y23813D01*
X209019Y23774D01*
Y17324D01*
X215468D01*
X215508Y17321D01*
X215546Y17312D01*
X215582Y17297D01*
X215616Y17276D01*
X215646Y17251D01*
X215671Y17221D01*
X215692Y17187D01*
X215707Y17151D01*
X215716Y17113D01*
X215719Y17074D01*
Y13873D01*
X215716Y13834D01*
X215707Y13796D01*
X215692Y13760D01*
X215671Y13726D01*
X215646Y13696D01*
X215616Y13671D01*
X215582Y13650D01*
X215546Y13635D01*
X215508Y13626D01*
X215468Y13623D01*
X198868D01*
X198829Y13626D01*
X198791Y13635D01*
X198755Y13650D01*
X198721Y13671D01*
X198691Y13696D01*
X198665Y13726D01*
X198645Y13760D01*
X198630Y13796D01*
X198621Y13834D01*
X198618Y13873D01*
Y17074D01*
X198621Y17113D01*
X198630Y17151D01*
X198645Y17187D01*
X198665Y17221D01*
X198691Y17251D01*
X198721Y17276D01*
X198755Y17297D01*
X198791Y17312D01*
X198829Y17321D01*
X198868Y17324D01*
X205318D01*
Y23774D01*
X205321Y23813D01*
X205330Y23851D01*
X205345Y23887D01*
X205365Y23921D01*
X205391Y23951D01*
X205421Y23976D01*
X205454Y23997D01*
X205491Y24012D01*
X205529Y24021D01*
X205568Y24024D01*
X208768D01*
X208808Y24021D01*
D02*
G37*
G36*
X183308D02*
X183346Y24012D01*
X183382Y23997D01*
X183416Y23976D01*
X183446Y23951D01*
X183471Y23921D01*
X183492Y23887D01*
X183507Y23851D01*
X183516Y23813D01*
X183519Y23774D01*
Y17324D01*
X189968D01*
X190008Y17321D01*
X190046Y17312D01*
X190082Y17297D01*
X190116Y17276D01*
X190146Y17251D01*
X190171Y17221D01*
X190192Y17187D01*
X190207Y17151D01*
X190216Y17113D01*
X190219Y17074D01*
Y13873D01*
X190216Y13834D01*
X190207Y13796D01*
X190192Y13760D01*
X190171Y13726D01*
X190146Y13696D01*
X190116Y13671D01*
X190082Y13650D01*
X190046Y13635D01*
X190008Y13626D01*
X189968Y13623D01*
X180068D01*
X180029Y13626D01*
X179991Y13635D01*
X179955Y13650D01*
X179921Y13671D01*
X179891Y13696D01*
X179866Y13726D01*
X179845Y13760D01*
X179830Y13796D01*
X179821Y13834D01*
X179818Y13873D01*
Y23774D01*
X179821Y23813D01*
X179830Y23851D01*
X179845Y23887D01*
X179866Y23921D01*
X179891Y23951D01*
X179921Y23976D01*
X179955Y23997D01*
X179991Y24012D01*
X180029Y24021D01*
X180068Y24024D01*
X183268D01*
X183308Y24021D01*
D02*
G37*
G54D16*
X354329Y0D02*
Y196851D01*
X0Y0D02*
X354329D01*
X0Y196851D02*
X354329D01*
X0Y0D02*
Y196851D01*
G54D95*
X114295Y116851D02*
D03*
Y106851D02*
D03*
X281033Y186921D02*
D03*
X291033D02*
D03*
X301033D02*
D03*
X311033D02*
D03*
X271033D02*
D03*
X200858Y176921D02*
D03*
Y186921D02*
D03*
X190858Y176921D02*
D03*
Y186921D02*
D03*
X180858Y176921D02*
D03*
Y186921D02*
D03*
X170858Y176921D02*
D03*
Y186921D02*
D03*
X160858Y176921D02*
D03*
Y186921D02*
D03*
X150858Y176921D02*
D03*
Y186921D02*
D03*
X140858Y176921D02*
D03*
X255995D02*
D03*
Y186921D02*
D03*
X245995Y176921D02*
D03*
Y186921D02*
D03*
X235995Y176921D02*
D03*
Y186921D02*
D03*
X225995Y176921D02*
D03*
Y186921D02*
D03*
X215995Y176921D02*
D03*
X88584Y139916D02*
D03*
X78584D02*
D03*
X251531Y153197D02*
D03*
X241531D02*
D03*
X251531Y139439D02*
D03*
X241531D02*
D03*
X158505Y112055D02*
D03*
Y122055D02*
D03*
X177304Y145831D02*
D03*
X167304D02*
D03*
G54D96*
X140858Y186921D02*
D03*
X215995D02*
D03*
G54D97*
X38582Y157451D02*
D03*
X58582D02*
D03*
X78582D02*
D03*
G54D98*
X11811Y11811D02*
D03*
X11811Y185040D02*
D03*
X342518D02*
D03*
X342518Y11811D02*
D03*
G54D99*
X162882Y100739D02*
D03*
Y91140D02*
D03*
G54D100*
X221868Y15473D02*
D03*
X233768D02*
D03*
X222168Y69774D02*
D03*
X185568Y129574D02*
D03*
X197568D02*
D03*
X245768Y15473D02*
D03*
X257768D02*
D03*
X269768D02*
D03*
X281768D02*
D03*
X293768D02*
D03*
X234168Y69774D02*
D03*
X246168D02*
D03*
X258168D02*
D03*
X293568Y93173D02*
D03*
X305568D02*
D03*
X209568Y129574D02*
D03*
X221568D02*
D03*
X233568D02*
D03*
X245568D02*
D03*
X257568D02*
D03*
X269568D02*
D03*
X281568D02*
D03*
X293568D02*
D03*
X305568D02*
D03*
G54D101*
X203968Y52473D02*
D03*
X168468Y61974D02*
D03*
Y73974D02*
D03*
Y85974D02*
D03*
Y97974D02*
D03*
Y109974D02*
D03*
X308368Y35074D02*
D03*
Y47074D02*
D03*
X322768Y81073D02*
D03*
Y111373D02*
D03*
G54D102*
X203968Y69774D02*
D03*
X181668Y15473D02*
D03*
X308368D02*
D03*
Y66673D02*
D03*
X322768D02*
D03*
X168468Y129574D02*
D03*
X322768D02*
D03*
X168468Y42173D02*
D03*
X181668D02*
D03*
X207168D02*
D03*
Y15473D02*
D03*
X276368Y69774D02*
D03*
Y93173D02*
D03*
X322768D02*
D03*
G54D103*
X201904Y31497D02*
D03*
Y22836D02*
D03*
X195605D02*
D03*
Y31497D02*
D03*
G54D104*
X283012Y80097D02*
D03*
G54D105*
X287343D02*
D03*
X290492D02*
D03*
X297185D02*
D03*
X300335D02*
D03*
X303484D02*
D03*
Y58837D02*
D03*
X285295D02*
D03*
X288327D02*
D03*
X291398D02*
D03*
X294429D02*
D03*
X297500D02*
D03*
X300532D02*
D03*
G54D106*
X293642Y79309D02*
D03*
X282224Y59624D02*
D03*
G54D107*
X303484Y63364D02*
D03*
X300532D02*
D03*
X297500D02*
D03*
X294429D02*
D03*
X291398D02*
D03*
X288327D02*
D03*
X285295D02*
D03*
X282224Y66711D02*
D03*
X285295D02*
D03*
X288327D02*
D03*
X291398D02*
D03*
X294429D02*
D03*
X297500D02*
D03*
X300532D02*
D03*
X303484D02*
D03*
G54D108*
X292618Y72419D02*
D03*
G54D109*
X226128Y56849D02*
D03*
X228096D02*
D03*
X230065D02*
D03*
X232033D02*
D03*
X234002D02*
D03*
X235970D02*
D03*
X237939D02*
D03*
X239907D02*
D03*
X241876D02*
D03*
X243844D02*
D03*
X245813D02*
D03*
X247781D02*
D03*
Y29684D02*
D03*
X245813D02*
D03*
X243844D02*
D03*
X241876D02*
D03*
X239907D02*
D03*
X237939D02*
D03*
X235970D02*
D03*
X234002D02*
D03*
X232033D02*
D03*
X230065D02*
D03*
X228096D02*
D03*
X226128D02*
D03*
G54D110*
X250537Y54093D02*
D03*
Y52125D02*
D03*
Y50156D02*
D03*
Y48188D02*
D03*
Y46219D02*
D03*
Y44251D02*
D03*
Y42282D02*
D03*
Y40314D02*
D03*
Y38345D02*
D03*
Y36377D02*
D03*
Y34408D02*
D03*
Y32440D02*
D03*
X223372D02*
D03*
Y34408D02*
D03*
Y36377D02*
D03*
Y38345D02*
D03*
Y40314D02*
D03*
Y42282D02*
D03*
Y44251D02*
D03*
Y46219D02*
D03*
Y48188D02*
D03*
Y50156D02*
D03*
Y52125D02*
D03*
Y54093D02*
D03*
G54D111*
X236954Y43266D02*
D03*
G54D112*
X282968Y46066D02*
D03*
Y36066D02*
D03*
Y27966D02*
D03*
G54D113*
X280054Y44275D02*
D03*
Y47858D02*
D03*
Y34275D02*
D03*
Y37858D02*
D03*
Y26175D02*
D03*
Y29758D02*
D03*
G54D114*
X277151Y44275D02*
D03*
Y47858D02*
D03*
Y34275D02*
D03*
Y37858D02*
D03*
Y26175D02*
D03*
Y29758D02*
D03*
G54D115*
X289142Y35067D02*
D03*
Y38217D02*
D03*
Y41366D02*
D03*
Y44516D02*
D03*
Y47666D02*
D03*
X300166D02*
D03*
Y44516D02*
D03*
Y41366D02*
D03*
Y38217D02*
D03*
Y35067D02*
D03*
G54D116*
X294654Y49241D02*
D03*
Y33492D02*
D03*
G54D117*
Y44221D02*
D03*
Y38512D02*
D03*
G54D118*
X280432Y125640D02*
D03*
Y97293D02*
D03*
X283581Y113041D02*
D03*
Y109892D02*
D03*
X286731Y119341D02*
D03*
Y116191D02*
D03*
Y113041D02*
D03*
Y109892D02*
D03*
Y106742D02*
D03*
Y103593D02*
D03*
X289880Y122490D02*
D03*
Y119341D02*
D03*
Y116191D02*
D03*
Y113041D02*
D03*
Y109892D02*
D03*
Y106742D02*
D03*
Y103593D02*
D03*
Y100443D02*
D03*
X293030Y122490D02*
D03*
Y119341D02*
D03*
Y116191D02*
D03*
Y113041D02*
D03*
Y109892D02*
D03*
Y106742D02*
D03*
Y103593D02*
D03*
Y100443D02*
D03*
X296180Y122490D02*
D03*
Y119341D02*
D03*
Y116191D02*
D03*
Y106742D02*
D03*
Y103593D02*
D03*
Y100443D02*
D03*
X299329Y122490D02*
D03*
Y119341D02*
D03*
Y116191D02*
D03*
Y106742D02*
D03*
Y103593D02*
D03*
Y100443D02*
D03*
X302479Y122490D02*
D03*
Y119341D02*
D03*
Y116191D02*
D03*
Y113041D02*
D03*
Y109892D02*
D03*
Y106742D02*
D03*
Y103593D02*
D03*
Y100443D02*
D03*
X305628Y122490D02*
D03*
Y119341D02*
D03*
Y116191D02*
D03*
Y113041D02*
D03*
Y109892D02*
D03*
Y106742D02*
D03*
Y103593D02*
D03*
Y100443D02*
D03*
X308778Y119341D02*
D03*
Y116191D02*
D03*
Y113041D02*
D03*
Y109892D02*
D03*
Y106742D02*
D03*
Y103593D02*
D03*
X311928Y113041D02*
D03*
Y109892D02*
D03*
X315077Y125640D02*
D03*
Y97293D02*
D03*
G54D119*
X184381Y106040D02*
D03*
Y102890D02*
D03*
Y99741D02*
D03*
Y96591D02*
D03*
Y93441D02*
D03*
Y90292D02*
D03*
Y87142D02*
D03*
Y83992D02*
D03*
Y80843D02*
D03*
Y77693D02*
D03*
X187531Y106040D02*
D03*
Y102890D02*
D03*
Y99741D02*
D03*
Y96591D02*
D03*
Y93441D02*
D03*
Y90292D02*
D03*
Y87142D02*
D03*
Y83992D02*
D03*
Y80843D02*
D03*
Y77693D02*
D03*
X190680Y106040D02*
D03*
Y102890D02*
D03*
Y99741D02*
D03*
Y96591D02*
D03*
Y93441D02*
D03*
Y90292D02*
D03*
Y87142D02*
D03*
Y83992D02*
D03*
Y80843D02*
D03*
Y77693D02*
D03*
X193830Y106040D02*
D03*
Y102890D02*
D03*
Y99741D02*
D03*
Y96591D02*
D03*
Y93441D02*
D03*
Y90292D02*
D03*
Y87142D02*
D03*
Y83992D02*
D03*
Y80843D02*
D03*
Y77693D02*
D03*
X196979Y106040D02*
D03*
Y102890D02*
D03*
Y99741D02*
D03*
Y96591D02*
D03*
Y93441D02*
D03*
Y90292D02*
D03*
Y87142D02*
D03*
Y83992D02*
D03*
Y80843D02*
D03*
Y77693D02*
D03*
X200129Y106040D02*
D03*
Y102890D02*
D03*
Y99741D02*
D03*
Y96591D02*
D03*
Y93441D02*
D03*
Y90292D02*
D03*
Y87142D02*
D03*
Y83992D02*
D03*
Y80843D02*
D03*
Y77693D02*
D03*
X203279Y106040D02*
D03*
Y102890D02*
D03*
Y99741D02*
D03*
Y96591D02*
D03*
Y93441D02*
D03*
Y90292D02*
D03*
Y87142D02*
D03*
Y83992D02*
D03*
Y80843D02*
D03*
Y77693D02*
D03*
X206428Y106040D02*
D03*
Y102890D02*
D03*
Y99741D02*
D03*
Y96591D02*
D03*
Y93441D02*
D03*
Y90292D02*
D03*
Y87142D02*
D03*
Y83992D02*
D03*
Y80843D02*
D03*
Y77693D02*
D03*
X209578Y106040D02*
D03*
Y102890D02*
D03*
Y99741D02*
D03*
Y96591D02*
D03*
Y93441D02*
D03*
Y90292D02*
D03*
Y87142D02*
D03*
Y83992D02*
D03*
Y80843D02*
D03*
Y77693D02*
D03*
X212728Y106040D02*
D03*
Y102890D02*
D03*
Y99741D02*
D03*
Y96591D02*
D03*
Y93441D02*
D03*
Y90292D02*
D03*
Y87142D02*
D03*
Y83992D02*
D03*
Y80843D02*
D03*
Y77693D02*
D03*
X267677Y118539D02*
D03*
X264528D02*
D03*
X261378D02*
D03*
X258228D02*
D03*
X255079D02*
D03*
X251929D02*
D03*
X248780D02*
D03*
X245630D02*
D03*
X242480D02*
D03*
X239331D02*
D03*
X236181D02*
D03*
X233032D02*
D03*
X229882D02*
D03*
X270827Y115389D02*
D03*
X267677D02*
D03*
X264528D02*
D03*
X261378D02*
D03*
X258228D02*
D03*
X255079D02*
D03*
X251929D02*
D03*
X248780D02*
D03*
X245630D02*
D03*
X242480D02*
D03*
X239331D02*
D03*
X236181D02*
D03*
X233032D02*
D03*
X229882D02*
D03*
X270827Y112240D02*
D03*
X267677D02*
D03*
X264528D02*
D03*
X261378D02*
D03*
X258228D02*
D03*
X255079D02*
D03*
X251929D02*
D03*
X248780D02*
D03*
X245630D02*
D03*
X242480D02*
D03*
X239331D02*
D03*
X236181D02*
D03*
X233032D02*
D03*
X229882D02*
D03*
X270827Y109090D02*
D03*
X267677D02*
D03*
X264528D02*
D03*
X261378D02*
D03*
X258228D02*
D03*
X255079D02*
D03*
X251929D02*
D03*
X248780D02*
D03*
X245630D02*
D03*
X242480D02*
D03*
X239331D02*
D03*
X236181D02*
D03*
X233032D02*
D03*
X229882D02*
D03*
X270827Y105941D02*
D03*
X267677D02*
D03*
X264528D02*
D03*
X261378D02*
D03*
X258228D02*
D03*
X255079D02*
D03*
X251929D02*
D03*
X248780D02*
D03*
X245630D02*
D03*
X242480D02*
D03*
X239331D02*
D03*
X236181D02*
D03*
X233032D02*
D03*
X229882D02*
D03*
X270827Y102791D02*
D03*
X267677D02*
D03*
X264528D02*
D03*
X261378D02*
D03*
X258228D02*
D03*
X242480D02*
D03*
X239331D02*
D03*
X236181D02*
D03*
X233032D02*
D03*
X229882D02*
D03*
X270827Y99641D02*
D03*
X267677D02*
D03*
X264528D02*
D03*
X261378D02*
D03*
X258228D02*
D03*
X242480D02*
D03*
X239331D02*
D03*
X236181D02*
D03*
X233032D02*
D03*
X229882D02*
D03*
X270827Y96492D02*
D03*
X267677D02*
D03*
X264528D02*
D03*
X261378D02*
D03*
X258228D02*
D03*
X242480D02*
D03*
X239331D02*
D03*
X236181D02*
D03*
X233032D02*
D03*
X229882D02*
D03*
X270827Y93342D02*
D03*
X267677D02*
D03*
X264528D02*
D03*
X261378D02*
D03*
X258228D02*
D03*
X242480D02*
D03*
X239331D02*
D03*
X236181D02*
D03*
X233032D02*
D03*
X229882D02*
D03*
X270827Y90193D02*
D03*
X267677D02*
D03*
X264528D02*
D03*
X261378D02*
D03*
X258228D02*
D03*
X255079D02*
D03*
X251929D02*
D03*
X248780D02*
D03*
X245630D02*
D03*
X242480D02*
D03*
X239331D02*
D03*
X236181D02*
D03*
X233032D02*
D03*
X229882D02*
D03*
X270827Y87043D02*
D03*
X267677D02*
D03*
X264528D02*
D03*
X261378D02*
D03*
X258228D02*
D03*
X255079D02*
D03*
X251929D02*
D03*
X248780D02*
D03*
X245630D02*
D03*
X242480D02*
D03*
X239331D02*
D03*
X236181D02*
D03*
X233032D02*
D03*
X229882D02*
D03*
X270827Y83893D02*
D03*
X267677D02*
D03*
X264528D02*
D03*
X261378D02*
D03*
X258228D02*
D03*
X255079D02*
D03*
X251929D02*
D03*
X248780D02*
D03*
X245630D02*
D03*
X242480D02*
D03*
X239331D02*
D03*
X236181D02*
D03*
X233032D02*
D03*
X229882D02*
D03*
X270827Y80744D02*
D03*
X267677D02*
D03*
X264528D02*
D03*
X261378D02*
D03*
X258228D02*
D03*
X255079D02*
D03*
X251929D02*
D03*
X248780D02*
D03*
X245630D02*
D03*
X242480D02*
D03*
X239331D02*
D03*
X236181D02*
D03*
X233032D02*
D03*
X229882D02*
D03*
X270827Y77594D02*
D03*
X267677D02*
D03*
X264528D02*
D03*
X261378D02*
D03*
X258228D02*
D03*
X255079D02*
D03*
X251929D02*
D03*
X248780D02*
D03*
X245630D02*
D03*
X242480D02*
D03*
X239331D02*
D03*
X236181D02*
D03*
X233032D02*
D03*
X229882D02*
D03*
G54D120*
X318454Y80167D02*
D03*
X315054D02*
D03*
X261454Y124767D02*
D03*
X264854D02*
D03*
X262454Y65566D02*
D03*
X265854D02*
D03*
X220854Y86766D02*
D03*
X224254D02*
D03*
X220854Y91466D02*
D03*
X224254D02*
D03*
X220854Y76467D02*
D03*
X224254D02*
D03*
X220754Y124667D02*
D03*
X224154D02*
D03*
X199354Y37067D02*
D03*
X202754D02*
D03*
X176054Y93866D02*
D03*
X172654D02*
D03*
X177554Y54667D02*
D03*
X180954D02*
D03*
X220854Y97966D02*
D03*
X224254D02*
D03*
X176054Y89767D02*
D03*
X172654D02*
D03*
X176154Y74766D02*
D03*
X172754D02*
D03*
X239854Y124767D02*
D03*
X243254D02*
D03*
X231954Y23666D02*
D03*
X235354D02*
D03*
X239654Y24466D02*
D03*
X243054D02*
D03*
X262654Y55167D02*
D03*
X266054D02*
D03*
X262654Y51467D02*
D03*
X266054D02*
D03*
X262654Y45066D02*
D03*
X266054D02*
D03*
X262654Y41366D02*
D03*
X266054D02*
D03*
X262654Y34866D02*
D03*
X266054D02*
D03*
X262654Y31266D02*
D03*
X266054D02*
D03*
X290554Y54167D02*
D03*
X293954D02*
D03*
X297354D02*
D03*
X300754D02*
D03*
X283754D02*
D03*
X287154D02*
D03*
X235354Y20467D02*
D03*
X231954D02*
D03*
X215654Y48066D02*
D03*
X219054D02*
D03*
X258154Y48267D02*
D03*
X261554D02*
D03*
X215654Y44866D02*
D03*
X219054D02*
D03*
X215654Y41666D02*
D03*
X219054D02*
D03*
X258154Y38166D02*
D03*
X261554D02*
D03*
X243054Y20066D02*
D03*
X239654D02*
D03*
X249854Y24466D02*
D03*
X246454D02*
D03*
X282554Y40966D02*
D03*
X279154D02*
D03*
Y54167D02*
D03*
X275754D02*
D03*
X254754Y124767D02*
D03*
X258154D02*
D03*
X271654D02*
D03*
X268254D02*
D03*
X220854Y94666D02*
D03*
X224254D02*
D03*
X186354Y29366D02*
D03*
X189754D02*
D03*
X215654Y52767D02*
D03*
X219054D02*
D03*
X215654Y55967D02*
D03*
X219054D02*
D03*
X224154Y121066D02*
D03*
X220754D02*
D03*
X176054Y108967D02*
D03*
X172654D02*
D03*
X176054Y105266D02*
D03*
X172654D02*
D03*
X224259Y102237D02*
D03*
X220859D02*
D03*
X234154Y124467D02*
D03*
X230754D02*
D03*
X224254Y83566D02*
D03*
X220854D02*
D03*
X251354Y124767D02*
D03*
X247954D02*
D03*
X172754Y71566D02*
D03*
X176154D02*
D03*
X177502Y157718D02*
D03*
X174102D02*
D03*
X146454Y111851D02*
D03*
X143054D02*
D03*
X146482Y106737D02*
D03*
X143082D02*
D03*
X134581Y126218D02*
D03*
X131181D02*
D03*
X133149Y103315D02*
D03*
X136549D02*
D03*
X132881Y120387D02*
D03*
X136281D02*
D03*
X313254Y40988D02*
D03*
X316654D02*
D03*
X168702Y157718D02*
D03*
X165302D02*
D03*
X186502Y157718D02*
D03*
X183102D02*
D03*
X143117Y116820D02*
D03*
X146517D02*
D03*
G54D121*
X292354Y85066D02*
D03*
Y88467D02*
D03*
X289154D02*
D03*
Y85066D02*
D03*
X227454Y65066D02*
D03*
Y61667D02*
D03*
X290354Y21666D02*
D03*
Y25067D02*
D03*
X302354D02*
D03*
Y21666D02*
D03*
X261654Y23866D02*
D03*
Y20467D02*
D03*
X186254Y36066D02*
D03*
Y32667D02*
D03*
X172554Y97767D02*
D03*
Y101166D02*
D03*
X304054Y54066D02*
D03*
Y50666D02*
D03*
Y43867D02*
D03*
Y47267D02*
D03*
X277454Y59667D02*
D03*
Y63067D02*
D03*
X285954Y85066D02*
D03*
Y88467D02*
D03*
X301954Y85066D02*
D03*
Y88467D02*
D03*
X298754Y85066D02*
D03*
Y88467D02*
D03*
X295554Y85066D02*
D03*
Y88467D02*
D03*
X316754Y76867D02*
D03*
Y73466D02*
D03*
X249854Y61667D02*
D03*
Y65066D02*
D03*
X246654Y61667D02*
D03*
Y65066D02*
D03*
X243454Y61667D02*
D03*
Y65066D02*
D03*
X240254Y61667D02*
D03*
Y65066D02*
D03*
X237054Y61667D02*
D03*
Y65066D02*
D03*
X233854Y61667D02*
D03*
Y65066D02*
D03*
X230654Y61667D02*
D03*
Y65066D02*
D03*
X257154Y25866D02*
D03*
Y22467D02*
D03*
X217154Y20166D02*
D03*
Y23566D02*
D03*
X227454Y20666D02*
D03*
Y24067D02*
D03*
X223554Y20166D02*
D03*
Y23566D02*
D03*
X220354Y20166D02*
D03*
Y23566D02*
D03*
X258054Y54966D02*
D03*
Y51566D02*
D03*
Y44967D02*
D03*
Y41567D02*
D03*
Y31367D02*
D03*
Y34767D02*
D03*
X271754Y51166D02*
D03*
Y47767D02*
D03*
Y41166D02*
D03*
Y37767D02*
D03*
Y32067D02*
D03*
Y28666D02*
D03*
X304054Y33566D02*
D03*
Y30167D02*
D03*
X176154Y97767D02*
D03*
Y101166D02*
D03*
X189854Y36066D02*
D03*
Y32667D02*
D03*
X217654Y121167D02*
D03*
Y124566D02*
D03*
X217454Y117766D02*
D03*
Y114366D02*
D03*
X221954Y114166D02*
D03*
Y117567D02*
D03*
X265749Y139052D02*
D03*
Y142453D02*
D03*
X190198Y163433D02*
D03*
Y166833D02*
D03*
X195528Y163433D02*
D03*
Y166833D02*
D03*
X200859Y156667D02*
D03*
Y153267D02*
D03*
Y163433D02*
D03*
Y166833D02*
D03*
X184867Y163433D02*
D03*
Y166833D02*
D03*
X255995Y166834D02*
D03*
Y163434D02*
D03*
X281033Y176834D02*
D03*
Y173434D02*
D03*
X301033Y176834D02*
D03*
Y173434D02*
D03*
X311033Y176834D02*
D03*
Y173434D02*
D03*
X234902Y166834D02*
D03*
Y163434D02*
D03*
X250964Y166834D02*
D03*
Y163434D02*
D03*
X239933Y166834D02*
D03*
Y163434D02*
D03*
X108794Y185920D02*
D03*
Y189320D02*
D03*
Y180320D02*
D03*
Y176920D02*
D03*
X163503Y23976D02*
D03*
Y20576D02*
D03*
X125145Y109883D02*
D03*
Y113283D02*
D03*
X125279Y120387D02*
D03*
Y123787D02*
D03*
X125145Y103315D02*
D03*
Y99915D02*
D03*
X168702Y163370D02*
D03*
Y166770D02*
D03*
X163302D02*
D03*
Y163370D02*
D03*
X179502D02*
D03*
Y166770D02*
D03*
X174102D02*
D03*
Y163370D02*
D03*
G54D122*
X280435Y84896D02*
D03*
X283073D02*
D03*
Y88637D02*
D03*
X280435D02*
D03*
G54D123*
X308284Y74385D02*
D03*
Y71748D02*
D03*
X312024D02*
D03*
Y74385D02*
D03*
G54D124*
X196407Y50206D02*
D03*
X194439D02*
D03*
X192470D02*
D03*
X190502D02*
D03*
Y55127D02*
D03*
X192470D02*
D03*
X194439D02*
D03*
X196407D02*
D03*
Y62806D02*
D03*
X194439D02*
D03*
X192470D02*
D03*
X190502D02*
D03*
Y67727D02*
D03*
X192470D02*
D03*
X194439D02*
D03*
X196407D02*
D03*
G54D125*
X265746Y20098D02*
D03*
Y24035D02*
D03*
X271362Y22066D02*
D03*
G54D126*
X298323Y20515D02*
D03*
X296354D02*
D03*
X294386D02*
D03*
Y26618D02*
D03*
X296354D02*
D03*
X298323D02*
D03*
G54D127*
X189554Y25916D02*
D03*
Y20216D02*
D03*
G54D128*
X216754Y63367D02*
D03*
X223154D02*
D03*
X198854Y116466D02*
D03*
X192454D02*
D03*
X211054Y116367D02*
D03*
X204654D02*
D03*
G54D129*
X307542Y87067D02*
D03*
X316566D02*
D03*
G54D130*
X191923Y58867D02*
D03*
X187985D02*
D03*
X194785D02*
D03*
X198723D02*
D03*
G54D131*
X178349Y125054D02*
D03*
X172949D02*
D03*
G54D132*
X174654Y85966D02*
D03*
Y80567D02*
D03*
G54D133*
X183649Y117353D02*
D03*
Y123753D02*
D03*
X173804Y113567D02*
D03*
Y119966D02*
D03*
X209954Y63666D02*
D03*
Y57266D02*
D03*
G54D134*
X212959Y121606D02*
D03*
Y125670D02*
D03*
G54D135*
X191696Y122161D02*
D03*
Y125113D02*
D03*
G54D136*
X132612Y113820D02*
D03*
Y109883D02*
D03*
X134581Y113820D02*
D03*
Y111851D02*
D03*
Y109883D02*
D03*
X136549Y113820D02*
D03*
Y111851D02*
D03*
Y109883D02*
D03*
G54D137*
X200544Y145408D02*
D03*
Y141471D02*
D03*
X195032Y143439D02*
D03*
G54D138*
X96240Y174781D02*
D03*
Y177340D02*
D03*
Y179899D02*
D03*
X102933D02*
D03*
Y177340D02*
D03*
Y174781D02*
D03*
G54D139*
X152701Y133608D02*
D03*
Y164907D02*
D03*
X134984Y133608D02*
D03*
Y164907D02*
D03*
X102933D02*
D03*
Y133608D02*
D03*
X120650Y164907D02*
D03*
Y133608D02*
D03*
G54D140*
X338672Y40988D02*
D03*
G54D141*
X349498Y51814D02*
D03*
X327845D02*
D03*
Y30161D02*
D03*
X349498D02*
D03*
G54D142*
X154868Y23976D02*
D03*
Y33976D02*
D03*
Y43976D02*
D03*
Y53976D02*
D03*
X57230Y23976D02*
D03*
Y33976D02*
D03*
Y43976D02*
D03*
Y53976D02*
D03*
G54D143*
X195032Y157136D02*
D03*
Y150443D02*
D03*
G54D144*
X218660Y136977D02*
D03*
Y160599D02*
D03*
G54D145*
X119489Y185242D02*
D03*
Y183273D02*
D03*
Y181305D02*
D03*
Y179336D02*
D03*
X114568D02*
D03*
Y181305D02*
D03*
Y183273D02*
D03*
Y185242D02*
D03*
M02*
