G04 Layer_Color=128*
%FSLAX25Y25*%
%MOIN*%
G70*
G01*
G75*
%ADD16C,0.00787*%
%ADD152C,0.00200*%
G54D16*
X354329Y0D02*
Y196851D01*
X0Y0D02*
X354329D01*
X0Y196851D02*
X354329D01*
X0Y0D02*
Y196851D01*
G54D152*
X294259Y98239D02*
X294659D01*
X294459Y98039D02*
Y98439D01*
X282788Y124747D02*
X283188D01*
X282988Y124547D02*
Y124947D01*
X265921Y78838D02*
X266321D01*
X266121Y78638D02*
Y79038D01*
X262759Y88138D02*
X263159D01*
X262959Y87937D02*
Y88337D01*
X244062Y99567D02*
X244462D01*
X244263Y99366D02*
Y99766D01*
X238759Y86838D02*
X239159D01*
X238959Y86638D02*
Y87037D01*
X243276Y81988D02*
X243676D01*
X243476Y81788D02*
Y82188D01*
X248662Y123038D02*
X249062D01*
X248862Y122837D02*
Y123238D01*
X249209Y114437D02*
X249609D01*
X249409Y114237D02*
Y114637D01*
X247871Y111637D02*
X248271D01*
X248071Y111437D02*
Y111837D01*
X241271Y115538D02*
X241671D01*
X241471Y115338D02*
Y115738D01*
X244716Y116523D02*
X245116D01*
X244916Y116323D02*
Y116723D01*
X247653Y109929D02*
X248053D01*
X247853Y109729D02*
Y110129D01*
X204971Y88238D02*
X205371D01*
X205171Y88038D02*
Y88437D01*
X203759Y124838D02*
X204159D01*
X203959Y124637D02*
Y125038D01*
X249559Y95237D02*
X249959D01*
X249759Y95038D02*
Y95438D01*
X256759Y62037D02*
X257159D01*
X256959Y61838D02*
Y62238D01*
X249359Y62037D02*
X249759D01*
X249559Y61838D02*
Y62238D01*
X298359Y21837D02*
X298759D01*
X298559Y21637D02*
Y22038D01*
X175159Y58837D02*
X175559D01*
X175359Y58637D02*
Y59038D01*
X175159Y62037D02*
X175559D01*
X175359Y61838D02*
Y62238D01*
X175159Y65237D02*
X175559D01*
X175359Y65038D02*
Y65438D01*
X175159Y63638D02*
X175559D01*
X175359Y63437D02*
Y63837D01*
X175159Y70038D02*
X175559D01*
X175359Y69837D02*
Y70237D01*
X175159Y68437D02*
X175559D01*
X175359Y68238D02*
Y68638D01*
X175159Y73238D02*
X175559D01*
X175359Y73037D02*
Y73438D01*
X175159Y76437D02*
X175559D01*
X175359Y76237D02*
Y76638D01*
X175159Y78038D02*
X175559D01*
X175359Y77838D02*
Y78237D01*
X175159Y81238D02*
X175559D01*
X175359Y81037D02*
Y81437D01*
X175159Y82837D02*
X175559D01*
X175359Y82638D02*
Y83038D01*
X173559Y84438D02*
X173959D01*
X173759Y84237D02*
Y84637D01*
X203971Y52438D02*
X204371D01*
X204171Y52237D02*
Y52637D01*
X203971Y54037D02*
X204371D01*
X204171Y53838D02*
Y54238D01*
X203971Y57237D02*
X204371D01*
X204171Y57038D02*
Y57437D01*
X203971Y58837D02*
X204371D01*
X204171Y58637D02*
Y59038D01*
X197559Y42838D02*
X197959D01*
X197759Y42638D02*
Y43038D01*
X200759Y47638D02*
X201159D01*
X200959Y47438D02*
Y47837D01*
X200759Y49237D02*
X201159D01*
X200959Y49038D02*
Y49437D01*
X200759Y52438D02*
X201159D01*
X200959Y52237D02*
Y52637D01*
X200759Y54037D02*
X201159D01*
X200959Y53838D02*
Y54238D01*
X200759Y57237D02*
X201159D01*
X200959Y57038D02*
Y57437D01*
X200759Y58837D02*
X201159D01*
X200959Y58637D02*
Y59038D01*
X200771Y62037D02*
X201171D01*
X200971Y61838D02*
Y62238D01*
X195959Y38037D02*
X196359D01*
X196159Y37837D02*
Y38238D01*
X195959Y39638D02*
X196359D01*
X196159Y39437D02*
Y39838D01*
X195959Y41238D02*
X196359D01*
X196159Y41037D02*
Y41438D01*
X195959Y42838D02*
X196359D01*
X196159Y42638D02*
Y43038D01*
X197571Y44438D02*
X197971D01*
X197771Y44238D02*
Y44638D01*
X197559Y49237D02*
X197959D01*
X197759Y49038D02*
Y49437D01*
X197559Y47638D02*
X197959D01*
X197759Y47438D02*
Y47837D01*
X197571Y62037D02*
X197971D01*
X197771Y61838D02*
Y62238D01*
X197571Y63638D02*
X197971D01*
X197771Y63437D02*
Y63837D01*
X194359Y44438D02*
X194759D01*
X194559Y44238D02*
Y44638D01*
X194359Y62037D02*
X194759D01*
X194559Y61838D02*
Y62238D01*
X194359Y63638D02*
X194759D01*
X194559Y63437D02*
Y63837D01*
X194346Y68437D02*
X194746D01*
X194546Y68238D02*
Y68638D01*
X194346Y66838D02*
X194746D01*
X194546Y66637D02*
Y67037D01*
X184759Y39638D02*
X185159D01*
X184959Y39437D02*
Y39838D01*
X181559Y41238D02*
X181959D01*
X181759Y41037D02*
Y41438D01*
X186359Y41238D02*
X186759D01*
X186559Y41037D02*
Y41438D01*
X191159Y39638D02*
X191559D01*
X191359Y39437D02*
Y39838D01*
X191159Y41238D02*
X191559D01*
X191359Y41037D02*
Y41438D01*
X191159Y42838D02*
X191559D01*
X191359Y42638D02*
Y43038D01*
X191159Y44438D02*
X191559D01*
X191359Y44238D02*
Y44638D01*
X191159Y47638D02*
X191559D01*
X191359Y47438D02*
Y47837D01*
X191159Y49237D02*
X191559D01*
X191359Y49038D02*
Y49437D01*
X194346Y49237D02*
X194746D01*
X194546Y49038D02*
Y49437D01*
X194346Y47638D02*
X194746D01*
X194546Y47438D02*
Y47837D01*
X191171Y54037D02*
X191571D01*
X191371Y53838D02*
Y54238D01*
X191171Y52438D02*
X191571D01*
X191371Y52237D02*
Y52637D01*
X194371Y54037D02*
X194771D01*
X194571Y53838D02*
Y54238D01*
X194371Y52438D02*
X194771D01*
X194571Y52237D02*
Y52637D01*
X197559Y54037D02*
X197959D01*
X197759Y53838D02*
Y54238D01*
X197559Y52438D02*
X197959D01*
X197759Y52237D02*
Y52637D01*
X191159Y57237D02*
X191559D01*
X191359Y57038D02*
Y57437D01*
X191159Y58837D02*
X191559D01*
X191359Y58637D02*
Y59038D01*
X194359Y57237D02*
X194759D01*
X194559Y57038D02*
Y57437D01*
X194359Y58837D02*
X194759D01*
X194559Y58637D02*
Y59038D01*
X197559Y57237D02*
X197959D01*
X197759Y57038D02*
Y57437D01*
X197559Y58837D02*
X197959D01*
X197759Y58637D02*
Y59038D01*
X191159Y62037D02*
X191559D01*
X191359Y61838D02*
Y62238D01*
X191159Y63638D02*
X191559D01*
X191359Y63437D02*
Y63837D01*
X191159Y66838D02*
X191559D01*
X191359Y66637D02*
Y67037D01*
X191159Y68437D02*
X191559D01*
X191359Y68238D02*
Y68638D01*
X187946Y44438D02*
X188346D01*
X188146Y44238D02*
Y44638D01*
X187946Y47638D02*
X188346D01*
X188146Y47438D02*
Y47837D01*
X187946Y49237D02*
X188346D01*
X188146Y49038D02*
Y49437D01*
X187946Y52438D02*
X188346D01*
X188146Y52237D02*
Y52637D01*
X187946Y54037D02*
X188346D01*
X188146Y53838D02*
Y54238D01*
X187959Y58837D02*
X188359D01*
X188159Y58637D02*
Y59038D01*
X187959Y57237D02*
X188359D01*
X188159Y57038D02*
Y57437D01*
X187959Y66838D02*
X188359D01*
X188159Y66637D02*
Y67037D01*
X187959Y68437D02*
X188359D01*
X188159Y68238D02*
Y68638D01*
X187959Y71637D02*
X188359D01*
X188159Y71438D02*
Y71838D01*
X187959Y73238D02*
X188359D01*
X188159Y73037D02*
Y73438D01*
X184759Y52438D02*
X185159D01*
X184959Y52237D02*
Y52637D01*
X184759Y49237D02*
X185159D01*
X184959Y49038D02*
Y49437D01*
X184759Y47638D02*
X185159D01*
X184959Y47438D02*
Y47837D01*
X184759Y44438D02*
X185159D01*
X184959Y44238D02*
Y44638D01*
X184759Y57237D02*
X185159D01*
X184959Y57038D02*
Y57437D01*
X184759Y54037D02*
X185159D01*
X184959Y53838D02*
Y54238D01*
X184759Y62037D02*
X185159D01*
X184959Y61838D02*
Y62238D01*
X184759Y58837D02*
X185159D01*
X184959Y58637D02*
Y59038D01*
X187959Y63638D02*
X188359D01*
X188159Y63437D02*
Y63837D01*
X184759Y63638D02*
X185159D01*
X184959Y63437D02*
Y63837D01*
X184759Y68437D02*
X185159D01*
X184959Y68238D02*
Y68638D01*
X184759Y66838D02*
X185159D01*
X184959Y66637D02*
Y67037D01*
X184759Y73238D02*
X185159D01*
X184959Y73037D02*
Y73438D01*
X184759Y71637D02*
X185159D01*
X184959Y71438D02*
Y71838D01*
X184759Y76437D02*
X185159D01*
X184959Y76237D02*
Y76638D01*
X184759Y78038D02*
X185159D01*
X184959Y77838D02*
Y78237D01*
X181559Y42838D02*
X181959D01*
X181759Y42638D02*
Y43038D01*
X181559Y44438D02*
X181959D01*
X181759Y44238D02*
Y44638D01*
X181559Y47638D02*
X181959D01*
X181759Y47438D02*
Y47837D01*
X181559Y49237D02*
X181959D01*
X181759Y49038D02*
Y49437D01*
X181559Y52438D02*
X181959D01*
X181759Y52237D02*
Y52637D01*
X181559Y54037D02*
X181959D01*
X181759Y53838D02*
Y54238D01*
X181559Y57237D02*
X181959D01*
X181759Y57038D02*
Y57437D01*
X181559Y66838D02*
X181959D01*
X181759Y66637D02*
Y67037D01*
X181559Y63638D02*
X181959D01*
X181759Y63437D02*
Y63837D01*
X181559Y58837D02*
X181959D01*
X181759Y58637D02*
Y59038D01*
X181559Y62037D02*
X181959D01*
X181759Y61838D02*
Y62238D01*
X187959Y62037D02*
X188359D01*
X188159Y61838D02*
Y62238D01*
X181559Y68437D02*
X181959D01*
X181759Y68238D02*
Y68638D01*
X181559Y71637D02*
X181959D01*
X181759Y71438D02*
Y71838D01*
X181559Y73238D02*
X181959D01*
X181759Y73037D02*
Y73438D01*
X181559Y76437D02*
X181959D01*
X181759Y76237D02*
Y76638D01*
X181559Y78038D02*
X181959D01*
X181759Y77838D02*
Y78237D01*
X181559Y81238D02*
X181959D01*
X181759Y81037D02*
Y81437D01*
X178359Y44438D02*
X178759D01*
X178559Y44238D02*
Y44638D01*
X178359Y42838D02*
X178759D01*
X178559Y42638D02*
Y43038D01*
X178359Y49237D02*
X178759D01*
X178559Y49038D02*
Y49437D01*
X178359Y47638D02*
X178759D01*
X178559Y47438D02*
Y47837D01*
X178359Y52438D02*
X178759D01*
X178559Y52237D02*
Y52637D01*
X178359Y54037D02*
X178759D01*
X178559Y53838D02*
Y54238D01*
X178359Y57237D02*
X178759D01*
X178559Y57038D02*
Y57437D01*
X178359Y58837D02*
X178759D01*
X178559Y58637D02*
Y59038D01*
X178359Y62037D02*
X178759D01*
X178559Y61838D02*
Y62238D01*
X178359Y68437D02*
X178759D01*
X178559Y68238D02*
Y68638D01*
X178359Y71637D02*
X178759D01*
X178559Y71438D02*
Y71838D01*
X178359Y73238D02*
X178759D01*
X178559Y73037D02*
Y73438D01*
X178359Y76437D02*
X178759D01*
X178559Y76237D02*
Y76638D01*
X178359Y78038D02*
X178759D01*
X178559Y77838D02*
Y78237D01*
X306159Y22238D02*
X306559D01*
X306359Y22038D02*
Y22437D01*
X221571Y118037D02*
X221971D01*
X221771Y117838D02*
Y118237D01*
X226371Y113238D02*
X226771D01*
X226571Y113038D02*
Y113437D01*
X226371Y122837D02*
X226771D01*
X226571Y122637D02*
Y123038D01*
X196759Y29838D02*
X197159D01*
X196959Y29638D02*
Y30038D01*
X288771Y103638D02*
X289171D01*
X288971Y103437D02*
Y103838D01*
X317981Y76348D02*
X318381D01*
X318181Y76148D02*
Y76547D01*
X216570Y37413D02*
X216970D01*
X216770Y37212D02*
Y37613D01*
X215741Y24296D02*
X216141D01*
X215941Y24096D02*
Y24497D01*
X256959Y29838D02*
X257359D01*
X257159Y29638D02*
Y30038D01*
X259971Y41238D02*
X260371D01*
X260171Y41037D02*
Y41438D01*
X255171Y41238D02*
X255571D01*
X255371Y41037D02*
Y41438D01*
X178371Y103638D02*
X178771D01*
X178571Y103437D02*
Y103838D01*
X257507Y44247D02*
X257907D01*
X257707Y44047D02*
Y44447D01*
X293571Y108438D02*
X293971D01*
X293771Y108238D02*
Y108637D01*
X293571Y103638D02*
X293971D01*
X293771Y103437D02*
Y103838D01*
X296816Y105902D02*
X297216D01*
X297016Y105701D02*
Y106102D01*
X303967Y103893D02*
X304367D01*
X304167Y103692D02*
Y104093D01*
X190268Y24365D02*
X190668D01*
X190468Y24166D02*
Y24566D01*
X293571Y94037D02*
X293971D01*
X293771Y93837D02*
Y94238D01*
X226371Y94037D02*
X226771D01*
X226571Y93837D02*
Y94238D01*
X231171Y94037D02*
X231571D01*
X231371Y93837D02*
Y94238D01*
X274371Y89237D02*
X274771D01*
X274571Y89038D02*
Y89438D01*
X229759Y117838D02*
X230159D01*
X229959Y117638D02*
Y118037D01*
X224094Y115629D02*
X224494D01*
X224294Y115428D02*
Y115829D01*
X224302Y119702D02*
X224702D01*
X224502Y119501D02*
Y119902D01*
X269571Y79637D02*
X269971D01*
X269771Y79438D02*
Y79838D01*
X269571Y84438D02*
X269971D01*
X269771Y84237D02*
Y84637D01*
X187971Y22038D02*
X188371D01*
X188171Y21837D02*
Y22238D01*
X298371Y60438D02*
X298771D01*
X298571Y60237D02*
Y60637D01*
X239075Y126881D02*
X239475D01*
X239275Y126681D02*
Y127081D01*
X251432Y81940D02*
X251832D01*
X251632Y81739D02*
Y82139D01*
X245012Y74622D02*
X245412D01*
X245212Y74423D02*
Y74822D01*
X187991Y26265D02*
X188391D01*
X188191Y26065D02*
Y26465D01*
X237959Y104237D02*
X238359D01*
X238159Y104037D02*
Y104437D01*
X235971Y79637D02*
X236371D01*
X236171Y79438D02*
Y79838D01*
X221571Y103638D02*
X221971D01*
X221771Y103437D02*
Y103838D01*
X221571Y98838D02*
X221971D01*
X221771Y98637D02*
Y99037D01*
X221571Y94037D02*
X221971D01*
X221771Y93837D02*
Y94238D01*
X240771Y122837D02*
X241171D01*
X240971Y122637D02*
Y123038D01*
X239559Y115038D02*
X239959D01*
X239759Y114838D02*
Y115237D01*
X238659Y119537D02*
X239059D01*
X238859Y119337D02*
Y119738D01*
X221571Y46038D02*
X221971D01*
X221771Y45838D02*
Y46237D01*
X224094Y44455D02*
X224494D01*
X224294Y44254D02*
Y44655D01*
X247459Y117838D02*
X247859D01*
X247659Y117638D02*
Y118037D01*
X266136Y75726D02*
X266536D01*
X266336Y75526D02*
Y75927D01*
X196271Y118037D02*
X196671D01*
X196471Y117838D02*
Y118237D01*
X272959Y29037D02*
X273359D01*
X273159Y28837D02*
Y29237D01*
X288359Y41037D02*
X288759D01*
X288559Y40837D02*
Y41238D01*
X307759Y73838D02*
X308159D01*
X307959Y73637D02*
Y74037D01*
X252537Y76140D02*
X252937D01*
X252737Y75941D02*
Y76341D01*
X250371Y74837D02*
X250771D01*
X250571Y74638D02*
Y75037D01*
X192771Y118037D02*
X193171D01*
X192971Y117838D02*
Y118237D01*
X276284Y54188D02*
X276684D01*
X276484Y53987D02*
Y54387D01*
X256540Y51758D02*
X256940D01*
X256740Y51557D02*
Y51957D01*
X259971Y36437D02*
X260371D01*
X260171Y36237D02*
Y36637D01*
X259992Y47216D02*
X260392D01*
X260192Y47016D02*
Y47416D01*
X255759Y59637D02*
X256159D01*
X255959Y59438D02*
Y59838D01*
X255171Y79637D02*
X255571D01*
X255371Y79438D02*
Y79838D01*
X173571Y79637D02*
X173971D01*
X173771Y79438D02*
Y79838D01*
X242672Y51750D02*
X243072D01*
X242872Y51551D02*
Y51951D01*
X284016Y18566D02*
X284416D01*
X284216Y18367D02*
Y18767D01*
X268359Y23038D02*
X268759D01*
X268559Y22838D02*
Y23237D01*
X267379Y28991D02*
X267779D01*
X267579Y28791D02*
Y29190D01*
X272418Y33823D02*
X272818D01*
X272618Y33623D02*
Y34023D01*
X228796Y47458D02*
X229196D01*
X228996Y47258D02*
Y47659D01*
X250959Y29838D02*
X251359D01*
X251159Y29638D02*
Y30038D01*
X298371Y55638D02*
X298771D01*
X298571Y55437D02*
Y55838D01*
X235554Y51819D02*
X235954D01*
X235754Y51619D02*
Y52020D01*
X269571Y103638D02*
X269971D01*
X269771Y103437D02*
Y103838D01*
X259971Y84438D02*
X260371D01*
X260171Y84237D02*
Y84637D01*
X274371Y103638D02*
X274771D01*
X274571Y103437D02*
Y103838D01*
X317912Y71033D02*
X318312D01*
X318112Y70833D02*
Y71232D01*
X259026Y72136D02*
X259426D01*
X259226Y71937D02*
Y72337D01*
X251639Y72275D02*
X252039D01*
X251839Y72075D02*
Y72474D01*
X238799Y66131D02*
X239199D01*
X238999Y65930D02*
Y66330D01*
X211992Y80708D02*
X212392D01*
X212192Y80507D02*
Y80907D01*
X213471Y82138D02*
X213871D01*
X213671Y81937D02*
Y82337D01*
X211971Y74837D02*
X212371D01*
X212171Y74638D02*
Y75037D01*
X269559Y100238D02*
X269959D01*
X269759Y100038D02*
Y100437D01*
X264771Y98838D02*
X265171D01*
X264971Y98637D02*
Y99037D01*
X283971Y103638D02*
X284371D01*
X284171Y103437D02*
Y103838D01*
X279171Y98838D02*
X279571D01*
X279371Y98637D02*
Y99037D01*
X283971Y98838D02*
X284371D01*
X284171Y98637D02*
Y99037D01*
X226371Y46038D02*
X226771D01*
X226571Y45838D02*
Y46237D01*
X312872Y112177D02*
X313272D01*
X313072Y111977D02*
Y112376D01*
X184759Y22838D02*
X185159D01*
X184959Y22637D02*
Y23038D01*
X300929Y53153D02*
X301329D01*
X301129Y52952D02*
Y53352D01*
X187971Y122837D02*
X188371D01*
X188171Y122637D02*
Y123038D01*
X168459Y98738D02*
X168859D01*
X168659Y98537D02*
Y98937D01*
X168459Y93937D02*
X168859D01*
X168659Y93738D02*
Y94138D01*
X168459Y84338D02*
X168859D01*
X168659Y84137D02*
Y84538D01*
X168459Y69937D02*
X168859D01*
X168659Y69737D02*
Y70138D01*
X168459Y65237D02*
X168859D01*
X168659Y65038D02*
Y65438D01*
X207759Y54438D02*
X208159D01*
X207959Y54238D02*
Y54637D01*
X303171Y70038D02*
X303571D01*
X303371Y69837D02*
Y70237D01*
X287971Y85037D02*
X288371D01*
X288171Y84838D02*
Y85237D01*
X307971Y55638D02*
X308371D01*
X308171Y55437D02*
Y55838D01*
X307559Y58237D02*
X307959D01*
X307759Y58038D02*
Y58438D01*
X290160Y66960D02*
X290560D01*
X290360Y66760D02*
Y67159D01*
X298371Y65237D02*
X298771D01*
X298571Y65038D02*
Y65438D01*
X281255Y56051D02*
X281655D01*
X281455Y55852D02*
Y56252D01*
X253959Y32638D02*
X254359D01*
X254159Y32438D02*
Y32838D01*
X264771Y31637D02*
X265171D01*
X264971Y31438D02*
Y31837D01*
X263759Y23237D02*
X264159D01*
X263959Y23038D02*
Y23438D01*
X260559Y26237D02*
X260959D01*
X260759Y26037D02*
Y26438D01*
X300722Y48735D02*
X301122D01*
X300922Y48535D02*
Y48935D01*
X274371Y46038D02*
X274771D01*
X274571Y45838D02*
Y46237D01*
X280959Y21238D02*
X281359D01*
X281159Y21037D02*
Y21438D01*
X288771Y55638D02*
X289171D01*
X288971Y55437D02*
Y55838D01*
X288020Y29267D02*
X288420D01*
X288220Y29067D02*
Y29467D01*
X277113Y46387D02*
X277513D01*
X277313Y46187D02*
Y46587D01*
X260260Y20177D02*
X260660D01*
X260460Y19977D02*
Y20378D01*
X259971Y94037D02*
X260371D01*
X260171Y93837D02*
Y94238D01*
X274371Y98838D02*
X274771D01*
X274571Y98637D02*
Y99037D01*
X304726Y109140D02*
X305126D01*
X304926Y108940D02*
Y109339D01*
X267159Y13637D02*
X267559D01*
X267359Y13438D02*
Y13837D01*
X305701Y65768D02*
X306101D01*
X305901Y65567D02*
Y65968D01*
X270459Y20432D02*
X270859D01*
X270659Y20232D02*
Y20631D01*
X255171Y98838D02*
X255571D01*
X255371Y98637D02*
Y99037D01*
X283971Y36437D02*
X284371D01*
X284171Y36237D02*
Y36637D01*
X291817Y49700D02*
X292217D01*
X292017Y49501D02*
Y49900D01*
X169959Y44638D02*
X170359D01*
X170159Y44438D02*
Y44837D01*
X305969Y82907D02*
X306369D01*
X306169Y82706D02*
Y83106D01*
X313770Y73103D02*
X314170D01*
X313970Y72904D02*
Y73304D01*
X322371Y70038D02*
X322771D01*
X322571Y69837D02*
Y70237D01*
X192771Y113238D02*
X193171D01*
X192971Y113038D02*
Y113437D01*
X307971Y84438D02*
X308371D01*
X308171Y84237D02*
Y84637D01*
X307971Y79637D02*
X308371D01*
X308171Y79438D02*
Y79838D01*
X295359Y116838D02*
X295759D01*
X295559Y116638D02*
Y117037D01*
X283971Y31637D02*
X284371D01*
X284171Y31438D02*
Y31837D01*
X269437Y51284D02*
X269837D01*
X269637Y51083D02*
Y51484D01*
X203159Y29838D02*
X203559D01*
X203359Y29638D02*
Y30038D01*
X319159Y85637D02*
X319559D01*
X319359Y85438D02*
Y85838D01*
X261302Y81686D02*
X261702D01*
X261502Y81485D02*
Y81885D01*
X306314Y62818D02*
X306714D01*
X306514Y62617D02*
Y63017D01*
X272142Y39759D02*
X272542D01*
X272342Y39560D02*
Y39959D01*
X281531Y88705D02*
X281931D01*
X281731Y88504D02*
Y88905D01*
X269571Y108438D02*
X269971D01*
X269771Y108238D02*
Y108637D01*
X283971Y108438D02*
X284371D01*
X284171Y108238D02*
Y108637D01*
X255959Y118837D02*
X256359D01*
X256159Y118638D02*
Y119037D01*
X256309Y117367D02*
X256709D01*
X256509Y117167D02*
Y117568D01*
X258309Y113223D02*
X258709D01*
X258509Y113022D02*
Y113423D01*
X293524Y112153D02*
X293924D01*
X293724Y111952D02*
Y112353D01*
X274371Y108438D02*
X274771D01*
X274571Y108238D02*
Y108637D01*
X270514Y110678D02*
X270914D01*
X270714Y110477D02*
Y110878D01*
X265504Y110678D02*
X265904D01*
X265704Y110477D02*
Y110878D01*
X296959Y123837D02*
X297359D01*
X297159Y123637D02*
Y124038D01*
X296749Y116753D02*
X297149D01*
X296949Y116552D02*
Y116953D01*
X289089Y111137D02*
X289489D01*
X289289Y110938D02*
Y111337D01*
X287834Y111137D02*
X288234D01*
X288034Y110938D02*
Y111337D01*
X258209Y124048D02*
X258609D01*
X258409Y123847D02*
Y124248D01*
X259244Y125042D02*
X259644D01*
X259444Y124843D02*
Y125242D01*
X260474Y125807D02*
X260874D01*
X260674Y125608D02*
Y126007D01*
X261744Y126412D02*
X262144D01*
X261944Y126213D02*
Y126612D01*
X291049Y126453D02*
X291449D01*
X291249Y126252D02*
Y126653D01*
X289459Y126453D02*
X289859D01*
X289659Y126252D02*
Y126653D01*
X288164Y126398D02*
X288564D01*
X288364Y126198D02*
Y126597D01*
X286669Y126377D02*
X287069D01*
X286869Y126178D02*
Y126577D01*
X263164Y126647D02*
X263564D01*
X263364Y126447D02*
Y126848D01*
X267319Y126503D02*
X267719D01*
X267519Y126303D02*
Y126702D01*
X270099Y126478D02*
X270499D01*
X270299Y126277D02*
Y126678D01*
X271494Y126447D02*
X271894D01*
X271694Y126248D02*
Y126647D01*
X274269Y126462D02*
X274669D01*
X274469Y126262D02*
Y126663D01*
X282504Y126423D02*
X282904D01*
X282704Y126223D02*
Y126622D01*
X255171Y103638D02*
X255571D01*
X255371Y103437D02*
Y103838D01*
X277064Y126468D02*
X277464D01*
X277264Y126268D02*
Y126667D01*
X279744Y126447D02*
X280144D01*
X279944Y126248D02*
Y126647D01*
X248359Y41238D02*
X248759D01*
X248559Y41037D02*
Y41438D01*
X265377Y72413D02*
X265777D01*
X265577Y72212D02*
Y72613D01*
X271521Y81732D02*
X271921D01*
X271721Y81533D02*
Y81932D01*
X192791Y26265D02*
X193191D01*
X192991Y26065D02*
Y26465D01*
X195307Y19602D02*
X195707D01*
X195507Y19401D02*
Y19802D01*
X255171Y94037D02*
X255571D01*
X255371Y93837D02*
Y94238D01*
X250371Y79637D02*
X250771D01*
X250571Y79438D02*
Y79838D01*
X274371Y94037D02*
X274771D01*
X274571Y93837D02*
Y94238D01*
X255171Y74837D02*
X255571D01*
X255371Y74638D02*
Y75037D01*
X175159Y66838D02*
X175559D01*
X175359Y66637D02*
Y67037D01*
X178371Y65237D02*
X178771D01*
X178571Y65038D02*
Y65438D01*
X221571Y113238D02*
X221971D01*
X221771Y113038D02*
Y113437D01*
X301758Y38587D02*
X302158D01*
X301958Y38386D02*
Y38787D01*
X231171Y89237D02*
X231571D01*
X231371Y89038D02*
Y89438D01*
X192359Y29838D02*
X192759D01*
X192559Y29638D02*
Y30038D01*
X292269Y111713D02*
X292669D01*
X292469Y111512D02*
Y111913D01*
X294569Y113048D02*
X294969D01*
X294769Y112847D02*
Y113248D01*
X296944Y120798D02*
X297344D01*
X297144Y120598D02*
Y120998D01*
X296239Y122257D02*
X296639D01*
X296439Y122057D02*
Y122458D01*
X185160Y19808D02*
X185560D01*
X185360Y19609D02*
Y20008D01*
X304174Y119149D02*
X304574D01*
X304374Y118948D02*
Y119349D01*
X243493Y119908D02*
X243893D01*
X243693Y119709D02*
Y120108D01*
X245571Y127638D02*
X245971D01*
X245771Y127437D02*
Y127838D01*
X277751Y20493D02*
X278151D01*
X277951Y20293D02*
Y20694D01*
X279943Y60400D02*
X280343D01*
X280143Y60201D02*
Y60601D01*
X233621Y120737D02*
X234021D01*
X233821Y120536D02*
Y120937D01*
X226371Y108438D02*
X226771D01*
X226571Y108238D02*
Y108637D01*
X228582Y115767D02*
X228982D01*
X228782Y115567D02*
Y115966D01*
X228651Y121221D02*
X229051D01*
X228851Y121020D02*
Y121421D01*
X304174Y114248D02*
X304574D01*
X304374Y114048D02*
Y114447D01*
X231171Y122837D02*
X231571D01*
X231371Y122637D02*
Y123038D01*
X221571Y84438D02*
X221971D01*
X221771Y84237D02*
Y84637D01*
X240771Y89237D02*
X241171D01*
X240971Y89038D02*
Y89438D01*
X232931Y126052D02*
X233331D01*
X233131Y125853D02*
Y126252D01*
X295349Y123462D02*
X295749D01*
X295549Y123263D02*
Y123662D01*
X283659Y110987D02*
X284059D01*
X283859Y110787D02*
Y111188D01*
X279699Y110987D02*
X280099D01*
X279899Y110787D02*
Y111188D01*
X301206Y43211D02*
X301606D01*
X301406Y43012D02*
Y43411D01*
X295545Y42867D02*
X295945D01*
X295745Y42667D02*
Y43066D01*
X226371Y84438D02*
X226771D01*
X226571Y84237D02*
Y84637D01*
X294992Y53360D02*
X295392D01*
X295192Y53159D02*
Y53559D01*
X199794Y19670D02*
X200194D01*
X199994Y19470D02*
Y19871D01*
X190958Y19670D02*
X191358D01*
X191158Y19470D02*
Y19871D01*
X192771Y22038D02*
X193171D01*
X192971Y21837D02*
Y22238D01*
X194962Y24365D02*
X195362D01*
X195162Y24166D02*
Y24566D01*
X197571Y22038D02*
X197971D01*
X197771Y21837D02*
Y22238D01*
X197591Y26265D02*
X197991D01*
X197791Y26065D02*
Y26465D01*
X187971Y113238D02*
X188371D01*
X188171Y113038D02*
Y113437D01*
X278409Y126453D02*
X278809D01*
X278609Y126252D02*
Y126653D01*
X183171Y122837D02*
X183571D01*
X183371Y122637D02*
Y123038D01*
X281119Y126437D02*
X281519D01*
X281319Y126237D02*
Y126637D01*
X283859Y126437D02*
X284259D01*
X284059Y126237D02*
Y126637D01*
X285199Y126423D02*
X285599D01*
X285399Y126223D02*
Y126622D01*
X275654Y126453D02*
X276054D01*
X275854Y126252D02*
Y126653D01*
X272869Y126447D02*
X273269D01*
X273069Y126248D02*
Y126647D01*
X268714Y126478D02*
X269114D01*
X268914Y126277D02*
Y126678D01*
X265884Y126573D02*
X266284D01*
X266084Y126373D02*
Y126772D01*
X264549Y126632D02*
X264949D01*
X264749Y126433D02*
Y126832D01*
X292439Y125988D02*
X292839D01*
X292639Y125787D02*
Y126188D01*
X257479Y122857D02*
X257879D01*
X257679Y122658D02*
Y123057D01*
X256829Y121588D02*
X257229D01*
X257029Y121388D02*
Y121788D01*
X256199Y120308D02*
X256599D01*
X256399Y120107D02*
Y120508D01*
X296599Y115507D02*
X296999D01*
X296799Y115307D02*
Y115708D01*
X297149Y119407D02*
X297549D01*
X297349Y119208D02*
Y119607D01*
X293774Y125198D02*
X294174D01*
X293974Y124997D02*
Y125398D01*
X263969Y110658D02*
X264369D01*
X264169Y110458D02*
Y110857D01*
X268849Y110658D02*
X269249D01*
X269049Y110458D02*
Y110857D01*
X274249Y110602D02*
X274649D01*
X274449Y110403D02*
Y110802D01*
X275764Y110637D02*
X276164D01*
X275964Y110438D02*
Y110837D01*
X260544Y111347D02*
X260944D01*
X260744Y111147D02*
Y111548D01*
X259314Y112118D02*
X259714D01*
X259514Y111917D02*
Y112318D01*
X257389Y114408D02*
X257789D01*
X257589Y114207D02*
Y114608D01*
X256634Y115807D02*
X257034D01*
X256834Y115608D02*
Y116007D01*
X264771Y108438D02*
X265171D01*
X264971Y108238D02*
Y108637D01*
X279171Y108438D02*
X279571D01*
X279371Y108238D02*
Y108637D01*
X288771Y108438D02*
X289171D01*
X288971Y108238D02*
Y108637D01*
X259971Y108438D02*
X260371D01*
X260171Y108238D02*
Y108637D01*
X305486Y53773D02*
X305886D01*
X305686Y53574D02*
Y53974D01*
X259971Y79637D02*
X260371D01*
X260171Y79438D02*
Y79838D01*
X271711Y74335D02*
X272111D01*
X271911Y74136D02*
Y74536D01*
X299959Y100838D02*
X300359D01*
X300159Y100637D02*
Y101038D01*
X296885Y110044D02*
X297285D01*
X297085Y109844D02*
Y110243D01*
X196271Y113238D02*
X196671D01*
X196471Y113038D02*
Y113437D01*
X315496Y90293D02*
X315896D01*
X315696Y90092D02*
Y90492D01*
X313701Y88083D02*
X314101D01*
X313901Y87884D02*
Y88283D01*
X313563Y68270D02*
X313963D01*
X313763Y68071D02*
Y68471D01*
X319959Y82638D02*
X320359D01*
X320159Y82437D02*
Y82837D01*
X233414Y115490D02*
X233814D01*
X233614Y115290D02*
Y115691D01*
X249959Y59637D02*
X250359D01*
X250159Y59438D02*
Y59838D01*
X264359Y51837D02*
X264759D01*
X264559Y51638D02*
Y52038D01*
X288771Y36437D02*
X289171D01*
X288971Y36237D02*
Y36637D01*
X222023Y24296D02*
X222423D01*
X222223Y24096D02*
Y24497D01*
X226580Y24296D02*
X226980D01*
X226780Y24096D02*
Y24497D01*
X219338Y47804D02*
X219738D01*
X219538Y47603D02*
Y48004D01*
X192771Y36437D02*
X193171D01*
X192971Y36237D02*
Y36637D01*
X197571Y36437D02*
X197971D01*
X197771Y36237D02*
Y36637D01*
X255171Y22038D02*
X255571D01*
X255371Y21837D02*
Y22238D01*
X253020Y19602D02*
X253420D01*
X253220Y19401D02*
Y19802D01*
X269571Y36437D02*
X269971D01*
X269771Y36237D02*
Y36637D01*
X257507Y39345D02*
X257907D01*
X257707Y39145D02*
Y39546D01*
X274687Y20456D02*
X275087D01*
X274887Y20256D02*
Y20655D01*
X261856Y44385D02*
X262256D01*
X262056Y44186D02*
Y44585D01*
X291559Y29237D02*
X291959D01*
X291759Y29037D02*
Y29438D01*
X202371Y22038D02*
X202771D01*
X202571Y21837D02*
Y22238D01*
X297092Y102035D02*
X297492D01*
X297292Y101836D02*
Y102235D01*
X302793Y83320D02*
X303193D01*
X302993Y83121D02*
Y83521D01*
X306590Y87256D02*
X306990D01*
X306790Y87055D02*
Y87455D01*
X295359Y96038D02*
X295759D01*
X295559Y95837D02*
Y96237D01*
X200830Y24365D02*
X201230D01*
X201030Y24166D02*
Y24566D01*
X259971Y98838D02*
X260371D01*
X260171Y98637D02*
Y99037D01*
X284430Y93124D02*
X284830D01*
X284630Y92923D02*
Y93323D01*
X257507Y19533D02*
X257907D01*
X257707Y19332D02*
Y19733D01*
X232102Y18843D02*
X232502D01*
X232302Y18643D02*
Y19042D01*
X279171Y50837D02*
X279571D01*
X279371Y50638D02*
Y51038D01*
X277044Y49218D02*
X277444D01*
X277244Y49018D02*
Y49417D01*
X235971Y94037D02*
X236371D01*
X236171Y93837D02*
Y94238D01*
X259971Y103638D02*
X260371D01*
X260171Y103437D02*
Y103838D01*
X275525Y91536D02*
X275925D01*
X275725Y91335D02*
Y91736D01*
X293571Y41238D02*
X293971D01*
X293771Y41037D02*
Y41438D01*
X277044Y39000D02*
X277444D01*
X277244Y38800D02*
Y39200D01*
X287759Y89038D02*
X288159D01*
X287959Y88837D02*
Y89237D01*
X277251Y42797D02*
X277651D01*
X277451Y42597D02*
Y42998D01*
X234959Y118638D02*
X235359D01*
X235159Y118438D02*
Y118837D01*
X296994Y34099D02*
X297394D01*
X297194Y33898D02*
Y34299D01*
X298371Y41238D02*
X298771D01*
X298571Y41037D02*
Y41438D01*
X298371Y50837D02*
X298771D01*
X298571Y50638D02*
Y51038D01*
X305693Y43005D02*
X306093D01*
X305893Y42805D02*
Y43205D01*
X293571Y60438D02*
X293971D01*
X293771Y60237D02*
Y60637D01*
X226371Y118037D02*
X226771D01*
X226571Y117838D02*
Y118237D01*
X293571Y65237D02*
X293971D01*
X293771Y65038D02*
Y65438D01*
X274371Y50837D02*
X274771D01*
X274571Y50638D02*
Y51038D01*
X286501Y67235D02*
X286901D01*
X286701Y67036D02*
Y67435D01*
X294302Y69238D02*
X294702D01*
X294502Y69037D02*
Y69437D01*
X307764Y63714D02*
X308164D01*
X307964Y63515D02*
Y63915D01*
X264771Y84438D02*
X265171D01*
X264971Y84237D02*
Y84637D01*
X305959Y47038D02*
X306359D01*
X306159Y46837D02*
Y47238D01*
X299549Y69928D02*
X299949D01*
X299749Y69727D02*
Y70127D01*
X300929Y73655D02*
X301329D01*
X301129Y73456D02*
Y73856D01*
X283971Y84438D02*
X284371D01*
X284171Y84237D02*
Y84637D01*
X305693Y58329D02*
X306093D01*
X305893Y58130D02*
Y58530D01*
X303171Y60438D02*
X303571D01*
X303371Y60237D02*
Y60637D01*
X307971Y70038D02*
X308371D01*
X308171Y69837D02*
Y70237D01*
X211806Y37481D02*
X212206D01*
X212006Y37282D02*
Y37681D01*
X169351Y42522D02*
X169751D01*
X169551Y42322D02*
Y42722D01*
X167359Y49637D02*
X167759D01*
X167559Y49437D02*
Y49837D01*
X168459Y55838D02*
X168859D01*
X168659Y55638D02*
Y56037D01*
X168959Y61238D02*
X169359D01*
X169159Y61037D02*
Y61437D01*
X168459Y74638D02*
X168859D01*
X168659Y74437D02*
Y74837D01*
X168459Y79637D02*
X168859D01*
X168659Y79438D02*
Y79838D01*
X168459Y89138D02*
X168859D01*
X168659Y88937D02*
Y89337D01*
X257921Y81801D02*
X258321D01*
X258121Y81602D02*
Y82002D01*
X223128Y37137D02*
X223528D01*
X223328Y36937D02*
Y37337D01*
X255171Y84438D02*
X255571D01*
X255371Y84237D02*
Y84637D01*
X231171Y79637D02*
X231571D01*
X231371Y79438D02*
Y79838D01*
X231171Y103638D02*
X231571D01*
X231371Y103437D02*
Y103838D01*
X189159Y37238D02*
X189559D01*
X189359Y37038D02*
Y37437D01*
X288771Y98838D02*
X289171D01*
X288971Y98637D02*
Y99037D01*
X264771Y103638D02*
X265171D01*
X264971Y103437D02*
Y103838D01*
X172571Y127638D02*
X172971D01*
X172771Y127437D02*
Y127838D01*
X264771Y94037D02*
X265171D01*
X264971Y93837D02*
Y94238D01*
X269571Y94037D02*
X269971D01*
X269771Y93837D02*
Y94238D01*
X250258Y66891D02*
X250658D01*
X250458Y66690D02*
Y67090D01*
X226371Y103638D02*
X226771D01*
X226571Y103437D02*
Y103838D01*
X240771Y118037D02*
X241171D01*
X240971Y117838D02*
Y118237D01*
X232448Y43902D02*
X232848D01*
X232648Y43701D02*
Y44102D01*
X239289Y47458D02*
X239689D01*
X239489Y47258D02*
Y47659D01*
X221359Y52038D02*
X221759D01*
X221559Y51837D02*
Y52237D01*
X223342Y47528D02*
X223742D01*
X223542Y47328D02*
Y47728D01*
X238868Y43764D02*
X239268D01*
X239068Y43564D02*
Y43964D01*
X274371Y41238D02*
X274771D01*
X274571Y41037D02*
Y41438D01*
X274371Y36437D02*
X274771D01*
X274571Y36237D02*
Y36637D01*
X269571Y31637D02*
X269971D01*
X269771Y31438D02*
Y31837D01*
X277320Y28921D02*
X277720D01*
X277520Y28721D02*
Y29122D01*
X294095Y30441D02*
X294495D01*
X294295Y30240D02*
Y30641D01*
X243769Y43764D02*
X244169D01*
X243969Y43564D02*
Y43964D01*
X246459Y47738D02*
X246859D01*
X246659Y47537D02*
Y47938D01*
X245959Y29237D02*
X246359D01*
X246159Y29037D02*
Y29438D01*
X173571Y50837D02*
X173971D01*
X173771Y50638D02*
Y51038D01*
X263359Y59637D02*
X263759D01*
X263559Y59438D02*
Y59838D01*
X203729Y19670D02*
X204129D01*
X203929Y19470D02*
Y19871D01*
X202391Y26265D02*
X202791D01*
X202591Y26065D02*
Y26465D01*
X250159Y121637D02*
X250559D01*
X250359Y121438D02*
Y121837D01*
X246759Y125338D02*
X247159D01*
X246959Y125137D02*
Y125538D01*
X293759Y91637D02*
X294159D01*
X293959Y91438D02*
Y91838D01*
X175159Y71637D02*
X175559D01*
X175359Y71438D02*
Y71838D01*
X175159Y74837D02*
X175559D01*
X175359Y74638D02*
Y75037D01*
X190367Y120581D02*
X190767D01*
X190567Y120381D02*
Y120782D01*
X312182Y118389D02*
X312582D01*
X312382Y118190D02*
Y118589D01*
X309973Y119079D02*
X310373D01*
X310173Y118879D02*
Y119280D01*
X309559Y113833D02*
X309959D01*
X309759Y113634D02*
Y114033D01*
X233697Y47804D02*
X234097D01*
X233897Y47603D02*
Y48004D01*
X229159Y29838D02*
X229559D01*
X229359Y29638D02*
Y30038D01*
X294559Y51237D02*
X294959D01*
X294759Y51038D02*
Y51437D01*
X178359Y81238D02*
X178759D01*
X178559Y81037D02*
Y81437D01*
X176759Y84438D02*
X177159D01*
X176959Y84237D02*
Y84637D01*
X178359Y82837D02*
X178759D01*
X178559Y82638D02*
Y83038D01*
X249659Y91037D02*
X250059D01*
X249859Y90838D02*
Y91237D01*
X207159Y77438D02*
X207559D01*
X207359Y77237D02*
Y77637D01*
X279171Y41238D02*
X279571D01*
X279371Y41037D02*
Y41438D01*
X192771Y99738D02*
X193171D01*
X192971Y99537D02*
Y99937D01*
X183171Y102838D02*
X183571D01*
X183371Y102638D02*
Y103038D01*
X266159Y62037D02*
X266559D01*
X266359Y61838D02*
Y62238D01*
X296373Y66960D02*
X296773D01*
X296573Y66760D02*
Y67159D01*
X302862Y66475D02*
X303262D01*
X303062Y66276D02*
Y66676D01*
X218359Y71438D02*
X218759D01*
X218559Y71237D02*
Y71637D01*
X218359Y72637D02*
X218759D01*
X218559Y72438D02*
Y72838D01*
X240771Y103638D02*
X241171D01*
X240971Y103437D02*
Y103838D01*
X240771Y108438D02*
X241171D01*
X240971Y108238D02*
Y108637D01*
X188959Y92637D02*
X189359D01*
X189159Y92437D02*
Y92838D01*
X189471Y95438D02*
X189871D01*
X189671Y95237D02*
Y95638D01*
X210971Y82437D02*
X211371D01*
X211171Y82237D02*
Y82638D01*
X210971Y78938D02*
X211371D01*
X211171Y78737D02*
Y79137D01*
X210971Y88386D02*
X211371D01*
X211171Y88186D02*
Y88586D01*
X210971Y85237D02*
X211371D01*
X211171Y85037D02*
Y85437D01*
X248034Y104756D02*
X248434D01*
X248234Y104557D02*
Y104956D01*
X250673Y107185D02*
X251073D01*
X250873Y106985D02*
Y107385D01*
X243874Y110334D02*
X244274D01*
X244074Y110134D02*
Y110534D01*
X241271Y112893D02*
X241671D01*
X241471Y112693D02*
Y113093D01*
M02*
