M48
METRIC,LZ,0000.00
T01C0.10
T02C0.20
T03C0.30
T04C0.46
T05C0.60
T06C0.70
T07C0.80
T08C0.85
T09C1.05
T10C1.10
T11C1.20
T12C1.70
T13C2.00
T14C2.00
T15C2.30
T16C5.25
%
T02
X+00454Y+0111
X+004537Y+012982
X+005292Y+008547
X+005252Y+00898
X+00496Y+010955
X+00468
X+00482Y+0111
X+0051
X+005305Y+011762
X+004722Y+01241
X+00505Y+012387
X+004965Y+012325
X+004742Y+01272
X+004872Y+01356
X+004635Y+013045
X+00576Y+008342
X+00599Y+009477
X+005795Y+010582
X+0057Y+012305
X+00575Y+013085
X+005372Y+014075
X+005687Y+01419
X+005612
X+005832Y+014935
X+006012Y+01498
X+005775Y+01461
X+0065Y+009367
X+006125Y+010352
X+006505Y+01042
X+006617Y+010965
X+00664Y+01085
X+00655Y+012402
X+006135Y+012425
Y+012492
Y+012362
X+00618Y+013562
X+006382Y+013377
X+006327Y+01343
X+006505Y+013015
X+006122Y+013615
X+006342Y+014275
X+006432Y+014117
X+006757Y+01399
X+006822Y+01428
X+006132Y+014937
X+006192
X+006252
X+006312
X+006372Y+014975
X+006432Y+014967
X+006492Y+014937
X+006552
X+006672Y+01494
X+006732
X+006792
X+006755Y+015315
Y+015515
Y+015415
X+006355Y+015307
X+007342Y+008287
X+007587Y+008535
X+00747Y+008707
X+007355Y+009375
X+007102Y+010187
X+00702Y+0102
X+007145Y+010352
X+007545Y+010395
X+007532Y+01085
X+007152Y+010965
X+007262Y+011242
X+007312Y+01121
X+007362Y+011242
X+007542Y+010722
X+007147Y+012057
X+007327Y+012032
X+006935Y+01171
X+007077Y+01192
X+007327Y+01193
X+007022Y+011767
X+007262Y+011872
X+006887Y+011822
X+007497
X+007147Y+011957
X+00756Y+011817
X+007455Y+01188
X+007027Y+012722
X+007477Y+012232
X+007495Y+012715
X+007472Y+012777
X+007262Y+013212
X+00697Y+013112
X+007087Y+013065
X+006885Y+013605
X+007067Y+013432
X+007025Y+013555
X+007232Y+013507
X+007355Y+013212
X+007297Y+013362
X+007302Y+01428
X+006942
X+007182
X+007122
X+007002
X+007295Y+013995
X+007175Y+014095
X+006887Y+014162
X+006955Y+014045
X+007112Y+013805
X+006965Y+01395
X+007332Y+014937
X+006925Y+01514
X+007047Y+01516
X+006987Y+015137
X+007152Y+01495
X+007212Y+01497
X+007032Y+01494
X+007272Y+015117
X+007287Y+015315
X+00707Y+015592
X+007527Y+015282
X+007515Y+015475
X+006995Y+015592
X+007515Y+01536
X+007145Y+015592
X+008245Y+00809
X+007707Y+008637
X+007962Y+009795
X+008007Y+010527
X+007722Y+010525
X+007957Y+010597
X+007832Y+010315
X+007815Y+010725
X+008062Y+011165
X+008235Y+010912
X+008292Y+011175
X+007907Y+011017
X+008082Y+0111
X+008292Y+01185
X+00825Y+012135
X+007817Y+01157
Y+01177
X+00812Y+01149
X+008145Y+011997
X+008062Y+011905
X+007802Y+011985
X+007697Y+01193
X+007825Y+012125
X+008055Y+011725
X+007935Y+01203
X+008292Y+011962
X+007935Y+011952
X+00811Y+012552
X+007795Y+012505
X+008072
X+008167Y+012925
X+008327Y+012845
Y+012925
X+007975Y+01279
X+007842Y+012542
X+007977Y+012712
X+008007Y+012925
X+008155Y+012785
X+008167Y+013645
Y+013005
Y+013245
Y+013165
Y+013405
Y+013565
X+008327Y+013085
Y+013165
Y+013325
Y+013645
Y+013245
Y+013565
X+008167Y+013085
Y+013325
Y+013885
Y+013805
Y+014045
X+008327Y+013805
Y+013885
X+008167Y+013965
X+0081Y+014207
X+0083Y+014292
X+00829Y+014227
X+008225Y+014207
X+008162
X+008045Y+01454
X+007907Y+015207
X+007822Y+014857
X+008257Y+014787
X+008327Y+01508
Y+01501
X+008067Y+014937
X+008127
X+007787Y+015117
X+007895Y+015085
X+007947Y+01536
X+00806Y+015287
X+00783Y+015307
X+008927Y+008505
X+00859Y+00849
X+008545Y+009712
X+008817Y+009355
X+00866
X+009037Y+009842
X+00855Y+009792
X+00851Y+010605
X+009047Y+01055
X+008607Y+010322
X+008995Y+010617
X+009037Y+011062
X+008737Y+01091
X+00885Y+011932
X+008555Y+01147
X+00882Y+012152
X+009072Y+011677
X+009065Y+011497
X+008885Y+01159
X+008785Y+012082
X+00909Y+01194
X+008635Y+012097
X+009107Y+012022
X+008682Y+012502
X+008407Y+012925
X+00887Y+012505
X+008817Y+012817
X+00868Y+012877
X+008855Y+012737
X+00899Y+012605
X+008817Y+01291
X+00904Y+012745
X+008692Y+012702
X+009032Y+012345
X+008737Y+012567
X+008922Y+012272
X+008845Y+012337
X+008582Y+012562
X+00869Y+01279
X+00857Y+012912
X+008687Y+01227
X+008785Y+01354
X+008942Y+013612
X+00885Y+01354
X+008807Y+013492
X+008407Y+013165
Y+013565
Y+013245
Y+013325
Y+013645
X+00889Y+013492
X+008927Y+01367
X+008885Y+013612
X+009045Y+014152
X+008837Y+013832
X+00902
X+008777
X+008407Y+013885
X+008482Y+01389
X+008407Y+013805
X+008632Y+014305
X+008592Y+01391
X+008797Y+015342
X+009755Y+008505
X+009587Y+008832
X+009542Y+009677
X+009327Y+009375
X+009482Y+010352
X+00963Y+010495
X+009797Y+010537
X+009737Y+010962
X+009857Y+010815
X+009805Y+0112
X+009225Y+011727
X+009277
X+00933
X+009377Y+011757
X+009867Y+012015
X+009875Y+011475
X+009602Y+01207
X+009457Y+01175
X+00918Y+011487
Y+011677
X+009757Y+011657
X+009612Y+012922
X+00988Y+012607
X+009427Y+01242
X+009657Y+01277
X+009182Y+012252
X+00937Y+012847
X+009825Y+012427
X+009745Y+012265
X+009452Y+01264
X+009735Y+012757
X+009457Y+012777
X+00987Y+012707
X+009762Y+012672
X+009615Y+01308
X+009477Y+013212
X+009772Y+01331
X+009192Y+013222
X+009855Y+013322
X+009707Y+013455
X+009815Y+013082
X+00946Y+013152
X+009722Y+013375
X+009717Y+013315
X+009405Y+01318
X+009702Y+013535
X+009477Y+01361
X+00931Y+013537
X+009372Y+01361
X+009415Y+013537
X+009727Y+013585
X+009467Y+013537
X+009362
X+009757Y+013535
X+0097Y+013635
X+009267Y+013655
X+009425Y+01361
X+009252Y+013597
X+009262Y+01345
X+009405Y+013095
X+00932Y+01361
X+00976Y+013475
X+00975Y+01342
X+009742Y+013662
X+009667Y+01308
X+009722Y+013995
X+009775Y+01427
X+009477Y+014152
X+00948Y+013935
X+0093Y+014152
X+009615Y+01427
X+009475Y+013775
X+00972Y+01394
X+009262Y+013897
X+009707Y+013805
X+009752Y+01404
X+009707Y+01387
Y+013747
X+009855Y+014332
X+009747Y+014387
X+0098Y+014347
X+00949Y+014437
X+009435
X+009367Y+013862
X+009382Y+013775
X+009325Y+013897
X+00955Y+014445
X+009345Y+013815
X+009682Y+01445
X+009815Y+014402
X+009515Y+0148
X+009575Y+014942
X+00946Y+01459
X+009537Y+01452
X+01045Y+009735
X+01062Y+009365
X+010297Y+009327
X+010137Y+009842
X+010582Y+010352
X+010282Y+01112
X+010042Y+01101
X+010152Y+0117
Y+01158
X+010577Y+012055
X+01011Y+011732
X+010392Y+011922
X+010462Y+011887
X+01022Y+012027
X+010092Y+011965
X+010112Y+011465
X+010357Y+011517
X+010052Y+01148
X+010417Y+011485
X+010535Y+01162
X+010252Y+011832
X+010295Y+011637
X+010212Y+011975
Y+011922
X+010247Y+011577
X+010275Y+012475
X+010237Y+012655
X+010372Y+01231
X+010367Y+012437
X+010095Y+01225
X+010577Y+01292
X+01018Y+012772
X+010265
X+010335
X+010115
X+010412Y+012737
X+01059Y+012255
X+01058Y+01258
X+010492Y+01272
X+010617Y+012767
X+01037Y+012667
X+010477Y+01278
X+010095Y+012665
X+010372Y+012257
X+010095Y+013335
X+01035Y+013312
X+01006Y+01308
X+010247
X+010387Y+013085
X+010437Y+013495
X+01044Y+013652
X+010175Y+01332
X+009985Y+013682
X+010447Y+013085
X+010057Y+013657
X+010197Y+013565
X+00995Y+013542
X+009942Y+0136
X+01042Y+013335
X+010295Y+01331
X+010002Y+01334
X+010055Y+01337
X+010202Y+013617
X+010145Y+013595
X+010147Y+013542
X+010025Y+013552
X+010437Y+01355
X+01024Y+013022
X+009967Y+0133
X+010117Y+013017
X+010195Y+01308
X+010175Y+01427
X+010455
X+010335
X+009935
X+010055
X+00999Y+01404
X+01014Y+014045
X+010237
X+010175Y+014327
X+010005Y+013797
X+010145
X+010422Y+013843
X+010375Y+014047
X+010535Y+01427
X+010065Y+01404
X+010445Y+013937
X+010312Y+014042
X+00995Y+013805
X+010047Y+013762
X+0102Y+013797
X+01009
X+010495Y+014347
X+010297Y+014447
X+010135Y+01453
X+01037Y+014532
X+010082Y+01477
X+010115Y+014585
X+01032Y+014595
X+010142Y+014657
X+010077Y+014665
X+01009Y+01493
X+010482Y+014657
X+010237Y+015455
X+010055Y+01532
X+010995Y+00866
X+011225Y+009805
X+011102Y+009325
X+010805Y+010587
X+011097Y+011262
X+011225Y+01216
X+010877Y+012082
X+010782Y+01198
X+011055Y+012115
X+01111Y+012122
X+011347Y+01209
X+011232Y+012022
X+011325Y+011797
X+011235Y+012885
X+010862Y+0125
X+010927Y+01291
X+0112Y+012302
X+011345Y+012295
X+011237Y+012355
X+01114Y+012332
X+01089Y+01238
X+0113Y+012805
X+011245Y+012785
X+01072Y+013415
X+011077Y+01324
X+01072Y+013175
X+01126Y+013207
X+01075Y+01326
X+010992Y+013245
X+01075Y+013372
X+011275Y+013397
X+0113Y+012992
X+01109Y+01299
X+011247Y+012992
X+011142Y+013002
X+010697Y+01326
X+011125Y+013207
X+011202
X+011102Y+013845
X+01107Y+014015
X+010775Y+014342
X+01127Y+01382
X+01087Y+013845
X+010717Y+014237
X+010922Y+014305
X+011005Y+014015
X+010817Y+014297
X+01082Y+015027
X+011152Y+01509
X+01111Y+014945
X+011195Y+01504
X+011242Y+015
X+010765Y+014957
X+010722Y+015542
X+010862
X+010792
X+012035Y+00858
X+011787Y+008835
X+011797Y+009377
X+01174Y+009877
X+011975Y+009852
X+011685Y+010352
X+011805Y+010412
X+011952Y+01061
X+011562Y+011302
X+01187Y+011117
X+011817Y+011165
X+0118Y+010805
X+011515Y+010827
X+012132Y+011105
X+011625Y+01215
X+011615Y+01203
X+01161Y+01158
Y+01166
Y+011727
X+011602Y+011782
X+011572Y+012072
X+011605Y+011917
X+011522Y+012042
X+011887Y+012705
X+011937Y+012662
X+011537Y+012382
X+011977Y+012622
X+011757Y+012655
X+011697Y+012707
X+011812
X+01195Y+01352
X+0118Y+013325
X+011917Y+013155
X+012135Y+013495
X+012145Y+013345
X+011627Y+013645
X+01164Y+013005
X+012012Y+013495
X+011657Y+013265
X+011667Y+013517
X+011812Y+013645
X+012002Y+013845
Y+014245
Y+013957
X+012082Y+014195
X+011477Y+013775
X+011627Y+014132
Y+013955
Y+01404
X+011615Y+014257
X+011627Y+013845
Y+013745
X+011505Y+014015
X+011812Y+01404
Y+014242
Y+013845
X+012157Y+013945
X+011812Y+013745
Y+013955
X+011957Y+01476
X+011842Y+014572
X+012887Y+008832
X+012402Y+00885
X+012867Y+009775
X+0127Y+009355
X+012232Y+009352
X+012712Y+009702
X+012782Y+010352
X+012342Y+011072
X+012412Y+010732
X+012927Y+011682
X+012885Y+013025
X+012345Y+013045
X+012255Y+013245
X+01227Y+013145
X+012387Y+013612
X+01235Y+01365
X+012715Y+013347
X+012262Y+013345
X+012825Y+01363
X+012277Y+014392
X+01223Y+01435
X+012702Y+015025
X+012652Y+015175
X+012832Y+015205
X+0135Y+008352
X+01363Y+00817
X+013255Y+009827
X+013332Y+009352
X+01363Y+009485
X+013682Y+009762
X+013497Y+01041
X+013312Y+010405
X+013452Y+010537
X+01344Y+010755
X+013087Y+011207
X+01359Y+01116
X+013337Y+011232
X+01358Y+011052
X+012987Y+01165
X+013245Y+012097
X+0131Y+012075
X+013097Y+012307
X+013597Y+012912
X+013292Y+01273
X+013085
X+013597Y+012837
X+0136Y+012762
X+013135Y+01287
X+013235
X+0136Y+012537
X+013597Y+012687
X+013067Y+013415
X+013192Y+01356
X+013607Y+013362
X+013597Y+013512
X+013605Y+013137
X+013285Y+013042
X+013137Y+01342
X+01323Y+013422
X+013597Y+013625
X+013297Y+01418
X+013237
X+013177
X+01336
X+013152Y+015175
X+013102Y+015025
X+013557Y+014997
X+013252Y+015175
X+013002Y+015025
X+013202
X+013302
X+013987Y+00884
X+013942Y+009655
X+01378Y+01037
X+013985Y+010047
X+014035Y+010095
X+01441Y+010345
X+014327Y+010577
X+014262Y+010095
X+013742Y+009942
X+013797Y+009967
X+014432Y+010517
X+013922Y+010017
X+01404Y+009957
X+013865Y+009977
X+014282Y+011187
X+014452Y+01103
X+01428Y+010807
X+013867Y+010815
X+01381Y+010865
X+01391Y+011087
X+013892Y+010942
X+013967Y+011065
X+014022Y+011082
X+014312Y+011265
X+014122Y+01165
X+01402Y+011647
X+01439Y+01162
X+014417Y+011742
Y+011682
X+01397Y+0116
X+01419Y+01165
X+01395Y+01153
X+014232Y+012545
X+01417
X+01439Y+012332
X+014315Y+0125
X+014087
X+013937Y+012502
X+013862
X+01393Y+01287
X+014127
X+014302
X+014127Y+012697
X+013897Y+012695
X+01435
X+013755Y+013057
Y+01299
X+014252Y+013532
X+013947Y+013395
X+014127
X+01395Y+013167
X+014075
X+014302
X+014432Y+013895
X+014385Y+013845
X+014147Y+013742
X+013942
X+01393Y+013842
Y+013942
X+014452Y+013767
X+014356Y+014832
X+01431Y+014862
X+015045Y+008312
X+014757Y+009612
X+014997
X+015077
X+014677
X+01454Y+009312
X+014995Y+00973
X+01504Y+009967
X+01466
X+0146Y+01098
X+014767Y+011215
X+014825Y+01121
X+014875Y+01124
X+014775Y+012105
X+014952Y+011892
X+01519Y+011977
X+015055Y+011982
X+015127Y+01193
X+014822Y+011995
X+015182Y+01186
X+015015Y+011807
X+015002Y+011862
X+01463Y+01204
X+01473Y+012762
Y+012687
X+01488Y+012837
X+014935Y+012687
X+014677Y+01254
X+014565Y+012547
X+015045Y+01239
X+014797Y+01233
X+014535Y+012642
X+014875Y+012987
Y+013287
X+015005Y+013212
X+01472Y+013062
X+014627Y+013382
X+01494Y+01363
X+01472Y+013137
X+01457Y+013167
X+01453Y+013
Y+014302
X+015202Y+01394
X+014722
X+015135
X+015067
X+014857
X+01493
X+014995
X+014652
X+014582
X+01479
X+014552Y+013872
Y+013797
X+015115Y+013745
X+014687Y+013795
X+01481Y+013797
X+01475Y+013795
X+015002Y+013797
X+01494
X+014877
X+015067
X+015087Y+014812
X+015185Y+014835
X+015532Y+009832
X+01543Y+009945
X+015657Y+010462
X+015662Y+010287
X+015357Y+010462
X+015662Y+010207
X+015357Y+010262
X+015322Y+011237
X+015957Y+011252
X+015702Y+01124
X+015622Y+010852
X+015652Y+010715
X+015332Y+010797
X+0156Y+01124
X+01536Y+011465
Y+011655
Y+011767
X+01547Y+011707
X+015317Y+01237
X+015322Y+01306
X+015295Y+014382
X+0153Y+013832
X+015285Y+013905
X+015282Y+013752
X+016187Y+008792
X+016715Y+00982
X+016517Y+010537
X+016227Y+010317
X+016515Y+011625
X+016577Y+012555
Y+012715
X+01615Y+01322
X+016697Y+0143
X+0161Y+014232
X+016247Y+01435
X+016607Y+01506
X+017182Y+008852
X+017015Y+01055
X+017247Y+010302
Y+010415
X+01705Y+0114
X+01708Y+011902
X+017475Y+012305
X+017Y+012375
X+017477Y+013185
X+01695Y+013015
X+01731Y+013232
X+016992Y+014187
X+016947Y+014355
X+016992Y+013917
X+016907Y+014295
X+01685Y+01425
X+017192Y+014435
X+005862Y+014492
X+0057Y+013715
X+006802Y+015247
X+007062Y+014485
X+007055Y+01295
X+00712Y+013705
X+008327Y+013725
X+008167
X+008897Y+012942
X+008407Y+013725
X+009427Y+01221
X+009332
X+00952Y+012207
X+0097Y+013695
X+009355Y+012935
X+00929Y+012947
X+010097Y+012199
X+010232Y+012195
X+010192Y+013695
X+010442Y+013705
X+009955Y+013735
X+01014Y+013695
X+009935Y+014482
X+010067Y+01448
X+010717Y+012942
X+01088Y+01294
X+01203Y+010682
X+012005Y+012932
X+011832
X+012145
X+011542Y+013715
X+011487
X+01197Y+014475
X+01227Y+012937
X+01289Y+015227
X+013052Y+015222
X+014237Y+013735
X+014387Y+01372
X+01511Y+011415
X+01519Y+01374
X+014537Y+013735
X+014687
X+01583Y+0099
X+015307Y+01065
X+015877Y+012975
X+0161Y+01217
X+016247Y+0145
X+016945Y+01217
X+005347Y+008275
X+00459Y+00857
X+00455Y+012757
X+005312Y+01425
X+006072Y+01496
X+008375Y+00884
X+006867Y+008852
X+00913Y+009712
X+006845Y+009412
X+00761Y+01059
X+00838Y+010352
X+007642Y+01046
X+008357Y+010912
X+00912Y+012687
X+006882Y+01428
X+008372Y+014295
X+006852Y+01494
X+010687Y+008832
X+00993Y+00934
X+011442Y+0112
X+009925Y+010875
X+010677Y+012055
X+011415Y+011732
X+011445Y+011677
X+011455Y+011625
X+009885Y+011752
Y+011645
X+011447Y+012715
X+00993Y+01271
X+009907Y+012352
X+010645Y+012265
X+01067Y+013575
Y+013215
X+010672Y+0135
X+01067Y+01363
X+009912Y+013312
X+009902Y+013075
X+012205Y+01329
X+01221Y+013145
X+01069Y+013372
X+012197Y+013562
X+01068Y+013785
X+01067Y+014015
Y+013895
X+009895Y+014047
X+01219Y+013745
X+009917Y+0144
X+009907Y+014332
X+010655Y+015542
X+014462Y+009315
X+013707Y+01108
X+012972Y+01356
X+0145Y+014377
X+01371Y+013942
X+012952Y+015175
X+015982Y+014957
X+009152Y+01141
X+009892Y+012195
X+00993Y+015252
T03
X+004395Y+008192
Y+008572
Y+008762
Y+008952
X+00439Y+00969
Y+01045
Y+01007
Y+01026
Y+01102
Y+01121
Y+01083
Y+01197
Y+01178
Y+01159
Y+01235
Y+01254
Y+01292
Y+01273
Y+01311
Y+01345
Y+014362
Y+014552
Y+014742
Y+015122
Y+014932
X+00505Y+008082
X+00524
X+004767Y+01013
X+005203Y+010455
X+005212Y+010257
X+004672Y+01169
X+005037
X+004765Y+013127
X+005177Y+013322
X+004837Y+013755
X+004927Y+015072
X+004727Y+015125
X+005155Y+015152
X+005035Y+015147
X+005245Y+015085
X+004825Y+01545
X+005175
X+00543Y+008082
X+00562
X+00582Y+009025
X+005402Y+008902
X+005725Y+0098
X+005855Y+010022
X+005752Y+010875
X+005525Y+01128
X+005387Y+011272
X+00575Y+011667
X+005525Y+011507
X+005387
X+005635Y+013812
X+005885Y+014237
X+005982Y+01425
X+0055Y+014632
X+005372Y+015082
X+00564Y+015125
X+0055Y+014832
X+005642Y+01504
X+005892Y+015
X+00588Y+01545
X+00553
X+006007Y+015495
X+006577Y+008077
X+006505Y+009047
X+006635Y+009842
X+00648Y+010175
X+00656Y+010177
X+006135Y+011177
X+006202
X+006587Y+011645
X+006742Y+01162
X+006612Y+01497
X+006527Y+01566
X+006535Y+015405
X+006462Y+015332
X+007252Y+00832
X+00739Y+008082
X+00758
X+007075Y+009837
X+007155Y+009815
X+007092Y+00975
X+007292Y+009327
X+007507Y+009247
X+007372Y+009452
X+00694Y+01157
X+007065Y+012235
X+007282Y+012795
X+007062Y+01237
Y+012442
X+007402Y+014372
X+007092Y+014997
X+007297Y+015015
X+007387Y+01566
X+007575Y+015662
X+00834Y+008082
X+00815
X+00796
X+00777
X+007867Y+00907
X+00776Y+01036
X+007882Y+010392
X+007942Y+010442
X+007822Y+01167
X+008005Y+012312
X+00766Y+01351
X+007952Y+014322
X+00795Y+014932
X+007817Y+014745
Y+014665
Y+014585
X+007985Y+01466
Y+014745
Y+014585
X+00808Y+014745
Y+01466
X+008172
X+007785Y+015655
X+007957Y+01565
X+00833Y+015342
X+0091Y+008082
X+00872
X+00891
X+00853
X+008815Y+01122
X+008892Y+011502
X+008692Y+01533
X+008817Y+015577
X+00877Y+015512
X+00873Y+01558
X+00986Y+008082
X+00967
X+00948
X+00929
X+009285Y+009757
X+009537Y+011205
X+009325Y+01122
X+009247
X+009737Y+011792
Y+011727
Y+011857
X+009312Y+012607
X+009315Y+01254
X+009312Y+01268
X+009767Y+012417
X+009315Y+014437
X+009667Y+01488
X+0095Y+014702
X+00951Y+01488
X+009315Y+014585
X+009387
Y+014515
X+009232Y+015327
X+01005Y+008082
X+01024
X+01043
X+01062
X+0105Y+01183
X+010082Y+011907
X+01047Y+015502
X+010165Y+015515
X+009965
X+01138Y+008082
X+01119
X+011
X+01081
X+010872Y+011517
X+010985Y+011467
X+01135Y+014267
X+01136Y+015562
X+01117
X+01098
X+01214Y+008082
X+01195
X+01176
X+01157
X+011867Y+011862
Y+011795
X+011785Y+011937
X+011867Y+01193
Y+012
X+011785Y+012007
X+01179Y+012102
X+011492Y+015117
X+01155Y+015562
X+0129Y+008082
X+01271
X+01252
X+01233
X+012582Y+0098
X+012752Y+011232
X+012607Y+01197
X+012562Y+011902
X+012557Y+01204
X+012502Y+011985
X+01247Y+01207
X+012417Y+01215
X+01263Y+01149
X+012542
X+012302Y+011702
X+012322Y+011522
X+012257Y+011782
X+012342
X+012385Y+011715
X+01235Y+014865
X+012575Y+015387
X+012497
X+012725Y+01553
X+01328Y+008082
X+01309
X+01347
X+01366
X+013317Y+011967
X+01352Y+012117
X+01345
X+01336Y+012915
X+013465Y+01245
X+013545
X+013585Y+01232
X+013335Y+012992
X+012992Y+01553
X+013262
X+013475Y+01542
X+01385Y+008082
X+01404
X+01423
X+01442
X+014285Y+011337
X+01435Y+011382
X+014425Y+011915
Y+011842
X+014242Y+012315
X+014227Y+01223
X+01417Y+012317
X+013895Y+0123
X+014095Y+014285
X+014215Y+014422
X+014307Y+015532
X+014117
X+01518Y+008082
X+01499
X+0148
X+01461
X+014972Y+010135
X+01465Y+012307
X+01467Y+014365
X+01459
X+015042Y+0141
X+01497
X+015115
X+01486Y+014842
X+014942
X+014687Y+015532
X+01594Y+008082
X+01575
X+01556
X+01537
X+015921Y+009067
X+015723
X+015522Y+00931
X+015347Y+01014
X+015472Y+011057
X+015942Y+011062
X+015427Y+01209
Y+0119
Y+01228
X+015332Y+01316
Y+01335
Y+01354
X+015302Y+01413
X+015377
X+015662Y+01495
X+015592Y+015277
X+015782
X+0167Y+008082
X+01651
X+01632
X+01613
X+01612Y+009745
X+016328Y+009232
X+01644Y+010145
X+016597Y+010267
X+016417Y+010607
Y+010532
X+016267Y+010607
X+016342
X+016267Y+010532
X+016342
X+016605Y+01012
X+016365Y+011375
X+016287
X+016207
X+016127
X+016442
X+016127Y+011295
X+016525
X+01652Y+011375
X+016595Y+011337
X+016125Y+012467
Y+012635
Y+012882
Y+013085
X+016382Y+013952
X+01649Y+014232
X+01627Y+014165
X+016382Y+014167
X+01618Y+014585
X+016715Y+015157
X+01622Y+015162
X+01637Y+015159
X+01657Y+015157
X+016117Y+015455
X+01647Y+015457
X+01689Y+008082
X+01746
X+01727
X+01708
X+016845Y+009595
X+016892Y+009807
X+016802Y+009805
X+017147Y+011095
X+017072Y+01117
Y+011095
X+017147Y+01117
X+017227
Y+011245
X+016997Y+01117
X+017147Y+011245
X+017227Y+01132
X+017265Y+015155
X+016915Y+01516
X+017065Y+015157
X+016817Y+015457
X+01717Y+01546
X+017615Y+008272
Y+008462
Y+008652
Y+008842
Y+009032
Y+010427
Y+010237
Y+010617
Y+010807
Y+011367
Y+011177
Y+010987
Y+012127
Y+011747
Y+011937
Y+011557
Y+012507
Y+012697
Y+012317
Y+012887
Y+013077
Y+013267
Y+014355
Y+015115
Y+014925
Y+014735
Y+014545
X+004395Y+008382
X+00439Y+01216
Y+0114
Y+01064
Y+00988
Y+013727
X+004942Y+011455
X+004747Y+013687
X+00482
X+005026Y+013598
Y+013518
X+00545Y+01448
X+006277Y+015267
X+007102Y+009135
X+006902Y+012217
X+007202Y+01146
X+007287Y+011545
X+007202Y+01163
X+007372
Y+01146
X+008005Y+012192
X+008332Y+015257
X+00857
X+00865
X+00849
X+008415Y+014452
X+009232Y+015257
X+009315Y+01451
X+010907Y+011452
X+010725Y+011412
X+01128Y+011425
X+011195Y+011422
X+013447Y+012217
X+01328Y+012935
X+014285Y+011432
X+01404Y+014457
X+01587Y+012215
X+016126Y+009155
X+016252Y+010682
X+017445Y+01527
X+004592Y+008095
X+00609Y+009607
X+004567Y+015305
X+006105Y+015655
X+00609Y+015365
X+00759Y+009832
X+012207Y+01128
Y+011192
X+012217Y+011702
X+012175Y+011782
X+011415Y+01507
X+01142Y+01517
X+015227Y+01413
X+01527Y+014885
X+014497Y+015532
X+015977Y+009745
X+01602Y+015159
X+004577Y+011455
X+00611Y+00993
X+005365Y+013672
X+007487Y+009062
X+007597
X+007487Y+009162
X+007597
X+007542Y+009112
X+00841Y+015257
X+008907Y+015112
X+009057
Y+015212
X+008982Y+015162
X+008907Y+015212
X+010652Y+011412
X+014714Y+011455
X+014799Y+01154
X+014884Y+011455
Y+011625
X+014714
X+016915Y+010227
Y+010047
X+016815
Y+010227
X+016915Y+010137
X+016815
X+00987Y+01505
Y+01517
X+00978Y+01505
X+009825Y+01511
X+00978Y+01517
T04
X+006295Y+008297
Y+008032
X+007035Y+008202
X+008512Y+01498
X+008535Y+015522
X+010865Y+00851
X+011167
X+013927Y+01557
Y+01542
X+014887Y+015575
Y+015425
X+017455Y+014782
Y+01458
X+006295Y+009152
X+016605Y+008337
X+004545Y+014785
X+005277Y+014775
X+004545Y+014582
X+016725Y+0148
X+005295Y+014557
X+00693Y+008425
X+015245Y+008337
X+016702Y+014557
T05
X+015262Y+015426
X+015452
T06
X+01635Y+01071
Y+01115
T07
X+00479Y+008081
X+00581
T08
X+008102Y+01566
Y+01516
X+01418Y+015313
X+01462
T09
X+010764Y+008729
X+008651Y+013118
X+00821Y+012487
X+013055
X+013496Y+013118
X+014064Y+008729
T10
X+012522Y+015615
Y+015113
X+013432
Y+015615
T11
X+008144Y+009229
X+011444
T12
X+006675Y+008397
Y+009097
T13
X+006387Y+013962
X+0049Y+0107
X+0171
X+012987Y+014205
T14
X+01743Y+009905
Y+013555
T15
X+011657Y+014921
X+010343Y+014922
T16
X+0046Y+014067
X+0174
X+0046Y+00935
X+0174
X+01208Y+015412
T00
M30
