M48
METRIC,LZ,0000.00
T01C0.10
T02C0.20
T03C0.30
T04C0.46
T05C0.60
T06C0.70
T07C0.80
T08C0.85
T09C1.05
T10C1.10
T11C1.20
T12C1.70
T13C2.00
T14C2.00
T15C2.30
T16C5.25
%
T01
X+008535Y+013667
X+009042Y+013225
X+008995Y+013502
X+0086Y+013667
X+009657Y+012632
X+00978Y+012802
X+009815Y+013215
X+009695
X+009615Y+013255
Y+013295
X+009815Y+013695
X+009615Y+013575
Y+013535
Y+013615
Y+013375
X+009655
X+009615Y+013495
X+009487Y+013077
X+009855Y+013415
X+009655Y+013255
X+009815Y+013535
X+009615Y+013695
X+009815Y+013655
X+009655Y+013415
Y+013655
X+009815Y+013575
X+009807Y+013005
X+009655Y+013215
X+009815Y+013495
Y+013455
Y+013735
X+009615
X+009655
X+009615Y+014055
Y+013975
X+009655
X+009615Y+013935
X+009655
X+009615Y+013895
Y+014095
X+009575Y+014135
X+009735Y+014175
Y+014135
X+009695
X+009655
X+009615
X+009695Y+014095
X+009615Y+013855
X+009815Y+013775
X+010212Y+012115
X+010252
X+010172
X+010372Y+012155
X+010332
X+010412
X+010252
X+010372Y+012115
X+010012Y+012155
X+010452Y+012515
X+00997Y+012857
X+010492Y+012275
Y+012235
X+010012Y+012275
X+010052
X+010012Y+012315
X+010052
X+010012Y+012395
X+010052
X+010012Y+012435
X+010052
X+009972Y+012235
X+010012
X+010052
X+010452Y+012275
X+010412
X+010332
X+010096Y+012475
X+010172Y+012435
X+010252Y+012355
X+010452Y+012435
X+010212Y+012275
X+010252
Y+012235
X+010292Y+012275
X+010212Y+012235
X+010172Y+012315
Y+012275
X+010292Y+012235
X+010252Y+012395
X+010292Y+012355
X+010327Y+012412
X+010292Y+012435
Y+012395
X+010412Y+012435
X+010172Y+012395
X+010205Y+012695
X+010277Y+012862
X+010015Y+013215
X+009935
X+010535Y+013335
X+010375Y+013215
Y+013255
X+010535Y+013535
Y+013455
X+010495
X+010535Y+013415
X+010335Y+013455
X+010495Y+013255
X+009975Y+013415
X+009935
X+010135
X+010175
X+010215
X+010255
X+010415Y+013255
Y+013215
X+010455Y+013255
X+010295Y+013415
X+010335
X+010295Y+013215
X+010455
X+010535Y+013375
X+010175Y+013135
X+010255Y+013215
Y+013255
X+010215Y+013215
X+010125Y+013087
X+010215Y+013255
X+010135Y+013215
Y+013255
X+011302Y+012895
X+01099Y+012567
X+011117Y+012787
X+010987Y+012887
X+01116Y+012765
X+011317Y+013435
X+011415Y+013315
X+011395Y+01299
X+011252Y+013625
Y+013582
X+011195Y+013002
X+011032Y+013375
X+011
X+010857Y+01418
X+010815Y+014225
X+010737Y+015085
Y+01501
X+01076Y+015047
X+011542Y+0129
X+01174Y+012812
X+011727Y+012905
X+011977Y+012777
X+01213Y+012842
X+011617Y+012812
X+011867Y+012782
X+012077Y+01274
X+011455Y+013395
X+011462Y+013225
X+011495Y+013255
X+011465Y+01299
X+011455Y+013315
X+011495Y+013355
X+0115Y+01299
X+011545Y+013272
X+011495Y+013395
X+011645Y+013435
X+011575Y+013475
X+011535
X+011495
X+011455Y+013435
X+011807Y+013055
X+012045Y+013295
X+011702Y+013182
X+012045Y+013095
X+011777Y+01316
X+012095Y+013295
X+011852Y+013062
X+012045Y+013245
X+012095
Y+013145
X+011455Y+013355
X+011535Y+013315
X+01235Y+012842
X+012365Y+012745
X+010052Y+012195
X+01143Y+01299
X+009895Y+013415
T00
M30
