G75*
%MOIN*%
%OFA0B0*%
%FSLAX24Y24*%
%IPPOS*%
%LPD*%
%AMOC8*
5,1,8,0,0,1.08239X$1,22.5*
%
%ADD10C,0.0000*%
%ADD11C,0.0600*%
%ADD12C,0.0748*%
%ADD13C,0.0060*%
%ADD14C,0.0240*%
%ADD15C,0.0238*%
%ADD16C,0.0160*%
%ADD17C,0.0197*%
%ADD18C,0.0120*%
%ADD19C,0.0118*%
%ADD20C,0.0079*%
%ADD21C,0.0277*%
%ADD22C,0.0356*%
%ADD23C,0.0100*%
D10*
X000150Y004791D02*
X000150Y032921D01*
X000878Y032940D02*
X000880Y032990D01*
X000886Y033040D01*
X000896Y033089D01*
X000910Y033137D01*
X000927Y033184D01*
X000948Y033229D01*
X000973Y033273D01*
X001001Y033314D01*
X001033Y033353D01*
X001067Y033390D01*
X001104Y033424D01*
X001144Y033454D01*
X001186Y033481D01*
X001230Y033505D01*
X001276Y033526D01*
X001323Y033542D01*
X001371Y033555D01*
X001421Y033564D01*
X001470Y033569D01*
X001521Y033570D01*
X001571Y033567D01*
X001620Y033560D01*
X001669Y033549D01*
X001717Y033534D01*
X001763Y033516D01*
X001808Y033494D01*
X001851Y033468D01*
X001892Y033439D01*
X001931Y033407D01*
X001967Y033372D01*
X001999Y033334D01*
X002029Y033294D01*
X002056Y033251D01*
X002079Y033207D01*
X002098Y033161D01*
X002114Y033113D01*
X002126Y033064D01*
X002134Y033015D01*
X002138Y032965D01*
X002138Y032915D01*
X002134Y032865D01*
X002126Y032816D01*
X002114Y032767D01*
X002098Y032719D01*
X002079Y032673D01*
X002056Y032629D01*
X002029Y032586D01*
X001999Y032546D01*
X001967Y032508D01*
X001931Y032473D01*
X001892Y032441D01*
X001851Y032412D01*
X001808Y032386D01*
X001763Y032364D01*
X001717Y032346D01*
X001669Y032331D01*
X001620Y032320D01*
X001571Y032313D01*
X001521Y032310D01*
X001470Y032311D01*
X001421Y032316D01*
X001371Y032325D01*
X001323Y032338D01*
X001276Y032354D01*
X001230Y032375D01*
X001186Y032399D01*
X001144Y032426D01*
X001104Y032456D01*
X001067Y032490D01*
X001033Y032527D01*
X001001Y032566D01*
X000973Y032607D01*
X000948Y032651D01*
X000927Y032696D01*
X000910Y032743D01*
X000896Y032791D01*
X000886Y032840D01*
X000880Y032890D01*
X000878Y032940D01*
X000150Y032920D02*
X000154Y032992D01*
X000163Y033064D01*
X000175Y033136D01*
X000191Y033206D01*
X000211Y033276D01*
X000234Y033344D01*
X000261Y033411D01*
X000292Y033477D01*
X000326Y033541D01*
X000363Y033603D01*
X000403Y033663D01*
X000447Y033720D01*
X000494Y033776D01*
X000543Y033828D01*
X000596Y033878D01*
X000651Y033925D01*
X000708Y033970D01*
X000768Y034011D01*
X000829Y034048D01*
X000893Y034083D01*
X000958Y034114D01*
X001025Y034141D01*
X001094Y034165D01*
X001163Y034185D01*
X001233Y034202D01*
X001305Y034215D01*
X001377Y034224D01*
X001449Y034229D01*
X001521Y034230D01*
X001593Y034227D01*
X001665Y034221D01*
X001737Y034211D01*
X001808Y034196D01*
X001878Y034179D01*
X001947Y034157D01*
X002015Y034132D01*
X002081Y034103D01*
X002146Y034071D01*
X002209Y034035D01*
X002270Y033996D01*
X002329Y033954D01*
X002385Y033909D01*
X002439Y033861D01*
X002491Y033810D01*
X002539Y033756D01*
X002585Y033700D01*
X002628Y033641D01*
X002667Y033581D01*
X002703Y033518D01*
X002736Y033454D01*
X002765Y033387D01*
X002791Y033320D01*
X002813Y033251D01*
X002831Y033181D01*
X002846Y033110D01*
X002857Y033038D01*
X002864Y032966D01*
X002867Y032894D01*
X002866Y032822D01*
X002866Y029791D01*
X036803Y029791D01*
X036803Y033058D01*
X036805Y033130D01*
X036811Y033202D01*
X036820Y033274D01*
X036834Y033345D01*
X036851Y033415D01*
X036872Y033485D01*
X036896Y033553D01*
X036924Y033619D01*
X036956Y033684D01*
X036991Y033747D01*
X037029Y033809D01*
X037071Y033868D01*
X037116Y033925D01*
X037163Y033979D01*
X037214Y034031D01*
X037267Y034080D01*
X037322Y034126D01*
X037380Y034169D01*
X037441Y034209D01*
X037503Y034246D01*
X037567Y034279D01*
X037633Y034309D01*
X037700Y034335D01*
X037769Y034358D01*
X037839Y034377D01*
X037909Y034392D01*
X037981Y034404D01*
X038053Y034412D01*
X038125Y034416D01*
X038197Y034416D01*
X038269Y034412D01*
X038341Y034404D01*
X038413Y034392D01*
X038483Y034377D01*
X038553Y034358D01*
X038622Y034335D01*
X038689Y034309D01*
X038755Y034279D01*
X038819Y034246D01*
X038881Y034209D01*
X038942Y034169D01*
X039000Y034126D01*
X039055Y034080D01*
X039108Y034031D01*
X039159Y033979D01*
X039206Y033925D01*
X039251Y033868D01*
X039293Y033809D01*
X039331Y033747D01*
X039366Y033684D01*
X039398Y033619D01*
X039426Y033553D01*
X039450Y033485D01*
X039471Y033415D01*
X039488Y033345D01*
X039502Y033274D01*
X039511Y033202D01*
X039517Y033130D01*
X039519Y033058D01*
X039520Y033058D02*
X039520Y004791D01*
X037531Y004791D02*
X037533Y004841D01*
X037539Y004891D01*
X037549Y004940D01*
X037563Y004988D01*
X037580Y005035D01*
X037601Y005080D01*
X037626Y005124D01*
X037654Y005165D01*
X037686Y005204D01*
X037720Y005241D01*
X037757Y005275D01*
X037797Y005305D01*
X037839Y005332D01*
X037883Y005356D01*
X037929Y005377D01*
X037976Y005393D01*
X038024Y005406D01*
X038074Y005415D01*
X038123Y005420D01*
X038174Y005421D01*
X038224Y005418D01*
X038273Y005411D01*
X038322Y005400D01*
X038370Y005385D01*
X038416Y005367D01*
X038461Y005345D01*
X038504Y005319D01*
X038545Y005290D01*
X038584Y005258D01*
X038620Y005223D01*
X038652Y005185D01*
X038682Y005145D01*
X038709Y005102D01*
X038732Y005058D01*
X038751Y005012D01*
X038767Y004964D01*
X038779Y004915D01*
X038787Y004866D01*
X038791Y004816D01*
X038791Y004766D01*
X038787Y004716D01*
X038779Y004667D01*
X038767Y004618D01*
X038751Y004570D01*
X038732Y004524D01*
X038709Y004480D01*
X038682Y004437D01*
X038652Y004397D01*
X038620Y004359D01*
X038584Y004324D01*
X038545Y004292D01*
X038504Y004263D01*
X038461Y004237D01*
X038416Y004215D01*
X038370Y004197D01*
X038322Y004182D01*
X038273Y004171D01*
X038224Y004164D01*
X038174Y004161D01*
X038123Y004162D01*
X038074Y004167D01*
X038024Y004176D01*
X037976Y004189D01*
X037929Y004205D01*
X037883Y004226D01*
X037839Y004250D01*
X037797Y004277D01*
X037757Y004307D01*
X037720Y004341D01*
X037686Y004378D01*
X037654Y004417D01*
X037626Y004458D01*
X037601Y004502D01*
X037580Y004547D01*
X037563Y004594D01*
X037549Y004642D01*
X037539Y004691D01*
X037533Y004741D01*
X037531Y004791D01*
X036803Y004791D02*
X036805Y004719D01*
X036811Y004647D01*
X036820Y004575D01*
X036834Y004504D01*
X036851Y004434D01*
X036872Y004364D01*
X036896Y004296D01*
X036924Y004230D01*
X036956Y004165D01*
X036991Y004102D01*
X037029Y004040D01*
X037071Y003981D01*
X037116Y003924D01*
X037163Y003870D01*
X037214Y003818D01*
X037267Y003769D01*
X037322Y003723D01*
X037380Y003680D01*
X037441Y003640D01*
X037503Y003603D01*
X037567Y003570D01*
X037633Y003540D01*
X037700Y003514D01*
X037769Y003491D01*
X037839Y003472D01*
X037909Y003457D01*
X037981Y003445D01*
X038053Y003437D01*
X038125Y003433D01*
X038197Y003433D01*
X038269Y003437D01*
X038341Y003445D01*
X038413Y003457D01*
X038483Y003472D01*
X038553Y003491D01*
X038622Y003514D01*
X038689Y003540D01*
X038755Y003570D01*
X038819Y003603D01*
X038881Y003640D01*
X038942Y003680D01*
X039000Y003723D01*
X039055Y003769D01*
X039108Y003818D01*
X039159Y003870D01*
X039206Y003924D01*
X039251Y003981D01*
X039293Y004040D01*
X039331Y004102D01*
X039366Y004165D01*
X039398Y004230D01*
X039426Y004296D01*
X039450Y004364D01*
X039471Y004434D01*
X039488Y004504D01*
X039502Y004575D01*
X039511Y004647D01*
X039517Y004719D01*
X039519Y004791D01*
X036803Y004791D02*
X036803Y007212D01*
X037039Y007212D01*
X037039Y007901D01*
X002866Y007901D01*
X002866Y004732D01*
X002867Y004731D02*
X002863Y004659D01*
X002856Y004587D01*
X002845Y004516D01*
X002830Y004445D01*
X002811Y004375D01*
X002789Y004306D01*
X002763Y004239D01*
X002733Y004173D01*
X002700Y004108D01*
X002664Y004046D01*
X002624Y003985D01*
X002581Y003927D01*
X002535Y003871D01*
X002486Y003818D01*
X002435Y003767D01*
X002380Y003719D01*
X002324Y003674D01*
X002265Y003632D01*
X002204Y003594D01*
X002141Y003558D01*
X002076Y003526D01*
X002009Y003498D01*
X001941Y003473D01*
X001872Y003452D01*
X001802Y003434D01*
X001731Y003420D01*
X001659Y003410D01*
X001587Y003404D01*
X001515Y003402D01*
X001442Y003404D01*
X001370Y003409D01*
X001298Y003418D01*
X001227Y003431D01*
X001157Y003448D01*
X001087Y003469D01*
X001019Y003493D01*
X000953Y003521D01*
X000887Y003552D01*
X000824Y003587D01*
X000762Y003625D01*
X000703Y003666D01*
X000646Y003711D01*
X000591Y003758D01*
X000539Y003808D01*
X000490Y003861D01*
X000443Y003917D01*
X000400Y003974D01*
X000359Y004035D01*
X000322Y004097D01*
X000289Y004161D01*
X000259Y004226D01*
X000232Y004294D01*
X000209Y004362D01*
X000189Y004432D01*
X000174Y004503D01*
X000162Y004574D01*
X000154Y004646D01*
X000150Y004718D01*
X000149Y004791D01*
X000878Y004791D02*
X000880Y004841D01*
X000886Y004891D01*
X000896Y004940D01*
X000910Y004988D01*
X000927Y005035D01*
X000948Y005080D01*
X000973Y005124D01*
X001001Y005165D01*
X001033Y005204D01*
X001067Y005241D01*
X001104Y005275D01*
X001144Y005305D01*
X001186Y005332D01*
X001230Y005356D01*
X001276Y005377D01*
X001323Y005393D01*
X001371Y005406D01*
X001421Y005415D01*
X001470Y005420D01*
X001521Y005421D01*
X001571Y005418D01*
X001620Y005411D01*
X001669Y005400D01*
X001717Y005385D01*
X001763Y005367D01*
X001808Y005345D01*
X001851Y005319D01*
X001892Y005290D01*
X001931Y005258D01*
X001967Y005223D01*
X001999Y005185D01*
X002029Y005145D01*
X002056Y005102D01*
X002079Y005058D01*
X002098Y005012D01*
X002114Y004964D01*
X002126Y004915D01*
X002134Y004866D01*
X002138Y004816D01*
X002138Y004766D01*
X002134Y004716D01*
X002126Y004667D01*
X002114Y004618D01*
X002098Y004570D01*
X002079Y004524D01*
X002056Y004480D01*
X002029Y004437D01*
X001999Y004397D01*
X001967Y004359D01*
X001931Y004324D01*
X001892Y004292D01*
X001851Y004263D01*
X001808Y004237D01*
X001763Y004215D01*
X001717Y004197D01*
X001669Y004182D01*
X001620Y004171D01*
X001571Y004164D01*
X001521Y004161D01*
X001470Y004162D01*
X001421Y004167D01*
X001371Y004176D01*
X001323Y004189D01*
X001276Y004205D01*
X001230Y004226D01*
X001186Y004250D01*
X001144Y004277D01*
X001104Y004307D01*
X001067Y004341D01*
X001033Y004378D01*
X001001Y004417D01*
X000973Y004458D01*
X000948Y004502D01*
X000927Y004547D01*
X000910Y004594D01*
X000896Y004642D01*
X000886Y004691D01*
X000880Y004741D01*
X000878Y004791D01*
X001823Y012094D02*
X001823Y028432D01*
X012158Y028432D01*
X012158Y012094D01*
X001823Y012094D01*
X037531Y032921D02*
X037533Y032971D01*
X037539Y033021D01*
X037549Y033070D01*
X037563Y033118D01*
X037580Y033165D01*
X037601Y033210D01*
X037626Y033254D01*
X037654Y033295D01*
X037686Y033334D01*
X037720Y033371D01*
X037757Y033405D01*
X037797Y033435D01*
X037839Y033462D01*
X037883Y033486D01*
X037929Y033507D01*
X037976Y033523D01*
X038024Y033536D01*
X038074Y033545D01*
X038123Y033550D01*
X038174Y033551D01*
X038224Y033548D01*
X038273Y033541D01*
X038322Y033530D01*
X038370Y033515D01*
X038416Y033497D01*
X038461Y033475D01*
X038504Y033449D01*
X038545Y033420D01*
X038584Y033388D01*
X038620Y033353D01*
X038652Y033315D01*
X038682Y033275D01*
X038709Y033232D01*
X038732Y033188D01*
X038751Y033142D01*
X038767Y033094D01*
X038779Y033045D01*
X038787Y032996D01*
X038791Y032946D01*
X038791Y032896D01*
X038787Y032846D01*
X038779Y032797D01*
X038767Y032748D01*
X038751Y032700D01*
X038732Y032654D01*
X038709Y032610D01*
X038682Y032567D01*
X038652Y032527D01*
X038620Y032489D01*
X038584Y032454D01*
X038545Y032422D01*
X038504Y032393D01*
X038461Y032367D01*
X038416Y032345D01*
X038370Y032327D01*
X038322Y032312D01*
X038273Y032301D01*
X038224Y032294D01*
X038174Y032291D01*
X038123Y032292D01*
X038074Y032297D01*
X038024Y032306D01*
X037976Y032319D01*
X037929Y032335D01*
X037883Y032356D01*
X037839Y032380D01*
X037797Y032407D01*
X037757Y032437D01*
X037720Y032471D01*
X037686Y032508D01*
X037654Y032547D01*
X037626Y032588D01*
X037601Y032632D01*
X037580Y032677D01*
X037563Y032724D01*
X037549Y032772D01*
X037539Y032821D01*
X037533Y032871D01*
X037531Y032921D01*
D11*
X014331Y026626D02*
X014331Y026026D01*
X013331Y026026D02*
X013331Y026626D01*
D12*
X010347Y011424D03*
X010347Y010102D03*
X007906Y010102D03*
X007906Y011424D03*
D13*
X007936Y011447D02*
X008782Y011447D01*
X008809Y011474D02*
X008573Y011238D01*
X008573Y010392D01*
X008398Y010216D01*
X008397Y010220D01*
X008373Y010295D01*
X008337Y010366D01*
X008290Y010430D01*
X008234Y010486D01*
X008170Y010533D01*
X008099Y010569D01*
X008024Y010593D01*
X007945Y010606D01*
X007936Y010606D01*
X007936Y010132D01*
X007876Y010132D01*
X007876Y010606D01*
X007866Y010606D01*
X007788Y010593D01*
X007712Y010569D01*
X007641Y010533D01*
X007577Y010486D01*
X007521Y010430D01*
X007475Y010366D01*
X007439Y010295D01*
X007414Y010220D01*
X007402Y010141D01*
X007402Y010132D01*
X007876Y010132D01*
X007876Y010072D01*
X007936Y010072D01*
X007936Y009598D01*
X007945Y009598D01*
X008024Y009610D01*
X008099Y009635D01*
X008170Y009671D01*
X008234Y009717D01*
X008290Y009773D01*
X008337Y009837D01*
X008373Y009908D01*
X008376Y009919D01*
X008376Y009821D01*
X008142Y009586D01*
X008016Y009586D01*
X007893Y009464D01*
X007893Y009291D01*
X008016Y009168D01*
X008189Y009168D01*
X008311Y009291D01*
X008311Y009417D01*
X008546Y009651D01*
X008616Y009721D01*
X008616Y010095D01*
X008743Y010222D01*
X008813Y010292D01*
X008813Y010505D01*
X008849Y010469D01*
X008849Y009032D01*
X008919Y008962D01*
X009368Y008513D01*
X009097Y008513D01*
X008979Y008631D01*
X008625Y008631D01*
X008231Y009025D01*
X007766Y009025D01*
X007677Y009114D01*
X007504Y009114D01*
X007382Y008991D01*
X007382Y008818D01*
X007504Y008696D01*
X007677Y008696D01*
X007766Y008785D01*
X008131Y008785D01*
X008157Y008760D01*
X008095Y008760D01*
X007972Y008637D01*
X007972Y008464D01*
X008095Y008341D01*
X008221Y008341D01*
X008258Y008304D01*
X008328Y008234D01*
X008553Y008234D01*
X008543Y008224D01*
X008543Y008050D01*
X008563Y008031D01*
X002812Y008031D01*
X002736Y007955D01*
X002736Y007901D01*
X000280Y007901D01*
X000280Y029791D01*
X002736Y029791D01*
X002736Y029737D01*
X002812Y029661D01*
X036857Y029661D01*
X036933Y029737D01*
X036933Y029791D01*
X039390Y029791D01*
X039390Y025572D01*
X039292Y025670D01*
X039118Y025670D01*
X039078Y025630D01*
X037800Y025630D01*
X037878Y025708D01*
X037878Y025881D01*
X037756Y026004D01*
X037583Y026004D01*
X037514Y025935D01*
X037054Y025935D01*
X037066Y025946D01*
X037100Y025981D01*
X037100Y025982D01*
X037750Y026648D01*
X037874Y026648D01*
X037998Y026771D01*
X037998Y026945D01*
X037874Y027068D01*
X037700Y027068D01*
X037577Y026945D01*
X037577Y026814D01*
X036930Y026151D01*
X034342Y026151D01*
X034233Y026261D01*
X034059Y026261D01*
X033936Y026137D01*
X033936Y025963D01*
X033965Y025935D01*
X028376Y025935D01*
X028307Y026004D01*
X028134Y026004D01*
X028065Y025935D01*
X023888Y025935D01*
X023819Y026004D01*
X023646Y026004D01*
X023577Y025935D01*
X014920Y025935D01*
X014721Y026134D01*
X014721Y026704D01*
X014661Y026847D01*
X014552Y026957D01*
X014408Y027016D01*
X014253Y027016D01*
X014110Y026957D01*
X014000Y026847D01*
X013941Y026704D01*
X013941Y025948D01*
X014000Y025805D01*
X014110Y025695D01*
X014253Y025636D01*
X014408Y025636D01*
X014552Y025695D01*
X014658Y025801D01*
X014804Y025655D01*
X023577Y025655D01*
X023646Y025586D01*
X023819Y025586D01*
X023888Y025655D01*
X028065Y025655D01*
X028134Y025586D01*
X028307Y025586D01*
X028376Y025655D01*
X033039Y025655D01*
X032932Y025547D01*
X032932Y025373D01*
X033055Y025250D01*
X033229Y025250D01*
X033269Y025290D01*
X039078Y025290D01*
X039118Y025250D01*
X039292Y025250D01*
X039390Y025348D01*
X039390Y007901D01*
X037169Y007901D01*
X037169Y007955D01*
X037093Y008031D01*
X035537Y008031D01*
X035596Y008089D01*
X035596Y008217D01*
X035604Y008225D01*
X035604Y009269D01*
X035093Y009781D01*
X035022Y009852D01*
X034589Y009852D01*
X034034Y010407D01*
X033999Y010442D01*
X033999Y010442D01*
X033999Y010442D01*
X033949Y010442D01*
X030269Y010460D01*
X030307Y010497D01*
X036311Y010497D01*
X036382Y010427D01*
X036556Y010427D01*
X036679Y010550D01*
X036679Y010724D01*
X036669Y010734D01*
X037217Y010734D01*
X037307Y010644D01*
X037481Y010644D01*
X037604Y010767D01*
X037604Y010941D01*
X037481Y011064D01*
X037307Y011064D01*
X037217Y010974D01*
X035632Y010974D01*
X034884Y011722D01*
X032955Y011722D01*
X032607Y012069D01*
X032630Y012092D01*
X032740Y011982D01*
X032828Y011982D01*
X032895Y011915D01*
X032762Y011915D01*
X032704Y011973D02*
X032837Y011973D01*
X032895Y011915D02*
X034979Y011915D01*
X034979Y011790D01*
X035102Y011667D01*
X035276Y011667D01*
X035399Y011790D01*
X035399Y011964D01*
X035276Y012087D01*
X035149Y012087D01*
X035081Y012155D01*
X033037Y012155D01*
X033037Y012279D01*
X032914Y012402D01*
X032740Y012402D01*
X032630Y012292D01*
X032520Y012402D01*
X032346Y012402D01*
X032223Y012279D01*
X032223Y012237D01*
X031873Y012588D01*
X028201Y012588D01*
X028111Y012678D01*
X027937Y012678D01*
X027814Y012555D01*
X027814Y012381D01*
X027912Y012282D01*
X025881Y012282D01*
X025802Y012361D01*
X025160Y012361D01*
X025079Y012442D01*
X024905Y012442D01*
X024782Y012319D01*
X024782Y012145D01*
X024905Y012022D01*
X025079Y012022D01*
X025121Y012063D01*
X025530Y012063D01*
X025471Y012004D01*
X025471Y011830D01*
X025594Y011707D01*
X025765Y011707D01*
X025727Y011669D01*
X025727Y011495D01*
X025850Y011372D01*
X025902Y011372D01*
X025865Y011334D01*
X025865Y011160D01*
X025988Y011037D01*
X026162Y011037D01*
X026252Y011127D01*
X028387Y011127D01*
X028482Y011033D01*
X026705Y011033D01*
X026615Y011123D01*
X026441Y011123D01*
X026318Y011000D01*
X026318Y010826D01*
X026441Y010703D01*
X026615Y010703D01*
X026705Y010793D01*
X028505Y010793D01*
X029278Y010020D01*
X029236Y010020D01*
X029113Y009897D01*
X029113Y009796D01*
X028211Y010698D01*
X027039Y010698D01*
X026949Y010788D01*
X026775Y010788D01*
X026652Y010665D01*
X026652Y010491D01*
X026775Y010368D01*
X026949Y010368D01*
X027039Y010458D01*
X028112Y010458D01*
X028206Y010363D01*
X027374Y010363D01*
X027284Y010453D01*
X027110Y010453D01*
X026987Y010330D01*
X026987Y010156D01*
X027110Y010033D01*
X027284Y010033D01*
X027374Y010123D01*
X028269Y010123D01*
X028364Y010029D01*
X027709Y010029D01*
X027619Y010119D01*
X027445Y010119D01*
X027322Y009996D01*
X027322Y009891D01*
X023909Y009891D01*
X023819Y009981D01*
X023645Y009981D01*
X023522Y009858D01*
X023522Y009684D01*
X023645Y009561D01*
X023819Y009561D01*
X023909Y009651D01*
X027265Y009651D01*
X028049Y008867D01*
X027998Y008867D01*
X027998Y008913D01*
X027874Y009036D01*
X027700Y009036D01*
X027577Y008913D01*
X027577Y008832D01*
X026923Y009486D01*
X026853Y009556D01*
X025012Y009556D01*
X024922Y009646D01*
X024748Y009646D01*
X024625Y009523D01*
X024625Y009349D01*
X024674Y009300D01*
X024559Y009300D01*
X024469Y009390D01*
X024295Y009390D01*
X024172Y009267D01*
X024172Y009093D01*
X024295Y008970D01*
X024469Y008970D01*
X024559Y009060D01*
X025061Y009060D01*
X025065Y009056D01*
X024984Y009056D01*
X024861Y008933D01*
X024861Y008759D01*
X024984Y008636D01*
X024997Y008636D01*
X024920Y008559D01*
X024920Y008385D01*
X025043Y008262D01*
X025182Y008262D01*
X025283Y008168D01*
X025325Y008127D01*
X025325Y008127D01*
X025395Y008056D01*
X032571Y008056D01*
X032597Y008031D01*
X018863Y008031D01*
X018902Y008070D01*
X018902Y008243D01*
X018813Y008332D01*
X019094Y008332D01*
X019094Y008287D01*
X019217Y008164D01*
X019390Y008164D01*
X019512Y008287D01*
X019512Y008380D01*
X019630Y008263D01*
X019803Y008263D01*
X019926Y008385D01*
X019926Y008558D01*
X019876Y008608D01*
X019883Y008608D01*
X020038Y008454D01*
X020108Y008383D01*
X020572Y008383D01*
X020614Y008341D01*
X020787Y008341D01*
X020910Y008464D01*
X020910Y008597D01*
X020929Y008578D01*
X021102Y008578D01*
X021225Y008700D01*
X021225Y008873D01*
X024861Y008873D01*
X024861Y008931D02*
X021167Y008931D01*
X021225Y008873D02*
X021102Y008996D01*
X020929Y008996D01*
X020860Y008926D01*
X020533Y008926D01*
X020474Y008867D01*
X020408Y008867D01*
X020437Y008897D01*
X020437Y008971D01*
X020551Y008971D01*
X020674Y009094D01*
X020674Y009267D01*
X020551Y009389D01*
X020378Y009389D01*
X020348Y009359D01*
X010727Y009359D01*
X010656Y009430D01*
X010191Y009430D01*
X010012Y009252D01*
X009886Y009252D01*
X009797Y009163D01*
X009797Y010175D01*
X009727Y010245D01*
X009719Y010254D01*
X009654Y010318D01*
X009729Y010393D01*
X009729Y010566D01*
X009606Y010689D01*
X009433Y010689D01*
X009311Y010566D01*
X009311Y010393D01*
X009400Y010304D01*
X009400Y010233D01*
X009470Y010163D01*
X009549Y010084D01*
X009557Y010076D01*
X009557Y008973D01*
X009722Y008808D01*
X009609Y008808D01*
X009226Y009191D01*
X009226Y010528D01*
X009314Y010616D01*
X009384Y010686D01*
X009384Y010782D01*
X009449Y010782D01*
X009571Y010905D01*
X009571Y011078D01*
X009449Y011200D01*
X009276Y011200D01*
X009153Y011078D01*
X009153Y010952D01*
X009144Y010943D01*
X009144Y010785D01*
X009119Y010760D01*
X009119Y010822D01*
X008996Y010945D01*
X008823Y010945D01*
X008813Y010935D01*
X008813Y011139D01*
X008979Y011304D01*
X009411Y011304D01*
X010089Y010627D01*
X010149Y010567D01*
X010082Y010533D01*
X010018Y010486D01*
X009962Y010430D01*
X009915Y010366D01*
X009879Y010295D01*
X009855Y010220D01*
X009843Y010141D01*
X009843Y010132D01*
X010317Y010132D01*
X010317Y010072D01*
X010377Y010072D01*
X010377Y010132D01*
X010851Y010132D01*
X010851Y010141D01*
X010838Y010220D01*
X010814Y010295D01*
X010778Y010366D01*
X010731Y010430D01*
X010675Y010486D01*
X010611Y010533D01*
X010564Y010556D01*
X011242Y010556D01*
X011535Y010263D01*
X011535Y010137D01*
X011658Y010015D01*
X011831Y010015D01*
X011953Y010137D01*
X011953Y010310D01*
X011831Y010433D01*
X011705Y010433D01*
X011411Y010726D01*
X011341Y010796D01*
X010258Y010796D01*
X009510Y011544D01*
X008880Y011544D01*
X008809Y011474D01*
X008840Y011505D02*
X008403Y011505D01*
X008397Y011543D02*
X008373Y011618D01*
X008337Y011689D01*
X008290Y011753D01*
X008234Y011809D01*
X008170Y011856D01*
X008099Y011892D01*
X008024Y011916D01*
X007945Y011929D01*
X007936Y011929D01*
X007936Y011454D01*
X008410Y011454D01*
X008410Y011464D01*
X008397Y011543D01*
X008390Y011564D02*
X009862Y011564D01*
X009855Y011543D02*
X009843Y011464D01*
X009843Y011454D01*
X010317Y011454D01*
X010317Y011394D01*
X010377Y011394D01*
X010377Y011454D01*
X010851Y011454D01*
X010851Y011464D01*
X010838Y011543D01*
X010814Y011618D01*
X010778Y011689D01*
X010731Y011753D01*
X010675Y011809D01*
X010611Y011856D01*
X010540Y011892D01*
X010465Y011916D01*
X010386Y011929D01*
X010377Y011929D01*
X010377Y011454D01*
X010317Y011454D01*
X010317Y011929D01*
X010307Y011929D01*
X010229Y011916D01*
X010153Y011892D01*
X010082Y011856D01*
X010018Y011809D01*
X009962Y011753D01*
X009915Y011689D01*
X009879Y011618D01*
X009855Y011543D01*
X009849Y011505D02*
X009550Y011505D01*
X009608Y011447D02*
X010317Y011447D01*
X010317Y011394D02*
X009843Y011394D01*
X009843Y011385D01*
X009855Y011306D01*
X009879Y011231D01*
X009915Y011160D01*
X009962Y011096D01*
X010018Y011040D01*
X010082Y010993D01*
X010153Y010957D01*
X010229Y010933D01*
X010307Y010920D01*
X010317Y010920D01*
X010317Y011394D01*
X010317Y011388D02*
X010377Y011388D01*
X010377Y011394D02*
X010377Y010920D01*
X010386Y010920D01*
X010465Y010933D01*
X010540Y010957D01*
X010611Y010993D01*
X010675Y011040D01*
X010731Y011096D01*
X010778Y011160D01*
X010814Y011231D01*
X010838Y011306D01*
X010851Y011385D01*
X010851Y011394D01*
X010377Y011394D01*
X010377Y011447D02*
X025775Y011447D01*
X025727Y011505D02*
X010844Y011505D01*
X010831Y011564D02*
X025727Y011564D01*
X025727Y011622D02*
X010811Y011622D01*
X010782Y011681D02*
X025739Y011681D01*
X025561Y011739D02*
X010741Y011739D01*
X010686Y011798D02*
X025503Y011798D01*
X025471Y011856D02*
X010609Y011856D01*
X010468Y011915D02*
X025471Y011915D01*
X025471Y011973D02*
X012221Y011973D01*
X012211Y011964D02*
X001877Y011964D01*
X001769Y011964D01*
X001693Y012040D01*
X001693Y028486D01*
X001769Y028562D01*
X012211Y028562D01*
X012288Y028486D01*
X012288Y012040D01*
X012211Y011964D01*
X012280Y012032D02*
X024895Y012032D01*
X024836Y012090D02*
X012288Y012090D01*
X012288Y012149D02*
X024782Y012149D01*
X024782Y012207D02*
X012288Y012207D01*
X012288Y012266D02*
X024782Y012266D01*
X024788Y012324D02*
X012288Y012324D01*
X012288Y012383D02*
X024846Y012383D01*
X024905Y012441D02*
X012288Y012441D01*
X012288Y012500D02*
X027814Y012500D01*
X027817Y012558D02*
X012288Y012558D01*
X012288Y012617D02*
X027876Y012617D01*
X027934Y012675D02*
X012288Y012675D01*
X012288Y012734D02*
X039390Y012734D01*
X039390Y012792D02*
X012288Y012792D01*
X012288Y012851D02*
X039390Y012851D01*
X039390Y012909D02*
X012288Y012909D01*
X012288Y012968D02*
X013591Y012968D01*
X013640Y012948D02*
X013746Y012948D01*
X013845Y012989D01*
X013920Y013064D01*
X013961Y013162D01*
X013961Y013217D01*
X014498Y013754D01*
X014882Y013754D01*
X022224Y013754D01*
X022224Y013751D01*
X022358Y013617D01*
X022548Y013617D01*
X022682Y013751D01*
X022682Y013940D01*
X022548Y014074D01*
X022465Y014074D01*
X022445Y014094D01*
X014498Y014094D01*
X014480Y014113D01*
X014324Y014113D01*
X013695Y013484D01*
X013640Y013484D01*
X013541Y013443D01*
X013466Y013368D01*
X013425Y013269D01*
X013425Y013162D01*
X013466Y013064D01*
X013541Y012989D01*
X013640Y012948D01*
X013795Y012968D02*
X039390Y012968D01*
X039390Y013026D02*
X013883Y013026D01*
X013929Y013085D02*
X039390Y013085D01*
X039390Y013143D02*
X013953Y013143D01*
X013961Y013202D02*
X039390Y013202D01*
X039390Y013260D02*
X014004Y013260D01*
X014063Y013319D02*
X039390Y013319D01*
X039390Y013377D02*
X038965Y013377D01*
X038959Y013371D02*
X039117Y013529D01*
X039187Y013599D01*
X039187Y019329D01*
X038802Y019714D01*
X037995Y019714D01*
X037879Y019829D01*
X037879Y019956D01*
X037756Y020079D01*
X037582Y020079D01*
X037459Y019956D01*
X037459Y019782D01*
X037582Y019659D01*
X037710Y019659D01*
X037895Y019474D01*
X038702Y019474D01*
X038947Y019229D01*
X038947Y018907D01*
X038858Y018996D01*
X038685Y018996D01*
X038616Y018927D01*
X037864Y018927D01*
X037795Y018996D01*
X037622Y018996D01*
X037500Y018873D01*
X037500Y018700D01*
X037599Y018600D01*
X037541Y018542D01*
X036164Y018542D01*
X036103Y018603D01*
X035929Y018603D01*
X035806Y018480D01*
X035806Y018306D01*
X035929Y018183D01*
X036103Y018183D01*
X036164Y018244D01*
X037541Y018244D01*
X037602Y018183D01*
X037776Y018183D01*
X037899Y018306D01*
X037899Y018480D01*
X037798Y018581D01*
X037864Y018647D01*
X038616Y018647D01*
X038685Y018578D01*
X038858Y018578D01*
X038947Y018666D01*
X038947Y013699D01*
X038860Y013611D01*
X038262Y013611D01*
X038351Y013700D01*
X038351Y013873D01*
X038228Y013996D01*
X038055Y013996D01*
X037986Y013927D01*
X036447Y013927D01*
X036378Y013996D01*
X036205Y013996D01*
X036082Y013873D01*
X036082Y013700D01*
X036171Y013611D01*
X035672Y013611D01*
X034924Y014359D01*
X023594Y014359D01*
X023504Y014449D01*
X023330Y014449D01*
X023207Y014326D01*
X023207Y014152D01*
X023330Y014029D01*
X023504Y014029D01*
X023594Y014119D01*
X034824Y014119D01*
X035502Y013442D01*
X035572Y013371D01*
X038959Y013371D01*
X039024Y013436D02*
X039390Y013436D01*
X039390Y013494D02*
X039082Y013494D01*
X039141Y013553D02*
X039390Y013553D01*
X039390Y013611D02*
X039187Y013611D01*
X039187Y013670D02*
X039390Y013670D01*
X039390Y013728D02*
X039187Y013728D01*
X039187Y013787D02*
X039390Y013787D01*
X039390Y013845D02*
X039187Y013845D01*
X039187Y013904D02*
X039390Y013904D01*
X039390Y013962D02*
X039187Y013962D01*
X039187Y014021D02*
X039390Y014021D01*
X039390Y014079D02*
X039187Y014079D01*
X039187Y014138D02*
X039390Y014138D01*
X039390Y014196D02*
X039187Y014196D01*
X039187Y014255D02*
X039390Y014255D01*
X039390Y014313D02*
X039187Y014313D01*
X039187Y014372D02*
X039390Y014372D01*
X039390Y014430D02*
X039187Y014430D01*
X039187Y014489D02*
X039390Y014489D01*
X039390Y014547D02*
X039187Y014547D01*
X039187Y014606D02*
X039390Y014606D01*
X039390Y014664D02*
X039187Y014664D01*
X039187Y014723D02*
X039390Y014723D01*
X039390Y014781D02*
X039187Y014781D01*
X039187Y014840D02*
X039390Y014840D01*
X039390Y014898D02*
X039187Y014898D01*
X039187Y014957D02*
X039390Y014957D01*
X039390Y015015D02*
X039187Y015015D01*
X039187Y015074D02*
X039390Y015074D01*
X039390Y015132D02*
X039187Y015132D01*
X039187Y015191D02*
X039390Y015191D01*
X039390Y015249D02*
X039187Y015249D01*
X039187Y015308D02*
X039390Y015308D01*
X039390Y015366D02*
X039187Y015366D01*
X039187Y015425D02*
X039390Y015425D01*
X039390Y015483D02*
X039187Y015483D01*
X039187Y015542D02*
X039390Y015542D01*
X039390Y015600D02*
X039187Y015600D01*
X039187Y015659D02*
X039390Y015659D01*
X039390Y015717D02*
X039187Y015717D01*
X039187Y015776D02*
X039390Y015776D01*
X039390Y015834D02*
X039187Y015834D01*
X039187Y015893D02*
X039390Y015893D01*
X039390Y015951D02*
X039187Y015951D01*
X039187Y016010D02*
X039390Y016010D01*
X039390Y016068D02*
X039187Y016068D01*
X039187Y016127D02*
X039390Y016127D01*
X039390Y016185D02*
X039187Y016185D01*
X039187Y016244D02*
X039390Y016244D01*
X039390Y016302D02*
X039187Y016302D01*
X039187Y016361D02*
X039390Y016361D01*
X039390Y016419D02*
X039187Y016419D01*
X039187Y016478D02*
X039390Y016478D01*
X039390Y016536D02*
X039187Y016536D01*
X039187Y016595D02*
X039390Y016595D01*
X039390Y016653D02*
X039187Y016653D01*
X039187Y016712D02*
X039390Y016712D01*
X039390Y016770D02*
X039187Y016770D01*
X039187Y016829D02*
X039390Y016829D01*
X039390Y016887D02*
X039187Y016887D01*
X039187Y016946D02*
X039390Y016946D01*
X039390Y017004D02*
X039187Y017004D01*
X039187Y017063D02*
X039390Y017063D01*
X039390Y017121D02*
X039187Y017121D01*
X039187Y017180D02*
X039390Y017180D01*
X039390Y017238D02*
X039187Y017238D01*
X039187Y017297D02*
X039390Y017297D01*
X039390Y017355D02*
X039187Y017355D01*
X039187Y017414D02*
X039390Y017414D01*
X039390Y017472D02*
X039187Y017472D01*
X039187Y017531D02*
X039390Y017531D01*
X039390Y017589D02*
X039187Y017589D01*
X039187Y017648D02*
X039390Y017648D01*
X039390Y017706D02*
X039187Y017706D01*
X039187Y017765D02*
X039390Y017765D01*
X039390Y017823D02*
X039187Y017823D01*
X039187Y017882D02*
X039390Y017882D01*
X039390Y017940D02*
X039187Y017940D01*
X039187Y017999D02*
X039390Y017999D01*
X039390Y018057D02*
X039187Y018057D01*
X039187Y018116D02*
X039390Y018116D01*
X039390Y018174D02*
X039187Y018174D01*
X039187Y018233D02*
X039390Y018233D01*
X039390Y018291D02*
X039187Y018291D01*
X039187Y018350D02*
X039390Y018350D01*
X039390Y018408D02*
X039187Y018408D01*
X039187Y018467D02*
X039390Y018467D01*
X039390Y018525D02*
X039187Y018525D01*
X039187Y018584D02*
X039390Y018584D01*
X039390Y018642D02*
X039187Y018642D01*
X039187Y018701D02*
X039390Y018701D01*
X039390Y018759D02*
X039187Y018759D01*
X039187Y018818D02*
X039390Y018818D01*
X039390Y018876D02*
X039187Y018876D01*
X039187Y018935D02*
X039390Y018935D01*
X039390Y018993D02*
X039187Y018993D01*
X039187Y019052D02*
X039390Y019052D01*
X039390Y019110D02*
X039187Y019110D01*
X039187Y019169D02*
X039390Y019169D01*
X039390Y019227D02*
X039187Y019227D01*
X039187Y019286D02*
X039390Y019286D01*
X039390Y019344D02*
X039171Y019344D01*
X039113Y019403D02*
X039390Y019403D01*
X039390Y019461D02*
X039054Y019461D01*
X038996Y019520D02*
X039390Y019520D01*
X039390Y019578D02*
X038937Y019578D01*
X038879Y019637D02*
X039390Y019637D01*
X039390Y019695D02*
X038820Y019695D01*
X038752Y019594D02*
X039067Y019279D01*
X039067Y013649D01*
X038910Y013491D01*
X035622Y013491D01*
X034874Y014239D01*
X023417Y014239D01*
X023280Y014079D02*
X022460Y014079D01*
X022601Y014021D02*
X034923Y014021D01*
X034864Y014079D02*
X023554Y014079D01*
X023582Y014372D02*
X035136Y014372D01*
X035136Y014386D02*
X035136Y014212D01*
X035260Y014088D01*
X035346Y014088D01*
X035364Y014071D01*
X036491Y014071D01*
X036578Y014158D01*
X036627Y014207D01*
X036713Y014207D01*
X036836Y014330D01*
X036836Y014504D01*
X036713Y014627D01*
X036539Y014627D01*
X036416Y014504D01*
X036416Y014417D01*
X036367Y014369D01*
X035557Y014369D01*
X035557Y014386D01*
X035434Y014509D01*
X035260Y014509D01*
X035136Y014386D01*
X035181Y014430D02*
X023523Y014430D01*
X023311Y014430D02*
X012288Y014430D01*
X012288Y014372D02*
X023253Y014372D01*
X023207Y014313D02*
X012288Y014313D01*
X012288Y014255D02*
X023207Y014255D01*
X023207Y014196D02*
X012288Y014196D01*
X012288Y014138D02*
X023222Y014138D01*
X023150Y014016D02*
X022976Y014016D01*
X022853Y013893D01*
X022853Y013719D01*
X022976Y013596D01*
X023150Y013596D01*
X023210Y013656D01*
X024806Y013656D01*
X024866Y013596D01*
X025040Y013596D01*
X025163Y013719D01*
X025163Y013893D01*
X025040Y014016D01*
X024866Y014016D01*
X024806Y013956D01*
X023210Y013956D01*
X023150Y014016D01*
X023204Y013962D02*
X024812Y013962D01*
X025094Y013962D02*
X034981Y013962D01*
X035040Y013904D02*
X025152Y013904D01*
X025163Y013845D02*
X035098Y013845D01*
X035157Y013787D02*
X025163Y013787D01*
X025163Y013728D02*
X035215Y013728D01*
X035274Y013670D02*
X025113Y013670D01*
X025055Y013611D02*
X035332Y013611D01*
X035391Y013553D02*
X014297Y013553D01*
X014355Y013611D02*
X022961Y013611D01*
X022903Y013670D02*
X022600Y013670D01*
X022659Y013728D02*
X022853Y013728D01*
X022853Y013787D02*
X022682Y013787D01*
X022682Y013845D02*
X022853Y013845D01*
X022864Y013904D02*
X022682Y013904D01*
X022660Y013962D02*
X022922Y013962D01*
X023165Y013611D02*
X024851Y013611D01*
X025260Y014679D02*
X025434Y014679D01*
X025557Y014802D01*
X025557Y014844D01*
X025581Y014820D01*
X025651Y014749D01*
X025760Y014749D01*
X025850Y014659D01*
X026024Y014659D01*
X026147Y014782D01*
X026147Y014956D01*
X026024Y015079D01*
X025850Y015079D01*
X025760Y014989D01*
X025751Y014989D01*
X025557Y015183D01*
X025557Y015311D01*
X025434Y015434D01*
X025260Y015434D01*
X025136Y015311D01*
X025136Y015263D01*
X024506Y015880D01*
X024451Y015934D01*
X024294Y015934D01*
X024289Y015939D01*
X024410Y015939D01*
X024533Y016062D01*
X024533Y016236D01*
X024492Y016277D01*
X024559Y016344D01*
X025238Y016344D01*
X025533Y016049D01*
X025760Y016049D01*
X025850Y015959D01*
X026024Y015959D01*
X026101Y016036D01*
X026101Y015885D01*
X026224Y015762D01*
X026398Y015762D01*
X026408Y015771D01*
X026408Y015046D01*
X026318Y014956D01*
X026318Y014782D01*
X026441Y014659D01*
X026615Y014659D01*
X026738Y014782D01*
X026738Y014956D01*
X026648Y015046D01*
X026648Y015958D01*
X027766Y014839D01*
X027836Y014769D01*
X029146Y014769D01*
X029236Y014679D01*
X029410Y014679D01*
X029533Y014802D01*
X029533Y014976D01*
X029410Y015099D01*
X029236Y015099D01*
X029146Y015009D01*
X028224Y015009D01*
X028234Y015019D01*
X028234Y015193D01*
X028157Y015270D01*
X028327Y015270D01*
X028450Y015393D01*
X028450Y015567D01*
X028327Y015690D01*
X028259Y015690D01*
X027986Y015962D01*
X027916Y016033D01*
X027857Y016033D01*
X027478Y016411D01*
X027540Y016411D01*
X027663Y016534D01*
X027663Y016708D01*
X027540Y016831D01*
X027410Y016831D01*
X027136Y017100D01*
X027205Y017100D01*
X027328Y017223D01*
X027328Y017397D01*
X027205Y017520D01*
X027058Y017520D01*
X026750Y017829D01*
X026871Y017829D01*
X026994Y017952D01*
X026994Y018126D01*
X026903Y018216D01*
X026906Y018219D01*
X028427Y016698D01*
X030573Y016698D01*
X030644Y016768D01*
X032030Y018155D01*
X034510Y018155D01*
X034581Y018225D01*
X035565Y019209D01*
X035565Y019249D01*
X036428Y020112D01*
X036514Y020112D01*
X036514Y020065D01*
X034588Y018139D01*
X032580Y018139D01*
X031450Y017009D01*
X031323Y017009D01*
X031199Y016886D01*
X031199Y016712D01*
X030587Y016712D01*
X030646Y016770D02*
X031199Y016770D01*
X031199Y016712D02*
X031323Y016588D01*
X031497Y016588D01*
X031554Y016646D01*
X031554Y016593D01*
X031677Y016470D01*
X031851Y016470D01*
X031941Y016560D01*
X032364Y016560D01*
X032463Y016560D01*
X033436Y017533D01*
X033563Y017533D01*
X033686Y017656D01*
X033686Y017830D01*
X033618Y017899D01*
X033876Y017899D01*
X033691Y017714D01*
X033691Y017655D01*
X032502Y016466D01*
X031676Y016466D01*
X031636Y016505D01*
X028575Y016505D01*
X028485Y016595D01*
X031316Y016595D01*
X031258Y016653D02*
X027663Y016653D01*
X027663Y016595D02*
X028310Y016595D01*
X028311Y016595D02*
X028188Y016472D01*
X028188Y016298D01*
X028311Y016175D01*
X028485Y016175D01*
X028575Y016265D01*
X031537Y016265D01*
X031576Y016226D01*
X032601Y016226D01*
X033861Y017486D01*
X033931Y017556D01*
X033931Y017563D01*
X034039Y017455D01*
X034210Y017455D01*
X034152Y017397D01*
X034152Y017270D01*
X032473Y015591D01*
X032346Y015591D01*
X032223Y015468D01*
X032223Y015294D01*
X032346Y015171D01*
X032520Y015171D01*
X032630Y015281D01*
X032740Y015171D01*
X032914Y015171D01*
X033037Y015294D01*
X033037Y015422D01*
X034388Y016773D01*
X034388Y016672D01*
X034512Y016549D01*
X034686Y016549D01*
X034809Y016672D01*
X034809Y016789D01*
X035118Y017072D01*
X035121Y017072D01*
X035154Y017106D01*
X035189Y017137D01*
X035189Y017140D01*
X035191Y017142D01*
X035191Y017190D01*
X035193Y017237D01*
X035191Y017239D01*
X035191Y017527D01*
X035281Y017617D01*
X035281Y017791D01*
X035158Y017914D01*
X034984Y017914D01*
X034861Y017791D01*
X034861Y017617D01*
X034951Y017527D01*
X034951Y017245D01*
X034650Y016969D01*
X034585Y016969D01*
X034758Y017142D01*
X034758Y017399D01*
X034688Y017470D01*
X034396Y017761D01*
X034727Y017761D01*
X034884Y017919D01*
X035062Y017919D01*
X035798Y018655D01*
X035926Y018655D01*
X036049Y018778D01*
X036049Y018952D01*
X035926Y019075D01*
X035864Y019075D01*
X036684Y019896D01*
X036811Y019896D01*
X036935Y020019D01*
X036935Y020193D01*
X036811Y020316D01*
X036679Y020316D01*
X036679Y020409D01*
X036556Y020532D01*
X036503Y020532D01*
X036521Y020550D01*
X036521Y020724D01*
X036404Y020841D01*
X036952Y020841D01*
X036992Y020801D01*
X037166Y020801D01*
X037206Y020841D01*
X038172Y020841D01*
X038212Y020801D01*
X038386Y020801D01*
X038509Y020924D01*
X039390Y020924D01*
X039390Y020982D02*
X038509Y020982D01*
X038509Y020924D02*
X038509Y021098D01*
X038386Y021221D01*
X038212Y021221D01*
X038172Y021181D01*
X037485Y021181D01*
X037603Y021299D01*
X037603Y021472D01*
X037534Y021541D01*
X037534Y022349D01*
X036973Y022909D01*
X036973Y023007D01*
X036850Y023130D01*
X036677Y023130D01*
X036555Y023007D01*
X036555Y022834D01*
X036677Y022711D01*
X036775Y022711D01*
X037254Y022233D01*
X037254Y021541D01*
X037185Y021472D01*
X037185Y021299D01*
X037302Y021181D01*
X037206Y021181D01*
X037166Y021221D01*
X036992Y021221D01*
X036952Y021181D01*
X035631Y021181D01*
X035591Y021221D01*
X035417Y021221D01*
X035294Y021098D01*
X035294Y020924D01*
X035417Y020801D01*
X035591Y020801D01*
X035631Y020841D01*
X035746Y020841D01*
X035629Y020724D01*
X035629Y020550D01*
X035752Y020427D01*
X035926Y020427D01*
X036016Y020517D01*
X036134Y020517D01*
X036224Y020427D01*
X036276Y020427D01*
X036259Y020409D01*
X036259Y020282D01*
X035395Y019419D01*
X035325Y019348D01*
X035325Y019309D01*
X034411Y018395D01*
X031931Y018395D01*
X030474Y016938D01*
X028526Y016938D01*
X028423Y017041D01*
X028485Y017041D01*
X028608Y017164D01*
X028608Y017338D01*
X028485Y017461D01*
X028357Y017461D01*
X026440Y019379D01*
X026055Y019379D01*
X026024Y019410D01*
X025850Y019410D01*
X025727Y019287D01*
X025727Y019273D01*
X025343Y019659D01*
X025434Y019659D01*
X025557Y019782D01*
X025557Y019815D01*
X025594Y019777D01*
X025768Y019777D01*
X025891Y019900D01*
X025891Y020074D01*
X025768Y020198D01*
X025641Y020198D01*
X024266Y021573D01*
X024195Y021643D01*
X023999Y021643D01*
X023959Y021682D01*
X023874Y021682D01*
X023903Y021712D01*
X023903Y021886D01*
X023854Y021934D01*
X024037Y021934D01*
X028778Y017193D01*
X028778Y017066D01*
X028901Y016943D01*
X029075Y016943D01*
X029198Y017066D01*
X029198Y017240D01*
X029075Y017363D01*
X028948Y017363D01*
X024136Y022174D01*
X023211Y022174D01*
X023132Y022253D01*
X022187Y022253D01*
X022116Y022183D01*
X022088Y022155D01*
X018861Y022155D01*
X018391Y022624D01*
X018391Y022752D01*
X018268Y022875D01*
X018094Y022875D01*
X018024Y022804D01*
X017953Y022875D01*
X017826Y022875D01*
X017680Y023021D01*
X016468Y023021D01*
X016378Y023111D01*
X016204Y023111D01*
X016081Y022988D01*
X016081Y022814D01*
X016204Y022691D01*
X016378Y022691D01*
X016468Y022781D01*
X017580Y022781D01*
X017656Y022705D01*
X017656Y022578D01*
X017779Y022455D01*
X017953Y022455D01*
X018024Y022525D01*
X018094Y022455D01*
X018222Y022455D01*
X018691Y021985D01*
X018761Y021915D01*
X022188Y021915D01*
X022286Y022013D01*
X023033Y022013D01*
X023041Y022005D01*
X023112Y021934D01*
X023532Y021934D01*
X023516Y021919D01*
X022768Y021919D01*
X022678Y022009D01*
X022504Y022009D01*
X022381Y021886D01*
X022381Y021712D01*
X022410Y021682D01*
X022226Y021682D01*
X022049Y021505D01*
X021459Y021505D01*
X021321Y021643D01*
X020632Y021643D01*
X020616Y021660D01*
X020616Y021787D01*
X020493Y021910D01*
X020319Y021910D01*
X020196Y021787D01*
X020196Y021613D01*
X020319Y021490D01*
X020446Y021490D01*
X020533Y021403D01*
X021222Y021403D01*
X021227Y021398D01*
X021145Y021398D01*
X021022Y021275D01*
X019900Y021275D01*
X019958Y021216D02*
X021022Y021216D01*
X021022Y021158D02*
X020017Y021158D01*
X020075Y021099D02*
X021024Y021099D01*
X021022Y021101D02*
X021145Y020978D01*
X021178Y020978D01*
X021160Y020960D01*
X021160Y020786D01*
X021283Y020663D01*
X021457Y020663D01*
X021547Y020753D01*
X022030Y020753D01*
X022100Y020824D01*
X022424Y021147D01*
X022521Y021147D01*
X023342Y020327D01*
X023289Y020274D01*
X020900Y020274D01*
X019610Y021565D01*
X019522Y021652D01*
X019345Y021652D01*
X019295Y021703D01*
X019207Y021790D01*
X019195Y021790D01*
X019075Y021910D01*
X018901Y021910D01*
X018840Y021849D01*
X017837Y021849D01*
X017815Y021871D01*
X017641Y021871D01*
X017620Y021849D01*
X015987Y021849D01*
X015965Y021871D01*
X015791Y021871D01*
X015668Y021748D01*
X015668Y021574D01*
X015791Y021451D01*
X015965Y021451D01*
X016065Y021551D01*
X017541Y021551D01*
X017556Y021536D01*
X017386Y021536D01*
X017262Y021413D01*
X017262Y021239D01*
X017386Y021116D01*
X017560Y021116D01*
X017650Y021206D01*
X018162Y021206D01*
X018252Y021116D01*
X018426Y021116D01*
X018549Y021239D01*
X018549Y021413D01*
X018426Y021536D01*
X018252Y021536D01*
X018162Y021446D01*
X017650Y021446D01*
X017645Y021451D01*
X017815Y021451D01*
X017916Y021551D01*
X018840Y021551D01*
X018901Y021490D01*
X019075Y021490D01*
X019077Y021492D01*
X019084Y021492D01*
X019222Y021354D01*
X019399Y021354D01*
X020777Y019976D01*
X023289Y019976D01*
X023327Y019938D01*
X023227Y019838D01*
X023227Y019664D01*
X023350Y019541D01*
X023483Y019541D01*
X023483Y019507D01*
X023606Y019384D01*
X023780Y019384D01*
X023836Y019440D01*
X024017Y019261D01*
X023614Y019261D01*
X023524Y019351D01*
X023350Y019351D01*
X023227Y019228D01*
X023227Y019054D01*
X023350Y018931D01*
X023524Y018931D01*
X023614Y019021D01*
X024056Y019021D01*
X024674Y018389D01*
X024648Y018415D01*
X024176Y018887D01*
X023890Y018887D01*
X023800Y018977D01*
X023626Y018977D01*
X023503Y018854D01*
X023503Y018680D01*
X023626Y018557D01*
X023800Y018557D01*
X023890Y018647D01*
X024076Y018647D01*
X024479Y018245D01*
X024479Y017605D01*
X024388Y017515D01*
X024388Y017341D01*
X024418Y017312D01*
X024366Y017312D01*
X024375Y017322D01*
X024375Y017496D01*
X024252Y017619D01*
X024125Y017619D01*
X023789Y017955D01*
X023824Y017991D01*
X023824Y018165D01*
X023701Y018288D01*
X023527Y018288D01*
X023407Y018168D01*
X023302Y018168D01*
X023114Y018356D01*
X023114Y018711D01*
X023026Y018798D01*
X022751Y019074D01*
X022396Y019074D01*
X022169Y019301D01*
X022082Y019389D01*
X019171Y019389D01*
X020013Y020230D01*
X020099Y020230D01*
X020222Y020353D01*
X020222Y020527D01*
X020099Y020650D01*
X019925Y020650D01*
X019802Y020527D01*
X019802Y020441D01*
X018789Y019428D01*
X015915Y019428D01*
X015777Y019290D01*
X015770Y019290D01*
X015768Y019292D01*
X015594Y019292D01*
X015471Y019169D01*
X015471Y018995D01*
X015594Y018872D01*
X015768Y018872D01*
X015888Y018992D01*
X015900Y018992D01*
X015988Y019079D01*
X016038Y019130D01*
X018789Y019130D01*
X018828Y019090D01*
X021958Y019090D01*
X022186Y018863D01*
X022273Y018775D01*
X022627Y018775D01*
X022816Y018587D01*
X022816Y018233D01*
X022683Y018233D01*
X022683Y018263D02*
X022602Y018344D01*
X022683Y018424D01*
X022683Y018598D01*
X022560Y018721D01*
X022386Y018721D01*
X022295Y018631D01*
X021547Y018631D01*
X021457Y018721D01*
X021283Y018721D01*
X021160Y018598D01*
X021160Y018424D01*
X021283Y018301D01*
X021457Y018301D01*
X021547Y018391D01*
X022295Y018391D01*
X022343Y018344D01*
X022295Y018296D01*
X016950Y018296D01*
X016439Y017785D01*
X015366Y017785D01*
X015276Y017875D01*
X015102Y017875D01*
X014979Y017752D01*
X014979Y017578D01*
X015102Y017455D01*
X015276Y017455D01*
X015366Y017545D01*
X016538Y017545D01*
X016608Y017615D01*
X017050Y018056D01*
X021524Y018056D01*
X021416Y017948D01*
X021416Y017774D01*
X021539Y017651D01*
X021611Y017651D01*
X021574Y017614D01*
X021574Y017440D01*
X021664Y017350D01*
X021593Y017279D01*
X021593Y017237D01*
X021589Y017242D01*
X021518Y017312D01*
X018588Y017312D01*
X018588Y017397D01*
X018465Y017520D01*
X018291Y017520D01*
X018168Y017397D01*
X018168Y017223D01*
X018291Y017100D01*
X018418Y017100D01*
X018446Y017072D01*
X021419Y017072D01*
X021675Y016816D01*
X021888Y016816D01*
X021888Y016712D01*
X018821Y016712D01*
X018844Y016689D02*
X018721Y016812D01*
X018547Y016812D01*
X018424Y016689D01*
X018424Y016515D01*
X018547Y016392D01*
X018674Y016392D01*
X018935Y016131D01*
X018802Y016131D01*
X018332Y016601D01*
X018332Y016728D01*
X018209Y016851D01*
X018035Y016851D01*
X017912Y016728D01*
X017912Y016554D01*
X018035Y016431D01*
X018162Y016431D01*
X018632Y015961D01*
X018702Y015891D01*
X023998Y015891D01*
X024124Y015765D01*
X024124Y015765D01*
X024194Y015694D01*
X024352Y015694D01*
X024372Y015675D01*
X024372Y015675D01*
X025136Y014927D01*
X025136Y014802D01*
X025260Y014679D01*
X025216Y014723D02*
X016690Y014723D01*
X016632Y014664D02*
X025845Y014664D01*
X025787Y014723D02*
X025477Y014723D01*
X025536Y014781D02*
X025619Y014781D01*
X025561Y014840D02*
X025557Y014840D01*
X025701Y014869D02*
X025937Y014869D01*
X026088Y014723D02*
X026377Y014723D01*
X026319Y014781D02*
X026146Y014781D01*
X026147Y014840D02*
X026318Y014840D01*
X026318Y014898D02*
X026147Y014898D01*
X026147Y014957D02*
X026318Y014957D01*
X026377Y015015D02*
X026088Y015015D01*
X026030Y015074D02*
X026408Y015074D01*
X026408Y015132D02*
X025608Y015132D01*
X025557Y015191D02*
X026408Y015191D01*
X026408Y015249D02*
X025557Y015249D01*
X025557Y015308D02*
X026408Y015308D01*
X026408Y015366D02*
X025501Y015366D01*
X025442Y015425D02*
X026408Y015425D01*
X026408Y015483D02*
X024911Y015483D01*
X024971Y015425D02*
X025251Y015425D01*
X025192Y015366D02*
X025030Y015366D01*
X025090Y015308D02*
X025136Y015308D01*
X025347Y015224D02*
X025701Y014869D01*
X025725Y015015D02*
X025786Y015015D01*
X025845Y015074D02*
X025666Y015074D01*
X025347Y014889D02*
X024421Y015795D01*
X024402Y015814D01*
X024244Y015814D01*
X024047Y016011D01*
X018752Y016011D01*
X018122Y016641D01*
X017912Y016653D02*
X015163Y016653D01*
X015163Y016595D02*
X017912Y016595D01*
X017930Y016536D02*
X015145Y016536D01*
X015163Y016554D02*
X015163Y016728D01*
X015040Y016851D01*
X014866Y016851D01*
X014743Y016728D01*
X014743Y016554D01*
X014804Y016493D01*
X014804Y015536D01*
X014891Y015449D01*
X018840Y015449D01*
X018901Y015388D01*
X019075Y015388D01*
X019136Y015449D01*
X019765Y015449D01*
X019826Y015388D01*
X020000Y015388D01*
X020101Y015488D01*
X021143Y015488D01*
X021204Y015427D01*
X021378Y015427D01*
X021501Y015550D01*
X021501Y015724D01*
X021378Y015847D01*
X021204Y015847D01*
X021143Y015786D01*
X020022Y015786D01*
X020000Y015808D01*
X019826Y015808D01*
X019765Y015747D01*
X019136Y015747D01*
X019075Y015808D01*
X018901Y015808D01*
X018840Y015747D01*
X015102Y015747D01*
X015102Y016493D01*
X015163Y016554D01*
X015102Y016478D02*
X017988Y016478D01*
X018174Y016419D02*
X015102Y016419D01*
X015102Y016361D02*
X018233Y016361D01*
X018291Y016302D02*
X015102Y016302D01*
X015102Y016244D02*
X018350Y016244D01*
X018408Y016185D02*
X015102Y016185D01*
X015102Y016127D02*
X018467Y016127D01*
X018525Y016068D02*
X015102Y016068D01*
X015102Y016010D02*
X018584Y016010D01*
X018642Y015951D02*
X015102Y015951D01*
X015102Y015893D02*
X018701Y015893D01*
X018869Y015776D02*
X015102Y015776D01*
X015102Y015834D02*
X021192Y015834D01*
X021391Y015834D02*
X024054Y015834D01*
X024113Y015776D02*
X022020Y015776D01*
X021969Y015827D02*
X021795Y015827D01*
X021672Y015704D01*
X021672Y015697D01*
X021308Y015333D01*
X016879Y015333D01*
X016792Y015246D01*
X016367Y014822D01*
X014628Y014822D01*
X014567Y014883D01*
X014393Y014883D01*
X014270Y014760D01*
X014270Y014586D01*
X014393Y014462D01*
X014567Y014462D01*
X014628Y014523D01*
X016491Y014523D01*
X016578Y014611D01*
X017003Y015035D01*
X021432Y015035D01*
X021519Y015123D01*
X021804Y015407D01*
X021969Y015407D01*
X022092Y015530D01*
X022092Y015704D01*
X021969Y015827D01*
X022079Y015717D02*
X024171Y015717D01*
X024388Y015659D02*
X022092Y015659D01*
X022092Y015600D02*
X024448Y015600D01*
X024508Y015542D02*
X022092Y015542D01*
X022045Y015483D02*
X024568Y015483D01*
X024627Y015425D02*
X021987Y015425D01*
X021763Y015366D02*
X024687Y015366D01*
X024747Y015308D02*
X021705Y015308D01*
X021646Y015249D02*
X024807Y015249D01*
X024867Y015191D02*
X021588Y015191D01*
X021529Y015132D02*
X024926Y015132D01*
X024986Y015074D02*
X021471Y015074D01*
X021341Y015366D02*
X012288Y015366D01*
X012288Y015308D02*
X016854Y015308D01*
X016795Y015249D02*
X012288Y015249D01*
X012288Y015191D02*
X016737Y015191D01*
X016792Y015246D02*
X016792Y015246D01*
X016678Y015132D02*
X012288Y015132D01*
X012288Y015074D02*
X016620Y015074D01*
X016561Y015015D02*
X012288Y015015D01*
X012288Y014957D02*
X016503Y014957D01*
X016444Y014898D02*
X012288Y014898D01*
X012288Y014840D02*
X014351Y014840D01*
X014292Y014781D02*
X012288Y014781D01*
X012288Y014723D02*
X014270Y014723D01*
X014270Y014664D02*
X012288Y014664D01*
X012288Y014606D02*
X014270Y014606D01*
X014308Y014547D02*
X012288Y014547D01*
X012288Y014489D02*
X014367Y014489D01*
X014594Y014489D02*
X035240Y014489D01*
X035136Y014313D02*
X034970Y014313D01*
X035028Y014255D02*
X035136Y014255D01*
X035152Y014196D02*
X035087Y014196D01*
X035145Y014138D02*
X035210Y014138D01*
X035204Y014079D02*
X035355Y014079D01*
X035262Y014021D02*
X038947Y014021D01*
X038947Y014079D02*
X036500Y014079D01*
X036558Y014138D02*
X038947Y014138D01*
X038947Y014196D02*
X036617Y014196D01*
X036761Y014255D02*
X038947Y014255D01*
X038947Y014313D02*
X036820Y014313D01*
X036836Y014372D02*
X038947Y014372D01*
X038947Y014430D02*
X036836Y014430D01*
X036836Y014489D02*
X038383Y014489D01*
X038429Y014443D02*
X038603Y014443D01*
X038726Y014566D01*
X038726Y014740D01*
X038603Y014863D01*
X038475Y014863D01*
X038360Y014978D01*
X038290Y015048D01*
X032295Y015048D01*
X032245Y015099D01*
X032071Y015099D01*
X031948Y014976D01*
X031948Y014802D01*
X032071Y014679D01*
X032245Y014679D01*
X032368Y014802D01*
X032368Y014808D01*
X038191Y014808D01*
X038306Y014693D01*
X038306Y014566D01*
X038429Y014443D01*
X038324Y014547D02*
X036792Y014547D01*
X036734Y014606D02*
X038306Y014606D01*
X038306Y014664D02*
X026620Y014664D01*
X026678Y014723D02*
X029192Y014723D01*
X029323Y014889D02*
X027886Y014889D01*
X025583Y017192D01*
X021803Y017192D01*
X021593Y017238D02*
X021592Y017238D01*
X021611Y017297D02*
X021534Y017297D01*
X021469Y017192D02*
X018496Y017192D01*
X018378Y017310D01*
X018168Y017297D02*
X012288Y017297D01*
X012288Y017355D02*
X018168Y017355D01*
X018185Y017414D02*
X012288Y017414D01*
X012288Y017472D02*
X015084Y017472D01*
X015026Y017531D02*
X012288Y017531D01*
X012288Y017589D02*
X014979Y017589D01*
X014979Y017648D02*
X012288Y017648D01*
X012288Y017706D02*
X014979Y017706D01*
X014992Y017765D02*
X012288Y017765D01*
X012288Y017823D02*
X015051Y017823D01*
X015189Y017665D02*
X016488Y017665D01*
X017000Y018176D01*
X022473Y018176D01*
X022683Y018174D02*
X022874Y018174D01*
X022932Y018116D02*
X022683Y018116D01*
X022683Y018089D02*
X022683Y018263D01*
X022655Y018291D02*
X022816Y018291D01*
X022816Y018233D02*
X023067Y017981D01*
X022575Y017981D01*
X022683Y018089D01*
X022651Y018057D02*
X022991Y018057D01*
X023049Y017999D02*
X022592Y017999D01*
X022608Y018350D02*
X022816Y018350D01*
X022816Y018408D02*
X022667Y018408D01*
X022683Y018467D02*
X022816Y018467D01*
X022816Y018525D02*
X022683Y018525D01*
X022683Y018584D02*
X022816Y018584D01*
X022760Y018642D02*
X022638Y018642D01*
X022580Y018701D02*
X022702Y018701D01*
X022643Y018759D02*
X012288Y018759D01*
X012288Y018701D02*
X021263Y018701D01*
X021204Y018642D02*
X012288Y018642D01*
X012288Y018584D02*
X021160Y018584D01*
X021160Y018525D02*
X012288Y018525D01*
X012288Y018467D02*
X021160Y018467D01*
X021176Y018408D02*
X012288Y018408D01*
X012288Y018350D02*
X021234Y018350D01*
X021370Y018511D02*
X022473Y018511D01*
X022337Y018350D02*
X021506Y018350D01*
X021536Y018642D02*
X022307Y018642D01*
X022365Y018701D02*
X021477Y018701D01*
X021996Y019052D02*
X015960Y019052D01*
X015902Y018993D02*
X022055Y018993D01*
X022113Y018935D02*
X015831Y018935D01*
X015773Y018876D02*
X022172Y018876D01*
X022230Y018818D02*
X012288Y018818D01*
X012288Y018876D02*
X015590Y018876D01*
X015531Y018935D02*
X012288Y018935D01*
X012288Y018993D02*
X015473Y018993D01*
X015471Y019052D02*
X012288Y019052D01*
X012288Y019110D02*
X015471Y019110D01*
X015471Y019169D02*
X012288Y019169D01*
X012288Y019227D02*
X015530Y019227D01*
X015588Y019286D02*
X012288Y019286D01*
X012288Y019344D02*
X015831Y019344D01*
X015890Y019403D02*
X012288Y019403D01*
X012288Y019461D02*
X018822Y019461D01*
X018881Y019520D02*
X012288Y019520D01*
X012288Y019578D02*
X018939Y019578D01*
X018998Y019637D02*
X012288Y019637D01*
X012288Y019695D02*
X019056Y019695D01*
X019115Y019754D02*
X015784Y019754D01*
X015748Y019718D02*
X015872Y019841D01*
X015872Y020015D01*
X015748Y020138D01*
X015574Y020138D01*
X015514Y020077D01*
X014550Y020077D01*
X014508Y020119D01*
X014334Y020119D01*
X014273Y020058D01*
X013369Y020058D01*
X013308Y020119D01*
X013134Y020119D01*
X013011Y019996D01*
X013011Y019822D01*
X013134Y019699D01*
X013308Y019699D01*
X013369Y019760D01*
X014273Y019760D01*
X014334Y019699D01*
X014508Y019699D01*
X014589Y019779D01*
X015514Y019779D01*
X015574Y019718D01*
X015748Y019718D01*
X015843Y019812D02*
X019173Y019812D01*
X019232Y019871D02*
X015872Y019871D01*
X015872Y019929D02*
X019290Y019929D01*
X019349Y019988D02*
X015872Y019988D01*
X015841Y020046D02*
X019407Y020046D01*
X019466Y020105D02*
X015782Y020105D01*
X015541Y020105D02*
X014522Y020105D01*
X014320Y020105D02*
X013321Y020105D01*
X013120Y020105D02*
X012288Y020105D01*
X012288Y020163D02*
X019524Y020163D01*
X019583Y020222D02*
X012288Y020222D01*
X012288Y020280D02*
X019641Y020280D01*
X019700Y020339D02*
X012288Y020339D01*
X012288Y020397D02*
X019758Y020397D01*
X019802Y020456D02*
X012288Y020456D01*
X012288Y020514D02*
X019802Y020514D01*
X019848Y020573D02*
X012288Y020573D01*
X012288Y020631D02*
X019906Y020631D01*
X020005Y020748D02*
X012288Y020748D01*
X012288Y020690D02*
X020063Y020690D01*
X020118Y020631D02*
X020122Y020631D01*
X020176Y020573D02*
X020180Y020573D01*
X020222Y020514D02*
X020239Y020514D01*
X020222Y020456D02*
X020297Y020456D01*
X020356Y020397D02*
X020222Y020397D01*
X020208Y020339D02*
X020414Y020339D01*
X020473Y020280D02*
X020149Y020280D01*
X020004Y020222D02*
X020531Y020222D01*
X020590Y020163D02*
X019946Y020163D01*
X019887Y020105D02*
X020648Y020105D01*
X020707Y020046D02*
X019829Y020046D01*
X019770Y019988D02*
X020765Y019988D01*
X020894Y020280D02*
X023295Y020280D01*
X023329Y020339D02*
X020836Y020339D01*
X020777Y020397D02*
X023271Y020397D01*
X023212Y020456D02*
X020719Y020456D01*
X020660Y020514D02*
X023154Y020514D01*
X023095Y020573D02*
X020602Y020573D01*
X020543Y020631D02*
X023037Y020631D01*
X022978Y020690D02*
X021484Y020690D01*
X021542Y020748D02*
X022920Y020748D01*
X022861Y020807D02*
X022084Y020807D01*
X022142Y020865D02*
X022803Y020865D01*
X022744Y020924D02*
X022201Y020924D01*
X022259Y020982D02*
X022686Y020982D01*
X022627Y021041D02*
X022318Y021041D01*
X022376Y021099D02*
X022569Y021099D01*
X022571Y021267D02*
X022374Y021267D01*
X021980Y020873D01*
X021370Y020873D01*
X021160Y020865D02*
X020309Y020865D01*
X020368Y020807D02*
X021160Y020807D01*
X021198Y020748D02*
X020426Y020748D01*
X020485Y020690D02*
X021256Y020690D01*
X021160Y020924D02*
X020251Y020924D01*
X020192Y020982D02*
X021141Y020982D01*
X021083Y021041D02*
X020134Y021041D01*
X019946Y020807D02*
X012288Y020807D01*
X012288Y020865D02*
X019888Y020865D01*
X019829Y020924D02*
X012288Y020924D01*
X012288Y020982D02*
X019771Y020982D01*
X019712Y021041D02*
X012288Y021041D01*
X012288Y021099D02*
X019654Y021099D01*
X019595Y021158D02*
X018468Y021158D01*
X018526Y021216D02*
X019537Y021216D01*
X019478Y021275D02*
X018549Y021275D01*
X018549Y021333D02*
X019420Y021333D01*
X019184Y021392D02*
X018549Y021392D01*
X018511Y021450D02*
X019126Y021450D01*
X018882Y021509D02*
X018453Y021509D01*
X018339Y021326D02*
X017473Y021326D01*
X017262Y021333D02*
X012288Y021333D01*
X012288Y021275D02*
X017262Y021275D01*
X017285Y021216D02*
X012288Y021216D01*
X012288Y021158D02*
X017344Y021158D01*
X017262Y021392D02*
X012288Y021392D01*
X012288Y021450D02*
X017300Y021450D01*
X017358Y021509D02*
X016023Y021509D01*
X015733Y021509D02*
X012288Y021509D01*
X012288Y021567D02*
X015674Y021567D01*
X015668Y021626D02*
X012288Y021626D01*
X012288Y021684D02*
X015668Y021684D01*
X015668Y021743D02*
X012288Y021743D01*
X012288Y021801D02*
X015722Y021801D01*
X015780Y021860D02*
X012288Y021860D01*
X012288Y021918D02*
X018758Y021918D01*
X018699Y021977D02*
X012288Y021977D01*
X012288Y022035D02*
X018641Y022035D01*
X018582Y022094D02*
X012288Y022094D01*
X012288Y022152D02*
X018524Y022152D01*
X018465Y022211D02*
X012288Y022211D01*
X012288Y022269D02*
X013082Y022269D01*
X013114Y022238D02*
X013288Y022238D01*
X013349Y022299D01*
X014214Y022299D01*
X014275Y022238D01*
X014449Y022238D01*
X014550Y022338D01*
X015710Y022338D01*
X015771Y022277D01*
X015945Y022277D01*
X016068Y022400D01*
X016068Y022574D01*
X015945Y022698D01*
X015771Y022698D01*
X015710Y022637D01*
X014471Y022637D01*
X014449Y022658D01*
X014275Y022658D01*
X014214Y022597D01*
X013349Y022597D01*
X013288Y022658D01*
X013114Y022658D01*
X012991Y022535D01*
X012991Y022361D01*
X013114Y022238D01*
X013024Y022328D02*
X012288Y022328D01*
X012288Y022386D02*
X012991Y022386D01*
X012991Y022445D02*
X012288Y022445D01*
X012288Y022503D02*
X012991Y022503D01*
X013018Y022562D02*
X012288Y022562D01*
X012288Y022620D02*
X013076Y022620D01*
X013326Y022620D02*
X014238Y022620D01*
X014244Y022269D02*
X013319Y022269D01*
X014481Y022269D02*
X018407Y022269D01*
X018348Y022328D02*
X015996Y022328D01*
X016054Y022386D02*
X018290Y022386D01*
X018231Y022445D02*
X016068Y022445D01*
X016068Y022503D02*
X017730Y022503D01*
X017672Y022562D02*
X016068Y022562D01*
X016022Y022620D02*
X017656Y022620D01*
X017656Y022679D02*
X015964Y022679D01*
X016099Y022796D02*
X012288Y022796D01*
X012288Y022854D02*
X016081Y022854D01*
X016081Y022913D02*
X012288Y022913D01*
X012288Y022971D02*
X016081Y022971D01*
X016123Y023030D02*
X012288Y023030D01*
X012288Y023088D02*
X016182Y023088D01*
X016291Y022901D02*
X017630Y022901D01*
X017866Y022665D01*
X018002Y022503D02*
X018045Y022503D01*
X018181Y022665D02*
X018811Y022035D01*
X022138Y022035D01*
X022236Y022133D01*
X023083Y022133D01*
X023161Y022054D01*
X024087Y022054D01*
X028988Y017153D01*
X028840Y017004D02*
X028460Y017004D01*
X028506Y017063D02*
X028781Y017063D01*
X028778Y017121D02*
X028565Y017121D01*
X028608Y017180D02*
X028778Y017180D01*
X028733Y017238D02*
X028608Y017238D01*
X028608Y017297D02*
X028674Y017297D01*
X028616Y017355D02*
X028591Y017355D01*
X028557Y017414D02*
X028532Y017414D01*
X028499Y017472D02*
X028346Y017472D01*
X028288Y017531D02*
X028440Y017531D01*
X028382Y017589D02*
X028229Y017589D01*
X028171Y017648D02*
X028323Y017648D01*
X028265Y017706D02*
X028112Y017706D01*
X028054Y017765D02*
X028206Y017765D01*
X028148Y017823D02*
X027995Y017823D01*
X027937Y017882D02*
X028089Y017882D01*
X028031Y017940D02*
X027878Y017940D01*
X027820Y017999D02*
X027972Y017999D01*
X027914Y018057D02*
X027761Y018057D01*
X027703Y018116D02*
X027855Y018116D01*
X027797Y018174D02*
X027644Y018174D01*
X027586Y018233D02*
X027738Y018233D01*
X027680Y018291D02*
X027527Y018291D01*
X027469Y018350D02*
X027621Y018350D01*
X027563Y018408D02*
X027410Y018408D01*
X027352Y018467D02*
X027504Y018467D01*
X027446Y018525D02*
X027293Y018525D01*
X027235Y018584D02*
X027387Y018584D01*
X027329Y018642D02*
X027176Y018642D01*
X027118Y018701D02*
X027270Y018701D01*
X027212Y018759D02*
X027059Y018759D01*
X027001Y018818D02*
X027153Y018818D01*
X027095Y018876D02*
X026942Y018876D01*
X026884Y018935D02*
X027036Y018935D01*
X026978Y018993D02*
X026825Y018993D01*
X026767Y019052D02*
X026919Y019052D01*
X026861Y019110D02*
X026708Y019110D01*
X026650Y019169D02*
X026802Y019169D01*
X026744Y019227D02*
X026591Y019227D01*
X026533Y019286D02*
X026685Y019286D01*
X026627Y019344D02*
X026474Y019344D01*
X026568Y019403D02*
X026031Y019403D01*
X025937Y019259D02*
X025937Y019200D01*
X025937Y019259D02*
X025898Y019259D01*
X025937Y019259D02*
X026390Y019259D01*
X028398Y017251D01*
X028518Y016946D02*
X028898Y016946D01*
X029078Y016946D02*
X030482Y016946D01*
X030540Y017004D02*
X029137Y017004D01*
X029195Y017063D02*
X030599Y017063D01*
X030657Y017121D02*
X029198Y017121D01*
X029198Y017180D02*
X030716Y017180D01*
X030774Y017238D02*
X029198Y017238D01*
X029141Y017297D02*
X030833Y017297D01*
X030891Y017355D02*
X029083Y017355D01*
X028897Y017414D02*
X030950Y017414D01*
X031008Y017472D02*
X028838Y017472D01*
X028780Y017531D02*
X030813Y017531D01*
X030850Y017494D02*
X031024Y017494D01*
X031147Y017617D01*
X031147Y017705D01*
X032314Y018872D01*
X032461Y018872D01*
X032584Y018995D01*
X032584Y019169D01*
X032461Y019292D01*
X032287Y019292D01*
X032164Y019169D01*
X032164Y019061D01*
X031017Y017914D01*
X030850Y017914D01*
X030727Y017791D01*
X030727Y017617D01*
X030850Y017494D01*
X030755Y017589D02*
X028721Y017589D01*
X028663Y017648D02*
X030727Y017648D01*
X030727Y017706D02*
X028604Y017706D01*
X028546Y017765D02*
X030727Y017765D01*
X030759Y017823D02*
X028487Y017823D01*
X028429Y017882D02*
X030502Y017882D01*
X030535Y017848D02*
X030709Y017848D01*
X030832Y017971D01*
X030832Y018099D01*
X031842Y019108D01*
X031890Y019108D01*
X032013Y019231D01*
X032013Y019405D01*
X031890Y019528D01*
X031716Y019528D01*
X031593Y019405D01*
X031593Y019231D01*
X031609Y019215D01*
X030662Y018268D01*
X030535Y018268D01*
X030412Y018145D01*
X030412Y017971D01*
X030535Y017848D01*
X030443Y017940D02*
X028370Y017940D01*
X028312Y017999D02*
X030412Y017999D01*
X030412Y018057D02*
X028253Y018057D01*
X028195Y018116D02*
X030412Y018116D01*
X030441Y018174D02*
X028136Y018174D01*
X028078Y018233D02*
X030500Y018233D01*
X030686Y018291D02*
X028019Y018291D01*
X027961Y018350D02*
X030744Y018350D01*
X030803Y018408D02*
X027902Y018408D01*
X027844Y018467D02*
X030861Y018467D01*
X030920Y018525D02*
X027785Y018525D01*
X027727Y018584D02*
X030978Y018584D01*
X031037Y018642D02*
X027668Y018642D01*
X027610Y018701D02*
X031095Y018701D01*
X031154Y018759D02*
X027551Y018759D01*
X027493Y018818D02*
X031212Y018818D01*
X031271Y018876D02*
X027434Y018876D01*
X027376Y018935D02*
X031329Y018935D01*
X031388Y018993D02*
X027317Y018993D01*
X027259Y019052D02*
X031446Y019052D01*
X031505Y019110D02*
X027200Y019110D01*
X027142Y019169D02*
X031563Y019169D01*
X031597Y019227D02*
X027083Y019227D01*
X027025Y019286D02*
X031593Y019286D01*
X031593Y019344D02*
X026966Y019344D01*
X026908Y019403D02*
X031593Y019403D01*
X031649Y019461D02*
X026849Y019461D01*
X026791Y019520D02*
X031708Y019520D01*
X031899Y019520D02*
X034818Y019520D01*
X034876Y019461D02*
X031957Y019461D01*
X032013Y019403D02*
X034900Y019403D01*
X034900Y019437D02*
X034900Y019310D01*
X035023Y019187D01*
X035197Y019187D01*
X035320Y019310D01*
X035320Y019484D01*
X035197Y019607D01*
X035070Y019607D01*
X034719Y019958D01*
X034719Y019964D01*
X034748Y019935D01*
X034922Y019935D01*
X035045Y020058D01*
X035045Y020185D01*
X035121Y020261D01*
X035191Y020331D01*
X035191Y021709D01*
X035860Y022379D01*
X035860Y023275D01*
X035950Y023365D01*
X035950Y023539D01*
X035827Y023662D01*
X035653Y023662D01*
X035530Y023539D01*
X035530Y023365D01*
X035620Y023275D01*
X035620Y022478D01*
X035596Y022454D01*
X035596Y022515D01*
X035473Y022638D01*
X035299Y022638D01*
X035176Y022515D01*
X035176Y022388D01*
X034883Y022096D01*
X034813Y022025D01*
X034813Y020628D01*
X034479Y020293D01*
X034479Y019859D01*
X034549Y019789D01*
X034900Y019437D01*
X034900Y019344D02*
X032013Y019344D01*
X032013Y019286D02*
X032281Y019286D01*
X032223Y019227D02*
X032010Y019227D01*
X031951Y019169D02*
X032164Y019169D01*
X032164Y019110D02*
X031893Y019110D01*
X031785Y019052D02*
X032155Y019052D01*
X032096Y018993D02*
X031727Y018993D01*
X031668Y018935D02*
X032038Y018935D01*
X031979Y018876D02*
X031610Y018876D01*
X031551Y018818D02*
X031921Y018818D01*
X031862Y018759D02*
X031493Y018759D01*
X031434Y018701D02*
X031804Y018701D01*
X031745Y018642D02*
X031376Y018642D01*
X031317Y018584D02*
X031687Y018584D01*
X031628Y018525D02*
X031259Y018525D01*
X031200Y018467D02*
X031570Y018467D01*
X031511Y018408D02*
X031142Y018408D01*
X031083Y018350D02*
X031453Y018350D01*
X031394Y018291D02*
X031025Y018291D01*
X030966Y018233D02*
X031336Y018233D01*
X031277Y018174D02*
X030908Y018174D01*
X030849Y018116D02*
X031219Y018116D01*
X031160Y018057D02*
X030832Y018057D01*
X030832Y017999D02*
X031102Y017999D01*
X031043Y017940D02*
X030801Y017940D01*
X030818Y017882D02*
X030743Y017882D01*
X030622Y018058D02*
X031803Y019239D01*
X031803Y019318D01*
X032354Y019082D02*
X030976Y017704D01*
X030937Y017704D01*
X031149Y017706D02*
X031242Y017706D01*
X031207Y017765D02*
X031301Y017765D01*
X031266Y017823D02*
X031359Y017823D01*
X031324Y017882D02*
X031418Y017882D01*
X031383Y017940D02*
X031476Y017940D01*
X031441Y017999D02*
X031535Y017999D01*
X031500Y018057D02*
X031593Y018057D01*
X031558Y018116D02*
X031652Y018116D01*
X031617Y018174D02*
X031710Y018174D01*
X031675Y018233D02*
X031769Y018233D01*
X031734Y018291D02*
X031827Y018291D01*
X031792Y018350D02*
X031886Y018350D01*
X031851Y018408D02*
X034425Y018408D01*
X034483Y018467D02*
X031909Y018467D01*
X031968Y018525D02*
X034542Y018525D01*
X034600Y018584D02*
X032026Y018584D01*
X032085Y018642D02*
X034659Y018642D01*
X034717Y018701D02*
X032143Y018701D01*
X032202Y018759D02*
X034776Y018759D01*
X034834Y018818D02*
X032260Y018818D01*
X032466Y018876D02*
X034893Y018876D01*
X034951Y018935D02*
X032524Y018935D01*
X032583Y018993D02*
X035010Y018993D01*
X035068Y019052D02*
X032584Y019052D01*
X032584Y019110D02*
X035127Y019110D01*
X035185Y019169D02*
X032584Y019169D01*
X032526Y019227D02*
X034983Y019227D01*
X034924Y019286D02*
X032467Y019286D01*
X032374Y019082D02*
X032354Y019082D01*
X031980Y018275D02*
X030524Y016818D01*
X028476Y016818D01*
X026921Y018373D01*
X026764Y018373D01*
X026945Y018174D02*
X026951Y018174D01*
X026994Y018116D02*
X027009Y018116D01*
X026994Y018057D02*
X027068Y018057D01*
X027126Y017999D02*
X026994Y017999D01*
X026982Y017940D02*
X027185Y017940D01*
X027243Y017882D02*
X026924Y017882D01*
X026814Y017765D02*
X027360Y017765D01*
X027302Y017823D02*
X026755Y017823D01*
X026872Y017706D02*
X027419Y017706D01*
X027477Y017648D02*
X026931Y017648D01*
X026989Y017589D02*
X027536Y017589D01*
X027594Y017531D02*
X027048Y017531D01*
X027253Y017472D02*
X027653Y017472D01*
X027711Y017414D02*
X027312Y017414D01*
X027328Y017355D02*
X027770Y017355D01*
X027828Y017297D02*
X027328Y017297D01*
X027328Y017238D02*
X027887Y017238D01*
X027945Y017180D02*
X027285Y017180D01*
X027226Y017121D02*
X028004Y017121D01*
X028062Y017063D02*
X027174Y017063D01*
X027234Y017004D02*
X028121Y017004D01*
X028179Y016946D02*
X027293Y016946D01*
X027353Y016887D02*
X028238Y016887D01*
X028296Y016829D02*
X027542Y016829D01*
X027601Y016770D02*
X028355Y016770D01*
X028413Y016712D02*
X027659Y016712D01*
X027663Y016536D02*
X028252Y016536D01*
X028193Y016478D02*
X027606Y016478D01*
X027548Y016419D02*
X028188Y016419D01*
X028188Y016361D02*
X027529Y016361D01*
X027587Y016302D02*
X028188Y016302D01*
X028242Y016244D02*
X027646Y016244D01*
X027704Y016185D02*
X028300Y016185D01*
X028495Y016185D02*
X033068Y016185D01*
X033009Y016127D02*
X027763Y016127D01*
X027821Y016068D02*
X032951Y016068D01*
X032892Y016010D02*
X027939Y016010D01*
X027997Y015951D02*
X032834Y015951D01*
X032775Y015893D02*
X028056Y015893D01*
X028114Y015834D02*
X032717Y015834D01*
X032658Y015776D02*
X031469Y015776D01*
X031457Y015788D02*
X031283Y015788D01*
X031193Y015698D01*
X030839Y015698D01*
X030748Y015788D01*
X030574Y015788D01*
X030451Y015665D01*
X030451Y015491D01*
X030574Y015368D01*
X030748Y015368D01*
X030839Y015458D01*
X031193Y015458D01*
X031283Y015368D01*
X031457Y015368D01*
X031580Y015491D01*
X031580Y015665D01*
X031457Y015788D01*
X031528Y015717D02*
X032600Y015717D01*
X032541Y015659D02*
X031580Y015659D01*
X031580Y015600D02*
X032483Y015600D01*
X032297Y015542D02*
X031580Y015542D01*
X031573Y015483D02*
X032238Y015483D01*
X032223Y015425D02*
X031514Y015425D01*
X031370Y015578D02*
X030661Y015578D01*
X030518Y015425D02*
X028450Y015425D01*
X028450Y015483D02*
X030459Y015483D01*
X030451Y015542D02*
X028450Y015542D01*
X028416Y015600D02*
X030451Y015600D01*
X030451Y015659D02*
X028358Y015659D01*
X028231Y015717D02*
X030504Y015717D01*
X030562Y015776D02*
X028173Y015776D01*
X028240Y015539D02*
X027866Y015913D01*
X027807Y015913D01*
X024480Y019239D01*
X024421Y019239D01*
X023910Y019751D01*
X023752Y019889D01*
X023575Y019889D01*
X023437Y019751D01*
X023227Y019754D02*
X019536Y019754D01*
X019478Y019695D02*
X023227Y019695D01*
X023254Y019637D02*
X019419Y019637D01*
X019361Y019578D02*
X023313Y019578D01*
X023483Y019520D02*
X019302Y019520D01*
X019244Y019461D02*
X023528Y019461D01*
X023587Y019403D02*
X019185Y019403D01*
X018808Y019110D02*
X016019Y019110D01*
X015539Y019754D02*
X014564Y019754D01*
X014279Y019754D02*
X013363Y019754D01*
X013078Y019754D02*
X012288Y019754D01*
X012288Y019812D02*
X013020Y019812D01*
X013011Y019871D02*
X012288Y019871D01*
X012288Y019929D02*
X013011Y019929D01*
X013011Y019988D02*
X012288Y019988D01*
X012288Y020046D02*
X013061Y020046D01*
X012288Y018291D02*
X016945Y018291D01*
X016887Y018233D02*
X012288Y018233D01*
X012288Y018174D02*
X016828Y018174D01*
X016770Y018116D02*
X012288Y018116D01*
X012288Y018057D02*
X016711Y018057D01*
X016653Y017999D02*
X012288Y017999D01*
X012288Y017940D02*
X016594Y017940D01*
X016536Y017882D02*
X012288Y017882D01*
X012288Y017238D02*
X018168Y017238D01*
X018211Y017180D02*
X012288Y017180D01*
X012288Y017121D02*
X018270Y017121D01*
X018231Y016829D02*
X021662Y016829D01*
X021604Y016887D02*
X012288Y016887D01*
X012288Y016829D02*
X014844Y016829D01*
X014785Y016770D02*
X012288Y016770D01*
X012288Y016712D02*
X014743Y016712D01*
X014743Y016653D02*
X012288Y016653D01*
X012288Y016595D02*
X014743Y016595D01*
X014760Y016536D02*
X012288Y016536D01*
X012288Y016478D02*
X014804Y016478D01*
X014804Y016419D02*
X012288Y016419D01*
X012288Y016361D02*
X014804Y016361D01*
X014804Y016302D02*
X012288Y016302D01*
X012288Y016244D02*
X014804Y016244D01*
X014804Y016185D02*
X012288Y016185D01*
X012288Y016127D02*
X014804Y016127D01*
X014804Y016068D02*
X012288Y016068D01*
X012288Y016010D02*
X014804Y016010D01*
X014804Y015951D02*
X012288Y015951D01*
X012288Y015893D02*
X014804Y015893D01*
X014804Y015834D02*
X012288Y015834D01*
X012288Y015776D02*
X014804Y015776D01*
X014804Y015717D02*
X012288Y015717D01*
X012288Y015659D02*
X014804Y015659D01*
X014804Y015600D02*
X012288Y015600D01*
X012288Y015542D02*
X014804Y015542D01*
X014856Y015483D02*
X012288Y015483D01*
X012288Y015425D02*
X018864Y015425D01*
X019113Y015425D02*
X019789Y015425D01*
X019913Y015598D02*
X019913Y015637D01*
X019795Y015776D02*
X019107Y015776D01*
X019087Y016149D02*
X018634Y016602D01*
X018634Y016621D01*
X018762Y016770D02*
X021888Y016770D01*
X021888Y016712D02*
X022012Y016588D01*
X022151Y016588D01*
X022449Y016318D01*
X022482Y016285D01*
X022485Y016285D01*
X022488Y016283D01*
X022534Y016285D01*
X023555Y016285D01*
X023567Y016274D01*
X023741Y016274D01*
X023778Y016311D01*
X023778Y016298D01*
X023807Y016269D01*
X019136Y016269D01*
X018844Y016561D01*
X018844Y016689D01*
X018844Y016653D02*
X021947Y016653D01*
X022005Y016595D02*
X018844Y016595D01*
X018869Y016536D02*
X022208Y016536D01*
X022273Y016478D02*
X018927Y016478D01*
X018986Y016419D02*
X022337Y016419D01*
X022401Y016361D02*
X019044Y016361D01*
X019103Y016302D02*
X022464Y016302D01*
X022532Y016405D02*
X022099Y016799D01*
X021902Y016936D02*
X021724Y016936D01*
X021469Y017192D01*
X021428Y017063D02*
X012288Y017063D01*
X012288Y017004D02*
X021487Y017004D01*
X021545Y016946D02*
X012288Y016946D01*
X015062Y016829D02*
X018013Y016829D01*
X017954Y016770D02*
X015120Y016770D01*
X015163Y016712D02*
X017912Y016712D01*
X018290Y016770D02*
X018506Y016770D01*
X018447Y016712D02*
X018332Y016712D01*
X018332Y016653D02*
X018424Y016653D01*
X018424Y016595D02*
X018338Y016595D01*
X018396Y016536D02*
X018424Y016536D01*
X018455Y016478D02*
X018461Y016478D01*
X018513Y016419D02*
X018519Y016419D01*
X018572Y016361D02*
X018705Y016361D01*
X018763Y016302D02*
X018630Y016302D01*
X018689Y016244D02*
X018822Y016244D01*
X018880Y016185D02*
X018747Y016185D01*
X019087Y016149D02*
X024323Y016149D01*
X024481Y016010D02*
X025799Y016010D01*
X025937Y016169D02*
X025583Y016169D01*
X025287Y016464D01*
X024382Y016464D01*
X024518Y016302D02*
X025279Y016302D01*
X025338Y016244D02*
X024525Y016244D01*
X024533Y016185D02*
X025396Y016185D01*
X025455Y016127D02*
X024533Y016127D01*
X024533Y016068D02*
X025513Y016068D01*
X026075Y016010D02*
X026101Y016010D01*
X026101Y015951D02*
X024422Y015951D01*
X024493Y015893D02*
X026101Y015893D01*
X026151Y015834D02*
X024552Y015834D01*
X024612Y015776D02*
X026210Y015776D01*
X026408Y015717D02*
X024672Y015717D01*
X024731Y015659D02*
X026408Y015659D01*
X026408Y015600D02*
X024791Y015600D01*
X024851Y015542D02*
X026408Y015542D01*
X026648Y015542D02*
X027063Y015542D01*
X027005Y015600D02*
X026648Y015600D01*
X026648Y015659D02*
X026946Y015659D01*
X026888Y015717D02*
X026648Y015717D01*
X026648Y015776D02*
X026829Y015776D01*
X026771Y015834D02*
X026648Y015834D01*
X026648Y015893D02*
X026712Y015893D01*
X026654Y015951D02*
X026648Y015951D01*
X026528Y016070D02*
X026528Y014869D01*
X026679Y015015D02*
X027590Y015015D01*
X027648Y014957D02*
X026737Y014957D01*
X026738Y014898D02*
X027707Y014898D01*
X027765Y014840D02*
X026738Y014840D01*
X026737Y014781D02*
X027824Y014781D01*
X028024Y015106D02*
X028024Y015539D01*
X027807Y015755D01*
X027748Y015755D01*
X023850Y019594D01*
X023693Y019594D01*
X023799Y019403D02*
X023873Y019403D01*
X023933Y019344D02*
X023531Y019344D01*
X023589Y019286D02*
X023992Y019286D01*
X024106Y019141D02*
X027551Y015617D01*
X027709Y015460D01*
X027787Y015460D01*
X028177Y015249D02*
X032268Y015249D01*
X032223Y015308D02*
X028366Y015308D01*
X028424Y015366D02*
X032223Y015366D01*
X032326Y015191D02*
X028234Y015191D01*
X028234Y015132D02*
X038947Y015132D01*
X038947Y015074D02*
X032270Y015074D01*
X032197Y014928D02*
X032158Y014889D01*
X032197Y014928D02*
X038240Y014928D01*
X038516Y014653D01*
X038726Y014664D02*
X038947Y014664D01*
X038947Y014606D02*
X038726Y014606D01*
X038707Y014547D02*
X038947Y014547D01*
X038947Y014489D02*
X038649Y014489D01*
X038726Y014723D02*
X038947Y014723D01*
X038947Y014781D02*
X038684Y014781D01*
X038626Y014840D02*
X038947Y014840D01*
X038947Y014898D02*
X038440Y014898D01*
X038381Y014957D02*
X038947Y014957D01*
X038947Y015015D02*
X038323Y015015D01*
X038218Y014781D02*
X032347Y014781D01*
X032288Y014723D02*
X038276Y014723D01*
X038262Y013962D02*
X038947Y013962D01*
X038947Y013904D02*
X038320Y013904D01*
X038351Y013845D02*
X038947Y013845D01*
X038947Y013787D02*
X038351Y013787D01*
X038351Y013728D02*
X038947Y013728D01*
X038918Y013670D02*
X038321Y013670D01*
X038022Y013962D02*
X036411Y013962D01*
X036171Y013962D02*
X035321Y013962D01*
X035379Y013904D02*
X036113Y013904D01*
X036082Y013845D02*
X035438Y013845D01*
X035496Y013787D02*
X036082Y013787D01*
X036082Y013728D02*
X035555Y013728D01*
X035613Y013670D02*
X036113Y013670D01*
X035566Y013377D02*
X014121Y013377D01*
X014180Y013436D02*
X035508Y013436D01*
X035449Y013494D02*
X014238Y013494D01*
X014414Y013670D02*
X022305Y013670D01*
X022247Y013728D02*
X014472Y013728D01*
X014232Y014021D02*
X012288Y014021D01*
X012288Y014079D02*
X014290Y014079D01*
X014173Y013962D02*
X012288Y013962D01*
X012288Y013904D02*
X014115Y013904D01*
X014056Y013845D02*
X012288Y013845D01*
X012288Y013787D02*
X013998Y013787D01*
X013939Y013728D02*
X012288Y013728D01*
X012288Y013670D02*
X013881Y013670D01*
X013822Y013611D02*
X012288Y013611D01*
X012288Y013553D02*
X013764Y013553D01*
X013705Y013494D02*
X012288Y013494D01*
X012288Y013436D02*
X013534Y013436D01*
X013475Y013377D02*
X012288Y013377D01*
X012288Y013319D02*
X013445Y013319D01*
X013425Y013260D02*
X012288Y013260D01*
X012288Y013202D02*
X013425Y013202D01*
X013433Y013143D02*
X012288Y013143D01*
X012288Y013085D02*
X013457Y013085D01*
X013503Y013026D02*
X012288Y013026D01*
X010851Y011388D02*
X025834Y011388D01*
X025865Y011330D02*
X010842Y011330D01*
X010827Y011271D02*
X025865Y011271D01*
X025865Y011213D02*
X010804Y011213D01*
X010773Y011154D02*
X025871Y011154D01*
X025929Y011096D02*
X010731Y011096D01*
X010671Y011037D02*
X025988Y011037D01*
X026162Y011037D02*
X026355Y011037D01*
X026318Y010979D02*
X010582Y010979D01*
X010377Y010979D02*
X010317Y010979D01*
X010317Y011037D02*
X010377Y011037D01*
X010377Y011096D02*
X010317Y011096D01*
X010317Y011154D02*
X010377Y011154D01*
X010377Y011213D02*
X010317Y011213D01*
X010317Y011271D02*
X010377Y011271D01*
X010377Y011330D02*
X010317Y011330D01*
X010317Y011505D02*
X010377Y011505D01*
X010377Y011564D02*
X010317Y011564D01*
X010317Y011622D02*
X010377Y011622D01*
X010377Y011681D02*
X010317Y011681D01*
X010317Y011739D02*
X010377Y011739D01*
X010377Y011798D02*
X010317Y011798D01*
X010317Y011856D02*
X010377Y011856D01*
X010377Y011915D02*
X010317Y011915D01*
X010225Y011915D02*
X008027Y011915D01*
X007936Y011915D02*
X007876Y011915D01*
X007876Y011929D02*
X007866Y011929D01*
X007788Y011916D01*
X007712Y011892D01*
X007641Y011856D01*
X007577Y011809D01*
X007521Y011753D01*
X007475Y011689D01*
X007439Y011618D01*
X007414Y011543D01*
X007402Y011464D01*
X007402Y011454D01*
X007876Y011454D01*
X007876Y011394D01*
X007936Y011394D01*
X007936Y011454D01*
X007876Y011454D01*
X007876Y011929D01*
X007876Y011856D02*
X007936Y011856D01*
X007936Y011798D02*
X007876Y011798D01*
X007876Y011739D02*
X007936Y011739D01*
X007936Y011681D02*
X007876Y011681D01*
X007876Y011622D02*
X007936Y011622D01*
X007936Y011564D02*
X007876Y011564D01*
X007876Y011505D02*
X007936Y011505D01*
X007876Y011447D02*
X000280Y011447D01*
X000280Y011505D02*
X007408Y011505D01*
X007421Y011564D02*
X000280Y011564D01*
X000280Y011622D02*
X007441Y011622D01*
X007471Y011681D02*
X000280Y011681D01*
X000280Y011739D02*
X007511Y011739D01*
X007566Y011798D02*
X000280Y011798D01*
X000280Y011856D02*
X007643Y011856D01*
X007784Y011915D02*
X000280Y011915D01*
X000280Y011973D02*
X001759Y011973D01*
X001701Y012032D02*
X000280Y012032D01*
X000280Y012090D02*
X001693Y012090D01*
X001693Y012149D02*
X000280Y012149D01*
X000280Y012207D02*
X001693Y012207D01*
X001693Y012266D02*
X000280Y012266D01*
X000280Y012324D02*
X001693Y012324D01*
X001693Y012383D02*
X000280Y012383D01*
X000280Y012441D02*
X001693Y012441D01*
X001693Y012500D02*
X000280Y012500D01*
X000280Y012558D02*
X001693Y012558D01*
X001693Y012617D02*
X000280Y012617D01*
X000280Y012675D02*
X001693Y012675D01*
X001693Y012734D02*
X000280Y012734D01*
X000280Y012792D02*
X001693Y012792D01*
X001693Y012851D02*
X000280Y012851D01*
X000280Y012909D02*
X001693Y012909D01*
X001693Y012968D02*
X000280Y012968D01*
X000280Y013026D02*
X001693Y013026D01*
X001693Y013085D02*
X000280Y013085D01*
X000280Y013143D02*
X001693Y013143D01*
X001693Y013202D02*
X000280Y013202D01*
X000280Y013260D02*
X001693Y013260D01*
X001693Y013319D02*
X000280Y013319D01*
X000280Y013377D02*
X001693Y013377D01*
X001693Y013436D02*
X000280Y013436D01*
X000280Y013494D02*
X001693Y013494D01*
X001693Y013553D02*
X000280Y013553D01*
X000280Y013611D02*
X001693Y013611D01*
X001693Y013670D02*
X000280Y013670D01*
X000280Y013728D02*
X001693Y013728D01*
X001693Y013787D02*
X000280Y013787D01*
X000280Y013845D02*
X001693Y013845D01*
X001693Y013904D02*
X000280Y013904D01*
X000280Y013962D02*
X001693Y013962D01*
X001693Y014021D02*
X000280Y014021D01*
X000280Y014079D02*
X001693Y014079D01*
X001693Y014138D02*
X000280Y014138D01*
X000280Y014196D02*
X001693Y014196D01*
X001693Y014255D02*
X000280Y014255D01*
X000280Y014313D02*
X001693Y014313D01*
X001693Y014372D02*
X000280Y014372D01*
X000280Y014430D02*
X001693Y014430D01*
X001693Y014489D02*
X000280Y014489D01*
X000280Y014547D02*
X001693Y014547D01*
X001693Y014606D02*
X000280Y014606D01*
X000280Y014664D02*
X001693Y014664D01*
X001693Y014723D02*
X000280Y014723D01*
X000280Y014781D02*
X001693Y014781D01*
X001693Y014840D02*
X000280Y014840D01*
X000280Y014898D02*
X001693Y014898D01*
X001693Y014957D02*
X000280Y014957D01*
X000280Y015015D02*
X001693Y015015D01*
X001693Y015074D02*
X000280Y015074D01*
X000280Y015132D02*
X001693Y015132D01*
X001693Y015191D02*
X000280Y015191D01*
X000280Y015249D02*
X001693Y015249D01*
X001693Y015308D02*
X000280Y015308D01*
X000280Y015366D02*
X001693Y015366D01*
X001693Y015425D02*
X000280Y015425D01*
X000280Y015483D02*
X001693Y015483D01*
X001693Y015542D02*
X000280Y015542D01*
X000280Y015600D02*
X001693Y015600D01*
X001693Y015659D02*
X000280Y015659D01*
X000280Y015717D02*
X001693Y015717D01*
X001693Y015776D02*
X000280Y015776D01*
X000280Y015834D02*
X001693Y015834D01*
X001693Y015893D02*
X000280Y015893D01*
X000280Y015951D02*
X001693Y015951D01*
X001693Y016010D02*
X000280Y016010D01*
X000280Y016068D02*
X001693Y016068D01*
X001693Y016127D02*
X000280Y016127D01*
X000280Y016185D02*
X001693Y016185D01*
X001693Y016244D02*
X000280Y016244D01*
X000280Y016302D02*
X001693Y016302D01*
X001693Y016361D02*
X000280Y016361D01*
X000280Y016419D02*
X001693Y016419D01*
X001693Y016478D02*
X000280Y016478D01*
X000280Y016536D02*
X001693Y016536D01*
X001693Y016595D02*
X000280Y016595D01*
X000280Y016653D02*
X001693Y016653D01*
X001693Y016712D02*
X000280Y016712D01*
X000280Y016770D02*
X001693Y016770D01*
X001693Y016829D02*
X000280Y016829D01*
X000280Y016887D02*
X001693Y016887D01*
X001693Y016946D02*
X000280Y016946D01*
X000280Y017004D02*
X001693Y017004D01*
X001693Y017063D02*
X000280Y017063D01*
X000280Y017121D02*
X001693Y017121D01*
X001693Y017180D02*
X000280Y017180D01*
X000280Y017238D02*
X001693Y017238D01*
X001693Y017297D02*
X000280Y017297D01*
X000280Y017355D02*
X001693Y017355D01*
X001693Y017414D02*
X000280Y017414D01*
X000280Y017472D02*
X001693Y017472D01*
X001693Y017531D02*
X000280Y017531D01*
X000280Y017589D02*
X001693Y017589D01*
X001693Y017648D02*
X000280Y017648D01*
X000280Y017706D02*
X001693Y017706D01*
X001693Y017765D02*
X000280Y017765D01*
X000280Y017823D02*
X001693Y017823D01*
X001693Y017882D02*
X000280Y017882D01*
X000280Y017940D02*
X001693Y017940D01*
X001693Y017999D02*
X000280Y017999D01*
X000280Y018057D02*
X001693Y018057D01*
X001693Y018116D02*
X000280Y018116D01*
X000280Y018174D02*
X001693Y018174D01*
X001693Y018233D02*
X000280Y018233D01*
X000280Y018291D02*
X001693Y018291D01*
X001693Y018350D02*
X000280Y018350D01*
X000280Y018408D02*
X001693Y018408D01*
X001693Y018467D02*
X000280Y018467D01*
X000280Y018525D02*
X001693Y018525D01*
X001693Y018584D02*
X000280Y018584D01*
X000280Y018642D02*
X001693Y018642D01*
X001693Y018701D02*
X000280Y018701D01*
X000280Y018759D02*
X001693Y018759D01*
X001693Y018818D02*
X000280Y018818D01*
X000280Y018876D02*
X001693Y018876D01*
X001693Y018935D02*
X000280Y018935D01*
X000280Y018993D02*
X001693Y018993D01*
X001693Y019052D02*
X000280Y019052D01*
X000280Y019110D02*
X001693Y019110D01*
X001693Y019169D02*
X000280Y019169D01*
X000280Y019227D02*
X001693Y019227D01*
X001693Y019286D02*
X000280Y019286D01*
X000280Y019344D02*
X001693Y019344D01*
X001693Y019403D02*
X000280Y019403D01*
X000280Y019461D02*
X001693Y019461D01*
X001693Y019520D02*
X000280Y019520D01*
X000280Y019578D02*
X001693Y019578D01*
X001693Y019637D02*
X000280Y019637D01*
X000280Y019695D02*
X001693Y019695D01*
X001693Y019754D02*
X000280Y019754D01*
X000280Y019812D02*
X001693Y019812D01*
X001693Y019871D02*
X000280Y019871D01*
X000280Y019929D02*
X001693Y019929D01*
X001693Y019988D02*
X000280Y019988D01*
X000280Y020046D02*
X001693Y020046D01*
X001693Y020105D02*
X000280Y020105D01*
X000280Y020163D02*
X001693Y020163D01*
X001693Y020222D02*
X000280Y020222D01*
X000280Y020280D02*
X001693Y020280D01*
X001693Y020339D02*
X000280Y020339D01*
X000280Y020397D02*
X001693Y020397D01*
X001693Y020456D02*
X000280Y020456D01*
X000280Y020514D02*
X001693Y020514D01*
X001693Y020573D02*
X000280Y020573D01*
X000280Y020631D02*
X001693Y020631D01*
X001693Y020690D02*
X000280Y020690D01*
X000280Y020748D02*
X001693Y020748D01*
X001693Y020807D02*
X000280Y020807D01*
X000280Y020865D02*
X001693Y020865D01*
X001693Y020924D02*
X000280Y020924D01*
X000280Y020982D02*
X001693Y020982D01*
X001693Y021041D02*
X000280Y021041D01*
X000280Y021099D02*
X001693Y021099D01*
X001693Y021158D02*
X000280Y021158D01*
X000280Y021216D02*
X001693Y021216D01*
X001693Y021275D02*
X000280Y021275D01*
X000280Y021333D02*
X001693Y021333D01*
X001693Y021392D02*
X000280Y021392D01*
X000280Y021450D02*
X001693Y021450D01*
X001693Y021509D02*
X000280Y021509D01*
X000280Y021567D02*
X001693Y021567D01*
X001693Y021626D02*
X000280Y021626D01*
X000280Y021684D02*
X001693Y021684D01*
X001693Y021743D02*
X000280Y021743D01*
X000280Y021801D02*
X001693Y021801D01*
X001693Y021860D02*
X000280Y021860D01*
X000280Y021918D02*
X001693Y021918D01*
X001693Y021977D02*
X000280Y021977D01*
X000280Y022035D02*
X001693Y022035D01*
X001693Y022094D02*
X000280Y022094D01*
X000280Y022152D02*
X001693Y022152D01*
X001693Y022211D02*
X000280Y022211D01*
X000280Y022269D02*
X001693Y022269D01*
X001693Y022328D02*
X000280Y022328D01*
X000280Y022386D02*
X001693Y022386D01*
X001693Y022445D02*
X000280Y022445D01*
X000280Y022503D02*
X001693Y022503D01*
X001693Y022562D02*
X000280Y022562D01*
X000280Y022620D02*
X001693Y022620D01*
X001693Y022679D02*
X000280Y022679D01*
X000280Y022737D02*
X001693Y022737D01*
X001693Y022796D02*
X000280Y022796D01*
X000280Y022854D02*
X001693Y022854D01*
X001693Y022913D02*
X000280Y022913D01*
X000280Y022971D02*
X001693Y022971D01*
X001693Y023030D02*
X000280Y023030D01*
X000280Y023088D02*
X001693Y023088D01*
X001693Y023147D02*
X000280Y023147D01*
X000280Y023205D02*
X001693Y023205D01*
X001693Y023264D02*
X000280Y023264D01*
X000280Y023322D02*
X001693Y023322D01*
X001693Y023381D02*
X000280Y023381D01*
X000280Y023439D02*
X001693Y023439D01*
X001693Y023498D02*
X000280Y023498D01*
X000280Y023556D02*
X001693Y023556D01*
X001693Y023615D02*
X000280Y023615D01*
X000280Y023673D02*
X001693Y023673D01*
X001693Y023732D02*
X000280Y023732D01*
X000280Y023790D02*
X001693Y023790D01*
X001693Y023849D02*
X000280Y023849D01*
X000280Y023907D02*
X001693Y023907D01*
X001693Y023966D02*
X000280Y023966D01*
X000280Y024024D02*
X001693Y024024D01*
X001693Y024083D02*
X000280Y024083D01*
X000280Y024141D02*
X001693Y024141D01*
X001693Y024200D02*
X000280Y024200D01*
X000280Y024258D02*
X001693Y024258D01*
X001693Y024317D02*
X000280Y024317D01*
X000280Y024375D02*
X001693Y024375D01*
X001693Y024434D02*
X000280Y024434D01*
X000280Y024492D02*
X001693Y024492D01*
X001693Y024551D02*
X000280Y024551D01*
X000280Y024609D02*
X001693Y024609D01*
X001693Y024668D02*
X000280Y024668D01*
X000280Y024726D02*
X001693Y024726D01*
X001693Y024785D02*
X000280Y024785D01*
X000280Y024843D02*
X001693Y024843D01*
X001693Y024902D02*
X000280Y024902D01*
X000280Y024960D02*
X001693Y024960D01*
X001693Y025019D02*
X000280Y025019D01*
X000280Y025077D02*
X001693Y025077D01*
X001693Y025136D02*
X000280Y025136D01*
X000280Y025194D02*
X001693Y025194D01*
X001693Y025253D02*
X000280Y025253D01*
X000280Y025311D02*
X001693Y025311D01*
X001693Y025370D02*
X000280Y025370D01*
X000280Y025428D02*
X001693Y025428D01*
X001693Y025487D02*
X000280Y025487D01*
X000280Y025545D02*
X001693Y025545D01*
X001693Y025604D02*
X000280Y025604D01*
X000280Y025662D02*
X001693Y025662D01*
X001693Y025721D02*
X000280Y025721D01*
X000280Y025779D02*
X001693Y025779D01*
X001693Y025838D02*
X000280Y025838D01*
X000280Y025896D02*
X001693Y025896D01*
X001693Y025955D02*
X000280Y025955D01*
X000280Y026013D02*
X001693Y026013D01*
X001693Y026072D02*
X000280Y026072D01*
X000280Y026130D02*
X001693Y026130D01*
X001693Y026189D02*
X000280Y026189D01*
X000280Y026247D02*
X001693Y026247D01*
X001693Y026306D02*
X000280Y026306D01*
X000280Y026364D02*
X001693Y026364D01*
X001693Y026423D02*
X000280Y026423D01*
X000280Y026481D02*
X001693Y026481D01*
X001693Y026540D02*
X000280Y026540D01*
X000280Y026598D02*
X001693Y026598D01*
X001693Y026657D02*
X000280Y026657D01*
X000280Y026715D02*
X001693Y026715D01*
X001693Y026774D02*
X000280Y026774D01*
X000280Y026832D02*
X001693Y026832D01*
X001693Y026891D02*
X000280Y026891D01*
X000280Y026949D02*
X001693Y026949D01*
X001693Y027008D02*
X000280Y027008D01*
X000280Y027066D02*
X001693Y027066D01*
X001693Y027125D02*
X000280Y027125D01*
X000280Y027183D02*
X001693Y027183D01*
X001693Y027242D02*
X000280Y027242D01*
X000280Y027300D02*
X001693Y027300D01*
X001693Y027359D02*
X000280Y027359D01*
X000280Y027417D02*
X001693Y027417D01*
X001693Y027476D02*
X000280Y027476D01*
X000280Y027534D02*
X001693Y027534D01*
X001693Y027593D02*
X000280Y027593D01*
X000280Y027651D02*
X001693Y027651D01*
X001693Y027710D02*
X000280Y027710D01*
X000280Y027768D02*
X001693Y027768D01*
X001693Y027827D02*
X000280Y027827D01*
X000280Y027885D02*
X001693Y027885D01*
X001693Y027944D02*
X000280Y027944D01*
X000280Y028002D02*
X001693Y028002D01*
X001693Y028061D02*
X000280Y028061D01*
X000280Y028119D02*
X001693Y028119D01*
X001693Y028178D02*
X000280Y028178D01*
X000280Y028236D02*
X001693Y028236D01*
X001693Y028295D02*
X000280Y028295D01*
X000280Y028353D02*
X001693Y028353D01*
X001693Y028412D02*
X000280Y028412D01*
X000280Y028470D02*
X000997Y028470D01*
X001047Y028420D02*
X001221Y028420D01*
X001343Y028543D01*
X001343Y028669D01*
X001853Y029179D01*
X001939Y029179D01*
X001909Y029149D01*
X001909Y028976D01*
X002032Y028853D01*
X002205Y028853D01*
X002294Y028942D01*
X036864Y028942D01*
X036953Y028853D01*
X037126Y028853D01*
X037249Y028976D01*
X037249Y029109D01*
X037268Y029089D01*
X037441Y029089D01*
X037563Y029212D01*
X037563Y029385D01*
X037441Y029508D01*
X037268Y029508D01*
X037179Y029419D01*
X001754Y029419D01*
X001173Y028838D01*
X001047Y028838D01*
X000925Y028716D01*
X000925Y028543D01*
X001047Y028420D01*
X000939Y028529D02*
X000280Y028529D01*
X000280Y028587D02*
X000925Y028587D01*
X000925Y028646D02*
X000280Y028646D01*
X000280Y028704D02*
X000925Y028704D01*
X000972Y028763D02*
X000280Y028763D01*
X000280Y028821D02*
X001031Y028821D01*
X001215Y028880D02*
X000280Y028880D01*
X000280Y028938D02*
X001273Y028938D01*
X001332Y028997D02*
X000280Y028997D01*
X000280Y029055D02*
X001390Y029055D01*
X001449Y029114D02*
X000280Y029114D01*
X000280Y029172D02*
X001507Y029172D01*
X001566Y029231D02*
X000280Y029231D01*
X000280Y029289D02*
X001624Y029289D01*
X001683Y029348D02*
X000280Y029348D01*
X000280Y029406D02*
X001741Y029406D01*
X001803Y029299D02*
X001134Y028629D01*
X001271Y028470D02*
X001693Y028470D01*
X001736Y028529D02*
X001329Y028529D01*
X001343Y028587D02*
X039390Y028587D01*
X039390Y028529D02*
X012245Y028529D01*
X012288Y028470D02*
X039390Y028470D01*
X039390Y028412D02*
X012288Y028412D01*
X012288Y028353D02*
X039390Y028353D01*
X039390Y028295D02*
X012288Y028295D01*
X012288Y028236D02*
X039390Y028236D01*
X039390Y028178D02*
X012288Y028178D01*
X012288Y028119D02*
X039390Y028119D01*
X039390Y028061D02*
X012288Y028061D01*
X012288Y028002D02*
X039390Y028002D01*
X039390Y027944D02*
X012288Y027944D01*
X012288Y027885D02*
X039390Y027885D01*
X039390Y027827D02*
X034358Y027827D01*
X034350Y027834D02*
X034177Y027834D01*
X034108Y027765D01*
X032769Y027765D01*
X032169Y027165D01*
X032071Y027165D01*
X031949Y027043D01*
X031949Y026869D01*
X032071Y026747D01*
X032244Y026747D01*
X032367Y026869D01*
X032367Y026967D01*
X032885Y027485D01*
X034108Y027485D01*
X034177Y027416D01*
X034350Y027416D01*
X034473Y027539D01*
X034473Y027712D01*
X034350Y027834D01*
X034416Y027768D02*
X039390Y027768D01*
X039390Y027710D02*
X034473Y027710D01*
X034473Y027651D02*
X039390Y027651D01*
X039390Y027593D02*
X034473Y027593D01*
X034469Y027534D02*
X039390Y027534D01*
X039390Y027476D02*
X038784Y027476D01*
X038760Y027500D02*
X038587Y027500D01*
X038498Y027411D01*
X035542Y027411D01*
X035453Y027500D01*
X035280Y027500D01*
X035157Y027377D01*
X035157Y027204D01*
X035280Y027082D01*
X035453Y027082D01*
X035542Y027171D01*
X038498Y027171D01*
X038587Y027082D01*
X038760Y027082D01*
X038882Y027204D01*
X038882Y027377D01*
X038760Y027500D01*
X038842Y027417D02*
X039390Y027417D01*
X039390Y027359D02*
X038882Y027359D01*
X038882Y027300D02*
X039390Y027300D01*
X039390Y027242D02*
X038882Y027242D01*
X038862Y027183D02*
X039390Y027183D01*
X039390Y027125D02*
X038803Y027125D01*
X038673Y027291D02*
X035366Y027291D01*
X035157Y027300D02*
X032700Y027300D01*
X032642Y027242D02*
X035157Y027242D01*
X035178Y027183D02*
X032583Y027183D01*
X032525Y027125D02*
X035236Y027125D01*
X035157Y027359D02*
X032759Y027359D01*
X032817Y027417D02*
X034176Y027417D01*
X034118Y027476D02*
X032876Y027476D01*
X032655Y027651D02*
X012288Y027651D01*
X012288Y027593D02*
X032597Y027593D01*
X032538Y027534D02*
X012288Y027534D01*
X012288Y027476D02*
X032480Y027476D01*
X032421Y027417D02*
X012288Y027417D01*
X012288Y027359D02*
X032363Y027359D01*
X032304Y027300D02*
X012288Y027300D01*
X012288Y027242D02*
X032246Y027242D01*
X032187Y027183D02*
X012288Y027183D01*
X012288Y027125D02*
X032031Y027125D01*
X031972Y027066D02*
X012288Y027066D01*
X012288Y027008D02*
X013133Y027008D01*
X013105Y026994D02*
X013051Y026954D01*
X013003Y026906D01*
X012963Y026851D01*
X012932Y026791D01*
X012911Y026727D01*
X012901Y026660D01*
X012901Y026356D01*
X013301Y026356D01*
X013301Y027056D01*
X013297Y027056D01*
X013230Y027045D01*
X013166Y027025D01*
X013105Y026994D01*
X013046Y026949D02*
X012288Y026949D01*
X012288Y026891D02*
X012992Y026891D01*
X012953Y026832D02*
X012288Y026832D01*
X012288Y026774D02*
X012927Y026774D01*
X012910Y026715D02*
X012288Y026715D01*
X012288Y026657D02*
X012901Y026657D01*
X012901Y026598D02*
X012288Y026598D01*
X012288Y026540D02*
X012901Y026540D01*
X012901Y026481D02*
X012288Y026481D01*
X012288Y026423D02*
X012901Y026423D01*
X012901Y026364D02*
X012288Y026364D01*
X012288Y026306D02*
X013301Y026306D01*
X013301Y026296D02*
X012901Y026296D01*
X012901Y025992D01*
X012911Y025925D01*
X012932Y025861D01*
X012963Y025801D01*
X013003Y025746D01*
X013051Y025698D01*
X013105Y025658D01*
X013166Y025628D01*
X013230Y025607D01*
X013297Y025596D01*
X013301Y025596D01*
X013301Y026296D01*
X013361Y026296D01*
X013361Y026356D01*
X013761Y026356D01*
X013761Y026660D01*
X013750Y026727D01*
X013729Y026791D01*
X013699Y026851D01*
X013659Y026906D01*
X013611Y026954D01*
X013556Y026994D01*
X013496Y027025D01*
X013431Y027045D01*
X013365Y027056D01*
X013361Y027056D01*
X013361Y026356D01*
X013301Y026356D01*
X013301Y026296D01*
X013301Y026247D02*
X013361Y026247D01*
X013361Y026296D02*
X013361Y025596D01*
X013365Y025596D01*
X013431Y025607D01*
X013496Y025628D01*
X013556Y025658D01*
X013611Y025698D01*
X013659Y025746D01*
X013699Y025801D01*
X013729Y025861D01*
X013750Y025925D01*
X013761Y025992D01*
X013761Y026296D01*
X013361Y026296D01*
X013361Y026306D02*
X013941Y026306D01*
X013941Y026364D02*
X013761Y026364D01*
X013761Y026423D02*
X013941Y026423D01*
X013941Y026481D02*
X013761Y026481D01*
X013761Y026540D02*
X013941Y026540D01*
X013941Y026598D02*
X013761Y026598D01*
X013761Y026657D02*
X013941Y026657D01*
X013946Y026715D02*
X013752Y026715D01*
X013735Y026774D02*
X013970Y026774D01*
X013994Y026832D02*
X013708Y026832D01*
X013670Y026891D02*
X014044Y026891D01*
X014103Y026949D02*
X013615Y026949D01*
X013528Y027008D02*
X014234Y027008D01*
X014428Y027008D02*
X031949Y027008D01*
X031949Y026949D02*
X014559Y026949D01*
X014617Y026891D02*
X031949Y026891D01*
X031985Y026832D02*
X014667Y026832D01*
X014692Y026774D02*
X032044Y026774D01*
X032271Y026774D02*
X033538Y026774D01*
X033480Y026715D02*
X014716Y026715D01*
X014721Y026657D02*
X033421Y026657D01*
X033363Y026598D02*
X030035Y026598D01*
X030000Y026634D02*
X029827Y026634D01*
X029704Y026511D01*
X029704Y026338D01*
X029827Y026215D01*
X029953Y026215D01*
X030148Y026020D01*
X030218Y025950D01*
X033054Y025950D01*
X033124Y026020D01*
X033791Y026688D01*
X033917Y026688D01*
X034040Y026810D01*
X034040Y026984D01*
X033917Y027106D01*
X033744Y027106D01*
X033622Y026984D01*
X033622Y026858D01*
X032954Y026190D01*
X030317Y026190D01*
X030123Y026385D01*
X030123Y026511D01*
X030000Y026634D01*
X030094Y026540D02*
X033304Y026540D01*
X033246Y026481D02*
X030123Y026481D01*
X030123Y026423D02*
X033187Y026423D01*
X033129Y026364D02*
X030143Y026364D01*
X030202Y026306D02*
X033070Y026306D01*
X033012Y026247D02*
X030260Y026247D01*
X030268Y026070D02*
X029913Y026424D01*
X029704Y026423D02*
X014721Y026423D01*
X014721Y026481D02*
X029704Y026481D01*
X029733Y026540D02*
X014721Y026540D01*
X014721Y026598D02*
X029792Y026598D01*
X029704Y026364D02*
X014721Y026364D01*
X014721Y026306D02*
X029736Y026306D01*
X029795Y026247D02*
X014721Y026247D01*
X014721Y026189D02*
X029979Y026189D01*
X030038Y026130D02*
X014724Y026130D01*
X014783Y026072D02*
X030096Y026072D01*
X030148Y026020D02*
X030148Y026020D01*
X030155Y026013D02*
X014841Y026013D01*
X014900Y025955D02*
X023597Y025955D01*
X023868Y025955D02*
X028085Y025955D01*
X028356Y025955D02*
X030213Y025955D01*
X030268Y026070D02*
X033004Y026070D01*
X033831Y026897D01*
X034040Y026891D02*
X037577Y026891D01*
X037577Y026832D02*
X034040Y026832D01*
X034003Y026774D02*
X037538Y026774D01*
X037481Y026715D02*
X033945Y026715D01*
X033761Y026657D02*
X037424Y026657D01*
X037367Y026598D02*
X033702Y026598D01*
X033644Y026540D02*
X037310Y026540D01*
X037253Y026481D02*
X033585Y026481D01*
X033527Y026423D02*
X037196Y026423D01*
X037138Y026364D02*
X033468Y026364D01*
X033410Y026306D02*
X037081Y026306D01*
X037024Y026247D02*
X034246Y026247D01*
X034304Y026189D02*
X036967Y026189D01*
X036980Y026031D02*
X034165Y026031D01*
X034146Y026050D01*
X033987Y026189D02*
X033293Y026189D01*
X033351Y026247D02*
X034046Y026247D01*
X033936Y026130D02*
X033234Y026130D01*
X033176Y026072D02*
X033936Y026072D01*
X033936Y026013D02*
X033117Y026013D01*
X033059Y025955D02*
X033944Y025955D01*
X033597Y026832D02*
X032330Y026832D01*
X032367Y026891D02*
X033622Y026891D01*
X033622Y026949D02*
X032367Y026949D01*
X032408Y027008D02*
X033646Y027008D01*
X033705Y027066D02*
X032466Y027066D01*
X032714Y027710D02*
X012288Y027710D01*
X012288Y027768D02*
X034111Y027768D01*
X034170Y027827D02*
X012288Y027827D01*
X013301Y027008D02*
X013361Y027008D01*
X013361Y026949D02*
X013301Y026949D01*
X013301Y026891D02*
X013361Y026891D01*
X013361Y026832D02*
X013301Y026832D01*
X013301Y026774D02*
X013361Y026774D01*
X013361Y026715D02*
X013301Y026715D01*
X013301Y026657D02*
X013361Y026657D01*
X013361Y026598D02*
X013301Y026598D01*
X013301Y026540D02*
X013361Y026540D01*
X013361Y026481D02*
X013301Y026481D01*
X013301Y026423D02*
X013361Y026423D01*
X013361Y026364D02*
X013301Y026364D01*
X013301Y026189D02*
X013361Y026189D01*
X013361Y026130D02*
X013301Y026130D01*
X013301Y026072D02*
X013361Y026072D01*
X013361Y026013D02*
X013301Y026013D01*
X013301Y025955D02*
X013361Y025955D01*
X013361Y025896D02*
X013301Y025896D01*
X013301Y025838D02*
X013361Y025838D01*
X013361Y025779D02*
X013301Y025779D01*
X013301Y025721D02*
X013361Y025721D01*
X013361Y025662D02*
X013301Y025662D01*
X013301Y025604D02*
X013361Y025604D01*
X013414Y025604D02*
X023627Y025604D01*
X023837Y025604D02*
X028116Y025604D01*
X028326Y025604D02*
X032989Y025604D01*
X032932Y025545D02*
X012288Y025545D01*
X012288Y025487D02*
X032932Y025487D01*
X032932Y025428D02*
X012288Y025428D01*
X012288Y025370D02*
X032935Y025370D01*
X032993Y025311D02*
X012288Y025311D01*
X012288Y025253D02*
X033052Y025253D01*
X033232Y025253D02*
X039115Y025253D01*
X039295Y025253D02*
X039390Y025253D01*
X039390Y025311D02*
X039353Y025311D01*
X039390Y025194D02*
X012288Y025194D01*
X012288Y025136D02*
X039390Y025136D01*
X039390Y025077D02*
X012288Y025077D01*
X012288Y025019D02*
X039390Y025019D01*
X039390Y024960D02*
X012288Y024960D01*
X012288Y024902D02*
X015161Y024902D01*
X015181Y024922D02*
X015058Y024799D01*
X015058Y024625D01*
X015181Y024502D01*
X015355Y024502D01*
X015445Y024592D01*
X035839Y024592D01*
X035929Y024502D01*
X036103Y024502D01*
X036226Y024625D01*
X036226Y024799D01*
X036103Y024922D01*
X035929Y024922D01*
X035839Y024832D01*
X015445Y024832D01*
X015355Y024922D01*
X015181Y024922D01*
X015102Y024843D02*
X012288Y024843D01*
X012288Y024785D02*
X015058Y024785D01*
X015058Y024726D02*
X012288Y024726D01*
X012288Y024668D02*
X015058Y024668D01*
X015073Y024609D02*
X012288Y024609D01*
X012288Y024551D02*
X015132Y024551D01*
X015268Y024712D02*
X036016Y024712D01*
X036226Y024726D02*
X039390Y024726D01*
X039390Y024668D02*
X036226Y024668D01*
X036210Y024609D02*
X039390Y024609D01*
X039390Y024551D02*
X036152Y024551D01*
X036226Y024785D02*
X039390Y024785D01*
X039390Y024843D02*
X036181Y024843D01*
X036123Y024902D02*
X039390Y024902D01*
X039390Y024492D02*
X012288Y024492D01*
X012288Y024434D02*
X039390Y024434D01*
X039390Y024375D02*
X012288Y024375D01*
X012288Y024317D02*
X039390Y024317D01*
X039390Y024258D02*
X012288Y024258D01*
X012288Y024200D02*
X039390Y024200D01*
X039390Y024141D02*
X012288Y024141D01*
X012288Y024083D02*
X039390Y024083D01*
X039390Y024024D02*
X012288Y024024D01*
X012288Y023966D02*
X037178Y023966D01*
X037208Y023997D02*
X037118Y023907D01*
X035613Y023907D01*
X035513Y023907D01*
X033910Y022304D01*
X033783Y022304D01*
X033660Y022181D01*
X033660Y022007D01*
X033783Y021884D01*
X033896Y021884D01*
X033896Y021751D01*
X034019Y021628D01*
X034193Y021628D01*
X034316Y021751D01*
X034316Y021881D01*
X034994Y022573D01*
X035119Y022573D01*
X035242Y022696D01*
X035242Y022870D01*
X035119Y022993D01*
X034945Y022993D01*
X034822Y022870D01*
X034822Y022740D01*
X034144Y022048D01*
X034080Y022048D01*
X034080Y022134D01*
X035613Y023667D01*
X037118Y023667D01*
X037208Y023577D01*
X037382Y023577D01*
X037505Y023700D01*
X037505Y023874D01*
X037382Y023997D01*
X037208Y023997D01*
X037119Y023907D02*
X033850Y023907D01*
X033800Y023957D02*
X033626Y023957D01*
X033536Y023867D01*
X033231Y023867D01*
X033131Y023867D01*
X032182Y022918D01*
X032166Y022934D01*
X031992Y022934D01*
X031869Y022811D01*
X031869Y022637D01*
X031959Y022547D01*
X031959Y022124D01*
X031745Y021910D01*
X031618Y021910D01*
X031495Y021787D01*
X031495Y021613D01*
X031618Y021490D01*
X031792Y021490D01*
X031915Y021613D01*
X031915Y021740D01*
X032199Y022024D01*
X032199Y022547D01*
X032289Y022637D01*
X032289Y022685D01*
X032297Y022694D01*
X033231Y023627D01*
X033536Y023627D01*
X033626Y023537D01*
X033800Y023537D01*
X033923Y023660D01*
X033923Y023834D01*
X033800Y023957D01*
X033908Y023849D02*
X035456Y023849D01*
X035397Y023790D02*
X033923Y023790D01*
X033923Y023732D02*
X035339Y023732D01*
X035280Y023673D02*
X033923Y023673D01*
X033877Y023615D02*
X035222Y023615D01*
X035163Y023556D02*
X033819Y023556D01*
X033800Y023406D02*
X033626Y023406D01*
X033503Y023283D01*
X033503Y023109D01*
X033626Y022986D01*
X033800Y022986D01*
X033835Y023022D01*
X033908Y022950D01*
X033908Y022773D01*
X033604Y022470D01*
X033368Y022470D01*
X033297Y022399D01*
X032946Y022048D01*
X032931Y022048D01*
X033498Y022615D01*
X033498Y022645D01*
X033588Y022735D01*
X033588Y022909D01*
X033465Y023032D01*
X033291Y023032D01*
X033168Y022909D01*
X033168Y022735D01*
X033223Y022680D01*
X031754Y021210D01*
X031683Y021140D01*
X031683Y020913D01*
X031593Y020823D01*
X031593Y020649D01*
X031716Y020525D01*
X031890Y020525D01*
X032013Y020649D01*
X032013Y020823D01*
X031923Y020913D01*
X031923Y021040D01*
X032696Y021812D01*
X032696Y021751D01*
X032819Y021628D01*
X032993Y021628D01*
X033116Y021751D01*
X033116Y021878D01*
X033467Y022230D01*
X033703Y022230D01*
X034077Y022604D01*
X034148Y022674D01*
X034148Y023049D01*
X033951Y023246D01*
X033923Y023274D01*
X033923Y023283D01*
X033800Y023406D01*
X033825Y023381D02*
X034988Y023381D01*
X035046Y023439D02*
X033043Y023439D01*
X032985Y023381D02*
X033600Y023381D01*
X033542Y023322D02*
X032926Y023322D01*
X032868Y023264D02*
X033503Y023264D01*
X033503Y023205D02*
X032809Y023205D01*
X032751Y023147D02*
X033503Y023147D01*
X033523Y023088D02*
X032692Y023088D01*
X032634Y023030D02*
X033289Y023030D01*
X033230Y022971D02*
X032575Y022971D01*
X032517Y022913D02*
X033172Y022913D01*
X033168Y022854D02*
X032458Y022854D01*
X032400Y022796D02*
X033168Y022796D01*
X033168Y022737D02*
X032341Y022737D01*
X032289Y022679D02*
X033223Y022679D01*
X033164Y022620D02*
X032273Y022620D01*
X032214Y022562D02*
X033106Y022562D01*
X033047Y022503D02*
X032199Y022503D01*
X032199Y022445D02*
X032989Y022445D01*
X032930Y022386D02*
X032199Y022386D01*
X032199Y022328D02*
X032872Y022328D01*
X032813Y022269D02*
X032199Y022269D01*
X032199Y022211D02*
X032755Y022211D01*
X032696Y022152D02*
X032199Y022152D01*
X032199Y022094D02*
X032638Y022094D01*
X032579Y022035D02*
X032199Y022035D01*
X032151Y021977D02*
X032521Y021977D01*
X032462Y021918D02*
X032093Y021918D01*
X032034Y021860D02*
X032404Y021860D01*
X032345Y021801D02*
X031976Y021801D01*
X031917Y021743D02*
X032287Y021743D01*
X032228Y021684D02*
X031915Y021684D01*
X031915Y021626D02*
X032170Y021626D01*
X032111Y021567D02*
X031869Y021567D01*
X031811Y021509D02*
X032053Y021509D01*
X031994Y021450D02*
X024860Y021450D01*
X024919Y021392D02*
X031936Y021392D01*
X031877Y021333D02*
X024977Y021333D01*
X025036Y021275D02*
X031819Y021275D01*
X031760Y021216D02*
X025094Y021216D01*
X025153Y021158D02*
X031702Y021158D01*
X031683Y021099D02*
X025211Y021099D01*
X025270Y021041D02*
X031683Y021041D01*
X031683Y020982D02*
X025328Y020982D01*
X025387Y020924D02*
X031683Y020924D01*
X031636Y020865D02*
X025445Y020865D01*
X025504Y020807D02*
X031593Y020807D01*
X031593Y020748D02*
X025562Y020748D01*
X025621Y020690D02*
X031593Y020690D01*
X031610Y020631D02*
X025679Y020631D01*
X025738Y020573D02*
X031669Y020573D01*
X031803Y020736D02*
X031803Y021090D01*
X033378Y022665D01*
X033378Y022822D01*
X033532Y022679D02*
X033813Y022679D01*
X033755Y022620D02*
X033498Y022620D01*
X033445Y022562D02*
X033696Y022562D01*
X033638Y022503D02*
X033387Y022503D01*
X033343Y022445D02*
X033328Y022445D01*
X033284Y022386D02*
X033270Y022386D01*
X033226Y022328D02*
X033211Y022328D01*
X033167Y022269D02*
X033153Y022269D01*
X033109Y022211D02*
X033094Y022211D01*
X033050Y022152D02*
X033036Y022152D01*
X032992Y022094D02*
X032977Y022094D01*
X033156Y021918D02*
X033748Y021918D01*
X033690Y021977D02*
X033214Y021977D01*
X033273Y022035D02*
X033660Y022035D01*
X033660Y022094D02*
X033331Y022094D01*
X033390Y022152D02*
X033660Y022152D01*
X033690Y022211D02*
X033448Y022211D01*
X033417Y022350D02*
X033654Y022350D01*
X034028Y022724D01*
X034028Y022999D01*
X033831Y023196D01*
X033713Y023196D01*
X033582Y023030D02*
X033467Y023030D01*
X033526Y022971D02*
X033886Y022971D01*
X033908Y022913D02*
X033584Y022913D01*
X033588Y022854D02*
X033908Y022854D01*
X033908Y022796D02*
X033588Y022796D01*
X033588Y022737D02*
X033872Y022737D01*
X034036Y022562D02*
X034169Y022562D01*
X034227Y022620D02*
X034094Y022620D01*
X034148Y022679D02*
X034286Y022679D01*
X034344Y022737D02*
X034148Y022737D01*
X034148Y022796D02*
X034403Y022796D01*
X034461Y022854D02*
X034148Y022854D01*
X034148Y022913D02*
X034520Y022913D01*
X034578Y022971D02*
X034148Y022971D01*
X034148Y023030D02*
X034637Y023030D01*
X034695Y023088D02*
X034108Y023088D01*
X034050Y023147D02*
X034754Y023147D01*
X034812Y023205D02*
X033991Y023205D01*
X033933Y023264D02*
X034871Y023264D01*
X034929Y023322D02*
X033883Y023322D01*
X033607Y023556D02*
X033160Y023556D01*
X033102Y023498D02*
X035105Y023498D01*
X035269Y023322D02*
X035573Y023322D01*
X035530Y023381D02*
X035327Y023381D01*
X035386Y023439D02*
X035530Y023439D01*
X035530Y023498D02*
X035444Y023498D01*
X035503Y023556D02*
X035548Y023556D01*
X035561Y023615D02*
X035606Y023615D01*
X035563Y023787D02*
X033870Y022094D01*
X034080Y022094D02*
X034189Y022094D01*
X034246Y022152D02*
X034099Y022152D01*
X034157Y022211D02*
X034304Y022211D01*
X034361Y022269D02*
X034216Y022269D01*
X034274Y022328D02*
X034418Y022328D01*
X034476Y022386D02*
X034333Y022386D01*
X034391Y022445D02*
X034533Y022445D01*
X034590Y022503D02*
X034450Y022503D01*
X034508Y022562D02*
X034647Y022562D01*
X034705Y022620D02*
X034567Y022620D01*
X034625Y022679D02*
X034762Y022679D01*
X034819Y022737D02*
X034684Y022737D01*
X034742Y022796D02*
X034822Y022796D01*
X034822Y022854D02*
X034801Y022854D01*
X034859Y022913D02*
X034865Y022913D01*
X034918Y022971D02*
X034923Y022971D01*
X034976Y023030D02*
X035620Y023030D01*
X035620Y023088D02*
X035035Y023088D01*
X035093Y023147D02*
X035620Y023147D01*
X035620Y023205D02*
X035152Y023205D01*
X035210Y023264D02*
X035620Y023264D01*
X035740Y023452D02*
X035740Y022428D01*
X035071Y021759D01*
X035071Y020381D01*
X034835Y020145D01*
X034975Y019988D02*
X035965Y019988D01*
X036023Y020046D02*
X035033Y020046D01*
X035045Y020105D02*
X036082Y020105D01*
X036140Y020163D02*
X035045Y020163D01*
X035081Y020222D02*
X036199Y020222D01*
X036257Y020280D02*
X035140Y020280D01*
X035121Y020261D02*
X035121Y020261D01*
X035191Y020339D02*
X036259Y020339D01*
X036259Y020397D02*
X035191Y020397D01*
X035191Y020456D02*
X035723Y020456D01*
X035664Y020514D02*
X035191Y020514D01*
X035191Y020573D02*
X035629Y020573D01*
X035629Y020631D02*
X035191Y020631D01*
X035191Y020690D02*
X035629Y020690D01*
X035653Y020748D02*
X035191Y020748D01*
X035191Y020807D02*
X035411Y020807D01*
X035353Y020865D02*
X035191Y020865D01*
X035191Y020924D02*
X035294Y020924D01*
X035294Y020982D02*
X035191Y020982D01*
X035191Y021041D02*
X035294Y021041D01*
X035295Y021099D02*
X035191Y021099D01*
X035191Y021158D02*
X035354Y021158D01*
X035412Y021216D02*
X035191Y021216D01*
X035191Y021275D02*
X037208Y021275D01*
X037185Y021333D02*
X035191Y021333D01*
X035191Y021392D02*
X037185Y021392D01*
X037185Y021450D02*
X035191Y021450D01*
X035191Y021509D02*
X037222Y021509D01*
X037254Y021567D02*
X035191Y021567D01*
X035191Y021626D02*
X037254Y021626D01*
X037254Y021684D02*
X035191Y021684D01*
X035224Y021743D02*
X037254Y021743D01*
X037254Y021801D02*
X035283Y021801D01*
X035341Y021860D02*
X037254Y021860D01*
X037254Y021918D02*
X035400Y021918D01*
X035458Y021977D02*
X037254Y021977D01*
X037254Y022035D02*
X035517Y022035D01*
X035575Y022094D02*
X037254Y022094D01*
X037254Y022152D02*
X035634Y022152D01*
X035692Y022211D02*
X037254Y022211D01*
X037217Y022269D02*
X035751Y022269D01*
X035809Y022328D02*
X037158Y022328D01*
X037100Y022386D02*
X035860Y022386D01*
X035860Y022445D02*
X037041Y022445D01*
X036983Y022503D02*
X035860Y022503D01*
X035860Y022562D02*
X036924Y022562D01*
X036866Y022620D02*
X035860Y022620D01*
X035860Y022679D02*
X036807Y022679D01*
X036651Y022737D02*
X035860Y022737D01*
X035860Y022796D02*
X036593Y022796D01*
X036555Y022854D02*
X035860Y022854D01*
X035860Y022913D02*
X036555Y022913D01*
X036555Y022971D02*
X035860Y022971D01*
X035860Y023030D02*
X036578Y023030D01*
X036636Y023088D02*
X035860Y023088D01*
X035860Y023147D02*
X039390Y023147D01*
X039390Y023205D02*
X035860Y023205D01*
X035860Y023264D02*
X039390Y023264D01*
X039390Y023322D02*
X035908Y023322D01*
X035950Y023381D02*
X039390Y023381D01*
X039390Y023439D02*
X035950Y023439D01*
X035950Y023498D02*
X039390Y023498D01*
X039390Y023556D02*
X035933Y023556D01*
X035874Y023615D02*
X037170Y023615D01*
X037295Y023787D02*
X035563Y023787D01*
X035620Y022971D02*
X035140Y022971D01*
X035198Y022913D02*
X035620Y022913D01*
X035620Y022854D02*
X035242Y022854D01*
X035242Y022796D02*
X035620Y022796D01*
X035620Y022737D02*
X035242Y022737D01*
X035225Y022679D02*
X035620Y022679D01*
X035620Y022620D02*
X035491Y022620D01*
X035549Y022562D02*
X035620Y022562D01*
X035620Y022503D02*
X035596Y022503D01*
X035386Y022428D02*
X034933Y021976D01*
X034933Y020578D01*
X034599Y020243D01*
X034599Y019909D01*
X035110Y019397D01*
X035320Y019403D02*
X035380Y019403D01*
X035325Y019344D02*
X035320Y019344D01*
X035302Y019286D02*
X035296Y019286D01*
X035244Y019227D02*
X035238Y019227D01*
X035445Y019259D02*
X034461Y018275D01*
X031980Y018275D01*
X031991Y018116D02*
X032557Y018116D01*
X032499Y018057D02*
X031933Y018057D01*
X031874Y017999D02*
X032440Y017999D01*
X032382Y017940D02*
X031816Y017940D01*
X031757Y017882D02*
X032323Y017882D01*
X032265Y017823D02*
X031699Y017823D01*
X031640Y017765D02*
X032206Y017765D01*
X032148Y017706D02*
X031582Y017706D01*
X031523Y017648D02*
X032089Y017648D01*
X032031Y017589D02*
X031465Y017589D01*
X031406Y017531D02*
X031972Y017531D01*
X031914Y017472D02*
X031348Y017472D01*
X031289Y017414D02*
X031855Y017414D01*
X031797Y017355D02*
X031231Y017355D01*
X031172Y017297D02*
X031738Y017297D01*
X031680Y017238D02*
X031114Y017238D01*
X031055Y017180D02*
X031621Y017180D01*
X031563Y017121D02*
X030997Y017121D01*
X030938Y017063D02*
X031504Y017063D01*
X031318Y017004D02*
X030880Y017004D01*
X030821Y016946D02*
X031260Y016946D01*
X031201Y016887D02*
X030763Y016887D01*
X030704Y016829D02*
X031199Y016829D01*
X031410Y016799D02*
X032630Y018019D01*
X034638Y018019D01*
X036724Y020106D01*
X036514Y020105D02*
X036421Y020105D01*
X036363Y020046D02*
X036496Y020046D01*
X036437Y019988D02*
X036304Y019988D01*
X036246Y019929D02*
X036379Y019929D01*
X036320Y019871D02*
X036187Y019871D01*
X036129Y019812D02*
X036262Y019812D01*
X036203Y019754D02*
X036070Y019754D01*
X036012Y019695D02*
X036145Y019695D01*
X036086Y019637D02*
X035953Y019637D01*
X035895Y019578D02*
X036028Y019578D01*
X035969Y019520D02*
X035836Y019520D01*
X035778Y019461D02*
X035911Y019461D01*
X035852Y019403D02*
X035719Y019403D01*
X035661Y019344D02*
X035794Y019344D01*
X035735Y019286D02*
X035602Y019286D01*
X035565Y019227D02*
X035677Y019227D01*
X035618Y019169D02*
X035524Y019169D01*
X035560Y019110D02*
X035466Y019110D01*
X035501Y019052D02*
X035407Y019052D01*
X035443Y018993D02*
X035349Y018993D01*
X035384Y018935D02*
X035290Y018935D01*
X035326Y018876D02*
X035232Y018876D01*
X035267Y018818D02*
X035173Y018818D01*
X035209Y018759D02*
X035115Y018759D01*
X035150Y018701D02*
X035056Y018701D01*
X035092Y018642D02*
X034998Y018642D01*
X035033Y018584D02*
X034939Y018584D01*
X034975Y018525D02*
X034881Y018525D01*
X034916Y018467D02*
X034822Y018467D01*
X034858Y018408D02*
X034764Y018408D01*
X034799Y018350D02*
X034705Y018350D01*
X034741Y018291D02*
X034647Y018291D01*
X034682Y018233D02*
X034588Y018233D01*
X034624Y018174D02*
X034530Y018174D01*
X034677Y017881D02*
X034835Y018039D01*
X035012Y018039D01*
X035839Y018865D01*
X036049Y018876D02*
X037503Y018876D01*
X037500Y018818D02*
X036049Y018818D01*
X036030Y018759D02*
X037500Y018759D01*
X037500Y018701D02*
X035971Y018701D01*
X035910Y018584D02*
X035727Y018584D01*
X035785Y018642D02*
X037557Y018642D01*
X037583Y018584D02*
X036122Y018584D01*
X035851Y018525D02*
X035668Y018525D01*
X035610Y018467D02*
X035806Y018467D01*
X035806Y018408D02*
X035551Y018408D01*
X035493Y018350D02*
X035806Y018350D01*
X035820Y018291D02*
X035434Y018291D01*
X035376Y018233D02*
X035879Y018233D01*
X036153Y018233D02*
X037552Y018233D01*
X037826Y018233D02*
X038947Y018233D01*
X038947Y018291D02*
X037885Y018291D01*
X037899Y018350D02*
X038947Y018350D01*
X038947Y018408D02*
X037899Y018408D01*
X037899Y018467D02*
X038947Y018467D01*
X038947Y018525D02*
X037854Y018525D01*
X037802Y018584D02*
X038679Y018584D01*
X038620Y018642D02*
X037860Y018642D01*
X037856Y018935D02*
X038624Y018935D01*
X038683Y018993D02*
X037798Y018993D01*
X037620Y018993D02*
X036008Y018993D01*
X036049Y018935D02*
X037561Y018935D01*
X037849Y019520D02*
X036309Y019520D01*
X036367Y019578D02*
X037791Y019578D01*
X037732Y019637D02*
X036426Y019637D01*
X036484Y019695D02*
X037546Y019695D01*
X037488Y019754D02*
X036543Y019754D01*
X036601Y019812D02*
X037459Y019812D01*
X037459Y019871D02*
X036660Y019871D01*
X036845Y019929D02*
X037459Y019929D01*
X037491Y019988D02*
X036904Y019988D01*
X036935Y020046D02*
X037549Y020046D01*
X037669Y019869D02*
X037945Y019594D01*
X038752Y019594D01*
X038715Y019461D02*
X036250Y019461D01*
X036192Y019403D02*
X038773Y019403D01*
X038832Y019344D02*
X036133Y019344D01*
X036075Y019286D02*
X038890Y019286D01*
X038947Y019227D02*
X036016Y019227D01*
X035958Y019169D02*
X038947Y019169D01*
X038947Y019110D02*
X035899Y019110D01*
X035949Y019052D02*
X038947Y019052D01*
X038947Y018993D02*
X038861Y018993D01*
X038919Y018935D02*
X038947Y018935D01*
X038923Y018642D02*
X038947Y018642D01*
X038947Y018584D02*
X038865Y018584D01*
X038947Y018174D02*
X035317Y018174D01*
X035259Y018116D02*
X038947Y018116D01*
X038947Y018057D02*
X035200Y018057D01*
X035142Y017999D02*
X038947Y017999D01*
X038947Y017940D02*
X035083Y017940D01*
X035190Y017882D02*
X038947Y017882D01*
X038947Y017823D02*
X035249Y017823D01*
X035281Y017765D02*
X038947Y017765D01*
X038947Y017706D02*
X035281Y017706D01*
X035281Y017648D02*
X038947Y017648D01*
X038947Y017589D02*
X035253Y017589D01*
X035195Y017531D02*
X038947Y017531D01*
X038947Y017472D02*
X035191Y017472D01*
X035191Y017414D02*
X038947Y017414D01*
X038947Y017355D02*
X035191Y017355D01*
X035191Y017297D02*
X038947Y017297D01*
X038947Y017238D02*
X035191Y017238D01*
X035191Y017180D02*
X038947Y017180D01*
X038947Y017121D02*
X038449Y017121D01*
X038425Y017145D02*
X038252Y017145D01*
X038144Y017037D01*
X036486Y017037D01*
X036417Y017106D01*
X036244Y017106D01*
X036122Y016984D01*
X036122Y016810D01*
X036244Y016688D01*
X036417Y016688D01*
X036486Y016757D01*
X038222Y016757D01*
X038252Y016727D01*
X038425Y016727D01*
X038548Y016850D01*
X038548Y017023D01*
X038425Y017145D01*
X038508Y017063D02*
X038947Y017063D01*
X038947Y017004D02*
X038548Y017004D01*
X038548Y016946D02*
X038947Y016946D01*
X038947Y016887D02*
X038548Y016887D01*
X038527Y016829D02*
X038947Y016829D01*
X038947Y016770D02*
X038468Y016770D01*
X038170Y017063D02*
X036460Y017063D01*
X036201Y017063D02*
X035107Y017063D01*
X035044Y017004D02*
X036143Y017004D01*
X036122Y016946D02*
X034980Y016946D01*
X034916Y016887D02*
X036122Y016887D01*
X036122Y016829D02*
X034852Y016829D01*
X034809Y016770D02*
X036162Y016770D01*
X036220Y016712D02*
X034809Y016712D01*
X034790Y016653D02*
X038947Y016653D01*
X038947Y016595D02*
X034731Y016595D01*
X034599Y016759D02*
X035071Y017192D01*
X035071Y017704D01*
X034861Y017706D02*
X034451Y017706D01*
X034509Y017648D02*
X034861Y017648D01*
X034888Y017589D02*
X034568Y017589D01*
X034626Y017531D02*
X034947Y017531D01*
X034951Y017472D02*
X034685Y017472D01*
X034743Y017414D02*
X034951Y017414D01*
X034951Y017355D02*
X034758Y017355D01*
X034758Y017297D02*
X034951Y017297D01*
X034944Y017238D02*
X034758Y017238D01*
X034758Y017180D02*
X034880Y017180D01*
X034816Y017121D02*
X034737Y017121D01*
X034752Y017063D02*
X034678Y017063D01*
X034689Y017004D02*
X034620Y017004D01*
X034638Y017192D02*
X032827Y015381D01*
X033037Y015366D02*
X038947Y015366D01*
X038947Y015308D02*
X033037Y015308D01*
X032992Y015249D02*
X038947Y015249D01*
X038947Y015191D02*
X032934Y015191D01*
X032720Y015191D02*
X032540Y015191D01*
X032598Y015249D02*
X032662Y015249D01*
X032433Y015381D02*
X034362Y017310D01*
X034152Y017297D02*
X033672Y017297D01*
X033614Y017238D02*
X034121Y017238D01*
X034062Y017180D02*
X033555Y017180D01*
X033497Y017121D02*
X034004Y017121D01*
X033945Y017063D02*
X033438Y017063D01*
X033380Y017004D02*
X033887Y017004D01*
X033828Y016946D02*
X033321Y016946D01*
X033263Y016887D02*
X033770Y016887D01*
X033711Y016829D02*
X033204Y016829D01*
X033146Y016770D02*
X033653Y016770D01*
X033594Y016712D02*
X033087Y016712D01*
X033029Y016653D02*
X033536Y016653D01*
X033477Y016595D02*
X032970Y016595D01*
X032912Y016536D02*
X033419Y016536D01*
X033360Y016478D02*
X032853Y016478D01*
X032795Y016419D02*
X033302Y016419D01*
X033243Y016361D02*
X032736Y016361D01*
X032678Y016302D02*
X033185Y016302D01*
X033126Y016244D02*
X032619Y016244D01*
X032551Y016346D02*
X033811Y017606D01*
X033811Y017665D01*
X034028Y017881D01*
X034677Y017881D01*
X034789Y017823D02*
X034893Y017823D01*
X034861Y017765D02*
X034731Y017765D01*
X034848Y017882D02*
X034952Y017882D01*
X034638Y017350D02*
X034638Y017192D01*
X034638Y017350D02*
X034323Y017665D01*
X034126Y017665D01*
X033963Y017531D02*
X033906Y017531D01*
X033848Y017472D02*
X034021Y017472D01*
X034169Y017414D02*
X033789Y017414D01*
X033731Y017355D02*
X034152Y017355D01*
X033684Y017648D02*
X033678Y017648D01*
X033686Y017706D02*
X033691Y017706D01*
X033686Y017765D02*
X033742Y017765D01*
X033686Y017823D02*
X033800Y017823D01*
X033859Y017882D02*
X033635Y017882D01*
X033476Y017743D02*
X032413Y016680D01*
X031764Y016680D01*
X031917Y016536D02*
X032572Y016536D01*
X032514Y016478D02*
X031858Y016478D01*
X031669Y016478D02*
X031664Y016478D01*
X031611Y016536D02*
X028543Y016536D01*
X028485Y016595D02*
X028311Y016595D01*
X028398Y016385D02*
X031587Y016385D01*
X031626Y016346D01*
X032551Y016346D01*
X032498Y016595D02*
X032631Y016595D01*
X032689Y016653D02*
X032556Y016653D01*
X032615Y016712D02*
X032748Y016712D01*
X032806Y016770D02*
X032673Y016770D01*
X032732Y016829D02*
X032865Y016829D01*
X032923Y016887D02*
X032790Y016887D01*
X032849Y016946D02*
X032982Y016946D01*
X033040Y017004D02*
X032907Y017004D01*
X032966Y017063D02*
X033099Y017063D01*
X033157Y017121D02*
X033024Y017121D01*
X033083Y017180D02*
X033216Y017180D01*
X033274Y017238D02*
X033141Y017238D01*
X033200Y017297D02*
X033333Y017297D01*
X033391Y017355D02*
X033258Y017355D01*
X033317Y017414D02*
X033450Y017414D01*
X033508Y017472D02*
X033375Y017472D01*
X033434Y017531D02*
X033567Y017531D01*
X033620Y017589D02*
X033625Y017589D01*
X034386Y016770D02*
X034388Y016770D01*
X034388Y016712D02*
X034327Y016712D01*
X034269Y016653D02*
X034407Y016653D01*
X034466Y016595D02*
X034210Y016595D01*
X034152Y016536D02*
X038947Y016536D01*
X038947Y016478D02*
X034093Y016478D01*
X034035Y016419D02*
X038947Y016419D01*
X038947Y016361D02*
X033976Y016361D01*
X033918Y016302D02*
X038947Y016302D01*
X038947Y016244D02*
X033859Y016244D01*
X033801Y016185D02*
X038947Y016185D01*
X038947Y016127D02*
X033742Y016127D01*
X033684Y016068D02*
X038947Y016068D01*
X038947Y016010D02*
X033625Y016010D01*
X033567Y015951D02*
X038947Y015951D01*
X038947Y015893D02*
X033508Y015893D01*
X033450Y015834D02*
X038947Y015834D01*
X038947Y015776D02*
X033391Y015776D01*
X033333Y015717D02*
X038947Y015717D01*
X038947Y015659D02*
X033274Y015659D01*
X033216Y015600D02*
X038947Y015600D01*
X038947Y015542D02*
X033157Y015542D01*
X033099Y015483D02*
X038947Y015483D01*
X038947Y015425D02*
X033040Y015425D01*
X032045Y015074D02*
X029435Y015074D01*
X029494Y015015D02*
X031987Y015015D01*
X031948Y014957D02*
X029533Y014957D01*
X029533Y014898D02*
X031948Y014898D01*
X031948Y014840D02*
X029533Y014840D01*
X029512Y014781D02*
X031968Y014781D01*
X032027Y014723D02*
X029454Y014723D01*
X029152Y015015D02*
X028231Y015015D01*
X028234Y015074D02*
X029211Y015074D01*
X028240Y015480D02*
X028240Y015539D01*
X028554Y016244D02*
X031558Y016244D01*
X031554Y016595D02*
X031503Y016595D01*
X031067Y017531D02*
X031061Y017531D01*
X031120Y017589D02*
X031125Y017589D01*
X031147Y017648D02*
X031184Y017648D01*
X031271Y015776D02*
X030761Y015776D01*
X030819Y015717D02*
X031213Y015717D01*
X031226Y015425D02*
X030805Y015425D01*
X031902Y012558D02*
X039390Y012558D01*
X039390Y012500D02*
X031961Y012500D01*
X032019Y012441D02*
X035889Y012441D01*
X035889Y012442D02*
X035766Y012319D01*
X035766Y012145D01*
X035856Y012055D01*
X035856Y011473D01*
X035927Y011403D01*
X036124Y011206D01*
X037453Y011206D01*
X037543Y011116D01*
X037717Y011116D01*
X037840Y011239D01*
X037840Y011413D01*
X037717Y011536D01*
X037543Y011536D01*
X037453Y011446D01*
X036223Y011446D01*
X036096Y011573D01*
X036096Y012055D01*
X036186Y012145D01*
X036186Y012319D01*
X036063Y012442D01*
X035889Y012442D01*
X035831Y012383D02*
X032933Y012383D01*
X032992Y012324D02*
X035772Y012324D01*
X035766Y012266D02*
X033037Y012266D01*
X033037Y012207D02*
X035766Y012207D01*
X035766Y012149D02*
X035087Y012149D01*
X035146Y012090D02*
X035821Y012090D01*
X035856Y012032D02*
X035331Y012032D01*
X035390Y011973D02*
X035856Y011973D01*
X035856Y011915D02*
X035399Y011915D01*
X035399Y011856D02*
X035856Y011856D01*
X035856Y011798D02*
X035399Y011798D01*
X035348Y011739D02*
X035856Y011739D01*
X035856Y011681D02*
X035290Y011681D01*
X035088Y011681D02*
X034925Y011681D01*
X034984Y011622D02*
X035856Y011622D01*
X035856Y011564D02*
X035042Y011564D01*
X035101Y011505D02*
X035856Y011505D01*
X035883Y011447D02*
X035159Y011447D01*
X035218Y011388D02*
X035941Y011388D01*
X036000Y011330D02*
X035276Y011330D01*
X035335Y011271D02*
X036058Y011271D01*
X036117Y011213D02*
X035393Y011213D01*
X035452Y011154D02*
X037505Y011154D01*
X037507Y011037D02*
X039390Y011037D01*
X039390Y010979D02*
X037566Y010979D01*
X037604Y010920D02*
X039390Y010920D01*
X039390Y010862D02*
X037604Y010862D01*
X037604Y010803D02*
X039390Y010803D01*
X039390Y010745D02*
X037582Y010745D01*
X037524Y010686D02*
X039390Y010686D01*
X039390Y010628D02*
X036679Y010628D01*
X036679Y010686D02*
X037264Y010686D01*
X037394Y010854D02*
X035583Y010854D01*
X034835Y011602D01*
X032906Y011602D01*
X032433Y012074D01*
X032433Y012192D01*
X032268Y012324D02*
X032136Y012324D01*
X032195Y012266D02*
X032223Y012266D01*
X032327Y012383D02*
X032078Y012383D01*
X031823Y012468D02*
X033063Y011228D01*
X032591Y011208D02*
X032335Y011208D01*
X032000Y011543D01*
X032000Y011739D01*
X031744Y011995D01*
X030898Y011995D01*
X030721Y012173D01*
X028752Y012173D01*
X028732Y012192D01*
X029087Y011858D02*
X029106Y011838D01*
X031665Y011838D01*
X031823Y011680D01*
X031823Y011543D01*
X032492Y010873D01*
X032532Y010873D01*
X032132Y011064D02*
X032110Y011064D01*
X032029Y010983D01*
X031026Y010983D01*
X030945Y011064D01*
X030771Y011064D01*
X030691Y010983D01*
X029947Y010983D01*
X029927Y011004D01*
X029927Y011118D01*
X029804Y011241D01*
X029630Y011241D01*
X029575Y011186D01*
X029114Y011648D01*
X029174Y011648D01*
X029244Y011718D01*
X029457Y011718D01*
X029448Y011708D01*
X029448Y011534D01*
X029571Y011411D01*
X029745Y011411D01*
X029868Y011534D01*
X029868Y011580D01*
X031239Y011580D01*
X031239Y011534D01*
X031362Y011411D01*
X031536Y011411D01*
X031659Y011534D01*
X031659Y011675D01*
X031703Y011631D01*
X031703Y011493D01*
X031773Y011423D01*
X032132Y011064D01*
X032100Y011096D02*
X029927Y011096D01*
X029927Y011037D02*
X030745Y011037D01*
X030972Y011037D02*
X032084Y011037D01*
X032041Y011154D02*
X029890Y011154D01*
X029832Y011213D02*
X031983Y011213D01*
X031924Y011271D02*
X029490Y011271D01*
X029548Y011213D02*
X029602Y011213D01*
X029431Y011330D02*
X031866Y011330D01*
X031807Y011388D02*
X029373Y011388D01*
X029314Y011447D02*
X029535Y011447D01*
X029476Y011505D02*
X029256Y011505D01*
X029197Y011564D02*
X029448Y011564D01*
X029448Y011622D02*
X029139Y011622D01*
X029207Y011681D02*
X029448Y011681D01*
X029658Y011621D02*
X029736Y011700D01*
X031370Y011700D01*
X031449Y011621D01*
X031659Y011622D02*
X031703Y011622D01*
X031703Y011564D02*
X031659Y011564D01*
X031630Y011505D02*
X031703Y011505D01*
X031749Y011447D02*
X031571Y011447D01*
X031773Y011423D02*
X031773Y011423D01*
X031326Y011447D02*
X029780Y011447D01*
X029839Y011505D02*
X031268Y011505D01*
X031239Y011564D02*
X029868Y011564D01*
X030130Y010617D02*
X036449Y010617D01*
X036469Y010637D01*
X036639Y010511D02*
X039390Y010511D01*
X039390Y010569D02*
X036679Y010569D01*
X036581Y010452D02*
X039390Y010452D01*
X039390Y010394D02*
X034047Y010394D01*
X034105Y010335D02*
X039390Y010335D01*
X039390Y010277D02*
X034164Y010277D01*
X034222Y010218D02*
X039390Y010218D01*
X039390Y010160D02*
X034281Y010160D01*
X034339Y010101D02*
X039390Y010101D01*
X039390Y010043D02*
X034398Y010043D01*
X034456Y009984D02*
X039390Y009984D01*
X039390Y009926D02*
X034515Y009926D01*
X034573Y009867D02*
X039390Y009867D01*
X039390Y009809D02*
X035065Y009809D01*
X035123Y009750D02*
X039390Y009750D01*
X039390Y009692D02*
X035182Y009692D01*
X035240Y009633D02*
X039390Y009633D01*
X039390Y009575D02*
X035299Y009575D01*
X035357Y009516D02*
X039390Y009516D01*
X039390Y009458D02*
X035416Y009458D01*
X035474Y009399D02*
X039390Y009399D01*
X039390Y009341D02*
X035533Y009341D01*
X035591Y009282D02*
X039390Y009282D01*
X039390Y009224D02*
X035604Y009224D01*
X035604Y009165D02*
X039390Y009165D01*
X039390Y009107D02*
X035604Y009107D01*
X035604Y009048D02*
X039390Y009048D01*
X039390Y008990D02*
X035604Y008990D01*
X035604Y008931D02*
X039390Y008931D01*
X039390Y008873D02*
X035604Y008873D01*
X035604Y008814D02*
X039390Y008814D01*
X039390Y008756D02*
X035604Y008756D01*
X035604Y008697D02*
X039390Y008697D01*
X039390Y008639D02*
X035604Y008639D01*
X035604Y008580D02*
X039390Y008580D01*
X039390Y008522D02*
X035604Y008522D01*
X035604Y008463D02*
X039390Y008463D01*
X039390Y008405D02*
X035604Y008405D01*
X035604Y008346D02*
X039390Y008346D01*
X039390Y008288D02*
X035604Y008288D01*
X035604Y008229D02*
X039390Y008229D01*
X039390Y008171D02*
X035596Y008171D01*
X035596Y008112D02*
X039390Y008112D01*
X039390Y008054D02*
X035560Y008054D01*
X035386Y008176D02*
X035484Y008275D01*
X035484Y009220D01*
X034973Y009732D01*
X034539Y009732D01*
X033949Y010322D01*
X029815Y010342D01*
X028221Y011936D01*
X025681Y011917D01*
X025499Y012032D02*
X025090Y012032D01*
X025012Y012212D02*
X024992Y012232D01*
X025138Y012383D02*
X027814Y012383D01*
X027814Y012441D02*
X025079Y012441D01*
X025839Y012324D02*
X027870Y012324D01*
X028024Y012468D02*
X031823Y012468D01*
X031764Y012251D02*
X031331Y012251D01*
X031764Y012251D02*
X032453Y011543D01*
X032453Y011484D01*
X032821Y011856D02*
X034979Y011856D01*
X034979Y011798D02*
X032879Y011798D01*
X032938Y011739D02*
X035030Y011739D01*
X035189Y011877D02*
X035032Y012035D01*
X032945Y012035D01*
X032827Y012153D01*
X032827Y012192D01*
X032690Y012032D02*
X032645Y012032D01*
X032632Y012090D02*
X032628Y012090D01*
X032598Y012324D02*
X032662Y012324D01*
X032721Y012383D02*
X032539Y012383D01*
X031793Y010452D02*
X036356Y010452D01*
X036173Y011326D02*
X035976Y011523D01*
X035976Y012232D01*
X036122Y012383D02*
X039390Y012383D01*
X039390Y012441D02*
X036064Y012441D01*
X036181Y012324D02*
X039390Y012324D01*
X039390Y012266D02*
X036186Y012266D01*
X036186Y012207D02*
X039390Y012207D01*
X039390Y012149D02*
X036186Y012149D01*
X036132Y012090D02*
X039390Y012090D01*
X039390Y012032D02*
X036096Y012032D01*
X036096Y011973D02*
X039390Y011973D01*
X039390Y011915D02*
X036096Y011915D01*
X036096Y011856D02*
X039390Y011856D01*
X039390Y011798D02*
X036096Y011798D01*
X036096Y011739D02*
X039390Y011739D01*
X039390Y011681D02*
X036096Y011681D01*
X036096Y011622D02*
X039390Y011622D01*
X039390Y011564D02*
X036105Y011564D01*
X036164Y011505D02*
X037512Y011505D01*
X037454Y011447D02*
X036222Y011447D01*
X036173Y011326D02*
X037630Y011326D01*
X037840Y011330D02*
X039390Y011330D01*
X039390Y011388D02*
X037840Y011388D01*
X037806Y011447D02*
X039390Y011447D01*
X039390Y011505D02*
X037748Y011505D01*
X037840Y011271D02*
X039390Y011271D01*
X039390Y011213D02*
X037814Y011213D01*
X037755Y011154D02*
X039390Y011154D01*
X039390Y011096D02*
X035510Y011096D01*
X035569Y011037D02*
X037281Y011037D01*
X037222Y010979D02*
X035627Y010979D01*
X034913Y009594D02*
X034500Y009594D01*
X033910Y010184D01*
X029756Y010184D01*
X028358Y011582D01*
X025937Y011582D01*
X026075Y011247D02*
X028437Y011247D01*
X029658Y010027D01*
X033890Y010027D01*
X034461Y009456D01*
X034874Y009456D01*
X035110Y009220D01*
X035110Y009062D01*
X035032Y008984D01*
X035032Y008846D01*
X035130Y008747D01*
X035228Y008531D02*
X035228Y008432D01*
X035228Y008531D02*
X035347Y008649D01*
X035347Y008865D01*
X035248Y008964D01*
X035248Y009259D01*
X034913Y009594D01*
X034677Y009279D02*
X034441Y009279D01*
X033831Y009889D01*
X029579Y009889D01*
X028555Y010913D01*
X026528Y010913D01*
X026318Y010920D02*
X010135Y010920D01*
X010111Y010979D02*
X010076Y010979D01*
X010022Y011037D02*
X010018Y011037D01*
X009962Y011096D02*
X009959Y011096D01*
X009920Y011154D02*
X009901Y011154D01*
X009889Y011213D02*
X009842Y011213D01*
X009866Y011271D02*
X009784Y011271D01*
X009725Y011330D02*
X009851Y011330D01*
X009843Y011388D02*
X009667Y011388D01*
X009461Y011424D02*
X010209Y010676D01*
X011291Y010676D01*
X011744Y010224D01*
X011535Y010218D02*
X010838Y010218D01*
X010848Y010160D02*
X011535Y010160D01*
X011571Y010101D02*
X010377Y010101D01*
X010377Y010072D02*
X010851Y010072D01*
X010851Y010062D01*
X010838Y009984D01*
X010814Y009908D01*
X010778Y009837D01*
X010731Y009773D01*
X010675Y009717D01*
X010611Y009671D01*
X010540Y009635D01*
X010465Y009610D01*
X010386Y009598D01*
X010377Y009598D01*
X010377Y010072D01*
X010377Y010043D02*
X010317Y010043D01*
X010317Y010072D02*
X010317Y009598D01*
X010307Y009598D01*
X010229Y009610D01*
X010153Y009635D01*
X010082Y009671D01*
X010018Y009717D01*
X009962Y009773D01*
X009915Y009837D01*
X009879Y009908D01*
X009855Y009984D01*
X009843Y010062D01*
X009843Y010072D01*
X010317Y010072D01*
X010317Y010101D02*
X009797Y010101D01*
X009797Y010043D02*
X009846Y010043D01*
X009855Y009984D02*
X009797Y009984D01*
X009797Y009926D02*
X009874Y009926D01*
X009900Y009867D02*
X009797Y009867D01*
X009797Y009809D02*
X009936Y009809D01*
X009985Y009750D02*
X009797Y009750D01*
X009797Y009692D02*
X010053Y009692D01*
X010157Y009633D02*
X009797Y009633D01*
X009797Y009575D02*
X023631Y009575D01*
X023573Y009633D02*
X010536Y009633D01*
X010640Y009692D02*
X023522Y009692D01*
X023522Y009750D02*
X010708Y009750D01*
X010757Y009809D02*
X014501Y009809D01*
X014512Y009798D02*
X014685Y009798D01*
X014774Y009887D01*
X016273Y009887D01*
X016362Y009798D01*
X016535Y009798D01*
X016658Y009921D01*
X016658Y010094D01*
X016535Y010216D01*
X016362Y010216D01*
X016273Y010127D01*
X014774Y010127D01*
X014685Y010216D01*
X014512Y010216D01*
X014389Y010094D01*
X014389Y009921D01*
X014512Y009798D01*
X014443Y009867D02*
X010793Y009867D01*
X010819Y009926D02*
X014389Y009926D01*
X014389Y009984D02*
X010838Y009984D01*
X010848Y010043D02*
X011629Y010043D01*
X011859Y010043D02*
X014389Y010043D01*
X014397Y010101D02*
X011918Y010101D01*
X011953Y010160D02*
X014456Y010160D01*
X014599Y010007D02*
X016449Y010007D01*
X016605Y009867D02*
X023532Y009867D01*
X023522Y009809D02*
X016546Y009809D01*
X016658Y009926D02*
X023590Y009926D01*
X023732Y009771D02*
X027315Y009771D01*
X028201Y008885D01*
X032315Y008885D01*
X032473Y009043D01*
X033457Y009043D01*
X033890Y008610D01*
X033890Y008236D01*
X033772Y008137D01*
X034028Y008216D02*
X034028Y008669D01*
X033516Y009180D01*
X032394Y009180D01*
X032236Y009023D01*
X028437Y009023D01*
X028319Y009180D01*
X028043Y008873D02*
X027998Y008873D01*
X027985Y008931D02*
X027979Y008931D01*
X027926Y008990D02*
X027921Y008990D01*
X027868Y009048D02*
X027361Y009048D01*
X027419Y008990D02*
X027654Y008990D01*
X027596Y008931D02*
X027478Y008931D01*
X027536Y008873D02*
X027577Y008873D01*
X027787Y008826D02*
X027866Y008747D01*
X032394Y008747D01*
X032551Y008905D01*
X033398Y008905D01*
X033673Y008629D01*
X033673Y008452D01*
X033437Y008393D02*
X033378Y008334D01*
X033378Y008157D01*
X033437Y008393D02*
X033437Y008610D01*
X033280Y008767D01*
X032610Y008767D01*
X032453Y008610D01*
X027650Y008610D01*
X027630Y008629D01*
X027610Y008629D01*
X026803Y009436D01*
X024835Y009436D01*
X024993Y009575D02*
X027341Y009575D01*
X027283Y009633D02*
X024935Y009633D01*
X024735Y009633D02*
X023892Y009633D01*
X023833Y009575D02*
X024676Y009575D01*
X024625Y009516D02*
X009797Y009516D01*
X009797Y009458D02*
X024625Y009458D01*
X024625Y009399D02*
X010687Y009399D01*
X010606Y009310D02*
X010240Y009310D01*
X009973Y009043D01*
X009800Y009165D02*
X009797Y009165D01*
X009797Y009224D02*
X009858Y009224D01*
X009797Y009282D02*
X010043Y009282D01*
X010101Y009341D02*
X009797Y009341D01*
X009797Y009399D02*
X010160Y009399D01*
X010317Y009633D02*
X010377Y009633D01*
X010377Y009692D02*
X010317Y009692D01*
X010317Y009750D02*
X010377Y009750D01*
X010377Y009809D02*
X010317Y009809D01*
X010317Y009867D02*
X010377Y009867D01*
X010377Y009926D02*
X010317Y009926D01*
X010317Y009984D02*
X010377Y009984D01*
X010793Y010335D02*
X011463Y010335D01*
X011521Y010277D02*
X010820Y010277D01*
X010757Y010394D02*
X011404Y010394D01*
X011346Y010452D02*
X010709Y010452D01*
X010641Y010511D02*
X011287Y010511D01*
X011451Y010686D02*
X026674Y010686D01*
X026657Y010745D02*
X026732Y010745D01*
X026652Y010628D02*
X011510Y010628D01*
X011568Y010569D02*
X026652Y010569D01*
X026652Y010511D02*
X011627Y010511D01*
X011685Y010452D02*
X026691Y010452D01*
X026749Y010394D02*
X011870Y010394D01*
X011928Y010335D02*
X026992Y010335D01*
X026987Y010277D02*
X011953Y010277D01*
X011953Y010218D02*
X026987Y010218D01*
X026987Y010160D02*
X016592Y010160D01*
X016650Y010101D02*
X027042Y010101D01*
X027100Y010043D02*
X016658Y010043D01*
X016658Y009984D02*
X027322Y009984D01*
X027322Y009926D02*
X023874Y009926D01*
X024245Y009341D02*
X020600Y009341D01*
X020658Y009282D02*
X024187Y009282D01*
X024172Y009224D02*
X020674Y009224D01*
X020674Y009165D02*
X024172Y009165D01*
X024172Y009107D02*
X020674Y009107D01*
X020628Y009048D02*
X024217Y009048D01*
X024275Y008990D02*
X021108Y008990D01*
X020923Y008990D02*
X020570Y008990D01*
X020437Y008931D02*
X020865Y008931D01*
X020996Y008806D02*
X020583Y008806D01*
X020524Y008747D01*
X020110Y008747D01*
X019992Y008865D01*
X018890Y008865D01*
X018811Y008944D01*
X017886Y008944D01*
X017768Y008826D01*
X009874Y008826D01*
X009677Y009023D01*
X009677Y010125D01*
X009599Y010204D01*
X009520Y010283D01*
X009520Y010480D01*
X009667Y010628D02*
X010088Y010628D01*
X010146Y010569D02*
X009726Y010569D01*
X009729Y010511D02*
X010052Y010511D01*
X009984Y010452D02*
X009729Y010452D01*
X009729Y010394D02*
X009936Y010394D01*
X009900Y010335D02*
X009671Y010335D01*
X009695Y010277D02*
X009874Y010277D01*
X009855Y010218D02*
X009754Y010218D01*
X009719Y010254D02*
X009719Y010254D01*
X009797Y010160D02*
X009845Y010160D01*
X009549Y010084D02*
X009549Y010084D01*
X009531Y010101D02*
X009226Y010101D01*
X009226Y010043D02*
X009557Y010043D01*
X009557Y009984D02*
X009226Y009984D01*
X009226Y009926D02*
X009557Y009926D01*
X009557Y009867D02*
X009226Y009867D01*
X009226Y009809D02*
X009557Y009809D01*
X009557Y009750D02*
X009226Y009750D01*
X009226Y009692D02*
X009557Y009692D01*
X009557Y009633D02*
X009226Y009633D01*
X009226Y009575D02*
X009557Y009575D01*
X009557Y009516D02*
X009226Y009516D01*
X009226Y009458D02*
X009557Y009458D01*
X009557Y009399D02*
X009226Y009399D01*
X009226Y009341D02*
X009557Y009341D01*
X009557Y009282D02*
X009226Y009282D01*
X009226Y009224D02*
X009557Y009224D01*
X009557Y009165D02*
X009252Y009165D01*
X009310Y009107D02*
X009557Y009107D01*
X009557Y009048D02*
X009369Y009048D01*
X009427Y008990D02*
X009557Y008990D01*
X009599Y008931D02*
X009486Y008931D01*
X009544Y008873D02*
X009658Y008873D01*
X009603Y008814D02*
X009716Y008814D01*
X009559Y008688D02*
X009106Y009141D01*
X009106Y010578D01*
X009264Y010736D01*
X009264Y010893D01*
X009362Y010991D01*
X009284Y010913D01*
X009144Y010920D02*
X009020Y010920D01*
X009079Y010862D02*
X009144Y010862D01*
X009144Y010803D02*
X009119Y010803D01*
X009153Y010979D02*
X008813Y010979D01*
X008813Y011037D02*
X009153Y011037D01*
X009171Y011096D02*
X008813Y011096D01*
X008829Y011154D02*
X009230Y011154D01*
X009444Y011271D02*
X008946Y011271D01*
X008887Y011213D02*
X009503Y011213D01*
X009495Y011154D02*
X009561Y011154D01*
X009553Y011096D02*
X009620Y011096D01*
X009571Y011037D02*
X009678Y011037D01*
X009737Y010979D02*
X009571Y010979D01*
X009571Y010920D02*
X009795Y010920D01*
X009854Y010862D02*
X009528Y010862D01*
X009470Y010803D02*
X009912Y010803D01*
X009971Y010745D02*
X009384Y010745D01*
X009384Y010686D02*
X009431Y010686D01*
X009372Y010628D02*
X009326Y010628D01*
X009314Y010569D02*
X009267Y010569D01*
X009226Y010511D02*
X009311Y010511D01*
X009311Y010452D02*
X009226Y010452D01*
X009226Y010394D02*
X009311Y010394D01*
X009368Y010335D02*
X009226Y010335D01*
X009226Y010277D02*
X009400Y010277D01*
X009414Y010218D02*
X009226Y010218D01*
X009226Y010160D02*
X009473Y010160D01*
X009609Y010686D02*
X010029Y010686D01*
X010193Y010862D02*
X026318Y010862D01*
X026340Y010803D02*
X010252Y010803D01*
X009882Y011622D02*
X008370Y011622D01*
X008341Y011681D02*
X009912Y011681D01*
X009952Y011739D02*
X008300Y011739D01*
X008245Y011798D02*
X010007Y011798D01*
X010084Y011856D02*
X008168Y011856D01*
X007936Y011394D02*
X008410Y011394D01*
X008410Y011385D01*
X008397Y011306D01*
X008373Y011231D01*
X008337Y011160D01*
X008290Y011096D01*
X008234Y011040D01*
X008170Y010993D01*
X008099Y010957D01*
X008024Y010933D01*
X007945Y010920D01*
X007936Y010920D01*
X007936Y011394D01*
X007936Y011388D02*
X007876Y011388D01*
X007876Y011394D02*
X007876Y010920D01*
X007866Y010920D01*
X007788Y010933D01*
X007712Y010957D01*
X007641Y010993D01*
X007577Y011040D01*
X007521Y011096D01*
X007475Y011160D01*
X007439Y011231D01*
X007414Y011306D01*
X007402Y011385D01*
X007402Y011394D01*
X007876Y011394D01*
X007876Y011330D02*
X007936Y011330D01*
X007936Y011271D02*
X007876Y011271D01*
X007876Y011213D02*
X007936Y011213D01*
X007936Y011154D02*
X007876Y011154D01*
X007876Y011096D02*
X007936Y011096D01*
X007936Y011037D02*
X007876Y011037D01*
X007876Y010979D02*
X007936Y010979D01*
X008141Y010979D02*
X008573Y010979D01*
X008573Y011037D02*
X008230Y011037D01*
X008290Y011096D02*
X008573Y011096D01*
X008573Y011154D02*
X008332Y011154D01*
X008363Y011213D02*
X008573Y011213D01*
X008606Y011271D02*
X008386Y011271D01*
X008401Y011330D02*
X008665Y011330D01*
X008723Y011388D02*
X008410Y011388D01*
X008693Y011188D02*
X008929Y011424D01*
X009461Y011424D01*
X008693Y011188D02*
X008693Y010342D01*
X008496Y010145D01*
X008496Y009771D01*
X008102Y009377D01*
X007960Y009224D02*
X000280Y009224D01*
X000280Y009282D02*
X007902Y009282D01*
X007893Y009341D02*
X000280Y009341D01*
X000280Y009399D02*
X007893Y009399D01*
X007893Y009458D02*
X000280Y009458D01*
X000280Y009516D02*
X007946Y009516D01*
X008004Y009575D02*
X000280Y009575D01*
X000280Y009633D02*
X007716Y009633D01*
X007712Y009635D02*
X007788Y009610D01*
X007866Y009598D01*
X007876Y009598D01*
X007876Y010072D01*
X007402Y010072D01*
X007402Y010062D01*
X007414Y009984D01*
X007439Y009908D01*
X007475Y009837D01*
X007521Y009773D01*
X007577Y009717D01*
X007641Y009671D01*
X007712Y009635D01*
X007612Y009692D02*
X000280Y009692D01*
X000280Y009750D02*
X007544Y009750D01*
X007495Y009809D02*
X000280Y009809D01*
X000280Y009867D02*
X007459Y009867D01*
X007433Y009926D02*
X000280Y009926D01*
X000280Y009984D02*
X007414Y009984D01*
X007405Y010043D02*
X000280Y010043D01*
X000280Y010101D02*
X007876Y010101D01*
X007876Y010043D02*
X007936Y010043D01*
X007936Y009984D02*
X007876Y009984D01*
X007876Y009926D02*
X007936Y009926D01*
X007936Y009867D02*
X007876Y009867D01*
X007876Y009809D02*
X007936Y009809D01*
X007936Y009750D02*
X007876Y009750D01*
X007876Y009692D02*
X007936Y009692D01*
X007936Y009633D02*
X007876Y009633D01*
X008095Y009633D02*
X008189Y009633D01*
X008199Y009692D02*
X008247Y009692D01*
X008267Y009750D02*
X008306Y009750D01*
X008316Y009809D02*
X008364Y009809D01*
X008352Y009867D02*
X008376Y009867D01*
X008616Y009867D02*
X008849Y009867D01*
X008849Y009809D02*
X008616Y009809D01*
X008616Y009750D02*
X008849Y009750D01*
X008849Y009692D02*
X008587Y009692D01*
X008528Y009633D02*
X008849Y009633D01*
X008849Y009575D02*
X008470Y009575D01*
X008411Y009516D02*
X008849Y009516D01*
X008849Y009458D02*
X008353Y009458D01*
X008311Y009399D02*
X008849Y009399D01*
X008849Y009341D02*
X008311Y009341D01*
X008303Y009282D02*
X008849Y009282D01*
X008849Y009224D02*
X008245Y009224D01*
X008266Y008990D02*
X008891Y008990D01*
X008849Y009048D02*
X007743Y009048D01*
X007684Y009107D02*
X008849Y009107D01*
X008849Y009165D02*
X000280Y009165D01*
X000280Y009107D02*
X007497Y009107D01*
X007439Y009048D02*
X000280Y009048D01*
X000280Y008990D02*
X007382Y008990D01*
X007382Y008931D02*
X000280Y008931D01*
X000280Y008873D02*
X007382Y008873D01*
X007385Y008814D02*
X000280Y008814D01*
X000280Y008756D02*
X007444Y008756D01*
X007502Y008697D02*
X000280Y008697D01*
X000280Y008639D02*
X007974Y008639D01*
X007972Y008580D02*
X000280Y008580D01*
X000280Y008522D02*
X007972Y008522D01*
X007973Y008463D02*
X000280Y008463D01*
X000280Y008405D02*
X008031Y008405D01*
X008090Y008346D02*
X000280Y008346D01*
X000280Y008288D02*
X008274Y008288D01*
X008378Y008354D02*
X008181Y008550D01*
X008032Y008697D02*
X007679Y008697D01*
X007737Y008756D02*
X008091Y008756D01*
X008181Y008905D02*
X008575Y008511D01*
X008929Y008511D01*
X009047Y008393D01*
X018024Y008393D01*
X018161Y008531D01*
X018536Y008531D01*
X018614Y008452D01*
X019224Y008452D01*
X019303Y008373D01*
X019152Y008229D02*
X018902Y008229D01*
X018902Y008171D02*
X019210Y008171D01*
X019094Y008288D02*
X018858Y008288D01*
X018902Y008112D02*
X025339Y008112D01*
X025281Y008171D02*
X019396Y008171D01*
X019455Y008229D02*
X025217Y008229D01*
X025366Y008255D02*
X025130Y008472D01*
X024920Y008463D02*
X020909Y008463D01*
X020910Y008522D02*
X024920Y008522D01*
X024942Y008580D02*
X021105Y008580D01*
X021164Y008639D02*
X024981Y008639D01*
X024922Y008697D02*
X021222Y008697D01*
X021225Y008756D02*
X024864Y008756D01*
X024861Y008814D02*
X021225Y008814D01*
X021016Y008787D02*
X020996Y008806D01*
X020926Y008580D02*
X020910Y008580D01*
X020851Y008405D02*
X024920Y008405D01*
X024958Y008346D02*
X020792Y008346D01*
X020609Y008346D02*
X019887Y008346D01*
X019926Y008405D02*
X020086Y008405D01*
X020038Y008454D02*
X020038Y008454D01*
X020028Y008463D02*
X019926Y008463D01*
X019926Y008522D02*
X019969Y008522D01*
X019911Y008580D02*
X019904Y008580D01*
X019933Y008728D02*
X018752Y008728D01*
X018673Y008806D01*
X017965Y008806D01*
X017847Y008688D01*
X009559Y008688D01*
X009500Y008550D02*
X008969Y009082D01*
X008969Y010519D01*
X008910Y010578D01*
X008910Y010736D01*
X008849Y010452D02*
X008813Y010452D01*
X008813Y010394D02*
X008849Y010394D01*
X008849Y010335D02*
X008813Y010335D01*
X008798Y010277D02*
X008849Y010277D01*
X008849Y010218D02*
X008739Y010218D01*
X008681Y010160D02*
X008849Y010160D01*
X008849Y010101D02*
X008622Y010101D01*
X008616Y010043D02*
X008849Y010043D01*
X008849Y009984D02*
X008616Y009984D01*
X008616Y009926D02*
X008849Y009926D01*
X008458Y010277D02*
X008379Y010277D01*
X008397Y010218D02*
X008400Y010218D01*
X008352Y010335D02*
X008517Y010335D01*
X008573Y010394D02*
X008316Y010394D01*
X008268Y010452D02*
X008573Y010452D01*
X008573Y010511D02*
X008200Y010511D01*
X008097Y010569D02*
X008573Y010569D01*
X008573Y010628D02*
X000280Y010628D01*
X000280Y010686D02*
X008573Y010686D01*
X008573Y010745D02*
X000280Y010745D01*
X000280Y010803D02*
X008573Y010803D01*
X008573Y010862D02*
X000280Y010862D01*
X000280Y010920D02*
X008573Y010920D01*
X007936Y010569D02*
X007876Y010569D01*
X007876Y010511D02*
X007936Y010511D01*
X007936Y010452D02*
X007876Y010452D01*
X007876Y010394D02*
X007936Y010394D01*
X007936Y010335D02*
X007876Y010335D01*
X007876Y010277D02*
X007936Y010277D01*
X007936Y010218D02*
X007876Y010218D01*
X007876Y010160D02*
X007936Y010160D01*
X007714Y010569D02*
X000280Y010569D01*
X000280Y010511D02*
X007611Y010511D01*
X007544Y010452D02*
X000280Y010452D01*
X000280Y010394D02*
X007495Y010394D01*
X007459Y010335D02*
X000280Y010335D01*
X000280Y010277D02*
X007433Y010277D01*
X007414Y010218D02*
X000280Y010218D01*
X000280Y010160D02*
X007405Y010160D01*
X007670Y010979D02*
X000280Y010979D01*
X000280Y011037D02*
X007581Y011037D01*
X007521Y011096D02*
X000280Y011096D01*
X000280Y011154D02*
X007479Y011154D01*
X007448Y011213D02*
X000280Y011213D01*
X000280Y011271D02*
X007425Y011271D01*
X007410Y011330D02*
X000280Y011330D01*
X000280Y011388D02*
X007402Y011388D01*
X007591Y008905D02*
X008181Y008905D01*
X008324Y008931D02*
X008949Y008931D01*
X009008Y008873D02*
X008383Y008873D01*
X008441Y008814D02*
X009066Y008814D01*
X009125Y008756D02*
X008500Y008756D01*
X008558Y008697D02*
X009183Y008697D01*
X009242Y008639D02*
X008617Y008639D01*
X008378Y008354D02*
X008870Y008354D01*
X008969Y008255D01*
X018319Y008255D01*
X018378Y008314D01*
X018221Y008117D02*
X018240Y008098D01*
X018634Y008098D01*
X018693Y008157D01*
X018886Y008054D02*
X032574Y008054D01*
X032748Y008176D02*
X025445Y008176D01*
X025366Y008255D01*
X025622Y008314D02*
X025091Y008846D01*
X025071Y008846D01*
X024918Y008990D02*
X024489Y008990D01*
X024547Y009048D02*
X024977Y009048D01*
X025110Y009180D02*
X025307Y008984D01*
X025307Y008905D01*
X025760Y008452D01*
X032473Y008452D01*
X032630Y008610D01*
X033161Y008610D01*
X033161Y008550D01*
X032965Y008393D02*
X032630Y008393D01*
X032551Y008314D01*
X025622Y008314D01*
X025017Y008288D02*
X019828Y008288D01*
X019717Y008472D02*
X019599Y008590D01*
X018693Y008590D01*
X018614Y008669D01*
X018043Y008669D01*
X017925Y008550D01*
X009500Y008550D01*
X009359Y008522D02*
X009088Y008522D01*
X009030Y008580D02*
X009300Y008580D01*
X008772Y008117D02*
X018221Y008117D01*
X017768Y009062D02*
X017787Y009082D01*
X018890Y009082D01*
X018910Y009062D01*
X020150Y009062D01*
X020228Y008984D01*
X020413Y008873D02*
X020480Y008873D01*
X020465Y009180D02*
X020406Y009239D01*
X010677Y009239D01*
X010606Y009310D01*
X010413Y009058D02*
X010410Y009058D01*
X017768Y009062D01*
X016352Y009809D02*
X014696Y009809D01*
X014754Y009867D02*
X016293Y009867D01*
X016306Y010160D02*
X014741Y010160D01*
X011411Y010726D02*
X011411Y010726D01*
X011393Y010745D02*
X026398Y010745D01*
X026414Y011096D02*
X026220Y011096D01*
X026641Y011096D02*
X028419Y011096D01*
X028477Y011037D02*
X026700Y011037D01*
X026992Y010745D02*
X028553Y010745D01*
X028612Y010686D02*
X028223Y010686D01*
X028281Y010628D02*
X028670Y010628D01*
X028729Y010569D02*
X028340Y010569D01*
X028398Y010511D02*
X028787Y010511D01*
X028846Y010452D02*
X028457Y010452D01*
X028515Y010394D02*
X028904Y010394D01*
X028963Y010335D02*
X028574Y010335D01*
X028632Y010277D02*
X029021Y010277D01*
X029080Y010218D02*
X028691Y010218D01*
X028749Y010160D02*
X029138Y010160D01*
X029197Y010101D02*
X028808Y010101D01*
X028866Y010043D02*
X029255Y010043D01*
X029200Y009984D02*
X028925Y009984D01*
X028983Y009926D02*
X029141Y009926D01*
X029113Y009867D02*
X029042Y009867D01*
X029100Y009809D02*
X029113Y009809D01*
X029323Y009810D02*
X029402Y009732D01*
X033772Y009732D01*
X034362Y009141D01*
X034618Y009141D01*
X034756Y009003D01*
X034756Y008806D01*
X034638Y008688D01*
X034638Y008590D01*
X034756Y008472D01*
X034756Y008413D01*
X034894Y008590D02*
X034992Y008491D01*
X034992Y008176D01*
X034894Y008590D02*
X034894Y009062D01*
X034677Y009279D01*
X034539Y008905D02*
X034402Y008905D01*
X033732Y009594D01*
X029146Y009594D01*
X028161Y010578D01*
X026862Y010578D01*
X027034Y010452D02*
X027109Y010452D01*
X027050Y010394D02*
X026975Y010394D01*
X027197Y010243D02*
X028319Y010243D01*
X029106Y009456D01*
X033634Y009456D01*
X034441Y008669D01*
X034441Y008472D01*
X034224Y008354D02*
X034224Y008669D01*
X033555Y009318D01*
X029008Y009318D01*
X028417Y009909D01*
X027532Y009909D01*
X027694Y010043D02*
X028350Y010043D01*
X028291Y010101D02*
X027636Y010101D01*
X027427Y010101D02*
X027352Y010101D01*
X027369Y010043D02*
X027293Y010043D01*
X027343Y010394D02*
X028176Y010394D01*
X028117Y010452D02*
X027285Y010452D01*
X027400Y009516D02*
X026893Y009516D01*
X026951Y009458D02*
X027458Y009458D01*
X027517Y009399D02*
X027010Y009399D01*
X027068Y009341D02*
X027575Y009341D01*
X027634Y009282D02*
X027127Y009282D01*
X027185Y009224D02*
X027692Y009224D01*
X027751Y009165D02*
X027244Y009165D01*
X027302Y009107D02*
X027809Y009107D01*
X025110Y009180D02*
X024382Y009180D01*
X024519Y009341D02*
X024633Y009341D01*
X028113Y012675D02*
X039390Y012675D01*
X039390Y012617D02*
X028172Y012617D01*
X026436Y014664D02*
X026029Y014664D01*
X026648Y015074D02*
X027531Y015074D01*
X027473Y015132D02*
X026648Y015132D01*
X026648Y015191D02*
X027414Y015191D01*
X027356Y015249D02*
X026648Y015249D01*
X026648Y015308D02*
X027297Y015308D01*
X027239Y015366D02*
X026648Y015366D01*
X026648Y015425D02*
X027180Y015425D01*
X027122Y015483D02*
X026648Y015483D01*
X026311Y015972D02*
X026311Y016110D01*
X025504Y016917D01*
X024284Y016917D01*
X024205Y016838D01*
X023929Y017054D02*
X025543Y017054D01*
X026528Y016070D01*
X027453Y016621D02*
X026410Y017645D01*
X026410Y018019D01*
X024756Y019692D01*
X024658Y019692D01*
X023870Y020480D01*
X023673Y020480D01*
X023496Y020657D01*
X023417Y020440D02*
X023398Y020440D01*
X022571Y021267D01*
X022335Y021405D02*
X022118Y021188D01*
X021232Y021188D01*
X021080Y021333D02*
X019841Y021333D01*
X019783Y021392D02*
X021139Y021392D01*
X021022Y021275D02*
X021022Y021101D01*
X021410Y021385D02*
X021272Y021523D01*
X020583Y021523D01*
X020406Y021700D01*
X020616Y021684D02*
X022408Y021684D01*
X022381Y021743D02*
X020616Y021743D01*
X020601Y021801D02*
X022381Y021801D01*
X022381Y021860D02*
X020543Y021860D01*
X020268Y021860D02*
X019125Y021860D01*
X019184Y021801D02*
X020210Y021801D01*
X020196Y021743D02*
X019255Y021743D01*
X019313Y021684D02*
X020196Y021684D01*
X020196Y021626D02*
X019549Y021626D01*
X019607Y021567D02*
X020241Y021567D01*
X020300Y021509D02*
X019666Y021509D01*
X019724Y021450D02*
X020486Y021450D01*
X021338Y021626D02*
X022170Y021626D01*
X022111Y021567D02*
X021397Y021567D01*
X021455Y021509D02*
X022053Y021509D01*
X022099Y021385D02*
X022276Y021562D01*
X023910Y021562D01*
X023949Y021523D01*
X024146Y021523D01*
X025681Y019987D01*
X025891Y019988D02*
X025983Y019988D01*
X025925Y020046D02*
X025891Y020046D01*
X025866Y020105D02*
X025861Y020105D01*
X025808Y020163D02*
X025802Y020163D01*
X025749Y020222D02*
X025616Y020222D01*
X025558Y020280D02*
X025691Y020280D01*
X025632Y020339D02*
X025499Y020339D01*
X025441Y020397D02*
X025574Y020397D01*
X025515Y020456D02*
X025382Y020456D01*
X025324Y020514D02*
X025457Y020514D01*
X025398Y020573D02*
X025265Y020573D01*
X025207Y020631D02*
X025340Y020631D01*
X025281Y020690D02*
X025148Y020690D01*
X025090Y020748D02*
X025223Y020748D01*
X025164Y020807D02*
X025031Y020807D01*
X024973Y020865D02*
X025106Y020865D01*
X025047Y020924D02*
X024914Y020924D01*
X024856Y020982D02*
X024989Y020982D01*
X024930Y021041D02*
X024797Y021041D01*
X024739Y021099D02*
X024872Y021099D01*
X024813Y021158D02*
X024680Y021158D01*
X024622Y021216D02*
X024755Y021216D01*
X024696Y021275D02*
X024563Y021275D01*
X024505Y021333D02*
X024638Y021333D01*
X024579Y021392D02*
X024446Y021392D01*
X024388Y021450D02*
X024521Y021450D01*
X024462Y021509D02*
X024329Y021509D01*
X024271Y021567D02*
X024404Y021567D01*
X024345Y021626D02*
X024212Y021626D01*
X024266Y021573D02*
X024266Y021573D01*
X024287Y021684D02*
X023876Y021684D01*
X023903Y021743D02*
X024228Y021743D01*
X024170Y021801D02*
X023903Y021801D01*
X023903Y021860D02*
X024111Y021860D01*
X024053Y021918D02*
X023870Y021918D01*
X023693Y021799D02*
X022591Y021799D01*
X022709Y021977D02*
X023069Y021977D01*
X023175Y022211D02*
X024438Y022211D01*
X024428Y022200D02*
X024428Y022026D01*
X024551Y021903D01*
X024678Y021903D01*
X024942Y021639D01*
X025406Y021639D01*
X025496Y021549D01*
X025670Y021549D01*
X025793Y021672D01*
X025793Y021846D01*
X025670Y021969D01*
X025496Y021969D01*
X025406Y021879D01*
X025042Y021879D01*
X024848Y022073D01*
X024848Y022200D01*
X024725Y022324D01*
X024551Y022324D01*
X024428Y022200D01*
X024428Y022152D02*
X024158Y022152D01*
X024217Y022094D02*
X024428Y022094D01*
X024428Y022035D02*
X024275Y022035D01*
X024334Y021977D02*
X024477Y021977D01*
X024536Y021918D02*
X024392Y021918D01*
X024451Y021860D02*
X024722Y021860D01*
X024780Y021801D02*
X024509Y021801D01*
X024568Y021743D02*
X024839Y021743D01*
X024897Y021684D02*
X024626Y021684D01*
X024685Y021626D02*
X025419Y021626D01*
X025477Y021567D02*
X024743Y021567D01*
X024802Y021509D02*
X031599Y021509D01*
X031540Y021567D02*
X025688Y021567D01*
X025747Y021626D02*
X031495Y021626D01*
X031495Y021684D02*
X025793Y021684D01*
X025793Y021743D02*
X031495Y021743D01*
X031509Y021801D02*
X025793Y021801D01*
X025779Y021860D02*
X031568Y021860D01*
X031753Y021918D02*
X025720Y021918D01*
X025583Y021759D02*
X024992Y021759D01*
X024638Y022113D01*
X024779Y022269D02*
X031959Y022269D01*
X031959Y022211D02*
X024837Y022211D01*
X024848Y022152D02*
X031959Y022152D01*
X031929Y022094D02*
X024848Y022094D01*
X024886Y022035D02*
X031870Y022035D01*
X031812Y021977D02*
X024944Y021977D01*
X025003Y021918D02*
X025445Y021918D01*
X024497Y022269D02*
X021442Y022269D01*
X021432Y022260D02*
X021519Y022347D01*
X021706Y022533D01*
X021792Y022533D01*
X021915Y022656D01*
X021915Y022830D01*
X021792Y022953D01*
X021618Y022953D01*
X021495Y022830D01*
X021495Y022744D01*
X021308Y022558D01*
X019267Y022558D01*
X019159Y022665D01*
X019159Y022752D01*
X019036Y022875D01*
X018862Y022875D01*
X018739Y022752D01*
X018739Y022578D01*
X018862Y022455D01*
X018948Y022455D01*
X019143Y022260D01*
X021432Y022260D01*
X021500Y022328D02*
X031959Y022328D01*
X031959Y022386D02*
X021559Y022386D01*
X021519Y022347D02*
X021519Y022347D01*
X021617Y022445D02*
X031959Y022445D01*
X031959Y022503D02*
X021676Y022503D01*
X021820Y022562D02*
X031944Y022562D01*
X031885Y022620D02*
X021879Y022620D01*
X021915Y022679D02*
X031869Y022679D01*
X031869Y022737D02*
X021915Y022737D01*
X021915Y022796D02*
X031869Y022796D01*
X031913Y022854D02*
X021891Y022854D01*
X021832Y022913D02*
X031971Y022913D01*
X032099Y022743D02*
X032079Y022724D01*
X032079Y022074D01*
X031705Y021700D01*
X032158Y021275D02*
X034813Y021275D01*
X034813Y021333D02*
X032217Y021333D01*
X032275Y021392D02*
X034813Y021392D01*
X034813Y021450D02*
X032334Y021450D01*
X032392Y021509D02*
X034813Y021509D01*
X034813Y021567D02*
X032451Y021567D01*
X032509Y021626D02*
X034813Y021626D01*
X034813Y021684D02*
X034250Y021684D01*
X034308Y021743D02*
X034813Y021743D01*
X034813Y021801D02*
X034316Y021801D01*
X034316Y021860D02*
X034813Y021860D01*
X034813Y021918D02*
X034353Y021918D01*
X034410Y021977D02*
X034813Y021977D01*
X034823Y022035D02*
X034468Y022035D01*
X034525Y022094D02*
X034882Y022094D01*
X034940Y022152D02*
X034582Y022152D01*
X034640Y022211D02*
X034999Y022211D01*
X035057Y022269D02*
X034697Y022269D01*
X034754Y022328D02*
X035116Y022328D01*
X035174Y022386D02*
X034811Y022386D01*
X034869Y022445D02*
X035176Y022445D01*
X035176Y022503D02*
X034926Y022503D01*
X034983Y022562D02*
X035222Y022562D01*
X035166Y022620D02*
X035281Y022620D01*
X035032Y022783D02*
X034106Y021838D01*
X033963Y021684D02*
X033049Y021684D01*
X033108Y021743D02*
X033904Y021743D01*
X033896Y021801D02*
X033116Y021801D01*
X033116Y021860D02*
X033896Y021860D01*
X033749Y022269D02*
X033743Y022269D01*
X033802Y022328D02*
X033935Y022328D01*
X033993Y022386D02*
X033860Y022386D01*
X033919Y022445D02*
X034052Y022445D01*
X034110Y022503D02*
X033977Y022503D01*
X033417Y022350D02*
X032906Y021838D01*
X032762Y021684D02*
X032568Y021684D01*
X032626Y021743D02*
X032703Y021743D01*
X032696Y021801D02*
X032685Y021801D01*
X032100Y021216D02*
X034813Y021216D01*
X034813Y021158D02*
X032041Y021158D01*
X031983Y021099D02*
X034813Y021099D01*
X034813Y021041D02*
X031924Y021041D01*
X031923Y020982D02*
X034813Y020982D01*
X034813Y020924D02*
X031923Y020924D01*
X031970Y020865D02*
X034813Y020865D01*
X034813Y020807D02*
X032013Y020807D01*
X032013Y020748D02*
X034813Y020748D01*
X034813Y020690D02*
X032013Y020690D01*
X031996Y020631D02*
X034813Y020631D01*
X034758Y020573D02*
X031938Y020573D01*
X032099Y022743D02*
X032177Y022743D01*
X033181Y023747D01*
X033713Y023747D01*
X033576Y023907D02*
X012288Y023907D01*
X012288Y023849D02*
X033113Y023849D01*
X033055Y023790D02*
X029593Y023790D01*
X029573Y023799D02*
X029466Y023799D01*
X029368Y023758D01*
X029329Y023719D01*
X013018Y023719D01*
X012979Y023758D01*
X012880Y023799D01*
X012774Y023799D01*
X012675Y023758D01*
X012600Y023683D01*
X012559Y023584D01*
X012559Y023477D01*
X012600Y023379D01*
X012675Y023303D01*
X012774Y023263D01*
X012880Y023263D01*
X012979Y023303D01*
X013018Y023342D01*
X029329Y023342D01*
X029368Y023303D01*
X029466Y023263D01*
X029573Y023263D01*
X029672Y023303D01*
X029747Y023379D01*
X029788Y023477D01*
X029788Y023584D01*
X029747Y023683D01*
X029672Y023758D01*
X029573Y023799D01*
X029446Y023790D02*
X012901Y023790D01*
X013005Y023732D02*
X029342Y023732D01*
X029698Y023732D02*
X032996Y023732D01*
X032938Y023673D02*
X029751Y023673D01*
X029775Y023615D02*
X032879Y023615D01*
X032821Y023556D02*
X029788Y023556D01*
X029788Y023498D02*
X032762Y023498D01*
X032704Y023439D02*
X029772Y023439D01*
X029748Y023381D02*
X032645Y023381D01*
X032587Y023322D02*
X029691Y023322D01*
X029576Y023264D02*
X032528Y023264D01*
X032470Y023205D02*
X012288Y023205D01*
X012288Y023147D02*
X032411Y023147D01*
X032353Y023088D02*
X016401Y023088D01*
X016459Y023030D02*
X032294Y023030D01*
X032236Y022971D02*
X017729Y022971D01*
X017788Y022913D02*
X021577Y022913D01*
X021519Y022854D02*
X019056Y022854D01*
X019115Y022796D02*
X021495Y022796D01*
X021488Y022737D02*
X019159Y022737D01*
X019159Y022679D02*
X021430Y022679D01*
X021371Y022620D02*
X019204Y022620D01*
X019262Y022562D02*
X021313Y022562D01*
X022144Y022211D02*
X018805Y022211D01*
X018746Y022269D02*
X019133Y022269D01*
X019075Y022328D02*
X018688Y022328D01*
X018629Y022386D02*
X019016Y022386D01*
X018958Y022445D02*
X018571Y022445D01*
X018512Y022503D02*
X018813Y022503D01*
X018755Y022562D02*
X018454Y022562D01*
X018395Y022620D02*
X018739Y022620D01*
X018739Y022679D02*
X018391Y022679D01*
X018391Y022737D02*
X018739Y022737D01*
X018783Y022796D02*
X018347Y022796D01*
X018288Y022854D02*
X018842Y022854D01*
X018074Y022854D02*
X017973Y022854D01*
X017624Y022737D02*
X016425Y022737D01*
X016158Y022737D02*
X012288Y022737D01*
X012288Y022679D02*
X015753Y022679D01*
X015721Y022328D02*
X014539Y022328D01*
X012998Y023322D02*
X029349Y023322D01*
X029463Y023264D02*
X012883Y023264D01*
X012770Y023264D02*
X012288Y023264D01*
X012288Y023322D02*
X012656Y023322D01*
X012599Y023381D02*
X012288Y023381D01*
X012288Y023439D02*
X012574Y023439D01*
X012559Y023498D02*
X012288Y023498D01*
X012288Y023556D02*
X012559Y023556D01*
X012572Y023615D02*
X012288Y023615D01*
X012288Y023673D02*
X012596Y023673D01*
X012649Y023732D02*
X012288Y023732D01*
X012288Y023790D02*
X012753Y023790D01*
X012288Y025604D02*
X013247Y025604D01*
X013100Y025662D02*
X012288Y025662D01*
X012288Y025721D02*
X013028Y025721D01*
X012978Y025779D02*
X012288Y025779D01*
X012288Y025838D02*
X012944Y025838D01*
X012921Y025896D02*
X012288Y025896D01*
X012288Y025955D02*
X012907Y025955D01*
X012901Y026013D02*
X012288Y026013D01*
X012288Y026072D02*
X012901Y026072D01*
X012901Y026130D02*
X012288Y026130D01*
X012288Y026189D02*
X012901Y026189D01*
X012901Y026247D02*
X012288Y026247D01*
X013562Y025662D02*
X014189Y025662D01*
X014084Y025721D02*
X013634Y025721D01*
X013683Y025779D02*
X014026Y025779D01*
X013987Y025838D02*
X013718Y025838D01*
X013741Y025896D02*
X013962Y025896D01*
X013941Y025955D02*
X013755Y025955D01*
X013761Y026013D02*
X013941Y026013D01*
X013941Y026072D02*
X013761Y026072D01*
X013761Y026130D02*
X013941Y026130D01*
X013941Y026189D02*
X013761Y026189D01*
X013761Y026247D02*
X013941Y026247D01*
X014472Y025662D02*
X014796Y025662D01*
X014738Y025721D02*
X014577Y025721D01*
X014636Y025779D02*
X014679Y025779D01*
X015375Y024902D02*
X035909Y024902D01*
X035850Y024843D02*
X015433Y024843D01*
X015404Y024551D02*
X035880Y024551D01*
X037413Y023966D02*
X039390Y023966D01*
X039390Y023907D02*
X037472Y023907D01*
X037505Y023849D02*
X039390Y023849D01*
X039390Y023790D02*
X037505Y023790D01*
X037505Y023732D02*
X039390Y023732D01*
X039390Y023673D02*
X037479Y023673D01*
X037421Y023615D02*
X039390Y023615D01*
X039390Y023088D02*
X036892Y023088D01*
X036950Y023030D02*
X039390Y023030D01*
X039390Y022971D02*
X036973Y022971D01*
X036973Y022913D02*
X039390Y022913D01*
X039390Y022854D02*
X037028Y022854D01*
X037086Y022796D02*
X039390Y022796D01*
X039390Y022737D02*
X037145Y022737D01*
X037203Y022679D02*
X039390Y022679D01*
X039390Y022620D02*
X037262Y022620D01*
X037320Y022562D02*
X039390Y022562D01*
X039390Y022503D02*
X037379Y022503D01*
X037437Y022445D02*
X039390Y022445D01*
X039390Y022386D02*
X037496Y022386D01*
X037534Y022328D02*
X039390Y022328D01*
X039390Y022269D02*
X037534Y022269D01*
X037534Y022211D02*
X039390Y022211D01*
X039390Y022152D02*
X037534Y022152D01*
X037534Y022094D02*
X039390Y022094D01*
X039390Y022035D02*
X037534Y022035D01*
X037534Y021977D02*
X039390Y021977D01*
X039390Y021918D02*
X037534Y021918D01*
X037534Y021860D02*
X039390Y021860D01*
X039390Y021801D02*
X037534Y021801D01*
X037534Y021743D02*
X039390Y021743D01*
X039390Y021684D02*
X037534Y021684D01*
X037534Y021626D02*
X039390Y021626D01*
X039390Y021567D02*
X037534Y021567D01*
X037566Y021509D02*
X039390Y021509D01*
X039390Y021450D02*
X037603Y021450D01*
X037603Y021392D02*
X039390Y021392D01*
X039390Y021333D02*
X037603Y021333D01*
X037579Y021275D02*
X039390Y021275D01*
X039390Y021216D02*
X038391Y021216D01*
X038449Y021158D02*
X039390Y021158D01*
X039390Y021099D02*
X038508Y021099D01*
X038509Y021041D02*
X039390Y021041D01*
X039390Y020865D02*
X038451Y020865D01*
X038392Y020807D02*
X039390Y020807D01*
X039390Y020748D02*
X036497Y020748D01*
X036521Y020690D02*
X039390Y020690D01*
X039390Y020631D02*
X036521Y020631D01*
X036521Y020573D02*
X039390Y020573D01*
X039390Y020514D02*
X036573Y020514D01*
X036632Y020456D02*
X039390Y020456D01*
X039390Y020397D02*
X036679Y020397D01*
X036679Y020339D02*
X039390Y020339D01*
X039390Y020280D02*
X036847Y020280D01*
X036905Y020222D02*
X039390Y020222D01*
X039390Y020163D02*
X036935Y020163D01*
X036935Y020105D02*
X039390Y020105D01*
X039390Y020046D02*
X037789Y020046D01*
X037848Y019988D02*
X039390Y019988D01*
X039390Y019929D02*
X037879Y019929D01*
X037879Y019871D02*
X039390Y019871D01*
X039390Y019812D02*
X037896Y019812D01*
X037955Y019754D02*
X039390Y019754D01*
X038206Y020807D02*
X037172Y020807D01*
X036986Y020807D02*
X036438Y020807D01*
X036311Y020637D02*
X035839Y020637D01*
X035711Y020807D02*
X035597Y020807D01*
X035596Y021216D02*
X036987Y021216D01*
X037171Y021216D02*
X037267Y021216D01*
X037521Y021216D02*
X038208Y021216D01*
X036469Y020322D02*
X035445Y019299D01*
X035445Y019259D01*
X035438Y019461D02*
X035320Y019461D01*
X035284Y019520D02*
X035497Y019520D01*
X035555Y019578D02*
X035226Y019578D01*
X035040Y019637D02*
X035614Y019637D01*
X035672Y019695D02*
X034982Y019695D01*
X034923Y019754D02*
X035731Y019754D01*
X035789Y019812D02*
X034865Y019812D01*
X034806Y019871D02*
X035848Y019871D01*
X035906Y019929D02*
X034748Y019929D01*
X034584Y019754D02*
X026557Y019754D01*
X026615Y019695D02*
X034642Y019695D01*
X034701Y019637D02*
X026674Y019637D01*
X026732Y019578D02*
X034759Y019578D01*
X034549Y019789D02*
X034549Y019789D01*
X034525Y019812D02*
X026498Y019812D01*
X026440Y019871D02*
X034479Y019871D01*
X034479Y019929D02*
X026381Y019929D01*
X026323Y019988D02*
X034479Y019988D01*
X034479Y020046D02*
X026264Y020046D01*
X026206Y020105D02*
X034479Y020105D01*
X034479Y020163D02*
X026147Y020163D01*
X026089Y020222D02*
X034479Y020222D01*
X034479Y020280D02*
X026030Y020280D01*
X025972Y020339D02*
X034524Y020339D01*
X034583Y020397D02*
X025913Y020397D01*
X025855Y020456D02*
X034641Y020456D01*
X034700Y020514D02*
X025796Y020514D01*
X025891Y019929D02*
X026042Y019929D01*
X026100Y019871D02*
X025862Y019871D01*
X025803Y019812D02*
X026159Y019812D01*
X026217Y019754D02*
X025528Y019754D01*
X025557Y019812D02*
X025559Y019812D01*
X025470Y019695D02*
X026276Y019695D01*
X026334Y019637D02*
X025365Y019637D01*
X025423Y019578D02*
X026393Y019578D01*
X026451Y019520D02*
X025482Y019520D01*
X025540Y019461D02*
X026510Y019461D01*
X025843Y019403D02*
X025598Y019403D01*
X025656Y019344D02*
X025784Y019344D01*
X025727Y019286D02*
X025714Y019286D01*
X025347Y019869D02*
X023811Y021405D01*
X022335Y021405D01*
X022099Y021385D02*
X021410Y021385D01*
X022191Y021918D02*
X022414Y021918D01*
X022472Y021977D02*
X022250Y021977D01*
X023417Y021129D02*
X023850Y020676D01*
X023969Y020676D01*
X026567Y018078D01*
X026567Y017842D01*
X027099Y017310D01*
X027118Y017310D01*
X026784Y018039D02*
X023929Y020913D01*
X023752Y021090D01*
X023752Y021149D01*
X023417Y020440D02*
X023496Y020361D01*
X023516Y020361D01*
X023732Y020145D01*
X023850Y020145D01*
X023988Y020007D01*
X024008Y020007D01*
X024146Y019869D01*
X024146Y019850D01*
X024500Y019495D01*
X024579Y019495D01*
X026173Y017881D01*
X024655Y018408D02*
X024654Y018408D01*
X024598Y018467D02*
X024596Y018467D01*
X024540Y018525D02*
X024537Y018525D01*
X024483Y018584D02*
X024479Y018584D01*
X024426Y018642D02*
X024420Y018642D01*
X024369Y018701D02*
X024362Y018701D01*
X024312Y018759D02*
X024303Y018759D01*
X024254Y018818D02*
X024245Y018818D01*
X024197Y018876D02*
X024186Y018876D01*
X024140Y018935D02*
X023842Y018935D01*
X023713Y018767D02*
X024126Y018767D01*
X024599Y018295D01*
X024599Y017428D01*
X024388Y017414D02*
X024375Y017414D01*
X024375Y017472D02*
X024388Y017472D01*
X024404Y017531D02*
X024340Y017531D01*
X024282Y017589D02*
X024462Y017589D01*
X024479Y017648D02*
X024096Y017648D01*
X024037Y017706D02*
X024479Y017706D01*
X024479Y017765D02*
X023979Y017765D01*
X023920Y017823D02*
X024479Y017823D01*
X024479Y017882D02*
X023862Y017882D01*
X023803Y017940D02*
X024479Y017940D01*
X024479Y017999D02*
X023824Y017999D01*
X023824Y018057D02*
X024479Y018057D01*
X024479Y018116D02*
X023824Y018116D01*
X023815Y018174D02*
X024479Y018174D01*
X024479Y018233D02*
X023756Y018233D01*
X023472Y018233D02*
X023237Y018233D01*
X023179Y018291D02*
X024432Y018291D01*
X024373Y018350D02*
X023120Y018350D01*
X023114Y018408D02*
X024315Y018408D01*
X024256Y018467D02*
X023114Y018467D01*
X023114Y018525D02*
X024198Y018525D01*
X024139Y018584D02*
X023827Y018584D01*
X023885Y018642D02*
X024081Y018642D01*
X024083Y018993D02*
X023587Y018993D01*
X023584Y018935D02*
X023528Y018935D01*
X023525Y018876D02*
X022948Y018876D01*
X023006Y018818D02*
X023503Y018818D01*
X023503Y018759D02*
X023065Y018759D01*
X023114Y018701D02*
X023503Y018701D01*
X023540Y018642D02*
X023114Y018642D01*
X023114Y018584D02*
X023599Y018584D01*
X023346Y018935D02*
X022889Y018935D01*
X022831Y018993D02*
X023288Y018993D01*
X023229Y019052D02*
X022772Y019052D01*
X022360Y019110D02*
X023227Y019110D01*
X023227Y019169D02*
X022301Y019169D01*
X022243Y019227D02*
X023227Y019227D01*
X023285Y019286D02*
X022184Y019286D01*
X022126Y019344D02*
X023343Y019344D01*
X023437Y019141D02*
X024106Y019141D01*
X023227Y019812D02*
X019595Y019812D01*
X019653Y019871D02*
X023260Y019871D01*
X023318Y019929D02*
X019712Y019929D01*
X018210Y021158D02*
X017601Y021158D01*
X017645Y021450D02*
X018166Y021450D01*
X018224Y021509D02*
X017874Y021509D01*
X017826Y021860D02*
X018851Y021860D01*
X017631Y021860D02*
X015976Y021860D01*
X019402Y023964D02*
X019520Y024082D01*
X021095Y024082D01*
X021331Y023846D01*
X021466Y017999D02*
X016992Y017999D01*
X016934Y017940D02*
X021416Y017940D01*
X021416Y017882D02*
X016875Y017882D01*
X016817Y017823D02*
X021416Y017823D01*
X021426Y017765D02*
X016758Y017765D01*
X016700Y017706D02*
X021484Y017706D01*
X021608Y017648D02*
X016641Y017648D01*
X016583Y017589D02*
X021574Y017589D01*
X021574Y017531D02*
X015352Y017531D01*
X015294Y017472D02*
X018243Y017472D01*
X018513Y017472D02*
X021574Y017472D01*
X021599Y017414D02*
X018571Y017414D01*
X018588Y017355D02*
X021658Y017355D01*
X021784Y017527D02*
X023575Y017527D01*
X023654Y017448D01*
X023713Y017861D02*
X024165Y017409D01*
X024375Y017355D02*
X024388Y017355D01*
X023929Y017054D02*
X023850Y016976D01*
X023752Y016759D02*
X023457Y017054D01*
X022020Y017054D01*
X021902Y016936D01*
X022532Y016405D02*
X023575Y016405D01*
X023654Y016484D01*
X023770Y016302D02*
X023778Y016302D01*
X023988Y016385D02*
X023988Y016503D01*
X023752Y016739D01*
X023752Y016759D01*
X023713Y017861D02*
X021626Y017861D01*
X023296Y018174D02*
X023414Y018174D01*
X021743Y015776D02*
X021450Y015776D01*
X021501Y015717D02*
X021685Y015717D01*
X021634Y015659D02*
X021501Y015659D01*
X021501Y015600D02*
X021575Y015600D01*
X021517Y015542D02*
X021493Y015542D01*
X021458Y015483D02*
X021435Y015483D01*
X021400Y015425D02*
X020038Y015425D01*
X020096Y015483D02*
X021148Y015483D01*
X019973Y014397D02*
X019973Y014318D01*
X019992Y014318D01*
X019047Y014358D02*
X019047Y014239D01*
X019028Y014318D02*
X019047Y014358D01*
X016983Y015015D02*
X025046Y015015D01*
X025106Y014957D02*
X016924Y014957D01*
X016866Y014898D02*
X025136Y014898D01*
X025136Y014840D02*
X016807Y014840D01*
X016749Y014781D02*
X025157Y014781D01*
X019933Y008728D02*
X020158Y008503D01*
X020650Y008503D01*
X020701Y008550D01*
X019605Y008288D02*
X019512Y008288D01*
X019512Y008346D02*
X019546Y008346D01*
X016515Y014547D02*
X036460Y014547D01*
X036416Y014489D02*
X035453Y014489D01*
X035512Y014430D02*
X036416Y014430D01*
X036371Y014372D02*
X035557Y014372D01*
X036518Y014606D02*
X016573Y014606D01*
X016578Y014611D02*
X016578Y014611D01*
X016386Y014840D02*
X014610Y014840D01*
X015327Y017823D02*
X016477Y017823D01*
X008752Y008137D02*
X008772Y008117D01*
X008543Y008112D02*
X000280Y008112D01*
X000280Y008054D02*
X008543Y008054D01*
X008543Y008171D02*
X000280Y008171D01*
X000280Y008229D02*
X008549Y008229D01*
X002777Y007995D02*
X000280Y007995D01*
X000280Y007937D02*
X002736Y007937D01*
X001343Y028646D02*
X039390Y028646D01*
X039390Y028704D02*
X001379Y028704D01*
X001437Y028763D02*
X039390Y028763D01*
X039390Y028821D02*
X001496Y028821D01*
X001554Y028880D02*
X002005Y028880D01*
X001946Y028938D02*
X001613Y028938D01*
X001671Y028997D02*
X001909Y028997D01*
X001909Y029055D02*
X001730Y029055D01*
X001788Y029114D02*
X001909Y029114D01*
X001933Y029172D02*
X001847Y029172D01*
X001803Y029299D02*
X037354Y029299D01*
X037563Y029289D02*
X039390Y029289D01*
X039390Y029231D02*
X037563Y029231D01*
X037524Y029172D02*
X039390Y029172D01*
X039390Y029114D02*
X037466Y029114D01*
X037249Y029055D02*
X039390Y029055D01*
X039390Y028997D02*
X037249Y028997D01*
X037211Y028938D02*
X039390Y028938D01*
X039390Y028880D02*
X037153Y028880D01*
X037039Y029062D02*
X002118Y029062D01*
X002290Y028938D02*
X036868Y028938D01*
X036926Y028880D02*
X002232Y028880D01*
X002774Y029699D02*
X000280Y029699D01*
X000280Y029757D02*
X002736Y029757D01*
X000280Y029640D02*
X039390Y029640D01*
X039390Y029582D02*
X000280Y029582D01*
X000280Y029523D02*
X039390Y029523D01*
X039390Y029465D02*
X037484Y029465D01*
X037542Y029406D02*
X039390Y029406D01*
X039390Y029348D02*
X037563Y029348D01*
X037225Y029465D02*
X000280Y029465D01*
X033219Y023615D02*
X033548Y023615D01*
X036980Y026031D02*
X037787Y026858D01*
X037641Y027008D02*
X034015Y027008D01*
X034040Y026949D02*
X037582Y026949D01*
X037699Y027066D02*
X033957Y027066D01*
X034352Y027417D02*
X035197Y027417D01*
X035256Y027476D02*
X034410Y027476D01*
X035477Y027476D02*
X038563Y027476D01*
X038504Y027417D02*
X035535Y027417D01*
X035496Y027125D02*
X038543Y027125D01*
X037993Y026949D02*
X039390Y026949D01*
X039390Y026891D02*
X037998Y026891D01*
X037998Y026832D02*
X039390Y026832D01*
X039390Y026774D02*
X037998Y026774D01*
X037942Y026715D02*
X039390Y026715D01*
X039390Y026657D02*
X037884Y026657D01*
X037702Y026598D02*
X039390Y026598D01*
X039390Y026540D02*
X037645Y026540D01*
X037588Y026481D02*
X039390Y026481D01*
X039390Y026423D02*
X037531Y026423D01*
X037474Y026364D02*
X039390Y026364D01*
X039390Y026306D02*
X037417Y026306D01*
X037360Y026247D02*
X039390Y026247D01*
X039390Y026189D02*
X037302Y026189D01*
X037245Y026130D02*
X039390Y026130D01*
X039390Y026072D02*
X037188Y026072D01*
X037131Y026013D02*
X039390Y026013D01*
X039390Y025955D02*
X037805Y025955D01*
X037863Y025896D02*
X039390Y025896D01*
X039390Y025838D02*
X037878Y025838D01*
X037878Y025779D02*
X039390Y025779D01*
X039390Y025721D02*
X037878Y025721D01*
X037833Y025662D02*
X039110Y025662D01*
X039299Y025662D02*
X039390Y025662D01*
X039390Y025604D02*
X039358Y025604D01*
X039390Y027008D02*
X037934Y027008D01*
X037876Y027066D02*
X039390Y027066D01*
X037534Y025955D02*
X037074Y025955D01*
X036895Y029699D02*
X039390Y029699D01*
X039390Y029757D02*
X036933Y029757D01*
X036137Y020514D02*
X036013Y020514D01*
X035955Y020456D02*
X036195Y020456D01*
X035171Y017121D02*
X038228Y017121D01*
X038947Y016712D02*
X036441Y016712D01*
X034224Y008354D02*
X034441Y008137D01*
X034106Y008137D02*
X034028Y008216D01*
X033063Y008157D02*
X033063Y008295D01*
X032965Y008393D01*
X037129Y007995D02*
X039390Y007995D01*
X039390Y007937D02*
X037169Y007937D01*
D14*
X035386Y008176D03*
X035228Y008432D03*
X035130Y008747D03*
X034756Y008413D03*
X034441Y008472D03*
X034441Y008137D03*
X034106Y008137D03*
X033772Y008137D03*
X033673Y008452D03*
X033378Y008157D03*
X033063Y008157D03*
X032748Y008176D03*
X033161Y008550D03*
X034539Y008905D03*
X034992Y008176D03*
X037177Y009515D03*
X037177Y009830D03*
X037177Y010125D03*
X037394Y010854D03*
X037630Y011326D03*
X036469Y010637D03*
X035189Y011877D03*
X035976Y012232D03*
X035347Y014299D03*
X036626Y014417D03*
X038516Y014653D03*
X034599Y016759D03*
X034362Y017310D03*
X034126Y017665D03*
X033476Y017743D03*
X035071Y017704D03*
X036016Y018393D03*
X035839Y018865D03*
X035110Y019397D03*
X034835Y020145D03*
X034559Y020913D03*
X034559Y021228D03*
X034106Y021838D03*
X033870Y022094D03*
X033378Y022822D03*
X033713Y023196D03*
X033713Y023747D03*
X035032Y022783D03*
X035740Y023452D03*
X035386Y022428D03*
X035504Y021011D03*
X035839Y020637D03*
X036311Y020637D03*
X036469Y020322D03*
X036724Y020106D03*
X037079Y021011D03*
X038299Y021011D03*
X037669Y019869D03*
X037689Y018393D03*
X032906Y021838D03*
X032079Y022724D03*
X031252Y022921D03*
X031252Y023255D03*
X030937Y023255D03*
X030917Y022921D03*
X031705Y021700D03*
X031803Y020736D03*
X031803Y019318D03*
X032374Y019082D03*
X030937Y017704D03*
X030622Y018058D03*
X031410Y016799D03*
X031764Y016680D03*
X031154Y016149D03*
X031154Y015873D03*
X030878Y015873D03*
X030878Y016149D03*
X030661Y015578D03*
X031370Y015578D03*
X032158Y014889D03*
X032433Y015381D03*
X032827Y015381D03*
X031016Y013767D03*
X031016Y013491D03*
X030721Y013491D03*
X030721Y013767D03*
X031331Y012251D03*
X031449Y011621D03*
X031252Y011306D03*
X030917Y011306D03*
X030858Y010854D03*
X030130Y010617D03*
X029717Y011031D03*
X030130Y011110D03*
X030130Y011424D03*
X029658Y011621D03*
X029087Y011858D03*
X028732Y012192D03*
X028024Y012468D03*
X026528Y010913D03*
X026862Y010578D03*
X027197Y010243D03*
X027532Y009909D03*
X028319Y009180D03*
X027787Y008826D03*
X029323Y009810D03*
X032197Y010854D03*
X032532Y010873D03*
X032591Y011208D03*
X032453Y011484D03*
X033063Y011228D03*
X032827Y012192D03*
X032433Y012192D03*
X029323Y014889D03*
X028240Y015480D03*
X028024Y015106D03*
X027787Y015460D03*
X028398Y016385D03*
X028398Y017251D03*
X028988Y017153D03*
X027453Y016621D03*
X027118Y017310D03*
X026784Y018039D03*
X026764Y018373D03*
X026173Y017881D03*
X024599Y017428D03*
X024165Y017409D03*
X023850Y016976D03*
X024205Y016838D03*
X024382Y016464D03*
X024323Y016149D03*
X023988Y016385D03*
X023654Y016484D03*
X023654Y017448D03*
X023614Y018078D03*
X023713Y018767D03*
X023437Y019141D03*
X023693Y019594D03*
X023437Y019751D03*
X023437Y020125D03*
X023496Y020657D03*
X023417Y021129D03*
X023752Y021149D03*
X023693Y021799D03*
X022591Y021799D03*
X021882Y021720D03*
X021232Y021188D03*
X021370Y020873D03*
X020406Y021700D03*
X020012Y020440D03*
X018988Y021700D03*
X018339Y021326D03*
X017728Y021661D03*
X017473Y021326D03*
X017866Y022665D03*
X018181Y022665D03*
X018949Y022665D03*
X019402Y023964D03*
X021331Y023846D03*
X021705Y022743D03*
X022473Y021050D03*
X022473Y020736D03*
X022473Y020421D03*
X024638Y022113D03*
X025583Y021759D03*
X026626Y021247D03*
X026626Y020932D03*
X026961Y020932D03*
X026961Y021247D03*
X025681Y019987D03*
X025347Y019869D03*
X025937Y019200D03*
X022473Y018511D03*
X022473Y018176D03*
X021626Y017861D03*
X021784Y017527D03*
X021803Y017192D03*
X022099Y016799D03*
X021882Y015617D03*
X021291Y015637D03*
X021370Y014299D03*
X019992Y014318D03*
X019028Y014318D03*
X018083Y014299D03*
X018988Y015598D03*
X019913Y015598D03*
X018634Y016602D03*
X018122Y016641D03*
X018378Y017310D03*
X019402Y017468D03*
X019736Y017468D03*
X020130Y017468D03*
X020445Y017468D03*
X021370Y018511D03*
X025347Y015224D03*
X025347Y014889D03*
X025937Y014869D03*
X026528Y014869D03*
X026311Y015972D03*
X025937Y016169D03*
X023417Y014239D03*
X023063Y013806D03*
X024953Y013806D03*
X024992Y012232D03*
X024973Y011877D03*
X024973Y011562D03*
X024973Y011228D03*
X024973Y010893D03*
X026075Y011247D03*
X025937Y011582D03*
X025681Y011917D03*
X023732Y009771D03*
X022945Y009889D03*
X022650Y009909D03*
X022354Y009909D03*
X022059Y009909D03*
X024382Y009180D03*
X024835Y009436D03*
X025071Y008846D03*
X025130Y008472D03*
X019382Y010066D03*
X019382Y010460D03*
X019382Y010893D03*
X018004Y009515D03*
X014480Y014673D03*
X016311Y016070D03*
X016311Y016346D03*
X016606Y016346D03*
X016606Y016070D03*
X014953Y016641D03*
X015189Y017665D03*
X015681Y019082D03*
X015661Y019928D03*
X014421Y019909D03*
X013221Y019909D03*
X015878Y021661D03*
X015858Y022487D03*
X016291Y022901D03*
X014362Y022448D03*
X013201Y022448D03*
X015268Y024712D03*
X030504Y025302D03*
X030524Y024987D03*
X031154Y026444D03*
X031469Y027684D03*
X032138Y027684D03*
X031016Y029535D03*
X034146Y026050D03*
X033142Y025460D03*
X036016Y024712D03*
X036587Y024633D03*
X036882Y024633D03*
X036882Y024928D03*
X036587Y024928D03*
X037295Y023787D03*
X037630Y022940D03*
X037630Y022665D03*
X037925Y022665D03*
X037925Y022940D03*
X039205Y025460D03*
X037787Y026858D03*
X038417Y010106D03*
X038732Y010106D03*
X038732Y009791D03*
X038417Y009791D03*
X005721Y009909D03*
X005721Y010224D03*
X005721Y010539D03*
X002433Y010499D03*
X002433Y010204D03*
X002433Y009889D03*
D15*
X007591Y008905D03*
X008181Y008550D03*
X008752Y008137D03*
X008988Y008747D03*
X009421Y009161D03*
X009973Y009043D03*
X010413Y009058D03*
X011744Y010224D03*
X009520Y010480D03*
X009362Y010991D03*
X009008Y011169D03*
X008910Y010736D03*
X008417Y010637D03*
X008102Y009377D03*
X014599Y010007D03*
X016449Y010007D03*
X018378Y008314D03*
X018693Y008157D03*
X019303Y008373D03*
X019717Y008472D03*
X020228Y008984D03*
X020465Y009180D03*
X021016Y008787D03*
X020701Y008550D03*
X036291Y013787D03*
X038142Y013787D03*
X036331Y016897D03*
X038339Y016936D03*
X038772Y018787D03*
X037709Y018787D03*
X037394Y021385D03*
X036764Y022921D03*
X036095Y025795D03*
X037669Y025795D03*
X038673Y027291D03*
X037354Y029299D03*
X037039Y029062D03*
X035366Y027291D03*
X034264Y027625D03*
X033831Y026897D03*
X032158Y026956D03*
X029913Y026424D03*
X028221Y025795D03*
X023732Y025795D03*
X002118Y029062D03*
X001134Y028629D03*
D16*
X014402Y013924D02*
X014953Y013924D01*
X022374Y013924D01*
X022453Y013846D01*
X035504Y021011D02*
X037079Y021011D01*
X038299Y021011D01*
X039205Y025460D02*
X033142Y025460D01*
D17*
X029520Y023531D02*
X012827Y023531D01*
X014402Y013924D02*
X013693Y013216D01*
D18*
X023063Y013806D02*
X024953Y013806D01*
D19*
X025012Y012212D02*
X025740Y012212D01*
X025819Y012133D01*
X028417Y012133D01*
X029520Y011031D01*
X029717Y011031D01*
X035347Y014299D02*
X035425Y014220D01*
X036429Y014220D01*
X036626Y014417D01*
X036016Y018393D02*
X037689Y018393D01*
X023614Y018078D02*
X023555Y018019D01*
X023240Y018019D01*
X022965Y018295D01*
X022965Y018649D01*
X022689Y018924D01*
X022335Y018924D01*
X022020Y019239D01*
X018890Y019239D01*
X018850Y019279D01*
X015976Y019279D01*
X015839Y019141D01*
X015701Y019141D01*
X015681Y019121D01*
X015681Y019082D01*
X015661Y019928D02*
X014520Y019928D01*
X014500Y019909D01*
X014421Y019909D01*
X013221Y019909D01*
X014421Y019909D02*
X014441Y019928D01*
X015878Y021661D02*
X015858Y021700D01*
X017728Y021700D01*
X017728Y021661D01*
X017728Y021700D02*
X018988Y021700D01*
X018988Y021661D01*
X019008Y021641D01*
X019146Y021641D01*
X019284Y021503D01*
X019461Y021503D01*
X020839Y020125D01*
X023437Y020125D01*
X021370Y022409D02*
X019205Y022409D01*
X018949Y022665D01*
X021370Y022409D02*
X021705Y022743D01*
X020012Y020440D02*
X018850Y019279D01*
X018988Y015598D02*
X014953Y015598D01*
X014953Y016641D01*
X016429Y014673D02*
X016941Y015184D01*
X021370Y015184D01*
X021803Y015617D01*
X021882Y015617D01*
X021291Y015637D02*
X019913Y015637D01*
X019913Y015598D02*
X018988Y015598D01*
X016843Y013924D02*
X014953Y013924D01*
X014480Y014673D02*
X016429Y014673D01*
X015858Y022487D02*
X014441Y022487D01*
X014421Y022468D01*
X014402Y022468D01*
X014362Y022448D01*
X013201Y022448D01*
D20*
X029717Y011031D02*
X029894Y010854D01*
X030858Y010854D01*
X032197Y010854D01*
D21*
X022453Y013846D03*
D22*
X013693Y013216D03*
X012827Y023531D03*
X029520Y023531D03*
D23*
X028260Y025795D02*
X028221Y025795D01*
X023713Y025795D01*
X023732Y025814D01*
X023732Y025795D01*
X023713Y025795D02*
X014862Y025795D01*
X014331Y026326D01*
X028260Y025795D02*
X036095Y025795D01*
X037669Y025795D01*
X036764Y022921D02*
X037394Y022291D01*
X037394Y021385D01*
X037709Y018787D02*
X038772Y018787D01*
X038339Y016936D02*
X038299Y016897D01*
X036331Y016897D01*
X036291Y013787D02*
X038142Y013787D01*
X032158Y026956D02*
X032827Y027625D01*
X034264Y027625D01*
M02*
