%
T1C.004F0S0
X-003639Y00144
X-003639Y0024
X-004119Y0024
X-004355Y002763
X-003639Y00288
X-004119Y00288
X-004119Y00336
X-003639Y00336
X-004599Y00384
X-00358Y00386
X-004119Y00432
X-004599Y00432
X-00348Y00442
X-00378Y0045
X-004832Y004548
X-004599Y0048
X-003407Y004918
X-00376Y005
X-00404Y00516
X-004599Y00528
X-003407Y005398
X-003416Y005903
X-00474Y006
X-00474Y00612
X-00474Y00624
X-00474Y00636
X-00474Y00648
X-00474Y0066
X-00474Y00672
X-00474Y00684
X-00474Y00696
X-00474Y00708
X-00474Y0072
X-00474Y00732
X-00474Y00744
X-00474Y00756
X-00474Y00768
X-00474Y0078
X-00334Y00782
X-00474Y00792
X-00474Y00804
X-00474Y00816
X-00474Y00828
X-00476Y0084
X-00464Y0084
X-00476Y00852
X-00464Y00852
X-00476Y00864
X-00476Y00876
X-00476Y00888
X-00476Y009
X-00344Y0091
X-00476Y00912
X-00476Y00924
X-00476Y00936
X-00476Y00948
X-00476Y0096
X-00344Y00972
X-00476Y00972
X-00476Y00984
X-00476Y00996
X-00476Y01008
X-00476Y0102
X-00476Y01032
X-00476Y01044
X-00476Y01056
X-00344Y01058
X-00476Y01068
X-00476Y0108
X-00476Y01092
X-00476Y01104
X-00476Y01116
X-00476Y01128
X-00476Y0114
X-00344Y01152
X-00476Y01152
X-00476Y01164
X-00476Y01176
X-00476Y01188
X-00476Y012
X-00476Y01212
X-00476Y01224
X-00476Y01236
X-00476Y01248
X-00344Y01258
X-00476Y0126
X-00476Y01272
X-00476Y01284
X-00476Y01296
X-00494Y013
X-00476Y01308
X-00494Y01312
X-0051Y01318
X-00476Y0132
X-00494Y01324
X-0051Y0133
X-0051Y01342
X-00574Y01354
X-00452Y01368
X-00574Y01376
X-00466Y01382
X-00482Y01398
X-00484Y01422
X-00468Y01434
X-00576Y0145
X-00576Y01482
X-0046Y01512
X-00576Y01518
X-00576Y0155
X-00576Y01582
X-00488Y01674
X-00488Y01706
X-00488Y01742
X-00488Y01774
X-00488Y01806
X-0049Y01848
X-0049Y0188
X-0049Y01916
X-0049Y01948
X-00334Y01948
X-0049Y0198
X-0049Y02026
X-0049Y02058
X-0049Y02094
X-0049Y02126
X-0049Y02158
X-00508Y02198
X-00508Y0223
X-00508Y02266
X-00508Y02298
X-00508Y0233
X-00508Y0237
X-0037Y02374
X-00508Y02402
X-00508Y02438
X-0035Y02454
X-00508Y0247
X-00374Y02492
X-00508Y02502
X-0035Y02542
X-00508Y02572
X-00488Y02576
X-00488Y02612
X-00488Y02644
X-00488Y02676
X-00488Y02718
X-00354Y02718
X-00354Y0273
X-00488Y0275
X-00354Y02754
X-00358Y02778
X-00488Y02786
X-00358Y02802
X-00488Y02818
X-00358Y02826
X-00488Y0285
X-00494Y02918
X-00494Y0295
X-00494Y02986
X-00494Y03018
X-00494Y0305
X-00358Y03064
X-00468Y03084
X-0041Y03086
X-00358Y031
X-00468Y0312
X-0041Y03122
X-00358Y03136
X-00468Y03152
X-0041Y03154
X-00358Y03168
X-003777Y032239
X-00348Y03292
X-003614Y033049
X-003436Y033201
X-003267Y033318
X-004267Y033357
X-004164Y033489
X-003817Y033489
X-00376Y033624
X-004069Y033745
X-000903Y035967
X-002966Y03558
X-002658Y035414
X-003074Y035393
X-00319Y035191
X-002242Y035153
X-000865Y035097
X-002557Y034984
X-00256Y034834
X-00306Y03478
X-001032Y034286
X-001786Y034141
X-001208Y034116
X-002068Y033904
X-003111Y033525
X-00252Y03348
X-001651Y033387
X-00324Y03274
X-00324Y03242
X-00102Y03238
X-00102Y03206
X-00102Y03174
X-00298Y03168
X-00246Y03168
X-00202Y03168
X-00162Y03166
X-00298Y03136
X-00246Y03136
X-00202Y03136
X-00162Y03134
X-00112Y0313
X-00298Y031
X-00246Y031
X-00202Y031
X-00162Y03098
X-00112Y03094
X-00156Y0289
X-00206Y0289
X-00206Y02842
X-00156Y02842
X-00256Y0284
X-00294Y02832
X-00206Y02794
X-00241Y02783
X-00194Y02756
X-00226Y0275
X-00264Y0275
X-00152Y02744
X-00124Y02718
X-00182Y02708
X-00224Y02708
X-0026Y02692
X-00222Y02676
X-00152Y02676
X-00114Y0264
X-00244Y02638
X-0019Y02634
X-0019Y02602
X-00152Y02602
X-001Y02598
X-00214Y02586
X-00238Y02544
X-00168Y0253
X-00178Y02514
X-0022Y02506
X-00144Y02506
X-00202Y02494
X-00248Y0249
X-00106Y0246
X-00176Y02448
X-00232Y02428
X-00182Y02416
X-00146Y02402
X-00252Y02402
X-00078Y02394
X-00182Y02384
X-0022Y02384
X-00146Y0237
X-00108Y0237
X-00108Y02338
X-00108Y02306
X-002114Y023032
X-002516Y022791
X-00108Y02268
X-00108Y02236
X-00256Y02224
X-00108Y02204
X-002362Y022021
X-00108Y02168
X-0028Y02146
X-00108Y02136
X-00108Y02104
X-00286Y0209
X-00108Y02066
X-002791Y020455
X-00108Y02034
X-002817Y020276
X-00108Y02002
X-002445Y019274
X-001084Y018977
X-002792Y018543
X-001095Y018472
X-002627Y018068
X-001095Y017992
X-001636Y017893
X-00258Y0176
X-0018Y01752
X-001095Y017512
X-001636Y017413
X-0018Y01728
X-00258Y01713
X-001112Y017008
X-001636Y016933
X-002458Y016901
X-00132Y01668
X-001112Y016528
X-001653Y016504
X-00132Y01644
X-002103Y016398
X-0012Y0161
X-001653Y016024
X-002103Y015918
X-00168Y01566
X-001123Y015543
X-002103Y015438
X-0008Y01524
X-001123Y015063
X-001804Y015039
X-002115Y014933
X-00082Y01472
X-001123Y014583
X-001804Y014559
X-002115Y014453
X-00082Y01406
X-00182Y01404
X-002115Y013973
X-00082Y0136
X-001239Y01344
X-00272Y01344
X-00085Y013109
X-001239Y01296
X-00182Y01296
X-001439Y01294
X-000862Y012604
X-002199Y01248
X-001818Y012264
X-001233Y012255
X-001461Y012213
X-000862Y012124
X-002199Y012
X-001818Y011784
X-001233Y011775
X-001479Y01168
X-002111Y011654
X-000862Y011644
X-00272Y01158
X-001818Y011304
X-001233Y011295
X-001479Y0112
X-002144Y011052
X-001819Y01104
X-001239Y01104
X-00284Y01088
X-001244Y01079
X-00182Y01078
X-001244Y01031
X-00182Y01028
X-002169Y010165
X-00196Y00984
X-001244Y00983
X-00288Y0097
X-00282Y0095
X-001256Y009487
X-00282Y00934
X-001719Y00912
X-002819Y008874
X-0011Y008748
X-00282Y00862
X-002819Y008394
X-001239Y00816
X-00156Y00816
X-00288Y00814
X-00172Y008
X-0014Y008
X-00283Y007889
X-00172Y00784
X-0014Y00784
X-00108Y00784
X-000919Y00768
X-00108Y00768
X-001239Y00768
X-00156Y00768
X-0014Y00768
X-00108Y00752
X-00172Y00752
X-0014Y00752
X-00283Y007409
X-00172Y00736
X-00108Y00736
X-0014Y00736
X-000919Y0072
X-00108Y0072
X-001239Y0072
X-00172Y0072
X-0014Y0072
X-00108Y00704
X-00172Y00704
X-00302Y00704
X-0014Y00704
X-00283Y006929
X-00108Y00688
X-00172Y00688
X-0014Y00688
X-000919Y00672
X-00108Y00672
X-00124Y00672
X-00172Y00672
X-0014Y00672
X-00172Y00656
X-00108Y00656
X-0014Y00656
X-0032Y00652
X-002809Y006481
X-00108Y0064
X-00172Y0064
X-0014Y0064
X-00124Y0064
X-00172Y00624
X-000919Y00624
X-00108Y00624
X-0014Y00624
X-00172Y00608
X-00108Y00608
X-00124Y00608
X-0014Y00608
X-002809Y006001
X-00172Y00592
X-001081Y00592
X-000761Y00592
X-001401Y00592
X-00172Y00576
X-00156Y00576
X-001239Y00576
X-00108Y00576
X-000919Y00576
X-0014Y00576
X-00172Y0056
X-001081Y0056
X-001401Y0056
X-000761Y0056
X-002809Y005521
X-00108Y00544
X-001401Y00544
X-001719Y00528
X-001239Y00528
X-001079Y00528
X-000919Y00528
X-0014Y00528
X-00108Y00512
X-001401Y00512
X-002821Y005016
X-00108Y00496
X-001401Y00496
X-000919Y0048
X-0014Y0048
X-001239Y0048
X-001079Y0048
X-00108Y00464
X-001401Y00464
X-002821Y004536
X-001401Y00448
X-001079Y00448
X-0014Y00432
X-000919Y00432
X-001719Y00432
X-00108Y00432
X-001239Y00432
X-001401Y00416
X-00108Y00416
X-002821Y004056
X-001079Y004
X-001401Y004
X-00302Y0039
X-00108Y00384
X-001239Y00384
X-001719Y00384
X-0014Y00384
X-003159Y00336
X-00125Y003007
X-003159Y00288
X-002679Y00288
X-002679Y0024
X-002199Y0024
X-00094Y0022
X-002679Y00192
X-00222Y00192
X-00172Y00166
X-002679Y00144
X-003159Y00144
X-001719Y00144
X-002199Y00144
X-001239Y00144
X-002679Y00096
X-003159Y00096
X-001719Y00096
X-001239Y00096
X-002199Y00096
X-003036Y000637
X-001147Y000637
X-002388Y000632
X-001636Y000632
X-000724Y000637
X-000759Y00096
X-000279Y00096
X000846Y001112
X00144Y001128
X000225Y001128
X000681Y00144
X001641Y00144
X001161Y00144
X000201Y00144
X-000279Y00144
X001591Y00173
X001591Y00206
X001643Y002343
X-00076Y00236
X-00058Y00254
X001161Y00336
X-000759Y00336
X-00076Y00368
X-00012Y00368
X-0006Y00384
X-00012Y00384
X000361Y00384
X000201Y00384
X001161Y00384
X000681Y00384
X-000279Y00384
X-000759Y00384
X-00012Y004
X-000281Y004
X-000441Y004
X-0006Y004
X-00076Y004
X0002Y004
X00036Y004
X-00012Y00416
X-000441Y00416
X-00076Y00416
X000199Y00416
X00052Y00416
X0002Y00432
X-000441Y00432
X-000599Y00432
X-00076Y00432
X-000121Y00432
X001641Y00432
X-000279Y00432
X001161Y00432
X00036Y00432
X000521Y00432
X000681Y00432
X000041Y00432
X-000119Y00448
X-00044Y00448
X-000759Y00448
X0002Y00448
X000841Y00448
X000521Y00448
X-00012Y00464
X-000441Y00464
X000199Y00464
X-00076Y00464
X00084Y00464
X00052Y00464
X-00044Y0048
X-000599Y0048
X-000759Y0048
X00084Y0048
X0002Y0048
X000681Y0048
X-00012Y0048
X000041Y0048
X-000279Y0048
X00052Y0048
X00036Y0048
X001Y0048
X00052Y00496
X-000441Y00496
X-00076Y00496
X000201Y00496
X001161Y00496
X00084Y00496
X-000119Y00496
X-000441Y00512
X-00076Y00512
X00052Y00512
X001161Y00512
X00084Y00512
X-000119Y00512
X000201Y00512
X-00044Y00528
X-000599Y00528
X-000759Y00528
X00132Y00528
X001161Y00528
X00084Y00528
X000681Y00528
X001Y00528
X0002Y00528
X-00012Y00528
X00052Y00528
X-000279Y00528
X00036Y00528
X000041Y00528
X-00044Y00544
X-00076Y00544
X-00012Y00544
X0002Y00544
X001161Y00544
X00084Y00544
X00052Y00544
X-000121Y0056
X-000441Y0056
X000199Y0056
X00116Y0056
X000519Y0056
X000839Y0056
X-00012Y00576
X-00044Y00576
X-000599Y00576
X-00076Y00576
X000523Y00576
X000843Y00576
X000201Y00576
X000683Y00576
X000041Y00576
X-000279Y00576
X000361Y00576
X001Y00576
X-000441Y00592
X000199Y00592
X-000121Y00592
X00052Y00592
X00084Y00592
X00142Y006
X-00044Y00608
X-00012Y00608
X-00076Y00608
X000521Y00608
X0002Y00608
X-00044Y00624
X00036Y00624
X-00076Y00624
X-000599Y00624
X-00012Y00624
X000041Y00624
X000199Y00624
X00052Y00624
X-000279Y00624
X00068Y00624
X000199Y0064
X-00044Y0064
X-00076Y0064
X-00012Y0064
X00098Y00644
X-00076Y00656
X-00044Y00656
X-00012Y00656
X000199Y00656
X-000599Y00672
X-00076Y00672
X-00044Y00672
X000041Y00672
X-00012Y00672
X-000279Y00672
X-00076Y00688
X-00044Y00688
X-00012Y00688
X00052Y0069
X-00076Y00704
X-00044Y00704
X-00028Y0072
X-000599Y0072
X-00076Y0072
X-00044Y0072
X00014Y00728
X-00076Y00736
X-00076Y00752
X-00012Y00754
X001336Y007798
X00026Y00784
X-000361Y007867
X00026Y00798
X000004Y00814
X00026Y0084
X-00059Y008441
X000018Y008466
X00028Y00878
X000018Y008806
X001314Y008943
X-000643Y009102
X00148Y009147
X000203Y009166
X000534Y00935
X001503Y009464
X-000089Y009472
X-000473Y009487
X00054Y00976
X001503Y009964
X-000395Y010158
X00056Y01046
X001503Y01047
X000295Y010522
X-000638Y010532
X0015Y01102
X-000759Y01104
X-000279Y01152
X0015Y011615
X00055Y01198
X000201Y012
X-000061Y012361
X0015Y012376
X000471Y012376
X0013Y01288
X00026Y0129
X-000356Y012903
X00056Y01317
X001503Y01317
X-000517Y013286
X000201Y01344
X000681Y01344
X-000279Y01344
X0013Y01349
X-000517Y013766
X000201Y01392
X000681Y01392
X001435Y014013
X-000517Y014246
X000201Y0144
X000955Y014571
X001429Y014675
X-000505Y014751
X000253Y015144
X-000505Y015231
X0015Y0153
X00158Y01564
X-000505Y015711
X000438Y015797
X0012Y015917
X-00076Y01592
X000015Y016047
X000677Y016178
X-00076Y0165
X000677Y016658
X00022Y01666
X-00016Y01666
X-0006Y0168
X0012Y016877
X-00036Y01692
X000015Y017007
X000677Y017138
X-000517Y017334
X001211Y017382
X000026Y017512
X000689Y017643
X-000517Y017814
X001211Y017862
X000026Y017992
X000689Y018123
X-000517Y018294
X001211Y018342
X000026Y018472
X000689Y018603
X-000505Y018799
X000006Y019013
X001663Y019133
X000705Y019275
X-000505Y019279
X001245Y019409
X000006Y019493
X001663Y019613
X000705Y019755
X-000505Y019759
X000006Y019973
X-00076Y02002
X000705Y020235
X-00076Y02034
X000017Y020478
X-00076Y02066
X001644Y020699
X-00038Y0207
X-00006Y0207
X000717Y02074
X-00006Y02102
X-00038Y02102
X-00076Y02104
X001663Y021053
X001183Y021053
X000717Y02122
X-00076Y02136
X-00006Y02138
X00032Y02138
X00064Y02138
X-00038Y02138
X001183Y021533
X-00076Y02168
X-00006Y0217
X00032Y0217
X00064Y0217
X-00038Y0217
X0012Y022
X00152Y022
X-00038Y02204
X-00076Y02204
X-00006Y02204
X00064Y02206
X00032Y02206
X00152Y02232
X-00006Y02236
X-00038Y02236
X-00076Y02236
X00064Y02238
X00032Y02238
X-00038Y02268
X-00006Y02268
X-00076Y02268
X00064Y0227
X00032Y0227
X-00006Y02306
X-00076Y02306
X-00038Y02306
X00032Y02308
X00106Y02308
X00064Y02308
X00138Y02308
X-00076Y02338
X-00038Y02338
X-00006Y02338
X00032Y0234
X00064Y0234
X00106Y0234
X00138Y0234
X00138Y02396
X00106Y02396
X00068Y02396
X00026Y024
X-00038Y024
X-00006Y024
X-00006Y02426
X00138Y0243
X00106Y0243
X00088Y02472
X0004Y02472
X-00034Y02474
X-00052Y0249
X-00068Y02508
X0Y02516
X0004Y02522
X-00068Y02532
X-00068Y02548
X0Y02548
X0004Y02554
X00156Y02562
X00104Y02562
X-00076Y02574
X00156Y02594
X00104Y02594
X00068Y02598
X00068Y0263
X00156Y0263
X00156Y02662
X-000651Y026701
X00068Y02698
X0011Y02698
X-0004Y02698
X00016Y02698
X00156Y02698
X-0007Y02812
X-0003Y02842
X00034Y02844
X00088Y02844
X00136Y02844
X00022Y02866
X-0003Y02866
X-00064Y02874
X00136Y02884
X-00072Y03094
X-00032Y03094
X00012Y03094
X00144Y031
X00012Y0313
X-00032Y0313
X-00072Y0313
X00144Y03132
X00144Y03168
X-00064Y03174
X00012Y03176
X00074Y03194
X00144Y032
X-00032Y03204
X-00064Y03206
X00074Y03226
X00144Y03232
X-00064Y03238
X00012Y0324
X00074Y03258
X-000064Y033642
X-000249Y033712
X-000131Y033831
X-000313Y034949
X00088Y03518
X00023Y03532
X-00011Y03571
X-00071Y03577
X-00032Y03588
X00054Y0365
X00022Y0365
X-0001Y03662
X00038Y03662
X00022Y03682
X00054Y03682
X-00016Y03682
X-00016Y0372
X00054Y0372
X00022Y0372
X00386Y0367
X00354Y0367
X0031Y03668
X0027Y03666
X00354Y03638
X00386Y03638
X0031Y03636
X0027Y03634
X00386Y03606
X00354Y03606
X0031Y03604
X0027Y03602
X00354Y03568
X00386Y03568
X0031Y03566
X0027Y03564
X00386Y03536
X00312Y03534
X00292Y03534
X00264Y03402
X00174Y03392
X0019Y03232
X00246Y03232
X00392Y03232
X00298Y03232
X0034Y03232
X00246Y03196
X0019Y03196
X00392Y03196
X0034Y03196
X00298Y03196
X00364Y02932
X00416Y02932
X00188Y02884
X0024Y02884
X00292Y02884
X00364Y02884
X00416Y02884
X00188Y02844
X00212Y02698
X00264Y02698
X00306Y02698
X00212Y02662
X00264Y02662
X00306Y02662
X0035Y02662
X00212Y0263
X00264Y0263
X00306Y0263
X0035Y0263
X00212Y02594
X00264Y02594
X00306Y02594
X0035Y02594
X00212Y02562
X00264Y02562
X00306Y02562
X0035Y02562
X0022Y02524
X00344Y02524
X0028Y02428
X00376Y02428
X00328Y02428
X00176Y02396
X00208Y02396
X00248Y02372
X0028Y02372
X00312Y02372
X00344Y02372
X00376Y02372
X00408Y02372
X00216Y02328
X00248Y02328
X00408Y02328
X00344Y02328
X00312Y02328
X00376Y02328
X0028Y02328
X00184Y02296
X00248Y02296
X00408Y02296
X00376Y02296
X00328Y02296
X00344Y02296
X00216Y02296
X0028Y02296
X00328Y0228
X00264Y0228
X00344Y02264
X00216Y02264
X00376Y02264
X00408Y02264
X0028Y02264
X00184Y02264
X00248Y02264
X00328Y02248
X00344Y02232
X00184Y02232
X00216Y02232
X00408Y02232
X00376Y02232
X0028Y02232
X00248Y02232
X00328Y02216
X00376Y022
X00408Y022
X00248Y022
X00216Y022
X0028Y022
X00312Y022
X00344Y022
X00184Y022
X002Y02168
X00384Y02148
X0036Y02148
X00234Y02142
X002907Y021378
X0036Y02124
X00384Y02124
X002424Y021177
X003336Y02107
X002143Y021053
X002907Y020898
X003985Y020869
X002424Y020697
X003336Y02059
X003998Y020387
X0029Y020347
X002424Y020217
X001873Y020156
X003427Y020147
X003998Y01991
X0029Y019867
X002412Y019712
X003444Y019689
X002143Y019613
X004017Y019382
X003325Y019095
X002888Y018882
X003998Y018867
X002412Y018752
X002888Y018402
X001772Y018399
X002415Y018248
X004011Y018247
X003325Y018102
X002888Y017922
X002415Y017768
X00178Y017642
X004024Y017588
X003333Y017482
X002415Y017288
X00178Y017162
X002858Y017083
X004044Y016975
X002403Y016783
X003317Y016727
X00178Y016682
X004037Y016322
X002403Y016303
X001769Y016177
X003749Y016132
X002403Y015823
X003783Y015598
X002428Y015421
X004069Y014808
X00246Y01472
X002071Y014707
X002071Y014431
X004051Y01427
X002767Y014173
X002584Y01411
X002074Y013929
X003319Y013764
X002713Y013689
X003953Y013587
X00208Y013361
X003353Y013253
X003905Y013185
X00276Y013048
X002071Y012674
X00272Y012571
X003176Y012387
X003892Y012285
X00208Y012058
X00272Y011979
X002544Y011347
X002068Y011335
X004041Y01104
X002547Y010734
X002074Y01063
X003081Y01056
X004041Y01056
X002074Y010154
X002541Y010083
X004041Y0096
X003561Y0096
X002074Y00953
X002541Y009491
X002Y009096
X002544Y008932
X001947Y008765
X003081Y00864
X003561Y00864
X002542Y008317
X001864Y008199
X004041Y00816
X002509Y007672
X003066Y007518
X002214Y007501
X003556Y007471
X003992Y007269
X00188Y00722
X002529Y006987
X003699Y006969
X003503Y00694
X00218Y00692
X00356Y00606
X00322Y00592
X00288Y00592
X0022Y00592
X00392Y00592
X00264Y00592
X00346Y00578
X00276Y00568
X00224Y00568
X00418Y00552
X00374Y00552
X00318Y00538
X00264Y00538
X003408Y004903
X00254Y0049
X004113Y00489
X001905Y004856
X004041Y00432
X002121Y00432
X002601Y00432
X002121Y00384
X003561Y00384
X003081Y00384
X002601Y00384
X004041Y00384
X00288Y00336
X0023Y00336
X00306Y0027
X00422Y0027
X00208Y0027
X00326Y00236
X00422Y00236
X00224Y00236
X003861Y00206
X002511Y0019
X00228Y00138
X00328Y00136
X002721Y001123
X001907Y001112
X004935Y00109
X006366Y001101
X00575Y001101
X004275Y001106
X00424Y00136
X006441Y00144
X004521Y00144
X005511Y00196
X004508Y002282
X00472Y0027
X00573Y00272
X00531Y00272
X00548Y00303
X00593Y00309
X00527Y00314
X0056Y00316
X00524Y00382
X004521Y00384
X005001Y00384
X005481Y00384
X005954Y004152
X005481Y00432
X005001Y00432
X004521Y00432
X00651Y004326
X005557Y004876
X006241Y004883
X004825Y004883
X0047Y00552
X00516Y00552
X00532Y00592
X00438Y00592
X00492Y00592
X006376Y006216
X005481Y00624
X005001Y00624
X004274Y006377
X006402Y006719
X00559Y006726
X004825Y006954
X005449Y007578
X005993Y008109
X004521Y00816
X004521Y00864
X006441Y00864
X005001Y00912
X006705Y009384
X004521Y0096
X006691Y009834
X00587Y01007
X004521Y01056
X00648Y01104
X004521Y01104
X00648Y01224
X005323Y012299
X004512Y012299
X004348Y012708
X006416Y012731
X006539Y012745
X006634Y012812
X00584Y01286
X006727Y012894
X006402Y012941
X005481Y01296
X00649Y013025
X004675Y013028
X005132Y013062
X006592Y013091
X006693Y013155
X006729Y013367
X006718Y013486
X004259Y013487
X005152Y013641
X00588Y01366
X004594Y013662
X0064Y0139
X0067Y01396
X00654Y01408
X006725Y014197
X004532Y014358
X005177Y014395
X0058Y01452
X006275Y014657
X006165Y014787
X006535Y014817
X004521Y01488
X006265Y014897
X006645Y014947
X006375Y014997
X00579Y015121
X006495Y015137
X006675Y015137
X006735Y015367
X006615Y015407
X006505Y015477
X006415Y015567
X005283Y015578
X004802Y015581
X006575Y015587
X006355Y015717
X006625Y015727
X005783Y015753
X006665Y015867
X006325Y015897
X006695Y016017
X006345Y016047
X004793Y016073
X004361Y016115
X006405Y016187
X006495Y016277
X006595Y016357
X006715Y016407
X00579Y016441
X005257Y016596
X004578Y016616
X006365Y016637
X006605Y016637
X006725Y016637
X006485Y016637
X006365Y016757
X006365Y016877
X006365Y016997
X005783Y017085
X006365Y017117
X00525Y017216
X006365Y017237
X006365Y017357
X006575Y017367
X006695Y017367
X004572Y017379
X006365Y017477
X006485Y017597
X006725Y017597
X006605Y017597
X006365Y017597
X005802Y017767
X005257Y017999
X006515Y018042
X004592Y018116
X005211Y018463
X00672Y01848
X006497Y018574
X004586Y018734
X006656Y018924
X005211Y018943
X004586Y019214
X006509Y019237
X005211Y019423
X005815Y01955
X004586Y019694
X005222Y019928
X004597Y020199
X006172Y020448
X006453Y020676
X004597Y020679
X006724Y020871
X005222Y020888
X005827Y021057
X004597Y021159
X006266Y021165
X005239Y021467
X00644Y02148
X0043Y02148
X00648Y02184
X006Y022
X00472Y022
X0044Y022
X00504Y022
X00632Y022
X00568Y022
X00664Y022
X00536Y022
X00472Y02232
X00552Y02232
X00632Y02232
X006Y02232
X00664Y02232
X00568Y02232
X0052Y02232
X00536Y02232
X0044Y02232
X00504Y02232
X00472Y02264
X00664Y02264
X00568Y02264
X00632Y02264
X0044Y02264
X00504Y02264
X00584Y02264
X00536Y02264
X00632Y02296
X00664Y02296
X00472Y02296
X00536Y02296
X0044Y02296
X00568Y02296
X006Y02296
X00504Y02296
X00568Y02312
X006Y02328
X00504Y02328
X00472Y02328
X0044Y02328
X00664Y02328
X00536Y02328
X00568Y02328
X00632Y02328
X00568Y02372
X00664Y02372
X00472Y02372
X00504Y02372
X0044Y02372
X00632Y02372
X00536Y02372
X006Y02372
X00472Y02428
X005895Y025239
X00646Y02524
X0053Y02524
X00452Y02524
X00484Y0257
X00462Y0257
X00462Y02602
X00484Y02602
X00462Y02618
X0062Y0265
X00634Y02706
X006Y02708
X006424Y02731
X00578Y02734
X0061Y02742
X005941Y027767
X006412Y027778
X00566Y02792
X005938Y028168
X006382Y028697
X0061Y02882
X00564Y02884
X00512Y02884
X00466Y02884
X006554Y029251
X0061Y0293
X00466Y02932
X00512Y02932
X00564Y02932
X00502Y03014
X00544Y03014
X00502Y03056
X00544Y03056
X00646Y03196
X00564Y03196
X00606Y03196
X00474Y03196
X00516Y03196
X00434Y03196
X00434Y03232
X00668Y0343
X00636Y0343
X00598Y0343
X00636Y03462
X00668Y03462
X00598Y03462
X006Y035
X00636Y035
X00668Y035
X00666Y03536
X00634Y03536
X00596Y03536
X00456Y03536
X00424Y03536
X00526Y03538
X00494Y03538
X00666Y03568
X00424Y03568
X00456Y03568
X00596Y03568
X00634Y03568
X00564Y03568
X00526Y0357
X00494Y0357
X00456Y03606
X00424Y03606
X00666Y03606
X00634Y03606
X00596Y03606
X00564Y03606
X00526Y03608
X00494Y03608
X00424Y03638
X00456Y03638
X00564Y03638
X00596Y03638
X00634Y03638
X00666Y03638
X00494Y0364
X00526Y0364
X00456Y0367
X00424Y0367
X00666Y0367
X00634Y0367
X00596Y0367
X00564Y0367
X00526Y03672
X00494Y03672
X00776Y03672
X00736Y03672
X00704Y03672
X00776Y0364
X00704Y0364
X00736Y0364
X00736Y03608
X00704Y03608
X00704Y0357
X00736Y0357
X008741Y035617
X00736Y03538
X00704Y03538
X00768Y03536
X008742Y035217
X00764Y03502
X00774Y03468
X00778Y03392
X00806Y03384
X008623Y033618
X009201Y033283
X008398Y03328
X0077Y03322
X008838Y032394
X00688Y03234
X0073Y03234
X00768Y03226
X00688Y03196
X00728Y03196
X00768Y0319
X00883Y031885
X00728Y0316
X00883Y031399
X008163Y031286
X008836Y030848
X00712Y03084
X008163Y030806
X007631Y030519
X00712Y03048
X008836Y030373
X008163Y030326
X007631Y030039
X008832Y02986
X00815Y029747
X007631Y029468
X008824Y029389
X00815Y029267
X007631Y028988
X00746Y02884
X00815Y028787
X008836Y028764
X007016Y028727
X007631Y028508
X008144Y028258
X007016Y028247
X008861Y028138
X007619Y028003
X008144Y027778
X007016Y027675
X008853Y027552
X007619Y027523
X008144Y027298
X007016Y027195
X007619Y027043
X008857Y027027
X007016Y026715
X007511Y0267
X00822Y02524
X00752Y02524
X00864Y02524
X00882Y0252
X00696Y02428
X00744Y02396
X00824Y02396
X0076Y02396
X00792Y02396
X0092Y02396
X00856Y02396
X00888Y02396
X00888Y02372
X00696Y02372
X00728Y02372
X00792Y02372
X00824Y02372
X00856Y02372
X0092Y02372
X0076Y02372
X00728Y02328
X0092Y02328
X00856Y02328
X00696Y02328
X00824Y02328
X00792Y02328
X0076Y02328
X00888Y02328
X00824Y02296
X00808Y02296
X00776Y02296
X00888Y02296
X00856Y02296
X0076Y02296
X00792Y02296
X00696Y02296
X00728Y02296
X0092Y02296
X00792Y0228
X00856Y02264
X00824Y02264
X0076Y02264
X00728Y02264
X00696Y02264
X00792Y02264
X0092Y02264
X00888Y02264
X00856Y02232
X0076Y02232
X0092Y02232
X00888Y02232
X00824Y02232
X00728Y02232
X00696Y02232
X00792Y02232
X00824Y02216
X0076Y02216
X00888Y022
X0092Y022
X00856Y022
X00824Y022
X00808Y022
X00744Y022
X0076Y022
X00728Y022
X00792Y022
X00696Y022
X0084Y02148
X00788Y02146
X00696Y02136
X00912Y02124
X0084Y02124
X0072Y02112
X0084Y021
X00913Y020795
X0084Y02076
X007041Y020663
X0084Y02052
X00768Y0204
X0084Y02028
X009155Y020225
X007035Y019806
X008831Y019772
X00832Y019747
X009155Y019722
X00744Y01968
X00744Y01944
X008781Y019429
X008101Y019279
X00744Y0192
X00768Y01896
X009055Y018937
X007097Y018843
X0087Y018588
X0084Y01848
X00792Y01848
X00768Y01848
X00912Y01836
X0084Y01824
X00912Y01812
X00696Y018
X00768Y018
X00792Y018
X0084Y018
X008706Y017989
X007325Y017597
X008045Y017597
X008405Y017597
X008525Y017597
X008765Y017597
X008885Y017597
X009005Y017597
X007925Y017597
X007565Y017597
X007685Y017597
X008285Y017597
X006845Y017597
X007805Y017597
X008645Y017597
X008165Y017597
X009125Y017597
X007445Y017597
X007085Y017597
X007205Y017597
X006965Y017597
X006815Y017367
X006935Y017367
X007055Y017367
X008085Y017357
X008835Y017277
X008705Y017267
X009235Y017267
X006815Y017247
X008085Y017237
X007245Y017217
X007105Y017217
X007705Y017207
X007505Y017207
X008925Y017187
X009145Y017177
X008615Y017177
X006815Y017127
X007405Y017117
X007805Y017117
X008086Y017117
X007605Y017117
X007175Y017117
X008835Y017057
X009125Y017057
X008955Y017057
X008595Y017057
X008715Y017057
X006815Y017007
X007605Y016997
X007405Y016997
X007175Y016997
X007805Y016997
X008085Y016997
X008445Y016997
X008635Y016927
X009165Y016927
X008895Y016897
X006815Y016887
X007805Y016877
X007175Y016877
X007405Y016877
X007605Y016877
X008445Y016877
X008325Y016877
X008205Y016877
X008085Y016877
X008755Y016867
X006845Y016637
X007085Y016637
X007325Y016637
X007445Y016637
X007565Y016637
X007805Y016637
X008525Y016637
X008885Y016637
X009125Y016637
X008045Y016637
X008645Y016637
X009005Y016637
X007685Y016637
X008165Y016637
X008765Y016637
X008285Y016637
X007205Y016637
X007925Y016637
X006965Y016637
X008405Y016637
X006845Y016427
X006995Y016407
X007125Y016357
X006875Y016307
X007625Y016297
X008065Y016297
X007245Y016267
X008065Y016177
X007625Y016177
X006755Y016167
X007315Y016167
X006975Y016167
X008066Y016057
X007626Y016057
X007365Y016037
X007035Y016007
X008065Y015937
X007625Y015937
X007395Y015897
X007085Y015867
X006795Y015857
X006935Y015857
X009045Y015847
X008065Y015817
X007625Y015817
X008585Y015797
X008455Y015787
X007375Y015767
X009175Y015757
X007105Y015737
X009045Y015727
X008675Y015707
X008365Y015697
X007625Y015677
X008065Y015677
X007325Y015637
X009046Y015607
X007145Y015597
X008705Y015577
X008585Y015577
X008345Y015577
X008465Y015577
X007255Y015537
X007635Y015527
X008075Y015527
X009045Y015487
X007165Y015447
X008385Y015447
X008645Y015417
X007635Y015387
X008075Y015387
X008505Y015387
X007025Y015377
X009045Y015367
X006855Y015347
X007055Y015137
X006865Y015137
X007245Y015137
X007685Y015127
X007685Y015007
X007375Y014987
X006795Y014957
X007175Y014937
X006945Y014917
X007685Y014887
X007465Y014887
X007045Y014827
X007175Y014807
X007555Y014787
X007685Y014757
X007175Y014677
X007455Y014677
X006805Y014657
X007896Y014627
X008625Y014627
X008036Y014627
X008485Y014627
X008895Y014607
X006955Y014607
X007686Y014607
X007355Y014577
X008355Y014537
X008725Y014527
X007816Y014517
X008126Y014507
X007686Y014487
X007055Y014477
X007245Y014467
X008935Y014447
X008275Y014397
X008775Y014397
X008126Y014367
X007688Y014367
X009205Y014367
X007145Y014367
X006785Y014357
X006935Y014357
X008975Y014297
X007055Y014257
X009125Y014247
X008125Y014247
X007686Y014247
X008735Y014247
X008315Y014237
X006965Y014167
X008475Y014137
X009005Y014137
X008815Y014137
X008615Y014127
X007686Y014127
X008125Y014127
X006845Y014097
X007406Y013861
X007285Y013847
X007167Y013836
X007055Y01379
X007233Y01373
X006957Y013728
X006853Y013671
X007157Y013637
X006774Y013587
X007097Y013538
X007038Y013429
X006845Y01335
X006991Y01332
X008989Y013234
X009129Y013234
X00821Y013227
X00835Y013227
X008779Y013214
X006927Y013207
X006801Y013202
X007051Y013167
X007673Y013151
X007543Y013141
X00808Y013137
X00845Y013127
X008909Y013124
X009219Y013114
X006865Y013099
X008779Y013094
X007763Y013061
X007103Y013056
X007453Y013051
X0085Y012997
X008Y012997
X006799Y012992
X009219Y012974
X00878Y012974
X007043Y012946
X007793Y012931
X007433Y012931
X007673Y012931
X007553Y012931
X008779Y012854
X009218Y012854
X00846Y012847
X00804Y012837
X007473Y012801
X007733Y012771
X007593Y012741
X00854Y012737
X0082Y012737
X008779Y012734
X009218Y012734
X00834Y012727
X007347Y01201
X00768Y012007
X007217Y011996
X007466Y011973
X007116Y011913
X007675Y01187
X007932Y011824
X008379Y011823
X008248Y011812
X009043Y011809
X008879Y011796
X008749Y011795
X007799Y011789
X008504Y011789
X007122Y011779
X007673Y011734
X008014Y011718
X007222Y011698
X00909Y011668
X008746Y011668
X008531Y011661
X007347Y011659
X00839Y011639
X007677Y011608
X007462Y011603
X008267Y011602
X008013Y011586
X008745Y011538
X009084Y011535
X008537Y011531
X008194Y011493
X007677Y011478
X007491Y011471
X008011Y011452
X008747Y011406
X009085Y011405
X008531Y0114
X007054Y011394
X008229Y011369
X007419Y011366
X007677Y011344
X007172Y011343
X008356Y011337
X007298Y011329
X008014Y011323
X008553Y011272
X007161Y010794
X009088Y010787
X007644Y010787
X008645Y01078
X008121Y01078
X007141Y010344
X008121Y010337
X008591Y010324
X007624Y010324
X009Y010317
X009094Y009841
X007181Y009841
X008114Y009834
X007671Y009834
X008638Y009827
X008101Y009364
X007651Y009364
X008618Y009357
X007181Y009357
X009088Y009337
X008833Y009062
X006921Y00864
X007881Y00864
X007401Y00864
X008692Y008464
X008609Y008106
X008671Y007768
X009213Y007373
X008846Y007169
X006899Y007162
X007859Y007155
X008615Y006803
X007369Y006699
X007927Y0066
X008243Y00642
X007098Y006205
X007791Y005997
X00738Y00544
X008687Y005379
X00694Y00491
X007383Y004366
X007881Y00432
X008841Y00432
X007401Y00384
X007881Y00384
X008866Y003413
X007401Y00336
X008361Y00288
X008841Y00288
X00894Y0021
X00806Y00202
X00872Y00202
X00918Y0017
X007202Y00147
X006921Y00144
X008526Y001396
X009Y00138
X007983Y001319
X009183Y001112
X007802Y001106
X007092Y001101
X008539Y001101
X01034Y00206
X00965Y00209
X01022Y0025
X01052Y00258
X0095Y0026
X01152Y00288
X01128Y00288
X009712Y002916
X01152Y00312
X010276Y003359
X009321Y00384
X011241Y00384
X011721Y00432
X009321Y00432
X010761Y00432
X010281Y00432
X009801Y00432
X011241Y00432
X009321Y0048
X009801Y0048
X011721Y0048
X011241Y0048
X011241Y00528
X009559Y005682
X009805Y005884
X009268Y006036
X0102Y007029
X011323Y007469
X010725Y00752
X009241Y00774
X009491Y008001
X00944Y00836
X009968Y008538
X009752Y009048
X01064Y00912
X010766Y009303
X009598Y00933
X01004Y00938
X010994Y009564
X010453Y009769
X009564Y009834
X010054Y009841
X010994Y010044
X011632Y010158
X010453Y010249
X009564Y010324
X010001Y010324
X010994Y010524
X010453Y010729
X00998Y010767
X009517Y010774
X011664Y010841
X011006Y011029
X009914Y011164
X009973Y01129
X009647Y011383
X009306Y011385
X009964Y011438
X011696Y011493
X011006Y011509
X009297Y011525
X00964Y01153
X010084Y011559
X009908Y011563
X009303Y011659
X009638Y011664
X010132Y011681
X009864Y011681
X010175Y011795
X009824Y011798
X009303Y011802
X009587Y011803
X00945Y011804
X011006Y011989
X011721Y012
X010465Y012194
X011721Y01248
X011361Y0125
X011004Y012512
X010463Y012754
X011721Y01296
X011361Y01298
X011004Y012992
X010463Y013234
X011361Y01346
X011004Y013472
X010463Y013714
X011015Y013977
X009656Y014107
X010095Y014107
X009375Y014127
X010474Y014219
X010095Y014227
X009656Y014227
X009285Y014247
X009405Y014297
X009658Y014347
X010096Y014347
X009415Y014467
X009656Y014467
X010096Y014487
X009786Y014497
X009656Y014587
X009866Y014607
X010006Y014607
X009455Y014617
X011342Y014694
X010474Y014699
X011015Y014937
X010474Y015179
X009484Y015367
X010962Y01545
X011334Y015472
X009484Y015487
X009485Y015607
X010453Y015739
X009485Y015747
X009395Y015867
X009255Y015867
X010962Y01593
X010453Y016219
X011346Y01623
X010962Y01641
X009245Y016637
X009725Y016637
X009605Y016637
X009485Y016637
X009365Y016637
X010453Y016699
X009725Y016757
X009285Y016867
X009725Y016877
X009425Y016897
X010974Y016915
X011346Y016988
X009725Y016997
X009365Y017057
X009485Y017057
X009245Y017057
X009725Y017117
X010023Y017126
X009455Y017187
X010465Y017204
X009725Y017237
X009365Y017277
X009725Y017357
X010974Y017395
X009725Y017477
X009485Y017597
X009245Y017597
X009605Y017597
X009365Y017597
X009725Y017597
X010105Y017622
X010465Y017684
X01134Y017707
X010974Y017875
X009909Y018015
X010465Y018164
X011334Y018205
X009544Y018382
X011334Y018445
X009908Y018492
X010565Y01855
X009544Y018622
X011334Y018685
X010565Y01879
X009544Y018862
X011334Y018925
X010919Y019019
X010565Y01903
X009544Y019102
X011334Y019165
X010919Y019259
X010105Y019267
X010565Y01927
X009544Y019342
X011343Y019461
X010919Y019499
X010105Y019507
X010565Y01951
X011732Y019594
X011343Y019701
X010919Y019739
X010105Y019747
X009561Y019797
X011732Y019834
X010556Y019841
X011343Y019941
X010919Y019979
X010105Y019987
X009561Y020037
X011732Y020074
X010556Y020081
X011343Y020181
X010105Y020227
X009561Y020277
X010945Y020292
X011732Y020314
X010556Y020321
X011343Y020421
X009561Y020517
X010945Y020532
X011732Y020554
X010556Y020561
X010092Y020593
X011343Y020682
X009561Y020757
X010945Y020772
X010556Y020801
X010092Y020833
X011343Y020922
X010945Y021012
X010092Y021073
X010565Y021097
X011343Y021162
X009588Y021248
X010945Y021252
X010092Y021313
X010565Y021337
X011343Y021402
X00998Y02148
X01096Y02148
X0105Y02148
X009588Y021488
X00952Y022
X01048Y022
X00984Y022
X01016Y022
X01144Y022
X01016Y02232
X01048Y02232
X00952Y02232
X00984Y02232
X01144Y02232
X00984Y02264
X00952Y02264
X01016Y02264
X01048Y02264
X01144Y02264
X00952Y02296
X00984Y02296
X01016Y02296
X01144Y02296
X01048Y02296
X01048Y02328
X01016Y02328
X00984Y02328
X00952Y02328
X01172Y02334
X00952Y02372
X01016Y02372
X01112Y02372
X01048Y02372
X00984Y02372
X01144Y02376
X00984Y02396
X01016Y02396
X01048Y02396
X0108Y02396
X00952Y02396
X011535Y024654
X0113Y02492
X01164Y02496
X01164Y02544
X01041Y025605
X01092Y02562
X01164Y02568
X011217Y025687
X010399Y025862
X010857Y025916
X011468Y025998
X011075Y026194
X01054Y026994
X009442Y026994
X009687Y027514
X010462Y027524
X009344Y0277
X010569Y027837
X010011Y027837
X011304Y027867
X009344Y028175
X010011Y028312
X010569Y028312
X011304Y028341
X009339Y028726
X010564Y028863
X010005Y028863
X011299Y028893
X009339Y029212
X010005Y029349
X010564Y029349
X011299Y029379
X009346Y029721
X010013Y029858
X010571Y029858
X011307Y029888
X009423Y030386
X010589Y030395
X011246Y030415
X009942Y030474
X009423Y03086
X010589Y03087
X011246Y030889
X009942Y030948
X009417Y031412
X010583Y031421
X01124Y031441
X009936Y0315
X009417Y031898
X010583Y031907
X01124Y031927
X009936Y031986
X009983Y032336
X011285Y032344
X009425Y032407
X010591Y032416
X0116Y033286
X010796Y033286
X010008Y033286
X010276Y033584
X010512Y033739
X01004Y033747
X010395Y035218
X010159Y035219
X009921Y035219
X010631Y035436
X01016Y035589
X009925Y03562
X009592Y036081
X011362Y036107
X010236Y036117
X011214Y036571
X010345Y036603
X009503Y0368
X011987Y036581
X012666Y035968
X012037Y035908
X012521Y0354
X012281Y0354
X012761Y0354
X011812Y035326
X013813Y035018
X013954Y033839
X012405Y03374
X012642Y033739
X01288Y033739
X012164Y033525
X013192Y033286
X01234Y033276
X014Y033042
X013698Y032387
X013178Y032358
X012571Y032348
X011934Y032328
X01369Y031878
X013171Y031849
X012563Y031839
X011926Y031819
X01369Y031392
X013171Y031363
X012563Y031353
X011926Y031333
X013696Y03084
X013176Y030811
X012569Y030801
X011932Y030782
X013696Y030366
X013176Y030337
X012569Y030327
X011932Y030307
X013159Y029898
X013747Y029898
X011944Y029888
X0126Y029858
X013151Y029389
X013739Y029389
X011936Y029379
X012593Y029349
X013739Y028903
X013151Y028903
X011936Y028893
X012593Y028863
X013745Y028351
X013157Y028351
X011941Y028341
X012598Y028312
X013745Y027877
X013157Y027877
X011941Y027867
X012598Y027837
X014039Y027583
X013402Y027573
X013402Y027259
X013921Y027249
X012382Y02721
X013452Y02674
X01217Y026714
X012639Y026661
X013063Y026634
X013452Y0265
X01217Y026474
X012639Y026421
X013063Y026394
X013452Y02626
X01217Y026234
X012639Y026181
X013063Y026154
X013452Y02602
X01217Y025994
X012639Y025941
X013063Y025914
X013452Y02578
X01188Y02568
X013063Y025674
X01254Y0256
X01222Y0256
X013413Y025538
X01188Y02544
X013413Y025298
X01254Y02528
X01222Y02528
X013097Y025145
X011915Y02506
X013413Y025058
X01254Y02496
X01222Y02496
X0127Y02496
X013413Y024818
X014019Y024782
X01222Y02464
X01254Y02464
X013003Y024639
X013413Y024578
X011888Y024515
X01246Y02442
X014025Y024381
X01182Y02434
X013421Y024282
X012646Y02428
X012242Y024089
X01336Y02392
X0124Y02392
X01304Y02392
X01272Y02392
X014Y02392
X014Y0236
X01336Y0236
X01272Y0236
X01304Y0236
X014Y02328
X01304Y02328
X01336Y02328
X01204Y02302
X01176Y02296
X01304Y02296
X014Y02296
X01336Y02296
X01288Y02276
X01208Y02264
X01176Y02264
X01304Y02264
X01336Y02264
X014Y02264
X01208Y02232
X01176Y02232
X014Y02232
X01336Y02232
X01304Y02232
X0129Y0221
X01208Y022
X01176Y022
X01304Y022
X01336Y022
X014Y022
X01208Y02184
X013413Y0217
X013072Y021655
X012876Y021591
X014019Y021553
X01194Y0215
X013413Y02146
X013072Y021415
X012077Y021394
X01175Y021338
X013413Y02122
X013072Y021175
X012077Y021154
X01175Y021098
X014019Y02105
X01288Y02104
X013413Y02098
X013072Y020935
X012077Y020914
X01175Y020858
X013413Y02074
X013072Y020695
X012077Y020674
X013525Y020538
X013275Y020526
X012896Y020509
X012077Y020434
X01309Y020408
X014025Y020357
X013417Y020338
X01206Y020235
X01309Y020168
X01288Y02012
X013417Y020098
X01206Y019995
X01309Y019928
X013417Y019858
X01206Y019755
X012885Y019746
X014019Y019723
X01309Y019688
X013417Y019618
X01206Y019515
X01309Y019448
X012885Y019432
X013417Y019378
X01206Y019275
X014031Y019217
X013085Y019148
X013438Y019104
X012891Y019028
X013085Y018908
X01323Y01884
X013542Y01872
X013085Y018668
X012891Y018609
X014025Y018606
X013085Y018428
X01328Y018336
X013085Y018188
X012879Y018091
X014014Y018007
X013141Y017946
X012891Y017568
X01402Y01755
X012879Y016875
X01402Y01651
X012891Y016491
X01402Y01591
X011892Y015691
X012002Y015565
X01402Y01542
X0119Y015079
X01402Y014995
X012014Y014727
X011884Y014484
X014025Y014473
X0124Y0143
X011981Y014063
X01204Y01388
X012451Y013856
X01402Y01362
X012681Y01344
X012681Y01296
X01323Y01296
X012186Y012894
X01402Y01272
X012201Y01248
X012681Y01248
X012666Y012034
X012141Y011954
X01402Y01178
X01268Y01152
X012093Y011239
X012666Y010984
X01402Y01088
X01266Y01072
X012109Y01065
X01365Y00922
X0128Y009
X013Y00832
X012987Y007765
X01392Y00736
X012978Y00718
X013913Y006658
X012967Y006584
X013Y00596
X013Y00538
X013383Y004613
X01367Y004565
X01292Y0043
X0128Y0043
X013522Y004178
X01356Y00373
X011937Y003622
X012277Y003532
X0118Y00343
X012681Y00336
X013161Y00336
X0134Y00316
X01176Y00312
X012285Y002912
X01176Y00288
X012681Y00288
X01416Y00288
X013143Y002622
X01227Y00246
X01174Y00246
X01178Y00204
X013641Y00192
X013641Y00144
X014121Y00144
X013422Y001288
X012066Y001178
X01266Y001172
X014217Y000952
X014601Y00144
X014601Y0024
X015081Y0024
X015291Y002686
X014601Y00288
X015081Y00288
X015441Y003127
X01557Y00338
X014984Y003746
X0145Y00404
X01428Y00482
X01488Y00487
X01552Y00512
X015116Y005185
X01584Y0052
X01484Y00524
X01466Y00536
X01466Y00548
X01552Y00564
X01552Y00632
X01584Y0064
X01512Y00652
X01552Y0071
X01584Y00736
X01552Y00748
X01584Y00768
X01456Y00784
X01477Y00825
X015116Y008286
X014561Y008576
X01499Y00858
X014583Y00918
X01518Y00942
X01518Y01026
X015858Y010333
X015875Y010804
X01518Y0109
X015864Y011421
X01518Y01146
X01637Y01163
X016661Y011706
X016521Y012
X01566Y01206
X016667Y012221
X01518Y01232
X01594Y01234
X016521Y01248
X01526Y01256
X01604Y01262
X016678Y012704
X016521Y01296
X01604Y01298
X016696Y013152
X01546Y01322
X01518Y01322
X01604Y01334
X01518Y01354
X01546Y01354
X016405Y013646
X016672Y013722
X01518Y01386
X01546Y01386
X01604Y0139
X016684Y014068
X01518Y01418
X01546Y01418
X01604Y01438
X016521Y0144
X016701Y014586
X016521Y01488
X01604Y01488
X0158Y01514
X016521Y01536
X01556Y01542
X01669Y015633
X01556Y01572
X016399Y015761
X016102Y015848
X01556Y01614
X015963Y016541
X01556Y01672
X0154Y0171
X016067Y017134
X01532Y01732
X015963Y017571
X01532Y01784
X01532Y01818
X01534Y0197
X015531Y019829
X015531Y020069
X015531Y020309
X01574Y0205
X015531Y020549
X01534Y02066
X015531Y020789
X01534Y02098
X0157Y02108
X015973Y021164
X015538Y021271
X015973Y021404
X0156Y02168
X01594Y02168
X0156Y022
X01594Y022
X01594Y02232
X0156Y02232
X0156Y02264
X01594Y02264
X0156Y02296
X01594Y02296
X01594Y02328
X0156Y02328
X01594Y0236
X0156Y0236
X0156Y02392
X01594Y02392
X01594Y02424
X0156Y02424
X01594Y02456
X0156Y02456
X01594Y02488
X01566Y02496
X01599Y025099
X01566Y02518
X015148Y025276
X01599Y025339
X015654Y025387
X01599Y025579
X01566Y02574
X015003Y0258
X01599Y025819
X015601Y025958
X01599Y026059
X015235Y026155
X014863Y026161
X015601Y026198
X015986Y026353
X015381Y026364
X015601Y026438
X015601Y026678
X014646Y027279
X014588Y027563
X015068Y027573
X015029Y027837
X014333Y027867
X015029Y028312
X014333Y028341
X015023Y028863
X014327Y028893
X015023Y029349
X014327Y029379
X015031Y029858
X014335Y029888
X014352Y030346
X015009Y030376
X014352Y030821
X015009Y03085
X014347Y031372
X015003Y031402
X014347Y031858
X015003Y031888
X014355Y032367
X015011Y032397
X01461Y033293
M30
