M48
;Layer_Color=9474304
;FILE_FORMAT=2:5
INCH,TZ
;TYPE=PLATED
T1F00S00C0.00400
%
T01
X307359Y15438
X308559Y17038
Y20237
Y23438
X310399Y24602
X308559Y26638
Y29838
Y33037
X305569Y33393
Y37826
X308159Y36838
X308271Y45737
Y50138
Y54537
Y58938
X307959Y70638
Y71838
X311359Y70438
X314089Y69693
X319422Y69775
X322920Y70775
X322282Y67080
X322836Y75871
X322759Y78737
Y83138
X317959Y80137
X319217Y76626
X316871Y72838
X311459Y74338
X306221Y84121
X310559Y15438
X304159Y15237
X300959
X297759
X294559
X291359
X288159
X284959
X281759
X278559
X275359
X272159
X268959
X268964Y17990
X265771Y20137
X264292Y22978
X262155Y23868
X263025Y26147
X262155Y28668
X257758Y28499
X255541Y27097
X253649Y25317
X252321Y24073
X253482Y21673
X257171Y21837
X260134Y22424
X259382Y19891
X262155Y19069
X262559Y15237
X265759
X259359
X256159
X252959
X249759
X246559
X243359
X240159
X236959
X233759
X230559
X227359
X224159
X220959
X217759
X214559
X211359
X208159
X204959
X201759
X198559
X195359
X192159
X188959
X185759
X181559Y14838
Y18037
Y21238
Y29838
Y31438
Y32838
Y34238
Y37637
Y40837
X181153Y42162
X185911Y42182
X187159Y42237
X190629Y41963
X195269Y42143
X195371Y48438
X190571Y53237
Y58038
X185771
Y62837
X190571
Y67637
X195371
Y72438
Y77237
X190571
Y82038
X185771
X180971
Y77237
X178559Y77438
X176171Y77237
X185771
Y72438
X190571
X185771Y67637
X180971Y62837
Y58038
Y53237
X176171
X176271Y49837
X172871Y49738
X170559Y49437
X170159Y45437
X168815Y44616
X168891Y42342
X171583Y42189
X175399Y42143
X172959Y47038
X171759Y54838
X171371Y58038
X176171
X174359Y55838
X172671Y65438
X177671
X172871Y70938
X180971Y72438
X204971
X205559Y70638
X204359
X204959Y68037
X206759Y68837
X207959
X209159
X210359
X211559
X209957Y67090
Y62291
X203971Y61537
Y57138
X203959Y55238
X203971Y52737
X204059Y50937
X205127Y48535
Y43736
X206752Y42241
X207512Y39360
X210152Y38851
X210049Y35241
X207271Y35438
X206159Y32237
X207271Y31038
X207359Y27837
Y25837
X209894Y27817
X213400Y28591
X213349Y32199
X213400Y35603
X213709Y39057
X215671Y40938
Y44137
Y47438
X215159Y51837
X211566Y49468
X211871Y57437
X208071
X200171Y53237
X195371Y58038
Y62837
X203971Y65938
X209771Y72438
X214571
X215971Y77237
X214571Y79637
Y82038
X216759Y80838
X221159Y82038
X219371Y84438
X216971Y86838
X211071Y84637
X208971Y80937
Y77438
X212171Y79648
X204971Y82038
X200171
X195371
Y86838
X190571
X200171
Y77237
X220759
X224759Y76038
X227559Y76837
X226171Y80537
X225559Y82437
X228371Y86838
X230359Y85037
X236171Y86238
X237571Y84438
X241159Y86738
X244890Y87306
X248171Y86838
X250571
X252971
X255371
X257771
X260171
X261259Y85137
X259271Y80738
X263921Y77338
X263064Y72247
X261214Y72246
X260159Y70638
X258408Y72119
X256759Y69837
X257286Y66672
X256681Y62828
X257758Y60909
X259153Y63516
X262471Y64938
X266054Y59727
X269884
X272353Y61971
X277471Y62638
X277505Y66220
X277359Y68638
X275359
Y71038
X277359
Y73438
Y75837
X279630Y75107
X284171Y74138
Y71737
X287171
Y74138
X290171
Y71737
X293171
Y74138
X292936Y79408
X294310
X295588Y83802
Y85066
X297064Y83802
X298928
Y85066
X300536Y83802
X302571Y85786
X299171Y74138
Y71737
X298071Y62837
X295071
X292071
X289059Y62738
X287771Y58337
X290759
X293759
X296771
X297371Y53637
X293959
X292659Y50238
X292671Y47837
Y45437
Y43038
Y40637
Y38238
Y35838
Y33437
X289925Y32620
X288460Y32669
X286995Y32693
X285435Y32669
X283586Y32596
X280071Y33338
Y29537
Y25238
X281686Y24602
X283119Y23336
X284450Y24723
X285388Y25949
X286566Y27079
X288028Y27334
X289427Y27968
X290821Y27872
X292121Y27521
X290371Y24538
Y22437
X290246Y18544
X286678Y19631
X284029Y20009
X280426Y19850
X280347Y22899
X277104Y23075
X277100Y20208
X277104Y18274
X274071Y19534
X271371Y22038
X271815Y24602
X267261Y26068
X266640Y23697
Y28497
X258313Y25275
X255660Y18822
X252017Y18743
X247979Y18702
X249444Y21117
X246039Y20683
X243071Y19437
X234871Y19637
X236059Y20838
X227471Y20038
X227424Y24363
X227269Y28179
X230930Y28282
X233560Y28179
X232571Y35238
X234971
Y37637
Y40038
X232571
X230171
Y37637
Y35238
X233771Y36437
X232571Y37637
X237371
Y35238
X239771
X242171
X244571
Y37637
X243371Y36437
X242171Y37637
Y40038
X239771
X237371
X238571Y36437
X239771Y37637
X244571Y40038
X242171Y44837
X243371Y46038
X242171Y47238
X239771
X238571Y46038
X237371Y47238
Y44837
X234971
X233771Y46038
X232571Y47238
X230171
X228971Y46038
X227771
X225671Y46237
X224471
Y48138
X225671
Y44238
X224471
X230171Y44837
X232571
X234971Y47238
X232571Y50837
X230171
X231359Y52237
X228159Y52838
X224559Y52237
X222159Y50037
X220618Y41789
X220876Y38438
X220825Y35138
X217112Y35241
Y31839
X216906Y28229
X220051Y28179
X223248Y28229
X223403Y24363
X220206Y24415
X217009
X213503Y24054
X209946Y23589
X213452Y19620
X217171Y19537
X220271
X223471
X224571Y32438
X225671
X225104Y35087
Y38232
X217215Y38592
X202771Y35638
X202171Y41848
X186271Y35537
X189871Y31438
X185771Y48438
X180971
X185771Y53237
X167359Y51237
X216071Y61638
Y64038
X218171Y66537
X219671
X221959Y69638
X223159
X224359
X225559
X227580Y70636
X230359Y69437
X231559
X232759
X236359
X240462Y70002
X245676Y69981
X250489
X248171Y72438
X251971Y75638
X252971Y66537
X253504Y62045
Y57244
X252328Y54694
X249359Y52237
X246559Y52838
X245871Y55437
X241871
X239871
X237971
X235971
X233971
X232071
X230071
X229021Y59461
X226660Y59531
X224517Y59553
X231607Y60663
X234022Y60598
X236097Y60497
X238603Y60636
X237497Y62463
X237071Y64237
X240271
X239819Y62547
X241924Y62602
X241464Y60520
X243548Y60421
X245688Y60567
X247780
X246671Y64237
X249871
X243471
X233871
X235145Y62393
X230671Y64237
X228071Y64337
X233771Y72438
X243476Y82337
X245771Y84438
X248171
X272071Y83837
X276677Y83645
X279671Y84737
X280859Y85938
X276677Y78693
X272359Y70638
Y68837
X271187Y69770
X265044Y72246
X269884Y54927
X275872Y54751
X279771Y53338
X280071Y47638
X282961Y48829
X284546Y48518
X285459Y47462
X286419Y46404
X287380Y45443
X288340Y44603
X289445Y44028
X289589Y38888
X288412
X286947
X285627Y39393
X284570Y40497
X281671Y41438
X281544Y43402
X280071Y43338
X279671Y40437
X280071Y37637
X286107Y37543
X287956
X289325
X296659Y38238
Y40637
Y43038
X296671Y45437
Y47837
Y50238
X300171Y43938
X296659Y35838
Y33437
X304071Y29537
X304975Y22940
X302371Y20738
X299811Y22256
X285969Y22148
X286678Y24430
X262171Y37538
Y48937
X248771Y46237
X244559Y51038
X240759Y52838
X237759Y51237
X239771Y44837
X244026Y30705
X244696Y27920
X246910Y28800
X250025Y30514
X248871Y32438
X253759Y34038
X254628Y30882
X255612Y58944
X281671Y66137
X304071
Y62837
X301071
X301571Y88437
X298871Y88538
X297081Y89903
X295555Y90684
X292759Y87638
X289559
X285971Y87837
X283073Y88174
X280436Y87915
X276359Y87337
Y89737
Y92137
Y94638
X278459Y93338
X283559Y92937
X288159Y94238
X288571Y103537
X291871
X292959Y107638
X294959Y109238
X298071Y106638
X298271Y104237
X303359Y101038
X298833Y94889
X302543Y90609
X304746Y88763
X302571Y111137
X298959Y120037
X297359Y121438
X293359Y120438
X291359Y120837
X289759Y120438
X290959Y116838
X293359Y118037
X295959Y117237
X292759Y114437
X288759Y115237
X289559Y109637
X285959Y107238
X284759Y106037
X271871
X270959Y104037
X271571Y99638
X267759Y96438
X265559Y94638
X262359Y94037
X264159Y98238
X263359Y103237
X262559Y104638
X265759
X261959Y107438
X260359Y106837
X258759
Y104437
X258559Y102838
X256159Y101237
X256959Y99638
X253959Y96838
X255159Y94037
X248959Y91438
X248159Y89737
X246359Y88837
X244159Y91237
X243371Y93338
X242663Y97767
X238159Y98687
X237859Y101338
X237159Y102838
X237759Y104638
X239759Y104838
X242159Y104638
X241359Y107934
X240159Y109137
X241359Y112238
X241359Y115038
X241359Y117838
X244559Y117037
X244759Y114161
Y111261
X245959Y108916
X245478Y106950
X247159Y107438
X248659Y110290
Y113140
X254371Y116138
X256171Y120337
X251371Y122738
X248959Y123337
X246259Y124738
X245671Y121137
X239359Y123038
X239459Y124838
X229627Y124803
X222235Y124892
X218150Y124904
X216843Y129589
X212127
X207549Y129532
X202678
X197826Y129491
X192993Y129413
X188240Y129434
X183486
X179959Y128038
X182971Y123937
X183571Y118638
X186559Y118037
X189482Y118849
X188171Y115638
X183359Y114838
X180559Y114637
X181759Y113238
X180971Y110837
X184671Y110137
X187159Y109037
X190359
X190159Y106838
Y103638
X191596Y102013
X190371Y96637
X194671Y96938
X198159Y96637
X200159Y97838
X200559Y99638
X200971Y101937
X202471
X197819Y103730
X192871Y108738
X185359Y106838
Y103638
X179671Y102838
Y106037
X177959Y108837
X176359Y107238
X176171Y110837
X176959Y113238
X178959Y118237
X180559Y118037
X169071Y118537
X169119Y116507
X168925Y112727
X170559Y108637
X171159Y103237
X176171Y103638
X176359Y96637
X175559Y94037
X176271Y89737
X185771Y91637
X181664Y99385
X167559Y96838
X169071Y122938
Y127338
X171971Y129537
X191199Y124660
X193108Y124637
X195572Y124660
X196682Y123038
X201344Y124925
X206051
X212089Y124948
X212359Y116237
X214571Y115638
X209771
X204671Y115838
X198871Y117438
X209271Y110738
X213159Y110438
X215559
X218359Y109438
X221259Y109537
X220059Y111137
X224071Y113038
X224971Y110038
X224959Y103638
X221659Y104638
X220059Y102937
X216959Y104537
X215159Y102838
X213359Y104737
X211059Y102937
X208259Y104638
X208359Y99037
X210359
X212759
X213771Y97338
X211759Y96237
X209159Y95638
X206159
X205759Y97237
X205971Y87837
X211071Y87686
X212359Y89837
X218959Y95038
X221159
Y92838
X223359Y95038
X224959Y90637
X227671Y89938
X228859Y88587
X233071Y88337
X234459Y89388
X235759Y90637
X232509Y90688
X235059Y96788
X233909Y98787
X234359Y101237
X232959Y103638
X229159Y106237
X228271Y99537
X228671Y97137
X232759Y112838
X235759Y111238
X237359Y113238
X237159Y115038
X235359Y119037
X233759Y117638
X221559Y129437
X257537Y129551
X262721Y129159
X267593Y129179
X272347Y129218
X277023Y129179
X276271Y126437
X281757Y129237
X286531Y129179
X291344Y129199
X296039
X300911Y129159
X283959Y121238
X282959Y120238
X280832Y121404
X263959Y118037
X255959Y106638
X251159Y104237
X249373Y104485
X245959Y100437
X271759Y91438
X274159Y91838
X306083Y88763
X319551Y87699
X319607Y90447
X319496Y93279
X322759Y91938
X322891Y99788
X323007Y105447
X322862Y110414
X322920Y115524
X322862Y120777
X322891Y125628
X317739Y129796
X305771Y125238
X305559Y111837
X307159Y111038
X311971Y111837
M30
