M48
;Layer_Color=9474304
;FILE_FORMAT=2:5
INCH,TZ
;TYPE=PLATED
T2F00S00C0.00800
T3F00S00C0.01200
T4F00S00C0.03500
T5F00S00C0.03700
T6F00S00C0.05600
T7F00S00C0.13386
%
T02
X161252Y23976
X163503
X154868Y33976
Y43976
X57230
X128145Y109883
X129782
X146454Y109979
X148754Y106738
X134581Y124059
X108794Y182120
Y183739
X174102Y169039
X183102Y155718
X186501
X190198Y161168
X200859Y161333
X203140Y145408
X230963Y168081
X243764Y166834
X263549Y139052
X162882Y100739
Y91140
X172654Y90867
T03
X107033Y133608
X190198Y169098
X195528Y168998
X239933Y161034
X250964Y161134
T04
X78584Y139916
X88584
X114295Y116851
Y106851
X158505Y112055
Y122055
X167304Y145831
X177304
X241531Y139439
X251531
Y153197
X241531
X271033Y186921
X281033
X291033
X301033
X311033
T05
X140858Y176921
Y186921
X150858
X160858
X170858
X180858
X190858
X200858
Y176921
X190858
X180858
X170858
X160858
X150858
X215995
X225995
X235995
X245995
X255995
Y186921
X245995
X235995
X225995
X215995
T06
X38582Y157451
X58582
X78582
T07
X342518Y11811
X11811
X11811Y185040
X342518
M30
