M48
;Layer_Color=9474304
;FILE_FORMAT=2:5
INCH,TZ
;TYPE=PLATED
T1F00S00C0.00400
%
T01
X306159Y31637
X308559
Y34038
X306159
X308959Y37137
X308171Y46038
Y50837
X303371
Y46038
X298571
X293771
X288971
X284171
X279371
X279620Y36966
X279371Y31637
X274571
X271559Y23038
X278159
X276214Y16793
X276351Y13844
X282789Y13953
X280959Y16637
X270787Y16025
X268978Y13898
X261880Y13844
X262981Y17537
X260171Y17237
X255371
X254617Y13844
X248454
X240311Y13734
X233708Y13898
X233359Y16438
X236171Y17237
X236038Y25653
X233159Y26438
Y29838
X238159
X244059Y30038
X248259
X245759Y33138
X246959Y34438
X243659Y34238
X243359Y41037
X240971Y41238
Y46038
X245771
Y41238
X250502Y44361
X256057Y46095
X253372Y51666
X246525Y51600
X239208Y51666
X232092Y51733
X231371Y46038
X236171
Y41238
X231371
X226571
X221771
X216971
X212171
Y46038
X207371
X202571
X199371Y47638
X199359Y49237
Y50837
X197771
X196159
Y49237
X196171Y47638
Y46038
X197771
X196159Y44438
X194559Y42838
X192959
X192946Y44438
X192959Y46038
X191371
X189746
X188171
X186546
X184971
X183359
X181771
X180159
X178571
X176959
X176946Y44438
Y42838
X176959Y41238
X178571
X180159
X180171Y42838
X180159Y44438
X183359
Y42838
X184959
X186546
X188146
X189759
Y41238
X188171
X189759Y39638
Y44438
X189771Y47638
X189759Y49237
Y50837
X188171
X186559
X184971
X183371
X181771
X180171
X178571
X176959
X176946Y49237
Y47638
X180171
X180159Y49237
X183359
X183371Y47638
X186559
X186546Y49237
Y52438
Y54037
X186559Y55638
X184971
X183371
X181771
X180171
X178571
X176959
X176946Y54037
Y52438
X180159
Y54037
X183359
Y52438
Y57237
X183346Y58837
X183359Y60438
X181771
X180159
X178571
X176959
X175359
X173759
Y58837
X176946
Y57237
X180159
X180146Y58837
Y62037
X180159Y63638
Y65237
Y66838
Y68437
Y70038
Y71637
Y73238
Y74837
X178571
X176959
Y73238
Y71637
Y70038
Y68437
Y66838
Y65237
Y63638
X178559
Y66838
Y70038
X181771
X183359
Y68437
Y66838
Y65237
X181771
X183359Y63638
X183346Y62037
X186546
X186559Y60438
X184971
X186546Y58837
X186559Y57237
X189759
Y55638
X188171
X189771Y54037
Y52438
X192971
Y54037
X192959Y55638
X191371
X194559
X196159
Y54037
Y52438
X199359
Y54037
Y55638
X197771
X199359Y57237
X199346Y58837
X199384Y60438
X200959
X197784
X196184
X194571
X192971
X191371
X189759
X188171
X189746Y58837
X192946
X192959Y57237
X196159
X196146Y58837
X196159Y62037
X196171Y63638
X196159Y65237
X194559
X192946
X191371
X189759
X188171
X186559
X184971
X186559Y63638
X189759
X189746Y62037
X192946
X192959Y63638
X192946Y66838
Y68437
X191371Y70038
X189759
X188171
X186559
X184971
X186559Y68437
Y66838
X189759
Y68437
Y71637
X186559
Y73238
Y74837
X184971
X183359
X181771
X183359Y73238
Y71637
Y76437
Y78038
X181771Y79637
X180159
X178571
X176959
X175359
X173759Y78038
Y76437
Y74837
Y73238
Y71637
Y70038
Y68437
Y66838
Y65237
Y63638
Y62037
X176946
X173771Y55638
Y46038
Y41238
X183371
X184959
X183359Y39638
X183371Y36437
X185159Y28238
X183359Y26438
X181559Y24837
X188171Y17237
X192971
X193205Y14119
X199419Y13953
X197771Y17237
X202571
X207371
X205358Y14119
X210032Y13953
X213759Y16637
X218171Y14063
X223759Y16438
X223559Y26438
X221559Y29838
X219759Y36437
X213959
X211759Y29838
X213359Y26438
X207391Y26265
X202571Y36437
Y41238
X197771
X194571
X192971
X194559Y46038
X192959Y47638
X192946Y49237
X192959Y50837
X191371
X194559
X200959
X202571Y52438
Y54037
Y55638
X204159
X202571Y57237
X202559Y58837
X200959Y55638
X199359Y62037
X197759Y65237
X200759Y67238
X205159Y62837
X212959Y62037
X213359Y59637
X218559
X217359Y62037
X219759
X223159
X225559Y60637
X226559Y63437
X230159Y62037
X234759
X240159
X244159
X245771Y65237
X240971
X233703Y66602
X232759Y58038
X228359
X222759Y56638
X217359
X216359Y51837
X216971Y46038
X210006Y51398
X225043Y51863
X237959Y58038
X242559
X246860Y70094
X254983Y70026
X254718Y65000
X261934Y64890
X264650Y69826
X270226Y68839
X273385Y67033
X277108Y70869
X279418Y74524
X283088Y76566
X283371Y80238
X285869Y82845
X285359Y86437
X277052Y83899
X277672Y80515
X269550Y74391
X259951Y74458
X250888Y83922
X245451Y78619
X239208Y72377
X227953Y72528
X225988Y72238
X226520Y77545
X221619Y78016
X216048Y79559
X213098Y77851
X212759Y72038
X216249Y72711
X209759Y75037
X209595Y83162
X204323Y80818
X193559Y81238
Y82638
X190994Y84234
X193559Y86838
X185062Y87248
X187348Y81511
X189759Y78237
X188159Y74837
X192359Y75638
X196159Y71838
X180159Y76437
Y78038
Y81238
X176959
Y82837
X173759
Y81238
X175359Y84438
X178571
X176959Y78038
Y76437
X186546Y44438
X216383Y86004
X231371Y84438
X236171
X230883Y75532
X268873Y62802
X264759Y57237
X260354Y51933
X264784Y46497
X264971Y41238
Y36437
X269771Y41238
Y46038
X277830Y56628
X286546Y59659
X289011Y61674
X283641Y63197
X284171Y50837
X288971
X284171Y41238
X288078Y31997
X285959Y28837
X293717Y36428
X303371Y41238
X303759Y31637
X303371Y55638
X304185Y77526
X298205Y78034
X292959Y73125
X250259Y33737
X102295Y60590
X102890Y61845
X102800Y63326
X102235Y64581
X101800Y65760
X101395Y66926
X99025Y66975
X97660Y66991
X96185Y66966
Y65540
X96130Y64196
X96215Y62796
X94010Y62995
X93995Y64296
X94055Y65631
X93585Y67040
X91945Y66910
X90645Y66896
X90615Y65626
X90605Y64325
X90630Y63011
X88470Y62950
X88525Y64261
X88470Y65556
X88200Y66835
X86950Y67176
X85640Y67071
X85830Y64965
X87055Y65336
X86715Y62315
X85450Y62641
X85095Y63876
X83270Y63465
X83300Y62181
X83285Y64806
X83300Y66131
X82475Y67190
X81150Y66835
X79885Y66290
X79925Y65026
Y63731
Y62391
X77350Y62611
X76140Y62240
X74875Y62375
X73700Y62890
X74375Y66736
X74315Y68076
X75330Y68910
X76630Y69046
X77820Y68676
X79955Y69016
X79910Y67646
X77775Y64981
X78070Y63656
X76630Y65540
X75375Y65926
X77885Y76960
X77485Y78260
X78685
X79885
X81085
X80785Y79561
X79885Y80461
X78585Y80361
X77685Y79461
X74194Y79507
X73673Y80616
X72429Y81020
X71168Y80970
X70092Y80498
X69083Y79861
X68058Y79204
X67184Y78364
X67318Y76262
X68545Y76398
X69504Y77069
X70428Y77894
X71151Y78869
X71807Y79944
X71605Y82449
X70445Y82617
X70344Y83811
X70899Y84820
X71689Y85659
X72731Y86231
X73706Y86853
X74833Y87308
X75488Y86248
X74732Y85324
X74126Y84332
X73538Y83240
X73067Y82147
X73589Y78414
X79085Y76360
X80485Y76661
X83558Y77320
X83158Y78921
X83958Y80321
X85258Y81221
X86658
X87658Y80221
X88158Y78921
X87758Y77421
X88558Y76320
X86558Y76221
X85158Y76320
X90951Y76288
Y77488
X90963Y78689
X90951Y79888
Y81089
X92251Y80189
X93051Y81288
X94451
X95351Y80089
Y78689
X95338Y77488
Y76288
X99540Y65586
X99555Y64250
X99630Y62780
X103995Y64535
X104475Y65760
X104910Y66896
X88690Y61671
X89310Y90219
X87910Y90320
X86310Y91320
X85910Y92919
X84423Y92620
X84410Y91420
Y90219
X84423Y94020
X83523Y95219
X82123
X81323Y94120
X80023Y93819
Y95020
X80010Y96520
Y97820
Y99019
Y100220
X79510Y102820
Y104219
X79410Y105719
Y107120
Y108319
X79423Y109520
X79410Y110720
Y111919
X80010Y115320
X81210
X82410
X83610
X84810
X86010
X87210
X88410
X89610
X90810
X92010
X93210
X94410
X95610
X96810
X98010
X99210
X100410
Y116519
Y117719
Y118920
Y120120
Y121319
Y122520
Y123720
Y124919
X99210
X98010
X96810
X95610
X94410
X93210
X92010
X90810
X89610
X88410
X87210
X86010
X84810
X83610
X82410
X81210
X80010
X78810
X77610
X76410
X75210
X74010
X72810
X71610
X70410
X69210
X68010
X66810
Y123720
Y122520
Y121319
Y120120
Y118920
Y117719
Y116519
Y115320
X68010
X69210
X70410
X71610
X72810
X74010
X75210
X76410
X77610
X78810
X79210Y117719
Y118920
Y120120
X80210Y121019
X81210Y120120
Y118920
Y117719
X84010
Y118920
X84023Y120120
X84010Y121319
Y122520
X85210Y117719
X86410
X87610
Y118920
X89110Y119519
X90310
X91510
X92710
X92410Y120819
X91510Y121720
X90210Y121619
X89310Y120720
X89510Y118219
X90710Y117620
X92110Y117920
X94810Y118219
X94410Y119519
X95610
X96810
X98010
X97710Y120819
X96810Y121720
X95510Y121619
X94610Y120720
X96010Y117620
X97410Y117920
X97110Y107620
X95710
X94910Y106519
X93610Y106219
Y107420
X93623Y105019
X93610Y103820
Y102620
X97997
Y103820
X98010Y105019
Y106420
X89910Y106019
X90210Y104719
X89010
X87810
X86610
X86810Y105920
X87710Y106819
X89010Y106920
X89610Y103120
X88210Y102820
X87010Y103419
X83910Y102820
Y104219
X83810Y105719
Y107120
Y108319
X83823Y109520
X83810Y110720
Y111919
X75610Y111619
X76310Y110619
X76810Y109319
X77110Y107920
X76910Y106620
X76410Y105319
X75710Y104320
X74610Y104920
X74810Y103419
X73410Y102719
X71710Y102419
X70510Y102620
X69310Y103019
X68210Y103719
X67310Y104620
X68910Y104820
X69410Y106219
X69810Y107620
X71110Y107519
X72510
X74010Y107620
X74210Y106319
X73510Y109019
X72910Y110619
X70710
X70110Y109119
X66610Y109420
X66410Y107920
X66710Y106120
X67210Y110819
X68110Y111720
X69110Y112520
X70310Y113020
X71610Y113219
X71910Y112020
X73110Y113020
X74410Y112520
X74910Y117719
Y118920
Y120120
X75610Y121119
X74210
X73710Y122619
X72510
X71310
X70110
X68910
X71310Y121420
Y120220
Y119019
Y117819
X77210Y117719
Y118920
Y120120
X78210Y121019
X75610Y100320
X73710
X71810
X69910
X68110
X66910Y98919
X65810Y97919
X64810Y96820
X65910Y95520
X68510Y97119
X69610Y98419
X71110Y98519
X72610Y98119
X73610Y97220
X74910Y97019
Y95719
Y98320
X76910Y98820
X77810Y97820
X78710Y96820
X77710Y95719
X76710Y94719
X75610Y93620
X74610Y92620
X73710Y91519
X72810Y90619
X71610Y89920
X70410Y90920
X71010Y92519
X72510
X73710Y93720
X72710Y95020
X71210Y95520
X70160Y88551
X68560Y89750
X67160Y87950
X76009Y87424
X77220Y87559
X80023Y90219
Y91420
X80035Y92620
X86710Y94319
X88010Y95219
X89410
X90410Y94219
X90910Y92919
X90510Y91420
X91310Y90320
X93210
X92910Y91919
X92510Y93419
X92110Y95020
X95210Y92620
X96010Y91420
X94410
X97210Y91919
X97310Y93620
X97710Y95120
X99723Y94819
Y93620
X99735Y92419
X99723Y91220
Y90020
X96910Y90219
X104110Y90020
Y91220
X104123Y92419
Y93819
X103223Y95020
X101823
X101023Y93919
X173771Y94037
X178401Y97703
X178517Y101136
Y105936
Y110735
X178571Y113238
X178631Y115786
X176171Y114838
X172780Y115878
X172771Y113238
X172759Y110637
Y105638
X169267Y104483
X171359Y101237
X169518Y113355
X169853Y119379
X172780Y120678
X176171Y119638
X178631Y120586
Y125385
X176347Y124963
X172780Y125478
X168971Y127638
Y122837
X182341Y124079
Y128878
Y119279
X188171Y118037
X183371Y113238
X184576Y108158
X187007Y104413
X186229Y97703
X190070Y97557
X192987Y94494
X193759Y90637
X191140Y87493
X184527Y93862
X179957Y90312
X196294Y96342
X196359Y100437
X196559Y107438
X193911Y108060
X205992Y107533
Y102476
Y97478
X205759Y94309
X204096Y92263
X210432Y90488
X210961Y93797
X211703Y98133
X216373Y97746
X216402Y92155
X221771Y89237
X226571
X236171
X240971Y94037
X236171Y98838
X231371
X226571
X221771Y108438
X216432Y110179
X211703Y109139
Y104379
X216373Y103665
X216402Y116306
X211643Y116188
X211762Y123416
X211673Y129572
X218155Y128551
Y122623
X222720Y126711
X229875Y125689
X236076Y125826
X234440Y129913
X244185Y125826
X255759Y125238
Y113238
X262569Y110775
X262367Y106277
X267201Y106076
X267402Y110707
X272168Y110641
Y106210
X276868Y106076
X280962Y106009
X281835Y110707
X286131Y110573
X290763Y110506
X290965Y106076
X286601
Y101174
X281902Y101242
X277337Y101108
X277136Y96408
X281835Y96207
X286937Y96140
X288481Y93321
X291359Y96637
X291502Y101242
X295492Y100530
Y105330
Y110129
X300902Y108077
Y103277
Y98476
X298618Y95872
X297359Y94037
X290635Y88214
X277874Y87480
X279284Y93455
X271967Y96475
X267469
X262770Y96408
Y101242
X257870Y101174
X258004Y96678
X260171Y89237
X264971
X269771
X267671Y101174
X272101
X277405Y110641
X301016Y113127
Y117927
Y122727
X300996Y127954
X304571Y127838
X295585Y130379
X295606Y124779
X249659Y103537
X236171Y108438
X231371
Y113238
X236171
X205962Y113034
Y118983
Y126599
X195671
X196459Y122637
X192971Y122837
X190347Y126450
X255371Y89237
X307280Y104412
X307598Y111250
X312051Y109342
X311892Y115226
X307916Y117770
X308171Y122837
X312369Y122381
X312971Y127638
X308171
X317771
X317617Y123177
X317759Y118037
X317617Y112681
X317559Y110038
M30
