M48
;Layer_Color=9474304
;FILE_FORMAT=2:5
INCH,TZ
;TYPE=PLATED
T3F00S00C0.01200
%
T03
X308959Y15438
X308559Y18638
Y21837
Y25038
Y28238
Y31438
X308159Y35238
X307459Y39937
X308259Y44137
X308271Y48537
X305359Y49637
X308271Y52938
X307959Y61238
X305659Y67738
X306359Y71438
X307059Y75437
X311359Y72038
Y68837
X315559Y70438
X320682Y67080
X322836Y74272
X320359Y78438
X322759Y81537
Y85938
X317959Y84038
Y81638
X314759Y82437
X304159Y77938
X304959Y75238
X301559
X300459Y77938
X298059Y79238
X297959Y75937
X297671Y72338
X294671
Y74738
X291671
Y72338
X288671
Y74738
X288971Y77237
X286659Y79338
X284171Y77237
X285671Y74738
Y72338
X287571Y63437
X290571
X293571
X296571
X299571
X302571
X298271Y58938
X295271
X292259
X289259
X286271
X286571Y55638
X283159Y56138
X283659Y53338
X281871Y50538
X286571Y50837
X289759Y50037
X289159Y53338
X291371Y55638
X295159Y49038
X291071Y44837
X290059Y41537
X291071Y38238
X289959Y34837
X291371Y31637
X291771Y25337
X288671Y22537
X293771Y19637
X292959Y15237
X289759
X286559
X283359
X280159
X276959
X273759
X270559
X267359
X264159
X260959
X257759
X254559
X251359
X248159
X244959
X241759
X238559
X235359
X232159
X228959
X225759
X222559
X219359
X216159
X212959
X209759
X206559
X203359
X200159
X196959
X193759
X190559
X187359
X184159
X181559Y16438
Y19637
X186782Y30487
X189871Y29838
X189351Y34697
X186271Y37738
X181559Y39237
Y36037
X178559Y41238
X178571Y46038
X181771
X184971
X188171
X191371
X194559
X197771
Y50837
X200959
Y55638
X197771
X194559
X191371
X188171
X184971
X181771
X178571
Y50837
X181771
X184971
X188171
X191371
X194559
X193669Y42143
X189029Y42162
X184311Y42182
X173799Y42143
X173759Y52237
X169559Y54037
X169138Y58959
X171059Y62238
X175359Y60438
X178571
X181771
X184971
X188171
X191359
X194559
X197771
X200959
X202559Y64237
Y68238
X197771Y70038
Y74837
Y79637
Y83548
X202571Y84438
Y79637
Y74837
X207371
X211159Y73238
X211559Y70438
X208559
X207371Y65237
X209771
Y60438
X207371
X209959Y56238
X209771Y50837
X210359Y48037
X206871Y48638
X207371Y46038
X203971Y45737
X205152Y42241
X200571Y41848
X202771Y37738
X207512Y37760
X207271Y33838
Y29438
X209771Y31637
X214571
X219371
Y26838
Y22038
X218671Y20137
X221871
X225071
X224171Y22038
Y26838
X228971
Y22038
Y31637
X233771
Y34038
X238571
Y31637
X243371
Y34038
Y38838
X240971Y41238
Y46038
X236171
X231371
Y41238
X233771Y38838
X236171Y36437
X238571Y38838
X240971Y36437
X245771
Y41238
X251159Y41638
X251059Y39338
X250859Y36237
X253859Y35737
X254059Y38838
X253959Y40837
X254359Y43738
X251359Y44238
Y46237
X250859Y49637
X251959Y51437
X254559Y51638
X254459Y48338
X255159Y56937
X252059Y59737
X251959Y65237
X248271Y64938
X245071
X245771Y62837
Y58038
X241871Y57038
X237971
X233971
X230071
X228759Y62837
X222971Y61638
X221271Y58637
X222971Y67037
Y71838
X216759Y72038
Y70038
X215159Y75037
X217771Y77237
X222759Y80638
X215359Y86238
X209571Y85237
Y82437
Y78938
X207471Y87138
X192971Y84438
Y79637
X188171
Y84438
X186759Y86838
X183371Y84438
X178571
X175359
Y79637
X178571
X181771
Y74837
X184971
X188171
Y70038
X184971
X181771
X178559
Y66838
Y63638
X181771Y65237
X184971
X188171
X191371
X194559
X197771
X191371Y70038
X192971Y74837
X178571
X171659Y68037
X195708Y34571
X200559Y33437
X199834Y30024
X213271Y25738
X210971Y19537
X209771Y41238
X212171Y44238
X214471Y46338
X217171Y44737
Y41537
X219371Y41238
X224171
X231371Y36437
X236171Y29237
X237750Y27257
X242583
X240971Y29237
X248271Y29337
X247108Y26522
X253105Y26794
X256004Y25280
X257771Y26838
X260071Y29337
X262571Y31637
X264971Y36437
X263671Y38138
X264971Y41238
X269771
Y46038
X272659Y45037
X271759Y50837
X272543Y54751
X272171Y58038
X275871Y62738
X278971Y65538
X274859Y72903
X273159Y76038
X276159Y77038
X276677Y82046
X280259Y83237
X284171Y82038
X288971
X286871Y86537
X274359Y86137
X266359Y85037
X262959Y85137
X263459Y81738
X264521Y78838
X260171Y77237
X255371
X248171
X243159Y77438
X238571Y77237
X233771
X234359Y69837
X238862Y70002
X244076Y69981
X248889
X254359Y69638
X258557Y69832
X261559Y69837
X264859Y68738
X267959Y67137
X269587Y69770
X269959Y73537
X267371Y82038
X257459Y84338
X253259Y83938
X243476Y84038
X240971Y83237
X236171Y83538
X232659Y84637
X233671Y86838
X235471Y64938
X241871
X243959Y48537
X248372Y33900
X237559Y20237
X267371Y20137
X272971Y22038
X272171Y26838
X274759Y28837
X276971Y26838
Y31637
X281071Y32037
X280571Y28038
X283459Y29438
X280571Y36138
X282371Y39937
X283959Y44337
X280571Y46038
X264971
X267759Y49237
X267459Y52838
X260171Y58038
Y62837
X260971Y65538
X265959Y64638
X301359Y54838
X303371Y46038
X304059Y42338
X300159Y40938
X298271Y37837
X298571Y31637
Y26838
X303371Y31637
Y36437
X302371Y19437
X302559Y15237
X299359
X296159
X226159Y51638
X213559
X213959Y89438
X214959Y92637
X207371Y91637
X209571Y88386
X202571Y89237
X197771
X199859Y91938
X202571Y94037
X208159Y97038
X211559Y97838
X205171Y103537
X204359Y110438
X198971Y109637
X202559Y115838
X207371Y117438
X210971
X213659Y117638
X210871Y110738
X223271Y110038
X226509Y114887
X232159Y117638
X237159Y116638
X236971Y123238
X246771Y122337
X253171Y123238
X251459Y129537
X255937Y129551
X261121Y129159
X265993Y129179
X270747Y129218
X275423Y129179
X280157Y129237
X284931Y129179
X289744Y129199
X294439
X299311Y129159
X303371Y127638
Y122837
X299859Y118138
X296199Y114048
X296159Y98239
X298859Y98838
X302759Y98637
X302559Y94638
X295559Y88638
X292759Y90038
X289959
X269771Y89237
X264971
X260171
X255371
X250571
X243759Y88437
X238959
X236071Y88038
X230459Y91137
X230271Y96038
X231371Y98838
X236171
X240059Y98937
X242663Y99567
X248059Y100038
X250359Y101937
X253959Y101637
X250859Y98137
X245859Y103038
X246514Y105465
X243371Y106037
X242474Y110334
X243171Y112893
Y115538
X246401Y115038
X246371Y111637
X250448Y110290
X250559Y113238
X255371
X254171Y109637
X249273Y107185
X236171Y108438
X231371
X227159Y105638
X226971Y98338
X225159Y92238
X221259Y87437
X238159Y96737
X240971Y94737
X244959Y93238
X235359Y104237
X232159Y129537
X227759Y129437
X223559
X219918Y129570
X215243Y129589
X210527
X205949Y129532
X201078
X196226Y129491
X191393Y129413
X186640Y129434
X186278Y125294
X190567Y122837
X192971
X193356Y120246
X188171Y118037
X185005Y116332
X180659Y116338
X179014Y119869
X180159Y123238
X178920Y125908
X181886Y129434
X175559Y130037
X167959Y130237
Y121438
X166759Y117237
X167359Y110637
X167559Y108037
X167259Y105138
X166959Y98838
X177959Y100888
Y96637
X178459Y93937
X175559Y92437
X181459Y91938
X183371Y89237
X188171
X192971
X192751Y91891
X195459Y92537
X193971Y95538
X191371Y95438
X187059Y95237
X183377Y94965
X184859Y97737
X180279Y98001
X181271Y102838
Y106037
X178009Y107238
X179359Y110438
X178571Y113238
X183371
X188759Y109137
X192971Y101237
X243459Y129437
X246959Y129537
X258171Y119138
X264971Y122837
X267459Y121238
X269771Y122837
X272059Y120638
X274571Y122837
X277059Y120638
X279371Y122837
X281786Y123545
X284171Y122837
X283159Y106438
X277971Y104638
X272459Y104037
X273471Y106438
X269759Y98238
X305865Y100591
X310959Y101137
X310121Y105379
X316657Y105304
X319259Y108337
X322862Y108814
X323007Y103848
X319859Y102137
X317771Y98838
X314359Y97838
X314859Y94437
X317896Y93279
X318007Y90447
X317951Y87699
X313959Y89837
X311459Y91237
X311185Y94967
X307959Y94437
X322759Y94737
X322891Y98189
X322759Y90338
X322920Y113924
X318759Y114538
X319259Y119337
X322862Y119177
X322891Y124029
X316277Y122784
X316049Y118071
X312359Y116838
X311859Y121537
X308171Y122837
X307157Y118071
X310881Y127724
X317771Y127638
X316139Y129796
X316353Y111611
M30
