%
M48
M72
T01C0.0120
T02C0.0157
T03C0.0236
T04C0.0400
T05C0.0512
T06C0.1260
%
T01
X15406Y7651
X15543Y6765
X16508Y6548
X19087Y6804
X19480Y7139
X19421Y8635
X19106Y8674
X18772Y8812
X18693Y9107
X19559Y9304
X20071Y9442
X21075Y9934
X21429Y10151
X22295Y9718
X22236Y9403
X22236Y9088
X21941Y8871
X20996Y8733
X20799Y8497
X22787Y9600
X22984Y9855
X23417Y10505
X23772Y10938
X25307Y10505
X25701Y11588
X25701Y11922
X26291Y11568
X26882Y11568
X26665Y12670
X26291Y12867
X27472Y14009
X27807Y13320
X28752Y13084
X28594Y12178
X28142Y12159
X28378Y11804
X29677Y11588
X30268Y10682
X30602Y10544
X31075Y10466
X31075Y10190
X31370Y10190
X31370Y10466
X32512Y11588
X32787Y12080
X33181Y12080
X31724Y12277
X31508Y12572
X31508Y12848
X31232Y12848
X31232Y12572
X31016Y12277
X32118Y13379
X31764Y13497
X31291Y14403
X30976Y14757
X30602Y15131
X30268Y15466
X32157Y16017
X32728Y15781
X33831Y14442
X34480Y14363
X34717Y14009
X34953Y13458
X35425Y14403
X36370Y15092
X36193Y15564
X35465Y16096
X35189Y16844
X34913Y17611
X34913Y17926
X34461Y18537
X34224Y18792
X33555Y18359
X33260Y18537
X33732Y19521
X34067Y19895
X34067Y20446
X35386Y19481
X35740Y19127
X36094Y20151
X37650Y20485
X37984Y19639
X37984Y19363
X38280Y19363
X38280Y19639
X38654Y17710
X37433Y17710
X36665Y17336
X36823Y17021
X37079Y16804
X38024Y16568
X36193Y17336
X35858Y17710
X33988Y17493
X32157Y17434
X32059Y18399
X32433Y19422
X33496Y22159
X33024Y24206
X34126Y24206
X34835Y24107
X38142Y24403
X39559Y22159
X36370Y21411
X38043Y15092
X38870Y11351
X38496Y10466
X37000Y11351
X36587Y10958
X35701Y10997
X36331Y8930
X35543Y8576
X36823Y7336
X37531Y6824
X37531Y6529
X37531Y6214
X38772Y6489
X39087Y6489
X39087Y6804
X38772Y6804
X37748Y7552
X37984Y8025
X35484Y5446
X35583Y5131
X35740Y4875
X35346Y4875
X35110Y5111
X34795Y5170
X34795Y4836
X34461Y4836
X34126Y4836
X34028Y5151
X33732Y4855
X33417Y4855
X33102Y4875
X33516Y5249
X34894Y5603
X32886Y7572
X32551Y7552
X32945Y7907
X32807Y8182
X33417Y7926
X33181Y8891
X32787Y8891
X31685Y8950
X31803Y8320
X31606Y8005
X31272Y8005
X31213Y7552
X30484Y7316
X30071Y7729
X30484Y7808
X30484Y8123
X30012Y8320
X29441Y8556
X29087Y8891
X28378Y9166
X26429Y7946
X26291Y8281
X26035Y8615
X25327Y8576
X25327Y8261
X25327Y7926
X25327Y7592
X25346Y8930
X23752Y8773
X23102Y8773
X21724Y10997
X20346Y11017
X19382Y11017
X18437Y10997
X17512Y11056
X16921Y11981
X16961Y12769
X16961Y13044
X16665Y13044
X16665Y12769
X15307Y13340
X15543Y14363
X16035Y15781
X16016Y16627
X14776Y16607
X13575Y16607
X16232Y18359
X16213Y19186
X16646Y19600
X18220Y19363
X18535Y19363
X19303Y19363
X19343Y18399
X18693Y18025
X18083Y18359
X17827Y18025
X20366Y17139
X21724Y17572
X21587Y17887
X22236Y18418
X22945Y18497
X23772Y17828
X24106Y17848
X23850Y17355
X23791Y16824
X23791Y16450
X24047Y16292
X23791Y15840
X24067Y15466
X23969Y14777
X24008Y14147
X24520Y14107
X24953Y14127
X24559Y13537
X24205Y13674
X24008Y13182
X24343Y13084
X24736Y13163
X24677Y12848
X22453Y13497
X22157Y13891
X22138Y14226
X21980Y14560
X21724Y15210
X22827Y15210
X22827Y14875
X20799Y14166
X20484Y14166
X20091Y14166
X19756Y14166
X18732Y14009
X18476Y13340
X18988Y13300
X19343Y12296
X20268Y12296
X21646Y12336
X22236Y12316
X26528Y14580
X27138Y14737
X27118Y15072
X26291Y15899
X26035Y16686
X25701Y16568
X26980Y17631
X26980Y17946
X27315Y17946
X27315Y17631
X25937Y18458
X24992Y18812
X24047Y18497
X22827Y17749
X22827Y17434
X22827Y17119
X20760Y18399
X22059Y19442
X21685Y20544
X19756Y20663
X15622Y21411
X14717Y19147
X13555Y19147
X14835Y11371
X15307Y10544
X15976Y8812
X24087Y6470
X24736Y5879
X25189Y6135
X25425Y5544
X25484Y5170
X27551Y6942
X27217Y7277
X26882Y7611
X27886Y6607
X28673Y5879
X28142Y5525
X29677Y6509
X29343Y13851
X28752Y13950
T02
X22807Y10544
T03
X14047Y9914
X11567Y11981
X13181Y20229
X12276Y21096
X12709Y21706
X29500Y23773
X29874Y20229
X36488Y23773
X38024Y23773
X37157Y21706
X37689Y21096
T04
X9764Y6371
X8764Y6371
T05
X17276Y5603
X17512Y7533
X23220Y7533
X23457Y5603
T06
X1862Y1489
X38516Y1489
X38516Y29619
X1862Y29639
M30
