G75*
G70*
%OFA0B0*%
%FSLAX24Y24*%
%IPPOS*%
%LPD*%
%AMOC8*
5,1,8,0,0,1.08239X$1,22.5*
%
%ADD10C,0.0000*%
%ADD11C,0.1300*%
%ADD12OC8,0.0640*%
%ADD13R,0.0118X0.0236*%
%ADD14R,0.0669X0.0965*%
%ADD15R,0.0299X0.0138*%
%ADD16C,0.0138*%
%ADD17R,0.0591X0.0985*%
%ADD18R,0.0394X0.0316*%
%ADD19R,0.0316X0.0394*%
%ADD20R,0.0591X0.0434*%
%ADD21R,0.0620X0.0150*%
%ADD22R,0.0150X0.0620*%
%ADD23R,0.2090X0.2090*%
%ADD24C,0.0552*%
%ADD25C,0.0640*%
%ADD26R,0.0631X0.0827*%
%ADD27R,0.1536X0.0827*%
%ADD28R,0.0631X0.0552*%
D10*
X001652Y000107D02*
X001722Y000109D01*
X001792Y000115D01*
X001862Y000124D01*
X001931Y000137D01*
X002000Y000154D01*
X002067Y000175D01*
X002133Y000199D01*
X002197Y000227D01*
X002260Y000258D01*
X002322Y000293D01*
X002381Y000331D01*
X002438Y000372D01*
X002493Y000416D01*
X002545Y000463D01*
X002595Y000513D01*
X002642Y000565D01*
X002686Y000620D01*
X002727Y000677D01*
X002765Y000736D01*
X002800Y000798D01*
X002831Y000861D01*
X002859Y000925D01*
X002883Y000991D01*
X002904Y001058D01*
X002921Y001127D01*
X002934Y001196D01*
X002943Y001266D01*
X002949Y001336D01*
X002951Y001406D01*
X002951Y003690D01*
X036573Y003690D01*
X036573Y001524D01*
X036575Y001452D01*
X036581Y001380D01*
X036590Y001308D01*
X036603Y001237D01*
X036620Y001167D01*
X036640Y001098D01*
X036665Y001030D01*
X036692Y000964D01*
X036723Y000898D01*
X036758Y000835D01*
X036795Y000773D01*
X036836Y000714D01*
X036880Y000657D01*
X036927Y000602D01*
X036977Y000550D01*
X037029Y000500D01*
X037084Y000453D01*
X037141Y000409D01*
X037200Y000368D01*
X037262Y000331D01*
X037325Y000296D01*
X037391Y000265D01*
X037457Y000238D01*
X037525Y000213D01*
X037594Y000193D01*
X037664Y000176D01*
X037735Y000163D01*
X037807Y000154D01*
X037879Y000148D01*
X037951Y000146D01*
X037321Y001406D02*
X037323Y001456D01*
X037329Y001506D01*
X037339Y001555D01*
X037353Y001603D01*
X037370Y001650D01*
X037391Y001695D01*
X037416Y001739D01*
X037444Y001780D01*
X037476Y001819D01*
X037510Y001856D01*
X037547Y001890D01*
X037587Y001920D01*
X037629Y001947D01*
X037673Y001971D01*
X037719Y001992D01*
X037766Y002008D01*
X037814Y002021D01*
X037864Y002030D01*
X037913Y002035D01*
X037964Y002036D01*
X038014Y002033D01*
X038063Y002026D01*
X038112Y002015D01*
X038160Y002000D01*
X038206Y001982D01*
X038251Y001960D01*
X038294Y001934D01*
X038335Y001905D01*
X038374Y001873D01*
X038410Y001838D01*
X038442Y001800D01*
X038472Y001760D01*
X038499Y001717D01*
X038522Y001673D01*
X038541Y001627D01*
X038557Y001579D01*
X038569Y001530D01*
X038577Y001481D01*
X038581Y001431D01*
X038581Y001381D01*
X038577Y001331D01*
X038569Y001282D01*
X038557Y001233D01*
X038541Y001185D01*
X038522Y001139D01*
X038499Y001095D01*
X038472Y001052D01*
X038442Y001012D01*
X038410Y000974D01*
X038374Y000939D01*
X038335Y000907D01*
X038294Y000878D01*
X038251Y000852D01*
X038206Y000830D01*
X038160Y000812D01*
X038112Y000797D01*
X038063Y000786D01*
X038014Y000779D01*
X037964Y000776D01*
X037913Y000777D01*
X037864Y000782D01*
X037814Y000791D01*
X037766Y000804D01*
X037719Y000820D01*
X037673Y000841D01*
X037629Y000865D01*
X037587Y000892D01*
X037547Y000922D01*
X037510Y000956D01*
X037476Y000993D01*
X037444Y001032D01*
X037416Y001073D01*
X037391Y001117D01*
X037370Y001162D01*
X037353Y001209D01*
X037339Y001257D01*
X037329Y001306D01*
X037323Y001356D01*
X037321Y001406D01*
X037951Y000147D02*
X038021Y000149D01*
X038091Y000155D01*
X038161Y000164D01*
X038230Y000177D01*
X038299Y000194D01*
X038366Y000215D01*
X038432Y000239D01*
X038496Y000267D01*
X038559Y000298D01*
X038621Y000333D01*
X038680Y000371D01*
X038737Y000412D01*
X038792Y000456D01*
X038844Y000503D01*
X038894Y000553D01*
X038941Y000605D01*
X038985Y000660D01*
X039026Y000717D01*
X039064Y000776D01*
X039099Y000838D01*
X039130Y000901D01*
X039158Y000965D01*
X039182Y001031D01*
X039203Y001098D01*
X039220Y001167D01*
X039233Y001236D01*
X039242Y001306D01*
X039248Y001376D01*
X039250Y001446D01*
X039250Y003690D01*
X039349Y003690D01*
X039329Y025619D01*
X038837Y025619D01*
X038837Y028217D01*
X036907Y027981D02*
X036909Y028031D01*
X036915Y028081D01*
X036925Y028130D01*
X036939Y028178D01*
X036956Y028225D01*
X036977Y028270D01*
X037002Y028314D01*
X037030Y028355D01*
X037062Y028394D01*
X037096Y028431D01*
X037133Y028465D01*
X037173Y028495D01*
X037215Y028522D01*
X037259Y028546D01*
X037305Y028567D01*
X037352Y028583D01*
X037400Y028596D01*
X037450Y028605D01*
X037499Y028610D01*
X037550Y028611D01*
X037600Y028608D01*
X037649Y028601D01*
X037698Y028590D01*
X037746Y028575D01*
X037792Y028557D01*
X037837Y028535D01*
X037880Y028509D01*
X037921Y028480D01*
X037960Y028448D01*
X037996Y028413D01*
X038028Y028375D01*
X038058Y028335D01*
X038085Y028292D01*
X038108Y028248D01*
X038127Y028202D01*
X038143Y028154D01*
X038155Y028105D01*
X038163Y028056D01*
X038167Y028006D01*
X038167Y027956D01*
X038163Y027906D01*
X038155Y027857D01*
X038143Y027808D01*
X038127Y027760D01*
X038108Y027714D01*
X038085Y027670D01*
X038058Y027627D01*
X038028Y027587D01*
X037996Y027549D01*
X037960Y027514D01*
X037921Y027482D01*
X037880Y027453D01*
X037837Y027427D01*
X037792Y027405D01*
X037746Y027387D01*
X037698Y027372D01*
X037649Y027361D01*
X037600Y027354D01*
X037550Y027351D01*
X037499Y027352D01*
X037450Y027357D01*
X037400Y027366D01*
X037352Y027379D01*
X037305Y027395D01*
X037259Y027416D01*
X037215Y027440D01*
X037173Y027467D01*
X037133Y027497D01*
X037096Y027531D01*
X037062Y027568D01*
X037030Y027607D01*
X037002Y027648D01*
X036977Y027692D01*
X036956Y027737D01*
X036939Y027784D01*
X036925Y027832D01*
X036915Y027881D01*
X036909Y027931D01*
X036907Y027981D01*
X037459Y029595D02*
X037531Y029593D01*
X037603Y029587D01*
X037675Y029578D01*
X037746Y029565D01*
X037816Y029548D01*
X037885Y029528D01*
X037953Y029503D01*
X038019Y029476D01*
X038085Y029445D01*
X038148Y029410D01*
X038210Y029373D01*
X038269Y029332D01*
X038326Y029288D01*
X038381Y029241D01*
X038433Y029191D01*
X038483Y029139D01*
X038530Y029084D01*
X038574Y029027D01*
X038615Y028968D01*
X038652Y028906D01*
X038687Y028843D01*
X038718Y028777D01*
X038745Y028711D01*
X038770Y028643D01*
X038790Y028574D01*
X038807Y028504D01*
X038820Y028433D01*
X038829Y028361D01*
X038835Y028289D01*
X038837Y028217D01*
X037459Y029595D02*
X037389Y029593D01*
X037319Y029587D01*
X037249Y029578D01*
X037180Y029565D01*
X037111Y029548D01*
X037044Y029527D01*
X036978Y029503D01*
X036914Y029475D01*
X036851Y029444D01*
X036789Y029409D01*
X036730Y029371D01*
X036673Y029330D01*
X036618Y029286D01*
X036566Y029239D01*
X036516Y029189D01*
X036469Y029137D01*
X036425Y029082D01*
X036384Y029025D01*
X036346Y028966D01*
X036311Y028904D01*
X036280Y028841D01*
X036252Y028777D01*
X036228Y028711D01*
X036207Y028644D01*
X036190Y028575D01*
X036177Y028506D01*
X036168Y028436D01*
X036162Y028366D01*
X036160Y028296D01*
X036160Y025619D01*
X003089Y025580D01*
X003089Y028178D01*
X001120Y027902D02*
X001122Y027952D01*
X001128Y028002D01*
X001138Y028051D01*
X001152Y028099D01*
X001169Y028146D01*
X001190Y028191D01*
X001215Y028235D01*
X001243Y028276D01*
X001275Y028315D01*
X001309Y028352D01*
X001346Y028386D01*
X001386Y028416D01*
X001428Y028443D01*
X001472Y028467D01*
X001518Y028488D01*
X001565Y028504D01*
X001613Y028517D01*
X001663Y028526D01*
X001712Y028531D01*
X001763Y028532D01*
X001813Y028529D01*
X001862Y028522D01*
X001911Y028511D01*
X001959Y028496D01*
X002005Y028478D01*
X002050Y028456D01*
X002093Y028430D01*
X002134Y028401D01*
X002173Y028369D01*
X002209Y028334D01*
X002241Y028296D01*
X002271Y028256D01*
X002298Y028213D01*
X002321Y028169D01*
X002340Y028123D01*
X002356Y028075D01*
X002368Y028026D01*
X002376Y027977D01*
X002380Y027927D01*
X002380Y027877D01*
X002376Y027827D01*
X002368Y027778D01*
X002356Y027729D01*
X002340Y027681D01*
X002321Y027635D01*
X002298Y027591D01*
X002271Y027548D01*
X002241Y027508D01*
X002209Y027470D01*
X002173Y027435D01*
X002134Y027403D01*
X002093Y027374D01*
X002050Y027348D01*
X002005Y027326D01*
X001959Y027308D01*
X001911Y027293D01*
X001862Y027282D01*
X001813Y027275D01*
X001763Y027272D01*
X001712Y027273D01*
X001663Y027278D01*
X001613Y027287D01*
X001565Y027300D01*
X001518Y027316D01*
X001472Y027337D01*
X001428Y027361D01*
X001386Y027388D01*
X001346Y027418D01*
X001309Y027452D01*
X001275Y027489D01*
X001243Y027528D01*
X001215Y027569D01*
X001190Y027613D01*
X001169Y027658D01*
X001152Y027705D01*
X001138Y027753D01*
X001128Y027802D01*
X001122Y027852D01*
X001120Y027902D01*
X001711Y029556D02*
X001783Y029554D01*
X001855Y029548D01*
X001927Y029539D01*
X001998Y029526D01*
X002068Y029509D01*
X002137Y029489D01*
X002205Y029464D01*
X002271Y029437D01*
X002337Y029406D01*
X002400Y029371D01*
X002462Y029334D01*
X002521Y029293D01*
X002578Y029249D01*
X002633Y029202D01*
X002685Y029152D01*
X002735Y029100D01*
X002782Y029045D01*
X002826Y028988D01*
X002867Y028929D01*
X002904Y028867D01*
X002939Y028804D01*
X002970Y028738D01*
X002997Y028672D01*
X003022Y028604D01*
X003042Y028535D01*
X003059Y028465D01*
X003072Y028394D01*
X003081Y028322D01*
X003087Y028250D01*
X003089Y028178D01*
X001711Y029556D02*
X001641Y029554D01*
X001571Y029548D01*
X001501Y029539D01*
X001432Y029526D01*
X001363Y029509D01*
X001296Y029488D01*
X001230Y029464D01*
X001166Y029436D01*
X001103Y029405D01*
X001041Y029370D01*
X000982Y029332D01*
X000925Y029291D01*
X000870Y029247D01*
X000818Y029200D01*
X000768Y029150D01*
X000721Y029098D01*
X000677Y029043D01*
X000636Y028986D01*
X000598Y028927D01*
X000563Y028865D01*
X000532Y028802D01*
X000504Y028738D01*
X000480Y028672D01*
X000459Y028605D01*
X000442Y028536D01*
X000429Y028467D01*
X000420Y028397D01*
X000414Y028327D01*
X000412Y028257D01*
X000411Y028257D02*
X000411Y025580D01*
X000136Y025580D01*
X000136Y003690D01*
X000274Y003690D01*
X000274Y001485D01*
X000982Y001524D02*
X000984Y001574D01*
X000990Y001624D01*
X001000Y001673D01*
X001014Y001721D01*
X001031Y001768D01*
X001052Y001813D01*
X001077Y001857D01*
X001105Y001898D01*
X001137Y001937D01*
X001171Y001974D01*
X001208Y002008D01*
X001248Y002038D01*
X001290Y002065D01*
X001334Y002089D01*
X001380Y002110D01*
X001427Y002126D01*
X001475Y002139D01*
X001525Y002148D01*
X001574Y002153D01*
X001625Y002154D01*
X001675Y002151D01*
X001724Y002144D01*
X001773Y002133D01*
X001821Y002118D01*
X001867Y002100D01*
X001912Y002078D01*
X001955Y002052D01*
X001996Y002023D01*
X002035Y001991D01*
X002071Y001956D01*
X002103Y001918D01*
X002133Y001878D01*
X002160Y001835D01*
X002183Y001791D01*
X002202Y001745D01*
X002218Y001697D01*
X002230Y001648D01*
X002238Y001599D01*
X002242Y001549D01*
X002242Y001499D01*
X002238Y001449D01*
X002230Y001400D01*
X002218Y001351D01*
X002202Y001303D01*
X002183Y001257D01*
X002160Y001213D01*
X002133Y001170D01*
X002103Y001130D01*
X002071Y001092D01*
X002035Y001057D01*
X001996Y001025D01*
X001955Y000996D01*
X001912Y000970D01*
X001867Y000948D01*
X001821Y000930D01*
X001773Y000915D01*
X001724Y000904D01*
X001675Y000897D01*
X001625Y000894D01*
X001574Y000895D01*
X001525Y000900D01*
X001475Y000909D01*
X001427Y000922D01*
X001380Y000938D01*
X001334Y000959D01*
X001290Y000983D01*
X001248Y001010D01*
X001208Y001040D01*
X001171Y001074D01*
X001137Y001111D01*
X001105Y001150D01*
X001077Y001191D01*
X001052Y001235D01*
X001031Y001280D01*
X001014Y001327D01*
X001000Y001375D01*
X000990Y001424D01*
X000984Y001474D01*
X000982Y001524D01*
X000274Y001485D02*
X000276Y001413D01*
X000282Y001341D01*
X000291Y001269D01*
X000304Y001198D01*
X000321Y001128D01*
X000341Y001059D01*
X000366Y000991D01*
X000393Y000925D01*
X000424Y000859D01*
X000459Y000796D01*
X000496Y000734D01*
X000537Y000675D01*
X000581Y000618D01*
X000628Y000563D01*
X000678Y000511D01*
X000730Y000461D01*
X000785Y000414D01*
X000842Y000370D01*
X000901Y000329D01*
X000963Y000292D01*
X001026Y000257D01*
X001092Y000226D01*
X001158Y000199D01*
X001226Y000174D01*
X001295Y000154D01*
X001365Y000137D01*
X001436Y000124D01*
X001508Y000115D01*
X001580Y000109D01*
X001652Y000107D01*
X023266Y004635D02*
X023268Y004666D01*
X023274Y004697D01*
X023283Y004727D01*
X023296Y004756D01*
X023313Y004783D01*
X023333Y004807D01*
X023355Y004829D01*
X023381Y004848D01*
X023408Y004864D01*
X023437Y004876D01*
X023467Y004885D01*
X023498Y004890D01*
X023530Y004891D01*
X023561Y004888D01*
X023592Y004881D01*
X023622Y004871D01*
X023650Y004857D01*
X023676Y004839D01*
X023700Y004819D01*
X023721Y004795D01*
X023740Y004770D01*
X023755Y004742D01*
X023766Y004713D01*
X023774Y004682D01*
X023778Y004651D01*
X023778Y004619D01*
X023774Y004588D01*
X023766Y004557D01*
X023755Y004528D01*
X023740Y004500D01*
X023721Y004475D01*
X023700Y004451D01*
X023676Y004431D01*
X023650Y004413D01*
X023622Y004399D01*
X023592Y004389D01*
X023561Y004382D01*
X023530Y004379D01*
X023498Y004380D01*
X023467Y004385D01*
X023437Y004394D01*
X023408Y004406D01*
X023381Y004422D01*
X023355Y004441D01*
X023333Y004463D01*
X023313Y004487D01*
X023296Y004514D01*
X023283Y004543D01*
X023274Y004573D01*
X023268Y004604D01*
X023266Y004635D01*
X023502Y006564D02*
X023504Y006595D01*
X023510Y006626D01*
X023519Y006656D01*
X023532Y006685D01*
X023549Y006712D01*
X023569Y006736D01*
X023591Y006758D01*
X023617Y006777D01*
X023644Y006793D01*
X023673Y006805D01*
X023703Y006814D01*
X023734Y006819D01*
X023766Y006820D01*
X023797Y006817D01*
X023828Y006810D01*
X023858Y006800D01*
X023886Y006786D01*
X023912Y006768D01*
X023936Y006748D01*
X023957Y006724D01*
X023976Y006699D01*
X023991Y006671D01*
X024002Y006642D01*
X024010Y006611D01*
X024014Y006580D01*
X024014Y006548D01*
X024010Y006517D01*
X024002Y006486D01*
X023991Y006457D01*
X023976Y006429D01*
X023957Y006404D01*
X023936Y006380D01*
X023912Y006360D01*
X023886Y006342D01*
X023858Y006328D01*
X023828Y006318D01*
X023797Y006311D01*
X023766Y006308D01*
X023734Y006309D01*
X023703Y006314D01*
X023673Y006323D01*
X023644Y006335D01*
X023617Y006351D01*
X023591Y006370D01*
X023569Y006392D01*
X023549Y006416D01*
X023532Y006443D01*
X023519Y006472D01*
X023510Y006502D01*
X023504Y006533D01*
X023502Y006564D01*
X029211Y006564D02*
X029213Y006595D01*
X029219Y006626D01*
X029228Y006656D01*
X029241Y006685D01*
X029258Y006712D01*
X029278Y006736D01*
X029300Y006758D01*
X029326Y006777D01*
X029353Y006793D01*
X029382Y006805D01*
X029412Y006814D01*
X029443Y006819D01*
X029475Y006820D01*
X029506Y006817D01*
X029537Y006810D01*
X029567Y006800D01*
X029595Y006786D01*
X029621Y006768D01*
X029645Y006748D01*
X029666Y006724D01*
X029685Y006699D01*
X029700Y006671D01*
X029711Y006642D01*
X029719Y006611D01*
X029723Y006580D01*
X029723Y006548D01*
X029719Y006517D01*
X029711Y006486D01*
X029700Y006457D01*
X029685Y006429D01*
X029666Y006404D01*
X029645Y006380D01*
X029621Y006360D01*
X029595Y006342D01*
X029567Y006328D01*
X029537Y006318D01*
X029506Y006311D01*
X029475Y006308D01*
X029443Y006309D01*
X029412Y006314D01*
X029382Y006323D01*
X029353Y006335D01*
X029326Y006351D01*
X029300Y006370D01*
X029278Y006392D01*
X029258Y006416D01*
X029241Y006443D01*
X029228Y006472D01*
X029219Y006502D01*
X029213Y006533D01*
X029211Y006564D01*
X029447Y004635D02*
X029449Y004666D01*
X029455Y004697D01*
X029464Y004727D01*
X029477Y004756D01*
X029494Y004783D01*
X029514Y004807D01*
X029536Y004829D01*
X029562Y004848D01*
X029589Y004864D01*
X029618Y004876D01*
X029648Y004885D01*
X029679Y004890D01*
X029711Y004891D01*
X029742Y004888D01*
X029773Y004881D01*
X029803Y004871D01*
X029831Y004857D01*
X029857Y004839D01*
X029881Y004819D01*
X029902Y004795D01*
X029921Y004770D01*
X029936Y004742D01*
X029947Y004713D01*
X029955Y004682D01*
X029959Y004651D01*
X029959Y004619D01*
X029955Y004588D01*
X029947Y004557D01*
X029936Y004528D01*
X029921Y004500D01*
X029902Y004475D01*
X029881Y004451D01*
X029857Y004431D01*
X029831Y004413D01*
X029803Y004399D01*
X029773Y004389D01*
X029742Y004382D01*
X029711Y004379D01*
X029679Y004380D01*
X029648Y004385D01*
X029618Y004394D01*
X029589Y004406D01*
X029562Y004422D01*
X029536Y004441D01*
X029514Y004463D01*
X029494Y004487D01*
X029477Y004514D01*
X029464Y004543D01*
X029455Y004573D01*
X029449Y004604D01*
X029447Y004635D01*
D11*
X037951Y001406D03*
X037537Y027981D03*
X001750Y027902D03*
X001612Y001524D03*
D12*
X007978Y004725D03*
X008978Y004725D03*
X009978Y004725D03*
X010978Y004725D03*
X011978Y004725D03*
X012978Y004725D03*
X013978Y004725D03*
X014978Y004725D03*
X015978Y004725D03*
X016978Y004725D03*
X016978Y005725D03*
X015978Y005725D03*
X014978Y005725D03*
X013978Y005725D03*
X012978Y005725D03*
X011978Y005725D03*
X010978Y005725D03*
X009978Y005725D03*
X008978Y005725D03*
X007978Y005725D03*
X007935Y023583D03*
X008935Y023583D03*
X009935Y023583D03*
X010935Y023583D03*
X011935Y023583D03*
X012935Y023583D03*
X013935Y023583D03*
X014935Y023583D03*
X015935Y023583D03*
X016935Y023583D03*
X017935Y023583D03*
X018935Y023583D03*
X019935Y023583D03*
X020935Y023583D03*
X021935Y023583D03*
X022935Y023583D03*
X023935Y023583D03*
X024935Y023583D03*
X025935Y023583D03*
X026935Y023583D03*
X027935Y023583D03*
X028935Y023583D03*
X029935Y023583D03*
X029935Y024583D03*
X028935Y024583D03*
X027935Y024583D03*
X026935Y024583D03*
X025935Y024583D03*
X024935Y024583D03*
X023935Y024583D03*
X022935Y024583D03*
X021935Y024583D03*
X020935Y024583D03*
X019935Y024583D03*
X018935Y024583D03*
X017935Y024583D03*
X016935Y024583D03*
X015935Y024583D03*
X014935Y024583D03*
X013935Y024583D03*
X012935Y024583D03*
X011935Y024583D03*
X010935Y024583D03*
X009935Y024583D03*
X008935Y024583D03*
X007935Y024583D03*
D13*
X037361Y009903D03*
X037577Y009903D03*
X037577Y008624D03*
X037361Y008624D03*
D14*
X037469Y009263D03*
D15*
X038077Y009263D03*
X038077Y009067D03*
X038077Y008870D03*
X038077Y009460D03*
X038077Y009657D03*
X036861Y009657D03*
X036861Y009460D03*
X036861Y009263D03*
X036861Y009067D03*
X036861Y008870D03*
D16*
X037010Y008870D03*
X037010Y009067D03*
X037010Y009263D03*
X037010Y009460D03*
X037010Y009657D03*
X037928Y009657D03*
X037928Y009460D03*
X037928Y009263D03*
X037928Y009067D03*
X037928Y008870D03*
D17*
X038020Y010720D03*
X037075Y010720D03*
D18*
X035737Y009637D03*
X035737Y009126D03*
X038965Y009480D03*
X038965Y009992D03*
X038699Y013001D03*
X038699Y013513D03*
X038030Y013513D03*
X038030Y013001D03*
X028581Y009261D03*
X027951Y009261D03*
X027518Y009261D03*
X027518Y008749D03*
X027951Y008749D03*
X028581Y008749D03*
X026100Y008867D03*
X026100Y009379D03*
X025392Y009379D03*
X024959Y009379D03*
X024959Y008867D03*
X025392Y008867D03*
X024171Y008828D03*
X024171Y009339D03*
X025156Y017174D03*
X025156Y017686D03*
X026140Y017646D03*
X026140Y017135D03*
X027911Y017135D03*
X027911Y017646D03*
X010707Y014143D03*
X010707Y013631D03*
D19*
X021868Y012627D03*
X022380Y012627D03*
X022419Y014595D03*
X021908Y014595D03*
X029900Y014398D03*
X030411Y014398D03*
X030490Y012509D03*
X029978Y012509D03*
X029978Y012036D03*
X030490Y012036D03*
X036396Y013887D03*
X036908Y013887D03*
X036859Y008319D03*
X036347Y008319D03*
X028443Y005737D03*
X027931Y005737D03*
D20*
X036415Y012568D03*
X036415Y013316D03*
X037282Y012942D03*
D21*
X029180Y013024D03*
X029180Y013214D03*
X029180Y013414D03*
X029180Y013614D03*
X029180Y013804D03*
X029180Y014004D03*
X029180Y014204D03*
X029180Y014394D03*
X029180Y014594D03*
X029180Y014794D03*
X029180Y014984D03*
X029180Y015184D03*
X029180Y015384D03*
X029180Y015584D03*
X029180Y015774D03*
X029180Y012824D03*
X029180Y012624D03*
X029180Y012434D03*
X029180Y012234D03*
X029180Y012034D03*
X029180Y011844D03*
X029180Y011644D03*
X029180Y011444D03*
X029180Y011244D03*
X029180Y011054D03*
X023100Y011054D03*
X023100Y011244D03*
X023100Y011444D03*
X023100Y011644D03*
X023100Y011844D03*
X023100Y012034D03*
X023100Y012234D03*
X023100Y012434D03*
X023100Y012624D03*
X023100Y012824D03*
X023100Y013024D03*
X023100Y013214D03*
X023100Y013414D03*
X023100Y013614D03*
X023100Y013804D03*
X023100Y014004D03*
X023100Y014204D03*
X023100Y014394D03*
X023100Y014594D03*
X023100Y014794D03*
X023100Y014984D03*
X023100Y015184D03*
X023100Y015384D03*
X023100Y015584D03*
X023100Y015774D03*
D22*
X023780Y016454D03*
X023970Y016454D03*
X024170Y016454D03*
X024370Y016454D03*
X024570Y016454D03*
X024760Y016454D03*
X024960Y016454D03*
X025160Y016454D03*
X025350Y016454D03*
X025550Y016454D03*
X025750Y016454D03*
X025940Y016454D03*
X026140Y016454D03*
X026340Y016454D03*
X026530Y016454D03*
X026730Y016454D03*
X026930Y016454D03*
X027120Y016454D03*
X027320Y016454D03*
X027520Y016454D03*
X027710Y016454D03*
X027910Y016454D03*
X028110Y016454D03*
X028310Y016454D03*
X028500Y016454D03*
X028500Y010374D03*
X028310Y010374D03*
X028110Y010374D03*
X027910Y010374D03*
X027710Y010374D03*
X027520Y010374D03*
X027320Y010374D03*
X027120Y010374D03*
X026930Y010374D03*
X026730Y010374D03*
X026530Y010374D03*
X026340Y010374D03*
X026140Y010374D03*
X025940Y010374D03*
X025750Y010374D03*
X025550Y010374D03*
X025350Y010374D03*
X025160Y010374D03*
X024960Y010374D03*
X024760Y010374D03*
X024570Y010374D03*
X024370Y010374D03*
X024170Y010374D03*
X023970Y010374D03*
X023780Y010374D03*
D23*
X026150Y013394D03*
D24*
X023758Y006564D03*
X023522Y004635D03*
X029703Y004635D03*
X029467Y006564D03*
D25*
X037297Y018552D02*
X037897Y018552D01*
X037897Y019552D02*
X037297Y019552D01*
X037297Y020552D02*
X037897Y020552D01*
X037897Y021552D02*
X037297Y021552D01*
X037297Y022552D02*
X037897Y022552D01*
X037897Y023552D02*
X037297Y023552D01*
D26*
X010707Y015009D03*
X009801Y015009D03*
X008896Y015009D03*
D27*
X009801Y017489D03*
D28*
X009762Y014103D03*
X009762Y013355D03*
M02*
