G75*
G70*
%OFA0B0*%
%FSLAX24Y24*%
%IPPOS*%
%LPD*%
%AMOC8*
5,1,8,0,0,1.08239X$1,22.5*
%
%ADD10C,0.0000*%
%ADD11C,0.0080*%
%ADD12C,0.0030*%
%ADD13C,0.0060*%
%ADD14C,0.0040*%
%ADD15C,0.0050*%
%ADD16C,0.0100*%
D10*
X001652Y000107D02*
X001722Y000109D01*
X001792Y000115D01*
X001862Y000124D01*
X001931Y000137D01*
X002000Y000154D01*
X002067Y000175D01*
X002133Y000199D01*
X002197Y000227D01*
X002260Y000258D01*
X002322Y000293D01*
X002381Y000331D01*
X002438Y000372D01*
X002493Y000416D01*
X002545Y000463D01*
X002595Y000513D01*
X002642Y000565D01*
X002686Y000620D01*
X002727Y000677D01*
X002765Y000736D01*
X002800Y000798D01*
X002831Y000861D01*
X002859Y000925D01*
X002883Y000991D01*
X002904Y001058D01*
X002921Y001127D01*
X002934Y001196D01*
X002943Y001266D01*
X002949Y001336D01*
X002951Y001406D01*
X002951Y003690D01*
X036573Y003690D01*
X036573Y001524D01*
X036575Y001452D01*
X036581Y001380D01*
X036590Y001308D01*
X036603Y001237D01*
X036620Y001167D01*
X036640Y001098D01*
X036665Y001030D01*
X036692Y000964D01*
X036723Y000898D01*
X036758Y000835D01*
X036795Y000773D01*
X036836Y000714D01*
X036880Y000657D01*
X036927Y000602D01*
X036977Y000550D01*
X037029Y000500D01*
X037084Y000453D01*
X037141Y000409D01*
X037200Y000368D01*
X037262Y000331D01*
X037325Y000296D01*
X037391Y000265D01*
X037457Y000238D01*
X037525Y000213D01*
X037594Y000193D01*
X037664Y000176D01*
X037735Y000163D01*
X037807Y000154D01*
X037879Y000148D01*
X037951Y000146D01*
X037321Y001406D02*
X037323Y001456D01*
X037329Y001506D01*
X037339Y001555D01*
X037353Y001603D01*
X037370Y001650D01*
X037391Y001695D01*
X037416Y001739D01*
X037444Y001780D01*
X037476Y001819D01*
X037510Y001856D01*
X037547Y001890D01*
X037587Y001920D01*
X037629Y001947D01*
X037673Y001971D01*
X037719Y001992D01*
X037766Y002008D01*
X037814Y002021D01*
X037864Y002030D01*
X037913Y002035D01*
X037964Y002036D01*
X038014Y002033D01*
X038063Y002026D01*
X038112Y002015D01*
X038160Y002000D01*
X038206Y001982D01*
X038251Y001960D01*
X038294Y001934D01*
X038335Y001905D01*
X038374Y001873D01*
X038410Y001838D01*
X038442Y001800D01*
X038472Y001760D01*
X038499Y001717D01*
X038522Y001673D01*
X038541Y001627D01*
X038557Y001579D01*
X038569Y001530D01*
X038577Y001481D01*
X038581Y001431D01*
X038581Y001381D01*
X038577Y001331D01*
X038569Y001282D01*
X038557Y001233D01*
X038541Y001185D01*
X038522Y001139D01*
X038499Y001095D01*
X038472Y001052D01*
X038442Y001012D01*
X038410Y000974D01*
X038374Y000939D01*
X038335Y000907D01*
X038294Y000878D01*
X038251Y000852D01*
X038206Y000830D01*
X038160Y000812D01*
X038112Y000797D01*
X038063Y000786D01*
X038014Y000779D01*
X037964Y000776D01*
X037913Y000777D01*
X037864Y000782D01*
X037814Y000791D01*
X037766Y000804D01*
X037719Y000820D01*
X037673Y000841D01*
X037629Y000865D01*
X037587Y000892D01*
X037547Y000922D01*
X037510Y000956D01*
X037476Y000993D01*
X037444Y001032D01*
X037416Y001073D01*
X037391Y001117D01*
X037370Y001162D01*
X037353Y001209D01*
X037339Y001257D01*
X037329Y001306D01*
X037323Y001356D01*
X037321Y001406D01*
X037951Y000147D02*
X038021Y000149D01*
X038091Y000155D01*
X038161Y000164D01*
X038230Y000177D01*
X038299Y000194D01*
X038366Y000215D01*
X038432Y000239D01*
X038496Y000267D01*
X038559Y000298D01*
X038621Y000333D01*
X038680Y000371D01*
X038737Y000412D01*
X038792Y000456D01*
X038844Y000503D01*
X038894Y000553D01*
X038941Y000605D01*
X038985Y000660D01*
X039026Y000717D01*
X039064Y000776D01*
X039099Y000838D01*
X039130Y000901D01*
X039158Y000965D01*
X039182Y001031D01*
X039203Y001098D01*
X039220Y001167D01*
X039233Y001236D01*
X039242Y001306D01*
X039248Y001376D01*
X039250Y001446D01*
X039250Y003690D01*
X039349Y003690D01*
X039329Y025619D01*
X038837Y025619D01*
X038837Y028217D01*
X036907Y027981D02*
X036909Y028031D01*
X036915Y028081D01*
X036925Y028130D01*
X036939Y028178D01*
X036956Y028225D01*
X036977Y028270D01*
X037002Y028314D01*
X037030Y028355D01*
X037062Y028394D01*
X037096Y028431D01*
X037133Y028465D01*
X037173Y028495D01*
X037215Y028522D01*
X037259Y028546D01*
X037305Y028567D01*
X037352Y028583D01*
X037400Y028596D01*
X037450Y028605D01*
X037499Y028610D01*
X037550Y028611D01*
X037600Y028608D01*
X037649Y028601D01*
X037698Y028590D01*
X037746Y028575D01*
X037792Y028557D01*
X037837Y028535D01*
X037880Y028509D01*
X037921Y028480D01*
X037960Y028448D01*
X037996Y028413D01*
X038028Y028375D01*
X038058Y028335D01*
X038085Y028292D01*
X038108Y028248D01*
X038127Y028202D01*
X038143Y028154D01*
X038155Y028105D01*
X038163Y028056D01*
X038167Y028006D01*
X038167Y027956D01*
X038163Y027906D01*
X038155Y027857D01*
X038143Y027808D01*
X038127Y027760D01*
X038108Y027714D01*
X038085Y027670D01*
X038058Y027627D01*
X038028Y027587D01*
X037996Y027549D01*
X037960Y027514D01*
X037921Y027482D01*
X037880Y027453D01*
X037837Y027427D01*
X037792Y027405D01*
X037746Y027387D01*
X037698Y027372D01*
X037649Y027361D01*
X037600Y027354D01*
X037550Y027351D01*
X037499Y027352D01*
X037450Y027357D01*
X037400Y027366D01*
X037352Y027379D01*
X037305Y027395D01*
X037259Y027416D01*
X037215Y027440D01*
X037173Y027467D01*
X037133Y027497D01*
X037096Y027531D01*
X037062Y027568D01*
X037030Y027607D01*
X037002Y027648D01*
X036977Y027692D01*
X036956Y027737D01*
X036939Y027784D01*
X036925Y027832D01*
X036915Y027881D01*
X036909Y027931D01*
X036907Y027981D01*
X037459Y029595D02*
X037531Y029593D01*
X037603Y029587D01*
X037675Y029578D01*
X037746Y029565D01*
X037816Y029548D01*
X037885Y029528D01*
X037953Y029503D01*
X038019Y029476D01*
X038085Y029445D01*
X038148Y029410D01*
X038210Y029373D01*
X038269Y029332D01*
X038326Y029288D01*
X038381Y029241D01*
X038433Y029191D01*
X038483Y029139D01*
X038530Y029084D01*
X038574Y029027D01*
X038615Y028968D01*
X038652Y028906D01*
X038687Y028843D01*
X038718Y028777D01*
X038745Y028711D01*
X038770Y028643D01*
X038790Y028574D01*
X038807Y028504D01*
X038820Y028433D01*
X038829Y028361D01*
X038835Y028289D01*
X038837Y028217D01*
X037459Y029595D02*
X037389Y029593D01*
X037319Y029587D01*
X037249Y029578D01*
X037180Y029565D01*
X037111Y029548D01*
X037044Y029527D01*
X036978Y029503D01*
X036914Y029475D01*
X036851Y029444D01*
X036789Y029409D01*
X036730Y029371D01*
X036673Y029330D01*
X036618Y029286D01*
X036566Y029239D01*
X036516Y029189D01*
X036469Y029137D01*
X036425Y029082D01*
X036384Y029025D01*
X036346Y028966D01*
X036311Y028904D01*
X036280Y028841D01*
X036252Y028777D01*
X036228Y028711D01*
X036207Y028644D01*
X036190Y028575D01*
X036177Y028506D01*
X036168Y028436D01*
X036162Y028366D01*
X036160Y028296D01*
X036160Y025619D01*
X003089Y025580D01*
X003089Y028178D01*
X001120Y027902D02*
X001122Y027952D01*
X001128Y028002D01*
X001138Y028051D01*
X001152Y028099D01*
X001169Y028146D01*
X001190Y028191D01*
X001215Y028235D01*
X001243Y028276D01*
X001275Y028315D01*
X001309Y028352D01*
X001346Y028386D01*
X001386Y028416D01*
X001428Y028443D01*
X001472Y028467D01*
X001518Y028488D01*
X001565Y028504D01*
X001613Y028517D01*
X001663Y028526D01*
X001712Y028531D01*
X001763Y028532D01*
X001813Y028529D01*
X001862Y028522D01*
X001911Y028511D01*
X001959Y028496D01*
X002005Y028478D01*
X002050Y028456D01*
X002093Y028430D01*
X002134Y028401D01*
X002173Y028369D01*
X002209Y028334D01*
X002241Y028296D01*
X002271Y028256D01*
X002298Y028213D01*
X002321Y028169D01*
X002340Y028123D01*
X002356Y028075D01*
X002368Y028026D01*
X002376Y027977D01*
X002380Y027927D01*
X002380Y027877D01*
X002376Y027827D01*
X002368Y027778D01*
X002356Y027729D01*
X002340Y027681D01*
X002321Y027635D01*
X002298Y027591D01*
X002271Y027548D01*
X002241Y027508D01*
X002209Y027470D01*
X002173Y027435D01*
X002134Y027403D01*
X002093Y027374D01*
X002050Y027348D01*
X002005Y027326D01*
X001959Y027308D01*
X001911Y027293D01*
X001862Y027282D01*
X001813Y027275D01*
X001763Y027272D01*
X001712Y027273D01*
X001663Y027278D01*
X001613Y027287D01*
X001565Y027300D01*
X001518Y027316D01*
X001472Y027337D01*
X001428Y027361D01*
X001386Y027388D01*
X001346Y027418D01*
X001309Y027452D01*
X001275Y027489D01*
X001243Y027528D01*
X001215Y027569D01*
X001190Y027613D01*
X001169Y027658D01*
X001152Y027705D01*
X001138Y027753D01*
X001128Y027802D01*
X001122Y027852D01*
X001120Y027902D01*
X001711Y029556D02*
X001783Y029554D01*
X001855Y029548D01*
X001927Y029539D01*
X001998Y029526D01*
X002068Y029509D01*
X002137Y029489D01*
X002205Y029464D01*
X002271Y029437D01*
X002337Y029406D01*
X002400Y029371D01*
X002462Y029334D01*
X002521Y029293D01*
X002578Y029249D01*
X002633Y029202D01*
X002685Y029152D01*
X002735Y029100D01*
X002782Y029045D01*
X002826Y028988D01*
X002867Y028929D01*
X002904Y028867D01*
X002939Y028804D01*
X002970Y028738D01*
X002997Y028672D01*
X003022Y028604D01*
X003042Y028535D01*
X003059Y028465D01*
X003072Y028394D01*
X003081Y028322D01*
X003087Y028250D01*
X003089Y028178D01*
X001711Y029556D02*
X001641Y029554D01*
X001571Y029548D01*
X001501Y029539D01*
X001432Y029526D01*
X001363Y029509D01*
X001296Y029488D01*
X001230Y029464D01*
X001166Y029436D01*
X001103Y029405D01*
X001041Y029370D01*
X000982Y029332D01*
X000925Y029291D01*
X000870Y029247D01*
X000818Y029200D01*
X000768Y029150D01*
X000721Y029098D01*
X000677Y029043D01*
X000636Y028986D01*
X000598Y028927D01*
X000563Y028865D01*
X000532Y028802D01*
X000504Y028738D01*
X000480Y028672D01*
X000459Y028605D01*
X000442Y028536D01*
X000429Y028467D01*
X000420Y028397D01*
X000414Y028327D01*
X000412Y028257D01*
X000411Y028257D02*
X000411Y025580D01*
X000136Y025580D01*
X000136Y003690D01*
X000274Y003690D01*
X000274Y001485D01*
X000982Y001524D02*
X000984Y001574D01*
X000990Y001624D01*
X001000Y001673D01*
X001014Y001721D01*
X001031Y001768D01*
X001052Y001813D01*
X001077Y001857D01*
X001105Y001898D01*
X001137Y001937D01*
X001171Y001974D01*
X001208Y002008D01*
X001248Y002038D01*
X001290Y002065D01*
X001334Y002089D01*
X001380Y002110D01*
X001427Y002126D01*
X001475Y002139D01*
X001525Y002148D01*
X001574Y002153D01*
X001625Y002154D01*
X001675Y002151D01*
X001724Y002144D01*
X001773Y002133D01*
X001821Y002118D01*
X001867Y002100D01*
X001912Y002078D01*
X001955Y002052D01*
X001996Y002023D01*
X002035Y001991D01*
X002071Y001956D01*
X002103Y001918D01*
X002133Y001878D01*
X002160Y001835D01*
X002183Y001791D01*
X002202Y001745D01*
X002218Y001697D01*
X002230Y001648D01*
X002238Y001599D01*
X002242Y001549D01*
X002242Y001499D01*
X002238Y001449D01*
X002230Y001400D01*
X002218Y001351D01*
X002202Y001303D01*
X002183Y001257D01*
X002160Y001213D01*
X002133Y001170D01*
X002103Y001130D01*
X002071Y001092D01*
X002035Y001057D01*
X001996Y001025D01*
X001955Y000996D01*
X001912Y000970D01*
X001867Y000948D01*
X001821Y000930D01*
X001773Y000915D01*
X001724Y000904D01*
X001675Y000897D01*
X001625Y000894D01*
X001574Y000895D01*
X001525Y000900D01*
X001475Y000909D01*
X001427Y000922D01*
X001380Y000938D01*
X001334Y000959D01*
X001290Y000983D01*
X001248Y001010D01*
X001208Y001040D01*
X001171Y001074D01*
X001137Y001111D01*
X001105Y001150D01*
X001077Y001191D01*
X001052Y001235D01*
X001031Y001280D01*
X001014Y001327D01*
X001000Y001375D01*
X000990Y001424D01*
X000984Y001474D01*
X000982Y001524D01*
X000274Y001485D02*
X000276Y001413D01*
X000282Y001341D01*
X000291Y001269D01*
X000304Y001198D01*
X000321Y001128D01*
X000341Y001059D01*
X000366Y000991D01*
X000393Y000925D01*
X000424Y000859D01*
X000459Y000796D01*
X000496Y000734D01*
X000537Y000675D01*
X000581Y000618D01*
X000628Y000563D01*
X000678Y000511D01*
X000730Y000461D01*
X000785Y000414D01*
X000842Y000370D01*
X000901Y000329D01*
X000963Y000292D01*
X001026Y000257D01*
X001092Y000226D01*
X001158Y000199D01*
X001226Y000174D01*
X001295Y000154D01*
X001365Y000137D01*
X001436Y000124D01*
X001508Y000115D01*
X001580Y000109D01*
X001652Y000107D01*
X023266Y004635D02*
X023268Y004666D01*
X023274Y004697D01*
X023283Y004727D01*
X023296Y004756D01*
X023313Y004783D01*
X023333Y004807D01*
X023355Y004829D01*
X023381Y004848D01*
X023408Y004864D01*
X023437Y004876D01*
X023467Y004885D01*
X023498Y004890D01*
X023530Y004891D01*
X023561Y004888D01*
X023592Y004881D01*
X023622Y004871D01*
X023650Y004857D01*
X023676Y004839D01*
X023700Y004819D01*
X023721Y004795D01*
X023740Y004770D01*
X023755Y004742D01*
X023766Y004713D01*
X023774Y004682D01*
X023778Y004651D01*
X023778Y004619D01*
X023774Y004588D01*
X023766Y004557D01*
X023755Y004528D01*
X023740Y004500D01*
X023721Y004475D01*
X023700Y004451D01*
X023676Y004431D01*
X023650Y004413D01*
X023622Y004399D01*
X023592Y004389D01*
X023561Y004382D01*
X023530Y004379D01*
X023498Y004380D01*
X023467Y004385D01*
X023437Y004394D01*
X023408Y004406D01*
X023381Y004422D01*
X023355Y004441D01*
X023333Y004463D01*
X023313Y004487D01*
X023296Y004514D01*
X023283Y004543D01*
X023274Y004573D01*
X023268Y004604D01*
X023266Y004635D01*
X023502Y006564D02*
X023504Y006595D01*
X023510Y006626D01*
X023519Y006656D01*
X023532Y006685D01*
X023549Y006712D01*
X023569Y006736D01*
X023591Y006758D01*
X023617Y006777D01*
X023644Y006793D01*
X023673Y006805D01*
X023703Y006814D01*
X023734Y006819D01*
X023766Y006820D01*
X023797Y006817D01*
X023828Y006810D01*
X023858Y006800D01*
X023886Y006786D01*
X023912Y006768D01*
X023936Y006748D01*
X023957Y006724D01*
X023976Y006699D01*
X023991Y006671D01*
X024002Y006642D01*
X024010Y006611D01*
X024014Y006580D01*
X024014Y006548D01*
X024010Y006517D01*
X024002Y006486D01*
X023991Y006457D01*
X023976Y006429D01*
X023957Y006404D01*
X023936Y006380D01*
X023912Y006360D01*
X023886Y006342D01*
X023858Y006328D01*
X023828Y006318D01*
X023797Y006311D01*
X023766Y006308D01*
X023734Y006309D01*
X023703Y006314D01*
X023673Y006323D01*
X023644Y006335D01*
X023617Y006351D01*
X023591Y006370D01*
X023569Y006392D01*
X023549Y006416D01*
X023532Y006443D01*
X023519Y006472D01*
X023510Y006502D01*
X023504Y006533D01*
X023502Y006564D01*
X029211Y006564D02*
X029213Y006595D01*
X029219Y006626D01*
X029228Y006656D01*
X029241Y006685D01*
X029258Y006712D01*
X029278Y006736D01*
X029300Y006758D01*
X029326Y006777D01*
X029353Y006793D01*
X029382Y006805D01*
X029412Y006814D01*
X029443Y006819D01*
X029475Y006820D01*
X029506Y006817D01*
X029537Y006810D01*
X029567Y006800D01*
X029595Y006786D01*
X029621Y006768D01*
X029645Y006748D01*
X029666Y006724D01*
X029685Y006699D01*
X029700Y006671D01*
X029711Y006642D01*
X029719Y006611D01*
X029723Y006580D01*
X029723Y006548D01*
X029719Y006517D01*
X029711Y006486D01*
X029700Y006457D01*
X029685Y006429D01*
X029666Y006404D01*
X029645Y006380D01*
X029621Y006360D01*
X029595Y006342D01*
X029567Y006328D01*
X029537Y006318D01*
X029506Y006311D01*
X029475Y006308D01*
X029443Y006309D01*
X029412Y006314D01*
X029382Y006323D01*
X029353Y006335D01*
X029326Y006351D01*
X029300Y006370D01*
X029278Y006392D01*
X029258Y006416D01*
X029241Y006443D01*
X029228Y006472D01*
X029219Y006502D01*
X029213Y006533D01*
X029211Y006564D01*
X029447Y004635D02*
X029449Y004666D01*
X029455Y004697D01*
X029464Y004727D01*
X029477Y004756D01*
X029494Y004783D01*
X029514Y004807D01*
X029536Y004829D01*
X029562Y004848D01*
X029589Y004864D01*
X029618Y004876D01*
X029648Y004885D01*
X029679Y004890D01*
X029711Y004891D01*
X029742Y004888D01*
X029773Y004881D01*
X029803Y004871D01*
X029831Y004857D01*
X029857Y004839D01*
X029881Y004819D01*
X029902Y004795D01*
X029921Y004770D01*
X029936Y004742D01*
X029947Y004713D01*
X029955Y004682D01*
X029959Y004651D01*
X029959Y004619D01*
X029955Y004588D01*
X029947Y004557D01*
X029936Y004528D01*
X029921Y004500D01*
X029902Y004475D01*
X029881Y004451D01*
X029857Y004431D01*
X029831Y004413D01*
X029803Y004399D01*
X029773Y004389D01*
X029742Y004382D01*
X029711Y004379D01*
X029679Y004380D01*
X029648Y004385D01*
X029618Y004394D01*
X029589Y004406D01*
X029562Y004422D01*
X029536Y004441D01*
X029514Y004463D01*
X029494Y004487D01*
X029477Y004514D01*
X029464Y004543D01*
X029455Y004573D01*
X029449Y004604D01*
X029447Y004635D01*
D11*
X036888Y008683D02*
X037175Y008683D01*
X037763Y008683D02*
X038050Y008683D01*
X038050Y009844D02*
X037763Y009844D01*
X037175Y009844D02*
X036888Y009844D01*
X011091Y015549D02*
X008511Y015549D01*
X008511Y016949D01*
X011091Y016949D01*
X011091Y015549D01*
X002234Y016175D02*
X001313Y016175D01*
X001313Y016636D01*
X001466Y016789D01*
X001773Y016789D01*
X001927Y016636D01*
X001927Y016175D01*
X001927Y015868D02*
X001466Y015868D01*
X001313Y015715D01*
X001313Y015408D01*
X001620Y015408D02*
X001620Y015868D01*
X001927Y015868D02*
X001927Y015408D01*
X001773Y015255D01*
X001620Y015408D01*
X001927Y014948D02*
X001927Y014487D01*
X001773Y014334D01*
X001466Y014334D01*
X001313Y014487D01*
X001313Y014948D01*
X001927Y014027D02*
X001927Y013720D01*
X001927Y013873D02*
X001313Y013873D01*
X001313Y013720D01*
X001006Y013873D02*
X000852Y013873D01*
X001006Y013260D02*
X001927Y013260D01*
X001927Y013413D02*
X001927Y013106D01*
X001773Y012799D02*
X001466Y012799D01*
X001313Y012646D01*
X001313Y012185D01*
X002234Y012185D01*
X001927Y012185D02*
X001927Y012646D01*
X001773Y012799D01*
X001006Y013106D02*
X001006Y013260D01*
X001466Y011879D02*
X001620Y011879D01*
X001620Y011265D01*
X001773Y011265D02*
X001466Y011265D01*
X001313Y011418D01*
X001313Y011725D01*
X001466Y011879D01*
X001927Y011725D02*
X001927Y011418D01*
X001773Y011265D01*
X001927Y010958D02*
X001620Y010651D01*
X001620Y010804D02*
X001466Y010958D01*
X001159Y010958D01*
X001006Y010804D01*
X001006Y010344D01*
X001927Y010344D01*
X001620Y010344D02*
X001620Y010804D01*
X001620Y017096D02*
X001620Y017710D01*
X001466Y017710D01*
X001313Y017556D01*
X001313Y017249D01*
X001466Y017096D01*
X001773Y017096D01*
X001927Y017249D01*
X001927Y017556D01*
X001773Y018938D02*
X001466Y018938D01*
X001313Y019091D01*
X001313Y019551D01*
X001006Y019551D02*
X001927Y019551D01*
X001927Y019091D01*
X001773Y018938D01*
X001927Y019858D02*
X001927Y020165D01*
X001927Y020012D02*
X001313Y020012D01*
X001313Y019858D01*
X001006Y020012D02*
X000852Y020012D01*
X001466Y020472D02*
X001313Y020626D01*
X001313Y021086D01*
X001620Y020932D02*
X001620Y020626D01*
X001466Y020472D01*
X001927Y020472D02*
X001927Y020932D01*
X001773Y021086D01*
X001620Y020932D01*
X001927Y021393D02*
X001927Y021853D01*
X001773Y022007D01*
X001466Y022007D01*
X001313Y021853D01*
X001313Y021393D01*
X002234Y021393D01*
X001927Y022314D02*
X001927Y022621D01*
X001927Y022467D02*
X001006Y022467D01*
X001006Y022314D01*
X001313Y023081D02*
X001313Y023388D01*
X001466Y023541D01*
X001927Y023541D01*
X001927Y023081D01*
X001773Y022927D01*
X001620Y023081D01*
X001620Y023541D01*
X001773Y023848D02*
X001313Y023848D01*
X001773Y023848D02*
X001927Y024002D01*
X001927Y024462D01*
X002080Y024462D02*
X002234Y024309D01*
X002234Y024155D01*
X002080Y024462D02*
X001313Y024462D01*
D12*
X002714Y012182D02*
X002907Y011989D01*
X002956Y012037D01*
X002956Y012134D01*
X002907Y012182D01*
X002714Y012182D01*
X002665Y012134D01*
X002665Y012037D01*
X002714Y011989D01*
X002907Y011989D01*
X002956Y011888D02*
X002762Y011888D01*
X002665Y011791D01*
X002762Y011694D01*
X002956Y011694D01*
X002810Y011694D02*
X002810Y011888D01*
X002762Y011299D02*
X002956Y011202D01*
X002762Y011105D01*
X002810Y011004D02*
X002762Y010956D01*
X002762Y010859D01*
X002810Y010810D01*
X002907Y010810D01*
X002956Y010859D01*
X002956Y010956D01*
X002859Y011004D02*
X002859Y010810D01*
X002810Y010709D02*
X002859Y010661D01*
X002859Y010516D01*
X002859Y010613D02*
X002956Y010709D01*
X002810Y010709D02*
X002714Y010709D01*
X002665Y010661D01*
X002665Y010516D01*
X002956Y010516D01*
X002859Y011004D02*
X002810Y011004D01*
X016609Y003960D02*
X016609Y003719D01*
X016658Y003670D01*
X016755Y003670D01*
X016803Y003719D01*
X016803Y003960D01*
X016904Y003912D02*
X016952Y003960D01*
X017049Y003960D01*
X017098Y003912D01*
X017199Y003912D02*
X017247Y003960D01*
X017344Y003960D01*
X017392Y003912D01*
X017392Y003864D01*
X017199Y003670D01*
X017392Y003670D01*
X017098Y003719D02*
X017098Y003767D01*
X017049Y003815D01*
X016952Y003815D01*
X016904Y003864D01*
X016904Y003912D01*
X017001Y004009D02*
X017001Y003622D01*
X017049Y003670D02*
X017098Y003719D01*
X017049Y003670D02*
X016952Y003670D01*
X016904Y003719D01*
X023826Y007666D02*
X023874Y007618D01*
X024068Y007618D01*
X024116Y007666D01*
X024116Y007763D01*
X024068Y007812D01*
X024116Y007913D02*
X023923Y008106D01*
X023874Y008106D01*
X023826Y008058D01*
X023826Y007961D01*
X023874Y007913D01*
X023874Y007812D02*
X023826Y007763D01*
X023826Y007666D01*
X024116Y007913D02*
X024116Y008106D01*
X024068Y008207D02*
X024116Y008256D01*
X024116Y008352D01*
X024068Y008401D01*
X023971Y008401D01*
X023923Y008352D01*
X023923Y008304D01*
X023971Y008207D01*
X023826Y008207D01*
X023826Y008401D01*
X024830Y008354D02*
X024878Y008306D01*
X025072Y008306D01*
X024878Y008499D01*
X025072Y008499D01*
X025120Y008451D01*
X025120Y008354D01*
X025072Y008306D01*
X025120Y008205D02*
X025120Y008011D01*
X025120Y008108D02*
X024830Y008108D01*
X024927Y008011D01*
X024878Y007910D02*
X024830Y007862D01*
X024830Y007765D01*
X024878Y007716D01*
X025072Y007716D01*
X025120Y007765D01*
X025120Y007862D01*
X025072Y007910D01*
X025263Y007862D02*
X025263Y007765D01*
X025311Y007716D01*
X025505Y007716D01*
X025553Y007765D01*
X025553Y007862D01*
X025505Y007910D01*
X025553Y008011D02*
X025553Y008205D01*
X025553Y008108D02*
X025263Y008108D01*
X025360Y008011D01*
X025311Y007910D02*
X025263Y007862D01*
X025360Y008306D02*
X025263Y008403D01*
X025553Y008403D01*
X025553Y008499D02*
X025553Y008306D01*
X025952Y008354D02*
X026000Y008306D01*
X025952Y008354D02*
X025952Y008451D01*
X026000Y008499D01*
X026049Y008499D01*
X026242Y008306D01*
X026242Y008499D01*
X026242Y008205D02*
X026242Y008011D01*
X026242Y008108D02*
X025952Y008108D01*
X026049Y008011D01*
X026000Y007910D02*
X025952Y007862D01*
X025952Y007765D01*
X026000Y007716D01*
X026194Y007716D01*
X026242Y007765D01*
X026242Y007862D01*
X026194Y007910D01*
X026956Y008513D02*
X027004Y008465D01*
X027198Y008465D01*
X027246Y008513D01*
X027246Y008610D01*
X027198Y008658D01*
X027246Y008759D02*
X027246Y008953D01*
X027246Y008856D02*
X026956Y008856D01*
X027053Y008759D01*
X027004Y008658D02*
X026956Y008610D01*
X026956Y008513D01*
X027204Y008311D02*
X027204Y008117D01*
X027252Y008069D01*
X027349Y008069D01*
X027398Y008117D01*
X027499Y008069D02*
X027692Y008069D01*
X027595Y008069D02*
X027595Y008359D01*
X027499Y008262D01*
X027398Y008311D02*
X027349Y008359D01*
X027252Y008359D01*
X027204Y008311D01*
X027793Y008359D02*
X027987Y008359D01*
X027987Y008311D01*
X027793Y008117D01*
X027793Y008069D01*
X028865Y008582D02*
X028865Y008727D01*
X028914Y008775D01*
X029010Y008775D01*
X029059Y008727D01*
X029059Y008582D01*
X029155Y008582D02*
X028865Y008582D01*
X029059Y008679D02*
X029155Y008775D01*
X029107Y008877D02*
X029155Y008925D01*
X029155Y009022D01*
X029107Y009070D01*
X028914Y009070D01*
X028865Y009022D01*
X028865Y008925D01*
X028914Y008877D01*
X028962Y008877D01*
X029010Y008925D01*
X029010Y009070D01*
X027246Y009199D02*
X026956Y009199D01*
X027101Y009054D01*
X027101Y009247D01*
X024878Y008499D02*
X024830Y008451D01*
X024830Y008354D01*
X026692Y005899D02*
X026837Y005899D01*
X026886Y005850D01*
X026886Y005753D01*
X026837Y005705D01*
X026692Y005705D01*
X026692Y005608D02*
X026692Y005899D01*
X026789Y005705D02*
X026886Y005608D01*
X026987Y005608D02*
X027180Y005608D01*
X027084Y005608D02*
X027084Y005899D01*
X026987Y005802D01*
X027282Y005802D02*
X027282Y005850D01*
X027330Y005899D01*
X027427Y005899D01*
X027475Y005850D01*
X027475Y005802D01*
X027427Y005753D01*
X027330Y005753D01*
X027282Y005802D01*
X027330Y005753D02*
X027282Y005705D01*
X027282Y005657D01*
X027330Y005608D01*
X027427Y005608D01*
X027475Y005657D01*
X027475Y005705D01*
X027427Y005753D01*
X029621Y010647D02*
X029935Y010961D01*
X029778Y010961D02*
X029778Y010647D01*
X029935Y010647D02*
X029621Y010961D01*
X029621Y010804D02*
X029935Y010804D01*
X030914Y011908D02*
X031011Y011908D01*
X031059Y011956D01*
X031160Y011956D02*
X031208Y011908D01*
X031305Y011908D01*
X031354Y011956D01*
X031354Y012149D01*
X031305Y012198D01*
X031208Y012198D01*
X031160Y012149D01*
X031160Y012101D01*
X031208Y012053D01*
X031354Y012053D01*
X031059Y012149D02*
X031011Y012198D01*
X030914Y012198D01*
X030865Y012149D01*
X030865Y011956D01*
X030914Y011908D01*
X030964Y012380D02*
X030964Y012670D01*
X031109Y012670D01*
X031157Y012622D01*
X031157Y012525D01*
X031109Y012477D01*
X030964Y012477D01*
X031061Y012477D02*
X031157Y012380D01*
X031259Y012380D02*
X031452Y012380D01*
X031355Y012380D02*
X031355Y012670D01*
X031259Y012573D01*
X031553Y012622D02*
X031553Y012428D01*
X031747Y012622D01*
X031747Y012428D01*
X031698Y012380D01*
X031602Y012380D01*
X031553Y012428D01*
X031553Y012622D02*
X031602Y012670D01*
X031698Y012670D01*
X031747Y012622D01*
X031305Y014250D02*
X031354Y014298D01*
X031354Y014347D01*
X031305Y014395D01*
X031160Y014395D01*
X031160Y014298D01*
X031208Y014250D01*
X031305Y014250D01*
X031160Y014395D02*
X031257Y014492D01*
X031354Y014540D01*
X031059Y014492D02*
X031011Y014540D01*
X030914Y014540D01*
X030865Y014492D01*
X030865Y014298D01*
X030914Y014250D01*
X031011Y014250D01*
X031059Y014298D01*
X028012Y018081D02*
X027818Y018081D01*
X027770Y018129D01*
X027770Y018226D01*
X027818Y018274D01*
X027770Y018375D02*
X027915Y018375D01*
X027866Y018472D01*
X027866Y018521D01*
X027915Y018569D01*
X028012Y018569D01*
X028060Y018521D01*
X028060Y018424D01*
X028012Y018375D01*
X028012Y018274D02*
X028060Y018226D01*
X028060Y018129D01*
X028012Y018081D01*
X027770Y018375D02*
X027770Y018569D01*
X026328Y018474D02*
X026279Y018474D01*
X026086Y018667D01*
X026037Y018667D01*
X026037Y018474D01*
X026086Y018373D02*
X026037Y018324D01*
X026037Y018228D01*
X026086Y018179D01*
X026279Y018179D01*
X026328Y018228D01*
X026328Y018324D01*
X026279Y018373D01*
X025304Y018364D02*
X025256Y018412D01*
X025304Y018364D02*
X025304Y018267D01*
X025256Y018219D01*
X025062Y018219D01*
X025014Y018267D01*
X025014Y018364D01*
X025062Y018412D01*
X025159Y018513D02*
X025014Y018658D01*
X025304Y018658D01*
X025159Y018707D02*
X025159Y018513D01*
X022686Y016651D02*
X022686Y016360D01*
X022589Y016360D02*
X022783Y016360D01*
X022589Y016554D02*
X022686Y016651D01*
X022488Y016651D02*
X022488Y016409D01*
X022440Y016360D01*
X022343Y016360D01*
X022295Y016409D01*
X022295Y016651D01*
X022279Y014331D02*
X022182Y014331D01*
X022134Y014282D01*
X022033Y014282D02*
X021984Y014331D01*
X021888Y014331D01*
X021839Y014282D01*
X021839Y014089D01*
X021888Y014040D01*
X021984Y014040D01*
X022033Y014089D01*
X022134Y014089D02*
X022182Y014040D01*
X022279Y014040D01*
X022327Y014089D01*
X022327Y014137D01*
X022279Y014185D01*
X022231Y014185D01*
X022279Y014185D02*
X022327Y014234D01*
X022327Y014282D01*
X022279Y014331D01*
X022240Y012362D02*
X022288Y012314D01*
X022288Y012265D01*
X022240Y012217D01*
X022143Y012217D01*
X022094Y012265D01*
X022094Y012314D01*
X022143Y012362D01*
X022240Y012362D01*
X022240Y012217D02*
X022288Y012169D01*
X022288Y012120D01*
X022240Y012072D01*
X022143Y012072D01*
X022094Y012120D01*
X022094Y012169D01*
X022143Y012217D01*
X021993Y012314D02*
X021945Y012362D01*
X021848Y012362D01*
X021800Y012314D01*
X021800Y012120D01*
X021848Y012072D01*
X021945Y012072D01*
X021993Y012120D01*
X035234Y009527D02*
X035331Y009431D01*
X035282Y009329D02*
X035234Y009281D01*
X035234Y009184D01*
X035282Y009136D01*
X035476Y009136D01*
X035524Y009184D01*
X035524Y009281D01*
X035476Y009329D01*
X035524Y009431D02*
X035524Y009624D01*
X035524Y009527D02*
X035234Y009527D01*
X036368Y008008D02*
X036513Y008008D01*
X036561Y007959D01*
X036561Y007863D01*
X036513Y007814D01*
X036368Y007814D01*
X036368Y007717D02*
X036368Y008008D01*
X036465Y007814D02*
X036561Y007717D01*
X036663Y007717D02*
X036856Y007717D01*
X036759Y007717D02*
X036759Y008008D01*
X036663Y007911D01*
X038271Y009477D02*
X038271Y009574D01*
X038271Y009525D02*
X038562Y009525D01*
X038562Y009477D02*
X038562Y009574D01*
X038513Y009673D02*
X038562Y009722D01*
X038562Y009819D01*
X038513Y009867D01*
X038562Y009968D02*
X038562Y010162D01*
X038562Y010065D02*
X038271Y010065D01*
X038368Y009968D01*
X038320Y009867D02*
X038271Y009819D01*
X038271Y009722D01*
X038320Y009673D01*
X038513Y009673D01*
X038845Y010376D02*
X039039Y010376D01*
X039087Y010425D01*
X039087Y010521D01*
X039039Y010570D01*
X039087Y010671D02*
X038894Y010864D01*
X038845Y010864D01*
X038797Y010816D01*
X038797Y010719D01*
X038845Y010671D01*
X038845Y010570D02*
X038797Y010521D01*
X038797Y010425D01*
X038845Y010376D01*
X039087Y010671D02*
X039087Y010864D01*
X037301Y011485D02*
X037108Y011485D01*
X037204Y011485D02*
X037204Y011775D01*
X037108Y011679D01*
X037006Y011485D02*
X036813Y011485D01*
X036813Y011775D01*
X036841Y011974D02*
X037035Y011974D01*
X036938Y011974D02*
X036938Y012265D01*
X036841Y012168D01*
X036740Y012216D02*
X036740Y012023D01*
X036692Y011974D01*
X036595Y011974D01*
X036547Y012023D01*
X036547Y012216D01*
X036595Y012265D01*
X036692Y012265D01*
X036740Y012216D01*
X036643Y012071D02*
X036740Y011974D01*
X037868Y013927D02*
X037868Y014072D01*
X037916Y014121D01*
X038013Y014121D01*
X038062Y014072D01*
X038062Y013927D01*
X038158Y013927D02*
X037868Y013927D01*
X038062Y014024D02*
X038158Y014121D01*
X038110Y014222D02*
X038158Y014270D01*
X038158Y014367D01*
X038110Y014415D01*
X038062Y014415D01*
X038013Y014367D01*
X038013Y014319D01*
X038013Y014367D02*
X037965Y014415D01*
X037916Y014415D01*
X037868Y014367D01*
X037868Y014270D01*
X037916Y014222D01*
X038537Y014270D02*
X038586Y014222D01*
X038537Y014270D02*
X038537Y014367D01*
X038586Y014415D01*
X038634Y014415D01*
X038828Y014222D01*
X038828Y014415D01*
X038828Y014121D02*
X038731Y014024D01*
X038731Y014072D02*
X038731Y013927D01*
X038828Y013927D02*
X038537Y013927D01*
X038537Y014072D01*
X038586Y014121D01*
X038682Y014121D01*
X038731Y014072D01*
X036511Y014297D02*
X036318Y014297D01*
X036463Y014442D01*
X036463Y014152D01*
X036216Y014152D02*
X036120Y014248D01*
X036168Y014248D02*
X036023Y014248D01*
X036023Y014152D02*
X036023Y014442D01*
X036168Y014442D01*
X036216Y014393D01*
X036216Y014297D01*
X036168Y014248D01*
X030301Y022528D02*
X030204Y022528D01*
X030155Y022577D01*
X030054Y022577D02*
X030054Y022625D01*
X030006Y022674D01*
X029909Y022674D01*
X029861Y022722D01*
X029861Y022770D01*
X029909Y022819D01*
X030006Y022819D01*
X030054Y022770D01*
X030155Y022770D02*
X030204Y022819D01*
X030301Y022819D01*
X030349Y022770D01*
X030349Y022722D01*
X030301Y022674D01*
X030349Y022625D01*
X030349Y022577D01*
X030301Y022528D01*
X030301Y022674D02*
X030252Y022674D01*
X030054Y022577D02*
X030006Y022528D01*
X029909Y022528D01*
X029861Y022577D01*
X029760Y022577D02*
X029711Y022528D01*
X029615Y022528D01*
X029566Y022577D01*
X029566Y022819D01*
X029760Y022819D02*
X029760Y022577D01*
X029958Y022480D02*
X029958Y022867D01*
X038261Y023231D02*
X038310Y023183D01*
X038358Y023183D01*
X038406Y023231D01*
X038406Y023328D01*
X038455Y023376D01*
X038503Y023376D01*
X038552Y023328D01*
X038552Y023231D01*
X038503Y023183D01*
X038261Y023231D02*
X038261Y023328D01*
X038310Y023376D01*
X038261Y023478D02*
X038455Y023478D01*
X038552Y023574D01*
X038455Y023671D01*
X038261Y023671D01*
X038310Y023772D02*
X038261Y023821D01*
X038261Y023917D01*
X038310Y023966D01*
X038358Y023966D01*
X038552Y023772D01*
X038552Y023966D01*
D13*
X038097Y023802D02*
X037847Y024052D01*
X037347Y024052D01*
X037097Y023802D01*
X037097Y023302D01*
X037347Y023052D01*
X037097Y022802D01*
X037097Y022302D01*
X037347Y022052D01*
X037097Y021802D01*
X037097Y021302D01*
X037347Y021052D01*
X037097Y020802D01*
X037097Y020302D01*
X037347Y020052D01*
X037097Y019802D01*
X037097Y019302D01*
X037347Y019052D01*
X037097Y018802D01*
X037097Y018302D01*
X037347Y018052D01*
X037847Y018052D01*
X038097Y018302D01*
X038097Y018802D01*
X037847Y019052D01*
X038097Y019302D01*
X038097Y019802D01*
X037847Y020052D01*
X038097Y020302D01*
X038097Y020802D01*
X037847Y021052D01*
X038097Y021302D01*
X038097Y021802D01*
X037847Y022052D01*
X038097Y022302D01*
X038097Y022802D01*
X037847Y023052D01*
X038097Y023302D01*
X038097Y023802D01*
X030435Y023333D02*
X030185Y023083D01*
X029685Y023083D01*
X029435Y023333D01*
X029435Y024833D01*
X029185Y025083D01*
X028685Y025083D01*
X028435Y024833D01*
X028435Y023333D01*
X028185Y023083D01*
X027685Y023083D01*
X027435Y023333D01*
X027435Y024833D01*
X027185Y025083D01*
X026685Y025083D01*
X026435Y024833D01*
X026435Y023333D01*
X026185Y023083D01*
X025685Y023083D01*
X025435Y023333D01*
X025435Y024833D01*
X025185Y025083D01*
X024685Y025083D01*
X024435Y024833D01*
X024435Y023333D01*
X024185Y023083D01*
X023685Y023083D01*
X023435Y023333D01*
X023435Y024833D01*
X023685Y025083D01*
X024185Y025083D01*
X024435Y024833D01*
X025435Y024833D02*
X025685Y025083D01*
X026185Y025083D01*
X026435Y024833D01*
X027435Y024833D02*
X027685Y025083D01*
X028185Y025083D01*
X028435Y024833D01*
X029435Y024833D02*
X029685Y025083D01*
X030185Y025083D01*
X030435Y024833D01*
X030435Y023333D01*
X029435Y023333D02*
X029185Y023083D01*
X028685Y023083D01*
X028435Y023333D01*
X027435Y023333D02*
X027185Y023083D01*
X026685Y023083D01*
X026435Y023333D01*
X025435Y023333D02*
X025185Y023083D01*
X024685Y023083D01*
X024435Y023333D01*
X023435Y023333D02*
X023185Y023083D01*
X022685Y023083D01*
X022435Y023333D01*
X022435Y024833D01*
X022685Y025083D01*
X023185Y025083D01*
X023435Y024833D01*
X022435Y024833D02*
X022185Y025083D01*
X021685Y025083D01*
X021435Y024833D01*
X021435Y023333D01*
X021185Y023083D01*
X020685Y023083D01*
X020435Y023333D01*
X020435Y024833D01*
X020685Y025083D01*
X021185Y025083D01*
X021435Y024833D01*
X020435Y024833D02*
X020185Y025083D01*
X019685Y025083D01*
X019435Y024833D01*
X019435Y023333D01*
X019185Y023083D01*
X018685Y023083D01*
X018435Y023333D01*
X018435Y024833D01*
X018685Y025083D01*
X019185Y025083D01*
X019435Y024833D01*
X018435Y024833D02*
X018185Y025083D01*
X017685Y025083D01*
X017435Y024833D01*
X017435Y023333D01*
X017185Y023083D01*
X016685Y023083D01*
X016435Y023333D01*
X016435Y024833D01*
X016685Y025083D01*
X017185Y025083D01*
X017435Y024833D01*
X016435Y024833D02*
X016185Y025083D01*
X015685Y025083D01*
X015435Y024833D01*
X015435Y023333D01*
X015185Y023083D01*
X014685Y023083D01*
X014435Y023333D01*
X014435Y024833D01*
X014685Y025083D01*
X015185Y025083D01*
X015435Y024833D01*
X014435Y024833D02*
X014185Y025083D01*
X013685Y025083D01*
X013435Y024833D01*
X013435Y023333D01*
X013185Y023083D01*
X012685Y023083D01*
X012435Y023333D01*
X012435Y024833D01*
X012685Y025083D01*
X013185Y025083D01*
X013435Y024833D01*
X012435Y024833D02*
X012185Y025083D01*
X011685Y025083D01*
X011435Y024833D01*
X011185Y025083D01*
X010685Y025083D01*
X010435Y024833D01*
X010185Y025083D01*
X009685Y025083D01*
X009435Y024833D01*
X009185Y025083D01*
X008685Y025083D01*
X008435Y024833D01*
X008185Y025083D01*
X007685Y025083D01*
X007435Y024833D01*
X007435Y023333D01*
X007685Y023083D01*
X008185Y023083D01*
X008435Y023333D01*
X008685Y023083D01*
X009185Y023083D01*
X009435Y023333D01*
X009685Y023083D01*
X010185Y023083D01*
X010435Y023333D01*
X010435Y024833D01*
X011435Y024833D02*
X011435Y023333D01*
X011185Y023083D01*
X010685Y023083D01*
X010435Y023333D01*
X011435Y023333D02*
X011685Y023083D01*
X012185Y023083D01*
X012435Y023333D01*
X013435Y023333D02*
X013685Y023083D01*
X014185Y023083D01*
X014435Y023333D01*
X015435Y023333D02*
X015685Y023083D01*
X016185Y023083D01*
X016435Y023333D01*
X017435Y023333D02*
X017685Y023083D01*
X018185Y023083D01*
X018435Y023333D01*
X019435Y023333D02*
X019685Y023083D01*
X020185Y023083D01*
X020435Y023333D01*
X021435Y023333D02*
X021685Y023083D01*
X022185Y023083D01*
X022435Y023333D01*
X023790Y017264D02*
X023790Y016874D01*
X023590Y016214D02*
X023340Y016214D01*
X023340Y015964D01*
X025750Y016874D02*
X025750Y017274D01*
X027710Y017264D02*
X027710Y016864D01*
X028690Y016214D02*
X028940Y016214D01*
X028940Y015964D01*
X029590Y014784D02*
X030000Y014784D01*
X030000Y012804D02*
X029600Y012804D01*
X028770Y010954D02*
X028600Y010784D01*
X028690Y010614D02*
X028940Y010614D01*
X028940Y010864D01*
X028500Y009954D02*
X028500Y009564D01*
X026530Y009554D02*
X026530Y009954D01*
X024560Y009954D02*
X024560Y009554D01*
X023590Y010614D02*
X023340Y010614D01*
X023340Y010864D01*
X022680Y012034D02*
X022290Y012034D01*
X017228Y006225D02*
X016728Y006225D01*
X016478Y005975D01*
X016478Y004475D01*
X016228Y004225D01*
X015728Y004225D01*
X015478Y004475D01*
X015478Y005975D01*
X015728Y006225D01*
X016228Y006225D01*
X016478Y005975D01*
X017228Y006225D02*
X017478Y005975D01*
X017478Y004475D01*
X017228Y004225D01*
X016728Y004225D01*
X016478Y004475D01*
X015478Y004475D02*
X015228Y004225D01*
X014728Y004225D01*
X014478Y004475D01*
X014478Y005975D01*
X014728Y006225D01*
X015228Y006225D01*
X015478Y005975D01*
X014478Y005975D02*
X014228Y006225D01*
X013728Y006225D01*
X013478Y005975D01*
X013478Y004475D01*
X013228Y004225D01*
X012728Y004225D01*
X012478Y004475D01*
X012478Y005975D01*
X012728Y006225D01*
X013228Y006225D01*
X013478Y005975D01*
X012478Y005975D02*
X012228Y006225D01*
X011728Y006225D01*
X011478Y005975D01*
X011228Y006225D01*
X010728Y006225D01*
X010478Y005975D01*
X010228Y006225D01*
X009728Y006225D01*
X009478Y005975D01*
X009228Y006225D01*
X008728Y006225D01*
X008478Y005975D01*
X008228Y006225D01*
X007728Y006225D01*
X007478Y005975D01*
X007478Y004475D01*
X007728Y004225D01*
X008228Y004225D01*
X008478Y004475D01*
X008728Y004225D01*
X009228Y004225D01*
X009478Y004475D01*
X009728Y004225D01*
X010228Y004225D01*
X010478Y004475D01*
X010478Y005975D01*
X011478Y005975D02*
X011478Y004475D01*
X011228Y004225D01*
X010728Y004225D01*
X010478Y004475D01*
X011478Y004475D02*
X011728Y004225D01*
X012228Y004225D01*
X012478Y004475D01*
X013478Y004475D02*
X013728Y004225D01*
X014228Y004225D01*
X014478Y004475D01*
X009478Y004475D02*
X009478Y005975D01*
X008478Y005975D02*
X008478Y004475D01*
X008435Y023333D02*
X008435Y024833D01*
X009435Y024833D02*
X009435Y023333D01*
D14*
X007052Y023430D02*
X007052Y023507D01*
X006975Y023584D01*
X006745Y023584D01*
X006745Y023430D01*
X006821Y023353D01*
X006975Y023353D01*
X007052Y023430D01*
X006898Y023737D02*
X006745Y023584D01*
X006591Y023584D02*
X006284Y023584D01*
X006515Y023814D01*
X006515Y023353D01*
X006898Y023737D02*
X007052Y023814D01*
X006975Y024353D02*
X006821Y024353D01*
X006745Y024430D01*
X006745Y024584D02*
X006898Y024660D01*
X006975Y024660D01*
X007052Y024584D01*
X007052Y024430D01*
X006975Y024353D01*
X006745Y024584D02*
X006745Y024814D01*
X007052Y024814D01*
X006591Y024584D02*
X006284Y024584D01*
X006515Y024814D01*
X006515Y024353D01*
X008821Y016749D02*
X008975Y016749D01*
X008898Y016749D02*
X008898Y016289D01*
X008821Y016289D02*
X008975Y016289D01*
X009128Y016366D02*
X009205Y016289D01*
X009358Y016289D01*
X009435Y016366D01*
X009589Y016289D02*
X009895Y016596D01*
X009895Y016672D01*
X009819Y016749D01*
X009665Y016749D01*
X009589Y016672D01*
X009435Y016672D02*
X009358Y016749D01*
X009205Y016749D01*
X009128Y016672D01*
X009128Y016366D01*
X009589Y016289D02*
X009895Y016289D01*
X010484Y013078D02*
X010484Y012771D01*
X010714Y012771D01*
X010638Y012924D01*
X010638Y013001D01*
X010714Y013078D01*
X010868Y013078D01*
X010945Y013001D01*
X010945Y012848D01*
X010868Y012771D01*
X010945Y012618D02*
X010945Y012311D01*
X010945Y012464D02*
X010484Y012464D01*
X010638Y012311D01*
X010561Y012157D02*
X010484Y012080D01*
X010484Y011927D01*
X010561Y011850D01*
X010868Y011850D01*
X010945Y011927D01*
X010945Y012080D01*
X010868Y012157D01*
X009994Y012198D02*
X009994Y011891D01*
X009994Y012045D02*
X009534Y012045D01*
X009687Y011891D01*
X009610Y011738D02*
X009534Y011661D01*
X009534Y011508D01*
X009610Y011431D01*
X009917Y011431D01*
X009994Y011508D01*
X009994Y011661D01*
X009917Y011738D01*
X009917Y012352D02*
X009994Y012428D01*
X009994Y012582D01*
X009917Y012659D01*
X009840Y012659D01*
X009764Y012582D01*
X009764Y012352D01*
X009917Y012352D01*
X009764Y012352D02*
X009610Y012505D01*
X009534Y012659D01*
X007095Y005956D02*
X006788Y005956D01*
X006788Y005725D01*
X006941Y005802D01*
X007018Y005802D01*
X007095Y005725D01*
X007095Y005572D01*
X007018Y005495D01*
X006865Y005495D01*
X006788Y005572D01*
X006635Y005725D02*
X006328Y005725D01*
X006558Y005956D01*
X006558Y005495D01*
X006558Y004956D02*
X006328Y004725D01*
X006635Y004725D01*
X006788Y004725D02*
X006941Y004879D01*
X007095Y004956D01*
X007018Y004725D02*
X006788Y004725D01*
X006788Y004572D01*
X006865Y004495D01*
X007018Y004495D01*
X007095Y004572D01*
X007095Y004649D01*
X007018Y004725D01*
X006558Y004495D02*
X006558Y004956D01*
X030495Y023353D02*
X030802Y023660D01*
X030802Y023737D01*
X030725Y023814D01*
X030571Y023814D01*
X030495Y023737D01*
X030495Y023353D02*
X030802Y023353D01*
X030802Y024353D02*
X030495Y024353D01*
X030648Y024353D02*
X030648Y024814D01*
X030495Y024660D01*
D15*
X036471Y023517D02*
X036922Y023517D01*
X036922Y023367D02*
X036922Y023667D01*
X036621Y023367D02*
X036471Y023517D01*
X038271Y018667D02*
X038346Y018517D01*
X038496Y018367D01*
X038496Y018592D01*
X038571Y018667D01*
X038646Y018667D01*
X038722Y018592D01*
X038722Y018442D01*
X038646Y018367D01*
X038496Y018367D01*
D16*
X005421Y008830D02*
X005011Y008230D01*
X005161Y007970D01*
X004021Y007490D01*
X004352Y008870D02*
X004275Y008915D01*
X004196Y008956D01*
X004115Y008994D01*
X004033Y009029D01*
X003949Y009060D01*
X003864Y009087D01*
X003778Y009110D01*
X003692Y009130D01*
X003691Y009130D02*
X003551Y009880D01*
X002901Y009880D01*
X002751Y009120D01*
X002131Y008850D02*
X001491Y009290D01*
X001021Y008830D01*
X001471Y008170D01*
X001221Y007560D02*
X000441Y007410D01*
X000441Y006760D01*
X001221Y006610D01*
X001471Y006010D02*
X001031Y005350D01*
X001491Y004890D01*
X002131Y005330D01*
X002751Y005060D02*
X002901Y004300D01*
X003551Y004300D01*
X003691Y005050D01*
X004341Y005310D02*
X004961Y004890D01*
X005421Y005350D01*
X005011Y005950D01*
X005161Y006210D01*
X004021Y006680D01*
X004341Y005310D02*
X004254Y005260D01*
X004165Y005214D01*
X004073Y005172D01*
X003980Y005135D01*
X003885Y005102D01*
X003789Y005074D01*
X003691Y005050D01*
X001471Y006010D02*
X001425Y006091D01*
X001383Y006173D01*
X001345Y006258D01*
X001311Y006344D01*
X001280Y006431D01*
X001254Y006520D01*
X001231Y006610D01*
X004021Y006680D02*
X003993Y006628D01*
X003961Y006578D01*
X003926Y006531D01*
X003889Y006486D01*
X003848Y006443D01*
X003805Y006404D01*
X003759Y006367D01*
X003710Y006333D01*
X003660Y006303D01*
X003608Y006276D01*
X003553Y006253D01*
X003498Y006233D01*
X003441Y006217D01*
X003384Y006205D01*
X003326Y006197D01*
X003267Y006193D01*
X003208Y006192D01*
X003149Y006196D01*
X003091Y006203D01*
X003033Y006214D01*
X002976Y006229D01*
X002921Y006248D01*
X002866Y006271D01*
X002814Y006297D01*
X002763Y006326D01*
X002714Y006359D01*
X002667Y006395D01*
X002623Y006434D01*
X002582Y006476D01*
X002544Y006521D01*
X002508Y006568D01*
X002476Y006617D01*
X002447Y006668D01*
X002422Y006721D01*
X002400Y006776D01*
X002382Y006832D01*
X002368Y006889D01*
X002357Y006947D01*
X002351Y007005D01*
X002348Y007064D01*
X002349Y007123D01*
X002354Y007182D01*
X002363Y007240D01*
X002376Y007297D01*
X002393Y007353D01*
X002413Y007409D01*
X002437Y007462D01*
X002465Y007514D01*
X002496Y007564D01*
X002530Y007612D01*
X002568Y007658D01*
X002608Y007701D01*
X002651Y007741D01*
X002696Y007778D01*
X002744Y007812D01*
X002795Y007843D01*
X002847Y007870D01*
X002900Y007894D01*
X002956Y007914D01*
X003012Y007930D01*
X003070Y007943D01*
X003128Y007952D01*
X003186Y007957D01*
X003245Y007958D01*
X003304Y007955D01*
X003362Y007948D01*
X003420Y007937D01*
X003477Y007923D01*
X003533Y007905D01*
X003588Y007883D01*
X003641Y007857D01*
X003692Y007828D01*
X003741Y007796D01*
X003788Y007760D01*
X003832Y007722D01*
X003874Y007680D01*
X003913Y007636D01*
X003949Y007589D01*
X003981Y007540D01*
X004011Y007490D01*
X002751Y009120D02*
X002658Y009094D01*
X002566Y009064D01*
X002475Y009029D01*
X002386Y008991D01*
X002299Y008948D01*
X002214Y008901D01*
X002131Y008850D01*
X004351Y008870D02*
X004971Y009290D01*
X005421Y008830D01*
X002751Y005060D02*
X002657Y005086D01*
X002565Y005116D01*
X002475Y005151D01*
X002386Y005190D01*
X002299Y005232D01*
X002214Y005279D01*
X002131Y005330D01*
X001221Y007560D02*
X001244Y007651D01*
X001272Y007742D01*
X001304Y007831D01*
X001340Y007918D01*
X001380Y008004D01*
X001423Y008088D01*
X001471Y008170D01*
M02*
