%
M48
M72
T01C0.0120
T02C0.0120
T03C0.0400
T04C0.0512
T05C0.1260
%
T01
X10667Y8454
X9014Y8887
X13423Y12548
X14998Y10501
X15726Y8375
X15726Y8080
X16022Y8080
X16022Y8375
X18148Y10068
X19368Y9162
X20077Y8847
X20628Y10068
X21140Y9910
X22026Y9497
X23305Y9517
X24250Y8099
X22872Y6406
X21455Y5855
X20904Y5304
X20530Y7036
X20530Y7331
X20234Y7331
X20234Y7036
X22006Y7765
X19998Y10855
X21691Y11603
X19723Y12391
X19053Y13454
X19723Y13670
X20471Y14320
X20904Y14713
X20904Y15343
X21219Y15343
X21967Y15343
X22518Y15501
X23030Y16406
X23404Y16485
X23266Y16957
X22163Y17233
X23778Y18178
X24506Y18020
X25156Y18020
X26140Y18020
X26730Y17902
X27163Y17430
X27518Y17272
X27518Y16957
X26534Y16957
X25707Y17194
X25510Y16957
X24723Y17194
X24408Y17194
X25549Y15954
X24860Y15658
X23856Y15619
X23876Y13670
X21573Y14320
X23876Y11741
X24093Y11052
X27223Y11111
X27223Y11741
X27597Y11800
X27400Y12391
X27872Y13139
X27636Y13729
X28089Y13867
X28699Y13650
X28699Y14123
X28699Y14438
X28699Y14792
X28699Y15186
X28699Y15619
X27833Y15658
X29329Y16603
X28856Y16761
X28797Y17528
X29250Y17902
X29939Y17528
X30195Y17272
X30687Y17115
X30136Y16190
X29683Y15383
X29683Y15068
X29683Y14753
X29919Y13887
X29683Y13611
X30077Y13532
X29683Y13099
X29683Y12784
X28699Y12824
X27656Y14418
X30943Y14753
X30943Y15068
X31061Y14123
X31297Y13454
X31612Y13454
X31849Y13257
X32675Y13217
X33030Y12548
X33935Y13020
X34880Y13020
X35215Y11328
X35726Y10875
X35057Y9379
X35037Y8532
X34880Y7725
X34663Y7292
X34230Y7146
X33935Y7493
X33974Y6583
X34447Y6583
X33384Y6505
X33226Y6800
X32990Y6997
X32911Y7312
X32301Y6741
X32065Y6544
X31100Y7646
X31652Y8060
X32262Y8513
X33305Y9044
X33935Y8808
X32104Y9547
X30372Y9261
X30608Y8513
X29250Y7036
X27990Y7804
X27636Y7784
X27124Y7666
X28187Y9635
X28699Y9851
X29152Y10678
X30825Y11367
X30825Y12351
X30825Y12666
X30864Y13020
X32085Y11131
X36455Y8828
X33443Y5146
X33148Y4812
X32675Y5166
X31947Y4379
X31573Y4733
X31219Y4359
X30530Y4202
X30254Y4044
X30411Y5048
X31160Y5107
X29250Y4359
X29014Y5383
X34034Y4950
X34132Y4635
X35352Y4950
X35628Y4379
X36770Y14280
X38030Y16603
X36435Y16780
X35234Y16780
X35451Y18237
X36297Y18217
X33423Y19910
X33108Y20028
X32892Y19202
X32616Y19202
X32616Y18926
X32892Y18926
X32833Y17410
X32833Y17135
X32557Y17135
X32557Y17410
X28620Y18847
X26022Y19083
X26022Y20737
X25746Y20973
X26022Y21209
X24250Y21997
X23541Y21603
X23541Y20973
X22872Y20619
X19526Y19792
X18384Y19674
X17990Y21249
X13148Y17430
X15471Y16524
X15234Y14595
X17518Y11013
X8935Y13394
X8640Y13394
X8640Y13690
X8935Y13690
X33738Y21643
X34408Y22509
X35156Y22784
X35392Y22548
X36061Y21249
T02
X34939Y22509
X32616Y20875
X32616Y20245
X29880Y18237
X29230Y18237
X28738Y16328
X28384Y15973
X27223Y15619
X26652Y15914
X26337Y15894
X26258Y15422
X26258Y14674
X27223Y14753
X25116Y15894
X24860Y14339
X24349Y14339
X23620Y14398
X22439Y15068
X22774Y16898
X22774Y17450
X24191Y17450
X24289Y18237
X28482Y20245
X27734Y21544
X25175Y21544
X24900Y22351
X24486Y23276
X23423Y24339
X22537Y23237
X22537Y22489
X23423Y22095
X20982Y22410
X20982Y22646
X20648Y23139
X19447Y22194
X19250Y21800
X16927Y22725
X15707Y22942
X16415Y24339
X19447Y24969
X20274Y25107
X20411Y24379
X20018Y24064
X14841Y21524
X14604Y21800
X12911Y21209
X14486Y20107
X14408Y19713
X14526Y19241
X13423Y18650
X13423Y15737
X12557Y15658
X12557Y13572
X12557Y11367
X12557Y9280
X12734Y5284
X12301Y5225
X14978Y5206
X16337Y5048
X22203Y5048
X22537Y5481
X22282Y7076
X23167Y8198
X22774Y8631
X22341Y10068
X22341Y11072
X22597Y11603
X22400Y13099
X24349Y11957
X24860Y11524
X24880Y10894
X24841Y9851
X24565Y9556
X24624Y8631
X25707Y9635
X25510Y9910
X26160Y9792
X26455Y9713
X26888Y9831
X27321Y9910
X27793Y10894
X28266Y10894
X27006Y11524
X28187Y8375
X27971Y8119
X27104Y8119
X28581Y7430
X28837Y7686
X29191Y7371
X29585Y7686
X29644Y7076
X30215Y7646
X30766Y7587
X31100Y7194
X31199Y6839
X31750Y6859
X31219Y6524
X29959Y5481
X29427Y5481
X29152Y5717
X29073Y6229
X28463Y6328
X28069Y6328
X27577Y5481
X27577Y4812
X28482Y4812
X30923Y4457
X31888Y5166
X32065Y4910
X32360Y4635
X32852Y4457
X33384Y4359
X33600Y4753
X33935Y4182
X34545Y4379
X34860Y4831
X35018Y3926
X36002Y3946
X36455Y3965
X36120Y4595
X35982Y5087
X32996Y7611
X32701Y7677
X32734Y8591
X32419Y9300
X33089Y9300
X33030Y9635
X32754Y10461
X33167Y10717
X35057Y10284
X35816Y10011
X36485Y9460
X35805Y8670
X36022Y8237
X35293Y8749
X38020Y8594
X38493Y8476
X38837Y9123
X38522Y10166
X35963Y11761
X36809Y12981
X37597Y13414
X37262Y14261
X35923Y13749
X35864Y13414
X35471Y14536
X35707Y14753
X34998Y14536
X34919Y15639
X34900Y15973
X35707Y17725
X38522Y12627
X24565Y4064
X20451Y11072
X9841Y15698
X8600Y5206
X9467Y4654
X8679Y4339
X8463Y3926
T03
X7978Y4725
X8978Y4725
X9978Y4725
X10978Y4725
X11978Y4725
X12978Y4725
X13978Y4725
X14978Y4725
X15978Y4725
X16978Y4725
X16978Y5725
X15978Y5725
X14978Y5725
X13978Y5725
X12978Y5725
X11978Y5725
X10978Y5725
X9978Y5725
X8978Y5725
X7978Y5725
X7935Y23583
X8935Y23583
X9935Y23583
X10935Y23583
X11935Y23583
X12935Y23583
X13935Y23583
X14935Y23583
X15935Y23583
X16935Y23583
X17935Y23583
X18935Y23583
X19935Y23583
X20935Y23583
X21935Y23583
X22935Y23583
X23935Y23583
X24935Y23583
X25935Y23583
X26935Y23583
X27935Y23583
X28935Y23583
X29935Y23583
X29935Y24583
X28935Y24583
X27935Y24583
X26935Y24583
X25935Y24583
X24935Y24583
X23935Y24583
X22935Y24583
X21935Y24583
X20935Y24583
X19935Y24583
X18935Y24583
X17935Y24583
X16935Y24583
X15935Y24583
X14935Y24583
X13935Y24583
X12935Y24583
X11935Y24583
X10935Y24583
X9935Y24583
X8935Y24583
X7935Y24583
X37597Y23552
X37597Y22552
X37597Y21552
X37597Y20552
X37597Y19552
X37597Y18552
T04
X29467Y6564
X29703Y4635
X23522Y4635
X23758Y6564
T05
X1612Y1524
X1750Y27902
X37537Y27981
X37951Y1406
M30
