%
M48
M72
T01C0.0120
T02C0.0400
T03C0.0512
T04C0.1260
%
T01
X5963Y6524
X5648Y7902
X6474Y8158
X6809Y8454
X7537Y8414
X8384Y8375
X8581Y7883
X9388Y8040
X9349Y8650
X7557Y9221
X6376Y9398
X6415Y9950
X6199Y10166
X5274Y9733
X5274Y9398
X4585Y8670
X4191Y9064
X7262Y12213
X7262Y13473
X7163Y13985
X9112Y13985
X10097Y14261
X10923Y14024
X10884Y13473
X12104Y14024
X12439Y14280
X12419Y15107
X12990Y15698
X12419Y16426
X12518Y16800
X14191Y15698
X15431Y15717
X15451Y14871
X15648Y17450
X15628Y18276
X14132Y18237
X12971Y18237
X10018Y16957
X10667Y12213
X12203Y11091
X12478Y10717
X11671Y10087
X12518Y9005
X12045Y8769
X11671Y8493
X13305Y8946
X13443Y9871
X14250Y10461
X14723Y12430
X16337Y11072
X16593Y10284
X16927Y10146
X16593Y9320
X17852Y10087
X18797Y10146
X19034Y9930
X19762Y10107
X20845Y9241
X20490Y9024
X19486Y8532
X18974Y8394
X18837Y7725
X18522Y7765
X18187Y7902
X18108Y8198
X18187Y7568
X17813Y6977
X17597Y6761
X18502Y6131
X18856Y6446
X20215Y7587
X20411Y7824
X21356Y7961
X21652Y8178
X21652Y8493
X21711Y8808
X22203Y8690
X22400Y8946
X22951Y9064
X23167Y9280
X23049Y9733
X22715Y10009
X22734Y10678
X22951Y10894
X21652Y11406
X21061Y11426
X22163Y12430
X21908Y12981
X21652Y13316
X21396Y13650
X22242Y14005
X22242Y14320
X23207Y14123
X23384Y13867
X23896Y14123
X23482Y14556
X23207Y14930
X23463Y15383
X23207Y15540
X23207Y15914
X23266Y16446
X23187Y16918
X23522Y16938
X23817Y17568
X23876Y18080
X24270Y17843
X24683Y17331
X25254Y17174
X25982Y16465
X26022Y16032
X25451Y15776
X25116Y15658
X24742Y14871
X24624Y13709
X23935Y13198
X23423Y13237
X23620Y12765
X23974Y12627
X23758Y12312
X23423Y12272
X24093Y12056
X24368Y11820
X24349Y12371
X24782Y12213
X25726Y11918
X26081Y11761
X25116Y11013
X25116Y10678
X25707Y10658
X26297Y10658
X27557Y11249
X27793Y10894
X28010Y11269
X29093Y10678
X29821Y9851
X30490Y9556
X30490Y9241
X30805Y9241
X31120Y9241
X30805Y9576
X29821Y9280
X29644Y8828
X28502Y7961
X28837Y7627
X29427Y7410
X29939Y6977
X30254Y6977
X30569Y6977
X30884Y6977
X31219Y6977
X31337Y7410
X32223Y7272
X32360Y6997
X32262Y6662
X32833Y7017
X32774Y7587
X33010Y8217
X32341Y8591
X31455Y8040
X33010Y9241
X32341Y10009
X31927Y10678
X32852Y11367
X33108Y11052
X32734Y12292
X32439Y12469
X30943Y11957
X30943Y11623
X30608Y11623
X30608Y11957
X29427Y12745
X28758Y12942
X28423Y13611
X26888Y13099
X26553Y13828
X25726Y13906
X27223Y12410
X24368Y9891
X24427Y9005
X24427Y8650
X24427Y8316
X24427Y7961
X25451Y7706
X25707Y7371
X26041Y7036
X26297Y6702
X26632Y6367
X26967Y6032
X27301Y5698
X28089Y4969
X27557Y4615
X29093Y5599
X30018Y6406
X27793Y8257
X24860Y5225
X24841Y4635
X25116Y4044
X24152Y4969
X23502Y5560
X21927Y6761
X22104Y7017
X21888Y7745
X21888Y9871
X21140Y10087
X19683Y11387
X18758Y11387
X18404Y12391
X18148Y12725
X17892Y12430
X19171Y13257
X19506Y13257
X19900Y13257
X20215Y13257
X19782Y16229
X20175Y17489
X21002Y16977
X21652Y17509
X22419Y17646
X22242Y16839
X22242Y16524
X22242Y16209
X21868Y18532
X21474Y18532
X21022Y18749
X20845Y19103
X20274Y18887
X19939Y18572
X18719Y18454
X17951Y18454
X17498Y17450
X18758Y17489
X27321Y15442
X28581Y15442
X28758Y15186
X29841Y15186
X30628Y16918
X30963Y16918
X30963Y17233
X30628Y17233
X32577Y18060
X32597Y18375
X32872Y18513
X32951Y18808
X32163Y18808
X31947Y19044
X36868Y15186
X37459Y14182
X35786Y14182
X35392Y12292
X36415Y10442
X36002Y10048
X35116Y10087
X34742Y9792
X35313Y9024
X34447Y8808
X34447Y8217
X34742Y7863
X34585Y7568
X35549Y7292
X35982Y7312
X35352Y6761
X36238Y6426
X36730Y6898
X36986Y5934
X36986Y5639
X36986Y5343
X36770Y4891
X35825Y4831
X35510Y4812
X34900Y4536
X34998Y4221
X35156Y3965
X34762Y3965
X34526Y4202
X34211Y4261
X34211Y3926
X33876Y3926
X33541Y3926
X33443Y4241
X33148Y3946
X32833Y3946
X32518Y3965
X32931Y4339
X34309Y4694
X38187Y5580
X38187Y5894
X38502Y5894
X38502Y5580
X37911Y9556
X38286Y10442
X18541Y8946
X16494Y7548
X16160Y7804
X16750Y5973
X13699Y5717
X12793Y5422
X10884Y5717
X10667Y5501
X9447Y5973
T02
X9427Y7095
X8427Y7095
X7427Y7095
X6427Y7095
X5427Y7095
X4427Y7095
X11746Y7095
X12746Y7095
X13746Y7095
X14746Y7095
T03
X16927Y6623
X16691Y4694
X22872Y4694
X22636Y6623
T04
X1612Y1524
X1750Y27902
X37537Y27981
X37951Y1406
M30
