G75*
G70*
%OFA0B0*%
%FSLAX24Y24*%
%IPPOS*%
%LPD*%
%AMOC8*
5,1,8,0,0,1.08239X$1,22.5*
%
%ADD10C,0.0000*%
%ADD11C,0.0080*%
%ADD12C,0.0030*%
%ADD13C,0.0060*%
%ADD14C,0.0039*%
%ADD15C,0.0050*%
%ADD16C,0.0040*%
%ADD17C,0.0100*%
D10*
X001652Y000107D02*
X001722Y000109D01*
X001792Y000115D01*
X001862Y000124D01*
X001931Y000137D01*
X002000Y000154D01*
X002067Y000175D01*
X002133Y000199D01*
X002197Y000227D01*
X002260Y000258D01*
X002322Y000293D01*
X002381Y000331D01*
X002438Y000372D01*
X002493Y000416D01*
X002545Y000463D01*
X002595Y000513D01*
X002642Y000565D01*
X002686Y000620D01*
X002727Y000677D01*
X002765Y000736D01*
X002800Y000798D01*
X002831Y000861D01*
X002859Y000925D01*
X002883Y000991D01*
X002904Y001058D01*
X002921Y001127D01*
X002934Y001196D01*
X002943Y001266D01*
X002949Y001336D01*
X002951Y001406D01*
X002951Y003690D01*
X036573Y003690D01*
X036573Y001524D01*
X036575Y001452D01*
X036581Y001380D01*
X036590Y001308D01*
X036603Y001237D01*
X036620Y001167D01*
X036640Y001098D01*
X036665Y001030D01*
X036692Y000964D01*
X036723Y000898D01*
X036758Y000835D01*
X036795Y000773D01*
X036836Y000714D01*
X036880Y000657D01*
X036927Y000602D01*
X036977Y000550D01*
X037029Y000500D01*
X037084Y000453D01*
X037141Y000409D01*
X037200Y000368D01*
X037262Y000331D01*
X037325Y000296D01*
X037391Y000265D01*
X037457Y000238D01*
X037525Y000213D01*
X037594Y000193D01*
X037664Y000176D01*
X037735Y000163D01*
X037807Y000154D01*
X037879Y000148D01*
X037951Y000146D01*
X037321Y001406D02*
X037323Y001456D01*
X037329Y001506D01*
X037339Y001555D01*
X037353Y001603D01*
X037370Y001650D01*
X037391Y001695D01*
X037416Y001739D01*
X037444Y001780D01*
X037476Y001819D01*
X037510Y001856D01*
X037547Y001890D01*
X037587Y001920D01*
X037629Y001947D01*
X037673Y001971D01*
X037719Y001992D01*
X037766Y002008D01*
X037814Y002021D01*
X037864Y002030D01*
X037913Y002035D01*
X037964Y002036D01*
X038014Y002033D01*
X038063Y002026D01*
X038112Y002015D01*
X038160Y002000D01*
X038206Y001982D01*
X038251Y001960D01*
X038294Y001934D01*
X038335Y001905D01*
X038374Y001873D01*
X038410Y001838D01*
X038442Y001800D01*
X038472Y001760D01*
X038499Y001717D01*
X038522Y001673D01*
X038541Y001627D01*
X038557Y001579D01*
X038569Y001530D01*
X038577Y001481D01*
X038581Y001431D01*
X038581Y001381D01*
X038577Y001331D01*
X038569Y001282D01*
X038557Y001233D01*
X038541Y001185D01*
X038522Y001139D01*
X038499Y001095D01*
X038472Y001052D01*
X038442Y001012D01*
X038410Y000974D01*
X038374Y000939D01*
X038335Y000907D01*
X038294Y000878D01*
X038251Y000852D01*
X038206Y000830D01*
X038160Y000812D01*
X038112Y000797D01*
X038063Y000786D01*
X038014Y000779D01*
X037964Y000776D01*
X037913Y000777D01*
X037864Y000782D01*
X037814Y000791D01*
X037766Y000804D01*
X037719Y000820D01*
X037673Y000841D01*
X037629Y000865D01*
X037587Y000892D01*
X037547Y000922D01*
X037510Y000956D01*
X037476Y000993D01*
X037444Y001032D01*
X037416Y001073D01*
X037391Y001117D01*
X037370Y001162D01*
X037353Y001209D01*
X037339Y001257D01*
X037329Y001306D01*
X037323Y001356D01*
X037321Y001406D01*
X037951Y000147D02*
X038021Y000149D01*
X038091Y000155D01*
X038161Y000164D01*
X038230Y000177D01*
X038299Y000194D01*
X038366Y000215D01*
X038432Y000239D01*
X038496Y000267D01*
X038559Y000298D01*
X038621Y000333D01*
X038680Y000371D01*
X038737Y000412D01*
X038792Y000456D01*
X038844Y000503D01*
X038894Y000553D01*
X038941Y000605D01*
X038985Y000660D01*
X039026Y000717D01*
X039064Y000776D01*
X039099Y000838D01*
X039130Y000901D01*
X039158Y000965D01*
X039182Y001031D01*
X039203Y001098D01*
X039220Y001167D01*
X039233Y001236D01*
X039242Y001306D01*
X039248Y001376D01*
X039250Y001446D01*
X039250Y003690D01*
X039349Y003690D01*
X039329Y025619D01*
X038837Y025619D01*
X038837Y028217D01*
X036907Y027981D02*
X036909Y028031D01*
X036915Y028081D01*
X036925Y028130D01*
X036939Y028178D01*
X036956Y028225D01*
X036977Y028270D01*
X037002Y028314D01*
X037030Y028355D01*
X037062Y028394D01*
X037096Y028431D01*
X037133Y028465D01*
X037173Y028495D01*
X037215Y028522D01*
X037259Y028546D01*
X037305Y028567D01*
X037352Y028583D01*
X037400Y028596D01*
X037450Y028605D01*
X037499Y028610D01*
X037550Y028611D01*
X037600Y028608D01*
X037649Y028601D01*
X037698Y028590D01*
X037746Y028575D01*
X037792Y028557D01*
X037837Y028535D01*
X037880Y028509D01*
X037921Y028480D01*
X037960Y028448D01*
X037996Y028413D01*
X038028Y028375D01*
X038058Y028335D01*
X038085Y028292D01*
X038108Y028248D01*
X038127Y028202D01*
X038143Y028154D01*
X038155Y028105D01*
X038163Y028056D01*
X038167Y028006D01*
X038167Y027956D01*
X038163Y027906D01*
X038155Y027857D01*
X038143Y027808D01*
X038127Y027760D01*
X038108Y027714D01*
X038085Y027670D01*
X038058Y027627D01*
X038028Y027587D01*
X037996Y027549D01*
X037960Y027514D01*
X037921Y027482D01*
X037880Y027453D01*
X037837Y027427D01*
X037792Y027405D01*
X037746Y027387D01*
X037698Y027372D01*
X037649Y027361D01*
X037600Y027354D01*
X037550Y027351D01*
X037499Y027352D01*
X037450Y027357D01*
X037400Y027366D01*
X037352Y027379D01*
X037305Y027395D01*
X037259Y027416D01*
X037215Y027440D01*
X037173Y027467D01*
X037133Y027497D01*
X037096Y027531D01*
X037062Y027568D01*
X037030Y027607D01*
X037002Y027648D01*
X036977Y027692D01*
X036956Y027737D01*
X036939Y027784D01*
X036925Y027832D01*
X036915Y027881D01*
X036909Y027931D01*
X036907Y027981D01*
X037459Y029595D02*
X037531Y029593D01*
X037603Y029587D01*
X037675Y029578D01*
X037746Y029565D01*
X037816Y029548D01*
X037885Y029528D01*
X037953Y029503D01*
X038019Y029476D01*
X038085Y029445D01*
X038148Y029410D01*
X038210Y029373D01*
X038269Y029332D01*
X038326Y029288D01*
X038381Y029241D01*
X038433Y029191D01*
X038483Y029139D01*
X038530Y029084D01*
X038574Y029027D01*
X038615Y028968D01*
X038652Y028906D01*
X038687Y028843D01*
X038718Y028777D01*
X038745Y028711D01*
X038770Y028643D01*
X038790Y028574D01*
X038807Y028504D01*
X038820Y028433D01*
X038829Y028361D01*
X038835Y028289D01*
X038837Y028217D01*
X037459Y029595D02*
X037389Y029593D01*
X037319Y029587D01*
X037249Y029578D01*
X037180Y029565D01*
X037111Y029548D01*
X037044Y029527D01*
X036978Y029503D01*
X036914Y029475D01*
X036851Y029444D01*
X036789Y029409D01*
X036730Y029371D01*
X036673Y029330D01*
X036618Y029286D01*
X036566Y029239D01*
X036516Y029189D01*
X036469Y029137D01*
X036425Y029082D01*
X036384Y029025D01*
X036346Y028966D01*
X036311Y028904D01*
X036280Y028841D01*
X036252Y028777D01*
X036228Y028711D01*
X036207Y028644D01*
X036190Y028575D01*
X036177Y028506D01*
X036168Y028436D01*
X036162Y028366D01*
X036160Y028296D01*
X036160Y025619D01*
X003089Y025580D01*
X003089Y028178D01*
X001120Y027902D02*
X001122Y027952D01*
X001128Y028002D01*
X001138Y028051D01*
X001152Y028099D01*
X001169Y028146D01*
X001190Y028191D01*
X001215Y028235D01*
X001243Y028276D01*
X001275Y028315D01*
X001309Y028352D01*
X001346Y028386D01*
X001386Y028416D01*
X001428Y028443D01*
X001472Y028467D01*
X001518Y028488D01*
X001565Y028504D01*
X001613Y028517D01*
X001663Y028526D01*
X001712Y028531D01*
X001763Y028532D01*
X001813Y028529D01*
X001862Y028522D01*
X001911Y028511D01*
X001959Y028496D01*
X002005Y028478D01*
X002050Y028456D01*
X002093Y028430D01*
X002134Y028401D01*
X002173Y028369D01*
X002209Y028334D01*
X002241Y028296D01*
X002271Y028256D01*
X002298Y028213D01*
X002321Y028169D01*
X002340Y028123D01*
X002356Y028075D01*
X002368Y028026D01*
X002376Y027977D01*
X002380Y027927D01*
X002380Y027877D01*
X002376Y027827D01*
X002368Y027778D01*
X002356Y027729D01*
X002340Y027681D01*
X002321Y027635D01*
X002298Y027591D01*
X002271Y027548D01*
X002241Y027508D01*
X002209Y027470D01*
X002173Y027435D01*
X002134Y027403D01*
X002093Y027374D01*
X002050Y027348D01*
X002005Y027326D01*
X001959Y027308D01*
X001911Y027293D01*
X001862Y027282D01*
X001813Y027275D01*
X001763Y027272D01*
X001712Y027273D01*
X001663Y027278D01*
X001613Y027287D01*
X001565Y027300D01*
X001518Y027316D01*
X001472Y027337D01*
X001428Y027361D01*
X001386Y027388D01*
X001346Y027418D01*
X001309Y027452D01*
X001275Y027489D01*
X001243Y027528D01*
X001215Y027569D01*
X001190Y027613D01*
X001169Y027658D01*
X001152Y027705D01*
X001138Y027753D01*
X001128Y027802D01*
X001122Y027852D01*
X001120Y027902D01*
X001711Y029556D02*
X001783Y029554D01*
X001855Y029548D01*
X001927Y029539D01*
X001998Y029526D01*
X002068Y029509D01*
X002137Y029489D01*
X002205Y029464D01*
X002271Y029437D01*
X002337Y029406D01*
X002400Y029371D01*
X002462Y029334D01*
X002521Y029293D01*
X002578Y029249D01*
X002633Y029202D01*
X002685Y029152D01*
X002735Y029100D01*
X002782Y029045D01*
X002826Y028988D01*
X002867Y028929D01*
X002904Y028867D01*
X002939Y028804D01*
X002970Y028738D01*
X002997Y028672D01*
X003022Y028604D01*
X003042Y028535D01*
X003059Y028465D01*
X003072Y028394D01*
X003081Y028322D01*
X003087Y028250D01*
X003089Y028178D01*
X001711Y029556D02*
X001641Y029554D01*
X001571Y029548D01*
X001501Y029539D01*
X001432Y029526D01*
X001363Y029509D01*
X001296Y029488D01*
X001230Y029464D01*
X001166Y029436D01*
X001103Y029405D01*
X001041Y029370D01*
X000982Y029332D01*
X000925Y029291D01*
X000870Y029247D01*
X000818Y029200D01*
X000768Y029150D01*
X000721Y029098D01*
X000677Y029043D01*
X000636Y028986D01*
X000598Y028927D01*
X000563Y028865D01*
X000532Y028802D01*
X000504Y028738D01*
X000480Y028672D01*
X000459Y028605D01*
X000442Y028536D01*
X000429Y028467D01*
X000420Y028397D01*
X000414Y028327D01*
X000412Y028257D01*
X000411Y028257D02*
X000411Y025580D01*
X000136Y025580D01*
X000136Y003690D01*
X000274Y003690D01*
X000274Y001485D01*
X000982Y001524D02*
X000984Y001574D01*
X000990Y001624D01*
X001000Y001673D01*
X001014Y001721D01*
X001031Y001768D01*
X001052Y001813D01*
X001077Y001857D01*
X001105Y001898D01*
X001137Y001937D01*
X001171Y001974D01*
X001208Y002008D01*
X001248Y002038D01*
X001290Y002065D01*
X001334Y002089D01*
X001380Y002110D01*
X001427Y002126D01*
X001475Y002139D01*
X001525Y002148D01*
X001574Y002153D01*
X001625Y002154D01*
X001675Y002151D01*
X001724Y002144D01*
X001773Y002133D01*
X001821Y002118D01*
X001867Y002100D01*
X001912Y002078D01*
X001955Y002052D01*
X001996Y002023D01*
X002035Y001991D01*
X002071Y001956D01*
X002103Y001918D01*
X002133Y001878D01*
X002160Y001835D01*
X002183Y001791D01*
X002202Y001745D01*
X002218Y001697D01*
X002230Y001648D01*
X002238Y001599D01*
X002242Y001549D01*
X002242Y001499D01*
X002238Y001449D01*
X002230Y001400D01*
X002218Y001351D01*
X002202Y001303D01*
X002183Y001257D01*
X002160Y001213D01*
X002133Y001170D01*
X002103Y001130D01*
X002071Y001092D01*
X002035Y001057D01*
X001996Y001025D01*
X001955Y000996D01*
X001912Y000970D01*
X001867Y000948D01*
X001821Y000930D01*
X001773Y000915D01*
X001724Y000904D01*
X001675Y000897D01*
X001625Y000894D01*
X001574Y000895D01*
X001525Y000900D01*
X001475Y000909D01*
X001427Y000922D01*
X001380Y000938D01*
X001334Y000959D01*
X001290Y000983D01*
X001248Y001010D01*
X001208Y001040D01*
X001171Y001074D01*
X001137Y001111D01*
X001105Y001150D01*
X001077Y001191D01*
X001052Y001235D01*
X001031Y001280D01*
X001014Y001327D01*
X001000Y001375D01*
X000990Y001424D01*
X000984Y001474D01*
X000982Y001524D01*
X000274Y001485D02*
X000276Y001413D01*
X000282Y001341D01*
X000291Y001269D01*
X000304Y001198D01*
X000321Y001128D01*
X000341Y001059D01*
X000366Y000991D01*
X000393Y000925D01*
X000424Y000859D01*
X000459Y000796D01*
X000496Y000734D01*
X000537Y000675D01*
X000581Y000618D01*
X000628Y000563D01*
X000678Y000511D01*
X000730Y000461D01*
X000785Y000414D01*
X000842Y000370D01*
X000901Y000329D01*
X000963Y000292D01*
X001026Y000257D01*
X001092Y000226D01*
X001158Y000199D01*
X001226Y000174D01*
X001295Y000154D01*
X001365Y000137D01*
X001436Y000124D01*
X001508Y000115D01*
X001580Y000109D01*
X001652Y000107D01*
D11*
X008314Y015608D02*
X008314Y017008D01*
X010895Y017008D01*
X010895Y015608D01*
X008314Y015608D01*
X016821Y023384D02*
X016821Y024304D01*
X017281Y024304D01*
X017434Y024151D01*
X017434Y023844D01*
X017281Y023690D01*
X016821Y023690D01*
X016514Y023997D02*
X015900Y023997D01*
X015900Y023844D02*
X015900Y024151D01*
X016053Y024304D01*
X016360Y024304D01*
X016514Y024151D01*
X016514Y023997D01*
X016360Y023690D02*
X016053Y023690D01*
X015900Y023844D01*
X015593Y023690D02*
X015286Y023997D01*
X015439Y023997D02*
X014979Y023997D01*
X014979Y023690D02*
X014979Y024611D01*
X015439Y024611D01*
X015593Y024458D01*
X015593Y024151D01*
X015439Y023997D01*
X017741Y023690D02*
X018048Y023690D01*
X017895Y023690D02*
X017895Y024611D01*
X017741Y024611D01*
X018355Y024304D02*
X018509Y024304D01*
X018509Y023690D01*
X018662Y023690D02*
X018355Y023690D01*
X018969Y023844D02*
X019122Y023690D01*
X019583Y023690D01*
X019890Y023844D02*
X020043Y023997D01*
X020504Y023997D01*
X020504Y024151D02*
X020504Y023690D01*
X020043Y023690D01*
X019890Y023844D01*
X020043Y024304D02*
X020350Y024304D01*
X020504Y024151D01*
X020810Y024304D02*
X021271Y024304D01*
X021424Y024151D01*
X021424Y023844D01*
X021271Y023690D01*
X020810Y023690D01*
X020810Y023384D02*
X020810Y024304D01*
X021731Y024151D02*
X021731Y023844D01*
X021885Y023690D01*
X022192Y023690D01*
X022345Y023997D02*
X021731Y023997D01*
X021731Y024151D02*
X021885Y024304D01*
X022192Y024304D01*
X022345Y024151D01*
X022345Y023997D01*
X023573Y023844D02*
X023726Y023690D01*
X024186Y023690D01*
X024186Y024611D01*
X024186Y024304D02*
X023726Y024304D01*
X023573Y024151D01*
X023573Y023844D01*
X024493Y023690D02*
X024800Y023690D01*
X024647Y023690D02*
X024647Y024304D01*
X024493Y024304D01*
X024647Y024611D02*
X024647Y024765D01*
X025261Y024304D02*
X025721Y024304D01*
X026028Y024304D02*
X026488Y024304D01*
X026642Y024151D01*
X026642Y023844D01*
X026488Y023690D01*
X026028Y023690D01*
X026028Y023384D02*
X026028Y024304D01*
X025721Y023844D02*
X025568Y023997D01*
X025261Y023997D01*
X025107Y024151D01*
X025261Y024304D01*
X025721Y023844D02*
X025568Y023690D01*
X025107Y023690D01*
X026949Y023690D02*
X027256Y023690D01*
X027102Y023690D02*
X027102Y024611D01*
X026949Y024611D01*
X027716Y024304D02*
X028023Y024304D01*
X028176Y024151D01*
X028176Y023690D01*
X027716Y023690D01*
X027563Y023844D01*
X027716Y023997D01*
X028176Y023997D01*
X028483Y023844D02*
X028637Y023690D01*
X029097Y023690D01*
X029097Y023537D02*
X028944Y023384D01*
X028790Y023384D01*
X029097Y023537D02*
X029097Y024304D01*
X028483Y024304D02*
X028483Y023844D01*
X019583Y024304D02*
X019122Y024304D01*
X018969Y024151D01*
X018969Y023844D01*
X018509Y024611D02*
X018509Y024765D01*
X036770Y010769D02*
X037057Y010769D01*
X037645Y010769D02*
X037932Y010769D01*
X037932Y009608D02*
X037645Y009608D01*
X037057Y009608D02*
X036770Y009608D01*
D12*
X037097Y009419D02*
X037097Y009177D01*
X037145Y009129D01*
X037242Y009129D01*
X037290Y009177D01*
X037290Y009419D01*
X037392Y009370D02*
X037440Y009419D01*
X037537Y009419D01*
X037585Y009370D01*
X037585Y009322D01*
X037392Y009129D01*
X037585Y009129D01*
X037388Y009032D02*
X037388Y008839D01*
X037388Y008935D02*
X037098Y008935D01*
X037194Y008839D01*
X037146Y008737D02*
X037243Y008737D01*
X037291Y008689D01*
X037291Y008544D01*
X037291Y008641D02*
X037388Y008737D01*
X037388Y008544D02*
X037098Y008544D01*
X037098Y008689D01*
X037146Y008737D01*
X036070Y010900D02*
X035877Y010900D01*
X035974Y010900D02*
X035974Y011190D01*
X035877Y011093D01*
X035776Y011142D02*
X035727Y011190D01*
X035631Y011190D01*
X035582Y011142D01*
X035582Y010948D01*
X035631Y010900D01*
X035727Y010900D01*
X035776Y010948D01*
X037187Y012410D02*
X037380Y012410D01*
X037482Y012410D02*
X037675Y012410D01*
X037578Y012410D02*
X037578Y012701D01*
X037482Y012604D01*
X037187Y012701D02*
X037187Y012410D01*
X035906Y013239D02*
X035858Y013191D01*
X035664Y013191D01*
X035616Y013239D01*
X035616Y013336D01*
X035664Y013384D01*
X035858Y013384D01*
X035906Y013336D01*
X035906Y013239D01*
X035810Y013288D02*
X035906Y013384D01*
X035906Y013486D02*
X035906Y013679D01*
X035906Y013582D02*
X035616Y013582D01*
X035713Y013486D01*
X036121Y015116D02*
X036121Y015406D01*
X036266Y015406D01*
X036315Y015358D01*
X036315Y015261D01*
X036266Y015213D01*
X036121Y015213D01*
X036218Y015213D02*
X036315Y015116D01*
X036416Y015261D02*
X036609Y015261D01*
X036561Y015116D02*
X036561Y015406D01*
X036416Y015261D01*
X037671Y015056D02*
X037720Y015104D01*
X037768Y015104D01*
X037816Y015056D01*
X037865Y015104D01*
X037913Y015104D01*
X037961Y015056D01*
X037961Y014959D01*
X037913Y014911D01*
X037961Y014810D02*
X037865Y014713D01*
X037865Y014761D02*
X037865Y014616D01*
X037961Y014616D02*
X037671Y014616D01*
X037671Y014761D01*
X037720Y014810D01*
X037816Y014810D01*
X037865Y014761D01*
X037720Y014911D02*
X037671Y014959D01*
X037671Y015056D01*
X037816Y015056D02*
X037816Y015008D01*
X038380Y015056D02*
X038380Y014959D01*
X038428Y014911D01*
X038428Y014810D02*
X038380Y014761D01*
X038380Y014616D01*
X038670Y014616D01*
X038573Y014616D02*
X038573Y014761D01*
X038525Y014810D01*
X038428Y014810D01*
X038573Y014713D02*
X038670Y014810D01*
X038670Y014911D02*
X038477Y015104D01*
X038428Y015104D01*
X038380Y015056D01*
X038670Y015104D02*
X038670Y014911D01*
X038668Y011238D02*
X038620Y011190D01*
X038620Y011093D01*
X038668Y011045D01*
X038668Y010944D02*
X038620Y010895D01*
X038620Y010799D01*
X038668Y010750D01*
X038862Y010750D01*
X038910Y010799D01*
X038910Y010895D01*
X038862Y010944D01*
X038910Y011045D02*
X038716Y011238D01*
X038668Y011238D01*
X038910Y011238D02*
X038910Y011045D01*
X036696Y005999D02*
X036696Y005709D01*
X036696Y005999D01*
X036600Y005902D01*
X036696Y005999D01*
X036600Y005709D02*
X036793Y005709D01*
X036600Y005709D01*
X036636Y005511D02*
X036588Y005462D01*
X036636Y005511D01*
X036733Y005511D01*
X036781Y005462D01*
X036781Y005414D01*
X036588Y005221D01*
X036781Y005221D01*
X036588Y005221D01*
X036781Y005414D01*
X036781Y005462D01*
X036733Y005511D01*
X036636Y005511D01*
X031525Y006402D02*
X031331Y006402D01*
X031525Y006595D01*
X031525Y006643D01*
X031476Y006692D01*
X031380Y006692D01*
X031331Y006643D01*
X031230Y006692D02*
X031037Y006402D01*
X031230Y006402D02*
X031037Y006692D01*
X030768Y005983D02*
X030671Y005983D01*
X030623Y005935D01*
X030623Y005886D01*
X030671Y005838D01*
X030816Y005838D01*
X030671Y005838D01*
X030623Y005886D01*
X030623Y005935D01*
X030671Y005983D01*
X030768Y005983D01*
X030816Y005935D01*
X030816Y005741D01*
X030768Y005693D01*
X030671Y005693D01*
X030623Y005741D01*
X030671Y005693D01*
X030768Y005693D01*
X030816Y005741D01*
X030816Y005935D01*
X030768Y005983D01*
X030522Y005983D02*
X030328Y005983D01*
X030328Y005838D01*
X030425Y005886D01*
X030473Y005886D01*
X030522Y005838D01*
X030522Y005741D01*
X030473Y005693D01*
X030376Y005693D01*
X030328Y005741D01*
X030376Y005693D01*
X030473Y005693D01*
X030522Y005741D01*
X030522Y005838D01*
X030473Y005886D01*
X030425Y005886D01*
X030328Y005838D01*
X030328Y005983D01*
X030522Y005983D01*
X030482Y005471D02*
X030385Y005423D01*
X030289Y005326D01*
X030434Y005326D01*
X030482Y005278D01*
X030482Y005229D01*
X030434Y005181D01*
X030337Y005181D01*
X030289Y005229D01*
X030289Y005326D01*
X030434Y005326D01*
X030482Y005278D01*
X030482Y005229D01*
X030434Y005181D01*
X030337Y005181D01*
X030289Y005229D01*
X030289Y005326D01*
X030385Y005423D01*
X030482Y005471D01*
X030583Y005423D02*
X030583Y005229D01*
X030777Y005423D01*
X030777Y005229D01*
X030728Y005181D01*
X030632Y005181D01*
X030583Y005229D01*
X030777Y005423D01*
X030728Y005471D01*
X030632Y005471D01*
X030583Y005423D01*
X030632Y005471D01*
X030728Y005471D01*
X030777Y005423D01*
X030777Y005229D01*
X030728Y005181D01*
X030632Y005181D01*
X030583Y005229D01*
X030583Y005423D01*
X022896Y010196D02*
X022605Y010196D01*
X022605Y010341D01*
X022654Y010390D01*
X022751Y010390D01*
X022799Y010341D01*
X022799Y010196D01*
X022799Y010293D02*
X022896Y010390D01*
X022847Y010491D02*
X022896Y010539D01*
X022896Y010636D01*
X022847Y010684D01*
X022654Y010684D01*
X022605Y010636D01*
X022605Y010539D01*
X022654Y010491D01*
X022702Y010491D01*
X022751Y010539D01*
X022751Y010684D01*
X021813Y009920D02*
X021765Y009920D01*
X021571Y010113D01*
X021523Y010113D01*
X021523Y009920D01*
X021523Y009722D02*
X021813Y009722D01*
X021813Y009625D02*
X021813Y009819D01*
X021619Y009625D02*
X021523Y009722D01*
X021571Y009524D02*
X021523Y009476D01*
X021523Y009379D01*
X021571Y009331D01*
X021765Y009331D01*
X021813Y009379D01*
X021813Y009476D01*
X021765Y009524D01*
X020868Y010403D02*
X020820Y010354D01*
X020626Y010354D01*
X020578Y010403D01*
X020578Y010499D01*
X020626Y010548D01*
X020675Y010649D02*
X020578Y010746D01*
X020868Y010746D01*
X020868Y010842D02*
X020868Y010649D01*
X020820Y010548D02*
X020868Y010499D01*
X020868Y010403D01*
X020337Y010363D02*
X020337Y010460D01*
X020288Y010508D01*
X020337Y010610D02*
X020337Y010803D01*
X020337Y010706D02*
X020046Y010706D01*
X020143Y010610D01*
X020095Y010508D02*
X020046Y010460D01*
X020046Y010363D01*
X020095Y010315D01*
X020288Y010315D01*
X020337Y010363D01*
X020337Y010904D02*
X020143Y011098D01*
X020095Y011098D01*
X020046Y011049D01*
X020046Y010953D01*
X020095Y010904D01*
X020337Y010904D02*
X020337Y011098D01*
X020578Y011089D02*
X020723Y010944D01*
X020723Y011137D01*
X020868Y011089D02*
X020578Y011089D01*
X019274Y010212D02*
X019274Y010018D01*
X019274Y010115D02*
X018983Y010115D01*
X019080Y010018D01*
X019274Y009917D02*
X019274Y009724D01*
X019274Y009820D02*
X018983Y009820D01*
X019080Y009724D01*
X019032Y009623D02*
X018983Y009574D01*
X018983Y009477D01*
X019032Y009429D01*
X019225Y009429D01*
X019274Y009477D01*
X019274Y009574D01*
X019225Y009623D01*
X018604Y009555D02*
X018604Y009458D01*
X018556Y009409D01*
X018362Y009409D01*
X018314Y009458D01*
X018314Y009555D01*
X018362Y009603D01*
X018411Y009704D02*
X018314Y009801D01*
X018604Y009801D01*
X018604Y009704D02*
X018604Y009898D01*
X018556Y009999D02*
X018362Y010192D01*
X018556Y010192D01*
X018604Y010144D01*
X018604Y010047D01*
X018556Y009999D01*
X018362Y009999D01*
X018314Y010047D01*
X018314Y010144D01*
X018362Y010192D01*
X018556Y009603D02*
X018604Y009555D01*
X017679Y009586D02*
X017486Y009779D01*
X017437Y009779D01*
X017389Y009731D01*
X017389Y009634D01*
X017437Y009586D01*
X017437Y009485D02*
X017389Y009436D01*
X017389Y009340D01*
X017437Y009291D01*
X017631Y009291D01*
X017679Y009340D01*
X017679Y009436D01*
X017631Y009485D01*
X017679Y009586D02*
X017679Y009779D01*
X017631Y009881D02*
X017679Y009929D01*
X017679Y010026D01*
X017631Y010074D01*
X017534Y010074D01*
X017486Y010026D01*
X017486Y009977D01*
X017534Y009881D01*
X017389Y009881D01*
X017389Y010074D01*
X017405Y008480D02*
X017454Y008480D01*
X017502Y008431D01*
X017502Y008334D01*
X017454Y008286D01*
X017405Y008286D01*
X017357Y008334D01*
X017357Y008431D01*
X017405Y008480D01*
X017357Y008431D02*
X017308Y008480D01*
X017260Y008480D01*
X017212Y008431D01*
X017212Y008334D01*
X017260Y008286D01*
X017308Y008286D01*
X017357Y008334D01*
X017502Y008185D02*
X017502Y007991D01*
X017502Y008088D02*
X017212Y008088D01*
X017308Y007991D01*
X017260Y007890D02*
X017357Y007890D01*
X017405Y007842D01*
X017405Y007697D01*
X017405Y007794D02*
X017502Y007890D01*
X017502Y007697D02*
X017212Y007697D01*
X017212Y007842D01*
X017260Y007890D01*
X015122Y008751D02*
X015122Y008848D01*
X015074Y008896D01*
X015122Y008997D02*
X015122Y009191D01*
X015122Y009094D02*
X014832Y009094D01*
X014929Y008997D01*
X014880Y008896D02*
X014832Y008848D01*
X014832Y008751D01*
X014880Y008703D01*
X015074Y008703D01*
X015122Y008751D01*
X015074Y009292D02*
X015122Y009340D01*
X015122Y009437D01*
X015074Y009485D01*
X014880Y009485D01*
X014832Y009437D01*
X014832Y009340D01*
X014880Y009292D01*
X014929Y009292D01*
X014977Y009340D01*
X014977Y009485D01*
X015054Y010888D02*
X014860Y010888D01*
X014812Y010936D01*
X014812Y011033D01*
X014860Y011081D01*
X014909Y011182D02*
X014812Y011279D01*
X015102Y011279D01*
X015102Y011182D02*
X015102Y011376D01*
X015054Y011477D02*
X015006Y011477D01*
X014957Y011525D01*
X014957Y011622D01*
X015006Y011671D01*
X015054Y011671D01*
X015102Y011622D01*
X015102Y011525D01*
X015054Y011477D01*
X014957Y011525D02*
X014909Y011477D01*
X014860Y011477D01*
X014812Y011525D01*
X014812Y011622D01*
X014860Y011671D01*
X014909Y011671D01*
X014957Y011622D01*
X015054Y011081D02*
X015102Y011033D01*
X015102Y010936D01*
X015054Y010888D01*
X012534Y011872D02*
X012534Y012066D01*
X012389Y012167D02*
X012389Y012360D01*
X012534Y012312D02*
X012244Y012312D01*
X012389Y012167D01*
X012244Y011872D02*
X012534Y011872D01*
X014832Y013672D02*
X014880Y013624D01*
X015074Y013624D01*
X015122Y013672D01*
X015122Y013769D01*
X015074Y013817D01*
X015122Y013919D02*
X014929Y014112D01*
X014880Y014112D01*
X014832Y014064D01*
X014832Y013967D01*
X014880Y013919D01*
X014880Y013817D02*
X014832Y013769D01*
X014832Y013672D01*
X015122Y013919D02*
X015122Y014112D01*
X015074Y014213D02*
X014880Y014407D01*
X015074Y014407D01*
X015122Y014358D01*
X015122Y014262D01*
X015074Y014213D01*
X014880Y014213D01*
X014832Y014262D01*
X014832Y014358D01*
X014880Y014407D01*
X015332Y013819D02*
X015284Y013770D01*
X015284Y013577D01*
X015332Y013528D01*
X015429Y013528D01*
X015478Y013577D01*
X015579Y013577D02*
X015579Y013625D01*
X015627Y013674D01*
X015724Y013674D01*
X015772Y013625D01*
X015772Y013577D01*
X015724Y013528D01*
X015627Y013528D01*
X015579Y013577D01*
X015627Y013674D02*
X015579Y013722D01*
X015579Y013770D01*
X015627Y013819D01*
X015724Y013819D01*
X015772Y013770D01*
X015772Y013722D01*
X015724Y013674D01*
X015478Y013770D02*
X015429Y013819D01*
X015332Y013819D01*
X015293Y015418D02*
X015390Y015418D01*
X015438Y015467D01*
X015539Y015467D02*
X015588Y015418D01*
X015684Y015418D01*
X015733Y015467D01*
X015733Y015515D01*
X015684Y015563D01*
X015636Y015563D01*
X015684Y015563D02*
X015733Y015612D01*
X015733Y015660D01*
X015684Y015708D01*
X015588Y015708D01*
X015539Y015660D01*
X015438Y015660D02*
X015390Y015708D01*
X015293Y015708D01*
X015245Y015660D01*
X015245Y015467D01*
X015293Y015418D01*
X015093Y017226D02*
X014900Y017226D01*
X014851Y017275D01*
X014851Y017371D01*
X014900Y017420D01*
X014900Y017521D02*
X014851Y017569D01*
X014851Y017666D01*
X014900Y017714D01*
X014948Y017714D01*
X015142Y017521D01*
X015142Y017714D01*
X015142Y017816D02*
X015142Y018009D01*
X015142Y017912D02*
X014851Y017912D01*
X014948Y017816D01*
X015093Y017420D02*
X015142Y017371D01*
X015142Y017275D01*
X015093Y017226D01*
X015838Y017924D02*
X015886Y017876D01*
X015983Y017876D01*
X016032Y017924D01*
X016032Y018166D01*
X016133Y018069D02*
X016230Y018166D01*
X016230Y017876D01*
X016326Y017876D02*
X016133Y017876D01*
X015838Y017924D02*
X015838Y018166D01*
X018557Y019999D02*
X018605Y019951D01*
X018799Y019951D01*
X018847Y019999D01*
X018847Y020096D01*
X018799Y020144D01*
X018702Y020245D02*
X018557Y020391D01*
X018847Y020391D01*
X018702Y020439D02*
X018702Y020245D01*
X018605Y020144D02*
X018557Y020096D01*
X018557Y019999D01*
X019581Y020019D02*
X019629Y019971D01*
X019823Y019971D01*
X019871Y020019D01*
X019871Y020116D01*
X019823Y020164D01*
X019823Y020265D02*
X019629Y020459D01*
X019581Y020459D01*
X019581Y020265D01*
X019629Y020164D02*
X019581Y020116D01*
X019581Y020019D01*
X019823Y020265D02*
X019871Y020265D01*
X021313Y020206D02*
X021458Y020206D01*
X021410Y020303D01*
X021410Y020351D01*
X021458Y020400D01*
X021555Y020400D01*
X021603Y020351D01*
X021603Y020254D01*
X021555Y020206D01*
X021555Y020105D02*
X021603Y020057D01*
X021603Y019960D01*
X021555Y019911D01*
X021361Y019911D01*
X021313Y019960D01*
X021313Y020057D01*
X021361Y020105D01*
X021313Y020206D02*
X021313Y020400D01*
X023517Y023055D02*
X023517Y023345D01*
X023662Y023345D01*
X023711Y023297D01*
X023711Y023200D01*
X023662Y023152D01*
X023517Y023152D01*
X023614Y023152D02*
X023711Y023055D01*
X023812Y023104D02*
X023812Y023200D01*
X023860Y023249D01*
X023957Y023249D01*
X024005Y023200D01*
X024005Y023152D01*
X023812Y023152D01*
X023812Y023104D02*
X023860Y023055D01*
X023957Y023055D01*
X024106Y023249D02*
X024203Y023055D01*
X024300Y023249D01*
X024696Y023249D02*
X024696Y023055D01*
X024696Y023200D02*
X024889Y023200D01*
X024889Y023249D02*
X024889Y023055D01*
X024990Y023055D02*
X025184Y023055D01*
X025087Y023055D02*
X025087Y023345D01*
X024990Y023249D01*
X024889Y023249D02*
X024792Y023345D01*
X024696Y023249D01*
X024713Y016056D02*
X024665Y016008D01*
X024665Y015814D01*
X024713Y015766D01*
X024810Y015766D01*
X024858Y015814D01*
X024959Y015814D02*
X025008Y015766D01*
X025104Y015766D01*
X025153Y015814D01*
X025153Y015863D01*
X025104Y015911D01*
X024959Y015911D01*
X024959Y015814D01*
X024959Y015911D02*
X025056Y016008D01*
X025153Y016056D01*
X024858Y016008D02*
X024810Y016056D01*
X024713Y016056D01*
X025216Y014422D02*
X025361Y014422D01*
X025409Y014374D01*
X025409Y014277D01*
X025361Y014229D01*
X025216Y014229D01*
X025313Y014229D02*
X025409Y014132D01*
X025511Y014132D02*
X025704Y014132D01*
X025607Y014132D02*
X025607Y014422D01*
X025511Y014325D01*
X025805Y014374D02*
X025805Y014180D01*
X025999Y014374D01*
X025999Y014180D01*
X025950Y014132D01*
X025854Y014132D01*
X025805Y014180D01*
X025805Y014374D02*
X025854Y014422D01*
X025950Y014422D01*
X025999Y014374D01*
X025216Y014422D02*
X025216Y014132D01*
X025223Y013714D02*
X025126Y013714D01*
X025077Y013665D01*
X025077Y013617D01*
X025126Y013568D01*
X025271Y013568D01*
X025271Y013472D02*
X025271Y013665D01*
X025223Y013714D01*
X025271Y013472D02*
X025223Y013423D01*
X025126Y013423D01*
X025077Y013472D01*
X024976Y013472D02*
X024928Y013423D01*
X024831Y013423D01*
X024783Y013472D01*
X024783Y013665D01*
X024831Y013714D01*
X024928Y013714D01*
X024976Y013665D01*
X023478Y012477D02*
X023165Y012163D01*
X023321Y012163D02*
X023321Y012477D01*
X023165Y012477D02*
X023478Y012163D01*
X023478Y012320D02*
X023165Y012320D01*
X012515Y014333D02*
X012515Y014526D01*
X012466Y014627D02*
X012515Y014676D01*
X012515Y014772D01*
X012466Y014821D01*
X012418Y014821D01*
X012369Y014772D01*
X012369Y014724D01*
X012369Y014772D02*
X012321Y014821D01*
X012273Y014821D01*
X012224Y014772D01*
X012224Y014676D01*
X012273Y014627D01*
X012224Y014333D02*
X012515Y014333D01*
X012456Y017108D02*
X012165Y017108D01*
X012456Y017108D02*
X012456Y017302D01*
X012456Y017403D02*
X012262Y017596D01*
X012214Y017596D01*
X012165Y017548D01*
X012165Y017451D01*
X012214Y017403D01*
X012456Y017403D02*
X012456Y017596D01*
X008971Y013261D02*
X008874Y013212D01*
X008778Y013116D01*
X008923Y013116D01*
X008971Y013067D01*
X008971Y013019D01*
X008923Y012971D01*
X008826Y012971D01*
X008778Y013019D01*
X008778Y013116D01*
X008676Y012971D02*
X008483Y012971D01*
X008580Y012971D02*
X008580Y013261D01*
X008483Y013164D01*
X008382Y013116D02*
X008333Y013067D01*
X008188Y013067D01*
X008188Y012971D02*
X008188Y013261D01*
X008333Y013261D01*
X008382Y013212D01*
X008382Y013116D01*
X008285Y013067D02*
X008382Y012971D01*
X008314Y012769D02*
X008362Y012720D01*
X008362Y012624D01*
X008314Y012575D01*
X008169Y012575D01*
X008265Y012575D02*
X008362Y012478D01*
X008463Y012478D02*
X008657Y012478D01*
X008560Y012478D02*
X008560Y012769D01*
X008463Y012672D01*
X008314Y012769D02*
X008169Y012769D01*
X008169Y012478D01*
X008758Y012478D02*
X008758Y012527D01*
X008951Y012720D01*
X008951Y012769D01*
X008758Y012769D01*
X007368Y011489D02*
X007222Y011344D01*
X007416Y011344D01*
X007368Y011199D02*
X007368Y011489D01*
X007121Y011441D02*
X007073Y011489D01*
X006976Y011489D01*
X006928Y011441D01*
X006827Y011441D02*
X006778Y011489D01*
X006682Y011489D01*
X006633Y011441D01*
X006633Y011247D01*
X006682Y011199D01*
X006778Y011199D01*
X006827Y011247D01*
X006928Y011199D02*
X007121Y011392D01*
X007121Y011441D01*
X007121Y011199D02*
X006928Y011199D01*
X006976Y010820D02*
X006928Y010771D01*
X006976Y010820D02*
X007073Y010820D01*
X007121Y010771D01*
X007121Y010723D01*
X006928Y010530D01*
X007121Y010530D01*
X007222Y010578D02*
X007271Y010530D01*
X007368Y010530D01*
X007416Y010578D01*
X007416Y010626D01*
X007368Y010675D01*
X007319Y010675D01*
X007368Y010675D02*
X007416Y010723D01*
X007416Y010771D01*
X007368Y010820D01*
X007271Y010820D01*
X007222Y010771D01*
X006827Y010771D02*
X006778Y010820D01*
X006682Y010820D01*
X006633Y010771D01*
X006633Y010578D01*
X006682Y010530D01*
X006778Y010530D01*
X006827Y010578D01*
X004689Y009645D02*
X004593Y009597D01*
X004496Y009500D01*
X004641Y009500D01*
X004689Y009452D01*
X004689Y009404D01*
X004641Y009355D01*
X004544Y009355D01*
X004496Y009404D01*
X004496Y009500D01*
X004395Y009500D02*
X004346Y009452D01*
X004201Y009452D01*
X004201Y009355D02*
X004201Y009645D01*
X004346Y009645D01*
X004395Y009597D01*
X004395Y009500D01*
X004298Y009452D02*
X004395Y009355D01*
X006942Y008227D02*
X006942Y007985D01*
X006991Y007937D01*
X007087Y007937D01*
X007136Y007985D01*
X007136Y008227D01*
X007237Y008082D02*
X007430Y008082D01*
X007382Y007937D02*
X007382Y008227D01*
X007237Y008082D01*
X007046Y006312D02*
X006852Y006312D01*
X006852Y006167D01*
X006949Y006216D01*
X006997Y006216D01*
X007046Y006167D01*
X007046Y006071D01*
X006997Y006022D01*
X006901Y006022D01*
X006852Y006071D01*
X006751Y006022D02*
X006558Y006312D01*
X006751Y006312D02*
X006558Y006022D01*
X009763Y008876D02*
X009763Y009166D01*
X009908Y009166D01*
X009957Y009118D01*
X009957Y009021D01*
X009908Y008973D01*
X009763Y008973D01*
X009860Y008973D02*
X009957Y008876D01*
X010058Y008924D02*
X010106Y008876D01*
X010203Y008876D01*
X010251Y008924D01*
X010251Y009021D01*
X010203Y009069D01*
X010154Y009069D01*
X010058Y009021D01*
X010058Y009166D01*
X010251Y009166D01*
X010212Y009388D02*
X010018Y009388D01*
X010212Y009581D01*
X010212Y009630D01*
X010164Y009678D01*
X010067Y009678D01*
X010018Y009630D01*
X009917Y009630D02*
X009869Y009678D01*
X009772Y009678D01*
X009724Y009630D01*
X009724Y009436D01*
X009772Y009388D01*
X009869Y009388D01*
X009917Y009436D01*
X010313Y009388D02*
X010506Y009581D01*
X010506Y009630D01*
X010458Y009678D01*
X010361Y009678D01*
X010313Y009630D01*
X010313Y009388D02*
X010506Y009388D01*
X012165Y009529D02*
X012310Y009529D01*
X012262Y009626D01*
X012262Y009674D01*
X012310Y009722D01*
X012407Y009722D01*
X012456Y009674D01*
X012456Y009577D01*
X012407Y009529D01*
X012456Y009428D02*
X012456Y009234D01*
X012165Y009234D01*
X012165Y009529D02*
X012165Y009722D01*
X005303Y014578D02*
X005254Y014530D01*
X005158Y014530D01*
X005109Y014578D01*
X005008Y014578D02*
X005008Y014820D01*
X005109Y014771D02*
X005158Y014820D01*
X005254Y014820D01*
X005303Y014771D01*
X005303Y014723D01*
X005254Y014675D01*
X005303Y014626D01*
X005303Y014578D01*
X005254Y014675D02*
X005206Y014675D01*
X005008Y014578D02*
X004960Y014530D01*
X004863Y014530D01*
X004815Y014578D01*
X004815Y014820D01*
X004420Y014652D02*
X004107Y014339D01*
X004420Y014652D01*
X004420Y014496D02*
X004107Y014496D01*
X004420Y014496D01*
X004420Y014339D02*
X004107Y014652D01*
X004420Y014339D01*
X004264Y014339D02*
X004264Y014652D01*
X004264Y014339D01*
X005737Y015073D02*
X005786Y015025D01*
X005883Y015025D01*
X005931Y015073D01*
X006032Y015025D02*
X006226Y015025D01*
X006129Y015025D02*
X006129Y015315D01*
X006032Y015218D01*
X005931Y015266D02*
X005883Y015315D01*
X005786Y015315D01*
X005737Y015266D01*
X005737Y015073D01*
X006327Y015073D02*
X006375Y015025D01*
X006472Y015025D01*
X006520Y015073D01*
X006520Y015121D01*
X006472Y015170D01*
X006423Y015170D01*
X006472Y015170D02*
X006520Y015218D01*
X006520Y015266D01*
X006472Y015315D01*
X006375Y015315D01*
X006327Y015266D01*
D13*
X005952Y014315D02*
X005512Y014315D01*
X005272Y014315D01*
X004832Y014315D01*
X005272Y014315D02*
X005274Y014294D01*
X005279Y014274D01*
X005288Y014255D01*
X005300Y014238D01*
X005315Y014223D01*
X005332Y014211D01*
X005351Y014202D01*
X005371Y014197D01*
X005392Y014195D01*
X005413Y014197D01*
X005433Y014202D01*
X005452Y014211D01*
X005469Y014223D01*
X005484Y014238D01*
X005496Y014255D01*
X005505Y014274D01*
X005510Y014294D01*
X005512Y014315D01*
X005510Y014294D01*
X005505Y014274D01*
X005496Y014255D01*
X005484Y014238D01*
X005469Y014223D01*
X005452Y014211D01*
X005433Y014202D01*
X005413Y014197D01*
X005392Y014195D01*
X005371Y014197D01*
X005351Y014202D01*
X005332Y014211D01*
X005315Y014223D01*
X005300Y014238D01*
X005288Y014255D01*
X005279Y014274D01*
X005274Y014294D01*
X005272Y014315D01*
X004832Y012355D02*
X005952Y012355D01*
X006177Y007595D02*
X006677Y007595D01*
X006927Y007345D01*
X007177Y007595D01*
X007677Y007595D01*
X007927Y007345D01*
X008177Y007595D01*
X008677Y007595D01*
X008927Y007345D01*
X009177Y007595D01*
X009677Y007595D01*
X009927Y007345D01*
X009927Y006845D01*
X009677Y006595D01*
X009177Y006595D01*
X008927Y006845D01*
X008677Y006595D01*
X008177Y006595D01*
X007927Y006845D01*
X007677Y006595D01*
X007177Y006595D01*
X006927Y006845D01*
X006677Y006595D01*
X006177Y006595D01*
X005927Y006845D01*
X005677Y006595D01*
X005177Y006595D01*
X004927Y006845D01*
X004677Y006595D01*
X004177Y006595D01*
X003927Y006845D01*
X003927Y007345D01*
X004177Y007595D01*
X004677Y007595D01*
X004927Y007345D01*
X005177Y007595D01*
X005677Y007595D01*
X005927Y007345D01*
X006177Y007595D01*
X011246Y007345D02*
X011246Y006845D01*
X011496Y006595D01*
X011996Y006595D01*
X012246Y006845D01*
X012496Y006595D01*
X012996Y006595D01*
X013246Y006845D01*
X013496Y006595D01*
X013996Y006595D01*
X014246Y006845D01*
X014496Y006595D01*
X014996Y006595D01*
X015246Y006845D01*
X015246Y007345D01*
X014996Y007595D01*
X014496Y007595D01*
X014246Y007345D01*
X013996Y007595D01*
X013496Y007595D01*
X013246Y007345D01*
X012996Y007595D01*
X012496Y007595D01*
X012246Y007345D01*
X011996Y007595D01*
X011496Y007595D01*
X011246Y007345D01*
X016883Y012130D02*
X017133Y012130D01*
X016883Y012130D02*
X016883Y012380D01*
X018103Y011470D02*
X018103Y011070D01*
X020073Y011070D02*
X020073Y011470D01*
X022043Y011470D02*
X022043Y011080D01*
X022233Y012130D02*
X022483Y012130D01*
X022483Y012380D01*
X022313Y012470D02*
X022143Y012300D01*
X023143Y014320D02*
X023543Y014320D01*
X023543Y016300D02*
X023133Y016300D01*
X022483Y017480D02*
X022483Y017730D01*
X022233Y017730D01*
X021253Y018380D02*
X021253Y018780D01*
X019293Y018790D02*
X019293Y018390D01*
X017333Y018390D02*
X017333Y018780D01*
X017133Y017730D02*
X016883Y017730D01*
X016883Y017480D01*
X016223Y013550D02*
X015833Y013550D01*
D14*
X030845Y006032D02*
X030845Y005166D01*
X030845Y006032D02*
X036553Y006032D01*
X036553Y005166D01*
D15*
X022931Y003674D02*
X016632Y003674D01*
X015596Y006870D02*
X015596Y007321D01*
X015371Y007095D01*
X015671Y007095D01*
X012492Y007770D02*
X012192Y007770D01*
X012342Y007770D02*
X012342Y008221D01*
X012192Y008071D01*
X012032Y008221D02*
X012032Y007920D01*
X011882Y007770D01*
X011731Y007920D01*
X011731Y008221D01*
X011571Y008146D02*
X011496Y008221D01*
X011346Y008221D01*
X011271Y008146D01*
X011271Y008071D01*
X011346Y007995D01*
X011496Y007995D01*
X011571Y007920D01*
X011571Y007845D01*
X011496Y007770D01*
X011346Y007770D01*
X011271Y007845D01*
X010971Y007321D02*
X010971Y006870D01*
X010821Y006870D02*
X011121Y006870D01*
X010821Y007171D02*
X010971Y007321D01*
X009542Y007770D02*
X009242Y007770D01*
X009392Y007770D02*
X009392Y008221D01*
X009242Y008071D01*
X007715Y008304D02*
X005982Y008304D01*
X005982Y010296D01*
X007715Y010296D01*
X007715Y008304D01*
X006100Y010166D02*
X006102Y010174D01*
X006107Y010181D01*
X006114Y010185D01*
X006122Y010186D01*
X006130Y010183D01*
X006136Y010178D01*
X006140Y010170D01*
X006140Y010162D01*
X006136Y010154D01*
X006130Y010149D01*
X006122Y010146D01*
X006114Y010147D01*
X006107Y010151D01*
X006102Y010158D01*
X006100Y010166D01*
X004542Y006421D02*
X004392Y006346D01*
X004242Y006195D01*
X004467Y006195D01*
X004542Y006120D01*
X004542Y006045D01*
X004467Y005970D01*
X004317Y005970D01*
X004242Y006045D01*
X004242Y006195D01*
D16*
X009453Y011490D02*
X009760Y011490D01*
X009836Y011567D01*
X009836Y011720D01*
X009760Y011797D01*
X009836Y011950D02*
X009836Y012257D01*
X009836Y012104D02*
X009376Y012104D01*
X009529Y011950D01*
X009453Y011797D02*
X009376Y011720D01*
X009376Y011567D01*
X009453Y011490D01*
X010268Y012045D02*
X010344Y011968D01*
X010651Y011968D01*
X010728Y012045D01*
X010728Y012199D01*
X010651Y012275D01*
X010728Y012429D02*
X010728Y012736D01*
X010728Y012582D02*
X010268Y012582D01*
X010421Y012429D01*
X010344Y012275D02*
X010268Y012199D01*
X010268Y012045D01*
X009836Y012487D02*
X009760Y012411D01*
X009606Y012411D01*
X009606Y012641D01*
X009683Y012718D01*
X009760Y012718D01*
X009836Y012641D01*
X009836Y012487D01*
X009606Y012411D02*
X009453Y012564D01*
X009376Y012718D01*
X010268Y012889D02*
X010268Y013196D01*
X010421Y013119D02*
X010421Y013043D01*
X010498Y012889D01*
X010268Y012889D01*
X010421Y013119D02*
X010498Y013196D01*
X010651Y013196D01*
X010728Y013119D01*
X010728Y012966D01*
X010651Y012889D01*
X009315Y016348D02*
X009161Y016348D01*
X009085Y016425D01*
X009085Y016578D02*
X009238Y016655D01*
X009315Y016655D01*
X009392Y016578D01*
X009392Y016425D01*
X009315Y016348D01*
X009085Y016578D02*
X009085Y016808D01*
X009392Y016808D01*
X008931Y016808D02*
X008931Y016425D01*
X008855Y016348D01*
X008701Y016348D01*
X008624Y016425D01*
X008624Y016808D01*
X018802Y003107D02*
X018802Y002647D01*
X019108Y002647D01*
X019262Y002723D02*
X019339Y002647D01*
X019569Y002647D01*
X019569Y003107D01*
X019569Y002954D02*
X019339Y002954D01*
X019262Y002877D01*
X019262Y002723D01*
X018955Y002877D02*
X018802Y002877D01*
X018802Y003107D02*
X019108Y003107D01*
X019722Y002877D02*
X019722Y002723D01*
X019799Y002647D01*
X020029Y002647D01*
X020029Y002570D02*
X020029Y002954D01*
X019799Y002954D01*
X019722Y002877D01*
X019876Y002493D02*
X019952Y002493D01*
X020029Y002570D01*
X020183Y002723D02*
X020183Y002877D01*
X020259Y002954D01*
X020413Y002954D01*
X020490Y002877D01*
X020490Y002800D01*
X020183Y002800D01*
X020183Y002723D02*
X020259Y002647D01*
X020413Y002647D01*
D17*
X006792Y019192D02*
X006192Y019602D01*
X005932Y019452D01*
X005452Y020592D01*
X004642Y020592D02*
X004172Y019452D01*
X003912Y019602D01*
X003312Y019192D01*
X002852Y019652D01*
X003272Y020272D01*
X003012Y020922D02*
X002262Y021062D01*
X002262Y021712D01*
X003022Y021862D01*
X003292Y022482D02*
X002852Y023122D01*
X003312Y023582D01*
X003972Y023142D01*
X004572Y023392D02*
X004722Y024172D01*
X005372Y024172D01*
X005522Y023392D01*
X006132Y023142D02*
X006792Y023592D01*
X007252Y023122D01*
X006812Y022482D01*
X007082Y021862D02*
X007842Y021712D01*
X007842Y021062D01*
X007092Y020922D01*
X006832Y020262D02*
X007252Y019642D01*
X006792Y019192D01*
X006832Y020261D02*
X006877Y020338D01*
X006918Y020417D01*
X006956Y020498D01*
X006991Y020580D01*
X007022Y020664D01*
X007049Y020749D01*
X007072Y020835D01*
X007092Y020921D01*
X007082Y021862D02*
X007056Y021955D01*
X007026Y022047D01*
X006991Y022138D01*
X006953Y022227D01*
X006910Y022314D01*
X006863Y022399D01*
X006812Y022482D01*
X005452Y020602D02*
X005502Y020632D01*
X005551Y020664D01*
X005598Y020700D01*
X005642Y020739D01*
X005684Y020781D01*
X005722Y020825D01*
X005758Y020872D01*
X005790Y020921D01*
X005819Y020972D01*
X005845Y021025D01*
X005867Y021080D01*
X005885Y021136D01*
X005899Y021193D01*
X005910Y021251D01*
X005917Y021309D01*
X005920Y021368D01*
X005919Y021427D01*
X005914Y021485D01*
X005905Y021543D01*
X005892Y021601D01*
X005876Y021657D01*
X005856Y021713D01*
X005832Y021766D01*
X005805Y021818D01*
X005774Y021869D01*
X005740Y021917D01*
X005703Y021962D01*
X005663Y022005D01*
X005620Y022045D01*
X005574Y022083D01*
X005526Y022117D01*
X005476Y022148D01*
X005424Y022176D01*
X005371Y022200D01*
X005315Y022220D01*
X005259Y022237D01*
X005202Y022250D01*
X005144Y022259D01*
X005085Y022264D01*
X005026Y022265D01*
X004967Y022262D01*
X004909Y022256D01*
X004851Y022245D01*
X004794Y022231D01*
X004738Y022213D01*
X004683Y022191D01*
X004630Y022166D01*
X004579Y022137D01*
X004530Y022105D01*
X004483Y022069D01*
X004438Y022031D01*
X004396Y021990D01*
X004357Y021946D01*
X004321Y021899D01*
X004288Y021850D01*
X004259Y021799D01*
X004233Y021747D01*
X004210Y021692D01*
X004191Y021637D01*
X004176Y021580D01*
X004165Y021522D01*
X004158Y021464D01*
X004154Y021405D01*
X004155Y021346D01*
X004159Y021287D01*
X004167Y021229D01*
X004179Y021172D01*
X004195Y021115D01*
X004215Y021060D01*
X004238Y021005D01*
X004265Y020953D01*
X004295Y020903D01*
X004329Y020854D01*
X004366Y020808D01*
X004405Y020765D01*
X004448Y020724D01*
X004493Y020687D01*
X004540Y020652D01*
X004590Y020620D01*
X004642Y020592D01*
X003272Y020272D02*
X003222Y020359D01*
X003176Y020448D01*
X003134Y020540D01*
X003097Y020633D01*
X003064Y020728D01*
X003036Y020824D01*
X003012Y020922D01*
X003972Y023142D02*
X004053Y023188D01*
X004135Y023230D01*
X004220Y023268D01*
X004306Y023302D01*
X004393Y023333D01*
X004482Y023359D01*
X004572Y023382D01*
X005522Y023392D02*
X005613Y023369D01*
X005704Y023341D01*
X005793Y023309D01*
X005880Y023273D01*
X005966Y023233D01*
X006050Y023190D01*
X006132Y023142D01*
X003292Y022482D02*
X003241Y022399D01*
X003194Y022314D01*
X003152Y022227D01*
X003113Y022138D01*
X003078Y022048D01*
X003048Y021956D01*
X003022Y021862D01*
M02*
