G75*
G70*
%OFA0B0*%
%FSLAX24Y24*%
%IPPOS*%
%LPD*%
%AMOC8*
5,1,8,0,0,1.08239X$1,22.5*
%
%ADD10C,0.0000*%
%ADD11R,0.0780X0.0210*%
%ADD12R,0.0276X0.0354*%
%ADD13R,0.0098X0.0226*%
%ADD14R,0.0256X0.0404*%
%ADD15R,0.0270X0.0091*%
%ADD16C,0.0091*%
%ADD17R,0.0551X0.0945*%
%ADD18R,0.0354X0.0276*%
%ADD19R,0.0551X0.0394*%
%ADD20R,0.0580X0.0110*%
%ADD21R,0.0110X0.0580*%
%ADD22R,0.2050X0.2050*%
%ADD23R,0.0394X0.0394*%
%ADD24R,0.0472X0.0787*%
%ADD25R,0.0091X0.0197*%
%ADD26R,0.0354X0.0362*%
%ADD27R,0.4724X0.0630*%
%ADD28R,0.0472X0.0118*%
%ADD29R,0.0591X0.0787*%
%ADD30R,0.1496X0.0787*%
%ADD31R,0.0591X0.0512*%
%ADD32R,0.0118X0.0748*%
D10*
X001652Y000107D02*
X001722Y000109D01*
X001792Y000115D01*
X001862Y000124D01*
X001931Y000137D01*
X002000Y000154D01*
X002067Y000175D01*
X002133Y000199D01*
X002197Y000227D01*
X002260Y000258D01*
X002322Y000293D01*
X002381Y000331D01*
X002438Y000372D01*
X002493Y000416D01*
X002545Y000463D01*
X002595Y000513D01*
X002642Y000565D01*
X002686Y000620D01*
X002727Y000677D01*
X002765Y000736D01*
X002800Y000798D01*
X002831Y000861D01*
X002859Y000925D01*
X002883Y000991D01*
X002904Y001058D01*
X002921Y001127D01*
X002934Y001196D01*
X002943Y001266D01*
X002949Y001336D01*
X002951Y001406D01*
X002951Y003690D01*
X036573Y003690D01*
X036573Y001524D01*
X036575Y001452D01*
X036581Y001380D01*
X036590Y001308D01*
X036603Y001237D01*
X036620Y001167D01*
X036640Y001098D01*
X036665Y001030D01*
X036692Y000964D01*
X036723Y000898D01*
X036758Y000835D01*
X036795Y000773D01*
X036836Y000714D01*
X036880Y000657D01*
X036927Y000602D01*
X036977Y000550D01*
X037029Y000500D01*
X037084Y000453D01*
X037141Y000409D01*
X037200Y000368D01*
X037262Y000331D01*
X037325Y000296D01*
X037391Y000265D01*
X037457Y000238D01*
X037525Y000213D01*
X037594Y000193D01*
X037664Y000176D01*
X037735Y000163D01*
X037807Y000154D01*
X037879Y000148D01*
X037951Y000146D01*
X037321Y001406D02*
X037323Y001456D01*
X037329Y001506D01*
X037339Y001555D01*
X037353Y001603D01*
X037370Y001650D01*
X037391Y001695D01*
X037416Y001739D01*
X037444Y001780D01*
X037476Y001819D01*
X037510Y001856D01*
X037547Y001890D01*
X037587Y001920D01*
X037629Y001947D01*
X037673Y001971D01*
X037719Y001992D01*
X037766Y002008D01*
X037814Y002021D01*
X037864Y002030D01*
X037913Y002035D01*
X037964Y002036D01*
X038014Y002033D01*
X038063Y002026D01*
X038112Y002015D01*
X038160Y002000D01*
X038206Y001982D01*
X038251Y001960D01*
X038294Y001934D01*
X038335Y001905D01*
X038374Y001873D01*
X038410Y001838D01*
X038442Y001800D01*
X038472Y001760D01*
X038499Y001717D01*
X038522Y001673D01*
X038541Y001627D01*
X038557Y001579D01*
X038569Y001530D01*
X038577Y001481D01*
X038581Y001431D01*
X038581Y001381D01*
X038577Y001331D01*
X038569Y001282D01*
X038557Y001233D01*
X038541Y001185D01*
X038522Y001139D01*
X038499Y001095D01*
X038472Y001052D01*
X038442Y001012D01*
X038410Y000974D01*
X038374Y000939D01*
X038335Y000907D01*
X038294Y000878D01*
X038251Y000852D01*
X038206Y000830D01*
X038160Y000812D01*
X038112Y000797D01*
X038063Y000786D01*
X038014Y000779D01*
X037964Y000776D01*
X037913Y000777D01*
X037864Y000782D01*
X037814Y000791D01*
X037766Y000804D01*
X037719Y000820D01*
X037673Y000841D01*
X037629Y000865D01*
X037587Y000892D01*
X037547Y000922D01*
X037510Y000956D01*
X037476Y000993D01*
X037444Y001032D01*
X037416Y001073D01*
X037391Y001117D01*
X037370Y001162D01*
X037353Y001209D01*
X037339Y001257D01*
X037329Y001306D01*
X037323Y001356D01*
X037321Y001406D01*
X037951Y000147D02*
X038021Y000149D01*
X038091Y000155D01*
X038161Y000164D01*
X038230Y000177D01*
X038299Y000194D01*
X038366Y000215D01*
X038432Y000239D01*
X038496Y000267D01*
X038559Y000298D01*
X038621Y000333D01*
X038680Y000371D01*
X038737Y000412D01*
X038792Y000456D01*
X038844Y000503D01*
X038894Y000553D01*
X038941Y000605D01*
X038985Y000660D01*
X039026Y000717D01*
X039064Y000776D01*
X039099Y000838D01*
X039130Y000901D01*
X039158Y000965D01*
X039182Y001031D01*
X039203Y001098D01*
X039220Y001167D01*
X039233Y001236D01*
X039242Y001306D01*
X039248Y001376D01*
X039250Y001446D01*
X039250Y003690D01*
X039349Y003690D01*
X039329Y025619D01*
X038837Y025619D01*
X038837Y028217D01*
X036907Y027981D02*
X036909Y028031D01*
X036915Y028081D01*
X036925Y028130D01*
X036939Y028178D01*
X036956Y028225D01*
X036977Y028270D01*
X037002Y028314D01*
X037030Y028355D01*
X037062Y028394D01*
X037096Y028431D01*
X037133Y028465D01*
X037173Y028495D01*
X037215Y028522D01*
X037259Y028546D01*
X037305Y028567D01*
X037352Y028583D01*
X037400Y028596D01*
X037450Y028605D01*
X037499Y028610D01*
X037550Y028611D01*
X037600Y028608D01*
X037649Y028601D01*
X037698Y028590D01*
X037746Y028575D01*
X037792Y028557D01*
X037837Y028535D01*
X037880Y028509D01*
X037921Y028480D01*
X037960Y028448D01*
X037996Y028413D01*
X038028Y028375D01*
X038058Y028335D01*
X038085Y028292D01*
X038108Y028248D01*
X038127Y028202D01*
X038143Y028154D01*
X038155Y028105D01*
X038163Y028056D01*
X038167Y028006D01*
X038167Y027956D01*
X038163Y027906D01*
X038155Y027857D01*
X038143Y027808D01*
X038127Y027760D01*
X038108Y027714D01*
X038085Y027670D01*
X038058Y027627D01*
X038028Y027587D01*
X037996Y027549D01*
X037960Y027514D01*
X037921Y027482D01*
X037880Y027453D01*
X037837Y027427D01*
X037792Y027405D01*
X037746Y027387D01*
X037698Y027372D01*
X037649Y027361D01*
X037600Y027354D01*
X037550Y027351D01*
X037499Y027352D01*
X037450Y027357D01*
X037400Y027366D01*
X037352Y027379D01*
X037305Y027395D01*
X037259Y027416D01*
X037215Y027440D01*
X037173Y027467D01*
X037133Y027497D01*
X037096Y027531D01*
X037062Y027568D01*
X037030Y027607D01*
X037002Y027648D01*
X036977Y027692D01*
X036956Y027737D01*
X036939Y027784D01*
X036925Y027832D01*
X036915Y027881D01*
X036909Y027931D01*
X036907Y027981D01*
X037459Y029595D02*
X037531Y029593D01*
X037603Y029587D01*
X037675Y029578D01*
X037746Y029565D01*
X037816Y029548D01*
X037885Y029528D01*
X037953Y029503D01*
X038019Y029476D01*
X038085Y029445D01*
X038148Y029410D01*
X038210Y029373D01*
X038269Y029332D01*
X038326Y029288D01*
X038381Y029241D01*
X038433Y029191D01*
X038483Y029139D01*
X038530Y029084D01*
X038574Y029027D01*
X038615Y028968D01*
X038652Y028906D01*
X038687Y028843D01*
X038718Y028777D01*
X038745Y028711D01*
X038770Y028643D01*
X038790Y028574D01*
X038807Y028504D01*
X038820Y028433D01*
X038829Y028361D01*
X038835Y028289D01*
X038837Y028217D01*
X037459Y029595D02*
X037389Y029593D01*
X037319Y029587D01*
X037249Y029578D01*
X037180Y029565D01*
X037111Y029548D01*
X037044Y029527D01*
X036978Y029503D01*
X036914Y029475D01*
X036851Y029444D01*
X036789Y029409D01*
X036730Y029371D01*
X036673Y029330D01*
X036618Y029286D01*
X036566Y029239D01*
X036516Y029189D01*
X036469Y029137D01*
X036425Y029082D01*
X036384Y029025D01*
X036346Y028966D01*
X036311Y028904D01*
X036280Y028841D01*
X036252Y028777D01*
X036228Y028711D01*
X036207Y028644D01*
X036190Y028575D01*
X036177Y028506D01*
X036168Y028436D01*
X036162Y028366D01*
X036160Y028296D01*
X036160Y025619D01*
X003089Y025580D01*
X003089Y028178D01*
X001120Y027902D02*
X001122Y027952D01*
X001128Y028002D01*
X001138Y028051D01*
X001152Y028099D01*
X001169Y028146D01*
X001190Y028191D01*
X001215Y028235D01*
X001243Y028276D01*
X001275Y028315D01*
X001309Y028352D01*
X001346Y028386D01*
X001386Y028416D01*
X001428Y028443D01*
X001472Y028467D01*
X001518Y028488D01*
X001565Y028504D01*
X001613Y028517D01*
X001663Y028526D01*
X001712Y028531D01*
X001763Y028532D01*
X001813Y028529D01*
X001862Y028522D01*
X001911Y028511D01*
X001959Y028496D01*
X002005Y028478D01*
X002050Y028456D01*
X002093Y028430D01*
X002134Y028401D01*
X002173Y028369D01*
X002209Y028334D01*
X002241Y028296D01*
X002271Y028256D01*
X002298Y028213D01*
X002321Y028169D01*
X002340Y028123D01*
X002356Y028075D01*
X002368Y028026D01*
X002376Y027977D01*
X002380Y027927D01*
X002380Y027877D01*
X002376Y027827D01*
X002368Y027778D01*
X002356Y027729D01*
X002340Y027681D01*
X002321Y027635D01*
X002298Y027591D01*
X002271Y027548D01*
X002241Y027508D01*
X002209Y027470D01*
X002173Y027435D01*
X002134Y027403D01*
X002093Y027374D01*
X002050Y027348D01*
X002005Y027326D01*
X001959Y027308D01*
X001911Y027293D01*
X001862Y027282D01*
X001813Y027275D01*
X001763Y027272D01*
X001712Y027273D01*
X001663Y027278D01*
X001613Y027287D01*
X001565Y027300D01*
X001518Y027316D01*
X001472Y027337D01*
X001428Y027361D01*
X001386Y027388D01*
X001346Y027418D01*
X001309Y027452D01*
X001275Y027489D01*
X001243Y027528D01*
X001215Y027569D01*
X001190Y027613D01*
X001169Y027658D01*
X001152Y027705D01*
X001138Y027753D01*
X001128Y027802D01*
X001122Y027852D01*
X001120Y027902D01*
X001711Y029556D02*
X001783Y029554D01*
X001855Y029548D01*
X001927Y029539D01*
X001998Y029526D01*
X002068Y029509D01*
X002137Y029489D01*
X002205Y029464D01*
X002271Y029437D01*
X002337Y029406D01*
X002400Y029371D01*
X002462Y029334D01*
X002521Y029293D01*
X002578Y029249D01*
X002633Y029202D01*
X002685Y029152D01*
X002735Y029100D01*
X002782Y029045D01*
X002826Y028988D01*
X002867Y028929D01*
X002904Y028867D01*
X002939Y028804D01*
X002970Y028738D01*
X002997Y028672D01*
X003022Y028604D01*
X003042Y028535D01*
X003059Y028465D01*
X003072Y028394D01*
X003081Y028322D01*
X003087Y028250D01*
X003089Y028178D01*
X001711Y029556D02*
X001641Y029554D01*
X001571Y029548D01*
X001501Y029539D01*
X001432Y029526D01*
X001363Y029509D01*
X001296Y029488D01*
X001230Y029464D01*
X001166Y029436D01*
X001103Y029405D01*
X001041Y029370D01*
X000982Y029332D01*
X000925Y029291D01*
X000870Y029247D01*
X000818Y029200D01*
X000768Y029150D01*
X000721Y029098D01*
X000677Y029043D01*
X000636Y028986D01*
X000598Y028927D01*
X000563Y028865D01*
X000532Y028802D01*
X000504Y028738D01*
X000480Y028672D01*
X000459Y028605D01*
X000442Y028536D01*
X000429Y028467D01*
X000420Y028397D01*
X000414Y028327D01*
X000412Y028257D01*
X000411Y028257D02*
X000411Y025580D01*
X000136Y025580D01*
X000136Y003690D01*
X000274Y003690D01*
X000274Y001485D01*
X000982Y001524D02*
X000984Y001574D01*
X000990Y001624D01*
X001000Y001673D01*
X001014Y001721D01*
X001031Y001768D01*
X001052Y001813D01*
X001077Y001857D01*
X001105Y001898D01*
X001137Y001937D01*
X001171Y001974D01*
X001208Y002008D01*
X001248Y002038D01*
X001290Y002065D01*
X001334Y002089D01*
X001380Y002110D01*
X001427Y002126D01*
X001475Y002139D01*
X001525Y002148D01*
X001574Y002153D01*
X001625Y002154D01*
X001675Y002151D01*
X001724Y002144D01*
X001773Y002133D01*
X001821Y002118D01*
X001867Y002100D01*
X001912Y002078D01*
X001955Y002052D01*
X001996Y002023D01*
X002035Y001991D01*
X002071Y001956D01*
X002103Y001918D01*
X002133Y001878D01*
X002160Y001835D01*
X002183Y001791D01*
X002202Y001745D01*
X002218Y001697D01*
X002230Y001648D01*
X002238Y001599D01*
X002242Y001549D01*
X002242Y001499D01*
X002238Y001449D01*
X002230Y001400D01*
X002218Y001351D01*
X002202Y001303D01*
X002183Y001257D01*
X002160Y001213D01*
X002133Y001170D01*
X002103Y001130D01*
X002071Y001092D01*
X002035Y001057D01*
X001996Y001025D01*
X001955Y000996D01*
X001912Y000970D01*
X001867Y000948D01*
X001821Y000930D01*
X001773Y000915D01*
X001724Y000904D01*
X001675Y000897D01*
X001625Y000894D01*
X001574Y000895D01*
X001525Y000900D01*
X001475Y000909D01*
X001427Y000922D01*
X001380Y000938D01*
X001334Y000959D01*
X001290Y000983D01*
X001248Y001010D01*
X001208Y001040D01*
X001171Y001074D01*
X001137Y001111D01*
X001105Y001150D01*
X001077Y001191D01*
X001052Y001235D01*
X001031Y001280D01*
X001014Y001327D01*
X001000Y001375D01*
X000990Y001424D01*
X000984Y001474D01*
X000982Y001524D01*
X000274Y001485D02*
X000276Y001413D01*
X000282Y001341D01*
X000291Y001269D01*
X000304Y001198D01*
X000321Y001128D01*
X000341Y001059D01*
X000366Y000991D01*
X000393Y000925D01*
X000424Y000859D01*
X000459Y000796D01*
X000496Y000734D01*
X000537Y000675D01*
X000581Y000618D01*
X000628Y000563D01*
X000678Y000511D01*
X000730Y000461D01*
X000785Y000414D01*
X000842Y000370D01*
X000901Y000329D01*
X000963Y000292D01*
X001026Y000257D01*
X001092Y000226D01*
X001158Y000199D01*
X001226Y000174D01*
X001295Y000154D01*
X001365Y000137D01*
X001436Y000124D01*
X001508Y000115D01*
X001580Y000109D01*
X001652Y000107D01*
D11*
X004422Y012585D03*
X004422Y013085D03*
X004422Y013585D03*
X004422Y014085D03*
X006362Y014085D03*
X006362Y013585D03*
X006362Y013085D03*
X006362Y012585D03*
D12*
X007262Y012587D03*
X007774Y012587D03*
X007774Y013099D03*
X007262Y013099D03*
X006396Y014713D03*
X005884Y014713D03*
X005726Y011347D03*
X006238Y011347D03*
X006238Y010678D03*
X005726Y010678D03*
X005057Y009044D03*
X004545Y009044D03*
X008876Y009024D03*
X009388Y009024D03*
X009388Y009536D03*
X008876Y009536D03*
X015136Y014143D03*
X015648Y014143D03*
X015648Y016111D03*
X015136Y016111D03*
X023699Y015914D03*
X024211Y015914D03*
X024230Y014261D03*
X024742Y014261D03*
X024230Y013552D03*
X023719Y013552D03*
X035572Y010687D03*
X036084Y010687D03*
X036356Y014812D03*
X036868Y014812D03*
D13*
X037243Y010824D03*
X037459Y010824D03*
X037459Y009554D03*
X037243Y009554D03*
D14*
X037164Y009928D03*
X037538Y009928D03*
X037538Y010449D03*
X037164Y010449D03*
D15*
X036758Y010386D03*
X036758Y010582D03*
X036758Y010189D03*
X036758Y009992D03*
X036758Y009795D03*
X037945Y009795D03*
X037945Y009992D03*
X037945Y010189D03*
X037945Y010386D03*
X037945Y010582D03*
D16*
X037810Y010582D03*
X037810Y010386D03*
X037810Y010189D03*
X037810Y009992D03*
X037810Y009795D03*
X036892Y009795D03*
X036892Y009992D03*
X036892Y010189D03*
X036892Y010386D03*
X036892Y010582D03*
D17*
X036879Y011704D03*
X037823Y011704D03*
D18*
X038749Y010386D03*
X038749Y009874D03*
X036787Y009133D03*
X036787Y008621D03*
X037833Y013690D03*
X037833Y014202D03*
X038541Y014202D03*
X038541Y013690D03*
X022341Y010461D03*
X022341Y009950D03*
X021652Y010580D03*
X021140Y010580D03*
X021140Y011091D03*
X021652Y011091D03*
X019742Y011091D03*
X019014Y011052D03*
X018561Y011052D03*
X018561Y010540D03*
X019014Y010540D03*
X019742Y010580D03*
X017537Y010540D03*
X017537Y011052D03*
X016868Y008493D03*
X016868Y007981D03*
X010490Y013749D03*
X010490Y014261D03*
X018699Y018906D03*
X018699Y019418D03*
X019683Y019438D03*
X019683Y018926D03*
X021455Y018965D03*
X021455Y019477D03*
D19*
X036317Y014123D03*
X036317Y013375D03*
X037183Y013749D03*
D20*
X022723Y013750D03*
X022723Y013950D03*
X022723Y014140D03*
X022723Y014340D03*
X022723Y014540D03*
X022723Y014730D03*
X022723Y014930D03*
X022723Y015130D03*
X022723Y015320D03*
X022723Y015520D03*
X022723Y015720D03*
X022723Y015910D03*
X022723Y016110D03*
X022723Y016310D03*
X022723Y016500D03*
X022723Y016700D03*
X022723Y016900D03*
X022723Y017100D03*
X022723Y017290D03*
X022723Y013550D03*
X022723Y013360D03*
X022723Y013160D03*
X022723Y012960D03*
X022723Y012760D03*
X022723Y012570D03*
X016643Y012570D03*
X016643Y012760D03*
X016643Y012960D03*
X016643Y013160D03*
X016643Y013360D03*
X016643Y013550D03*
X016643Y013750D03*
X016643Y013950D03*
X016643Y014140D03*
X016643Y014340D03*
X016643Y014540D03*
X016643Y014730D03*
X016643Y014930D03*
X016643Y015130D03*
X016643Y015320D03*
X016643Y015520D03*
X016643Y015720D03*
X016643Y015910D03*
X016643Y016110D03*
X016643Y016310D03*
X016643Y016500D03*
X016643Y016700D03*
X016643Y016900D03*
X016643Y017100D03*
X016643Y017290D03*
D21*
X017323Y017970D03*
X017513Y017970D03*
X017713Y017970D03*
X017913Y017970D03*
X018113Y017970D03*
X018303Y017970D03*
X018503Y017970D03*
X018703Y017970D03*
X018893Y017970D03*
X019093Y017970D03*
X019293Y017970D03*
X019483Y017970D03*
X019683Y017970D03*
X019883Y017970D03*
X020073Y017970D03*
X020273Y017970D03*
X020473Y017970D03*
X020663Y017970D03*
X020863Y017970D03*
X021063Y017970D03*
X021253Y017970D03*
X021453Y017970D03*
X021653Y017970D03*
X021853Y017970D03*
X022043Y017970D03*
X022043Y011890D03*
X021853Y011890D03*
X021653Y011890D03*
X021453Y011890D03*
X021253Y011890D03*
X021063Y011890D03*
X020863Y011890D03*
X020663Y011890D03*
X020473Y011890D03*
X020273Y011890D03*
X020073Y011890D03*
X019883Y011890D03*
X019683Y011890D03*
X019483Y011890D03*
X019293Y011890D03*
X019093Y011890D03*
X018893Y011890D03*
X018703Y011890D03*
X018503Y011890D03*
X018303Y011890D03*
X018113Y011890D03*
X017913Y011890D03*
X017713Y011890D03*
X017513Y011890D03*
X017323Y011890D03*
D22*
X019693Y014910D03*
D23*
X012911Y014969D03*
X012911Y014182D03*
X012911Y012371D03*
X012911Y011583D03*
X012911Y009792D03*
X012911Y009005D03*
X012911Y016820D03*
X012911Y017607D03*
D24*
X014132Y017627D03*
X014132Y016524D03*
X014171Y014969D03*
X014171Y013867D03*
X014191Y012430D03*
X014191Y011328D03*
X014191Y009871D03*
X014191Y008769D03*
D25*
X031415Y006072D03*
X031573Y006072D03*
X031730Y006072D03*
X031888Y006072D03*
X032045Y006072D03*
X032203Y006072D03*
X032360Y006072D03*
X032518Y006072D03*
X032675Y006072D03*
X032833Y006072D03*
X032990Y006072D03*
X033148Y006072D03*
X033305Y006072D03*
X033463Y006072D03*
X033620Y006072D03*
X033778Y006072D03*
X033935Y006072D03*
X034093Y006072D03*
X034250Y006072D03*
X034408Y006072D03*
X034565Y006072D03*
X034723Y006072D03*
X034880Y006072D03*
X035037Y006072D03*
X035195Y006072D03*
X035352Y006072D03*
X035510Y006072D03*
X035667Y006072D03*
X035825Y006072D03*
X035982Y006072D03*
X035982Y005127D03*
X035825Y005127D03*
X035667Y005127D03*
X035510Y005127D03*
X035352Y005127D03*
X035195Y005127D03*
X035037Y005127D03*
X034880Y005127D03*
X034723Y005127D03*
X034565Y005127D03*
X034408Y005127D03*
X034250Y005127D03*
X034093Y005127D03*
X033935Y005127D03*
X033778Y005127D03*
X033620Y005127D03*
X033463Y005127D03*
X033305Y005127D03*
X033148Y005127D03*
X032990Y005127D03*
X032833Y005127D03*
X032675Y005127D03*
X032518Y005127D03*
X032360Y005127D03*
X032203Y005127D03*
X032045Y005127D03*
X031888Y005127D03*
X031730Y005127D03*
X031573Y005127D03*
X031415Y005127D03*
D26*
X031022Y005166D03*
X031022Y006032D03*
X036376Y006032D03*
X036376Y005166D03*
D27*
X033699Y005599D03*
D28*
X007990Y008532D03*
X007990Y008788D03*
X007990Y009044D03*
X007990Y009300D03*
X007990Y009556D03*
X007990Y009812D03*
X007990Y010068D03*
X005707Y010068D03*
X005707Y009812D03*
X005707Y009556D03*
X005707Y009300D03*
X005707Y009044D03*
X005707Y008788D03*
X005707Y008532D03*
D29*
X008699Y015068D03*
X009604Y015068D03*
X010510Y015068D03*
D30*
X009604Y017548D03*
D31*
X009604Y014162D03*
X009604Y013414D03*
D32*
X018089Y007001D03*
X018286Y007001D03*
X018482Y007001D03*
X018679Y007001D03*
X018896Y007001D03*
X019093Y007001D03*
X019289Y007001D03*
X019486Y007001D03*
X019683Y007001D03*
X019880Y007001D03*
X020077Y007001D03*
X020274Y007001D03*
X020471Y007001D03*
X020667Y007001D03*
X020864Y007001D03*
X021061Y007001D03*
X021258Y007001D03*
X021455Y007001D03*
X021652Y007001D03*
M02*
