G75*
%MOIN*%
%OFA0B0*%
%FSLAX24Y24*%
%IPPOS*%
%LPD*%
%AMOC8*
5,1,8,0,0,1.08239X$1,22.5*
%
%ADD10C,0.0000*%
%ADD11C,0.1300*%
%ADD12C,0.0138*%
%ADD13R,0.0118X0.0236*%
%ADD14R,0.0669X0.0965*%
%ADD15R,0.0299X0.0138*%
%ADD16R,0.0591X0.0985*%
%ADD17R,0.0316X0.0394*%
%ADD18R,0.0394X0.0316*%
%ADD19R,0.0591X0.0434*%
%ADD20R,0.0620X0.0150*%
%ADD21R,0.0150X0.0620*%
%ADD22R,0.2090X0.2090*%
%ADD23R,0.0434X0.0434*%
%ADD24R,0.0512X0.0827*%
%ADD25R,0.0131X0.0237*%
%ADD26R,0.0394X0.0402*%
%ADD27R,0.0631X0.0827*%
%ADD28R,0.1536X0.0827*%
%ADD29R,0.0552X0.0631*%
%ADD30C,0.0434*%
%ADD31R,0.0240X0.0620*%
%ADD32R,0.0620X0.0240*%
%ADD33R,0.0840X0.0840*%
%ADD34R,0.0355X0.0355*%
%ADD35C,0.0540*%
%ADD36R,0.1024X0.0906*%
%ADD37R,0.0237X0.0827*%
%ADD38R,0.0709X0.0434*%
%ADD39C,0.0640*%
%ADD40R,0.0906X0.0591*%
%ADD41R,0.0560X0.0260*%
%ADD42R,0.0158X0.0591*%
%ADD43R,0.1083X0.0946*%
%ADD44R,0.0131X0.0434*%
%ADD45R,0.0131X0.0375*%
%ADD46C,0.0788*%
D10*
X000150Y004791D02*
X000150Y032921D01*
X000878Y032940D02*
X000880Y032990D01*
X000886Y033040D01*
X000896Y033089D01*
X000910Y033137D01*
X000927Y033184D01*
X000948Y033229D01*
X000973Y033273D01*
X001001Y033314D01*
X001033Y033353D01*
X001067Y033390D01*
X001104Y033424D01*
X001144Y033454D01*
X001186Y033481D01*
X001230Y033505D01*
X001276Y033526D01*
X001323Y033542D01*
X001371Y033555D01*
X001421Y033564D01*
X001470Y033569D01*
X001521Y033570D01*
X001571Y033567D01*
X001620Y033560D01*
X001669Y033549D01*
X001717Y033534D01*
X001763Y033516D01*
X001808Y033494D01*
X001851Y033468D01*
X001892Y033439D01*
X001931Y033407D01*
X001967Y033372D01*
X001999Y033334D01*
X002029Y033294D01*
X002056Y033251D01*
X002079Y033207D01*
X002098Y033161D01*
X002114Y033113D01*
X002126Y033064D01*
X002134Y033015D01*
X002138Y032965D01*
X002138Y032915D01*
X002134Y032865D01*
X002126Y032816D01*
X002114Y032767D01*
X002098Y032719D01*
X002079Y032673D01*
X002056Y032629D01*
X002029Y032586D01*
X001999Y032546D01*
X001967Y032508D01*
X001931Y032473D01*
X001892Y032441D01*
X001851Y032412D01*
X001808Y032386D01*
X001763Y032364D01*
X001717Y032346D01*
X001669Y032331D01*
X001620Y032320D01*
X001571Y032313D01*
X001521Y032310D01*
X001470Y032311D01*
X001421Y032316D01*
X001371Y032325D01*
X001323Y032338D01*
X001276Y032354D01*
X001230Y032375D01*
X001186Y032399D01*
X001144Y032426D01*
X001104Y032456D01*
X001067Y032490D01*
X001033Y032527D01*
X001001Y032566D01*
X000973Y032607D01*
X000948Y032651D01*
X000927Y032696D01*
X000910Y032743D01*
X000896Y032791D01*
X000886Y032840D01*
X000880Y032890D01*
X000878Y032940D01*
X000150Y032920D02*
X000154Y032992D01*
X000163Y033064D01*
X000175Y033136D01*
X000191Y033206D01*
X000211Y033276D01*
X000234Y033344D01*
X000261Y033411D01*
X000292Y033477D01*
X000326Y033541D01*
X000363Y033603D01*
X000403Y033663D01*
X000447Y033720D01*
X000494Y033776D01*
X000543Y033828D01*
X000596Y033878D01*
X000651Y033925D01*
X000708Y033970D01*
X000768Y034011D01*
X000829Y034048D01*
X000893Y034083D01*
X000958Y034114D01*
X001025Y034141D01*
X001094Y034165D01*
X001163Y034185D01*
X001233Y034202D01*
X001305Y034215D01*
X001377Y034224D01*
X001449Y034229D01*
X001521Y034230D01*
X001593Y034227D01*
X001665Y034221D01*
X001737Y034211D01*
X001808Y034196D01*
X001878Y034179D01*
X001947Y034157D01*
X002015Y034132D01*
X002081Y034103D01*
X002146Y034071D01*
X002209Y034035D01*
X002270Y033996D01*
X002329Y033954D01*
X002385Y033909D01*
X002439Y033861D01*
X002491Y033810D01*
X002539Y033756D01*
X002585Y033700D01*
X002628Y033641D01*
X002667Y033581D01*
X002703Y033518D01*
X002736Y033454D01*
X002765Y033387D01*
X002791Y033320D01*
X002813Y033251D01*
X002831Y033181D01*
X002846Y033110D01*
X002857Y033038D01*
X002864Y032966D01*
X002867Y032894D01*
X002866Y032822D01*
X002866Y029791D01*
X036803Y029791D01*
X036803Y033058D01*
X036805Y033130D01*
X036811Y033202D01*
X036820Y033274D01*
X036834Y033345D01*
X036851Y033415D01*
X036872Y033485D01*
X036896Y033553D01*
X036924Y033619D01*
X036956Y033684D01*
X036991Y033747D01*
X037029Y033809D01*
X037071Y033868D01*
X037116Y033925D01*
X037163Y033979D01*
X037214Y034031D01*
X037267Y034080D01*
X037322Y034126D01*
X037380Y034169D01*
X037441Y034209D01*
X037503Y034246D01*
X037567Y034279D01*
X037633Y034309D01*
X037700Y034335D01*
X037769Y034358D01*
X037839Y034377D01*
X037909Y034392D01*
X037981Y034404D01*
X038053Y034412D01*
X038125Y034416D01*
X038197Y034416D01*
X038269Y034412D01*
X038341Y034404D01*
X038413Y034392D01*
X038483Y034377D01*
X038553Y034358D01*
X038622Y034335D01*
X038689Y034309D01*
X038755Y034279D01*
X038819Y034246D01*
X038881Y034209D01*
X038942Y034169D01*
X039000Y034126D01*
X039055Y034080D01*
X039108Y034031D01*
X039159Y033979D01*
X039206Y033925D01*
X039251Y033868D01*
X039293Y033809D01*
X039331Y033747D01*
X039366Y033684D01*
X039398Y033619D01*
X039426Y033553D01*
X039450Y033485D01*
X039471Y033415D01*
X039488Y033345D01*
X039502Y033274D01*
X039511Y033202D01*
X039517Y033130D01*
X039519Y033058D01*
X039520Y033058D02*
X039520Y004791D01*
X037531Y004791D02*
X037533Y004841D01*
X037539Y004891D01*
X037549Y004940D01*
X037563Y004988D01*
X037580Y005035D01*
X037601Y005080D01*
X037626Y005124D01*
X037654Y005165D01*
X037686Y005204D01*
X037720Y005241D01*
X037757Y005275D01*
X037797Y005305D01*
X037839Y005332D01*
X037883Y005356D01*
X037929Y005377D01*
X037976Y005393D01*
X038024Y005406D01*
X038074Y005415D01*
X038123Y005420D01*
X038174Y005421D01*
X038224Y005418D01*
X038273Y005411D01*
X038322Y005400D01*
X038370Y005385D01*
X038416Y005367D01*
X038461Y005345D01*
X038504Y005319D01*
X038545Y005290D01*
X038584Y005258D01*
X038620Y005223D01*
X038652Y005185D01*
X038682Y005145D01*
X038709Y005102D01*
X038732Y005058D01*
X038751Y005012D01*
X038767Y004964D01*
X038779Y004915D01*
X038787Y004866D01*
X038791Y004816D01*
X038791Y004766D01*
X038787Y004716D01*
X038779Y004667D01*
X038767Y004618D01*
X038751Y004570D01*
X038732Y004524D01*
X038709Y004480D01*
X038682Y004437D01*
X038652Y004397D01*
X038620Y004359D01*
X038584Y004324D01*
X038545Y004292D01*
X038504Y004263D01*
X038461Y004237D01*
X038416Y004215D01*
X038370Y004197D01*
X038322Y004182D01*
X038273Y004171D01*
X038224Y004164D01*
X038174Y004161D01*
X038123Y004162D01*
X038074Y004167D01*
X038024Y004176D01*
X037976Y004189D01*
X037929Y004205D01*
X037883Y004226D01*
X037839Y004250D01*
X037797Y004277D01*
X037757Y004307D01*
X037720Y004341D01*
X037686Y004378D01*
X037654Y004417D01*
X037626Y004458D01*
X037601Y004502D01*
X037580Y004547D01*
X037563Y004594D01*
X037549Y004642D01*
X037539Y004691D01*
X037533Y004741D01*
X037531Y004791D01*
X036803Y004791D02*
X036805Y004719D01*
X036811Y004647D01*
X036820Y004575D01*
X036834Y004504D01*
X036851Y004434D01*
X036872Y004364D01*
X036896Y004296D01*
X036924Y004230D01*
X036956Y004165D01*
X036991Y004102D01*
X037029Y004040D01*
X037071Y003981D01*
X037116Y003924D01*
X037163Y003870D01*
X037214Y003818D01*
X037267Y003769D01*
X037322Y003723D01*
X037380Y003680D01*
X037441Y003640D01*
X037503Y003603D01*
X037567Y003570D01*
X037633Y003540D01*
X037700Y003514D01*
X037769Y003491D01*
X037839Y003472D01*
X037909Y003457D01*
X037981Y003445D01*
X038053Y003437D01*
X038125Y003433D01*
X038197Y003433D01*
X038269Y003437D01*
X038341Y003445D01*
X038413Y003457D01*
X038483Y003472D01*
X038553Y003491D01*
X038622Y003514D01*
X038689Y003540D01*
X038755Y003570D01*
X038819Y003603D01*
X038881Y003640D01*
X038942Y003680D01*
X039000Y003723D01*
X039055Y003769D01*
X039108Y003818D01*
X039159Y003870D01*
X039206Y003924D01*
X039251Y003981D01*
X039293Y004040D01*
X039331Y004102D01*
X039366Y004165D01*
X039398Y004230D01*
X039426Y004296D01*
X039450Y004364D01*
X039471Y004434D01*
X039488Y004504D01*
X039502Y004575D01*
X039511Y004647D01*
X039517Y004719D01*
X039519Y004791D01*
X036803Y004791D02*
X036803Y007212D01*
X037039Y007212D01*
X037039Y007901D01*
X002866Y007901D01*
X002866Y004732D01*
X002867Y004731D02*
X002863Y004659D01*
X002856Y004587D01*
X002845Y004516D01*
X002830Y004445D01*
X002811Y004375D01*
X002789Y004306D01*
X002763Y004239D01*
X002733Y004173D01*
X002700Y004108D01*
X002664Y004046D01*
X002624Y003985D01*
X002581Y003927D01*
X002535Y003871D01*
X002486Y003818D01*
X002435Y003767D01*
X002380Y003719D01*
X002324Y003674D01*
X002265Y003632D01*
X002204Y003594D01*
X002141Y003558D01*
X002076Y003526D01*
X002009Y003498D01*
X001941Y003473D01*
X001872Y003452D01*
X001802Y003434D01*
X001731Y003420D01*
X001659Y003410D01*
X001587Y003404D01*
X001515Y003402D01*
X001442Y003404D01*
X001370Y003409D01*
X001298Y003418D01*
X001227Y003431D01*
X001157Y003448D01*
X001087Y003469D01*
X001019Y003493D01*
X000953Y003521D01*
X000887Y003552D01*
X000824Y003587D01*
X000762Y003625D01*
X000703Y003666D01*
X000646Y003711D01*
X000591Y003758D01*
X000539Y003808D01*
X000490Y003861D01*
X000443Y003917D01*
X000400Y003974D01*
X000359Y004035D01*
X000322Y004097D01*
X000289Y004161D01*
X000259Y004226D01*
X000232Y004294D01*
X000209Y004362D01*
X000189Y004432D01*
X000174Y004503D01*
X000162Y004574D01*
X000154Y004646D01*
X000150Y004718D01*
X000149Y004791D01*
X000878Y004791D02*
X000880Y004841D01*
X000886Y004891D01*
X000896Y004940D01*
X000910Y004988D01*
X000927Y005035D01*
X000948Y005080D01*
X000973Y005124D01*
X001001Y005165D01*
X001033Y005204D01*
X001067Y005241D01*
X001104Y005275D01*
X001144Y005305D01*
X001186Y005332D01*
X001230Y005356D01*
X001276Y005377D01*
X001323Y005393D01*
X001371Y005406D01*
X001421Y005415D01*
X001470Y005420D01*
X001521Y005421D01*
X001571Y005418D01*
X001620Y005411D01*
X001669Y005400D01*
X001717Y005385D01*
X001763Y005367D01*
X001808Y005345D01*
X001851Y005319D01*
X001892Y005290D01*
X001931Y005258D01*
X001967Y005223D01*
X001999Y005185D01*
X002029Y005145D01*
X002056Y005102D01*
X002079Y005058D01*
X002098Y005012D01*
X002114Y004964D01*
X002126Y004915D01*
X002134Y004866D01*
X002138Y004816D01*
X002138Y004766D01*
X002134Y004716D01*
X002126Y004667D01*
X002114Y004618D01*
X002098Y004570D01*
X002079Y004524D01*
X002056Y004480D01*
X002029Y004437D01*
X001999Y004397D01*
X001967Y004359D01*
X001931Y004324D01*
X001892Y004292D01*
X001851Y004263D01*
X001808Y004237D01*
X001763Y004215D01*
X001717Y004197D01*
X001669Y004182D01*
X001620Y004171D01*
X001571Y004164D01*
X001521Y004161D01*
X001470Y004162D01*
X001421Y004167D01*
X001371Y004176D01*
X001323Y004189D01*
X001276Y004205D01*
X001230Y004226D01*
X001186Y004250D01*
X001144Y004277D01*
X001104Y004307D01*
X001067Y004341D01*
X001033Y004378D01*
X001001Y004417D01*
X000973Y004458D01*
X000948Y004502D01*
X000927Y004547D01*
X000910Y004594D01*
X000896Y004642D01*
X000886Y004691D01*
X000880Y004741D01*
X000878Y004791D01*
X001823Y012094D02*
X001823Y028432D01*
X012158Y028432D01*
X012158Y012094D01*
X001823Y012094D01*
X037531Y032921D02*
X037533Y032971D01*
X037539Y033021D01*
X037549Y033070D01*
X037563Y033118D01*
X037580Y033165D01*
X037601Y033210D01*
X037626Y033254D01*
X037654Y033295D01*
X037686Y033334D01*
X037720Y033371D01*
X037757Y033405D01*
X037797Y033435D01*
X037839Y033462D01*
X037883Y033486D01*
X037929Y033507D01*
X037976Y033523D01*
X038024Y033536D01*
X038074Y033545D01*
X038123Y033550D01*
X038174Y033551D01*
X038224Y033548D01*
X038273Y033541D01*
X038322Y033530D01*
X038370Y033515D01*
X038416Y033497D01*
X038461Y033475D01*
X038504Y033449D01*
X038545Y033420D01*
X038584Y033388D01*
X038620Y033353D01*
X038652Y033315D01*
X038682Y033275D01*
X038709Y033232D01*
X038732Y033188D01*
X038751Y033142D01*
X038767Y033094D01*
X038779Y033045D01*
X038787Y032996D01*
X038791Y032946D01*
X038791Y032896D01*
X038787Y032846D01*
X038779Y032797D01*
X038767Y032748D01*
X038751Y032700D01*
X038732Y032654D01*
X038709Y032610D01*
X038682Y032567D01*
X038652Y032527D01*
X038620Y032489D01*
X038584Y032454D01*
X038545Y032422D01*
X038504Y032393D01*
X038461Y032367D01*
X038416Y032345D01*
X038370Y032327D01*
X038322Y032312D01*
X038273Y032301D01*
X038224Y032294D01*
X038174Y032291D01*
X038123Y032292D01*
X038074Y032297D01*
X038024Y032306D01*
X037976Y032319D01*
X037929Y032335D01*
X037883Y032356D01*
X037839Y032380D01*
X037797Y032407D01*
X037757Y032437D01*
X037720Y032471D01*
X037686Y032508D01*
X037654Y032547D01*
X037626Y032588D01*
X037601Y032632D01*
X037580Y032677D01*
X037563Y032724D01*
X037549Y032772D01*
X037539Y032821D01*
X037533Y032871D01*
X037531Y032921D01*
D11*
X038161Y032921D03*
X038161Y004791D03*
X001508Y004791D03*
X001508Y032940D03*
D12*
X037123Y014793D03*
X037123Y014597D03*
X037123Y014400D03*
X037123Y014203D03*
X037123Y014006D03*
X038040Y014006D03*
X038040Y014203D03*
X038040Y014400D03*
X038040Y014597D03*
X038040Y014793D03*
D13*
X037690Y015040D03*
X037473Y015040D03*
X037473Y013760D03*
X037690Y013760D03*
D14*
X037581Y014400D03*
D15*
X038190Y014400D03*
X038190Y014597D03*
X038190Y014793D03*
X038190Y014203D03*
X038190Y014006D03*
X036973Y014006D03*
X036973Y014203D03*
X036973Y014400D03*
X036973Y014597D03*
X036973Y014793D03*
D16*
X037109Y015916D03*
X038054Y015916D03*
D17*
X036314Y014898D03*
X035802Y014898D03*
X036587Y019023D03*
X037099Y019023D03*
X030760Y024180D03*
X030248Y024180D03*
X030248Y025834D03*
X030760Y025834D03*
X030760Y026976D03*
X030248Y026976D03*
X035858Y026976D03*
X036370Y026976D03*
X024973Y018472D03*
X024461Y018472D03*
X024539Y017921D03*
X024028Y017921D03*
X023929Y020125D03*
X024441Y020125D03*
X015878Y020322D03*
X015366Y020322D03*
X015366Y018354D03*
X015878Y018354D03*
X015957Y010381D03*
X016469Y010381D03*
X016469Y009653D03*
X015957Y009653D03*
D18*
X013575Y009791D03*
X013575Y010302D03*
X012591Y010224D03*
X012591Y009712D03*
X017768Y014751D03*
X017768Y015263D03*
X018791Y015263D03*
X019244Y015263D03*
X019244Y014751D03*
X018791Y014751D03*
X019973Y014791D03*
X019973Y015302D03*
X021370Y015302D03*
X021882Y015302D03*
X021882Y014791D03*
X021370Y014791D03*
X022453Y014673D03*
X022945Y014673D03*
X022945Y014161D03*
X022453Y014161D03*
X031685Y022173D03*
X031685Y022684D03*
X033024Y022684D03*
X033024Y022173D03*
X035150Y020972D03*
X035150Y020460D03*
X038063Y018413D03*
X038063Y017901D03*
X038772Y017901D03*
X038772Y018413D03*
X038772Y020499D03*
X038772Y021011D03*
X038979Y014597D03*
X038979Y014085D03*
X037017Y013344D03*
X037017Y012833D03*
X028221Y024850D03*
X028221Y025361D03*
X030504Y028413D03*
X030504Y028924D03*
X037866Y028550D03*
X037866Y028039D03*
X021685Y023688D03*
X021685Y023176D03*
X019913Y023137D03*
X019913Y023649D03*
X018929Y023629D03*
X018929Y023117D03*
X001528Y010539D03*
X001528Y010027D03*
X000898Y010027D03*
X000898Y010539D03*
D19*
X036547Y017586D03*
X037413Y017960D03*
X036547Y018334D03*
D20*
X022953Y018351D03*
X022953Y018161D03*
X022953Y017961D03*
X022953Y017761D03*
X022953Y017571D03*
X022953Y017371D03*
X022953Y017171D03*
X022953Y016971D03*
X022953Y016781D03*
X022953Y018551D03*
X022953Y018751D03*
X022953Y018941D03*
X022953Y019141D03*
X022953Y019341D03*
X022953Y019531D03*
X022953Y019731D03*
X022953Y019931D03*
X022953Y020121D03*
X022953Y020321D03*
X022953Y020521D03*
X022953Y020711D03*
X022953Y020911D03*
X022953Y021111D03*
X022953Y021311D03*
X022953Y021501D03*
X016873Y021501D03*
X016873Y021311D03*
X016873Y021111D03*
X016873Y020911D03*
X016873Y020711D03*
X016873Y020521D03*
X016873Y020321D03*
X016873Y020121D03*
X016873Y019931D03*
X016873Y019731D03*
X016873Y019531D03*
X016873Y019341D03*
X016873Y019141D03*
X016873Y018941D03*
X016873Y018751D03*
X016873Y018551D03*
X016873Y018351D03*
X016873Y018161D03*
X016873Y017961D03*
X016873Y017761D03*
X016873Y017571D03*
X016873Y017371D03*
X016873Y017171D03*
X016873Y016971D03*
X016873Y016781D03*
D21*
X017553Y016101D03*
X017743Y016101D03*
X017943Y016101D03*
X018143Y016101D03*
X018343Y016101D03*
X018533Y016101D03*
X018733Y016101D03*
X018933Y016101D03*
X019123Y016101D03*
X019323Y016101D03*
X019523Y016101D03*
X019713Y016101D03*
X019913Y016101D03*
X020113Y016101D03*
X020303Y016101D03*
X020503Y016101D03*
X020703Y016101D03*
X020893Y016101D03*
X021093Y016101D03*
X021293Y016101D03*
X021483Y016101D03*
X021683Y016101D03*
X021883Y016101D03*
X022083Y016101D03*
X022273Y016101D03*
X022273Y022181D03*
X022083Y022181D03*
X021883Y022181D03*
X021683Y022181D03*
X021483Y022181D03*
X021293Y022181D03*
X021093Y022181D03*
X020893Y022181D03*
X020703Y022181D03*
X020503Y022181D03*
X020303Y022181D03*
X020113Y022181D03*
X019913Y022181D03*
X019713Y022181D03*
X019523Y022181D03*
X019323Y022181D03*
X019123Y022181D03*
X018933Y022181D03*
X018733Y022181D03*
X018533Y022181D03*
X018343Y022181D03*
X018143Y022181D03*
X017943Y022181D03*
X017743Y022181D03*
X017553Y022181D03*
D22*
X019923Y019121D03*
D23*
X013142Y019180D03*
X013142Y018393D03*
X013142Y016582D03*
X013142Y015795D03*
X013142Y014003D03*
X013142Y013216D03*
X013142Y021031D03*
X013142Y021818D03*
X031016Y028413D03*
X031016Y029043D03*
X032669Y029043D03*
X032669Y028413D03*
D24*
X014362Y021838D03*
X014362Y020736D03*
X014402Y019180D03*
X014402Y018078D03*
X014421Y016641D03*
X014421Y015539D03*
X014421Y014082D03*
X014421Y012980D03*
D25*
X031646Y010283D03*
X031803Y010283D03*
X031961Y010283D03*
X032118Y010283D03*
X032276Y010283D03*
X032433Y010283D03*
X032591Y010283D03*
X032748Y010283D03*
X032906Y010283D03*
X033063Y010283D03*
X033221Y010283D03*
X033378Y010283D03*
X033536Y010283D03*
X033693Y010283D03*
X033850Y010283D03*
X034008Y010283D03*
X034165Y010283D03*
X034323Y010283D03*
X034480Y010283D03*
X034638Y010283D03*
X034795Y010283D03*
X034953Y010283D03*
X035110Y010283D03*
X035268Y010283D03*
X035425Y010283D03*
X035583Y010283D03*
X035740Y010283D03*
X035898Y010283D03*
X036055Y010283D03*
X036213Y010283D03*
X036213Y009338D03*
X036055Y009338D03*
X035898Y009338D03*
X035740Y009338D03*
X035583Y009338D03*
X035425Y009338D03*
X035268Y009338D03*
X035110Y009338D03*
X034953Y009338D03*
X034795Y009338D03*
X034638Y009338D03*
X034480Y009338D03*
X034323Y009338D03*
X034165Y009338D03*
X034008Y009338D03*
X033850Y009338D03*
X033693Y009338D03*
X033536Y009338D03*
X033378Y009338D03*
X033221Y009338D03*
X033063Y009338D03*
X032906Y009338D03*
X032748Y009338D03*
X032591Y009338D03*
X032433Y009338D03*
X032276Y009338D03*
X032118Y009338D03*
X031961Y009338D03*
X031803Y009338D03*
X031646Y009338D03*
D26*
X031252Y009377D03*
X031252Y010243D03*
X036606Y010243D03*
X036606Y009377D03*
D27*
X028221Y026365D03*
X027315Y026365D03*
X026410Y026365D03*
D28*
X027315Y028846D03*
D29*
X028988Y028846D03*
X029736Y028846D03*
D30*
X038496Y008846D03*
X001114Y029141D03*
D31*
X034840Y026331D03*
X035150Y026331D03*
X035470Y026331D03*
X035780Y026331D03*
X036100Y026331D03*
X036410Y026331D03*
X036720Y026331D03*
X037040Y026331D03*
X037350Y026331D03*
X037670Y026331D03*
X037980Y026331D03*
X037980Y021911D03*
X037670Y021911D03*
X037350Y021911D03*
X037040Y021911D03*
X036720Y021911D03*
X036410Y021911D03*
X036100Y021911D03*
X035780Y021911D03*
X035470Y021911D03*
X035150Y021911D03*
X034840Y021911D03*
D32*
X034200Y022551D03*
X034200Y022861D03*
X034200Y023181D03*
X034200Y023491D03*
X034200Y023811D03*
X034200Y024121D03*
X034200Y024431D03*
X034200Y024751D03*
X034200Y025061D03*
X034200Y025381D03*
X034200Y025691D03*
X038620Y025691D03*
X038620Y025381D03*
X038620Y025061D03*
X038620Y024751D03*
X038620Y024431D03*
X038620Y024121D03*
X038620Y023811D03*
X038620Y023491D03*
X038620Y023181D03*
X038620Y022861D03*
X038620Y022551D03*
D33*
X031832Y024173D03*
X031832Y025873D03*
D34*
X038654Y027960D03*
X038654Y028550D03*
D35*
X025248Y028826D03*
X018260Y023334D03*
X017512Y023295D03*
X016724Y023295D03*
X015898Y023295D03*
X015957Y011031D03*
X016036Y008747D03*
X038595Y011149D03*
D36*
X005740Y011247D03*
X005740Y009161D03*
X002433Y009161D03*
X002433Y011247D03*
D37*
X003457Y009062D03*
X003772Y009062D03*
X004087Y009062D03*
X004402Y009062D03*
X004717Y009062D03*
D38*
X031843Y028216D03*
D39*
X014331Y026626D02*
X014331Y026026D01*
X013331Y026026D02*
X013331Y026626D01*
D40*
X023732Y026444D03*
X024992Y026444D03*
D41*
X015257Y010377D03*
X015257Y010007D03*
X015257Y009637D03*
X014177Y009637D03*
X014177Y010377D03*
D42*
X034539Y027842D03*
X034736Y027842D03*
X034933Y027842D03*
X035130Y027842D03*
X035327Y027842D03*
X035524Y027842D03*
D43*
X036223Y028295D03*
X033841Y028295D03*
D44*
X009756Y010027D03*
X009599Y010027D03*
X009441Y010027D03*
X009284Y010027D03*
X009126Y010027D03*
X008969Y010027D03*
X008811Y010027D03*
X008654Y010027D03*
X008496Y010027D03*
D45*
X008417Y009545D03*
X008575Y009545D03*
X008732Y009545D03*
X008890Y009545D03*
X009047Y009545D03*
X009205Y009545D03*
X009362Y009545D03*
X009520Y009545D03*
X009677Y009545D03*
X009835Y009545D03*
D46*
X010347Y010102D03*
X010347Y011424D03*
X007906Y011424D03*
X007906Y010102D03*
M02*
